<?xml version="1.0" encoding="UTF-8" standalone="no"?>
<!DOCTYPE svg PUBLIC "-//W3C//DTD SVG 1.1//EN"
 "http://www.w3.org/Graphics/SVG/1.1/DTD/svg11.dtd">
<!-- Generated by graphviz version 14.1.5 (20260411.2331)
 -->
<!-- Title: WpfAccountingScreens Pages: 1 -->
<svg width="1144pt" height="1460pt"
 viewBox="0.00 0.00 1144.00 1460.00" xmlns="http://www.w3.org/2000/svg" xmlns:xlink="http://www.w3.org/1999/xlink">
<g id="graph0" class="graph" transform="scale(1 1) rotate(0) translate(28.8 1430.8)">
<title>WpfAccountingScreens</title>
<polygon fill="#0f172a" stroke="none" points="-28.8,28.8 -28.8,-1430.8 1115.02,-1430.8 1115.02,28.8 -28.8,28.8"/>
<text xml:space="preserve" text-anchor="middle" x="543.11" y="-1380" font-family="Segoe UI" font-size="20.00">Meridian WPF Accounting screens</text>
<text xml:space="preserve" text-anchor="middle" x="543.11" y="-1356" font-family="Segoe UI" font-size="20.00">(auto&#45;generated from live shell registry)</text>
<g id="clust1" class="cluster">
<title>cluster_section_1</title>
<path fill="#0f172a" stroke="#334155" d="M388.86,-1232C388.86,-1232 1042.9,-1232 1042.9,-1232 1048.9,-1232 1054.9,-1238 1054.9,-1244 1054.9,-1244 1054.9,-1326 1054.9,-1326 1054.9,-1332 1048.9,-1338 1042.9,-1338 1042.9,-1338 388.86,-1338 388.86,-1338 382.86,-1338 376.86,-1332 376.86,-1326 376.86,-1326 376.86,-1244 376.86,-1244 376.86,-1238 382.86,-1232 388.86,-1232"/>
<text xml:space="preserve" text-anchor="middle" x="715.88" y="-1316" font-family="Segoe UI" font-size="20.00">Launchpad</text>
</g>
<g id="clust2" class="cluster">
<title>cluster_section_2</title>
<path fill="#0f172a" stroke="#334155" d="M567.17,-205C567.17,-205 1066.22,-205 1066.22,-205 1072.22,-205 1078.22,-211 1078.22,-217 1078.22,-217 1078.22,-1212 1078.22,-1212 1078.22,-1218 1072.22,-1224 1066.22,-1224 1066.22,-1224 567.17,-1224 567.17,-1224 561.17,-1224 555.17,-1218 555.17,-1212 555.17,-1212 555.17,-217 555.17,-217 555.17,-211 561.17,-205 567.17,-205"/>
<text xml:space="preserve" text-anchor="middle" x="816.69" y="-1202" font-family="Segoe UI" font-size="20.00">Fund Ops</text>
</g>
<g id="clust3" class="cluster">
<title>cluster_section_3</title>
<path fill="#0f172a" stroke="#334155" d="M554.33,-8C554.33,-8 997.44,-8 997.44,-8 1003.44,-8 1009.44,-14 1009.44,-20 1009.44,-20 1009.44,-185 1009.44,-185 1009.44,-191 1003.44,-197 997.44,-197 997.44,-197 554.33,-197 554.33,-197 548.33,-197 542.33,-191 542.33,-185 542.33,-185 542.33,-20 542.33,-20 542.33,-14 548.33,-8 554.33,-8"/>
<text xml:space="preserve" text-anchor="middle" x="775.89" y="-175" font-family="Segoe UI" font-size="20.00">Run Inspectors</text>
</g>
<!-- generated -->
<g id="node1" class="node">
<title>generated</title>
<polygon fill="#1d4ed8" stroke="#60a5fa" points="197.39,-727.2 0,-727.2 0,-668.8 203.39,-668.8 203.39,-721.2 197.39,-727.2"/>
<polyline fill="none" stroke="#60a5fa" points="197.39,-727.2 197.39,-721.2"/>
<polyline fill="none" stroke="#60a5fa" points="203.39,-721.2 197.39,-721.2"/>
<text xml:space="preserve" text-anchor="middle" x="101.69" y="-710.6" font-family="Segoe UI" font-size="14.00" fill="#e2e8f0">Source fingerprint: 459cb7f377ef</text>
<text xml:space="preserve" text-anchor="middle" x="101.69" y="-693.8" font-family="Segoe UI" font-size="14.00" fill="#e2e8f0">Accounting screens: 15</text>
<text xml:space="preserve" text-anchor="middle" x="101.69" y="-677" font-family="Segoe UI" font-size="14.00" fill="#e2e8f0">Sections: 3</text>
</g>
<!-- workspace -->
<g id="node2" class="node">
<title>workspace</title>
<polygon fill="#0f766e" stroke="#2dd4bf" points="489.33,-718.8 486.33,-722.8 465.33,-722.8 462.33,-718.8 264.39,-718.8 264.39,-677.2 489.33,-677.2 489.33,-718.8"/>
<text xml:space="preserve" text-anchor="middle" x="376.86" y="-702.2" font-family="Segoe UI" font-size="14.00" fill="#e2e8f0">Accounting workspace</text>
<text xml:space="preserve" text-anchor="middle" x="376.86" y="-685.4" font-family="Segoe UI" font-size="14.00" fill="#e2e8f0">Primary 7 | Secondary 8 | Overflow 0</text>
</g>
<!-- generated&#45;&gt;workspace -->
<g id="edge1" class="edge">
<title>generated&#45;&gt;workspace</title>
<path fill="none" stroke="#38bdf8" stroke-width="1.2" d="M203.63,-698C220.46,-698 238.06,-698 255.31,-698"/>
<polygon fill="#38bdf8" stroke="#38bdf8" stroke-width="1.2" points="254.98,-700.63 262.48,-698 254.98,-695.38 254.98,-700.63"/>
</g>
<!-- section_1 -->
<g id="node3" class="node">
<title>section_1</title>
<polygon fill="#172554" stroke="#93c5fd" points="639.62,-1285.8 636.62,-1289.8 615.62,-1289.8 612.62,-1285.8 561.43,-1285.8 561.43,-1244.2 639.62,-1244.2 639.62,-1285.8"/>
<text xml:space="preserve" text-anchor="middle" x="600.52" y="-1269.2" font-family="Segoe UI" font-size="14.00" fill="#e2e8f0">Launchpad</text>
<text xml:space="preserve" text-anchor="middle" x="600.52" y="-1252.4" font-family="Segoe UI" font-size="14.00" fill="#e2e8f0">1 screens</text>
</g>
<!-- workspace&#45;&gt;section_1 -->
<g id="edge2" class="edge">
<title>workspace&#45;&gt;section_1</title>
<path fill="none" stroke="#94a3b8" stroke-width="1.2" d="M379.15,-719.21C384.8,-796.05 413.3,-1063.98 542.33,-1230 545.58,-1234.18 549.48,-1237.98 553.7,-1241.4"/>
<polygon fill="#94a3b8" stroke="#94a3b8" stroke-width="1.2" points="551.98,-1243.39 559.57,-1245.73 555.09,-1239.17 551.98,-1243.39"/>
</g>
<!-- section_2 -->
<g id="node5" class="node">
<title>section_2</title>
<polygon fill="#172554" stroke="#93c5fd" points="637.87,-718.8 634.87,-722.8 613.87,-722.8 610.87,-718.8 563.17,-718.8 563.17,-677.2 637.87,-677.2 637.87,-718.8"/>
<text xml:space="preserve" text-anchor="middle" x="600.52" y="-702.2" font-family="Segoe UI" font-size="14.00" fill="#e2e8f0">Fund Ops</text>
<text xml:space="preserve" text-anchor="middle" x="600.52" y="-685.4" font-family="Segoe UI" font-size="14.00" fill="#e2e8f0">12 screens</text>
</g>
<!-- workspace&#45;&gt;section_2 -->
<g id="edge4" class="edge">
<title>workspace&#45;&gt;section_2</title>
<path fill="none" stroke="#94a3b8" stroke-width="1.2" d="M489.67,-698C512.31,-698 534.9,-698 553.65,-698"/>
<polygon fill="#94a3b8" stroke="#94a3b8" stroke-width="1.2" points="553.49,-700.63 560.99,-698 553.49,-695.38 553.49,-700.63"/>
</g>
<!-- section_3 -->
<g id="node18" class="node">
<title>section_3</title>
<polygon fill="#172554" stroke="#93c5fd" points="650.71,-148.8 647.71,-152.8 626.71,-152.8 623.71,-148.8 550.33,-148.8 550.33,-107.2 650.71,-107.2 650.71,-148.8"/>
<text xml:space="preserve" text-anchor="middle" x="600.52" y="-132.2" font-family="Segoe UI" font-size="14.00" fill="#e2e8f0">Run Inspectors</text>
<text xml:space="preserve" text-anchor="middle" x="600.52" y="-115.4" font-family="Segoe UI" font-size="14.00" fill="#e2e8f0">2 screens</text>
</g>
<!-- workspace&#45;&gt;section_3 -->
<g id="edge17" class="edge">
<title>workspace&#45;&gt;section_3</title>
<path fill="none" stroke="#94a3b8" stroke-width="1.2" d="M381.95,-676.96C396.31,-606.14 448.62,-371.27 542.33,-199 550.62,-183.77 562.28,-168.58 572.91,-156.18"/>
<polygon fill="#94a3b8" stroke="#94a3b8" stroke-width="1.2" points="574.85,-157.96 577.82,-150.59 570.9,-154.49 574.85,-157.96"/>
</g>
<!-- screen_AccountingShell -->
<g id="node4" class="node">
<title>screen_AccountingShell</title>
<path fill="#1e293b" stroke="#475569" d="M1034.9,-1298.2C1034.9,-1298.2 747.03,-1298.2 747.03,-1298.2 741.03,-1298.2 735.03,-1292.2 735.03,-1286.2 735.03,-1286.2 735.03,-1251.8 735.03,-1251.8 735.03,-1245.8 741.03,-1239.8 747.03,-1239.8 747.03,-1239.8 1034.9,-1239.8 1034.9,-1239.8 1040.9,-1239.8 1046.9,-1245.8 1046.9,-1251.8 1046.9,-1251.8 1046.9,-1286.2 1046.9,-1286.2 1046.9,-1292.2 1040.9,-1298.2 1034.9,-1298.2"/>
<text xml:space="preserve" text-anchor="middle" x="890.96" y="-1281.6" font-family="Segoe UI" font-size="14.00" fill="#e2e8f0">Accounting Workspace</text>
<text xml:space="preserve" text-anchor="middle" x="890.96" y="-1264.8" font-family="Segoe UI" font-size="14.00" fill="#e2e8f0">AccountingShell → AccountingWorkspaceShellPage</text>
<text xml:space="preserve" text-anchor="middle" x="890.96" y="-1248" font-family="Segoe UI" font-size="14.00" fill="#e2e8f0">Primary | order 0</text>
</g>
<!-- section_1&#45;&gt;screen_AccountingShell -->
<g id="edge3" class="edge">
<title>section_1&#45;&gt;screen_AccountingShell</title>
<path fill="none" stroke="#94a3b8" stroke-width="1.2" d="M639.82,-1265.53C662.66,-1265.85 693.38,-1266.27 725.48,-1266.72"/>
<polygon fill="#94a3b8" stroke="#94a3b8" stroke-width="1.2" points="725.21,-1269.34 732.74,-1266.82 725.28,-1264.09 725.21,-1269.34"/>
</g>
<!-- screen_FundStructureSetup -->
<g id="node6" class="node">
<title>screen_FundStructureSetup</title>
<path fill="#1e293b" stroke="#475569" d="M1021.31,-271.2C1021.31,-271.2 760.61,-271.2 760.61,-271.2 754.61,-271.2 748.61,-265.2 748.61,-259.2 748.61,-259.2 748.61,-224.8 748.61,-224.8 748.61,-218.8 754.61,-212.8 760.61,-212.8 760.61,-212.8 1021.31,-212.8 1021.31,-212.8 1027.31,-212.8 1033.31,-218.8 1033.31,-224.8 1033.31,-224.8 1033.31,-259.2 1033.31,-259.2 1033.31,-265.2 1027.31,-271.2 1021.31,-271.2"/>
<text xml:space="preserve" text-anchor="middle" x="890.96" y="-254.6" font-family="Segoe UI" font-size="14.00" fill="#e2e8f0">Entity setup</text>
<text xml:space="preserve" text-anchor="middle" x="890.96" y="-237.8" font-family="Segoe UI" font-size="14.00" fill="#e2e8f0">FundStructureSetup → FundStructureSetupPage</text>
<text xml:space="preserve" text-anchor="middle" x="890.96" y="-221" font-family="Segoe UI" font-size="14.00" fill="#e2e8f0">Primary | order 5</text>
</g>
<!-- section_2&#45;&gt;screen_FundStructureSetup -->
<g id="edge5" class="edge">
<title>section_2&#45;&gt;screen_FundStructureSetup</title>
<path fill="none" stroke="#94a3b8" stroke-width="1.2" d="M604.26,-676.75C614.56,-600.11 653.37,-339.42 711.71,-283 720.17,-274.82 729.91,-268.15 740.39,-262.72"/>
<polygon fill="#94a3b8" stroke="#94a3b8" stroke-width="1.2" points="741.28,-265.21 746.91,-259.6 739.01,-260.47 741.28,-265.21"/>
</g>
<!-- screen_FundLedger -->
<g id="node7" class="node">
<title>screen_FundLedger</title>
<path fill="#1e293b" stroke="#475569" d="M977.75,-354.2C977.75,-354.2 804.18,-354.2 804.18,-354.2 798.18,-354.2 792.18,-348.2 792.18,-342.2 792.18,-342.2 792.18,-307.8 792.18,-307.8 792.18,-301.8 798.18,-295.8 804.18,-295.8 804.18,-295.8 977.75,-295.8 977.75,-295.8 983.75,-295.8 989.75,-301.8 989.75,-307.8 989.75,-307.8 989.75,-342.2 989.75,-342.2 989.75,-348.2 983.75,-354.2 977.75,-354.2"/>
<text xml:space="preserve" text-anchor="middle" x="890.96" y="-337.6" font-family="Segoe UI" font-size="14.00" fill="#e2e8f0">Fund operations</text>
<text xml:space="preserve" text-anchor="middle" x="890.96" y="-320.8" font-family="Segoe UI" font-size="14.00" fill="#e2e8f0">FundLedger → FundLedgerPage</text>
<text xml:space="preserve" text-anchor="middle" x="890.96" y="-304" font-family="Segoe UI" font-size="14.00" fill="#e2e8f0">Primary | order 10</text>
</g>
<!-- section_2&#45;&gt;screen_FundLedger -->
<g id="edge6" class="edge">
<title>section_2&#45;&gt;screen_FundLedger</title>
<path fill="none" stroke="#94a3b8" stroke-width="1.2" d="M601.82,-676.75C603.86,-617.85 618.05,-451.21 711.71,-366 731.25,-348.22 756.91,-337.67 782.66,-331.52"/>
<polygon fill="#94a3b8" stroke="#94a3b8" stroke-width="1.2" points="783.22,-334.09 789.99,-329.92 782.1,-328.96 783.22,-334.09"/>
</g>
<!-- screen_OperationsContinuity -->
<g id="node8" class="node">
<title>screen_OperationsContinuity</title>
<path fill="#1e293b" stroke="#475569" d="M1030.65,-437.2C1030.65,-437.2 751.28,-437.2 751.28,-437.2 745.28,-437.2 739.28,-431.2 739.28,-425.2 739.28,-425.2 739.28,-390.8 739.28,-390.8 739.28,-384.8 745.28,-378.8 751.28,-378.8 751.28,-378.8 1030.65,-378.8 1030.65,-378.8 1036.65,-378.8 1042.65,-384.8 1042.65,-390.8 1042.65,-390.8 1042.65,-425.2 1042.65,-425.2 1042.65,-431.2 1036.65,-437.2 1030.65,-437.2"/>
<text xml:space="preserve" text-anchor="middle" x="890.96" y="-420.6" font-family="Segoe UI" font-size="14.00" fill="#e2e8f0">Operations continuity</text>
<text xml:space="preserve" text-anchor="middle" x="890.96" y="-403.8" font-family="Segoe UI" font-size="14.00" fill="#e2e8f0">OperationsContinuity → OperationsContinuityPage</text>
<text xml:space="preserve" text-anchor="middle" x="890.96" y="-387" font-family="Segoe UI" font-size="14.00" fill="#e2e8f0">Primary | order 12</text>
</g>
<!-- section_2&#45;&gt;screen_OperationsContinuity -->
<g id="edge7" class="edge">
<title>section_2&#45;&gt;screen_OperationsContinuity</title>
<path fill="none" stroke="#94a3b8" stroke-width="1.2" d="M604.45,-676.84C612.3,-628.49 638.44,-509.49 711.71,-449 717.69,-444.06 724.16,-439.69 730.96,-435.82"/>
<polygon fill="#94a3b8" stroke="#94a3b8" stroke-width="1.2" points="732.09,-438.2 737.49,-432.37 729.63,-433.56 732.09,-438.2"/>
</g>
<!-- screen_FundReconciliation -->
<g id="node9" class="node">
<title>screen_FundReconciliation</title>
<path fill="#1e293b" stroke="#475569" d="M998.75,-520.2C998.75,-520.2 783.18,-520.2 783.18,-520.2 777.18,-520.2 771.18,-514.2 771.18,-508.2 771.18,-508.2 771.18,-473.8 771.18,-473.8 771.18,-467.8 777.18,-461.8 783.18,-461.8 783.18,-461.8 998.75,-461.8 998.75,-461.8 1004.75,-461.8 1010.75,-467.8 1010.75,-473.8 1010.75,-473.8 1010.75,-508.2 1010.75,-508.2 1010.75,-514.2 1004.75,-520.2 998.75,-520.2"/>
<text xml:space="preserve" text-anchor="middle" x="890.96" y="-503.6" font-family="Segoe UI" font-size="14.00" fill="#e2e8f0">Fund reconciliation</text>
<text xml:space="preserve" text-anchor="middle" x="890.96" y="-486.8" font-family="Segoe UI" font-size="14.00" fill="#e2e8f0">FundReconciliation → FundLedgerPage</text>
<text xml:space="preserve" text-anchor="middle" x="890.96" y="-470" font-family="Segoe UI" font-size="14.00" fill="#e2e8f0">Primary | order 70</text>
</g>
<!-- section_2&#45;&gt;screen_FundReconciliation -->
<g id="edge8" class="edge">
<title>section_2&#45;&gt;screen_FundReconciliation</title>
<path fill="none" stroke="#94a3b8" stroke-width="1.2" d="M609.4,-676.92C623.88,-641.19 658.24,-569.01 711.71,-532 726.86,-521.52 744.29,-513.68 762.2,-507.83"/>
<polygon fill="#94a3b8" stroke="#94a3b8" stroke-width="1.2" points="762.89,-510.36 769.28,-505.64 761.34,-505.34 762.89,-510.36"/>
</g>
<!-- screen_FundBanking -->
<g id="node10" class="node">
<title>screen_FundBanking</title>
<path fill="#312e81" stroke="#475569" d="M981.65,-603.2C981.65,-603.2 800.28,-603.2 800.28,-603.2 794.28,-603.2 788.28,-597.2 788.28,-591.2 788.28,-591.2 788.28,-556.8 788.28,-556.8 788.28,-550.8 794.28,-544.8 800.28,-544.8 800.28,-544.8 981.65,-544.8 981.65,-544.8 987.65,-544.8 993.65,-550.8 993.65,-556.8 993.65,-556.8 993.65,-591.2 993.65,-591.2 993.65,-597.2 987.65,-603.2 981.65,-603.2"/>
<text xml:space="preserve" text-anchor="middle" x="890.96" y="-586.6" font-family="Segoe UI" font-size="14.00" fill="#e2e8f0">Fund banking</text>
<text xml:space="preserve" text-anchor="middle" x="890.96" y="-569.8" font-family="Segoe UI" font-size="14.00" fill="#e2e8f0">FundBanking → FundLedgerPage</text>
<text xml:space="preserve" text-anchor="middle" x="890.96" y="-553" font-family="Segoe UI" font-size="14.00" fill="#e2e8f0">Secondary | order 40</text>
</g>
<!-- section_2&#45;&gt;screen_FundBanking -->
<g id="edge9" class="edge">
<title>section_2&#45;&gt;screen_FundBanking</title>
<path fill="none" stroke="#94a3b8" stroke-width="1.2" d="M623.73,-676.75C644.76,-657.79 678.06,-630.67 711.71,-615 732.77,-605.19 756.35,-597.64 779.29,-591.86"/>
<polygon fill="#94a3b8" stroke="#94a3b8" stroke-width="1.2" points="779.61,-594.48 786.28,-590.16 778.37,-589.38 779.61,-594.48"/>
</g>
<!-- screen_FundCashFinancing -->
<g id="node11" class="node">
<title>screen_FundCashFinancing</title>
<path fill="#312e81" stroke="#475569" d="M999.92,-686.2C999.92,-686.2 782,-686.2 782,-686.2 776,-686.2 770,-680.2 770,-674.2 770,-674.2 770,-639.8 770,-639.8 770,-633.8 776,-627.8 782,-627.8 782,-627.8 999.92,-627.8 999.92,-627.8 1005.92,-627.8 1011.92,-633.8 1011.92,-639.8 1011.92,-639.8 1011.92,-674.2 1011.92,-674.2 1011.92,-680.2 1005.92,-686.2 999.92,-686.2"/>
<text xml:space="preserve" text-anchor="middle" x="890.96" y="-669.6" font-family="Segoe UI" font-size="14.00" fill="#e2e8f0">Fund cash and financing</text>
<text xml:space="preserve" text-anchor="middle" x="890.96" y="-652.8" font-family="Segoe UI" font-size="14.00" fill="#e2e8f0">FundCashFinancing → FundLedgerPage</text>
<text xml:space="preserve" text-anchor="middle" x="890.96" y="-636" font-family="Segoe UI" font-size="14.00" fill="#e2e8f0">Secondary | order 50</text>
</g>
<!-- section_2&#45;&gt;screen_FundCashFinancing -->
<g id="edge10" class="edge">
<title>section_2&#45;&gt;screen_FundCashFinancing</title>
<path fill="none" stroke="#94a3b8" stroke-width="1.2" d="M638.35,-692.77C669.46,-688.34 715.97,-681.73 760.56,-675.39"/>
<polygon fill="#94a3b8" stroke="#94a3b8" stroke-width="1.2" points="760.89,-678 767.95,-674.34 760.15,-672.8 760.89,-678"/>
</g>
<!-- screen_FundAccountingConfigure -->
<g id="node12" class="node">
<title>screen_FundAccountingConfigure</title>
<path fill="#312e81" stroke="#475569" d="M1045.8,-769.2C1045.8,-769.2 736.13,-769.2 736.13,-769.2 730.13,-769.2 724.13,-763.2 724.13,-757.2 724.13,-757.2 724.13,-722.8 724.13,-722.8 724.13,-716.8 730.13,-710.8 736.13,-710.8 736.13,-710.8 1045.8,-710.8 1045.8,-710.8 1051.8,-710.8 1057.8,-716.8 1057.8,-722.8 1057.8,-722.8 1057.8,-757.2 1057.8,-757.2 1057.8,-763.2 1051.8,-769.2 1045.8,-769.2"/>
<text xml:space="preserve" text-anchor="middle" x="890.96" y="-752.6" font-family="Segoe UI" font-size="14.00" fill="#e2e8f0">Accounting configure</text>
<text xml:space="preserve" text-anchor="middle" x="890.96" y="-735.8" font-family="Segoe UI" font-size="14.00" fill="#e2e8f0">FundAccountingConfigure → AccountingConfigurePage</text>
<text xml:space="preserve" text-anchor="middle" x="890.96" y="-719" font-family="Segoe UI" font-size="14.00" fill="#e2e8f0">Secondary | order 55</text>
</g>
<!-- section_2&#45;&gt;screen_FundAccountingConfigure -->
<g id="edge11" class="edge">
<title>section_2&#45;&gt;screen_FundAccountingConfigure</title>
<path fill="none" stroke="#94a3b8" stroke-width="1.2" d="M638.35,-703.36C658.79,-706.34 685.86,-710.28 714.68,-714.48"/>
<polygon fill="#94a3b8" stroke="#94a3b8" stroke-width="1.2" points="714.07,-717.04 721.87,-715.52 714.83,-711.85 714.07,-717.04"/>
</g>
<!-- screen_FundAccountingClose -->
<g id="node13" class="node">
<title>screen_FundAccountingClose</title>
<path fill="#312e81" stroke="#475569" d="M1020.92,-852.2C1020.92,-852.2 761.01,-852.2 761.01,-852.2 755.01,-852.2 749.01,-846.2 749.01,-840.2 749.01,-840.2 749.01,-805.8 749.01,-805.8 749.01,-799.8 755.01,-793.8 761.01,-793.8 761.01,-793.8 1020.92,-793.8 1020.92,-793.8 1026.92,-793.8 1032.92,-799.8 1032.92,-805.8 1032.92,-805.8 1032.92,-840.2 1032.92,-840.2 1032.92,-846.2 1026.92,-852.2 1020.92,-852.2"/>
<text xml:space="preserve" text-anchor="middle" x="890.96" y="-835.6" font-family="Segoe UI" font-size="14.00" fill="#e2e8f0">Accounting close</text>
<text xml:space="preserve" text-anchor="middle" x="890.96" y="-818.8" font-family="Segoe UI" font-size="14.00" fill="#e2e8f0">FundAccountingClose → AccountingClosePage</text>
<text xml:space="preserve" text-anchor="middle" x="890.96" y="-802" font-family="Segoe UI" font-size="14.00" fill="#e2e8f0">Secondary | order 57</text>
</g>
<!-- section_2&#45;&gt;screen_FundAccountingClose -->
<g id="edge12" class="edge">
<title>section_2&#45;&gt;screen_FundAccountingClose</title>
<path fill="none" stroke="#94a3b8" stroke-width="1.2" d="M623.28,-719.14C644.25,-738.35 677.74,-766.06 711.71,-782 720.83,-786.28 730.42,-790.12 740.23,-793.58"/>
<polygon fill="#94a3b8" stroke="#94a3b8" stroke-width="1.2" points="739.24,-796.02 747.18,-795.94 740.92,-791.04 739.24,-796.02"/>
</g>
<!-- screen_FundTrialBalance -->
<g id="node14" class="node">
<title>screen_FundTrialBalance</title>
<path fill="#312e81" stroke="#475569" d="M994.07,-935.2C994.07,-935.2 787.85,-935.2 787.85,-935.2 781.85,-935.2 775.85,-929.2 775.85,-923.2 775.85,-923.2 775.85,-888.8 775.85,-888.8 775.85,-882.8 781.85,-876.8 787.85,-876.8 787.85,-876.8 994.07,-876.8 994.07,-876.8 1000.07,-876.8 1006.07,-882.8 1006.07,-888.8 1006.07,-888.8 1006.07,-923.2 1006.07,-923.2 1006.07,-929.2 1000.07,-935.2 994.07,-935.2"/>
<text xml:space="preserve" text-anchor="middle" x="890.96" y="-918.6" font-family="Segoe UI" font-size="14.00" fill="#e2e8f0">Fund trial balance</text>
<text xml:space="preserve" text-anchor="middle" x="890.96" y="-901.8" font-family="Segoe UI" font-size="14.00" fill="#e2e8f0">FundTrialBalance → FundLedgerPage</text>
<text xml:space="preserve" text-anchor="middle" x="890.96" y="-885" font-family="Segoe UI" font-size="14.00" fill="#e2e8f0">Secondary | order 60</text>
</g>
<!-- section_2&#45;&gt;screen_FundTrialBalance -->
<g id="edge13" class="edge">
<title>section_2&#45;&gt;screen_FundTrialBalance</title>
<path fill="none" stroke="#94a3b8" stroke-width="1.2" d="M609.36,-719.21C623.79,-755.15 658.07,-827.76 711.71,-865 728.18,-876.44 747.38,-884.73 766.95,-890.72"/>
<polygon fill="#94a3b8" stroke="#94a3b8" stroke-width="1.2" points="765.97,-893.17 773.91,-892.73 767.43,-888.13 765.97,-893.17"/>
</g>
<!-- screen_LedgerExplorer -->
<g id="node15" class="node">
<title>screen_LedgerExplorer</title>
<path fill="#312e81" stroke="#475569" d="M1024.38,-1018.2C1024.38,-1018.2 757.54,-1018.2 757.54,-1018.2 751.54,-1018.2 745.54,-1012.2 745.54,-1006.2 745.54,-1006.2 745.54,-971.8 745.54,-971.8 745.54,-965.8 751.54,-959.8 757.54,-959.8 757.54,-959.8 1024.38,-959.8 1024.38,-959.8 1030.38,-959.8 1036.38,-965.8 1036.38,-971.8 1036.38,-971.8 1036.38,-1006.2 1036.38,-1006.2 1036.38,-1012.2 1030.38,-1018.2 1024.38,-1018.2"/>
<text xml:space="preserve" text-anchor="middle" x="890.96" y="-1001.6" font-family="Segoe UI" font-size="14.00" fill="#e2e8f0">Ledger explorer</text>
<text xml:space="preserve" text-anchor="middle" x="890.96" y="-984.8" font-family="Segoe UI" font-size="14.00" fill="#e2e8f0">LedgerExplorer → FinancialRecordExplorerPage</text>
<text xml:space="preserve" text-anchor="middle" x="890.96" y="-968" font-family="Segoe UI" font-size="14.00" fill="#e2e8f0">Secondary | order 65</text>
</g>
<!-- section_2&#45;&gt;screen_LedgerExplorer -->
<g id="edge14" class="edge">
<title>section_2&#45;&gt;screen_LedgerExplorer</title>
<path fill="none" stroke="#94a3b8" stroke-width="1.2" d="M604.42,-719.25C612.21,-767.78 638.23,-887.25 711.71,-948 719.39,-954.35 727.87,-959.76 736.83,-964.37"/>
<polygon fill="#94a3b8" stroke="#94a3b8" stroke-width="1.2" points="735.66,-966.71 743.56,-967.59 737.93,-961.98 735.66,-966.71"/>
</g>
<!-- screen_FundAuditTrail -->
<g id="node16" class="node">
<title>screen_FundAuditTrail</title>
<path fill="#312e81" stroke="#475569" d="M987.48,-1101.2C987.48,-1101.2 794.45,-1101.2 794.45,-1101.2 788.45,-1101.2 782.45,-1095.2 782.45,-1089.2 782.45,-1089.2 782.45,-1054.8 782.45,-1054.8 782.45,-1048.8 788.45,-1042.8 794.45,-1042.8 794.45,-1042.8 987.48,-1042.8 987.48,-1042.8 993.48,-1042.8 999.48,-1048.8 999.48,-1054.8 999.48,-1054.8 999.48,-1089.2 999.48,-1089.2 999.48,-1095.2 993.48,-1101.2 987.48,-1101.2"/>
<text xml:space="preserve" text-anchor="middle" x="890.96" y="-1084.6" font-family="Segoe UI" font-size="14.00" fill="#e2e8f0">Fund audit trail</text>
<text xml:space="preserve" text-anchor="middle" x="890.96" y="-1067.8" font-family="Segoe UI" font-size="14.00" fill="#e2e8f0">FundAuditTrail → FundLedgerPage</text>
<text xml:space="preserve" text-anchor="middle" x="890.96" y="-1051" font-family="Segoe UI" font-size="14.00" fill="#e2e8f0">Secondary | order 80</text>
</g>
<!-- section_2&#45;&gt;screen_FundAuditTrail -->
<g id="edge15" class="edge">
<title>section_2&#45;&gt;screen_FundAuditTrail</title>
<path fill="none" stroke="#94a3b8" stroke-width="1.2" d="M601.78,-718.89C603.71,-777.58 617.61,-945.31 711.71,-1031 728.81,-1046.57 750.61,-1056.6 773.05,-1062.98"/>
<polygon fill="#94a3b8" stroke="#94a3b8" stroke-width="1.2" points="772.33,-1065.51 780.25,-1064.87 773.66,-1060.43 772.33,-1065.51"/>
</g>
<!-- screen_SecurityInstrumentExplorer -->
<g id="node17" class="node">
<title>screen_SecurityInstrumentExplorer</title>
<path fill="#312e81" stroke="#475569" d="M1058.22,-1184.2C1058.22,-1184.2 723.71,-1184.2 723.71,-1184.2 717.71,-1184.2 711.71,-1178.2 711.71,-1172.2 711.71,-1172.2 711.71,-1137.8 711.71,-1137.8 711.71,-1131.8 717.71,-1125.8 723.71,-1125.8 723.71,-1125.8 1058.22,-1125.8 1058.22,-1125.8 1064.22,-1125.8 1070.22,-1131.8 1070.22,-1137.8 1070.22,-1137.8 1070.22,-1172.2 1070.22,-1172.2 1070.22,-1178.2 1064.22,-1184.2 1058.22,-1184.2"/>
<text xml:space="preserve" text-anchor="middle" x="890.96" y="-1167.6" font-family="Segoe UI" font-size="14.00" fill="#e2e8f0">Security and instrument explorer</text>
<text xml:space="preserve" text-anchor="middle" x="890.96" y="-1150.8" font-family="Segoe UI" font-size="14.00" fill="#e2e8f0">SecurityInstrumentExplorer → FinancialRecordExplorerPage</text>
<text xml:space="preserve" text-anchor="middle" x="890.96" y="-1134" font-family="Segoe UI" font-size="14.00" fill="#e2e8f0">Secondary | order 90</text>
</g>
<!-- section_2&#45;&gt;screen_SecurityInstrumentExplorer -->
<g id="edge16" class="edge">
<title>section_2&#45;&gt;screen_SecurityInstrumentExplorer</title>
<path fill="none" stroke="#94a3b8" stroke-width="1.2" d="M604.25,-719.3C614.52,-796.12 653.25,-1057.43 711.71,-1114 713.88,-1116.1 716.13,-1118.1 718.46,-1120"/>
<polygon fill="#94a3b8" stroke="#94a3b8" stroke-width="1.2" points="716.64,-1121.92 724.21,-1124.34 719.8,-1117.73 716.64,-1121.92"/>
</g>
<!-- screen_RunLedger -->
<g id="node19" class="node">
<title>screen_RunLedger</title>
<path fill="#1e293b" stroke="#475569" d="M972.3,-74.2C972.3,-74.2 809.63,-74.2 809.63,-74.2 803.63,-74.2 797.63,-68.2 797.63,-62.2 797.63,-62.2 797.63,-27.8 797.63,-27.8 797.63,-21.8 803.63,-15.8 809.63,-15.8 809.63,-15.8 972.3,-15.8 972.3,-15.8 978.3,-15.8 984.3,-21.8 984.3,-27.8 984.3,-27.8 984.3,-62.2 984.3,-62.2 984.3,-68.2 978.3,-74.2 972.3,-74.2"/>
<text xml:space="preserve" text-anchor="middle" x="890.96" y="-57.6" font-family="Segoe UI" font-size="14.00" fill="#e2e8f0">Run ledger</text>
<text xml:space="preserve" text-anchor="middle" x="890.96" y="-40.8" font-family="Segoe UI" font-size="14.00" fill="#e2e8f0">RunLedger → RunLedgerPage</text>
<text xml:space="preserve" text-anchor="middle" x="890.96" y="-24" font-family="Segoe UI" font-size="14.00" fill="#e2e8f0">Primary | order 20</text>
</g>
<!-- section_3&#45;&gt;screen_RunLedger -->
<g id="edge18" class="edge">
<title>section_3&#45;&gt;screen_RunLedger</title>
<path fill="none" stroke="#94a3b8" stroke-width="1.2" d="M651.21,-107.39C669.97,-100.05 691.63,-92.1 711.71,-86 736.31,-78.52 763.17,-71.67 788.41,-65.81"/>
<polygon fill="#94a3b8" stroke="#94a3b8" stroke-width="1.2" points="788.77,-68.42 795.5,-64.18 787.6,-63.3 788.77,-68.42"/>
</g>
<!-- screen_RunCashFlow -->
<g id="node20" class="node">
<title>screen_RunCashFlow</title>
<path fill="#1e293b" stroke="#475569" d="M989.44,-157.2C989.44,-157.2 792.48,-157.2 792.48,-157.2 786.48,-157.2 780.48,-151.2 780.48,-145.2 780.48,-145.2 780.48,-110.8 780.48,-110.8 780.48,-104.8 786.48,-98.8 792.48,-98.8 792.48,-98.8 989.44,-98.8 989.44,-98.8 995.44,-98.8 1001.44,-104.8 1001.44,-110.8 1001.44,-110.8 1001.44,-145.2 1001.44,-145.2 1001.44,-151.2 995.44,-157.2 989.44,-157.2"/>
<text xml:space="preserve" text-anchor="middle" x="890.96" y="-140.6" font-family="Segoe UI" font-size="14.00" fill="#e2e8f0">Run cash flow</text>
<text xml:space="preserve" text-anchor="middle" x="890.96" y="-123.8" font-family="Segoe UI" font-size="14.00" fill="#e2e8f0">RunCashFlow → RunCashFlowPage</text>
<text xml:space="preserve" text-anchor="middle" x="890.96" y="-107" font-family="Segoe UI" font-size="14.00" fill="#e2e8f0">Primary | order 30</text>
</g>
<!-- section_3&#45;&gt;screen_RunCashFlow -->
<g id="edge19" class="edge">
<title>section_3&#45;&gt;screen_RunCashFlow</title>
<path fill="none" stroke="#94a3b8" stroke-width="1.2" d="M651.11,-128C684.12,-128 728.98,-128 770.91,-128"/>
<polygon fill="#94a3b8" stroke="#94a3b8" stroke-width="1.2" points="770.77,-130.63 778.27,-128 770.77,-125.38 770.77,-130.63"/>
</g>
</g>
</svg>
