<?xml version="1.0" encoding="UTF-8" standalone="no"?>
<!DOCTYPE svg PUBLIC "-//W3C//DTD SVG 1.1//EN"
 "http://www.w3.org/Graphics/SVG/1.1/DTD/svg11.dtd">
<!-- Generated by graphviz version 14.1.5 (20260411.2331)
 -->
<!-- Title: WpfDataScreens Pages: 1 -->
<svg width="1115pt" height="2414pt"
 viewBox="0.00 0.00 1115.00 2414.00" xmlns="http://www.w3.org/2000/svg" xmlns:xlink="http://www.w3.org/1999/xlink">
<g id="graph0" class="graph" transform="scale(1 1) rotate(0) translate(28.8 2384.8)">
<title>WpfDataScreens</title>
<polygon fill="#0f172a" stroke="none" points="-28.8,28.8 -28.8,-2384.8 1086.26,-2384.8 1086.26,28.8 -28.8,28.8"/>
<text xml:space="preserve" text-anchor="middle" x="528.73" y="-2334" font-family="Segoe UI" font-size="20.00">Meridian WPF Data screens</text>
<text xml:space="preserve" text-anchor="middle" x="528.73" y="-2310" font-family="Segoe UI" font-size="20.00">(auto&#45;generated from live shell registry)</text>
<g id="clust1" class="cluster">
<title>cluster_section_1</title>
<path fill="#0f172a" stroke="#334155" d="M390.02,-1937C390.02,-1937 1037.46,-1937 1037.46,-1937 1043.46,-1937 1049.46,-1943 1049.46,-1949 1049.46,-1949 1049.46,-2280 1049.46,-2280 1049.46,-2286 1043.46,-2292 1037.46,-2292 1037.46,-2292 390.02,-2292 390.02,-2292 384.02,-2292 378.02,-2286 378.02,-2280 378.02,-2280 378.02,-1949 378.02,-1949 378.02,-1943 384.02,-1937 390.02,-1937"/>
<text xml:space="preserve" text-anchor="middle" x="713.74" y="-2270" font-family="Segoe UI" font-size="20.00">Inspectors</text>
</g>
<g id="clust2" class="cluster">
<title>cluster_section_2</title>
<path fill="#0f172a" stroke="#334155" d="M583.88,-1491C583.88,-1491 1016.47,-1491 1016.47,-1491 1022.47,-1491 1028.47,-1497 1028.47,-1503 1028.47,-1503 1028.47,-1917 1028.47,-1917 1028.47,-1923 1022.47,-1929 1016.47,-1929 1016.47,-1929 583.88,-1929 583.88,-1929 577.88,-1929 571.88,-1923 571.88,-1917 571.88,-1917 571.88,-1503 571.88,-1503 571.88,-1497 577.88,-1491 583.88,-1491"/>
<text xml:space="preserve" text-anchor="middle" x="800.18" y="-1907" font-family="Segoe UI" font-size="20.00">Catalog</text>
</g>
<g id="clust3" class="cluster">
<title>cluster_section_3</title>
<path fill="#0f172a" stroke="#334155" d="M559,-962C559,-962 1027.33,-962 1027.33,-962 1033.33,-962 1039.33,-968 1039.33,-974 1039.33,-974 1039.33,-1471 1039.33,-1471 1039.33,-1477 1033.33,-1483 1027.33,-1483 1027.33,-1483 559,-1483 559,-1483 553,-1483 547,-1477 547,-1471 547,-1471 547,-974 547,-974 547,-968 553,-962 559,-962"/>
<text xml:space="preserve" text-anchor="middle" x="793.17" y="-1461" font-family="Segoe UI" font-size="20.00">Operations Queue</text>
</g>
<g id="clust4" class="cluster">
<title>cluster_section_4</title>
<path fill="#0f172a" stroke="#334155" d="M580.57,-516C580.57,-516 1030.46,-516 1030.46,-516 1036.46,-516 1042.46,-522 1042.46,-528 1042.46,-528 1042.46,-942 1042.46,-942 1042.46,-948 1036.46,-954 1030.46,-954 1030.46,-954 580.57,-954 580.57,-954 574.57,-954 568.57,-948 568.57,-942 568.57,-942 568.57,-528 568.57,-528 568.57,-522 574.57,-516 580.57,-516"/>
<text xml:space="preserve" text-anchor="middle" x="805.52" y="-932" font-family="Segoe UI" font-size="20.00">Assurance</text>
</g>
<g id="clust5" class="cluster">
<title>cluster_section_5</title>
<path fill="#0f172a" stroke="#334155" d="M578.63,-402C578.63,-402 1000.51,-402 1000.51,-402 1006.51,-402 1012.51,-408 1012.51,-414 1012.51,-414 1012.51,-496 1012.51,-496 1012.51,-502 1006.51,-508 1000.51,-508 1000.51,-508 578.63,-508 578.63,-508 572.63,-508 566.63,-502 566.63,-496 566.63,-496 566.63,-414 566.63,-414 566.63,-408 572.63,-402 578.63,-402"/>
<text xml:space="preserve" text-anchor="middle" x="789.57" y="-486" font-family="Segoe UI" font-size="20.00">Launchpad</text>
</g>
<g id="clust6" class="cluster">
<title>cluster_section_6</title>
<path fill="#0f172a" stroke="#334155" d="M583.88,-205C583.88,-205 992.73,-205 992.73,-205 998.73,-205 1004.73,-211 1004.73,-217 1004.73,-217 1004.73,-382 1004.73,-382 1004.73,-388 998.73,-394 992.73,-394 992.73,-394 583.88,-394 583.88,-394 577.88,-394 571.88,-388 571.88,-382 571.88,-382 571.88,-217 571.88,-217 571.88,-211 577.88,-205 583.88,-205"/>
<text xml:space="preserve" text-anchor="middle" x="788.31" y="-372" font-family="Segoe UI" font-size="20.00">Platform</text>
</g>
<g id="clust7" class="cluster">
<title>cluster_section_7</title>
<path fill="#0f172a" stroke="#334155" d="M580.57,-8C580.57,-8 1010.21,-8 1010.21,-8 1016.21,-8 1022.21,-14 1022.21,-20 1022.21,-20 1022.21,-185 1022.21,-185 1022.21,-191 1016.21,-197 1010.21,-197 1010.21,-197 580.57,-197 580.57,-197 574.57,-197 568.57,-191 568.57,-185 568.57,-185 568.57,-20 568.57,-20 568.57,-14 574.57,-8 580.57,-8"/>
<text xml:space="preserve" text-anchor="middle" x="795.39" y="-175" font-family="Segoe UI" font-size="20.00">Packaging</text>
</g>
<!-- generated -->
<g id="node1" class="node">
<title>generated</title>
<polygon fill="#1d4ed8" stroke="#60a5fa" points="195.05,-748.2 0,-748.2 0,-689.8 201.05,-689.8 201.05,-742.2 195.05,-748.2"/>
<polyline fill="none" stroke="#60a5fa" points="195.05,-748.2 195.05,-742.2"/>
<polyline fill="none" stroke="#60a5fa" points="201.05,-742.2 195.05,-742.2"/>
<text xml:space="preserve" text-anchor="middle" x="100.52" y="-731.6" font-family="Segoe UI" font-size="14.00" fill="#e2e8f0">Source fingerprint: 5f1ff707e85e</text>
<text xml:space="preserve" text-anchor="middle" x="100.52" y="-714.8" font-family="Segoe UI" font-size="14.00" fill="#e2e8f0">Data screens: 25</text>
<text xml:space="preserve" text-anchor="middle" x="100.52" y="-698" font-family="Segoe UI" font-size="14.00" fill="#e2e8f0">Sections: 7</text>
</g>
<!-- workspace -->
<g id="node2" class="node">
<title>workspace</title>
<polygon fill="#0f766e" stroke="#2dd4bf" points="494,-739.8 491,-743.8 470,-743.8 467,-739.8 262.05,-739.8 262.05,-698.2 494,-698.2 494,-739.8"/>
<text xml:space="preserve" text-anchor="middle" x="378.02" y="-723.2" font-family="Segoe UI" font-size="14.00" fill="#e2e8f0">Data workspace</text>
<text xml:space="preserve" text-anchor="middle" x="378.02" y="-706.4" font-family="Segoe UI" font-size="14.00" fill="#e2e8f0">Primary 6 | Secondary 9 | Overflow 10</text>
</g>
<!-- generated&#45;&gt;workspace -->
<g id="edge1" class="edge">
<title>generated&#45;&gt;workspace</title>
<path fill="none" stroke="#38bdf8" stroke-width="1.2" d="M201.38,-719C218.03,-719 235.48,-719 252.66,-719"/>
<polygon fill="#38bdf8" stroke="#38bdf8" stroke-width="1.2" points="252.29,-721.63 259.79,-719 252.29,-716.38 252.29,-721.63"/>
</g>
<!-- section_1 -->
<g id="node3" class="node">
<title>section_1</title>
<polygon fill="#172554" stroke="#93c5fd" points="650.5,-2077.8 647.5,-2081.8 626.5,-2081.8 623.5,-2077.8 576.96,-2077.8 576.96,-2036.2 650.5,-2036.2 650.5,-2077.8"/>
<text xml:space="preserve" text-anchor="middle" x="613.73" y="-2061.2" font-family="Segoe UI" font-size="14.00" fill="#e2e8f0">Inspectors</text>
<text xml:space="preserve" text-anchor="middle" x="613.73" y="-2044.4" font-family="Segoe UI" font-size="14.00" fill="#e2e8f0">4 screens</text>
</g>
<!-- workspace&#45;&gt;section_1 -->
<g id="edge2" class="edge">
<title>workspace&#45;&gt;section_1</title>
<path fill="none" stroke="#94a3b8" stroke-width="1.2" d="M379.16,-740.05C380.52,-860.14 394.96,-1469.57 547,-1935 558.07,-1968.9 578.36,-2004.45 593.48,-2028.37"/>
<polygon fill="#94a3b8" stroke="#94a3b8" stroke-width="1.2" points="591.15,-2029.6 597.41,-2034.49 595.57,-2026.76 591.15,-2029.6"/>
</g>
<!-- section_2 -->
<g id="node8" class="node">
<title>section_2</title>
<polygon fill="#172554" stroke="#93c5fd" points="647.58,-1672.8 644.58,-1676.8 623.58,-1676.8 620.58,-1672.8 579.88,-1672.8 579.88,-1631.2 647.58,-1631.2 647.58,-1672.8"/>
<text xml:space="preserve" text-anchor="middle" x="613.73" y="-1656.2" font-family="Segoe UI" font-size="14.00" fill="#e2e8f0">Catalog</text>
<text xml:space="preserve" text-anchor="middle" x="613.73" y="-1639.4" font-family="Segoe UI" font-size="14.00" fill="#e2e8f0">5 screens</text>
</g>
<!-- workspace&#45;&gt;section_2 -->
<g id="edge7" class="edge">
<title>workspace&#45;&gt;section_2</title>
<path fill="none" stroke="#94a3b8" stroke-width="1.2" d="M382.29,-740.16C396.63,-831.2 457.31,-1198.08 547,-1489 561.77,-1536.91 584.66,-1590.47 599.16,-1622.69"/>
<polygon fill="#94a3b8" stroke="#94a3b8" stroke-width="1.2" points="596.6,-1623.4 602.08,-1629.14 601.38,-1621.23 596.6,-1623.4"/>
</g>
<!-- section_3 -->
<g id="node14" class="node">
<title>section_3</title>
<polygon fill="#172554" stroke="#93c5fd" points="672.46,-1185.8 669.46,-1189.8 648.46,-1189.8 645.46,-1185.8 555,-1185.8 555,-1144.2 672.46,-1144.2 672.46,-1185.8"/>
<text xml:space="preserve" text-anchor="middle" x="613.73" y="-1169.2" font-family="Segoe UI" font-size="14.00" fill="#e2e8f0">Operations Queue</text>
<text xml:space="preserve" text-anchor="middle" x="613.73" y="-1152.4" font-family="Segoe UI" font-size="14.00" fill="#e2e8f0">6 screens</text>
</g>
<!-- workspace&#45;&gt;section_3 -->
<g id="edge13" class="edge">
<title>workspace&#45;&gt;section_3</title>
<path fill="none" stroke="#94a3b8" stroke-width="1.2" d="M390.14,-740.21C428.24,-812.93 553.66,-1052.27 597.46,-1135.87"/>
<polygon fill="#94a3b8" stroke="#94a3b8" stroke-width="1.2" points="595.03,-1136.88 600.84,-1142.31 599.68,-1134.45 595.03,-1136.88"/>
</g>
<!-- section_4 -->
<g id="node21" class="node">
<title>section_4</title>
<polygon fill="#172554" stroke="#93c5fd" points="650.88,-739.8 647.88,-743.8 626.88,-743.8 623.88,-739.8 576.57,-739.8 576.57,-698.2 650.88,-698.2 650.88,-739.8"/>
<text xml:space="preserve" text-anchor="middle" x="613.73" y="-723.2" font-family="Segoe UI" font-size="14.00" fill="#e2e8f0">Assurance</text>
<text xml:space="preserve" text-anchor="middle" x="613.73" y="-706.4" font-family="Segoe UI" font-size="14.00" fill="#e2e8f0">5 screens</text>
</g>
<!-- workspace&#45;&gt;section_4 -->
<g id="edge20" class="edge">
<title>workspace&#45;&gt;section_4</title>
<path fill="none" stroke="#94a3b8" stroke-width="1.2" d="M494.16,-719C519.94,-719 545.83,-719 566.81,-719"/>
<polygon fill="#94a3b8" stroke="#94a3b8" stroke-width="1.2" points="566.77,-721.63 574.27,-719 566.77,-716.38 566.77,-721.63"/>
</g>
<!-- section_5 -->
<g id="node27" class="node">
<title>section_5</title>
<polygon fill="#172554" stroke="#93c5fd" points="652.83,-463.8 649.83,-467.8 628.83,-467.8 625.83,-463.8 574.63,-463.8 574.63,-422.2 652.83,-422.2 652.83,-463.8"/>
<text xml:space="preserve" text-anchor="middle" x="613.73" y="-447.2" font-family="Segoe UI" font-size="14.00" fill="#e2e8f0">Launchpad</text>
<text xml:space="preserve" text-anchor="middle" x="613.73" y="-430.4" font-family="Segoe UI" font-size="14.00" fill="#e2e8f0">1 screens</text>
</g>
<!-- workspace&#45;&gt;section_5 -->
<g id="edge26" class="edge">
<title>workspace&#45;&gt;section_5</title>
<path fill="none" stroke="#94a3b8" stroke-width="1.2" d="M394.82,-697.97C423.84,-659.66 488.09,-576.29 547,-510 558.87,-496.64 572.63,-482.43 584.49,-470.55"/>
<polygon fill="#94a3b8" stroke="#94a3b8" stroke-width="1.2" points="586.11,-472.64 589.57,-465.49 582.4,-468.92 586.11,-472.64"/>
</g>
<!-- section_6 -->
<g id="node29" class="node">
<title>section_6</title>
<polygon fill="#172554" stroke="#93c5fd" points="647.58,-345.8 644.58,-349.8 623.58,-349.8 620.58,-345.8 579.88,-345.8 579.88,-304.2 647.58,-304.2 647.58,-345.8"/>
<text xml:space="preserve" text-anchor="middle" x="613.73" y="-329.2" font-family="Segoe UI" font-size="14.00" fill="#e2e8f0">Platform</text>
<text xml:space="preserve" text-anchor="middle" x="613.73" y="-312.4" font-family="Segoe UI" font-size="14.00" fill="#e2e8f0">2 screens</text>
</g>
<!-- workspace&#45;&gt;section_6 -->
<g id="edge28" class="edge">
<title>workspace&#45;&gt;section_6</title>
<path fill="none" stroke="#94a3b8" stroke-width="1.2" d="M387.65,-697.88C409.88,-644.64 472.61,-501.71 547,-396 557.86,-380.56 571.86,-364.99 584.14,-352.38"/>
<polygon fill="#94a3b8" stroke="#94a3b8" stroke-width="1.2" points="585.7,-354.54 589.11,-347.36 581.97,-350.85 585.7,-354.54"/>
</g>
<!-- section_7 -->
<g id="node32" class="node">
<title>section_7</title>
<polygon fill="#172554" stroke="#93c5fd" points="650.89,-148.8 647.89,-152.8 626.89,-152.8 623.89,-148.8 576.57,-148.8 576.57,-107.2 650.89,-107.2 650.89,-148.8"/>
<text xml:space="preserve" text-anchor="middle" x="613.73" y="-132.2" font-family="Segoe UI" font-size="14.00" fill="#e2e8f0">Packaging</text>
<text xml:space="preserve" text-anchor="middle" x="613.73" y="-115.4" font-family="Segoe UI" font-size="14.00" fill="#e2e8f0">2 screens</text>
</g>
<!-- workspace&#45;&gt;section_7 -->
<g id="edge31" class="edge">
<title>workspace&#45;&gt;section_7</title>
<path fill="none" stroke="#94a3b8" stroke-width="1.2" d="M382.46,-697.83C395.06,-624.46 443.46,-375.84 547,-199 556.23,-183.22 569.5,-168.03 581.7,-155.77"/>
<polygon fill="#94a3b8" stroke="#94a3b8" stroke-width="1.2" points="583.51,-157.67 587.03,-150.55 579.84,-153.92 583.51,-157.67"/>
</g>
<!-- screen_DataBrowser -->
<g id="node4" class="node">
<title>screen_DataBrowser</title>
<path fill="#431407" stroke="#475569" d="M979.68,-2003.2C979.68,-2003.2 795.24,-2003.2 795.24,-2003.2 789.24,-2003.2 783.24,-1997.2 783.24,-1991.2 783.24,-1991.2 783.24,-1956.8 783.24,-1956.8 783.24,-1950.8 789.24,-1944.8 795.24,-1944.8 795.24,-1944.8 979.68,-1944.8 979.68,-1944.8 985.68,-1944.8 991.68,-1950.8 991.68,-1956.8 991.68,-1956.8 991.68,-1991.2 991.68,-1991.2 991.68,-1997.2 985.68,-2003.2 979.68,-2003.2"/>
<text xml:space="preserve" text-anchor="middle" x="887.46" y="-1986.6" font-family="Segoe UI" font-size="14.00" fill="#e2e8f0">Data browser</text>
<text xml:space="preserve" text-anchor="middle" x="887.46" y="-1969.8" font-family="Segoe UI" font-size="14.00" fill="#e2e8f0">DataBrowser → DataBrowserPage</text>
<text xml:space="preserve" text-anchor="middle" x="887.46" y="-1953" font-family="Segoe UI" font-size="14.00" fill="#e2e8f0">Overflow | order 140</text>
</g>
<!-- section_1&#45;&gt;screen_DataBrowser -->
<g id="edge3" class="edge">
<title>section_1&#45;&gt;screen_DataBrowser</title>
<path fill="none" stroke="#94a3b8" stroke-width="1.2" d="M650.86,-2043.39C674.26,-2034.78 705.48,-2023.68 733.46,-2015 746.5,-2010.95 760.23,-2006.94 773.89,-2003.09"/>
<polygon fill="#94a3b8" stroke="#94a3b8" stroke-width="1.2" points="774.59,-2005.62 781.11,-2001.07 773.18,-2000.56 774.59,-2005.62"/>
</g>
<!-- screen_DataCalendar -->
<g id="node5" class="node">
<title>screen_DataCalendar</title>
<path fill="#431407" stroke="#475569" d="M982.78,-2086.2C982.78,-2086.2 792.14,-2086.2 792.14,-2086.2 786.14,-2086.2 780.14,-2080.2 780.14,-2074.2 780.14,-2074.2 780.14,-2039.8 780.14,-2039.8 780.14,-2033.8 786.14,-2027.8 792.14,-2027.8 792.14,-2027.8 982.78,-2027.8 982.78,-2027.8 988.78,-2027.8 994.78,-2033.8 994.78,-2039.8 994.78,-2039.8 994.78,-2074.2 994.78,-2074.2 994.78,-2080.2 988.78,-2086.2 982.78,-2086.2"/>
<text xml:space="preserve" text-anchor="middle" x="887.46" y="-2069.6" font-family="Segoe UI" font-size="14.00" fill="#e2e8f0">Data calendar</text>
<text xml:space="preserve" text-anchor="middle" x="887.46" y="-2052.8" font-family="Segoe UI" font-size="14.00" fill="#e2e8f0">DataCalendar → DataCalendarPage</text>
<text xml:space="preserve" text-anchor="middle" x="887.46" y="-2036" font-family="Segoe UI" font-size="14.00" fill="#e2e8f0">Overflow | order 150</text>
</g>
<!-- section_1&#45;&gt;screen_DataCalendar -->
<g id="edge4" class="edge">
<title>section_1&#45;&gt;screen_DataCalendar</title>
<path fill="none" stroke="#94a3b8" stroke-width="1.2" d="M650.81,-2057C681.54,-2057 727.45,-2057 770.61,-2057"/>
<polygon fill="#94a3b8" stroke="#94a3b8" stroke-width="1.2" points="770.45,-2059.63 777.95,-2057 770.45,-2054.38 770.45,-2059.63"/>
</g>
<!-- screen_DataSampling -->
<g id="node6" class="node">
<title>screen_DataSampling</title>
<path fill="#431407" stroke="#475569" d="M985.91,-2169.2C985.91,-2169.2 789.01,-2169.2 789.01,-2169.2 783.01,-2169.2 777.01,-2163.2 777.01,-2157.2 777.01,-2157.2 777.01,-2122.8 777.01,-2122.8 777.01,-2116.8 783.01,-2110.8 789.01,-2110.8 789.01,-2110.8 985.91,-2110.8 985.91,-2110.8 991.91,-2110.8 997.91,-2116.8 997.91,-2122.8 997.91,-2122.8 997.91,-2157.2 997.91,-2157.2 997.91,-2163.2 991.91,-2169.2 985.91,-2169.2"/>
<text xml:space="preserve" text-anchor="middle" x="887.46" y="-2152.6" font-family="Segoe UI" font-size="14.00" fill="#e2e8f0">Data sampling</text>
<text xml:space="preserve" text-anchor="middle" x="887.46" y="-2135.8" font-family="Segoe UI" font-size="14.00" fill="#e2e8f0">DataSampling → DataSamplingPage</text>
<text xml:space="preserve" text-anchor="middle" x="887.46" y="-2119" font-family="Segoe UI" font-size="14.00" fill="#e2e8f0">Overflow | order 160</text>
</g>
<!-- section_1&#45;&gt;screen_DataSampling -->
<g id="edge5" class="edge">
<title>section_1&#45;&gt;screen_DataSampling</title>
<path fill="none" stroke="#94a3b8" stroke-width="1.2" d="M650.86,-2070.61C674.26,-2079.22 705.48,-2090.32 733.46,-2099 744.55,-2102.44 756.15,-2105.86 767.78,-2109.18"/>
<polygon fill="#94a3b8" stroke="#94a3b8" stroke-width="1.2" points="767,-2111.69 774.93,-2111.2 768.43,-2106.63 767,-2111.69"/>
</g>
<!-- screen_TimeSeriesAlignment -->
<g id="node7" class="node">
<title>screen_TimeSeriesAlignment</title>
<path fill="#431407" stroke="#475569" d="M1029.46,-2252.2C1029.46,-2252.2 745.46,-2252.2 745.46,-2252.2 739.46,-2252.2 733.46,-2246.2 733.46,-2240.2 733.46,-2240.2 733.46,-2205.8 733.46,-2205.8 733.46,-2199.8 739.46,-2193.8 745.46,-2193.8 745.46,-2193.8 1029.46,-2193.8 1029.46,-2193.8 1035.46,-2193.8 1041.46,-2199.8 1041.46,-2205.8 1041.46,-2205.8 1041.46,-2240.2 1041.46,-2240.2 1041.46,-2246.2 1035.46,-2252.2 1029.46,-2252.2"/>
<text xml:space="preserve" text-anchor="middle" x="887.46" y="-2235.6" font-family="Segoe UI" font-size="14.00" fill="#e2e8f0">Time series alignment</text>
<text xml:space="preserve" text-anchor="middle" x="887.46" y="-2218.8" font-family="Segoe UI" font-size="14.00" fill="#e2e8f0">TimeSeriesAlignment → TimeSeriesAlignmentPage</text>
<text xml:space="preserve" text-anchor="middle" x="887.46" y="-2202" font-family="Segoe UI" font-size="14.00" fill="#e2e8f0">Overflow | order 170</text>
</g>
<!-- section_1&#45;&gt;screen_TimeSeriesAlignment -->
<g id="edge6" class="edge">
<title>section_1&#45;&gt;screen_TimeSeriesAlignment</title>
<path fill="none" stroke="#94a3b8" stroke-width="1.2" d="M629,-2078.1C649.04,-2106.09 688.18,-2155.08 733.46,-2182 738,-2184.7 742.73,-2187.23 747.58,-2189.59"/>
<polygon fill="#94a3b8" stroke="#94a3b8" stroke-width="1.2" points="746.29,-2191.89 754.2,-2192.65 748.5,-2187.12 746.29,-2191.89"/>
</g>
<!-- screen_IndexSubscription -->
<g id="node9" class="node">
<title>screen_IndexSubscription</title>
<path fill="#431407" stroke="#475569" d="M1008.47,-1557.2C1008.47,-1557.2 766.45,-1557.2 766.45,-1557.2 760.45,-1557.2 754.45,-1551.2 754.45,-1545.2 754.45,-1545.2 754.45,-1510.8 754.45,-1510.8 754.45,-1504.8 760.45,-1498.8 766.45,-1498.8 766.45,-1498.8 1008.47,-1498.8 1008.47,-1498.8 1014.47,-1498.8 1020.47,-1504.8 1020.47,-1510.8 1020.47,-1510.8 1020.47,-1545.2 1020.47,-1545.2 1020.47,-1551.2 1014.47,-1557.2 1008.47,-1557.2"/>
<text xml:space="preserve" text-anchor="middle" x="887.46" y="-1540.6" font-family="Segoe UI" font-size="14.00" fill="#e2e8f0">Index subscription</text>
<text xml:space="preserve" text-anchor="middle" x="887.46" y="-1523.8" font-family="Segoe UI" font-size="14.00" fill="#e2e8f0">IndexSubscription → IndexSubscriptionPage</text>
<text xml:space="preserve" text-anchor="middle" x="887.46" y="-1507" font-family="Segoe UI" font-size="14.00" fill="#e2e8f0">Overflow | order 180</text>
</g>
<!-- section_2&#45;&gt;screen_IndexSubscription -->
<g id="edge8" class="edge">
<title>section_2&#45;&gt;screen_IndexSubscription</title>
<path fill="none" stroke="#94a3b8" stroke-width="1.2" d="M639.54,-1630.76C662.52,-1612.07 698.35,-1585.36 733.46,-1569 739.68,-1566.1 746.15,-1563.38 752.75,-1560.82"/>
<polygon fill="#94a3b8" stroke="#94a3b8" stroke-width="1.2" points="753.36,-1563.4 759.47,-1558.31 751.52,-1558.48 753.36,-1563.4"/>
</g>
<!-- screen_Options -->
<g id="node10" class="node">
<title>screen_Options</title>
<path fill="#431407" stroke="#475569" d="M950.16,-1640.2C950.16,-1640.2 824.77,-1640.2 824.77,-1640.2 818.77,-1640.2 812.77,-1634.2 812.77,-1628.2 812.77,-1628.2 812.77,-1593.8 812.77,-1593.8 812.77,-1587.8 818.77,-1581.8 824.77,-1581.8 824.77,-1581.8 950.16,-1581.8 950.16,-1581.8 956.16,-1581.8 962.16,-1587.8 962.16,-1593.8 962.16,-1593.8 962.16,-1628.2 962.16,-1628.2 962.16,-1634.2 956.16,-1640.2 950.16,-1640.2"/>
<text xml:space="preserve" text-anchor="middle" x="887.46" y="-1623.6" font-family="Segoe UI" font-size="14.00" fill="#e2e8f0">Options</text>
<text xml:space="preserve" text-anchor="middle" x="887.46" y="-1606.8" font-family="Segoe UI" font-size="14.00" fill="#e2e8f0">Options → OptionsPage</text>
<text xml:space="preserve" text-anchor="middle" x="887.46" y="-1590" font-family="Segoe UI" font-size="14.00" fill="#e2e8f0">Overflow | order 190</text>
</g>
<!-- section_2&#45;&gt;screen_Options -->
<g id="edge9" class="edge">
<title>section_2&#45;&gt;screen_Options</title>
<path fill="none" stroke="#94a3b8" stroke-width="1.2" d="M648.05,-1646.97C686.5,-1641.17 751.14,-1631.42 803.42,-1623.53"/>
<polygon fill="#94a3b8" stroke="#94a3b8" stroke-width="1.2" points="803.55,-1626.17 810.57,-1622.45 802.76,-1620.97 803.55,-1626.17"/>
</g>
<!-- screen_Symbols -->
<g id="node11" class="node">
<title>screen_Symbols</title>
<path fill="#1e293b" stroke="#475569" d="M954.83,-1723.2C954.83,-1723.2 820.09,-1723.2 820.09,-1723.2 814.09,-1723.2 808.09,-1717.2 808.09,-1711.2 808.09,-1711.2 808.09,-1676.8 808.09,-1676.8 808.09,-1670.8 814.09,-1664.8 820.09,-1664.8 820.09,-1664.8 954.83,-1664.8 954.83,-1664.8 960.83,-1664.8 966.83,-1670.8 966.83,-1676.8 966.83,-1676.8 966.83,-1711.2 966.83,-1711.2 966.83,-1717.2 960.83,-1723.2 954.83,-1723.2"/>
<text xml:space="preserve" text-anchor="middle" x="887.46" y="-1706.6" font-family="Segoe UI" font-size="14.00" fill="#e2e8f0">Symbols</text>
<text xml:space="preserve" text-anchor="middle" x="887.46" y="-1689.8" font-family="Segoe UI" font-size="14.00" fill="#e2e8f0">Symbols → SymbolsPage</text>
<text xml:space="preserve" text-anchor="middle" x="887.46" y="-1673" font-family="Segoe UI" font-size="14.00" fill="#e2e8f0">Primary | order 30</text>
</g>
<!-- section_2&#45;&gt;screen_Symbols -->
<g id="edge10" class="edge">
<title>section_2&#45;&gt;screen_Symbols</title>
<path fill="none" stroke="#94a3b8" stroke-width="1.2" d="M648.05,-1657.15C685.35,-1662.92 747.3,-1672.49 798.7,-1680.44"/>
<polygon fill="#94a3b8" stroke="#94a3b8" stroke-width="1.2" points="798.23,-1683.02 806.05,-1681.57 799.04,-1677.83 798.23,-1683.02"/>
</g>
<!-- screen_SymbolMapping -->
<g id="node12" class="node">
<title>screen_SymbolMapping</title>
<path fill="#312e81" stroke="#475569" d="M999.93,-1806.2C999.93,-1806.2 774.99,-1806.2 774.99,-1806.2 768.99,-1806.2 762.99,-1800.2 762.99,-1794.2 762.99,-1794.2 762.99,-1759.8 762.99,-1759.8 762.99,-1753.8 768.99,-1747.8 774.99,-1747.8 774.99,-1747.8 999.93,-1747.8 999.93,-1747.8 1005.93,-1747.8 1011.93,-1753.8 1011.93,-1759.8 1011.93,-1759.8 1011.93,-1794.2 1011.93,-1794.2 1011.93,-1800.2 1005.93,-1806.2 999.93,-1806.2"/>
<text xml:space="preserve" text-anchor="middle" x="887.46" y="-1789.6" font-family="Segoe UI" font-size="14.00" fill="#e2e8f0">Symbol mapping</text>
<text xml:space="preserve" text-anchor="middle" x="887.46" y="-1772.8" font-family="Segoe UI" font-size="14.00" fill="#e2e8f0">SymbolMapping → SymbolMappingPage</text>
<text xml:space="preserve" text-anchor="middle" x="887.46" y="-1756" font-family="Segoe UI" font-size="14.00" fill="#e2e8f0">Secondary | order 90</text>
</g>
<!-- section_2&#45;&gt;screen_SymbolMapping -->
<g id="edge11" class="edge">
<title>section_2&#45;&gt;screen_SymbolMapping</title>
<path fill="none" stroke="#94a3b8" stroke-width="1.2" d="M639.05,-1673.14C661.98,-1692.09 698.03,-1719.37 733.46,-1736 740.17,-1739.15 747.16,-1742.09 754.31,-1744.83"/>
<polygon fill="#94a3b8" stroke="#94a3b8" stroke-width="1.2" points="753.1,-1747.18 761.05,-1747.33 754.93,-1742.26 753.1,-1747.18"/>
</g>
<!-- screen_SymbolStorage -->
<g id="node13" class="node">
<title>screen_SymbolStorage</title>
<path fill="#312e81" stroke="#475569" d="M992.15,-1889.2C992.15,-1889.2 782.77,-1889.2 782.77,-1889.2 776.77,-1889.2 770.77,-1883.2 770.77,-1877.2 770.77,-1877.2 770.77,-1842.8 770.77,-1842.8 770.77,-1836.8 776.77,-1830.8 782.77,-1830.8 782.77,-1830.8 992.15,-1830.8 992.15,-1830.8 998.15,-1830.8 1004.15,-1836.8 1004.15,-1842.8 1004.15,-1842.8 1004.15,-1877.2 1004.15,-1877.2 1004.15,-1883.2 998.15,-1889.2 992.15,-1889.2"/>
<text xml:space="preserve" text-anchor="middle" x="887.46" y="-1872.6" font-family="Segoe UI" font-size="14.00" fill="#e2e8f0">Symbol storage</text>
<text xml:space="preserve" text-anchor="middle" x="887.46" y="-1855.8" font-family="Segoe UI" font-size="14.00" fill="#e2e8f0">SymbolStorage → SymbolStoragePage</text>
<text xml:space="preserve" text-anchor="middle" x="887.46" y="-1839" font-family="Segoe UI" font-size="14.00" fill="#e2e8f0">Secondary | order 100</text>
</g>
<!-- section_2&#45;&gt;screen_SymbolStorage -->
<g id="edge12" class="edge">
<title>section_2&#45;&gt;screen_SymbolStorage</title>
<path fill="none" stroke="#94a3b8" stroke-width="1.2" d="M623.92,-1673.3C640.46,-1709.04 678.69,-1780.94 733.46,-1819 742.28,-1825.13 751.97,-1830.34 762.07,-1834.78"/>
<polygon fill="#94a3b8" stroke="#94a3b8" stroke-width="1.2" points="761.01,-1837.18 768.95,-1837.63 763.02,-1832.33 761.01,-1837.18"/>
</g>
<!-- screen_AddProviderWizard -->
<g id="node15" class="node">
<title>screen_AddProviderWizard</title>
<path fill="#431407" stroke="#475569" d="M1019.33,-1028.2C1019.33,-1028.2 755.59,-1028.2 755.59,-1028.2 749.59,-1028.2 743.59,-1022.2 743.59,-1016.2 743.59,-1016.2 743.59,-981.8 743.59,-981.8 743.59,-975.8 749.59,-969.8 755.59,-969.8 755.59,-969.8 1019.33,-969.8 1019.33,-969.8 1025.33,-969.8 1031.33,-975.8 1031.33,-981.8 1031.33,-981.8 1031.33,-1016.2 1031.33,-1016.2 1031.33,-1022.2 1025.33,-1028.2 1019.33,-1028.2"/>
<text xml:space="preserve" text-anchor="middle" x="887.46" y="-1011.6" font-family="Segoe UI" font-size="14.00" fill="#e2e8f0">Add provider wizard</text>
<text xml:space="preserve" text-anchor="middle" x="887.46" y="-994.8" font-family="Segoe UI" font-size="14.00" fill="#e2e8f0">AddProviderWizard → AddProviderWizardPage</text>
<text xml:space="preserve" text-anchor="middle" x="887.46" y="-978" font-family="Segoe UI" font-size="14.00" fill="#e2e8f0">Overflow | order 200</text>
</g>
<!-- section_3&#45;&gt;screen_AddProviderWizard -->
<g id="edge14" class="edge">
<title>section_3&#45;&gt;screen_AddProviderWizard</title>
<path fill="none" stroke="#94a3b8" stroke-width="1.2" d="M629,-1143.9C649.04,-1115.91 688.18,-1066.92 733.46,-1040 738,-1037.3 742.73,-1034.77 747.58,-1032.41"/>
<polygon fill="#94a3b8" stroke="#94a3b8" stroke-width="1.2" points="748.5,-1034.88 754.2,-1029.35 746.29,-1030.11 748.5,-1034.88"/>
</g>
<!-- screen_Provider -->
<g id="node16" class="node">
<title>screen_Provider</title>
<path fill="#1e293b" stroke="#475569" d="M954.03,-1111.2C954.03,-1111.2 820.89,-1111.2 820.89,-1111.2 814.89,-1111.2 808.89,-1105.2 808.89,-1099.2 808.89,-1099.2 808.89,-1064.8 808.89,-1064.8 808.89,-1058.8 814.89,-1052.8 820.89,-1052.8 820.89,-1052.8 954.03,-1052.8 954.03,-1052.8 960.03,-1052.8 966.03,-1058.8 966.03,-1064.8 966.03,-1064.8 966.03,-1099.2 966.03,-1099.2 966.03,-1105.2 960.03,-1111.2 954.03,-1111.2"/>
<text xml:space="preserve" text-anchor="middle" x="887.46" y="-1094.6" font-family="Segoe UI" font-size="14.00" fill="#e2e8f0">Providers</text>
<text xml:space="preserve" text-anchor="middle" x="887.46" y="-1077.8" font-family="Segoe UI" font-size="14.00" fill="#e2e8f0">Provider → ProviderPage</text>
<text xml:space="preserve" text-anchor="middle" x="887.46" y="-1061" font-family="Segoe UI" font-size="14.00" fill="#e2e8f0">Primary | order 10</text>
</g>
<!-- section_3&#45;&gt;screen_Provider -->
<g id="edge15" class="edge">
<title>section_3&#45;&gt;screen_Provider</title>
<path fill="none" stroke="#94a3b8" stroke-width="1.2" d="M671.8,-1143.8C691.25,-1136.84 713.21,-1129.29 733.46,-1123 754.81,-1116.37 778.03,-1109.82 799.78,-1103.96"/>
<polygon fill="#94a3b8" stroke="#94a3b8" stroke-width="1.2" points="800.36,-1106.53 806.93,-1102.05 799,-1101.46 800.36,-1106.53"/>
</g>
<!-- screen_Backfill -->
<g id="node17" class="node">
<title>screen_Backfill</title>
<path fill="#1e293b" stroke="#475569" d="M950.91,-1194.2C950.91,-1194.2 824.01,-1194.2 824.01,-1194.2 818.01,-1194.2 812.01,-1188.2 812.01,-1182.2 812.01,-1182.2 812.01,-1147.8 812.01,-1147.8 812.01,-1141.8 818.01,-1135.8 824.01,-1135.8 824.01,-1135.8 950.91,-1135.8 950.91,-1135.8 956.91,-1135.8 962.91,-1141.8 962.91,-1147.8 962.91,-1147.8 962.91,-1182.2 962.91,-1182.2 962.91,-1188.2 956.91,-1194.2 950.91,-1194.2"/>
<text xml:space="preserve" text-anchor="middle" x="887.46" y="-1177.6" font-family="Segoe UI" font-size="14.00" fill="#e2e8f0">Backfill</text>
<text xml:space="preserve" text-anchor="middle" x="887.46" y="-1160.8" font-family="Segoe UI" font-size="14.00" fill="#e2e8f0">Backfill → BackfillPage</text>
<text xml:space="preserve" text-anchor="middle" x="887.46" y="-1144" font-family="Segoe UI" font-size="14.00" fill="#e2e8f0">Primary | order 20</text>
</g>
<!-- section_3&#45;&gt;screen_Backfill -->
<g id="edge16" class="edge">
<title>section_3&#45;&gt;screen_Backfill</title>
<path fill="none" stroke="#94a3b8" stroke-width="1.2" d="M672.69,-1165C710.44,-1165 760.32,-1165 802.4,-1165"/>
<polygon fill="#94a3b8" stroke="#94a3b8" stroke-width="1.2" points="802.22,-1167.63 809.72,-1165 802.22,-1162.38 802.22,-1167.63"/>
</g>
<!-- screen_DataSources -->
<g id="node18" class="node">
<title>screen_DataSources</title>
<path fill="#312e81" stroke="#475569" d="M976.57,-1277.2C976.57,-1277.2 798.35,-1277.2 798.35,-1277.2 792.35,-1277.2 786.35,-1271.2 786.35,-1265.2 786.35,-1265.2 786.35,-1230.8 786.35,-1230.8 786.35,-1224.8 792.35,-1218.8 798.35,-1218.8 798.35,-1218.8 976.57,-1218.8 976.57,-1218.8 982.57,-1218.8 988.57,-1224.8 988.57,-1230.8 988.57,-1230.8 988.57,-1265.2 988.57,-1265.2 988.57,-1271.2 982.57,-1277.2 976.57,-1277.2"/>
<text xml:space="preserve" text-anchor="middle" x="887.46" y="-1260.6" font-family="Segoe UI" font-size="14.00" fill="#e2e8f0">Data sources</text>
<text xml:space="preserve" text-anchor="middle" x="887.46" y="-1243.8" font-family="Segoe UI" font-size="14.00" fill="#e2e8f0">DataSources → DataSourcesPage</text>
<text xml:space="preserve" text-anchor="middle" x="887.46" y="-1227" font-family="Segoe UI" font-size="14.00" fill="#e2e8f0">Secondary | order 60</text>
</g>
<!-- section_3&#45;&gt;screen_DataSources -->
<g id="edge17" class="edge">
<title>section_3&#45;&gt;screen_DataSources</title>
<path fill="none" stroke="#94a3b8" stroke-width="1.2" d="M671.8,-1186.2C691.25,-1193.16 713.21,-1200.71 733.46,-1207 747.62,-1211.39 762.61,-1215.76 777.44,-1219.91"/>
<polygon fill="#94a3b8" stroke="#94a3b8" stroke-width="1.2" points="776.46,-1222.36 784.39,-1221.84 777.87,-1217.3 776.46,-1222.36"/>
</g>
<!-- screen_ProviderHealth -->
<g id="node19" class="node">
<title>screen_ProviderHealth</title>
<path fill="#312e81" stroke="#475569" d="M991.35,-1360.2C991.35,-1360.2 783.57,-1360.2 783.57,-1360.2 777.57,-1360.2 771.57,-1354.2 771.57,-1348.2 771.57,-1348.2 771.57,-1313.8 771.57,-1313.8 771.57,-1307.8 777.57,-1301.8 783.57,-1301.8 783.57,-1301.8 991.35,-1301.8 991.35,-1301.8 997.35,-1301.8 1003.35,-1307.8 1003.35,-1313.8 1003.35,-1313.8 1003.35,-1348.2 1003.35,-1348.2 1003.35,-1354.2 997.35,-1360.2 991.35,-1360.2"/>
<text xml:space="preserve" text-anchor="middle" x="887.46" y="-1343.6" font-family="Segoe UI" font-size="14.00" fill="#e2e8f0">Provider health</text>
<text xml:space="preserve" text-anchor="middle" x="887.46" y="-1326.8" font-family="Segoe UI" font-size="14.00" fill="#e2e8f0">ProviderHealth → ProviderHealthPage</text>
<text xml:space="preserve" text-anchor="middle" x="887.46" y="-1310" font-family="Segoe UI" font-size="14.00" fill="#e2e8f0">Secondary | order 65</text>
</g>
<!-- section_3&#45;&gt;screen_ProviderHealth -->
<g id="edge18" class="edge">
<title>section_3&#45;&gt;screen_ProviderHealth</title>
<path fill="none" stroke="#94a3b8" stroke-width="1.2" d="M629,-1186.1C649.04,-1214.09 688.18,-1263.08 733.46,-1290 742.6,-1295.44 752.47,-1300.16 762.64,-1304.28"/>
<polygon fill="#94a3b8" stroke="#94a3b8" stroke-width="1.2" points="761.61,-1306.69 769.55,-1306.93 763.5,-1301.79 761.61,-1306.69"/>
</g>
<!-- screen_CollectionSessions -->
<g id="node20" class="node">
<title>screen_CollectionSessions</title>
<path fill="#312e81" stroke="#475569" d="M1009.65,-1443.2C1009.65,-1443.2 765.27,-1443.2 765.27,-1443.2 759.27,-1443.2 753.27,-1437.2 753.27,-1431.2 753.27,-1431.2 753.27,-1396.8 753.27,-1396.8 753.27,-1390.8 759.27,-1384.8 765.27,-1384.8 765.27,-1384.8 1009.65,-1384.8 1009.65,-1384.8 1015.65,-1384.8 1021.65,-1390.8 1021.65,-1396.8 1021.65,-1396.8 1021.65,-1431.2 1021.65,-1431.2 1021.65,-1437.2 1015.65,-1443.2 1009.65,-1443.2"/>
<text xml:space="preserve" text-anchor="middle" x="887.46" y="-1426.6" font-family="Segoe UI" font-size="14.00" fill="#e2e8f0">Collection sessions</text>
<text xml:space="preserve" text-anchor="middle" x="887.46" y="-1409.8" font-family="Segoe UI" font-size="14.00" fill="#e2e8f0">CollectionSessions → CollectionSessionPage</text>
<text xml:space="preserve" text-anchor="middle" x="887.46" y="-1393" font-family="Segoe UI" font-size="14.00" fill="#e2e8f0">Secondary | order 120</text>
</g>
<!-- section_3&#45;&gt;screen_CollectionSessions -->
<g id="edge19" class="edge">
<title>section_3&#45;&gt;screen_CollectionSessions</title>
<path fill="none" stroke="#94a3b8" stroke-width="1.2" d="M620.7,-1186.04C633.79,-1228.23 669.09,-1323.36 733.46,-1373 737.18,-1375.87 741.08,-1378.53 745.12,-1381.01"/>
<polygon fill="#94a3b8" stroke="#94a3b8" stroke-width="1.2" points="743.67,-1383.21 751.48,-1384.65 746.28,-1378.65 743.67,-1383.21"/>
</g>
<!-- screen_ArchiveHealth -->
<g id="node22" class="node">
<title>screen_ArchiveHealth</title>
<path fill="#431407" stroke="#475569" d="M988.22,-582.2C988.22,-582.2 786.7,-582.2 786.7,-582.2 780.7,-582.2 774.7,-576.2 774.7,-570.2 774.7,-570.2 774.7,-535.8 774.7,-535.8 774.7,-529.8 780.7,-523.8 786.7,-523.8 786.7,-523.8 988.22,-523.8 988.22,-523.8 994.22,-523.8 1000.22,-529.8 1000.22,-535.8 1000.22,-535.8 1000.22,-570.2 1000.22,-570.2 1000.22,-576.2 994.22,-582.2 988.22,-582.2"/>
<text xml:space="preserve" text-anchor="middle" x="887.46" y="-565.6" font-family="Segoe UI" font-size="14.00" fill="#e2e8f0">Archive health</text>
<text xml:space="preserve" text-anchor="middle" x="887.46" y="-548.8" font-family="Segoe UI" font-size="14.00" fill="#e2e8f0">ArchiveHealth → ArchiveHealthPage</text>
<text xml:space="preserve" text-anchor="middle" x="887.46" y="-532" font-family="Segoe UI" font-size="14.00" fill="#e2e8f0">Overflow | order 210</text>
</g>
<!-- section_4&#45;&gt;screen_ArchiveHealth -->
<g id="edge21" class="edge">
<title>section_4&#45;&gt;screen_ArchiveHealth</title>
<path fill="none" stroke="#94a3b8" stroke-width="1.2" d="M629,-697.9C649.04,-669.91 688.18,-620.92 733.46,-594 743.54,-588.01 754.5,-582.87 765.78,-578.48"/>
<polygon fill="#94a3b8" stroke="#94a3b8" stroke-width="1.2" points="766.63,-580.96 772.75,-575.89 764.8,-576.04 766.63,-580.96"/>
</g>
<!-- screen_StorageOptimization -->
<g id="node23" class="node">
<title>screen_StorageOptimization</title>
<path fill="#431407" stroke="#475569" d="M1022.46,-665.2C1022.46,-665.2 752.46,-665.2 752.46,-665.2 746.46,-665.2 740.46,-659.2 740.46,-653.2 740.46,-653.2 740.46,-618.8 740.46,-618.8 740.46,-612.8 746.46,-606.8 752.46,-606.8 752.46,-606.8 1022.46,-606.8 1022.46,-606.8 1028.46,-606.8 1034.46,-612.8 1034.46,-618.8 1034.46,-618.8 1034.46,-653.2 1034.46,-653.2 1034.46,-659.2 1028.46,-665.2 1022.46,-665.2"/>
<text xml:space="preserve" text-anchor="middle" x="887.46" y="-648.6" font-family="Segoe UI" font-size="14.00" fill="#e2e8f0">Storage optimization</text>
<text xml:space="preserve" text-anchor="middle" x="887.46" y="-631.8" font-family="Segoe UI" font-size="14.00" fill="#e2e8f0">StorageOptimization → StorageOptimizationPage</text>
<text xml:space="preserve" text-anchor="middle" x="887.46" y="-615" font-family="Segoe UI" font-size="14.00" fill="#e2e8f0">Overflow | order 220</text>
</g>
<!-- section_4&#45;&gt;screen_StorageOptimization -->
<g id="edge22" class="edge">
<title>section_4&#45;&gt;screen_StorageOptimization</title>
<path fill="none" stroke="#94a3b8" stroke-width="1.2" d="M651.38,-705.2C674.73,-696.62 705.69,-685.62 733.46,-677 743.11,-674.01 753.14,-671.03 763.25,-668.12"/>
<polygon fill="#94a3b8" stroke="#94a3b8" stroke-width="1.2" points="763.9,-670.66 770.39,-666.08 762.46,-665.61 763.9,-670.66"/>
</g>
<!-- screen_RetentionAssurance -->
<g id="node24" class="node">
<title>screen_RetentionAssurance</title>
<path fill="#431407" stroke="#475569" d="M1018.56,-748.2C1018.56,-748.2 756.36,-748.2 756.36,-748.2 750.36,-748.2 744.36,-742.2 744.36,-736.2 744.36,-736.2 744.36,-701.8 744.36,-701.8 744.36,-695.8 750.36,-689.8 756.36,-689.8 756.36,-689.8 1018.56,-689.8 1018.56,-689.8 1024.56,-689.8 1030.56,-695.8 1030.56,-701.8 1030.56,-701.8 1030.56,-736.2 1030.56,-736.2 1030.56,-742.2 1024.56,-748.2 1018.56,-748.2"/>
<text xml:space="preserve" text-anchor="middle" x="887.46" y="-731.6" font-family="Segoe UI" font-size="14.00" fill="#e2e8f0">Retention assurance</text>
<text xml:space="preserve" text-anchor="middle" x="887.46" y="-714.8" font-family="Segoe UI" font-size="14.00" fill="#e2e8f0">RetentionAssurance → RetentionAssurancePage</text>
<text xml:space="preserve" text-anchor="middle" x="887.46" y="-698" font-family="Segoe UI" font-size="14.00" fill="#e2e8f0">Overflow | order 230</text>
</g>
<!-- section_4&#45;&gt;screen_RetentionAssurance -->
<g id="edge23" class="edge">
<title>section_4&#45;&gt;screen_RetentionAssurance</title>
<path fill="none" stroke="#94a3b8" stroke-width="1.2" d="M651.38,-719C673.59,-719 703.59,-719 734.72,-719"/>
<polygon fill="#94a3b8" stroke="#94a3b8" stroke-width="1.2" points="734.65,-721.63 742.15,-719 734.65,-716.38 734.65,-721.63"/>
</g>
<!-- screen_DataQuality -->
<g id="node25" class="node">
<title>screen_DataQuality</title>
<path fill="#312e81" stroke="#475569" d="M974.24,-831.2C974.24,-831.2 800.68,-831.2 800.68,-831.2 794.68,-831.2 788.68,-825.2 788.68,-819.2 788.68,-819.2 788.68,-784.8 788.68,-784.8 788.68,-778.8 794.68,-772.8 800.68,-772.8 800.68,-772.8 974.24,-772.8 974.24,-772.8 980.24,-772.8 986.24,-778.8 986.24,-784.8 986.24,-784.8 986.24,-819.2 986.24,-819.2 986.24,-825.2 980.24,-831.2 974.24,-831.2"/>
<text xml:space="preserve" text-anchor="middle" x="887.46" y="-814.6" font-family="Segoe UI" font-size="14.00" fill="#e2e8f0">Data quality</text>
<text xml:space="preserve" text-anchor="middle" x="887.46" y="-797.8" font-family="Segoe UI" font-size="14.00" fill="#e2e8f0">DataQuality → DataQualityPage</text>
<text xml:space="preserve" text-anchor="middle" x="887.46" y="-781" font-family="Segoe UI" font-size="14.00" fill="#e2e8f0">Secondary | order 70</text>
</g>
<!-- section_4&#45;&gt;screen_DataQuality -->
<g id="edge24" class="edge">
<title>section_4&#45;&gt;screen_DataQuality</title>
<path fill="none" stroke="#94a3b8" stroke-width="1.2" d="M651.38,-732.8C674.73,-741.38 705.69,-752.38 733.46,-761 748.31,-765.61 764.06,-770.18 779.59,-774.51"/>
<polygon fill="#94a3b8" stroke="#94a3b8" stroke-width="1.2" points="778.51,-776.93 786.44,-776.4 779.91,-771.87 778.51,-776.93"/>
</g>
<!-- screen_SecurityMaster -->
<g id="node26" class="node">
<title>screen_SecurityMaster</title>
<path fill="#312e81" stroke="#475569" d="M991.35,-914.2C991.35,-914.2 783.57,-914.2 783.57,-914.2 777.57,-914.2 771.57,-908.2 771.57,-902.2 771.57,-902.2 771.57,-867.8 771.57,-867.8 771.57,-861.8 777.57,-855.8 783.57,-855.8 783.57,-855.8 991.35,-855.8 991.35,-855.8 997.35,-855.8 1003.35,-861.8 1003.35,-867.8 1003.35,-867.8 1003.35,-902.2 1003.35,-902.2 1003.35,-908.2 997.35,-914.2 991.35,-914.2"/>
<text xml:space="preserve" text-anchor="middle" x="887.46" y="-897.6" font-family="Segoe UI" font-size="14.00" fill="#e2e8f0">Security master</text>
<text xml:space="preserve" text-anchor="middle" x="887.46" y="-880.8" font-family="Segoe UI" font-size="14.00" fill="#e2e8f0">SecurityMaster → SecurityMasterPage</text>
<text xml:space="preserve" text-anchor="middle" x="887.46" y="-864" font-family="Segoe UI" font-size="14.00" fill="#e2e8f0">Secondary | order 80</text>
</g>
<!-- section_4&#45;&gt;screen_SecurityMaster -->
<g id="edge25" class="edge">
<title>section_4&#45;&gt;screen_SecurityMaster</title>
<path fill="none" stroke="#94a3b8" stroke-width="1.2" d="M629,-740.1C649.04,-768.09 688.18,-817.08 733.46,-844 742.6,-849.44 752.47,-854.16 762.64,-858.28"/>
<polygon fill="#94a3b8" stroke="#94a3b8" stroke-width="1.2" points="761.61,-860.69 769.55,-860.93 763.5,-855.79 761.61,-860.69"/>
</g>
<!-- screen_DataShell -->
<g id="node28" class="node">
<title>screen_DataShell</title>
<path fill="#1e293b" stroke="#475569" d="M992.51,-468.2C992.51,-468.2 782.41,-468.2 782.41,-468.2 776.41,-468.2 770.41,-462.2 770.41,-456.2 770.41,-456.2 770.41,-421.8 770.41,-421.8 770.41,-415.8 776.41,-409.8 782.41,-409.8 782.41,-409.8 992.51,-409.8 992.51,-409.8 998.51,-409.8 1004.51,-415.8 1004.51,-421.8 1004.51,-421.8 1004.51,-456.2 1004.51,-456.2 1004.51,-462.2 998.51,-468.2 992.51,-468.2"/>
<text xml:space="preserve" text-anchor="middle" x="887.46" y="-451.6" font-family="Segoe UI" font-size="14.00" fill="#e2e8f0">Data Workspace</text>
<text xml:space="preserve" text-anchor="middle" x="887.46" y="-434.8" font-family="Segoe UI" font-size="14.00" fill="#e2e8f0">DataShell → DataWorkspaceShellPage</text>
<text xml:space="preserve" text-anchor="middle" x="887.46" y="-418" font-family="Segoe UI" font-size="14.00" fill="#e2e8f0">Primary | order 0</text>
</g>
<!-- section_5&#45;&gt;screen_DataShell -->
<g id="edge27" class="edge">
<title>section_5&#45;&gt;screen_DataShell</title>
<path fill="none" stroke="#94a3b8" stroke-width="1.2" d="M653.09,-442.44C681.51,-442.02 721.97,-441.42 761.24,-440.84"/>
<polygon fill="#94a3b8" stroke="#94a3b8" stroke-width="1.2" points="760.85,-443.47 768.31,-440.74 760.77,-438.23 760.85,-443.47"/>
</g>
<!-- screen_Storage -->
<g id="node30" class="node">
<title>screen_Storage</title>
<path fill="#1e293b" stroke="#475569" d="M948.58,-271.2C948.58,-271.2 826.34,-271.2 826.34,-271.2 820.34,-271.2 814.34,-265.2 814.34,-259.2 814.34,-259.2 814.34,-224.8 814.34,-224.8 814.34,-218.8 820.34,-212.8 826.34,-212.8 826.34,-212.8 948.58,-212.8 948.58,-212.8 954.58,-212.8 960.58,-218.8 960.58,-224.8 960.58,-224.8 960.58,-259.2 960.58,-259.2 960.58,-265.2 954.58,-271.2 948.58,-271.2"/>
<text xml:space="preserve" text-anchor="middle" x="887.46" y="-254.6" font-family="Segoe UI" font-size="14.00" fill="#e2e8f0">Storage</text>
<text xml:space="preserve" text-anchor="middle" x="887.46" y="-237.8" font-family="Segoe UI" font-size="14.00" fill="#e2e8f0">Storage → StoragePage</text>
<text xml:space="preserve" text-anchor="middle" x="887.46" y="-221" font-family="Segoe UI" font-size="14.00" fill="#e2e8f0">Primary | order 40</text>
</g>
<!-- section_6&#45;&gt;screen_Storage -->
<g id="edge29" class="edge">
<title>section_6&#45;&gt;screen_Storage</title>
<path fill="none" stroke="#94a3b8" stroke-width="1.2" d="M648.02,-312.44C671.69,-303.7 704.33,-292.04 733.46,-283 756.63,-275.81 782.01,-268.7 805.31,-262.48"/>
<polygon fill="#94a3b8" stroke="#94a3b8" stroke-width="1.2" points="805.8,-265.07 812.38,-260.61 804.45,-259.99 805.8,-265.07"/>
</g>
<!-- screen_Schedules -->
<g id="node31" class="node">
<title>screen_Schedules</title>
<path fill="#312e81" stroke="#475569" d="M984.73,-354.2C984.73,-354.2 790.19,-354.2 790.19,-354.2 784.19,-354.2 778.19,-348.2 778.19,-342.2 778.19,-342.2 778.19,-307.8 778.19,-307.8 778.19,-301.8 784.19,-295.8 790.19,-295.8 790.19,-295.8 984.73,-295.8 984.73,-295.8 990.73,-295.8 996.73,-301.8 996.73,-307.8 996.73,-307.8 996.73,-342.2 996.73,-342.2 996.73,-348.2 990.73,-354.2 984.73,-354.2"/>
<text xml:space="preserve" text-anchor="middle" x="887.46" y="-337.6" font-family="Segoe UI" font-size="14.00" fill="#e2e8f0">Schedules</text>
<text xml:space="preserve" text-anchor="middle" x="887.46" y="-320.8" font-family="Segoe UI" font-size="14.00" fill="#e2e8f0">Schedules → ScheduleManagerPage</text>
<text xml:space="preserve" text-anchor="middle" x="887.46" y="-304" font-family="Segoe UI" font-size="14.00" fill="#e2e8f0">Secondary | order 110</text>
</g>
<!-- section_6&#45;&gt;screen_Schedules -->
<g id="edge30" class="edge">
<title>section_6&#45;&gt;screen_Schedules</title>
<path fill="none" stroke="#94a3b8" stroke-width="1.2" d="M648.05,-325C678.34,-325 724.9,-325 768.86,-325"/>
<polygon fill="#94a3b8" stroke="#94a3b8" stroke-width="1.2" points="768.59,-327.63 776.09,-325 768.59,-322.38 768.59,-327.63"/>
</g>
<!-- screen_DataExport -->
<g id="node33" class="node">
<title>screen_DataExport</title>
<path fill="#1e293b" stroke="#475569" d="M970.35,-74.2C970.35,-74.2 804.57,-74.2 804.57,-74.2 798.57,-74.2 792.57,-68.2 792.57,-62.2 792.57,-62.2 792.57,-27.8 792.57,-27.8 792.57,-21.8 798.57,-15.8 804.57,-15.8 804.57,-15.8 970.35,-15.8 970.35,-15.8 976.35,-15.8 982.35,-21.8 982.35,-27.8 982.35,-27.8 982.35,-62.2 982.35,-62.2 982.35,-68.2 976.35,-74.2 970.35,-74.2"/>
<text xml:space="preserve" text-anchor="middle" x="887.46" y="-57.6" font-family="Segoe UI" font-size="14.00" fill="#e2e8f0">Data export</text>
<text xml:space="preserve" text-anchor="middle" x="887.46" y="-40.8" font-family="Segoe UI" font-size="14.00" fill="#e2e8f0">DataExport → DataExportPage</text>
<text xml:space="preserve" text-anchor="middle" x="887.46" y="-24" font-family="Segoe UI" font-size="14.00" fill="#e2e8f0">Primary | order 50</text>
</g>
<!-- section_7&#45;&gt;screen_DataExport -->
<g id="edge32" class="edge">
<title>section_7&#45;&gt;screen_DataExport</title>
<path fill="none" stroke="#94a3b8" stroke-width="1.2" d="M651.38,-114.2C674.73,-105.62 705.69,-94.62 733.46,-86 749.56,-81 766.73,-76.05 783.53,-71.4"/>
<polygon fill="#94a3b8" stroke="#94a3b8" stroke-width="1.2" points="783.98,-74 790.52,-69.48 782.59,-68.94 783.98,-74"/>
</g>
<!-- screen_PackageManager -->
<g id="node34" class="node">
<title>screen_PackageManager</title>
<path fill="#312e81" stroke="#475569" d="M1002.21,-157.2C1002.21,-157.2 772.71,-157.2 772.71,-157.2 766.71,-157.2 760.71,-151.2 760.71,-145.2 760.71,-145.2 760.71,-110.8 760.71,-110.8 760.71,-104.8 766.71,-98.8 772.71,-98.8 772.71,-98.8 1002.21,-98.8 1002.21,-98.8 1008.21,-98.8 1014.21,-104.8 1014.21,-110.8 1014.21,-110.8 1014.21,-145.2 1014.21,-145.2 1014.21,-151.2 1008.21,-157.2 1002.21,-157.2"/>
<text xml:space="preserve" text-anchor="middle" x="887.46" y="-140.6" font-family="Segoe UI" font-size="14.00" fill="#e2e8f0">Package manager</text>
<text xml:space="preserve" text-anchor="middle" x="887.46" y="-123.8" font-family="Segoe UI" font-size="14.00" fill="#e2e8f0">PackageManager → PackageManagerPage</text>
<text xml:space="preserve" text-anchor="middle" x="887.46" y="-107" font-family="Segoe UI" font-size="14.00" fill="#e2e8f0">Secondary | order 130</text>
</g>
<!-- section_7&#45;&gt;screen_PackageManager -->
<g id="edge33" class="edge">
<title>section_7&#45;&gt;screen_PackageManager</title>
<path fill="none" stroke="#94a3b8" stroke-width="1.2" d="M651.38,-128C677.6,-128 714.65,-128 751.61,-128"/>
<polygon fill="#94a3b8" stroke="#94a3b8" stroke-width="1.2" points="751.18,-130.63 758.68,-128 751.18,-125.38 751.18,-130.63"/>
</g>
</g>
</svg>
