<svg xmlns="http://www.w3.org/2000/svg" xmlns:xlink="http://www.w3.org/1999/xlink" contentStyleType="text/css" data-diagram-type="STATE" height="925px" preserveAspectRatio="none" style="width:1256px;height:925px;background:#FFFFFF;" version="1.1" viewBox="0 0 1256 925" width="1256px" zoomAndPan="magnify"><title>Meridian - Order Book Stream State Machine</title><defs/><g><text fill="#000000" font-family="Verdana" font-size="22" font-weight="bold" lengthAdjust="spacing" textLength="556.8965" x="341.8568" y="35.4209">Meridian - Order Book Stream State Machine</text><path d="M24.5,58.6094 L1230.11,58.6094 A12.5,12.5 0 0 1 1242.61,71.1094 L1242.61,84.9063 L12,84.9063 L12,71.1094 A12.5,12.5 0 0 1 24.5,58.6094" fill="#FFFFFF" style="stroke:#FFFFFF;stroke-width:1;"/><path d="M12,84.9063 L1242.61,84.9063 L1242.61,899.6406 A12.5,12.5 0 0 1 1230.11,912.1406 L24.5,912.1406 A12.5,12.5 0 0 1 12,899.6406 L12,84.9063" fill="#FFFFFF" style="stroke:#FFFFFF;stroke-width:1;"/><rect fill="none" height="853.5313" rx="12.5" ry="12.5" style="stroke:#000000;stroke-width:1;" width="1230.61" x="12" y="58.6094"/><line style="stroke:#000000;stroke-width:1;" x1="12" x2="1242.61" y1="84.9063" y2="84.9063"/><text fill="#000000" font-family="Verdana" font-size="14" lengthAdjust="spacing" textLength="205.2969" x="524.6566" y="76.6045">Order Book Per-Symbol State</text><g id="OrderBook.Unsubscribed"><rect fill="#FFFFFF" height="64.2344" rx="12.5" ry="12.5" style="stroke:#000000;stroke-width:1;" width="132.166" x="542" y="837.9063"/><line style="stroke:#000000;stroke-width:1;" x1="542" x2="674.166" y1="864.2031" y2="864.2031"/><text fill="#000000" font-family="Verdana" font-size="14" lengthAdjust="spacing" textLength="95.1973" x="560.4844" y="855.9014">Unsubscribed</text><text fill="#000000" font-family="Verdana" font-size="12" lengthAdjust="spacing" textLength="108.5508" x="547" y="880.3418">No data collection</text><text fill="#000000" font-family="Verdana" font-size="12" lengthAdjust="spacing" textLength="112.166" x="547" y="894.3105">Book not allocated</text></g><path d="M36.5,96.9063 L717.8389,96.9063 A12.5,12.5 0 0 1 730.3389,109.4063 L730.3389,156.1406 L24,156.1406 L24,109.4063 A12.5,12.5 0 0 1 36.5,96.9063" fill="#FFFFFF" style="stroke:#FFFFFF;stroke-width:1;"/><path d="M24,156.1406 L730.3389,156.1406 L730.3389,772.0469 A12.5,12.5 0 0 1 717.8389,784.5469 L36.5,784.5469 A12.5,12.5 0 0 1 24,772.0469 L24,156.1406" fill="#FFFFFF" style="stroke:#FFFFFF;stroke-width:1;"/><rect fill="none" height="687.6406" rx="12.5" ry="12.5" style="stroke:#000000;stroke-width:1;" width="706.3389" x="24" y="96.9063"/><line style="stroke:#000000;stroke-width:1;" x1="24" x2="730.3389" y1="156.1406" y2="156.1406"/><line style="stroke:#000000;stroke-width:1;" x1="24" x2="730.3389" y1="123.2031" y2="123.2031"/><text fill="#000000" font-family="Verdana" font-size="14" lengthAdjust="spacing" textLength="77.6699" x="338.3345" y="114.9014">Subscribed</text><text fill="#000000" font-family="Verdana" font-size="12" lengthAdjust="spacing" textLength="149.6016" x="29" y="134.3418">Registered with collector</text><text fill="#000000" font-family="Verdana" font-size="12" lengthAdjust="spacing" textLength="137.7832" x="29" y="148.3105">Awaiting first snapshot</text><!--cluster Stale--><g class="cluster" data-entity="Stale" data-source-line="38" data-uid="ent0008" id="cluster_Stale"><path d="M48.5,168.1406 L281.5,168.1406 A12.5,12.5 0 0 1 294,180.6406 L294,264.2813 L36,264.2813 L36,180.6406 A12.5,12.5 0 0 1 48.5,168.1406" fill="#FFFFFF" style="stroke:#FFFFFF;stroke-width:1;"/><path d="M36,264.2813 L294,264.2813 L294,671.6406 A12.5,12.5 0 0 1 281.5,684.1406 L48.5,684.1406 A12.5,12.5 0 0 1 36,671.6406 L36,264.2813" fill="#FFFFFF" style="stroke:#FFFFFF;stroke-width:1;"/><rect fill="none" height="516" rx="12.5" ry="12.5" style="stroke:#000000;stroke-width:1;" width="258" x="36" y="168.1406"/><line style="stroke:#000000;stroke-width:1;" x1="36" x2="294" y1="264.2813" y2="264.2813"/><line style="stroke:#000000;stroke-width:1;" x1="36" x2="294" y1="189.4375" y2="189.4375"/><text fill="#000000" font-family="Verdana" font-size="14" lengthAdjust="spacing" textLength="35.458" x="147.271" y="185.1357">Stale</text><text fill="#000000" font-family="Verdana" font-size="12" lengthAdjust="spacing" textLength="118.4766" x="41" y="203.0762">entry/ Set stale flag</text><text fill="#000000" font-family="Verdana" font-size="12" lengthAdjust="spacing" textLength="192.5625" x="41" y="217.0449">entry/ Emit DepthIntegrityEvent</text><text fill="#000000" font-family="Verdana" font-size="12" lengthAdjust="spacing" textLength="172.7754" x="41" y="231.0137">entry/ Start integrity window</text><text fill="#000000" font-family="Verdana" font-size="12" lengthAdjust="spacing" textLength="141.123" x="41" y="244.9824">Data may be unreliable</text><text fill="#000000" font-family="Verdana" font-size="12" lengthAdjust="spacing" textLength="213.4102" x="41" y="258.9512">Continue receiving but flag as stale</text></g><g id="OrderBook.Subscribed.Stale.IntegrityWindow"><rect fill="#FFFFFF" height="64.2344" rx="12.5" ry="12.5" style="stroke:#000000;stroke-width:1;" width="200.7441" x="60.5" y="286.1406"/><line style="stroke:#000000;stroke-width:1;" x1="60.5" x2="261.2441" y1="312.4375" y2="312.4375"/><text fill="#000000" font-family="Verdana" font-size="14" lengthAdjust="spacing" textLength="114.9189" x="103.4126" y="304.1357">IntegrityWindow</text><text fill="#000000" font-family="Verdana" font-size="12" lengthAdjust="spacing" textLength="180.7441" x="65.5" y="328.5762">Tracking errors in 15s window</text><text fill="#000000" font-family="Verdana" font-size="12" lengthAdjust="spacing" textLength="178.1484" x="65.5" y="342.5449">Counting consecutive failures</text></g><g id="OrderBook.Subscribed.Stale.PendingReset"><rect fill="#FFFFFF" height="64.2344" rx="12.5" ry="12.5" style="stroke:#000000;stroke-width:1;" width="142.1855" x="76" y="596.1406"/><line style="stroke:#000000;stroke-width:1;" x1="76" x2="218.1855" y1="622.4375" y2="622.4375"/><text fill="#000000" font-family="Verdana" font-size="14" lengthAdjust="spacing" textLength="96.2021" x="98.9917" y="614.1357">PendingReset</text><text fill="#000000" font-family="Verdana" font-size="12" lengthAdjust="spacing" textLength="121.377" x="81" y="638.5762">3+ errors in window</text><text fill="#000000" font-family="Verdana" font-size="12" lengthAdjust="spacing" textLength="122.1855" x="81" y="652.5449">Auto-reset triggered</text></g><path d="M330.5,483.1406 L611.061,483.1406 A12.5,12.5 0 0 1 623.561,495.6406 L623.561,570.3125 L318,570.3125 L318,495.6406 A12.5,12.5 0 0 1 330.5,483.1406" fill="#FFFFFF" style="stroke:#FFFFFF;stroke-width:1;"/><path d="M318,570.3125 L623.561,570.3125 L623.561,761.0469 A12.5,12.5 0 0 1 611.061,773.5469 L330.5,773.5469 A12.5,12.5 0 0 1 318,761.0469 L318,570.3125" fill="#FFFFFF" style="stroke:#FFFFFF;stroke-width:1;"/><rect fill="none" height="290.4063" rx="12.5" ry="12.5" style="stroke:#000000;stroke-width:1;" width="305.561" x="318" y="483.1406"/><line style="stroke:#000000;stroke-width:1;" x1="318" x2="623.561" y1="570.3125" y2="570.3125"/><line style="stroke:#000000;stroke-width:1;" x1="318" x2="623.561" y1="509.4375" y2="509.4375"/><text fill="#000000" font-family="Verdana" font-size="14" lengthAdjust="spacing" textLength="38.5889" x="451.4861" y="501.1357">Fresh</text><text fill="#000000" font-family="Verdana" font-size="12" lengthAdjust="spacing" textLength="130.1543" x="323" y="520.5762">entry/ Clear stale flag</text><text fill="#000000" font-family="Verdana" font-size="12" lengthAdjust="spacing" textLength="177.5215" x="323" y="534.5449">entry/ Reset integrity window</text><text fill="#000000" font-family="Verdana" font-size="12" lengthAdjust="spacing" textLength="90.5391" x="323" y="548.5137">Data is reliable</text><text fill="#000000" font-family="Verdana" font-size="12" lengthAdjust="spacing" textLength="161.5195" x="323" y="562.4824">Processing deltas normally</text><g id="OrderBook.Subscribed.Fresh.ReceivingData"><rect fill="#FFFFFF" height="64.2344" rx="12.5" ry="12.5" style="stroke:#000000;stroke-width:1;" width="229.5078" x="330" y="582.3125"/><line style="stroke:#000000;stroke-width:1;" x1="330" x2="559.5078" y1="608.6094" y2="608.6094"/><text fill="#000000" font-family="Verdana" font-size="14" lengthAdjust="spacing" textLength="101.9033" x="393.8022" y="600.3076">ReceivingData</text><text fill="#000000" font-family="Verdana" font-size="12" lengthAdjust="spacing" textLength="209.5078" x="335" y="624.748">Processing inserts/updates/deletes</text><text fill="#000000" font-family="Verdana" font-size="12" lengthAdjust="spacing" textLength="131.6133" x="335" y="638.7168">Building L2 snapshots</text></g><g id="OrderBook.Subscribed.Fresh.IdleTimeout"><rect fill="#FFFFFF" height="64.2344" rx="12.5" ry="12.5" style="stroke:#000000;stroke-width:1;" width="201.125" x="344.5" y="699.3125"/><line style="stroke:#000000;stroke-width:1;" x1="344.5" x2="545.625" y1="725.6094" y2="725.6094"/><text fill="#000000" font-family="Verdana" font-size="14" lengthAdjust="spacing" textLength="83.1387" x="403.4932" y="717.3076">IdleTimeout</text><text fill="#000000" font-family="Verdana" font-size="12" lengthAdjust="spacing" textLength="170.1094" x="349.5" y="741.748">No data for threshold period</text><text fill="#000000" font-family="Verdana" font-size="12" lengthAdjust="spacing" textLength="181.125" x="349.5" y="755.7168">May indicate connection issue</text></g><!--link ReceivingData to IdleTimeout--><g class="link" data-entity-1="ReceivingData" data-entity-2="IdleTimeout" data-source-line="34" data-uid="lnk4" id="link_ReceivingData_IdleTimeout"><path d="M385.1,646.5725 C379.49,651.7625 374.57,657.6625 371,664.3125 C363.91,677.5025 365.6649,685.4125 377.0349,695.3125" fill="none" id="ReceivingData-to-IdleTimeout" style="stroke:#000000;stroke-width:1;"/><polygon fill="#000000" points="381.56,699.2525,377.3991,690.3258,377.7891,695.9691,372.1457,696.3592,381.56,699.2525" style="stroke:#000000;stroke-width:1;"/><text fill="#000000" font-family="Verdana" font-size="13" lengthAdjust="spacing" textLength="125.2075" x="372" y="677.3794">[No events for 60s]</text></g><!--link IdleTimeout to ReceivingData--><g class="link" data-entity-1="IdleTimeout" data-entity-2="ReceivingData" data-source-line="35" data-uid="lnk5" id="link_IdleTimeout_ReceivingData"><path d="M489.06,699.0125 C498.1,688.7025 503.42,676.7025 498,664.3125 C495.19,657.8825 495.0228,656.4364 490.3028,651.0464" fill="none" id="IdleTimeout-to-ReceivingData" style="stroke:#000000;stroke-width:1;"/><polygon fill="#000000" points="486.35,646.5325,489.2699,655.9386,489.644,650.2941,495.2885,650.6682,486.35,646.5325" style="stroke:#000000;stroke-width:1;"/><text fill="#000000" font-family="Verdana" font-size="13" lengthAdjust="spacing" textLength="107.561" x="501" y="677.3794">[Event received]</text></g><!--link IntegrityWindow to PendingReset--><g class="link" data-entity-1="IntegrityWindow" data-entity-2="PendingReset" data-source-line="55" data-uid="lnk6" id="link_IntegrityWindow_PendingReset"><path d="M159.58,350.3706 C156.9,409.4006 151.3828,530.7368 148.6928,589.8368" fill="none" id="IntegrityWindow-to-PendingReset" style="stroke:#000000;stroke-width:1;"/><polygon fill="#000000" points="148.42,595.8306,152.8251,587.0218,148.6473,590.8358,144.8334,586.6581,148.42,595.8306" style="stroke:#000000;stroke-width:1;"/><text fill="#000000" font-family="Verdana" font-size="13" lengthAdjust="spacing" textLength="115.6289" x="160" y="421.2075">[3+ errors in 15s]</text></g><!--link Fresh to Stale--><g class="link" data-entity-1="Fresh" data-entity-2="Stale" data-source-line="58" data-uid="lnk7" id="link_Fresh_Stale"><path d="M317.89,487.6106 C313.16,480.2906 308.83,472.7906 305,465.1406 C301.4,457.9381 298.3983,450.2977 295.9021,442.436 C295.2781,440.4706 296.3174,444.2653 295.7551,442.2756" fill="none" id="Fresh-to-Stale" style="stroke:#000000;stroke-width:1;"/><polygon fill="#000000" points="294.1233,436.5017,292.7217,446.2504,295.4831,441.3133,300.4202,444.0747,294.1233,436.5017" style="stroke:#000000;stroke-width:1;"/><text fill="#000000" font-family="Verdana" font-size="13" lengthAdjust="spacing" textLength="91.5015" x="328.5774" y="381.2075">Integrity Error</text><path d="M310,390.2734 L310,460.2734 L438,460.2734 L438,400.2734 L428,390.2734 L310,390.2734" fill="#FFFFFF" style="stroke:#000000;stroke-width:1;"/><path d="M428,390.2734 L428,400.2734 L438,400.2734 L428,390.2734" fill="#FFFFFF" style="stroke:#000000;stroke-width:1;"/><text fill="#000000" font-family="Verdana" font-size="13" lengthAdjust="spacing" textLength="43.3545" x="316" y="407.3403">Errors:</text><text fill="#000000" font-family="Verdana" font-size="13" lengthAdjust="spacing" textLength="101.5498" x="316" y="422.4731">- Sequence gap</text><text fill="#000000" font-family="Verdana" font-size="13" lengthAdjust="spacing" textLength="107.6563" x="316" y="437.606">- Invalid position</text><text fill="#000000" font-family="Verdana" font-size="13" lengthAdjust="spacing" textLength="88.0801" x="316" y="452.7388">- Out of order</text></g><!--link Stale to Fresh--><g class="link" data-entity-1="Stale" data-entity-2="Fresh" data-source-line="66" data-uid="lnk8" id="link_Stale_Fresh"><path d="M294.3029,318.8466 C294.4253,318.8446 294.5489,318.8427 294.6737,318.8409 C295.6721,318.8261 296.7472,318.8158 297.8938,318.8118 C300.1869,318.804 302.7663,318.822 305.5911,318.8825 C316.8903,319.1244 332.1169,320.0456 348.6663,322.7106 C381.765,328.0406 420.155,340.3456 443,368.1406 C451.06,377.9406 456.9202,422.9723 461.5402,477.1523" fill="none" id="Stale-to-Fresh" style="stroke:#000000;stroke-width:1;"/><polygon fill="#000000" points="462.05,483.1306,465.2709,473.8233,461.6252,478.1487,457.2998,474.503,462.05,483.1306" style="stroke:#000000;stroke-width:1;"/><text fill="#000000" font-family="Verdana" font-size="13" lengthAdjust="spacing" textLength="94.2817" x="462" y="421.2075">ManualReset()</text></g><!--link Stale to Fresh--><g class="link" data-entity-1="Stale" data-entity-2="Fresh" data-source-line="67" data-uid="lnk9" id="link_Stale_Fresh"><path d="M294.3064,319.2563 C294.4903,319.2597 294.677,319.2632 294.8664,319.2668 C295.6243,319.2813 296.4266,319.2973 297.2719,319.3151 C304.0336,319.4573 313.5393,319.7122 324.968,320.165 C347.8253,321.0706 378.3744,322.7681 410.0463,325.9406 C473.39,332.2856 541.225,344.5306 561,368.1406 C588.51,400.9806 587.6894,437.145 572.2894,477.495" fill="none" id="Stale-to-Fresh-1" style="stroke:#000000;stroke-width:1;"/><polygon fill="#000000" points="570.15,483.1006,577.0962,476.1185,571.9329,478.4293,569.6221,473.2659,570.15,483.1006" style="stroke:#000000;stroke-width:1;"/><text fill="#000000" font-family="Verdana" font-size="13" lengthAdjust="spacing" textLength="133.3389" x="582" y="421.2075">[Quiet period &gt; 15s]</text></g><!--link PendingReset to Fresh--><g class="link" data-entity-1="PendingReset" data-entity-2="Fresh" data-source-line="68" data-uid="lnk10" id="link_PendingReset_Fresh"><path d="M218.1,628.1406 C247.54,628.1406 276.89,628.1406 311.7,628.1406" fill="none" id="PendingReset-to-Fresh" style="stroke:#000000;stroke-width:1;"/><polygon fill="#000000" points="317.7,628.1406,308.7,624.1406,312.7,628.1406,308.7,632.1406,317.7,628.1406" style="stroke:#000000;stroke-width:1;"/><text fill="#000000" font-family="Verdana" font-size="13" lengthAdjust="spacing" textLength="77.2256" x="229.5" y="621.2075">AutoReset()</text></g><ellipse cx="1162" cy="440.9063" fill="#FFFFFF" rx="10" ry="10" style="stroke:#000000;stroke-width:1;"/><g class="entity" data-entity="GMN2" data-source-line="75" data-uid="ent0003" id="entity_GMN2"><path d="M748.5,420.9063 L748.5,436.9063 L730.05,440.9063 L748.5,444.9063 L748.5,461.1719 A0,0 0 0 0 748.5,461.1719 L1133.8301,461.1719 A0,0 0 0 0 1133.8301,461.1719 L1133.8301,430.9063 L1123.8301,420.9063 L748.5,420.9063 A0,0 0 0 0 748.5,420.9063" fill="#FFFFFF" style="stroke:#000000;stroke-width:1;"/><path d="M1123.8301,420.9063 L1123.8301,430.9063 L1133.8301,430.9063 L1123.8301,420.9063" fill="#FFFFFF" style="stroke:#000000;stroke-width:1;"/><text fill="#000000" font-family="Verdana" font-size="13" lengthAdjust="spacing" textLength="180.667" x="754.5" y="437.9731">State tracked per symbol in</text><text fill="#000000" font-family="Verdana" font-size="13" lengthAdjust="spacing" textLength="364.3301" x="754.5" y="453.106">ConcurrentDictionary&lt;string, SymbolOrderBookBuffer&gt;</text></g><!--link *start*OrderBook to Unsubscribed--><g class="link" data-entity-1="*start*OrderBook" data-entity-2="Unsubscribed" data-source-line="7" data-uid="lnk3" id="link_*start*OrderBook_Unsubscribed"><path d="M1164.91,450.5263 C1178.76,493.3163 1233.61,684.7163 1143,784.9063 C1081.51,852.8963 809.279,865.9343 680.179,868.3443" fill="none" id="*start*OrderBook-to-Unsubscribed" style="stroke:#000000;stroke-width:1;"/><polygon fill="#000000" points="674.18,868.4563,683.2531,872.2876,679.1791,868.3629,683.1038,864.289,674.18,868.4563" style="stroke:#000000;stroke-width:1;"/></g><!--link Unsubscribed to Subscribed--><g class="link" data-entity-1="Unsubscribed" data-entity-2="Subscribed" data-source-line="71" data-uid="lnk11" id="link_Unsubscribed_Subscribed"><path d="M599.08,837.8563 C595.49,826.6463 591.01,814.0263 586,802.9063 C583.32,796.9663 583.1282,796.4282 580.3182,790.4382" fill="none" id="Unsubscribed-to-Subscribed" style="stroke:#000000;stroke-width:1;"/><polygon fill="#000000" points="577.77,785.0063,577.971,794.8531,579.8935,789.5329,585.2137,791.4554,577.77,785.0063" style="stroke:#000000;stroke-width:1;"/><text fill="#000000" font-family="Verdana" font-size="13" lengthAdjust="spacing" textLength="191.9722" x="594" y="815.9731">RegisterSubscription(symbol)</text></g><!--link Subscribed to Unsubscribed--><g class="link" data-entity-1="Subscribed" data-entity-2="Unsubscribed" data-source-line="72" data-uid="lnk12" id="link_Subscribed_Unsubscribed"><path d="M351.88,785.2163 C357.89,797.4463 365.21,809.0863 374,819.9063 C394.84,845.5563 474.3277,857.6805 535.9477,863.6205" fill="none" id="Subscribed-to-Unsubscribed" style="stroke:#000000;stroke-width:1;"/><polygon fill="#000000" points="541.92,864.1963,533.3453,859.3511,536.9431,863.7165,532.5777,867.3142,541.92,864.1963" style="stroke:#000000;stroke-width:1;"/><text fill="#000000" font-family="Verdana" font-size="13" lengthAdjust="spacing" textLength="206.0386" x="375" y="815.9731">UnregisterSubscription(symbol)</text></g><!--SRC=[ZLPBRzim3BxxLt0zTO-WUs0x14E1lWOKMDUkQR53q8DYCuvGHSeegKKmvB-FaXB7yfnqlXYMFf8VoK-KNxaPpX4MIaXT54uwXN2592ifD0pWcYeaE3Nc4KQEKCpv9Hn3H3cJ6el2ni-35ku6QJ1QpYT69Um129lynEq_HG7yZDyym61m3FVQ-eajIKwmIZl9OtkTRM3zPCj3-66W4av0QPJ2qacZTo5ZR6qS2ALCoH6gY5orOuxw8exQNcwnbjOXySUpTBDDN4Fzy9Dd8PtKDKmbMGTMYuMT6LSqw1Jt6w6TjKA69wqD0RMZvH6SAHGKuDoUgHBrFkmjMdGWjSEQf5ioKrsPvrwByr0yQO5GIJ5Hs0kw8LEYjI6F2fNZRcf3SwxZiiZmAPbRB54-CJZwpfCAJxwVUPVQ8Zbxv1VSLBH770tv_QABKozL5Hny_zZKEBTQzJ6zh1JUoJaQxtfujdUtGfiQ0ZSBXJ6gWWKV55EzO7ebbfnP9OFeM31Q9w5osQt7VIppDCDXoHsFcHG-STDjfFNblNqeTj48rjsoZI-2CVS-B6ErDLvr1JgAkijhbDOQqOrOSZlasK5UpAM3SrousUL6ef78NkzEq0kItbZ4vEPSymc2rxt2ta3FZERJwN5TWg2W2TSg911cLaodLpWR7hyYZJxnT113k2DHFeO8I6J8SYxmuRFjIwJV_inu7KS9AyXYwHst3AP2Aa_u7rg_GHrEI1eD__BDjeVmwMsBvWwA7PCJxyo0ueSZMTTXHkwZrSqm2BJZSfpHu6hrAZHDgM2-QMlZ6Yw2TOFawO_01qz9_PXnYJ0xpDO6hEZV7dM9K8j5P-jIFmab-VmRAxDB9srViuZC54ouyvejpYqos39FV0FppQIz4jeB5VC_VBq7D_xf9PSeZHyupckJLR5j5LhKzhqkOdPHnZhstNZhnKL8zz36wprv6UN6dMltda_W7WT5qnVMp2nMRUklNG16k722C0vTIFOiYmR3PxdqH3mlpcMShuAMNorBKTVl8FsEDFyWftuwHJekihQiYhy0]--></g></svg>