<svg xmlns="http://www.w3.org/2000/svg" xmlns:xlink="http://www.w3.org/1999/xlink" contentStyleType="text/css" data-diagram-type="STATE" height="1308px" preserveAspectRatio="none" style="width:770px;height:1308px;background:#FFFFFF;" version="1.1" viewBox="0 0 770 1308" width="770px" zoomAndPan="magnify"><title>Meridian - Backfill Request State Machine</title><defs/><g><text fill="#000000" font-family="Verdana" font-size="22" font-weight="bold" lengthAdjust="spacing" textLength="519.9219" x="117.5742" y="35.4209">Meridian - Backfill Request State Machine</text><path d="M24.5,58.6094 L744.5703,58.6094 A12.5,12.5 0 0 1 757.0703,71.1094 L757.0703,84.9063 L12,84.9063 L12,71.1094 A12.5,12.5 0 0 1 24.5,58.6094" fill="#FFFFFF" style="stroke:#FFFFFF;stroke-width:1;"/><path d="M12,84.9063 L757.0703,84.9063 L757.0703,1282.4063 A12.5,12.5 0 0 1 744.5703,1294.9063 L24.5,1294.9063 A12.5,12.5 0 0 1 12,1282.4063 L12,84.9063" fill="#FFFFFF" style="stroke:#FFFFFF;stroke-width:1;"/><rect fill="none" height="1236.2969" rx="12.5" ry="12.5" style="stroke:#000000;stroke-width:1;" width="745.0703" x="12" y="58.6094"/><line style="stroke:#000000;stroke-width:1;" x1="12" x2="757.0703" y1="84.9063" y2="84.9063"/><text fill="#000000" font-family="Verdana" font-size="14" lengthAdjust="spacing" textLength="178.3975" x="295.3364" y="76.6045">Backfill Request Lifecycle</text><g id="BackfillLC.Pending"><rect fill="#FFFFFF" height="64.2344" rx="12.5" ry="12.5" style="stroke:#000000;stroke-width:1;" width="148.625" x="412.5" y="152.9063"/><line style="stroke:#000000;stroke-width:1;" x1="412.5" x2="561.125" y1="179.2031" y2="179.2031"/><text fill="#000000" font-family="Verdana" font-size="14" lengthAdjust="spacing" textLength="56.4648" x="458.5801" y="170.9014">Pending</text><text fill="#000000" font-family="Verdana" font-size="12" lengthAdjust="spacing" textLength="98.3086" x="417.5" y="195.3418">Request queued</text><text fill="#000000" font-family="Verdana" font-size="12" lengthAdjust="spacing" textLength="128.625" x="417.5" y="209.3105">Waiting for resources</text></g><g id="BackfillLC.Validating"><rect fill="#FFFFFF" height="92.1719" rx="12.5" ry="12.5" style="stroke:#000000;stroke-width:1;" width="182.293" x="396" y="269.9063"/><line style="stroke:#000000;stroke-width:1;" x1="396" x2="578.293" y1="296.2031" y2="296.2031"/><text fill="#000000" font-family="Verdana" font-size="14" lengthAdjust="spacing" textLength="70.54" x="451.8765" y="287.9014">Validating</text><text fill="#000000" font-family="Verdana" font-size="12" lengthAdjust="spacing" textLength="162.293" x="401" y="312.3418">entry/ Validate parameters</text><text fill="#000000" font-family="Verdana" font-size="12" lengthAdjust="spacing" textLength="128.127" x="401" y="326.3105">Check symbol format</text><text fill="#000000" font-family="Verdana" font-size="12" lengthAdjust="spacing" textLength="104.7656" x="401" y="340.2793">Verify date range</text><text fill="#000000" font-family="Verdana" font-size="12" lengthAdjust="spacing" textLength="156.9727" x="401" y="354.248">Test provider connectivity</text></g><path d="M153.5,414.9063 L566.2149,414.9063 A12.5,12.5 0 0 1 578.7149,427.4063 L578.7149,474.1406 L141,474.1406 L141,427.4063 A12.5,12.5 0 0 1 153.5,414.9063" fill="#FFFFFF" style="stroke:#FFFFFF;stroke-width:1;"/><path d="M141,474.1406 L578.7149,474.1406 L578.7149,1082.875 A12.5,12.5 0 0 1 566.2149,1095.375 L153.5,1095.375 A12.5,12.5 0 0 1 141,1082.875 L141,474.1406" fill="#FFFFFF" style="stroke:#FFFFFF;stroke-width:1;"/><rect fill="none" height="680.4688" rx="12.5" ry="12.5" style="stroke:#000000;stroke-width:1;" width="437.7149" x="141" y="414.9063"/><line style="stroke:#000000;stroke-width:1;" x1="141" x2="578.7149" y1="474.1406" y2="474.1406"/><line style="stroke:#000000;stroke-width:1;" x1="141" x2="578.7149" y1="441.2031" y2="441.2031"/><text fill="#000000" font-family="Verdana" font-size="14" lengthAdjust="spacing" textLength="73.6094" x="323.0528" y="432.9014">InProgress</text><text fill="#000000" font-family="Verdana" font-size="12" lengthAdjust="spacing" textLength="177.9551" x="146" y="452.3418">entry/ Start progress tracking</text><text fill="#000000" font-family="Verdana" font-size="12" lengthAdjust="spacing" textLength="141.1992" x="146" y="466.3105">Fetching historical data</text><path d="M165.5,486.1406 L552.2149,486.1406 A12.5,12.5 0 0 1 564.7149,498.6406 L564.7149,545.375 L153,545.375 L153,498.6406 A12.5,12.5 0 0 1 165.5,486.1406" fill="#FFFFFF" style="stroke:#FFFFFF;stroke-width:1;"/><path d="M153,545.375 L564.7149,545.375 L564.7149,955.875 A12.5,12.5 0 0 1 552.2149,968.375 L165.5,968.375 A12.5,12.5 0 0 1 153,955.875 L153,545.375" fill="#FFFFFF" style="stroke:#FFFFFF;stroke-width:1;"/><rect fill="none" height="482.2344" rx="12.5" ry="12.5" style="stroke:#000000;stroke-width:1;" width="411.7149" x="153" y="486.1406"/><line style="stroke:#000000;stroke-width:1;" x1="153" x2="564.7149" y1="545.375" y2="545.375"/><line style="stroke:#000000;stroke-width:1;" x1="153" x2="564.7149" y1="512.4375" y2="512.4375"/><text fill="#000000" font-family="Verdana" font-size="14" lengthAdjust="spacing" textLength="112.5264" x="302.5943" y="504.1357">FetchingSymbol</text><text fill="#000000" font-family="Verdana" font-size="12" lengthAdjust="spacing" textLength="137.8477" x="158" y="523.5762">Processing one symbol</text><text fill="#000000" font-family="Verdana" font-size="12" lengthAdjust="spacing" textLength="150.5508" x="158" y="537.5449">HTTP request to provider</text><g id="BackfillLC.InProgress.FetchingSymbol.RateLimited"><rect fill="#FFFFFF" height="78.2031" rx="12.5" ry="12.5" style="stroke:#000000;stroke-width:1;" width="153.7813" x="183.92" y="557.375"/><line style="stroke:#000000;stroke-width:1;" x1="183.92" x2="337.7013" y1="583.6719" y2="583.6719"/><text fill="#000000" font-family="Verdana" font-size="14" lengthAdjust="spacing" textLength="84.6152" x="218.503" y="575.3701">RateLimited</text><text fill="#000000" font-family="Verdana" font-size="12" lengthAdjust="spacing" textLength="133.7813" x="188.92" y="599.8105">entry/ Start wait timer</text><text fill="#000000" font-family="Verdana" font-size="12" lengthAdjust="spacing" textLength="98.7305" x="188.92" y="613.7793">Quota exceeded</text><text fill="#000000" font-family="Verdana" font-size="12" lengthAdjust="spacing" textLength="100.5996" x="188.92" y="627.748">Waiting for reset</text></g><g id="BackfillLC.InProgress.FetchingSymbol.Downloading"><rect fill="#FFFFFF" height="64.2344" rx="12.5" ry="12.5" style="stroke:#000000;stroke-width:1;" width="122.9141" x="257.42" y="688.375"/><line style="stroke:#000000;stroke-width:1;" x1="257.42" x2="380.3341" y1="714.6719" y2="714.6719"/><text fill="#000000" font-family="Verdana" font-size="14" lengthAdjust="spacing" textLength="91.2393" x="273.2574" y="706.3701">Downloading</text><text fill="#000000" font-family="Verdana" font-size="12" lengthAdjust="spacing" textLength="89.5371" x="262.42" y="730.8105">Receiving data</text><text fill="#000000" font-family="Verdana" font-size="12" lengthAdjust="spacing" textLength="102.9141" x="262.42" y="744.7793">Parsing response</text></g><g id="BackfillLC.InProgress.FetchingSymbol.ProviderError"><rect fill="#FFFFFF" height="78.2031" rx="12.5" ry="12.5" style="stroke:#000000;stroke-width:1;" width="129.5293" x="253.92" y="805.375"/><line style="stroke:#000000;stroke-width:1;" x1="253.92" x2="383.4493" y1="831.6719" y2="831.6719"/><text fill="#000000" font-family="Verdana" font-size="14" lengthAdjust="spacing" textLength="92.873" x="272.2481" y="823.3701">ProviderError</text><text fill="#000000" font-family="Verdana" font-size="12" lengthAdjust="spacing" textLength="94.5703" x="258.92" y="847.8105">entry/ Log error</text><text fill="#000000" font-family="Verdana" font-size="12" lengthAdjust="spacing" textLength="109.5293" x="258.92" y="861.7793">entry/ Try fallback</text><text fill="#000000" font-family="Verdana" font-size="12" lengthAdjust="spacing" textLength="86.3438" x="258.92" y="875.748">Request failed</text></g><ellipse cx="437.92" cy="596.375" fill="#FFFFFF" rx="10" ry="10" style="stroke:#000000;stroke-width:1;"/><ellipse cx="390.92" cy="947.375" fill="none" rx="11" ry="11" style="stroke:#000000;stroke-width:1;"/><ellipse cx="390.92" cy="947.375" fill="#FFFFFF" rx="6" ry="6" style="stroke:#000000;stroke-width:1;"/><!--link *start*FetchingSymbol to Downloading--><g class="link" data-entity-1="*start*FetchingSymbol" data-entity-2="Downloading" data-source-line="46" data-uid="lnk5" id="link_*start*FetchingSymbol_Downloading"><path d="M436.83,606.525 C434.61,621.495 428.31,651.465 411.92,670.375 C403.32,680.305 397.3808,685.5158 385.8408,692.2058" fill="none" id="*start*FetchingSymbol-to-Downloading" style="stroke:#000000;stroke-width:1;"/><polygon fill="#000000" points="380.65,695.215,390.4424,694.1617,384.9757,692.7073,386.4301,687.2406,380.65,695.215" style="stroke:#000000;stroke-width:1;"/></g><!--link Downloading to RateLimited--><g class="link" data-entity-1="Downloading" data-entity-2="RateLimited" data-source-line="47" data-uid="lnk6" id="link_Downloading_RateLimited"><path d="M310.29,688.185 C306.72,676.975 302.19,664.375 296.92,653.375 C294.08,647.435 293.797,646.51 290.287,640.66" fill="none" id="Downloading-to-RateLimited" style="stroke:#000000;stroke-width:1;"/><polygon fill="#000000" points="287.2,635.515,288.4005,645.2904,289.7725,639.8025,295.2604,641.1745,287.2,635.515" style="stroke:#000000;stroke-width:1;"/><text fill="#000000" font-family="Verdana" font-size="13" lengthAdjust="spacing" textLength="102.1084" x="304.92" y="666.4419">[429 Response]</text></g><!--link RateLimited to Downloading--><g class="link" data-entity-1="RateLimited" data-entity-2="Downloading" data-source-line="48" data-uid="lnk7" id="link_RateLimited_Downloading"><path d="M206.32,635.675 C197.29,646.555 193.09,658.645 200.92,670.375 C213.79,689.655 230.1219,699.4759 251.6819,706.5859" fill="none" id="RateLimited-to-Downloading" style="stroke:#000000;stroke-width:1;"/><polygon fill="#000000" points="257.38,708.465,250.0855,701.8476,252.6315,706.8991,247.58,709.4451,257.38,708.465" style="stroke:#000000;stroke-width:1;"/><text fill="#000000" font-family="Verdana" font-size="13" lengthAdjust="spacing" textLength="90.6636" x="201.92" y="666.4419">[Quota Reset]</text></g><!--link Downloading to ProviderError--><g class="link" data-entity-1="Downloading" data-entity-2="ProviderError" data-source-line="49" data-uid="lnk8" id="link_Downloading_ProviderError"><path d="M257.4,728.385 C230.84,734.815 202.18,747.065 185.92,770.375 C164,801.815 204.1345,819.6586 247.8945,830.4486" fill="none" id="Downloading-to-ProviderError" style="stroke:#000000;stroke-width:1;"/><polygon fill="#000000" points="253.72,831.885,245.9393,825.8467,248.8654,830.688,244.0241,833.6141,253.72,831.885" style="stroke:#000000;stroke-width:1;"/><text fill="#000000" font-family="Verdana" font-size="13" lengthAdjust="spacing" textLength="109.4971" x="186.92" y="783.4419">[Error Response]</text></g><!--link ProviderError to Downloading--><g class="link" data-entity-1="ProviderError" data-entity-2="Downloading" data-source-line="50" data-uid="lnk9" id="link_ProviderError_Downloading"><path d="M318.92,805.355 C318.92,788.355 318.92,774.575 318.92,758.475" fill="none" id="ProviderError-to-Downloading" style="stroke:#000000;stroke-width:1;"/><polygon fill="#000000" points="318.92,752.475,314.92,761.475,318.92,757.475,322.92,761.475,318.92,752.475" style="stroke:#000000;stroke-width:1;"/><text fill="#000000" font-family="Verdana" font-size="13" lengthAdjust="spacing" textLength="127.4419" x="319.92" y="783.4419">[Fallback Available]</text></g><!--link ProviderError to *end*FetchingSymbol--><g class="link" data-entity-1="ProviderError" data-entity-2="*end*FetchingSymbol" data-source-line="51" data-uid="lnk11" id="link_ProviderError_*end*FetchingSymbol"><path d="M338.72,883.405 C345.46,895.065 353.45,907.635 361.92,918.375 C368.16,926.285 372.0441,930.2045 378.1941,935.5845" fill="none" id="ProviderError-to-*end*FetchingSymbol" style="stroke:#000000;stroke-width:1;"/><polygon fill="#000000" points="382.71,939.535,378.5698,930.5986,378.9467,936.2429,373.3025,936.6198,382.71,939.535" style="stroke:#000000;stroke-width:1;"/><text fill="#000000" font-family="Verdana" font-size="13" lengthAdjust="spacing" textLength="85.5156" x="362.92" y="914.4419">[No Fallback]</text></g><!--link Downloading to *end*FetchingSymbol--><g class="link" data-entity-1="Downloading" data-entity-2="*end*FetchingSymbol" data-source-line="52" data-uid="lnk12" id="link_Downloading_*end*FetchingSymbol"><path d="M380.44,729.095 C406.03,735.675 433.35,747.865 448.92,770.375 C486.34,824.475 483.89,862.665 448.92,918.375 C438.58,934.855 421.3788,940.6652 407.6588,943.4652" fill="none" id="Downloading-to-*end*FetchingSymbol" style="stroke:#000000;stroke-width:1;"/><polygon fill="#000000" points="401.78,944.665,411.3981,946.7846,406.679,943.6652,409.7984,938.9461,401.78,944.665" style="stroke:#000000;stroke-width:1;"/><text fill="#000000" font-family="Verdana" font-size="13" lengthAdjust="spacing" textLength="72.7949" x="476.92" y="848.9419">[Complete]</text></g><g id="BackfillLC.InProgress.WritingData"><rect fill="#FFFFFF" height="64.2344" rx="12.5" ry="12.5" style="stroke:#000000;stroke-width:1;" width="193.0684" x="262.5" y="1021.1406"/><line style="stroke:#000000;stroke-width:1;" x1="262.5" x2="455.5684" y1="1047.4375" y2="1047.4375"/><text fill="#000000" font-family="Verdana" font-size="14" lengthAdjust="spacing" textLength="84.0547" x="317.0068" y="1039.1357">WritingData</text><text fill="#000000" font-family="Verdana" font-size="12" lengthAdjust="spacing" textLength="173.0684" x="267.5" y="1063.5762">Publishing events to pipeline</text><text fill="#000000" font-family="Verdana" font-size="12" lengthAdjust="spacing" textLength="136.2363" x="267.5" y="1077.5449">Incrementing counters</text></g><!--link FetchingSymbol to WritingData--><g class="link" data-entity-1="FetchingSymbol" data-entity-2="WritingData" data-source-line="60" data-uid="lnk13" id="link_FetchingSymbol_WritingData"><path d="M296.43,968.4506 C295.54,974.3906 294.72,980.3006 294,986.1406 C293.07,993.6406 290.63,996.3806 294,1003.1406 C297.28,1009.7206 297.6593,1011.406 302.9493,1016.676" fill="none" id="FetchingSymbol-to-WritingData" style="stroke:#000000;stroke-width:1;"/><polygon fill="#000000" points="307.2,1020.9106,303.6471,1011.7249,303.6578,1017.3818,298.0009,1017.3925,307.2,1020.9106" style="stroke:#000000;stroke-width:1;"/><text fill="#000000" font-family="Verdana" font-size="13" lengthAdjust="spacing" textLength="108.3418" x="295" y="999.2075">[Data Retrieved]</text></g><!--link WritingData to FetchingSymbol--><g class="link" data-entity-1="WritingData" data-entity-2="FetchingSymbol" data-source-line="61" data-uid="lnk14" id="link_WritingData_FetchingSymbol"><path d="M393.54,1021.0306 C397.8,1015.5206 401.53,1009.4906 404,1003.1406 C406.74,996.1006 404.65,993.6706 404,986.1406 C403.49,980.2506 403.5455,980.2679 402.9155,974.2579" fill="none" id="WritingData-to-FetchingSymbol" style="stroke:#000000;stroke-width:1;"/><polygon fill="#000000" points="402.29,968.2906,399.2501,977.6586,402.8113,973.2634,407.2065,976.8246,402.29,968.2906" style="stroke:#000000;stroke-width:1;"/><text fill="#000000" font-family="Verdana" font-size="13" lengthAdjust="spacing" textLength="101.9878" x="406" y="999.2075">[More Symbols]</text></g><g id="BackfillLC.Completed"><rect fill="#FFFFFF" height="78.2031" rx="12.5" ry="12.5" style="stroke:#000000;stroke-width:1;" width="176.0703" x="572" y="1147.9063"/><line style="stroke:#000000;stroke-width:1;" x1="572" x2="748.0703" y1="1174.2031" y2="1174.2031"/><text fill="#000000" font-family="Verdana" font-size="14" lengthAdjust="spacing" textLength="76.3574" x="621.8564" y="1165.9014">Completed</text><text fill="#000000" font-family="Verdana" font-size="12" lengthAdjust="spacing" textLength="156.0703" x="577" y="1190.3418">entry/ Calculate summary</text><text fill="#000000" font-family="Verdana" font-size="12" lengthAdjust="spacing" textLength="134.584" x="577" y="1204.3105">entry/ Write status file</text><text fill="#000000" font-family="Verdana" font-size="12" lengthAdjust="spacing" textLength="133.4707" x="577" y="1218.2793">All symbols processed</text></g><g id="BackfillLC.PartiallyCompleted"><rect fill="#FFFFFF" height="64.2344" rx="12.5" ry="12.5" style="stroke:#000000;stroke-width:1;" width="153.1572" x="230.5" y="1154.9063"/><line style="stroke:#000000;stroke-width:1;" x1="230.5" x2="383.6572" y1="1181.2031" y2="1181.2031"/><text fill="#000000" font-family="Verdana" font-size="14" lengthAdjust="spacing" textLength="133.1572" x="240.5" y="1172.9014">PartiallyCompleted</text><text fill="#000000" font-family="Verdana" font-size="12" lengthAdjust="spacing" textLength="124.4941" x="235.5" y="1197.3418">Some symbols failed</text><text fill="#000000" font-family="Verdana" font-size="12" lengthAdjust="spacing" textLength="127.0723" x="235.5" y="1211.3105">Partial data available</text></g><g id="BackfillLC.Failed"><rect fill="#FFFFFF" height="78.2031" rx="12.5" ry="12.5" style="stroke:#000000;stroke-width:1;" width="152.1348" x="402" y="1147.9063"/><line style="stroke:#000000;stroke-width:1;" x1="402" x2="554.1348" y1="1174.2031" y2="1174.2031"/><text fill="#000000" font-family="Verdana" font-size="14" lengthAdjust="spacing" textLength="41.9111" x="457.1118" y="1165.9014">Failed</text><text fill="#000000" font-family="Verdana" font-size="12" lengthAdjust="spacing" textLength="103.2129" x="407" y="1190.3418">entry/ Log failure</text><text fill="#000000" font-family="Verdana" font-size="12" lengthAdjust="spacing" textLength="132.1348" x="407" y="1204.3105">Critical error occurred</text><text fill="#000000" font-family="Verdana" font-size="12" lengthAdjust="spacing" textLength="105.2695" x="407" y="1218.2793">No data collected</text></g><g id="BackfillLC.Cancelled"><rect fill="#FFFFFF" height="64.2344" rx="12.5" ry="12.5" style="stroke:#000000;stroke-width:1;" width="188.4043" x="24" y="1154.9063"/><line style="stroke:#000000;stroke-width:1;" x1="24" x2="212.4043" y1="1181.2031" y2="1181.2031"/><text fill="#000000" font-family="Verdana" font-size="14" lengthAdjust="spacing" textLength="68.8174" x="83.7935" y="1172.9014">Cancelled</text><text fill="#000000" font-family="Verdana" font-size="12" lengthAdjust="spacing" textLength="144.5742" x="29" y="1197.3418">entry/ Flush partial data</text><text fill="#000000" font-family="Verdana" font-size="12" lengthAdjust="spacing" textLength="168.4043" x="29" y="1211.3105">User requested cancellation</text></g><ellipse cx="487" cy="105.9063" fill="#FFFFFF" rx="10" ry="10" style="stroke:#000000;stroke-width:1;"/><ellipse cx="355" cy="1273.9063" fill="none" rx="11" ry="11" style="stroke:#000000;stroke-width:1;"/><ellipse cx="355" cy="1273.9063" fill="#FFFFFF" rx="6" ry="6" style="stroke:#000000;stroke-width:1;"/><!--link *start*BackfillLC to Pending--><g class="link" data-entity-1="*start*BackfillLC" data-entity-2="Pending" data-source-line="7" data-uid="lnk3" id="link_*start*BackfillLC_Pending"><path d="M487,116.0463 C487,125.1263 487,133.5763 487,146.8163" fill="none" id="*start*BackfillLC-to-Pending" style="stroke:#000000;stroke-width:1;"/><polygon fill="#000000" points="487,152.8163,491,143.8163,487,147.8163,483,143.8163,487,152.8163" style="stroke:#000000;stroke-width:1;"/></g><!--link Pending to Validating--><g class="link" data-entity-1="Pending" data-entity-2="Validating" data-source-line="86" data-uid="lnk15" id="link_Pending_Validating"><path d="M487,217.1363 C487,232.9462 487,246.4262 487,263.8262" fill="none" id="Pending-to-Validating" style="stroke:#000000;stroke-width:1;"/><polygon fill="#000000" points="487,269.8262,491,260.8262,487,264.8262,483,260.8262,487,269.8262" style="stroke:#000000;stroke-width:1;"/><text fill="#000000" font-family="Verdana" font-size="13" lengthAdjust="spacing" textLength="41.9009" x="488" y="247.9731">Start()</text></g><!--link Validating to InProgress--><g class="link" data-entity-1="Validating" data-entity-2="InProgress" data-source-line="87" data-uid="lnk16" id="link_Validating_InProgress"><path d="M473.89,362.0263 C469.55,376.9662 466.0036,389.1544 460.2236,409.0544" fill="none" id="Validating-to-InProgress" style="stroke:#000000;stroke-width:1;"/><polygon fill="#000000" points="458.55,414.8162,464.9016,407.2891,459.9446,410.0147,457.2191,405.0577,458.55,414.8162" style="stroke:#000000;stroke-width:1;"/><text fill="#000000" font-family="Verdana" font-size="13" lengthAdjust="spacing" textLength="42.4785" x="470" y="392.9731">[Valid]</text></g><!--link Validating to Failed--><g class="link" data-entity-1="Validating" data-entity-2="Failed" data-source-line="88" data-uid="lnk17" id="link_Validating_Failed"><path d="M548.81,362.1463 C564.5,377.0363 579.34,394.9562 588,414.9063 C711.55,699.5263 598.11,802.6463 601,1112.9063 C601.07,1120.4663 605.09,1123.5563 601,1129.9063 C600.58,1130.5663 584.4864,1137.9827 559.5364,1149.2727" fill="none" id="Validating-to-Failed" style="stroke:#000000;stroke-width:1;"/><polygon fill="#000000" points="554.07,1151.7463,563.9186,1151.6802,558.6253,1149.6849,560.6205,1144.3916,554.07,1151.7463" style="stroke:#000000;stroke-width:1;"/><text fill="#000000" font-family="Verdana" font-size="13" lengthAdjust="spacing" textLength="53.3521" x="647" y="759.4731">[Invalid]</text></g><!--link InProgress to Completed--><g class="link" data-entity-1="InProgress" data-entity-2="Completed" data-source-line="90" data-uid="lnk18" id="link_InProgress_Completed"><path d="M579.23,1075.4963 C583.85,1082.0263 588.45,1088.5063 593,1094.9063 C605.4,1112.3263 615.8082,1126.5952 627.7882,1142.7652" fill="none" id="InProgress-to-Completed" style="stroke:#000000;stroke-width:1;"/><polygon fill="#000000" points="631.36,1147.5863,629.2163,1137.9735,628.3835,1143.5687,622.7883,1142.7359,631.36,1147.5863" style="stroke:#000000;stroke-width:1;"/><text fill="#000000" font-family="Verdana" font-size="13" lengthAdjust="spacing" textLength="82.7227" x="618" y="1125.9731">[All Success]</text></g><!--link InProgress to PartiallyCompleted--><g class="link" data-entity-1="InProgress" data-entity-2="PartiallyCompleted" data-source-line="91" data-uid="lnk19" id="link_InProgress_PartiallyCompleted"><path d="M309.52,1094.9663 C308.98,1100.9963 308.47,1106.9763 308,1112.9063 C306.92,1126.5563 306.5886,1135.6763 306.5486,1148.6063" fill="none" id="InProgress-to-PartiallyCompleted" style="stroke:#000000;stroke-width:1;"/><polygon fill="#000000" points="306.53,1154.6063,310.5578,1145.6187,306.5455,1149.6063,302.5579,1145.5939,306.53,1154.6063" style="stroke:#000000;stroke-width:1;"/><text fill="#000000" font-family="Verdana" font-size="13" lengthAdjust="spacing" textLength="90.0605" x="309" y="1125.9731">[Some Failed]</text></g><!--link InProgress to Failed--><g class="link" data-entity-1="InProgress" data-entity-2="Failed" data-source-line="92" data-uid="lnk20" id="link_InProgress_Failed"><path d="M407.21,1094.9063 C411.99,1106.9063 417.24,1118.6163 423,1129.9063 C426.16,1136.0963 426.4561,1137.3898 430.9661,1142.9398" fill="none" id="InProgress-to-Failed" style="stroke:#000000;stroke-width:1;"/><polygon fill="#000000" points="434.75,1147.5963,432.1785,1138.089,431.5968,1143.7159,425.9699,1143.1342,434.75,1147.5963" style="stroke:#000000;stroke-width:1;"/><text fill="#000000" font-family="Verdana" font-size="13" lengthAdjust="spacing" textLength="69.3101" x="424" y="1125.9731">[All Failed]</text></g><!--link InProgress to Cancelled--><g class="link" data-entity-1="InProgress" data-entity-2="Cancelled" data-source-line="93" data-uid="lnk21" id="link_InProgress_Cancelled"><path d="M169.17,1094.9763 C155.85,1118.6463 147.1928,1134.0375 138.4128,1149.6375" fill="none" id="InProgress-to-Cancelled" style="stroke:#000000;stroke-width:1;"/><polygon fill="#000000" points="135.47,1154.8663,143.3701,1148.985,137.9224,1150.509,136.3984,1145.0613,135.47,1154.8663" style="stroke:#000000;stroke-width:1;"/><text fill="#000000" font-family="Verdana" font-size="13" lengthAdjust="spacing" textLength="120.1802" x="160" y="1125.9731">CancellationToken</text></g><!--link Completed to *end*BackfillLC--><g class="link" data-entity-1="Completed" data-entity-2="*end*BackfillLC" data-source-line="95" data-uid="lnk23" id="link_Completed_*end*BackfillLC"><path d="M571.91,1223.0663 C568.92,1224.0563 565.94,1225.0063 563,1225.9063 C489.03,1248.6063 403.1103,1264.5326 371.8903,1269.9926" fill="none" id="Completed-to-*end*BackfillLC" style="stroke:#000000;stroke-width:1;"/><polygon fill="#000000" points="365.98,1271.0263,375.5345,1273.416,370.9052,1270.1649,374.1564,1265.5356,365.98,1271.0263" style="stroke:#000000;stroke-width:1;"/></g><!--link PartiallyCompleted to *end*BackfillLC--><g class="link" data-entity-1="PartiallyCompleted" data-entity-2="*end*BackfillLC" data-source-line="96" data-uid="lnk24" id="link_PartiallyCompleted_*end*BackfillLC"><path d="M324.6,1219.0763 C333.59,1234.9963 340.917,1247.9832 346.927,1258.6132" fill="none" id="PartiallyCompleted-to-*end*BackfillLC" style="stroke:#000000;stroke-width:1;"/><polygon fill="#000000" points="349.88,1263.8363,348.9325,1254.0331,347.4192,1259.4837,341.9685,1257.9704,349.88,1263.8363" style="stroke:#000000;stroke-width:1;"/></g><!--link Failed to *end*BackfillLC--><g class="link" data-entity-1="Failed" data-entity-2="*end*BackfillLC" data-source-line="97" data-uid="lnk25" id="link_Failed_*end*BackfillLC"><path d="M422.98,1225.9263 C400.2,1241.6663 381.1757,1254.8147 368.6757,1263.4547" fill="none" id="Failed-to-*end*BackfillLC" style="stroke:#000000;stroke-width:1;"/><polygon fill="#000000" points="363.74,1266.8663,373.4179,1265.0394,367.8531,1264.0233,368.8692,1258.4584,363.74,1266.8663" style="stroke:#000000;stroke-width:1;"/></g><!--link Cancelled to *end*BackfillLC--><g class="link" data-entity-1="Cancelled" data-entity-2="*end*BackfillLC" data-source-line="98" data-uid="lnk26" id="link_Cancelled_*end*BackfillLC"><path d="M201.72,1218.9163 C208.24,1221.2963 214.72,1223.6463 221,1225.9063 C267.16,1242.5163 316.8585,1259.7481 339.2185,1267.4681" fill="none" id="Cancelled-to-*end*BackfillLC" style="stroke:#000000;stroke-width:1;"/><polygon fill="#000000" points="344.89,1269.4263,337.6882,1262.7081,340.1638,1267.7945,335.0774,1270.27,344.89,1269.4263" style="stroke:#000000;stroke-width:1;"/></g><!--SRC=[ZLPBRnen4Bxlht1pQYj5bQfUog5IIeeQYLGKQ79OSJ3U0QnuRMfxIL6L_zwnlG_lOaZtm6FypSmt3y_i6xk34iXUK2wpp78hWDo3vWMdaboJhvGzRRWGP0w_Ap2MB2orYA1inoLacV5_hqvWKxu1TcG2hWWrhPNfcFpDCe9F_dv5hg-_a1d8Wijj40PZjGYHf7uQoQWrZvyL50d08-NM_TeeJJGOLMa6nkDUOXyFLF22shwRI3WY8Aq-VcXac22gQGaMj4dZnpjWJyGSoxKIpdj9RHhuWCdT78atggdSGXgsT67kjJhm0ZHXIafWbX-uFPv6SoTdMcqnN1D54mdRQB1usbiDSgknBYxxIPq9M5VaBTbnOvNcZ0h7ccOjF7XlS8iGUyV0FOF34K47M17Zx2e9TS8kgtnVBcTOp51vgzgiP3srG6QE7rDUSWl5W8bxujD1KfwnSOZb9PgzhFMpKfOI-CC0YgW5q-11EuBjuLzI4TogPoaK7Lo1vebFtNLWW3s1ltrXBeDdLFkq8u-zaWPUfpAh4_rDQ-H_IgP_tYPqghO4dEX_5PRwI3PKY3MsuwiwpGZOK2u6-Hy4qSoOA0tPkVGuNBzq-QUFdz5PoDKgErVZWGEd63faxigzkkXm65eUVgITzi49jvCwW-JcWAcXQ_6g0PSWLFoXIADxcM-D7wjoBt0KTk2NuKnurBxlRx4h1tqJds1FLcl1ZPyoSC1kCFv-ypq8jrtEwzr9fd5jIN-vcAfaRp17T0R3n4NHjvJxxpbOpP51qSKKmvpQoLZAxvK64lwQrUbKRj8K3w9ErZR_c0fM2QTWghAa-dW9x4Y1jryPWXiLak0RNCHXi1etBDsyhMzAZo0E1CknyCSKqyJXY2nK2QtbmGLCAjH2Fvu8RVhobCh4suhSruBUJ74EAmsdcB4hbLjFVkeGnLYbTKIj1MAdUoPC2O7hD9MKCPKCH9zC9slvJ4HbTkwbe0qlYVvbG3Uh2mKi7E6ELp9stRo_k3xhlGNutVJsNJPuFN2utgxE_U4gXMk3p-_a8Q2omQvtiBXgkMkWHSLSuwnIu6IjSzyTmLrIgsFYx5y0nXaSHobRgYUGWNtdk1vCsPaUZ8zh0h6eSzL8Nx9_]--></g></svg>