<svg xmlns="http://www.w3.org/2000/svg" xmlns:xlink="http://www.w3.org/1999/xlink" contentStyleType="text/css" data-diagram-type="STATE" height="982px" preserveAspectRatio="none" style="width:871px;height:982px;background:#FFFFFF;" version="1.1" viewBox="0 0 871 982" width="871px" zoomAndPan="magnify"><title>Meridian - Provider Connection State Machine</title><defs/><g><text fill="#000000" font-family="Verdana" font-size="22" font-weight="bold" lengthAdjust="spacing" textLength="571.5059" x="142.4541" y="35.4209">Meridian - Provider Connection State Machine</text><path d="M24.5,58.6094 L845.9141,58.6094 A12.5,12.5 0 0 1 858.4141,71.1094 L858.4141,84.9063 L12,84.9063 L12,71.1094 A12.5,12.5 0 0 1 24.5,58.6094" fill="#FFFFFF" style="stroke:#FFFFFF;stroke-width:1;"/><path d="M12,84.9063 L858.4141,84.9063 L858.4141,956.4063 A12.5,12.5 0 0 1 845.9141,968.9063 L24.5,968.9063 A12.5,12.5 0 0 1 12,956.4063 L12,84.9063" fill="#FFFFFF" style="stroke:#FFFFFF;stroke-width:1;"/><rect fill="none" height="910.2969" rx="12.5" ry="12.5" style="stroke:#000000;stroke-width:1;" width="846.4141" x="12" y="58.6094"/><line style="stroke:#000000;stroke-width:1;" x1="12" x2="858.4141" y1="84.9063" y2="84.9063"/><text fill="#000000" font-family="Verdana" font-size="14" lengthAdjust="spacing" textLength="207.7236" x="331.3452" y="76.6045">Provider Connection Lifecycle</text><g id="ProviderLC.Disconnected"><rect fill="#FFFFFF" height="64.2344" rx="12.5" ry="12.5" style="stroke:#000000;stroke-width:1;" width="183.2949" x="154.5" y="152.9063"/><line style="stroke:#000000;stroke-width:1;" x1="154.5" x2="337.7949" y1="179.2031" y2="179.2031"/><text fill="#000000" font-family="Verdana" font-size="14" lengthAdjust="spacing" textLength="95.2725" x="198.5112" y="170.9014">Disconnected</text><text fill="#000000" font-family="Verdana" font-size="12" lengthAdjust="spacing" textLength="163.2949" x="159.5" y="195.3418">entry/ Log("Disconnected")</text><text fill="#000000" font-family="Verdana" font-size="12" lengthAdjust="spacing" textLength="144.1875" x="159.5" y="209.3105">entry/ Reset retry count</text></g><g id="ProviderLC.Connecting"><rect fill="#FFFFFF" height="92.1719" rx="12.5" ry="12.5" style="stroke:#000000;stroke-width:1;" width="210.8047" x="317.5" y="269.9063"/><line style="stroke:#000000;stroke-width:1;" x1="317.5" x2="528.3047" y1="296.2031" y2="296.2031"/><text fill="#000000" font-family="Verdana" font-size="14" lengthAdjust="spacing" textLength="79.5361" x="383.1343" y="287.9014">Connecting</text><text fill="#000000" font-family="Verdana" font-size="12" lengthAdjust="spacing" textLength="190.8047" x="322.5" y="312.3418">entry/ Start connection attempt</text><text fill="#000000" font-family="Verdana" font-size="12" lengthAdjust="spacing" textLength="155.3379" x="322.5" y="326.3105">entry/ Start timeout timer</text><text fill="#000000" font-family="Verdana" font-size="12" lengthAdjust="spacing" textLength="119.8945" x="322.5" y="340.2793">do/ Establish socket</text><text fill="#000000" font-family="Verdana" font-size="12" lengthAdjust="spacing" textLength="141.8672" x="322.5" y="354.248">do/ Send auth message</text></g><g id="ProviderLC.Connected"><rect fill="#FFFFFF" height="92.1719" rx="12.5" ry="12.5" style="stroke:#000000;stroke-width:1;" width="250.4082" x="51" y="414.9063"/><line style="stroke:#000000;stroke-width:1;" x1="51" x2="301.4082" y1="441.2031" y2="441.2031"/><text fill="#000000" font-family="Verdana" font-size="14" lengthAdjust="spacing" textLength="75.3867" x="138.5107" y="432.9014">Connected</text><text fill="#000000" font-family="Verdana" font-size="12" lengthAdjust="spacing" textLength="146.25" x="56" y="457.3418">entry/ Log("Connected")</text><text fill="#000000" font-family="Verdana" font-size="12" lengthAdjust="spacing" textLength="182.5195" x="56" y="471.3105">entry/ Start heartbeat monitor</text><text fill="#000000" font-family="Verdana" font-size="12" lengthAdjust="spacing" textLength="230.4082" x="56" y="485.2793">entry/ Emit ConnectionStatusChanged</text><text fill="#000000" font-family="Verdana" font-size="12" lengthAdjust="spacing" textLength="171.9961" x="56" y="499.248">do/ Process incoming events</text></g><g id="ProviderLC.Reconnecting"><rect fill="#FFFFFF" height="92.1719" rx="12.5" ry="12.5" style="stroke:#000000;stroke-width:1;" width="200.3574" x="350" y="559.9063"/><line style="stroke:#000000;stroke-width:1;" x1="350" x2="550.3574" y1="586.2031" y2="586.2031"/><text fill="#000000" font-family="Verdana" font-size="14" lengthAdjust="spacing" textLength="95.7988" x="402.2793" y="577.9014">Reconnecting</text><text fill="#000000" font-family="Verdana" font-size="12" lengthAdjust="spacing" textLength="171.5684" x="355" y="602.3418">entry/ Increment retry count</text><text fill="#000000" font-family="Verdana" font-size="12" lengthAdjust="spacing" textLength="180.3574" x="355" y="616.3105">entry/ Calculate backoff delay</text><text fill="#000000" font-family="Verdana" font-size="12" lengthAdjust="spacing" textLength="118.5117" x="355" y="630.2793">do/ Wait for backoff</text><text fill="#000000" font-family="Verdana" font-size="12" lengthAdjust="spacing" textLength="161.6426" x="355" y="644.248">exit/ Attempt reconnection</text></g><g id="ProviderLC.Failed"><rect fill="#FFFFFF" height="78.2031" rx="12.5" ry="12.5" style="stroke:#000000;stroke-width:1;" width="232.5254" x="308.5" y="704.9063"/><line style="stroke:#000000;stroke-width:1;" x1="308.5" x2="541.0254" y1="731.2031" y2="731.2031"/><text fill="#000000" font-family="Verdana" font-size="14" lengthAdjust="spacing" textLength="41.9111" x="403.8071" y="722.9014">Failed</text><text fill="#000000" font-family="Verdana" font-size="12" lengthAdjust="spacing" textLength="94.5703" x="313.5" y="747.3418">entry/ Log error</text><text fill="#000000" font-family="Verdana" font-size="12" lengthAdjust="spacing" textLength="212.5254" x="313.5" y="761.3105">entry/ Emit ConnectionFailed event</text><text fill="#000000" font-family="Verdana" font-size="12" lengthAdjust="spacing" textLength="180.4863" x="313.5" y="775.2793">entry/ Stop heartbeat monitor</text></g><g id="ProviderLC.Disposed"><rect fill="#FFFFFF" height="64.2344" rx="12.5" ry="12.5" style="stroke:#000000;stroke-width:1;" width="169.5078" x="65" y="835.9063"/><line style="stroke:#000000;stroke-width:1;" x1="65" x2="234.5078" y1="862.2031" y2="862.2031"/><text fill="#000000" font-family="Verdana" font-size="14" lengthAdjust="spacing" textLength="64.21" x="117.6489" y="853.9014">Disposed</text><text fill="#000000" font-family="Verdana" font-size="12" lengthAdjust="spacing" textLength="149.5078" x="70" y="878.3418">entry/ Release resources</text><text fill="#000000" font-family="Verdana" font-size="12" lengthAdjust="spacing" textLength="115.3184" x="70" y="892.3105">entry/ Close socket</text></g><ellipse cx="246" cy="105.9063" fill="#FFFFFF" rx="10" ry="10" style="stroke:#000000;stroke-width:1;"/><ellipse cx="150" cy="947.9063" fill="none" rx="11" ry="11" style="stroke:#000000;stroke-width:1;"/><ellipse cx="150" cy="947.9063" fill="#FFFFFF" rx="6" ry="6" style="stroke:#000000;stroke-width:1;"/><!--link *start*ProviderLC to Disconnected--><g class="link" data-entity-1="*start*ProviderLC" data-entity-2="Disconnected" data-source-line="7" data-uid="lnk3" id="link_*start*ProviderLC_Disconnected"><path d="M246,116.0462 C246,125.1263 246,133.5762 246,146.8162" fill="none" id="*start*ProviderLC-to-Disconnected" style="stroke:#000000;stroke-width:1;"/><polygon fill="#000000" points="246,152.8162,250,143.8162,246,147.8162,242,143.8162,246,152.8162" style="stroke:#000000;stroke-width:1;"/></g><!--link Disconnected to Connecting--><g class="link" data-entity-1="Disconnected" data-entity-2="Connecting" data-source-line="46" data-uid="lnk4" id="link_Disconnected_Connecting"><path d="M288.85,217.1363 C310.54,232.9462 332.4215,248.8919 356.2915,266.2919" fill="none" id="Disconnected-to-Connecting" style="stroke:#000000;stroke-width:1;"/><polygon fill="#000000" points="361.14,269.8262,356.2234,261.2924,357.0995,266.881,351.5109,267.7571,361.14,269.8262" style="stroke:#000000;stroke-width:1;"/><text fill="#000000" font-family="Verdana" font-size="13" lengthAdjust="spacing" textLength="102.6416" x="335" y="247.9731">ConnectAsync()</text></g><!--link Connecting to Connected--><g class="link" data-entity-1="Connecting" data-entity-2="Connected" data-source-line="47" data-uid="lnk5" id="link_Connecting_Connected"><path d="M317.29,357.5563 C312.48,359.0862 307.7,360.5463 303,361.9063 C265.07,372.8663 247.3,355.8362 216,379.9063 C204.55,388.7062 198.6847,396.2426 192.6247,409.1826" fill="none" id="Connecting-to-Connected" style="stroke:#000000;stroke-width:1;"/><polygon fill="#000000" points="190.08,414.6163,197.5194,408.1622,192.2006,410.0882,190.2746,404.7693,190.08,414.6163" style="stroke:#000000;stroke-width:1;"/><text fill="#000000" font-family="Verdana" font-size="13" lengthAdjust="spacing" textLength="97.0747" x="217" y="392.9731">[Auth Success]</text></g><!--link Connecting to Failed--><g class="link" data-entity-1="Connecting" data-entity-2="Failed" data-source-line="48" data-uid="lnk6" id="link_Connecting_Failed"><path d="M392.68,362.0263 C367.34,402.6463 333.15,464.9863 319,524.9063 C309.59,564.7763 309.71,590.5163 341,651.9063 C350.86,671.2563 361.8161,685.2153 376.5461,700.2153" fill="none" id="Connecting-to-Failed" style="stroke:#000000;stroke-width:1;"/><polygon fill="#000000" points="380.75,704.4963,377.2981,695.2721,377.2467,700.9288,371.5901,700.8774,380.75,704.4963" style="stroke:#000000;stroke-width:1;"/><text fill="#000000" font-family="Verdana" font-size="13" lengthAdjust="spacing" textLength="149.811" x="320" y="537.9731">[Auth Failed / Timeout]</text></g><!--link Connected to Reconnecting--><g class="link" data-entity-1="Connected" data-entity-2="Reconnecting" data-source-line="50" data-uid="lnk7" id="link_Connected_Reconnecting"><path d="M171.29,507.2663 C172.28,519.7563 175.73,532.4563 184,541.9063 C205.96,566.9962 278.0054,582.6327 343.8954,592.4427" fill="none" id="Connected-to-Reconnecting" style="stroke:#000000;stroke-width:1;"/><polygon fill="#000000" points="349.83,593.3263,341.5172,588.0445,344.8845,592.5899,340.3391,595.9573,349.83,593.3263" style="stroke:#000000;stroke-width:1;"/><text fill="#000000" font-family="Verdana" font-size="13" lengthAdjust="spacing" textLength="114.8989" x="185" y="537.9731">[Connection Lost]</text></g><!--link Connected to Disconnected--><g class="link" data-entity-1="Connected" data-entity-2="Disconnected" data-source-line="51" data-uid="lnk8" id="link_Connected_Disconnected"><path d="M171.4,414.7763 C169.01,375.3963 169.43,317.2963 186,269.9063 C192.74,250.6163 201.6265,236.5372 213.5665,221.6472" fill="none" id="Connected-to-Disconnected" style="stroke:#000000;stroke-width:1;"/><polygon fill="#000000" points="217.32,216.9662,208.5691,221.4853,214.1921,220.867,214.8103,226.49,217.32,216.9662" style="stroke:#000000;stroke-width:1;"/><text fill="#000000" font-family="Verdana" font-size="13" lengthAdjust="spacing" textLength="121.1069" x="187" y="320.4731">DisconnectAsync()</text></g><!--link Reconnecting to Connecting--><g class="link" data-entity-1="Reconnecting" data-entity-2="Connecting" data-source-line="53" data-uid="lnk9" id="link_Reconnecting_Connecting"><path d="M474.58,559.8263 C477.9,548.2563 478.76,535.9663 474,524.9063 C469.4,514.2163 460.47,517.1763 455,506.9063 C430.85,461.5963 424.3822,408.3021 422.8922,368.0921" fill="none" id="Reconnecting-to-Connecting" style="stroke:#000000;stroke-width:1;"/><polygon fill="#000000" points="422.67,362.0963,419.006,371.2382,422.8552,367.0928,427.0005,370.942,422.67,362.0963" style="stroke:#000000;stroke-width:1;"/><text fill="#000000" font-family="Verdana" font-size="13" lengthAdjust="spacing" textLength="125.5947" x="456" y="465.4731">[Backoff Complete]</text></g><!--link Reconnecting to Failed--><g class="link" data-entity-1="Reconnecting" data-entity-2="Failed" data-source-line="54" data-uid="lnk10" id="link_Reconnecting_Failed"><path d="M430.63,652.1263 C428.75,658.0163 427.12,664.0463 426,669.9063 C423.86,681.1063 423.1477,687.4564 423.0577,698.7664" fill="none" id="Reconnecting-to-Failed" style="stroke:#000000;stroke-width:1;"/><polygon fill="#000000" points="423.01,704.7663,427.0815,695.7984,423.0498,699.7664,419.0817,695.7347,423.01,704.7663" style="stroke:#000000;stroke-width:1;"/><text fill="#000000" font-family="Verdana" font-size="13" lengthAdjust="spacing" textLength="154.6924" x="427" y="682.9731">[Max Retries Exceeded]</text></g><!--link Failed to Connecting--><g class="link" data-entity-1="Failed" data-entity-2="Connecting" data-source-line="56" data-uid="lnk11" id="link_Failed_Connecting"><path d="M541.8,720.0463 C557.59,712.0663 571.83,701.3363 582,686.9063 C599.41,662.2063 596.73,441.2963 582,414.9063 C569.67,392.8262 555.1043,378.3912 533.8443,364.4212" fill="none" id="Failed-to-Connecting" style="stroke:#000000;stroke-width:1;"/><polygon fill="#000000" points="528.83,361.1263,534.1549,369.4115,533.0086,363.872,538.5481,362.7258,528.83,361.1263" style="stroke:#000000;stroke-width:1;"/><text fill="#000000" font-family="Verdana" font-size="13" lengthAdjust="spacing" textLength="136.8491" x="594" y="537.9731">[Auto-Retry Enabled]</text></g><!--link Failed to Disconnected--><g class="link" data-entity-1="Failed" data-entity-2="Disconnected" data-source-line="57" data-uid="lnk12" id="link_Failed_Disconnected"><path d="M541.51,739.7663 C634.4,730.2963 749,699.7863 749,606.9063 C749,314.9063 749,314.9063 749,314.9063 C749,230.9562 488.7453,201.2954 343.6553,191.1354" fill="none" id="Failed-to-Disconnected" style="stroke:#000000;stroke-width:1;"/><polygon fill="#000000" points="337.67,190.7162,346.3686,195.3352,342.6578,191.0655,346.9274,187.3547,337.67,190.7162" style="stroke:#000000;stroke-width:1;"/><text fill="#000000" font-family="Verdana" font-size="13" lengthAdjust="spacing" textLength="98.4141" x="750" y="465.4731">[Manual Reset]</text></g><!--link Disconnected to Disposed--><g class="link" data-entity-1="Disconnected" data-entity-2="Disposed" data-source-line="59" data-uid="lnk13" id="link_Disconnected_Disposed"><path d="M154.33,201.6463 C92.83,218.0762 23,250.8362 23,314.9063 C23,314.9063 23,314.9063 23,744.9063 C23,784.3463 50.2141,811.7545 82.2041,832.4745" fill="none" id="Disconnected-to-Disposed" style="stroke:#000000;stroke-width:1;"/><polygon fill="#000000" points="87.24,835.7363,81.8606,827.4863,83.0434,833.0181,77.5116,834.2009,87.24,835.7363" style="stroke:#000000;stroke-width:1;"/><text fill="#000000" font-family="Verdana" font-size="13" lengthAdjust="spacing" textLength="100.2612" x="24" y="537.9731">DisposeAsync()</text></g><!--link Failed to Disposed--><g class="link" data-entity-1="Failed" data-entity-2="Disposed" data-source-line="60" data-uid="lnk14" id="link_Failed_Disposed"><path d="M339.12,783.0063 C300.82,799.9963 261.7644,817.3228 225.5244,833.4028" fill="none" id="Failed-to-Disposed" style="stroke:#000000;stroke-width:1;"/><polygon fill="#000000" points="220.04,835.8363,229.8889,835.8423,224.6103,833.8084,226.6442,828.5298,220.04,835.8363" style="stroke:#000000;stroke-width:1;"/><text fill="#000000" font-family="Verdana" font-size="13" lengthAdjust="spacing" textLength="100.2612" x="296" y="813.9731">DisposeAsync()</text></g><!--link Connected to Disposed--><g class="link" data-entity-1="Connected" data-entity-2="Disposed" data-source-line="61" data-uid="lnk15" id="link_Connected_Disposed"><path d="M172.32,506.9763 C171.86,513.0063 171.41,519.1063 171,524.9063 C162.94,639.4363 155.4358,769.6657 152.0658,829.7857" fill="none" id="Connected-to-Disposed" style="stroke:#000000;stroke-width:1;"/><polygon fill="#000000" points="151.73,835.7763,156.2274,827.0142,152.0098,830.7841,148.24,826.5665,151.73,835.7763" style="stroke:#000000;stroke-width:1;"/><text fill="#000000" font-family="Verdana" font-size="13" lengthAdjust="spacing" textLength="100.2612" x="163" y="682.9731">DisposeAsync()</text></g><!--link Disposed to *end*ProviderLC--><g class="link" data-entity-1="Disposed" data-entity-2="*end*ProviderLC" data-source-line="63" data-uid="lnk17" id="link_Disposed_*end*ProviderLC"><path d="M150,900.1863 C150,913.2363 150,921.4963 150,930.7863" fill="none" id="Disposed-to-*end*ProviderLC" style="stroke:#000000;stroke-width:1;"/><polygon fill="#000000" points="150,936.7863,154,927.7863,150,931.7863,146,927.7863,150,936.7863" style="stroke:#000000;stroke-width:1;"/></g><!--SRC=[ZLLDZzem4BtxLqmvRIiXxdkeH5CgLMAb5LJg0ULWd85OwzZ8dgn05V-zDWxWVB6RGuBjzpn-Cs_C5ognGZWeBZLZ94aXlA2LXUGQfl1gpRiiq49cj4P1qcXO4oSFugAK6Xbpb-5a2BcKEnGdeN02tDtsMcRmZp7mp-PR3jFfT_WfdOWiBE9At3ITznnedjRqCw0cUvh1qkoV9kdIvEi7Z1Kw9B3e1o1ChUc2FwSdk8hH-oH-CddRooV54eYxTaw4rO4-GI9PeQdZrmxZ2pE3XJ_HLabNWZFY3MaSkKPT0A-fX0gTutiSrTLAQpQIqsmWeGFOAAP4_zuY9wYCbcJi8ygYafJu9HYhTbd9zTxxO8WNr7aR2IyBf1Qc2gBntM_d-XfNA8Qgrvg-7UMt5jOtWkxxOPoJSILg5K9jkNWpknqKgFXfZ1KE_vTxnJjZhupH24T9CvX73_aZtOtLr_cBIzKgP3EHLX7GsgGMNKId4Cto9R6Zd3MPmqYvpvqcFXZNRU0ubRIYGkxGAtMcjhw-3x2PykEq2PfmhIOFrqghCPh1t9sqU8f6JjOJ-2NKPXxQPrsBOBLy27rBHuGsmndyYTsSCzOsR-1qYhn9hqhZA1-WT6wk-_0gXFNSqvE- -T7OCpFLGI5XFaowIthXHxzCLgA3nL4W5bWqYXfGFuXFWvckBispqFwc2emEeIF6Xz4rL_4UpaUAcDI_-PcMiBtv0s3soKrPotC1w_-as9dz1m00]--></g></svg>