<svg xmlns="http://www.w3.org/2000/svg" xmlns:xlink="http://www.w3.org/1999/xlink" contentStyleType="text/css" data-diagram-type="TIMING" height="598px" preserveAspectRatio="none" style="width:743px;height:598px;background:#FFFFFF;" version="1.1" viewBox="0 0 743 598" width="743px" zoomAndPan="magnify"><title>Meridian - Backfill Operation Timing Diagram</title><defs/><g><text fill="#000000" font-family="Verdana" font-size="22" font-weight="bold" lengthAdjust="spacing" textLength="561.2471" x="78.8765" y="35.4209">Meridian - Backfill Operation Timing Diagram</text><line style="stroke:#000000;stroke-width:1;" x1="5" x2="5" y1="51.6094" y2="574.1563"/><line style="stroke:#000000;stroke-width:1;" x1="715" x2="715" y1="51.6094" y2="574.1563"/><rect fill="#ADD8E6" height="522.5469" style="stroke:none;stroke-width:1;" width="125" x="60" y="51.6094"/><rect fill="#F08080" height="522.5469" style="stroke:none;stroke-width:1;" width="245" x="215" y="51.6094"/><rect fill="#FFFFE0" height="522.5469" style="stroke:none;stroke-width:1;" width="100" x="460" y="51.6094"/><rect fill="#90EE90" height="522.5469" style="stroke:none;stroke-width:1;" width="50" x="610" y="51.6094"/><line style="stroke:#000000;stroke-width:0.5;stroke-dasharray:3.0,5.0;" x1="10" x2="10" y1="51.6094" y2="574.1563"/><line style="stroke:#000000;stroke-width:0.5;stroke-dasharray:3.0,5.0;" x1="60" x2="60" y1="51.6094" y2="574.1563"/><line style="stroke:#000000;stroke-width:0.5;stroke-dasharray:3.0,5.0;" x1="110" x2="110" y1="51.6094" y2="574.1563"/><line style="stroke:#000000;stroke-width:0.5;stroke-dasharray:3.0,5.0;" x1="160" x2="160" y1="51.6094" y2="574.1563"/><line style="stroke:#000000;stroke-width:0.5;stroke-dasharray:3.0,5.0;" x1="210" x2="210" y1="51.6094" y2="574.1563"/><line style="stroke:#000000;stroke-width:0.5;stroke-dasharray:3.0,5.0;" x1="260" x2="260" y1="51.6094" y2="574.1563"/><line style="stroke:#000000;stroke-width:0.5;stroke-dasharray:3.0,5.0;" x1="310" x2="310" y1="51.6094" y2="574.1563"/><line style="stroke:#000000;stroke-width:0.5;stroke-dasharray:3.0,5.0;" x1="360" x2="360" y1="51.6094" y2="574.1563"/><line style="stroke:#000000;stroke-width:0.5;stroke-dasharray:3.0,5.0;" x1="410" x2="410" y1="51.6094" y2="574.1563"/><line style="stroke:#000000;stroke-width:0.5;stroke-dasharray:3.0,5.0;" x1="460" x2="460" y1="51.6094" y2="574.1563"/><line style="stroke:#000000;stroke-width:0.5;stroke-dasharray:3.0,5.0;" x1="510" x2="510" y1="51.6094" y2="574.1563"/><line style="stroke:#000000;stroke-width:0.5;stroke-dasharray:3.0,5.0;" x1="560" x2="560" y1="51.6094" y2="574.1563"/><line style="stroke:#000000;stroke-width:0.5;stroke-dasharray:3.0,5.0;" x1="610" x2="610" y1="51.6094" y2="574.1563"/><line style="stroke:#000000;stroke-width:0.5;stroke-dasharray:3.0,5.0;" x1="660" x2="660" y1="51.6094" y2="574.1563"/><line style="stroke:#000000;stroke-width:0.5;stroke-dasharray:3.0,5.0;" x1="710" x2="710" y1="51.6094" y2="574.1563"/><line style="stroke:#000000;stroke-width:1;" x1="5" x2="715" y1="51.6094" y2="51.6094"/><text fill="#000000" font-family="Verdana" font-size="14" font-weight="bold" lengthAdjust="spacing" textLength="121.29" x="10" y="64.6045">Backfill Service</text><line style="stroke:#000000;stroke-width:1;" x1="5" x2="132.29" y1="68.9063" y2="68.9063"/><line style="stroke:#000000;stroke-width:1;" x1="132.29" x2="142.29" y1="68.9063" y2="51.6094"/><polygon fill="#FFFFFF" points="22,123.0078,48,123.0078,60,135.0078,48,147.0078,22,147.0078,10,135.0078" style="stroke:#000000;stroke-width:1;"/><polygon fill="#FFFFFF" points="72,123.0078,138,123.0078,150,135.0078,138,147.0078,72,147.0078,60,135.0078" style="stroke:#000000;stroke-width:1;"/><polygon fill="#FFFFFF" points="162,123.0078,173,123.0078,185,135.0078,173,147.0078,162,147.0078,150,135.0078" style="stroke:#000000;stroke-width:1;"/><polygon fill="#FFFFFF" points="197,123.0078,548,123.0078,560,135.0078,548,147.0078,197,147.0078,185,135.0078" style="stroke:#000000;stroke-width:1;"/><polygon fill="#FFFFFF" points="572,123.0078,598,123.0078,610,135.0078,598,147.0078,572,147.0078,560,135.0078" style="stroke:#000000;stroke-width:1;"/><polygon fill="#FFFFFF" points="622,123.0078,648,123.0078,660,135.0078,648,147.0078,622,147.0078,610,135.0078" style="stroke:#000000;stroke-width:1;"/><polygon fill="#FFFFFF" points="672,123.0078,710,123.0078,710,147.0078,672,147.0078,660,135.0078" style="stroke:#FFFFFF;stroke-width:1;"/><path d="M710,123.0078 L672,123.0078 L660,135.0078 L672,147.0078 L710,147.0078" fill="#FFFFFF" style="stroke:#000000;stroke-width:1;"/><text fill="#000000" font-family="Verdana" font-size="12" font-weight="bold" lengthAdjust="spacing" textLength="71.5254" x="-0.7627" y="139.1621">Initializing</text><text fill="#000000" font-family="Verdana" font-size="12" font-weight="bold" lengthAdjust="spacing" textLength="85.0195" x="62.4902" y="139.1621">Symbol: SPY</text><text fill="#000000" font-family="Verdana" font-size="12" font-weight="bold" lengthAdjust="spacing" textLength="101.3906" x="116.8047" y="139.1621">Publishing SPY</text><text fill="#000000" font-family="Verdana" font-size="12" font-weight="bold" lengthAdjust="spacing" textLength="93.9082" x="325.5459" y="139.1621">Symbol: AAPL</text><text fill="#000000" font-family="Verdana" font-size="12" font-weight="bold" lengthAdjust="spacing" textLength="110.2793" x="529.8604" y="139.1621">Publishing AAPL</text><text fill="#000000" font-family="Verdana" font-size="12" font-weight="bold" lengthAdjust="spacing" textLength="57.7852" x="606.1074" y="139.1621">Flushing</text><text fill="#000000" font-family="Verdana" font-size="12" font-weight="bold" lengthAdjust="spacing" textLength="64.2715" x="672" y="139.1621">Complete</text><path d="M60,87.875 L60,113.0078 L209.9526,113.0078 L209.9526,97.875 L199.9526,87.875 L60,87.875" fill="#FFFFFF" style="stroke:#000000;stroke-width:1;"/><path d="M199.9526,87.875 L199.9526,97.875 L209.9526,97.875 L199.9526,87.875" fill="#FFFFFF" style="stroke:#000000;stroke-width:1;"/><text fill="#000000" font-family="Verdana" font-size="13" font-weight="bold" lengthAdjust="spacing" textLength="128.9526" x="66" y="104.9419">Start first symbol</text><line style="stroke:#000000;stroke-width:1;" x1="5" x2="715" y1="157.0078" y2="157.0078"/><text fill="#000000" font-family="Verdana" font-size="14" font-weight="bold" lengthAdjust="spacing" textLength="97.4873" x="10" y="170.0029">Rate Limiter</text><line style="stroke:#000000;stroke-width:1;" x1="5" x2="108.4873" y1="174.3047" y2="174.3047"/><line style="stroke:#000000;stroke-width:1;" x1="108.4873" x2="118.4873" y1="174.3047" y2="157.0078"/><polygon fill="#FFFFFF" points="22,229.5703,98,229.5703,110,241.5703,98,253.5703,22,253.5703,10,241.5703" style="stroke:#000000;stroke-width:1;"/><polygon fill="#FFFFFF" points="122,229.5703,103,229.5703,115,241.5703,103,253.5703,122,253.5703,110,241.5703" style="stroke:#000000;stroke-width:1;"/><polygon fill="#FFFFFF" points="127,229.5703,198,229.5703,210,241.5703,198,253.5703,127,253.5703,115,241.5703" style="stroke:#000000;stroke-width:1;"/><polygon fill="#FFFFFF" points="222,229.5703,203,229.5703,215,241.5703,203,253.5703,222,253.5703,210,241.5703" style="stroke:#000000;stroke-width:1;"/><polygon fill="#FFFFFF" points="227,229.5703,448,229.5703,460,241.5703,448,253.5703,227,253.5703,215,241.5703" style="stroke:#000000;stroke-width:1;"/><polygon fill="#FFFFFF" points="472,229.5703,710,229.5703,710,253.5703,472,253.5703,460,241.5703" style="stroke:#FFFFFF;stroke-width:1;"/><path d="M710,229.5703 L472,229.5703 L460,241.5703 L472,253.5703 L710,253.5703" fill="#FFFFFF" style="stroke:#000000;stroke-width:1;"/><text fill="#000000" font-family="Verdana" font-size="12" font-weight="bold" lengthAdjust="spacing" textLength="41.8887" x="39.0557" y="245.7246">Ready</text><text fill="#000000" font-family="Verdana" font-size="12" font-weight="bold" lengthAdjust="spacing" textLength="61.8281" x="81.5859" y="245.7246">Checking</text><text fill="#000000" font-family="Verdana" font-size="12" font-weight="bold" lengthAdjust="spacing" textLength="41.8887" x="141.5557" y="245.7246">Ready</text><text fill="#000000" font-family="Verdana" font-size="12" font-weight="bold" lengthAdjust="spacing" textLength="61.8281" x="181.5859" y="245.7246">Checking</text><text fill="#000000" font-family="Verdana" font-size="12" font-weight="bold" lengthAdjust="spacing" textLength="86.2324" x="294.3838" y="245.7246">Rate Limited</text><text fill="#000000" font-family="Verdana" font-size="12" font-weight="bold" lengthAdjust="spacing" textLength="41.8887" x="472" y="245.7246">Ready</text><path d="M110,179.3047 L110,204.4375 L292.7764,204.4375 L292.7764,189.3047 L282.7764,179.3047 L110,179.3047" fill="#FFFFFF" style="stroke:#000000;stroke-width:1;"/><path d="M282.7764,179.3047 L282.7764,189.3047 L292.7764,189.3047 L282.7764,179.3047" fill="#FFFFFF" style="stroke:#000000;stroke-width:1;"/><text fill="#000000" font-family="Verdana" font-size="13" font-weight="bold" lengthAdjust="spacing" textLength="161.7764" x="116" y="196.3716">Check quota available</text><path d="M215,179.3047 L215,219.5703 L360.6489,219.5703 L360.6489,189.3047 L350.6489,179.3047 L215,179.3047" fill="#FFFFFF" style="stroke:#000000;stroke-width:1;"/><path d="M350.6489,179.3047 L350.6489,189.3047 L360.6489,189.3047 L350.6489,179.3047" fill="#FFFFFF" style="stroke:#000000;stroke-width:1;"/><text fill="#000000" font-family="Verdana" font-size="13" font-weight="bold" lengthAdjust="spacing" textLength="124.6489" x="221" y="196.3716">Quota exceeded!</text><text fill="#000000" font-family="Verdana" font-size="13" font-weight="bold" lengthAdjust="spacing" textLength="111.3696" x="221" y="211.5044">Wait 5 seconds</text><line style="stroke:#000000;stroke-width:1;" x1="5" x2="715" y1="263.5703" y2="263.5703"/><text fill="#000000" font-family="Verdana" font-size="14" font-weight="bold" lengthAdjust="spacing" textLength="130.833" x="10" y="276.5654">Provider (Stooq)</text><line style="stroke:#000000;stroke-width:1;" x1="5" x2="141.833" y1="280.8672" y2="280.8672"/><line style="stroke:#000000;stroke-width:1;" x1="141.833" x2="151.833" y1="280.8672" y2="263.5703"/><polygon fill="#FFFFFF" points="22,336.1328,103,336.1328,115,348.1328,103,360.1328,22,360.1328,10,348.1328" style="stroke:#000000;stroke-width:1;"/><polygon fill="#FFFFFF" points="127,336.1328,128,336.1328,140,348.1328,128,360.1328,127,360.1328,115,348.1328" style="stroke:#000000;stroke-width:1;"/><polygon fill="#FFFFFF" points="152,336.1328,138,336.1328,150,348.1328,138,360.1328,152,360.1328,140,348.1328" style="stroke:#000000;stroke-width:1;"/><polygon fill="#FFFFFF" points="162,336.1328,448,336.1328,460,348.1328,448,360.1328,162,360.1328,150,348.1328" style="stroke:#000000;stroke-width:1;"/><polygon fill="#FFFFFF" points="472,336.1328,473,336.1328,485,348.1328,473,360.1328,472,360.1328,460,348.1328" style="stroke:#000000;stroke-width:1;"/><polygon fill="#FFFFFF" points="497,336.1328,710,336.1328,710,360.1328,497,360.1328,485,348.1328" style="stroke:#FFFFFF;stroke-width:1;"/><path d="M710,336.1328 L497,336.1328 L485,348.1328 L497,360.1328 L710,360.1328" fill="#FFFFFF" style="stroke:#000000;stroke-width:1;"/><text fill="#000000" font-family="Verdana" font-size="12" font-weight="bold" lengthAdjust="spacing" textLength="25.3066" x="49.8467" y="352.2871">Idle</text><text fill="#000000" font-family="Verdana" font-size="12" font-weight="bold" lengthAdjust="spacing" textLength="94.916" x="80.042" y="352.2871">HTTP Request</text><text fill="#000000" font-family="Verdana" font-size="12" font-weight="bold" lengthAdjust="spacing" textLength="51.1992" x="119.4004" y="352.2871">Parsing</text><text fill="#000000" font-family="Verdana" font-size="12" font-weight="bold" lengthAdjust="spacing" textLength="25.3066" x="292.3467" y="352.2871">Idle</text><text fill="#000000" font-family="Verdana" font-size="12" font-weight="bold" lengthAdjust="spacing" textLength="94.916" x="425.042" y="352.2871">HTTP Request</text><text fill="#000000" font-family="Verdana" font-size="12" font-weight="bold" lengthAdjust="spacing" textLength="34.1953" x="497" y="352.2871">Error</text><path d="M115,285.8672 L115,326.1328 L318.3428,326.1328 L318.3428,295.8672 L308.3428,285.8672 L115,285.8672" fill="#FFFFFF" style="stroke:#000000;stroke-width:1;"/><path d="M308.3428,285.8672 L308.3428,295.8672 L318.3428,295.8672 L308.3428,285.8672" fill="#FFFFFF" style="stroke:#000000;stroke-width:1;"/><text fill="#000000" font-family="Verdana" font-size="13" font-weight="bold" lengthAdjust="spacing" textLength="148.624" x="121" y="302.9341">GET /q/d/l/?s=spy.us</text><text fill="#000000" font-family="Verdana" font-size="13" font-weight="bold" lengthAdjust="spacing" textLength="182.3428" x="121" y="318.0669">~500ms network latency</text><path d="M140,285.8672 L140,311 L307.2944,311 L307.2944,295.8672 L297.2944,285.8672 L140,285.8672" fill="#FFFFFF" style="stroke:#000000;stroke-width:1;"/><path d="M297.2944,285.8672 L297.2944,295.8672 L307.2944,295.8672 L297.2944,285.8672" fill="#FFFFFF" style="stroke:#000000;stroke-width:1;"/><text fill="#000000" font-family="Verdana" font-size="13" font-weight="bold" lengthAdjust="spacing" textLength="146.2944" x="146" y="302.9341">Parse CSV response</text><path d="M485,285.8672 L485,326.1328 L644.8867,326.1328 L644.8867,295.8672 L634.8867,285.8672 L485,285.8672" fill="#FFFFFF" style="stroke:#000000;stroke-width:1;"/><path d="M634.8867,285.8672 L634.8867,295.8672 L644.8867,295.8672 L634.8867,285.8672" fill="#FFFFFF" style="stroke:#000000;stroke-width:1;"/><text fill="#000000" font-family="Verdana" font-size="13" font-weight="bold" lengthAdjust="spacing" textLength="121.5259" x="491" y="302.9341">500 Server Error</text><text fill="#000000" font-family="Verdana" font-size="13" font-weight="bold" lengthAdjust="spacing" textLength="138.8867" x="491" y="318.0669">Triggering fallback</text><line style="stroke:#000000;stroke-width:1;" x1="5" x2="715" y1="370.1328" y2="370.1328"/><text fill="#000000" font-family="Verdana" font-size="14" font-weight="bold" lengthAdjust="spacing" textLength="133.5879" x="10" y="383.1279">Provider (Yahoo)</text><line style="stroke:#000000;stroke-width:1;" x1="5" x2="144.5879" y1="387.4297" y2="387.4297"/><line style="stroke:#000000;stroke-width:1;" x1="144.5879" x2="154.5879" y1="387.4297" y2="370.1328"/><polygon fill="#FFFFFF" points="22,427.5625,498,427.5625,510,439.5625,498,451.5625,22,451.5625,10,439.5625" style="stroke:#000000;stroke-width:1;"/><polygon fill="#FFFFFF" points="522,427.5625,538,427.5625,550,439.5625,538,451.5625,522,451.5625,510,439.5625" style="stroke:#000000;stroke-width:1;"/><polygon fill="#FFFFFF" points="562,427.5625,548,427.5625,560,439.5625,548,451.5625,562,451.5625,550,439.5625" style="stroke:#000000;stroke-width:1;"/><polygon fill="#FFFFFF" points="572,427.5625,710,427.5625,710,451.5625,572,451.5625,560,439.5625" style="stroke:#FFFFFF;stroke-width:1;"/><path d="M710,427.5625 L572,427.5625 L560,439.5625 L572,451.5625 L710,451.5625" fill="#FFFFFF" style="stroke:#000000;stroke-width:1;"/><text fill="#000000" font-family="Verdana" font-size="12" font-weight="bold" lengthAdjust="spacing" textLength="25.3066" x="247.3467" y="443.7168">Idle</text><text fill="#000000" font-family="Verdana" font-size="12" font-weight="bold" lengthAdjust="spacing" textLength="94.916" x="482.542" y="443.7168">HTTP Request</text><text fill="#000000" font-family="Verdana" font-size="12" font-weight="bold" lengthAdjust="spacing" textLength="51.1992" x="529.4004" y="443.7168">Parsing</text><text fill="#000000" font-family="Verdana" font-size="12" font-weight="bold" lengthAdjust="spacing" textLength="25.3066" x="572" y="443.7168">Idle</text><path d="M510,392.4297 L510,417.5625 L723.1626,417.5625 L723.1626,402.4297 L713.1626,392.4297 L510,392.4297" fill="#FFFFFF" style="stroke:#000000;stroke-width:1;"/><path d="M713.1626,392.4297 L713.1626,402.4297 L723.1626,402.4297 L713.1626,392.4297" fill="#FFFFFF" style="stroke:#000000;stroke-width:1;"/><text fill="#000000" font-family="Verdana" font-size="13" font-weight="bold" lengthAdjust="spacing" textLength="192.1626" x="516" y="409.4966">Fallback to Yahoo Finance</text><line style="stroke:#000000;stroke-width:1;" x1="5" x2="715" y1="461.5625" y2="461.5625"/><text fill="#000000" font-family="Verdana" font-size="14" font-weight="bold" lengthAdjust="spacing" textLength="113.3535" x="10" y="474.5576">Event Pipeline</text><line style="stroke:#000000;stroke-width:1;" x1="5" x2="124.3535" y1="478.8594" y2="478.8594"/><line style="stroke:#000000;stroke-width:1;" x1="124.3535" x2="134.3535" y1="478.8594" y2="461.5625"/><polygon fill="#FFFFFF" points="22,483.8594,138,483.8594,150,495.8594,138,507.8594,22,507.8594,10,495.8594" style="stroke:#000000;stroke-width:1;"/><polygon fill="#FFFFFF" points="162,483.8594,173,483.8594,185,495.8594,173,507.8594,162,507.8594,150,495.8594" style="stroke:#000000;stroke-width:1;"/><polygon fill="#FFFFFF" points="197,483.8594,548,483.8594,560,495.8594,548,507.8594,197,507.8594,185,495.8594" style="stroke:#000000;stroke-width:1;"/><polygon fill="#FFFFFF" points="572,483.8594,598,483.8594,610,495.8594,598,507.8594,572,507.8594,560,495.8594" style="stroke:#000000;stroke-width:1;"/><polygon fill="#FFFFFF" points="622,483.8594,648,483.8594,660,495.8594,648,507.8594,622,507.8594,610,495.8594" style="stroke:#000000;stroke-width:1;"/><polygon fill="#FFFFFF" points="672,483.8594,710,483.8594,710,507.8594,672,507.8594,660,495.8594" style="stroke:#FFFFFF;stroke-width:1;"/><path d="M710,483.8594 L672,483.8594 L660,495.8594 L672,507.8594 L710,507.8594" fill="#FFFFFF" style="stroke:#000000;stroke-width:1;"/><text fill="#000000" font-family="Verdana" font-size="12" font-weight="bold" lengthAdjust="spacing" textLength="41.8887" x="59.0557" y="500.0137">Ready</text><text fill="#000000" font-family="Verdana" font-size="12" font-weight="bold" lengthAdjust="spacing" textLength="56.6719" x="139.1641" y="500.0137">Queuing</text><text fill="#000000" font-family="Verdana" font-size="12" font-weight="bold" lengthAdjust="spacing" textLength="41.8887" x="351.5557" y="500.0137">Ready</text><text fill="#000000" font-family="Verdana" font-size="12" font-weight="bold" lengthAdjust="spacing" textLength="56.6719" x="556.6641" y="500.0137">Queuing</text><text fill="#000000" font-family="Verdana" font-size="12" font-weight="bold" lengthAdjust="spacing" textLength="57.7852" x="606.1074" y="500.0137">Flushing</text><text fill="#000000" font-family="Verdana" font-size="12" font-weight="bold" lengthAdjust="spacing" textLength="41.8887" x="672" y="500.0137">Ready</text><line style="stroke:#000000;stroke-width:1;" x1="5" x2="715" y1="517.8594" y2="517.8594"/><text fill="#000000" font-family="Verdana" font-size="14" font-weight="bold" lengthAdjust="spacing" textLength="62.2617" x="10" y="530.8545">Storage</text><line style="stroke:#000000;stroke-width:1;" x1="5" x2="73.2617" y1="535.1563" y2="535.1563"/><line style="stroke:#000000;stroke-width:1;" x1="73.2617" x2="83.2617" y1="535.1563" y2="517.8594"/><polygon fill="#FFFFFF" points="22,540.1563,598,540.1563,610,552.1563,598,564.1563,22,564.1563,10,552.1563" style="stroke:#000000;stroke-width:1;"/><polygon fill="#FFFFFF" points="622,540.1563,623,540.1563,635,552.1563,623,564.1563,622,564.1563,610,552.1563" style="stroke:#000000;stroke-width:1;"/><polygon fill="#FFFFFF" points="647,540.1563,648,540.1563,660,552.1563,648,564.1563,647,564.1563,635,552.1563" style="stroke:#000000;stroke-width:1;"/><polygon fill="#FFFFFF" points="672,540.1563,710,540.1563,710,564.1563,672,564.1563,660,552.1563" style="stroke:#FFFFFF;stroke-width:1;"/><path d="M710,540.1563 L672,540.1563 L660,552.1563 L672,564.1563 L710,564.1563" fill="#FFFFFF" style="stroke:#000000;stroke-width:1;"/><text fill="#000000" font-family="Verdana" font-size="12" font-weight="bold" lengthAdjust="spacing" textLength="25.3066" x="297.3467" y="556.3105">Idle</text><text fill="#000000" font-family="Verdana" font-size="12" font-weight="bold" lengthAdjust="spacing" textLength="50.25" x="597.375" y="556.3105">Writing</text><text fill="#000000" font-family="Verdana" font-size="12" font-weight="bold" lengthAdjust="spacing" textLength="57.7852" x="618.6074" y="556.3105">Flushing</text><text fill="#000000" font-family="Verdana" font-size="12" font-weight="bold" lengthAdjust="spacing" textLength="25.3066" x="672" y="556.3105">Idle</text><line style="stroke:#000000;stroke-width:1;" x1="10" x2="10" y1="574.1563" y2="579.1563"/><line style="stroke:#000000;stroke-width:1;" x1="60" x2="60" y1="574.1563" y2="579.1563"/><line style="stroke:#000000;stroke-width:1;" x1="110" x2="110" y1="574.1563" y2="579.1563"/><line style="stroke:#000000;stroke-width:1;" x1="160" x2="160" y1="574.1563" y2="579.1563"/><line style="stroke:#000000;stroke-width:1;" x1="210" x2="210" y1="574.1563" y2="579.1563"/><line style="stroke:#000000;stroke-width:1;" x1="260" x2="260" y1="574.1563" y2="579.1563"/><line style="stroke:#000000;stroke-width:1;" x1="310" x2="310" y1="574.1563" y2="579.1563"/><line style="stroke:#000000;stroke-width:1;" x1="360" x2="360" y1="574.1563" y2="579.1563"/><line style="stroke:#000000;stroke-width:1;" x1="410" x2="410" y1="574.1563" y2="579.1563"/><line style="stroke:#000000;stroke-width:1;" x1="460" x2="460" y1="574.1563" y2="579.1563"/><line style="stroke:#000000;stroke-width:1;" x1="510" x2="510" y1="574.1563" y2="579.1563"/><line style="stroke:#000000;stroke-width:1;" x1="560" x2="560" y1="574.1563" y2="579.1563"/><line style="stroke:#000000;stroke-width:1;" x1="610" x2="610" y1="574.1563" y2="579.1563"/><line style="stroke:#000000;stroke-width:1;" x1="660" x2="660" y1="574.1563" y2="579.1563"/><line style="stroke:#000000;stroke-width:1;" x1="710" x2="710" y1="574.1563" y2="579.1563"/><line style="stroke:#000000;stroke-width:1;" x1="10" x2="710" y1="574.1563" y2="574.1563"/><text fill="#000000" font-family="Verdana" font-size="11" lengthAdjust="spacing" textLength="6.9985" x="6.5007" y="590.3667">0</text><text fill="#000000" font-family="Verdana" font-size="11" lengthAdjust="spacing" textLength="6.9985" x="56.5007" y="590.3667">1</text><text fill="#000000" font-family="Verdana" font-size="11" lengthAdjust="spacing" textLength="6.9985" x="106.5007" y="590.3667">2</text><text fill="#000000" font-family="Verdana" font-size="11" lengthAdjust="spacing" textLength="6.9985" x="156.5007" y="590.3667">3</text><text fill="#000000" font-family="Verdana" font-size="11" lengthAdjust="spacing" textLength="6.9985" x="206.5007" y="590.3667">4</text><text fill="#000000" font-family="Verdana" font-size="11" lengthAdjust="spacing" textLength="6.9985" x="456.5007" y="590.3667">9</text><text fill="#000000" font-family="Verdana" font-size="11" lengthAdjust="spacing" textLength="13.9971" x="503.0015" y="590.3667">10</text><text fill="#000000" font-family="Verdana" font-size="11" lengthAdjust="spacing" textLength="13.9971" x="553.0015" y="590.3667">11</text><text fill="#000000" font-family="Verdana" font-size="11" lengthAdjust="spacing" textLength="13.9971" x="603.0015" y="590.3667">12</text><text fill="#000000" font-family="Verdana" font-size="11" lengthAdjust="spacing" textLength="13.9971" x="653.0015" y="590.3667">13</text><line style="stroke:#000000;stroke-width:1;stroke-dasharray:4.0,4.0;" x1="60" x2="60" y1="51.6094" y2="574.1563"/><line style="stroke:#000000;stroke-width:1;stroke-dasharray:4.0,4.0;" x1="185" x2="185" y1="51.6094" y2="574.1563"/><text fill="#000000" font-family="Verdana" font-size="12" lengthAdjust="spacing" textLength="139.1191" x="63" y="64.748">SPY Processing (~2.5s)</text><line style="stroke:#000000;stroke-width:1;stroke-dasharray:4.0,4.0;" x1="215" x2="215" y1="51.6094" y2="574.1563"/><line style="stroke:#000000;stroke-width:1;stroke-dasharray:4.0,4.0;" x1="460" x2="460" y1="51.6094" y2="574.1563"/><text fill="#000000" font-family="Verdana" font-size="12" lengthAdjust="spacing" textLength="129.5332" x="218" y="64.748">Rate Limit Wait (~5s)</text><line style="stroke:#000000;stroke-width:1;stroke-dasharray:4.0,4.0;" x1="460" x2="460" y1="51.6094" y2="574.1563"/><line style="stroke:#000000;stroke-width:1;stroke-dasharray:4.0,4.0;" x1="560" x2="560" y1="51.6094" y2="574.1563"/><text fill="#000000" font-family="Verdana" font-size="12" lengthAdjust="spacing" textLength="149.9883" x="463" y="64.748">AAPL with Fallback (~2s)</text><line style="stroke:#000000;stroke-width:1;stroke-dasharray:4.0,4.0;" x1="610" x2="610" y1="51.6094" y2="574.1563"/><line style="stroke:#000000;stroke-width:1;stroke-dasharray:4.0,4.0;" x1="660" x2="660" y1="51.6094" y2="574.1563"/><text fill="#000000" font-family="Verdana" font-size="12" lengthAdjust="spacing" textLength="101.1621" x="613" y="64.748">Final Flush (~1s)</text><!--SRC=[bLLHRzem47xthxXb3sqVLWXTfnMf6fJH5ebsQK6h-cYI0ooC3RO3Om_zxRiuG48BtOOKARdxlZlx-yxcWnlZ564ckL3CJeIQSSEdCE3nP6HqgfAMbjh0SYmSCkQ4amXtQ4GYk89FS4MueP0IVipGS2UqWhwO2ZM2xuAFg19ZHt2vvmTHyx7VQNMYvds_jnV1OgrYOH62RPCUceM8CG1kjvqBs2Dt25tgxj1uI1POVnUeoEY5ID30SSzfFJ_nIF-w3_FCnrhd6FzQODeBL0uYCKCfLBwapKS1ehg6Zt3J8ti_A4Y_SzVkTkxR-yKuodH5i36NM0UBr2AnC2Hh1XjrzCO2orYZohQg2Gj1Hmadk1I_oPg0bOJnsKVaoIfWNeKiq4aaCh_VxTTcRrd0mzbwFri4QuIxFNkhwK3BElIYvu0fJUOuFGCzB8Q6SeuR1qDXh0FhyLIdzcQ1hJ764x_qSfqogWuU0_DKEmvymONa0x-gscdurmq7j_r-HFkQfsZTRfDyD01ksdsep2j9HLQ-sKixMvscbi8lvzNgr892jzHc0f8QgNZ5K2MGLV7zlvGQHTpODnl9qtN8aWYjtaymQ6TaPCx_-igP7PMZT2257MT7pWjTDYfuI37rtLZZxFHylptDPjGDzlZB6f_VyO6o-tGjZc1oq2jIxS6xXBzYn0IJ3nHvuiB1-MQmo_fT_AzxHA6z5jcsCThiDvNCyvSA5VOe2lMD68teWYCzXrpAx7ILLnDMYuFnpjJac3fShqjGV1sx5eghE2z5pXR5jfD1cV3LwJla-5llofQ7jLtYjKmzxHMZ29UETF1awCROrCdrtEOA1YNFTfkqz7GcqM7mBrV6WQlmjdDpswNdq3_3M8p6aXu7OIOiZJPyx6RVLp95y3SEq1qUeyqKXUCNse0zAT5eTZFYnPhMecLbjr4nllay7h_iqYuoKXYkMSyefLv2Ve9WAToui9jQxZ33cgUUhQat1b5buq738C7BIPIGA7y0]--></g></svg>