<svg xmlns="http://www.w3.org/2000/svg" xmlns:xlink="http://www.w3.org/1999/xlink" contentStyleType="text/css" data-diagram-type="TIMING" height="616px" preserveAspectRatio="none" style="width:584px;height:616px;background:#FFFFFF;" version="1.1" viewBox="0 0 584 616" width="584px" zoomAndPan="magnify"><title>Meridian - Event Processing Timing Diagram</title><defs/><g><text fill="#000000" font-family="Verdana" font-size="22" font-weight="bold" lengthAdjust="spacing" textLength="551.5254" x="15" y="35.4209">Meridian - Event Processing Timing Diagram</text><line style="stroke:#000000;stroke-width:1;" x1="195.2061" x2="195.2061" y1="51.6094" y2="591.3594"/><line style="stroke:#000000;stroke-width:1;" x1="387.3193" x2="387.3193" y1="51.6094" y2="591.3594"/><rect fill="#ADD8E6" height="539.75" style="stroke:none;stroke-width:1;" width="0.0075" x="282.3443" y="51.6094"/><rect fill="#90EE90" height="539.75" style="stroke:none;stroke-width:1;" width="0.0075" x="282.3693" y="51.6094"/><rect fill="#FFFFE0" height="539.75" style="stroke:none;stroke-width:1;" width="0.025" x="282.4443" y="51.6094"/><rect fill="#FFB6C1" height="539.75" style="stroke:none;stroke-width:1;" width="0.0375" x="294.8175" y="51.6094"/><rect fill="#F08080" height="539.75" style="stroke:none;stroke-width:1;" width="4.9993" x="319.8137" y="51.6094"/><rect fill="#FFD700" height="539.75" style="stroke:none;stroke-width:1;" width="0.0075" x="332.3118" y="51.6094"/><line style="stroke:#000000;stroke-width:0.5;stroke-dasharray:3.0,5.0;" x1="282.3193" x2="282.3193" y1="51.6094" y2="591.3594"/><line style="stroke:#000000;stroke-width:0.5;stroke-dasharray:3.0,5.0;" x1="332.3193" x2="332.3193" y1="51.6094" y2="591.3594"/><line style="stroke:#000000;stroke-width:0.5;stroke-dasharray:3.0,5.0;" x1="382.3193" x2="382.3193" y1="51.6094" y2="591.3594"/><line style="stroke:#000000;stroke-width:1;" x1="195.2061" x2="387.3193" y1="51.6094" y2="51.6094"/><text fill="#000000" font-family="Verdana" font-size="14" font-weight="bold" lengthAdjust="spacing" textLength="160.6992" x="200.2061" y="64.6045">Provider Connection</text><line style="stroke:#000000;stroke-width:1;" x1="195.2061" x2="361.9053" y1="68.9063" y2="68.9063"/><line style="stroke:#000000;stroke-width:1;" x1="361.9053" x2="371.9053" y1="68.9063" y2="51.6094"/><text fill="#000000" font-family="Verdana" font-size="12" lengthAdjust="spacing" textLength="64.6172" x="200.2061" y="173.0293">Connected</text><text fill="#000000" font-family="Verdana" font-size="12" lengthAdjust="spacing" textLength="58.6934" x="200.2061" y="146.0449">Receiving</text><text fill="#000000" font-family="Verdana" font-size="12" lengthAdjust="spacing" textLength="34.6172" x="200.2061" y="160.0137">Trade</text><text fill="#000000" font-family="Verdana" font-size="12" lengthAdjust="spacing" textLength="58.6934" x="200.2061" y="126.0449">Receiving</text><text fill="#000000" font-family="Verdana" font-size="12" lengthAdjust="spacing" textLength="36.4805" x="200.2061" y="140.0137">Quote</text><text fill="#000000" font-family="Verdana" font-size="12" lengthAdjust="spacing" textLength="67.8984" x="200.2061" y="106.0449">Connection</text><text fill="#000000" font-family="Verdana" font-size="12" lengthAdjust="spacing" textLength="24.9844" x="200.2061" y="120.0137">Lost</text><text fill="#000000" font-family="Verdana" font-size="12" lengthAdjust="spacing" textLength="82.1133" x="200.2061" y="93.0293">Reconnecting</text><line style="stroke:#000000;stroke-width:1;" x1="282.3193" x2="282.3443" y1="167.875" y2="167.875"/><line style="stroke:#000000;stroke-width:1;" x1="282.3443" x2="282.3468" y1="147.875" y2="147.875"/><line style="stroke:#000000;stroke-width:1;" x1="282.3468" x2="282.3693" y1="167.875" y2="167.875"/><line style="stroke:#000000;stroke-width:1;" x1="282.3693" x2="282.3718" y1="127.875" y2="127.875"/><line style="stroke:#000000;stroke-width:1;" x1="282.3718" x2="282.5693" y1="167.875" y2="167.875"/><line style="stroke:#000000;stroke-width:1;" x1="282.5693" x2="319.8137" y1="167.875" y2="167.875"/><line style="stroke:#000000;stroke-width:1;" x1="319.8137" x2="319.8387" y1="107.875" y2="107.875"/><line style="stroke:#000000;stroke-width:1;" x1="319.8387" x2="324.813" y1="87.875" y2="87.875"/><line style="stroke:#000000;stroke-width:1;" x1="324.813" x2="332.3118" y1="167.875" y2="167.875"/><line style="stroke:#000000;stroke-width:1;" x1="332.3118" x2="382.3193" y1="147.875" y2="147.875"/><line style="stroke:#000000;stroke-width:1;" x1="282.3443" x2="282.3443" y1="147.875" y2="167.875"/><line style="stroke:#000000;stroke-width:1;" x1="282.3468" x2="282.3468" y1="147.875" y2="167.875"/><line style="stroke:#000000;stroke-width:1;" x1="282.3693" x2="282.3693" y1="127.875" y2="167.875"/><line style="stroke:#000000;stroke-width:1;" x1="282.3718" x2="282.3718" y1="127.875" y2="167.875"/><line style="stroke:#000000;stroke-width:1;" x1="282.5693" x2="282.5693" y1="167.875" y2="167.875"/><line style="stroke:#000000;stroke-width:1;" x1="319.8137" x2="319.8137" y1="107.875" y2="167.875"/><line style="stroke:#000000;stroke-width:1;" x1="319.8387" x2="319.8387" y1="87.875" y2="107.875"/><line style="stroke:#000000;stroke-width:1;" x1="324.813" x2="324.813" y1="87.875" y2="167.875"/><line style="stroke:#000000;stroke-width:1;" x1="332.3118" x2="332.3118" y1="147.875" y2="167.875"/><line style="stroke:#000000;stroke-width:1;" x1="195.2061" x2="387.3193" y1="179.875" y2="179.875"/><text fill="#000000" font-family="Verdana" font-size="14" font-weight="bold" lengthAdjust="spacing" textLength="120.791" x="200.2061" y="192.8701">Trade Collector</text><line style="stroke:#000000;stroke-width:1;" x1="195.2061" x2="321.9971" y1="197.1719" y2="197.1719"/><line style="stroke:#000000;stroke-width:1;" x1="321.9971" x2="331.9971" y1="197.1719" y2="179.875"/><text fill="#000000" font-family="Verdana" font-size="12" lengthAdjust="spacing" textLength="21.873" x="212.7666" y="267.3262">Idle</text><text fill="#000000" font-family="Verdana" font-size="12" lengthAdjust="spacing" textLength="64.5527" x="212.7666" y="240.3418">Processing</text><text fill="#000000" font-family="Verdana" font-size="12" lengthAdjust="spacing" textLength="34.6172" x="212.7666" y="254.3105">Trade</text><text fill="#000000" font-family="Verdana" font-size="12" lengthAdjust="spacing" textLength="24.2695" x="212.7666" y="220.3418">Gap</text><text fill="#000000" font-family="Verdana" font-size="12" lengthAdjust="spacing" textLength="55.0137" x="212.7666" y="234.3105">Detected</text><text fill="#000000" font-family="Verdana" font-size="12" lengthAdjust="spacing" textLength="50.5723" x="212.7666" y="200.3418">Emitting</text><text fill="#000000" font-family="Verdana" font-size="12" lengthAdjust="spacing" textLength="50.9238" x="212.7666" y="214.3105">Integrity</text><line style="stroke:#000000;stroke-width:1;" x1="282.3193" x2="282.3468" y1="262.1719" y2="262.1719"/><line style="stroke:#000000;stroke-width:1;" x1="282.3468" x2="282.3493" y1="242.1719" y2="242.1719"/><line style="stroke:#000000;stroke-width:1;" x1="282.3493" x2="282.5693" y1="262.1719" y2="262.1719"/><line style="stroke:#000000;stroke-width:1;" x1="282.5693" x2="332.3143" y1="262.1719" y2="262.1719"/><line style="stroke:#000000;stroke-width:1;" x1="332.3143" x2="332.3168" y1="222.1719" y2="222.1719"/><line style="stroke:#000000;stroke-width:1;" x1="332.3168" x2="332.3193" y1="202.1719" y2="202.1719"/><line style="stroke:#000000;stroke-width:1;" x1="332.3193" x2="382.3193" y1="262.1719" y2="262.1719"/><line style="stroke:#000000;stroke-width:1;" x1="282.3468" x2="282.3468" y1="242.1719" y2="262.1719"/><line style="stroke:#000000;stroke-width:1;" x1="282.3493" x2="282.3493" y1="242.1719" y2="262.1719"/><line style="stroke:#000000;stroke-width:1;" x1="282.5693" x2="282.5693" y1="262.1719" y2="262.1719"/><line style="stroke:#000000;stroke-width:1;" x1="332.3143" x2="332.3143" y1="222.1719" y2="262.1719"/><line style="stroke:#000000;stroke-width:1;" x1="332.3168" x2="332.3168" y1="202.1719" y2="222.1719"/><line style="stroke:#000000;stroke-width:1;" x1="332.3193" x2="332.3193" y1="202.1719" y2="262.1719"/><line style="stroke:#000000;stroke-width:1;" x1="195.2061" x2="387.3193" y1="274.1719" y2="274.1719"/><text fill="#000000" font-family="Verdana" font-size="14" font-weight="bold" lengthAdjust="spacing" textLength="123.0469" x="200.2061" y="287.167">Quote Collector</text><line style="stroke:#000000;stroke-width:1;" x1="195.2061" x2="324.2529" y1="291.4688" y2="291.4688"/><line style="stroke:#000000;stroke-width:1;" x1="324.2529" x2="334.2529" y1="291.4688" y2="274.1719"/><text fill="#000000" font-family="Verdana" font-size="12" lengthAdjust="spacing" textLength="21.873" x="212.7666" y="321.623">Idle</text><text fill="#000000" font-family="Verdana" font-size="12" lengthAdjust="spacing" textLength="64.5527" x="212.7666" y="294.6387">Processing</text><text fill="#000000" font-family="Verdana" font-size="12" lengthAdjust="spacing" textLength="36.4805" x="212.7666" y="308.6074">Quote</text><line style="stroke:#000000;stroke-width:1;" x1="282.3193" x2="282.3718" y1="316.4688" y2="316.4688"/><line style="stroke:#000000;stroke-width:1;" x1="282.3718" x2="282.3743" y1="296.4688" y2="296.4688"/><line style="stroke:#000000;stroke-width:1;" x1="282.3743" x2="282.5693" y1="316.4688" y2="316.4688"/><line style="stroke:#000000;stroke-width:1;" x1="282.5693" x2="382.3193" y1="316.4688" y2="316.4688"/><line style="stroke:#000000;stroke-width:1;" x1="282.3718" x2="282.3718" y1="296.4688" y2="316.4688"/><line style="stroke:#000000;stroke-width:1;" x1="282.3743" x2="282.3743" y1="296.4688" y2="316.4688"/><line style="stroke:#000000;stroke-width:1;" x1="282.5693" x2="282.5693" y1="316.4688" y2="316.4688"/><line style="stroke:#000000;stroke-width:1;" x1="195.2061" x2="387.3193" y1="328.4688" y2="328.4688"/><text fill="#000000" font-family="Verdana" font-size="14" font-weight="bold" lengthAdjust="spacing" textLength="113.3535" x="200.2061" y="341.4639">Event Pipeline</text><line style="stroke:#000000;stroke-width:1;" x1="195.2061" x2="314.5596" y1="345.7656" y2="345.7656"/><line style="stroke:#000000;stroke-width:1;" x1="314.5596" x2="324.5596" y1="345.7656" y2="328.4688"/><text fill="#000000" font-family="Verdana" font-size="12" lengthAdjust="spacing" textLength="45.8145" x="209.8896" y="435.9199">Waiting</text><text fill="#000000" font-family="Verdana" font-size="12" lengthAdjust="spacing" textLength="50.5957" x="209.8896" y="408.9355">Queuing</text><text fill="#000000" font-family="Verdana" font-size="12" lengthAdjust="spacing" textLength="34.377" x="209.8896" y="422.9043">Event</text><text fill="#000000" font-family="Verdana" font-size="12" lengthAdjust="spacing" textLength="67.4297" x="209.8896" y="388.9355">Consuming</text><text fill="#000000" font-family="Verdana" font-size="12" lengthAdjust="spacing" textLength="34.4941" x="209.8896" y="402.9043">Batch</text><text fill="#000000" font-family="Verdana" font-size="12" lengthAdjust="spacing" textLength="50.2559" x="209.8896" y="375.9199">Flushing</text><text fill="#000000" font-family="Verdana" font-size="12" lengthAdjust="spacing" textLength="50.5957" x="209.8896" y="348.9355">Queuing</text><text fill="#000000" font-family="Verdana" font-size="12" lengthAdjust="spacing" textLength="50.9238" x="209.8896" y="362.9043">Integrity</text><line style="stroke:#000000;stroke-width:1;" x1="282.3193" x2="282.3493" y1="430.7656" y2="430.7656"/><line style="stroke:#000000;stroke-width:1;" x1="282.3493" x2="282.3518" y1="410.7656" y2="410.7656"/><line style="stroke:#000000;stroke-width:1;" x1="282.3518" x2="282.3743" y1="430.7656" y2="430.7656"/><line style="stroke:#000000;stroke-width:1;" x1="282.3743" x2="282.3768" y1="410.7656" y2="410.7656"/><line style="stroke:#000000;stroke-width:1;" x1="282.3768" x2="282.4443" y1="430.7656" y2="430.7656"/><line style="stroke:#000000;stroke-width:1;" x1="282.4443" x2="282.4568" y1="390.7656" y2="390.7656"/><line style="stroke:#000000;stroke-width:1;" x1="282.4568" x2="282.5693" y1="430.7656" y2="430.7656"/><line style="stroke:#000000;stroke-width:1;" x1="282.5693" x2="294.8175" y1="430.7656" y2="430.7656"/><line style="stroke:#000000;stroke-width:1;" x1="294.8175" x2="294.855" y1="370.7656" y2="370.7656"/><line style="stroke:#000000;stroke-width:1;" x1="294.855" x2="332.3168" y1="430.7656" y2="430.7656"/><line style="stroke:#000000;stroke-width:1;" x1="332.3168" x2="332.3193" y1="350.7656" y2="350.7656"/><line style="stroke:#000000;stroke-width:1;" x1="332.3193" x2="382.3193" y1="430.7656" y2="430.7656"/><line style="stroke:#000000;stroke-width:1;" x1="282.3493" x2="282.3493" y1="410.7656" y2="430.7656"/><line style="stroke:#000000;stroke-width:1;" x1="282.3518" x2="282.3518" y1="410.7656" y2="430.7656"/><line style="stroke:#000000;stroke-width:1;" x1="282.3743" x2="282.3743" y1="410.7656" y2="430.7656"/><line style="stroke:#000000;stroke-width:1;" x1="282.3768" x2="282.3768" y1="410.7656" y2="430.7656"/><line style="stroke:#000000;stroke-width:1;" x1="282.4443" x2="282.4443" y1="390.7656" y2="430.7656"/><line style="stroke:#000000;stroke-width:1;" x1="282.4568" x2="282.4568" y1="390.7656" y2="430.7656"/><line style="stroke:#000000;stroke-width:1;" x1="282.5693" x2="282.5693" y1="430.7656" y2="430.7656"/><line style="stroke:#000000;stroke-width:1;" x1="294.8175" x2="294.8175" y1="370.7656" y2="430.7656"/><line style="stroke:#000000;stroke-width:1;" x1="294.855" x2="294.855" y1="370.7656" y2="430.7656"/><line style="stroke:#000000;stroke-width:1;" x1="332.3168" x2="332.3168" y1="350.7656" y2="430.7656"/><line style="stroke:#000000;stroke-width:1;" x1="332.3193" x2="332.3193" y1="350.7656" y2="430.7656"/><line style="stroke:#000000;stroke-width:1;" x1="195.2061" x2="387.3193" y1="442.7656" y2="442.7656"/><text fill="#000000" font-family="Verdana" font-size="14" font-weight="bold" lengthAdjust="spacing" textLength="101.2949" x="200.2061" y="455.7607">Storage Sink</text><line style="stroke:#000000;stroke-width:1;" x1="195.2061" x2="302.501" y1="460.0625" y2="460.0625"/><line style="stroke:#000000;stroke-width:1;" x1="302.501" x2="312.501" y1="460.0625" y2="442.7656"/><text fill="#000000" font-family="Verdana" font-size="12" lengthAdjust="spacing" textLength="21.873" x="227.0635" y="510.2168">Idle</text><text fill="#000000" font-family="Verdana" font-size="12" lengthAdjust="spacing" textLength="43.3945" x="227.0635" y="483.2324">Writing</text><text fill="#000000" font-family="Verdana" font-size="12" lengthAdjust="spacing" textLength="36.2637" x="227.0635" y="497.2012">JSONL</text><text fill="#000000" font-family="Verdana" font-size="12" lengthAdjust="spacing" textLength="50.2559" x="227.0635" y="463.2324">Flushing</text><text fill="#000000" font-family="Verdana" font-size="12" lengthAdjust="spacing" textLength="42.8555" x="227.0635" y="477.2012">Buffers</text><line style="stroke:#000000;stroke-width:1;" x1="282.3193" x2="282.4568" y1="505.0625" y2="505.0625"/><line style="stroke:#000000;stroke-width:1;" x1="282.4568" x2="282.4693" y1="485.0625" y2="485.0625"/><line style="stroke:#000000;stroke-width:1;" x1="282.4693" x2="282.5693" y1="505.0625" y2="505.0625"/><line style="stroke:#000000;stroke-width:1;" x1="282.5693" x2="294.8175" y1="505.0625" y2="505.0625"/><line style="stroke:#000000;stroke-width:1;" x1="294.8175" x2="294.855" y1="465.0625" y2="465.0625"/><line style="stroke:#000000;stroke-width:1;" x1="294.855" x2="382.3193" y1="505.0625" y2="505.0625"/><line style="stroke:#000000;stroke-width:1;" x1="282.4568" x2="282.4568" y1="485.0625" y2="505.0625"/><line style="stroke:#000000;stroke-width:1;" x1="282.4693" x2="282.4693" y1="485.0625" y2="505.0625"/><line style="stroke:#000000;stroke-width:1;" x1="282.5693" x2="282.5693" y1="505.0625" y2="505.0625"/><line style="stroke:#000000;stroke-width:1;" x1="294.8175" x2="294.8175" y1="465.0625" y2="505.0625"/><line style="stroke:#000000;stroke-width:1;" x1="294.855" x2="294.855" y1="465.0625" y2="505.0625"/><line style="stroke:#000000;stroke-width:1;" x1="195.2061" x2="387.3193" y1="517.0625" y2="517.0625"/><text fill="#000000" font-family="Verdana" font-size="14" font-weight="bold" lengthAdjust="spacing" textLength="118.5215" x="200.2061" y="530.0576">Health Monitor</text><line style="stroke:#000000;stroke-width:1;" x1="195.2061" x2="319.7275" y1="534.3594" y2="534.3594"/><line style="stroke:#000000;stroke-width:1;" x1="319.7275" x2="329.7275" y1="534.3594" y2="517.0625"/><text fill="#000000" font-family="Verdana" font-size="12" lengthAdjust="spacing" textLength="46.5059" x="218.1748" y="584.5137">Healthy</text><text fill="#000000" font-family="Verdana" font-size="12" lengthAdjust="spacing" textLength="55.4707" x="218.1748" y="557.5293">Checking</text><text fill="#000000" font-family="Verdana" font-size="12" lengthAdjust="spacing" textLength="39.4043" x="218.1748" y="571.498">Health</text><text fill="#000000" font-family="Verdana" font-size="12" lengthAdjust="spacing" textLength="59.1445" x="218.1748" y="544.5137">Degraded</text><line style="stroke:#000000;stroke-width:1;" x1="282.3193" x2="282.5693" y1="579.3594" y2="579.3594"/><line style="stroke:#000000;stroke-width:1;" x1="282.5693" x2="307.3156" y1="579.3594" y2="579.3594"/><line style="stroke:#000000;stroke-width:1;" x1="307.3156" x2="307.4406" y1="559.3594" y2="559.3594"/><line style="stroke:#000000;stroke-width:1;" x1="307.4406" x2="319.8162" y1="579.3594" y2="579.3594"/><line style="stroke:#000000;stroke-width:1;" x1="319.8162" x2="324.813" y1="539.3594" y2="539.3594"/><line style="stroke:#000000;stroke-width:1;" x1="324.813" x2="382.3193" y1="579.3594" y2="579.3594"/><line style="stroke:#000000;stroke-width:1;" x1="282.5693" x2="282.5693" y1="579.3594" y2="579.3594"/><line style="stroke:#000000;stroke-width:1;" x1="307.3156" x2="307.3156" y1="559.3594" y2="579.3594"/><line style="stroke:#000000;stroke-width:1;" x1="307.4406" x2="307.4406" y1="559.3594" y2="579.3594"/><line style="stroke:#000000;stroke-width:1;" x1="319.8162" x2="319.8162" y1="539.3594" y2="579.3594"/><line style="stroke:#000000;stroke-width:1;" x1="324.813" x2="324.813" y1="539.3594" y2="579.3594"/><line style="stroke:#000000;stroke-width:1;" x1="282.3193" x2="282.3193" y1="591.3594" y2="596.3594"/><line style="stroke:#000000;stroke-width:1;" x1="332.3193" x2="332.3193" y1="591.3594" y2="596.3594"/><line style="stroke:#000000;stroke-width:1;" x1="382.3193" x2="382.3193" y1="591.3594" y2="596.3594"/><line style="stroke:#000000;stroke-width:1;" x1="282.3193" x2="382.3193" y1="591.3594" y2="591.3594"/><text fill="#000000" font-family="Verdana" font-size="11" lengthAdjust="spacing" textLength="6.9985" x="278.8201" y="607.5698">0</text><text fill="#000000" font-family="Verdana" font-size="11" lengthAdjust="spacing" textLength="13.9971" x="275.3458" y="607.5698">10</text><text fill="#000000" font-family="Verdana" font-size="11" lengthAdjust="spacing" textLength="13.9971" x="275.3483" y="607.5698">11</text><text fill="#000000" font-family="Verdana" font-size="11" lengthAdjust="spacing" textLength="13.9971" x="275.3508" y="607.5698">12</text><text fill="#000000" font-family="Verdana" font-size="11" lengthAdjust="spacing" textLength="13.9971" x="275.3533" y="607.5698">13</text><text fill="#000000" font-family="Verdana" font-size="11" lengthAdjust="spacing" textLength="13.9971" x="275.3708" y="607.5698">20</text><text fill="#000000" font-family="Verdana" font-size="11" lengthAdjust="spacing" textLength="13.9971" x="275.3733" y="607.5698">21</text><text fill="#000000" font-family="Verdana" font-size="11" lengthAdjust="spacing" textLength="13.9971" x="275.3758" y="607.5698">22</text><text fill="#000000" font-family="Verdana" font-size="11" lengthAdjust="spacing" textLength="13.9971" x="275.3783" y="607.5698">23</text><text fill="#000000" font-family="Verdana" font-size="11" lengthAdjust="spacing" textLength="13.9971" x="275.4458" y="607.5698">50</text><text fill="#000000" font-family="Verdana" font-size="11" lengthAdjust="spacing" textLength="13.9971" x="275.4583" y="607.5698">55</text><text fill="#000000" font-family="Verdana" font-size="11" lengthAdjust="spacing" textLength="13.9971" x="275.4708" y="607.5698">60</text><text fill="#000000" font-family="Verdana" font-size="11" lengthAdjust="spacing" textLength="20.9956" x="272.0715" y="607.5698">100</text><text fill="#000000" font-family="Verdana" font-size="11" lengthAdjust="spacing" textLength="27.9941" x="280.8204" y="607.5698">5000</text><text fill="#000000" font-family="Verdana" font-size="11" lengthAdjust="spacing" textLength="27.9941" x="280.8579" y="607.5698">5015</text><text fill="#000000" font-family="Verdana" font-size="11" lengthAdjust="spacing" textLength="34.9927" x="289.8192" y="607.5698">10000</text><text fill="#000000" font-family="Verdana" font-size="11" lengthAdjust="spacing" textLength="34.9927" x="289.9442" y="607.5698">10050</text><text fill="#000000" font-family="Verdana" font-size="11" lengthAdjust="spacing" textLength="34.9927" x="302.3174" y="607.5698">15000</text><text fill="#000000" font-family="Verdana" font-size="11" lengthAdjust="spacing" textLength="34.9927" x="302.3199" y="607.5698">15001</text><text fill="#000000" font-family="Verdana" font-size="11" lengthAdjust="spacing" textLength="34.9927" x="302.3424" y="607.5698">15010</text><text fill="#000000" font-family="Verdana" font-size="11" lengthAdjust="spacing" textLength="34.9927" x="307.3166" y="607.5698">17000</text><text fill="#000000" font-family="Verdana" font-size="11" lengthAdjust="spacing" textLength="34.9927" x="314.8155" y="607.5698">20000</text><text fill="#000000" font-family="Verdana" font-size="11" lengthAdjust="spacing" textLength="34.9927" x="314.818" y="607.5698">20001</text><text fill="#000000" font-family="Verdana" font-size="11" lengthAdjust="spacing" textLength="34.9927" x="314.8205" y="607.5698">20002</text><text fill="#000000" font-family="Verdana" font-size="11" lengthAdjust="spacing" textLength="34.9927" x="314.823" y="607.5698">20003</text><line style="stroke:#000000;stroke-width:1;stroke-dasharray:4.0,4.0;" x1="282.3443" x2="282.3443" y1="51.6094" y2="591.3594"/><line style="stroke:#000000;stroke-width:1;stroke-dasharray:4.0,4.0;" x1="282.3518" x2="282.3518" y1="51.6094" y2="591.3594"/><text fill="#000000" font-family="Verdana" font-size="12" lengthAdjust="spacing" textLength="151.793" x="285.3443" y="64.748">Trade Processing (~3ms)</text><line style="stroke:#000000;stroke-width:1;stroke-dasharray:4.0,4.0;" x1="282.3693" x2="282.3693" y1="51.6094" y2="591.3594"/><line style="stroke:#000000;stroke-width:1;stroke-dasharray:4.0,4.0;" x1="282.3768" x2="282.3768" y1="51.6094" y2="591.3594"/><text fill="#000000" font-family="Verdana" font-size="12" lengthAdjust="spacing" textLength="153.6563" x="285.3693" y="64.748">Quote Processing (~3ms)</text><line style="stroke:#000000;stroke-width:1;stroke-dasharray:4.0,4.0;" x1="282.4443" x2="282.4443" y1="51.6094" y2="591.3594"/><line style="stroke:#000000;stroke-width:1;stroke-dasharray:4.0,4.0;" x1="282.4693" x2="282.4693" y1="51.6094" y2="591.3594"/><text fill="#000000" font-family="Verdana" font-size="12" lengthAdjust="spacing" textLength="141.7031" x="285.4443" y="64.748">Batch Storage (~10ms)</text><line style="stroke:#000000;stroke-width:1;stroke-dasharray:4.0,4.0;" x1="294.8175" x2="294.8175" y1="51.6094" y2="591.3594"/><line style="stroke:#000000;stroke-width:1;stroke-dasharray:4.0,4.0;" x1="294.855" x2="294.855" y1="51.6094" y2="591.3594"/><text fill="#000000" font-family="Verdana" font-size="12" lengthAdjust="spacing" textLength="139.7344" x="297.8175" y="64.748">Periodic Flush (~15ms)</text><line style="stroke:#000000;stroke-width:1;stroke-dasharray:4.0,4.0;" x1="319.8137" x2="319.8137" y1="51.6094" y2="591.3594"/><line style="stroke:#000000;stroke-width:1;stroke-dasharray:4.0,4.0;" x1="324.813" x2="324.813" y1="51.6094" y2="591.3594"/><text fill="#000000" font-family="Verdana" font-size="12" lengthAdjust="spacing" textLength="118.957" x="322.8137" y="64.748">Reconnection (~2s)</text><line style="stroke:#000000;stroke-width:1;stroke-dasharray:4.0,4.0;" x1="332.3118" x2="332.3118" y1="51.6094" y2="591.3594"/><line style="stroke:#000000;stroke-width:1;stroke-dasharray:4.0,4.0;" x1="332.3193" x2="332.3193" y1="51.6094" y2="591.3594"/><text fill="#000000" font-family="Verdana" font-size="12" lengthAdjust="spacing" textLength="161.8418" x="335.3118" y="64.748">Integrity Detection (~3ms)</text><!--SRC=[nLPDRkCs5Dxh5A-UnMGMQMMdcXP62qpYE8aAntPZOu81ic4aoYPCaIf9ESqconwWv-aPUeYUf8-a95kErSok0Op0p-zxFz_xupTcJNCA1ITC17h3H44KoU6H99kLagL8Hv9B1KzhPcWG66OuXLkgMCg8W5CORwamC5SoeLepiO8bo-s_IqPMQ2S8tiFFH_vWVdwtZ4Vn_7owN1pL29HyBBM17jhUifGg64aXQ6AO53qW6cfvexXK9AMenJbgIUMKdCoA6grVIsaEjPoifLMbnGhAcQ3UN_MbqLaWdAmeB9ZOE8rAq2ZSKCBD6cwbOBKdB-faPHdVZYVnT7oSaVUMN0ew8PmE8MUSCqqJAL8D6PPepLRhqqpHtqegacUWDWKT19_2eA6GwPf5cWODDrOSfvm63G-Df4xQ2ku9CrZQeCwxrgdIP7Lsp-YpttRQkwC9PLj4FmZdjXS8MmOZ2v1PKqeOmZrzNCXaGmtas53M3L6ARQbDfD__canwksOywcpN4W0l_J3y-oyDHGCPelGK5fv42bl2MKfippdv-MgbK0_9PYAZogeu-UVxypcK1MhIW8eKh3yRyE08oVkKOZVIqWNg6kw0bLfn2ACrmLpvjqlrVAzm44y-m4_zt75oThH6mQT1TmLScNjMfulGLYEq2Asm-t7kb8Vm4ba-Xt1nCGDja8wQ5NGsUAE_Nf61cAxieh0DnT1rcJlm1J79-ZYJM2ltAoXAKiYKp27npE8l9sM1-e0TKOtEX_rIHj5Riz2pbN4H_BAOJIVj2EhLW2qNvHgtgutYoPRInbHcjfbIYB-RxVly6BwQjSvrEhwBPvVn2CQVnvqR5QVo_zW5KHWULEkAbtgDyCv-ZqxzOeFCQkAm6Qfm55jqrqQmueu_tSNubLGuoOviM-3P0XuTmCy_LgD0DZB6MwCRXVtegp9sh6A2kynxepLDDYuoBsm7Lfq0m4whirnxR69nVf_WWSsUhLoPHqgC4pgpm76QSBstramOHk4nwZkQPJIRJiUZPJoRmcIsMC1YD9wUO_zqTOqluFuosPtY1p6HsdIkyoarJr9j82ECbuf2IerlE6-slq_R9LtPBaoFqOMcRceoRfdME2nkIBsTWsjpPrbryM6zZWM6T8v_BwH00unmzzQHMMPN_q33Ft_y2T_xVp_g5iq_X9tpyvhy3a9siKa1kapiOirAtbchUBeSNz_5ooz-iZjAD0XVbUZrnVLg_ODhUKsA1t5PbQNxKZONSKMAeUVF8OPsOVPHuFrLWcYVD-lru13snZapVbd6EDihdCtdNiSns5FmjixUEAhDbUYWz2Q-lfdWfsjDsdSKnu_1JDn5E8Dt4_lzWfTsEVbtvjwJz-JbBCThiSCD76vGuwuLfGA1_kdvNy380J-65V0BvLm-8T9VhNhrdBYrrSQ53cctLeMTuwiKaNFS939b2RXrQQ5H6zgliQwzA_087V73RZrv6HnaMI5TKU3TrTKbca1KKp7mVUN1BjL_0G00]--></g></svg>