<?xml version="1.0" encoding="UTF-8" standalone="no"?>
<!DOCTYPE svg PUBLIC "-//W3C//DTD SVG 1.1//EN"
 "http://www.w3.org/Graphics/SVG/1.1/DTD/svg11.dtd">
<!-- Generated by graphviz version 2.43.0 (0)
 -->
<!-- Title: BacktestingEngine Pages: 1 -->
<svg width="1242pt" height="1893pt"
 viewBox="0.00 0.00 1242.00 1892.76" xmlns="http://www.w3.org/2000/svg" xmlns:xlink="http://www.w3.org/1999/xlink">
<g id="graph0" class="graph" transform="scale(1 1) rotate(0) translate(36 1856.76)">
<title>BacktestingEngine</title>
<polygon fill="white" stroke="transparent" points="-36,36 -36,-1856.76 1206,-1856.76 1206,36 -36,36"/>
<text text-anchor="middle" x="585" y="-1807.16" font-family="Helvetica,sans-Serif" font-size="12.00">Meridian &#45; Backtesting Engine</text>
<text text-anchor="middle" x="585" y="-1794.16" font-family="Helvetica,sans-Serif" font-size="12.00">Tick&#45;Level Strategy Replay | v1.7.x</text>
<g id="clust1" class="cluster">
<title>cluster_input</title>
<path fill="#faf5ff" stroke="#805ad5" d="M756,-1530.13C756,-1530.13 904,-1530.13 904,-1530.13 910,-1530.13 916,-1536.13 916,-1542.13 916,-1542.13 916,-1766.76 916,-1766.76 916,-1772.76 910,-1778.76 904,-1778.76 904,-1778.76 756,-1778.76 756,-1778.76 750,-1778.76 744,-1772.76 744,-1766.76 744,-1766.76 744,-1542.13 744,-1542.13 744,-1536.13 750,-1530.13 756,-1530.13"/>
<text text-anchor="middle" x="830" y="-1765.16" font-family="Helvetica,sans-Serif" font-size="12.00">Backtest Request</text>
</g>
<g id="clust2" class="cluster">
<title>cluster_universe</title>
<path fill="#dbeafe" stroke="#2b6cb0" d="M715,-1265.13C715,-1265.13 907,-1265.13 907,-1265.13 913,-1265.13 919,-1271.13 919,-1277.13 919,-1277.13 919,-1490.13 919,-1490.13 919,-1496.13 913,-1502.13 907,-1502.13 907,-1502.13 715,-1502.13 715,-1502.13 709,-1502.13 703,-1496.13 703,-1490.13 703,-1490.13 703,-1277.13 703,-1277.13 703,-1271.13 709,-1265.13 715,-1265.13"/>
<text text-anchor="middle" x="811" y="-1488.53" font-family="Helvetica,sans-Serif" font-size="12.00">1. Universe Discovery</text>
</g>
<g id="clust3" class="cluster">
<title>cluster_setup</title>
<path fill="#d1fae5" stroke="#38a169" d="M865,-696.62C865,-696.62 1150,-696.62 1150,-696.62 1156,-696.62 1162,-702.62 1162,-708.62 1162,-708.62 1162,-947.62 1162,-947.62 1162,-953.62 1156,-959.62 1150,-959.62 1150,-959.62 865,-959.62 865,-959.62 859,-959.62 853,-953.62 853,-947.62 853,-947.62 853,-708.62 853,-708.62 853,-702.62 859,-696.62 865,-696.62"/>
<text text-anchor="middle" x="1007.5" y="-946.02" font-family="Helvetica,sans-Serif" font-size="12.00">2. Portfolio &amp; Strategy Setup</text>
</g>
<g id="clust4" class="cluster">
<title>cluster_replay</title>
<path fill="#fee2e2" stroke="#c53030" d="M198,-842.12C198,-842.12 452,-842.12 452,-842.12 458,-842.12 464,-848.12 464,-854.12 464,-854.12 464,-1225.13 464,-1225.13 464,-1231.13 458,-1237.13 452,-1237.13 452,-1237.13 198,-1237.13 198,-1237.13 192,-1237.13 186,-1231.13 186,-1225.13 186,-1225.13 186,-854.12 186,-854.12 186,-848.12 192,-842.12 198,-842.12"/>
<text text-anchor="middle" x="325" y="-1223.53" font-family="Helvetica,sans-Serif" font-size="12.00">3. Tick Replay Engine (Chronological Merge)</text>
</g>
<g id="clust5" class="cluster">
<title>cluster_dispatch</title>
<path fill="#e6fffa" stroke="#2c7a7b" d="M20,-554.62C20,-554.62 650,-554.62 650,-554.62 656,-554.62 662,-560.62 662,-566.62 662,-566.62 662,-802.12 662,-802.12 662,-808.12 656,-814.12 650,-814.12 650,-814.12 20,-814.12 20,-814.12 14,-814.12 8,-808.12 8,-802.12 8,-802.12 8,-566.62 8,-566.62 8,-560.62 14,-554.62 20,-554.62"/>
<text text-anchor="middle" x="335" y="-800.52" font-family="Helvetica,sans-Serif" font-size="12.00">4. Strategy Event Dispatch</text>
</g>
<g id="clust6" class="cluster">
<title>cluster_callbacks</title>
<polygon fill="#e6fffa" stroke="#047857" stroke-dasharray="5,2" points="16,-562.62 16,-640.62 654,-640.62 654,-562.62 16,-562.62"/>
<text text-anchor="middle" x="335" y="-627.02" font-family="Helvetica,sans-Serif" font-size="12.00">IStrategyLifecycle Callbacks</text>
</g>
<g id="clust7" class="cluster">
<title>cluster_fill</title>
<path fill="#fffaf0" stroke="#ed8936" d="M536,-847.62C536,-847.62 833,-847.62 833,-847.62 839,-847.62 845,-853.62 845,-859.62 845,-859.62 845,-1094.13 845,-1094.13 845,-1100.13 839,-1106.13 833,-1106.13 833,-1106.13 536,-1106.13 536,-1106.13 530,-1106.13 524,-1100.13 524,-1094.13 524,-1094.13 524,-859.62 524,-859.62 524,-853.62 530,-847.62 536,-847.62"/>
<text text-anchor="middle" x="684.5" y="-1092.53" font-family="Helvetica,sans-Serif" font-size="12.00">5. Fill Models (Order Simulation)</text>
</g>
<g id="clust8" class="cluster">
<title>cluster_dayend</title>
<path fill="#ede9fe" stroke="#805ad5" d="M682,-400C682,-400 812,-400 812,-400 818,-400 824,-406 824,-412 824,-412 824,-651.12 824,-651.12 824,-657.12 818,-663.12 812,-663.12 812,-663.12 682,-663.12 682,-663.12 676,-663.12 670,-657.12 670,-651.12 670,-651.12 670,-412 670,-412 670,-406 676,-400 682,-400"/>
<text text-anchor="middle" x="747" y="-649.52" font-family="Helvetica,sans-Serif" font-size="12.00">6. Day&#45;End Processing</text>
</g>
<g id="clust9" class="cluster">
<title>cluster_metrics</title>
<path fill="#dbeafe" stroke="#2b6cb0" d="M421,-118C421,-118 954,-118 954,-118 960,-118 966,-124 966,-130 966,-130 966,-360 966,-360 966,-366 960,-372 954,-372 954,-372 421,-372 421,-372 415,-372 409,-366 409,-360 409,-360 409,-130 409,-130 409,-124 415,-118 421,-118"/>
<text text-anchor="middle" x="687.5" y="-358.4" font-family="Helvetica,sans-Serif" font-size="12.00">7. Performance Metrics</text>
</g>
<g id="clust10" class="cluster">
<title>cluster_metric_types</title>
<polygon fill="#dbeafe" stroke="#1e40af" stroke-dasharray="5,2" points="417,-126 417,-237 815,-237 815,-126 417,-126"/>
<text text-anchor="middle" x="616" y="-223.4" font-family="Helvetica,sans-Serif" font-size="12.00">Computed Metrics</text>
</g>
<g id="clust11" class="cluster">
<title>cluster_output</title>
<path fill="#d1fae5" stroke="#38a169" d="M986,-8C986,-8 1120,-8 1120,-8 1126,-8 1132,-14 1132,-20 1132,-20 1132,-231 1132,-231 1132,-237 1126,-243 1120,-243 1120,-243 986,-243 986,-243 980,-243 974,-237 974,-231 974,-231 974,-20 974,-20 974,-14 980,-8 986,-8"/>
<text text-anchor="middle" x="1053" y="-229.4" font-family="Helvetica,sans-Serif" font-size="12.00">8. Backtest Results</text>
</g>
<g id="clust12" class="cluster">
<title>cluster_legend</title>
<path fill="#fafafa" stroke="#666666" d="M954,-1694.76C954,-1694.76 1134,-1694.76 1134,-1694.76 1140,-1694.76 1146,-1700.76 1146,-1706.76 1146,-1706.76 1146,-1760.76 1146,-1760.76 1146,-1766.76 1140,-1772.76 1134,-1772.76 1134,-1772.76 954,-1772.76 954,-1772.76 948,-1772.76 942,-1766.76 942,-1760.76 942,-1760.76 942,-1706.76 942,-1706.76 942,-1700.76 948,-1694.76 954,-1694.76"/>
<text text-anchor="middle" x="1044" y="-1759.16" font-family="Helvetica,sans-Serif" font-size="12.00">Legend</text>
</g>
<!-- REQUEST -->
<g id="node1" class="node">
<title>REQUEST</title>
<ellipse fill="#ddd6fe" stroke="black" cx="830" cy="-1598.95" rx="78.48" ry="60.62"/>
<text text-anchor="middle" x="830" y="-1629.95" font-family="Helvetica,sans-Serif" font-size="10.00">BacktestRequest</text>
<text text-anchor="middle" x="830" y="-1606.95" font-family="Helvetica,sans-Serif" font-size="10.00">Symbols universe</text>
<text text-anchor="middle" x="830" y="-1595.95" font-family="Helvetica,sans-Serif" font-size="10.00">Date range</text>
<text text-anchor="middle" x="830" y="-1584.95" font-family="Helvetica,sans-Serif" font-size="10.00">Initial capital</text>
<text text-anchor="middle" x="830" y="-1573.95" font-family="Helvetica,sans-Serif" font-size="10.00">Strategy assembly</text>
<text text-anchor="middle" x="830" y="-1562.95" font-family="Helvetica,sans-Serif" font-size="10.00">Commission model</text>
</g>
<!-- UNIVERSE -->
<g id="node3" class="node">
<title>UNIVERSE</title>
<path fill="#bfdbfe" stroke="black" d="M899,-1473.13C899,-1473.13 761,-1473.13 761,-1473.13 755,-1473.13 749,-1467.13 749,-1461.13 749,-1461.13 749,-1410.13 749,-1410.13 749,-1404.13 755,-1398.13 761,-1398.13 761,-1398.13 899,-1398.13 899,-1398.13 905,-1398.13 911,-1404.13 911,-1410.13 911,-1410.13 911,-1461.13 911,-1461.13 911,-1467.13 905,-1473.13 899,-1473.13"/>
<text text-anchor="middle" x="830" y="-1461.13" font-family="Helvetica,sans-Serif" font-size="10.00">UniverseDiscovery</text>
<text text-anchor="middle" x="830" y="-1438.13" font-family="Helvetica,sans-Serif" font-size="10.00">Scan JSONL data root</text>
<text text-anchor="middle" x="830" y="-1427.13" font-family="Helvetica,sans-Serif" font-size="10.00">Enumerate available symbols</text>
<text text-anchor="middle" x="830" y="-1416.13" font-family="Helvetica,sans-Serif" font-size="10.00">Date range validation</text>
<text text-anchor="middle" x="830" y="-1405.13" font-family="Helvetica,sans-Serif" font-size="10.00">Data availability check</text>
</g>
<!-- REQUEST&#45;&gt;UNIVERSE -->
<g id="edge2" class="edge">
<title>REQUEST&#45;&gt;UNIVERSE</title>
<path fill="none" stroke="#2b6cb0" stroke-width="2" d="M830,-1537.88C830,-1519.93 830,-1500.52 830,-1483.54"/>
<polygon fill="#2b6cb0" stroke="#2b6cb0" stroke-width="2" points="833.5,-1483.32 830,-1473.32 826.5,-1483.32 833.5,-1483.32"/>
<text text-anchor="middle" x="855.5" y="-1512.93" font-family="Helvetica,sans-Serif" font-size="9.00">1. Discover</text>
</g>
<!-- CLI -->
<g id="node2" class="node">
<title>CLI</title>
<path fill="#e9d5ff" stroke="black" d="M873,-1749.76C873,-1749.76 787,-1749.76 787,-1749.76 781,-1749.76 775,-1743.76 775,-1737.76 775,-1737.76 775,-1708.76 775,-1708.76 775,-1702.76 781,-1696.76 787,-1696.76 787,-1696.76 873,-1696.76 873,-1696.76 879,-1696.76 885,-1702.76 885,-1708.76 885,-1708.76 885,-1737.76 885,-1737.76 885,-1743.76 879,-1749.76 873,-1749.76"/>
<text text-anchor="middle" x="830" y="-1737.76" font-family="Helvetica,sans-Serif" font-size="10.00">CLI / REST API</text>
<text text-anchor="middle" x="830" y="-1714.76" font-family="Helvetica,sans-Serif" font-size="10.00">&#45;&#45;backfill &#45;&#45;strategy</text>
<text text-anchor="middle" x="830" y="-1703.76" font-family="Helvetica,sans-Serif" font-size="10.00">/api/backtest/run</text>
</g>
<!-- CLI&#45;&gt;REQUEST -->
<g id="edge1" class="edge">
<title>CLI&#45;&gt;REQUEST</title>
<path fill="none" stroke="#805ad5" d="M830,-1696.62C830,-1688.61 830,-1679.36 830,-1669.82"/>
<polygon fill="#805ad5" stroke="#805ad5" points="833.5,-1669.82 830,-1659.82 826.5,-1669.82 833.5,-1669.82"/>
</g>
<!-- DATA_ROOT -->
<g id="node4" class="node">
<title>DATA_ROOT</title>
<path fill="#93c5fd" stroke="black" d="M910.5,-1353.13C910.5,-1357.55 865.9,-1361.13 811,-1361.13 756.1,-1361.13 711.5,-1357.55 711.5,-1353.13 711.5,-1353.13 711.5,-1281.13 711.5,-1281.13 711.5,-1276.72 756.1,-1273.13 811,-1273.13 865.9,-1273.13 910.5,-1276.72 910.5,-1281.13 910.5,-1281.13 910.5,-1353.13 910.5,-1353.13"/>
<path fill="none" stroke="black" d="M910.5,-1353.13C910.5,-1348.72 865.9,-1345.13 811,-1345.13 756.1,-1345.13 711.5,-1348.72 711.5,-1353.13"/>
<text text-anchor="middle" x="811" y="-1337.13" font-family="Helvetica,sans-Serif" font-size="10.00">JSONL Data Root</text>
<text text-anchor="middle" x="811" y="-1314.13" font-family="Helvetica,sans-Serif" font-size="10.00">{root}/{symbol}/{type}/{date}.jsonl</text>
<text text-anchor="middle" x="811" y="-1303.13" font-family="Helvetica,sans-Serif" font-size="10.00">Per&#45;symbol, per&#45;type files</text>
<text text-anchor="middle" x="811" y="-1292.13" font-family="Helvetica,sans-Serif" font-size="10.00">Optional .gz compression</text>
</g>
<!-- UNIVERSE&#45;&gt;DATA_ROOT -->
<g id="edge3" class="edge">
<title>UNIVERSE&#45;&gt;DATA_ROOT</title>
<path fill="none" stroke="#2b6cb0" d="M824.04,-1398.09C822.66,-1389.66 821.17,-1380.51 819.71,-1371.52"/>
<polygon fill="#2b6cb0" stroke="#2b6cb0" points="823.13,-1370.79 818.07,-1361.49 816.23,-1371.92 823.13,-1370.79"/>
</g>
<!-- SIM_PORT -->
<g id="node5" class="node">
<title>SIM_PORT</title>
<path fill="#6ee7b7" stroke="black" d="M1141.5,-930.62C1141.5,-930.62 1046.5,-930.62 1046.5,-930.62 1040.5,-930.62 1034.5,-924.62 1034.5,-918.62 1034.5,-918.62 1034.5,-867.62 1034.5,-867.62 1034.5,-861.62 1040.5,-855.62 1046.5,-855.62 1046.5,-855.62 1141.5,-855.62 1141.5,-855.62 1147.5,-855.62 1153.5,-861.62 1153.5,-867.62 1153.5,-867.62 1153.5,-918.62 1153.5,-918.62 1153.5,-924.62 1147.5,-930.62 1141.5,-930.62"/>
<text text-anchor="middle" x="1094" y="-918.62" font-family="Helvetica,sans-Serif" font-size="10.00">SimulatedPortfolio</text>
<text text-anchor="middle" x="1094" y="-895.62" font-family="Helvetica,sans-Serif" font-size="10.00">Initial cash balance</text>
<text text-anchor="middle" x="1094" y="-884.62" font-family="Helvetica,sans-Serif" font-size="10.00">Position tracking</text>
<text text-anchor="middle" x="1094" y="-873.62" font-family="Helvetica,sans-Serif" font-size="10.00">Cash flow recording</text>
<text text-anchor="middle" x="1094" y="-862.62" font-family="Helvetica,sans-Serif" font-size="10.00">Asset event handling</text>
</g>
<!-- UNIVERSE&#45;&gt;SIM_PORT -->
<g id="edge4" class="edge">
<title>UNIVERSE&#45;&gt;SIM_PORT</title>
<path fill="none" stroke="#38a169" stroke-width="2" d="M911.1,-1422.54C969.85,-1408.65 1039,-1379.3 1039,-1318.13 1039,-1318.13 1039,-1318.13 1039,-1030.88 1039,-998.97 1052.05,-965.7 1065.43,-939.97"/>
<polygon fill="#38a169" stroke="#38a169" stroke-width="2" points="1068.69,-941.31 1070.36,-930.85 1062.53,-937.99 1068.69,-941.31"/>
<text text-anchor="middle" x="1059" y="-1168.43" font-family="Helvetica,sans-Serif" font-size="9.00">2. Setup</text>
</g>
<!-- STRATEGY_LOADER -->
<g id="node6" class="node">
<title>STRATEGY_LOADER</title>
<path fill="#6ee7b7" stroke="black" d="M1004.5,-930.62C1004.5,-930.62 873.5,-930.62 873.5,-930.62 867.5,-930.62 861.5,-924.62 861.5,-918.62 861.5,-918.62 861.5,-867.62 861.5,-867.62 861.5,-861.62 867.5,-855.62 873.5,-855.62 873.5,-855.62 1004.5,-855.62 1004.5,-855.62 1010.5,-855.62 1016.5,-861.62 1016.5,-867.62 1016.5,-867.62 1016.5,-918.62 1016.5,-918.62 1016.5,-924.62 1010.5,-930.62 1004.5,-930.62"/>
<text text-anchor="middle" x="939" y="-918.62" font-family="Helvetica,sans-Serif" font-size="10.00">StrategyPluginLoader</text>
<text text-anchor="middle" x="939" y="-895.62" font-family="Helvetica,sans-Serif" font-size="10.00">Dynamic assembly load</text>
<text text-anchor="middle" x="939" y="-884.62" font-family="Helvetica,sans-Serif" font-size="10.00">IStrategyLifecycle discovery</text>
<text text-anchor="middle" x="939" y="-873.62" font-family="Helvetica,sans-Serif" font-size="10.00">Instance creation via DI</text>
<text text-anchor="middle" x="939" y="-862.62" font-family="Helvetica,sans-Serif" font-size="10.00">Hot&#45;reload support</text>
</g>
<!-- UNIVERSE&#45;&gt;STRATEGY_LOADER -->
<g id="edge5" class="edge">
<title>UNIVERSE&#45;&gt;STRATEGY_LOADER</title>
<path fill="none" stroke="#38a169" d="M890.87,-1398.06C915.84,-1378.12 939,-1350.82 939,-1318.13 939,-1318.13 939,-1318.13 939,-1030.88 939,-1000.91 939,-967.24 939,-940.81"/>
<polygon fill="#38a169" stroke="#38a169" points="942.5,-940.69 939,-930.69 935.5,-940.69 942.5,-940.69"/>
</g>
<!-- REPLAYER -->
<g id="node10" class="node">
<title>REPLAYER</title>
<path fill="#fecaca" stroke="black" d="M438.5,-1208.13C438.5,-1208.13 293.5,-1208.13 293.5,-1208.13 287.5,-1208.13 281.5,-1202.13 281.5,-1196.13 281.5,-1196.13 281.5,-1145.13 281.5,-1145.13 281.5,-1139.13 287.5,-1133.13 293.5,-1133.13 293.5,-1133.13 438.5,-1133.13 438.5,-1133.13 444.5,-1133.13 450.5,-1139.13 450.5,-1145.13 450.5,-1145.13 450.5,-1196.13 450.5,-1196.13 450.5,-1202.13 444.5,-1208.13 438.5,-1208.13"/>
<text text-anchor="middle" x="366" y="-1196.13" font-family="Helvetica,sans-Serif" font-size="10.00">JsonlReplayer</text>
<text text-anchor="middle" x="366" y="-1173.13" font-family="Helvetica,sans-Serif" font-size="10.00">Per&#45;symbol JSONL reader</text>
<text text-anchor="middle" x="366" y="-1162.13" font-family="Helvetica,sans-Serif" font-size="10.00">Auto&#45;decompress .gz files</text>
<text text-anchor="middle" x="366" y="-1151.13" font-family="Helvetica,sans-Serif" font-size="10.00">Linq filtering by date/type</text>
<text text-anchor="middle" x="366" y="-1140.13" font-family="Helvetica,sans-Serif" font-size="10.00">Backpressure&#45;aware streaming</text>
</g>
<!-- DATA_ROOT&#45;&gt;REPLAYER -->
<g id="edge8" class="edge">
<title>DATA_ROOT&#45;&gt;REPLAYER</title>
<path fill="none" stroke="#c53030" stroke-width="2" d="M711.41,-1283.8C636.38,-1259.43 534.18,-1226.25 460.43,-1202.3"/>
<polygon fill="#c53030" stroke="#c53030" stroke-width="2" points="461.27,-1198.89 450.68,-1199.13 459.11,-1205.55 461.27,-1198.89"/>
<text text-anchor="middle" x="638" y="-1247.93" font-family="Helvetica,sans-Serif" font-size="9.00">3. Stream</text>
</g>
<!-- COMMISSION -->
<g id="node7" class="node">
<title>COMMISSION</title>
<path fill="#a7f3d0" stroke="black" d="M1141.5,-779.62C1141.5,-779.62 1014.5,-779.62 1014.5,-779.62 1008.5,-779.62 1002.5,-773.62 1002.5,-767.62 1002.5,-767.62 1002.5,-716.62 1002.5,-716.62 1002.5,-710.62 1008.5,-704.62 1014.5,-704.62 1014.5,-704.62 1141.5,-704.62 1141.5,-704.62 1147.5,-704.62 1153.5,-710.62 1153.5,-716.62 1153.5,-716.62 1153.5,-767.62 1153.5,-767.62 1153.5,-773.62 1147.5,-779.62 1141.5,-779.62"/>
<text text-anchor="middle" x="1078" y="-767.62" font-family="Helvetica,sans-Serif" font-size="10.00">Commission Models</text>
<text text-anchor="middle" x="1078" y="-744.62" font-family="Helvetica,sans-Serif" font-size="10.00">PerShareCommissionModel</text>
<text text-anchor="middle" x="1078" y="-733.62" font-family="Helvetica,sans-Serif" font-size="10.00">(e.g. $0.005/share)</text>
<text text-anchor="middle" x="1078" y="-722.62" font-family="Helvetica,sans-Serif" font-size="10.00">ZeroCommissionModel</text>
<text text-anchor="middle" x="1078" y="-711.62" font-family="Helvetica,sans-Serif" font-size="10.00">Custom ICommissionModel</text>
</g>
<!-- SIM_PORT&#45;&gt;COMMISSION -->
<g id="edge6" class="edge">
<title>SIM_PORT&#45;&gt;COMMISSION</title>
<path fill="none" stroke="#38a169" stroke-dasharray="5,2" d="M1090.04,-855.29C1087.92,-835.52 1085.28,-810.94 1083.02,-789.84"/>
<polygon fill="#38a169" stroke="#38a169" points="1086.49,-789.36 1081.94,-779.79 1079.53,-790.11 1086.49,-789.36"/>
</g>
<!-- LEDGER -->
<g id="node8" class="node">
<title>LEDGER</title>
<path fill="#a7f3d0" stroke="black" d="M970.5,-779.62C970.5,-779.62 873.5,-779.62 873.5,-779.62 867.5,-779.62 861.5,-773.62 861.5,-767.62 861.5,-767.62 861.5,-716.62 861.5,-716.62 861.5,-710.62 867.5,-704.62 873.5,-704.62 873.5,-704.62 970.5,-704.62 970.5,-704.62 976.5,-704.62 982.5,-710.62 982.5,-716.62 982.5,-716.62 982.5,-767.62 982.5,-767.62 982.5,-773.62 976.5,-779.62 970.5,-779.62"/>
<text text-anchor="middle" x="922" y="-767.62" font-family="Helvetica,sans-Serif" font-size="10.00">SimulatedLedger</text>
<text text-anchor="middle" x="922" y="-744.62" font-family="Helvetica,sans-Serif" font-size="10.00">Fill recording</text>
<text text-anchor="middle" x="922" y="-733.62" font-family="Helvetica,sans-Serif" font-size="10.00">P&amp;L tracking</text>
<text text-anchor="middle" x="922" y="-722.62" font-family="Helvetica,sans-Serif" font-size="10.00">Cash reconciliation</text>
<text text-anchor="middle" x="922" y="-711.62" font-family="Helvetica,sans-Serif" font-size="10.00">Dividend/Split events</text>
</g>
<!-- SIM_PORT&#45;&gt;LEDGER -->
<g id="edge7" class="edge">
<title>SIM_PORT&#45;&gt;LEDGER</title>
<path fill="none" stroke="#38a169" stroke-dasharray="5,2" d="M1044.77,-855.54C1028.29,-842.83 1010.05,-828.21 994,-814.12 984.32,-805.63 974.27,-796.17 964.86,-786.99"/>
<polygon fill="#38a169" stroke="#38a169" points="967.06,-784.24 957.47,-779.72 962.15,-789.23 967.06,-784.24"/>
</g>
<!-- DISPATCH -->
<g id="node12" class="node">
<title>DISPATCH</title>
<path fill="#81e6d9" stroke="black" d="M477,-785.12C477,-785.12 359,-785.12 359,-785.12 353,-785.12 347,-779.12 347,-773.12 347,-773.12 347,-711.12 347,-711.12 347,-705.12 353,-699.12 359,-699.12 359,-699.12 477,-699.12 477,-699.12 483,-699.12 489,-705.12 489,-711.12 489,-711.12 489,-773.12 489,-773.12 489,-779.12 483,-785.12 477,-785.12"/>
<text text-anchor="middle" x="418" y="-773.12" font-family="Helvetica,sans-Serif" font-size="10.00">BacktestEngine</text>
<text text-anchor="middle" x="418" y="-762.12" font-family="Helvetica,sans-Serif" font-size="10.00">(Event Router)</text>
<text text-anchor="middle" x="418" y="-739.12" font-family="Helvetica,sans-Serif" font-size="10.00">Route events to strategy</text>
<text text-anchor="middle" x="418" y="-728.12" font-family="Helvetica,sans-Serif" font-size="10.00">Manage simulation clock</text>
<text text-anchor="middle" x="418" y="-717.12" font-family="Helvetica,sans-Serif" font-size="10.00">Apply fill model on orders</text>
<text text-anchor="middle" x="418" y="-706.12" font-family="Helvetica,sans-Serif" font-size="10.00">Day&#45;end processing</text>
</g>
<!-- STRATEGY_LOADER&#45;&gt;DISPATCH -->
<g id="edge31" class="edge">
<title>STRATEGY_LOADER&#45;&gt;DISPATCH</title>
<path fill="none" stroke="#2c7a7b" stroke-dasharray="5,2" d="M878.63,-855.58C868.93,-850.6 858.85,-845.9 849,-842.12 731.32,-796.96 587.32,-769.01 499.16,-754.77"/>
<polygon fill="#2c7a7b" stroke="#2c7a7b" points="499.65,-751.3 489.22,-753.18 498.54,-758.21 499.65,-751.3"/>
<text text-anchor="middle" x="856" y="-824.92" font-family="Helvetica,sans-Serif" font-size="9.00">IStrategyLifecycle</text>
</g>
<!-- MERGE -->
<g id="node9" class="node">
<title>MERGE</title>
<path fill="#fc8181" stroke="black" d="M444,-1069.38C444,-1069.38 274,-1069.38 274,-1069.38 268,-1069.38 262,-1063.38 262,-1057.38 262,-1057.38 262,-1006.38 262,-1006.38 262,-1000.38 268,-994.38 274,-994.38 274,-994.38 444,-994.38 444,-994.38 450,-994.38 456,-1000.38 456,-1006.38 456,-1006.38 456,-1057.38 456,-1057.38 456,-1063.38 450,-1069.38 444,-1069.38"/>
<text text-anchor="middle" x="359" y="-1057.38" font-family="Helvetica,sans-Serif" font-size="10.00" fill="white">MultiSymbolMergeEnumerator</text>
<text text-anchor="middle" x="359" y="-1034.38" font-family="Helvetica,sans-Serif" font-size="10.00" fill="white">Async merge of per&#45;symbol streams</text>
<text text-anchor="middle" x="359" y="-1023.38" font-family="Helvetica,sans-Serif" font-size="10.00" fill="white">Timestamp&#45;ordered priority queue</text>
<text text-anchor="middle" x="359" y="-1012.38" font-family="Helvetica,sans-Serif" font-size="10.00" fill="white">IAsyncEnumerable&lt;MarketEvent&gt;</text>
<text text-anchor="middle" x="359" y="-1001.38" font-family="Helvetica,sans-Serif" font-size="10.00" fill="white">Global chronological ordering</text>
</g>
<!-- CTX -->
<g id="node11" class="node">
<title>CTX</title>
<path fill="#fecaca" stroke="black" d="M354,-936.12C354,-936.12 230,-936.12 230,-936.12 224,-936.12 218,-930.12 218,-924.12 218,-924.12 218,-862.12 218,-862.12 218,-856.12 224,-850.12 230,-850.12 230,-850.12 354,-850.12 354,-850.12 360,-850.12 366,-856.12 366,-862.12 366,-862.12 366,-924.12 366,-924.12 366,-930.12 360,-936.12 354,-936.12"/>
<text text-anchor="middle" x="292" y="-924.12" font-family="Helvetica,sans-Serif" font-size="10.00">BacktestContext</text>
<text text-anchor="middle" x="292" y="-901.12" font-family="Helvetica,sans-Serif" font-size="10.00">Current simulation time</text>
<text text-anchor="middle" x="292" y="-890.12" font-family="Helvetica,sans-Serif" font-size="10.00">Active portfolio snapshot</text>
<text text-anchor="middle" x="292" y="-879.12" font-family="Helvetica,sans-Serif" font-size="10.00">Pending orders queue</text>
<text text-anchor="middle" x="292" y="-868.12" font-family="Helvetica,sans-Serif" font-size="10.00">Symbol universe reference</text>
<text text-anchor="middle" x="292" y="-857.12" font-family="Helvetica,sans-Serif" font-size="10.00">Market depth snapshot</text>
</g>
<!-- MERGE&#45;&gt;CTX -->
<g id="edge10" class="edge">
<title>MERGE&#45;&gt;CTX</title>
<path fill="none" stroke="#c53030" stroke-dasharray="5,2" d="M341.05,-994.23C333.72,-979.28 325.13,-961.74 317.19,-945.55"/>
<polygon fill="#c53030" stroke="#c53030" points="320.16,-943.64 312.61,-936.2 313.87,-946.72 320.16,-943.64"/>
</g>
<!-- MERGE&#45;&gt;DISPATCH -->
<g id="edge11" class="edge">
<title>MERGE&#45;&gt;DISPATCH</title>
<path fill="none" stroke="#2c7a7b" stroke-width="2" d="M367.4,-994.3C369.9,-983.18 372.61,-970.91 375,-959.62 386.85,-903.63 399.51,-839.27 408,-795.38"/>
<polygon fill="#2c7a7b" stroke="#2c7a7b" stroke-width="2" points="411.45,-795.99 409.91,-785.5 404.57,-794.66 411.45,-795.99"/>
<text text-anchor="middle" x="424" y="-890.92" font-family="Helvetica,sans-Serif" font-size="9.00">4. Dispatch</text>
</g>
<!-- REPLAYER&#45;&gt;MERGE -->
<g id="edge9" class="edge">
<title>REPLAYER&#45;&gt;MERGE</title>
<path fill="none" stroke="#c53030" stroke-width="2" d="M364.12,-1132.99C363.29,-1116.74 362.3,-1097.42 361.42,-1080.1"/>
<polygon fill="#c53030" stroke="#c53030" stroke-width="2" points="364.89,-1079.44 360.88,-1069.63 357.9,-1079.79 364.89,-1079.44"/>
</g>
<!-- CTX&#45;&gt;DISPATCH -->
<g id="edge32" class="edge">
<title>CTX&#45;&gt;DISPATCH</title>
<path fill="none" stroke="#c53030" stroke-dasharray="5,2" d="M327.77,-849.83C342.73,-832.13 360.23,-811.44 375.81,-793.02"/>
<polygon fill="#c53030" stroke="#c53030" points="378.57,-795.17 382.36,-785.27 373.23,-790.65 378.57,-795.17"/>
</g>
<!-- ON_BAR -->
<g id="node13" class="node">
<title>ON_BAR</title>
<polygon fill="#b2f5ea" stroke="black" points="507.5,-611.62 398.5,-611.62 398.5,-570.62 513.5,-570.62 513.5,-605.62 507.5,-611.62"/>
<polyline fill="none" stroke="black" points="507.5,-611.62 507.5,-605.62 "/>
<polyline fill="none" stroke="black" points="513.5,-605.62 507.5,-605.62 "/>
<text text-anchor="middle" x="456" y="-599.62" font-family="Helvetica,sans-Serif" font-size="10.00">OnBarClosed(bar)</text>
<text text-anchor="middle" x="456" y="-588.62" font-family="Helvetica,sans-Serif" font-size="10.00">OHLCV + volume</text>
<text text-anchor="middle" x="456" y="-577.62" font-family="Helvetica,sans-Serif" font-size="10.00">Session close signal</text>
</g>
<!-- DISPATCH&#45;&gt;ON_BAR -->
<g id="edge12" class="edge">
<title>DISPATCH&#45;&gt;ON_BAR</title>
<path fill="none" stroke="#2c7a7b" stroke-dasharray="5,2" d="M428.79,-698.83C435.08,-674.17 442.85,-643.68 448.48,-621.62"/>
<polygon fill="#2c7a7b" stroke="#2c7a7b" points="451.9,-622.38 450.98,-611.82 445.11,-620.65 451.9,-622.38"/>
</g>
<!-- ON_TRADE -->
<g id="node14" class="node">
<title>ON_TRADE</title>
<polygon fill="#b2f5ea" stroke="black" points="640,-611.62 532,-611.62 532,-570.62 646,-570.62 646,-605.62 640,-611.62"/>
<polyline fill="none" stroke="black" points="640,-611.62 640,-605.62 "/>
<polyline fill="none" stroke="black" points="646,-605.62 640,-605.62 "/>
<text text-anchor="middle" x="589" y="-599.62" font-family="Helvetica,sans-Serif" font-size="10.00">OnTrade(trade)</text>
<text text-anchor="middle" x="589" y="-588.62" font-family="Helvetica,sans-Serif" font-size="10.00">Tick&#45;level price/size</text>
<text text-anchor="middle" x="589" y="-577.62" font-family="Helvetica,sans-Serif" font-size="10.00">Aggressor side</text>
</g>
<!-- DISPATCH&#45;&gt;ON_TRADE -->
<g id="edge13" class="edge">
<title>DISPATCH&#45;&gt;ON_TRADE</title>
<path fill="none" stroke="#2c7a7b" stroke-dasharray="5,2" d="M478.63,-699.02C493.56,-687.86 509.21,-675.47 523,-663.12 538.09,-649.61 553.58,-633.11 565.76,-619.41"/>
<polygon fill="#2c7a7b" stroke="#2c7a7b" points="568.55,-621.54 572.52,-611.72 563.29,-616.92 568.55,-621.54"/>
</g>
<!-- ON_QUOTE -->
<g id="node15" class="node">
<title>ON_QUOTE</title>
<polygon fill="#b2f5ea" stroke="black" points="122,-611.62 24,-611.62 24,-570.62 128,-570.62 128,-605.62 122,-611.62"/>
<polyline fill="none" stroke="black" points="122,-611.62 122,-605.62 "/>
<polyline fill="none" stroke="black" points="128,-605.62 122,-605.62 "/>
<text text-anchor="middle" x="76" y="-599.62" font-family="Helvetica,sans-Serif" font-size="10.00">OnQuote(bbo)</text>
<text text-anchor="middle" x="76" y="-588.62" font-family="Helvetica,sans-Serif" font-size="10.00">Bid/Ask spread</text>
<text text-anchor="middle" x="76" y="-577.62" font-family="Helvetica,sans-Serif" font-size="10.00">Mid&#45;price updates</text>
</g>
<!-- DISPATCH&#45;&gt;ON_QUOTE -->
<g id="edge14" class="edge">
<title>DISPATCH&#45;&gt;ON_QUOTE</title>
<path fill="none" stroke="#2c7a7b" stroke-dasharray="5,2" d="M346.94,-733.12C287.13,-723.76 201.32,-703.98 137,-663.12 119.8,-652.2 104.81,-634.94 94,-620.18"/>
<polygon fill="#2c7a7b" stroke="#2c7a7b" points="96.75,-618 88.13,-611.84 91.03,-622.03 96.75,-618"/>
</g>
<!-- ON_DEPTH -->
<g id="node16" class="node">
<title>ON_DEPTH</title>
<polygon fill="#b2f5ea" stroke="black" points="252,-611.62 146,-611.62 146,-570.62 258,-570.62 258,-605.62 252,-611.62"/>
<polyline fill="none" stroke="black" points="252,-611.62 252,-605.62 "/>
<polyline fill="none" stroke="black" points="258,-605.62 252,-605.62 "/>
<text text-anchor="middle" x="202" y="-599.62" font-family="Helvetica,sans-Serif" font-size="10.00">OnDepth(lob)</text>
<text text-anchor="middle" x="202" y="-588.62" font-family="Helvetica,sans-Serif" font-size="10.00">L2 order book</text>
<text text-anchor="middle" x="202" y="-577.62" font-family="Helvetica,sans-Serif" font-size="10.00">Full depth snapshot</text>
</g>
<!-- DISPATCH&#45;&gt;ON_DEPTH -->
<g id="edge15" class="edge">
<title>DISPATCH&#45;&gt;ON_DEPTH</title>
<path fill="none" stroke="#2c7a7b" stroke-dasharray="5,2" d="M346.91,-710.82C320.58,-697.98 291.25,-681.68 267,-663.12 250.69,-650.65 235.06,-633.79 223.22,-619.63"/>
<polygon fill="#2c7a7b" stroke="#2c7a7b" points="225.74,-617.19 216.71,-611.66 220.32,-621.62 225.74,-617.19"/>
</g>
<!-- ON_ASSET -->
<g id="node17" class="node">
<title>ON_ASSET</title>
<polygon fill="#b2f5ea" stroke="black" points="374,-611.62 276,-611.62 276,-570.62 380,-570.62 380,-605.62 374,-611.62"/>
<polyline fill="none" stroke="black" points="374,-611.62 374,-605.62 "/>
<polyline fill="none" stroke="black" points="380,-605.62 374,-605.62 "/>
<text text-anchor="middle" x="328" y="-599.62" font-family="Helvetica,sans-Serif" font-size="10.00">OnAssetEvent(ev)</text>
<text text-anchor="middle" x="328" y="-588.62" font-family="Helvetica,sans-Serif" font-size="10.00">Dividends, splits</text>
<text text-anchor="middle" x="328" y="-577.62" font-family="Helvetica,sans-Serif" font-size="10.00">Corporate actions</text>
</g>
<!-- DISPATCH&#45;&gt;ON_ASSET -->
<g id="edge16" class="edge">
<title>DISPATCH&#45;&gt;ON_ASSET</title>
<path fill="none" stroke="#2c7a7b" stroke-dasharray="5,2" d="M392.45,-698.83C377.29,-673.72 358.47,-642.57 345.1,-620.43"/>
<polygon fill="#2c7a7b" stroke="#2c7a7b" points="348.07,-618.57 339.9,-611.82 342.07,-622.19 348.07,-618.57"/>
</g>
<!-- FILL_IFACE -->
<g id="node18" class="node">
<title>FILL_IFACE</title>
<ellipse fill="#fbd38d" stroke="black" cx="638" cy="-1031.88" rx="106.13" ry="45.01"/>
<text text-anchor="middle" x="638" y="-1051.88" font-family="Helvetica,sans-Serif" font-size="10.00">IFillModel</text>
<text text-anchor="middle" x="638" y="-1040.88" font-family="Helvetica,sans-Serif" font-size="10.00">[Interface]</text>
<text text-anchor="middle" x="638" y="-1017.88" font-family="Helvetica,sans-Serif" font-size="10.00">SimulateFill(order, context)</text>
<text text-anchor="middle" x="638" y="-1006.88" font-family="Helvetica,sans-Serif" font-size="10.00">Returns Fill or null</text>
</g>
<!-- DISPATCH&#45;&gt;FILL_IFACE -->
<g id="edge17" class="edge">
<title>DISPATCH&#45;&gt;FILL_IFACE</title>
<path fill="none" stroke="#ed8936" stroke-width="2" d="M441.59,-785.15C450.66,-802.44 460.61,-822.89 468,-842.12 487.41,-892.65 465.97,-917.54 500,-959.62 512.63,-975.25 529.6,-987.81 547.32,-997.77"/>
<polygon fill="#ed8936" stroke="#ed8936" stroke-width="2" points="546.16,-1001.12 556.63,-1002.75 549.46,-994.95 546.16,-1001.12"/>
<text text-anchor="middle" x="512" y="-890.92" font-family="Helvetica,sans-Serif" font-size="9.00">5. Fill</text>
</g>
<!-- DAY_END -->
<g id="node21" class="node">
<title>DAY_END</title>
<path fill="#ddd6fe" stroke="black" d="M803.5,-634.12C803.5,-634.12 690.5,-634.12 690.5,-634.12 684.5,-634.12 678.5,-628.12 678.5,-622.12 678.5,-622.12 678.5,-560.12 678.5,-560.12 678.5,-554.12 684.5,-548.12 690.5,-548.12 690.5,-548.12 803.5,-548.12 803.5,-548.12 809.5,-548.12 815.5,-554.12 815.5,-560.12 815.5,-560.12 815.5,-622.12 815.5,-622.12 815.5,-628.12 809.5,-634.12 803.5,-634.12"/>
<text text-anchor="middle" x="747" y="-622.12" font-family="Helvetica,sans-Serif" font-size="10.00">Day&#45;End Closure</text>
<text text-anchor="middle" x="747" y="-599.12" font-family="Helvetica,sans-Serif" font-size="10.00">Portfolio snapshot (EOD)</text>
<text text-anchor="middle" x="747" y="-588.12" font-family="Helvetica,sans-Serif" font-size="10.00">P&amp;L mark&#45;to&#45;market</text>
<text text-anchor="middle" x="747" y="-577.12" font-family="Helvetica,sans-Serif" font-size="10.00">Cash flow recording</text>
<text text-anchor="middle" x="747" y="-566.12" font-family="Helvetica,sans-Serif" font-size="10.00">Apply dividends/splits</text>
<text text-anchor="middle" x="747" y="-555.12" font-family="Helvetica,sans-Serif" font-size="10.00">Expire day orders</text>
</g>
<!-- DISPATCH&#45;&gt;DAY_END -->
<g id="edge22" class="edge">
<title>DISPATCH&#45;&gt;DAY_END</title>
<path fill="none" stroke="#805ad5" stroke-width="2" d="M489.23,-725.16C538.47,-712.43 604.47,-691.94 658,-663.12 669.79,-656.78 681.57,-648.82 692.52,-640.55"/>
<polygon fill="#805ad5" stroke="#805ad5" stroke-width="2" points="694.97,-643.08 700.72,-634.18 690.68,-637.55 694.97,-643.08"/>
<text text-anchor="middle" x="655" y="-673.92" font-family="Helvetica,sans-Serif" font-size="9.00">6. EOD</text>
</g>
<!-- OB_FILL -->
<g id="node19" class="node">
<title>OB_FILL</title>
<path fill="#feebc8" stroke="black" d="M663.5,-930.62C663.5,-930.62 544.5,-930.62 544.5,-930.62 538.5,-930.62 532.5,-924.62 532.5,-918.62 532.5,-918.62 532.5,-867.62 532.5,-867.62 532.5,-861.62 538.5,-855.62 544.5,-855.62 544.5,-855.62 663.5,-855.62 663.5,-855.62 669.5,-855.62 675.5,-861.62 675.5,-867.62 675.5,-867.62 675.5,-918.62 675.5,-918.62 675.5,-924.62 669.5,-930.62 663.5,-930.62"/>
<text text-anchor="middle" x="604" y="-918.62" font-family="Helvetica,sans-Serif" font-size="10.00">OrderBookFillModel</text>
<text text-anchor="middle" x="604" y="-895.62" font-family="Helvetica,sans-Serif" font-size="10.00">Uses L2 order book</text>
<text text-anchor="middle" x="604" y="-884.62" font-family="Helvetica,sans-Serif" font-size="10.00">Slippage from book depth</text>
<text text-anchor="middle" x="604" y="-873.62" font-family="Helvetica,sans-Serif" font-size="10.00">Liquidity&#45;constrained fills</text>
<text text-anchor="middle" x="604" y="-862.62" font-family="Helvetica,sans-Serif" font-size="10.00">Partial fills supported</text>
</g>
<!-- FILL_IFACE&#45;&gt;OB_FILL -->
<g id="edge18" class="edge">
<title>FILL_IFACE&#45;&gt;OB_FILL</title>
<path fill="none" stroke="#4a5568" stroke-dasharray="5,2" d="M627.06,-986.86C623.4,-972.14 619.31,-955.69 615.6,-940.78"/>
<polygon fill="#4a5568" stroke="#4a5568" points="618.91,-939.6 613.1,-930.74 612.12,-941.29 618.91,-939.6"/>
</g>
<!-- BAR_FILL -->
<g id="node20" class="node">
<title>BAR_FILL</title>
<path fill="#feebc8" stroke="black" d="M824.5,-930.62C824.5,-930.62 705.5,-930.62 705.5,-930.62 699.5,-930.62 693.5,-924.62 693.5,-918.62 693.5,-918.62 693.5,-867.62 693.5,-867.62 693.5,-861.62 699.5,-855.62 705.5,-855.62 705.5,-855.62 824.5,-855.62 824.5,-855.62 830.5,-855.62 836.5,-861.62 836.5,-867.62 836.5,-867.62 836.5,-918.62 836.5,-918.62 836.5,-924.62 830.5,-930.62 824.5,-930.62"/>
<text text-anchor="middle" x="765" y="-918.62" font-family="Helvetica,sans-Serif" font-size="10.00">BarMidpointFillModel</text>
<text text-anchor="middle" x="765" y="-895.62" font-family="Helvetica,sans-Serif" font-size="10.00">Fills at bar midpoint</text>
<text text-anchor="middle" x="765" y="-884.62" font-family="Helvetica,sans-Serif" font-size="10.00">(High + Low) / 2</text>
<text text-anchor="middle" x="765" y="-873.62" font-family="Helvetica,sans-Serif" font-size="10.00">Simpler, faster simulation</text>
<text text-anchor="middle" x="765" y="-862.62" font-family="Helvetica,sans-Serif" font-size="10.00">No partial fills</text>
</g>
<!-- FILL_IFACE&#45;&gt;BAR_FILL -->
<g id="edge19" class="edge">
<title>FILL_IFACE&#45;&gt;BAR_FILL</title>
<path fill="none" stroke="#4a5568" stroke-dasharray="5,2" d="M676.45,-989.48C691.52,-973.25 708.83,-954.61 724.12,-938.14"/>
<polygon fill="#4a5568" stroke="#4a5568" points="726.75,-940.46 730.99,-930.75 721.62,-935.69 726.75,-940.46"/>
</g>
<!-- OB_FILL&#45;&gt;LEDGER -->
<g id="edge20" class="edge">
<title>OB_FILL&#45;&gt;LEDGER</title>
<path fill="none" stroke="#38a169" d="M660.88,-855.47C668.87,-850.78 677.06,-846.2 685,-842.12 739.67,-814.06 804.16,-787.52 852.05,-769"/>
<polygon fill="#38a169" stroke="#38a169" points="853.33,-772.26 861.4,-765.4 850.81,-765.72 853.33,-772.26"/>
</g>
<!-- BAR_FILL&#45;&gt;LEDGER -->
<g id="edge21" class="edge">
<title>BAR_FILL&#45;&gt;LEDGER</title>
<path fill="none" stroke="#38a169" d="M780.66,-855.39C786.61,-843.96 794.13,-831.82 803,-822.12 817.24,-806.56 835.16,-792.62 852.74,-780.93"/>
<polygon fill="#38a169" stroke="#38a169" points="854.83,-783.75 861.32,-775.38 851.03,-777.87 854.83,-783.75"/>
</g>
<!-- SNAPSHOTS -->
<g id="node22" class="node">
<title>SNAPSHOTS</title>
<path fill="#c4b5fd" stroke="black" d="M803,-501.8C803,-506.98 777.9,-511.19 747,-511.19 716.1,-511.19 691,-506.98 691,-501.8 691,-501.8 691,-417.32 691,-417.32 691,-412.14 716.1,-407.94 747,-407.94 777.9,-407.94 803,-412.14 803,-417.32 803,-417.32 803,-501.8 803,-501.8"/>
<path fill="none" stroke="black" d="M803,-501.8C803,-496.62 777.9,-492.41 747,-492.41 716.1,-492.41 691,-496.62 691,-501.8"/>
<text text-anchor="middle" x="747" y="-485.06" font-family="Helvetica,sans-Serif" font-size="10.00">Portfolio Snapshots</text>
<text text-anchor="middle" x="747" y="-462.06" font-family="Helvetica,sans-Serif" font-size="10.00">Timestamped state</text>
<text text-anchor="middle" x="747" y="-451.06" font-family="Helvetica,sans-Serif" font-size="10.00">Positions + cash</text>
<text text-anchor="middle" x="747" y="-440.06" font-family="Helvetica,sans-Serif" font-size="10.00">Running P&amp;L</text>
<text text-anchor="middle" x="747" y="-429.06" font-family="Helvetica,sans-Serif" font-size="10.00">Exposure metrics</text>
</g>
<!-- DAY_END&#45;&gt;SNAPSHOTS -->
<g id="edge23" class="edge">
<title>DAY_END&#45;&gt;SNAPSHOTS</title>
<path fill="none" stroke="#805ad5" d="M747,-548.06C747,-539.58 747,-530.5 747,-521.52"/>
<polygon fill="#805ad5" stroke="#805ad5" points="750.5,-521.46 747,-511.46 743.5,-521.46 750.5,-521.46"/>
</g>
<!-- METRICS_ENGINE -->
<g id="node23" class="node">
<title>METRICS_ENGINE</title>
<path fill="#93c5fd" stroke="black" d="M808.5,-343C808.5,-343 685.5,-343 685.5,-343 679.5,-343 673.5,-337 673.5,-331 673.5,-331 673.5,-291 673.5,-291 673.5,-285 679.5,-279 685.5,-279 685.5,-279 808.5,-279 808.5,-279 814.5,-279 820.5,-285 820.5,-291 820.5,-291 820.5,-331 820.5,-331 820.5,-337 814.5,-343 808.5,-343"/>
<text text-anchor="middle" x="747" y="-331" font-family="Helvetica,sans-Serif" font-size="10.00">BacktestMetricsEngine</text>
<text text-anchor="middle" x="747" y="-308" font-family="Helvetica,sans-Serif" font-size="10.00">Full portfolio time series</text>
<text text-anchor="middle" x="747" y="-297" font-family="Helvetica,sans-Serif" font-size="10.00">Cash flow schedule</text>
<text text-anchor="middle" x="747" y="-286" font-family="Helvetica,sans-Serif" font-size="10.00">Composite metrics scoring</text>
</g>
<!-- SNAPSHOTS&#45;&gt;METRICS_ENGINE -->
<g id="edge24" class="edge">
<title>SNAPSHOTS&#45;&gt;METRICS_ENGINE</title>
<path fill="none" stroke="#2b6cb0" stroke-width="2" d="M747,-407.71C747,-389.91 747,-370.16 747,-353.24"/>
<polygon fill="#2b6cb0" stroke="#2b6cb0" stroke-width="2" points="750.5,-353.11 747,-343.11 743.5,-353.11 750.5,-353.11"/>
<text text-anchor="middle" x="769.5" y="-382.8" font-family="Helvetica,sans-Serif" font-size="9.00">7. Metrics</text>
</g>
<!-- RETURNS -->
<g id="node24" class="node">
<title>RETURNS</title>
<polygon fill="#bfdbfe" stroke="black" points="800.5,-202.5 687.5,-202.5 687.5,-139.5 806.5,-139.5 806.5,-196.5 800.5,-202.5"/>
<polyline fill="none" stroke="black" points="800.5,-202.5 800.5,-196.5 "/>
<polyline fill="none" stroke="black" points="806.5,-196.5 800.5,-196.5 "/>
<text text-anchor="middle" x="747" y="-190.5" font-family="Helvetica,sans-Serif" font-size="10.00">Return Metrics:</text>
<text text-anchor="middle" x="747" y="-179.5" font-family="Helvetica,sans-Serif" font-size="10.00">• Total return %</text>
<text text-anchor="middle" x="747" y="-168.5" font-family="Helvetica,sans-Serif" font-size="10.00">• Annualized return</text>
<text text-anchor="middle" x="747" y="-157.5" font-family="Helvetica,sans-Serif" font-size="10.00">• XIRR (internal rate)</text>
<text text-anchor="middle" x="747" y="-146.5" font-family="Helvetica,sans-Serif" font-size="10.00">• CAGR</text>
</g>
<!-- METRICS_ENGINE&#45;&gt;RETURNS -->
<g id="edge25" class="edge">
<title>METRICS_ENGINE&#45;&gt;RETURNS</title>
<path fill="none" stroke="#4a5568" stroke-dasharray="5,2" d="M747,-278.69C747,-259.23 747,-234.01 747,-212.97"/>
<polygon fill="#4a5568" stroke="#4a5568" points="750.5,-212.72 747,-202.72 743.5,-212.72 750.5,-212.72"/>
</g>
<!-- RISK -->
<g id="node25" class="node">
<title>RISK</title>
<polygon fill="#bfdbfe" stroke="black" points="532.5,-208 425.5,-208 425.5,-134 538.5,-134 538.5,-202 532.5,-208"/>
<polyline fill="none" stroke="black" points="532.5,-208 532.5,-202 "/>
<polyline fill="none" stroke="black" points="538.5,-202 532.5,-202 "/>
<text text-anchor="middle" x="482" y="-196" font-family="Helvetica,sans-Serif" font-size="10.00">Risk Metrics:</text>
<text text-anchor="middle" x="482" y="-185" font-family="Helvetica,sans-Serif" font-size="10.00">• Sharpe ratio</text>
<text text-anchor="middle" x="482" y="-174" font-family="Helvetica,sans-Serif" font-size="10.00">• Sortino ratio</text>
<text text-anchor="middle" x="482" y="-163" font-family="Helvetica,sans-Serif" font-size="10.00">• Max drawdown %</text>
<text text-anchor="middle" x="482" y="-152" font-family="Helvetica,sans-Serif" font-size="10.00">• Calmar ratio</text>
<text text-anchor="middle" x="482" y="-141" font-family="Helvetica,sans-Serif" font-size="10.00">• VaR (95th pct)</text>
</g>
<!-- METRICS_ENGINE&#45;&gt;RISK -->
<g id="edge26" class="edge">
<title>METRICS_ENGINE&#45;&gt;RISK</title>
<path fill="none" stroke="#4a5568" stroke-dasharray="5,2" d="M673.13,-294.49C633.85,-284.01 585.98,-267.52 548,-243 536.51,-235.58 525.66,-225.71 516.21,-215.7"/>
<polygon fill="#4a5568" stroke="#4a5568" points="518.58,-213.11 509.26,-208.06 513.39,-217.81 518.58,-213.11"/>
</g>
<!-- TRADE_STATS -->
<g id="node26" class="node">
<title>TRADE_STATS</title>
<polygon fill="#bfdbfe" stroke="black" points="663.5,-208 556.5,-208 556.5,-134 669.5,-134 669.5,-202 663.5,-208"/>
<polyline fill="none" stroke="black" points="663.5,-208 663.5,-202 "/>
<polyline fill="none" stroke="black" points="669.5,-202 663.5,-202 "/>
<text text-anchor="middle" x="613" y="-196" font-family="Helvetica,sans-Serif" font-size="10.00">Trade Statistics:</text>
<text text-anchor="middle" x="613" y="-185" font-family="Helvetica,sans-Serif" font-size="10.00">• Win rate %</text>
<text text-anchor="middle" x="613" y="-174" font-family="Helvetica,sans-Serif" font-size="10.00">• Profit factor</text>
<text text-anchor="middle" x="613" y="-163" font-family="Helvetica,sans-Serif" font-size="10.00">• Avg win / Avg loss</text>
<text text-anchor="middle" x="613" y="-152" font-family="Helvetica,sans-Serif" font-size="10.00">• Largest win/loss</text>
<text text-anchor="middle" x="613" y="-141" font-family="Helvetica,sans-Serif" font-size="10.00">• Trade count</text>
</g>
<!-- METRICS_ENGINE&#45;&gt;TRADE_STATS -->
<g id="edge27" class="edge">
<title>METRICS_ENGINE&#45;&gt;TRADE_STATS</title>
<path fill="none" stroke="#4a5568" stroke-dasharray="5,2" d="M714.89,-278.93C703.45,-267.71 690.55,-254.89 679,-243 670.48,-234.23 661.48,-224.72 652.96,-215.59"/>
<polygon fill="#4a5568" stroke="#4a5568" points="655.31,-212.98 645.93,-208.04 650.18,-217.75 655.31,-212.98"/>
</g>
<!-- XIRR -->
<g id="node27" class="node">
<title>XIRR</title>
<path fill="#bfdbfe" stroke="black" d="M945.5,-208.5C945.5,-208.5 836.5,-208.5 836.5,-208.5 830.5,-208.5 824.5,-202.5 824.5,-196.5 824.5,-196.5 824.5,-145.5 824.5,-145.5 824.5,-139.5 830.5,-133.5 836.5,-133.5 836.5,-133.5 945.5,-133.5 945.5,-133.5 951.5,-133.5 957.5,-139.5 957.5,-145.5 957.5,-145.5 957.5,-196.5 957.5,-196.5 957.5,-202.5 951.5,-208.5 945.5,-208.5"/>
<text text-anchor="middle" x="891" y="-196.5" font-family="Helvetica,sans-Serif" font-size="10.00">XirrCalculator</text>
<text text-anchor="middle" x="891" y="-173.5" font-family="Helvetica,sans-Serif" font-size="10.00">Newton&#45;Raphson solver</text>
<text text-anchor="middle" x="891" y="-162.5" font-family="Helvetica,sans-Serif" font-size="10.00">Cash flow schedule</text>
<text text-anchor="middle" x="891" y="-151.5" font-family="Helvetica,sans-Serif" font-size="10.00">Date&#45;weighted IRR</text>
<text text-anchor="middle" x="891" y="-140.5" font-family="Helvetica,sans-Serif" font-size="10.00">Handles multi&#45;currency</text>
</g>
<!-- METRICS_ENGINE&#45;&gt;XIRR -->
<g id="edge28" class="edge">
<title>METRICS_ENGINE&#45;&gt;XIRR</title>
<path fill="none" stroke="#2b6cb0" d="M780.89,-278.84C792.99,-267.62 806.67,-254.81 819,-243 828.1,-234.28 837.76,-224.87 846.95,-215.83"/>
<polygon fill="#2b6cb0" stroke="#2b6cb0" points="849.54,-218.2 854.2,-208.69 844.62,-213.22 849.54,-218.2"/>
</g>
<!-- RUN_ENTRY -->
<g id="node28" class="node">
<title>RUN_ENTRY</title>
<path fill="#6ee7b7" stroke="black" d="M1100.5,-214C1100.5,-214 997.5,-214 997.5,-214 991.5,-214 985.5,-208 985.5,-202 985.5,-202 985.5,-140 985.5,-140 985.5,-134 991.5,-128 997.5,-128 997.5,-128 1100.5,-128 1100.5,-128 1106.5,-128 1112.5,-134 1112.5,-140 1112.5,-140 1112.5,-202 1112.5,-202 1112.5,-208 1106.5,-214 1100.5,-214"/>
<text text-anchor="middle" x="1049" y="-202" font-family="Helvetica,sans-Serif" font-size="10.00">StrategyRunEntry</text>
<text text-anchor="middle" x="1049" y="-179" font-family="Helvetica,sans-Serif" font-size="10.00">Run metadata + dates</text>
<text text-anchor="middle" x="1049" y="-168" font-family="Helvetica,sans-Serif" font-size="10.00">Symbol universe used</text>
<text text-anchor="middle" x="1049" y="-157" font-family="Helvetica,sans-Serif" font-size="10.00">Total P&amp;L summary</text>
<text text-anchor="middle" x="1049" y="-146" font-family="Helvetica,sans-Serif" font-size="10.00">Full metrics report</text>
<text text-anchor="middle" x="1049" y="-135" font-family="Helvetica,sans-Serif" font-size="10.00">Trade/fill journal</text>
</g>
<!-- METRICS_ENGINE&#45;&gt;RUN_ENTRY -->
<g id="edge29" class="edge">
<title>METRICS_ENGINE&#45;&gt;RUN_ENTRY</title>
<path fill="none" stroke="#38a169" stroke-width="2" d="M820.53,-296.47C865.65,-286.14 923.48,-269.14 970,-243 980.91,-236.87 991.59,-229 1001.39,-220.74"/>
<polygon fill="#38a169" stroke="#38a169" stroke-width="2" points="1003.81,-223.28 1009.05,-214.07 999.21,-218 1003.81,-223.28"/>
<text text-anchor="middle" x="975.5" y="-253.8" font-family="Helvetica,sans-Serif" font-size="9.00">8. Output</text>
</g>
<!-- COMPARE -->
<g id="node29" class="node">
<title>COMPARE</title>
<path fill="#a7f3d0" stroke="black" d="M1111.5,-91C1111.5,-91 994.5,-91 994.5,-91 988.5,-91 982.5,-85 982.5,-79 982.5,-79 982.5,-28 982.5,-28 982.5,-22 988.5,-16 994.5,-16 994.5,-16 1111.5,-16 1111.5,-16 1117.5,-16 1123.5,-22 1123.5,-28 1123.5,-28 1123.5,-79 1123.5,-79 1123.5,-85 1117.5,-91 1111.5,-91"/>
<text text-anchor="middle" x="1053" y="-79" font-family="Helvetica,sans-Serif" font-size="10.00">Multi&#45;Run Comparison</text>
<text text-anchor="middle" x="1053" y="-56" font-family="Helvetica,sans-Serif" font-size="10.00">Side&#45;by&#45;side metrics</text>
<text text-anchor="middle" x="1053" y="-45" font-family="Helvetica,sans-Serif" font-size="10.00">Parameter sweep support</text>
<text text-anchor="middle" x="1053" y="-34" font-family="Helvetica,sans-Serif" font-size="10.00">Best&#45;run selection</text>
<text text-anchor="middle" x="1053" y="-23" font-family="Helvetica,sans-Serif" font-size="10.00">Promote to paper/live</text>
</g>
<!-- RUN_ENTRY&#45;&gt;COMPARE -->
<g id="edge30" class="edge">
<title>RUN_ENTRY&#45;&gt;COMPARE</title>
<path fill="none" stroke="#38a169" stroke-dasharray="5,2" d="M1050.46,-127.98C1050.75,-119.35 1051.07,-110.22 1051.37,-101.44"/>
<polygon fill="#38a169" stroke="#38a169" points="1054.88,-101.45 1051.72,-91.34 1047.88,-101.21 1054.88,-101.45"/>
</g>
<!-- LEG -->
<g id="node30" class="node">
<title>LEG</title>
<path fill="lightgrey" stroke="transparent" d="M1126,-1743.76C1126,-1743.76 962,-1743.76 962,-1743.76 956,-1743.76 950,-1737.76 950,-1731.76 950,-1731.76 950,-1714.76 950,-1714.76 950,-1708.76 956,-1702.76 962,-1702.76 962,-1702.76 1126,-1702.76 1126,-1702.76 1132,-1702.76 1138,-1708.76 1138,-1714.76 1138,-1714.76 1138,-1731.76 1138,-1731.76 1138,-1737.76 1132,-1743.76 1126,-1743.76"/>
<text text-anchor="middle" x="1044" y="-1731.76" font-family="Helvetica,sans-Serif" font-size="10.00">━━ Main data flow</text>
<text text-anchor="middle" x="1044" y="-1720.76" font-family="Helvetica,sans-Serif" font-size="10.00">─ ─ Configuration/Reference</text>
<text text-anchor="middle" x="1044" y="-1709.76" font-family="Helvetica,sans-Serif" font-size="10.00">Numbers = processing phase order</text>
</g>
</g>
</svg>
