<?xml version="1.0" encoding="UTF-8" standalone="no"?>
<!DOCTYPE svg PUBLIC "-//W3C//DTD SVG 1.1//EN"
 "http://www.w3.org/Graphics/SVG/1.1/DTD/svg11.dtd">
<!-- Generated by graphviz version 2.43.0 (0)
 -->
<!-- Title: SecurityMasterLifecycle Pages: 1 -->
<svg width="2703pt" height="955pt"
 viewBox="0.00 0.00 2703.00 954.57" xmlns="http://www.w3.org/2000/svg" xmlns:xlink="http://www.w3.org/1999/xlink">
<g id="graph0" class="graph" transform="scale(1 1) rotate(0) translate(36 918.57)">
<title>SecurityMasterLifecycle</title>
<polygon fill="white" stroke="transparent" points="-36,36 -36,-918.57 2667,-918.57 2667,36 -36,36"/>
<text text-anchor="middle" x="1315.5" y="-868.97" font-family="Helvetica,sans-Serif" font-size="12.00">Meridian &#45; Security Master Lifecycle</text>
<text text-anchor="middle" x="1315.5" y="-855.97" font-family="Helvetica,sans-Serif" font-size="12.00">Import, ingest status, conflict triage, and workstation consumers | v1.8.x</text>
<g id="clust1" class="cluster">
<title>cluster_inputs</title>
<path fill="#faf5ff" stroke="#805ad5" d="M20,-464.57C20,-464.57 1540.5,-464.57 1540.5,-464.57 1546.5,-464.57 1552.5,-470.57 1552.5,-476.57 1552.5,-476.57 1552.5,-585.57 1552.5,-585.57 1552.5,-591.57 1546.5,-597.57 1540.5,-597.57 1540.5,-597.57 20,-597.57 20,-597.57 14,-597.57 8,-591.57 8,-585.57 8,-585.57 8,-476.57 8,-476.57 8,-470.57 14,-464.57 20,-464.57"/>
<text text-anchor="middle" x="780.25" y="-583.97" font-family="Helvetica,sans-Serif" font-size="12.00">Inputs and Entry Paths</text>
</g>
<g id="clust2" class="cluster">
<title>cluster_core</title>
<path fill="#dbeafe" stroke="#2b6cb0" d="M1358,-96.57C1358,-96.57 2307,-96.57 2307,-96.57 2313,-96.57 2319,-102.57 2319,-108.57 2319,-108.57 2319,-444.57 2319,-444.57 2319,-450.57 2313,-456.57 2307,-456.57 2307,-456.57 1358,-456.57 1358,-456.57 1352,-456.57 1346,-450.57 1346,-444.57 1346,-444.57 1346,-108.57 1346,-108.57 1346,-102.57 1352,-96.57 1358,-96.57"/>
<text text-anchor="middle" x="1832.5" y="-442.97" font-family="Helvetica,sans-Serif" font-size="12.00">Application and Projection Layer</text>
</g>
<g id="clust3" class="cluster">
<title>cluster_storage</title>
<path fill="#fff5f5" stroke="#c53030" d="M2416,-212.57C2416,-212.57 2611,-212.57 2611,-212.57 2617,-212.57 2623,-218.57 2623,-224.57 2623,-224.57 2623,-397.57 2623,-397.57 2623,-403.57 2617,-409.57 2611,-409.57 2611,-409.57 2416,-409.57 2416,-409.57 2410,-409.57 2404,-403.57 2404,-397.57 2404,-397.57 2404,-224.57 2404,-224.57 2404,-218.57 2410,-212.57 2416,-212.57"/>
<text text-anchor="middle" x="2513.5" y="-395.97" font-family="Helvetica,sans-Serif" font-size="12.00">Persistence</text>
</g>
<g id="clust4" class="cluster">
<title>cluster_legend</title>
<path fill="#fafafa" stroke="#666666" d="M28,-605.57C28,-605.57 174,-605.57 174,-605.57 180,-605.57 186,-611.57 186,-617.57 186,-617.57 186,-828.57 186,-828.57 186,-834.57 180,-840.57 174,-840.57 174,-840.57 28,-840.57 28,-840.57 22,-840.57 16,-834.57 16,-828.57 16,-828.57 16,-617.57 16,-617.57 16,-611.57 22,-605.57 28,-605.57"/>
<text text-anchor="middle" x="101" y="-826.97" font-family="Helvetica,sans-Serif" font-size="12.00">Legend</text>
</g>
<!-- WPF_PAGE -->
<g id="node1" class="node">
<title>WPF_PAGE</title>
<path fill="#805ad5" stroke="black" d="M152,-568.07C152,-568.07 50,-568.07 50,-568.07 44,-568.07 38,-562.07 38,-556.07 38,-556.07 38,-539.07 38,-539.07 38,-533.07 44,-527.07 50,-527.07 50,-527.07 152,-527.07 152,-527.07 158,-527.07 164,-533.07 164,-539.07 164,-539.07 164,-556.07 164,-556.07 164,-562.07 158,-568.07 152,-568.07"/>
<text text-anchor="middle" x="101" y="-556.07" font-family="Helvetica,sans-Serif" font-size="10.00" fill="white">SecurityMasterPage</text>
<text text-anchor="middle" x="101" y="-545.07" font-family="Helvetica,sans-Serif" font-size="10.00" fill="white">search / detail /</text>
<text text-anchor="middle" x="101" y="-534.07" font-family="Helvetica,sans-Serif" font-size="10.00" fill="white">grouped conflict triage</text>
</g>
<!-- WORKFLOW_CLIENT -->
<g id="node2" class="node">
<title>WORKFLOW_CLIENT</title>
<path fill="#c4b5fd" stroke="black" d="M549,-521.07C549,-521.07 367,-521.07 367,-521.07 361,-521.07 355,-515.07 355,-509.07 355,-509.07 355,-492.07 355,-492.07 355,-486.07 361,-480.07 367,-480.07 367,-480.07 549,-480.07 549,-480.07 555,-480.07 561,-486.07 561,-492.07 561,-492.07 561,-509.07 561,-509.07 561,-515.07 555,-521.07 549,-521.07"/>
<text text-anchor="middle" x="458" y="-509.07" font-family="Helvetica,sans-Serif" font-size="10.00">SecurityMasterOperatorWorkflowClient</text>
<text text-anchor="middle" x="458" y="-498.07" font-family="Helvetica,sans-Serif" font-size="10.00">ingest posture / grouped queue</text>
<text text-anchor="middle" x="458" y="-487.07" font-family="Helvetica,sans-Serif" font-size="10.00">resolve + dismiss actions</text>
</g>
<!-- WPF_PAGE&#45;&gt;WORKFLOW_CLIENT -->
<g id="edge1" class="edge">
<title>WPF_PAGE&#45;&gt;WORKFLOW_CLIENT</title>
<path fill="none" stroke="#2b6cb0" stroke-dasharray="5,2" d="M164.18,-535.23C177.3,-532.84 191.08,-530.48 204,-528.57 249.93,-521.76 300.77,-515.82 344.76,-511.19"/>
<polygon fill="#2b6cb0" stroke="#2b6cb0" points="345.33,-514.65 354.91,-510.13 344.6,-507.69 345.33,-514.65"/>
<text text-anchor="middle" x="270.5" y="-531.37" font-family="Helvetica,sans-Serif" font-size="9.00">poll posture / grouped queue</text>
</g>
<!-- IMPORT_SERVICE -->
<g id="node5" class="node">
<title>IMPORT_SERVICE</title>
<path fill="#fbd38d" stroke="black" d="M1168,-520.07C1168,-520.07 1001,-520.07 1001,-520.07 995,-520.07 989,-514.07 989,-508.07 989,-508.07 989,-491.07 989,-491.07 989,-485.07 995,-479.07 1001,-479.07 1001,-479.07 1168,-479.07 1168,-479.07 1174,-479.07 1180,-485.07 1180,-491.07 1180,-491.07 1180,-508.07 1180,-508.07 1180,-514.07 1174,-520.07 1168,-520.07"/>
<text text-anchor="middle" x="1084.5" y="-508.07" font-family="Helvetica,sans-Serif" font-size="10.00">SecurityMasterImportService</text>
<text text-anchor="middle" x="1084.5" y="-497.07" font-family="Helvetica,sans-Serif" font-size="10.00">CSV / JSON bulk import</text>
<text text-anchor="middle" x="1084.5" y="-486.07" font-family="Helvetica,sans-Serif" font-size="10.00">session snapshots + conflict counts</text>
</g>
<!-- WPF_PAGE&#45;&gt;IMPORT_SERVICE -->
<g id="edge2" class="edge">
<title>WPF_PAGE&#45;&gt;IMPORT_SERVICE</title>
<path fill="none" stroke="#4a5568" d="M164.12,-547.47C296.11,-546.88 614.18,-543.31 880,-523.57 912.17,-521.18 947.09,-517.47 978.77,-513.68"/>
<polygon fill="#4a5568" stroke="#4a5568" points="979.42,-517.12 988.93,-512.44 978.58,-510.17 979.42,-517.12"/>
<text text-anchor="middle" x="628.5" y="-541.37" font-family="Helvetica,sans-Serif" font-size="9.00">bulk import</text>
</g>
<!-- SECURITY_SERVICE -->
<g id="node7" class="node">
<title>SECURITY_SERVICE</title>
<path fill="#93c5fd" stroke="black" d="M1525,-427.57C1525,-427.57 1398,-427.57 1398,-427.57 1392,-427.57 1386,-421.57 1386,-415.57 1386,-415.57 1386,-403.57 1386,-403.57 1386,-397.57 1392,-391.57 1398,-391.57 1398,-391.57 1525,-391.57 1525,-391.57 1531,-391.57 1537,-397.57 1537,-403.57 1537,-403.57 1537,-415.57 1537,-415.57 1537,-421.57 1531,-427.57 1525,-427.57"/>
<text text-anchor="middle" x="1461.5" y="-412.57" font-family="Helvetica,sans-Serif" font-size="10.00">SecurityMasterService</text>
<text text-anchor="middle" x="1461.5" y="-401.57" font-family="Helvetica,sans-Serif" font-size="10.00">create / update / deactivate</text>
</g>
<!-- WPF_PAGE&#45;&gt;SECURITY_SERVICE -->
<g id="edge11" class="edge">
<title>WPF_PAGE&#45;&gt;SECURITY_SERVICE</title>
<path fill="none" stroke="#4a5568" d="M163.49,-526.93C171.14,-523.97 178.81,-520.82 186,-517.57 194.34,-513.79 195.75,-511.52 204,-507.57 313.48,-455.1 335.59,-404.57 457,-404.57 457,-404.57 457,-404.57 935.5,-404.57 1090.75,-404.57 1271.82,-406.78 1375.63,-408.26"/>
<polygon fill="#4a5568" stroke="#4a5568" points="1375.68,-411.76 1385.73,-408.41 1375.79,-404.76 1375.68,-411.76"/>
<text text-anchor="middle" x="788" y="-407.37" font-family="Helvetica,sans-Serif" font-size="9.00">create / edit</text>
</g>
<!-- QUERY_SERVICE -->
<g id="node13" class="node">
<title>QUERY_SERVICE</title>
<path fill="#93c5fd" stroke="black" d="M1918,-200.07C1918,-200.07 1787,-200.07 1787,-200.07 1781,-200.07 1775,-194.07 1775,-188.07 1775,-188.07 1775,-171.07 1775,-171.07 1775,-165.07 1781,-159.07 1787,-159.07 1787,-159.07 1918,-159.07 1918,-159.07 1924,-159.07 1930,-165.07 1930,-171.07 1930,-171.07 1930,-188.07 1930,-188.07 1930,-194.07 1924,-200.07 1918,-200.07"/>
<text text-anchor="middle" x="1852.5" y="-188.07" font-family="Helvetica,sans-Serif" font-size="10.00">SecurityMasterQueryService</text>
<text text-anchor="middle" x="1852.5" y="-177.07" font-family="Helvetica,sans-Serif" font-size="10.00">search, history, identity,</text>
<text text-anchor="middle" x="1852.5" y="-166.07" font-family="Helvetica,sans-Serif" font-size="10.00">economic definition</text>
</g>
<!-- WPF_PAGE&#45;&gt;QUERY_SERVICE -->
<g id="edge3" class="edge">
<title>WPF_PAGE&#45;&gt;QUERY_SERVICE</title>
<path fill="none" stroke="#2b6cb0" stroke-dasharray="5,2" d="M164.06,-533.9C172.34,-529.8 180.03,-524.48 186,-517.57 212.67,-486.7 188.6,-465.34 204,-427.57 281.84,-236.58 250.76,-38.57 457,-38.57 457,-38.57 457,-38.57 1462.5,-38.57 1578.41,-38.57 1630.99,-17.86 1717,-95.57 1735.77,-112.53 1716.5,-132.31 1735,-149.57 1743.65,-157.64 1754.18,-163.6 1765.33,-168"/>
<polygon fill="#2b6cb0" stroke="#2b6cb0" points="1764.21,-171.32 1774.81,-171.34 1766.54,-164.72 1764.21,-171.32"/>
<text text-anchor="middle" x="934.5" y="-51.37" font-family="Helvetica,sans-Serif" font-size="9.00">detail / history /</text>
<text text-anchor="middle" x="934.5" y="-41.37" font-family="Helvetica,sans-Serif" font-size="9.00">trading params</text>
</g>
<!-- API_ENDPOINTS -->
<g id="node3" class="node">
<title>API_ENDPOINTS</title>
<path fill="#c4b5fd" stroke="black" d="M868,-514.07C868,-514.07 708,-514.07 708,-514.07 702,-514.07 696,-508.07 696,-502.07 696,-502.07 696,-485.07 696,-485.07 696,-479.07 702,-473.07 708,-473.07 708,-473.07 868,-473.07 868,-473.07 874,-473.07 880,-479.07 880,-485.07 880,-485.07 880,-502.07 880,-502.07 880,-508.07 874,-514.07 868,-514.07"/>
<text text-anchor="middle" x="788" y="-502.07" font-family="Helvetica,sans-Serif" font-size="10.00">Security Master endpoints</text>
<text text-anchor="middle" x="788" y="-491.07" font-family="Helvetica,sans-Serif" font-size="10.00">/api/security&#45;master/*</text>
<text text-anchor="middle" x="788" y="-480.07" font-family="Helvetica,sans-Serif" font-size="10.00">/api/workstation/security&#45;master/*</text>
</g>
<!-- WORKFLOW_CLIENT&#45;&gt;API_ENDPOINTS -->
<g id="edge5" class="edge">
<title>WORKFLOW_CLIENT&#45;&gt;API_ENDPOINTS</title>
<path fill="none" stroke="#4a5568" d="M561.43,-498.38C601.03,-497.54 646.23,-496.57 685.72,-495.73"/>
<polygon fill="#4a5568" stroke="#4a5568" points="685.97,-499.22 695.89,-495.51 685.82,-492.23 685.97,-499.22"/>
<text text-anchor="middle" x="628.5" y="-500.37" font-family="Helvetica,sans-Serif" font-size="9.00">HTTP status + resolve</text>
</g>
<!-- API_ENDPOINTS&#45;&gt;IMPORT_SERVICE -->
<g id="edge4" class="edge">
<title>API_ENDPOINTS&#45;&gt;IMPORT_SERVICE</title>
<path fill="none" stroke="#4a5568" d="M880.16,-495.42C911.34,-496.06 946.45,-496.78 978.62,-497.43"/>
<polygon fill="#4a5568" stroke="#4a5568" points="978.88,-500.94 988.95,-497.64 979.02,-493.94 978.88,-500.94"/>
<text text-anchor="middle" x="934.5" y="-499.37" font-family="Helvetica,sans-Serif" font-size="9.00">import requests</text>
</g>
<!-- CONFLICT_SERVICE -->
<g id="node8" class="node">
<title>CONFLICT_SERVICE</title>
<path fill="#bfdbfe" stroke="black" d="M1531,-373.07C1531,-373.07 1392,-373.07 1392,-373.07 1386,-373.07 1380,-367.07 1380,-361.07 1380,-361.07 1380,-344.07 1380,-344.07 1380,-338.07 1386,-332.07 1392,-332.07 1392,-332.07 1531,-332.07 1531,-332.07 1537,-332.07 1543,-338.07 1543,-344.07 1543,-344.07 1543,-361.07 1543,-361.07 1543,-367.07 1537,-373.07 1531,-373.07"/>
<text text-anchor="middle" x="1461.5" y="-361.07" font-family="Helvetica,sans-Serif" font-size="10.00">SecurityMasterConflictService</text>
<text text-anchor="middle" x="1461.5" y="-350.07" font-family="Helvetica,sans-Serif" font-size="10.00">detect / queue / resolve</text>
<text text-anchor="middle" x="1461.5" y="-339.07" font-family="Helvetica,sans-Serif" font-size="10.00">provider conflicts</text>
</g>
<!-- API_ENDPOINTS&#45;&gt;CONFLICT_SERVICE -->
<g id="edge6" class="edge">
<title>API_ENDPOINTS&#45;&gt;CONFLICT_SERVICE</title>
<path fill="none" stroke="#4a5568" d="M839.92,-473.01C916.27,-443.25 1065.6,-389.17 1198,-365.57 1254.42,-355.51 1318.66,-352.19 1369.47,-351.42"/>
<polygon fill="#4a5568" stroke="#4a5568" points="1369.82,-354.92 1379.78,-351.3 1369.73,-347.92 1369.82,-354.92"/>
<text text-anchor="middle" x="1084.5" y="-421.37" font-family="Helvetica,sans-Serif" font-size="9.00">open queue / resolve</text>
</g>
<!-- INGEST_STATUS_SERVICE -->
<g id="node9" class="node">
<title>INGEST_STATUS_SERVICE</title>
<path fill="#bfdbfe" stroke="black" d="M1543,-314.07C1543,-314.07 1380,-314.07 1380,-314.07 1374,-314.07 1368,-308.07 1368,-302.07 1368,-302.07 1368,-285.07 1368,-285.07 1368,-279.07 1374,-273.07 1380,-273.07 1380,-273.07 1543,-273.07 1543,-273.07 1549,-273.07 1555,-279.07 1555,-285.07 1555,-285.07 1555,-302.07 1555,-302.07 1555,-308.07 1549,-314.07 1543,-314.07"/>
<text text-anchor="middle" x="1461.5" y="-302.07" font-family="Helvetica,sans-Serif" font-size="10.00">SecurityMasterIngestStatusService</text>
<text text-anchor="middle" x="1461.5" y="-291.07" font-family="Helvetica,sans-Serif" font-size="10.00">active import + last completed</text>
<text text-anchor="middle" x="1461.5" y="-280.07" font-family="Helvetica,sans-Serif" font-size="10.00">session snapshot</text>
</g>
<!-- API_ENDPOINTS&#45;&gt;INGEST_STATUS_SERVICE -->
<g id="edge7" class="edge">
<title>API_ENDPOINTS&#45;&gt;INGEST_STATUS_SERVICE</title>
<path fill="none" stroke="#4a5568" d="M815.27,-472.94C860.47,-437.86 951.72,-368.94 989,-354.57 1109.87,-307.96 1259.75,-295.58 1357.64,-292.97"/>
<polygon fill="#4a5568" stroke="#4a5568" points="1357.92,-296.46 1367.84,-292.72 1357.76,-289.46 1357.92,-296.46"/>
<text text-anchor="middle" x="1084.5" y="-357.37" font-family="Helvetica,sans-Serif" font-size="9.00">ingest status</text>
</g>
<!-- API_ENDPOINTS&#45;&gt;QUERY_SERVICE -->
<g id="edge12" class="edge">
<title>API_ENDPOINTS&#45;&gt;QUERY_SERVICE</title>
<path fill="none" stroke="#4a5568" d="M825.42,-472.94C844.88,-459.93 867.37,-441.3 880,-418.57 909.39,-365.65 873.64,-338.98 898,-283.57 923.39,-225.79 935.21,-207.58 989,-174.57 1210.68,-38.52 1312,-56.54 1569,-96.57 1645.52,-108.49 1660.58,-128.12 1735,-149.57 1744.73,-152.37 1754.96,-155.19 1765.14,-157.92"/>
<polygon fill="#4a5568" stroke="#4a5568" points="1764.31,-161.32 1774.88,-160.5 1766.11,-154.55 1764.31,-161.32"/>
<text text-anchor="middle" x="1267" y="-82.37" font-family="Helvetica,sans-Serif" font-size="9.00">query detail/history</text>
</g>
<!-- NULL_FALLBACKS -->
<g id="node18" class="node">
<title>NULL_FALLBACKS</title>
<polygon fill="#feebc8" stroke="black" points="1546.5,-146.07 1370.5,-146.07 1370.5,-105.07 1552.5,-105.07 1552.5,-140.07 1546.5,-146.07"/>
<polyline fill="none" stroke="black" points="1546.5,-146.07 1546.5,-140.07 "/>
<polyline fill="none" stroke="black" points="1552.5,-140.07 1546.5,-140.07 "/>
<text text-anchor="middle" x="1461.5" y="-134.07" font-family="Helvetica,sans-Serif" font-size="10.00">NullSecurityMaster* fallbacks</text>
<text text-anchor="middle" x="1461.5" y="-123.07" font-family="Helvetica,sans-Serif" font-size="10.00">keep APIs routable when Postgres</text>
<text text-anchor="middle" x="1461.5" y="-112.07" font-family="Helvetica,sans-Serif" font-size="10.00">security&#45;master config is absent</text>
</g>
<!-- API_ENDPOINTS&#45;&gt;NULL_FALLBACKS -->
<g id="edge29" class="edge">
<title>API_ENDPOINTS&#45;&gt;NULL_FALLBACKS</title>
<path fill="none" stroke="#718096" stroke-dasharray="5,2" d="M822.69,-473.03C841.98,-459.7 865.22,-440.7 880,-418.57 895.23,-395.77 882.08,-381.88 898,-359.57 1005.77,-208.52 1229.98,-154.6 1360.44,-135.63"/>
<polygon fill="#718096" stroke="#718096" points="1361.03,-139.08 1370.44,-134.21 1360.05,-132.15 1361.03,-139.08"/>
<text text-anchor="middle" x="1084.5" y="-268.37" font-family="Helvetica,sans-Serif" font-size="9.00">not configured</text>
</g>
<!-- CSV_PARSER -->
<g id="node4" class="node">
<title>CSV_PARSER</title>
<path fill="#fbd38d" stroke="black" d="M1532.5,-526.57C1532.5,-526.57 1390.5,-526.57 1390.5,-526.57 1384.5,-526.57 1378.5,-520.57 1378.5,-514.57 1378.5,-514.57 1378.5,-502.57 1378.5,-502.57 1378.5,-496.57 1384.5,-490.57 1390.5,-490.57 1390.5,-490.57 1532.5,-490.57 1532.5,-490.57 1538.5,-490.57 1544.5,-496.57 1544.5,-502.57 1544.5,-502.57 1544.5,-514.57 1544.5,-514.57 1544.5,-520.57 1538.5,-526.57 1532.5,-526.57"/>
<text text-anchor="middle" x="1461.5" y="-511.57" font-family="Helvetica,sans-Serif" font-size="10.00">SecurityMasterCsvParser</text>
<text text-anchor="middle" x="1461.5" y="-500.57" font-family="Helvetica,sans-Serif" font-size="10.00">CSV &#45;&gt; CreateSecurityRequest</text>
</g>
<!-- IMPORT_SERVICE&#45;&gt;CSV_PARSER -->
<g id="edge8" class="edge">
<title>IMPORT_SERVICE&#45;&gt;CSV_PARSER</title>
<path fill="none" stroke="#4a5568" d="M1180.13,-501.84C1237.75,-503.22 1311.02,-504.98 1368.21,-506.35"/>
<polygon fill="#4a5568" stroke="#4a5568" points="1368.25,-509.85 1378.33,-506.6 1368.41,-502.86 1368.25,-509.85"/>
<text text-anchor="middle" x="1267" y="-507.37" font-family="Helvetica,sans-Serif" font-size="9.00">parse CSV</text>
</g>
<!-- IMPORT_SERVICE&#45;&gt;SECURITY_SERVICE -->
<g id="edge9" class="edge">
<title>IMPORT_SERVICE&#45;&gt;SECURITY_SERVICE</title>
<path fill="none" stroke="#4a5568" d="M1180.26,-485.8C1227.46,-478.02 1285.16,-467.13 1336,-453.57 1359.05,-447.42 1383.93,-439 1405.35,-431.17"/>
<polygon fill="#4a5568" stroke="#4a5568" points="1406.76,-434.38 1414.93,-427.62 1404.33,-427.81 1406.76,-434.38"/>
<text text-anchor="middle" x="1267" y="-484.37" font-family="Helvetica,sans-Serif" font-size="9.00">create / update</text>
</g>
<!-- IMPORT_SERVICE&#45;&gt;CONFLICT_SERVICE -->
<g id="edge10" class="edge">
<title>IMPORT_SERVICE&#45;&gt;CONFLICT_SERVICE</title>
<path fill="none" stroke="#ed8936" stroke-dasharray="5,2" d="M1154.3,-479.06C1163.34,-474.96 1172.17,-470.16 1180,-464.57 1190.28,-457.23 1187.55,-449.67 1198,-442.57 1251.25,-406.39 1285.16,-438.06 1336,-398.57 1342.62,-393.42 1339.24,-387.54 1346,-382.57 1353.42,-377.11 1361.74,-372.65 1370.43,-368.99"/>
<polygon fill="#ed8936" stroke="#ed8936" points="1371.89,-372.18 1379.98,-365.34 1369.39,-365.65 1371.89,-372.18"/>
<text text-anchor="middle" x="1267" y="-445.37" font-family="Helvetica,sans-Serif" font-size="9.00">record conflicts + counts</text>
</g>
<!-- CORPORATE_ACTIONS -->
<g id="node6" class="node">
<title>CORPORATE_ACTIONS</title>
<path fill="#fbd38d" stroke="black" d="M174,-508.57C174,-508.57 28,-508.57 28,-508.57 22,-508.57 16,-502.57 16,-496.57 16,-496.57 16,-484.57 16,-484.57 16,-478.57 22,-472.57 28,-472.57 28,-472.57 174,-472.57 174,-472.57 180,-472.57 186,-478.57 186,-484.57 186,-484.57 186,-496.57 186,-496.57 186,-502.57 180,-508.57 174,-508.57"/>
<text text-anchor="middle" x="101" y="-493.57" font-family="Helvetica,sans-Serif" font-size="10.00">PolygonCorporateActionFetcher</text>
<text text-anchor="middle" x="101" y="-482.57" font-family="Helvetica,sans-Serif" font-size="10.00">corporate action ingestion</text>
</g>
<!-- EVENT_STORE -->
<g id="node19" class="node">
<title>EVENT_STORE</title>
<path fill="#fc8181" stroke="black" d="M2606,-258.55C2606,-260.63 2564.54,-262.32 2513.5,-262.32 2462.46,-262.32 2421,-260.63 2421,-258.55 2421,-258.55 2421,-224.59 2421,-224.59 2421,-222.51 2462.46,-220.82 2513.5,-220.82 2564.54,-220.82 2606,-222.51 2606,-224.59 2606,-224.59 2606,-258.55 2606,-258.55"/>
<path fill="none" stroke="black" d="M2606,-258.55C2606,-256.46 2564.54,-254.77 2513.5,-254.77 2462.46,-254.77 2421,-256.46 2421,-258.55"/>
<text text-anchor="middle" x="2513.5" y="-244.57" font-family="Helvetica,sans-Serif" font-size="10.00" fill="white">PostgresSecurityMasterEventStore</text>
<text text-anchor="middle" x="2513.5" y="-233.57" font-family="Helvetica,sans-Serif" font-size="10.00" fill="white">append + stream replay</text>
</g>
<!-- CORPORATE_ACTIONS&#45;&gt;EVENT_STORE -->
<g id="edge18" class="edge">
<title>CORPORATE_ACTIONS&#45;&gt;EVENT_STORE</title>
<path fill="none" stroke="#4a5568" d="M104.1,-472.3C112.73,-400.11 147.76,-135.71 204,-76.57 284.91,8.51 339.59,-0.57 457,-0.57 457,-0.57 457,-0.57 2218.5,-0.57 2350.29,-0.57 2455.36,-147.19 2495.21,-211.71"/>
<polygon fill="#4a5568" stroke="#4a5568" points="2492.43,-213.87 2500.61,-220.6 2498.41,-210.24 2492.43,-213.87"/>
<text text-anchor="middle" x="1267" y="-3.37" font-family="Helvetica,sans-Serif" font-size="9.00">append corp actions</text>
</g>
<!-- SECURITY_SERVICE&#45;&gt;EVENT_STORE -->
<g id="edge13" class="edge">
<title>SECURITY_SERVICE&#45;&gt;EVENT_STORE</title>
<path fill="none" stroke="#4a5568" d="M1537.24,-401.81C1738.93,-380.79 2281.65,-323.55 2319,-312.57 2359.43,-300.69 2364.56,-285.41 2404,-270.57 2409.93,-268.34 2416.1,-266.2 2422.35,-264.18"/>
<polygon fill="#4a5568" stroke="#4a5568" points="2423.73,-267.42 2432.23,-261.1 2421.64,-260.74 2423.73,-267.42"/>
<text text-anchor="middle" x="2047" y="-356.37" font-family="Helvetica,sans-Serif" font-size="9.00">append events</text>
</g>
<!-- SNAPSHOT_STORE -->
<g id="node20" class="node">
<title>SNAPSHOT_STORE</title>
<path fill="#fecaca" stroke="black" d="M2615,-376.55C2615,-378.63 2569.51,-380.32 2513.5,-380.32 2457.49,-380.32 2412,-378.63 2412,-376.55 2412,-376.55 2412,-342.59 2412,-342.59 2412,-340.51 2457.49,-338.82 2513.5,-338.82 2569.51,-338.82 2615,-340.51 2615,-342.59 2615,-342.59 2615,-376.55 2615,-376.55"/>
<path fill="none" stroke="black" d="M2615,-376.55C2615,-374.46 2569.51,-372.77 2513.5,-372.77 2457.49,-372.77 2412,-374.46 2412,-376.55"/>
<text text-anchor="middle" x="2513.5" y="-362.57" font-family="Helvetica,sans-Serif" font-size="10.00">PostgresSecurityMasterSnapshotStore</text>
<text text-anchor="middle" x="2513.5" y="-351.57" font-family="Helvetica,sans-Serif" font-size="10.00">periodic aggregate snapshots</text>
</g>
<!-- SECURITY_SERVICE&#45;&gt;SNAPSHOT_STORE -->
<g id="edge14" class="edge">
<title>SECURITY_SERVICE&#45;&gt;SNAPSHOT_STORE</title>
<path fill="none" stroke="#c53030" stroke-dasharray="5,2" d="M1537.14,-416.34C1696.06,-429.1 2079.11,-450.96 2394,-398.57 2413.11,-395.39 2433.32,-389.67 2451.55,-383.58"/>
<polygon fill="#c53030" stroke="#c53030" points="2452.84,-386.83 2461.16,-380.27 2450.56,-380.21 2452.84,-386.83"/>
<text text-anchor="middle" x="2047" y="-433.37" font-family="Helvetica,sans-Serif" font-size="9.00">snapshot cadence</text>
</g>
<!-- CONFLICT_QUEUE -->
<g id="node17" class="node">
<title>CONFLICT_QUEUE</title>
<polygon fill="#feebc8" stroke="black" points="1932,-314.07 1767,-314.07 1767,-273.07 1938,-273.07 1938,-308.07 1932,-314.07"/>
<polyline fill="none" stroke="black" points="1932,-314.07 1932,-308.07 "/>
<polyline fill="none" stroke="black" points="1938,-308.07 1932,-308.07 "/>
<text text-anchor="middle" x="1852.5" y="-302.07" font-family="Helvetica,sans-Serif" font-size="10.00">Open conflict queue +</text>
<text text-anchor="middle" x="1852.5" y="-291.07" font-family="Helvetica,sans-Serif" font-size="10.00">resolution state live in&#45;memory</text>
<text text-anchor="middle" x="1852.5" y="-280.07" font-family="Helvetica,sans-Serif" font-size="10.00">today</text>
</g>
<!-- CONFLICT_SERVICE&#45;&gt;CONFLICT_QUEUE -->
<g id="edge16" class="edge">
<title>CONFLICT_SERVICE&#45;&gt;CONFLICT_QUEUE</title>
<path fill="none" stroke="#ed8936" stroke-dasharray="5,2" d="M1543.1,-340.34C1605.33,-330.9 1691.58,-317.82 1757.05,-307.89"/>
<polygon fill="#ed8936" stroke="#ed8936" points="1757.6,-311.35 1766.97,-306.39 1756.55,-304.43 1757.6,-311.35"/>
<text text-anchor="middle" x="1652" y="-335.37" font-family="Helvetica,sans-Serif" font-size="9.00">track open queue</text>
</g>
<!-- PROJECTION_STORE -->
<g id="node21" class="node">
<title>PROJECTION_STORE</title>
<path fill="#fecaca" stroke="black" d="M2592.5,-317.55C2592.5,-319.63 2557.09,-321.32 2513.5,-321.32 2469.91,-321.32 2434.5,-319.63 2434.5,-317.55 2434.5,-317.55 2434.5,-283.59 2434.5,-283.59 2434.5,-281.51 2469.91,-279.82 2513.5,-279.82 2557.09,-279.82 2592.5,-281.51 2592.5,-283.59 2592.5,-283.59 2592.5,-317.55 2592.5,-317.55"/>
<path fill="none" stroke="black" d="M2592.5,-317.55C2592.5,-315.46 2557.09,-313.77 2513.5,-313.77 2469.91,-313.77 2434.5,-315.46 2434.5,-317.55"/>
<text text-anchor="middle" x="2513.5" y="-303.57" font-family="Helvetica,sans-Serif" font-size="10.00">PostgresSecurityMasterStore</text>
<text text-anchor="middle" x="2513.5" y="-292.57" font-family="Helvetica,sans-Serif" font-size="10.00">projection records + lookups</text>
</g>
<!-- CONFLICT_SERVICE&#45;&gt;PROJECTION_STORE -->
<g id="edge15" class="edge">
<title>CONFLICT_SERVICE&#45;&gt;PROJECTION_STORE</title>
<path fill="none" stroke="#ed8936" stroke-dasharray="5,2" d="M1543.13,-358.68C1695.35,-368.88 2035.27,-385.32 2319,-353.57 2352.97,-349.77 2362.75,-350.4 2394,-336.57 2398.96,-334.37 2399.08,-331.86 2404,-329.57 2410.56,-326.51 2417.5,-323.73 2424.57,-321.21"/>
<polygon fill="#ed8936" stroke="#ed8936" points="2425.92,-324.45 2434.27,-317.94 2423.68,-317.82 2425.92,-324.45"/>
<text text-anchor="middle" x="2047" y="-374.37" font-family="Helvetica,sans-Serif" font-size="9.00">scan projection identifiers</text>
</g>
<!-- INGEST_STATUS_SERVICE&#45;&gt;IMPORT_SERVICE -->
<g id="edge17" class="edge">
<title>INGEST_STATUS_SERVICE&#45;&gt;IMPORT_SERVICE</title>
<path fill="none" stroke="#718096" stroke-dasharray="5,2" d="M1376.63,-314.15C1366.25,-317.1 1355.84,-320.27 1346,-323.57 1278.55,-346.19 1243.87,-330.18 1198,-384.57 1174.51,-412.43 1204,-437.14 1180,-464.57 1177.29,-467.66 1174.28,-470.49 1171.05,-473.06"/>
<polygon fill="#718096" stroke="#718096" points="1168.8,-470.36 1162.61,-478.96 1172.81,-476.1 1168.8,-470.36"/>
<text text-anchor="middle" x="1267" y="-387.37" font-family="Helvetica,sans-Serif" font-size="9.00">active + completed snapshots</text>
</g>
<!-- AGGREGATE_REBUILDER -->
<g id="node10" class="node">
<title>AGGREGATE_REBUILDER</title>
<path fill="#bfdbfe" stroke="black" d="M2299,-219.57C2299,-219.57 2136,-219.57 2136,-219.57 2130,-219.57 2124,-213.57 2124,-207.57 2124,-207.57 2124,-195.57 2124,-195.57 2124,-189.57 2130,-183.57 2136,-183.57 2136,-183.57 2299,-183.57 2299,-183.57 2305,-183.57 2311,-189.57 2311,-195.57 2311,-195.57 2311,-207.57 2311,-207.57 2311,-213.57 2305,-219.57 2299,-219.57"/>
<text text-anchor="middle" x="2217.5" y="-204.57" font-family="Helvetica,sans-Serif" font-size="10.00">SecurityMasterAggregateRebuilder</text>
<text text-anchor="middle" x="2217.5" y="-193.57" font-family="Helvetica,sans-Serif" font-size="10.00">replay security streams</text>
</g>
<!-- AGGREGATE_REBUILDER&#45;&gt;EVENT_STORE -->
<g id="edge22" class="edge">
<title>AGGREGATE_REBUILDER&#45;&gt;EVENT_STORE</title>
<path fill="none" stroke="#4a5568" d="M2311.12,-214.17C2342.85,-218.49 2378.51,-223.34 2410.91,-227.75"/>
<polygon fill="#4a5568" stroke="#4a5568" points="2410.47,-231.22 2420.85,-229.1 2411.41,-224.28 2410.47,-231.22"/>
<text text-anchor="middle" x="2361.5" y="-227.37" font-family="Helvetica,sans-Serif" font-size="9.00">replay stream</text>
</g>
<!-- AGGREGATE_REBUILDER&#45;&gt;SNAPSHOT_STORE -->
<g id="edge23" class="edge">
<title>AGGREGATE_REBUILDER&#45;&gt;SNAPSHOT_STORE</title>
<path fill="none" stroke="#c53030" stroke-dasharray="5,2" d="M2291.49,-219.57C2301.13,-223.43 2310.57,-228.05 2319,-233.57 2366.96,-264.97 2355.32,-300.3 2404,-330.57 2406.99,-332.43 2410.09,-334.17 2413.29,-335.79"/>
<polygon fill="#c53030" stroke="#c53030" points="2411.95,-339.03 2422.49,-340.1 2414.91,-332.69 2411.95,-339.03"/>
<text text-anchor="middle" x="2361.5" y="-325.37" font-family="Helvetica,sans-Serif" font-size="9.00">use snapshots</text>
</g>
<!-- PROJECTION_SERVICE -->
<g id="node11" class="node">
<title>PROJECTION_SERVICE</title>
<path fill="#bfdbfe" stroke="black" d="M1931.5,-254.57C1931.5,-254.57 1773.5,-254.57 1773.5,-254.57 1767.5,-254.57 1761.5,-248.57 1761.5,-242.57 1761.5,-242.57 1761.5,-230.57 1761.5,-230.57 1761.5,-224.57 1767.5,-218.57 1773.5,-218.57 1773.5,-218.57 1931.5,-218.57 1931.5,-218.57 1937.5,-218.57 1943.5,-224.57 1943.5,-230.57 1943.5,-230.57 1943.5,-242.57 1943.5,-242.57 1943.5,-248.57 1937.5,-254.57 1931.5,-254.57"/>
<text text-anchor="middle" x="1852.5" y="-239.57" font-family="Helvetica,sans-Serif" font-size="10.00">SecurityMasterProjectionService</text>
<text text-anchor="middle" x="1852.5" y="-228.57" font-family="Helvetica,sans-Serif" font-size="10.00">BuildWarmSetAsync / WarmAsync</text>
</g>
<!-- PROJECTION_SERVICE&#45;&gt;AGGREGATE_REBUILDER -->
<g id="edge21" class="edge">
<title>PROJECTION_SERVICE&#45;&gt;AGGREGATE_REBUILDER</title>
<path fill="none" stroke="#4a5568" d="M1943.7,-227.87C1995.28,-222.9 2060.17,-216.64 2113.72,-211.48"/>
<polygon fill="#4a5568" stroke="#4a5568" points="2114.31,-214.94 2123.92,-210.49 2113.63,-207.97 2114.31,-214.94"/>
<text text-anchor="middle" x="2047" y="-225.37" font-family="Helvetica,sans-Serif" font-size="9.00">rebuild economics</text>
</g>
<!-- PROJECTION_CACHE -->
<g id="node14" class="node">
<title>PROJECTION_CACHE</title>
<path fill="#d1fae5" stroke="black" d="M2291,-165.57C2291,-165.57 2144,-165.57 2144,-165.57 2138,-165.57 2132,-159.57 2132,-153.57 2132,-153.57 2132,-141.57 2132,-141.57 2132,-135.57 2138,-129.57 2144,-129.57 2144,-129.57 2291,-129.57 2291,-129.57 2297,-129.57 2303,-135.57 2303,-141.57 2303,-141.57 2303,-153.57 2303,-153.57 2303,-159.57 2297,-165.57 2291,-165.57"/>
<text text-anchor="middle" x="2217.5" y="-150.57" font-family="Helvetica,sans-Serif" font-size="10.00">SecurityMasterProjectionCache</text>
<text text-anchor="middle" x="2217.5" y="-139.57" font-family="Helvetica,sans-Serif" font-size="10.00">warm in&#45;memory projection set</text>
</g>
<!-- PROJECTION_SERVICE&#45;&gt;PROJECTION_CACHE -->
<g id="edge24" class="edge">
<title>PROJECTION_SERVICE&#45;&gt;PROJECTION_CACHE</title>
<path fill="none" stroke="#4a5568" d="M1943.77,-218.71C1952.76,-216.02 1961.64,-212.99 1970,-209.57 1978.68,-206.02 1979.29,-202.03 1988,-198.57 2037.81,-178.75 2053.68,-185.26 2106,-173.57 2114.09,-171.76 2122.5,-169.84 2130.91,-167.91"/>
<polygon fill="#4a5568" stroke="#4a5568" points="2131.81,-171.29 2140.76,-165.62 2130.23,-164.47 2131.81,-171.29"/>
<text text-anchor="middle" x="2047" y="-201.37" font-family="Helvetica,sans-Serif" font-size="9.00">ReplaceAll</text>
</g>
<!-- PROJECTION_SERVICE&#45;&gt;PROJECTION_STORE -->
<g id="edge20" class="edge">
<title>PROJECTION_SERVICE&#45;&gt;PROJECTION_STORE</title>
<path fill="none" stroke="#4a5568" d="M1930.36,-254.64C1943.6,-257.86 1957.21,-261.26 1970,-264.57 1978.04,-266.65 1979.81,-268.2 1988,-269.57 2139.74,-294.83 2319.16,-300.26 2423.95,-301.03"/>
<polygon fill="#4a5568" stroke="#4a5568" points="2424.15,-304.53 2434.17,-301.09 2424.19,-297.53 2424.15,-304.53"/>
<text text-anchor="middle" x="2217.5" y="-301.37" font-family="Helvetica,sans-Serif" font-size="9.00">load seed records</text>
</g>
<!-- WARMUP_SERVICE -->
<g id="node12" class="node">
<title>WARMUP_SERVICE</title>
<path fill="#bfdbfe" stroke="black" d="M1557,-254.57C1557,-254.57 1366,-254.57 1366,-254.57 1360,-254.57 1354,-248.57 1354,-242.57 1354,-242.57 1354,-230.57 1354,-230.57 1354,-224.57 1360,-218.57 1366,-218.57 1366,-218.57 1557,-218.57 1557,-218.57 1563,-218.57 1569,-224.57 1569,-230.57 1569,-230.57 1569,-242.57 1569,-242.57 1569,-248.57 1563,-254.57 1557,-254.57"/>
<text text-anchor="middle" x="1461.5" y="-239.57" font-family="Helvetica,sans-Serif" font-size="10.00">SecurityMasterProjectionWarmupService</text>
<text text-anchor="middle" x="1461.5" y="-228.57" font-family="Helvetica,sans-Serif" font-size="10.00">startup cache warmup</text>
</g>
<!-- WARMUP_SERVICE&#45;&gt;PROJECTION_SERVICE -->
<g id="edge19" class="edge">
<title>WARMUP_SERVICE&#45;&gt;PROJECTION_SERVICE</title>
<path fill="none" stroke="#4a5568" d="M1569.05,-236.57C1625.8,-236.57 1695.21,-236.57 1751.02,-236.57"/>
<polygon fill="#4a5568" stroke="#4a5568" points="1751.27,-240.07 1761.27,-236.57 1751.27,-233.07 1751.27,-240.07"/>
<text text-anchor="middle" x="1652" y="-239.37" font-family="Helvetica,sans-Serif" font-size="9.00">startup warm</text>
</g>
<!-- QUERY_SERVICE&#45;&gt;PROJECTION_CACHE -->
<g id="edge26" class="edge">
<title>QUERY_SERVICE&#45;&gt;PROJECTION_CACHE</title>
<path fill="none" stroke="#4a5568" d="M1930.25,-169.79C1949.11,-167.56 1969.27,-165.34 1988,-163.57 2031.89,-159.42 2080.62,-155.87 2121.76,-153.17"/>
<polygon fill="#4a5568" stroke="#4a5568" points="2122.03,-156.66 2131.78,-152.52 2121.57,-149.67 2122.03,-156.66"/>
<text text-anchor="middle" x="2047" y="-166.37" font-family="Helvetica,sans-Serif" font-size="9.00">warm reads</text>
</g>
<!-- QUERY_SERVICE&#45;&gt;PROJECTION_STORE -->
<g id="edge27" class="edge">
<title>QUERY_SERVICE&#45;&gt;PROJECTION_STORE</title>
<path fill="none" stroke="#4a5568" d="M1930.06,-190.75C1944.17,-195.11 1958.16,-201.16 1970,-209.57 1981.76,-217.92 1975.67,-229.08 1988,-236.57 2051.25,-274.96 2245.6,-263.27 2319,-272.57 2353.48,-276.94 2391.34,-282.29 2424.36,-287.14"/>
<polygon fill="#4a5568" stroke="#4a5568" points="2424.04,-290.63 2434.44,-288.63 2425.06,-283.71 2424.04,-290.63"/>
<text text-anchor="middle" x="2217.5" y="-275.37" font-family="Helvetica,sans-Serif" font-size="9.00">history / fallback reads</text>
</g>
<!-- SEED_SERVICE -->
<g id="node15" class="node">
<title>SEED_SERVICE</title>
<path fill="#d1fae5" stroke="black" d="M1958,-140.57C1958,-140.57 1747,-140.57 1747,-140.57 1741,-140.57 1735,-134.57 1735,-128.57 1735,-128.57 1735,-116.57 1735,-116.57 1735,-110.57 1741,-104.57 1747,-104.57 1747,-104.57 1958,-104.57 1958,-104.57 1964,-104.57 1970,-110.57 1970,-116.57 1970,-116.57 1970,-128.57 1970,-128.57 1970,-134.57 1964,-140.57 1958,-140.57"/>
<text text-anchor="middle" x="1852.5" y="-125.57" font-family="Helvetica,sans-Serif" font-size="10.00">SecurityMasterCanonicalSymbolSeedService</text>
<text text-anchor="middle" x="1852.5" y="-114.57" font-family="Helvetica,sans-Serif" font-size="10.00">seed canonical&#45;symbol cache</text>
</g>
<!-- SEED_SERVICE&#45;&gt;PROJECTION_CACHE -->
<g id="edge25" class="edge">
<title>SEED_SERVICE&#45;&gt;PROJECTION_CACHE</title>
<path fill="none" stroke="#4a5568" d="M1970.31,-121.78C2013.08,-122.43 2061.81,-124.27 2106,-128.57 2111.14,-129.07 2116.39,-129.67 2121.69,-130.34"/>
<polygon fill="#4a5568" stroke="#4a5568" points="2121.53,-133.85 2131.91,-131.72 2122.47,-126.91 2121.53,-133.85"/>
<text text-anchor="middle" x="2047" y="-131.37" font-family="Helvetica,sans-Serif" font-size="9.00">canonical symbol seed</text>
</g>
<!-- LOOKUP -->
<g id="node16" class="node">
<title>LOOKUP</title>
<path fill="#d1fae5" stroke="black" d="M1556.5,-200.57C1556.5,-200.57 1366.5,-200.57 1366.5,-200.57 1360.5,-200.57 1354.5,-194.57 1354.5,-188.57 1354.5,-188.57 1354.5,-176.57 1354.5,-176.57 1354.5,-170.57 1360.5,-164.57 1366.5,-164.57 1366.5,-164.57 1556.5,-164.57 1556.5,-164.57 1562.5,-164.57 1568.5,-170.57 1568.5,-176.57 1568.5,-176.57 1568.5,-188.57 1568.5,-188.57 1568.5,-194.57 1562.5,-200.57 1556.5,-200.57"/>
<text text-anchor="middle" x="1461.5" y="-185.57" font-family="Helvetica,sans-Serif" font-size="10.00">SecurityMasterSecurityReferenceLookup</text>
<text text-anchor="middle" x="1461.5" y="-174.57" font-family="Helvetica,sans-Serif" font-size="10.00">portfolio / ledger enrichment</text>
</g>
<!-- LOOKUP&#45;&gt;QUERY_SERVICE -->
<g id="edge28" class="edge">
<title>LOOKUP&#45;&gt;QUERY_SERVICE</title>
<path fill="none" stroke="#4a5568" d="M1568.54,-181.75C1630.08,-181.28 1706.65,-180.68 1764.6,-180.24"/>
<polygon fill="#4a5568" stroke="#4a5568" points="1764.86,-183.74 1774.84,-180.16 1764.81,-176.74 1764.86,-183.74"/>
<text text-anchor="middle" x="1652" y="-184.37" font-family="Helvetica,sans-Serif" font-size="9.00">security reference resolution</text>
</g>
<!-- LEG_INPUT -->
<g id="node22" class="node">
<title>LEG_INPUT</title>
<path fill="#fbd38d" stroke="black" d="M145.5,-811.57C145.5,-811.57 56.5,-811.57 56.5,-811.57 50.5,-811.57 44.5,-805.57 44.5,-799.57 44.5,-799.57 44.5,-787.57 44.5,-787.57 44.5,-781.57 50.5,-775.57 56.5,-775.57 56.5,-775.57 145.5,-775.57 145.5,-775.57 151.5,-775.57 157.5,-781.57 157.5,-787.57 157.5,-787.57 157.5,-799.57 157.5,-799.57 157.5,-805.57 151.5,-811.57 145.5,-811.57"/>
<text text-anchor="middle" x="101" y="-791.07" font-family="Helvetica,sans-Serif" font-size="10.00">Import / ingest path</text>
</g>
<!-- LEG_CORE -->
<g id="node23" class="node">
<title>LEG_CORE</title>
<path fill="#93c5fd" stroke="black" d="M127.5,-757.57C127.5,-757.57 74.5,-757.57 74.5,-757.57 68.5,-757.57 62.5,-751.57 62.5,-745.57 62.5,-745.57 62.5,-733.57 62.5,-733.57 62.5,-727.57 68.5,-721.57 74.5,-721.57 74.5,-721.57 127.5,-721.57 127.5,-721.57 133.5,-721.57 139.5,-727.57 139.5,-733.57 139.5,-733.57 139.5,-745.57 139.5,-745.57 139.5,-751.57 133.5,-757.57 127.5,-757.57"/>
<text text-anchor="middle" x="101" y="-737.07" font-family="Helvetica,sans-Serif" font-size="10.00">Core service</text>
</g>
<!-- LEG_CACHE -->
<g id="node24" class="node">
<title>LEG_CACHE</title>
<path fill="#d1fae5" stroke="black" d="M166,-703.57C166,-703.57 36,-703.57 36,-703.57 30,-703.57 24,-697.57 24,-691.57 24,-691.57 24,-679.57 24,-679.57 24,-673.57 30,-667.57 36,-667.57 36,-667.57 166,-667.57 166,-667.57 172,-667.57 178,-673.57 178,-679.57 178,-679.57 178,-691.57 178,-691.57 178,-697.57 172,-703.57 166,-703.57"/>
<text text-anchor="middle" x="101" y="-683.07" font-family="Helvetica,sans-Serif" font-size="10.00">Projection / cache consumer</text>
</g>
<!-- LEG_STORE -->
<g id="node25" class="node">
<title>LEG_STORE</title>
<path fill="#fecaca" stroke="black" d="M147.5,-646.29C147.5,-648.1 126.66,-649.57 101,-649.57 75.34,-649.57 54.5,-648.1 54.5,-646.29 54.5,-646.29 54.5,-616.84 54.5,-616.84 54.5,-615.03 75.34,-613.57 101,-613.57 126.66,-613.57 147.5,-615.03 147.5,-616.84 147.5,-616.84 147.5,-646.29 147.5,-646.29"/>
<path fill="none" stroke="black" d="M147.5,-646.29C147.5,-644.49 126.66,-643.02 101,-643.02 75.34,-643.02 54.5,-644.49 54.5,-646.29"/>
<text text-anchor="middle" x="101" y="-629.07" font-family="Helvetica,sans-Serif" font-size="10.00">Persistent store</text>
</g>
</g>
</svg>
