<?xml version="1.0" encoding="UTF-8" standalone="no"?>
<!DOCTYPE svg PUBLIC "-//W3C//DTD SVG 1.1//EN"
 "http://www.w3.org/Graphics/SVG/1.1/DTD/svg11.dtd">
<!-- Generated by graphviz version 2.43.0 (0)
 -->
<!-- Title: StrategyLifecycle Pages: 1 -->
<svg width="1085pt" height="1862pt"
 viewBox="0.00 0.00 1085.00 1862.17" xmlns="http://www.w3.org/2000/svg" xmlns:xlink="http://www.w3.org/1999/xlink">
<g id="graph0" class="graph" transform="scale(1 1) rotate(0) translate(36 1826.17)">
<title>StrategyLifecycle</title>
<polygon fill="white" stroke="transparent" points="-36,36 -36,-1826.17 1049,-1826.17 1049,36 -36,36"/>
<text text-anchor="middle" x="506.5" y="-1776.57" font-family="Helvetica,sans-Serif" font-size="12.00">Meridian &#45; Strategy Lifecycle</text>
<text text-anchor="middle" x="506.5" y="-1763.57" font-family="Helvetica,sans-Serif" font-size="12.00">Registration → Backtest → Paper → Live | v1.7.x</text>
<g id="clust1" class="cluster">
<title>cluster_sdk</title>
<path fill="#faf5ff" stroke="#805ad5" d="M671,-1075.7C671,-1075.7 906,-1075.7 906,-1075.7 912,-1075.7 918,-1081.7 918,-1087.7 918,-1087.7 918,-1594.17 918,-1594.17 918,-1600.17 912,-1606.17 906,-1606.17 906,-1606.17 671,-1606.17 671,-1606.17 665,-1606.17 659,-1600.17 659,-1594.17 659,-1594.17 659,-1087.7 659,-1087.7 659,-1081.7 665,-1075.7 671,-1075.7"/>
<text text-anchor="middle" x="788.5" y="-1592.57" font-family="Helvetica,sans-Serif" font-size="12.00">Strategy SDK (Meridian.Backtesting.Sdk)</text>
</g>
<g id="clust2" class="cluster">
<title>cluster_runtypes</title>
<path fill="#dbeafe" stroke="#2b6cb0" d="M221,-1122.35C221,-1122.35 639,-1122.35 639,-1122.35 645,-1122.35 651,-1128.35 651,-1134.35 651,-1134.35 651,-1222.35 651,-1222.35 651,-1228.35 645,-1234.35 639,-1234.35 639,-1234.35 221,-1234.35 221,-1234.35 215,-1234.35 209,-1228.35 209,-1222.35 209,-1222.35 209,-1134.35 209,-1134.35 209,-1128.35 215,-1122.35 221,-1122.35"/>
<text text-anchor="middle" x="430" y="-1220.75" font-family="Helvetica,sans-Serif" font-size="12.00">Run Types (RunType enum)</text>
</g>
<g id="clust3" class="cluster">
<title>cluster_manager</title>
<path fill="#d1fae5" stroke="#2c7a7b" d="M501,-603.26C501,-603.26 757,-603.26 757,-603.26 763,-603.26 769,-609.26 769,-615.26 769,-615.26 769,-1035.7 769,-1035.7 769,-1041.7 763,-1047.7 757,-1047.7 757,-1047.7 501,-1047.7 501,-1047.7 495,-1047.7 489,-1041.7 489,-1035.7 489,-1035.7 489,-615.26 489,-615.26 489,-609.26 495,-603.26 501,-603.26"/>
<text text-anchor="middle" x="629" y="-1034.1" font-family="Helvetica,sans-Serif" font-size="12.00">Strategy Management (Meridian.Strategies)</text>
</g>
<g id="clust4" class="cluster">
<title>cluster_states</title>
<path fill="#fffaf0" stroke="#ed8936" d="M20,-299.12C20,-299.12 469,-299.12 469,-299.12 475,-299.12 481,-305.12 481,-311.12 481,-311.12 481,-884.7 481,-884.7 481,-890.7 475,-896.7 469,-896.7 469,-896.7 20,-896.7 20,-896.7 14,-896.7 8,-890.7 8,-884.7 8,-884.7 8,-311.12 8,-311.12 8,-305.12 14,-299.12 20,-299.12"/>
<text text-anchor="middle" x="244.5" y="-883.1" font-family="Helvetica,sans-Serif" font-size="12.00">Strategy State Machine (StrategyStatus)</text>
</g>
<g id="clust5" class="cluster">
<title>cluster_portfolio</title>
<path fill="#fee2e2" stroke="#c53030" d="M555,-8C555,-8 962,-8 962,-8 968,-8 974,-14 974,-20 974,-20 974,-259.12 974,-259.12 974,-265.12 968,-271.12 962,-271.12 962,-271.12 555,-271.12 555,-271.12 549,-271.12 543,-265.12 543,-259.12 543,-259.12 543,-20 543,-20 543,-14 549,-8 555,-8"/>
<text text-anchor="middle" x="758.5" y="-257.52" font-family="Helvetica,sans-Serif" font-size="12.00">Portfolio &amp; Performance Tracking</text>
</g>
<g id="clust6" class="cluster">
<title>cluster_promote</title>
<path fill="#c6f6d5" stroke="#38a169" d="M446,-1312.99C446,-1312.99 626,-1312.99 626,-1312.99 632,-1312.99 638,-1318.99 638,-1324.99 638,-1324.99 638,-1736.17 638,-1736.17 638,-1742.17 632,-1748.17 626,-1748.17 626,-1748.17 446,-1748.17 446,-1748.17 440,-1748.17 434,-1742.17 434,-1736.17 434,-1736.17 434,-1324.99 434,-1324.99 434,-1318.99 440,-1312.99 446,-1312.99"/>
<text text-anchor="middle" x="536" y="-1734.57" font-family="Helvetica,sans-Serif" font-size="12.00">Backtest → Live Promotion Path</text>
</g>
<g id="clust7" class="cluster">
<title>cluster_legend</title>
<path fill="#fafafa" stroke="#666666" d="M751,-1642.17C751,-1642.17 895,-1642.17 895,-1642.17 901,-1642.17 907,-1648.17 907,-1654.17 907,-1654.17 907,-1719.17 907,-1719.17 907,-1725.17 901,-1731.17 895,-1731.17 895,-1731.17 751,-1731.17 751,-1731.17 745,-1731.17 739,-1725.17 739,-1719.17 739,-1719.17 739,-1654.17 739,-1654.17 739,-1648.17 745,-1642.17 751,-1642.17"/>
<text text-anchor="middle" x="823" y="-1717.57" font-family="Helvetica,sans-Serif" font-size="12.00">Legend</text>
</g>
<!-- I_LIFECYCLE -->
<g id="node1" class="node">
<title>I_LIFECYCLE</title>
<ellipse fill="#ddd6fe" stroke="black" cx="756" cy="-1167.85" rx="73.58" ry="84.29"/>
<text text-anchor="middle" x="756" y="-1215.35" font-family="Helvetica,sans-Serif" font-size="10.00">IStrategyLifecycle</text>
<text text-anchor="middle" x="756" y="-1204.35" font-family="Helvetica,sans-Serif" font-size="10.00">[Interface]</text>
<text text-anchor="middle" x="756" y="-1181.35" font-family="Helvetica,sans-Serif" font-size="10.00">Initialize(context)</text>
<text text-anchor="middle" x="756" y="-1170.35" font-family="Helvetica,sans-Serif" font-size="10.00">OnBarClosed(bar)</text>
<text text-anchor="middle" x="756" y="-1159.35" font-family="Helvetica,sans-Serif" font-size="10.00">OnTrade(trade)</text>
<text text-anchor="middle" x="756" y="-1148.35" font-family="Helvetica,sans-Serif" font-size="10.00">OnQuote(bbo)</text>
<text text-anchor="middle" x="756" y="-1137.35" font-family="Helvetica,sans-Serif" font-size="10.00">OnDepth(lob)</text>
<text text-anchor="middle" x="756" y="-1126.35" font-family="Helvetica,sans-Serif" font-size="10.00">OnAssetEvent(ev)</text>
<text text-anchor="middle" x="756" y="-1115.35" font-family="Helvetica,sans-Serif" font-size="10.00">Finalize(context)</text>
</g>
<!-- SLM -->
<g id="node7" class="node">
<title>SLM</title>
<path fill="#6ee7b7" stroke="black" d="M643,-1018.7C643,-1018.7 509,-1018.7 509,-1018.7 503,-1018.7 497,-1012.7 497,-1006.7 497,-1006.7 497,-944.7 497,-944.7 497,-938.7 503,-932.7 509,-932.7 509,-932.7 643,-932.7 643,-932.7 649,-932.7 655,-938.7 655,-944.7 655,-944.7 655,-1006.7 655,-1006.7 655,-1012.7 649,-1018.7 643,-1018.7"/>
<text text-anchor="middle" x="576" y="-1006.7" font-family="Helvetica,sans-Serif" font-size="10.00">StrategyLifecycleManager</text>
<text text-anchor="middle" x="576" y="-983.7" font-family="Helvetica,sans-Serif" font-size="10.00">Register strategy</text>
<text text-anchor="middle" x="576" y="-972.7" font-family="Helvetica,sans-Serif" font-size="10.00">Activate/Pause/Stop</text>
<text text-anchor="middle" x="576" y="-961.7" font-family="Helvetica,sans-Serif" font-size="10.00">Thread&#45;safe state transitions</text>
<text text-anchor="middle" x="576" y="-950.7" font-family="Helvetica,sans-Serif" font-size="10.00">Event dispatching</text>
<text text-anchor="middle" x="576" y="-939.7" font-family="Helvetica,sans-Serif" font-size="10.00">Error isolation per strategy</text>
</g>
<!-- I_LIFECYCLE&#45;&gt;SLM -->
<g id="edge9" class="edge">
<title>I_LIFECYCLE&#45;&gt;SLM</title>
<path fill="none" stroke="#2c7a7b" stroke-width="2" d="M705.95,-1105.75C691.79,-1089.17 676.11,-1071.46 661,-1055.7 651.46,-1045.76 640.95,-1035.49 630.67,-1025.78"/>
<polygon fill="#2c7a7b" stroke="#2c7a7b" stroke-width="2" points="632.93,-1023.1 623.24,-1018.82 628.15,-1028.21 632.93,-1023.1"/>
<text text-anchor="middle" x="686.5" y="-1058.5" font-family="Helvetica,sans-Serif" font-size="9.00">register</text>
</g>
<!-- I_CONTEXT -->
<g id="node2" class="node">
<title>I_CONTEXT</title>
<ellipse fill="#ddd6fe" stroke="black" cx="788" cy="-1508.58" rx="120.83" ry="68.68"/>
<text text-anchor="middle" x="788" y="-1545.08" font-family="Helvetica,sans-Serif" font-size="10.00">IBacktestContext / ILiveContext</text>
<text text-anchor="middle" x="788" y="-1534.08" font-family="Helvetica,sans-Serif" font-size="10.00">[Interface]</text>
<text text-anchor="middle" x="788" y="-1511.08" font-family="Helvetica,sans-Serif" font-size="10.00">PortfolioState</text>
<text text-anchor="middle" x="788" y="-1500.08" font-family="Helvetica,sans-Serif" font-size="10.00">CurrentTime</text>
<text text-anchor="middle" x="788" y="-1489.08" font-family="Helvetica,sans-Serif" font-size="10.00">Universe</text>
<text text-anchor="middle" x="788" y="-1478.08" font-family="Helvetica,sans-Serif" font-size="10.00">OrderGateway</text>
<text text-anchor="middle" x="788" y="-1467.08" font-family="Helvetica,sans-Serif" font-size="10.00">Risk controls</text>
</g>
<!-- STRATEGY_IMPL -->
<g id="node3" class="node">
<title>STRATEGY_IMPL</title>
<path fill="#e9d5ff" stroke="black" d="M845.5,-1393.99C845.5,-1393.99 696.5,-1393.99 696.5,-1393.99 690.5,-1393.99 684.5,-1387.99 684.5,-1381.99 684.5,-1381.99 684.5,-1319.99 684.5,-1319.99 684.5,-1313.99 690.5,-1307.99 696.5,-1307.99 696.5,-1307.99 845.5,-1307.99 845.5,-1307.99 851.5,-1307.99 857.5,-1313.99 857.5,-1319.99 857.5,-1319.99 857.5,-1381.99 857.5,-1381.99 857.5,-1387.99 851.5,-1393.99 845.5,-1393.99"/>
<text text-anchor="middle" x="771" y="-1381.99" font-family="Helvetica,sans-Serif" font-size="10.00">User Strategy</text>
<text text-anchor="middle" x="771" y="-1370.99" font-family="Helvetica,sans-Serif" font-size="10.00">[Implements IStrategyLifecycle]</text>
<text text-anchor="middle" x="771" y="-1347.99" font-family="Helvetica,sans-Serif" font-size="10.00">Custom signal logic</text>
<text text-anchor="middle" x="771" y="-1336.99" font-family="Helvetica,sans-Serif" font-size="10.00">Order management</text>
<text text-anchor="middle" x="771" y="-1325.99" font-family="Helvetica,sans-Serif" font-size="10.00">Risk rules</text>
<text text-anchor="middle" x="771" y="-1314.99" font-family="Helvetica,sans-Serif" font-size="10.00">Position sizing</text>
</g>
<!-- I_CONTEXT&#45;&gt;STRATEGY_IMPL -->
<g id="edge10" class="edge">
<title>I_CONTEXT&#45;&gt;STRATEGY_IMPL</title>
<path fill="none" stroke="#4a5568" stroke-dasharray="5,2" d="M780.59,-1439.79C779.29,-1427.88 777.96,-1415.65 776.71,-1404.24"/>
<polygon fill="#4a5568" stroke="#4a5568" points="780.16,-1403.59 775.59,-1394.03 773.2,-1404.35 780.16,-1403.59"/>
<text text-anchor="middle" x="796.5" y="-1414.79" font-family="Helvetica,sans-Serif" font-size="9.00">injected</text>
</g>
<!-- STRATEGY_IMPL&#45;&gt;I_LIFECYCLE -->
<g id="edge8" class="edge">
<title>STRATEGY_IMPL&#45;&gt;I_LIFECYCLE</title>
<path fill="none" stroke="#4a5568" stroke-dasharray="5,2" d="M767.52,-1307.98C766.37,-1294.05 765.03,-1277.93 763.69,-1261.72"/>
<polygon fill="#4a5568" stroke="#4a5568" points="767.17,-1261.31 762.86,-1251.64 760.19,-1261.89 767.17,-1261.31"/>
<text text-anchor="middle" x="792" y="-1277.79" font-family="Helvetica,sans-Serif" font-size="9.00">implements</text>
</g>
<!-- BACKTEST -->
<g id="node4" class="node">
<title>BACKTEST</title>
<path fill="#bfdbfe" stroke="black" d="M630.5,-1205.35C630.5,-1205.35 521.5,-1205.35 521.5,-1205.35 515.5,-1205.35 509.5,-1199.35 509.5,-1193.35 509.5,-1193.35 509.5,-1142.35 509.5,-1142.35 509.5,-1136.35 515.5,-1130.35 521.5,-1130.35 521.5,-1130.35 630.5,-1130.35 630.5,-1130.35 636.5,-1130.35 642.5,-1136.35 642.5,-1142.35 642.5,-1142.35 642.5,-1193.35 642.5,-1193.35 642.5,-1199.35 636.5,-1205.35 630.5,-1205.35"/>
<text text-anchor="middle" x="576" y="-1193.35" font-family="Helvetica,sans-Serif" font-size="10.00">Backtest</text>
<text text-anchor="middle" x="576" y="-1170.35" font-family="Helvetica,sans-Serif" font-size="10.00">Historical JSONL replay</text>
<text text-anchor="middle" x="576" y="-1159.35" font-family="Helvetica,sans-Serif" font-size="10.00">Full metrics output</text>
<text text-anchor="middle" x="576" y="-1148.35" font-family="Helvetica,sans-Serif" font-size="10.00">No live orders</text>
<text text-anchor="middle" x="576" y="-1137.35" font-family="Helvetica,sans-Serif" font-size="10.00">Deterministic execution</text>
</g>
<!-- BACKTEST&#45;&gt;SLM -->
<g id="edge11" class="edge">
<title>BACKTEST&#45;&gt;SLM</title>
<path fill="none" stroke="#2b6cb0" d="M576,-1130.19C576,-1101.46 576,-1061.12 576,-1029"/>
<polygon fill="#2b6cb0" stroke="#2b6cb0" points="579.5,-1028.89 576,-1018.89 572.5,-1028.89 579.5,-1028.89"/>
<text text-anchor="middle" x="616.5" y="-1058.5" font-family="Helvetica,sans-Serif" font-size="9.00">RunType.Backtest</text>
</g>
<!-- PAPER -->
<g id="node5" class="node">
<title>PAPER</title>
<path fill="#bfdbfe" stroke="black" d="M332.5,-1205.35C332.5,-1205.35 229.5,-1205.35 229.5,-1205.35 223.5,-1205.35 217.5,-1199.35 217.5,-1193.35 217.5,-1193.35 217.5,-1142.35 217.5,-1142.35 217.5,-1136.35 223.5,-1130.35 229.5,-1130.35 229.5,-1130.35 332.5,-1130.35 332.5,-1130.35 338.5,-1130.35 344.5,-1136.35 344.5,-1142.35 344.5,-1142.35 344.5,-1193.35 344.5,-1193.35 344.5,-1199.35 338.5,-1205.35 332.5,-1205.35"/>
<text text-anchor="middle" x="281" y="-1193.35" font-family="Helvetica,sans-Serif" font-size="10.00">Paper Trading</text>
<text text-anchor="middle" x="281" y="-1170.35" font-family="Helvetica,sans-Serif" font-size="10.00">Real&#45;time market data</text>
<text text-anchor="middle" x="281" y="-1159.35" font-family="Helvetica,sans-Serif" font-size="10.00">Simulated order fills</text>
<text text-anchor="middle" x="281" y="-1148.35" font-family="Helvetica,sans-Serif" font-size="10.00">Zero capital risk</text>
<text text-anchor="middle" x="281" y="-1137.35" font-family="Helvetica,sans-Serif" font-size="10.00">Live market validation</text>
</g>
<!-- PAPER&#45;&gt;SLM -->
<g id="edge12" class="edge">
<title>PAPER&#45;&gt;SLM</title>
<path fill="none" stroke="#2b6cb0" d="M304.29,-1130.05C317.21,-1111.88 334.58,-1090.69 354,-1075.7 393.67,-1045.07 444.32,-1021.56 487.21,-1005.14"/>
<polygon fill="#2b6cb0" stroke="#2b6cb0" points="488.67,-1008.33 496.8,-1001.54 486.21,-1001.78 488.67,-1008.33"/>
<text text-anchor="middle" x="413.5" y="-1058.5" font-family="Helvetica,sans-Serif" font-size="9.00">RunType.Paper</text>
</g>
<!-- LIVE -->
<g id="node6" class="node">
<title>LIVE</title>
<path fill="#93c5fd" stroke="black" d="M479,-1205.35C479,-1205.35 375,-1205.35 375,-1205.35 369,-1205.35 363,-1199.35 363,-1193.35 363,-1193.35 363,-1142.35 363,-1142.35 363,-1136.35 369,-1130.35 375,-1130.35 375,-1130.35 479,-1130.35 479,-1130.35 485,-1130.35 491,-1136.35 491,-1142.35 491,-1142.35 491,-1193.35 491,-1193.35 491,-1199.35 485,-1205.35 479,-1205.35"/>
<text text-anchor="middle" x="427" y="-1193.35" font-family="Helvetica,sans-Serif" font-size="10.00">Live Trading</text>
<text text-anchor="middle" x="427" y="-1182.35" font-family="Helvetica,sans-Serif" font-size="10.00">[Future]</text>
<text text-anchor="middle" x="427" y="-1159.35" font-family="Helvetica,sans-Serif" font-size="10.00">Real broker connection</text>
<text text-anchor="middle" x="427" y="-1148.35" font-family="Helvetica,sans-Serif" font-size="10.00">Real capital at risk</text>
<text text-anchor="middle" x="427" y="-1137.35" font-family="Helvetica,sans-Serif" font-size="10.00">Promotion from Paper</text>
</g>
<!-- LIVE&#45;&gt;SLM -->
<g id="edge13" class="edge">
<title>LIVE&#45;&gt;SLM</title>
<path fill="none" stroke="#2b6cb0" stroke-dasharray="5,2" d="M454.69,-1130.11C471.18,-1108.36 492.62,-1080.33 512,-1055.7 519.42,-1046.28 527.41,-1036.29 535.15,-1026.7"/>
<polygon fill="#2b6cb0" stroke="#2b6cb0" points="538,-1028.73 541.57,-1018.76 532.56,-1024.33 538,-1028.73"/>
<text text-anchor="middle" x="542" y="-1058.5" font-family="Helvetica,sans-Serif" font-size="9.00">RunType.Live</text>
</g>
<!-- RUN_STORE -->
<g id="node8" class="node">
<title>RUN_STORE</title>
<path fill="#a7f3d0" stroke="black" d="M637,-870.93C637,-876.87 610.11,-881.7 577,-881.7 543.89,-881.7 517,-876.87 517,-870.93 517,-870.93 517,-773.97 517,-773.97 517,-768.03 543.89,-763.2 577,-763.2 610.11,-763.2 637,-768.03 637,-773.97 637,-773.97 637,-870.93 637,-870.93"/>
<path fill="none" stroke="black" d="M637,-870.93C637,-864.98 610.11,-860.15 577,-860.15 543.89,-860.15 517,-864.98 517,-870.93"/>
<text text-anchor="middle" x="577" y="-853.45" font-family="Helvetica,sans-Serif" font-size="10.00">StrategyRunStore</text>
<text text-anchor="middle" x="577" y="-830.45" font-family="Helvetica,sans-Serif" font-size="10.00">Persist run metadata</text>
<text text-anchor="middle" x="577" y="-819.45" font-family="Helvetica,sans-Serif" font-size="10.00">Status + timestamps</text>
<text text-anchor="middle" x="577" y="-808.45" font-family="Helvetica,sans-Serif" font-size="10.00">Symbol universe</text>
<text text-anchor="middle" x="577" y="-797.45" font-family="Helvetica,sans-Serif" font-size="10.00">Result summary</text>
<text text-anchor="middle" x="577" y="-786.45" font-family="Helvetica,sans-Serif" font-size="10.00">Run history</text>
</g>
<!-- SLM&#45;&gt;RUN_STORE -->
<g id="edge15" class="edge">
<title>SLM&#45;&gt;RUN_STORE</title>
<path fill="none" stroke="#2c7a7b" d="M576.28,-932.57C576.36,-919.91 576.46,-905.68 576.55,-891.78"/>
<polygon fill="#2c7a7b" stroke="#2c7a7b" points="580.05,-891.77 576.61,-881.74 573.05,-891.72 580.05,-891.77"/>
<text text-anchor="middle" x="591.5" y="-907.5" font-family="Helvetica,sans-Serif" font-size="9.00">persist</text>
</g>
<!-- S_INIT -->
<g id="node10" class="node">
<title>S_INIT</title>
<ellipse fill="#feebc8" stroke="black" cx="377" cy="-822.45" rx="96.33" ry="45.01"/>
<text text-anchor="middle" x="377" y="-842.45" font-family="Helvetica,sans-Serif" font-size="10.00">Initialized</text>
<text text-anchor="middle" x="377" y="-819.45" font-family="Helvetica,sans-Serif" font-size="10.00">Loaded, not running</text>
<text text-anchor="middle" x="377" y="-808.45" font-family="Helvetica,sans-Serif" font-size="10.00">Context validated</text>
<text text-anchor="middle" x="377" y="-797.45" font-family="Helvetica,sans-Serif" font-size="10.00">Readiness check passed</text>
</g>
<!-- SLM&#45;&gt;S_INIT -->
<g id="edge14" class="edge">
<title>SLM&#45;&gt;S_INIT</title>
<path fill="none" stroke="#ed8936" stroke-width="2" d="M520.57,-932.57C493.89,-912.29 461.91,-887.98 434.91,-867.46"/>
<polygon fill="#ed8936" stroke="#ed8936" stroke-width="2" points="436.78,-864.49 426.7,-861.23 432.55,-870.06 436.78,-864.49"/>
<text text-anchor="middle" x="508.5" y="-907.5" font-family="Helvetica,sans-Serif" font-size="9.00">create</text>
</g>
<!-- I_REPO -->
<g id="node9" class="node">
<title>I_REPO</title>
<ellipse fill="#a7f3d0" stroke="black" cx="578" cy="-664.29" rx="80.72" ry="53.07"/>
<text text-anchor="middle" x="578" y="-689.79" font-family="Helvetica,sans-Serif" font-size="10.00">IStrategyRepository</text>
<text text-anchor="middle" x="578" y="-678.79" font-family="Helvetica,sans-Serif" font-size="10.00">[Interface]</text>
<text text-anchor="middle" x="578" y="-655.79" font-family="Helvetica,sans-Serif" font-size="10.00">Query runs by type</text>
<text text-anchor="middle" x="578" y="-644.79" font-family="Helvetica,sans-Serif" font-size="10.00">Filter by status/date</text>
<text text-anchor="middle" x="578" y="-633.79" font-family="Helvetica,sans-Serif" font-size="10.00">Get run details</text>
</g>
<!-- RUN_STORE&#45;&gt;I_REPO -->
<g id="edge16" class="edge">
<title>RUN_STORE&#45;&gt;I_REPO</title>
<path fill="none" stroke="#4a5568" stroke-dasharray="5,2" d="M577.37,-763.3C577.45,-751.7 577.52,-739.47 577.6,-727.73"/>
<polygon fill="#4a5568" stroke="#4a5568" points="581.1,-727.59 577.67,-717.56 574.1,-727.54 581.1,-727.59"/>
</g>
<!-- S_RUN -->
<g id="node11" class="node">
<title>S_RUN</title>
<ellipse fill="#68d391" stroke="black" cx="256" cy="-664.29" rx="93.18" ry="45.01"/>
<text text-anchor="middle" x="256" y="-684.29" font-family="Helvetica,sans-Serif" font-size="10.00">Running</text>
<text text-anchor="middle" x="256" y="-661.29" font-family="Helvetica,sans-Serif" font-size="10.00">Receiving events</text>
<text text-anchor="middle" x="256" y="-650.29" font-family="Helvetica,sans-Serif" font-size="10.00">Orders accepted</text>
<text text-anchor="middle" x="256" y="-639.29" font-family="Helvetica,sans-Serif" font-size="10.00">Active position tracking</text>
</g>
<!-- S_INIT&#45;&gt;S_RUN -->
<g id="edge1" class="edge">
<title>S_INIT&#45;&gt;S_RUN</title>
<path fill="none" stroke="#38a169" d="M344.57,-779.6C329.19,-759.74 310.68,-735.86 294.58,-715.08"/>
<polygon fill="#38a169" stroke="#38a169" points="297.2,-712.74 288.31,-706.98 291.66,-717.03 297.2,-712.74"/>
<text text-anchor="middle" x="338.5" y="-738.12" font-family="Helvetica,sans-Serif" font-size="9.00">Activate()</text>
</g>
<!-- S_PAUSE -->
<g id="node12" class="node">
<title>S_PAUSE</title>
<ellipse fill="#fbd38d" stroke="black" cx="118" cy="-512.22" rx="101.65" ry="53.07"/>
<text text-anchor="middle" x="118" y="-537.72" font-family="Helvetica,sans-Serif" font-size="10.00">Paused</text>
<text text-anchor="middle" x="118" y="-514.72" font-family="Helvetica,sans-Serif" font-size="10.00">Event dispatch suspended</text>
<text text-anchor="middle" x="118" y="-503.72" font-family="Helvetica,sans-Serif" font-size="10.00">Positions held</text>
<text text-anchor="middle" x="118" y="-492.72" font-family="Helvetica,sans-Serif" font-size="10.00">Orders blocked</text>
<text text-anchor="middle" x="118" y="-481.72" font-family="Helvetica,sans-Serif" font-size="10.00">Resumable</text>
</g>
<!-- S_RUN&#45;&gt;S_PAUSE -->
<g id="edge2" class="edge">
<title>S_RUN&#45;&gt;S_PAUSE</title>
<path fill="none" stroke="#ed8936" d="M218.66,-622.68C203.15,-605.82 184.92,-586 168.27,-567.89"/>
<polygon fill="#ed8936" stroke="#ed8936" points="170.58,-565.24 161.24,-560.24 165.43,-569.97 170.58,-565.24"/>
<text text-anchor="middle" x="209" y="-586.06" font-family="Helvetica,sans-Serif" font-size="9.00">Pause()</text>
</g>
<!-- S_STOP -->
<g id="node13" class="node">
<title>S_STOP</title>
<ellipse fill="#fc8181" stroke="black" cx="256" cy="-360.16" rx="88.28" ry="53.07"/>
<text text-anchor="middle" x="256" y="-385.66" font-family="Helvetica,sans-Serif" font-size="10.00">Stopped</text>
<text text-anchor="middle" x="256" y="-362.66" font-family="Helvetica,sans-Serif" font-size="10.00">Finalize() called</text>
<text text-anchor="middle" x="256" y="-351.66" font-family="Helvetica,sans-Serif" font-size="10.00">Positions closed</text>
<text text-anchor="middle" x="256" y="-340.66" font-family="Helvetica,sans-Serif" font-size="10.00">Final metrics recorded</text>
<text text-anchor="middle" x="256" y="-329.66" font-family="Helvetica,sans-Serif" font-size="10.00">Terminal state</text>
</g>
<!-- S_RUN&#45;&gt;S_STOP -->
<g id="edge4" class="edge">
<title>S_RUN&#45;&gt;S_STOP</title>
<path fill="none" stroke="#c53030" d="M256,-619.03C256,-567.47 256,-481.91 256,-423.6"/>
<polygon fill="#c53030" stroke="#c53030" points="259.5,-423.4 256,-413.4 252.5,-423.4 259.5,-423.4"/>
<text text-anchor="middle" x="270.5" y="-510.02" font-family="Helvetica,sans-Serif" font-size="9.00">Stop()</text>
</g>
<!-- S_ERROR -->
<g id="node14" class="node">
<title>S_ERROR</title>
<ellipse fill="#fed7d7" stroke="black" cx="388" cy="-512.22" rx="84.71" ry="53.07"/>
<text text-anchor="middle" x="388" y="-537.72" font-family="Helvetica,sans-Serif" font-size="10.00">Error</text>
<text text-anchor="middle" x="388" y="-514.72" font-family="Helvetica,sans-Serif" font-size="10.00">Unhandled exception</text>
<text text-anchor="middle" x="388" y="-503.72" font-family="Helvetica,sans-Serif" font-size="10.00">Safe shutdown</text>
<text text-anchor="middle" x="388" y="-492.72" font-family="Helvetica,sans-Serif" font-size="10.00">Error logged</text>
<text text-anchor="middle" x="388" y="-481.72" font-family="Helvetica,sans-Serif" font-size="10.00">Retry possible</text>
</g>
<!-- S_RUN&#45;&gt;S_ERROR -->
<g id="edge6" class="edge">
<title>S_RUN&#45;&gt;S_ERROR</title>
<path fill="none" stroke="#c53030" stroke-dasharray="5,2" d="M292.07,-622.28C307.16,-605.12 324.91,-584.95 341.01,-566.65"/>
<polygon fill="#c53030" stroke="#c53030" points="343.81,-568.76 347.79,-558.94 338.56,-564.13 343.81,-568.76"/>
<text text-anchor="middle" x="347.5" y="-586.06" font-family="Helvetica,sans-Serif" font-size="9.00">exception</text>
</g>
<!-- S_PAUSE&#45;&gt;S_RUN -->
<g id="edge3" class="edge">
<title>S_PAUSE&#45;&gt;S_RUN</title>
<path fill="none" stroke="#38a169" d="M122.52,-565.41C125.13,-575.3 129.08,-585.09 135,-593.26 145.64,-607.93 160.37,-620 175.9,-629.74"/>
<polygon fill="#38a169" stroke="#38a169" points="174.2,-632.8 184.59,-634.91 177.78,-626.78 174.2,-632.8"/>
<text text-anchor="middle" x="157" y="-586.06" font-family="Helvetica,sans-Serif" font-size="9.00">Resume()</text>
</g>
<!-- S_PAUSE&#45;&gt;S_STOP -->
<g id="edge5" class="edge">
<title>S_PAUSE&#45;&gt;S_STOP</title>
<path fill="none" stroke="#c53030" d="M161.29,-464.15C175.69,-448.49 191.83,-430.94 206.66,-414.82"/>
<polygon fill="#c53030" stroke="#c53030" points="209.62,-416.76 213.81,-407.03 204.47,-412.02 209.62,-416.76"/>
<text text-anchor="middle" x="206.5" y="-433.99" font-family="Helvetica,sans-Serif" font-size="9.00">Stop()</text>
</g>
<!-- PORT_SNAP -->
<g id="node18" class="node">
<title>PORT_SNAP</title>
<path fill="#feb2b2" stroke="black" d="M742,-232.8C742,-237.98 712.42,-242.19 676,-242.19 639.58,-242.19 610,-237.98 610,-232.8 610,-232.8 610,-148.32 610,-148.32 610,-143.14 639.58,-138.94 676,-138.94 712.42,-138.94 742,-143.14 742,-148.32 742,-148.32 742,-232.8 742,-232.8"/>
<path fill="none" stroke="black" d="M742,-232.8C742,-227.62 712.42,-223.41 676,-223.41 639.58,-223.41 610,-227.62 610,-232.8"/>
<text text-anchor="middle" x="676" y="-216.06" font-family="Helvetica,sans-Serif" font-size="10.00">Portfolio Snapshots</text>
<text text-anchor="middle" x="676" y="-193.06" font-family="Helvetica,sans-Serif" font-size="10.00">EOD position snapshots</text>
<text text-anchor="middle" x="676" y="-182.06" font-family="Helvetica,sans-Serif" font-size="10.00">NAV time series</text>
<text text-anchor="middle" x="676" y="-171.06" font-family="Helvetica,sans-Serif" font-size="10.00">Drawdown history</text>
<text text-anchor="middle" x="676" y="-160.06" font-family="Helvetica,sans-Serif" font-size="10.00">Risk exposure history</text>
</g>
<!-- S_STOP&#45;&gt;PORT_SNAP -->
<g id="edge17" class="edge">
<title>S_STOP&#45;&gt;PORT_SNAP</title>
<path fill="none" stroke="#c53030" d="M329.16,-329.97C405.11,-299.66 523.37,-252.47 600.27,-221.78"/>
<polygon fill="#c53030" stroke="#c53030" points="601.91,-224.9 609.9,-217.94 599.31,-218.39 601.91,-224.9"/>
<text text-anchor="middle" x="479" y="-281.93" font-family="Helvetica,sans-Serif" font-size="9.00">record EOD</text>
</g>
<!-- S_ERROR&#45;&gt;S_INIT -->
<g id="edge7" class="edge">
<title>S_ERROR&#45;&gt;S_INIT</title>
<path fill="none" stroke="#2b6cb0" stroke-dasharray="5,2" d="M386.14,-565.43C384.14,-621.38 380.98,-709.81 378.95,-766.72"/>
<polygon fill="#2b6cb0" stroke="#2b6cb0" points="375.45,-766.84 378.59,-776.96 382.44,-767.09 375.45,-766.84"/>
<text text-anchor="middle" x="400.5" y="-662.09" font-family="Helvetica,sans-Serif" font-size="9.00">Reset()</text>
</g>
<!-- PORT_READ -->
<g id="node15" class="node">
<title>PORT_READ</title>
<path fill="#fecaca" stroke="black" d="M798.5,-102C798.5,-102 691.5,-102 691.5,-102 685.5,-102 679.5,-96 679.5,-90 679.5,-90 679.5,-28 679.5,-28 679.5,-22 685.5,-16 691.5,-16 691.5,-16 798.5,-16 798.5,-16 804.5,-16 810.5,-22 810.5,-28 810.5,-28 810.5,-90 810.5,-90 810.5,-96 804.5,-102 798.5,-102"/>
<text text-anchor="middle" x="745" y="-90" font-family="Helvetica,sans-Serif" font-size="10.00">PortfolioReadService</text>
<text text-anchor="middle" x="745" y="-67" font-family="Helvetica,sans-Serif" font-size="10.00">Query open positions</text>
<text text-anchor="middle" x="745" y="-56" font-family="Helvetica,sans-Serif" font-size="10.00">Current cash balance</text>
<text text-anchor="middle" x="745" y="-45" font-family="Helvetica,sans-Serif" font-size="10.00">Unrealized P&amp;L</text>
<text text-anchor="middle" x="745" y="-34" font-family="Helvetica,sans-Serif" font-size="10.00">Allocations by symbol</text>
<text text-anchor="middle" x="745" y="-23" font-family="Helvetica,sans-Serif" font-size="10.00">Account&#45;level exposure</text>
</g>
<!-- LEDGER_READ -->
<g id="node16" class="node">
<title>LEDGER_READ</title>
<path fill="#fecaca" stroke="black" d="M649,-102C649,-102 563,-102 563,-102 557,-102 551,-96 551,-90 551,-90 551,-28 551,-28 551,-22 557,-16 563,-16 563,-16 649,-16 649,-16 655,-16 661,-22 661,-28 661,-28 661,-90 661,-90 661,-96 655,-102 649,-102"/>
<text text-anchor="middle" x="606" y="-90" font-family="Helvetica,sans-Serif" font-size="10.00">LedgerReadService</text>
<text text-anchor="middle" x="606" y="-67" font-family="Helvetica,sans-Serif" font-size="10.00">Trade history</text>
<text text-anchor="middle" x="606" y="-56" font-family="Helvetica,sans-Serif" font-size="10.00">Fill journal</text>
<text text-anchor="middle" x="606" y="-45" font-family="Helvetica,sans-Serif" font-size="10.00">Commissions paid</text>
<text text-anchor="middle" x="606" y="-34" font-family="Helvetica,sans-Serif" font-size="10.00">Cash flow timeline</text>
<text text-anchor="middle" x="606" y="-23" font-family="Helvetica,sans-Serif" font-size="10.00">Net P&amp;L by date</text>
</g>
<!-- RUN_READ -->
<g id="node17" class="node">
<title>RUN_READ</title>
<path fill="#fecaca" stroke="black" d="M953.5,-96.5C953.5,-96.5 840.5,-96.5 840.5,-96.5 834.5,-96.5 828.5,-90.5 828.5,-84.5 828.5,-84.5 828.5,-33.5 828.5,-33.5 828.5,-27.5 834.5,-21.5 840.5,-21.5 840.5,-21.5 953.5,-21.5 953.5,-21.5 959.5,-21.5 965.5,-27.5 965.5,-33.5 965.5,-33.5 965.5,-84.5 965.5,-84.5 965.5,-90.5 959.5,-96.5 953.5,-96.5"/>
<text text-anchor="middle" x="897" y="-84.5" font-family="Helvetica,sans-Serif" font-size="10.00">StrategyRunReadService</text>
<text text-anchor="middle" x="897" y="-61.5" font-family="Helvetica,sans-Serif" font-size="10.00">Run metadata</text>
<text text-anchor="middle" x="897" y="-50.5" font-family="Helvetica,sans-Serif" font-size="10.00">Final metrics per run</text>
<text text-anchor="middle" x="897" y="-39.5" font-family="Helvetica,sans-Serif" font-size="10.00">Comparison across runs</text>
<text text-anchor="middle" x="897" y="-28.5" font-family="Helvetica,sans-Serif" font-size="10.00">P&amp;L curve time series</text>
</g>
<!-- PROMOTE -->
<g id="node19" class="node">
<title>PROMOTE</title>
<path fill="#9ae6b4" stroke="black" d="M598,-1719.17C598,-1719.17 484,-1719.17 484,-1719.17 478,-1719.17 472,-1713.17 472,-1707.17 472,-1707.17 472,-1645.17 472,-1645.17 472,-1639.17 478,-1633.17 484,-1633.17 484,-1633.17 598,-1633.17 598,-1633.17 604,-1633.17 610,-1639.17 610,-1645.17 610,-1645.17 610,-1707.17 610,-1707.17 610,-1713.17 604,-1719.17 598,-1719.17"/>
<text text-anchor="middle" x="541" y="-1707.17" font-family="Helvetica,sans-Serif" font-size="10.00">BacktestToLivePromoter</text>
<text text-anchor="middle" x="541" y="-1684.17" font-family="Helvetica,sans-Serif" font-size="10.00">Validate backtest quality</text>
<text text-anchor="middle" x="541" y="-1673.17" font-family="Helvetica,sans-Serif" font-size="10.00">Metrics threshold check</text>
<text text-anchor="middle" x="541" y="-1662.17" font-family="Helvetica,sans-Serif" font-size="10.00">Paper trading dry run</text>
<text text-anchor="middle" x="541" y="-1651.17" font-family="Helvetica,sans-Serif" font-size="10.00">Risk limit validation</text>
<text text-anchor="middle" x="541" y="-1640.17" font-family="Helvetica,sans-Serif" font-size="10.00">Promotion approval gate</text>
</g>
<!-- RUN_READ&#45;&gt;PROMOTE -->
<g id="edge21" class="edge">
<title>RUN_READ&#45;&gt;PROMOTE</title>
<path fill="none" stroke="#38a169" d="M914.78,-96.78C925.46,-122.22 937,-157.19 937,-189.56 937,-1509.58 937,-1509.58 937,-1509.58 937,-1553.03 952.88,-1575.62 922,-1606.17 892.15,-1635.7 776.32,-1625.73 735,-1633.17 697.19,-1639.99 655.51,-1648.83 620.51,-1656.65"/>
<polygon fill="#38a169" stroke="#38a169" points="619.34,-1653.32 610.35,-1658.93 620.88,-1660.15 619.34,-1653.32"/>
<text text-anchor="middle" x="975" y="-820.25" font-family="Helvetica,sans-Serif" font-size="9.00">evaluate metrics</text>
</g>
<!-- PORT_SNAP&#45;&gt;PORT_READ -->
<g id="edge18" class="edge">
<title>PORT_SNAP&#45;&gt;PORT_READ</title>
<path fill="none" stroke="#c53030" stroke-dasharray="5,2" d="M703.07,-138.73C707.89,-129.69 712.9,-120.27 717.72,-111.22"/>
<polygon fill="#c53030" stroke="#c53030" points="720.85,-112.79 722.46,-102.32 714.67,-109.5 720.85,-112.79"/>
</g>
<!-- PORT_SNAP&#45;&gt;LEDGER_READ -->
<g id="edge19" class="edge">
<title>PORT_SNAP&#45;&gt;LEDGER_READ</title>
<path fill="none" stroke="#c53030" stroke-dasharray="5,2" d="M648.54,-138.73C643.65,-129.69 638.56,-120.27 633.67,-111.22"/>
<polygon fill="#c53030" stroke="#c53030" points="636.7,-109.46 628.87,-102.32 630.54,-112.78 636.7,-109.46"/>
</g>
<!-- PORT_SNAP&#45;&gt;RUN_READ -->
<g id="edge20" class="edge">
<title>PORT_SNAP&#45;&gt;RUN_READ</title>
<path fill="none" stroke="#c53030" stroke-dasharray="5,2" d="M742.01,-150.86C768.4,-135.39 798.87,-117.53 825.76,-101.76"/>
<polygon fill="#c53030" stroke="#c53030" points="827.88,-104.58 834.74,-96.5 824.34,-98.54 827.88,-104.58"/>
</g>
<!-- RISK_CHECK -->
<g id="node20" class="node">
<title>RISK_CHECK</title>
<path fill="#9ae6b4" stroke="black" d="M584,-1551.58C584,-1551.58 492,-1551.58 492,-1551.58 486,-1551.58 480,-1545.58 480,-1539.58 480,-1539.58 480,-1477.58 480,-1477.58 480,-1471.58 486,-1465.58 492,-1465.58 492,-1465.58 584,-1465.58 584,-1465.58 590,-1465.58 596,-1471.58 596,-1477.58 596,-1477.58 596,-1539.58 596,-1539.58 596,-1545.58 590,-1551.58 584,-1551.58"/>
<text text-anchor="middle" x="538" y="-1539.58" font-family="Helvetica,sans-Serif" font-size="10.00">Risk Validation</text>
<text text-anchor="middle" x="538" y="-1516.58" font-family="Helvetica,sans-Serif" font-size="10.00">Min Sharpe ratio</text>
<text text-anchor="middle" x="538" y="-1505.58" font-family="Helvetica,sans-Serif" font-size="10.00">Max drawdown limit</text>
<text text-anchor="middle" x="538" y="-1494.58" font-family="Helvetica,sans-Serif" font-size="10.00">Min trade count</text>
<text text-anchor="middle" x="538" y="-1483.58" font-family="Helvetica,sans-Serif" font-size="10.00">Min win rate</text>
<text text-anchor="middle" x="538" y="-1472.58" font-family="Helvetica,sans-Serif" font-size="10.00">Max position size</text>
</g>
<!-- PROMOTE&#45;&gt;RISK_CHECK -->
<g id="edge22" class="edge">
<title>PROMOTE&#45;&gt;RISK_CHECK</title>
<path fill="none" stroke="#38a169" d="M540.24,-1632.96C539.84,-1611.35 539.36,-1584.85 538.95,-1561.96"/>
<polygon fill="#38a169" stroke="#38a169" points="542.44,-1561.66 538.76,-1551.72 535.45,-1561.78 542.44,-1561.66"/>
</g>
<!-- PROMOTION_GATE -->
<g id="node21" class="node">
<title>PROMOTION_GATE</title>
<path fill="#68d391" stroke="black" d="M513.8,-1376.69C513.8,-1376.69 458.2,-1355.3 458.2,-1355.3 452.6,-1353.15 452.6,-1348.84 458.2,-1346.69 458.2,-1346.69 513.8,-1325.3 513.8,-1325.3 519.4,-1323.15 530.6,-1323.15 536.2,-1325.3 536.2,-1325.3 591.8,-1346.69 591.8,-1346.69 597.4,-1348.84 597.4,-1353.15 591.8,-1355.3 591.8,-1355.3 536.2,-1376.69 536.2,-1376.69 530.6,-1378.84 519.4,-1378.84 513.8,-1376.69"/>
<text text-anchor="middle" x="525" y="-1353.99" font-family="Helvetica,sans-Serif" font-size="10.00">Approved?</text>
<text text-anchor="middle" x="525" y="-1342.99" font-family="Helvetica,sans-Serif" font-size="10.00">Paper → Live</text>
</g>
<!-- RISK_CHECK&#45;&gt;PROMOTION_GATE -->
<g id="edge23" class="edge">
<title>RISK_CHECK&#45;&gt;PROMOTION_GATE</title>
<path fill="none" stroke="#38a169" d="M534.48,-1465.48C532.53,-1442.07 530.11,-1413.15 528.21,-1390.36"/>
<polygon fill="#38a169" stroke="#38a169" points="531.69,-1390.04 527.37,-1380.36 524.72,-1390.62 531.69,-1390.04"/>
</g>
<!-- PROMOTION_GATE&#45;&gt;BACKTEST -->
<g id="edge26" class="edge">
<title>PROMOTION_GATE&#45;&gt;BACKTEST</title>
<path fill="none" stroke="#c53030" stroke-dasharray="5,2" d="M532.42,-1323.65C540.39,-1295.34 553.21,-1249.78 562.89,-1215.4"/>
<polygon fill="#c53030" stroke="#c53030" points="566.32,-1216.15 565.66,-1205.57 559.58,-1214.25 566.32,-1216.15"/>
<text text-anchor="middle" x="580.5" y="-1282.79" font-family="Helvetica,sans-Serif" font-size="9.00">Rejected:</text>
<text text-anchor="middle" x="580.5" y="-1272.79" font-family="Helvetica,sans-Serif" font-size="9.00">revise strategy</text>
</g>
<!-- PROMOTION_GATE&#45;&gt;PAPER -->
<g id="edge24" class="edge">
<title>PROMOTION_GATE&#45;&gt;PAPER</title>
<path fill="none" stroke="#38a169" d="M489.52,-1334.41C453.16,-1317.39 396.13,-1287.75 354,-1251.99 340.41,-1240.46 327.08,-1226.37 315.61,-1213.08"/>
<polygon fill="#38a169" stroke="#38a169" points="318.22,-1210.74 309.08,-1205.38 312.88,-1215.27 318.22,-1210.74"/>
<text text-anchor="middle" x="429.5" y="-1277.79" font-family="Helvetica,sans-Serif" font-size="9.00">Paper first</text>
</g>
<!-- PROMOTION_GATE&#45;&gt;LIVE -->
<g id="edge25" class="edge">
<title>PROMOTION_GATE&#45;&gt;LIVE</title>
<path fill="none" stroke="#38a169" stroke-dasharray="5,2" d="M505.17,-1328.3C495.82,-1317.36 485,-1303.55 477,-1289.99 463.09,-1266.42 451.21,-1238.24 442.52,-1215"/>
<polygon fill="#38a169" stroke="#38a169" points="445.72,-1213.56 439,-1205.37 439.15,-1215.96 445.72,-1213.56"/>
<text text-anchor="middle" x="507.5" y="-1277.79" font-family="Helvetica,sans-Serif" font-size="9.00">Direct to Live</text>
</g>
<!-- LEG -->
<g id="node22" class="node">
<title>LEG</title>
<path fill="lightgrey" stroke="transparent" d="M886.5,-1702.17C886.5,-1702.17 759.5,-1702.17 759.5,-1702.17 753.5,-1702.17 747.5,-1696.17 747.5,-1690.17 747.5,-1690.17 747.5,-1662.17 747.5,-1662.17 747.5,-1656.17 753.5,-1650.17 759.5,-1650.17 759.5,-1650.17 886.5,-1650.17 886.5,-1650.17 892.5,-1650.17 898.5,-1656.17 898.5,-1662.17 898.5,-1662.17 898.5,-1690.17 898.5,-1690.17 898.5,-1696.17 892.5,-1702.17 886.5,-1702.17"/>
<text text-anchor="middle" x="823" y="-1690.17" font-family="Helvetica,sans-Serif" font-size="10.00">━━ Primary flow</text>
<text text-anchor="middle" x="823" y="-1679.17" font-family="Helvetica,sans-Serif" font-size="10.00">─ ─ Reference / Optional</text>
<text text-anchor="middle" x="823" y="-1668.17" font-family="Helvetica,sans-Serif" font-size="10.00">Oval = State machine node</text>
<text text-anchor="middle" x="823" y="-1657.17" font-family="Helvetica,sans-Serif" font-size="10.00">Diamond = Decision point</text>
</g>
</g>
</svg>
