<?xml version="1.0" encoding="UTF-8" standalone="no"?>
<!DOCTYPE svg PUBLIC "-//W3C//DTD SVG 1.1//EN"
 "http://www.w3.org/Graphics/SVG/1.1/DTD/svg11.dtd">
<!-- Generated by graphviz version 2.43.0 (0)
 -->
<!-- Title: BackfillWorkflow Pages: 1 -->
<svg width="1684pt" height="1634pt"
 viewBox="0.00 0.00 1684.00 1634.00" xmlns="http://www.w3.org/2000/svg" xmlns:xlink="http://www.w3.org/1999/xlink">
<g id="graph0" class="graph" transform="scale(1 1) rotate(0) translate(36 1598)">
<title>BackfillWorkflow</title>
<polygon fill="white" stroke="transparent" points="-36,36 -36,-1598 1648,-1598 1648,36 -36,36"/>
<text text-anchor="middle" x="806" y="-1548.4" font-family="Helvetica,sans-Serif" font-size="12.00">Meridian &#45; Backfill Workflow</text>
<text text-anchor="middle" x="806" y="-1535.4" font-family="Helvetica,sans-Serif" font-size="12.00">CLI → CompositeProvider → Rate Limiting → Storage | v1.7.x</text>
<g id="clust1" class="cluster">
<title>cluster_entry</title>
<path fill="#faf5ff" stroke="#805ad5" d="M585,-1397C585,-1397 1025,-1397 1025,-1397 1031,-1397 1037,-1403 1037,-1409 1037,-1409 1037,-1508 1037,-1508 1037,-1514 1031,-1520 1025,-1520 1025,-1520 585,-1520 585,-1520 579,-1520 573,-1514 573,-1508 573,-1508 573,-1409 573,-1409 573,-1403 579,-1397 585,-1397"/>
<text text-anchor="middle" x="805" y="-1506.4" font-family="Helvetica,sans-Serif" font-size="12.00">1. Backfill Entry Points</text>
</g>
<g id="clust2" class="cluster">
<title>cluster_coordinator</title>
<path fill="#dbeafe" stroke="#2b6cb0" d="M588,-1100.5C588,-1100.5 882,-1100.5 882,-1100.5 888,-1100.5 894,-1106.5 894,-1112.5 894,-1112.5 894,-1357 894,-1357 894,-1363 888,-1369 882,-1369 882,-1369 588,-1369 588,-1369 582,-1369 576,-1363 576,-1357 576,-1357 576,-1112.5 576,-1112.5 576,-1106.5 582,-1100.5 588,-1100.5"/>
<text text-anchor="middle" x="735" y="-1355.4" font-family="Helvetica,sans-Serif" font-size="12.00">2. Backfill Coordinator</text>
</g>
<g id="clust3" class="cluster">
<title>cluster_composite</title>
<path fill="#d1fae5" stroke="#2c7a7b" d="M914,-909C914,-909 1258,-909 1258,-909 1264,-909 1270,-915 1270,-921 1270,-921 1270,-1206 1270,-1206 1270,-1212 1264,-1218 1258,-1218 1258,-1218 914,-1218 914,-1218 908,-1218 902,-1212 902,-1206 902,-1206 902,-921 902,-921 902,-915 908,-909 914,-909"/>
<text text-anchor="middle" x="1086" y="-1204.4" font-family="Helvetica,sans-Serif" font-size="12.00">3. CompositeHistoricalDataProvider (Failover Orchestrator)</text>
</g>
<g id="clust4" class="cluster">
<title>cluster_ratelimit</title>
<path fill="#fffaf0" stroke="#ed8936" d="M242,-763.5C242,-763.5 882,-763.5 882,-763.5 888,-763.5 894,-769.5 894,-775.5 894,-775.5 894,-1041.5 894,-1041.5 894,-1047.5 888,-1053.5 882,-1053.5 882,-1053.5 242,-1053.5 242,-1053.5 236,-1053.5 230,-1047.5 230,-1041.5 230,-1041.5 230,-775.5 230,-775.5 230,-769.5 236,-763.5 242,-763.5"/>
<text text-anchor="middle" x="562" y="-1039.9" font-family="Helvetica,sans-Serif" font-size="12.00">4. Rate Limiting &amp; Throttling</text>
</g>
<g id="clust5" class="cluster">
<title>cluster_provider_limits</title>
<polygon fill="#fffaf0" stroke="#b7791f" stroke-dasharray="5,2" points="402,-783 402,-856 886,-856 886,-783 402,-783"/>
<text text-anchor="middle" x="644" y="-842.4" font-family="Helvetica,sans-Serif" font-size="12.00">Per&#45;Provider Rate Limits</text>
</g>
<g id="clust6" class="cluster">
<title>cluster_providers</title>
<polygon fill="#e6fffa" stroke="#2c7a7b" stroke-dasharray="5,2" points="20,-635 20,-881 222,-881 222,-635 20,-635"/>
<text text-anchor="middle" x="121" y="-867.4" font-family="Helvetica,sans-Serif" font-size="12.00">5. Historical Provider Execution</text>
</g>
<g id="clust7" class="cluster">
<title>cluster_gaps</title>
<path fill="#f7fafc" stroke="#718096" d="M90,-372C90,-372 321,-372 321,-372 327,-372 333,-378 333,-384 333,-384 333,-595 333,-595 333,-601 327,-607 321,-607 321,-607 90,-607 90,-607 84,-607 78,-601 78,-595 78,-595 78,-384 78,-384 78,-378 84,-372 90,-372"/>
<text text-anchor="middle" x="205.5" y="-593.4" font-family="Helvetica,sans-Serif" font-size="12.00">6. Gap Detection &amp; Sequence Validation</text>
</g>
<g id="clust8" class="cluster">
<title>cluster_storage</title>
<path fill="#fee2e2" stroke="#c53030" d="M32,-8C32,-8 384,-8 384,-8 390,-8 396,-14 396,-20 396,-20 396,-332 396,-332 396,-338 390,-344 384,-344 384,-344 32,-344 32,-344 26,-344 20,-338 20,-332 20,-332 20,-20 20,-20 20,-14 26,-8 32,-8"/>
<text text-anchor="middle" x="208" y="-330.4" font-family="Helvetica,sans-Serif" font-size="12.00">7. Durable Storage</text>
</g>
<g id="clust9" class="cluster">
<title>cluster_obs</title>
<path fill="#f0fff4" stroke="#38a169" d="M1290,-941.5C1290,-941.5 1592,-941.5 1592,-941.5 1598,-941.5 1604,-947.5 1604,-953.5 1604,-953.5 1604,-1200.5 1604,-1200.5 1604,-1206.5 1598,-1212.5 1592,-1212.5 1592,-1212.5 1290,-1212.5 1290,-1212.5 1284,-1212.5 1278,-1206.5 1278,-1200.5 1278,-1200.5 1278,-953.5 1278,-953.5 1278,-947.5 1284,-941.5 1290,-941.5"/>
<text text-anchor="middle" x="1441" y="-1198.9" font-family="Helvetica,sans-Serif" font-size="12.00">8. Observability &amp; Status</text>
</g>
<g id="clust10" class="cluster">
<title>cluster_legend</title>
<path fill="#fafafa" stroke="#666666" d="M1234,-1419.5C1234,-1419.5 1414,-1419.5 1414,-1419.5 1420,-1419.5 1426,-1425.5 1426,-1431.5 1426,-1431.5 1426,-1485.5 1426,-1485.5 1426,-1491.5 1420,-1497.5 1414,-1497.5 1414,-1497.5 1234,-1497.5 1234,-1497.5 1228,-1497.5 1222,-1491.5 1222,-1485.5 1222,-1485.5 1222,-1431.5 1222,-1431.5 1222,-1425.5 1228,-1419.5 1234,-1419.5"/>
<text text-anchor="middle" x="1324" y="-1483.9" font-family="Helvetica,sans-Serif" font-size="12.00">Legend</text>
</g>
<!-- CLI -->
<g id="node1" class="node">
<title>CLI</title>
<path fill="#ddd6fe" stroke="black" d="M722.5,-1491C722.5,-1491 593.5,-1491 593.5,-1491 587.5,-1491 581.5,-1485 581.5,-1479 581.5,-1479 581.5,-1417 581.5,-1417 581.5,-1411 587.5,-1405 593.5,-1405 593.5,-1405 722.5,-1405 722.5,-1405 728.5,-1405 734.5,-1411 734.5,-1417 734.5,-1417 734.5,-1479 734.5,-1479 734.5,-1485 728.5,-1491 722.5,-1491"/>
<text text-anchor="middle" x="658" y="-1479" font-family="Helvetica,sans-Serif" font-size="10.00">CLI Command</text>
<text text-anchor="middle" x="658" y="-1456" font-family="Helvetica,sans-Serif" font-size="10.00">&#45;&#45;backfill</text>
<text text-anchor="middle" x="658" y="-1445" font-family="Helvetica,sans-Serif" font-size="10.00">&#45;&#45;backfill&#45;provider &lt;name&gt;</text>
<text text-anchor="middle" x="658" y="-1434" font-family="Helvetica,sans-Serif" font-size="10.00">&#45;&#45;backfill&#45;symbols SPY,AAPL</text>
<text text-anchor="middle" x="658" y="-1423" font-family="Helvetica,sans-Serif" font-size="10.00">&#45;&#45;backfill&#45;from 2024&#45;01&#45;01</text>
<text text-anchor="middle" x="658" y="-1412" font-family="Helvetica,sans-Serif" font-size="10.00">&#45;&#45;backfill&#45;to &#160;&#160;2024&#45;01&#45;31</text>
</g>
<!-- COORD -->
<g id="node4" class="node">
<title>COORD</title>
<path fill="#93c5fd" stroke="black" d="M873.5,-1340C873.5,-1340 752.5,-1340 752.5,-1340 746.5,-1340 740.5,-1334 740.5,-1328 740.5,-1328 740.5,-1266 740.5,-1266 740.5,-1260 746.5,-1254 752.5,-1254 752.5,-1254 873.5,-1254 873.5,-1254 879.5,-1254 885.5,-1260 885.5,-1266 885.5,-1266 885.5,-1328 885.5,-1328 885.5,-1334 879.5,-1340 873.5,-1340"/>
<text text-anchor="middle" x="813" y="-1328" font-family="Helvetica,sans-Serif" font-size="10.00">BackfillCoordinator</text>
<text text-anchor="middle" x="813" y="-1305" font-family="Helvetica,sans-Serif" font-size="10.00">Validate request params</text>
<text text-anchor="middle" x="813" y="-1294" font-family="Helvetica,sans-Serif" font-size="10.00">Resolve provider by name</text>
<text text-anchor="middle" x="813" y="-1283" font-family="Helvetica,sans-Serif" font-size="10.00">Partition date range</text>
<text text-anchor="middle" x="813" y="-1272" font-family="Helvetica,sans-Serif" font-size="10.00">Enqueue work items</text>
<text text-anchor="middle" x="813" y="-1261" font-family="Helvetica,sans-Serif" font-size="10.00">Track run status</text>
</g>
<!-- CLI&#45;&gt;COORD -->
<g id="edge1" class="edge">
<title>CLI&#45;&gt;COORD</title>
<path fill="none" stroke="#805ad5" stroke-width="2" d="M731.17,-1404.71C731.17,-1366.89 731.17,-1318 731.17,-1318 731.17,-1318 732.07,-1318 732.07,-1318"/>
<polygon fill="#805ad5" stroke="#805ad5" stroke-width="2" points="730.24,-1321.5 740.24,-1318 730.24,-1314.5 730.24,-1321.5"/>
<text text-anchor="middle" x="728.5" y="-1379.8" font-family="Helvetica,sans-Serif" font-size="9.00">1. request</text>
</g>
<!-- REST -->
<g id="node2" class="node">
<title>REST</title>
<path fill="#ddd6fe" stroke="black" d="M861,-1491C861,-1491 765,-1491 765,-1491 759,-1491 753,-1485 753,-1479 753,-1479 753,-1417 753,-1417 753,-1411 759,-1405 765,-1405 765,-1405 861,-1405 861,-1405 867,-1405 873,-1411 873,-1417 873,-1417 873,-1479 873,-1479 873,-1485 867,-1491 861,-1491"/>
<text text-anchor="middle" x="813" y="-1479" font-family="Helvetica,sans-Serif" font-size="10.00">REST API</text>
<text text-anchor="middle" x="813" y="-1456" font-family="Helvetica,sans-Serif" font-size="10.00">POST /api/backfill/run</text>
<text text-anchor="middle" x="813" y="-1445" font-family="Helvetica,sans-Serif" font-size="10.00">{</text>
<text text-anchor="middle" x="813" y="-1434" font-family="Helvetica,sans-Serif" font-size="10.00"> &#160;provider, symbols,</text>
<text text-anchor="middle" x="813" y="-1423" font-family="Helvetica,sans-Serif" font-size="10.00"> &#160;from, to</text>
<text text-anchor="middle" x="813" y="-1412" font-family="Helvetica,sans-Serif" font-size="10.00">}</text>
</g>
<!-- REST&#45;&gt;COORD -->
<g id="edge2" class="edge">
<title>REST&#45;&gt;COORD</title>
<path fill="none" stroke="#805ad5" stroke-width="2" d="M813,-1404.73C813,-1404.73 813,-1350.02 813,-1350.02"/>
<polygon fill="#805ad5" stroke="#805ad5" stroke-width="2" points="816.5,-1350.02 813,-1340.02 809.5,-1350.02 816.5,-1350.02"/>
</g>
<!-- SCHEDULED -->
<g id="node3" class="node">
<title>SCHEDULED</title>
<path fill="#e9d5ff" stroke="black" d="M1016.5,-1480C1016.5,-1480 903.5,-1480 903.5,-1480 897.5,-1480 891.5,-1474 891.5,-1468 891.5,-1468 891.5,-1428 891.5,-1428 891.5,-1422 897.5,-1416 903.5,-1416 903.5,-1416 1016.5,-1416 1016.5,-1416 1022.5,-1416 1028.5,-1422 1028.5,-1428 1028.5,-1428 1028.5,-1468 1028.5,-1468 1028.5,-1474 1022.5,-1480 1016.5,-1480"/>
<text text-anchor="middle" x="960" y="-1468" font-family="Helvetica,sans-Serif" font-size="10.00">Scheduled / Gap Repair</text>
<text text-anchor="middle" x="960" y="-1445" font-family="Helvetica,sans-Serif" font-size="10.00">BackfillScheduler</text>
<text text-anchor="middle" x="960" y="-1434" font-family="Helvetica,sans-Serif" font-size="10.00">Automatic gap detection</text>
<text text-anchor="middle" x="960" y="-1423" font-family="Helvetica,sans-Serif" font-size="10.00">Missing date fills</text>
</g>
<!-- SCHEDULED&#45;&gt;COORD -->
<g id="edge3" class="edge">
<title>SCHEDULED&#45;&gt;COORD</title>
<path fill="none" stroke="#805ad5" stroke-dasharray="5,2" d="M891.16,-1448C883.99,-1448 879.25,-1448 879.25,-1448 879.25,-1448 879.25,-1350.27 879.25,-1350.27"/>
<polygon fill="#805ad5" stroke="#805ad5" points="882.75,-1350.27 879.25,-1340.27 875.75,-1350.27 882.75,-1350.27"/>
</g>
<!-- CATALOG_CHECK -->
<g id="node5" class="node">
<title>CATALOG_CHECK</title>
<path fill="#bfdbfe" stroke="black" d="M709.5,-1183.5C709.5,-1183.5 596.5,-1183.5 596.5,-1183.5 590.5,-1183.5 584.5,-1177.5 584.5,-1171.5 584.5,-1171.5 584.5,-1120.5 584.5,-1120.5 584.5,-1114.5 590.5,-1108.5 596.5,-1108.5 596.5,-1108.5 709.5,-1108.5 709.5,-1108.5 715.5,-1108.5 721.5,-1114.5 721.5,-1120.5 721.5,-1120.5 721.5,-1171.5 721.5,-1171.5 721.5,-1177.5 715.5,-1183.5 709.5,-1183.5"/>
<text text-anchor="middle" x="653" y="-1171.5" font-family="Helvetica,sans-Serif" font-size="10.00">StorageCatalogService</text>
<text text-anchor="middle" x="653" y="-1148.5" font-family="Helvetica,sans-Serif" font-size="10.00">Check existing coverage</text>
<text text-anchor="middle" x="653" y="-1137.5" font-family="Helvetica,sans-Serif" font-size="10.00">Identify missing gaps</text>
<text text-anchor="middle" x="653" y="-1126.5" font-family="Helvetica,sans-Serif" font-size="10.00">Skip already&#45;filled dates</text>
<text text-anchor="middle" x="653" y="-1115.5" font-family="Helvetica,sans-Serif" font-size="10.00">Data lineage tracking</text>
</g>
<!-- COORD&#45;&gt;CATALOG_CHECK -->
<g id="edge4" class="edge">
<title>COORD&#45;&gt;CATALOG_CHECK</title>
<path fill="none" stroke="#2b6cb0" d="M740.48,-1297C689.43,-1297 630.17,-1297 630.17,-1297 630.17,-1297 630.17,-1193.71 630.17,-1193.71"/>
<polygon fill="#2b6cb0" stroke="#2b6cb0" points="633.67,-1193.71 630.17,-1183.71 626.67,-1193.71 633.67,-1193.71"/>
<text text-anchor="middle" x="685" y="-1228.8" font-family="Helvetica,sans-Serif" font-size="9.00">2. gap check</text>
</g>
<!-- REQUEST -->
<g id="node6" class="node">
<title>REQUEST</title>
<polygon fill="#dbeafe" stroke="black" points="880,-1183 740,-1183 740,-1109 886,-1109 886,-1177 880,-1183"/>
<polyline fill="none" stroke="black" points="880,-1183 880,-1177 "/>
<polyline fill="none" stroke="black" points="886,-1177 880,-1177 "/>
<text text-anchor="middle" x="813" y="-1171" font-family="Helvetica,sans-Serif" font-size="10.00">BackfillRequest:</text>
<text text-anchor="middle" x="813" y="-1160" font-family="Helvetica,sans-Serif" font-size="10.00">• Symbols[]</text>
<text text-anchor="middle" x="813" y="-1149" font-family="Helvetica,sans-Serif" font-size="10.00">• DateRange (from/to)</text>
<text text-anchor="middle" x="813" y="-1138" font-family="Helvetica,sans-Serif" font-size="10.00">• ProviderName (optional)</text>
<text text-anchor="middle" x="813" y="-1127" font-family="Helvetica,sans-Serif" font-size="10.00">• MaxConcurrency</text>
<text text-anchor="middle" x="813" y="-1116" font-family="Helvetica,sans-Serif" font-size="10.00">• ForceRefresh flag</text>
</g>
<!-- COORD&#45;&gt;REQUEST -->
<g id="edge6" class="edge">
<title>COORD&#45;&gt;REQUEST</title>
<path fill="none" stroke="#4a5568" stroke-dasharray="5,2" d="M813,-1253.73C813,-1253.73 813,-1193.13 813,-1193.13"/>
<polygon fill="#4a5568" stroke="#4a5568" points="816.5,-1193.13 813,-1183.13 809.5,-1193.13 816.5,-1193.13"/>
</g>
<!-- COMPOSITE -->
<g id="node7" class="node">
<title>COMPOSITE</title>
<path fill="#6ee7b7" stroke="black" d="M1077.5,-1189C1077.5,-1189 922.5,-1189 922.5,-1189 916.5,-1189 910.5,-1183 910.5,-1177 910.5,-1177 910.5,-1115 910.5,-1115 910.5,-1109 916.5,-1103 922.5,-1103 922.5,-1103 1077.5,-1103 1077.5,-1103 1083.5,-1103 1089.5,-1109 1089.5,-1115 1089.5,-1115 1089.5,-1177 1089.5,-1177 1089.5,-1183 1083.5,-1189 1077.5,-1189"/>
<text text-anchor="middle" x="1000" y="-1177" font-family="Helvetica,sans-Serif" font-size="10.00">CompositeHistoricalDataProvider</text>
<text text-anchor="middle" x="1000" y="-1154" font-family="Helvetica,sans-Serif" font-size="10.00">Priority&#45;based provider selection</text>
<text text-anchor="middle" x="1000" y="-1143" font-family="Helvetica,sans-Serif" font-size="10.00">Automatic failover on error</text>
<text text-anchor="middle" x="1000" y="-1132" font-family="Helvetica,sans-Serif" font-size="10.00">Circuit breaker per provider</text>
<text text-anchor="middle" x="1000" y="-1121" font-family="Helvetica,sans-Serif" font-size="10.00">Rate&#45;limit rotation</text>
<text text-anchor="middle" x="1000" y="-1110" font-family="Helvetica,sans-Serif" font-size="10.00">Health&#45;based exclusion</text>
</g>
<!-- COORD&#45;&gt;COMPOSITE -->
<g id="edge7" class="edge">
<title>COORD&#45;&gt;COMPOSITE</title>
<path fill="none" stroke="#2c7a7b" stroke-width="2" d="M885.75,-1275C926.62,-1275 969.5,-1275 969.5,-1275 969.5,-1275 969.5,-1199.31 969.5,-1199.31"/>
<polygon fill="#2c7a7b" stroke="#2c7a7b" stroke-width="2" points="973,-1199.31 969.5,-1189.31 966,-1199.31 973,-1199.31"/>
<text text-anchor="middle" x="936" y="-1228.8" font-family="Helvetica,sans-Serif" font-size="9.00">3. fetch</text>
</g>
<!-- PROGRESS -->
<g id="node25" class="node">
<title>PROGRESS</title>
<path fill="#9ae6b4" stroke="black" d="M1422,-1183.5C1422,-1183.5 1298,-1183.5 1298,-1183.5 1292,-1183.5 1286,-1177.5 1286,-1171.5 1286,-1171.5 1286,-1120.5 1286,-1120.5 1286,-1114.5 1292,-1108.5 1298,-1108.5 1298,-1108.5 1422,-1108.5 1422,-1108.5 1428,-1108.5 1434,-1114.5 1434,-1120.5 1434,-1120.5 1434,-1171.5 1434,-1171.5 1434,-1177.5 1428,-1183.5 1422,-1183.5"/>
<text text-anchor="middle" x="1360" y="-1171.5" font-family="Helvetica,sans-Serif" font-size="10.00">BackfillProgressTracker</text>
<text text-anchor="middle" x="1360" y="-1148.5" font-family="Helvetica,sans-Serif" font-size="10.00">Symbol × date coverage</text>
<text text-anchor="middle" x="1360" y="-1137.5" font-family="Helvetica,sans-Serif" font-size="10.00">Rows fetched / stored</text>
<text text-anchor="middle" x="1360" y="-1126.5" font-family="Helvetica,sans-Serif" font-size="10.00">Provider used per segment</text>
<text text-anchor="middle" x="1360" y="-1115.5" font-family="Helvetica,sans-Serif" font-size="10.00">ETA estimation</text>
</g>
<!-- COORD&#45;&gt;PROGRESS -->
<g id="edge26" class="edge">
<title>COORD&#45;&gt;PROGRESS</title>
<path fill="none" stroke="#38a169" stroke-dasharray="5,2" d="M885.69,-1297C1032.82,-1297 1352,-1297 1352,-1297 1352,-1297 1352,-1193.71 1352,-1193.71"/>
<polygon fill="#38a169" stroke="#38a169" points="1355.5,-1193.71 1352,-1183.71 1348.5,-1193.71 1355.5,-1193.71"/>
<text text-anchor="middle" x="1186" y="-1228.8" font-family="Helvetica,sans-Serif" font-size="9.00">8. track</text>
</g>
<!-- RUN_RESULT -->
<g id="node27" class="node">
<title>RUN_RESULT</title>
<polygon fill="#c6f6d5" stroke="black" points="1589.5,-1183 1452.5,-1183 1452.5,-1109 1595.5,-1109 1595.5,-1177 1589.5,-1183"/>
<polyline fill="none" stroke="black" points="1589.5,-1183 1589.5,-1177 "/>
<polyline fill="none" stroke="black" points="1595.5,-1177 1589.5,-1177 "/>
<text text-anchor="middle" x="1524" y="-1171" font-family="Helvetica,sans-Serif" font-size="10.00">BackfillRunResult:</text>
<text text-anchor="middle" x="1524" y="-1160" font-family="Helvetica,sans-Serif" font-size="10.00">• Symbol coverage map</text>
<text text-anchor="middle" x="1524" y="-1149" font-family="Helvetica,sans-Serif" font-size="10.00">• Rows per provider</text>
<text text-anchor="middle" x="1524" y="-1138" font-family="Helvetica,sans-Serif" font-size="10.00">• Gaps remaining</text>
<text text-anchor="middle" x="1524" y="-1127" font-family="Helvetica,sans-Serif" font-size="10.00">• Duration + errors</text>
<text text-anchor="middle" x="1524" y="-1116" font-family="Helvetica,sans-Serif" font-size="10.00">• StorageCatalog updated</text>
</g>
<!-- COORD&#45;&gt;RUN_RESULT -->
<g id="edge28" class="edge">
<title>COORD&#45;&gt;RUN_RESULT</title>
<path fill="none" stroke="#38a169" d="M885.75,-1318C1066.96,-1318 1524,-1318 1524,-1318 1524,-1318 1524,-1193.32 1524,-1193.32"/>
<polygon fill="#38a169" stroke="#38a169" points="1527.5,-1193.32 1524,-1183.32 1520.5,-1193.32 1527.5,-1193.32"/>
<text text-anchor="middle" x="1388" y="-1228.8" font-family="Helvetica,sans-Serif" font-size="9.00">result</text>
</g>
<!-- CATALOG_CHECK&#45;&gt;COORD -->
<g id="edge5" class="edge">
<title>CATALOG_CHECK&#45;&gt;COORD</title>
<path fill="none" stroke="#2b6cb0" stroke-dasharray="5,2" d="M675.83,-1183.66C675.83,-1221.74 675.83,-1275 675.83,-1275 675.83,-1275 730.4,-1275 730.4,-1275"/>
<polygon fill="#2b6cb0" stroke="#2b6cb0" points="730.4,-1278.5 740.4,-1275 730.4,-1271.5 730.4,-1278.5"/>
<text text-anchor="middle" x="773.5" y="-1228.8" font-family="Helvetica,sans-Serif" font-size="9.00">missing dates</text>
</g>
<!-- TIERED -->
<g id="node24" class="node">
<title>TIERED</title>
<path fill="#fecaca" stroke="black" d="M186,-91C186,-91 70,-91 70,-91 64,-91 58,-85 58,-79 58,-79 58,-28 58,-28 58,-22 64,-16 70,-16 70,-16 186,-16 186,-16 192,-16 198,-22 198,-28 198,-28 198,-79 198,-79 198,-85 192,-91 186,-91"/>
<text text-anchor="middle" x="128" y="-79" font-family="Helvetica,sans-Serif" font-size="10.00">Tiered Storage Manager</text>
<text text-anchor="middle" x="128" y="-56" font-family="Helvetica,sans-Serif" font-size="10.00">Hot (SSD): 0&#45;7 days</text>
<text text-anchor="middle" x="128" y="-45" font-family="Helvetica,sans-Serif" font-size="10.00">Warm (HDD): 7&#45;30 days</text>
<text text-anchor="middle" x="128" y="-34" font-family="Helvetica,sans-Serif" font-size="10.00">Cold (S3/Glacier): 30d+</text>
<text text-anchor="middle" x="128" y="-23" font-family="Helvetica,sans-Serif" font-size="10.00">Automatic tier promotion</text>
</g>
<!-- CATALOG_CHECK&#45;&gt;TIERED -->
<g id="edge29" class="edge">
<title>CATALOG_CHECK&#45;&gt;TIERED</title>
<path fill="none" stroke="#2b6cb0" stroke-dasharray="5,2" d="M714,-1108.28C714,-914.62 714,-41 714,-41 714,-41 208.1,-41 208.1,-41"/>
<polygon fill="#2b6cb0" stroke="#2b6cb0" points="208.1,-37.5 198.1,-41 208.1,-44.5 208.1,-37.5"/>
<text text-anchor="middle" x="34.5" y="-538.3" font-family="Helvetica,sans-Serif" font-size="9.00">update catalog</text>
</g>
<!-- PRIORITY -->
<g id="node8" class="node">
<title>PRIORITY</title>
<polygon fill="#a7f3d0" stroke="black" points="1048.5,-1057 917.5,-1057 917.5,-917 1054.5,-917 1054.5,-1051 1048.5,-1057"/>
<polyline fill="none" stroke="black" points="1048.5,-1057 1048.5,-1051 "/>
<polyline fill="none" stroke="black" points="1054.5,-1051 1048.5,-1051 "/>
<text text-anchor="middle" x="986" y="-1045" font-family="Helvetica,sans-Serif" font-size="10.00">Provider Priority Order:</text>
<text text-anchor="middle" x="986" y="-1034" font-family="Helvetica,sans-Serif" font-size="10.00">1. Alpaca (5) / IB (5)</text>
<text text-anchor="middle" x="986" y="-1023" font-family="Helvetica,sans-Serif" font-size="10.00">2. Yahoo Finance (10)</text>
<text text-anchor="middle" x="986" y="-1012" font-family="Helvetica,sans-Serif" font-size="10.00">3. Polygon (15)</text>
<text text-anchor="middle" x="986" y="-1001" font-family="Helvetica,sans-Serif" font-size="10.00">4. Stooq (20)</text>
<text text-anchor="middle" x="986" y="-990" font-family="Helvetica,sans-Serif" font-size="10.00">5. Tiingo (25)</text>
<text text-anchor="middle" x="986" y="-979" font-family="Helvetica,sans-Serif" font-size="10.00">6. Nasdaq Data Link (30)</text>
<text text-anchor="middle" x="986" y="-968" font-family="Helvetica,sans-Serif" font-size="10.00">7. StockSharp (35)</text>
<text text-anchor="middle" x="986" y="-957" font-family="Helvetica,sans-Serif" font-size="10.00">8. Finnhub (35)</text>
<text text-anchor="middle" x="986" y="-946" font-family="Helvetica,sans-Serif" font-size="10.00">9. Twelve Data (38)</text>
<text text-anchor="middle" x="986" y="-935" font-family="Helvetica,sans-Serif" font-size="10.00">10. Alpha Vantage (40)</text>
<text text-anchor="middle" x="986" y="-924" font-family="Helvetica,sans-Serif" font-size="10.00">11. FRED (45)</text>
</g>
<!-- COMPOSITE&#45;&gt;PRIORITY -->
<g id="edge8" class="edge">
<title>COMPOSITE&#45;&gt;PRIORITY</title>
<path fill="none" stroke="#4a5568" stroke-dasharray="5,2" d="M986,-1102.97C986,-1102.97 986,-1067.03 986,-1067.03"/>
<polygon fill="#4a5568" stroke="#4a5568" points="989.5,-1067.03 986,-1057.03 982.5,-1067.03 989.5,-1067.03"/>
</g>
<!-- CIRCUIT -->
<g id="node9" class="node">
<title>CIRCUIT</title>
<path fill="#a7f3d0" stroke="black" d="M1213,-1030C1213,-1030 1085,-1030 1085,-1030 1079,-1030 1073,-1024 1073,-1018 1073,-1018 1073,-956 1073,-956 1073,-950 1079,-944 1085,-944 1085,-944 1213,-944 1213,-944 1219,-944 1225,-950 1225,-956 1225,-956 1225,-1018 1225,-1018 1225,-1024 1219,-1030 1213,-1030"/>
<text text-anchor="middle" x="1149" y="-1018" font-family="Helvetica,sans-Serif" font-size="10.00">CircuitBreaker</text>
<text text-anchor="middle" x="1149" y="-1007" font-family="Helvetica,sans-Serif" font-size="10.00">[Per Provider]</text>
<text text-anchor="middle" x="1149" y="-984" font-family="Helvetica,sans-Serif" font-size="10.00">Closed → Open → Half&#45;Open</text>
<text text-anchor="middle" x="1149" y="-973" font-family="Helvetica,sans-Serif" font-size="10.00">Failure counting</text>
<text text-anchor="middle" x="1149" y="-962" font-family="Helvetica,sans-Serif" font-size="10.00">Auto&#45;recovery cooldown</text>
<text text-anchor="middle" x="1149" y="-951" font-family="Helvetica,sans-Serif" font-size="10.00">Health metric export</text>
</g>
<!-- COMPOSITE&#45;&gt;CIRCUIT -->
<g id="edge9" class="edge">
<title>COMPOSITE&#45;&gt;CIRCUIT</title>
<path fill="none" stroke="#c53030" stroke-dasharray="5,2" d="M1081.25,-1102.97C1081.25,-1102.97 1081.25,-1040.06 1081.25,-1040.06"/>
<polygon fill="#c53030" stroke="#c53030" points="1084.75,-1040.06 1081.25,-1030.06 1077.75,-1040.06 1084.75,-1040.06"/>
</g>
<!-- RATE_LIMITER -->
<g id="node10" class="node">
<title>RATE_LIMITER</title>
<path fill="#fbd38d" stroke="black" d="M637,-1024.5C637,-1024.5 519,-1024.5 519,-1024.5 513,-1024.5 507,-1018.5 507,-1012.5 507,-1012.5 507,-961.5 507,-961.5 507,-955.5 513,-949.5 519,-949.5 519,-949.5 637,-949.5 637,-949.5 643,-949.5 649,-955.5 649,-961.5 649,-961.5 649,-1012.5 649,-1012.5 649,-1018.5 643,-1024.5 637,-1024.5"/>
<text text-anchor="middle" x="578" y="-1012.5" font-family="Helvetica,sans-Serif" font-size="10.00">ProviderRateLimitTracker</text>
<text text-anchor="middle" x="578" y="-989.5" font-family="Helvetica,sans-Serif" font-size="10.00">Token bucket per provider</text>
<text text-anchor="middle" x="578" y="-978.5" font-family="Helvetica,sans-Serif" font-size="10.00">Request counting</text>
<text text-anchor="middle" x="578" y="-967.5" font-family="Helvetica,sans-Serif" font-size="10.00">Cooldown enforcement</text>
<text text-anchor="middle" x="578" y="-956.5" font-family="Helvetica,sans-Serif" font-size="10.00">Burst allowance</text>
</g>
<!-- COMPOSITE&#45;&gt;RATE_LIMITER -->
<g id="edge10" class="edge">
<title>COMPOSITE&#45;&gt;RATE_LIMITER</title>
<path fill="none" stroke="#ed8936" d="M914,-1102.93C914,-1061.46 914,-1005 914,-1005 914,-1005 659.26,-1005 659.26,-1005"/>
<polygon fill="#ed8936" stroke="#ed8936" points="659.26,-1001.5 649.26,-1005 659.26,-1008.5 659.26,-1001.5"/>
<text text-anchor="middle" x="780" y="-1077.8" font-family="Helvetica,sans-Serif" font-size="9.00">4. throttle</text>
</g>
<!-- BACKOFF -->
<g id="node11" class="node">
<title>BACKOFF</title>
<path fill="#feebc8" stroke="black" d="M379.5,-846.5C379.5,-846.5 250.5,-846.5 250.5,-846.5 244.5,-846.5 238.5,-840.5 238.5,-834.5 238.5,-834.5 238.5,-783.5 238.5,-783.5 238.5,-777.5 244.5,-771.5 250.5,-771.5 250.5,-771.5 379.5,-771.5 379.5,-771.5 385.5,-771.5 391.5,-777.5 391.5,-783.5 391.5,-783.5 391.5,-834.5 391.5,-834.5 391.5,-840.5 385.5,-846.5 379.5,-846.5"/>
<text text-anchor="middle" x="315" y="-834.5" font-family="Helvetica,sans-Serif" font-size="10.00">Exponential Backoff</text>
<text text-anchor="middle" x="315" y="-811.5" font-family="Helvetica,sans-Serif" font-size="10.00">On 429 / rate&#45;limit response</text>
<text text-anchor="middle" x="315" y="-800.5" font-family="Helvetica,sans-Serif" font-size="10.00">1s → 2s → 4s → 8s → 16s</text>
<text text-anchor="middle" x="315" y="-789.5" font-family="Helvetica,sans-Serif" font-size="10.00">Jitter randomization</text>
<text text-anchor="middle" x="315" y="-778.5" font-family="Helvetica,sans-Serif" font-size="10.00">Max 5 retries</text>
</g>
<!-- RATE_LIMITER&#45;&gt;BACKOFF -->
<g id="edge11" class="edge">
<title>RATE_LIMITER&#45;&gt;BACKOFF</title>
<path fill="none" stroke="#ed8936" stroke-dasharray="5,2" d="M536.5,-949.29C536.5,-904.56 536.5,-836 536.5,-836 536.5,-836 401.54,-836 401.54,-836"/>
<polygon fill="#ed8936" stroke="#ed8936" points="401.54,-832.5 391.54,-836 401.54,-839.5 401.54,-832.5"/>
<text text-anchor="middle" x="414.5" y="-891.8" font-family="Helvetica,sans-Serif" font-size="9.00">on 429</text>
</g>
<!-- LIM_ALP -->
<g id="node12" class="node">
<title>LIM_ALP</title>
<polygon fill="#fefcbf" stroke="black" points="478.5,-827 409.5,-827 409.5,-791 484.5,-791 484.5,-821 478.5,-827"/>
<polyline fill="none" stroke="black" points="478.5,-827 478.5,-821 "/>
<polyline fill="none" stroke="black" points="484.5,-821 478.5,-821 "/>
<text text-anchor="middle" x="447" y="-812" font-family="Helvetica,sans-Serif" font-size="10.00">Alpaca</text>
<text text-anchor="middle" x="447" y="-801" font-family="Helvetica,sans-Serif" font-size="10.00">200 req/min</text>
</g>
<!-- RATE_LIMITER&#45;&gt;LIM_ALP -->
<g id="edge12" class="edge">
<title>RATE_LIMITER&#45;&gt;LIM_ALP</title>
<path fill="none" stroke="#4a5568" stroke-dasharray="5,2" d="M506.75,-974C476.02,-974 447,-974 447,-974 447,-974 447,-837.29 447,-837.29"/>
<polygon fill="#4a5568" stroke="#4a5568" points="450.5,-837.29 447,-827.29 443.5,-837.29 450.5,-837.29"/>
</g>
<!-- LIM_POL -->
<g id="node13" class="node">
<title>LIM_POL</title>
<polygon fill="#fefcbf" stroke="black" points="589.5,-827 502.5,-827 502.5,-791 595.5,-791 595.5,-821 589.5,-827"/>
<polyline fill="none" stroke="black" points="589.5,-827 589.5,-821 "/>
<polyline fill="none" stroke="black" points="595.5,-821 589.5,-821 "/>
<text text-anchor="middle" x="549" y="-812" font-family="Helvetica,sans-Serif" font-size="10.00">Polygon</text>
<text text-anchor="middle" x="549" y="-801" font-family="Helvetica,sans-Serif" font-size="10.00">5 req/min (free)</text>
</g>
<!-- RATE_LIMITER&#45;&gt;LIM_POL -->
<g id="edge13" class="edge">
<title>RATE_LIMITER&#45;&gt;LIM_POL</title>
<path fill="none" stroke="#4a5568" stroke-dasharray="5,2" d="M566,-949.25C566,-949.25 566,-837.13 566,-837.13"/>
<polygon fill="#4a5568" stroke="#4a5568" points="569.5,-837.13 566,-827.13 562.5,-837.13 569.5,-837.13"/>
</g>
<!-- LIM_AV -->
<g id="node14" class="node">
<title>LIM_AV</title>
<polygon fill="#fefcbf" stroke="black" points="700.5,-827 613.5,-827 613.5,-791 706.5,-791 706.5,-821 700.5,-827"/>
<polyline fill="none" stroke="black" points="700.5,-827 700.5,-821 "/>
<polyline fill="none" stroke="black" points="706.5,-821 700.5,-821 "/>
<text text-anchor="middle" x="660" y="-812" font-family="Helvetica,sans-Serif" font-size="10.00">Alpha Vantage</text>
<text text-anchor="middle" x="660" y="-801" font-family="Helvetica,sans-Serif" font-size="10.00">5 req/min (free)</text>
</g>
<!-- RATE_LIMITER&#45;&gt;LIM_AV -->
<g id="edge14" class="edge">
<title>RATE_LIMITER&#45;&gt;LIM_AV</title>
<path fill="none" stroke="#4a5568" stroke-dasharray="5,2" d="M631.25,-949.25C631.25,-949.25 631.25,-837.13 631.25,-837.13"/>
<polygon fill="#4a5568" stroke="#4a5568" points="634.75,-837.13 631.25,-827.13 627.75,-837.13 634.75,-837.13"/>
</g>
<!-- LIM_FINN -->
<g id="node15" class="node">
<title>LIM_FINN</title>
<polygon fill="#fefcbf" stroke="black" points="787.5,-827 724.5,-827 724.5,-791 793.5,-791 793.5,-821 787.5,-827"/>
<polyline fill="none" stroke="black" points="787.5,-827 787.5,-821 "/>
<polyline fill="none" stroke="black" points="793.5,-821 787.5,-821 "/>
<text text-anchor="middle" x="759" y="-812" font-family="Helvetica,sans-Serif" font-size="10.00">Finnhub</text>
<text text-anchor="middle" x="759" y="-801" font-family="Helvetica,sans-Serif" font-size="10.00">60 req/min</text>
</g>
<!-- RATE_LIMITER&#45;&gt;LIM_FINN -->
<g id="edge15" class="edge">
<title>RATE_LIMITER&#45;&gt;LIM_FINN</title>
<path fill="none" stroke="#4a5568" stroke-dasharray="5,2" d="M649.41,-968C688,-968 727.83,-968 727.83,-968 727.83,-968 727.83,-837.24 727.83,-837.24"/>
<polygon fill="#4a5568" stroke="#4a5568" points="731.33,-837.24 727.83,-827.24 724.33,-837.24 731.33,-837.24"/>
</g>
<!-- LIM_TIING -->
<g id="node16" class="node">
<title>LIM_TIING</title>
<polygon fill="#fefcbf" stroke="black" points="872,-827 812,-827 812,-791 878,-791 878,-821 872,-827"/>
<polyline fill="none" stroke="black" points="872,-827 872,-821 "/>
<polyline fill="none" stroke="black" points="878,-821 872,-821 "/>
<text text-anchor="middle" x="845" y="-812" font-family="Helvetica,sans-Serif" font-size="10.00">Tiingo</text>
<text text-anchor="middle" x="845" y="-801" font-family="Helvetica,sans-Serif" font-size="10.00">500 req/hr</text>
</g>
<!-- RATE_LIMITER&#45;&gt;LIM_TIING -->
<g id="edge16" class="edge">
<title>RATE_LIMITER&#45;&gt;LIM_TIING</title>
<path fill="none" stroke="#4a5568" stroke-dasharray="5,2" d="M649.2,-986C728.3,-986 845,-986 845,-986 845,-986 845,-837.28 845,-837.28"/>
<polygon fill="#4a5568" stroke="#4a5568" points="848.5,-837.28 845,-827.28 841.5,-837.28 848.5,-837.28"/>
</g>
<!-- HIST_CALL -->
<g id="node17" class="node">
<title>HIST_CALL</title>
<path fill="#81e6d9" stroke="black" d="M202.5,-852C202.5,-852 39.5,-852 39.5,-852 33.5,-852 27.5,-846 27.5,-840 27.5,-840 27.5,-778 27.5,-778 27.5,-772 33.5,-766 39.5,-766 39.5,-766 202.5,-766 202.5,-766 208.5,-766 214.5,-772 214.5,-778 214.5,-778 214.5,-840 214.5,-840 214.5,-846 208.5,-852 202.5,-852"/>
<text text-anchor="middle" x="121" y="-840" font-family="Helvetica,sans-Serif" font-size="10.00">IHistoricalDataProvider</text>
<text text-anchor="middle" x="121" y="-829" font-family="Helvetica,sans-Serif" font-size="10.00">.GetHistoricalBarsAsync()</text>
<text text-anchor="middle" x="121" y="-818" font-family="Helvetica,sans-Serif" font-size="10.00">.StreamHistoricalBarsAsync()</text>
<text text-anchor="middle" x="121" y="-795" font-family="Helvetica,sans-Serif" font-size="10.00">IAsyncEnumerable&lt;HistoricalBar&gt;</text>
<text text-anchor="middle" x="121" y="-784" font-family="Helvetica,sans-Serif" font-size="10.00">Paged fetch with backpressure</text>
<text text-anchor="middle" x="121" y="-773" font-family="Helvetica,sans-Serif" font-size="10.00">Auto&#45;decompress responses</text>
</g>
<!-- RATE_LIMITER&#45;&gt;HIST_CALL -->
<g id="edge17" class="edge">
<title>RATE_LIMITER&#45;&gt;HIST_CALL</title>
<path fill="none" stroke="#2c7a7b" stroke-width="2" d="M506.84,-999C378.4,-999 121,-999 121,-999 121,-999 121,-862.11 121,-862.11"/>
<polygon fill="#2c7a7b" stroke="#2c7a7b" stroke-width="2" points="124.5,-862.11 121,-852.11 117.5,-862.11 124.5,-862.11"/>
<text text-anchor="middle" x="247.5" y="-891.8" font-family="Helvetica,sans-Serif" font-size="9.00">5. execute</text>
</g>
<!-- PARSE -->
<g id="node18" class="node">
<title>PARSE</title>
<path fill="#b2f5ea" stroke="black" d="M200.5,-729C200.5,-729 47.5,-729 47.5,-729 41.5,-729 35.5,-723 35.5,-717 35.5,-717 35.5,-655 35.5,-655 35.5,-649 41.5,-643 47.5,-643 47.5,-643 200.5,-643 200.5,-643 206.5,-643 212.5,-649 212.5,-655 212.5,-655 212.5,-717 212.5,-717 212.5,-723 206.5,-729 200.5,-729"/>
<text text-anchor="middle" x="124" y="-717" font-family="Helvetica,sans-Serif" font-size="10.00">Response Parsing</text>
<text text-anchor="middle" x="124" y="-694" font-family="Helvetica,sans-Serif" font-size="10.00">JSON / CSV deserialization</text>
<text text-anchor="middle" x="124" y="-683" font-family="Helvetica,sans-Serif" font-size="10.00">ADR&#45;014 source generators</text>
<text text-anchor="middle" x="124" y="-672" font-family="Helvetica,sans-Serif" font-size="10.00">OHLCV normalization</text>
<text text-anchor="middle" x="124" y="-661" font-family="Helvetica,sans-Serif" font-size="10.00">Timezone canonicalization (UTC)</text>
<text text-anchor="middle" x="124" y="-650" font-family="Helvetica,sans-Serif" font-size="10.00">Adjusted price handling</text>
</g>
<!-- HIST_CALL&#45;&gt;PARSE -->
<g id="edge18" class="edge">
<title>HIST_CALL&#45;&gt;PARSE</title>
<path fill="none" stroke="#2c7a7b" d="M124,-765.98C124,-765.98 124,-739.2 124,-739.2"/>
<polygon fill="#2c7a7b" stroke="#2c7a7b" points="127.5,-739.2 124,-729.2 120.5,-739.2 127.5,-739.2"/>
</g>
<!-- GAP_DETECT -->
<g id="node19" class="node">
<title>GAP_DETECT</title>
<path fill="#e2e8f0" stroke="black" d="M269,-578C269,-578 99,-578 99,-578 93,-578 87,-572 87,-566 87,-566 87,-515 87,-515 87,-509 93,-503 99,-503 99,-503 269,-503 269,-503 275,-503 281,-509 281,-515 281,-515 281,-566 281,-566 281,-572 275,-578 269,-578"/>
<text text-anchor="middle" x="184" y="-566" font-family="Helvetica,sans-Serif" font-size="10.00">Gap Detector</text>
<text text-anchor="middle" x="184" y="-543" font-family="Helvetica,sans-Serif" font-size="10.00">Compare fetched vs expected dates</text>
<text text-anchor="middle" x="184" y="-532" font-family="Helvetica,sans-Serif" font-size="10.00">Missing interval flagging</text>
<text text-anchor="middle" x="184" y="-521" font-family="Helvetica,sans-Serif" font-size="10.00">Out&#45;of&#45;order detection</text>
<text text-anchor="middle" x="184" y="-510" font-family="Helvetica,sans-Serif" font-size="10.00">IntegrityEvent emission on anomaly</text>
</g>
<!-- PARSE&#45;&gt;GAP_DETECT -->
<g id="edge19" class="edge">
<title>PARSE&#45;&gt;GAP_DETECT</title>
<path fill="none" stroke="#718096" d="M149.75,-642.74C149.75,-642.74 149.75,-588.41 149.75,-588.41"/>
<polygon fill="#718096" stroke="#718096" points="153.25,-588.41 149.75,-578.41 146.25,-588.41 153.25,-588.41"/>
<text text-anchor="middle" x="178" y="-617.8" font-family="Helvetica,sans-Serif" font-size="9.00">6. validate</text>
</g>
<!-- FSHARP_VAL -->
<g id="node20" class="node">
<title>FSHARP_VAL</title>
<path fill="#e2e8f0" stroke="black" d="M246.5,-466C246.5,-466 121.5,-466 121.5,-466 115.5,-466 109.5,-460 109.5,-454 109.5,-454 109.5,-392 109.5,-392 109.5,-386 115.5,-380 121.5,-380 121.5,-380 246.5,-380 246.5,-380 252.5,-380 258.5,-386 258.5,-392 258.5,-392 258.5,-454 258.5,-454 258.5,-460 252.5,-466 246.5,-466"/>
<text text-anchor="middle" x="184" y="-454" font-family="Helvetica,sans-Serif" font-size="10.00">F# Validation Pipeline</text>
<text text-anchor="middle" x="184" y="-443" font-family="Helvetica,sans-Serif" font-size="10.00">[Railway&#45;Oriented]</text>
<text text-anchor="middle" x="184" y="-420" font-family="Helvetica,sans-Serif" font-size="10.00">Price &gt; 0, Volume ≥ 0</text>
<text text-anchor="middle" x="184" y="-409" font-family="Helvetica,sans-Serif" font-size="10.00">High ≥ Low, Close in range</text>
<text text-anchor="middle" x="184" y="-398" font-family="Helvetica,sans-Serif" font-size="10.00">Timestamp monotonic</text>
<text text-anchor="middle" x="184" y="-387" font-family="Helvetica,sans-Serif" font-size="10.00">Error accumulation</text>
</g>
<!-- GAP_DETECT&#45;&gt;FSHARP_VAL -->
<g id="edge20" class="edge">
<title>GAP_DETECT&#45;&gt;FSHARP_VAL</title>
<path fill="none" stroke="#718096" d="M184,-503C184,-503 184,-476.28 184,-476.28"/>
<polygon fill="#718096" stroke="#718096" points="187.5,-476.28 184,-466.28 180.5,-476.28 187.5,-476.28"/>
</g>
<!-- WAL -->
<g id="node21" class="node">
<title>WAL</title>
<path fill="#fc8181" stroke="black" d="M241,-315C241,-315 127,-315 127,-315 121,-315 115,-309 115,-303 115,-303 115,-252 115,-252 115,-246 121,-240 127,-240 127,-240 241,-240 241,-240 247,-240 253,-246 253,-252 253,-252 253,-303 253,-303 253,-309 247,-315 241,-315"/>
<text text-anchor="middle" x="184" y="-303" font-family="Helvetica,sans-Serif" font-size="10.00" fill="white">Write&#45;Ahead Log</text>
<text text-anchor="middle" x="184" y="-280" font-family="Helvetica,sans-Serif" font-size="10.00" fill="white">Journal before write</text>
<text text-anchor="middle" x="184" y="-269" font-family="Helvetica,sans-Serif" font-size="10.00" fill="white">Crash&#45;safe guarantee</text>
<text text-anchor="middle" x="184" y="-258" font-family="Helvetica,sans-Serif" font-size="10.00" fill="white">SHA256 per entry</text>
<text text-anchor="middle" x="184" y="-247" font-family="Helvetica,sans-Serif" font-size="10.00" fill="white">NoSync / Batched modes</text>
</g>
<!-- FSHARP_VAL&#45;&gt;WAL -->
<g id="edge21" class="edge">
<title>FSHARP_VAL&#45;&gt;WAL</title>
<path fill="none" stroke="#c53030" stroke-width="2" d="M184,-379.74C184,-379.74 184,-325.41 184,-325.41"/>
<polygon fill="#c53030" stroke="#c53030" stroke-width="2" points="187.5,-325.41 184,-315.41 180.5,-325.41 187.5,-325.41"/>
<text text-anchor="middle" x="201.5" y="-354.8" font-family="Helvetica,sans-Serif" font-size="9.00">7. store</text>
</g>
<!-- JSONL_SINK -->
<g id="node22" class="node">
<title>JSONL_SINK</title>
<path fill="#fecaca" stroke="black" d="M215.5,-203C215.5,-203 40.5,-203 40.5,-203 34.5,-203 28.5,-197 28.5,-191 28.5,-191 28.5,-140 28.5,-140 28.5,-134 34.5,-128 40.5,-128 40.5,-128 215.5,-128 215.5,-128 221.5,-128 227.5,-134 227.5,-140 227.5,-140 227.5,-191 227.5,-191 227.5,-197 221.5,-203 215.5,-203"/>
<text text-anchor="middle" x="128" y="-191" font-family="Helvetica,sans-Serif" font-size="10.00">JSONL Sink</text>
<text text-anchor="middle" x="128" y="-168" font-family="Helvetica,sans-Serif" font-size="10.00">Append&#45;only writes</text>
<text text-anchor="middle" x="128" y="-157" font-family="Helvetica,sans-Serif" font-size="10.00">Daily partition files</text>
<text text-anchor="middle" x="128" y="-146" font-family="Helvetica,sans-Serif" font-size="10.00">{root}/{symbol}/{type}/{date}.jsonl</text>
<text text-anchor="middle" x="128" y="-135" font-family="Helvetica,sans-Serif" font-size="10.00">Optional LZ4 compression</text>
</g>
<!-- WAL&#45;&gt;JSONL_SINK -->
<g id="edge22" class="edge">
<title>WAL&#45;&gt;JSONL_SINK</title>
<path fill="none" stroke="#c53030" stroke-width="2" d="M171.25,-239.89C171.25,-239.89 171.25,-213.2 171.25,-213.2"/>
<polygon fill="#c53030" stroke="#c53030" stroke-width="2" points="174.75,-213.2 171.25,-203.2 167.75,-213.2 174.75,-213.2"/>
</g>
<!-- PARQUET_SINK -->
<g id="node23" class="node">
<title>PARQUET_SINK</title>
<path fill="#fecaca" stroke="black" d="M376,-203C376,-203 258,-203 258,-203 252,-203 246,-197 246,-191 246,-191 246,-140 246,-140 246,-134 252,-128 258,-128 258,-128 376,-128 376,-128 382,-128 388,-134 388,-140 388,-140 388,-191 388,-191 388,-197 382,-203 376,-203"/>
<text text-anchor="middle" x="317" y="-191" font-family="Helvetica,sans-Serif" font-size="10.00">Parquet Sink</text>
<text text-anchor="middle" x="317" y="-168" font-family="Helvetica,sans-Serif" font-size="10.00">Columnar archival format</text>
<text text-anchor="middle" x="317" y="-157" font-family="Helvetica,sans-Serif" font-size="10.00">10&#45;20x compression</text>
<text text-anchor="middle" x="317" y="-146" font-family="Helvetica,sans-Serif" font-size="10.00">Schema versioning</text>
<text text-anchor="middle" x="317" y="-135" font-family="Helvetica,sans-Serif" font-size="10.00">Batch flush (1000 rows)</text>
</g>
<!-- WAL&#45;&gt;PARQUET_SINK -->
<g id="edge23" class="edge">
<title>WAL&#45;&gt;PARQUET_SINK</title>
<path fill="none" stroke="#c53030" d="M249.5,-239.89C249.5,-239.89 249.5,-213.2 249.5,-213.2"/>
<polygon fill="#c53030" stroke="#c53030" points="253,-213.2 249.5,-203.2 246,-213.2 253,-213.2"/>
</g>
<!-- JSONL_SINK&#45;&gt;TIERED -->
<g id="edge24" class="edge">
<title>JSONL_SINK&#45;&gt;TIERED</title>
<path fill="none" stroke="#c53030" stroke-dasharray="5,2" d="M128,-127.89C128,-127.89 128,-101.2 128,-101.2"/>
<polygon fill="#c53030" stroke="#c53030" points="131.5,-101.2 128,-91.2 124.5,-101.2 131.5,-101.2"/>
</g>
<!-- PARQUET_SINK&#45;&gt;TIERED -->
<g id="edge25" class="edge">
<title>PARQUET_SINK&#45;&gt;TIERED</title>
<path fill="none" stroke="#c53030" stroke-dasharray="5,2" d="M317,-127.79C317,-99.27 317,-65 317,-65 317,-65 208.11,-65 208.11,-65"/>
<polygon fill="#c53030" stroke="#c53030" points="208.11,-61.5 198.11,-65 208.11,-68.5 208.11,-61.5"/>
</g>
<!-- METRICS -->
<g id="node26" class="node">
<title>METRICS</title>
<path fill="#9ae6b4" stroke="black" d="M1444,-1024.5C1444,-1024.5 1298,-1024.5 1298,-1024.5 1292,-1024.5 1286,-1018.5 1286,-1012.5 1286,-1012.5 1286,-961.5 1286,-961.5 1286,-955.5 1292,-949.5 1298,-949.5 1298,-949.5 1444,-949.5 1444,-949.5 1450,-949.5 1456,-955.5 1456,-961.5 1456,-961.5 1456,-1012.5 1456,-1012.5 1456,-1018.5 1450,-1024.5 1444,-1024.5"/>
<text text-anchor="middle" x="1371" y="-1012.5" font-family="Helvetica,sans-Serif" font-size="10.00">Prometheus Metrics</text>
<text text-anchor="middle" x="1371" y="-989.5" font-family="Helvetica,sans-Serif" font-size="10.00">mdc_backfill_requests_total</text>
<text text-anchor="middle" x="1371" y="-978.5" font-family="Helvetica,sans-Serif" font-size="10.00">mdc_backfill_rows_fetched</text>
<text text-anchor="middle" x="1371" y="-967.5" font-family="Helvetica,sans-Serif" font-size="10.00">mdc_backfill_errors_total</text>
<text text-anchor="middle" x="1371" y="-956.5" font-family="Helvetica,sans-Serif" font-size="10.00">mdc_provider_latency_seconds</text>
</g>
<!-- PROGRESS&#45;&gt;METRICS -->
<g id="edge27" class="edge">
<title>PROGRESS&#45;&gt;METRICS</title>
<path fill="none" stroke="#38a169" stroke-dasharray="5,2" d="M1360,-1108.32C1360,-1108.32 1360,-1034.69 1360,-1034.69"/>
<polygon fill="#38a169" stroke="#38a169" points="1363.5,-1034.69 1360,-1024.69 1356.5,-1034.69 1363.5,-1034.69"/>
</g>
<!-- LEG -->
<g id="node28" class="node">
<title>LEG</title>
<path fill="lightgrey" stroke="transparent" d="M1406,-1468.5C1406,-1468.5 1242,-1468.5 1242,-1468.5 1236,-1468.5 1230,-1462.5 1230,-1456.5 1230,-1456.5 1230,-1439.5 1230,-1439.5 1230,-1433.5 1236,-1427.5 1242,-1427.5 1242,-1427.5 1406,-1427.5 1406,-1427.5 1412,-1427.5 1418,-1433.5 1418,-1439.5 1418,-1439.5 1418,-1456.5 1418,-1456.5 1418,-1462.5 1412,-1468.5 1406,-1468.5"/>
<text text-anchor="middle" x="1324" y="-1456.5" font-family="Helvetica,sans-Serif" font-size="10.00">━━ Main backfill flow</text>
<text text-anchor="middle" x="1324" y="-1445.5" font-family="Helvetica,sans-Serif" font-size="10.00">─ ─ Reference / Error handling</text>
<text text-anchor="middle" x="1324" y="-1434.5" font-family="Helvetica,sans-Serif" font-size="10.00">Numbers = processing phase order</text>
</g>
</g>
</svg>
