<?xml version="1.0" encoding="UTF-8" standalone="no"?>
<!DOCTYPE svg PUBLIC "-//W3C//DTD SVG 1.1//EN"
 "http://www.w3.org/Graphics/SVG/1.1/DTD/svg11.dtd">
<!-- Generated by graphviz version 2.43.0 (0)
 -->
<!-- Title: C4_Context Pages: 1 -->
<svg width="3088pt" height="668pt"
 viewBox="0.00 0.00 3088.00 667.93" xmlns="http://www.w3.org/2000/svg" xmlns:xlink="http://www.w3.org/1999/xlink">
<g id="graph0" class="graph" transform="scale(1 1) rotate(0) translate(36 631.93)">
<title>C4_Context</title>
<polygon fill="white" stroke="transparent" points="-36,36 -36,-631.93 3052,-631.93 3052,36 -36,36"/>
<text text-anchor="middle" x="1508" y="-582.33" font-family="Helvetica,sans-Serif" font-size="12.00">Meridian &#45; System Context (C4 Level 1)</text>
<text text-anchor="middle" x="1508" y="-569.33" font-family="Helvetica,sans-Serif" font-size="12.00">v1.7.2</text>
<g id="clust1" class="cluster">
<title>cluster_actors</title>
</g>
<g id="clust2" class="cluster">
<title>cluster_streaming</title>
<path fill="#f0f8ff" stroke="#2b6cb0" d="M637,-425.15C637,-425.15 1402,-425.15 1402,-425.15 1408,-425.15 1414,-431.15 1414,-437.15 1414,-437.15 1414,-519.15 1414,-519.15 1414,-525.15 1408,-531.15 1402,-531.15 1402,-531.15 637,-531.15 637,-531.15 631,-531.15 625,-525.15 625,-519.15 625,-519.15 625,-437.15 625,-437.15 625,-431.15 631,-425.15 637,-425.15"/>
<text text-anchor="middle" x="1019.5" y="-517.55" font-family="Helvetica,sans-Serif" font-size="12.00">Real&#45;Time Streaming Providers</text>
</g>
<g id="clust3" class="cluster">
<title>cluster_historical</title>
<path fill="#e6fffa" stroke="#2c7a7b" d="M1434,-419.15C1434,-419.15 2135,-419.15 2135,-419.15 2141,-419.15 2147,-425.15 2147,-431.15 2147,-431.15 2147,-525.15 2147,-525.15 2147,-531.15 2141,-537.15 2135,-537.15 2135,-537.15 1434,-537.15 1434,-537.15 1428,-537.15 1422,-531.15 1422,-525.15 1422,-525.15 1422,-431.15 1422,-431.15 1422,-425.15 1428,-419.15 1434,-419.15"/>
<text text-anchor="middle" x="1784.5" y="-523.55" font-family="Helvetica,sans-Serif" font-size="12.00">Historical Data Providers (14 Implemented)</text>
</g>
<g id="clust4" class="cluster">
<title>cluster_brokerage</title>
<path fill="#fffbeb" stroke="#744210" d="M136,-29.19C136,-29.19 528,-29.19 528,-29.19 534,-29.19 540,-35.19 540,-41.19 540,-41.19 540,-123.19 540,-123.19 540,-129.19 534,-135.19 528,-135.19 528,-135.19 136,-135.19 136,-135.19 130,-135.19 124,-129.19 124,-123.19 124,-123.19 124,-41.19 124,-41.19 124,-35.19 130,-29.19 136,-29.19"/>
<text text-anchor="middle" x="332" y="-121.59" font-family="Helvetica,sans-Serif" font-size="12.00">Brokerage Order Gateways</text>
</g>
<g id="clust5" class="cluster">
<title>cluster_downstream</title>
<path fill="#faf5ff" stroke="#805ad5" d="M560,-29.19C560,-29.19 1008,-29.19 1008,-29.19 1014,-29.19 1020,-35.19 1020,-41.19 1020,-41.19 1020,-123.19 1020,-123.19 1020,-129.19 1014,-135.19 1008,-135.19 1008,-135.19 560,-135.19 560,-135.19 554,-135.19 548,-129.19 548,-123.19 548,-123.19 548,-41.19 548,-41.19 548,-35.19 554,-29.19 560,-29.19"/>
<text text-anchor="middle" x="784" y="-121.59" font-family="Helvetica,sans-Serif" font-size="12.00">Analysis &amp; Integration</text>
</g>
<g id="clust6" class="cluster">
<title>cluster_infra</title>
<path fill="#fff5f5" stroke="#c53030" d="M1040,-8C1040,-8 1684,-8 1684,-8 1690,-8 1696,-14 1696,-20 1696,-20 1696,-144.38 1696,-144.38 1696,-150.38 1690,-156.38 1684,-156.38 1684,-156.38 1040,-156.38 1040,-156.38 1034,-156.38 1028,-150.38 1028,-144.38 1028,-144.38 1028,-20 1028,-20 1028,-14 1034,-8 1040,-8"/>
<text text-anchor="middle" x="1362" y="-142.78" font-family="Helvetica,sans-Serif" font-size="12.00">Infrastructure</text>
</g>
<g id="clust7" class="cluster">
<title>cluster_legend</title>
<path fill="#fafafa" stroke="#666666" d="M2167,-441.65C2167,-441.65 2996,-441.65 2996,-441.65 3002,-441.65 3008,-447.65 3008,-453.65 3008,-453.65 3008,-502.65 3008,-502.65 3008,-508.65 3002,-514.65 2996,-514.65 2996,-514.65 2167,-514.65 2167,-514.65 2161,-514.65 2155,-508.65 2155,-502.65 2155,-502.65 2155,-453.65 2155,-453.65 2155,-447.65 2161,-441.65 2167,-441.65"/>
<text text-anchor="middle" x="2581.5" y="-501.05" font-family="Helvetica,sans-Serif" font-size="12.00">Legend</text>
</g>
<!-- Operator -->
<g id="node1" class="node">
<title>Operator</title>
<ellipse fill="#08427b" stroke="black" cx="333" cy="-467.65" rx="95.42" ry="57.05"/>
<text text-anchor="middle" x="333" y="-495.35" font-family="Helvetica,sans-Serif" font-size="11.00" fill="white">Operator</text>
<text text-anchor="middle" x="333" y="-483.35" font-family="Helvetica,sans-Serif" font-size="11.00" fill="white">[Person]</text>
<text text-anchor="middle" x="333" y="-458.35" font-family="Helvetica,sans-Serif" font-size="11.00" fill="white">Configures collection,</text>
<text text-anchor="middle" x="333" y="-446.35" font-family="Helvetica,sans-Serif" font-size="11.00" fill="white">monitors health,</text>
<text text-anchor="middle" x="333" y="-434.35" font-family="Helvetica,sans-Serif" font-size="11.00" fill="white">manages backfill</text>
</g>
<!-- Meridian -->
<g id="node4" class="node">
<title>Meridian</title>
<path fill="#438dd5" stroke="black" d="M1240,-354.38C1240,-354.38 976,-354.38 976,-354.38 970,-354.38 964,-348.38 964,-342.38 964,-342.38 964,-224.38 964,-224.38 964,-218.38 970,-212.38 976,-212.38 976,-212.38 1240,-212.38 1240,-212.38 1246,-212.38 1252,-218.38 1252,-224.38 1252,-224.38 1252,-342.38 1252,-342.38 1252,-348.38 1246,-354.38 1240,-354.38"/>
<text text-anchor="middle" x="1108" y="-341.57" font-family="Helvetica,sans-Serif" font-size="11.00" fill="white">Meridian</text>
<text text-anchor="middle" x="1108" y="-329.57" font-family="Helvetica,sans-Serif" font-size="11.00" fill="white">[Software System]</text>
<text text-anchor="middle" x="1108" y="-304.57" font-family="Helvetica,sans-Serif" font-size="11.00" fill="white">.NET 9.0 | C# 13 | F# 8</text>
<text text-anchor="middle" x="1108" y="-279.57" font-family="Helvetica,sans-Serif" font-size="11.00" fill="white">Collects, validates, stores and exports</text>
<text text-anchor="middle" x="1108" y="-267.57" font-family="Helvetica,sans-Serif" font-size="11.00" fill="white">real&#45;time and historical market data.</text>
<text text-anchor="middle" x="1108" y="-255.57" font-family="Helvetica,sans-Serif" font-size="11.00" fill="white">Backtests strategies at tick level.</text>
<text text-anchor="middle" x="1108" y="-243.57" font-family="Helvetica,sans-Serif" font-size="11.00" fill="white">Executes strategies via paper and</text>
<text text-anchor="middle" x="1108" y="-231.57" font-family="Helvetica,sans-Serif" font-size="11.00" fill="white">brokerage gateways. Tracks portfolio</text>
<text text-anchor="middle" x="1108" y="-219.57" font-family="Helvetica,sans-Serif" font-size="11.00" fill="white">performance and strategy lifecycle.</text>
</g>
<!-- Operator&#45;&gt;Meridian -->
<g id="edge1" class="edge">
<title>Operator&#45;&gt;Meridian</title>
<path fill="none" stroke="#4a5568" d="M414.48,-437.73C414.48,-394.05 414.48,-318 414.48,-318 414.48,-318 953.88,-318 953.88,-318"/>
<polygon fill="#4a5568" stroke="#4a5568" points="953.88,-321.5 963.88,-318 953.88,-314.5 953.88,-321.5"/>
<text text-anchor="middle" x="738" y="-385.18" font-family="Helvetica,sans-Serif" font-size="9.00">Configures via</text>
<text text-anchor="middle" x="738" y="-375.18" font-family="Helvetica,sans-Serif" font-size="9.00">WPF/local API/CLI</text>
</g>
<!-- Quant -->
<g id="node2" class="node">
<title>Quant</title>
<ellipse fill="#08427b" stroke="black" cx="528" cy="-467.65" rx="81.13" ry="57.05"/>
<text text-anchor="middle" x="528" y="-495.35" font-family="Helvetica,sans-Serif" font-size="11.00" fill="white">Quant/Analyst</text>
<text text-anchor="middle" x="528" y="-483.35" font-family="Helvetica,sans-Serif" font-size="11.00" fill="white">[Person]</text>
<text text-anchor="middle" x="528" y="-458.35" font-family="Helvetica,sans-Serif" font-size="11.00" fill="white">Runs backtests,</text>
<text text-anchor="middle" x="528" y="-446.35" font-family="Helvetica,sans-Serif" font-size="11.00" fill="white">builds strategies,</text>
<text text-anchor="middle" x="528" y="-434.35" font-family="Helvetica,sans-Serif" font-size="11.00" fill="white">analyzes portfolio</text>
</g>
<!-- Quant&#45;&gt;Meridian -->
<g id="edge2" class="edge">
<title>Quant&#45;&gt;Meridian</title>
<path fill="none" stroke="#4a5568" d="M568.54,-418C677.3,-418 967.33,-418 967.33,-418 967.33,-418 967.33,-364.63 967.33,-364.63"/>
<polygon fill="#4a5568" stroke="#4a5568" points="970.83,-364.63 967.33,-354.63 963.83,-364.63 970.83,-364.63"/>
<text text-anchor="middle" x="847" y="-385.18" font-family="Helvetica,sans-Serif" font-size="9.00">Backtests strategies,</text>
<text text-anchor="middle" x="847" y="-375.18" font-family="Helvetica,sans-Serif" font-size="9.00">monitors portfolio</text>
</g>
<!-- DevOps -->
<g id="node3" class="node">
<title>DevOps</title>
<ellipse fill="#08427b" stroke="black" cx="118" cy="-467.65" rx="101.65" ry="48.58"/>
<text text-anchor="middle" x="118" y="-489.35" font-family="Helvetica,sans-Serif" font-size="11.00" fill="white">DevOps</text>
<text text-anchor="middle" x="118" y="-477.35" font-family="Helvetica,sans-Serif" font-size="11.00" fill="white">[Person]</text>
<text text-anchor="middle" x="118" y="-452.35" font-family="Helvetica,sans-Serif" font-size="11.00" fill="white">Deploys, scales,</text>
<text text-anchor="middle" x="118" y="-440.35" font-family="Helvetica,sans-Serif" font-size="11.00" fill="white">monitors infrastructure</text>
</g>
<!-- PROM -->
<g id="node23" class="node">
<title>PROM</title>
<path fill="#e53e3e" stroke="black" d="M1167.5,-106.19C1167.5,-106.19 1048.5,-106.19 1048.5,-106.19 1042.5,-106.19 1036.5,-100.19 1036.5,-94.19 1036.5,-94.19 1036.5,-49.19 1036.5,-49.19 1036.5,-43.19 1042.5,-37.19 1048.5,-37.19 1048.5,-37.19 1167.5,-37.19 1167.5,-37.19 1173.5,-37.19 1179.5,-43.19 1179.5,-49.19 1179.5,-49.19 1179.5,-94.19 1179.5,-94.19 1179.5,-100.19 1173.5,-106.19 1167.5,-106.19"/>
<text text-anchor="middle" x="1108" y="-93.39" font-family="Helvetica,sans-Serif" font-size="11.00" fill="white">Prometheus + Grafana</text>
<text text-anchor="middle" x="1108" y="-81.39" font-family="Helvetica,sans-Serif" font-size="11.00" fill="white">[Infrastructure]</text>
<text text-anchor="middle" x="1108" y="-56.39" font-family="Helvetica,sans-Serif" font-size="11.00" fill="white">Metrics, Dashboards</text>
<text text-anchor="middle" x="1108" y="-44.39" font-family="Helvetica,sans-Serif" font-size="11.00" fill="white">Alerting</text>
</g>
<!-- DevOps&#45;&gt;PROM -->
<g id="edge3" class="edge">
<title>DevOps&#45;&gt;PROM</title>
<path fill="none" stroke="#4a5568" d="M175.91,-427.37C175.91,-345.85 175.91,-169 175.91,-169 175.91,-169 1084.17,-169 1084.17,-169 1084.17,-169 1084.17,-116.27 1084.17,-116.27"/>
<polygon fill="#4a5568" stroke="#4a5568" points="1087.67,-116.27 1084.17,-106.27 1080.67,-116.27 1087.67,-116.27"/>
<text text-anchor="middle" x="697.5" y="-286.18" font-family="Helvetica,sans-Serif" font-size="9.00">Monitors</text>
<text text-anchor="middle" x="697.5" y="-276.18" font-family="Helvetica,sans-Serif" font-size="9.00">infrastructure</text>
</g>
<!-- ALP_BROK -->
<g id="node15" class="node">
<title>ALP_BROK</title>
<path fill="#d69e2e" stroke="black" d="M236,-106.19C236,-106.19 144,-106.19 144,-106.19 138,-106.19 132,-100.19 132,-94.19 132,-94.19 132,-49.19 132,-49.19 132,-43.19 138,-37.19 144,-37.19 144,-37.19 236,-37.19 236,-37.19 242,-37.19 248,-43.19 248,-49.19 248,-49.19 248,-94.19 248,-94.19 248,-100.19 242,-106.19 236,-106.19"/>
<text text-anchor="middle" x="190" y="-93.39" font-family="Helvetica,sans-Serif" font-size="11.00" fill="white">Alpaca Brokerage</text>
<text text-anchor="middle" x="190" y="-81.39" font-family="Helvetica,sans-Serif" font-size="11.00" fill="white">[External System]</text>
<text text-anchor="middle" x="190" y="-56.39" font-family="Helvetica,sans-Serif" font-size="11.00" fill="white">Fractional Shares</text>
<text text-anchor="middle" x="190" y="-44.39" font-family="Helvetica,sans-Serif" font-size="11.00" fill="white">Order Routing</text>
</g>
<!-- Meridian&#45;&gt;ALP_BROK -->
<g id="edge14" class="edge">
<title>Meridian&#45;&gt;ALP_BROK</title>
<path fill="none" stroke="#744210" d="M963.67,-301C717.5,-301 242.77,-301 242.77,-301 242.77,-301 242.77,-116.52 242.77,-116.52"/>
<polygon fill="#744210" stroke="#744210" points="246.27,-116.52 242.77,-106.52 239.27,-116.52 246.27,-116.52"/>
<text text-anchor="middle" x="273.5" y="-182.18" font-family="Helvetica,sans-Serif" font-size="9.00">Order routing</text>
<text text-anchor="middle" x="273.5" y="-172.18" font-family="Helvetica,sans-Serif" font-size="9.00">fractional shares</text>
</g>
<!-- IB_BROK -->
<g id="node16" class="node">
<title>IB_BROK</title>
<path fill="#d69e2e" stroke="black" d="M370,-106.19C370,-106.19 278,-106.19 278,-106.19 272,-106.19 266,-100.19 266,-94.19 266,-94.19 266,-49.19 266,-49.19 266,-43.19 272,-37.19 278,-37.19 278,-37.19 370,-37.19 370,-37.19 376,-37.19 382,-43.19 382,-49.19 382,-49.19 382,-94.19 382,-94.19 382,-100.19 376,-106.19 370,-106.19"/>
<text text-anchor="middle" x="324" y="-93.39" font-family="Helvetica,sans-Serif" font-size="11.00" fill="white">IB Brokerage</text>
<text text-anchor="middle" x="324" y="-81.39" font-family="Helvetica,sans-Serif" font-size="11.00" fill="white">[External System]</text>
<text text-anchor="middle" x="324" y="-56.39" font-family="Helvetica,sans-Serif" font-size="11.00" fill="white">Full Order Types</text>
<text text-anchor="middle" x="324" y="-44.39" font-family="Helvetica,sans-Serif" font-size="11.00" fill="white">Live Execution</text>
</g>
<!-- Meridian&#45;&gt;IB_BROK -->
<g id="edge15" class="edge">
<title>Meridian&#45;&gt;IB_BROK</title>
<path fill="none" stroke="#744210" d="M963.75,-283C737.31,-283 324,-283 324,-283 324,-283 324,-116.58 324,-116.58"/>
<polygon fill="#744210" stroke="#744210" points="327.5,-116.58 324,-106.58 320.5,-116.58 327.5,-116.58"/>
<text text-anchor="middle" x="383.5" y="-182.18" font-family="Helvetica,sans-Serif" font-size="9.00">Order routing</text>
<text text-anchor="middle" x="383.5" y="-172.18" font-family="Helvetica,sans-Serif" font-size="9.00">live execution</text>
</g>
<!-- SS_BROK -->
<g id="node17" class="node">
<title>SS_BROK</title>
<path fill="#d69e2e" stroke="black" d="M519.5,-106.19C519.5,-106.19 412.5,-106.19 412.5,-106.19 406.5,-106.19 400.5,-100.19 400.5,-94.19 400.5,-94.19 400.5,-49.19 400.5,-49.19 400.5,-43.19 406.5,-37.19 412.5,-37.19 412.5,-37.19 519.5,-37.19 519.5,-37.19 525.5,-37.19 531.5,-43.19 531.5,-49.19 531.5,-49.19 531.5,-94.19 531.5,-94.19 531.5,-100.19 525.5,-106.19 519.5,-106.19"/>
<text text-anchor="middle" x="466" y="-93.39" font-family="Helvetica,sans-Serif" font-size="11.00" fill="white">StockSharp Gateway</text>
<text text-anchor="middle" x="466" y="-81.39" font-family="Helvetica,sans-Serif" font-size="11.00" fill="white">[External System]</text>
<text text-anchor="middle" x="466" y="-56.39" font-family="Helvetica,sans-Serif" font-size="11.00" fill="white">Multi&#45;Broker Routing</text>
<text text-anchor="middle" x="466" y="-44.39" font-family="Helvetica,sans-Serif" font-size="11.00" fill="white">Order Management</text>
</g>
<!-- Meridian&#45;&gt;SS_BROK -->
<g id="edge16" class="edge">
<title>Meridian&#45;&gt;SS_BROK</title>
<path fill="none" stroke="#744210" d="M963.67,-265C780.79,-265 489.09,-265 489.09,-265 489.09,-265 489.09,-116.25 489.09,-116.25"/>
<polygon fill="#744210" stroke="#744210" points="492.59,-116.25 489.09,-106.25 485.59,-116.25 492.59,-116.25"/>
<text text-anchor="middle" x="517.5" y="-182.18" font-family="Helvetica,sans-Serif" font-size="9.00">Multi&#45;broker</text>
<text text-anchor="middle" x="517.5" y="-172.18" font-family="Helvetica,sans-Serif" font-size="9.00">routing</text>
</g>
<!-- LEAN -->
<g id="node18" class="node">
<title>LEAN</title>
<path fill="#805ad5" stroke="black" d="M707.5,-106.19C707.5,-106.19 568.5,-106.19 568.5,-106.19 562.5,-106.19 556.5,-100.19 556.5,-94.19 556.5,-94.19 556.5,-49.19 556.5,-49.19 556.5,-43.19 562.5,-37.19 568.5,-37.19 568.5,-37.19 707.5,-37.19 707.5,-37.19 713.5,-37.19 719.5,-43.19 719.5,-49.19 719.5,-49.19 719.5,-94.19 719.5,-94.19 719.5,-100.19 713.5,-106.19 707.5,-106.19"/>
<text text-anchor="middle" x="638" y="-93.39" font-family="Helvetica,sans-Serif" font-size="11.00" fill="white">QuantConnect Lean</text>
<text text-anchor="middle" x="638" y="-81.39" font-family="Helvetica,sans-Serif" font-size="11.00" fill="white">[External System]</text>
<text text-anchor="middle" x="638" y="-56.39" font-family="Helvetica,sans-Serif" font-size="11.00" fill="white">Algorithmic Trading Engine</text>
<text text-anchor="middle" x="638" y="-44.39" font-family="Helvetica,sans-Serif" font-size="11.00" fill="white">Backtesting + Live</text>
</g>
<!-- Meridian&#45;&gt;LEAN -->
<g id="edge20" class="edge">
<title>Meridian&#45;&gt;LEAN</title>
<path fill="none" stroke="#805ad5" d="M963.72,-247C838.28,-247 676.5,-247 676.5,-247 676.5,-247 676.5,-116.32 676.5,-116.32"/>
<polygon fill="#805ad5" stroke="#805ad5" points="680,-116.32 676.5,-106.32 673,-116.32 680,-116.32"/>
<text text-anchor="middle" x="621.5" y="-182.18" font-family="Helvetica,sans-Serif" font-size="9.00">Exports Lean</text>
<text text-anchor="middle" x="621.5" y="-172.18" font-family="Helvetica,sans-Serif" font-size="9.00">format data</text>
</g>
<!-- PYTHON -->
<g id="node19" class="node">
<title>PYTHON</title>
<path fill="#805ad5" stroke="black" d="M846,-106.19C846,-106.19 750,-106.19 750,-106.19 744,-106.19 738,-100.19 738,-94.19 738,-94.19 738,-49.19 738,-49.19 738,-43.19 744,-37.19 750,-37.19 750,-37.19 846,-37.19 846,-37.19 852,-37.19 858,-43.19 858,-49.19 858,-49.19 858,-94.19 858,-94.19 858,-100.19 852,-106.19 846,-106.19"/>
<text text-anchor="middle" x="798" y="-93.39" font-family="Helvetica,sans-Serif" font-size="11.00" fill="white">Python/R Analytics</text>
<text text-anchor="middle" x="798" y="-81.39" font-family="Helvetica,sans-Serif" font-size="11.00" fill="white">[External System]</text>
<text text-anchor="middle" x="798" y="-56.39" font-family="Helvetica,sans-Serif" font-size="11.00" fill="white">Pandas, NumPy</text>
<text text-anchor="middle" x="798" y="-44.39" font-family="Helvetica,sans-Serif" font-size="11.00" fill="white">Data Science</text>
</g>
<!-- Meridian&#45;&gt;PYTHON -->
<g id="edge21" class="edge">
<title>Meridian&#45;&gt;PYTHON</title>
<path fill="none" stroke="#805ad5" d="M963.62,-230C895.21,-230 828.25,-230 828.25,-230 828.25,-230 828.25,-116.43 828.25,-116.43"/>
<polygon fill="#805ad5" stroke="#805ad5" points="831.75,-116.43 828.25,-106.43 824.75,-116.43 831.75,-116.43"/>
<text text-anchor="middle" x="859.5" y="-182.18" font-family="Helvetica,sans-Serif" font-size="9.00">Exports Parquet</text>
<text text-anchor="middle" x="859.5" y="-172.18" font-family="Helvetica,sans-Serif" font-size="9.00">CSV, Excel</text>
</g>
<!-- AI_TOOLS -->
<g id="node20" class="node">
<title>AI_TOOLS</title>
<path fill="#805ad5" stroke="black" d="M999.5,-106.19C999.5,-106.19 888.5,-106.19 888.5,-106.19 882.5,-106.19 876.5,-100.19 876.5,-94.19 876.5,-94.19 876.5,-49.19 876.5,-49.19 876.5,-43.19 882.5,-37.19 888.5,-37.19 888.5,-37.19 999.5,-37.19 999.5,-37.19 1005.5,-37.19 1011.5,-43.19 1011.5,-49.19 1011.5,-49.19 1011.5,-94.19 1011.5,-94.19 1011.5,-100.19 1005.5,-106.19 999.5,-106.19"/>
<text text-anchor="middle" x="944" y="-93.39" font-family="Helvetica,sans-Serif" font-size="11.00" fill="white">AI / MCP Clients</text>
<text text-anchor="middle" x="944" y="-81.39" font-family="Helvetica,sans-Serif" font-size="11.00" fill="white">[External System]</text>
<text text-anchor="middle" x="944" y="-56.39" font-family="Helvetica,sans-Serif" font-size="11.00" fill="white">Claude, Copilot</text>
<text text-anchor="middle" x="944" y="-44.39" font-family="Helvetica,sans-Serif" font-size="11.00" fill="white">AI&#45;assisted workflows</text>
</g>
<!-- Meridian&#45;&gt;AI_TOOLS -->
<g id="edge22" class="edge">
<title>Meridian&#45;&gt;AI_TOOLS</title>
<path fill="none" stroke="#805ad5" d="M987.75,-212.3C987.75,-212.3 987.75,-116.38 987.75,-116.38"/>
<polygon fill="#805ad5" stroke="#805ad5" points="991.25,-116.38 987.75,-106.38 984.25,-116.38 991.25,-116.38"/>
<text text-anchor="middle" x="1014.5" y="-182.18" font-family="Helvetica,sans-Serif" font-size="9.00">MCP Server</text>
<text text-anchor="middle" x="1014.5" y="-172.18" font-family="Helvetica,sans-Serif" font-size="9.00">AI tooling API</text>
</g>
<!-- DISK -->
<g id="node21" class="node">
<title>DISK</title>
<path fill="#e53e3e" stroke="black" d="M1392,-110.45C1392,-115.2 1348.52,-119.06 1295,-119.06 1241.48,-119.06 1198,-115.2 1198,-110.45 1198,-110.45 1198,-32.93 1198,-32.93 1198,-28.17 1241.48,-24.31 1295,-24.31 1348.52,-24.31 1392,-28.17 1392,-32.93 1392,-32.93 1392,-110.45 1392,-110.45"/>
<path fill="none" stroke="black" d="M1392,-110.45C1392,-105.7 1348.52,-101.84 1295,-101.84 1241.48,-101.84 1198,-105.7 1198,-110.45"/>
<text text-anchor="middle" x="1295" y="-93.39" font-family="Helvetica,sans-Serif" font-size="11.00" fill="white">File Storage</text>
<text text-anchor="middle" x="1295" y="-81.39" font-family="Helvetica,sans-Serif" font-size="11.00" fill="white">[Infrastructure]</text>
<text text-anchor="middle" x="1295" y="-56.39" font-family="Helvetica,sans-Serif" font-size="11.00" fill="white">JSONL (Hot) + Parquet (Archive)</text>
<text text-anchor="middle" x="1295" y="-44.39" font-family="Helvetica,sans-Serif" font-size="11.00" fill="white">Local/Cloud/S3</text>
</g>
<!-- Meridian&#45;&gt;DISK -->
<g id="edge17" class="edge">
<title>Meridian&#45;&gt;DISK</title>
<path fill="none" stroke="#c53030" d="M1216,-212.3C1216,-212.3 1216,-127.01 1216,-127.01"/>
<polygon fill="#c53030" stroke="#c53030" points="1219.5,-127.01 1216,-117.01 1212.5,-127.01 1219.5,-127.01"/>
<text text-anchor="middle" x="1290.5" y="-182.18" font-family="Helvetica,sans-Serif" font-size="9.00">Persists events</text>
<text text-anchor="middle" x="1290.5" y="-172.18" font-family="Helvetica,sans-Serif" font-size="9.00">WAL + JSONL</text>
</g>
<!-- PGSQL -->
<g id="node22" class="node">
<title>PGSQL</title>
<path fill="#e53e3e" stroke="black" d="M1545.5,-117.4C1545.5,-123.01 1515.25,-127.56 1478,-127.56 1440.75,-127.56 1410.5,-123.01 1410.5,-117.4 1410.5,-117.4 1410.5,-25.97 1410.5,-25.97 1410.5,-20.37 1440.75,-15.81 1478,-15.81 1515.25,-15.81 1545.5,-20.37 1545.5,-25.97 1545.5,-25.97 1545.5,-117.4 1545.5,-117.4"/>
<path fill="none" stroke="black" d="M1545.5,-117.4C1545.5,-111.8 1515.25,-107.24 1478,-107.24 1440.75,-107.24 1410.5,-111.8 1410.5,-117.4"/>
<text text-anchor="middle" x="1478" y="-99.39" font-family="Helvetica,sans-Serif" font-size="11.00" fill="white">PostgreSQL</text>
<text text-anchor="middle" x="1478" y="-87.39" font-family="Helvetica,sans-Serif" font-size="11.00" fill="white">[Infrastructure]</text>
<text text-anchor="middle" x="1478" y="-62.39" font-family="Helvetica,sans-Serif" font-size="11.00" fill="white">Security Master</text>
<text text-anchor="middle" x="1478" y="-50.39" font-family="Helvetica,sans-Serif" font-size="11.00" fill="white">Direct Lending</text>
<text text-anchor="middle" x="1478" y="-38.39" font-family="Helvetica,sans-Serif" font-size="11.00" fill="white">Time&#45;Series Analytics</text>
</g>
<!-- Meridian&#45;&gt;PGSQL -->
<g id="edge18" class="edge">
<title>Meridian&#45;&gt;PGSQL</title>
<path fill="none" stroke="#c53030" d="M1234,-212.1C1234,-169.27 1234,-123 1234,-123 1234,-123 1400.36,-123 1400.36,-123"/>
<polygon fill="#c53030" stroke="#c53030" points="1400.36,-126.5 1410.36,-123 1400.36,-119.5 1400.36,-126.5"/>
<text text-anchor="middle" x="1447.5" y="-187.18" font-family="Helvetica,sans-Serif" font-size="9.00">Security Master</text>
<text text-anchor="middle" x="1447.5" y="-177.18" font-family="Helvetica,sans-Serif" font-size="9.00">Direct Lending</text>
<text text-anchor="middle" x="1447.5" y="-167.18" font-family="Helvetica,sans-Serif" font-size="9.00">persistence</text>
</g>
<!-- Meridian&#45;&gt;PROM -->
<g id="edge23" class="edge">
<title>Meridian&#45;&gt;PROM</title>
<path fill="none" stroke="#c53030" d="M1131.83,-212.3C1131.83,-212.3 1131.83,-116.38 1131.83,-116.38"/>
<polygon fill="#c53030" stroke="#c53030" points="1135.33,-116.38 1131.83,-106.38 1128.33,-116.38 1135.33,-116.38"/>
<text text-anchor="middle" x="1152" y="-182.18" font-family="Helvetica,sans-Serif" font-size="9.00">Exposes /metrics</text>
<text text-anchor="middle" x="1152" y="-172.18" font-family="Helvetica,sans-Serif" font-size="9.00">Prometheus format</text>
</g>
<!-- MQ -->
<g id="node24" class="node">
<title>MQ</title>
<path fill="#e53e3e" stroke="black" d="M1676,-106.19C1676,-106.19 1576,-106.19 1576,-106.19 1570,-106.19 1564,-100.19 1564,-94.19 1564,-94.19 1564,-49.19 1564,-49.19 1564,-43.19 1570,-37.19 1576,-37.19 1576,-37.19 1676,-37.19 1676,-37.19 1682,-37.19 1688,-43.19 1688,-49.19 1688,-49.19 1688,-94.19 1688,-94.19 1688,-100.19 1682,-106.19 1676,-106.19"/>
<text text-anchor="middle" x="1626" y="-93.39" font-family="Helvetica,sans-Serif" font-size="11.00" fill="white">RabbitMQ/Azure SB</text>
<text text-anchor="middle" x="1626" y="-81.39" font-family="Helvetica,sans-Serif" font-size="11.00" fill="white">[Infrastructure]</text>
<text text-anchor="middle" x="1626" y="-56.39" font-family="Helvetica,sans-Serif" font-size="11.00" fill="white">Message Bus</text>
<text text-anchor="middle" x="1626" y="-44.39" font-family="Helvetica,sans-Serif" font-size="11.00" fill="white">Distributed Events</text>
</g>
<!-- Meridian&#45;&gt;MQ -->
<g id="edge19" class="edge">
<title>Meridian&#45;&gt;MQ</title>
<path fill="none" stroke="#c53030" d="M1252.2,-230C1387.68,-230 1569.75,-230 1569.75,-230 1569.75,-230 1569.75,-116.43 1569.75,-116.43"/>
<polygon fill="#c53030" stroke="#c53030" points="1573.25,-116.43 1569.75,-106.43 1566.25,-116.43 1573.25,-116.43"/>
<text text-anchor="middle" x="1608.5" y="-182.18" font-family="Helvetica,sans-Serif" font-size="9.00">Publishes</text>
<text text-anchor="middle" x="1608.5" y="-172.18" font-family="Helvetica,sans-Serif" font-size="9.00">MassTransit events</text>
</g>
<!-- IB -->
<g id="node5" class="node">
<title>IB</title>
<path fill="#4a90d9" stroke="black" d="M943.5,-502.15C943.5,-502.15 810.5,-502.15 810.5,-502.15 804.5,-502.15 798.5,-496.15 798.5,-490.15 798.5,-490.15 798.5,-445.15 798.5,-445.15 798.5,-439.15 804.5,-433.15 810.5,-433.15 810.5,-433.15 943.5,-433.15 943.5,-433.15 949.5,-433.15 955.5,-439.15 955.5,-445.15 955.5,-445.15 955.5,-490.15 955.5,-490.15 955.5,-496.15 949.5,-502.15 943.5,-502.15"/>
<text text-anchor="middle" x="877" y="-489.35" font-family="Helvetica,sans-Serif" font-size="11.00" fill="white">Interactive Brokers</text>
<text text-anchor="middle" x="877" y="-477.35" font-family="Helvetica,sans-Serif" font-size="11.00" fill="white">[External System]</text>
<text text-anchor="middle" x="877" y="-452.35" font-family="Helvetica,sans-Serif" font-size="11.00" fill="white">TWS/Gateway API</text>
<text text-anchor="middle" x="877" y="-440.35" font-family="Helvetica,sans-Serif" font-size="11.00" fill="white">Trades, Quotes, L2 Depth</text>
</g>
<!-- IB&#45;&gt;Meridian -->
<g id="edge4" class="edge">
<title>IB&#45;&gt;Meridian</title>
<path fill="none" stroke="#2b6cb0" d="M955.62,-467C964.63,-467 970.67,-467 970.67,-467 970.67,-467 970.67,-364.63 970.67,-364.63"/>
<polygon fill="#2b6cb0" stroke="#2b6cb0" points="974.17,-364.63 970.67,-354.63 967.17,-364.63 974.17,-364.63"/>
<text text-anchor="middle" x="1047.5" y="-385.18" font-family="Helvetica,sans-Serif" font-size="9.00">WebSocket</text>
<text text-anchor="middle" x="1047.5" y="-375.18" font-family="Helvetica,sans-Serif" font-size="9.00">L1/L2 streaming</text>
</g>
<!-- ALP -->
<g id="node6" class="node">
<title>ALP</title>
<path fill="#4a90d9" stroke="black" d="M1084,-502.15C1084,-502.15 986,-502.15 986,-502.15 980,-502.15 974,-496.15 974,-490.15 974,-490.15 974,-445.15 974,-445.15 974,-439.15 980,-433.15 986,-433.15 986,-433.15 1084,-433.15 1084,-433.15 1090,-433.15 1096,-439.15 1096,-445.15 1096,-445.15 1096,-490.15 1096,-490.15 1096,-496.15 1090,-502.15 1084,-502.15"/>
<text text-anchor="middle" x="1035" y="-489.35" font-family="Helvetica,sans-Serif" font-size="11.00" fill="white">Alpaca Markets</text>
<text text-anchor="middle" x="1035" y="-477.35" font-family="Helvetica,sans-Serif" font-size="11.00" fill="white">[External System]</text>
<text text-anchor="middle" x="1035" y="-452.35" font-family="Helvetica,sans-Serif" font-size="11.00" fill="white">WebSocket + REST</text>
<text text-anchor="middle" x="1035" y="-440.35" font-family="Helvetica,sans-Serif" font-size="11.00" fill="white">IEX/SIP Feeds</text>
</g>
<!-- ALP&#45;&gt;Meridian -->
<g id="edge5" class="edge">
<title>ALP&#45;&gt;Meridian</title>
<path fill="none" stroke="#2b6cb0" d="M1035,-432.99C1035,-432.99 1035,-364.51 1035,-364.51"/>
<polygon fill="#2b6cb0" stroke="#2b6cb0" points="1038.5,-364.51 1035,-354.51 1031.5,-364.51 1038.5,-364.51"/>
<text text-anchor="middle" x="1133.5" y="-385.18" font-family="Helvetica,sans-Serif" font-size="9.00">WebSocket</text>
<text text-anchor="middle" x="1133.5" y="-375.18" font-family="Helvetica,sans-Serif" font-size="9.00">real&#45;time</text>
</g>
<!-- NYSE -->
<g id="node7" class="node">
<title>NYSE</title>
<path fill="#4a90d9" stroke="black" d="M1238,-502.15C1238,-502.15 1126,-502.15 1126,-502.15 1120,-502.15 1114,-496.15 1114,-490.15 1114,-490.15 1114,-445.15 1114,-445.15 1114,-439.15 1120,-433.15 1126,-433.15 1126,-433.15 1238,-433.15 1238,-433.15 1244,-433.15 1250,-439.15 1250,-445.15 1250,-445.15 1250,-490.15 1250,-490.15 1250,-496.15 1244,-502.15 1238,-502.15"/>
<text text-anchor="middle" x="1182" y="-489.35" font-family="Helvetica,sans-Serif" font-size="11.00" fill="white">NYSE Direct</text>
<text text-anchor="middle" x="1182" y="-477.35" font-family="Helvetica,sans-Serif" font-size="11.00" fill="white">[External System]</text>
<text text-anchor="middle" x="1182" y="-452.35" font-family="Helvetica,sans-Serif" font-size="11.00" fill="white">Exchange&#45;Direct Feed</text>
<text text-anchor="middle" x="1182" y="-440.35" font-family="Helvetica,sans-Serif" font-size="11.00" fill="white">US Equities</text>
</g>
<!-- NYSE&#45;&gt;Meridian -->
<g id="edge6" class="edge">
<title>NYSE&#45;&gt;Meridian</title>
<path fill="none" stroke="#2b6cb0" d="M1182,-432.99C1182,-432.99 1182,-364.51 1182,-364.51"/>
<polygon fill="#2b6cb0" stroke="#2b6cb0" points="1185.5,-364.51 1182,-354.51 1178.5,-364.51 1185.5,-364.51"/>
<text text-anchor="middle" x="1216" y="-385.18" font-family="Helvetica,sans-Serif" font-size="9.00">Exchange feed</text>
<text text-anchor="middle" x="1216" y="-375.18" font-family="Helvetica,sans-Serif" font-size="9.00">US equities</text>
</g>
<!-- POL_STREAM -->
<g id="node8" class="node">
<title>POL_STREAM</title>
<path fill="#4a90d9" stroke="black" d="M1393.5,-502.15C1393.5,-502.15 1280.5,-502.15 1280.5,-502.15 1274.5,-502.15 1268.5,-496.15 1268.5,-490.15 1268.5,-490.15 1268.5,-445.15 1268.5,-445.15 1268.5,-439.15 1274.5,-433.15 1280.5,-433.15 1280.5,-433.15 1393.5,-433.15 1393.5,-433.15 1399.5,-433.15 1405.5,-439.15 1405.5,-445.15 1405.5,-445.15 1405.5,-490.15 1405.5,-490.15 1405.5,-496.15 1399.5,-502.15 1393.5,-502.15"/>
<text text-anchor="middle" x="1337" y="-489.35" font-family="Helvetica,sans-Serif" font-size="11.00" fill="white">Polygon.io</text>
<text text-anchor="middle" x="1337" y="-477.35" font-family="Helvetica,sans-Serif" font-size="11.00" fill="white">[External System]</text>
<text text-anchor="middle" x="1337" y="-452.35" font-family="Helvetica,sans-Serif" font-size="11.00" fill="white">WebSocket Streaming</text>
<text text-anchor="middle" x="1337" y="-440.35" font-family="Helvetica,sans-Serif" font-size="11.00" fill="white">Trades, Quotes</text>
</g>
<!-- POL_STREAM&#45;&gt;Meridian -->
<g id="edge7" class="edge">
<title>POL_STREAM&#45;&gt;Meridian</title>
<path fill="none" stroke="#2b6cb0" d="M1330.25,-433.06C1330.25,-394.06 1330.25,-336 1330.25,-336 1330.25,-336 1262.21,-336 1262.21,-336"/>
<polygon fill="#2b6cb0" stroke="#2b6cb0" points="1262.21,-332.5 1252.21,-336 1262.21,-339.5 1262.21,-332.5"/>
<text text-anchor="middle" x="1330.5" y="-385.18" font-family="Helvetica,sans-Serif" font-size="9.00">WebSocket</text>
<text text-anchor="middle" x="1330.5" y="-375.18" font-family="Helvetica,sans-Serif" font-size="9.00">streaming</text>
</g>
<!-- SS -->
<g id="node9" class="node">
<title>SS</title>
<path fill="#4a90d9" stroke="black" d="M768.5,-502.15C768.5,-502.15 645.5,-502.15 645.5,-502.15 639.5,-502.15 633.5,-496.15 633.5,-490.15 633.5,-490.15 633.5,-445.15 633.5,-445.15 633.5,-439.15 639.5,-433.15 645.5,-433.15 645.5,-433.15 768.5,-433.15 768.5,-433.15 774.5,-433.15 780.5,-439.15 780.5,-445.15 780.5,-445.15 780.5,-490.15 780.5,-490.15 780.5,-496.15 774.5,-502.15 768.5,-502.15"/>
<text text-anchor="middle" x="707" y="-489.35" font-family="Helvetica,sans-Serif" font-size="11.00" fill="white">StockSharp</text>
<text text-anchor="middle" x="707" y="-477.35" font-family="Helvetica,sans-Serif" font-size="11.00" fill="white">[External System]</text>
<text text-anchor="middle" x="707" y="-452.35" font-family="Helvetica,sans-Serif" font-size="11.00" fill="white">Multi&#45;Exchange Adapter</text>
<text text-anchor="middle" x="707" y="-440.35" font-family="Helvetica,sans-Serif" font-size="11.00" fill="white">90+ Global Sources</text>
</g>
<!-- SS&#45;&gt;Meridian -->
<g id="edge8" class="edge">
<title>SS&#45;&gt;Meridian</title>
<path fill="none" stroke="#2b6cb0" d="M759.25,-433.06C759.25,-394.06 759.25,-336 759.25,-336 759.25,-336 953.88,-336 953.88,-336"/>
<polygon fill="#2b6cb0" stroke="#2b6cb0" points="953.88,-339.5 963.88,-336 953.88,-332.5 953.88,-339.5"/>
<text text-anchor="middle" x="952" y="-385.18" font-family="Helvetica,sans-Serif" font-size="9.00">Multi&#45;exchange</text>
<text text-anchor="middle" x="952" y="-375.18" font-family="Helvetica,sans-Serif" font-size="9.00">adapter</text>
</g>
<!-- YF -->
<g id="node10" class="node">
<title>YF</title>
<path fill="#38a169" stroke="black" d="M1724.5,-502.15C1724.5,-502.15 1605.5,-502.15 1605.5,-502.15 1599.5,-502.15 1593.5,-496.15 1593.5,-490.15 1593.5,-490.15 1593.5,-445.15 1593.5,-445.15 1593.5,-439.15 1599.5,-433.15 1605.5,-433.15 1605.5,-433.15 1724.5,-433.15 1724.5,-433.15 1730.5,-433.15 1736.5,-439.15 1736.5,-445.15 1736.5,-445.15 1736.5,-490.15 1736.5,-490.15 1736.5,-496.15 1730.5,-502.15 1724.5,-502.15"/>
<text text-anchor="middle" x="1665" y="-489.35" font-family="Helvetica,sans-Serif" font-size="11.00" fill="white">Yahoo Finance</text>
<text text-anchor="middle" x="1665" y="-477.35" font-family="Helvetica,sans-Serif" font-size="11.00" fill="white">[External System]</text>
<text text-anchor="middle" x="1665" y="-452.35" font-family="Helvetica,sans-Serif" font-size="11.00" fill="white">50K+ Global Securities</text>
<text text-anchor="middle" x="1665" y="-440.35" font-family="Helvetica,sans-Serif" font-size="11.00" fill="white">Free OHLCV</text>
</g>
<!-- YF&#45;&gt;Meridian -->
<g id="edge9" class="edge">
<title>YF&#45;&gt;Meridian</title>
<path fill="none" stroke="#2c7a7b" d="M1640.75,-433.12C1640.75,-384.31 1640.75,-301 1640.75,-301 1640.75,-301 1262.17,-301 1262.17,-301"/>
<polygon fill="#2c7a7b" stroke="#2c7a7b" points="1262.17,-297.5 1252.17,-301 1262.17,-304.5 1262.17,-297.5"/>
<text text-anchor="middle" x="1618" y="-385.18" font-family="Helvetica,sans-Serif" font-size="9.00">REST</text>
<text text-anchor="middle" x="1618" y="-375.18" font-family="Helvetica,sans-Serif" font-size="9.00">historical bars</text>
</g>
<!-- TI -->
<g id="node11" class="node">
<title>TI</title>
<path fill="#38a169" stroke="black" d="M1859,-502.15C1859,-502.15 1767,-502.15 1767,-502.15 1761,-502.15 1755,-496.15 1755,-490.15 1755,-490.15 1755,-445.15 1755,-445.15 1755,-439.15 1761,-433.15 1767,-433.15 1767,-433.15 1859,-433.15 1859,-433.15 1865,-433.15 1871,-439.15 1871,-445.15 1871,-445.15 1871,-490.15 1871,-490.15 1871,-496.15 1865,-502.15 1859,-502.15"/>
<text text-anchor="middle" x="1813" y="-489.35" font-family="Helvetica,sans-Serif" font-size="11.00" fill="white">Tiingo</text>
<text text-anchor="middle" x="1813" y="-477.35" font-family="Helvetica,sans-Serif" font-size="11.00" fill="white">[External System]</text>
<text text-anchor="middle" x="1813" y="-452.35" font-family="Helvetica,sans-Serif" font-size="11.00" fill="white">Dividend&#45;Adjusted</text>
<text text-anchor="middle" x="1813" y="-440.35" font-family="Helvetica,sans-Serif" font-size="11.00" fill="white">Fundamentals</text>
</g>
<!-- TI&#45;&gt;Meridian -->
<g id="edge10" class="edge">
<title>TI&#45;&gt;Meridian</title>
<path fill="none" stroke="#2c7a7b" d="M1813,-432.92C1813,-379.43 1813,-283 1813,-283 1813,-283 1262.37,-283 1262.37,-283"/>
<polygon fill="#2c7a7b" stroke="#2c7a7b" points="1262.37,-279.5 1252.37,-283 1262.37,-286.5 1262.37,-279.5"/>
<text text-anchor="middle" x="1774.5" y="-385.18" font-family="Helvetica,sans-Serif" font-size="9.00">REST</text>
<text text-anchor="middle" x="1774.5" y="-375.18" font-family="Helvetica,sans-Serif" font-size="9.00">adjusted data</text>
</g>
<!-- FH -->
<g id="node12" class="node">
<title>FH</title>
<path fill="#38a169" stroke="black" d="M1993,-502.15C1993,-502.15 1901,-502.15 1901,-502.15 1895,-502.15 1889,-496.15 1889,-490.15 1889,-490.15 1889,-445.15 1889,-445.15 1889,-439.15 1895,-433.15 1901,-433.15 1901,-433.15 1993,-433.15 1993,-433.15 1999,-433.15 2005,-439.15 2005,-445.15 2005,-445.15 2005,-490.15 2005,-490.15 2005,-496.15 1999,-502.15 1993,-502.15"/>
<text text-anchor="middle" x="1947" y="-489.35" font-family="Helvetica,sans-Serif" font-size="11.00" fill="white">Finnhub</text>
<text text-anchor="middle" x="1947" y="-477.35" font-family="Helvetica,sans-Serif" font-size="11.00" fill="white">[External System]</text>
<text text-anchor="middle" x="1947" y="-452.35" font-family="Helvetica,sans-Serif" font-size="11.00" fill="white">Historical + News</text>
<text text-anchor="middle" x="1947" y="-440.35" font-family="Helvetica,sans-Serif" font-size="11.00" fill="white">Fundamentals</text>
</g>
<!-- FH&#45;&gt;Meridian -->
<g id="edge11" class="edge">
<title>FH&#45;&gt;Meridian</title>
<path fill="none" stroke="#2c7a7b" d="M1947,-432.81C1947,-374.87 1947,-265 1947,-265 1947,-265 1262.23,-265 1262.23,-265"/>
<polygon fill="#2c7a7b" stroke="#2c7a7b" points="1262.23,-261.5 1252.23,-265 1262.23,-268.5 1262.23,-261.5"/>
<text text-anchor="middle" x="1919.5" y="-385.18" font-family="Helvetica,sans-Serif" font-size="9.00">REST</text>
<text text-anchor="middle" x="1919.5" y="-375.18" font-family="Helvetica,sans-Serif" font-size="9.00">fundamentals</text>
</g>
<!-- POL -->
<g id="node13" class="node">
<title>POL</title>
<path fill="#38a169" stroke="black" d="M2127,-502.15C2127,-502.15 2035,-502.15 2035,-502.15 2029,-502.15 2023,-496.15 2023,-490.15 2023,-490.15 2023,-445.15 2023,-445.15 2023,-439.15 2029,-433.15 2035,-433.15 2035,-433.15 2127,-433.15 2127,-433.15 2133,-433.15 2139,-439.15 2139,-445.15 2139,-445.15 2139,-490.15 2139,-490.15 2139,-496.15 2133,-502.15 2127,-502.15"/>
<text text-anchor="middle" x="2081" y="-489.35" font-family="Helvetica,sans-Serif" font-size="11.00" fill="white">Polygon.io</text>
<text text-anchor="middle" x="2081" y="-477.35" font-family="Helvetica,sans-Serif" font-size="11.00" fill="white">[External System]</text>
<text text-anchor="middle" x="2081" y="-452.35" font-family="Helvetica,sans-Serif" font-size="11.00" fill="white">Historical Bars</text>
<text text-anchor="middle" x="2081" y="-440.35" font-family="Helvetica,sans-Serif" font-size="11.00" fill="white">Minute/Day</text>
</g>
<!-- POL&#45;&gt;Meridian -->
<g id="edge12" class="edge">
<title>POL&#45;&gt;Meridian</title>
<path fill="none" stroke="#2c7a7b" d="M2081,-432.69C2081,-370.47 2081,-247 2081,-247 2081,-247 1262.09,-247 1262.09,-247"/>
<polygon fill="#2c7a7b" stroke="#2c7a7b" points="1262.09,-243.5 1252.09,-247 1262.09,-250.5 1262.09,-243.5"/>
<text text-anchor="middle" x="2047.5" y="-385.18" font-family="Helvetica,sans-Serif" font-size="9.00">REST</text>
<text text-anchor="middle" x="2047.5" y="-375.18" font-family="Helvetica,sans-Serif" font-size="9.00">historical</text>
</g>
<!-- STOOQ -->
<g id="node14" class="node">
<title>STOOQ</title>
<path fill="#38a169" stroke="black" d="M1563.5,-508.15C1563.5,-508.15 1442.5,-508.15 1442.5,-508.15 1436.5,-508.15 1430.5,-502.15 1430.5,-496.15 1430.5,-496.15 1430.5,-439.15 1430.5,-439.15 1430.5,-433.15 1436.5,-427.15 1442.5,-427.15 1442.5,-427.15 1563.5,-427.15 1563.5,-427.15 1569.5,-427.15 1575.5,-433.15 1575.5,-439.15 1575.5,-439.15 1575.5,-496.15 1575.5,-496.15 1575.5,-502.15 1569.5,-508.15 1563.5,-508.15"/>
<text text-anchor="middle" x="1503" y="-495.35" font-family="Helvetica,sans-Serif" font-size="11.00" fill="white">Stooq + Others</text>
<text text-anchor="middle" x="1503" y="-483.35" font-family="Helvetica,sans-Serif" font-size="11.00" fill="white">[External System]</text>
<text text-anchor="middle" x="1503" y="-458.35" font-family="Helvetica,sans-Serif" font-size="11.00" fill="white">Nasdaq, Alpha Vantage</text>
<text text-anchor="middle" x="1503" y="-446.35" font-family="Helvetica,sans-Serif" font-size="11.00" fill="white">Twelve Data, FRED</text>
<text text-anchor="middle" x="1503" y="-434.35" font-family="Helvetica,sans-Serif" font-size="11.00" fill="white">IB, StockSharp</text>
</g>
<!-- STOOQ&#45;&gt;Meridian -->
<g id="edge13" class="edge">
<title>STOOQ&#45;&gt;Meridian</title>
<path fill="none" stroke="#2c7a7b" d="M1488,-426.76C1488,-382.45 1488,-318 1488,-318 1488,-318 1262.2,-318 1262.2,-318"/>
<polygon fill="#2c7a7b" stroke="#2c7a7b" points="1262.2,-314.5 1252.2,-318 1262.2,-321.5 1262.2,-314.5"/>
<text text-anchor="middle" x="1462.5" y="-385.18" font-family="Helvetica,sans-Serif" font-size="9.00">REST</text>
<text text-anchor="middle" x="1462.5" y="-375.18" font-family="Helvetica,sans-Serif" font-size="9.00">EOD data</text>
</g>
<!-- L1 -->
<g id="node25" class="node">
<title>L1</title>
<ellipse fill="#08427b" stroke="black" cx="2968" cy="-467.65" rx="31.74" ry="18"/>
<text text-anchor="middle" x="2968" y="-464.85" font-family="Helvetica,sans-Serif" font-size="11.00" fill="white">Person</text>
</g>
<!-- L2 -->
<g id="node26" class="node">
<title>L2</title>
<path fill="#438dd5" stroke="black" d="M2906,-485.65C2906,-485.65 2872,-485.65 2872,-485.65 2866,-485.65 2860,-479.65 2860,-473.65 2860,-473.65 2860,-461.65 2860,-461.65 2860,-455.65 2866,-449.65 2872,-449.65 2872,-449.65 2906,-449.65 2906,-449.65 2912,-449.65 2918,-455.65 2918,-461.65 2918,-461.65 2918,-473.65 2918,-473.65 2918,-479.65 2912,-485.65 2906,-485.65"/>
<text text-anchor="middle" x="2889" y="-464.85" font-family="Helvetica,sans-Serif" font-size="11.00" fill="white">System</text>
</g>
<!-- L3 -->
<g id="node27" class="node">
<title>L3</title>
<path fill="#4a90d9" stroke="black" d="M2830,-485.65C2830,-485.65 2732,-485.65 2732,-485.65 2726,-485.65 2720,-479.65 2720,-473.65 2720,-473.65 2720,-461.65 2720,-461.65 2720,-455.65 2726,-449.65 2732,-449.65 2732,-449.65 2830,-449.65 2830,-449.65 2836,-449.65 2842,-455.65 2842,-461.65 2842,-461.65 2842,-473.65 2842,-473.65 2842,-479.65 2836,-485.65 2830,-485.65"/>
<text text-anchor="middle" x="2781" y="-464.85" font-family="Helvetica,sans-Serif" font-size="11.00" fill="white">Streaming Provider</text>
</g>
<!-- L4 -->
<g id="node28" class="node">
<title>L4</title>
<path fill="#38a169" stroke="black" d="M2690,-485.65C2690,-485.65 2596,-485.65 2596,-485.65 2590,-485.65 2584,-479.65 2584,-473.65 2584,-473.65 2584,-461.65 2584,-461.65 2584,-455.65 2590,-449.65 2596,-449.65 2596,-449.65 2690,-449.65 2690,-449.65 2696,-449.65 2702,-455.65 2702,-461.65 2702,-461.65 2702,-473.65 2702,-473.65 2702,-479.65 2696,-485.65 2690,-485.65"/>
<text text-anchor="middle" x="2643" y="-464.85" font-family="Helvetica,sans-Serif" font-size="11.00" fill="white">Historical Provider</text>
</g>
<!-- L5 -->
<g id="node29" class="node">
<title>L5</title>
<path fill="#d69e2e" stroke="black" d="M2553.5,-485.65C2553.5,-485.65 2452.5,-485.65 2452.5,-485.65 2446.5,-485.65 2440.5,-479.65 2440.5,-473.65 2440.5,-473.65 2440.5,-461.65 2440.5,-461.65 2440.5,-455.65 2446.5,-449.65 2452.5,-449.65 2452.5,-449.65 2553.5,-449.65 2553.5,-449.65 2559.5,-449.65 2565.5,-455.65 2565.5,-461.65 2565.5,-461.65 2565.5,-473.65 2565.5,-473.65 2565.5,-479.65 2559.5,-485.65 2553.5,-485.65"/>
<text text-anchor="middle" x="2503" y="-464.85" font-family="Helvetica,sans-Serif" font-size="11.00" fill="white">Brokerage Gateway</text>
</g>
<!-- L6 -->
<g id="node30" class="node">
<title>L6</title>
<path fill="#805ad5" stroke="black" d="M2411,-485.65C2411,-485.65 2285,-485.65 2285,-485.65 2279,-485.65 2273,-479.65 2273,-473.65 2273,-473.65 2273,-461.65 2273,-461.65 2273,-455.65 2279,-449.65 2285,-449.65 2285,-449.65 2411,-449.65 2411,-449.65 2417,-449.65 2423,-455.65 2423,-461.65 2423,-461.65 2423,-473.65 2423,-473.65 2423,-479.65 2417,-485.65 2411,-485.65"/>
<text text-anchor="middle" x="2348" y="-464.85" font-family="Helvetica,sans-Serif" font-size="11.00" fill="white">Downstream/Integration</text>
</g>
<!-- L7 -->
<g id="node31" class="node">
<title>L7</title>
<path fill="#e53e3e" stroke="black" d="M2255,-482.38C2255,-484.18 2234.38,-485.65 2209,-485.65 2183.62,-485.65 2163,-484.18 2163,-482.38 2163,-482.38 2163,-452.92 2163,-452.92 2163,-451.12 2183.62,-449.65 2209,-449.65 2234.38,-449.65 2255,-451.12 2255,-452.92 2255,-452.92 2255,-482.38 2255,-482.38"/>
<path fill="none" stroke="black" d="M2255,-482.38C2255,-480.57 2234.38,-479.11 2209,-479.11 2183.62,-479.11 2163,-480.57 2163,-482.38"/>
<text text-anchor="middle" x="2209" y="-464.85" font-family="Helvetica,sans-Serif" font-size="11.00" fill="white">Infrastructure</text>
</g>
</g>
</svg>
