<?xml version="1.0" encoding="UTF-8" standalone="no"?>
<!DOCTYPE svg PUBLIC "-//W3C//DTD SVG 1.1//EN"
 "http://www.w3.org/Graphics/SVG/1.1/DTD/svg11.dtd">
<!-- Generated by graphviz version 2.43.0 (0)
 -->
<!-- Title: C4_Context Pages: 1 -->
<svg width="2930pt" height="617pt"
 viewBox="0.00 0.00 2930.00 617.43" xmlns="http://www.w3.org/2000/svg" xmlns:xlink="http://www.w3.org/1999/xlink">
<g id="graph0" class="graph" transform="scale(1 1) rotate(0) translate(36 581.43)">
<title>C4_Context</title>
<polygon fill="white" stroke="transparent" points="-36,36 -36,-581.43 2894,-581.43 2894,36 -36,36"/>
<text text-anchor="middle" x="1429" y="-531.83" font-family="Helvetica,sans-Serif" font-size="12.00">Meridian &#45; System Context (C4 Level 1)</text>
<text text-anchor="middle" x="1429" y="-518.83" font-family="Helvetica,sans-Serif" font-size="12.00">v1.6.1</text>
<g id="clust1" class="cluster">
<title>cluster_actors</title>
</g>
<g id="clust2" class="cluster">
<title>cluster_streaming</title>
<path fill="#f0f8ff" stroke="#2b6cb0" d="M627,-374.65C627,-374.65 1392,-374.65 1392,-374.65 1398,-374.65 1404,-380.65 1404,-386.65 1404,-386.65 1404,-468.65 1404,-468.65 1404,-474.65 1398,-480.65 1392,-480.65 1392,-480.65 627,-480.65 627,-480.65 621,-480.65 615,-474.65 615,-468.65 615,-468.65 615,-386.65 615,-386.65 615,-380.65 621,-374.65 627,-374.65"/>
<text text-anchor="middle" x="1009.5" y="-467.05" font-family="Helvetica,sans-Serif" font-size="12.00">Real&#45;Time Streaming Providers</text>
</g>
<g id="clust3" class="cluster">
<title>cluster_historical</title>
<path fill="#e6fffa" stroke="#2c7a7b" d="M1424,-374.65C1424,-374.65 2138,-374.65 2138,-374.65 2144,-374.65 2150,-380.65 2150,-386.65 2150,-386.65 2150,-468.65 2150,-468.65 2150,-474.65 2144,-480.65 2138,-480.65 2138,-480.65 1424,-480.65 1424,-480.65 1418,-480.65 1412,-474.65 1412,-468.65 1412,-468.65 1412,-386.65 1412,-386.65 1412,-380.65 1418,-374.65 1424,-374.65"/>
<text text-anchor="middle" x="1781" y="-467.05" font-family="Helvetica,sans-Serif" font-size="12.00">Historical Data Providers (10 Implemented)</text>
</g>
<g id="clust4" class="cluster">
<title>cluster_downstream</title>
<path fill="#faf5ff" stroke="#805ad5" d="M379,-20.94C379,-20.94 847,-20.94 847,-20.94 853,-20.94 859,-26.94 859,-32.94 859,-32.94 859,-114.94 859,-114.94 859,-120.94 853,-126.94 847,-126.94 847,-126.94 379,-126.94 379,-126.94 373,-126.94 367,-120.94 367,-114.94 367,-114.94 367,-32.94 367,-32.94 367,-26.94 373,-20.94 379,-20.94"/>
<text text-anchor="middle" x="613" y="-113.34" font-family="Helvetica,sans-Serif" font-size="12.00">Analysis &amp; Trading Systems</text>
</g>
<g id="clust5" class="cluster">
<title>cluster_infra</title>
<path fill="#fff5f5" stroke="#c53030" d="M879,-8C879,-8 1369,-8 1369,-8 1375,-8 1381,-14 1381,-20 1381,-20 1381,-127.88 1381,-127.88 1381,-133.88 1375,-139.88 1369,-139.88 1369,-139.88 879,-139.88 879,-139.88 873,-139.88 867,-133.88 867,-127.88 867,-127.88 867,-20 867,-20 867,-14 873,-8 879,-8"/>
<text text-anchor="middle" x="1124" y="-126.28" font-family="Helvetica,sans-Serif" font-size="12.00">Infrastructure</text>
</g>
<g id="clust6" class="cluster">
<title>cluster_legend</title>
<path fill="#fafafa" stroke="#666666" d="M2170,-391.15C2170,-391.15 2838,-391.15 2838,-391.15 2844,-391.15 2850,-397.15 2850,-403.15 2850,-403.15 2850,-452.15 2850,-452.15 2850,-458.15 2844,-464.15 2838,-464.15 2838,-464.15 2170,-464.15 2170,-464.15 2164,-464.15 2158,-458.15 2158,-452.15 2158,-452.15 2158,-403.15 2158,-403.15 2158,-397.15 2164,-391.15 2170,-391.15"/>
<text text-anchor="middle" x="2504" y="-450.55" font-family="Helvetica,sans-Serif" font-size="12.00">Legend</text>
</g>
<!-- Operator -->
<g id="node1" class="node">
<title>Operator</title>
<ellipse fill="#08427b" stroke="black" cx="333" cy="-417.15" rx="95.42" ry="57.05"/>
<text text-anchor="middle" x="333" y="-444.85" font-family="Helvetica,sans-Serif" font-size="11.00" fill="white">Operator</text>
<text text-anchor="middle" x="333" y="-432.85" font-family="Helvetica,sans-Serif" font-size="11.00" fill="white">[Person]</text>
<text text-anchor="middle" x="333" y="-407.85" font-family="Helvetica,sans-Serif" font-size="11.00" fill="white">Configures collection,</text>
<text text-anchor="middle" x="333" y="-395.85" font-family="Helvetica,sans-Serif" font-size="11.00" fill="white">monitors health,</text>
<text text-anchor="middle" x="333" y="-383.85" font-family="Helvetica,sans-Serif" font-size="11.00" fill="white">manages backfill</text>
</g>
<!-- Meridian -->
<g id="node4" class="node">
<title>Meridian</title>
<path fill="#438dd5" stroke="black" d="M1239,-303.88C1239,-303.88 975,-303.88 975,-303.88 969,-303.88 963,-297.88 963,-291.88 963,-291.88 963,-197.88 963,-197.88 963,-191.88 969,-185.88 975,-185.88 975,-185.88 1239,-185.88 1239,-185.88 1245,-185.88 1251,-191.88 1251,-197.88 1251,-197.88 1251,-291.88 1251,-291.88 1251,-297.88 1245,-303.88 1239,-303.88"/>
<text text-anchor="middle" x="1107" y="-291.07" font-family="Helvetica,sans-Serif" font-size="11.00" fill="white">Meridian</text>
<text text-anchor="middle" x="1107" y="-279.07" font-family="Helvetica,sans-Serif" font-size="11.00" fill="white">[Software System]</text>
<text text-anchor="middle" x="1107" y="-254.07" font-family="Helvetica,sans-Serif" font-size="11.00" fill="white">.NET 9.0 | C# 13 | F# 8</text>
<text text-anchor="middle" x="1107" y="-229.07" font-family="Helvetica,sans-Serif" font-size="11.00" fill="white">Collects, validates, stores, and exports</text>
<text text-anchor="middle" x="1107" y="-217.07" font-family="Helvetica,sans-Serif" font-size="11.00" fill="white">real&#45;time and historical market data</text>
<text text-anchor="middle" x="1107" y="-205.07" font-family="Helvetica,sans-Serif" font-size="11.00" fill="white">from multiple providers with</text>
<text text-anchor="middle" x="1107" y="-193.07" font-family="Helvetica,sans-Serif" font-size="11.00" fill="white">archival&#45;first persistence</text>
</g>
<!-- Operator&#45;&gt;Meridian -->
<g id="edge1" class="edge">
<title>Operator&#45;&gt;Meridian</title>
<path fill="none" stroke="#4a5568" d="M401.98,-377.41C401.98,-328.83 401.98,-253 401.98,-253 401.98,-253 952.63,-253 952.63,-253"/>
<polygon fill="#4a5568" stroke="#4a5568" points="952.63,-256.5 962.63,-253 952.63,-249.5 952.63,-256.5"/>
<text text-anchor="middle" x="770.5" y="-334.68" font-family="Helvetica,sans-Serif" font-size="9.00">Configures via</text>
<text text-anchor="middle" x="770.5" y="-324.68" font-family="Helvetica,sans-Serif" font-size="9.00">WPF/Web/CLI</text>
</g>
<!-- Quant -->
<g id="node2" class="node">
<title>Quant</title>
<ellipse fill="#08427b" stroke="black" cx="523" cy="-417.15" rx="76.24" ry="57.05"/>
<text text-anchor="middle" x="523" y="-444.85" font-family="Helvetica,sans-Serif" font-size="11.00" fill="white">Quant/Analyst</text>
<text text-anchor="middle" x="523" y="-432.85" font-family="Helvetica,sans-Serif" font-size="11.00" fill="white">[Person]</text>
<text text-anchor="middle" x="523" y="-407.85" font-family="Helvetica,sans-Serif" font-size="11.00" fill="white">Analyzes data,</text>
<text text-anchor="middle" x="523" y="-395.85" font-family="Helvetica,sans-Serif" font-size="11.00" fill="white">runs backtests,</text>
<text text-anchor="middle" x="523" y="-383.85" font-family="Helvetica,sans-Serif" font-size="11.00" fill="white">builds strategies</text>
</g>
<!-- Quant&#45;&gt;Meridian -->
<g id="edge2" class="edge">
<title>Quant&#45;&gt;Meridian</title>
<path fill="none" stroke="#4a5568" d="M568.31,-371C688.22,-371 1004.67,-371 1004.67,-371 1004.67,-371 1004.67,-313.88 1004.67,-313.88"/>
<polygon fill="#4a5568" stroke="#4a5568" points="1008.17,-313.88 1004.67,-303.88 1001.17,-313.88 1008.17,-313.88"/>
<text text-anchor="middle" x="855" y="-334.68" font-family="Helvetica,sans-Serif" font-size="9.00">Exports data</text>
<text text-anchor="middle" x="855" y="-324.68" font-family="Helvetica,sans-Serif" font-size="9.00">for analysis</text>
</g>
<!-- DevOps -->
<g id="node3" class="node">
<title>DevOps</title>
<ellipse fill="#08427b" stroke="black" cx="118" cy="-417.15" rx="101.65" ry="48.58"/>
<text text-anchor="middle" x="118" y="-438.85" font-family="Helvetica,sans-Serif" font-size="11.00" fill="white">DevOps</text>
<text text-anchor="middle" x="118" y="-426.85" font-family="Helvetica,sans-Serif" font-size="11.00" fill="white">[Person]</text>
<text text-anchor="middle" x="118" y="-401.85" font-family="Helvetica,sans-Serif" font-size="11.00" fill="white">Deploys, scales,</text>
<text text-anchor="middle" x="118" y="-389.85" font-family="Helvetica,sans-Serif" font-size="11.00" fill="white">monitors infrastructure</text>
</g>
<!-- PROM -->
<g id="node19" class="node">
<title>PROM</title>
<path fill="#e53e3e" stroke="black" d="M1006.5,-97.94C1006.5,-97.94 887.5,-97.94 887.5,-97.94 881.5,-97.94 875.5,-91.94 875.5,-85.94 875.5,-85.94 875.5,-40.94 875.5,-40.94 875.5,-34.94 881.5,-28.94 887.5,-28.94 887.5,-28.94 1006.5,-28.94 1006.5,-28.94 1012.5,-28.94 1018.5,-34.94 1018.5,-40.94 1018.5,-40.94 1018.5,-85.94 1018.5,-85.94 1018.5,-91.94 1012.5,-97.94 1006.5,-97.94"/>
<text text-anchor="middle" x="947" y="-85.14" font-family="Helvetica,sans-Serif" font-size="11.00" fill="white">Prometheus + Grafana</text>
<text text-anchor="middle" x="947" y="-73.14" font-family="Helvetica,sans-Serif" font-size="11.00" fill="white">[Infrastructure]</text>
<text text-anchor="middle" x="947" y="-48.14" font-family="Helvetica,sans-Serif" font-size="11.00" fill="white">Metrics, Dashboards</text>
<text text-anchor="middle" x="947" y="-36.14" font-family="Helvetica,sans-Serif" font-size="11.00" fill="white">Alerting</text>
</g>
<!-- DevOps&#45;&gt;PROM -->
<g id="edge3" class="edge">
<title>DevOps&#45;&gt;PROM</title>
<path fill="none" stroke="#4a5568" d="M118,-368.29C118,-348.84 118,-331 118,-331 118,-331 898.83,-331 898.83,-331 898.83,-331 898.83,-108.14 898.83,-108.14"/>
<polygon fill="#4a5568" stroke="#4a5568" points="902.33,-108.14 898.83,-98.14 895.33,-108.14 902.33,-108.14"/>
<text text-anchor="middle" x="736.5" y="-247.68" font-family="Helvetica,sans-Serif" font-size="9.00">Monitors</text>
<text text-anchor="middle" x="736.5" y="-237.68" font-family="Helvetica,sans-Serif" font-size="9.00">infrastructure</text>
</g>
<!-- LEAN -->
<g id="node15" class="node">
<title>LEAN</title>
<path fill="#805ad5" stroke="black" d="M526.5,-97.94C526.5,-97.94 387.5,-97.94 387.5,-97.94 381.5,-97.94 375.5,-91.94 375.5,-85.94 375.5,-85.94 375.5,-40.94 375.5,-40.94 375.5,-34.94 381.5,-28.94 387.5,-28.94 387.5,-28.94 526.5,-28.94 526.5,-28.94 532.5,-28.94 538.5,-34.94 538.5,-40.94 538.5,-40.94 538.5,-85.94 538.5,-85.94 538.5,-91.94 532.5,-97.94 526.5,-97.94"/>
<text text-anchor="middle" x="457" y="-85.14" font-family="Helvetica,sans-Serif" font-size="11.00" fill="white">QuantConnect Lean</text>
<text text-anchor="middle" x="457" y="-73.14" font-family="Helvetica,sans-Serif" font-size="11.00" fill="white">[External System]</text>
<text text-anchor="middle" x="457" y="-48.14" font-family="Helvetica,sans-Serif" font-size="11.00" fill="white">Algorithmic Trading Engine</text>
<text text-anchor="middle" x="457" y="-36.14" font-family="Helvetica,sans-Serif" font-size="11.00" fill="white">Backtesting + Live</text>
</g>
<!-- Meridian&#45;&gt;LEAN -->
<g id="edge16" class="edge">
<title>Meridian&#45;&gt;LEAN</title>
<path fill="none" stroke="#805ad5" d="M962.94,-236C781.33,-236 492.57,-236 492.57,-236 492.57,-236 492.57,-107.94 492.57,-107.94"/>
<polygon fill="#805ad5" stroke="#805ad5" points="496.07,-107.94 492.57,-97.94 489.07,-107.94 496.07,-107.94"/>
<text text-anchor="middle" x="525.5" y="-160.68" font-family="Helvetica,sans-Serif" font-size="9.00">Exports Lean</text>
<text text-anchor="middle" x="525.5" y="-150.68" font-family="Helvetica,sans-Serif" font-size="9.00">format data</text>
</g>
<!-- PYTHON -->
<g id="node16" class="node">
<title>PYTHON</title>
<path fill="#805ad5" stroke="black" d="M665,-97.94C665,-97.94 569,-97.94 569,-97.94 563,-97.94 557,-91.94 557,-85.94 557,-85.94 557,-40.94 557,-40.94 557,-34.94 563,-28.94 569,-28.94 569,-28.94 665,-28.94 665,-28.94 671,-28.94 677,-34.94 677,-40.94 677,-40.94 677,-85.94 677,-85.94 677,-91.94 671,-97.94 665,-97.94"/>
<text text-anchor="middle" x="617" y="-85.14" font-family="Helvetica,sans-Serif" font-size="11.00" fill="white">Python/R Analytics</text>
<text text-anchor="middle" x="617" y="-73.14" font-family="Helvetica,sans-Serif" font-size="11.00" fill="white">[External System]</text>
<text text-anchor="middle" x="617" y="-48.14" font-family="Helvetica,sans-Serif" font-size="11.00" fill="white">Pandas, NumPy</text>
<text text-anchor="middle" x="617" y="-36.14" font-family="Helvetica,sans-Serif" font-size="11.00" fill="white">Data Science</text>
</g>
<!-- Meridian&#45;&gt;PYTHON -->
<g id="edge17" class="edge">
<title>Meridian&#45;&gt;PYTHON</title>
<path fill="none" stroke="#805ad5" d="M962.79,-219C828.95,-219 650.25,-219 650.25,-219 650.25,-219 650.25,-107.96 650.25,-107.96"/>
<polygon fill="#805ad5" stroke="#805ad5" points="653.75,-107.96 650.25,-97.96 646.75,-107.96 653.75,-107.96"/>
<text text-anchor="middle" x="653.5" y="-160.68" font-family="Helvetica,sans-Serif" font-size="9.00">Exports Parquet</text>
<text text-anchor="middle" x="653.5" y="-150.68" font-family="Helvetica,sans-Serif" font-size="9.00">CSV, Excel</text>
</g>
<!-- PGSQL -->
<g id="node17" class="node">
<title>PGSQL</title>
<path fill="#805ad5" stroke="black" d="M838.5,-97.94C838.5,-97.94 707.5,-97.94 707.5,-97.94 701.5,-97.94 695.5,-91.94 695.5,-85.94 695.5,-85.94 695.5,-40.94 695.5,-40.94 695.5,-34.94 701.5,-28.94 707.5,-28.94 707.5,-28.94 838.5,-28.94 838.5,-28.94 844.5,-28.94 850.5,-34.94 850.5,-40.94 850.5,-40.94 850.5,-85.94 850.5,-85.94 850.5,-91.94 844.5,-97.94 838.5,-97.94"/>
<text text-anchor="middle" x="773" y="-85.14" font-family="Helvetica,sans-Serif" font-size="11.00" fill="white">PostgreSQL/TimescaleDB</text>
<text text-anchor="middle" x="773" y="-73.14" font-family="Helvetica,sans-Serif" font-size="11.00" fill="white">[External System]</text>
<text text-anchor="middle" x="773" y="-48.14" font-family="Helvetica,sans-Serif" font-size="11.00" fill="white">Time&#45;Series Analytics</text>
<text text-anchor="middle" x="773" y="-36.14" font-family="Helvetica,sans-Serif" font-size="11.00" fill="white">SQL Queries</text>
</g>
<!-- Meridian&#45;&gt;PGSQL -->
<g id="edge18" class="edge">
<title>Meridian&#45;&gt;PGSQL</title>
<path fill="none" stroke="#805ad5" d="M962.83,-202C891.09,-202 819.5,-202 819.5,-202 819.5,-202 819.5,-108.05 819.5,-108.05"/>
<polygon fill="#805ad5" stroke="#805ad5" points="823,-108.05 819.5,-98.05 816,-108.05 823,-108.05"/>
<text text-anchor="middle" x="848" y="-160.68" font-family="Helvetica,sans-Serif" font-size="9.00">Exports CSV</text>
<text text-anchor="middle" x="848" y="-150.68" font-family="Helvetica,sans-Serif" font-size="9.00">with DDL</text>
</g>
<!-- DISK -->
<g id="node18" class="node">
<title>DISK</title>
<path fill="#e53e3e" stroke="black" d="M1231,-102.2C1231,-106.95 1187.52,-110.81 1134,-110.81 1080.48,-110.81 1037,-106.95 1037,-102.2 1037,-102.2 1037,-24.68 1037,-24.68 1037,-19.92 1080.48,-16.06 1134,-16.06 1187.52,-16.06 1231,-19.92 1231,-24.68 1231,-24.68 1231,-102.2 1231,-102.2"/>
<path fill="none" stroke="black" d="M1231,-102.2C1231,-97.45 1187.52,-93.59 1134,-93.59 1080.48,-93.59 1037,-97.45 1037,-102.2"/>
<text text-anchor="middle" x="1134" y="-85.14" font-family="Helvetica,sans-Serif" font-size="11.00" fill="white">Storage</text>
<text text-anchor="middle" x="1134" y="-73.14" font-family="Helvetica,sans-Serif" font-size="11.00" fill="white">[Infrastructure]</text>
<text text-anchor="middle" x="1134" y="-48.14" font-family="Helvetica,sans-Serif" font-size="11.00" fill="white">JSONL (Hot) + Parquet (Archive)</text>
<text text-anchor="middle" x="1134" y="-36.14" font-family="Helvetica,sans-Serif" font-size="11.00" fill="white">Local/Cloud/S3</text>
</g>
<!-- Meridian&#45;&gt;DISK -->
<g id="edge14" class="edge">
<title>Meridian&#45;&gt;DISK</title>
<path fill="none" stroke="#c53030" d="M1134,-185.72C1134,-185.72 1134,-121.04 1134,-121.04"/>
<polygon fill="#c53030" stroke="#c53030" points="1137.5,-121.04 1134,-111.04 1130.5,-121.04 1137.5,-121.04"/>
<text text-anchor="middle" x="1158.5" y="-160.68" font-family="Helvetica,sans-Serif" font-size="9.00">Persists events</text>
<text text-anchor="middle" x="1158.5" y="-150.68" font-family="Helvetica,sans-Serif" font-size="9.00">WAL + JSONL</text>
</g>
<!-- Meridian&#45;&gt;PROM -->
<g id="edge19" class="edge">
<title>Meridian&#45;&gt;PROM</title>
<path fill="none" stroke="#c53030" d="M990.75,-185.72C990.75,-185.72 990.75,-108.17 990.75,-108.17"/>
<polygon fill="#c53030" stroke="#c53030" points="994.25,-108.17 990.75,-98.17 987.25,-108.17 994.25,-108.17"/>
<text text-anchor="middle" x="1011" y="-160.68" font-family="Helvetica,sans-Serif" font-size="9.00">Exposes /metrics</text>
<text text-anchor="middle" x="1011" y="-150.68" font-family="Helvetica,sans-Serif" font-size="9.00">Prometheus format</text>
</g>
<!-- MQ -->
<g id="node20" class="node">
<title>MQ</title>
<path fill="#e53e3e" stroke="black" d="M1361,-97.94C1361,-97.94 1261,-97.94 1261,-97.94 1255,-97.94 1249,-91.94 1249,-85.94 1249,-85.94 1249,-40.94 1249,-40.94 1249,-34.94 1255,-28.94 1261,-28.94 1261,-28.94 1361,-28.94 1361,-28.94 1367,-28.94 1373,-34.94 1373,-40.94 1373,-40.94 1373,-85.94 1373,-85.94 1373,-91.94 1367,-97.94 1361,-97.94"/>
<text text-anchor="middle" x="1311" y="-85.14" font-family="Helvetica,sans-Serif" font-size="11.00" fill="white">RabbitMQ/Azure SB</text>
<text text-anchor="middle" x="1311" y="-73.14" font-family="Helvetica,sans-Serif" font-size="11.00" fill="white">[Infrastructure]</text>
<text text-anchor="middle" x="1311" y="-48.14" font-family="Helvetica,sans-Serif" font-size="11.00" fill="white">Message Bus</text>
<text text-anchor="middle" x="1311" y="-36.14" font-family="Helvetica,sans-Serif" font-size="11.00" fill="white">Distributed Events</text>
</g>
<!-- Meridian&#45;&gt;MQ -->
<g id="edge15" class="edge">
<title>Meridian&#45;&gt;MQ</title>
<path fill="none" stroke="#c53030" d="M1240,-185.83C1240,-132.72 1240,-63 1240,-63 1240,-63 1240.9,-63 1240.9,-63"/>
<polygon fill="#c53030" stroke="#c53030" points="1238.99,-66.5 1248.99,-63 1238.99,-59.5 1238.99,-66.5"/>
<text text-anchor="middle" x="1318.5" y="-160.68" font-family="Helvetica,sans-Serif" font-size="9.00">Publishes</text>
<text text-anchor="middle" x="1318.5" y="-150.68" font-family="Helvetica,sans-Serif" font-size="9.00">MassTransit events</text>
</g>
<!-- IB -->
<g id="node5" class="node">
<title>IB</title>
<path fill="#4a90d9" stroke="black" d="M933.5,-451.65C933.5,-451.65 800.5,-451.65 800.5,-451.65 794.5,-451.65 788.5,-445.65 788.5,-439.65 788.5,-439.65 788.5,-394.65 788.5,-394.65 788.5,-388.65 794.5,-382.65 800.5,-382.65 800.5,-382.65 933.5,-382.65 933.5,-382.65 939.5,-382.65 945.5,-388.65 945.5,-394.65 945.5,-394.65 945.5,-439.65 945.5,-439.65 945.5,-445.65 939.5,-451.65 933.5,-451.65"/>
<text text-anchor="middle" x="867" y="-438.85" font-family="Helvetica,sans-Serif" font-size="11.00" fill="white">Interactive Brokers</text>
<text text-anchor="middle" x="867" y="-426.85" font-family="Helvetica,sans-Serif" font-size="11.00" fill="white">[External System]</text>
<text text-anchor="middle" x="867" y="-401.85" font-family="Helvetica,sans-Serif" font-size="11.00" fill="white">TWS/Gateway API</text>
<text text-anchor="middle" x="867" y="-389.85" font-family="Helvetica,sans-Serif" font-size="11.00" fill="white">Trades, Quotes, L2 Depth</text>
</g>
<!-- IB&#45;&gt;Meridian -->
<g id="edge4" class="edge">
<title>IB&#45;&gt;Meridian</title>
<path fill="none" stroke="#2b6cb0" d="M922.17,-382.61C922.17,-344.06 922.17,-287 922.17,-287 922.17,-287 952.73,-287 952.73,-287"/>
<polygon fill="#2b6cb0" stroke="#2b6cb0" points="952.73,-290.5 962.73,-287 952.73,-283.5 952.73,-290.5"/>
<text text-anchor="middle" x="1037.5" y="-334.68" font-family="Helvetica,sans-Serif" font-size="9.00">WebSocket</text>
<text text-anchor="middle" x="1037.5" y="-324.68" font-family="Helvetica,sans-Serif" font-size="9.00">L1/L2 streaming</text>
</g>
<!-- ALP -->
<g id="node6" class="node">
<title>ALP</title>
<path fill="#4a90d9" stroke="black" d="M1074,-451.65C1074,-451.65 976,-451.65 976,-451.65 970,-451.65 964,-445.65 964,-439.65 964,-439.65 964,-394.65 964,-394.65 964,-388.65 970,-382.65 976,-382.65 976,-382.65 1074,-382.65 1074,-382.65 1080,-382.65 1086,-388.65 1086,-394.65 1086,-394.65 1086,-439.65 1086,-439.65 1086,-445.65 1080,-451.65 1074,-451.65"/>
<text text-anchor="middle" x="1025" y="-438.85" font-family="Helvetica,sans-Serif" font-size="11.00" fill="white">Alpaca Markets</text>
<text text-anchor="middle" x="1025" y="-426.85" font-family="Helvetica,sans-Serif" font-size="11.00" fill="white">[External System]</text>
<text text-anchor="middle" x="1025" y="-401.85" font-family="Helvetica,sans-Serif" font-size="11.00" fill="white">WebSocket + REST</text>
<text text-anchor="middle" x="1025" y="-389.85" font-family="Helvetica,sans-Serif" font-size="11.00" fill="white">IEX/SIP Feeds</text>
</g>
<!-- ALP&#45;&gt;Meridian -->
<g id="edge5" class="edge">
<title>ALP&#45;&gt;Meridian</title>
<path fill="none" stroke="#2b6cb0" d="M1045.33,-382.29C1045.33,-382.29 1045.33,-314.12 1045.33,-314.12"/>
<polygon fill="#2b6cb0" stroke="#2b6cb0" points="1048.83,-314.12 1045.33,-304.12 1041.83,-314.12 1048.83,-314.12"/>
<text text-anchor="middle" x="1123.5" y="-334.68" font-family="Helvetica,sans-Serif" font-size="9.00">WebSocket</text>
<text text-anchor="middle" x="1123.5" y="-324.68" font-family="Helvetica,sans-Serif" font-size="9.00">real&#45;time</text>
</g>
<!-- NYSE -->
<g id="node7" class="node">
<title>NYSE</title>
<path fill="#4a90d9" stroke="black" d="M1228,-451.65C1228,-451.65 1116,-451.65 1116,-451.65 1110,-451.65 1104,-445.65 1104,-439.65 1104,-439.65 1104,-394.65 1104,-394.65 1104,-388.65 1110,-382.65 1116,-382.65 1116,-382.65 1228,-382.65 1228,-382.65 1234,-382.65 1240,-388.65 1240,-394.65 1240,-394.65 1240,-439.65 1240,-439.65 1240,-445.65 1234,-451.65 1228,-451.65"/>
<text text-anchor="middle" x="1172" y="-438.85" font-family="Helvetica,sans-Serif" font-size="11.00" fill="white">NYSE Direct</text>
<text text-anchor="middle" x="1172" y="-426.85" font-family="Helvetica,sans-Serif" font-size="11.00" fill="white">[External System]</text>
<text text-anchor="middle" x="1172" y="-401.85" font-family="Helvetica,sans-Serif" font-size="11.00" fill="white">Exchange&#45;Direct Feed</text>
<text text-anchor="middle" x="1172" y="-389.85" font-family="Helvetica,sans-Serif" font-size="11.00" fill="white">US Equities</text>
</g>
<!-- NYSE&#45;&gt;Meridian -->
<g id="edge6" class="edge">
<title>NYSE&#45;&gt;Meridian</title>
<path fill="none" stroke="#2b6cb0" d="M1172,-382.29C1172,-382.29 1172,-314.12 1172,-314.12"/>
<polygon fill="#2b6cb0" stroke="#2b6cb0" points="1175.5,-314.12 1172,-304.12 1168.5,-314.12 1175.5,-314.12"/>
<text text-anchor="middle" x="1206" y="-334.68" font-family="Helvetica,sans-Serif" font-size="9.00">Exchange feed</text>
<text text-anchor="middle" x="1206" y="-324.68" font-family="Helvetica,sans-Serif" font-size="9.00">US equities</text>
</g>
<!-- POL_STREAM -->
<g id="node8" class="node">
<title>POL_STREAM</title>
<path fill="#4a90d9" stroke="black" d="M1383.5,-451.65C1383.5,-451.65 1270.5,-451.65 1270.5,-451.65 1264.5,-451.65 1258.5,-445.65 1258.5,-439.65 1258.5,-439.65 1258.5,-394.65 1258.5,-394.65 1258.5,-388.65 1264.5,-382.65 1270.5,-382.65 1270.5,-382.65 1383.5,-382.65 1383.5,-382.65 1389.5,-382.65 1395.5,-388.65 1395.5,-394.65 1395.5,-394.65 1395.5,-439.65 1395.5,-439.65 1395.5,-445.65 1389.5,-451.65 1383.5,-451.65"/>
<text text-anchor="middle" x="1327" y="-438.85" font-family="Helvetica,sans-Serif" font-size="11.00" fill="white">Polygon.io</text>
<text text-anchor="middle" x="1327" y="-426.85" font-family="Helvetica,sans-Serif" font-size="11.00" fill="white">[External System]</text>
<text text-anchor="middle" x="1327" y="-401.85" font-family="Helvetica,sans-Serif" font-size="11.00" fill="white">WebSocket Streaming</text>
<text text-anchor="middle" x="1327" y="-389.85" font-family="Helvetica,sans-Serif" font-size="11.00" fill="white">Trades, Quotes</text>
</g>
<!-- POL_STREAM&#45;&gt;Meridian -->
<g id="edge7" class="edge">
<title>POL_STREAM&#45;&gt;Meridian</title>
<path fill="none" stroke="#2b6cb0" d="M1258.23,-417C1250.59,-417 1245.5,-417 1245.5,-417 1245.5,-417 1245.5,-314.11 1245.5,-314.11"/>
<polygon fill="#2b6cb0" stroke="#2b6cb0" points="1249,-314.11 1245.5,-304.11 1242,-314.11 1249,-314.11"/>
<text text-anchor="middle" x="1320.5" y="-334.68" font-family="Helvetica,sans-Serif" font-size="9.00">WebSocket</text>
<text text-anchor="middle" x="1320.5" y="-324.68" font-family="Helvetica,sans-Serif" font-size="9.00">streaming</text>
</g>
<!-- SS -->
<g id="node9" class="node">
<title>SS</title>
<path fill="#4a90d9" stroke="black" d="M758.5,-451.65C758.5,-451.65 635.5,-451.65 635.5,-451.65 629.5,-451.65 623.5,-445.65 623.5,-439.65 623.5,-439.65 623.5,-394.65 623.5,-394.65 623.5,-388.65 629.5,-382.65 635.5,-382.65 635.5,-382.65 758.5,-382.65 758.5,-382.65 764.5,-382.65 770.5,-388.65 770.5,-394.65 770.5,-394.65 770.5,-439.65 770.5,-439.65 770.5,-445.65 764.5,-451.65 758.5,-451.65"/>
<text text-anchor="middle" x="697" y="-438.85" font-family="Helvetica,sans-Serif" font-size="11.00" fill="white">StockSharp</text>
<text text-anchor="middle" x="697" y="-426.85" font-family="Helvetica,sans-Serif" font-size="11.00" fill="white">[External System]</text>
<text text-anchor="middle" x="697" y="-401.85" font-family="Helvetica,sans-Serif" font-size="11.00" fill="white">Multi&#45;Exchange Adapter</text>
<text text-anchor="middle" x="697" y="-389.85" font-family="Helvetica,sans-Serif" font-size="11.00" fill="white">Global Markets</text>
</g>
<!-- SS&#45;&gt;Meridian -->
<g id="edge8" class="edge">
<title>SS&#45;&gt;Meridian</title>
<path fill="none" stroke="#2b6cb0" d="M733,-382.65C733,-339.16 733,-270 733,-270 733,-270 952.94,-270 952.94,-270"/>
<polygon fill="#2b6cb0" stroke="#2b6cb0" points="952.94,-273.5 962.94,-270 952.94,-266.5 952.94,-273.5"/>
<text text-anchor="middle" x="942" y="-334.68" font-family="Helvetica,sans-Serif" font-size="9.00">Multi&#45;exchange</text>
<text text-anchor="middle" x="942" y="-324.68" font-family="Helvetica,sans-Serif" font-size="9.00">adapter</text>
</g>
<!-- YF -->
<g id="node10" class="node">
<title>YF</title>
<path fill="#38a169" stroke="black" d="M1727.5,-451.65C1727.5,-451.65 1608.5,-451.65 1608.5,-451.65 1602.5,-451.65 1596.5,-445.65 1596.5,-439.65 1596.5,-439.65 1596.5,-394.65 1596.5,-394.65 1596.5,-388.65 1602.5,-382.65 1608.5,-382.65 1608.5,-382.65 1727.5,-382.65 1727.5,-382.65 1733.5,-382.65 1739.5,-388.65 1739.5,-394.65 1739.5,-394.65 1739.5,-439.65 1739.5,-439.65 1739.5,-445.65 1733.5,-451.65 1727.5,-451.65"/>
<text text-anchor="middle" x="1668" y="-438.85" font-family="Helvetica,sans-Serif" font-size="11.00" fill="white">Yahoo Finance</text>
<text text-anchor="middle" x="1668" y="-426.85" font-family="Helvetica,sans-Serif" font-size="11.00" fill="white">[External System]</text>
<text text-anchor="middle" x="1668" y="-401.85" font-family="Helvetica,sans-Serif" font-size="11.00" fill="white">50K+ Global Securities</text>
<text text-anchor="middle" x="1668" y="-389.85" font-family="Helvetica,sans-Serif" font-size="11.00" fill="white">Free OHLCV</text>
</g>
<!-- YF&#45;&gt;Meridian -->
<g id="edge9" class="edge">
<title>YF&#45;&gt;Meridian</title>
<path fill="none" stroke="#2c7a7b" d="M1668,-382.4C1668,-337.21 1668,-264 1668,-264 1668,-264 1261.11,-264 1261.11,-264"/>
<polygon fill="#2c7a7b" stroke="#2c7a7b" points="1261.11,-260.5 1251.11,-264 1261.11,-267.5 1261.11,-260.5"/>
<text text-anchor="middle" x="1616" y="-334.68" font-family="Helvetica,sans-Serif" font-size="9.00">REST</text>
<text text-anchor="middle" x="1616" y="-324.68" font-family="Helvetica,sans-Serif" font-size="9.00">historical bars</text>
</g>
<!-- TI -->
<g id="node11" class="node">
<title>TI</title>
<path fill="#38a169" stroke="black" d="M1862,-451.65C1862,-451.65 1770,-451.65 1770,-451.65 1764,-451.65 1758,-445.65 1758,-439.65 1758,-439.65 1758,-394.65 1758,-394.65 1758,-388.65 1764,-382.65 1770,-382.65 1770,-382.65 1862,-382.65 1862,-382.65 1868,-382.65 1874,-388.65 1874,-394.65 1874,-394.65 1874,-439.65 1874,-439.65 1874,-445.65 1868,-451.65 1862,-451.65"/>
<text text-anchor="middle" x="1816" y="-438.85" font-family="Helvetica,sans-Serif" font-size="11.00" fill="white">Tiingo</text>
<text text-anchor="middle" x="1816" y="-426.85" font-family="Helvetica,sans-Serif" font-size="11.00" fill="white">[External System]</text>
<text text-anchor="middle" x="1816" y="-401.85" font-family="Helvetica,sans-Serif" font-size="11.00" fill="white">Dividend&#45;Adjusted</text>
<text text-anchor="middle" x="1816" y="-389.85" font-family="Helvetica,sans-Serif" font-size="11.00" fill="white">Fundamentals</text>
</g>
<!-- TI&#45;&gt;Meridian -->
<g id="edge10" class="edge">
<title>TI&#45;&gt;Meridian</title>
<path fill="none" stroke="#2c7a7b" d="M1816,-382.53C1816,-332 1816,-244 1816,-244 1816,-244 1261.33,-244 1261.33,-244"/>
<polygon fill="#2c7a7b" stroke="#2c7a7b" points="1261.33,-240.5 1251.33,-244 1261.33,-247.5 1261.33,-240.5"/>
<text text-anchor="middle" x="1774.5" y="-334.68" font-family="Helvetica,sans-Serif" font-size="9.00">REST</text>
<text text-anchor="middle" x="1774.5" y="-324.68" font-family="Helvetica,sans-Serif" font-size="9.00">adjusted data</text>
</g>
<!-- FH -->
<g id="node12" class="node">
<title>FH</title>
<path fill="#38a169" stroke="black" d="M1996,-451.65C1996,-451.65 1904,-451.65 1904,-451.65 1898,-451.65 1892,-445.65 1892,-439.65 1892,-439.65 1892,-394.65 1892,-394.65 1892,-388.65 1898,-382.65 1904,-382.65 1904,-382.65 1996,-382.65 1996,-382.65 2002,-382.65 2008,-388.65 2008,-394.65 2008,-394.65 2008,-439.65 2008,-439.65 2008,-445.65 2002,-451.65 1996,-451.65"/>
<text text-anchor="middle" x="1950" y="-438.85" font-family="Helvetica,sans-Serif" font-size="11.00" fill="white">Finnhub</text>
<text text-anchor="middle" x="1950" y="-426.85" font-family="Helvetica,sans-Serif" font-size="11.00" fill="white">[External System]</text>
<text text-anchor="middle" x="1950" y="-401.85" font-family="Helvetica,sans-Serif" font-size="11.00" fill="white">Historical + News</text>
<text text-anchor="middle" x="1950" y="-389.85" font-family="Helvetica,sans-Serif" font-size="11.00" fill="white">Fundamentals</text>
</g>
<!-- FH&#45;&gt;Meridian -->
<g id="edge11" class="edge">
<title>FH&#45;&gt;Meridian</title>
<path fill="none" stroke="#2c7a7b" d="M1950,-382.35C1950,-326.98 1950,-225 1950,-225 1950,-225 1261.44,-225 1261.44,-225"/>
<polygon fill="#2c7a7b" stroke="#2c7a7b" points="1261.44,-221.5 1251.44,-225 1261.44,-228.5 1261.44,-221.5"/>
<text text-anchor="middle" x="1920.5" y="-334.68" font-family="Helvetica,sans-Serif" font-size="9.00">REST</text>
<text text-anchor="middle" x="1920.5" y="-324.68" font-family="Helvetica,sans-Serif" font-size="9.00">fundamentals</text>
</g>
<!-- POL -->
<g id="node13" class="node">
<title>POL</title>
<path fill="#38a169" stroke="black" d="M2130,-451.65C2130,-451.65 2038,-451.65 2038,-451.65 2032,-451.65 2026,-445.65 2026,-439.65 2026,-439.65 2026,-394.65 2026,-394.65 2026,-388.65 2032,-382.65 2038,-382.65 2038,-382.65 2130,-382.65 2130,-382.65 2136,-382.65 2142,-388.65 2142,-394.65 2142,-394.65 2142,-439.65 2142,-439.65 2142,-445.65 2136,-451.65 2130,-451.65"/>
<text text-anchor="middle" x="2084" y="-438.85" font-family="Helvetica,sans-Serif" font-size="11.00" fill="white">Polygon.io</text>
<text text-anchor="middle" x="2084" y="-426.85" font-family="Helvetica,sans-Serif" font-size="11.00" fill="white">[External System]</text>
<text text-anchor="middle" x="2084" y="-401.85" font-family="Helvetica,sans-Serif" font-size="11.00" fill="white">Historical Bars</text>
<text text-anchor="middle" x="2084" y="-389.85" font-family="Helvetica,sans-Serif" font-size="11.00" fill="white">Minute/Day</text>
</g>
<!-- POL&#45;&gt;Meridian -->
<g id="edge12" class="edge">
<title>POL&#45;&gt;Meridian</title>
<path fill="none" stroke="#2c7a7b" d="M2084,-382.59C2084,-322.48 2084,-205 2084,-205 2084,-205 1261.16,-205 1261.16,-205"/>
<polygon fill="#2c7a7b" stroke="#2c7a7b" points="1261.16,-201.5 1251.16,-205 1261.16,-208.5 1261.16,-201.5"/>
<text text-anchor="middle" x="2049.5" y="-334.68" font-family="Helvetica,sans-Serif" font-size="9.00">REST</text>
<text text-anchor="middle" x="2049.5" y="-324.68" font-family="Helvetica,sans-Serif" font-size="9.00">historical</text>
</g>
<!-- STOOQ -->
<g id="node14" class="node">
<title>STOOQ</title>
<path fill="#38a169" stroke="black" d="M1566,-451.65C1566,-451.65 1432,-451.65 1432,-451.65 1426,-451.65 1420,-445.65 1420,-439.65 1420,-439.65 1420,-394.65 1420,-394.65 1420,-388.65 1426,-382.65 1432,-382.65 1432,-382.65 1566,-382.65 1566,-382.65 1572,-382.65 1578,-388.65 1578,-394.65 1578,-394.65 1578,-439.65 1578,-439.65 1578,-445.65 1572,-451.65 1566,-451.65"/>
<text text-anchor="middle" x="1499" y="-438.85" font-family="Helvetica,sans-Serif" font-size="11.00" fill="white">Stooq + Others</text>
<text text-anchor="middle" x="1499" y="-426.85" font-family="Helvetica,sans-Serif" font-size="11.00" fill="white">[External System]</text>
<text text-anchor="middle" x="1499" y="-401.85" font-family="Helvetica,sans-Serif" font-size="11.00" fill="white">Nasdaq, Alpha Vantage</text>
<text text-anchor="middle" x="1499" y="-389.85" font-family="Helvetica,sans-Serif" font-size="11.00" fill="white">IB, StockSharp, EOD Data</text>
</g>
<!-- STOOQ&#45;&gt;Meridian -->
<g id="edge13" class="edge">
<title>STOOQ&#45;&gt;Meridian</title>
<path fill="none" stroke="#2c7a7b" d="M1499,-382.51C1499,-343.06 1499,-284 1499,-284 1499,-284 1261.02,-284 1261.02,-284"/>
<polygon fill="#2c7a7b" stroke="#2c7a7b" points="1261.02,-280.5 1251.02,-284 1261.02,-287.5 1261.02,-280.5"/>
<text text-anchor="middle" x="1455.5" y="-334.68" font-family="Helvetica,sans-Serif" font-size="9.00">REST</text>
<text text-anchor="middle" x="1455.5" y="-324.68" font-family="Helvetica,sans-Serif" font-size="9.00">EOD data</text>
</g>
<!-- L1 -->
<g id="node21" class="node">
<title>L1</title>
<ellipse fill="#08427b" stroke="black" cx="2810" cy="-417.15" rx="31.74" ry="18"/>
<text text-anchor="middle" x="2810" y="-414.35" font-family="Helvetica,sans-Serif" font-size="11.00" fill="white">Person</text>
</g>
<!-- L2 -->
<g id="node22" class="node">
<title>L2</title>
<path fill="#438dd5" stroke="black" d="M2748,-435.15C2748,-435.15 2714,-435.15 2714,-435.15 2708,-435.15 2702,-429.15 2702,-423.15 2702,-423.15 2702,-411.15 2702,-411.15 2702,-405.15 2708,-399.15 2714,-399.15 2714,-399.15 2748,-399.15 2748,-399.15 2754,-399.15 2760,-405.15 2760,-411.15 2760,-411.15 2760,-423.15 2760,-423.15 2760,-429.15 2754,-435.15 2748,-435.15"/>
<text text-anchor="middle" x="2731" y="-414.35" font-family="Helvetica,sans-Serif" font-size="11.00" fill="white">System</text>
</g>
<!-- L3 -->
<g id="node23" class="node">
<title>L3</title>
<path fill="#4a90d9" stroke="black" d="M2672,-435.15C2672,-435.15 2574,-435.15 2574,-435.15 2568,-435.15 2562,-429.15 2562,-423.15 2562,-423.15 2562,-411.15 2562,-411.15 2562,-405.15 2568,-399.15 2574,-399.15 2574,-399.15 2672,-399.15 2672,-399.15 2678,-399.15 2684,-405.15 2684,-411.15 2684,-411.15 2684,-423.15 2684,-423.15 2684,-429.15 2678,-435.15 2672,-435.15"/>
<text text-anchor="middle" x="2623" y="-414.35" font-family="Helvetica,sans-Serif" font-size="11.00" fill="white">Streaming Provider</text>
</g>
<!-- L4 -->
<g id="node24" class="node">
<title>L4</title>
<path fill="#38a169" stroke="black" d="M2532,-435.15C2532,-435.15 2438,-435.15 2438,-435.15 2432,-435.15 2426,-429.15 2426,-423.15 2426,-423.15 2426,-411.15 2426,-411.15 2426,-405.15 2432,-399.15 2438,-399.15 2438,-399.15 2532,-399.15 2532,-399.15 2538,-399.15 2544,-405.15 2544,-411.15 2544,-411.15 2544,-423.15 2544,-423.15 2544,-429.15 2538,-435.15 2532,-435.15"/>
<text text-anchor="middle" x="2485" y="-414.35" font-family="Helvetica,sans-Serif" font-size="11.00" fill="white">Historical Provider</text>
</g>
<!-- L5 -->
<g id="node25" class="node">
<title>L5</title>
<path fill="#805ad5" stroke="black" d="M2395.5,-435.15C2395.5,-435.15 2288.5,-435.15 2288.5,-435.15 2282.5,-435.15 2276.5,-429.15 2276.5,-423.15 2276.5,-423.15 2276.5,-411.15 2276.5,-411.15 2276.5,-405.15 2282.5,-399.15 2288.5,-399.15 2288.5,-399.15 2395.5,-399.15 2395.5,-399.15 2401.5,-399.15 2407.5,-405.15 2407.5,-411.15 2407.5,-411.15 2407.5,-423.15 2407.5,-423.15 2407.5,-429.15 2401.5,-435.15 2395.5,-435.15"/>
<text text-anchor="middle" x="2342" y="-414.35" font-family="Helvetica,sans-Serif" font-size="11.00" fill="white">Downstream System</text>
</g>
<!-- L6 -->
<g id="node26" class="node">
<title>L6</title>
<path fill="#e53e3e" stroke="black" d="M2258,-431.88C2258,-433.68 2237.38,-435.15 2212,-435.15 2186.62,-435.15 2166,-433.68 2166,-431.88 2166,-431.88 2166,-402.42 2166,-402.42 2166,-400.62 2186.62,-399.15 2212,-399.15 2237.38,-399.15 2258,-400.62 2258,-402.42 2258,-402.42 2258,-431.88 2258,-431.88"/>
<path fill="none" stroke="black" d="M2258,-431.88C2258,-430.07 2237.38,-428.61 2212,-428.61 2186.62,-428.61 2166,-430.07 2166,-431.88"/>
<text text-anchor="middle" x="2212" y="-414.35" font-family="Helvetica,sans-Serif" font-size="11.00" fill="white">Infrastructure</text>
</g>
</g>
</svg>
