<?xml version="1.0" encoding="UTF-8" standalone="no"?>
<!DOCTYPE svg PUBLIC "-//W3C//DTD SVG 1.1//EN"
 "http://www.w3.org/Graphics/SVG/1.1/DTD/svg11.dtd">
<!-- Generated by graphviz version 2.43.0 (0)
 -->
<!-- Title: CLICommands Pages: 1 -->
<svg width="3388pt" height="454pt"
 viewBox="0.00 0.00 3388.00 454.00" xmlns="http://www.w3.org/2000/svg" xmlns:xlink="http://www.w3.org/1999/xlink">
<g id="graph0" class="graph" transform="scale(1 1) rotate(0) translate(36 418)">
<title>CLICommands</title>
<polygon fill="white" stroke="transparent" points="-36,36 -36,-418 3352,-418 3352,36 -36,36"/>
<text text-anchor="middle" x="1658" y="-368.4" font-family="Helvetica,sans-Serif" font-size="12.00">Meridian &#45; CLI Commands Reference</text>
<text text-anchor="middle" x="1658" y="-355.4" font-family="Helvetica,sans-Serif" font-size="12.00">All Available Flags and Options | v1.6.1</text>
<g id="clust1" class="cluster">
<title>cluster_setup</title>
<path fill="#ede9fe" stroke="#805ad5" d="M20,-112C20,-112 705,-112 705,-112 711,-112 717,-118 717,-124 717,-124 717,-195 717,-195 717,-201 711,-207 705,-207 705,-207 20,-207 20,-207 14,-207 8,-201 8,-195 8,-195 8,-124 8,-124 8,-118 14,-112 20,-112"/>
<text text-anchor="middle" x="362.5" y="-193.4" font-family="Helvetica,sans-Serif" font-size="12.00">Setup Commands (First&#45;Time Configuration)</text>
</g>
<g id="clust2" class="cluster">
<title>cluster_diagnostic</title>
<path fill="#dbeafe" stroke="#2b6cb0" d="M737,-112C737,-112 1522,-112 1522,-112 1528,-112 1534,-118 1534,-124 1534,-124 1534,-195 1534,-195 1534,-201 1528,-207 1522,-207 1522,-207 737,-207 737,-207 731,-207 725,-201 725,-195 725,-195 725,-124 725,-124 725,-118 731,-112 737,-112"/>
<text text-anchor="middle" x="1129.5" y="-193.4" font-family="Helvetica,sans-Serif" font-size="12.00">Diagnostic Commands (Health &amp; Validation)</text>
</g>
<g id="clust3" class="cluster">
<title>cluster_operation</title>
<path fill="#f0fff4" stroke="#38a169" d="M1554,-8C1554,-8 1812,-8 1812,-8 1818,-8 1824,-14 1824,-20 1824,-20 1824,-195 1824,-195 1824,-201 1818,-207 1812,-207 1812,-207 1554,-207 1554,-207 1548,-207 1542,-201 1542,-195 1542,-195 1542,-20 1542,-20 1542,-14 1548,-8 1554,-8"/>
<text text-anchor="middle" x="1683" y="-193.4" font-family="Helvetica,sans-Serif" font-size="12.00">Operation Commands (Runtime Modes)</text>
</g>
<g id="clust4" class="cluster">
<title>cluster_docs</title>
<path fill="#fffaf0" stroke="#ed8936" d="M1844,-112C1844,-112 2340,-112 2340,-112 2346,-112 2352,-118 2352,-124 2352,-124 2352,-195 2352,-195 2352,-201 2346,-207 2340,-207 2340,-207 1844,-207 1844,-207 1838,-207 1832,-201 1832,-195 1832,-195 1832,-124 1832,-124 1832,-118 1838,-112 1844,-112"/>
<text text-anchor="middle" x="2092" y="-193.4" font-family="Helvetica,sans-Serif" font-size="12.00">Documentation Commands (Help &amp; Info)</text>
</g>
<g id="clust5" class="cluster">
<title>cluster_symbols</title>
<path fill="#d1fae5" stroke="#2c7a7b" d="M2372,-23C2372,-23 2646,-23 2646,-23 2652,-23 2658,-29 2658,-35 2658,-35 2658,-195 2658,-195 2658,-201 2652,-207 2646,-207 2646,-207 2372,-207 2372,-207 2366,-207 2360,-201 2360,-195 2360,-195 2360,-35 2360,-35 2360,-29 2366,-23 2372,-23"/>
<text text-anchor="middle" x="2509" y="-193.4" font-family="Helvetica,sans-Serif" font-size="12.00">Symbol Management Commands</text>
</g>
<g id="clust6" class="cluster">
<title>cluster_packages</title>
<path fill="#faf5ff" stroke="#805ad5" d="M2678,-23C2678,-23 2942,-23 2942,-23 2948,-23 2954,-29 2954,-35 2954,-35 2954,-190 2954,-190 2954,-196 2948,-202 2942,-202 2942,-202 2678,-202 2678,-202 2672,-202 2666,-196 2666,-190 2666,-190 2666,-35 2666,-35 2666,-29 2672,-23 2678,-23"/>
<text text-anchor="middle" x="2810" y="-188.4" font-family="Helvetica,sans-Serif" font-size="12.00">Package Commands (Data Packaging)</text>
</g>
<g id="clust7" class="cluster">
<title>cluster_workflows</title>
<path fill="#f7fafc" stroke="#718096" d="M1672,-220C1672,-220 2406,-220 2406,-220 2412,-220 2418,-226 2418,-232 2418,-232 2418,-323 2418,-323 2418,-329 2412,-335 2406,-335 2406,-335 1672,-335 1672,-335 1666,-335 1660,-329 1660,-323 1660,-323 1660,-232 1660,-232 1660,-226 1666,-220 1672,-220"/>
<text text-anchor="middle" x="2039" y="-321.4" font-family="Helvetica,sans-Serif" font-size="12.00">Common Workflows</text>
</g>
<g id="clust8" class="cluster">
<title>cluster_exit</title>
<path fill="#fee2e2" stroke="#e53e3e" d="M2438,-215C2438,-215 2554,-215 2554,-215 2560,-215 2566,-221 2566,-227 2566,-227 2566,-328 2566,-328 2566,-334 2560,-340 2554,-340 2554,-340 2438,-340 2438,-340 2432,-340 2426,-334 2426,-328 2426,-328 2426,-227 2426,-227 2426,-221 2432,-215 2438,-215"/>
<text text-anchor="middle" x="2496" y="-326.4" font-family="Helvetica,sans-Serif" font-size="12.00">Exit Codes</text>
</g>
<g id="clust9" class="cluster">
<title>cluster_legend</title>
<path fill="#fafafa" stroke="#666666" d="M2586,-220C2586,-220 3296,-220 3296,-220 3302,-220 3308,-226 3308,-232 3308,-232 3308,-323 3308,-323 3308,-329 3302,-335 3296,-335 3296,-335 2586,-335 2586,-335 2580,-335 2574,-329 2574,-323 2574,-323 2574,-232 2574,-232 2574,-226 2580,-220 2586,-220"/>
<text text-anchor="middle" x="2941" y="-321.4" font-family="Helvetica,sans-Serif" font-size="12.00">Legend</text>
</g>
<!-- Meridian -->
<g id="node1" class="node">
<title>Meridian</title>
<path fill="#438dd5" stroke="black" d="M1638,-291C1638,-291 1446,-291 1446,-291 1440,-291 1434,-285 1434,-279 1434,-279 1434,-255 1434,-255 1434,-249 1440,-243 1446,-243 1446,-243 1638,-243 1638,-243 1644,-243 1650,-249 1650,-255 1650,-255 1650,-279 1650,-279 1650,-285 1644,-291 1638,-291"/>
<text text-anchor="middle" x="1542" y="-279.8" font-family="Helvetica,sans-Serif" font-size="9.00" fill="white">dotnet run &#45;&#45;project src/Meridian</text>
<text text-anchor="middle" x="1542" y="-259.8" font-family="Helvetica,sans-Serif" font-size="9.00" fill="white">Meridian CLI</text>
<text text-anchor="middle" x="1542" y="-249.8" font-family="Helvetica,sans-Serif" font-size="9.00" fill="white">.NET 9.0 | Cross&#45;Platform</text>
</g>
<!-- WIZARD -->
<g id="node2" class="node">
<title>WIZARD</title>
<path fill="#c4b5fd" stroke="black" d="M696.5,-178C696.5,-178 527.5,-178 527.5,-178 521.5,-178 515.5,-172 515.5,-166 515.5,-166 515.5,-132 515.5,-132 515.5,-126 521.5,-120 527.5,-120 527.5,-120 696.5,-120 696.5,-120 702.5,-120 708.5,-126 708.5,-132 708.5,-132 708.5,-166 708.5,-166 708.5,-172 702.5,-178 696.5,-178"/>
<text text-anchor="middle" x="612" y="-166.8" font-family="Helvetica,sans-Serif" font-size="9.00">&#45;&#45;wizard</text>
<text text-anchor="middle" x="612" y="-146.8" font-family="Helvetica,sans-Serif" font-size="9.00">Interactive 8&#45;step configuration wizard</text>
<text text-anchor="middle" x="612" y="-136.8" font-family="Helvetica,sans-Serif" font-size="9.00">Guides through all settings</text>
<text text-anchor="middle" x="612" y="-126.8" font-family="Helvetica,sans-Serif" font-size="9.00">Generates appsettings.json</text>
</g>
<!-- Meridian&#45;&gt;WIZARD -->
<g id="edge1" class="edge">
<title>Meridian&#45;&gt;WIZARD</title>
<path fill="none" stroke="#805ad5" d="M1433.98,-263.69C1242.63,-258.7 851.93,-244.2 721,-207 701.67,-201.51 681.82,-192.35 664.45,-182.97"/>
<polygon fill="#805ad5" stroke="#805ad5" points="666.05,-179.85 655.61,-178.06 662.65,-185.97 666.05,-179.85"/>
</g>
<!-- AUTO_CONFIG -->
<g id="node3" class="node">
<title>AUTO_CONFIG</title>
<path fill="#c4b5fd" stroke="black" d="M485.5,-178C485.5,-178 348.5,-178 348.5,-178 342.5,-178 336.5,-172 336.5,-166 336.5,-166 336.5,-132 336.5,-132 336.5,-126 342.5,-120 348.5,-120 348.5,-120 485.5,-120 485.5,-120 491.5,-120 497.5,-126 497.5,-132 497.5,-132 497.5,-166 497.5,-166 497.5,-172 491.5,-178 485.5,-178"/>
<text text-anchor="middle" x="417" y="-166.8" font-family="Helvetica,sans-Serif" font-size="9.00">&#45;&#45;auto&#45;config</text>
<text text-anchor="middle" x="417" y="-146.8" font-family="Helvetica,sans-Serif" font-size="9.00">Quick auto&#45;configuration</text>
<text text-anchor="middle" x="417" y="-136.8" font-family="Helvetica,sans-Serif" font-size="9.00">Detects providers from env vars</text>
<text text-anchor="middle" x="417" y="-126.8" font-family="Helvetica,sans-Serif" font-size="9.00">Generates minimal config</text>
</g>
<!-- Meridian&#45;&gt;AUTO_CONFIG -->
<g id="edge2" class="edge">
<title>Meridian&#45;&gt;AUTO_CONFIG</title>
<path fill="none" stroke="#805ad5" d="M1433.68,-266.68C1204.34,-267 676.86,-261.55 507,-207 490.81,-201.8 474.65,-192.99 460.57,-183.82"/>
<polygon fill="#805ad5" stroke="#805ad5" points="462.35,-180.8 452.1,-178.1 458.43,-186.6 462.35,-180.8"/>
</g>
<!-- GEN_CONFIG -->
<g id="node4" class="node">
<title>GEN_CONFIG</title>
<path fill="#c4b5fd" stroke="black" d="M306.5,-178C306.5,-178 189.5,-178 189.5,-178 183.5,-178 177.5,-172 177.5,-166 177.5,-166 177.5,-132 177.5,-132 177.5,-126 183.5,-120 189.5,-120 189.5,-120 306.5,-120 306.5,-120 312.5,-120 318.5,-126 318.5,-132 318.5,-132 318.5,-166 318.5,-166 318.5,-172 312.5,-178 306.5,-178"/>
<text text-anchor="middle" x="248" y="-166.8" font-family="Helvetica,sans-Serif" font-size="9.00">&#45;&#45;generate&#45;config &lt;type&gt;</text>
<text text-anchor="middle" x="248" y="-146.8" font-family="Helvetica,sans-Serif" font-size="9.00">Generate config templates</text>
<text text-anchor="middle" x="248" y="-136.8" font-family="Helvetica,sans-Serif" font-size="9.00">Types: minimal, full, alpaca,</text>
<text text-anchor="middle" x="248" y="-126.8" font-family="Helvetica,sans-Serif" font-size="9.00">backfill, production, docker</text>
</g>
<!-- Meridian&#45;&gt;GEN_CONFIG -->
<g id="edge3" class="edge">
<title>Meridian&#45;&gt;GEN_CONFIG</title>
<path fill="none" stroke="#805ad5" d="M1433.82,-264.26C1155.6,-259.28 429.78,-242.98 327,-207 312.6,-201.96 298.55,-193.4 286.38,-184.42"/>
<polygon fill="#805ad5" stroke="#805ad5" points="288.33,-181.5 278.27,-178.17 284.06,-187.05 288.33,-181.5"/>
</g>
<!-- DETECT -->
<g id="node5" class="node">
<title>DETECT</title>
<path fill="#c4b5fd" stroke="black" d="M147.5,-178C147.5,-178 28.5,-178 28.5,-178 22.5,-178 16.5,-172 16.5,-166 16.5,-166 16.5,-132 16.5,-132 16.5,-126 22.5,-120 28.5,-120 28.5,-120 147.5,-120 147.5,-120 153.5,-120 159.5,-126 159.5,-132 159.5,-132 159.5,-166 159.5,-166 159.5,-172 153.5,-178 147.5,-178"/>
<text text-anchor="middle" x="88" y="-166.8" font-family="Helvetica,sans-Serif" font-size="9.00">&#45;&#45;detect&#45;providers</text>
<text text-anchor="middle" x="88" y="-146.8" font-family="Helvetica,sans-Serif" font-size="9.00">Scan environment variables</text>
<text text-anchor="middle" x="88" y="-136.8" font-family="Helvetica,sans-Serif" font-size="9.00">Show available providers</text>
<text text-anchor="middle" x="88" y="-126.8" font-family="Helvetica,sans-Serif" font-size="9.00">Display capabilities</text>
</g>
<!-- Meridian&#45;&gt;DETECT -->
<g id="edge4" class="edge">
<title>Meridian&#45;&gt;DETECT</title>
<path fill="none" stroke="#805ad5" d="M1433.9,-264.89C1130.64,-261.27 286.23,-247.63 168,-207 153.45,-202 139.23,-193.45 126.9,-184.47"/>
<polygon fill="#805ad5" stroke="#805ad5" points="128.77,-181.49 118.69,-178.22 124.53,-187.06 128.77,-181.49"/>
</g>
<!-- VAL_CREDS -->
<g id="node6" class="node">
<title>VAL_CREDS</title>
<path fill="#93c5fd" stroke="black" d="M1514,-178C1514,-178 1428,-178 1428,-178 1422,-178 1416,-172 1416,-166 1416,-166 1416,-132 1416,-132 1416,-126 1422,-120 1428,-120 1428,-120 1514,-120 1514,-120 1520,-120 1526,-126 1526,-132 1526,-132 1526,-166 1526,-166 1526,-172 1520,-178 1514,-178"/>
<text text-anchor="middle" x="1471" y="-166.8" font-family="Helvetica,sans-Serif" font-size="9.00">&#45;&#45;validate&#45;credentials</text>
<text text-anchor="middle" x="1471" y="-146.8" font-family="Helvetica,sans-Serif" font-size="9.00">Test API credentials</text>
<text text-anchor="middle" x="1471" y="-136.8" font-family="Helvetica,sans-Serif" font-size="9.00">Validate all providers</text>
<text text-anchor="middle" x="1471" y="-126.8" font-family="Helvetica,sans-Serif" font-size="9.00">Show account info</text>
</g>
<!-- Meridian&#45;&gt;VAL_CREDS -->
<g id="edge5" class="edge">
<title>Meridian&#45;&gt;VAL_CREDS</title>
<path fill="none" stroke="#2b6cb0" d="M1527.8,-242.8C1518,-226.78 1504.75,-205.13 1493.51,-186.78"/>
<polygon fill="#2b6cb0" stroke="#2b6cb0" points="1496.39,-184.77 1488.18,-178.07 1490.42,-188.43 1496.39,-184.77"/>
</g>
<!-- TEST_CONN -->
<g id="node7" class="node">
<title>TEST_CONN</title>
<path fill="#93c5fd" stroke="black" d="M1386,-178C1386,-178 1278,-178 1278,-178 1272,-178 1266,-172 1266,-166 1266,-166 1266,-132 1266,-132 1266,-126 1272,-120 1278,-120 1278,-120 1386,-120 1386,-120 1392,-120 1398,-126 1398,-132 1398,-132 1398,-166 1398,-166 1398,-172 1392,-178 1386,-178"/>
<text text-anchor="middle" x="1332" y="-166.8" font-family="Helvetica,sans-Serif" font-size="9.00">&#45;&#45;test&#45;connectivity</text>
<text text-anchor="middle" x="1332" y="-146.8" font-family="Helvetica,sans-Serif" font-size="9.00">Test network connectivity</text>
<text text-anchor="middle" x="1332" y="-136.8" font-family="Helvetica,sans-Serif" font-size="9.00">Check DNS resolution</text>
<text text-anchor="middle" x="1332" y="-126.8" font-family="Helvetica,sans-Serif" font-size="9.00">Measure response times</text>
</g>
<!-- Meridian&#45;&gt;TEST_CONN -->
<g id="edge6" class="edge">
<title>Meridian&#45;&gt;TEST_CONN</title>
<path fill="none" stroke="#2b6cb0" d="M1481.01,-242.97C1457.29,-233.09 1430.27,-220.66 1407,-207 1395.76,-200.4 1384.25,-192.39 1373.73,-184.48"/>
<polygon fill="#2b6cb0" stroke="#2b6cb0" points="1375.59,-181.49 1365.52,-178.19 1371.33,-187.05 1375.59,-181.49"/>
</g>
<!-- QUICK_CHECK -->
<g id="node8" class="node">
<title>QUICK_CHECK</title>
<path fill="#93c5fd" stroke="black" d="M1235.5,-178C1235.5,-178 1130.5,-178 1130.5,-178 1124.5,-178 1118.5,-172 1118.5,-166 1118.5,-166 1118.5,-132 1118.5,-132 1118.5,-126 1124.5,-120 1130.5,-120 1130.5,-120 1235.5,-120 1235.5,-120 1241.5,-120 1247.5,-126 1247.5,-132 1247.5,-132 1247.5,-166 1247.5,-166 1247.5,-172 1241.5,-178 1235.5,-178"/>
<text text-anchor="middle" x="1183" y="-166.8" font-family="Helvetica,sans-Serif" font-size="9.00">&#45;&#45;quick&#45;check</text>
<text text-anchor="middle" x="1183" y="-146.8" font-family="Helvetica,sans-Serif" font-size="9.00">Fast health diagnostics</text>
<text text-anchor="middle" x="1183" y="-136.8" font-family="Helvetica,sans-Serif" font-size="9.00">Check: disk, symbols,</text>
<text text-anchor="middle" x="1183" y="-126.8" font-family="Helvetica,sans-Serif" font-size="9.00">credentials, compression</text>
</g>
<!-- Meridian&#45;&gt;QUICK_CHECK -->
<g id="edge7" class="edge">
<title>Meridian&#45;&gt;QUICK_CHECK</title>
<path fill="none" stroke="#2b6cb0" d="M1433.84,-255.31C1379,-247.02 1312.45,-232.45 1257,-207 1244.43,-201.23 1232.03,-192.98 1221.07,-184.55"/>
<polygon fill="#2b6cb0" stroke="#2b6cb0" points="1222.99,-181.6 1213,-178.1 1218.62,-187.07 1222.99,-181.6"/>
</g>
<!-- VAL_CONFIG -->
<g id="node9" class="node">
<title>VAL_CONFIG</title>
<path fill="#93c5fd" stroke="black" d="M1088,-178C1088,-178 996,-178 996,-178 990,-178 984,-172 984,-166 984,-166 984,-132 984,-132 984,-126 990,-120 996,-120 996,-120 1088,-120 1088,-120 1094,-120 1100,-126 1100,-132 1100,-132 1100,-166 1100,-166 1100,-172 1094,-178 1088,-178"/>
<text text-anchor="middle" x="1042" y="-166.8" font-family="Helvetica,sans-Serif" font-size="9.00">&#45;&#45;validate&#45;config</text>
<text text-anchor="middle" x="1042" y="-146.8" font-family="Helvetica,sans-Serif" font-size="9.00">Validate configuration</text>
<text text-anchor="middle" x="1042" y="-136.8" font-family="Helvetica,sans-Serif" font-size="9.00">Check required fields</text>
<text text-anchor="middle" x="1042" y="-126.8" font-family="Helvetica,sans-Serif" font-size="9.00">No startup</text>
</g>
<!-- Meridian&#45;&gt;VAL_CONFIG -->
<g id="edge8" class="edge">
<title>Meridian&#45;&gt;VAL_CONFIG</title>
<path fill="none" stroke="#2b6cb0" d="M1433.97,-258.12C1325.39,-248.98 1166.28,-231.91 1110,-207 1097.88,-201.64 1086.23,-193.44 1076.1,-184.93"/>
<polygon fill="#2b6cb0" stroke="#2b6cb0" points="1078.14,-182.06 1068.33,-178.08 1073.52,-187.31 1078.14,-182.06"/>
</g>
<!-- DRY_RUN -->
<g id="node10" class="node">
<title>DRY_RUN</title>
<path fill="#93c5fd" stroke="black" d="M954,-178C954,-178 874,-178 874,-178 868,-178 862,-172 862,-166 862,-166 862,-132 862,-132 862,-126 868,-120 874,-120 874,-120 954,-120 954,-120 960,-120 966,-126 966,-132 966,-132 966,-166 966,-166 966,-172 960,-178 954,-178"/>
<text text-anchor="middle" x="914" y="-166.8" font-family="Helvetica,sans-Serif" font-size="9.00">&#45;&#45;dry&#45;run</text>
<text text-anchor="middle" x="914" y="-146.8" font-family="Helvetica,sans-Serif" font-size="9.00">Test initialization</text>
<text text-anchor="middle" x="914" y="-136.8" font-family="Helvetica,sans-Serif" font-size="9.00">Validate everything</text>
<text text-anchor="middle" x="914" y="-126.8" font-family="Helvetica,sans-Serif" font-size="9.00">No data collection</text>
</g>
<!-- Meridian&#45;&gt;DRY_RUN -->
<g id="edge9" class="edge">
<title>Meridian&#45;&gt;DRY_RUN</title>
<path fill="none" stroke="#2b6cb0" d="M1433.71,-262.9C1292.53,-257.46 1054.25,-243.12 975,-207 963.67,-201.83 953.07,-193.71 943.99,-185.2"/>
<polygon fill="#2b6cb0" stroke="#2b6cb0" points="946.3,-182.57 936.73,-178.02 941.38,-187.54 946.3,-182.57"/>
</g>
<!-- SELFTEST -->
<g id="node11" class="node">
<title>SELFTEST</title>
<path fill="#93c5fd" stroke="black" d="M831.5,-173C831.5,-173 744.5,-173 744.5,-173 738.5,-173 732.5,-167 732.5,-161 732.5,-161 732.5,-137 732.5,-137 732.5,-131 738.5,-125 744.5,-125 744.5,-125 831.5,-125 831.5,-125 837.5,-125 843.5,-131 843.5,-137 843.5,-137 843.5,-161 843.5,-161 843.5,-167 837.5,-173 831.5,-173"/>
<text text-anchor="middle" x="788" y="-161.8" font-family="Helvetica,sans-Serif" font-size="9.00">&#45;&#45;selftest</text>
<text text-anchor="middle" x="788" y="-141.8" font-family="Helvetica,sans-Serif" font-size="9.00">Run self&#45;tests</text>
<text text-anchor="middle" x="788" y="-131.8" font-family="Helvetica,sans-Serif" font-size="9.00">Validate components</text>
</g>
<!-- Meridian&#45;&gt;SELFTEST -->
<g id="edge10" class="edge">
<title>Meridian&#45;&gt;SELFTEST</title>
<path fill="none" stroke="#2b6cb0" d="M1433.95,-264.91C1266.94,-261.86 954.76,-250.34 853,-207 838.89,-200.99 825.68,-190.69 814.91,-180.49"/>
<polygon fill="#2b6cb0" stroke="#2b6cb0" points="817.08,-177.71 807.52,-173.14 812.15,-182.68 817.08,-177.71"/>
</g>
<!-- UI_MODE -->
<g id="node12" class="node">
<title>UI_MODE</title>
<path fill="#68d391" stroke="black" d="M1804,-178C1804,-178 1708,-178 1708,-178 1702,-178 1696,-172 1696,-166 1696,-166 1696,-132 1696,-132 1696,-126 1702,-120 1708,-120 1708,-120 1804,-120 1804,-120 1810,-120 1816,-126 1816,-132 1816,-132 1816,-166 1816,-166 1816,-172 1810,-178 1804,-178"/>
<text text-anchor="middle" x="1756" y="-166.8" font-family="Helvetica,sans-Serif" font-size="9.00">&#45;&#45;ui</text>
<text text-anchor="middle" x="1756" y="-146.8" font-family="Helvetica,sans-Serif" font-size="9.00">Enable web dashboard</text>
<text text-anchor="middle" x="1756" y="-136.8" font-family="Helvetica,sans-Serif" font-size="9.00">HTTP endpoints active</text>
<text text-anchor="middle" x="1756" y="-126.8" font-family="Helvetica,sans-Serif" font-size="9.00">Real&#45;time monitoring</text>
</g>
<!-- Meridian&#45;&gt;UI_MODE -->
<g id="edge11" class="edge">
<title>Meridian&#45;&gt;UI_MODE</title>
<path fill="none" stroke="#38a169" d="M1588.7,-242.97C1609.05,-233.5 1633.39,-222.91 1656,-215 1669.43,-210.3 1674.32,-213.46 1687,-207 1698.58,-201.1 1709.96,-192.97 1720.03,-184.69"/>
<polygon fill="#38a169" stroke="#38a169" points="1722.46,-187.22 1727.81,-178.07 1717.92,-181.89 1722.46,-187.22"/>
</g>
<!-- BACKFILL -->
<g id="node14" class="node">
<title>BACKFILL</title>
<path fill="#68d391" stroke="black" d="M1666,-178C1666,-178 1562,-178 1562,-178 1556,-178 1550,-172 1550,-166 1550,-166 1550,-132 1550,-132 1550,-126 1556,-120 1562,-120 1562,-120 1666,-120 1666,-120 1672,-120 1678,-126 1678,-132 1678,-132 1678,-166 1678,-166 1678,-172 1672,-178 1666,-178"/>
<text text-anchor="middle" x="1614" y="-166.8" font-family="Helvetica,sans-Serif" font-size="9.00">&#45;&#45;backfill</text>
<text text-anchor="middle" x="1614" y="-146.8" font-family="Helvetica,sans-Serif" font-size="9.00">Run historical backfill</text>
<text text-anchor="middle" x="1614" y="-136.8" font-family="Helvetica,sans-Serif" font-size="9.00">Requires provider config</text>
<text text-anchor="middle" x="1614" y="-126.8" font-family="Helvetica,sans-Serif" font-size="9.00">No streaming</text>
</g>
<!-- Meridian&#45;&gt;BACKFILL -->
<g id="edge12" class="edge">
<title>Meridian&#45;&gt;BACKFILL</title>
<path fill="none" stroke="#38a169" d="M1556.4,-242.8C1566.34,-226.78 1579.78,-205.13 1591.17,-186.78"/>
<polygon fill="#38a169" stroke="#38a169" points="1594.28,-188.41 1596.58,-178.07 1588.33,-184.72 1594.28,-188.41"/>
</g>
<!-- SHOW_CONFIG -->
<g id="node16" class="node">
<title>SHOW_CONFIG</title>
<path fill="#fbd38d" stroke="black" d="M2332,-178C2332,-178 2234,-178 2234,-178 2228,-178 2222,-172 2222,-166 2222,-166 2222,-132 2222,-132 2222,-126 2228,-120 2234,-120 2234,-120 2332,-120 2332,-120 2338,-120 2344,-126 2344,-132 2344,-132 2344,-166 2344,-166 2344,-172 2338,-178 2332,-178"/>
<text text-anchor="middle" x="2283" y="-166.8" font-family="Helvetica,sans-Serif" font-size="9.00">&#45;&#45;show&#45;config</text>
<text text-anchor="middle" x="2283" y="-146.8" font-family="Helvetica,sans-Serif" font-size="9.00">Display current config</text>
<text text-anchor="middle" x="2283" y="-136.8" font-family="Helvetica,sans-Serif" font-size="9.00">Mask sensitive values</text>
<text text-anchor="middle" x="2283" y="-126.8" font-family="Helvetica,sans-Serif" font-size="9.00">Show effective settings</text>
</g>
<!-- Meridian&#45;&gt;SHOW_CONFIG -->
<g id="edge15" class="edge">
<title>Meridian&#45;&gt;SHOW_CONFIG</title>
<path fill="none" stroke="#ed8936" d="M1582.83,-242.87C1603.96,-232.17 1630.59,-220.61 1656,-215 1686.22,-208.32 2183.92,-217.58 2213,-207 2226.14,-202.22 2238.63,-193.84 2249.32,-184.96"/>
<polygon fill="#ed8936" stroke="#ed8936" points="2251.91,-187.34 2257.13,-178.12 2247.3,-182.08 2251.91,-187.34"/>
</g>
<!-- ERROR_CODES -->
<g id="node17" class="node">
<title>ERROR_CODES</title>
<path fill="#fbd38d" stroke="black" d="M2192,-178C2192,-178 2102,-178 2102,-178 2096,-178 2090,-172 2090,-166 2090,-166 2090,-132 2090,-132 2090,-126 2096,-120 2102,-120 2102,-120 2192,-120 2192,-120 2198,-120 2204,-126 2204,-132 2204,-132 2204,-166 2204,-166 2204,-172 2198,-178 2192,-178"/>
<text text-anchor="middle" x="2147" y="-166.8" font-family="Helvetica,sans-Serif" font-size="9.00">&#45;&#45;error&#45;codes</text>
<text text-anchor="middle" x="2147" y="-146.8" font-family="Helvetica,sans-Serif" font-size="9.00">List all error codes</text>
<text text-anchor="middle" x="2147" y="-136.8" font-family="Helvetica,sans-Serif" font-size="9.00">Meridian&#45;XXX&#45;NNN format</text>
<text text-anchor="middle" x="2147" y="-126.8" font-family="Helvetica,sans-Serif" font-size="9.00">Troubleshooting tips</text>
</g>
<!-- Meridian&#45;&gt;ERROR_CODES -->
<g id="edge16" class="edge">
<title>Meridian&#45;&gt;ERROR_CODES</title>
<path fill="none" stroke="#ed8936" d="M1582.84,-242.91C1603.97,-232.23 1630.61,-220.67 1656,-215 1702.09,-204.7 2036.89,-223.88 2081,-207 2093.62,-202.17 2105.46,-193.78 2115.54,-184.9"/>
<polygon fill="#ed8936" stroke="#ed8936" points="2117.94,-187.44 2122.88,-178.06 2113.17,-182.31 2117.94,-187.44"/>
</g>
<!-- HELP -->
<g id="node18" class="node">
<title>HELP</title>
<path fill="#fbd38d" stroke="black" d="M2059.5,-178C2059.5,-178 1976.5,-178 1976.5,-178 1970.5,-178 1964.5,-172 1964.5,-166 1964.5,-166 1964.5,-132 1964.5,-132 1964.5,-126 1970.5,-120 1976.5,-120 1976.5,-120 2059.5,-120 2059.5,-120 2065.5,-120 2071.5,-126 2071.5,-132 2071.5,-132 2071.5,-166 2071.5,-166 2071.5,-172 2065.5,-178 2059.5,-178"/>
<text text-anchor="middle" x="2018" y="-166.8" font-family="Helvetica,sans-Serif" font-size="9.00">&#45;&#45;help</text>
<text text-anchor="middle" x="2018" y="-146.8" font-family="Helvetica,sans-Serif" font-size="9.00">Show all commands</text>
<text text-anchor="middle" x="2018" y="-136.8" font-family="Helvetica,sans-Serif" font-size="9.00">Usage examples</text>
<text text-anchor="middle" x="2018" y="-126.8" font-family="Helvetica,sans-Serif" font-size="9.00">Version info</text>
</g>
<!-- Meridian&#45;&gt;HELP -->
<g id="edge17" class="edge">
<title>Meridian&#45;&gt;HELP</title>
<path fill="none" stroke="#ed8936" d="M1582.86,-243C1604,-232.34 1630.63,-220.77 1656,-215 1688.51,-207.6 1925.1,-219.52 1956,-207 1967.87,-202.19 1978.87,-194 1988.22,-185.3"/>
<polygon fill="#ed8936" stroke="#ed8936" points="1990.68,-187.79 1995.34,-178.28 1985.76,-182.81 1990.68,-187.79"/>
</g>
<!-- VERSION -->
<g id="node19" class="node">
<title>VERSION</title>
<path fill="#fbd38d" stroke="black" d="M1934.5,-173C1934.5,-173 1851.5,-173 1851.5,-173 1845.5,-173 1839.5,-167 1839.5,-161 1839.5,-161 1839.5,-137 1839.5,-137 1839.5,-131 1845.5,-125 1851.5,-125 1851.5,-125 1934.5,-125 1934.5,-125 1940.5,-125 1946.5,-131 1946.5,-137 1946.5,-137 1946.5,-161 1946.5,-161 1946.5,-167 1940.5,-173 1934.5,-173"/>
<text text-anchor="middle" x="1893" y="-161.8" font-family="Helvetica,sans-Serif" font-size="9.00">&#45;&#45;version</text>
<text text-anchor="middle" x="1893" y="-141.8" font-family="Helvetica,sans-Serif" font-size="9.00">Show version: 1.6.1</text>
<text text-anchor="middle" x="1893" y="-131.8" font-family="Helvetica,sans-Serif" font-size="9.00">.NET runtime info</text>
</g>
<!-- Meridian&#45;&gt;VERSION -->
<g id="edge18" class="edge">
<title>Meridian&#45;&gt;VERSION</title>
<path fill="none" stroke="#ed8936" d="M1583.44,-242.95C1604.5,-232.41 1630.9,-220.97 1656,-215 1693.22,-206.14 1792.51,-221.31 1828,-207 1842.48,-201.16 1855.92,-190.66 1866.78,-180.25"/>
<polygon fill="#ed8936" stroke="#ed8936" points="1869.3,-182.68 1873.86,-173.11 1864.33,-177.74 1869.3,-182.68"/>
</g>
<!-- SYM_LIST -->
<g id="node20" class="node">
<title>SYM_LIST</title>
<path fill="#6ee7b7" stroke="black" d="M2602.5,-173C2602.5,-173 2529.5,-173 2529.5,-173 2523.5,-173 2517.5,-167 2517.5,-161 2517.5,-161 2517.5,-137 2517.5,-137 2517.5,-131 2523.5,-125 2529.5,-125 2529.5,-125 2602.5,-125 2602.5,-125 2608.5,-125 2614.5,-131 2614.5,-137 2614.5,-137 2614.5,-161 2614.5,-161 2614.5,-167 2608.5,-173 2602.5,-173"/>
<text text-anchor="middle" x="2566" y="-161.8" font-family="Helvetica,sans-Serif" font-size="9.00">&#45;&#45;symbols</text>
<text text-anchor="middle" x="2566" y="-141.8" font-family="Helvetica,sans-Serif" font-size="9.00">List all symbols</text>
<text text-anchor="middle" x="2566" y="-131.8" font-family="Helvetica,sans-Serif" font-size="9.00">Active + archived</text>
</g>
<!-- Meridian&#45;&gt;SYM_LIST -->
<g id="edge19" class="edge">
<title>Meridian&#45;&gt;SYM_LIST</title>
<path fill="none" stroke="#2c7a7b" d="M1582.55,-242.95C1603.72,-232.2 1630.47,-220.57 1656,-215 1702.3,-204.89 2465.3,-225.34 2509,-207 2522.27,-201.43 2534.07,-191.15 2543.44,-180.83"/>
<polygon fill="#2c7a7b" stroke="#2c7a7b" points="2546.29,-182.88 2550.12,-173.01 2540.97,-178.34 2546.29,-182.88"/>
</g>
<!-- SYM_ADD -->
<g id="node21" class="node">
<title>SYM_ADD</title>
<path fill="#6ee7b7" stroke="black" d="M2487.5,-178C2487.5,-178 2380.5,-178 2380.5,-178 2374.5,-178 2368.5,-172 2368.5,-166 2368.5,-166 2368.5,-132 2368.5,-132 2368.5,-126 2374.5,-120 2380.5,-120 2380.5,-120 2487.5,-120 2487.5,-120 2493.5,-120 2499.5,-126 2499.5,-132 2499.5,-132 2499.5,-166 2499.5,-166 2499.5,-172 2493.5,-178 2487.5,-178"/>
<text text-anchor="middle" x="2434" y="-166.8" font-family="Helvetica,sans-Serif" font-size="9.00">&#45;&#45;symbols&#45;add &lt;list&gt;</text>
<text text-anchor="middle" x="2434" y="-146.8" font-family="Helvetica,sans-Serif" font-size="9.00">Add new symbols</text>
<text text-anchor="middle" x="2434" y="-136.8" font-family="Helvetica,sans-Serif" font-size="9.00">Options: &#45;&#45;no&#45;trades,</text>
<text text-anchor="middle" x="2434" y="-126.8" font-family="Helvetica,sans-Serif" font-size="9.00">&#45;&#45;no&#45;depth, &#45;&#45;depth&#45;levels</text>
</g>
<!-- Meridian&#45;&gt;SYM_ADD -->
<g id="edge20" class="edge">
<title>Meridian&#45;&gt;SYM_ADD</title>
<path fill="none" stroke="#2c7a7b" d="M1582.56,-242.97C1603.73,-232.23 1630.48,-220.6 1656,-215 1693.99,-206.66 2319.1,-219.28 2356,-207 2370.48,-202.18 2384.52,-193.59 2396.61,-184.51"/>
<polygon fill="#2c7a7b" stroke="#2c7a7b" points="2398.95,-187.12 2404.64,-178.19 2394.62,-181.62 2398.95,-187.12"/>
</g>
<!-- PKG_CREATE -->
<g id="node24" class="node">
<title>PKG_CREATE</title>
<path fill="#c4b5fd" stroke="black" d="M2924,-173C2924,-173 2838,-173 2838,-173 2832,-173 2826,-167 2826,-161 2826,-161 2826,-137 2826,-137 2826,-131 2832,-125 2838,-125 2838,-125 2924,-125 2924,-125 2930,-125 2936,-131 2936,-137 2936,-137 2936,-161 2936,-161 2936,-167 2930,-173 2924,-173"/>
<text text-anchor="middle" x="2881" y="-161.8" font-family="Helvetica,sans-Serif" font-size="9.00">&#45;&#45;package</text>
<text text-anchor="middle" x="2881" y="-141.8" font-family="Helvetica,sans-Serif" font-size="9.00">Create data package</text>
<text text-anchor="middle" x="2881" y="-131.8" font-family="Helvetica,sans-Serif" font-size="9.00">Portable archive</text>
</g>
<!-- Meridian&#45;&gt;PKG_CREATE -->
<g id="edge23" class="edge">
<title>Meridian&#45;&gt;PKG_CREATE</title>
<path fill="none" stroke="#805ad5" d="M1582.55,-242.92C1603.71,-232.17 1630.47,-220.54 1656,-215 1687.52,-208.16 2786.9,-218.58 2817,-207 2831.56,-201.4 2844.92,-190.83 2855.63,-180.3"/>
<polygon fill="#805ad5" stroke="#805ad5" points="2858.17,-182.7 2862.6,-173.08 2853.14,-177.84 2858.17,-182.7"/>
</g>
<!-- PKG_IMPORT -->
<g id="node25" class="node">
<title>PKG_IMPORT</title>
<path fill="#c4b5fd" stroke="black" d="M2795.5,-168C2795.5,-168 2686.5,-168 2686.5,-168 2680.5,-168 2674.5,-162 2674.5,-156 2674.5,-156 2674.5,-142 2674.5,-142 2674.5,-136 2680.5,-130 2686.5,-130 2686.5,-130 2795.5,-130 2795.5,-130 2801.5,-130 2807.5,-136 2807.5,-142 2807.5,-142 2807.5,-156 2807.5,-156 2807.5,-162 2801.5,-168 2795.5,-168"/>
<text text-anchor="middle" x="2741" y="-156.8" font-family="Helvetica,sans-Serif" font-size="9.00">&#45;&#45;import&#45;package &lt;path&gt;</text>
<text text-anchor="middle" x="2741" y="-136.8" font-family="Helvetica,sans-Serif" font-size="9.00">Import data package</text>
</g>
<!-- Meridian&#45;&gt;PKG_IMPORT -->
<g id="edge24" class="edge">
<title>Meridian&#45;&gt;PKG_IMPORT</title>
<path fill="none" stroke="#805ad5" d="M1582.55,-242.93C1603.72,-232.18 1630.47,-220.56 1656,-215 1710.61,-203.11 2608.89,-224.39 2662,-207 2681.8,-200.52 2700.84,-187.07 2715.26,-174.87"/>
<polygon fill="#805ad5" stroke="#805ad5" points="2717.57,-177.5 2722.77,-168.27 2712.95,-172.24 2717.57,-177.5"/>
</g>
<!-- HTTP_PORT -->
<g id="node13" class="node">
<title>HTTP_PORT</title>
<path fill="#9ae6b4" stroke="black" d="M1796.5,-79C1796.5,-79 1719.5,-79 1719.5,-79 1713.5,-79 1707.5,-73 1707.5,-67 1707.5,-67 1707.5,-33 1707.5,-33 1707.5,-27 1713.5,-21 1719.5,-21 1719.5,-21 1796.5,-21 1796.5,-21 1802.5,-21 1808.5,-27 1808.5,-33 1808.5,-33 1808.5,-67 1808.5,-67 1808.5,-73 1802.5,-79 1796.5,-79"/>
<text text-anchor="middle" x="1758" y="-67.8" font-family="Helvetica,sans-Serif" font-size="9.00">&#45;&#45;http&#45;port &lt;port&gt;</text>
<text text-anchor="middle" x="1758" y="-47.8" font-family="Helvetica,sans-Serif" font-size="9.00">Custom HTTP port</text>
<text text-anchor="middle" x="1758" y="-37.8" font-family="Helvetica,sans-Serif" font-size="9.00">Default: 8080</text>
<text text-anchor="middle" x="1758" y="-27.8" font-family="Helvetica,sans-Serif" font-size="9.00">Used with &#45;&#45;ui</text>
</g>
<!-- UI_MODE&#45;&gt;HTTP_PORT -->
<g id="edge13" class="edge">
<title>UI_MODE&#45;&gt;HTTP_PORT</title>
<path fill="none" stroke="#4a5568" stroke-dasharray="5,2" d="M1756.58,-119.94C1756.77,-110.48 1757,-99.73 1757.2,-89.6"/>
<polygon fill="#4a5568" stroke="#4a5568" points="1760.71,-89.4 1757.42,-79.33 1753.71,-89.26 1760.71,-89.4"/>
</g>
<!-- BACKFILL_OPTS -->
<g id="node15" class="node">
<title>BACKFILL_OPTS</title>
<path fill="#9ae6b4" stroke="black" d="M1677.5,-84C1677.5,-84 1562.5,-84 1562.5,-84 1556.5,-84 1550.5,-78 1550.5,-72 1550.5,-72 1550.5,-28 1550.5,-28 1550.5,-22 1556.5,-16 1562.5,-16 1562.5,-16 1677.5,-16 1677.5,-16 1683.5,-16 1689.5,-22 1689.5,-28 1689.5,-28 1689.5,-72 1689.5,-72 1689.5,-78 1683.5,-84 1677.5,-84"/>
<text text-anchor="middle" x="1620" y="-72.8" font-family="Helvetica,sans-Serif" font-size="9.00">&#45;&#45;backfill&#45;provider &lt;name&gt;</text>
<text text-anchor="middle" x="1620" y="-62.8" font-family="Helvetica,sans-Serif" font-size="9.00">&#45;&#45;backfill&#45;symbols &lt;list&gt;</text>
<text text-anchor="middle" x="1620" y="-52.8" font-family="Helvetica,sans-Serif" font-size="9.00">&#45;&#45;backfill&#45;from &lt;date&gt;</text>
<text text-anchor="middle" x="1620" y="-42.8" font-family="Helvetica,sans-Serif" font-size="9.00">&#45;&#45;backfill&#45;to &lt;date&gt;</text>
<text text-anchor="middle" x="1620" y="-22.8" font-family="Helvetica,sans-Serif" font-size="9.00">Backfill options</text>
</g>
<!-- BACKFILL&#45;&gt;BACKFILL_OPTS -->
<g id="edge14" class="edge">
<title>BACKFILL&#45;&gt;BACKFILL_OPTS</title>
<path fill="none" stroke="#4a5568" stroke-dasharray="5,2" d="M1615.74,-119.94C1616.23,-111.9 1616.79,-102.94 1617.33,-94.21"/>
<polygon fill="#4a5568" stroke="#4a5568" points="1620.83,-94.33 1617.95,-84.14 1613.84,-93.9 1620.83,-94.33"/>
</g>
<!-- SYM_REMOVE -->
<g id="node22" class="node">
<title>SYM_REMOVE</title>
<path fill="#a7f3d0" stroke="black" d="M2483.5,-69C2483.5,-69 2380.5,-69 2380.5,-69 2374.5,-69 2368.5,-63 2368.5,-57 2368.5,-57 2368.5,-43 2368.5,-43 2368.5,-37 2374.5,-31 2380.5,-31 2380.5,-31 2483.5,-31 2483.5,-31 2489.5,-31 2495.5,-37 2495.5,-43 2495.5,-43 2495.5,-57 2495.5,-57 2495.5,-63 2489.5,-69 2483.5,-69"/>
<text text-anchor="middle" x="2432" y="-57.8" font-family="Helvetica,sans-Serif" font-size="9.00">&#45;&#45;symbols&#45;remove &lt;list&gt;</text>
<text text-anchor="middle" x="2432" y="-37.8" font-family="Helvetica,sans-Serif" font-size="9.00">Remove symbols</text>
</g>
<!-- SYM_ADD&#45;&gt;SYM_REMOVE -->
<g id="edge21" class="edge">
<title>SYM_ADD&#45;&gt;SYM_REMOVE</title>
<path fill="none" stroke="#4a5568" stroke-dasharray="5,2" d="M2433.42,-119.94C2433.16,-107.18 2432.85,-92.1 2432.58,-79.31"/>
<polygon fill="#4a5568" stroke="#4a5568" points="2436.08,-79.12 2432.38,-69.2 2429.08,-79.27 2436.08,-79.12"/>
</g>
<!-- SYM_STATUS -->
<g id="node23" class="node">
<title>SYM_STATUS</title>
<path fill="#a7f3d0" stroke="black" d="M2638,-69C2638,-69 2526,-69 2526,-69 2520,-69 2514,-63 2514,-57 2514,-57 2514,-43 2514,-43 2514,-37 2520,-31 2526,-31 2526,-31 2638,-31 2638,-31 2644,-31 2650,-37 2650,-43 2650,-43 2650,-57 2650,-57 2650,-63 2644,-69 2638,-69"/>
<text text-anchor="middle" x="2582" y="-57.8" font-family="Helvetica,sans-Serif" font-size="9.00">&#45;&#45;symbol&#45;status &lt;symbol&gt;</text>
<text text-anchor="middle" x="2582" y="-37.8" font-family="Helvetica,sans-Serif" font-size="9.00">Check symbol status</text>
</g>
<!-- SYM_ADD&#45;&gt;SYM_STATUS -->
<g id="edge22" class="edge">
<title>SYM_ADD&#45;&gt;SYM_STATUS</title>
<path fill="none" stroke="#4a5568" stroke-dasharray="5,2" d="M2476.81,-119.94C2498.62,-105.65 2524.86,-88.45 2545.67,-74.81"/>
<polygon fill="#4a5568" stroke="#4a5568" points="2547.79,-77.61 2554.23,-69.2 2543.95,-71.75 2547.79,-77.61"/>
</g>
<!-- PKG_LIST -->
<g id="node26" class="node">
<title>PKG_LIST</title>
<path fill="#ddd6fe" stroke="black" d="M2778,-69C2778,-69 2686,-69 2686,-69 2680,-69 2674,-63 2674,-57 2674,-57 2674,-43 2674,-43 2674,-37 2680,-31 2686,-31 2686,-31 2778,-31 2778,-31 2784,-31 2790,-37 2790,-43 2790,-43 2790,-57 2790,-57 2790,-63 2784,-69 2778,-69"/>
<text text-anchor="middle" x="2732" y="-57.8" font-family="Helvetica,sans-Serif" font-size="9.00">&#45;&#45;list&#45;package &lt;path&gt;</text>
<text text-anchor="middle" x="2732" y="-37.8" font-family="Helvetica,sans-Serif" font-size="9.00">List package contents</text>
</g>
<!-- PKG_CREATE&#45;&gt;PKG_LIST -->
<g id="edge25" class="edge">
<title>PKG_CREATE&#45;&gt;PKG_LIST</title>
<path fill="none" stroke="#4a5568" stroke-dasharray="5,2" d="M2845.31,-124.77C2822.1,-109.66 2791.92,-90.01 2768.55,-74.79"/>
<polygon fill="#4a5568" stroke="#4a5568" points="2770.24,-71.72 2759.95,-69.2 2766.42,-77.58 2770.24,-71.72"/>
</g>
<!-- PKG_VALIDATE -->
<g id="node27" class="node">
<title>PKG_VALIDATE</title>
<path fill="#ddd6fe" stroke="black" d="M2934,-69C2934,-69 2820,-69 2820,-69 2814,-69 2808,-63 2808,-57 2808,-57 2808,-43 2808,-43 2808,-37 2814,-31 2820,-31 2820,-31 2934,-31 2934,-31 2940,-31 2946,-37 2946,-43 2946,-43 2946,-57 2946,-57 2946,-63 2940,-69 2934,-69"/>
<text text-anchor="middle" x="2877" y="-57.8" font-family="Helvetica,sans-Serif" font-size="9.00">&#45;&#45;validate&#45;package &lt;path&gt;</text>
<text text-anchor="middle" x="2877" y="-37.8" font-family="Helvetica,sans-Serif" font-size="9.00">Validate package integrity</text>
</g>
<!-- PKG_CREATE&#45;&gt;PKG_VALIDATE -->
<g id="edge26" class="edge">
<title>PKG_CREATE&#45;&gt;PKG_VALIDATE</title>
<path fill="none" stroke="#4a5568" stroke-dasharray="5,2" d="M2880.03,-124.52C2879.47,-110.94 2878.76,-93.75 2878.17,-79.41"/>
<polygon fill="#4a5568" stroke="#4a5568" points="2881.66,-78.95 2877.75,-69.1 2874.66,-79.24 2881.66,-78.95"/>
</g>
<!-- WF_NEW -->
<g id="node28" class="node">
<title>WF_NEW</title>
<polygon fill="#edf2f7" stroke="black" points="2403.5,-301 2226.5,-301 2226.5,-233 2409.5,-233 2409.5,-295 2403.5,-301"/>
<polyline fill="none" stroke="black" points="2403.5,-301 2403.5,-295 "/>
<polyline fill="none" stroke="black" points="2409.5,-295 2403.5,-295 "/>
<text text-anchor="middle" x="2318" y="-289.8" font-family="Helvetica,sans-Serif" font-size="9.00">New Installation:</text>
<text text-anchor="middle" x="2318" y="-269.8" font-family="Helvetica,sans-Serif" font-size="9.00">1. dotnet run &#45;&#45; &#45;&#45;wizard</text>
<text text-anchor="middle" x="2318" y="-259.8" font-family="Helvetica,sans-Serif" font-size="9.00">2. dotnet run &#45;&#45; &#45;&#45;validate&#45;credentials</text>
<text text-anchor="middle" x="2318" y="-249.8" font-family="Helvetica,sans-Serif" font-size="9.00">3. dotnet run &#45;&#45; &#45;&#45;dry&#45;run</text>
<text text-anchor="middle" x="2318" y="-239.8" font-family="Helvetica,sans-Serif" font-size="9.00">4. dotnet run &#45;&#45; &#45;&#45;ui</text>
</g>
<!-- WF_CI -->
<g id="node29" class="node">
<title>WF_CI</title>
<polygon fill="#edf2f7" stroke="black" points="2202,-301 2046,-301 2046,-233 2208,-233 2208,-295 2202,-301"/>
<polyline fill="none" stroke="black" points="2202,-301 2202,-295 "/>
<polyline fill="none" stroke="black" points="2208,-295 2202,-295 "/>
<text text-anchor="middle" x="2127" y="-289.8" font-family="Helvetica,sans-Serif" font-size="9.00">CI/CD Setup:</text>
<text text-anchor="middle" x="2127" y="-269.8" font-family="Helvetica,sans-Serif" font-size="9.00">1. Set environment variables</text>
<text text-anchor="middle" x="2127" y="-259.8" font-family="Helvetica,sans-Serif" font-size="9.00">2. dotnet run &#45;&#45; &#45;&#45;auto&#45;config</text>
<text text-anchor="middle" x="2127" y="-249.8" font-family="Helvetica,sans-Serif" font-size="9.00">3. dotnet run &#45;&#45; &#45;&#45;validate&#45;config</text>
<text text-anchor="middle" x="2127" y="-239.8" font-family="Helvetica,sans-Serif" font-size="9.00">4. dotnet run</text>
</g>
<!-- WF_DEBUG -->
<g id="node30" class="node">
<title>WF_DEBUG</title>
<polygon fill="#edf2f7" stroke="black" points="2021.5,-301 1856.5,-301 1856.5,-233 2027.5,-233 2027.5,-295 2021.5,-301"/>
<polyline fill="none" stroke="black" points="2021.5,-301 2021.5,-295 "/>
<polyline fill="none" stroke="black" points="2027.5,-295 2021.5,-295 "/>
<text text-anchor="middle" x="1942" y="-289.8" font-family="Helvetica,sans-Serif" font-size="9.00">Troubleshooting:</text>
<text text-anchor="middle" x="1942" y="-269.8" font-family="Helvetica,sans-Serif" font-size="9.00">1. dotnet run &#45;&#45; &#45;&#45;show&#45;config</text>
<text text-anchor="middle" x="1942" y="-259.8" font-family="Helvetica,sans-Serif" font-size="9.00">2. dotnet run &#45;&#45; &#45;&#45;test&#45;connectivity</text>
<text text-anchor="middle" x="1942" y="-249.8" font-family="Helvetica,sans-Serif" font-size="9.00">3. dotnet run &#45;&#45; &#45;&#45;quick&#45;check</text>
<text text-anchor="middle" x="1942" y="-239.8" font-family="Helvetica,sans-Serif" font-size="9.00">4. dotnet run &#45;&#45; &#45;&#45;error&#45;codes</text>
</g>
<!-- WF_BACKFILL -->
<g id="node31" class="node">
<title>WF_BACKFILL</title>
<polygon fill="#edf2f7" stroke="black" points="1832,-306 1668,-306 1668,-228 1838,-228 1838,-300 1832,-306"/>
<polyline fill="none" stroke="black" points="1832,-306 1832,-300 "/>
<polyline fill="none" stroke="black" points="1838,-300 1832,-300 "/>
<text text-anchor="middle" x="1753" y="-294.8" font-family="Helvetica,sans-Serif" font-size="9.00">Historical Backfill:</text>
<text text-anchor="middle" x="1753" y="-274.8" font-family="Helvetica,sans-Serif" font-size="9.00">1. dotnet run &#45;&#45; &#45;&#45;detect&#45;providers</text>
<text text-anchor="middle" x="1753" y="-264.8" font-family="Helvetica,sans-Serif" font-size="9.00">2. dotnet run &#45;&#45; &#45;&#45;backfill \</text>
<text text-anchor="middle" x="1753" y="-254.8" font-family="Helvetica,sans-Serif" font-size="9.00"> &#160;&#160;&#45;&#45;backfill&#45;provider alpaca \</text>
<text text-anchor="middle" x="1753" y="-244.8" font-family="Helvetica,sans-Serif" font-size="9.00"> &#160;&#160;&#45;&#45;backfill&#45;symbols SPY,QQQ \</text>
<text text-anchor="middle" x="1753" y="-234.8" font-family="Helvetica,sans-Serif" font-size="9.00"> &#160;&#160;&#45;&#45;backfill&#45;from 2024&#45;01&#45;01</text>
</g>
<!-- EXIT_CODES -->
<g id="node32" class="node">
<title>EXIT_CODES</title>
<path fill="#fecaca" stroke="black" d="M2545.5,-311C2545.5,-311 2446.5,-311 2446.5,-311 2440.5,-311 2434.5,-305 2434.5,-299 2434.5,-299 2434.5,-235 2434.5,-235 2434.5,-229 2440.5,-223 2446.5,-223 2446.5,-223 2545.5,-223 2545.5,-223 2551.5,-223 2557.5,-229 2557.5,-235 2557.5,-235 2557.5,-299 2557.5,-299 2557.5,-305 2551.5,-311 2545.5,-311"/>
<text text-anchor="middle" x="2496" y="-299.8" font-family="Helvetica,sans-Serif" font-size="9.00">Exit Codes:</text>
<text text-anchor="middle" x="2496" y="-279.8" font-family="Helvetica,sans-Serif" font-size="9.00">0 &#45; Success</text>
<text text-anchor="middle" x="2496" y="-269.8" font-family="Helvetica,sans-Serif" font-size="9.00">1 &#45; General error</text>
<text text-anchor="middle" x="2496" y="-259.8" font-family="Helvetica,sans-Serif" font-size="9.00">2 &#45; Configuration error</text>
<text text-anchor="middle" x="2496" y="-249.8" font-family="Helvetica,sans-Serif" font-size="9.00">3 &#45; Connection error</text>
<text text-anchor="middle" x="2496" y="-239.8" font-family="Helvetica,sans-Serif" font-size="9.00">4 &#45; Authentication error</text>
<text text-anchor="middle" x="2496" y="-229.8" font-family="Helvetica,sans-Serif" font-size="9.00">5 &#45; Validation failed</text>
</g>
<!-- L1 -->
<g id="node33" class="node">
<title>L1</title>
<path fill="#c4b5fd" stroke="black" d="M3288,-285C3288,-285 3258,-285 3258,-285 3252,-285 3246,-279 3246,-273 3246,-273 3246,-261 3246,-261 3246,-255 3252,-249 3258,-249 3258,-249 3288,-249 3288,-249 3294,-249 3300,-255 3300,-261 3300,-261 3300,-273 3300,-273 3300,-279 3294,-285 3288,-285"/>
<text text-anchor="middle" x="3273" y="-264.8" font-family="Helvetica,sans-Serif" font-size="9.00">Setup</text>
</g>
<!-- L2 -->
<g id="node34" class="node">
<title>L2</title>
<path fill="#93c5fd" stroke="black" d="M3216,-285C3216,-285 3176,-285 3176,-285 3170,-285 3164,-279 3164,-273 3164,-273 3164,-261 3164,-261 3164,-255 3170,-249 3176,-249 3176,-249 3216,-249 3216,-249 3222,-249 3228,-255 3228,-261 3228,-261 3228,-273 3228,-273 3228,-279 3222,-285 3216,-285"/>
<text text-anchor="middle" x="3196" y="-264.8" font-family="Helvetica,sans-Serif" font-size="9.00">Diagnostic</text>
</g>
<!-- L3 -->
<g id="node35" class="node">
<title>L3</title>
<path fill="#68d391" stroke="black" d="M3133.5,-285C3133.5,-285 3096.5,-285 3096.5,-285 3090.5,-285 3084.5,-279 3084.5,-273 3084.5,-273 3084.5,-261 3084.5,-261 3084.5,-255 3090.5,-249 3096.5,-249 3096.5,-249 3133.5,-249 3133.5,-249 3139.5,-249 3145.5,-255 3145.5,-261 3145.5,-261 3145.5,-273 3145.5,-273 3145.5,-279 3139.5,-285 3133.5,-285"/>
<text text-anchor="middle" x="3115" y="-264.8" font-family="Helvetica,sans-Serif" font-size="9.00">Operation</text>
</g>
<!-- L4 -->
<g id="node36" class="node">
<title>L4</title>
<path fill="#fbd38d" stroke="black" d="M3054,-285C3054,-285 2992,-285 2992,-285 2986,-285 2980,-279 2980,-273 2980,-273 2980,-261 2980,-261 2980,-255 2986,-249 2992,-249 2992,-249 3054,-249 3054,-249 3060,-249 3066,-255 3066,-261 3066,-261 3066,-273 3066,-273 3066,-279 3060,-285 3054,-285"/>
<text text-anchor="middle" x="3023" y="-264.8" font-family="Helvetica,sans-Serif" font-size="9.00">Documentation</text>
</g>
<!-- L5 -->
<g id="node37" class="node">
<title>L5</title>
<path fill="#6ee7b7" stroke="black" d="M2950,-285C2950,-285 2894,-285 2894,-285 2888,-285 2882,-279 2882,-273 2882,-273 2882,-261 2882,-261 2882,-255 2888,-249 2894,-249 2894,-249 2950,-249 2950,-249 2956,-249 2962,-255 2962,-261 2962,-261 2962,-273 2962,-273 2962,-279 2956,-285 2950,-285"/>
<text text-anchor="middle" x="2922" y="-264.8" font-family="Helvetica,sans-Serif" font-size="9.00">Symbol Mgmt</text>
</g>
<!-- L6 -->
<g id="node38" class="node">
<title>L6</title>
<path fill="#c4b5fd" stroke="black" d="M2852,-285C2852,-285 2822,-285 2822,-285 2816,-285 2810,-279 2810,-273 2810,-273 2810,-261 2810,-261 2810,-255 2816,-249 2822,-249 2822,-249 2852,-249 2852,-249 2858,-249 2864,-255 2864,-261 2864,-261 2864,-273 2864,-273 2864,-279 2858,-285 2852,-285"/>
<text text-anchor="middle" x="2837" y="-264.8" font-family="Helvetica,sans-Serif" font-size="9.00">Package</text>
</g>
<!-- ENV_NOTE -->
<g id="node39" class="node">
<title>ENV_NOTE</title>
<path fill="lightgrey" stroke="transparent" d="M2779.5,-306C2779.5,-306 2594.5,-306 2594.5,-306 2588.5,-306 2582.5,-300 2582.5,-294 2582.5,-294 2582.5,-240 2582.5,-240 2582.5,-234 2588.5,-228 2594.5,-228 2594.5,-228 2779.5,-228 2779.5,-228 2785.5,-228 2791.5,-234 2791.5,-240 2791.5,-240 2791.5,-294 2791.5,-294 2791.5,-300 2785.5,-306 2779.5,-306"/>
<text text-anchor="middle" x="2687" y="-294.8" font-family="Helvetica,sans-Serif" font-size="9.00">Environment Variables:</text>
<text text-anchor="middle" x="2687" y="-274.8" font-family="Helvetica,sans-Serif" font-size="9.00">ALPACA__KEYID, ALPACA__SECRETKEY</text>
<text text-anchor="middle" x="2687" y="-264.8" font-family="Helvetica,sans-Serif" font-size="9.00">POLYGON__APIKEY, TIINGO__TOKEN</text>
<text text-anchor="middle" x="2687" y="-254.8" font-family="Helvetica,sans-Serif" font-size="9.00">NYSE__APIKEY, etc.</text>
<text text-anchor="middle" x="2687" y="-234.8" font-family="Helvetica,sans-Serif" font-size="9.00">(Use double underscore for nested config)</text>
</g>
</g>
</svg>
