<?xml version="1.0" encoding="UTF-8" standalone="no"?>
<!DOCTYPE svg PUBLIC "-//W3C//DTD SVG 1.1//EN"
 "http://www.w3.org/Graphics/SVG/1.1/DTD/svg11.dtd">
<!-- Generated by graphviz version 2.43.0 (0)
 -->
<!-- Title: CLICommands Pages: 1 -->
<svg width="3389pt" height="454pt"
 viewBox="0.00 0.00 3389.00 454.00" xmlns="http://www.w3.org/2000/svg" xmlns:xlink="http://www.w3.org/1999/xlink">
<g id="graph0" class="graph" transform="scale(1 1) rotate(0) translate(36 418)">
<title>CLICommands</title>
<polygon fill="white" stroke="transparent" points="-36,36 -36,-418 3353,-418 3353,36 -36,36"/>
<text text-anchor="middle" x="1658.5" y="-368.4" font-family="Helvetica,sans-Serif" font-size="12.00">Meridian &#45; CLI Commands Reference</text>
<text text-anchor="middle" x="1658.5" y="-355.4" font-family="Helvetica,sans-Serif" font-size="12.00">All Available Flags and Options | v1.6.1</text>
<g id="clust1" class="cluster">
<title>cluster_setup</title>
<path fill="#ede9fe" stroke="#805ad5" d="M20,-112C20,-112 705,-112 705,-112 711,-112 717,-118 717,-124 717,-124 717,-195 717,-195 717,-201 711,-207 705,-207 705,-207 20,-207 20,-207 14,-207 8,-201 8,-195 8,-195 8,-124 8,-124 8,-118 14,-112 20,-112"/>
<text text-anchor="middle" x="362.5" y="-193.4" font-family="Helvetica,sans-Serif" font-size="12.00">Setup Commands (First&#45;Time Configuration)</text>
</g>
<g id="clust2" class="cluster">
<title>cluster_diagnostic</title>
<path fill="#dbeafe" stroke="#2b6cb0" d="M737,-112C737,-112 1522,-112 1522,-112 1528,-112 1534,-118 1534,-124 1534,-124 1534,-195 1534,-195 1534,-201 1528,-207 1522,-207 1522,-207 737,-207 737,-207 731,-207 725,-201 725,-195 725,-195 725,-124 725,-124 725,-118 731,-112 737,-112"/>
<text text-anchor="middle" x="1129.5" y="-193.4" font-family="Helvetica,sans-Serif" font-size="12.00">Diagnostic Commands (Health &amp; Validation)</text>
</g>
<g id="clust3" class="cluster">
<title>cluster_operation</title>
<path fill="#f0fff4" stroke="#38a169" d="M1554,-8C1554,-8 1839,-8 1839,-8 1845,-8 1851,-14 1851,-20 1851,-20 1851,-195 1851,-195 1851,-201 1845,-207 1839,-207 1839,-207 1554,-207 1554,-207 1548,-207 1542,-201 1542,-195 1542,-195 1542,-20 1542,-20 1542,-14 1548,-8 1554,-8"/>
<text text-anchor="middle" x="1696.5" y="-193.4" font-family="Helvetica,sans-Serif" font-size="12.00">Operation Commands (Runtime Modes)</text>
</g>
<g id="clust4" class="cluster">
<title>cluster_docs</title>
<path fill="#fffaf0" stroke="#ed8936" d="M1871,-112C1871,-112 2392,-112 2392,-112 2398,-112 2404,-118 2404,-124 2404,-124 2404,-195 2404,-195 2404,-201 2398,-207 2392,-207 2392,-207 1871,-207 1871,-207 1865,-207 1859,-201 1859,-195 1859,-195 1859,-124 1859,-124 1859,-118 1865,-112 1871,-112"/>
<text text-anchor="middle" x="2131.5" y="-193.4" font-family="Helvetica,sans-Serif" font-size="12.00">Documentation Commands (Help &amp; Info)</text>
</g>
<g id="clust5" class="cluster">
<title>cluster_symbols</title>
<path fill="#d1fae5" stroke="#2c7a7b" d="M2424,-23C2424,-23 2698,-23 2698,-23 2704,-23 2710,-29 2710,-35 2710,-35 2710,-195 2710,-195 2710,-201 2704,-207 2698,-207 2698,-207 2424,-207 2424,-207 2418,-207 2412,-201 2412,-195 2412,-195 2412,-35 2412,-35 2412,-29 2418,-23 2424,-23"/>
<text text-anchor="middle" x="2561" y="-193.4" font-family="Helvetica,sans-Serif" font-size="12.00">Symbol Management Commands</text>
</g>
<g id="clust6" class="cluster">
<title>cluster_packages</title>
<path fill="#faf5ff" stroke="#805ad5" d="M2730,-23C2730,-23 2994,-23 2994,-23 3000,-23 3006,-29 3006,-35 3006,-35 3006,-190 3006,-190 3006,-196 3000,-202 2994,-202 2994,-202 2730,-202 2730,-202 2724,-202 2718,-196 2718,-190 2718,-190 2718,-35 2718,-35 2718,-29 2724,-23 2730,-23"/>
<text text-anchor="middle" x="2862" y="-188.4" font-family="Helvetica,sans-Serif" font-size="12.00">Package Commands (Data Packaging)</text>
</g>
<g id="clust7" class="cluster">
<title>cluster_workflows</title>
<path fill="#f7fafc" stroke="#718096" d="M1673,-220C1673,-220 2407,-220 2407,-220 2413,-220 2419,-226 2419,-232 2419,-232 2419,-323 2419,-323 2419,-329 2413,-335 2407,-335 2407,-335 1673,-335 1673,-335 1667,-335 1661,-329 1661,-323 1661,-323 1661,-232 1661,-232 1661,-226 1667,-220 1673,-220"/>
<text text-anchor="middle" x="2040" y="-321.4" font-family="Helvetica,sans-Serif" font-size="12.00">Common Workflows</text>
</g>
<g id="clust8" class="cluster">
<title>cluster_exit</title>
<path fill="#fee2e2" stroke="#e53e3e" d="M2439,-215C2439,-215 2555,-215 2555,-215 2561,-215 2567,-221 2567,-227 2567,-227 2567,-328 2567,-328 2567,-334 2561,-340 2555,-340 2555,-340 2439,-340 2439,-340 2433,-340 2427,-334 2427,-328 2427,-328 2427,-227 2427,-227 2427,-221 2433,-215 2439,-215"/>
<text text-anchor="middle" x="2497" y="-326.4" font-family="Helvetica,sans-Serif" font-size="12.00">Exit Codes</text>
</g>
<g id="clust9" class="cluster">
<title>cluster_legend</title>
<path fill="#fafafa" stroke="#666666" d="M2587,-220C2587,-220 3297,-220 3297,-220 3303,-220 3309,-226 3309,-232 3309,-232 3309,-323 3309,-323 3309,-329 3303,-335 3297,-335 3297,-335 2587,-335 2587,-335 2581,-335 2575,-329 2575,-323 2575,-323 2575,-232 2575,-232 2575,-226 2581,-220 2587,-220"/>
<text text-anchor="middle" x="2942" y="-321.4" font-family="Helvetica,sans-Serif" font-size="12.00">Legend</text>
</g>
<!-- Meridian -->
<g id="node1" class="node">
<title>Meridian</title>
<path fill="#438dd5" stroke="black" d="M1639,-291C1639,-291 1447,-291 1447,-291 1441,-291 1435,-285 1435,-279 1435,-279 1435,-255 1435,-255 1435,-249 1441,-243 1447,-243 1447,-243 1639,-243 1639,-243 1645,-243 1651,-249 1651,-255 1651,-255 1651,-279 1651,-279 1651,-285 1645,-291 1639,-291"/>
<text text-anchor="middle" x="1543" y="-279.8" font-family="Helvetica,sans-Serif" font-size="9.00" fill="white">dotnet run &#45;&#45;project src/Meridian</text>
<text text-anchor="middle" x="1543" y="-259.8" font-family="Helvetica,sans-Serif" font-size="9.00" fill="white">Meridian CLI</text>
<text text-anchor="middle" x="1543" y="-249.8" font-family="Helvetica,sans-Serif" font-size="9.00" fill="white">.NET 9.0 | Cross&#45;Platform</text>
</g>
<!-- WIZARD -->
<g id="node2" class="node">
<title>WIZARD</title>
<path fill="#c4b5fd" stroke="black" d="M696.5,-178C696.5,-178 527.5,-178 527.5,-178 521.5,-178 515.5,-172 515.5,-166 515.5,-166 515.5,-132 515.5,-132 515.5,-126 521.5,-120 527.5,-120 527.5,-120 696.5,-120 696.5,-120 702.5,-120 708.5,-126 708.5,-132 708.5,-132 708.5,-166 708.5,-166 708.5,-172 702.5,-178 696.5,-178"/>
<text text-anchor="middle" x="612" y="-166.8" font-family="Helvetica,sans-Serif" font-size="9.00">&#45;&#45;wizard</text>
<text text-anchor="middle" x="612" y="-146.8" font-family="Helvetica,sans-Serif" font-size="9.00">Interactive 8&#45;step configuration wizard</text>
<text text-anchor="middle" x="612" y="-136.8" font-family="Helvetica,sans-Serif" font-size="9.00">Guides through all settings</text>
<text text-anchor="middle" x="612" y="-126.8" font-family="Helvetica,sans-Serif" font-size="9.00">Generates appsettings.json</text>
</g>
<!-- Meridian&#45;&gt;WIZARD -->
<g id="edge1" class="edge">
<title>Meridian&#45;&gt;WIZARD</title>
<path fill="none" stroke="#805ad5" d="M1434.85,-263.7C1243.26,-258.72 852.09,-244.23 721,-207 701.67,-201.51 681.82,-192.35 664.45,-182.97"/>
<polygon fill="#805ad5" stroke="#805ad5" points="666.05,-179.85 655.61,-178.06 662.65,-185.97 666.05,-179.85"/>
</g>
<!-- AUTO_CONFIG -->
<g id="node3" class="node">
<title>AUTO_CONFIG</title>
<path fill="#c4b5fd" stroke="black" d="M485.5,-178C485.5,-178 348.5,-178 348.5,-178 342.5,-178 336.5,-172 336.5,-166 336.5,-166 336.5,-132 336.5,-132 336.5,-126 342.5,-120 348.5,-120 348.5,-120 485.5,-120 485.5,-120 491.5,-120 497.5,-126 497.5,-132 497.5,-132 497.5,-166 497.5,-166 497.5,-172 491.5,-178 485.5,-178"/>
<text text-anchor="middle" x="417" y="-166.8" font-family="Helvetica,sans-Serif" font-size="9.00">&#45;&#45;auto&#45;config</text>
<text text-anchor="middle" x="417" y="-146.8" font-family="Helvetica,sans-Serif" font-size="9.00">Quick auto&#45;configuration</text>
<text text-anchor="middle" x="417" y="-136.8" font-family="Helvetica,sans-Serif" font-size="9.00">Detects providers from env vars</text>
<text text-anchor="middle" x="417" y="-126.8" font-family="Helvetica,sans-Serif" font-size="9.00">Generates minimal config</text>
</g>
<!-- Meridian&#45;&gt;AUTO_CONFIG -->
<g id="edge2" class="edge">
<title>Meridian&#45;&gt;AUTO_CONFIG</title>
<path fill="none" stroke="#805ad5" d="M1434.58,-266.68C1205.02,-267.02 677.02,-261.6 507,-207 490.81,-201.8 474.65,-192.99 460.57,-183.82"/>
<polygon fill="#805ad5" stroke="#805ad5" points="462.35,-180.8 452.1,-178.1 458.43,-186.6 462.35,-180.8"/>
</g>
<!-- GEN_CONFIG -->
<g id="node4" class="node">
<title>GEN_CONFIG</title>
<path fill="#c4b5fd" stroke="black" d="M306.5,-178C306.5,-178 189.5,-178 189.5,-178 183.5,-178 177.5,-172 177.5,-166 177.5,-166 177.5,-132 177.5,-132 177.5,-126 183.5,-120 189.5,-120 189.5,-120 306.5,-120 306.5,-120 312.5,-120 318.5,-126 318.5,-132 318.5,-132 318.5,-166 318.5,-166 318.5,-172 312.5,-178 306.5,-178"/>
<text text-anchor="middle" x="248" y="-166.8" font-family="Helvetica,sans-Serif" font-size="9.00">&#45;&#45;generate&#45;config &lt;type&gt;</text>
<text text-anchor="middle" x="248" y="-146.8" font-family="Helvetica,sans-Serif" font-size="9.00">Generate config templates</text>
<text text-anchor="middle" x="248" y="-136.8" font-family="Helvetica,sans-Serif" font-size="9.00">Types: minimal, full, alpaca,</text>
<text text-anchor="middle" x="248" y="-126.8" font-family="Helvetica,sans-Serif" font-size="9.00">backfill, production, docker</text>
</g>
<!-- Meridian&#45;&gt;GEN_CONFIG -->
<g id="edge3" class="edge">
<title>Meridian&#45;&gt;GEN_CONFIG</title>
<path fill="none" stroke="#805ad5" d="M1434.98,-264.27C1156.72,-259.3 429.89,-243.02 327,-207 312.6,-201.96 298.55,-193.4 286.38,-184.42"/>
<polygon fill="#805ad5" stroke="#805ad5" points="288.33,-181.5 278.27,-178.17 284.06,-187.05 288.33,-181.5"/>
</g>
<!-- DETECT -->
<g id="node5" class="node">
<title>DETECT</title>
<path fill="#c4b5fd" stroke="black" d="M147.5,-178C147.5,-178 28.5,-178 28.5,-178 22.5,-178 16.5,-172 16.5,-166 16.5,-166 16.5,-132 16.5,-132 16.5,-126 22.5,-120 28.5,-120 28.5,-120 147.5,-120 147.5,-120 153.5,-120 159.5,-126 159.5,-132 159.5,-132 159.5,-166 159.5,-166 159.5,-172 153.5,-178 147.5,-178"/>
<text text-anchor="middle" x="88" y="-166.8" font-family="Helvetica,sans-Serif" font-size="9.00">&#45;&#45;detect&#45;providers</text>
<text text-anchor="middle" x="88" y="-146.8" font-family="Helvetica,sans-Serif" font-size="9.00">Scan environment variables</text>
<text text-anchor="middle" x="88" y="-136.8" font-family="Helvetica,sans-Serif" font-size="9.00">Show available providers</text>
<text text-anchor="middle" x="88" y="-126.8" font-family="Helvetica,sans-Serif" font-size="9.00">Display capabilities</text>
</g>
<!-- Meridian&#45;&gt;DETECT -->
<g id="edge4" class="edge">
<title>Meridian&#45;&gt;DETECT</title>
<path fill="none" stroke="#805ad5" d="M1434.83,-264.89C1131.34,-261.28 286.31,-247.65 168,-207 153.45,-202 139.23,-193.45 126.9,-184.47"/>
<polygon fill="#805ad5" stroke="#805ad5" points="128.77,-181.49 118.69,-178.22 124.53,-187.06 128.77,-181.49"/>
</g>
<!-- VAL_CREDS -->
<g id="node6" class="node">
<title>VAL_CREDS</title>
<path fill="#93c5fd" stroke="black" d="M1514,-178C1514,-178 1428,-178 1428,-178 1422,-178 1416,-172 1416,-166 1416,-166 1416,-132 1416,-132 1416,-126 1422,-120 1428,-120 1428,-120 1514,-120 1514,-120 1520,-120 1526,-126 1526,-132 1526,-132 1526,-166 1526,-166 1526,-172 1520,-178 1514,-178"/>
<text text-anchor="middle" x="1471" y="-166.8" font-family="Helvetica,sans-Serif" font-size="9.00">&#45;&#45;validate&#45;credentials</text>
<text text-anchor="middle" x="1471" y="-146.8" font-family="Helvetica,sans-Serif" font-size="9.00">Test API credentials</text>
<text text-anchor="middle" x="1471" y="-136.8" font-family="Helvetica,sans-Serif" font-size="9.00">Validate all providers</text>
<text text-anchor="middle" x="1471" y="-126.8" font-family="Helvetica,sans-Serif" font-size="9.00">Show account info</text>
</g>
<!-- Meridian&#45;&gt;VAL_CREDS -->
<g id="edge5" class="edge">
<title>Meridian&#45;&gt;VAL_CREDS</title>
<path fill="none" stroke="#2b6cb0" d="M1528.6,-242.8C1518.66,-226.78 1505.22,-205.13 1493.83,-186.78"/>
<polygon fill="#2b6cb0" stroke="#2b6cb0" points="1496.67,-184.72 1488.42,-178.07 1490.72,-188.41 1496.67,-184.72"/>
</g>
<!-- TEST_CONN -->
<g id="node7" class="node">
<title>TEST_CONN</title>
<path fill="#93c5fd" stroke="black" d="M1386,-178C1386,-178 1278,-178 1278,-178 1272,-178 1266,-172 1266,-166 1266,-166 1266,-132 1266,-132 1266,-126 1272,-120 1278,-120 1278,-120 1386,-120 1386,-120 1392,-120 1398,-126 1398,-132 1398,-132 1398,-166 1398,-166 1398,-172 1392,-178 1386,-178"/>
<text text-anchor="middle" x="1332" y="-166.8" font-family="Helvetica,sans-Serif" font-size="9.00">&#45;&#45;test&#45;connectivity</text>
<text text-anchor="middle" x="1332" y="-146.8" font-family="Helvetica,sans-Serif" font-size="9.00">Test network connectivity</text>
<text text-anchor="middle" x="1332" y="-136.8" font-family="Helvetica,sans-Serif" font-size="9.00">Check DNS resolution</text>
<text text-anchor="middle" x="1332" y="-126.8" font-family="Helvetica,sans-Serif" font-size="9.00">Measure response times</text>
</g>
<!-- Meridian&#45;&gt;TEST_CONN -->
<g id="edge6" class="edge">
<title>Meridian&#45;&gt;TEST_CONN</title>
<path fill="none" stroke="#2b6cb0" d="M1481.21,-242.88C1457.39,-233.03 1430.32,-220.65 1407,-207 1395.75,-200.42 1384.24,-192.41 1373.71,-184.5"/>
<polygon fill="#2b6cb0" stroke="#2b6cb0" points="1375.58,-181.52 1365.51,-178.21 1371.32,-187.07 1375.58,-181.52"/>
</g>
<!-- QUICK_CHECK -->
<g id="node8" class="node">
<title>QUICK_CHECK</title>
<path fill="#93c5fd" stroke="black" d="M1235.5,-178C1235.5,-178 1130.5,-178 1130.5,-178 1124.5,-178 1118.5,-172 1118.5,-166 1118.5,-166 1118.5,-132 1118.5,-132 1118.5,-126 1124.5,-120 1130.5,-120 1130.5,-120 1235.5,-120 1235.5,-120 1241.5,-120 1247.5,-126 1247.5,-132 1247.5,-132 1247.5,-166 1247.5,-166 1247.5,-172 1241.5,-178 1235.5,-178"/>
<text text-anchor="middle" x="1183" y="-166.8" font-family="Helvetica,sans-Serif" font-size="9.00">&#45;&#45;quick&#45;check</text>
<text text-anchor="middle" x="1183" y="-146.8" font-family="Helvetica,sans-Serif" font-size="9.00">Fast health diagnostics</text>
<text text-anchor="middle" x="1183" y="-136.8" font-family="Helvetica,sans-Serif" font-size="9.00">Check: disk, symbols,</text>
<text text-anchor="middle" x="1183" y="-126.8" font-family="Helvetica,sans-Serif" font-size="9.00">credentials, compression</text>
</g>
<!-- Meridian&#45;&gt;QUICK_CHECK -->
<g id="edge7" class="edge">
<title>Meridian&#45;&gt;QUICK_CHECK</title>
<path fill="none" stroke="#2b6cb0" d="M1434.8,-255.41C1379.71,-247.15 1312.76,-232.57 1257,-207 1244.43,-201.24 1232.03,-192.99 1221.07,-184.55"/>
<polygon fill="#2b6cb0" stroke="#2b6cb0" points="1222.99,-181.61 1212.99,-178.1 1218.62,-187.08 1222.99,-181.61"/>
</g>
<!-- VAL_CONFIG -->
<g id="node9" class="node">
<title>VAL_CONFIG</title>
<path fill="#93c5fd" stroke="black" d="M1088,-178C1088,-178 996,-178 996,-178 990,-178 984,-172 984,-166 984,-166 984,-132 984,-132 984,-126 990,-120 996,-120 996,-120 1088,-120 1088,-120 1094,-120 1100,-126 1100,-132 1100,-132 1100,-166 1100,-166 1100,-172 1094,-178 1088,-178"/>
<text text-anchor="middle" x="1042" y="-166.8" font-family="Helvetica,sans-Serif" font-size="9.00">&#45;&#45;validate&#45;config</text>
<text text-anchor="middle" x="1042" y="-146.8" font-family="Helvetica,sans-Serif" font-size="9.00">Validate configuration</text>
<text text-anchor="middle" x="1042" y="-136.8" font-family="Helvetica,sans-Serif" font-size="9.00">Check required fields</text>
<text text-anchor="middle" x="1042" y="-126.8" font-family="Helvetica,sans-Serif" font-size="9.00">No startup</text>
</g>
<!-- Meridian&#45;&gt;VAL_CONFIG -->
<g id="edge8" class="edge">
<title>Meridian&#45;&gt;VAL_CONFIG</title>
<path fill="none" stroke="#2b6cb0" d="M1434.97,-258.16C1326.14,-249.04 1166.46,-231.98 1110,-207 1097.88,-201.64 1086.23,-193.45 1076.1,-184.93"/>
<polygon fill="#2b6cb0" stroke="#2b6cb0" points="1078.14,-182.06 1068.33,-178.08 1073.52,-187.32 1078.14,-182.06"/>
</g>
<!-- DRY_RUN -->
<g id="node10" class="node">
<title>DRY_RUN</title>
<path fill="#93c5fd" stroke="black" d="M954,-178C954,-178 874,-178 874,-178 868,-178 862,-172 862,-166 862,-166 862,-132 862,-132 862,-126 868,-120 874,-120 874,-120 954,-120 954,-120 960,-120 966,-126 966,-132 966,-132 966,-166 966,-166 966,-172 960,-178 954,-178"/>
<text text-anchor="middle" x="914" y="-166.8" font-family="Helvetica,sans-Serif" font-size="9.00">&#45;&#45;dry&#45;run</text>
<text text-anchor="middle" x="914" y="-146.8" font-family="Helvetica,sans-Serif" font-size="9.00">Test initialization</text>
<text text-anchor="middle" x="914" y="-136.8" font-family="Helvetica,sans-Serif" font-size="9.00">Validate everything</text>
<text text-anchor="middle" x="914" y="-126.8" font-family="Helvetica,sans-Serif" font-size="9.00">No data collection</text>
</g>
<!-- Meridian&#45;&gt;DRY_RUN -->
<g id="edge9" class="edge">
<title>Meridian&#45;&gt;DRY_RUN</title>
<path fill="none" stroke="#2b6cb0" d="M1434.82,-262.92C1293.43,-257.51 1054.45,-243.2 975,-207 963.67,-201.84 953.07,-193.72 943.99,-185.21"/>
<polygon fill="#2b6cb0" stroke="#2b6cb0" points="946.3,-182.57 936.73,-178.02 941.38,-187.55 946.3,-182.57"/>
</g>
<!-- SELFTEST -->
<g id="node11" class="node">
<title>SELFTEST</title>
<path fill="#93c5fd" stroke="black" d="M831.5,-173C831.5,-173 744.5,-173 744.5,-173 738.5,-173 732.5,-167 732.5,-161 732.5,-161 732.5,-137 732.5,-137 732.5,-131 738.5,-125 744.5,-125 744.5,-125 831.5,-125 831.5,-125 837.5,-125 843.5,-131 843.5,-137 843.5,-137 843.5,-161 843.5,-161 843.5,-167 837.5,-173 831.5,-173"/>
<text text-anchor="middle" x="788" y="-161.8" font-family="Helvetica,sans-Serif" font-size="9.00">&#45;&#45;selftest</text>
<text text-anchor="middle" x="788" y="-141.8" font-family="Helvetica,sans-Serif" font-size="9.00">Run self&#45;tests</text>
<text text-anchor="middle" x="788" y="-131.8" font-family="Helvetica,sans-Serif" font-size="9.00">Validate components</text>
</g>
<!-- Meridian&#45;&gt;SELFTEST -->
<g id="edge10" class="edge">
<title>Meridian&#45;&gt;SELFTEST</title>
<path fill="none" stroke="#2b6cb0" d="M1434.79,-264.92C1267.55,-261.89 954.9,-250.4 853,-207 838.89,-200.99 825.68,-190.69 814.91,-180.49"/>
<polygon fill="#2b6cb0" stroke="#2b6cb0" points="817.08,-177.71 807.52,-173.14 812.15,-182.68 817.08,-177.71"/>
</g>
<!-- UI_MODE -->
<g id="node12" class="node">
<title>UI_MODE</title>
<path fill="#68d391" stroke="black" d="M1830,-178C1830,-178 1710,-178 1710,-178 1704,-178 1698,-172 1698,-166 1698,-166 1698,-132 1698,-132 1698,-126 1704,-120 1710,-120 1710,-120 1830,-120 1830,-120 1836,-120 1842,-126 1842,-132 1842,-132 1842,-166 1842,-166 1842,-172 1836,-178 1830,-178"/>
<text text-anchor="middle" x="1770" y="-166.8" font-family="Helvetica,sans-Serif" font-size="9.00">&#45;&#45;mode &lt;desktop|headless&gt;</text>
<text text-anchor="middle" x="1770" y="-146.8" font-family="Helvetica,sans-Serif" font-size="9.00">Choose runtime surface</text>
<text text-anchor="middle" x="1770" y="-136.8" font-family="Helvetica,sans-Serif" font-size="9.00">desktop starts local API host</text>
<text text-anchor="middle" x="1770" y="-126.8" font-family="Helvetica,sans-Serif" font-size="9.00">headless disables HTTP</text>
</g>
<!-- Meridian&#45;&gt;UI_MODE -->
<g id="edge11" class="edge">
<title>Meridian&#45;&gt;UI_MODE</title>
<path fill="none" stroke="#38a169" d="M1589.7,-242.97C1610.05,-233.5 1634.39,-222.91 1657,-215 1670.43,-210.3 1675.07,-212.93 1688,-207 1701.44,-200.83 1715.04,-192.45 1727.18,-184.01"/>
<polygon fill="#38a169" stroke="#38a169" points="1729.24,-186.84 1735.34,-178.18 1725.17,-181.14 1729.24,-186.84"/>
</g>
<!-- BACKFILL -->
<g id="node14" class="node">
<title>BACKFILL</title>
<path fill="#68d391" stroke="black" d="M1667,-178C1667,-178 1563,-178 1563,-178 1557,-178 1551,-172 1551,-166 1551,-166 1551,-132 1551,-132 1551,-126 1557,-120 1563,-120 1563,-120 1667,-120 1667,-120 1673,-120 1679,-126 1679,-132 1679,-132 1679,-166 1679,-166 1679,-172 1673,-178 1667,-178"/>
<text text-anchor="middle" x="1615" y="-166.8" font-family="Helvetica,sans-Serif" font-size="9.00">&#45;&#45;backfill</text>
<text text-anchor="middle" x="1615" y="-146.8" font-family="Helvetica,sans-Serif" font-size="9.00">Run historical backfill</text>
<text text-anchor="middle" x="1615" y="-136.8" font-family="Helvetica,sans-Serif" font-size="9.00">Requires provider config</text>
<text text-anchor="middle" x="1615" y="-126.8" font-family="Helvetica,sans-Serif" font-size="9.00">No streaming</text>
</g>
<!-- Meridian&#45;&gt;BACKFILL -->
<g id="edge12" class="edge">
<title>Meridian&#45;&gt;BACKFILL</title>
<path fill="none" stroke="#38a169" d="M1557.4,-242.8C1567.34,-226.78 1580.78,-205.13 1592.17,-186.78"/>
<polygon fill="#38a169" stroke="#38a169" points="1595.28,-188.41 1597.58,-178.07 1589.33,-184.72 1595.28,-188.41"/>
</g>
<!-- SHOW_CONFIG -->
<g id="node16" class="node">
<title>SHOW_CONFIG</title>
<path fill="#fbd38d" stroke="black" d="M2384,-178C2384,-178 2286,-178 2286,-178 2280,-178 2274,-172 2274,-166 2274,-166 2274,-132 2274,-132 2274,-126 2280,-120 2286,-120 2286,-120 2384,-120 2384,-120 2390,-120 2396,-126 2396,-132 2396,-132 2396,-166 2396,-166 2396,-172 2390,-178 2384,-178"/>
<text text-anchor="middle" x="2335" y="-166.8" font-family="Helvetica,sans-Serif" font-size="9.00">&#45;&#45;show&#45;config</text>
<text text-anchor="middle" x="2335" y="-146.8" font-family="Helvetica,sans-Serif" font-size="9.00">Display current config</text>
<text text-anchor="middle" x="2335" y="-136.8" font-family="Helvetica,sans-Serif" font-size="9.00">Mask sensitive values</text>
<text text-anchor="middle" x="2335" y="-126.8" font-family="Helvetica,sans-Serif" font-size="9.00">Show effective settings</text>
</g>
<!-- Meridian&#45;&gt;SHOW_CONFIG -->
<g id="edge15" class="edge">
<title>Meridian&#45;&gt;SHOW_CONFIG</title>
<path fill="none" stroke="#ed8936" d="M1583.56,-242.99C1604.73,-232.25 1631.49,-220.62 1657,-215 1689.99,-207.73 2233.25,-218.53 2265,-207 2278.15,-202.23 2290.64,-193.85 2301.33,-184.97"/>
<polygon fill="#ed8936" stroke="#ed8936" points="2303.92,-187.35 2309.13,-178.13 2299.31,-182.09 2303.92,-187.35"/>
</g>
<!-- ERROR_CODES -->
<g id="node17" class="node">
<title>ERROR_CODES</title>
<path fill="#fbd38d" stroke="black" d="M2243.5,-178C2243.5,-178 2128.5,-178 2128.5,-178 2122.5,-178 2116.5,-172 2116.5,-166 2116.5,-166 2116.5,-132 2116.5,-132 2116.5,-126 2122.5,-120 2128.5,-120 2128.5,-120 2243.5,-120 2243.5,-120 2249.5,-120 2255.5,-126 2255.5,-132 2255.5,-132 2255.5,-166 2255.5,-166 2255.5,-172 2249.5,-178 2243.5,-178"/>
<text text-anchor="middle" x="2186" y="-166.8" font-family="Helvetica,sans-Serif" font-size="9.00">&#45;&#45;error&#45;codes</text>
<text text-anchor="middle" x="2186" y="-146.8" font-family="Helvetica,sans-Serif" font-size="9.00">List all error codes</text>
<text text-anchor="middle" x="2186" y="-136.8" font-family="Helvetica,sans-Serif" font-size="9.00">MERIDIAN&#45;XXX&#45;NNN format</text>
<text text-anchor="middle" x="2186" y="-126.8" font-family="Helvetica,sans-Serif" font-size="9.00">Troubleshooting tips</text>
</g>
<!-- Meridian&#45;&gt;ERROR_CODES -->
<g id="edge16" class="edge">
<title>Meridian&#45;&gt;ERROR_CODES</title>
<path fill="none" stroke="#ed8936" d="M1583.83,-242.9C1604.97,-232.22 1631.6,-220.66 1657,-215 1705.92,-204.1 2060.5,-222.98 2108,-207 2122.47,-202.14 2136.5,-193.53 2148.59,-184.45"/>
<polygon fill="#ed8936" stroke="#ed8936" points="2150.93,-187.06 2156.63,-178.13 2146.6,-181.56 2150.93,-187.06"/>
</g>
<!-- HELP -->
<g id="node18" class="node">
<title>HELP</title>
<path fill="#fbd38d" stroke="black" d="M2086.5,-178C2086.5,-178 2003.5,-178 2003.5,-178 1997.5,-178 1991.5,-172 1991.5,-166 1991.5,-166 1991.5,-132 1991.5,-132 1991.5,-126 1997.5,-120 2003.5,-120 2003.5,-120 2086.5,-120 2086.5,-120 2092.5,-120 2098.5,-126 2098.5,-132 2098.5,-132 2098.5,-166 2098.5,-166 2098.5,-172 2092.5,-178 2086.5,-178"/>
<text text-anchor="middle" x="2045" y="-166.8" font-family="Helvetica,sans-Serif" font-size="9.00">&#45;&#45;help</text>
<text text-anchor="middle" x="2045" y="-146.8" font-family="Helvetica,sans-Serif" font-size="9.00">Show all commands</text>
<text text-anchor="middle" x="2045" y="-136.8" font-family="Helvetica,sans-Serif" font-size="9.00">Usage examples</text>
<text text-anchor="middle" x="2045" y="-126.8" font-family="Helvetica,sans-Serif" font-size="9.00">Version info</text>
</g>
<!-- Meridian&#45;&gt;HELP -->
<g id="edge17" class="edge">
<title>Meridian&#45;&gt;HELP</title>
<path fill="none" stroke="#ed8936" d="M1583.85,-242.98C1604.99,-232.31 1631.62,-220.74 1657,-215 1692.34,-207 1949.41,-220.57 1983,-207 1994.87,-202.2 2005.88,-194.02 2015.22,-185.32"/>
<polygon fill="#ed8936" stroke="#ed8936" points="2017.68,-187.81 2022.34,-178.29 2012.77,-182.83 2017.68,-187.81"/>
</g>
<!-- VERSION -->
<g id="node19" class="node">
<title>VERSION</title>
<path fill="#fbd38d" stroke="black" d="M1961.5,-173C1961.5,-173 1878.5,-173 1878.5,-173 1872.5,-173 1866.5,-167 1866.5,-161 1866.5,-161 1866.5,-137 1866.5,-137 1866.5,-131 1872.5,-125 1878.5,-125 1878.5,-125 1961.5,-125 1961.5,-125 1967.5,-125 1973.5,-131 1973.5,-137 1973.5,-137 1973.5,-161 1973.5,-161 1973.5,-167 1967.5,-173 1961.5,-173"/>
<text text-anchor="middle" x="1920" y="-161.8" font-family="Helvetica,sans-Serif" font-size="9.00">&#45;&#45;version</text>
<text text-anchor="middle" x="1920" y="-141.8" font-family="Helvetica,sans-Serif" font-size="9.00">Show version: 1.6.1</text>
<text text-anchor="middle" x="1920" y="-131.8" font-family="Helvetica,sans-Serif" font-size="9.00">.NET runtime info</text>
</g>
<!-- Meridian&#45;&gt;VERSION -->
<g id="edge18" class="edge">
<title>Meridian&#45;&gt;VERSION</title>
<path fill="none" stroke="#ed8936" d="M1584.42,-242.88C1605.48,-232.33 1631.88,-220.9 1657,-215 1699.87,-204.94 1814.11,-223.34 1855,-207 1869.5,-201.21 1882.94,-190.71 1893.8,-180.3"/>
<polygon fill="#ed8936" stroke="#ed8936" points="1896.32,-182.72 1900.88,-173.15 1891.35,-177.79 1896.32,-182.72"/>
</g>
<!-- SYM_LIST -->
<g id="node20" class="node">
<title>SYM_LIST</title>
<path fill="#6ee7b7" stroke="black" d="M2654.5,-173C2654.5,-173 2581.5,-173 2581.5,-173 2575.5,-173 2569.5,-167 2569.5,-161 2569.5,-161 2569.5,-137 2569.5,-137 2569.5,-131 2575.5,-125 2581.5,-125 2581.5,-125 2654.5,-125 2654.5,-125 2660.5,-125 2666.5,-131 2666.5,-137 2666.5,-137 2666.5,-161 2666.5,-161 2666.5,-167 2660.5,-173 2654.5,-173"/>
<text text-anchor="middle" x="2618" y="-161.8" font-family="Helvetica,sans-Serif" font-size="9.00">&#45;&#45;symbols</text>
<text text-anchor="middle" x="2618" y="-141.8" font-family="Helvetica,sans-Serif" font-size="9.00">List all symbols</text>
<text text-anchor="middle" x="2618" y="-131.8" font-family="Helvetica,sans-Serif" font-size="9.00">Active + archived</text>
</g>
<!-- Meridian&#45;&gt;SYM_LIST -->
<g id="edge19" class="edge">
<title>Meridian&#45;&gt;SYM_LIST</title>
<path fill="none" stroke="#2c7a7b" d="M1583.55,-242.94C1604.72,-232.19 1631.47,-220.57 1657,-215 1681.54,-209.65 2537.84,-216.71 2561,-207 2574.27,-201.44 2586.07,-191.15 2595.45,-180.83"/>
<polygon fill="#2c7a7b" stroke="#2c7a7b" points="2598.29,-182.89 2602.13,-173.01 2592.97,-178.34 2598.29,-182.89"/>
</g>
<!-- SYM_ADD -->
<g id="node21" class="node">
<title>SYM_ADD</title>
<path fill="#6ee7b7" stroke="black" d="M2539.5,-178C2539.5,-178 2432.5,-178 2432.5,-178 2426.5,-178 2420.5,-172 2420.5,-166 2420.5,-166 2420.5,-132 2420.5,-132 2420.5,-126 2426.5,-120 2432.5,-120 2432.5,-120 2539.5,-120 2539.5,-120 2545.5,-120 2551.5,-126 2551.5,-132 2551.5,-132 2551.5,-166 2551.5,-166 2551.5,-172 2545.5,-178 2539.5,-178"/>
<text text-anchor="middle" x="2486" y="-166.8" font-family="Helvetica,sans-Serif" font-size="9.00">&#45;&#45;symbols&#45;add &lt;list&gt;</text>
<text text-anchor="middle" x="2486" y="-146.8" font-family="Helvetica,sans-Serif" font-size="9.00">Add new symbols</text>
<text text-anchor="middle" x="2486" y="-136.8" font-family="Helvetica,sans-Serif" font-size="9.00">Options: &#45;&#45;no&#45;trades,</text>
<text text-anchor="middle" x="2486" y="-126.8" font-family="Helvetica,sans-Serif" font-size="9.00">&#45;&#45;no&#45;depth, &#45;&#45;depth&#45;levels</text>
</g>
<!-- Meridian&#45;&gt;SYM_ADD -->
<g id="edge20" class="edge">
<title>Meridian&#45;&gt;SYM_ADD</title>
<path fill="none" stroke="#2c7a7b" d="M1583.55,-242.96C1604.73,-232.22 1631.48,-220.59 1657,-215 1697.76,-206.07 2368.4,-220.16 2408,-207 2422.48,-202.19 2436.53,-193.59 2448.61,-184.51"/>
<polygon fill="#2c7a7b" stroke="#2c7a7b" points="2450.95,-187.13 2456.65,-178.19 2446.62,-181.63 2450.95,-187.13"/>
</g>
<!-- PKG_CREATE -->
<g id="node24" class="node">
<title>PKG_CREATE</title>
<path fill="#c4b5fd" stroke="black" d="M2976,-173C2976,-173 2890,-173 2890,-173 2884,-173 2878,-167 2878,-161 2878,-161 2878,-137 2878,-137 2878,-131 2884,-125 2890,-125 2890,-125 2976,-125 2976,-125 2982,-125 2988,-131 2988,-137 2988,-137 2988,-161 2988,-161 2988,-167 2982,-173 2976,-173"/>
<text text-anchor="middle" x="2933" y="-161.8" font-family="Helvetica,sans-Serif" font-size="9.00">&#45;&#45;package</text>
<text text-anchor="middle" x="2933" y="-141.8" font-family="Helvetica,sans-Serif" font-size="9.00">Create data package</text>
<text text-anchor="middle" x="2933" y="-131.8" font-family="Helvetica,sans-Serif" font-size="9.00">Portable archive</text>
</g>
<!-- Meridian&#45;&gt;PKG_CREATE -->
<g id="edge23" class="edge">
<title>Meridian&#45;&gt;PKG_CREATE</title>
<path fill="none" stroke="#805ad5" d="M1583.54,-242.92C1604.71,-232.16 1631.47,-220.54 1657,-215 1689.9,-207.86 2837.58,-219.08 2869,-207 2883.56,-201.4 2896.92,-190.83 2907.63,-180.3"/>
<polygon fill="#805ad5" stroke="#805ad5" points="2910.18,-182.71 2914.6,-173.08 2905.14,-177.84 2910.18,-182.71"/>
</g>
<!-- PKG_IMPORT -->
<g id="node25" class="node">
<title>PKG_IMPORT</title>
<path fill="#c4b5fd" stroke="black" d="M2847.5,-168C2847.5,-168 2738.5,-168 2738.5,-168 2732.5,-168 2726.5,-162 2726.5,-156 2726.5,-156 2726.5,-142 2726.5,-142 2726.5,-136 2732.5,-130 2738.5,-130 2738.5,-130 2847.5,-130 2847.5,-130 2853.5,-130 2859.5,-136 2859.5,-142 2859.5,-142 2859.5,-156 2859.5,-156 2859.5,-162 2853.5,-168 2847.5,-168"/>
<text text-anchor="middle" x="2793" y="-156.8" font-family="Helvetica,sans-Serif" font-size="9.00">&#45;&#45;import&#45;package &lt;path&gt;</text>
<text text-anchor="middle" x="2793" y="-136.8" font-family="Helvetica,sans-Serif" font-size="9.00">Import data package</text>
</g>
<!-- Meridian&#45;&gt;PKG_IMPORT -->
<g id="edge24" class="edge">
<title>Meridian&#45;&gt;PKG_IMPORT</title>
<path fill="none" stroke="#805ad5" d="M1583.55,-242.93C1604.72,-232.18 1631.47,-220.55 1657,-215 1714.38,-202.52 2658.19,-225.27 2714,-207 2733.8,-200.52 2752.84,-187.08 2767.26,-174.87"/>
<polygon fill="#805ad5" stroke="#805ad5" points="2769.57,-177.5 2774.78,-168.27 2764.95,-172.24 2769.57,-177.5"/>
</g>
<!-- HTTP_PORT -->
<g id="node13" class="node">
<title>HTTP_PORT</title>
<path fill="#9ae6b4" stroke="black" d="M1830.5,-79C1830.5,-79 1719.5,-79 1719.5,-79 1713.5,-79 1707.5,-73 1707.5,-67 1707.5,-67 1707.5,-33 1707.5,-33 1707.5,-27 1713.5,-21 1719.5,-21 1719.5,-21 1830.5,-21 1830.5,-21 1836.5,-21 1842.5,-27 1842.5,-33 1842.5,-33 1842.5,-67 1842.5,-67 1842.5,-73 1836.5,-79 1830.5,-79"/>
<text text-anchor="middle" x="1775" y="-67.8" font-family="Helvetica,sans-Serif" font-size="9.00">&#45;&#45;http&#45;port &lt;port&gt;</text>
<text text-anchor="middle" x="1775" y="-47.8" font-family="Helvetica,sans-Serif" font-size="9.00">Custom HTTP port</text>
<text text-anchor="middle" x="1775" y="-37.8" font-family="Helvetica,sans-Serif" font-size="9.00">Default: 8080</text>
<text text-anchor="middle" x="1775" y="-27.8" font-family="Helvetica,sans-Serif" font-size="9.00">Used with &#45;&#45;mode desktop</text>
</g>
<!-- UI_MODE&#45;&gt;HTTP_PORT -->
<g id="edge13" class="edge">
<title>UI_MODE&#45;&gt;HTTP_PORT</title>
<path fill="none" stroke="#4a5568" stroke-dasharray="5,2" d="M1771.45,-119.94C1771.93,-110.48 1772.49,-99.73 1773.01,-89.6"/>
<polygon fill="#4a5568" stroke="#4a5568" points="1776.52,-89.5 1773.54,-79.33 1769.53,-89.14 1776.52,-89.5"/>
</g>
<!-- BACKFILL_OPTS -->
<g id="node15" class="node">
<title>BACKFILL_OPTS</title>
<path fill="#9ae6b4" stroke="black" d="M1677.5,-84C1677.5,-84 1562.5,-84 1562.5,-84 1556.5,-84 1550.5,-78 1550.5,-72 1550.5,-72 1550.5,-28 1550.5,-28 1550.5,-22 1556.5,-16 1562.5,-16 1562.5,-16 1677.5,-16 1677.5,-16 1683.5,-16 1689.5,-22 1689.5,-28 1689.5,-28 1689.5,-72 1689.5,-72 1689.5,-78 1683.5,-84 1677.5,-84"/>
<text text-anchor="middle" x="1620" y="-72.8" font-family="Helvetica,sans-Serif" font-size="9.00">&#45;&#45;backfill&#45;provider &lt;name&gt;</text>
<text text-anchor="middle" x="1620" y="-62.8" font-family="Helvetica,sans-Serif" font-size="9.00">&#45;&#45;backfill&#45;symbols &lt;list&gt;</text>
<text text-anchor="middle" x="1620" y="-52.8" font-family="Helvetica,sans-Serif" font-size="9.00">&#45;&#45;backfill&#45;from &lt;date&gt;</text>
<text text-anchor="middle" x="1620" y="-42.8" font-family="Helvetica,sans-Serif" font-size="9.00">&#45;&#45;backfill&#45;to &lt;date&gt;</text>
<text text-anchor="middle" x="1620" y="-22.8" font-family="Helvetica,sans-Serif" font-size="9.00">Backfill options</text>
</g>
<!-- BACKFILL&#45;&gt;BACKFILL_OPTS -->
<g id="edge14" class="edge">
<title>BACKFILL&#45;&gt;BACKFILL_OPTS</title>
<path fill="none" stroke="#4a5568" stroke-dasharray="5,2" d="M1616.45,-119.94C1616.86,-111.9 1617.32,-102.94 1617.77,-94.21"/>
<polygon fill="#4a5568" stroke="#4a5568" points="1621.27,-94.3 1618.29,-84.14 1614.28,-93.94 1621.27,-94.3"/>
</g>
<!-- SYM_REMOVE -->
<g id="node22" class="node">
<title>SYM_REMOVE</title>
<path fill="#a7f3d0" stroke="black" d="M2535.5,-69C2535.5,-69 2432.5,-69 2432.5,-69 2426.5,-69 2420.5,-63 2420.5,-57 2420.5,-57 2420.5,-43 2420.5,-43 2420.5,-37 2426.5,-31 2432.5,-31 2432.5,-31 2535.5,-31 2535.5,-31 2541.5,-31 2547.5,-37 2547.5,-43 2547.5,-43 2547.5,-57 2547.5,-57 2547.5,-63 2541.5,-69 2535.5,-69"/>
<text text-anchor="middle" x="2484" y="-57.8" font-family="Helvetica,sans-Serif" font-size="9.00">&#45;&#45;symbols&#45;remove &lt;list&gt;</text>
<text text-anchor="middle" x="2484" y="-37.8" font-family="Helvetica,sans-Serif" font-size="9.00">Remove symbols</text>
</g>
<!-- SYM_ADD&#45;&gt;SYM_REMOVE -->
<g id="edge21" class="edge">
<title>SYM_ADD&#45;&gt;SYM_REMOVE</title>
<path fill="none" stroke="#4a5568" stroke-dasharray="5,2" d="M2485.42,-119.94C2485.16,-107.18 2484.85,-92.1 2484.58,-79.31"/>
<polygon fill="#4a5568" stroke="#4a5568" points="2488.08,-79.12 2484.38,-69.2 2481.08,-79.27 2488.08,-79.12"/>
</g>
<!-- SYM_STATUS -->
<g id="node23" class="node">
<title>SYM_STATUS</title>
<path fill="#a7f3d0" stroke="black" d="M2690,-69C2690,-69 2578,-69 2578,-69 2572,-69 2566,-63 2566,-57 2566,-57 2566,-43 2566,-43 2566,-37 2572,-31 2578,-31 2578,-31 2690,-31 2690,-31 2696,-31 2702,-37 2702,-43 2702,-43 2702,-57 2702,-57 2702,-63 2696,-69 2690,-69"/>
<text text-anchor="middle" x="2634" y="-57.8" font-family="Helvetica,sans-Serif" font-size="9.00">&#45;&#45;symbol&#45;status &lt;symbol&gt;</text>
<text text-anchor="middle" x="2634" y="-37.8" font-family="Helvetica,sans-Serif" font-size="9.00">Check symbol status</text>
</g>
<!-- SYM_ADD&#45;&gt;SYM_STATUS -->
<g id="edge22" class="edge">
<title>SYM_ADD&#45;&gt;SYM_STATUS</title>
<path fill="none" stroke="#4a5568" stroke-dasharray="5,2" d="M2528.81,-119.94C2550.62,-105.65 2576.86,-88.45 2597.67,-74.81"/>
<polygon fill="#4a5568" stroke="#4a5568" points="2599.79,-77.61 2606.23,-69.2 2595.95,-71.75 2599.79,-77.61"/>
</g>
<!-- PKG_LIST -->
<g id="node26" class="node">
<title>PKG_LIST</title>
<path fill="#ddd6fe" stroke="black" d="M2830,-69C2830,-69 2738,-69 2738,-69 2732,-69 2726,-63 2726,-57 2726,-57 2726,-43 2726,-43 2726,-37 2732,-31 2738,-31 2738,-31 2830,-31 2830,-31 2836,-31 2842,-37 2842,-43 2842,-43 2842,-57 2842,-57 2842,-63 2836,-69 2830,-69"/>
<text text-anchor="middle" x="2784" y="-57.8" font-family="Helvetica,sans-Serif" font-size="9.00">&#45;&#45;list&#45;package &lt;path&gt;</text>
<text text-anchor="middle" x="2784" y="-37.8" font-family="Helvetica,sans-Serif" font-size="9.00">List package contents</text>
</g>
<!-- PKG_CREATE&#45;&gt;PKG_LIST -->
<g id="edge25" class="edge">
<title>PKG_CREATE&#45;&gt;PKG_LIST</title>
<path fill="none" stroke="#4a5568" stroke-dasharray="5,2" d="M2897.31,-124.77C2874.1,-109.66 2843.92,-90.01 2820.55,-74.79"/>
<polygon fill="#4a5568" stroke="#4a5568" points="2822.24,-71.72 2811.95,-69.2 2818.42,-77.58 2822.24,-71.72"/>
</g>
<!-- PKG_VALIDATE -->
<g id="node27" class="node">
<title>PKG_VALIDATE</title>
<path fill="#ddd6fe" stroke="black" d="M2986,-69C2986,-69 2872,-69 2872,-69 2866,-69 2860,-63 2860,-57 2860,-57 2860,-43 2860,-43 2860,-37 2866,-31 2872,-31 2872,-31 2986,-31 2986,-31 2992,-31 2998,-37 2998,-43 2998,-43 2998,-57 2998,-57 2998,-63 2992,-69 2986,-69"/>
<text text-anchor="middle" x="2929" y="-57.8" font-family="Helvetica,sans-Serif" font-size="9.00">&#45;&#45;validate&#45;package &lt;path&gt;</text>
<text text-anchor="middle" x="2929" y="-37.8" font-family="Helvetica,sans-Serif" font-size="9.00">Validate package integrity</text>
</g>
<!-- PKG_CREATE&#45;&gt;PKG_VALIDATE -->
<g id="edge26" class="edge">
<title>PKG_CREATE&#45;&gt;PKG_VALIDATE</title>
<path fill="none" stroke="#4a5568" stroke-dasharray="5,2" d="M2932.03,-124.52C2931.47,-110.94 2930.76,-93.75 2930.17,-79.41"/>
<polygon fill="#4a5568" stroke="#4a5568" points="2933.66,-78.95 2929.75,-69.1 2926.66,-79.24 2933.66,-78.95"/>
</g>
<!-- WF_NEW -->
<g id="node28" class="node">
<title>WF_NEW</title>
<polygon fill="#edf2f7" stroke="black" points="2404.5,-301 2227.5,-301 2227.5,-233 2410.5,-233 2410.5,-295 2404.5,-301"/>
<polyline fill="none" stroke="black" points="2404.5,-301 2404.5,-295 "/>
<polyline fill="none" stroke="black" points="2410.5,-295 2404.5,-295 "/>
<text text-anchor="middle" x="2319" y="-289.8" font-family="Helvetica,sans-Serif" font-size="9.00">New Installation:</text>
<text text-anchor="middle" x="2319" y="-269.8" font-family="Helvetica,sans-Serif" font-size="9.00">1. dotnet run &#45;&#45; &#45;&#45;wizard</text>
<text text-anchor="middle" x="2319" y="-259.8" font-family="Helvetica,sans-Serif" font-size="9.00">2. dotnet run &#45;&#45; &#45;&#45;validate&#45;credentials</text>
<text text-anchor="middle" x="2319" y="-249.8" font-family="Helvetica,sans-Serif" font-size="9.00">3. dotnet run &#45;&#45; &#45;&#45;dry&#45;run</text>
<text text-anchor="middle" x="2319" y="-239.8" font-family="Helvetica,sans-Serif" font-size="9.00">4. dotnet run &#45;&#45; &#45;&#45;mode desktop</text>
</g>
<!-- WF_CI -->
<g id="node29" class="node">
<title>WF_CI</title>
<polygon fill="#edf2f7" stroke="black" points="2203,-301 2047,-301 2047,-233 2209,-233 2209,-295 2203,-301"/>
<polyline fill="none" stroke="black" points="2203,-301 2203,-295 "/>
<polyline fill="none" stroke="black" points="2209,-295 2203,-295 "/>
<text text-anchor="middle" x="2128" y="-289.8" font-family="Helvetica,sans-Serif" font-size="9.00">CI/CD Setup:</text>
<text text-anchor="middle" x="2128" y="-269.8" font-family="Helvetica,sans-Serif" font-size="9.00">1. Set environment variables</text>
<text text-anchor="middle" x="2128" y="-259.8" font-family="Helvetica,sans-Serif" font-size="9.00">2. dotnet run &#45;&#45; &#45;&#45;auto&#45;config</text>
<text text-anchor="middle" x="2128" y="-249.8" font-family="Helvetica,sans-Serif" font-size="9.00">3. dotnet run &#45;&#45; &#45;&#45;validate&#45;config</text>
<text text-anchor="middle" x="2128" y="-239.8" font-family="Helvetica,sans-Serif" font-size="9.00">4. dotnet run</text>
</g>
<!-- WF_DEBUG -->
<g id="node30" class="node">
<title>WF_DEBUG</title>
<polygon fill="#edf2f7" stroke="black" points="2022.5,-301 1857.5,-301 1857.5,-233 2028.5,-233 2028.5,-295 2022.5,-301"/>
<polyline fill="none" stroke="black" points="2022.5,-301 2022.5,-295 "/>
<polyline fill="none" stroke="black" points="2028.5,-295 2022.5,-295 "/>
<text text-anchor="middle" x="1943" y="-289.8" font-family="Helvetica,sans-Serif" font-size="9.00">Troubleshooting:</text>
<text text-anchor="middle" x="1943" y="-269.8" font-family="Helvetica,sans-Serif" font-size="9.00">1. dotnet run &#45;&#45; &#45;&#45;show&#45;config</text>
<text text-anchor="middle" x="1943" y="-259.8" font-family="Helvetica,sans-Serif" font-size="9.00">2. dotnet run &#45;&#45; &#45;&#45;test&#45;connectivity</text>
<text text-anchor="middle" x="1943" y="-249.8" font-family="Helvetica,sans-Serif" font-size="9.00">3. dotnet run &#45;&#45; &#45;&#45;quick&#45;check</text>
<text text-anchor="middle" x="1943" y="-239.8" font-family="Helvetica,sans-Serif" font-size="9.00">4. dotnet run &#45;&#45; &#45;&#45;error&#45;codes</text>
</g>
<!-- WF_BACKFILL -->
<g id="node31" class="node">
<title>WF_BACKFILL</title>
<polygon fill="#edf2f7" stroke="black" points="1833,-306 1669,-306 1669,-228 1839,-228 1839,-300 1833,-306"/>
<polyline fill="none" stroke="black" points="1833,-306 1833,-300 "/>
<polyline fill="none" stroke="black" points="1839,-300 1833,-300 "/>
<text text-anchor="middle" x="1754" y="-294.8" font-family="Helvetica,sans-Serif" font-size="9.00">Historical Backfill:</text>
<text text-anchor="middle" x="1754" y="-274.8" font-family="Helvetica,sans-Serif" font-size="9.00">1. dotnet run &#45;&#45; &#45;&#45;detect&#45;providers</text>
<text text-anchor="middle" x="1754" y="-264.8" font-family="Helvetica,sans-Serif" font-size="9.00">2. dotnet run &#45;&#45; &#45;&#45;backfill \</text>
<text text-anchor="middle" x="1754" y="-254.8" font-family="Helvetica,sans-Serif" font-size="9.00"> &#160;&#160;&#45;&#45;backfill&#45;provider alpaca \</text>
<text text-anchor="middle" x="1754" y="-244.8" font-family="Helvetica,sans-Serif" font-size="9.00"> &#160;&#160;&#45;&#45;backfill&#45;symbols SPY,QQQ \</text>
<text text-anchor="middle" x="1754" y="-234.8" font-family="Helvetica,sans-Serif" font-size="9.00"> &#160;&#160;&#45;&#45;backfill&#45;from 2024&#45;01&#45;01</text>
</g>
<!-- EXIT_CODES -->
<g id="node32" class="node">
<title>EXIT_CODES</title>
<path fill="#fecaca" stroke="black" d="M2546.5,-311C2546.5,-311 2447.5,-311 2447.5,-311 2441.5,-311 2435.5,-305 2435.5,-299 2435.5,-299 2435.5,-235 2435.5,-235 2435.5,-229 2441.5,-223 2447.5,-223 2447.5,-223 2546.5,-223 2546.5,-223 2552.5,-223 2558.5,-229 2558.5,-235 2558.5,-235 2558.5,-299 2558.5,-299 2558.5,-305 2552.5,-311 2546.5,-311"/>
<text text-anchor="middle" x="2497" y="-299.8" font-family="Helvetica,sans-Serif" font-size="9.00">Exit Codes:</text>
<text text-anchor="middle" x="2497" y="-279.8" font-family="Helvetica,sans-Serif" font-size="9.00">0 &#45; Success</text>
<text text-anchor="middle" x="2497" y="-269.8" font-family="Helvetica,sans-Serif" font-size="9.00">1 &#45; General error</text>
<text text-anchor="middle" x="2497" y="-259.8" font-family="Helvetica,sans-Serif" font-size="9.00">2 &#45; Configuration error</text>
<text text-anchor="middle" x="2497" y="-249.8" font-family="Helvetica,sans-Serif" font-size="9.00">3 &#45; Connection error</text>
<text text-anchor="middle" x="2497" y="-239.8" font-family="Helvetica,sans-Serif" font-size="9.00">4 &#45; Authentication error</text>
<text text-anchor="middle" x="2497" y="-229.8" font-family="Helvetica,sans-Serif" font-size="9.00">5 &#45; Validation failed</text>
</g>
<!-- L1 -->
<g id="node33" class="node">
<title>L1</title>
<path fill="#c4b5fd" stroke="black" d="M3289,-285C3289,-285 3259,-285 3259,-285 3253,-285 3247,-279 3247,-273 3247,-273 3247,-261 3247,-261 3247,-255 3253,-249 3259,-249 3259,-249 3289,-249 3289,-249 3295,-249 3301,-255 3301,-261 3301,-261 3301,-273 3301,-273 3301,-279 3295,-285 3289,-285"/>
<text text-anchor="middle" x="3274" y="-264.8" font-family="Helvetica,sans-Serif" font-size="9.00">Setup</text>
</g>
<!-- L2 -->
<g id="node34" class="node">
<title>L2</title>
<path fill="#93c5fd" stroke="black" d="M3217,-285C3217,-285 3177,-285 3177,-285 3171,-285 3165,-279 3165,-273 3165,-273 3165,-261 3165,-261 3165,-255 3171,-249 3177,-249 3177,-249 3217,-249 3217,-249 3223,-249 3229,-255 3229,-261 3229,-261 3229,-273 3229,-273 3229,-279 3223,-285 3217,-285"/>
<text text-anchor="middle" x="3197" y="-264.8" font-family="Helvetica,sans-Serif" font-size="9.00">Diagnostic</text>
</g>
<!-- L3 -->
<g id="node35" class="node">
<title>L3</title>
<path fill="#68d391" stroke="black" d="M3134.5,-285C3134.5,-285 3097.5,-285 3097.5,-285 3091.5,-285 3085.5,-279 3085.5,-273 3085.5,-273 3085.5,-261 3085.5,-261 3085.5,-255 3091.5,-249 3097.5,-249 3097.5,-249 3134.5,-249 3134.5,-249 3140.5,-249 3146.5,-255 3146.5,-261 3146.5,-261 3146.5,-273 3146.5,-273 3146.5,-279 3140.5,-285 3134.5,-285"/>
<text text-anchor="middle" x="3116" y="-264.8" font-family="Helvetica,sans-Serif" font-size="9.00">Operation</text>
</g>
<!-- L4 -->
<g id="node36" class="node">
<title>L4</title>
<path fill="#fbd38d" stroke="black" d="M3055,-285C3055,-285 2993,-285 2993,-285 2987,-285 2981,-279 2981,-273 2981,-273 2981,-261 2981,-261 2981,-255 2987,-249 2993,-249 2993,-249 3055,-249 3055,-249 3061,-249 3067,-255 3067,-261 3067,-261 3067,-273 3067,-273 3067,-279 3061,-285 3055,-285"/>
<text text-anchor="middle" x="3024" y="-264.8" font-family="Helvetica,sans-Serif" font-size="9.00">Documentation</text>
</g>
<!-- L5 -->
<g id="node37" class="node">
<title>L5</title>
<path fill="#6ee7b7" stroke="black" d="M2951,-285C2951,-285 2895,-285 2895,-285 2889,-285 2883,-279 2883,-273 2883,-273 2883,-261 2883,-261 2883,-255 2889,-249 2895,-249 2895,-249 2951,-249 2951,-249 2957,-249 2963,-255 2963,-261 2963,-261 2963,-273 2963,-273 2963,-279 2957,-285 2951,-285"/>
<text text-anchor="middle" x="2923" y="-264.8" font-family="Helvetica,sans-Serif" font-size="9.00">Symbol Mgmt</text>
</g>
<!-- L6 -->
<g id="node38" class="node">
<title>L6</title>
<path fill="#c4b5fd" stroke="black" d="M2853,-285C2853,-285 2823,-285 2823,-285 2817,-285 2811,-279 2811,-273 2811,-273 2811,-261 2811,-261 2811,-255 2817,-249 2823,-249 2823,-249 2853,-249 2853,-249 2859,-249 2865,-255 2865,-261 2865,-261 2865,-273 2865,-273 2865,-279 2859,-285 2853,-285"/>
<text text-anchor="middle" x="2838" y="-264.8" font-family="Helvetica,sans-Serif" font-size="9.00">Package</text>
</g>
<!-- ENV_NOTE -->
<g id="node39" class="node">
<title>ENV_NOTE</title>
<path fill="lightgrey" stroke="transparent" d="M2780.5,-306C2780.5,-306 2595.5,-306 2595.5,-306 2589.5,-306 2583.5,-300 2583.5,-294 2583.5,-294 2583.5,-240 2583.5,-240 2583.5,-234 2589.5,-228 2595.5,-228 2595.5,-228 2780.5,-228 2780.5,-228 2786.5,-228 2792.5,-234 2792.5,-240 2792.5,-240 2792.5,-294 2792.5,-294 2792.5,-300 2786.5,-306 2780.5,-306"/>
<text text-anchor="middle" x="2688" y="-294.8" font-family="Helvetica,sans-Serif" font-size="9.00">Environment Variables:</text>
<text text-anchor="middle" x="2688" y="-274.8" font-family="Helvetica,sans-Serif" font-size="9.00">ALPACA__KEYID, ALPACA__SECRETKEY</text>
<text text-anchor="middle" x="2688" y="-264.8" font-family="Helvetica,sans-Serif" font-size="9.00">POLYGON__APIKEY, TIINGO__TOKEN</text>
<text text-anchor="middle" x="2688" y="-254.8" font-family="Helvetica,sans-Serif" font-size="9.00">NYSE__APIKEY, etc.</text>
<text text-anchor="middle" x="2688" y="-234.8" font-family="Helvetica,sans-Serif" font-size="9.00">(Use double underscore for nested config)</text>
</g>
</g>
</svg>
