<?xml version="1.0" encoding="UTF-8" standalone="no"?>
<!DOCTYPE svg PUBLIC "-//W3C//DTD SVG 1.1//EN"
 "http://www.w3.org/Graphics/SVG/1.1/DTD/svg11.dtd">
<!-- Generated by graphviz version 2.43.0 (0)
 -->
<!-- Title: ConfigurationManagement Pages: 1 -->
<svg width="1960pt" height="944pt"
 viewBox="0.00 0.00 1960.00 944.00" xmlns="http://www.w3.org/2000/svg" xmlns:xlink="http://www.w3.org/1999/xlink">
<g id="graph0" class="graph" transform="scale(1 1) rotate(0) translate(36 908)">
<title>ConfigurationManagement</title>
<polygon fill="white" stroke="transparent" points="-36,36 -36,-908 1924,-908 1924,36 -36,36"/>
<text text-anchor="middle" x="944" y="-858.4" font-family="Helvetica,sans-Serif" font-size="12.00">Meridian &#45; Configuration Management</text>
<text text-anchor="middle" x="944" y="-845.4" font-family="Helvetica,sans-Serif" font-size="12.00">Hierarchy, Hot&#45;Reload, and IOptionsMonitor | v1.7.x</text>
<g id="clust1" class="cluster">
<title>cluster_sources</title>
<path fill="#f7fafc" stroke="#4a5568" d="M20,-674C20,-674 822,-674 822,-674 828,-674 834,-680 834,-686 834,-686 834,-818 834,-818 834,-824 828,-830 822,-830 822,-830 20,-830 20,-830 14,-830 8,-824 8,-818 8,-818 8,-686 8,-686 8,-680 14,-674 20,-674"/>
<text text-anchor="middle" x="421" y="-816.4" font-family="Helvetica,sans-Serif" font-size="12.00">Configuration Sources (lowest → highest priority)</text>
</g>
<g id="clust2" class="cluster">
<title>cluster_build</title>
<path fill="#dbeafe" stroke="#2b6cb0" d="M222,-413C222,-413 409,-413 409,-413 415,-413 421,-419 421,-425 421,-425 421,-634 421,-634 421,-640 415,-646 409,-646 409,-646 222,-646 222,-646 216,-646 210,-640 210,-634 210,-634 210,-425 210,-425 210,-419 216,-413 222,-413"/>
<text text-anchor="middle" x="315.5" y="-632.4" font-family="Helvetica,sans-Serif" font-size="12.00">Configuration Build (Program.cs)</text>
</g>
<g id="clust3" class="cluster">
<title>cluster_options</title>
<path fill="#ede9fe" stroke="#805ad5" d="M398,-8C398,-8 1030,-8 1030,-8 1036,-8 1042,-14 1042,-20 1042,-20 1042,-373 1042,-373 1042,-379 1036,-385 1030,-385 1030,-385 398,-385 398,-385 392,-385 386,-379 386,-373 386,-373 386,-20 386,-20 386,-14 392,-8 398,-8"/>
<text text-anchor="middle" x="714" y="-371.4" font-family="Helvetica,sans-Serif" font-size="12.00">Options Pattern (ADR&#45;011)</text>
</g>
<g id="clust4" class="cluster">
<title>cluster_typed_options</title>
<polygon fill="#ede9fe" stroke="#6b21a8" stroke-dasharray="5,2" points="394,-16 394,-116 1034,-116 1034,-16 394,-16"/>
<text text-anchor="middle" x="714" y="-102.4" font-family="Helvetica,sans-Serif" font-size="12.00">Typed Options Classes</text>
</g>
<g id="clust5" class="cluster">
<title>cluster_creds</title>
<path fill="#fee2e2" stroke="#c53030" d="M492,-413C492,-413 666,-413 666,-413 672,-413 678,-419 678,-425 678,-425 678,-634 678,-634 678,-640 672,-646 666,-646 666,-646 492,-646 492,-646 486,-646 480,-640 480,-634 480,-634 480,-425 480,-425 480,-419 486,-413 492,-413"/>
<text text-anchor="middle" x="579" y="-632.4" font-family="Helvetica,sans-Serif" font-size="12.00">Credential Handling (ADR&#45;011)</text>
</g>
<g id="clust6" class="cluster">
<title>cluster_consumers</title>
<path fill="#d1fae5" stroke="#2c7a7b" d="M1062,-10C1062,-10 1868,-10 1868,-10 1874,-10 1880,-16 1880,-22 1880,-22 1880,-110 1880,-110 1880,-116 1874,-122 1868,-122 1868,-122 1062,-122 1062,-122 1056,-122 1050,-116 1050,-110 1050,-110 1050,-22 1050,-22 1050,-16 1056,-10 1062,-10"/>
<text text-anchor="middle" x="1465" y="-108.4" font-family="Helvetica,sans-Serif" font-size="12.00">Components that Consume Configuration</text>
</g>
<g id="clust7" class="cluster">
<title>cluster_diag</title>
<path fill="#f0fff4" stroke="#38a169" d="M75,-273C75,-273 366,-273 366,-273 372,-273 378,-279 378,-285 378,-285 378,-373 378,-373 378,-379 372,-385 366,-385 366,-385 75,-385 75,-385 69,-385 63,-379 63,-373 63,-373 63,-285 63,-285 63,-279 69,-273 75,-273"/>
<text text-anchor="middle" x="220.5" y="-371.4" font-family="Helvetica,sans-Serif" font-size="12.00">Validation &amp; Diagnostics</text>
</g>
<g id="clust8" class="cluster">
<title>cluster_legend</title>
<path fill="#fafafa" stroke="#666666" d="M1244,-707.5C1244,-707.5 1526,-707.5 1526,-707.5 1532,-707.5 1538,-713.5 1538,-719.5 1538,-719.5 1538,-784.5 1538,-784.5 1538,-790.5 1532,-796.5 1526,-796.5 1526,-796.5 1244,-796.5 1244,-796.5 1238,-796.5 1232,-790.5 1232,-784.5 1232,-784.5 1232,-719.5 1232,-719.5 1232,-713.5 1238,-707.5 1244,-707.5"/>
<text text-anchor="middle" x="1385" y="-782.9" font-family="Helvetica,sans-Serif" font-size="12.00">Legend</text>
</g>
<!-- SRC_DEFAULT -->
<g id="node1" class="node">
<title>SRC_DEFAULT</title>
<path fill="#e2e8f0" stroke="black" d="M152.5,-779C152.5,-779 27.5,-779 27.5,-779 21.5,-779 15.5,-773 15.5,-767 15.5,-767 15.5,-716 15.5,-716 15.5,-710 21.5,-704 27.5,-704 27.5,-704 152.5,-704 152.5,-704 158.5,-704 164.5,-710 164.5,-716 164.5,-716 164.5,-767 164.5,-767 164.5,-773 158.5,-779 152.5,-779"/>
<text text-anchor="middle" x="90" y="-767" font-family="Helvetica,sans-Serif" font-size="10.00">Built&#45;In Defaults</text>
<text text-anchor="middle" x="90" y="-756" font-family="Helvetica,sans-Serif" font-size="10.00">[Priority 1 — lowest]</text>
<text text-anchor="middle" x="90" y="-733" font-family="Helvetica,sans-Serif" font-size="10.00">Hardcoded fallback values</text>
<text text-anchor="middle" x="90" y="-722" font-family="Helvetica,sans-Serif" font-size="10.00">in ConfigurationDefaults.cs</text>
<text text-anchor="middle" x="90" y="-711" font-family="Helvetica,sans-Serif" font-size="10.00">Safe minimal config</text>
</g>
<!-- CONFIG_BUILDER -->
<g id="node6" class="node">
<title>CONFIG_BUILDER</title>
<path fill="#93c5fd" stroke="black" d="M388,-617C388,-617 242,-617 242,-617 236,-617 230,-611 230,-605 230,-605 230,-554 230,-554 230,-548 236,-542 242,-542 242,-542 388,-542 388,-542 394,-542 400,-548 400,-554 400,-554 400,-605 400,-605 400,-611 394,-617 388,-617"/>
<text text-anchor="middle" x="315" y="-605" font-family="Helvetica,sans-Serif" font-size="10.00">IConfigurationBuilder</text>
<text text-anchor="middle" x="315" y="-594" font-family="Helvetica,sans-Serif" font-size="10.00">(WebApplication.CreateBuilder)</text>
<text text-anchor="middle" x="315" y="-571" font-family="Helvetica,sans-Serif" font-size="10.00">Merge all sources</text>
<text text-anchor="middle" x="315" y="-560" font-family="Helvetica,sans-Serif" font-size="10.00">Last writer wins</text>
<text text-anchor="middle" x="315" y="-549" font-family="Helvetica,sans-Serif" font-size="10.00">Environment&#45;specific loading</text>
</g>
<!-- SRC_DEFAULT&#45;&gt;CONFIG_BUILDER -->
<g id="edge1" class="edge">
<title>SRC_DEFAULT&#45;&gt;CONFIG_BUILDER</title>
<path fill="none" stroke="#4a5568" stroke-dasharray="5,2" d="M134.8,-703.9C147.32,-693.98 161.05,-683.39 174,-674 197.93,-656.64 224.83,-638.48 248.68,-622.83"/>
<polygon fill="#4a5568" stroke="#4a5568" points="250.86,-625.59 257.31,-617.19 247.03,-619.73 250.86,-625.59"/>
</g>
<!-- SRC_SAMPLE -->
<g id="node2" class="node">
<title>SRC_SAMPLE</title>
<path fill="#e2e8f0" stroke="black" d="M327,-779C327,-779 195,-779 195,-779 189,-779 183,-773 183,-767 183,-767 183,-716 183,-716 183,-710 189,-704 195,-704 195,-704 327,-704 327,-704 333,-704 339,-710 339,-716 339,-716 339,-767 339,-767 339,-773 333,-779 327,-779"/>
<text text-anchor="middle" x="261" y="-767" font-family="Helvetica,sans-Serif" font-size="10.00">appsettings.sample.json</text>
<text text-anchor="middle" x="261" y="-756" font-family="Helvetica,sans-Serif" font-size="10.00">[Priority 2]</text>
<text text-anchor="middle" x="261" y="-733" font-family="Helvetica,sans-Serif" font-size="10.00">Template with all sections</text>
<text text-anchor="middle" x="261" y="-722" font-family="Helvetica,sans-Serif" font-size="10.00">Documented placeholders</text>
<text text-anchor="middle" x="261" y="-711" font-family="Helvetica,sans-Serif" font-size="10.00">Committed to source control</text>
</g>
<!-- SRC_SAMPLE&#45;&gt;CONFIG_BUILDER -->
<g id="edge2" class="edge">
<title>SRC_SAMPLE&#45;&gt;CONFIG_BUILDER</title>
<path fill="none" stroke="#4a5568" stroke-dasharray="5,2" d="M273.39,-703.79C281.11,-680.93 291.1,-651.31 299.36,-626.83"/>
<polygon fill="#4a5568" stroke="#4a5568" points="302.79,-627.63 302.67,-617.04 296.15,-625.39 302.79,-627.63"/>
</g>
<!-- SRC_JSON -->
<g id="node3" class="node">
<title>SRC_JSON</title>
<path fill="#fef3c7" stroke="black" d="M813.5,-790C813.5,-790 672.5,-790 672.5,-790 666.5,-790 660.5,-784 660.5,-778 660.5,-778 660.5,-705 660.5,-705 660.5,-699 666.5,-693 672.5,-693 672.5,-693 813.5,-693 813.5,-693 819.5,-693 825.5,-699 825.5,-705 825.5,-705 825.5,-778 825.5,-778 825.5,-784 819.5,-790 813.5,-790"/>
<text text-anchor="middle" x="743" y="-778" font-family="Helvetica,sans-Serif" font-size="10.00">appsettings.json</text>
<text text-anchor="middle" x="743" y="-767" font-family="Helvetica,sans-Serif" font-size="10.00">[Priority 3]</text>
<text text-anchor="middle" x="743" y="-744" font-family="Helvetica,sans-Serif" font-size="10.00">User&#45;local runtime config</text>
<text text-anchor="middle" x="743" y="-733" font-family="Helvetica,sans-Serif" font-size="10.00">Gitignored (not committed)</text>
<text text-anchor="middle" x="743" y="-722" font-family="Helvetica,sans-Serif" font-size="10.00">All sections: DataSource,</text>
<text text-anchor="middle" x="743" y="-711" font-family="Helvetica,sans-Serif" font-size="10.00">Symbols, Storage, Backfill,</text>
<text text-anchor="middle" x="743" y="-700" font-family="Helvetica,sans-Serif" font-size="10.00">DataQuality, Sla, Maintenance</text>
</g>
<!-- SRC_JSON&#45;&gt;CONFIG_BUILDER -->
<g id="edge3" class="edge">
<title>SRC_JSON&#45;&gt;CONFIG_BUILDER</title>
<path fill="none" stroke="#2b6cb0" stroke-width="2" d="M706.67,-692.81C692.37,-677.62 674.64,-662.55 655,-654 618.49,-638.1 514.9,-654.52 476,-646 450.37,-640.39 423.57,-631.03 399.36,-621.12"/>
<polygon fill="#2b6cb0" stroke="#2b6cb0" stroke-width="2" points="400.44,-617.78 389.87,-617.15 397.74,-624.24 400.44,-617.78"/>
</g>
<!-- WATCH_CONFIG -->
<g id="node10" class="node">
<title>WATCH_CONFIG</title>
<path fill="#ddd6fe" stroke="black" d="M901,-356C901,-356 779,-356 779,-356 773,-356 767,-350 767,-344 767,-344 767,-293 767,-293 767,-287 773,-281 779,-281 779,-281 901,-281 901,-281 907,-281 913,-287 913,-293 913,-293 913,-344 913,-344 913,-350 907,-356 901,-356"/>
<text text-anchor="middle" x="840" y="-344" font-family="Helvetica,sans-Serif" font-size="10.00">&#45;&#45;watch&#45;config flag</text>
<text text-anchor="middle" x="840" y="-321" font-family="Helvetica,sans-Serif" font-size="10.00">FileSystemWatcher on</text>
<text text-anchor="middle" x="840" y="-310" font-family="Helvetica,sans-Serif" font-size="10.00">appsettings.json</text>
<text text-anchor="middle" x="840" y="-299" font-family="Helvetica,sans-Serif" font-size="10.00">Triggers re&#45;bind on change</text>
<text text-anchor="middle" x="840" y="-288" font-family="Helvetica,sans-Serif" font-size="10.00">Zero&#45;downtime reload</text>
</g>
<!-- SRC_JSON&#45;&gt;WATCH_CONFIG -->
<g id="edge15" class="edge">
<title>SRC_JSON&#45;&gt;WATCH_CONFIG</title>
<path fill="none" stroke="#ed8936" stroke-dasharray="5,2" d="M754.03,-692.62C772.79,-611.19 810.68,-446.74 829.25,-366.16"/>
<polygon fill="#ed8936" stroke="#ed8936" points="832.69,-366.82 831.52,-356.29 825.87,-365.25 832.69,-366.82"/>
<text text-anchor="middle" x="814" y="-516.8" font-family="Helvetica,sans-Serif" font-size="9.00">watched</text>
</g>
<!-- SRC_ENV -->
<g id="node4" class="node">
<title>SRC_ENV</title>
<path fill="#fc8181" stroke="black" d="M630.5,-801C630.5,-801 527.5,-801 527.5,-801 521.5,-801 515.5,-795 515.5,-789 515.5,-789 515.5,-694 515.5,-694 515.5,-688 521.5,-682 527.5,-682 527.5,-682 630.5,-682 630.5,-682 636.5,-682 642.5,-688 642.5,-694 642.5,-694 642.5,-789 642.5,-789 642.5,-795 636.5,-801 630.5,-801"/>
<text text-anchor="middle" x="579" y="-789" font-family="Helvetica,sans-Serif" font-size="10.00" fill="white">Environment Variables</text>
<text text-anchor="middle" x="579" y="-778" font-family="Helvetica,sans-Serif" font-size="10.00" fill="white">[Priority 4 — highest]</text>
<text text-anchor="middle" x="579" y="-755" font-family="Helvetica,sans-Serif" font-size="10.00" fill="white">ALPACA_KEY_ID</text>
<text text-anchor="middle" x="579" y="-744" font-family="Helvetica,sans-Serif" font-size="10.00" fill="white">ALPACA_SECRET_KEY</text>
<text text-anchor="middle" x="579" y="-733" font-family="Helvetica,sans-Serif" font-size="10.00" fill="white">POLYGON_API_KEY</text>
<text text-anchor="middle" x="579" y="-722" font-family="Helvetica,sans-Serif" font-size="10.00" fill="white">FINNHUB_API_KEY</text>
<text text-anchor="middle" x="579" y="-711" font-family="Helvetica,sans-Serif" font-size="10.00" fill="white">TIINGO_API_TOKEN</text>
<text text-anchor="middle" x="579" y="-700" font-family="Helvetica,sans-Serif" font-size="10.00" fill="white">IB_HOST / IB_PORT</text>
<text text-anchor="middle" x="579" y="-689" font-family="Helvetica,sans-Serif" font-size="10.00" fill="white">...and more</text>
</g>
<!-- SRC_ENV&#45;&gt;CONFIG_BUILDER -->
<g id="edge4" class="edge">
<title>SRC_ENV&#45;&gt;CONFIG_BUILDER</title>
<path fill="none" stroke="#c53030" stroke-width="2" d="M517.03,-681.99C513.38,-679.19 509.69,-676.51 506,-674 476.13,-653.69 441.19,-635.25 409.42,-620.21"/>
<polygon fill="#c53030" stroke="#c53030" stroke-width="2" points="410.65,-616.93 400.11,-615.86 407.69,-623.27 410.65,-616.93"/>
<text text-anchor="middle" x="504.5" y="-656.8" font-family="Helvetica,sans-Serif" font-size="9.00">override</text>
</g>
<!-- CRED_ENV -->
<g id="node16" class="node">
<title>CRED_ENV</title>
<path fill="#fecaca" stroke="black" d="M643,-617C643,-617 515,-617 515,-617 509,-617 503,-611 503,-605 503,-605 503,-554 503,-554 503,-548 509,-542 515,-542 515,-542 643,-542 643,-542 649,-542 655,-548 655,-554 655,-554 655,-605 655,-605 655,-611 649,-617 643,-617"/>
<text text-anchor="middle" x="579" y="-605" font-family="Helvetica,sans-Serif" font-size="10.00">Environment Variables Only</text>
<text text-anchor="middle" x="579" y="-582" font-family="Helvetica,sans-Serif" font-size="10.00">NEVER in appsettings.json</text>
<text text-anchor="middle" x="579" y="-571" font-family="Helvetica,sans-Serif" font-size="10.00">NEVER in source control</text>
<text text-anchor="middle" x="579" y="-560" font-family="Helvetica,sans-Serif" font-size="10.00">Read via IConfiguration</text>
<text text-anchor="middle" x="579" y="-549" font-family="Helvetica,sans-Serif" font-size="10.00">Masked in logs/MCP reads</text>
</g>
<!-- SRC_ENV&#45;&gt;CRED_ENV -->
<g id="edge21" class="edge">
<title>SRC_ENV&#45;&gt;CRED_ENV</title>
<path fill="none" stroke="#c53030" d="M579,-681.83C579,-663.96 579,-644.55 579,-627.55"/>
<polygon fill="#c53030" stroke="#c53030" points="582.5,-627.31 579,-617.31 575.5,-627.31 582.5,-627.31"/>
<text text-anchor="middle" x="615" y="-656.8" font-family="Helvetica,sans-Serif" font-size="9.00">credentials only</text>
</g>
<!-- SRC_CLI -->
<g id="node5" class="node">
<title>SRC_CLI</title>
<path fill="#fbd38d" stroke="black" d="M485,-779C485,-779 369,-779 369,-779 363,-779 357,-773 357,-767 357,-767 357,-716 357,-716 357,-710 363,-704 369,-704 369,-704 485,-704 485,-704 491,-704 497,-710 497,-716 497,-716 497,-767 497,-767 497,-773 491,-779 485,-779"/>
<text text-anchor="middle" x="427" y="-767" font-family="Helvetica,sans-Serif" font-size="10.00">CLI / Command&#45;Line Args</text>
<text text-anchor="middle" x="427" y="-756" font-family="Helvetica,sans-Serif" font-size="10.00">[Priority 4 — highest]</text>
<text text-anchor="middle" x="427" y="-733" font-family="Helvetica,sans-Serif" font-size="10.00">&#45;&#45;http&#45;port, &#45;&#45;symbols</text>
<text text-anchor="middle" x="427" y="-722" font-family="Helvetica,sans-Serif" font-size="10.00">&#45;&#45;backfill&#45;provider</text>
<text text-anchor="middle" x="427" y="-711" font-family="Helvetica,sans-Serif" font-size="10.00">Override at launch time</text>
</g>
<!-- SRC_CLI&#45;&gt;CONFIG_BUILDER -->
<g id="edge5" class="edge">
<title>SRC_CLI&#45;&gt;CONFIG_BUILDER</title>
<path fill="none" stroke="#ed8936" stroke-width="1.5" d="M401.3,-703.79C385.01,-680.52 363.83,-650.25 346.52,-625.53"/>
<polygon fill="#ed8936" stroke="#ed8936" stroke-width="1.5" points="349.18,-623.22 340.58,-617.04 343.44,-627.24 349.18,-623.22"/>
<text text-anchor="middle" x="389.5" y="-656.8" font-family="Helvetica,sans-Serif" font-size="9.00">override</text>
</g>
<!-- ICONFIG -->
<g id="node7" class="node">
<title>ICONFIG</title>
<path fill="#bfdbfe" stroke="black" d="M344,-496C344,-496 248,-496 248,-496 242,-496 236,-490 236,-484 236,-484 236,-433 236,-433 236,-427 242,-421 248,-421 248,-421 344,-421 344,-421 350,-421 356,-427 356,-433 356,-433 356,-484 356,-484 356,-490 350,-496 344,-496"/>
<text text-anchor="middle" x="296" y="-484" font-family="Helvetica,sans-Serif" font-size="10.00">IConfiguration</text>
<text text-anchor="middle" x="296" y="-473" font-family="Helvetica,sans-Serif" font-size="10.00">(Merged Result)</text>
<text text-anchor="middle" x="296" y="-450" font-family="Helvetica,sans-Serif" font-size="10.00">Flat key&#45;value view</text>
<text text-anchor="middle" x="296" y="-439" font-family="Helvetica,sans-Serif" font-size="10.00">Section hierarchy</text>
<text text-anchor="middle" x="296" y="-428" font-family="Helvetica,sans-Serif" font-size="10.00">Bind to typed objects</text>
</g>
<!-- CONFIG_BUILDER&#45;&gt;ICONFIG -->
<g id="edge6" class="edge">
<title>CONFIG_BUILDER&#45;&gt;ICONFIG</title>
<path fill="none" stroke="#2b6cb0" stroke-width="2" d="M309.14,-541.83C307.36,-530.63 305.37,-518.16 303.49,-506.38"/>
<polygon fill="#2b6cb0" stroke="#2b6cb0" stroke-width="2" points="306.9,-505.58 301.87,-496.26 299.99,-506.69 306.9,-505.58"/>
</g>
<!-- IOPTIONS_MON -->
<g id="node8" class="node">
<title>IOPTIONS_MON</title>
<path fill="#ddd6fe" stroke="black" d="M958.5,-235C958.5,-235 837.5,-235 837.5,-235 831.5,-235 825.5,-229 825.5,-223 825.5,-223 825.5,-161 825.5,-161 825.5,-155 831.5,-149 837.5,-149 837.5,-149 958.5,-149 958.5,-149 964.5,-149 970.5,-155 970.5,-161 970.5,-161 970.5,-223 970.5,-223 970.5,-229 964.5,-235 958.5,-235"/>
<text text-anchor="middle" x="898" y="-223" font-family="Helvetica,sans-Serif" font-size="10.00">IOptionsMonitor&lt;T&gt;</text>
<text text-anchor="middle" x="898" y="-212" font-family="Helvetica,sans-Serif" font-size="10.00">[Preferred — ADR&#45;011]</text>
<text text-anchor="middle" x="898" y="-189" font-family="Helvetica,sans-Serif" font-size="10.00">Runtime&#45;mutable config</text>
<text text-anchor="middle" x="898" y="-178" font-family="Helvetica,sans-Serif" font-size="10.00">OnChange callbacks</text>
<text text-anchor="middle" x="898" y="-167" font-family="Helvetica,sans-Serif" font-size="10.00">Supports hot&#45;reload</text>
<text text-anchor="middle" x="898" y="-156" font-family="Helvetica,sans-Serif" font-size="10.00">CurrentValue always fresh</text>
</g>
<!-- ICONFIG&#45;&gt;IOPTIONS_MON -->
<g id="edge7" class="edge">
<title>ICONFIG&#45;&gt;IOPTIONS_MON</title>
<path fill="none" stroke="#805ad5" stroke-width="2" d="M236,-449.07C167.51,-438.09 61.85,-416.47 38,-385 7.94,-345.33 4.47,-309.79 38,-273 89.74,-216.22 609.67,-199.08 815.11,-194.5"/>
<polygon fill="#805ad5" stroke="#805ad5" stroke-width="2" points="815.32,-198 825.25,-194.28 815.17,-191 815.32,-198"/>
<text text-anchor="middle" x="48.5" y="-316.3" font-family="Helvetica,sans-Serif" font-size="9.00">bind</text>
</g>
<!-- IOPTIONS -->
<g id="node9" class="node">
<title>IOPTIONS</title>
<path fill="#e9d5ff" stroke="black" d="M532,-356C532,-356 406,-356 406,-356 400,-356 394,-350 394,-344 394,-344 394,-293 394,-293 394,-287 400,-281 406,-281 406,-281 532,-281 532,-281 538,-281 544,-287 544,-293 544,-293 544,-344 544,-344 544,-350 538,-356 532,-356"/>
<text text-anchor="middle" x="469" y="-344" font-family="Helvetica,sans-Serif" font-size="10.00">IOptions&lt;T&gt;</text>
<text text-anchor="middle" x="469" y="-333" font-family="Helvetica,sans-Serif" font-size="10.00">[Snapshot — use sparingly]</text>
<text text-anchor="middle" x="469" y="-310" font-family="Helvetica,sans-Serif" font-size="10.00">Fixed at startup</text>
<text text-anchor="middle" x="469" y="-299" font-family="Helvetica,sans-Serif" font-size="10.00">No hot&#45;reload</text>
<text text-anchor="middle" x="469" y="-288" font-family="Helvetica,sans-Serif" font-size="10.00">OK for immutable settings</text>
</g>
<!-- ICONFIG&#45;&gt;IOPTIONS -->
<g id="edge8" class="edge">
<title>ICONFIG&#45;&gt;IOPTIONS</title>
<path fill="none" stroke="#805ad5" stroke-dasharray="5,2" d="M341.91,-420.88C364.48,-402.87 391.82,-381.06 415.36,-362.29"/>
<polygon fill="#805ad5" stroke="#805ad5" points="417.54,-365.02 423.18,-356.05 413.18,-359.55 417.54,-365.02"/>
</g>
<!-- VAL_STARTUP -->
<g id="node23" class="node">
<title>VAL_STARTUP</title>
<path fill="#9ae6b4" stroke="black" d="M191,-356C191,-356 83,-356 83,-356 77,-356 71,-350 71,-344 71,-344 71,-293 71,-293 71,-287 77,-281 83,-281 83,-281 191,-281 191,-281 197,-281 203,-287 203,-293 203,-293 203,-344 203,-344 203,-350 197,-356 191,-356"/>
<text text-anchor="middle" x="137" y="-344" font-family="Helvetica,sans-Serif" font-size="10.00">Startup Validation</text>
<text text-anchor="middle" x="137" y="-321" font-family="Helvetica,sans-Serif" font-size="10.00">Required field checks</text>
<text text-anchor="middle" x="137" y="-310" font-family="Helvetica,sans-Serif" font-size="10.00">Type coercion errors</text>
<text text-anchor="middle" x="137" y="-299" font-family="Helvetica,sans-Serif" font-size="10.00">Early&#45;exit on bad config</text>
<text text-anchor="middle" x="137" y="-288" font-family="Helvetica,sans-Serif" font-size="10.00">Friendly error codes</text>
</g>
<!-- ICONFIG&#45;&gt;VAL_STARTUP -->
<g id="edge23" class="edge">
<title>ICONFIG&#45;&gt;VAL_STARTUP</title>
<path fill="none" stroke="#38a169" d="M235.54,-423.56C225.96,-417.21 216.45,-410.27 208,-403 194.61,-391.49 181.6,-377.35 170.46,-364"/>
<polygon fill="#38a169" stroke="#38a169" points="173.16,-361.78 164.12,-356.26 167.74,-366.22 173.16,-361.78"/>
<text text-anchor="middle" x="250" y="-395.8" font-family="Helvetica,sans-Serif" font-size="9.00">validate at startup</text>
</g>
<!-- SHOW_CONFIG -->
<g id="node24" class="node">
<title>SHOW_CONFIG</title>
<path fill="#9ae6b4" stroke="black" d="M358.5,-356C358.5,-356 233.5,-356 233.5,-356 227.5,-356 221.5,-350 221.5,-344 221.5,-344 221.5,-293 221.5,-293 221.5,-287 227.5,-281 233.5,-281 233.5,-281 358.5,-281 358.5,-281 364.5,-281 370.5,-287 370.5,-293 370.5,-293 370.5,-344 370.5,-344 370.5,-350 364.5,-356 358.5,-356"/>
<text text-anchor="middle" x="296" y="-344" font-family="Helvetica,sans-Serif" font-size="10.00">&#45;&#45;show&#45;config</text>
<text text-anchor="middle" x="296" y="-321" font-family="Helvetica,sans-Serif" font-size="10.00">Print current merged config</text>
<text text-anchor="middle" x="296" y="-310" font-family="Helvetica,sans-Serif" font-size="10.00">Credentials masked (***)</text>
<text text-anchor="middle" x="296" y="-299" font-family="Helvetica,sans-Serif" font-size="10.00">Effective values shown</text>
<text text-anchor="middle" x="296" y="-288" font-family="Helvetica,sans-Serif" font-size="10.00">Source annotated</text>
</g>
<!-- ICONFIG&#45;&gt;SHOW_CONFIG -->
<g id="edge24" class="edge">
<title>ICONFIG&#45;&gt;SHOW_CONFIG</title>
<path fill="none" stroke="#38a169" stroke-dasharray="5,2" d="M296,-420.88C296,-404.19 296,-384.24 296,-366.46"/>
<polygon fill="#38a169" stroke="#38a169" points="299.5,-366.29 296,-356.29 292.5,-366.29 299.5,-366.29"/>
</g>
<!-- OPT_DATA -->
<g id="node11" class="node">
<title>OPT_DATA</title>
<polygon fill="#f3e8ff" stroke="black" points="506,-81.5 402,-81.5 402,-29.5 512,-29.5 512,-75.5 506,-81.5"/>
<polyline fill="none" stroke="black" points="506,-81.5 506,-75.5 "/>
<polyline fill="none" stroke="black" points="512,-75.5 506,-75.5 "/>
<text text-anchor="middle" x="457" y="-69.5" font-family="Helvetica,sans-Serif" font-size="10.00">DataSourceOptions</text>
<text text-anchor="middle" x="457" y="-58.5" font-family="Helvetica,sans-Serif" font-size="10.00">• ProviderName</text>
<text text-anchor="middle" x="457" y="-47.5" font-family="Helvetica,sans-Serif" font-size="10.00">• ConnectionString</text>
<text text-anchor="middle" x="457" y="-36.5" font-family="Helvetica,sans-Serif" font-size="10.00">• MaxReconnects</text>
</g>
<!-- IOPTIONS_MON&#45;&gt;OPT_DATA -->
<g id="edge9" class="edge">
<title>IOPTIONS_MON&#45;&gt;OPT_DATA</title>
<path fill="none" stroke="#4a5568" stroke-dasharray="5,2" d="M825.34,-190.58C746.13,-187.29 617.77,-173.49 521,-122 506.15,-114.1 492.64,-101.54 481.9,-89.52"/>
<polygon fill="#4a5568" stroke="#4a5568" points="484.42,-87.08 475.26,-81.75 479.1,-91.63 484.42,-87.08"/>
</g>
<!-- OPT_SYM -->
<g id="node12" class="node">
<title>OPT_SYM</title>
<polygon fill="#f3e8ff" stroke="black" points="620,-81.5 530,-81.5 530,-29.5 626,-29.5 626,-75.5 620,-81.5"/>
<polyline fill="none" stroke="black" points="620,-81.5 620,-75.5 "/>
<polyline fill="none" stroke="black" points="626,-75.5 620,-75.5 "/>
<text text-anchor="middle" x="578" y="-69.5" font-family="Helvetica,sans-Serif" font-size="10.00">SymbolsOptions</text>
<text text-anchor="middle" x="578" y="-58.5" font-family="Helvetica,sans-Serif" font-size="10.00">• Monitored[]</text>
<text text-anchor="middle" x="578" y="-47.5" font-family="Helvetica,sans-Serif" font-size="10.00">• Archived[]</text>
<text text-anchor="middle" x="578" y="-36.5" font-family="Helvetica,sans-Serif" font-size="10.00">• Tiers</text>
</g>
<!-- IOPTIONS_MON&#45;&gt;OPT_SYM -->
<g id="edge10" class="edge">
<title>IOPTIONS_MON&#45;&gt;OPT_SYM</title>
<path fill="none" stroke="#4a5568" stroke-dasharray="5,2" d="M825.34,-183.7C769.8,-175.45 693.15,-158.1 635,-122 621.68,-113.73 609.78,-101.37 600.34,-89.61"/>
<polygon fill="#4a5568" stroke="#4a5568" points="603.07,-87.42 594.21,-81.62 597.52,-91.68 603.07,-87.42"/>
</g>
<!-- OPT_STOR -->
<g id="node13" class="node">
<title>OPT_STOR</title>
<polygon fill="#f3e8ff" stroke="black" points="754,-87 644,-87 644,-24 760,-24 760,-81 754,-87"/>
<polyline fill="none" stroke="black" points="754,-87 754,-81 "/>
<polyline fill="none" stroke="black" points="760,-81 754,-81 "/>
<text text-anchor="middle" x="702" y="-75" font-family="Helvetica,sans-Serif" font-size="10.00">StorageOptions</text>
<text text-anchor="middle" x="702" y="-64" font-family="Helvetica,sans-Serif" font-size="10.00">• RootPath</text>
<text text-anchor="middle" x="702" y="-53" font-family="Helvetica,sans-Serif" font-size="10.00">• Format</text>
<text text-anchor="middle" x="702" y="-42" font-family="Helvetica,sans-Serif" font-size="10.00">• RetentionDays</text>
<text text-anchor="middle" x="702" y="-31" font-family="Helvetica,sans-Serif" font-size="10.00">• CompressionLevel</text>
</g>
<!-- IOPTIONS_MON&#45;&gt;OPT_STOR -->
<g id="edge11" class="edge">
<title>IOPTIONS_MON&#45;&gt;OPT_STOR</title>
<path fill="none" stroke="#4a5568" stroke-dasharray="5,2" d="M825.19,-156.67C806.25,-146.52 786.31,-134.69 769,-122 757.92,-113.88 746.86,-103.98 737.01,-94.37"/>
<polygon fill="#4a5568" stroke="#4a5568" points="739.28,-91.7 729.73,-87.11 734.34,-96.65 739.28,-91.7"/>
</g>
<!-- OPT_BF -->
<g id="node14" class="node">
<title>OPT_BF</title>
<polygon fill="#f3e8ff" stroke="black" points="888,-81.5 778,-81.5 778,-29.5 894,-29.5 894,-75.5 888,-81.5"/>
<polyline fill="none" stroke="black" points="888,-81.5 888,-75.5 "/>
<polyline fill="none" stroke="black" points="894,-75.5 888,-75.5 "/>
<text text-anchor="middle" x="836" y="-69.5" font-family="Helvetica,sans-Serif" font-size="10.00">BackfillOptions</text>
<text text-anchor="middle" x="836" y="-58.5" font-family="Helvetica,sans-Serif" font-size="10.00">• Providers[]</text>
<text text-anchor="middle" x="836" y="-47.5" font-family="Helvetica,sans-Serif" font-size="10.00">• MaxConcurrency</text>
<text text-anchor="middle" x="836" y="-36.5" font-family="Helvetica,sans-Serif" font-size="10.00">• DefaultDateRange</text>
</g>
<!-- IOPTIONS_MON&#45;&gt;OPT_BF -->
<g id="edge12" class="edge">
<title>IOPTIONS_MON&#45;&gt;OPT_BF</title>
<path fill="none" stroke="#4a5568" stroke-dasharray="5,2" d="M878.55,-148.81C869.98,-130.22 860.04,-108.65 851.92,-91.04"/>
<polygon fill="#4a5568" stroke="#4a5568" points="854.98,-89.32 847.62,-81.7 848.62,-92.25 854.98,-89.32"/>
</g>
<!-- OPT_DQ -->
<g id="node15" class="node">
<title>OPT_DQ</title>
<polygon fill="#f3e8ff" stroke="black" points="1019.5,-81.5 912.5,-81.5 912.5,-29.5 1025.5,-29.5 1025.5,-75.5 1019.5,-81.5"/>
<polyline fill="none" stroke="black" points="1019.5,-81.5 1019.5,-75.5 "/>
<polyline fill="none" stroke="black" points="1025.5,-75.5 1019.5,-75.5 "/>
<text text-anchor="middle" x="969" y="-69.5" font-family="Helvetica,sans-Serif" font-size="10.00">DataQualityOptions</text>
<text text-anchor="middle" x="969" y="-58.5" font-family="Helvetica,sans-Serif" font-size="10.00">• MinGrade</text>
<text text-anchor="middle" x="969" y="-47.5" font-family="Helvetica,sans-Serif" font-size="10.00">• OutlierSigma</text>
<text text-anchor="middle" x="969" y="-36.5" font-family="Helvetica,sans-Serif" font-size="10.00">• SlaLatencyMs</text>
</g>
<!-- IOPTIONS_MON&#45;&gt;OPT_DQ -->
<g id="edge13" class="edge">
<title>IOPTIONS_MON&#45;&gt;OPT_DQ</title>
<path fill="none" stroke="#4a5568" stroke-dasharray="5,2" d="M920.27,-148.81C930.17,-130.05 941.68,-108.25 951.03,-90.55"/>
<polygon fill="#4a5568" stroke="#4a5568" points="954.12,-92.18 955.7,-81.7 947.93,-88.91 954.12,-92.18"/>
</g>
<!-- STREAM_PROV -->
<g id="node18" class="node">
<title>STREAM_PROV</title>
<path fill="#6ee7b7" stroke="black" d="M1200,-93C1200,-93 1070,-93 1070,-93 1064,-93 1058,-87 1058,-81 1058,-81 1058,-30 1058,-30 1058,-24 1064,-18 1070,-18 1070,-18 1200,-18 1200,-18 1206,-18 1212,-24 1212,-30 1212,-30 1212,-81 1212,-81 1212,-87 1206,-93 1200,-93"/>
<text text-anchor="middle" x="1135" y="-81" font-family="Helvetica,sans-Serif" font-size="10.00">Streaming Providers</text>
<text text-anchor="middle" x="1135" y="-70" font-family="Helvetica,sans-Serif" font-size="10.00">(IMarketDataClient)</text>
<text text-anchor="middle" x="1135" y="-47" font-family="Helvetica,sans-Serif" font-size="10.00">Reads: connection strings,</text>
<text text-anchor="middle" x="1135" y="-36" font-family="Helvetica,sans-Serif" font-size="10.00">API keys, reconnect settings</text>
<text text-anchor="middle" x="1135" y="-25" font-family="Helvetica,sans-Serif" font-size="10.00">Via IOptionsMonitor</text>
</g>
<!-- IOPTIONS_MON&#45;&gt;STREAM_PROV -->
<g id="edge16" class="edge">
<title>IOPTIONS_MON&#45;&gt;STREAM_PROV</title>
<path fill="none" stroke="#2c7a7b" stroke-width="2" d="M970.57,-157.56C992.56,-146.81 1016.56,-134.45 1038,-122 1050.35,-114.83 1063.23,-106.66 1075.42,-98.58"/>
<polygon fill="#2c7a7b" stroke="#2c7a7b" stroke-width="2" points="1077.37,-101.49 1083.73,-93.01 1073.48,-95.67 1077.37,-101.49"/>
</g>
<!-- HIST_PROV -->
<g id="node19" class="node">
<title>HIST_PROV</title>
<path fill="#6ee7b7" stroke="black" d="M1372,-93C1372,-93 1242,-93 1242,-93 1236,-93 1230,-87 1230,-81 1230,-81 1230,-30 1230,-30 1230,-24 1236,-18 1242,-18 1242,-18 1372,-18 1372,-18 1378,-18 1384,-24 1384,-30 1384,-30 1384,-81 1384,-81 1384,-87 1378,-93 1372,-93"/>
<text text-anchor="middle" x="1307" y="-81" font-family="Helvetica,sans-Serif" font-size="10.00">Historical Providers</text>
<text text-anchor="middle" x="1307" y="-70" font-family="Helvetica,sans-Serif" font-size="10.00">(IHistoricalDataProvider)</text>
<text text-anchor="middle" x="1307" y="-47" font-family="Helvetica,sans-Serif" font-size="10.00">Reads: API keys, base URLs,</text>
<text text-anchor="middle" x="1307" y="-36" font-family="Helvetica,sans-Serif" font-size="10.00">rate limits, priority order</text>
<text text-anchor="middle" x="1307" y="-25" font-family="Helvetica,sans-Serif" font-size="10.00">Via IOptionsMonitor</text>
</g>
<!-- IOPTIONS_MON&#45;&gt;HIST_PROV -->
<g id="edge17" class="edge">
<title>IOPTIONS_MON&#45;&gt;HIST_PROV</title>
<path fill="none" stroke="#2c7a7b" stroke-width="2" d="M970.79,-184.66C1038.21,-176.69 1139.98,-159.23 1221,-122 1233.9,-116.07 1246.68,-107.93 1258.3,-99.4"/>
<polygon fill="#2c7a7b" stroke="#2c7a7b" stroke-width="2" points="1260.68,-101.98 1266.53,-93.14 1256.45,-96.41 1260.68,-101.98"/>
</g>
<!-- STORAGE_COMP -->
<g id="node20" class="node">
<title>STORAGE_COMP</title>
<path fill="#6ee7b7" stroke="black" d="M1529.5,-93C1529.5,-93 1414.5,-93 1414.5,-93 1408.5,-93 1402.5,-87 1402.5,-81 1402.5,-81 1402.5,-30 1402.5,-30 1402.5,-24 1408.5,-18 1414.5,-18 1414.5,-18 1529.5,-18 1529.5,-18 1535.5,-18 1541.5,-24 1541.5,-30 1541.5,-30 1541.5,-81 1541.5,-81 1541.5,-87 1535.5,-93 1529.5,-93"/>
<text text-anchor="middle" x="1472" y="-81" font-family="Helvetica,sans-Serif" font-size="10.00">Storage Layer</text>
<text text-anchor="middle" x="1472" y="-70" font-family="Helvetica,sans-Serif" font-size="10.00">(Sinks, WAL, Tiering)</text>
<text text-anchor="middle" x="1472" y="-47" font-family="Helvetica,sans-Serif" font-size="10.00">Reads: root path, format,</text>
<text text-anchor="middle" x="1472" y="-36" font-family="Helvetica,sans-Serif" font-size="10.00">compression, retention</text>
<text text-anchor="middle" x="1472" y="-25" font-family="Helvetica,sans-Serif" font-size="10.00">Via IOptionsMonitor</text>
</g>
<!-- IOPTIONS_MON&#45;&gt;STORAGE_COMP -->
<g id="edge18" class="edge">
<title>IOPTIONS_MON&#45;&gt;STORAGE_COMP</title>
<path fill="none" stroke="#2c7a7b" stroke-width="2" d="M970.79,-185.76C1089.48,-176.41 1318.87,-154.69 1393,-122 1405.47,-116.5 1417.54,-108.44 1428.34,-99.84"/>
<polygon fill="#2c7a7b" stroke="#2c7a7b" stroke-width="2" points="1430.88,-102.27 1436.34,-93.19 1426.41,-96.89 1430.88,-102.27"/>
</g>
<!-- PIPELINE -->
<g id="node21" class="node">
<title>PIPELINE</title>
<path fill="#6ee7b7" stroke="black" d="M1688,-87.5C1688,-87.5 1572,-87.5 1572,-87.5 1566,-87.5 1560,-81.5 1560,-75.5 1560,-75.5 1560,-35.5 1560,-35.5 1560,-29.5 1566,-23.5 1572,-23.5 1572,-23.5 1688,-23.5 1688,-23.5 1694,-23.5 1700,-29.5 1700,-35.5 1700,-35.5 1700,-75.5 1700,-75.5 1700,-81.5 1694,-87.5 1688,-87.5"/>
<text text-anchor="middle" x="1630" y="-75.5" font-family="Helvetica,sans-Serif" font-size="10.00">EventPipeline</text>
<text text-anchor="middle" x="1630" y="-52.5" font-family="Helvetica,sans-Serif" font-size="10.00">Reads: channel capacity,</text>
<text text-anchor="middle" x="1630" y="-41.5" font-family="Helvetica,sans-Serif" font-size="10.00">drop policy, flush interval</text>
<text text-anchor="middle" x="1630" y="-30.5" font-family="Helvetica,sans-Serif" font-size="10.00">Via IOptionsMonitor</text>
</g>
<!-- IOPTIONS_MON&#45;&gt;PIPELINE -->
<g id="edge19" class="edge">
<title>IOPTIONS_MON&#45;&gt;PIPELINE</title>
<path fill="none" stroke="#2c7a7b" d="M970.7,-188.6C1118.29,-182.87 1447.78,-165.49 1551,-122 1566.22,-115.59 1580.77,-105.23 1593.15,-94.63"/>
<polygon fill="#2c7a7b" stroke="#2c7a7b" points="1595.83,-96.93 1600.96,-87.66 1591.16,-91.71 1595.83,-96.93"/>
</g>
<!-- SLA_MON -->
<g id="node22" class="node">
<title>SLA_MON</title>
<path fill="#6ee7b7" stroke="black" d="M1860,-87.5C1860,-87.5 1730,-87.5 1730,-87.5 1724,-87.5 1718,-81.5 1718,-75.5 1718,-75.5 1718,-35.5 1718,-35.5 1718,-29.5 1724,-23.5 1730,-23.5 1730,-23.5 1860,-23.5 1860,-23.5 1866,-23.5 1872,-29.5 1872,-35.5 1872,-35.5 1872,-75.5 1872,-75.5 1872,-81.5 1866,-87.5 1860,-87.5"/>
<text text-anchor="middle" x="1795" y="-75.5" font-family="Helvetica,sans-Serif" font-size="10.00">SLA Monitor</text>
<text text-anchor="middle" x="1795" y="-52.5" font-family="Helvetica,sans-Serif" font-size="10.00">Reads: per&#45;provider targets,</text>
<text text-anchor="middle" x="1795" y="-41.5" font-family="Helvetica,sans-Serif" font-size="10.00">grade thresholds, alert rules</text>
<text text-anchor="middle" x="1795" y="-30.5" font-family="Helvetica,sans-Serif" font-size="10.00">Via IOptionsMonitor</text>
</g>
<!-- IOPTIONS_MON&#45;&gt;SLA_MON -->
<g id="edge20" class="edge">
<title>IOPTIONS_MON&#45;&gt;SLA_MON</title>
<path fill="none" stroke="#2c7a7b" d="M970.68,-189.98C1143.63,-186.75 1575.17,-173.58 1709,-122 1725.54,-115.62 1741.59,-105.04 1755.25,-94.21"/>
<polygon fill="#2c7a7b" stroke="#2c7a7b" points="1757.5,-96.89 1763,-87.84 1753.05,-91.48 1757.5,-96.89"/>
</g>
<!-- WATCH_CONFIG&#45;&gt;IOPTIONS_MON -->
<g id="edge14" class="edge">
<title>WATCH_CONFIG&#45;&gt;IOPTIONS_MON</title>
<path fill="none" stroke="#805ad5" d="M857.09,-280.82C862.41,-269.39 868.39,-256.56 874.09,-244.32"/>
<polygon fill="#805ad5" stroke="#805ad5" points="877.33,-245.65 878.38,-235.11 870.99,-242.69 877.33,-245.65"/>
<text text-anchor="middle" x="900" y="-255.8" font-family="Helvetica,sans-Serif" font-size="9.00">reload trigger</text>
</g>
<!-- CRED_VALIDATE -->
<g id="node17" class="node">
<title>CRED_VALIDATE</title>
<path fill="#fecaca" stroke="black" d="M633,-496C633,-496 525,-496 525,-496 519,-496 513,-490 513,-484 513,-484 513,-433 513,-433 513,-427 519,-421 525,-421 525,-421 633,-421 633,-421 639,-421 645,-427 645,-433 645,-433 645,-484 645,-484 645,-490 639,-496 633,-496"/>
<text text-anchor="middle" x="579" y="-484" font-family="Helvetica,sans-Serif" font-size="10.00">CredentialValidator</text>
<text text-anchor="middle" x="579" y="-461" font-family="Helvetica,sans-Serif" font-size="10.00">&#45;&#45;validate&#45;credentials</text>
<text text-anchor="middle" x="579" y="-450" font-family="Helvetica,sans-Serif" font-size="10.00">Test each API key live</text>
<text text-anchor="middle" x="579" y="-439" font-family="Helvetica,sans-Serif" font-size="10.00">Report missing / invalid</text>
<text text-anchor="middle" x="579" y="-428" font-family="Helvetica,sans-Serif" font-size="10.00">Suggest env var names</text>
</g>
<!-- CRED_ENV&#45;&gt;CRED_VALIDATE -->
<g id="edge22" class="edge">
<title>CRED_ENV&#45;&gt;CRED_VALIDATE</title>
<path fill="none" stroke="#c53030" stroke-dasharray="5,2" d="M579,-541.83C579,-530.63 579,-518.16 579,-506.38"/>
<polygon fill="#c53030" stroke="#c53030" points="582.5,-506.26 579,-496.26 575.5,-506.26 582.5,-506.26"/>
</g>
<!-- LEG -->
<g id="node25" class="node">
<title>LEG</title>
<path fill="lightgrey" stroke="transparent" d="M1518.5,-767.5C1518.5,-767.5 1251.5,-767.5 1251.5,-767.5 1245.5,-767.5 1239.5,-761.5 1239.5,-755.5 1239.5,-755.5 1239.5,-727.5 1239.5,-727.5 1239.5,-721.5 1245.5,-715.5 1251.5,-715.5 1251.5,-715.5 1518.5,-715.5 1518.5,-715.5 1524.5,-715.5 1530.5,-721.5 1530.5,-727.5 1530.5,-727.5 1530.5,-755.5 1530.5,-755.5 1530.5,-761.5 1524.5,-767.5 1518.5,-767.5"/>
<text text-anchor="middle" x="1385" y="-755.5" font-family="Helvetica,sans-Serif" font-size="10.00">━━ Primary config flow</text>
<text text-anchor="middle" x="1385" y="-744.5" font-family="Helvetica,sans-Serif" font-size="10.00">─ ─ Reference / Optional</text>
<text text-anchor="middle" x="1385" y="-733.5" font-family="Helvetica,sans-Serif" font-size="10.00">Priority: env vars override JSON, JSON overrides defaults</text>
<text text-anchor="middle" x="1385" y="-722.5" font-family="Helvetica,sans-Serif" font-size="10.00">Red = credentials (env vars only, never in files)</text>
</g>
</g>
</svg>
