<?xml version="1.0" encoding="UTF-8" standalone="no"?>
<!DOCTYPE svg PUBLIC "-//W3C//DTD SVG 1.1//EN"
 "http://www.w3.org/Graphics/SVG/1.1/DTD/svg11.dtd">
<!-- Generated by graphviz version 2.43.0 (0)
 -->
<!-- Title: DataQualityMonitoring Pages: 1 -->
<svg width="2890pt" height="740pt"
 viewBox="0.00 0.00 2890.00 739.50" xmlns="http://www.w3.org/2000/svg" xmlns:xlink="http://www.w3.org/1999/xlink">
<g id="graph0" class="graph" transform="scale(1 1) rotate(0) translate(36 703.5)">
<title>DataQualityMonitoring</title>
<polygon fill="white" stroke="transparent" points="-36,36 -36,-703.5 2854,-703.5 2854,36 -36,36"/>
<text text-anchor="middle" x="1409" y="-653.9" font-family="Helvetica,sans-Serif" font-size="12.00">Meridian &#45; Data Quality &amp; Monitoring</text>
<text text-anchor="middle" x="1409" y="-640.9" font-family="Helvetica,sans-Serif" font-size="12.00">Quality Scoring, SLA Enforcement &amp; Observability | v1.7.x</text>
<g id="clust1" class="cluster">
<title>cluster_quality</title>
<path fill="#fee2e2" stroke="#c53030" d="M422,-324C422,-324 1543,-324 1543,-324 1549,-324 1555,-330 1555,-336 1555,-336 1555,-602.5 1555,-602.5 1555,-608.5 1549,-614.5 1543,-614.5 1543,-614.5 422,-614.5 422,-614.5 416,-614.5 410,-608.5 410,-602.5 410,-602.5 410,-336 410,-336 410,-330 416,-324 422,-324"/>
<text text-anchor="middle" x="982.5" y="-600.9" font-family="Helvetica,sans-Serif" font-size="12.00">Data Quality Scoring (DataQualityScoringService)</text>
</g>
<g id="clust2" class="cluster">
<title>cluster_dimensions</title>
<polygon fill="#fee2e2" stroke="#991b1b" stroke-dasharray="5,2" points="418,-335 418,-447 1169,-447 1169,-335 418,-335"/>
<text text-anchor="middle" x="793.5" y="-433.4" font-family="Helvetica,sans-Serif" font-size="12.00">Quality Dimensions (Weighted Score)</text>
</g>
<g id="clust3" class="cluster">
<title>cluster_outlier</title>
<path fill="#fffaf0" stroke="#ed8936" d="M425,-17C425,-17 1007,-17 1007,-17 1013,-17 1019,-23 1019,-29 1019,-29 1019,-281 1019,-281 1019,-287 1013,-293 1007,-293 1007,-293 425,-293 425,-293 419,-293 413,-287 413,-281 413,-281 413,-29 413,-29 413,-23 419,-17 425,-17"/>
<text text-anchor="middle" x="716" y="-279.4" font-family="Helvetica,sans-Serif" font-size="12.00">Statistical Outlier Detection</text>
</g>
<g id="clust4" class="cluster">
<title>cluster_checks</title>
<polygon fill="#fffaf0" stroke="#c05621" stroke-dasharray="5,2" points="421,-25 421,-125 1011,-125 1011,-25 421,-25"/>
<text text-anchor="middle" x="716" y="-111.4" font-family="Helvetica,sans-Serif" font-size="12.00">Detection Checks</text>
</g>
<g id="clust5" class="cluster">
<title>cluster_sla</title>
<path fill="#dbeafe" stroke="#2b6cb0" d="M2081,-184.5C2081,-184.5 2645,-184.5 2645,-184.5 2651,-184.5 2657,-190.5 2657,-196.5 2657,-196.5 2657,-435 2657,-435 2657,-441 2651,-447 2645,-447 2645,-447 2081,-447 2081,-447 2075,-447 2069,-441 2069,-435 2069,-435 2069,-196.5 2069,-196.5 2069,-190.5 2075,-184.5 2081,-184.5"/>
<text text-anchor="middle" x="2363" y="-433.4" font-family="Helvetica,sans-Serif" font-size="12.00">SLA Enforcement</text>
</g>
<g id="clust6" class="cluster">
<title>cluster_sla_metrics</title>
<polygon fill="#dbeafe" stroke="#1e40af" stroke-dasharray="5,2" points="2077,-192.5 2077,-281.5 2527,-281.5 2527,-192.5 2077,-192.5"/>
<text text-anchor="middle" x="2302" y="-267.9" font-family="Helvetica,sans-Serif" font-size="12.00">SLA Metrics</text>
</g>
<g id="clust7" class="cluster">
<title>cluster_retention</title>
<path fill="#c6f6d5" stroke="#38a169" d="M20,-175.5C20,-175.5 390,-175.5 390,-175.5 396,-175.5 402,-181.5 402,-187.5 402,-187.5 402,-440.5 402,-440.5 402,-446.5 396,-452.5 390,-452.5 390,-452.5 20,-452.5 20,-452.5 14,-452.5 8,-446.5 8,-440.5 8,-440.5 8,-187.5 8,-187.5 8,-181.5 14,-175.5 20,-175.5"/>
<text text-anchor="middle" x="205" y="-438.9" font-family="Helvetica,sans-Serif" font-size="12.00">Retention &amp; Compliance (RetentionComplianceReporter)</text>
</g>
<g id="clust8" class="cluster">
<title>cluster_observability</title>
<path fill="#faf5ff" stroke="#805ad5" d="M1721,-8C1721,-8 2049,-8 2049,-8 2055,-8 2061,-14 2061,-20 2061,-20 2061,-613.5 2061,-613.5 2061,-619.5 2055,-625.5 2049,-625.5 2049,-625.5 1721,-625.5 1721,-625.5 1715,-625.5 1709,-619.5 1709,-613.5 1709,-613.5 1709,-20 1709,-20 1709,-14 1715,-8 1721,-8"/>
<text text-anchor="middle" x="1885" y="-611.9" font-family="Helvetica,sans-Serif" font-size="12.00">Observability Stack</text>
</g>
<g id="clust9" class="cluster">
<title>cluster_alerts</title>
<path fill="#fff5f5" stroke="#e53e3e" d="M2342,-19C2342,-19 2798,-19 2798,-19 2804,-19 2810,-25 2810,-31 2810,-31 2810,-119 2810,-119 2810,-125 2804,-131 2798,-131 2798,-131 2342,-131 2342,-131 2336,-131 2330,-125 2330,-119 2330,-119 2330,-31 2330,-31 2330,-25 2336,-19 2342,-19"/>
<text text-anchor="middle" x="2570" y="-117.4" font-family="Helvetica,sans-Serif" font-size="12.00">Alert Channels</text>
</g>
<g id="clust10" class="cluster">
<title>cluster_legend</title>
<path fill="#fafafa" stroke="#666666" d="M2330,-508.5C2330,-508.5 2530,-508.5 2530,-508.5 2536,-508.5 2542,-514.5 2542,-520.5 2542,-520.5 2542,-585.5 2542,-585.5 2542,-591.5 2536,-597.5 2530,-597.5 2530,-597.5 2330,-597.5 2330,-597.5 2324,-597.5 2318,-591.5 2318,-585.5 2318,-585.5 2318,-520.5 2318,-520.5 2318,-514.5 2324,-508.5 2330,-508.5"/>
<text text-anchor="middle" x="2430" y="-583.9" font-family="Helvetica,sans-Serif" font-size="12.00">Legend</text>
</g>
<!-- DQS -->
<g id="node1" class="node">
<title>DQS</title>
<path fill="#fc8181" stroke="black" d="M1079,-585.5C1079,-585.5 923,-585.5 923,-585.5 917,-585.5 911,-579.5 911,-573.5 911,-573.5 911,-511.5 911,-511.5 911,-505.5 917,-499.5 923,-499.5 923,-499.5 1079,-499.5 1079,-499.5 1085,-499.5 1091,-505.5 1091,-511.5 1091,-511.5 1091,-573.5 1091,-573.5 1091,-579.5 1085,-585.5 1079,-585.5"/>
<text text-anchor="middle" x="1001" y="-573.5" font-family="Helvetica,sans-Serif" font-size="10.00" fill="white">DataQualityScoringService</text>
<text text-anchor="middle" x="1001" y="-550.5" font-family="Helvetica,sans-Serif" font-size="10.00" fill="white">Multi&#45;dimensional quality scoring</text>
<text text-anchor="middle" x="1001" y="-539.5" font-family="Helvetica,sans-Serif" font-size="10.00" fill="white">Per&#45;symbol, per&#45;provider</text>
<text text-anchor="middle" x="1001" y="-528.5" font-family="Helvetica,sans-Serif" font-size="10.00" fill="white">Configurable weights</text>
<text text-anchor="middle" x="1001" y="-517.5" font-family="Helvetica,sans-Serif" font-size="10.00" fill="white">Grade assignment</text>
<text text-anchor="middle" x="1001" y="-506.5" font-family="Helvetica,sans-Serif" font-size="10.00" fill="white">Time&#45;windowed analysis</text>
</g>
<!-- DIM1 -->
<g id="node2" class="node">
<title>DIM1</title>
<path fill="#fecaca" stroke="black" d="M859.5,-418C859.5,-418 738.5,-418 738.5,-418 732.5,-418 726.5,-412 726.5,-406 726.5,-406 726.5,-355 726.5,-355 726.5,-349 732.5,-343 738.5,-343 738.5,-343 859.5,-343 859.5,-343 865.5,-343 871.5,-349 871.5,-355 871.5,-355 871.5,-406 871.5,-406 871.5,-412 865.5,-418 859.5,-418"/>
<text text-anchor="middle" x="799" y="-406" font-family="Helvetica,sans-Serif" font-size="10.00">Completeness (30%)</text>
<text text-anchor="middle" x="799" y="-383" font-family="Helvetica,sans-Serif" font-size="10.00">Expected vs actual events</text>
<text text-anchor="middle" x="799" y="-372" font-family="Helvetica,sans-Serif" font-size="10.00">Gap count and duration</text>
<text text-anchor="middle" x="799" y="-361" font-family="Helvetica,sans-Serif" font-size="10.00">Missing session data</text>
<text text-anchor="middle" x="799" y="-350" font-family="Helvetica,sans-Serif" font-size="10.00">Subscription coverage</text>
</g>
<!-- DQS&#45;&gt;DIM1 -->
<g id="edge1" class="edge">
<title>DQS&#45;&gt;DIM1</title>
<path fill="none" stroke="#4a5568" stroke-dasharray="5,2" d="M942.34,-499.37C922.61,-484.83 900.63,-468.24 881,-452.5 870.12,-443.78 858.68,-434.16 847.91,-424.9"/>
<polygon fill="#4a5568" stroke="#4a5568" points="850.05,-422.13 840.2,-418.24 845.48,-427.43 850.05,-422.13"/>
</g>
<!-- DIM2 -->
<g id="node3" class="node">
<title>DIM2</title>
<path fill="#fecaca" stroke="black" d="M696,-418C696,-418 576,-418 576,-418 570,-418 564,-412 564,-406 564,-406 564,-355 564,-355 564,-349 570,-343 576,-343 576,-343 696,-343 696,-343 702,-343 708,-349 708,-355 708,-355 708,-406 708,-406 708,-412 702,-418 696,-418"/>
<text text-anchor="middle" x="636" y="-406" font-family="Helvetica,sans-Serif" font-size="10.00">Accuracy (25%)</text>
<text text-anchor="middle" x="636" y="-383" font-family="Helvetica,sans-Serif" font-size="10.00">Outlier detection (4σ)</text>
<text text-anchor="middle" x="636" y="-372" font-family="Helvetica,sans-Serif" font-size="10.00">Price reasonability checks</text>
<text text-anchor="middle" x="636" y="-361" font-family="Helvetica,sans-Serif" font-size="10.00">Volume spike detection</text>
<text text-anchor="middle" x="636" y="-350" font-family="Helvetica,sans-Serif" font-size="10.00">Cross&#45;provider validation</text>
</g>
<!-- DQS&#45;&gt;DIM2 -->
<g id="edge2" class="edge">
<title>DQS&#45;&gt;DIM2</title>
<path fill="none" stroke="#4a5568" stroke-dasharray="5,2" d="M910.82,-523.13C853.25,-509.03 778.37,-486.2 718,-452.5 704.51,-444.97 691.25,-434.98 679.45,-424.87"/>
<polygon fill="#4a5568" stroke="#4a5568" points="681.74,-422.22 671.92,-418.24 677.11,-427.47 681.74,-422.22"/>
</g>
<!-- DIM3 -->
<g id="node4" class="node">
<title>DIM3</title>
<path fill="#fecaca" stroke="black" d="M986.5,-418C986.5,-418 901.5,-418 901.5,-418 895.5,-418 889.5,-412 889.5,-406 889.5,-406 889.5,-355 889.5,-355 889.5,-349 895.5,-343 901.5,-343 901.5,-343 986.5,-343 986.5,-343 992.5,-343 998.5,-349 998.5,-355 998.5,-355 998.5,-406 998.5,-406 998.5,-412 992.5,-418 986.5,-418"/>
<text text-anchor="middle" x="944" y="-406" font-family="Helvetica,sans-Serif" font-size="10.00">Timeliness (20%)</text>
<text text-anchor="middle" x="944" y="-383" font-family="Helvetica,sans-Serif" font-size="10.00">End&#45;to&#45;end latency</text>
<text text-anchor="middle" x="944" y="-372" font-family="Helvetica,sans-Serif" font-size="10.00">Event arrival delay</text>
<text text-anchor="middle" x="944" y="-361" font-family="Helvetica,sans-Serif" font-size="10.00">Out&#45;of&#45;order rate</text>
<text text-anchor="middle" x="944" y="-350" font-family="Helvetica,sans-Serif" font-size="10.00">Timestamp drift</text>
</g>
<!-- DQS&#45;&gt;DIM3 -->
<g id="edge3" class="edge">
<title>DQS&#45;&gt;DIM3</title>
<path fill="none" stroke="#4a5568" stroke-dasharray="5,2" d="M986.02,-499.46C978.18,-477.44 968.56,-450.43 960.5,-427.81"/>
<polygon fill="#4a5568" stroke="#4a5568" points="963.69,-426.34 957.04,-418.09 957.09,-428.69 963.69,-426.34"/>
</g>
<!-- DIM4 -->
<g id="node5" class="node">
<title>DIM4</title>
<path fill="#fecaca" stroke="black" d="M1149,-418C1149,-418 1029,-418 1029,-418 1023,-418 1017,-412 1017,-406 1017,-406 1017,-355 1017,-355 1017,-349 1023,-343 1029,-343 1029,-343 1149,-343 1149,-343 1155,-343 1161,-349 1161,-355 1161,-355 1161,-406 1161,-406 1161,-412 1155,-418 1149,-418"/>
<text text-anchor="middle" x="1089" y="-406" font-family="Helvetica,sans-Serif" font-size="10.00">Consistency (15%)</text>
<text text-anchor="middle" x="1089" y="-383" font-family="Helvetica,sans-Serif" font-size="10.00">Sequence continuity</text>
<text text-anchor="middle" x="1089" y="-372" font-family="Helvetica,sans-Serif" font-size="10.00">Intra&#45;day price continuity</text>
<text text-anchor="middle" x="1089" y="-361" font-family="Helvetica,sans-Serif" font-size="10.00">Cross&#45;symbol consistency</text>
<text text-anchor="middle" x="1089" y="-350" font-family="Helvetica,sans-Serif" font-size="10.00">Duplicate event rate</text>
</g>
<!-- DQS&#45;&gt;DIM4 -->
<g id="edge4" class="edge">
<title>DQS&#45;&gt;DIM4</title>
<path fill="none" stroke="#4a5568" stroke-dasharray="5,2" d="M1024.12,-499.46C1036.39,-477.15 1051.49,-449.7 1064.03,-426.9"/>
<polygon fill="#4a5568" stroke="#4a5568" points="1067.12,-428.54 1068.87,-418.09 1060.99,-425.17 1067.12,-428.54"/>
</g>
<!-- DIM5 -->
<g id="node6" class="node">
<title>DIM5</title>
<path fill="#fecaca" stroke="black" d="M533.5,-418C533.5,-418 438.5,-418 438.5,-418 432.5,-418 426.5,-412 426.5,-406 426.5,-406 426.5,-355 426.5,-355 426.5,-349 432.5,-343 438.5,-343 438.5,-343 533.5,-343 533.5,-343 539.5,-343 545.5,-349 545.5,-355 545.5,-355 545.5,-406 545.5,-406 545.5,-412 539.5,-418 533.5,-418"/>
<text text-anchor="middle" x="486" y="-406" font-family="Helvetica,sans-Serif" font-size="10.00">Validity (10%)</text>
<text text-anchor="middle" x="486" y="-383" font-family="Helvetica,sans-Serif" font-size="10.00">Schema compliance</text>
<text text-anchor="middle" x="486" y="-372" font-family="Helvetica,sans-Serif" font-size="10.00">Business rule checks</text>
<text text-anchor="middle" x="486" y="-361" font-family="Helvetica,sans-Serif" font-size="10.00">(bid &lt; ask, vol ≥ 0)</text>
<text text-anchor="middle" x="486" y="-350" font-family="Helvetica,sans-Serif" font-size="10.00">Format correctness</text>
</g>
<!-- DQS&#45;&gt;DIM5 -->
<g id="edge5" class="edge">
<title>DQS&#45;&gt;DIM5</title>
<path fill="none" stroke="#4a5568" stroke-dasharray="5,2" d="M910.64,-539.07C816.57,-533.1 667.53,-513.73 555,-452.5 542.49,-445.69 530.84,-435.85 520.82,-425.65"/>
<polygon fill="#4a5568" stroke="#4a5568" points="523.21,-423.09 513.81,-418.2 518.11,-427.88 523.21,-423.09"/>
</g>
<!-- GRADES -->
<g id="node7" class="node">
<title>GRADES</title>
<polygon fill="#fecaca" stroke="black" points="1307,-429 1179,-429 1179,-332 1313,-332 1313,-423 1307,-429"/>
<polyline fill="none" stroke="black" points="1307,-429 1307,-423 "/>
<polyline fill="none" stroke="black" points="1313,-423 1307,-423 "/>
<text text-anchor="middle" x="1246" y="-417" font-family="Helvetica,sans-Serif" font-size="10.00">Quality Grades:</text>
<text text-anchor="middle" x="1246" y="-394" font-family="Helvetica,sans-Serif" font-size="10.00">A+ (95&#45;100%) Excellent</text>
<text text-anchor="middle" x="1246" y="-383" font-family="Helvetica,sans-Serif" font-size="10.00">A &#160;(90&#45;94%) &#160;Good</text>
<text text-anchor="middle" x="1246" y="-372" font-family="Helvetica,sans-Serif" font-size="10.00">B &#160;(80&#45;89%) &#160;Acceptable</text>
<text text-anchor="middle" x="1246" y="-361" font-family="Helvetica,sans-Serif" font-size="10.00">C &#160;(70&#45;79%) &#160;Marginal</text>
<text text-anchor="middle" x="1246" y="-350" font-family="Helvetica,sans-Serif" font-size="10.00">D &#160;(60&#45;69%) &#160;Poor</text>
<text text-anchor="middle" x="1246" y="-339" font-family="Helvetica,sans-Serif" font-size="10.00">F &#160;(&lt;60%) &#160;&#160;&#160;Failing</text>
</g>
<!-- DQS&#45;&gt;GRADES -->
<g id="edge6" class="edge">
<title>DQS&#45;&gt;GRADES</title>
<path fill="none" stroke="#4a5568" stroke-dasharray="5,2" d="M1091.43,-500.99C1118.63,-487.17 1147.91,-470.59 1173,-452.5 1179.91,-447.52 1186.8,-441.9 1193.44,-436.06"/>
<polygon fill="#4a5568" stroke="#4a5568" points="1196.03,-438.44 1201.1,-429.13 1191.33,-433.25 1196.03,-438.44"/>
</g>
<!-- SCORE_FORMULA -->
<g id="node8" class="node">
<title>SCORE_FORMULA</title>
<polygon fill="#feb2b2" stroke="black" points="1540.5,-412.5 1331.5,-412.5 1331.5,-348.5 1546.5,-348.5 1546.5,-406.5 1540.5,-412.5"/>
<polyline fill="none" stroke="black" points="1540.5,-412.5 1540.5,-406.5 "/>
<polyline fill="none" stroke="black" points="1546.5,-406.5 1540.5,-406.5 "/>
<text text-anchor="middle" x="1439" y="-400.5" font-family="Helvetica,sans-Serif" font-size="10.00">Score Calculation:</text>
<text text-anchor="middle" x="1439" y="-377.5" font-family="Helvetica,sans-Serif" font-size="10.00">WeightedScore = Σ(dimension × weight)</text>
<text text-anchor="middle" x="1439" y="-366.5" font-family="Helvetica,sans-Serif" font-size="10.00">Grade = bucketize(WeightedScore)</text>
<text text-anchor="middle" x="1439" y="-355.5" font-family="Helvetica,sans-Serif" font-size="10.00">Alert if grade drops &gt; 1 tier</text>
</g>
<!-- DQS&#45;&gt;SCORE_FORMULA -->
<g id="edge7" class="edge">
<title>DQS&#45;&gt;SCORE_FORMULA</title>
<path fill="none" stroke="#4a5568" stroke-dasharray="5,2" d="M1091.12,-523.5C1156.74,-508.73 1246.88,-484.96 1322,-452.5 1343.85,-443.06 1366.51,-430.13 1386.01,-417.9"/>
<polygon fill="#4a5568" stroke="#4a5568" points="1387.89,-420.85 1394.44,-412.52 1384.13,-414.95 1387.89,-420.85"/>
</g>
<!-- SLA_SERVICE -->
<g id="node14" class="node">
<title>SLA_SERVICE</title>
<path fill="#bfdbfe" stroke="black" d="M2360.5,-418C2360.5,-418 2235.5,-418 2235.5,-418 2229.5,-418 2223.5,-412 2223.5,-406 2223.5,-406 2223.5,-355 2223.5,-355 2223.5,-349 2229.5,-343 2235.5,-343 2235.5,-343 2360.5,-343 2360.5,-343 2366.5,-343 2372.5,-349 2372.5,-355 2372.5,-355 2372.5,-406 2372.5,-406 2372.5,-412 2366.5,-418 2360.5,-418"/>
<text text-anchor="middle" x="2298" y="-406" font-family="Helvetica,sans-Serif" font-size="10.00">SlaEnforcementService</text>
<text text-anchor="middle" x="2298" y="-383" font-family="Helvetica,sans-Serif" font-size="10.00">Per&#45;symbol SLA targets</text>
<text text-anchor="middle" x="2298" y="-372" font-family="Helvetica,sans-Serif" font-size="10.00">Provider&#45;level SLAs</text>
<text text-anchor="middle" x="2298" y="-361" font-family="Helvetica,sans-Serif" font-size="10.00">Real&#45;time monitoring</text>
<text text-anchor="middle" x="2298" y="-350" font-family="Helvetica,sans-Serif" font-size="10.00">Automatic alerts on breach</text>
</g>
<!-- DQS&#45;&gt;SLA_SERVICE -->
<g id="edge13" class="edge">
<title>DQS&#45;&gt;SLA_SERVICE</title>
<path fill="none" stroke="#2b6cb0" stroke-width="2" d="M1091.36,-535.05C1330.96,-517.78 1970.62,-470.61 2065,-452.5 2115.19,-442.87 2169.92,-426.5 2213.72,-411.91"/>
<polygon fill="#2b6cb0" stroke="#2b6cb0" stroke-width="2" points="2215.1,-415.14 2223.47,-408.64 2212.87,-408.51 2215.1,-415.14"/>
<text text-anchor="middle" x="2032.5" y="-463.3" font-family="Helvetica,sans-Serif" font-size="9.00">score → check SLA</text>
</g>
<!-- RETENTION -->
<g id="node19" class="node">
<title>RETENTION</title>
<path fill="#9ae6b4" stroke="black" d="M372,-423.5C372,-423.5 232,-423.5 232,-423.5 226,-423.5 220,-417.5 220,-411.5 220,-411.5 220,-349.5 220,-349.5 220,-343.5 226,-337.5 232,-337.5 232,-337.5 372,-337.5 372,-337.5 378,-337.5 384,-343.5 384,-349.5 384,-349.5 384,-411.5 384,-411.5 384,-417.5 378,-423.5 372,-423.5"/>
<text text-anchor="middle" x="302" y="-411.5" font-family="Helvetica,sans-Serif" font-size="10.00">RetentionComplianceReporter</text>
<text text-anchor="middle" x="302" y="-388.5" font-family="Helvetica,sans-Serif" font-size="10.00">Policy enforcement audit</text>
<text text-anchor="middle" x="302" y="-377.5" font-family="Helvetica,sans-Serif" font-size="10.00">Storage size tracking</text>
<text text-anchor="middle" x="302" y="-366.5" font-family="Helvetica,sans-Serif" font-size="10.00">Age&#45;based deletion rules</text>
<text text-anchor="middle" x="302" y="-355.5" font-family="Helvetica,sans-Serif" font-size="10.00">Compliance report generation</text>
<text text-anchor="middle" x="302" y="-344.5" font-family="Helvetica,sans-Serif" font-size="10.00">Regulatory data retention</text>
</g>
<!-- DQS&#45;&gt;RETENTION -->
<g id="edge20" class="edge">
<title>DQS&#45;&gt;RETENTION</title>
<path fill="none" stroke="#38a169" d="M910.97,-540.36C792.87,-536.1 581.04,-518.85 414,-452.5 398.5,-446.34 382.8,-437.98 368.25,-429.16"/>
<polygon fill="#38a169" stroke="#38a169" points="369.7,-425.94 359.36,-423.62 366,-431.88 369.7,-425.94"/>
<text text-anchor="middle" x="491.5" y="-463.3" font-family="Helvetica,sans-Serif" font-size="9.00">triggers policy</text>
</g>
<!-- PROMETHEUS -->
<g id="node22" class="node">
<title>PROMETHEUS</title>
<path fill="#ddd6fe" stroke="black" d="M2041,-286C2041,-286 1909,-286 1909,-286 1903,-286 1897,-280 1897,-274 1897,-274 1897,-179 1897,-179 1897,-173 1903,-167 1909,-167 1909,-167 2041,-167 2041,-167 2047,-167 2053,-173 2053,-179 2053,-179 2053,-274 2053,-274 2053,-280 2047,-286 2041,-286"/>
<text text-anchor="middle" x="1975" y="-274" font-family="Helvetica,sans-Serif" font-size="10.00">Prometheus Metrics</text>
<text text-anchor="middle" x="1975" y="-251" font-family="Helvetica,sans-Serif" font-size="10.00">mdc_events_published_total</text>
<text text-anchor="middle" x="1975" y="-240" font-family="Helvetica,sans-Serif" font-size="10.00">mdc_events_dropped_total</text>
<text text-anchor="middle" x="1975" y="-229" font-family="Helvetica,sans-Serif" font-size="10.00">mdc_events_per_second</text>
<text text-anchor="middle" x="1975" y="-218" font-family="Helvetica,sans-Serif" font-size="10.00">mdc_channel_depth</text>
<text text-anchor="middle" x="1975" y="-207" font-family="Helvetica,sans-Serif" font-size="10.00">mdc_provider_health_score</text>
<text text-anchor="middle" x="1975" y="-196" font-family="Helvetica,sans-Serif" font-size="10.00">mdc_quality_grade_numeric</text>
<text text-anchor="middle" x="1975" y="-185" font-family="Helvetica,sans-Serif" font-size="10.00">mdc_wal_pending_bytes</text>
<text text-anchor="middle" x="1975" y="-174" font-family="Helvetica,sans-Serif" font-size="10.00">mdc_backfill_progress_pct</text>
</g>
<!-- DQS&#45;&gt;PROMETHEUS -->
<g id="edge23" class="edge">
<title>DQS&#45;&gt;PROMETHEUS</title>
<path fill="none" stroke="#805ad5" stroke-width="2" d="M1091.26,-535.07C1202.62,-525.32 1396.75,-502.36 1556,-452.5 1575.53,-446.39 1870.52,-303.64 1888,-293 1888.67,-292.59 1889.33,-292.19 1890,-291.77"/>
<polygon fill="#805ad5" stroke="#805ad5" stroke-width="2" points="1892.17,-294.54 1898.72,-286.21 1888.41,-288.64 1892.17,-294.54"/>
<text text-anchor="middle" x="1854" y="-378.3" font-family="Helvetica,sans-Serif" font-size="9.00">emit metrics</text>
</g>
<!-- GAP_CHECK -->
<g id="node13" class="node">
<title>GAP_CHECK</title>
<polygon fill="#feebc8" stroke="black" points="997,-96 855,-96 855,-33 1003,-33 1003,-90 997,-96"/>
<polyline fill="none" stroke="black" points="997,-96 997,-90 "/>
<polyline fill="none" stroke="black" points="1003,-90 997,-90 "/>
<text text-anchor="middle" x="929" y="-84" font-family="Helvetica,sans-Serif" font-size="10.00">Gap Detection:</text>
<text text-anchor="middle" x="929" y="-73" font-family="Helvetica,sans-Serif" font-size="10.00">Expected event intervals</text>
<text text-anchor="middle" x="929" y="-62" font-family="Helvetica,sans-Serif" font-size="10.00">Session boundary handling</text>
<text text-anchor="middle" x="929" y="-51" font-family="Helvetica,sans-Serif" font-size="10.00">Missing bar detection</text>
<text text-anchor="middle" x="929" y="-40" font-family="Helvetica,sans-Serif" font-size="10.00">Backfill trigger on gap</text>
</g>
<!-- DIM1&#45;&gt;GAP_CHECK -->
<g id="edge12" class="edge">
<title>DIM1&#45;&gt;GAP_CHECK</title>
<path fill="none" stroke="#ed8936" d="M822.76,-342.91C831.97,-327.82 842.16,-309.93 850,-293 879.37,-229.55 904.08,-151.92 917.68,-105.71"/>
<polygon fill="#ed8936" stroke="#ed8936" points="921.06,-106.64 920.5,-96.06 914.34,-104.68 921.06,-106.64"/>
</g>
<!-- OUTLIER -->
<g id="node9" class="node">
<title>OUTLIER</title>
<path fill="#fbd38d" stroke="black" d="M700,-264C700,-264 572,-264 572,-264 566,-264 560,-258 560,-252 560,-252 560,-201 560,-201 560,-195 566,-189 572,-189 572,-189 700,-189 700,-189 706,-189 712,-195 712,-201 712,-201 712,-252 712,-252 712,-258 706,-264 700,-264"/>
<text text-anchor="middle" x="636" y="-252" font-family="Helvetica,sans-Serif" font-size="10.00">Outlier Detector</text>
<text text-anchor="middle" x="636" y="-229" font-family="Helvetica,sans-Serif" font-size="10.00">4&#45;sigma threshold (Z&#45;score)</text>
<text text-anchor="middle" x="636" y="-218" font-family="Helvetica,sans-Serif" font-size="10.00">Rolling mean + std dev</text>
<text text-anchor="middle" x="636" y="-207" font-family="Helvetica,sans-Serif" font-size="10.00">Per&#45;symbol calibration</text>
<text text-anchor="middle" x="636" y="-196" font-family="Helvetica,sans-Serif" font-size="10.00">Adaptive window size</text>
</g>
<!-- DIM2&#45;&gt;OUTLIER -->
<g id="edge8" class="edge">
<title>DIM2&#45;&gt;OUTLIER</title>
<path fill="none" stroke="#ed8936" stroke-width="2" d="M636,-342.71C636,-322.15 636,-296.33 636,-274.34"/>
<polygon fill="#ed8936" stroke="#ed8936" stroke-width="2" points="639.5,-274.22 636,-264.22 632.5,-274.22 639.5,-274.22"/>
<text text-anchor="middle" x="648.5" y="-306.8" font-family="Helvetica,sans-Serif" font-size="9.00">feeds</text>
</g>
<!-- SEQ_CHECK -->
<g id="node12" class="node">
<title>SEQ_CHECK</title>
<polygon fill="#feebc8" stroke="black" points="548.5,-96 429.5,-96 429.5,-33 554.5,-33 554.5,-90 548.5,-96"/>
<polyline fill="none" stroke="black" points="548.5,-96 548.5,-90 "/>
<polyline fill="none" stroke="black" points="554.5,-90 548.5,-90 "/>
<text text-anchor="middle" x="492" y="-84" font-family="Helvetica,sans-Serif" font-size="10.00">Sequence Validation:</text>
<text text-anchor="middle" x="492" y="-73" font-family="Helvetica,sans-Serif" font-size="10.00">Gap detection</text>
<text text-anchor="middle" x="492" y="-62" font-family="Helvetica,sans-Serif" font-size="10.00">Out&#45;of&#45;order detection</text>
<text text-anchor="middle" x="492" y="-51" font-family="Helvetica,sans-Serif" font-size="10.00">Duplicate detection</text>
<text text-anchor="middle" x="492" y="-40" font-family="Helvetica,sans-Serif" font-size="10.00">Emit IntegrityEvent</text>
</g>
<!-- DIM4&#45;&gt;SEQ_CHECK -->
<g id="edge11" class="edge">
<title>DIM4&#45;&gt;SEQ_CHECK</title>
<path fill="none" stroke="#ed8936" d="M1045.18,-342.84C1033.75,-335.21 1020.97,-328.21 1008,-324 968.25,-311.11 673.54,-318.6 632,-314 583.83,-308.67 558.41,-328.11 525,-293 477.52,-243.09 479.06,-157.06 485.11,-106.31"/>
<polygon fill="#ed8936" stroke="#ed8936" points="488.58,-106.71 486.41,-96.34 481.64,-105.81 488.58,-106.71"/>
</g>
<!-- PRICE_CHECK -->
<g id="node10" class="node">
<title>PRICE_CHECK</title>
<polygon fill="#feebc8" stroke="black" points="671,-90.5 573,-90.5 573,-38.5 677,-38.5 677,-84.5 671,-90.5"/>
<polyline fill="none" stroke="black" points="671,-90.5 671,-84.5 "/>
<polyline fill="none" stroke="black" points="677,-84.5 671,-84.5 "/>
<text text-anchor="middle" x="625" y="-78.5" font-family="Helvetica,sans-Serif" font-size="10.00">Price Outliers:</text>
<text text-anchor="middle" x="625" y="-67.5" font-family="Helvetica,sans-Serif" font-size="10.00">|P &#45; mean| &gt; 4σ</text>
<text text-anchor="middle" x="625" y="-56.5" font-family="Helvetica,sans-Serif" font-size="10.00">Flag and log</text>
<text text-anchor="middle" x="625" y="-45.5" font-family="Helvetica,sans-Serif" font-size="10.00">Optional suppress</text>
</g>
<!-- OUTLIER&#45;&gt;PRICE_CHECK -->
<g id="edge9" class="edge">
<title>OUTLIER&#45;&gt;PRICE_CHECK</title>
<path fill="none" stroke="#4a5568" stroke-dasharray="5,2" d="M633.48,-188.79C631.66,-162.36 629.22,-126.9 627.43,-100.79"/>
<polygon fill="#4a5568" stroke="#4a5568" points="630.9,-100.32 626.72,-90.58 623.92,-100.8 630.9,-100.32"/>
</g>
<!-- VOL_CHECK -->
<g id="node11" class="node">
<title>VOL_CHECK</title>
<polygon fill="#feebc8" stroke="black" points="830.5,-90.5 695.5,-90.5 695.5,-38.5 836.5,-38.5 836.5,-84.5 830.5,-90.5"/>
<polyline fill="none" stroke="black" points="830.5,-90.5 830.5,-84.5 "/>
<polyline fill="none" stroke="black" points="836.5,-84.5 830.5,-84.5 "/>
<text text-anchor="middle" x="766" y="-78.5" font-family="Helvetica,sans-Serif" font-size="10.00">Volume Spikes:</text>
<text text-anchor="middle" x="766" y="-67.5" font-family="Helvetica,sans-Serif" font-size="10.00">Vol &gt; 10× rolling avg</text>
<text text-anchor="middle" x="766" y="-56.5" font-family="Helvetica,sans-Serif" font-size="10.00">Flag suspicious prints</text>
<text text-anchor="middle" x="766" y="-45.5" font-family="Helvetica,sans-Serif" font-size="10.00">Cross&#45;validate with depth</text>
</g>
<!-- OUTLIER&#45;&gt;VOL_CHECK -->
<g id="edge10" class="edge">
<title>OUTLIER&#45;&gt;VOL_CHECK</title>
<path fill="none" stroke="#4a5568" stroke-dasharray="5,2" d="M665.82,-188.79C687.97,-161.54 717.91,-124.68 739.28,-98.38"/>
<polygon fill="#4a5568" stroke="#4a5568" points="742.03,-100.55 745.62,-90.58 736.6,-96.14 742.03,-100.55"/>
</g>
<!-- SLA_LATENCY -->
<g id="node15" class="node">
<title>SLA_LATENCY</title>
<polygon fill="#dbeafe" stroke="black" points="2358.5,-252.5 2231.5,-252.5 2231.5,-200.5 2364.5,-200.5 2364.5,-246.5 2358.5,-252.5"/>
<polyline fill="none" stroke="black" points="2358.5,-252.5 2358.5,-246.5 "/>
<polyline fill="none" stroke="black" points="2364.5,-246.5 2358.5,-246.5 "/>
<text text-anchor="middle" x="2298" y="-240.5" font-family="Helvetica,sans-Serif" font-size="10.00">Latency SLA:</text>
<text text-anchor="middle" x="2298" y="-229.5" font-family="Helvetica,sans-Serif" font-size="10.00">Max end&#45;to&#45;end: 500ms</text>
<text text-anchor="middle" x="2298" y="-218.5" font-family="Helvetica,sans-Serif" font-size="10.00">P99 target: 200ms</text>
<text text-anchor="middle" x="2298" y="-207.5" font-family="Helvetica,sans-Serif" font-size="10.00">Heartbeat interval: 30s</text>
</g>
<!-- SLA_SERVICE&#45;&gt;SLA_LATENCY -->
<g id="edge14" class="edge">
<title>SLA_SERVICE&#45;&gt;SLA_LATENCY</title>
<path fill="none" stroke="#4a5568" stroke-dasharray="5,2" d="M2298,-342.71C2298,-318.37 2298,-286.64 2298,-262.65"/>
<polygon fill="#4a5568" stroke="#4a5568" points="2301.5,-262.55 2298,-252.55 2294.5,-262.55 2301.5,-262.55"/>
</g>
<!-- SLA_AVAIL -->
<g id="node16" class="node">
<title>SLA_AVAIL</title>
<polygon fill="#dbeafe" stroke="black" points="2513,-252.5 2383,-252.5 2383,-200.5 2519,-200.5 2519,-246.5 2513,-252.5"/>
<polyline fill="none" stroke="black" points="2513,-252.5 2513,-246.5 "/>
<polyline fill="none" stroke="black" points="2519,-246.5 2513,-246.5 "/>
<text text-anchor="middle" x="2451" y="-240.5" font-family="Helvetica,sans-Serif" font-size="10.00">Availability SLA:</text>
<text text-anchor="middle" x="2451" y="-229.5" font-family="Helvetica,sans-Serif" font-size="10.00">Target uptime: 99.9%</text>
<text text-anchor="middle" x="2451" y="-218.5" font-family="Helvetica,sans-Serif" font-size="10.00">Max gap: 5 minutes</text>
<text text-anchor="middle" x="2451" y="-207.5" font-family="Helvetica,sans-Serif" font-size="10.00">Session coverage: 100%</text>
</g>
<!-- SLA_SERVICE&#45;&gt;SLA_AVAIL -->
<g id="edge15" class="edge">
<title>SLA_SERVICE&#45;&gt;SLA_AVAIL</title>
<path fill="none" stroke="#4a5568" stroke-dasharray="5,2" d="M2335.04,-342.71C2360.52,-317.38 2394.06,-284.07 2418.51,-259.78"/>
<polygon fill="#4a5568" stroke="#4a5568" points="2421.16,-262.08 2425.78,-252.55 2416.22,-257.12 2421.16,-262.08"/>
</g>
<!-- SLA_QUALITY -->
<g id="node17" class="node">
<title>SLA_QUALITY</title>
<polygon fill="#dbeafe" stroke="black" points="2207,-252.5 2085,-252.5 2085,-200.5 2213,-200.5 2213,-246.5 2207,-252.5"/>
<polyline fill="none" stroke="black" points="2207,-252.5 2207,-246.5 "/>
<polyline fill="none" stroke="black" points="2213,-246.5 2207,-246.5 "/>
<text text-anchor="middle" x="2149" y="-240.5" font-family="Helvetica,sans-Serif" font-size="10.00">Quality SLA:</text>
<text text-anchor="middle" x="2149" y="-229.5" font-family="Helvetica,sans-Serif" font-size="10.00">Min grade: B (80%)</text>
<text text-anchor="middle" x="2149" y="-218.5" font-family="Helvetica,sans-Serif" font-size="10.00">Max error rate: 0.1%</text>
<text text-anchor="middle" x="2149" y="-207.5" font-family="Helvetica,sans-Serif" font-size="10.00">Max duplicates: 0.01%</text>
</g>
<!-- SLA_SERVICE&#45;&gt;SLA_QUALITY -->
<g id="edge16" class="edge">
<title>SLA_SERVICE&#45;&gt;SLA_QUALITY</title>
<path fill="none" stroke="#4a5568" stroke-dasharray="5,2" d="M2261.93,-342.71C2237.11,-317.38 2204.45,-284.07 2180.64,-259.78"/>
<polygon fill="#4a5568" stroke="#4a5568" points="2183.06,-257.24 2173.56,-252.55 2178.06,-262.14 2183.06,-257.24"/>
</g>
<!-- SLA_BREACH -->
<g id="node18" class="node">
<title>SLA_BREACH</title>
<path fill="#fc8181" stroke="black" d="M2582.42,-250.83C2582.42,-250.83 2547.58,-232.17 2547.58,-232.17 2542.29,-229.33 2542.29,-223.67 2547.58,-220.83 2547.58,-220.83 2582.42,-202.17 2582.42,-202.17 2587.71,-199.33 2598.29,-199.33 2603.58,-202.17 2603.58,-202.17 2638.42,-220.83 2638.42,-220.83 2643.71,-223.67 2643.71,-229.33 2638.42,-232.17 2638.42,-232.17 2603.58,-250.83 2603.58,-250.83 2598.29,-253.67 2587.71,-253.67 2582.42,-250.83"/>
<text text-anchor="middle" x="2593" y="-229.5" font-family="Helvetica,sans-Serif" font-size="10.00">SLA</text>
<text text-anchor="middle" x="2593" y="-218.5" font-family="Helvetica,sans-Serif" font-size="10.00">Breach?</text>
</g>
<!-- SLA_SERVICE&#45;&gt;SLA_BREACH -->
<g id="edge17" class="edge">
<title>SLA_SERVICE&#45;&gt;SLA_BREACH</title>
<path fill="none" stroke="#2b6cb0" d="M2372.65,-361.25C2420.5,-347.34 2482.5,-325.07 2531,-293 2545.89,-283.15 2559.82,-269.08 2570.69,-256.51"/>
<polygon fill="#2b6cb0" stroke="#2b6cb0" points="2573.64,-258.43 2577.36,-248.52 2568.26,-253.95 2573.64,-258.43"/>
</g>
<!-- ALERT_LOG -->
<g id="node27" class="node">
<title>ALERT_LOG</title>
<path fill="#fecaca" stroke="black" d="M2634.5,-96.5C2634.5,-96.5 2513.5,-96.5 2513.5,-96.5 2507.5,-96.5 2501.5,-90.5 2501.5,-84.5 2501.5,-84.5 2501.5,-44.5 2501.5,-44.5 2501.5,-38.5 2507.5,-32.5 2513.5,-32.5 2513.5,-32.5 2634.5,-32.5 2634.5,-32.5 2640.5,-32.5 2646.5,-38.5 2646.5,-44.5 2646.5,-44.5 2646.5,-84.5 2646.5,-84.5 2646.5,-90.5 2640.5,-96.5 2634.5,-96.5"/>
<text text-anchor="middle" x="2574" y="-84.5" font-family="Helvetica,sans-Serif" font-size="10.00">Structured Log Alerts</text>
<text text-anchor="middle" x="2574" y="-61.5" font-family="Helvetica,sans-Serif" font-size="10.00">Serilog warning/error</text>
<text text-anchor="middle" x="2574" y="-50.5" font-family="Helvetica,sans-Serif" font-size="10.00">Context&#45;rich entries</text>
<text text-anchor="middle" x="2574" y="-39.5" font-family="Helvetica,sans-Serif" font-size="10.00">Provider + symbol + code</text>
</g>
<!-- SLA_BREACH&#45;&gt;ALERT_LOG -->
<g id="edge19" class="edge">
<title>SLA_BREACH&#45;&gt;ALERT_LOG</title>
<path fill="none" stroke="#c53030" d="M2589.73,-198C2586.76,-172.93 2582.32,-135.55 2578.91,-106.88"/>
<polygon fill="#c53030" stroke="#c53030" points="2582.37,-106.27 2577.71,-96.75 2575.41,-107.09 2582.37,-106.27"/>
<text text-anchor="middle" x="2591" y="-141.8" font-family="Helvetica,sans-Serif" font-size="9.00">yes</text>
</g>
<!-- ALERT_PROM -->
<g id="node28" class="node">
<title>ALERT_PROM</title>
<path fill="#fecaca" stroke="black" d="M2471.5,-102C2471.5,-102 2350.5,-102 2350.5,-102 2344.5,-102 2338.5,-96 2338.5,-90 2338.5,-90 2338.5,-39 2338.5,-39 2338.5,-33 2344.5,-27 2350.5,-27 2350.5,-27 2471.5,-27 2471.5,-27 2477.5,-27 2483.5,-33 2483.5,-39 2483.5,-39 2483.5,-90 2483.5,-90 2483.5,-96 2477.5,-102 2471.5,-102"/>
<text text-anchor="middle" x="2411" y="-90" font-family="Helvetica,sans-Serif" font-size="10.00">Prometheus Alertmanager</text>
<text text-anchor="middle" x="2411" y="-67" font-family="Helvetica,sans-Serif" font-size="10.00">SLA breach rules</text>
<text text-anchor="middle" x="2411" y="-56" font-family="Helvetica,sans-Serif" font-size="10.00">Quality grade alerts</text>
<text text-anchor="middle" x="2411" y="-45" font-family="Helvetica,sans-Serif" font-size="10.00">Provider down alerts</text>
<text text-anchor="middle" x="2411" y="-34" font-family="Helvetica,sans-Serif" font-size="10.00">Channel saturation alert</text>
</g>
<!-- SLA_BREACH&#45;&gt;ALERT_PROM -->
<g id="edge18" class="edge">
<title>SLA_BREACH&#45;&gt;ALERT_PROM</title>
<path fill="none" stroke="#c53030" d="M2573.71,-206.78C2561.6,-195.16 2545.57,-180.02 2531,-167 2509.07,-147.41 2484.34,-126.32 2463.05,-108.48"/>
<polygon fill="#c53030" stroke="#c53030" points="2465.29,-105.79 2455.38,-102.06 2460.8,-111.16 2465.29,-105.79"/>
<text text-anchor="middle" x="2516" y="-141.8" font-family="Helvetica,sans-Serif" font-size="9.00">yes</text>
</g>
<!-- CATALOG -->
<g id="node20" class="node">
<title>CATALOG</title>
<path fill="#9ae6b4" stroke="black" d="M179.5,-269.5C179.5,-269.5 28.5,-269.5 28.5,-269.5 22.5,-269.5 16.5,-263.5 16.5,-257.5 16.5,-257.5 16.5,-195.5 16.5,-195.5 16.5,-189.5 22.5,-183.5 28.5,-183.5 28.5,-183.5 179.5,-183.5 179.5,-183.5 185.5,-183.5 191.5,-189.5 191.5,-195.5 191.5,-195.5 191.5,-257.5 191.5,-257.5 191.5,-263.5 185.5,-269.5 179.5,-269.5"/>
<text text-anchor="middle" x="104" y="-257.5" font-family="Helvetica,sans-Serif" font-size="10.00">StorageCatalogService</text>
<text text-anchor="middle" x="104" y="-234.5" font-family="Helvetica,sans-Serif" font-size="10.00">File discovery and indexing</text>
<text text-anchor="middle" x="104" y="-223.5" font-family="Helvetica,sans-Serif" font-size="10.00">Symbol × date × type inventory</text>
<text text-anchor="middle" x="104" y="-212.5" font-family="Helvetica,sans-Serif" font-size="10.00">Size and record count tracking</text>
<text text-anchor="middle" x="104" y="-201.5" font-family="Helvetica,sans-Serif" font-size="10.00">Backfill gap identification</text>
<text text-anchor="middle" x="104" y="-190.5" font-family="Helvetica,sans-Serif" font-size="10.00">Data lineage tracking</text>
</g>
<!-- RETENTION&#45;&gt;CATALOG -->
<g id="edge21" class="edge">
<title>RETENTION&#45;&gt;CATALOG</title>
<path fill="none" stroke="#38a169" d="M247.11,-337.36C222.32,-318.33 192.9,-295.75 167.2,-276.02"/>
<polygon fill="#38a169" stroke="#38a169" points="169.06,-273.03 159,-269.72 164.8,-278.59 169.06,-273.03"/>
</g>
<!-- POLICIES -->
<g id="node21" class="node">
<title>POLICIES</title>
<polygon fill="#bbf7d0" stroke="black" points="388,-258 210,-258 210,-195 394,-195 394,-252 388,-258"/>
<polyline fill="none" stroke="black" points="388,-258 388,-252 "/>
<polyline fill="none" stroke="black" points="394,-252 388,-252 "/>
<text text-anchor="middle" x="302" y="-246" font-family="Helvetica,sans-Serif" font-size="10.00">Retention Policies:</text>
<text text-anchor="middle" x="302" y="-235" font-family="Helvetica,sans-Serif" font-size="10.00">• Time&#45;based (RetentionDays)</text>
<text text-anchor="middle" x="302" y="-224" font-family="Helvetica,sans-Serif" font-size="10.00">• Capacity&#45;based (MaxTotalBytes)</text>
<text text-anchor="middle" x="302" y="-213" font-family="Helvetica,sans-Serif" font-size="10.00">• Tier&#45;based (auto&#45;migrate)</text>
<text text-anchor="middle" x="302" y="-202" font-family="Helvetica,sans-Serif" font-size="10.00">• Eager enforcement on write</text>
</g>
<!-- RETENTION&#45;&gt;POLICIES -->
<g id="edge22" class="edge">
<title>RETENTION&#45;&gt;POLICIES</title>
<path fill="none" stroke="#4a5568" stroke-dasharray="5,2" d="M302,-337.16C302,-315.57 302,-289.44 302,-268.1"/>
<polygon fill="#4a5568" stroke="#4a5568" points="305.5,-268.05 302,-258.05 298.5,-268.05 305.5,-268.05"/>
</g>
<!-- GRAFANA -->
<g id="node23" class="node">
<title>GRAFANA</title>
<path fill="#e9d5ff" stroke="black" d="M1942.5,-113C1942.5,-113 1829.5,-113 1829.5,-113 1823.5,-113 1817.5,-107 1817.5,-101 1817.5,-101 1817.5,-28 1817.5,-28 1817.5,-22 1823.5,-16 1829.5,-16 1829.5,-16 1942.5,-16 1942.5,-16 1948.5,-16 1954.5,-22 1954.5,-28 1954.5,-28 1954.5,-101 1954.5,-101 1954.5,-107 1948.5,-113 1942.5,-113"/>
<text text-anchor="middle" x="1886" y="-101" font-family="Helvetica,sans-Serif" font-size="10.00">Grafana Dashboards</text>
<text text-anchor="middle" x="1886" y="-78" font-family="Helvetica,sans-Serif" font-size="10.00">Real&#45;time event rate</text>
<text text-anchor="middle" x="1886" y="-67" font-family="Helvetica,sans-Serif" font-size="10.00">Provider health heatmap</text>
<text text-anchor="middle" x="1886" y="-56" font-family="Helvetica,sans-Serif" font-size="10.00">Quality grade trends</text>
<text text-anchor="middle" x="1886" y="-45" font-family="Helvetica,sans-Serif" font-size="10.00">Storage tier utilization</text>
<text text-anchor="middle" x="1886" y="-34" font-family="Helvetica,sans-Serif" font-size="10.00">Backfill progress tracker</text>
<text text-anchor="middle" x="1886" y="-23" font-family="Helvetica,sans-Serif" font-size="10.00">SLA breach alerts</text>
</g>
<!-- PROMETHEUS&#45;&gt;GRAFANA -->
<g id="edge24" class="edge">
<title>PROMETHEUS&#45;&gt;GRAFANA</title>
<path fill="none" stroke="#805ad5" d="M1942.37,-166.83C1934.23,-152.21 1925.53,-136.56 1917.45,-122.04"/>
<polygon fill="#805ad5" stroke="#805ad5" points="1920.43,-120.2 1912.51,-113.16 1914.32,-123.6 1920.43,-120.2"/>
</g>
<!-- PROMETHEUS&#45;&gt;ALERT_PROM -->
<g id="edge25" class="edge">
<title>PROMETHEUS&#45;&gt;ALERT_PROM</title>
<path fill="none" stroke="#805ad5" stroke-dasharray="5,2" d="M2053.27,-176.52C2059.84,-173.1 2066.47,-169.88 2073,-167 2157.04,-129.98 2258.53,-101.52 2328.23,-84.28"/>
<polygon fill="#805ad5" stroke="#805ad5" points="2329.4,-87.6 2338.28,-81.82 2327.73,-80.8 2329.4,-87.6"/>
</g>
<!-- OTEL -->
<g id="node24" class="node">
<title>OTEL</title>
<path fill="#e9d5ff" stroke="black" d="M1866.5,-264C1866.5,-264 1729.5,-264 1729.5,-264 1723.5,-264 1717.5,-258 1717.5,-252 1717.5,-252 1717.5,-201 1717.5,-201 1717.5,-195 1723.5,-189 1729.5,-189 1729.5,-189 1866.5,-189 1866.5,-189 1872.5,-189 1878.5,-195 1878.5,-201 1878.5,-201 1878.5,-252 1878.5,-252 1878.5,-258 1872.5,-264 1866.5,-264"/>
<text text-anchor="middle" x="1798" y="-252" font-family="Helvetica,sans-Serif" font-size="10.00">OpenTelemetry Traces</text>
<text text-anchor="middle" x="1798" y="-229" font-family="Helvetica,sans-Serif" font-size="10.00">Span per event batch</text>
<text text-anchor="middle" x="1798" y="-218" font-family="Helvetica,sans-Serif" font-size="10.00">Distributed context</text>
<text text-anchor="middle" x="1798" y="-207" font-family="Helvetica,sans-Serif" font-size="10.00">Provider → pipeline → storage</text>
<text text-anchor="middle" x="1798" y="-196" font-family="Helvetica,sans-Serif" font-size="10.00">End&#45;to&#45;end latency tracking</text>
</g>
<!-- OTEL&#45;&gt;GRAFANA -->
<g id="edge27" class="edge">
<title>OTEL&#45;&gt;GRAFANA</title>
<path fill="none" stroke="#805ad5" stroke-dasharray="5,2" d="M1818.19,-188.79C1829.03,-169.09 1842.62,-144.37 1854.79,-122.25"/>
<polygon fill="#805ad5" stroke="#805ad5" points="1857.97,-123.72 1859.73,-113.27 1851.84,-120.35 1857.97,-123.72"/>
</g>
<!-- HEALTH -->
<g id="node25" class="node">
<title>HEALTH</title>
<path fill="#e9d5ff" stroke="black" d="M2032,-596.5C2032,-596.5 1936,-596.5 1936,-596.5 1930,-596.5 1924,-590.5 1924,-584.5 1924,-584.5 1924,-500.5 1924,-500.5 1924,-494.5 1930,-488.5 1936,-488.5 1936,-488.5 2032,-488.5 2032,-488.5 2038,-488.5 2044,-494.5 2044,-500.5 2044,-500.5 2044,-584.5 2044,-584.5 2044,-590.5 2038,-596.5 2032,-596.5"/>
<text text-anchor="middle" x="1984" y="-584.5" font-family="Helvetica,sans-Serif" font-size="10.00">Health Checks</text>
<text text-anchor="middle" x="1984" y="-573.5" font-family="Helvetica,sans-Serif" font-size="10.00">/health</text>
<text text-anchor="middle" x="1984" y="-562.5" font-family="Helvetica,sans-Serif" font-size="10.00">/metrics</text>
<text text-anchor="middle" x="1984" y="-551.5" font-family="Helvetica,sans-Serif" font-size="10.00">/status</text>
<text text-anchor="middle" x="1984" y="-528.5" font-family="Helvetica,sans-Serif" font-size="10.00">Provider connectivity</text>
<text text-anchor="middle" x="1984" y="-517.5" font-family="Helvetica,sans-Serif" font-size="10.00">Storage write&#45;ability</text>
<text text-anchor="middle" x="1984" y="-506.5" font-family="Helvetica,sans-Serif" font-size="10.00">Pipeline throughput</text>
<text text-anchor="middle" x="1984" y="-495.5" font-family="Helvetica,sans-Serif" font-size="10.00">Memory pressure</text>
</g>
<!-- STATUS_HTTP -->
<g id="node26" class="node">
<title>STATUS_HTTP</title>
<path fill="#ddd6fe" stroke="black" d="M2040.5,-418C2040.5,-418 1907.5,-418 1907.5,-418 1901.5,-418 1895.5,-412 1895.5,-406 1895.5,-406 1895.5,-355 1895.5,-355 1895.5,-349 1901.5,-343 1907.5,-343 1907.5,-343 2040.5,-343 2040.5,-343 2046.5,-343 2052.5,-349 2052.5,-355 2052.5,-355 2052.5,-406 2052.5,-406 2052.5,-412 2046.5,-418 2040.5,-418"/>
<text text-anchor="middle" x="1974" y="-406" font-family="Helvetica,sans-Serif" font-size="10.00">StatusHttpServer</text>
<text text-anchor="middle" x="1974" y="-383" font-family="Helvetica,sans-Serif" font-size="10.00">:5000 (default)</text>
<text text-anchor="middle" x="1974" y="-372" font-family="Helvetica,sans-Serif" font-size="10.00">HTTP status endpoint</text>
<text text-anchor="middle" x="1974" y="-361" font-family="Helvetica,sans-Serif" font-size="10.00">Prometheus scrape target</text>
<text text-anchor="middle" x="1974" y="-350" font-family="Helvetica,sans-Serif" font-size="10.00">Liveness + readiness probes</text>
</g>
<!-- HEALTH&#45;&gt;STATUS_HTTP -->
<g id="edge28" class="edge">
<title>HEALTH&#45;&gt;STATUS_HTTP</title>
<path fill="none" stroke="#805ad5" d="M1980.67,-488.22C1979.46,-468.89 1978.11,-447.21 1976.94,-428.47"/>
<polygon fill="#805ad5" stroke="#805ad5" points="1980.42,-428.15 1976.31,-418.39 1973.44,-428.59 1980.42,-428.15"/>
</g>
<!-- ALERT_HEALTH -->
<g id="node29" class="node">
<title>ALERT_HEALTH</title>
<path fill="#fecaca" stroke="black" d="M2789.5,-96.5C2789.5,-96.5 2676.5,-96.5 2676.5,-96.5 2670.5,-96.5 2664.5,-90.5 2664.5,-84.5 2664.5,-84.5 2664.5,-44.5 2664.5,-44.5 2664.5,-38.5 2670.5,-32.5 2676.5,-32.5 2676.5,-32.5 2789.5,-32.5 2789.5,-32.5 2795.5,-32.5 2801.5,-38.5 2801.5,-44.5 2801.5,-44.5 2801.5,-84.5 2801.5,-84.5 2801.5,-90.5 2795.5,-96.5 2789.5,-96.5"/>
<text text-anchor="middle" x="2733" y="-84.5" font-family="Helvetica,sans-Serif" font-size="10.00">Health Check Failures</text>
<text text-anchor="middle" x="2733" y="-61.5" font-family="Helvetica,sans-Serif" font-size="10.00">Readiness probe fails</text>
<text text-anchor="middle" x="2733" y="-50.5" font-family="Helvetica,sans-Serif" font-size="10.00">K8s/Docker health check</text>
<text text-anchor="middle" x="2733" y="-39.5" font-family="Helvetica,sans-Serif" font-size="10.00">Restart policy triggers</text>
</g>
<!-- HEALTH&#45;&gt;ALERT_HEALTH -->
<g id="edge29" class="edge">
<title>HEALTH&#45;&gt;ALERT_HEALTH</title>
<path fill="none" stroke="#805ad5" stroke-dasharray="5,2" d="M2044.07,-530.82C2110.09,-519.32 2219.37,-501 2314,-488.5 2390.86,-478.35 2604.02,-505.07 2661,-452.5 2758.47,-362.59 2749.55,-186.64 2739.52,-106.74"/>
<polygon fill="#805ad5" stroke="#805ad5" points="2742.95,-106.03 2738.17,-96.57 2736.01,-106.95 2742.95,-106.03"/>
</g>
<!-- STATUS_HTTP&#45;&gt;PROMETHEUS -->
<g id="edge26" class="edge">
<title>STATUS_HTTP&#45;&gt;PROMETHEUS</title>
<path fill="none" stroke="#805ad5" stroke-dasharray="5,2" d="M1974.24,-342.71C1974.33,-328.79 1974.44,-312.47 1974.55,-296.56"/>
<polygon fill="#805ad5" stroke="#805ad5" points="1978.05,-296.21 1974.61,-286.19 1971.05,-296.17 1978.05,-296.21"/>
</g>
<!-- LEG -->
<g id="node30" class="node">
<title>LEG</title>
<path fill="lightgrey" stroke="transparent" d="M2522,-568.5C2522,-568.5 2338,-568.5 2338,-568.5 2332,-568.5 2326,-562.5 2326,-556.5 2326,-556.5 2326,-528.5 2326,-528.5 2326,-522.5 2332,-516.5 2338,-516.5 2338,-516.5 2522,-516.5 2522,-516.5 2528,-516.5 2534,-522.5 2534,-528.5 2534,-528.5 2534,-556.5 2534,-556.5 2534,-562.5 2528,-568.5 2522,-568.5"/>
<text text-anchor="middle" x="2430" y="-556.5" font-family="Helvetica,sans-Serif" font-size="10.00">━━ Primary data flow</text>
<text text-anchor="middle" x="2430" y="-545.5" font-family="Helvetica,sans-Serif" font-size="10.00">─ ─ Configuration / Reference</text>
<text text-anchor="middle" x="2430" y="-534.5" font-family="Helvetica,sans-Serif" font-size="10.00">Diamond = Decision point</text>
<text text-anchor="middle" x="2430" y="-523.5" font-family="Helvetica,sans-Serif" font-size="10.00">All metrics are Prometheus&#45;compatible</text>
</g>
</g>
</svg>
