<?xml version="1.0" encoding="UTF-8" standalone="no"?>
<!DOCTYPE svg PUBLIC "-//W3C//DTD SVG 1.1//EN"
 "http://www.w3.org/Graphics/SVG/1.1/DTD/svg11.dtd">
<!-- Generated by graphviz version 2.43.0 (0)
 -->
<!-- Title: DomainEventModel Pages: 1 -->
<svg width="2770pt" height="797pt"
 viewBox="0.00 0.00 2770.00 796.50" xmlns="http://www.w3.org/2000/svg" xmlns:xlink="http://www.w3.org/1999/xlink">
<g id="graph0" class="graph" transform="scale(1 1) rotate(0) translate(36 760.5)">
<title>DomainEventModel</title>
<polygon fill="white" stroke="transparent" points="-36,36 -36,-760.5 2734,-760.5 2734,36 -36,36"/>
<text text-anchor="middle" x="1349" y="-710.9" font-family="Helvetica,sans-Serif" font-size="12.00">Meridian &#45; Domain Event Model</text>
<text text-anchor="middle" x="1349" y="-697.9" font-family="Helvetica,sans-Serif" font-size="12.00">MarketEvent Sealed Record Hierarchy | v1.7.x</text>
<g id="clust1" class="cluster">
<title>cluster_envelope</title>
<path fill="#faf5ff" stroke="#805ad5" d="M20,-314C20,-314 296,-314 296,-314 302,-314 308,-320 308,-326 308,-326 308,-670.5 308,-670.5 308,-676.5 302,-682.5 296,-682.5 296,-682.5 20,-682.5 20,-682.5 14,-682.5 8,-676.5 8,-670.5 8,-670.5 8,-326 8,-326 8,-320 14,-314 20,-314"/>
<text text-anchor="middle" x="158" y="-668.9" font-family="Helvetica,sans-Serif" font-size="12.00">Event Envelope (Meridian.Contracts)</text>
</g>
<g id="clust2" class="cluster">
<title>cluster_type_enum</title>
<path fill="#dbeafe" stroke="#2b6cb0" d="M328,-317.5C328,-317.5 962,-317.5 962,-317.5 968,-317.5 974,-323.5 974,-329.5 974,-329.5 974,-464.5 974,-464.5 974,-470.5 968,-476.5 962,-476.5 962,-476.5 328,-476.5 328,-476.5 322,-476.5 316,-470.5 316,-464.5 316,-464.5 316,-329.5 316,-329.5 316,-323.5 322,-317.5 328,-317.5"/>
<text text-anchor="middle" x="645" y="-462.9" font-family="Helvetica,sans-Serif" font-size="12.00">MarketEventType (Enum)</text>
</g>
<g id="clust3" class="cluster">
<title>cluster_realtime_types</title>
<polygon fill="#dbeafe" stroke="#1e40af" stroke-dasharray="5,2" points="324,-325.5 324,-447.5 473,-447.5 473,-325.5 324,-325.5"/>
<text text-anchor="middle" x="398.5" y="-433.9" font-family="Helvetica,sans-Serif" font-size="12.00">Real&#45;Time Event Types</text>
</g>
<g id="clust4" class="cluster">
<title>cluster_historical_types</title>
<polygon fill="#dbeafe" stroke="#1e40af" stroke-dasharray="5,2" points="481,-342 481,-431 627,-431 627,-342 481,-342"/>
<text text-anchor="middle" x="554" y="-417.4" font-family="Helvetica,sans-Serif" font-size="12.00">Historical Event Types</text>
</g>
<g id="clust5" class="cluster">
<title>cluster_options_types</title>
<polygon fill="#dbeafe" stroke="#1e40af" stroke-dasharray="5,2" points="635,-342 635,-431 772,-431 772,-342 635,-342"/>
<text text-anchor="middle" x="703.5" y="-417.4" font-family="Helvetica,sans-Serif" font-size="12.00">Options Event Types</text>
</g>
<g id="clust6" class="cluster">
<title>cluster_order_types</title>
<polygon fill="#dbeafe" stroke="#1e40af" stroke-dasharray="5,2" points="780,-336.5 780,-436.5 966,-436.5 966,-336.5 780,-336.5"/>
<text text-anchor="middle" x="873" y="-422.9" font-family="Helvetica,sans-Serif" font-size="12.00">Order Book Event Types (L3)</text>
</g>
<g id="clust7" class="cluster">
<title>cluster_payload</title>
<path fill="#d1fae5" stroke="#2c7a7b" d="M994,-105C994,-105 2197,-105 2197,-105 2203,-105 2209,-111 2209,-117 2209,-117 2209,-446.03 2209,-446.03 2209,-452.03 2203,-458.03 2197,-458.03 2197,-458.03 994,-458.03 994,-458.03 988,-458.03 982,-452.03 982,-446.03 982,-446.03 982,-117 982,-117 982,-111 988,-105 994,-105"/>
<text text-anchor="middle" x="1595.5" y="-444.43" font-family="Helvetica,sans-Serif" font-size="12.00">MarketEventPayload (Sealed Union / Discriminated Union)</text>
</g>
<g id="clust8" class="cluster">
<title>cluster_tiers</title>
<path fill="#fffaf0" stroke="#ed8936" d="M2229,-143.5C2229,-143.5 2434,-143.5 2434,-143.5 2440,-143.5 2446,-149.5 2446,-155.5 2446,-155.5 2446,-632 2446,-632 2446,-638 2440,-644 2434,-644 2434,-644 2229,-644 2229,-644 2223,-644 2217,-638 2217,-632 2217,-632 2217,-155.5 2217,-155.5 2217,-149.5 2223,-143.5 2229,-143.5"/>
<text text-anchor="middle" x="2331.5" y="-630.4" font-family="Helvetica,sans-Serif" font-size="12.00">MarketEventTier (Processing Stage)</text>
</g>
<g id="clust9" class="cluster">
<title>cluster_enums</title>
<path fill="#c6f6d5" stroke="#38a169" d="M1060,-8C1060,-8 1591,-8 1591,-8 1597,-8 1603,-14 1603,-20 1603,-20 1603,-74 1603,-74 1603,-80 1597,-86 1591,-86 1591,-86 1060,-86 1060,-86 1054,-86 1048,-80 1048,-74 1048,-74 1048,-20 1048,-20 1048,-14 1054,-8 1060,-8"/>
<text text-anchor="middle" x="1325.5" y="-72.4" font-family="Helvetica,sans-Serif" font-size="12.00">Supporting Enums</text>
</g>
<g id="clust10" class="cluster">
<title>cluster_legend</title>
<path fill="#fafafa" stroke="#666666" d="M2466,-549C2466,-549 2678,-549 2678,-549 2684,-549 2690,-555 2690,-561 2690,-561 2690,-626 2690,-626 2690,-632 2684,-638 2678,-638 2678,-638 2466,-638 2466,-638 2460,-638 2454,-632 2454,-626 2454,-626 2454,-561 2454,-561 2454,-555 2460,-549 2466,-549"/>
<text text-anchor="middle" x="2572" y="-624.4" font-family="Helvetica,sans-Serif" font-size="12.00">Legend</text>
</g>
<!-- EVENT -->
<g id="node1" class="node">
<title>EVENT</title>
<path fill="#ddd6fe" stroke="black" d="M287.5,-653.5C287.5,-653.5 150.5,-653.5 150.5,-653.5 144.5,-653.5 138.5,-647.5 138.5,-641.5 138.5,-641.5 138.5,-524.5 138.5,-524.5 138.5,-518.5 144.5,-512.5 150.5,-512.5 150.5,-512.5 287.5,-512.5 287.5,-512.5 293.5,-512.5 299.5,-518.5 299.5,-524.5 299.5,-524.5 299.5,-641.5 299.5,-641.5 299.5,-647.5 293.5,-653.5 287.5,-653.5"/>
<text text-anchor="middle" x="219" y="-641.5" font-family="Helvetica,sans-Serif" font-size="10.00">MarketEvent</text>
<text text-anchor="middle" x="219" y="-630.5" font-family="Helvetica,sans-Serif" font-size="10.00">[Sealed Record]</text>
<text text-anchor="middle" x="219" y="-607.5" font-family="Helvetica,sans-Serif" font-size="10.00">Timestamp: DateTimeOffset</text>
<text text-anchor="middle" x="219" y="-596.5" font-family="Helvetica,sans-Serif" font-size="10.00">Symbol: string</text>
<text text-anchor="middle" x="219" y="-585.5" font-family="Helvetica,sans-Serif" font-size="10.00">Type: MarketEventType</text>
<text text-anchor="middle" x="219" y="-574.5" font-family="Helvetica,sans-Serif" font-size="10.00">Payload: MarketEventPayload</text>
<text text-anchor="middle" x="219" y="-563.5" font-family="Helvetica,sans-Serif" font-size="10.00">Sequence: long</text>
<text text-anchor="middle" x="219" y="-552.5" font-family="Helvetica,sans-Serif" font-size="10.00">Source: string</text>
<text text-anchor="middle" x="219" y="-541.5" font-family="Helvetica,sans-Serif" font-size="10.00">SchemaVersion: int</text>
<text text-anchor="middle" x="219" y="-530.5" font-family="Helvetica,sans-Serif" font-size="10.00">CanonicalSymbol: string</text>
<text text-anchor="middle" x="219" y="-519.5" font-family="Helvetica,sans-Serif" font-size="10.00">CanonicalVenue: string</text>
</g>
<!-- FACTORIES -->
<g id="node2" class="node">
<title>FACTORIES</title>
<polygon fill="#e9d5ff" stroke="black" points="293.5,-430 16.5,-430 16.5,-322 299.5,-322 299.5,-424 293.5,-430"/>
<polyline fill="none" stroke="black" points="293.5,-430 293.5,-424 "/>
<polyline fill="none" stroke="black" points="299.5,-424 293.5,-424 "/>
<text text-anchor="middle" x="158" y="-418" font-family="Helvetica,sans-Serif" font-size="10.00">Static Factory Methods:</text>
<text text-anchor="middle" x="158" y="-395" font-family="Helvetica,sans-Serif" font-size="10.00">MarketEvent.Trade(symbol, payload, source)</text>
<text text-anchor="middle" x="158" y="-384" font-family="Helvetica,sans-Serif" font-size="10.00">MarketEvent.L2Snapshot(symbol, payload, source)</text>
<text text-anchor="middle" x="158" y="-373" font-family="Helvetica,sans-Serif" font-size="10.00">MarketEvent.BboQuote(symbol, payload, source)</text>
<text text-anchor="middle" x="158" y="-362" font-family="Helvetica,sans-Serif" font-size="10.00">MarketEvent.HistoricalBar(symbol, payload, source)</text>
<text text-anchor="middle" x="158" y="-351" font-family="Helvetica,sans-Serif" font-size="10.00">MarketEvent.Heartbeat(symbol, source)</text>
<text text-anchor="middle" x="158" y="-340" font-family="Helvetica,sans-Serif" font-size="10.00">MarketEvent.IntegrityEvent(symbol, payload, source)</text>
<text text-anchor="middle" x="158" y="-329" font-family="Helvetica,sans-Serif" font-size="10.00">MarketEvent.OrderFlowStats(symbol, payload, source)</text>
</g>
<!-- EVENT&#45;&gt;FACTORIES -->
<g id="edge4" class="edge">
<title>EVENT&#45;&gt;FACTORIES</title>
<path fill="none" stroke="#805ad5" stroke-dasharray="5,2" d="M198.26,-512.31C191.28,-488.85 183.54,-462.82 176.72,-439.92"/>
<polygon fill="#805ad5" stroke="#805ad5" points="180.07,-438.89 173.86,-430.3 173.36,-440.89 180.07,-438.89"/>
</g>
<!-- RT_TYPES -->
<g id="node3" class="node">
<title>RT_TYPES</title>
<polygon fill="#bfdbfe" stroke="black" points="438,-418.5 332,-418.5 332,-333.5 444,-333.5 444,-412.5 438,-418.5"/>
<polyline fill="none" stroke="black" points="438,-418.5 438,-412.5 "/>
<polyline fill="none" stroke="black" points="444,-412.5 438,-412.5 "/>
<text text-anchor="middle" x="388" y="-406.5" font-family="Helvetica,sans-Serif" font-size="10.00">Trade</text>
<text text-anchor="middle" x="388" y="-395.5" font-family="Helvetica,sans-Serif" font-size="10.00">BboQuote</text>
<text text-anchor="middle" x="388" y="-384.5" font-family="Helvetica,sans-Serif" font-size="10.00">L2Snapshot</text>
<text text-anchor="middle" x="388" y="-373.5" font-family="Helvetica,sans-Serif" font-size="10.00">AggregateBar</text>
<text text-anchor="middle" x="388" y="-362.5" font-family="Helvetica,sans-Serif" font-size="10.00">OrderFlowStatistics</text>
<text text-anchor="middle" x="388" y="-351.5" font-family="Helvetica,sans-Serif" font-size="10.00">Heartbeat</text>
<text text-anchor="middle" x="388" y="-340.5" font-family="Helvetica,sans-Serif" font-size="10.00">IntegrityEvent</text>
</g>
<!-- EVENT&#45;&gt;RT_TYPES -->
<g id="edge12" class="edge">
<title>EVENT&#45;&gt;RT_TYPES</title>
<path fill="none" stroke="#2b6cb0" stroke-dasharray="5,2" d="M281.73,-512.22C291.99,-500.42 302.39,-488.2 312,-476.5 325.04,-460.62 338.81,-442.9 350.99,-426.87"/>
<polygon fill="#2b6cb0" stroke="#2b6cb0" points="353.97,-428.74 357.21,-418.65 348.38,-424.52 353.97,-428.74"/>
</g>
<!-- HIST_TYPES -->
<g id="node4" class="node">
<title>HIST_TYPES</title>
<polygon fill="#93c5fd" stroke="black" points="578.5,-402 489.5,-402 489.5,-350 584.5,-350 584.5,-396 578.5,-402"/>
<polyline fill="none" stroke="black" points="578.5,-402 578.5,-396 "/>
<polyline fill="none" stroke="black" points="584.5,-396 578.5,-396 "/>
<text text-anchor="middle" x="537" y="-390" font-family="Helvetica,sans-Serif" font-size="10.00">HistoricalBar</text>
<text text-anchor="middle" x="537" y="-379" font-family="Helvetica,sans-Serif" font-size="10.00">Dividend</text>
<text text-anchor="middle" x="537" y="-368" font-family="Helvetica,sans-Serif" font-size="10.00">Split</text>
<text text-anchor="middle" x="537" y="-357" font-family="Helvetica,sans-Serif" font-size="10.00">CorporateAction</text>
</g>
<!-- EVENT&#45;&gt;HIST_TYPES -->
<g id="edge13" class="edge">
<title>EVENT&#45;&gt;HIST_TYPES</title>
<path fill="none" stroke="#2b6cb0" stroke-dasharray="5,2" d="M299.69,-563.36C354.49,-547.5 426,-520.17 477,-476.5 497.46,-458.98 512.9,-432.66 522.99,-411.49"/>
<polygon fill="#2b6cb0" stroke="#2b6cb0" points="526.28,-412.73 527.25,-402.18 519.91,-409.82 526.28,-412.73"/>
</g>
<!-- OPT_TYPES -->
<g id="node5" class="node">
<title>OPT_TYPES</title>
<polygon fill="#dbeafe" stroke="black" points="720.5,-402 643.5,-402 643.5,-350 726.5,-350 726.5,-396 720.5,-402"/>
<polyline fill="none" stroke="black" points="720.5,-402 720.5,-396 "/>
<polyline fill="none" stroke="black" points="726.5,-396 720.5,-396 "/>
<text text-anchor="middle" x="685" y="-390" font-family="Helvetica,sans-Serif" font-size="10.00">OptionQuote</text>
<text text-anchor="middle" x="685" y="-379" font-family="Helvetica,sans-Serif" font-size="10.00">OptionTrade</text>
<text text-anchor="middle" x="685" y="-368" font-family="Helvetica,sans-Serif" font-size="10.00">OptionGreeks</text>
<text text-anchor="middle" x="685" y="-357" font-family="Helvetica,sans-Serif" font-size="10.00">OptionChain</text>
</g>
<!-- EVENT&#45;&gt;OPT_TYPES -->
<g id="edge14" class="edge">
<title>EVENT&#45;&gt;OPT_TYPES</title>
<path fill="none" stroke="#2b6cb0" stroke-dasharray="5,2" d="M299.71,-580.02C389.36,-573.91 534.19,-551.97 631,-476.5 651.97,-460.15 665.86,-433.3 674.29,-411.6"/>
<polygon fill="#2b6cb0" stroke="#2b6cb0" points="677.63,-412.65 677.79,-402.06 671.06,-410.24 677.63,-412.65"/>
</g>
<!-- ORD_TYPES -->
<g id="node6" class="node">
<title>ORD_TYPES</title>
<polygon fill="#e0e7ff" stroke="black" points="865.5,-407.5 788.5,-407.5 788.5,-344.5 871.5,-344.5 871.5,-401.5 865.5,-407.5"/>
<polyline fill="none" stroke="black" points="865.5,-407.5 865.5,-401.5 "/>
<polyline fill="none" stroke="black" points="871.5,-401.5 865.5,-401.5 "/>
<text text-anchor="middle" x="830" y="-395.5" font-family="Helvetica,sans-Serif" font-size="10.00">OrderAdd</text>
<text text-anchor="middle" x="830" y="-384.5" font-family="Helvetica,sans-Serif" font-size="10.00">OrderModify</text>
<text text-anchor="middle" x="830" y="-373.5" font-family="Helvetica,sans-Serif" font-size="10.00">OrderCancel</text>
<text text-anchor="middle" x="830" y="-362.5" font-family="Helvetica,sans-Serif" font-size="10.00">OrderExecute</text>
<text text-anchor="middle" x="830" y="-351.5" font-family="Helvetica,sans-Serif" font-size="10.00">OrderReplace</text>
</g>
<!-- EVENT&#45;&gt;ORD_TYPES -->
<g id="edge15" class="edge">
<title>EVENT&#45;&gt;ORD_TYPES</title>
<path fill="none" stroke="#2b6cb0" stroke-dasharray="5,2" d="M299.66,-575.22C435.2,-562.45 701.17,-531.11 776,-476.5 795.74,-462.1 809.04,-438.22 817.5,-417.47"/>
<polygon fill="#2b6cb0" stroke="#2b6cb0" points="820.86,-418.48 821.16,-407.89 814.32,-415.98 820.86,-418.48"/>
</g>
<!-- PAYLOAD -->
<g id="node7" class="node">
<title>PAYLOAD</title>
<ellipse fill="#6ee7b7" stroke="black" cx="1515" cy="-376" rx="90.52" ry="53.07"/>
<text text-anchor="middle" x="1515" y="-401.5" font-family="Helvetica,sans-Serif" font-size="10.00">MarketEventPayload</text>
<text text-anchor="middle" x="1515" y="-390.5" font-family="Helvetica,sans-Serif" font-size="10.00">[Abstract Base]</text>
<text text-anchor="middle" x="1515" y="-367.5" font-family="Helvetica,sans-Serif" font-size="10.00">Sealed class hierarchy</text>
<text text-anchor="middle" x="1515" y="-356.5" font-family="Helvetica,sans-Serif" font-size="10.00">One payload per event</text>
<text text-anchor="middle" x="1515" y="-345.5" font-family="Helvetica,sans-Serif" font-size="10.00">Pattern&#45;match safe</text>
</g>
<!-- EVENT&#45;&gt;PAYLOAD -->
<g id="edge3" class="edge">
<title>EVENT&#45;&gt;PAYLOAD</title>
<path fill="none" stroke="#2c7a7b" stroke-width="2" d="M299.74,-571.76C437.48,-554.05 726.61,-515.8 970,-476.5 1127.91,-451 1310.66,-416.64 1419.33,-395.69"/>
<polygon fill="#2c7a7b" stroke="#2c7a7b" stroke-width="2" points="1420.13,-399.1 1429.29,-393.77 1418.81,-392.23 1420.13,-399.1"/>
<text text-anchor="middle" x="928.5" y="-487.3" font-family="Helvetica,sans-Serif" font-size="9.00">contains</text>
</g>
<!-- TRADE_P -->
<g id="node8" class="node">
<title>TRADE_P</title>
<path fill="#a7f3d0" stroke="black" d="M1150,-248.5C1150,-248.5 1002,-248.5 1002,-248.5 996,-248.5 990,-242.5 990,-236.5 990,-236.5 990,-152.5 990,-152.5 990,-146.5 996,-140.5 1002,-140.5 1002,-140.5 1150,-140.5 1150,-140.5 1156,-140.5 1162,-146.5 1162,-152.5 1162,-152.5 1162,-236.5 1162,-236.5 1162,-242.5 1156,-248.5 1150,-248.5"/>
<text text-anchor="middle" x="1076" y="-236.5" font-family="Helvetica,sans-Serif" font-size="10.00">TradePayload</text>
<text text-anchor="middle" x="1076" y="-213.5" font-family="Helvetica,sans-Serif" font-size="10.00">Price: decimal</text>
<text text-anchor="middle" x="1076" y="-202.5" font-family="Helvetica,sans-Serif" font-size="10.00">Size: decimal</text>
<text text-anchor="middle" x="1076" y="-191.5" font-family="Helvetica,sans-Serif" font-size="10.00">Side: AggressorSide</text>
<text text-anchor="middle" x="1076" y="-180.5" font-family="Helvetica,sans-Serif" font-size="10.00">Conditions: string[]</text>
<text text-anchor="middle" x="1076" y="-169.5" font-family="Helvetica,sans-Serif" font-size="10.00">SequenceNumber: long</text>
<text text-anchor="middle" x="1076" y="-158.5" font-family="Helvetica,sans-Serif" font-size="10.00">ExchangeTime: DateTimeOffset</text>
<text text-anchor="middle" x="1076" y="-147.5" font-family="Helvetica,sans-Serif" font-size="10.00">TradeId: string</text>
</g>
<!-- PAYLOAD&#45;&gt;TRADE_P -->
<g id="edge5" class="edge">
<title>PAYLOAD&#45;&gt;TRADE_P</title>
<path fill="none" stroke="#2c7a7b" stroke-dasharray="5,2" d="M1428.41,-360.4C1356.68,-345.92 1253.65,-319.49 1172,-276 1160.94,-270.11 1150,-262.8 1139.68,-255"/>
<polygon fill="#2c7a7b" stroke="#2c7a7b" points="1141.59,-252.04 1131.55,-248.65 1137.28,-257.56 1141.59,-252.04"/>
</g>
<!-- BBO_P -->
<g id="node9" class="node">
<title>BBO_P</title>
<path fill="#a7f3d0" stroke="black" d="M1331.5,-248.5C1331.5,-248.5 1192.5,-248.5 1192.5,-248.5 1186.5,-248.5 1180.5,-242.5 1180.5,-236.5 1180.5,-236.5 1180.5,-152.5 1180.5,-152.5 1180.5,-146.5 1186.5,-140.5 1192.5,-140.5 1192.5,-140.5 1331.5,-140.5 1331.5,-140.5 1337.5,-140.5 1343.5,-146.5 1343.5,-152.5 1343.5,-152.5 1343.5,-236.5 1343.5,-236.5 1343.5,-242.5 1337.5,-248.5 1331.5,-248.5"/>
<text text-anchor="middle" x="1262" y="-236.5" font-family="Helvetica,sans-Serif" font-size="10.00">BboQuotePayload</text>
<text text-anchor="middle" x="1262" y="-213.5" font-family="Helvetica,sans-Serif" font-size="10.00">BidPrice: decimal</text>
<text text-anchor="middle" x="1262" y="-202.5" font-family="Helvetica,sans-Serif" font-size="10.00">BidSize: decimal</text>
<text text-anchor="middle" x="1262" y="-191.5" font-family="Helvetica,sans-Serif" font-size="10.00">AskPrice: decimal</text>
<text text-anchor="middle" x="1262" y="-180.5" font-family="Helvetica,sans-Serif" font-size="10.00">AskSize: decimal</text>
<text text-anchor="middle" x="1262" y="-169.5" font-family="Helvetica,sans-Serif" font-size="10.00">Spread: decimal (computed)</text>
<text text-anchor="middle" x="1262" y="-158.5" font-family="Helvetica,sans-Serif" font-size="10.00">MidPrice: decimal (computed)</text>
<text text-anchor="middle" x="1262" y="-147.5" font-family="Helvetica,sans-Serif" font-size="10.00">SequenceNumber: long</text>
</g>
<!-- PAYLOAD&#45;&gt;BBO_P -->
<g id="edge6" class="edge">
<title>PAYLOAD&#45;&gt;BBO_P</title>
<path fill="none" stroke="#2c7a7b" stroke-dasharray="5,2" d="M1450.23,-338.95C1419.89,-321.18 1383.75,-298.72 1353,-276 1344.3,-269.57 1335.43,-262.48 1326.81,-255.26"/>
<polygon fill="#2c7a7b" stroke="#2c7a7b" points="1328.87,-252.42 1318.98,-248.61 1324.33,-257.75 1328.87,-252.42"/>
</g>
<!-- LOB_P -->
<g id="node10" class="node">
<title>LOB_P</title>
<path fill="#a7f3d0" stroke="black" d="M1484,-248.5C1484,-248.5 1374,-248.5 1374,-248.5 1368,-248.5 1362,-242.5 1362,-236.5 1362,-236.5 1362,-152.5 1362,-152.5 1362,-146.5 1368,-140.5 1374,-140.5 1374,-140.5 1484,-140.5 1484,-140.5 1490,-140.5 1496,-146.5 1496,-152.5 1496,-152.5 1496,-236.5 1496,-236.5 1496,-242.5 1490,-248.5 1484,-248.5"/>
<text text-anchor="middle" x="1429" y="-236.5" font-family="Helvetica,sans-Serif" font-size="10.00">LobSnapshotPayload</text>
<text text-anchor="middle" x="1429" y="-213.5" font-family="Helvetica,sans-Serif" font-size="10.00">Bids: PriceLevel[]</text>
<text text-anchor="middle" x="1429" y="-202.5" font-family="Helvetica,sans-Serif" font-size="10.00">Asks: PriceLevel[]</text>
<text text-anchor="middle" x="1429" y="-191.5" font-family="Helvetica,sans-Serif" font-size="10.00">DepthLevels: int</text>
<text text-anchor="middle" x="1429" y="-180.5" font-family="Helvetica,sans-Serif" font-size="10.00">SequenceNumber: long</text>
<text text-anchor="middle" x="1429" y="-169.5" font-family="Helvetica,sans-Serif" font-size="10.00">IsFullSnapshot: bool</text>
<text text-anchor="middle" x="1429" y="-158.5" font-family="Helvetica,sans-Serif" font-size="10.00">PriceLevel:</text>
<text text-anchor="middle" x="1429" y="-147.5" font-family="Helvetica,sans-Serif" font-size="10.00"> &#160;Price, Size, OrderCount</text>
</g>
<!-- PAYLOAD&#45;&gt;LOB_P -->
<g id="edge7" class="edge">
<title>PAYLOAD&#45;&gt;LOB_P</title>
<path fill="none" stroke="#2c7a7b" stroke-dasharray="5,2" d="M1490.82,-324.52C1480.9,-303.83 1469.33,-279.68 1458.9,-257.9"/>
<polygon fill="#2c7a7b" stroke="#2c7a7b" points="1461.98,-256.24 1454.5,-248.73 1455.67,-259.26 1461.98,-256.24"/>
</g>
<!-- BAR_P -->
<g id="node11" class="node">
<title>BAR_P</title>
<path fill="#a7f3d0" stroke="black" d="M1678,-276C1678,-276 1526,-276 1526,-276 1520,-276 1514,-270 1514,-264 1514,-264 1514,-125 1514,-125 1514,-119 1520,-113 1526,-113 1526,-113 1678,-113 1678,-113 1684,-113 1690,-119 1690,-125 1690,-125 1690,-264 1690,-264 1690,-270 1684,-276 1678,-276"/>
<text text-anchor="middle" x="1602" y="-264" font-family="Helvetica,sans-Serif" font-size="10.00">HistoricalBarPayload</text>
<text text-anchor="middle" x="1602" y="-241" font-family="Helvetica,sans-Serif" font-size="10.00">Open: decimal</text>
<text text-anchor="middle" x="1602" y="-230" font-family="Helvetica,sans-Serif" font-size="10.00">High: decimal</text>
<text text-anchor="middle" x="1602" y="-219" font-family="Helvetica,sans-Serif" font-size="10.00">Low: decimal</text>
<text text-anchor="middle" x="1602" y="-208" font-family="Helvetica,sans-Serif" font-size="10.00">Close: decimal</text>
<text text-anchor="middle" x="1602" y="-197" font-family="Helvetica,sans-Serif" font-size="10.00">Volume: long</text>
<text text-anchor="middle" x="1602" y="-186" font-family="Helvetica,sans-Serif" font-size="10.00">Vwap: decimal</text>
<text text-anchor="middle" x="1602" y="-175" font-family="Helvetica,sans-Serif" font-size="10.00">SessionDate: DateOnly</text>
<text text-anchor="middle" x="1602" y="-164" font-family="Helvetica,sans-Serif" font-size="10.00">Source: string</text>
<text text-anchor="middle" x="1602" y="-153" font-family="Helvetica,sans-Serif" font-size="10.00">Interval: TimeSpan</text>
<text text-anchor="middle" x="1602" y="-142" font-family="Helvetica,sans-Serif" font-size="10.00">IsAdjusted: bool</text>
<text text-anchor="middle" x="1602" y="-131" font-family="Helvetica,sans-Serif" font-size="10.00">(computed: Range, BodySize,</text>
<text text-anchor="middle" x="1602" y="-120" font-family="Helvetica,sans-Serif" font-size="10.00"> IsBullish, TypicalPrice, Notional)</text>
</g>
<!-- PAYLOAD&#45;&gt;BAR_P -->
<g id="edge8" class="edge">
<title>PAYLOAD&#45;&gt;BAR_P</title>
<path fill="none" stroke="#2c7a7b" stroke-dasharray="5,2" d="M1539.47,-324.52C1545.39,-312.31 1551.89,-298.88 1558.4,-285.45"/>
<polygon fill="#2c7a7b" stroke="#2c7a7b" points="1561.69,-286.69 1562.9,-276.16 1555.39,-283.63 1561.69,-286.69"/>
</g>
<!-- FLOW_P -->
<g id="node12" class="node">
<title>FLOW_P</title>
<path fill="#a7f3d0" stroke="black" d="M1827.5,-248.5C1827.5,-248.5 1720.5,-248.5 1720.5,-248.5 1714.5,-248.5 1708.5,-242.5 1708.5,-236.5 1708.5,-236.5 1708.5,-152.5 1708.5,-152.5 1708.5,-146.5 1714.5,-140.5 1720.5,-140.5 1720.5,-140.5 1827.5,-140.5 1827.5,-140.5 1833.5,-140.5 1839.5,-146.5 1839.5,-152.5 1839.5,-152.5 1839.5,-236.5 1839.5,-236.5 1839.5,-242.5 1833.5,-248.5 1827.5,-248.5"/>
<text text-anchor="middle" x="1774" y="-236.5" font-family="Helvetica,sans-Serif" font-size="10.00">OrderFlowStatsPayload</text>
<text text-anchor="middle" x="1774" y="-213.5" font-family="Helvetica,sans-Serif" font-size="10.00">BuyVolume: long</text>
<text text-anchor="middle" x="1774" y="-202.5" font-family="Helvetica,sans-Serif" font-size="10.00">SellVolume: long</text>
<text text-anchor="middle" x="1774" y="-191.5" font-family="Helvetica,sans-Serif" font-size="10.00">Delta: long (computed)</text>
<text text-anchor="middle" x="1774" y="-180.5" font-family="Helvetica,sans-Serif" font-size="10.00">CumulativeDelta: long</text>
<text text-anchor="middle" x="1774" y="-169.5" font-family="Helvetica,sans-Serif" font-size="10.00">Vwap: decimal</text>
<text text-anchor="middle" x="1774" y="-158.5" font-family="Helvetica,sans-Serif" font-size="10.00">Imbalance: decimal</text>
<text text-anchor="middle" x="1774" y="-147.5" font-family="Helvetica,sans-Serif" font-size="10.00">WindowSize: TimeSpan</text>
</g>
<!-- PAYLOAD&#45;&gt;FLOW_P -->
<g id="edge9" class="edge">
<title>PAYLOAD&#45;&gt;FLOW_P</title>
<path fill="none" stroke="#2c7a7b" stroke-dasharray="5,2" d="M1586.43,-343.38C1621.95,-326.01 1664.54,-302.59 1699,-276 1706.83,-269.96 1714.55,-263.07 1721.9,-255.93"/>
<polygon fill="#2c7a7b" stroke="#2c7a7b" points="1724.51,-258.27 1729.11,-248.72 1719.57,-253.31 1724.51,-258.27"/>
</g>
<!-- INTEGRITY_P -->
<g id="node13" class="node">
<title>INTEGRITY_P</title>
<path fill="#fecaca" stroke="black" d="M2002.5,-248.5C2002.5,-248.5 1869.5,-248.5 1869.5,-248.5 1863.5,-248.5 1857.5,-242.5 1857.5,-236.5 1857.5,-236.5 1857.5,-152.5 1857.5,-152.5 1857.5,-146.5 1863.5,-140.5 1869.5,-140.5 1869.5,-140.5 2002.5,-140.5 2002.5,-140.5 2008.5,-140.5 2014.5,-146.5 2014.5,-152.5 2014.5,-152.5 2014.5,-236.5 2014.5,-236.5 2014.5,-242.5 2008.5,-248.5 2002.5,-248.5"/>
<text text-anchor="middle" x="1936" y="-236.5" font-family="Helvetica,sans-Serif" font-size="10.00">IntegrityEventPayload</text>
<text text-anchor="middle" x="1936" y="-213.5" font-family="Helvetica,sans-Serif" font-size="10.00">Severity: IntegritySeverity</text>
<text text-anchor="middle" x="1936" y="-202.5" font-family="Helvetica,sans-Serif" font-size="10.00">(Info/Warning/Error)</text>
<text text-anchor="middle" x="1936" y="-191.5" font-family="Helvetica,sans-Serif" font-size="10.00">GapStart: long (sequence)</text>
<text text-anchor="middle" x="1936" y="-180.5" font-family="Helvetica,sans-Serif" font-size="10.00">GapEnd: long (sequence)</text>
<text text-anchor="middle" x="1936" y="-169.5" font-family="Helvetica,sans-Serif" font-size="10.00">MissingCount: int</text>
<text text-anchor="middle" x="1936" y="-158.5" font-family="Helvetica,sans-Serif" font-size="10.00">EventType: MarketEventType</text>
<text text-anchor="middle" x="1936" y="-147.5" font-family="Helvetica,sans-Serif" font-size="10.00">Description: string</text>
</g>
<!-- PAYLOAD&#45;&gt;INTEGRITY_P -->
<g id="edge10" class="edge">
<title>PAYLOAD&#45;&gt;INTEGRITY_P</title>
<path fill="none" stroke="#c53030" stroke-dasharray="5,2" d="M1601.64,-360.65C1671.73,-346.44 1771.21,-320.27 1849,-276 1859.2,-270.2 1869.17,-262.98 1878.51,-255.28"/>
<polygon fill="#c53030" stroke="#c53030" points="1880.87,-257.86 1886.2,-248.71 1876.33,-252.54 1880.87,-257.86"/>
</g>
<!-- HEART_P -->
<g id="node14" class="node">
<title>HEART_P</title>
<path fill="#e2e8f0" stroke="black" d="M2189.5,-232C2189.5,-232 2044.5,-232 2044.5,-232 2038.5,-232 2032.5,-226 2032.5,-220 2032.5,-220 2032.5,-169 2032.5,-169 2032.5,-163 2038.5,-157 2044.5,-157 2044.5,-157 2189.5,-157 2189.5,-157 2195.5,-157 2201.5,-163 2201.5,-169 2201.5,-169 2201.5,-220 2201.5,-220 2201.5,-226 2195.5,-232 2189.5,-232"/>
<text text-anchor="middle" x="2117" y="-220" font-family="Helvetica,sans-Serif" font-size="10.00">HeartbeatPayload</text>
<text text-anchor="middle" x="2117" y="-197" font-family="Helvetica,sans-Serif" font-size="10.00">ProviderStatus: string</text>
<text text-anchor="middle" x="2117" y="-186" font-family="Helvetica,sans-Serif" font-size="10.00">Latency: TimeSpan</text>
<text text-anchor="middle" x="2117" y="-175" font-family="Helvetica,sans-Serif" font-size="10.00">EventRate: double (events/sec)</text>
<text text-anchor="middle" x="2117" y="-164" font-family="Helvetica,sans-Serif" font-size="10.00">DroppedCount: long</text>
</g>
<!-- PAYLOAD&#45;&gt;HEART_P -->
<g id="edge11" class="edge">
<title>PAYLOAD&#45;&gt;HEART_P</title>
<path fill="none" stroke="#718096" stroke-dasharray="5,2" d="M1605.41,-371.43C1710.77,-364.19 1887.8,-342.26 2024,-276 2042.8,-266.85 2060.83,-252.92 2075.92,-239.21"/>
<polygon fill="#718096" stroke="#718096" points="2078.63,-241.47 2083.54,-232.08 2073.84,-236.36 2078.63,-241.47"/>
</g>
<!-- AGGRESSOR -->
<g id="node18" class="node">
<title>AGGRESSOR</title>
<polygon fill="#9ae6b4" stroke="black" points="1167.5,-54.5 1056.5,-54.5 1056.5,-18.5 1173.5,-18.5 1173.5,-48.5 1167.5,-54.5"/>
<polyline fill="none" stroke="black" points="1167.5,-54.5 1167.5,-48.5 "/>
<polyline fill="none" stroke="black" points="1173.5,-48.5 1167.5,-48.5 "/>
<text text-anchor="middle" x="1115" y="-39.5" font-family="Helvetica,sans-Serif" font-size="10.00">AggressorSide:</text>
<text text-anchor="middle" x="1115" y="-28.5" font-family="Helvetica,sans-Serif" font-size="10.00">Buy | Sell | Unknown</text>
</g>
<!-- TRADE_P&#45;&gt;AGGRESSOR -->
<g id="edge16" class="edge">
<title>TRADE_P&#45;&gt;AGGRESSOR</title>
<path fill="none" stroke="#38a169" stroke-dasharray="5,2" d="M1089.31,-140.25C1095.69,-114.73 1103.06,-85.26 1108.26,-64.45"/>
<polygon fill="#38a169" stroke="#38a169" points="1111.67,-65.25 1110.7,-54.7 1104.88,-63.55 1111.67,-65.25"/>
</g>
<!-- COND_MAP -->
<g id="node21" class="node">
<title>COND_MAP</title>
<polygon fill="#9ae6b4" stroke="black" points="1344.5,-57 1191.5,-57 1191.5,-16 1350.5,-16 1350.5,-51 1344.5,-57"/>
<polyline fill="none" stroke="black" points="1344.5,-57 1344.5,-51 "/>
<polyline fill="none" stroke="black" points="1350.5,-51 1344.5,-51 "/>
<text text-anchor="middle" x="1271" y="-45" font-family="Helvetica,sans-Serif" font-size="10.00">CanonicalTradeCondition:</text>
<text text-anchor="middle" x="1271" y="-34" font-family="Helvetica,sans-Serif" font-size="10.00">Regular, Opening, Closing,</text>
<text text-anchor="middle" x="1271" y="-23" font-family="Helvetica,sans-Serif" font-size="10.00">OddLot, FormT, Correction, ...</text>
</g>
<!-- TRADE_P&#45;&gt;COND_MAP -->
<g id="edge18" class="edge">
<title>TRADE_P&#45;&gt;COND_MAP</title>
<path fill="none" stroke="#38a169" stroke-dasharray="5,2" d="M1130.87,-140.37C1144.02,-128.35 1158.25,-115.93 1172,-105 1190.84,-90.03 1212.87,-74.8 1231.35,-62.61"/>
<polygon fill="#38a169" stroke="#38a169" points="1233.39,-65.46 1239.85,-57.06 1229.56,-59.6 1233.39,-65.46"/>
</g>
<!-- ORDER_SIDE -->
<g id="node20" class="node">
<title>ORDER_SIDE</title>
<polygon fill="#9ae6b4" stroke="black" points="1455,-54.5 1369,-54.5 1369,-18.5 1461,-18.5 1461,-48.5 1455,-54.5"/>
<polyline fill="none" stroke="black" points="1455,-54.5 1455,-48.5 "/>
<polyline fill="none" stroke="black" points="1461,-48.5 1455,-48.5 "/>
<text text-anchor="middle" x="1415" y="-39.5" font-family="Helvetica,sans-Serif" font-size="10.00">OrderBookSide:</text>
<text text-anchor="middle" x="1415" y="-28.5" font-family="Helvetica,sans-Serif" font-size="10.00">Bid | Ask</text>
</g>
<!-- LOB_P&#45;&gt;ORDER_SIDE -->
<g id="edge17" class="edge">
<title>LOB_P&#45;&gt;ORDER_SIDE</title>
<path fill="none" stroke="#38a169" stroke-dasharray="5,2" d="M1424.22,-140.25C1421.94,-114.84 1419.31,-85.53 1417.44,-64.73"/>
<polygon fill="#38a169" stroke="#38a169" points="1420.92,-64.35 1416.54,-54.7 1413.95,-64.97 1420.92,-64.35"/>
</g>
<!-- INTEGRITY_SEV -->
<g id="node19" class="node">
<title>INTEGRITY_SEV</title>
<polygon fill="#9ae6b4" stroke="black" points="1589,-54.5 1479,-54.5 1479,-18.5 1595,-18.5 1595,-48.5 1589,-54.5"/>
<polyline fill="none" stroke="black" points="1589,-54.5 1589,-48.5 "/>
<polyline fill="none" stroke="black" points="1595,-48.5 1589,-48.5 "/>
<text text-anchor="middle" x="1537" y="-39.5" font-family="Helvetica,sans-Serif" font-size="10.00">IntegritySeverity:</text>
<text text-anchor="middle" x="1537" y="-28.5" font-family="Helvetica,sans-Serif" font-size="10.00">Info | Warning | Error</text>
</g>
<!-- INTEGRITY_P&#45;&gt;INTEGRITY_SEV -->
<g id="edge19" class="edge">
<title>INTEGRITY_P&#45;&gt;INTEGRITY_SEV</title>
<path fill="none" stroke="#38a169" stroke-dasharray="5,2" d="M1893.33,-140.08C1880.37,-126.86 1865.23,-113.94 1849,-105 1772.28,-62.74 1671.37,-46.93 1605.39,-41.02"/>
<polygon fill="#38a169" stroke="#38a169" points="1605.36,-37.51 1595.1,-40.16 1604.77,-44.48 1605.36,-37.51"/>
</g>
<!-- TIER_RAW -->
<g id="node15" class="node">
<title>TIER_RAW</title>
<path fill="#feebc8" stroke="black" d="M2383,-615C2383,-615 2279,-615 2279,-615 2273,-615 2267,-609 2267,-603 2267,-603 2267,-563 2267,-563 2267,-557 2273,-551 2279,-551 2279,-551 2383,-551 2383,-551 2389,-551 2395,-557 2395,-563 2395,-563 2395,-603 2395,-603 2395,-609 2389,-615 2383,-615"/>
<text text-anchor="middle" x="2331" y="-603" font-family="Helvetica,sans-Serif" font-size="10.00">Raw</text>
<text text-anchor="middle" x="2331" y="-580" font-family="Helvetica,sans-Serif" font-size="10.00">Direct from provider</text>
<text text-anchor="middle" x="2331" y="-569" font-family="Helvetica,sans-Serif" font-size="10.00">Minimal processing</text>
<text text-anchor="middle" x="2331" y="-558" font-family="Helvetica,sans-Serif" font-size="10.00">Provider&#45;native format</text>
</g>
<!-- TIER_CANON -->
<g id="node16" class="node">
<title>TIER_CANON</title>
<path fill="#fbd38d" stroke="black" d="M2395.5,-413.5C2395.5,-413.5 2266.5,-413.5 2266.5,-413.5 2260.5,-413.5 2254.5,-407.5 2254.5,-401.5 2254.5,-401.5 2254.5,-350.5 2254.5,-350.5 2254.5,-344.5 2260.5,-338.5 2266.5,-338.5 2266.5,-338.5 2395.5,-338.5 2395.5,-338.5 2401.5,-338.5 2407.5,-344.5 2407.5,-350.5 2407.5,-350.5 2407.5,-401.5 2407.5,-401.5 2407.5,-407.5 2401.5,-413.5 2395.5,-413.5"/>
<text text-anchor="middle" x="2331" y="-401.5" font-family="Helvetica,sans-Serif" font-size="10.00">Canonicalized</text>
<text text-anchor="middle" x="2331" y="-378.5" font-family="Helvetica,sans-Serif" font-size="10.00">Normalized symbol</text>
<text text-anchor="middle" x="2331" y="-367.5" font-family="Helvetica,sans-Serif" font-size="10.00">Standard exchange code</text>
<text text-anchor="middle" x="2331" y="-356.5" font-family="Helvetica,sans-Serif" font-size="10.00">CanonicalSymbol populated</text>
<text text-anchor="middle" x="2331" y="-345.5" font-family="Helvetica,sans-Serif" font-size="10.00">CanonicalVenue populated</text>
</g>
<!-- TIER_RAW&#45;&gt;TIER_CANON -->
<g id="edge1" class="edge">
<title>TIER_RAW&#45;&gt;TIER_CANON</title>
<path fill="none" stroke="#ed8936" stroke-width="2" d="M2331,-550.86C2331,-517.04 2331,-462.62 2331,-423.68"/>
<polygon fill="#ed8936" stroke="#ed8936" stroke-width="2" points="2334.5,-423.63 2331,-413.63 2327.5,-423.63 2334.5,-423.63"/>
<text text-anchor="middle" x="2367.5" y="-487.3" font-family="Helvetica,sans-Serif" font-size="9.00">canonicalization</text>
</g>
<!-- TIER_ENRICHED -->
<g id="node17" class="node">
<title>TIER_ENRICHED</title>
<path fill="#f6ad55" stroke="black" d="M2393.5,-237.5C2393.5,-237.5 2268.5,-237.5 2268.5,-237.5 2262.5,-237.5 2256.5,-231.5 2256.5,-225.5 2256.5,-225.5 2256.5,-163.5 2256.5,-163.5 2256.5,-157.5 2262.5,-151.5 2268.5,-151.5 2268.5,-151.5 2393.5,-151.5 2393.5,-151.5 2399.5,-151.5 2405.5,-157.5 2405.5,-163.5 2405.5,-163.5 2405.5,-225.5 2405.5,-225.5 2405.5,-231.5 2399.5,-237.5 2393.5,-237.5"/>
<text text-anchor="middle" x="2331" y="-225.5" font-family="Helvetica,sans-Serif" font-size="10.00">Enriched</text>
<text text-anchor="middle" x="2331" y="-202.5" font-family="Helvetica,sans-Serif" font-size="10.00">Additional calculations</text>
<text text-anchor="middle" x="2331" y="-191.5" font-family="Helvetica,sans-Serif" font-size="10.00">VWAP computed</text>
<text text-anchor="middle" x="2331" y="-180.5" font-family="Helvetica,sans-Serif" font-size="10.00">Spread computed</text>
<text text-anchor="middle" x="2331" y="-169.5" font-family="Helvetica,sans-Serif" font-size="10.00">Imbalance computed</text>
<text text-anchor="middle" x="2331" y="-158.5" font-family="Helvetica,sans-Serif" font-size="10.00">Greeks computed (options)</text>
</g>
<!-- TIER_CANON&#45;&gt;TIER_ENRICHED -->
<g id="edge2" class="edge">
<title>TIER_CANON&#45;&gt;TIER_ENRICHED</title>
<path fill="none" stroke="#ed8936" stroke-width="2" d="M2331,-338.24C2331,-312.21 2331,-276.9 2331,-247.92"/>
<polygon fill="#ed8936" stroke="#ed8936" stroke-width="2" points="2334.5,-247.56 2331,-237.56 2327.5,-247.56 2334.5,-247.56"/>
<text text-anchor="middle" x="2357.5" y="-296.8" font-family="Helvetica,sans-Serif" font-size="9.00">enrichment</text>
</g>
<!-- LEG -->
<g id="node22" class="node">
<title>LEG</title>
<path fill="lightgrey" stroke="transparent" d="M2670.5,-609C2670.5,-609 2473.5,-609 2473.5,-609 2467.5,-609 2461.5,-603 2461.5,-597 2461.5,-597 2461.5,-569 2461.5,-569 2461.5,-563 2467.5,-557 2473.5,-557 2473.5,-557 2670.5,-557 2670.5,-557 2676.5,-557 2682.5,-563 2682.5,-569 2682.5,-569 2682.5,-597 2682.5,-597 2682.5,-603 2676.5,-609 2670.5,-609"/>
<text text-anchor="middle" x="2572" y="-597" font-family="Helvetica,sans-Serif" font-size="10.00">━━ Composition (contains)</text>
<text text-anchor="middle" x="2572" y="-586" font-family="Helvetica,sans-Serif" font-size="10.00">─ ─ Type association / enum membership</text>
<text text-anchor="middle" x="2572" y="-575" font-family="Helvetica,sans-Serif" font-size="10.00">Sealed = no external subclassing allowed</text>
<text text-anchor="middle" x="2572" y="-564" font-family="Helvetica,sans-Serif" font-size="10.00">Union = one payload type per event</text>
</g>
</g>
</svg>
