<?xml version="1.0" encoding="UTF-8" standalone="no"?>
<!DOCTYPE svg PUBLIC "-//W3C//DTD SVG 1.1//EN"
 "http://www.w3.org/Graphics/SVG/1.1/DTD/svg11.dtd">
<!-- Generated by graphviz version 2.43.0 (0)
 -->
<!-- Title: ExecutionLayer Pages: 1 -->
<svg width="3058pt" height="579pt"
 viewBox="0.00 0.00 3057.55 579.00" xmlns="http://www.w3.org/2000/svg" xmlns:xlink="http://www.w3.org/1999/xlink">
<g id="graph0" class="graph" transform="scale(1 1) rotate(0) translate(36 543)">
<title>ExecutionLayer</title>
<polygon fill="white" stroke="transparent" points="-36,36 -36,-543 3021.55,-543 3021.55,36 -36,36"/>
<text text-anchor="middle" x="1492.78" y="-493.4" font-family="Helvetica,sans-Serif" font-size="12.00">Meridian &#45; Execution Layer</text>
<text text-anchor="middle" x="1492.78" y="-480.4" font-family="Helvetica,sans-Serif" font-size="12.00">Paper Trading Gateway &amp; Order Lifecycle | v1.7.x</text>
<g id="clust1" class="cluster">
<title>cluster_origin</title>
<path fill="#faf5ff" stroke="#805ad5" d="M59,-20C59,-20 414,-20 414,-20 420,-20 426,-26 426,-32 426,-32 426,-141 426,-141 426,-147 420,-153 414,-153 414,-153 59,-153 59,-153 53,-153 47,-147 47,-141 47,-141 47,-32 47,-32 47,-26 53,-20 59,-20"/>
<text text-anchor="middle" x="236.5" y="-139.4" font-family="Helvetica,sans-Serif" font-size="12.00">Order Origination</text>
</g>
<g id="clust2" class="cluster">
<title>cluster_gateway_iface</title>
<path fill="#dbeafe" stroke="#2b6cb0" d="M459,-26C459,-26 727.33,-26 727.33,-26 733.33,-26 739.33,-32 739.33,-38 739.33,-38 739.33,-453 739.33,-453 739.33,-459 733.33,-465 727.33,-465 727.33,-465 459,-465 459,-465 453,-465 447,-459 447,-453 447,-453 447,-38 447,-38 447,-32 453,-26 459,-26"/>
<text text-anchor="middle" x="593.17" y="-451.4" font-family="Helvetica,sans-Serif" font-size="12.00">Gateway Abstraction (Meridian.Execution.Sdk)</text>
</g>
<g id="clust3" class="cluster">
<title>cluster_paper</title>
<path fill="#d1fae5" stroke="#2c7a7b" d="M824.33,-182C824.33,-182 1405.33,-182 1405.33,-182 1411.33,-182 1417.33,-188 1417.33,-194 1417.33,-194 1417.33,-352 1417.33,-352 1417.33,-358 1411.33,-364 1405.33,-364 1405.33,-364 824.33,-364 824.33,-364 818.33,-364 812.33,-358 812.33,-352 812.33,-352 812.33,-194 812.33,-194 812.33,-188 818.33,-182 824.33,-182"/>
<text text-anchor="middle" x="1114.83" y="-350.4" font-family="Helvetica,sans-Serif" font-size="12.00">Paper Trading Gateway (Meridian.Execution)</text>
</g>
<g id="clust4" class="cluster">
<title>cluster_oms</title>
<path fill="#fffaf0" stroke="#ed8936" d="M1027.83,-62C1027.83,-62 1397.33,-62 1397.33,-62 1403.33,-62 1409.33,-68 1409.33,-74 1409.33,-74 1409.33,-162 1409.33,-162 1409.33,-168 1403.33,-174 1397.33,-174 1397.33,-174 1027.83,-174 1027.83,-174 1021.83,-174 1015.83,-168 1015.83,-162 1015.83,-162 1015.83,-74 1015.83,-74 1015.83,-68 1021.83,-62 1027.83,-62"/>
<text text-anchor="middle" x="1212.58" y="-160.4" font-family="Helvetica,sans-Serif" font-size="12.00">Order Management System</text>
</g>
<g id="clust5" class="cluster">
<title>cluster_states</title>
<path fill="#fee2e2" stroke="#c53030" d="M1516.33,-60C1516.33,-60 2547.55,-60 2547.55,-60 2553.55,-60 2559.55,-66 2559.55,-72 2559.55,-72 2559.55,-268 2559.55,-268 2559.55,-274 2553.55,-280 2547.55,-280 2547.55,-280 1516.33,-280 1516.33,-280 1510.33,-280 1504.33,-274 1504.33,-268 1504.33,-268 1504.33,-72 1504.33,-72 1504.33,-66 1510.33,-60 1516.33,-60"/>
<text text-anchor="middle" x="2031.94" y="-266.4" font-family="Helvetica,sans-Serif" font-size="12.00">Order State Machine</text>
</g>
<g id="clust6" class="cluster">
<title>cluster_positions</title>
<path fill="#c6f6d5" stroke="#38a169" d="M2630.05,-141C2630.05,-141 2958.05,-141 2958.05,-141 2964.05,-141 2970.05,-147 2970.05,-153 2970.05,-153 2970.05,-388 2970.05,-388 2970.05,-394 2964.05,-400 2958.05,-400 2958.05,-400 2630.05,-400 2630.05,-400 2624.05,-400 2618.05,-394 2618.05,-388 2618.05,-388 2618.05,-153 2618.05,-153 2618.05,-147 2624.05,-141 2630.05,-141"/>
<text text-anchor="middle" x="2794.05" y="-386.4" font-family="Helvetica,sans-Serif" font-size="12.00">Position &amp; Risk Tracking</text>
</g>
<g id="clust7" class="cluster">
<title>cluster_notify</title>
<path fill="#ede9fe" stroke="#805ad5" d="M2624.55,-21C2624.55,-21 2965.55,-21 2965.55,-21 2971.55,-21 2977.55,-27 2977.55,-33 2977.55,-33 2977.55,-121 2977.55,-121 2977.55,-127 2971.55,-133 2965.55,-133 2965.55,-133 2624.55,-133 2624.55,-133 2618.55,-133 2612.55,-127 2612.55,-121 2612.55,-121 2612.55,-33 2612.55,-33 2612.55,-27 2618.55,-21 2624.55,-21"/>
<text text-anchor="middle" x="2795.05" y="-119.4" font-family="Helvetica,sans-Serif" font-size="12.00">Status Notification (EventPipeline)</text>
</g>
<g id="clust8" class="cluster">
<title>cluster_legend</title>
<path fill="#fafafa" stroke="#666666" d="M20,-268C20,-268 205,-268 205,-268 211,-268 217,-274 217,-280 217,-280 217,-345 217,-345 217,-351 211,-357 205,-357 205,-357 20,-357 20,-357 14,-357 8,-351 8,-345 8,-345 8,-280 8,-280 8,-274 14,-268 20,-268"/>
<text text-anchor="middle" x="112.5" y="-343.4" font-family="Helvetica,sans-Serif" font-size="12.00">Legend</text>
</g>
<!-- STRATEGY -->
<g id="node1" class="node">
<title>STRATEGY</title>
<path fill="#ddd6fe" stroke="black" d="M158,-107.5C158,-107.5 67,-107.5 67,-107.5 61,-107.5 55,-101.5 55,-95.5 55,-95.5 55,-44.5 55,-44.5 55,-38.5 61,-32.5 67,-32.5 67,-32.5 158,-32.5 158,-32.5 164,-32.5 170,-38.5 170,-44.5 170,-44.5 170,-95.5 170,-95.5 170,-101.5 164,-107.5 158,-107.5"/>
<text text-anchor="middle" x="112.5" y="-95.5" font-family="Helvetica,sans-Serif" font-size="10.00">Trading Strategy</text>
<text text-anchor="middle" x="112.5" y="-84.5" font-family="Helvetica,sans-Serif" font-size="10.00">[IStrategyLifecycle]</text>
<text text-anchor="middle" x="112.5" y="-61.5" font-family="Helvetica,sans-Serif" font-size="10.00">Signal generation</text>
<text text-anchor="middle" x="112.5" y="-50.5" font-family="Helvetica,sans-Serif" font-size="10.00">Position sizing</text>
<text text-anchor="middle" x="112.5" y="-39.5" font-family="Helvetica,sans-Serif" font-size="10.00">Risk&#45;checked orders</text>
</g>
<!-- ORDER_REQ -->
<g id="node2" class="node">
<title>ORDER_REQ</title>
<polygon fill="#e9d5ff" stroke="black" points="412,-124 246,-124 246,-28 418,-28 418,-118 412,-124"/>
<polyline fill="none" stroke="black" points="412,-124 412,-118 "/>
<polyline fill="none" stroke="black" points="418,-118 412,-118 "/>
<text text-anchor="middle" x="332" y="-112" font-family="Helvetica,sans-Serif" font-size="10.00">Order Request:</text>
<text text-anchor="middle" x="332" y="-101" font-family="Helvetica,sans-Serif" font-size="10.00">• Symbol</text>
<text text-anchor="middle" x="332" y="-90" font-family="Helvetica,sans-Serif" font-size="10.00">• OrderSide (Buy/Sell)</text>
<text text-anchor="middle" x="332" y="-79" font-family="Helvetica,sans-Serif" font-size="10.00">• OrderType (Market/Limit/Stop)</text>
<text text-anchor="middle" x="332" y="-68" font-family="Helvetica,sans-Serif" font-size="10.00">• Quantity</text>
<text text-anchor="middle" x="332" y="-57" font-family="Helvetica,sans-Serif" font-size="10.00">• LimitPrice (if applicable)</text>
<text text-anchor="middle" x="332" y="-46" font-family="Helvetica,sans-Serif" font-size="10.00">• TimeInForce</text>
<text text-anchor="middle" x="332" y="-35" font-family="Helvetica,sans-Serif" font-size="10.00">• ClientOrderId</text>
</g>
<!-- STRATEGY&#45;&gt;ORDER_REQ -->
<g id="edge8" class="edge">
<title>STRATEGY&#45;&gt;ORDER_REQ</title>
<path fill="none" stroke="#805ad5" d="M170.08,-71.56C190.05,-72.11 213.1,-72.75 235.41,-73.36"/>
<polygon fill="#805ad5" stroke="#805ad5" points="235.5,-76.87 245.59,-73.64 235.69,-69.87 235.5,-76.87"/>
</g>
<!-- I_GATEWAY -->
<g id="node3" class="node">
<title>I_GATEWAY</title>
<ellipse fill="#bfdbfe" stroke="black" cx="593.17" cy="-375" rx="96.33" ry="60.62"/>
<text text-anchor="middle" x="593.17" y="-406" font-family="Helvetica,sans-Serif" font-size="10.00">IOrderGateway</text>
<text text-anchor="middle" x="593.17" y="-395" font-family="Helvetica,sans-Serif" font-size="10.00">[Interface]</text>
<text text-anchor="middle" x="593.17" y="-372" font-family="Helvetica,sans-Serif" font-size="10.00">SubmitAsync(order, ct)</text>
<text text-anchor="middle" x="593.17" y="-361" font-family="Helvetica,sans-Serif" font-size="10.00">CancelAsync(orderId, ct)</text>
<text text-anchor="middle" x="593.17" y="-350" font-family="Helvetica,sans-Serif" font-size="10.00">QueryAsync(orderId, ct)</text>
<text text-anchor="middle" x="593.17" y="-339" font-family="Helvetica,sans-Serif" font-size="10.00">GetPositionsAsync(ct)</text>
</g>
<!-- ORDER_REQ&#45;&gt;I_GATEWAY -->
<g id="edge9" class="edge">
<title>ORDER_REQ&#45;&gt;I_GATEWAY</title>
<path fill="none" stroke="#2b6cb0" stroke-width="2" d="M346.66,-124.1C363.16,-174.72 395.33,-253.98 447,-305 461.8,-319.61 480.24,-331.64 498.97,-341.36"/>
<polygon fill="#2b6cb0" stroke="#2b6cb0" stroke-width="2" points="497.66,-344.61 508.17,-345.94 500.78,-338.35 497.66,-344.61"/>
</g>
<!-- PAPER_GW -->
<g id="node6" class="node">
<title>PAPER_GW</title>
<path fill="#6ee7b7" stroke="black" d="M960.33,-286.5C960.33,-286.5 832.33,-286.5 832.33,-286.5 826.33,-286.5 820.33,-280.5 820.33,-274.5 820.33,-274.5 820.33,-201.5 820.33,-201.5 820.33,-195.5 826.33,-189.5 832.33,-189.5 832.33,-189.5 960.33,-189.5 960.33,-189.5 966.33,-189.5 972.33,-195.5 972.33,-201.5 972.33,-201.5 972.33,-274.5 972.33,-274.5 972.33,-280.5 966.33,-286.5 960.33,-286.5"/>
<text text-anchor="middle" x="896.33" y="-274.5" font-family="Helvetica,sans-Serif" font-size="10.00">PaperTradingGateway</text>
<text text-anchor="middle" x="896.33" y="-263.5" font-family="Helvetica,sans-Serif" font-size="10.00">[ADR&#45;015]</text>
<text text-anchor="middle" x="896.33" y="-240.5" font-family="Helvetica,sans-Serif" font-size="10.00">Implements IOrderGateway</text>
<text text-anchor="middle" x="896.33" y="-229.5" font-family="Helvetica,sans-Serif" font-size="10.00">Simulated fills at market</text>
<text text-anchor="middle" x="896.33" y="-218.5" font-family="Helvetica,sans-Serif" font-size="10.00">No capital risk</text>
<text text-anchor="middle" x="896.33" y="-207.5" font-family="Helvetica,sans-Serif" font-size="10.00">Real&#45;time data feed</text>
<text text-anchor="middle" x="896.33" y="-196.5" font-family="Helvetica,sans-Serif" font-size="10.00">Atomic position updates</text>
</g>
<!-- I_GATEWAY&#45;&gt;PAPER_GW -->
<g id="edge12" class="edge">
<title>I_GATEWAY&#45;&gt;PAPER_GW</title>
<path fill="none" stroke="#2c7a7b" stroke-width="2" d="M671.72,-339.72C714.35,-320.33 767.29,-296.25 810.95,-276.39"/>
<polygon fill="#2c7a7b" stroke="#2c7a7b" stroke-width="2" points="812.47,-279.54 820.12,-272.21 809.57,-273.17 812.47,-279.54"/>
<text text-anchor="middle" x="775.33" y="-304.8" font-family="Helvetica,sans-Serif" font-size="9.00">implements</text>
</g>
<!-- I_EXEC_CTX -->
<g id="node4" class="node">
<title>I_EXEC_CTX</title>
<ellipse fill="#bfdbfe" stroke="black" cx="593.17" cy="-235" rx="74.49" ry="60.62"/>
<text text-anchor="middle" x="593.17" y="-266" font-family="Helvetica,sans-Serif" font-size="10.00">IExecutionContext</text>
<text text-anchor="middle" x="593.17" y="-255" font-family="Helvetica,sans-Serif" font-size="10.00">[Interface]</text>
<text text-anchor="middle" x="593.17" y="-232" font-family="Helvetica,sans-Serif" font-size="10.00">PortfolioState</text>
<text text-anchor="middle" x="593.17" y="-221" font-family="Helvetica,sans-Serif" font-size="10.00">LiveFeedAdapter</text>
<text text-anchor="middle" x="593.17" y="-210" font-family="Helvetica,sans-Serif" font-size="10.00">CurrentTime</text>
<text text-anchor="middle" x="593.17" y="-199" font-family="Helvetica,sans-Serif" font-size="10.00">Risk limits</text>
</g>
<!-- I_EXEC_CTX&#45;&gt;PAPER_GW -->
<g id="edge10" class="edge">
<title>I_EXEC_CTX&#45;&gt;PAPER_GW</title>
<path fill="none" stroke="#4a5568" stroke-dasharray="5,2" d="M667.46,-235.73C710.51,-236.16 765.14,-236.7 810.11,-237.15"/>
<polygon fill="#4a5568" stroke="#4a5568" points="810.11,-240.65 820.14,-237.25 810.18,-233.65 810.11,-240.65"/>
</g>
<!-- I_PORT_STATE -->
<g id="node5" class="node">
<title>I_PORT_STATE</title>
<ellipse fill="#bfdbfe" stroke="black" cx="593.17" cy="-95" rx="79.81" ry="60.62"/>
<text text-anchor="middle" x="593.17" y="-126" font-family="Helvetica,sans-Serif" font-size="10.00">IPortfolioState</text>
<text text-anchor="middle" x="593.17" y="-115" font-family="Helvetica,sans-Serif" font-size="10.00">[Interface]</text>
<text text-anchor="middle" x="593.17" y="-92" font-family="Helvetica,sans-Serif" font-size="10.00">Positions dictionary</text>
<text text-anchor="middle" x="593.17" y="-81" font-family="Helvetica,sans-Serif" font-size="10.00">Cash balance</text>
<text text-anchor="middle" x="593.17" y="-70" font-family="Helvetica,sans-Serif" font-size="10.00">Account balances</text>
<text text-anchor="middle" x="593.17" y="-59" font-family="Helvetica,sans-Serif" font-size="10.00">Buying power</text>
</g>
<!-- I_PORT_STATE&#45;&gt;PAPER_GW -->
<g id="edge11" class="edge">
<title>I_PORT_STATE&#45;&gt;PAPER_GW</title>
<path fill="none" stroke="#4a5568" stroke-dasharray="5,2" d="M661.38,-126.91C705.51,-147.87 763.58,-175.44 810.82,-197.87"/>
<polygon fill="#4a5568" stroke="#4a5568" points="809.59,-201.16 820.12,-202.29 812.59,-194.84 809.59,-201.16"/>
</g>
<!-- FILL_LOGIC -->
<g id="node7" class="node">
<title>FILL_LOGIC</title>
<path fill="#a7f3d0" stroke="black" d="M1178.33,-281C1178.33,-281 1021.33,-281 1021.33,-281 1015.33,-281 1009.33,-275 1009.33,-269 1009.33,-269 1009.33,-207 1009.33,-207 1009.33,-201 1015.33,-195 1021.33,-195 1021.33,-195 1178.33,-195 1178.33,-195 1184.33,-195 1190.33,-201 1190.33,-207 1190.33,-207 1190.33,-269 1190.33,-269 1190.33,-275 1184.33,-281 1178.33,-281"/>
<text text-anchor="middle" x="1099.83" y="-269" font-family="Helvetica,sans-Serif" font-size="10.00">Fill Simulation</text>
<text text-anchor="middle" x="1099.83" y="-246" font-family="Helvetica,sans-Serif" font-size="10.00">Market → notional price</text>
<text text-anchor="middle" x="1099.83" y="-235" font-family="Helvetica,sans-Serif" font-size="10.00">Limit → limit price if crossed</text>
<text text-anchor="middle" x="1099.83" y="-224" font-family="Helvetica,sans-Serif" font-size="10.00">StopMarket → trigger then market</text>
<text text-anchor="middle" x="1099.83" y="-213" font-family="Helvetica,sans-Serif" font-size="10.00">StopLimit → trigger then limit</text>
<text text-anchor="middle" x="1099.83" y="-202" font-family="Helvetica,sans-Serif" font-size="10.00">No partial fills</text>
</g>
<!-- PAPER_GW&#45;&gt;FILL_LOGIC -->
<g id="edge13" class="edge">
<title>PAPER_GW&#45;&gt;FILL_LOGIC</title>
<path fill="none" stroke="#2c7a7b" d="M972.36,-238C981.06,-238 990.04,-238 999,-238"/>
<polygon fill="#2c7a7b" stroke="#2c7a7b" points="999.1,-241.5 1009.1,-238 999.1,-234.5 999.1,-241.5"/>
</g>
<!-- OMS -->
<g id="node10" class="node">
<title>OMS</title>
<path fill="#fbd38d" stroke="black" d="M1163.83,-144.5C1163.83,-144.5 1035.83,-144.5 1035.83,-144.5 1029.83,-144.5 1023.83,-138.5 1023.83,-132.5 1023.83,-132.5 1023.83,-81.5 1023.83,-81.5 1023.83,-75.5 1029.83,-69.5 1035.83,-69.5 1035.83,-69.5 1163.83,-69.5 1163.83,-69.5 1169.83,-69.5 1175.83,-75.5 1175.83,-81.5 1175.83,-81.5 1175.83,-132.5 1175.83,-132.5 1175.83,-138.5 1169.83,-144.5 1163.83,-144.5"/>
<text text-anchor="middle" x="1099.83" y="-132.5" font-family="Helvetica,sans-Serif" font-size="10.00">OrderManagementSystem</text>
<text text-anchor="middle" x="1099.83" y="-109.5" font-family="Helvetica,sans-Serif" font-size="10.00">Central order registry</text>
<text text-anchor="middle" x="1099.83" y="-98.5" font-family="Helvetica,sans-Serif" font-size="10.00">Client order ID → internal ID</text>
<text text-anchor="middle" x="1099.83" y="-87.5" font-family="Helvetica,sans-Serif" font-size="10.00">Thread&#45;safe order map</text>
<text text-anchor="middle" x="1099.83" y="-76.5" font-family="Helvetica,sans-Serif" font-size="10.00">Query by status/symbol</text>
</g>
<!-- PAPER_GW&#45;&gt;OMS -->
<g id="edge16" class="edge">
<title>PAPER_GW&#45;&gt;OMS</title>
<path fill="none" stroke="#ed8936" stroke-width="2" d="M972.08,-189.41C991.88,-176.53 1013.13,-162.72 1032.46,-150.15"/>
<polygon fill="#ed8936" stroke="#ed8936" stroke-width="2" points="1034.42,-153.05 1040.9,-144.66 1030.61,-147.18 1034.42,-153.05"/>
</g>
<!-- TIF_LOGIC -->
<g id="node8" class="node">
<title>TIF_LOGIC</title>
<polygon fill="#bbf7d0" stroke="black" points="1403.33,-253.5 1227.33,-253.5 1227.33,-190.5 1409.33,-190.5 1409.33,-247.5 1403.33,-253.5"/>
<polyline fill="none" stroke="black" points="1403.33,-253.5 1403.33,-247.5 "/>
<polyline fill="none" stroke="black" points="1409.33,-247.5 1403.33,-247.5 "/>
<text text-anchor="middle" x="1318.33" y="-241.5" font-family="Helvetica,sans-Serif" font-size="10.00">Time&#45;In&#45;Force Rules:</text>
<text text-anchor="middle" x="1318.33" y="-230.5" font-family="Helvetica,sans-Serif" font-size="10.00">• Day → expire at session close</text>
<text text-anchor="middle" x="1318.33" y="-219.5" font-family="Helvetica,sans-Serif" font-size="10.00">• GTC → persist until cancel</text>
<text text-anchor="middle" x="1318.33" y="-208.5" font-family="Helvetica,sans-Serif" font-size="10.00">• IOC → fill or cancel immediately</text>
<text text-anchor="middle" x="1318.33" y="-197.5" font-family="Helvetica,sans-Serif" font-size="10.00">• FOK → fill all or cancel all</text>
</g>
<!-- FILL_LOGIC&#45;&gt;TIF_LOGIC -->
<g id="edge14" class="edge">
<title>FILL_LOGIC&#45;&gt;TIF_LOGIC</title>
<path fill="none" stroke="#4a5568" stroke-dasharray="5,2" d="M1190.45,-231.38C1199.24,-230.73 1208.2,-230.06 1217.09,-229.41"/>
<polygon fill="#4a5568" stroke="#4a5568" points="1217.37,-232.9 1227.08,-228.67 1216.85,-225.92 1217.37,-232.9"/>
</g>
<!-- ORDER_TYPES -->
<g id="node9" class="node">
<title>ORDER_TYPES</title>
<polygon fill="#bbf7d0" stroke="black" points="1377.33,-334.5 1253.33,-334.5 1253.33,-271.5 1383.33,-271.5 1383.33,-328.5 1377.33,-334.5"/>
<polyline fill="none" stroke="black" points="1377.33,-334.5 1377.33,-328.5 "/>
<polyline fill="none" stroke="black" points="1383.33,-328.5 1377.33,-328.5 "/>
<text text-anchor="middle" x="1318.33" y="-322.5" font-family="Helvetica,sans-Serif" font-size="10.00">Supported Order Types:</text>
<text text-anchor="middle" x="1318.33" y="-311.5" font-family="Helvetica,sans-Serif" font-size="10.00">• Market</text>
<text text-anchor="middle" x="1318.33" y="-300.5" font-family="Helvetica,sans-Serif" font-size="10.00">• Limit</text>
<text text-anchor="middle" x="1318.33" y="-289.5" font-family="Helvetica,sans-Serif" font-size="10.00">• StopMarket</text>
<text text-anchor="middle" x="1318.33" y="-278.5" font-family="Helvetica,sans-Serif" font-size="10.00">• StopLimit</text>
</g>
<!-- FILL_LOGIC&#45;&gt;ORDER_TYPES -->
<g id="edge15" class="edge">
<title>FILL_LOGIC&#45;&gt;ORDER_TYPES</title>
<path fill="none" stroke="#4a5568" stroke-dasharray="5,2" d="M1190.45,-264.91C1208.06,-270.19 1226.33,-275.68 1243.35,-280.79"/>
<polygon fill="#4a5568" stroke="#4a5568" points="1242.63,-284.23 1253.21,-283.75 1244.64,-277.52 1242.63,-284.23"/>
</g>
<!-- ORDER_MGR -->
<g id="node11" class="node">
<title>ORDER_MGR</title>
<path fill="#feebc8" stroke="black" d="M1389.33,-144.5C1389.33,-144.5 1247.33,-144.5 1247.33,-144.5 1241.33,-144.5 1235.33,-138.5 1235.33,-132.5 1235.33,-132.5 1235.33,-81.5 1235.33,-81.5 1235.33,-75.5 1241.33,-69.5 1247.33,-69.5 1247.33,-69.5 1389.33,-69.5 1389.33,-69.5 1395.33,-69.5 1401.33,-75.5 1401.33,-81.5 1401.33,-81.5 1401.33,-132.5 1401.33,-132.5 1401.33,-138.5 1395.33,-144.5 1389.33,-144.5"/>
<text text-anchor="middle" x="1318.33" y="-132.5" font-family="Helvetica,sans-Serif" font-size="10.00">OrderLifecycleManager</text>
<text text-anchor="middle" x="1318.33" y="-109.5" font-family="Helvetica,sans-Serif" font-size="10.00">State transition validation</text>
<text text-anchor="middle" x="1318.33" y="-98.5" font-family="Helvetica,sans-Serif" font-size="10.00">Timeout handling (Day orders)</text>
<text text-anchor="middle" x="1318.33" y="-87.5" font-family="Helvetica,sans-Serif" font-size="10.00">Fill notification dispatch</text>
<text text-anchor="middle" x="1318.33" y="-76.5" font-family="Helvetica,sans-Serif" font-size="10.00">Audit trail per order</text>
</g>
<!-- OMS&#45;&gt;ORDER_MGR -->
<g id="edge17" class="edge">
<title>OMS&#45;&gt;ORDER_MGR</title>
<path fill="none" stroke="#ed8936" d="M1175.95,-107C1191.83,-107 1208.76,-107 1225.18,-107"/>
<polygon fill="#ed8936" stroke="#ed8936" points="1225.33,-110.5 1235.33,-107 1225.33,-103.5 1225.33,-110.5"/>
</g>
<!-- O_PENDING -->
<g id="node12" class="node">
<title>O_PENDING</title>
<ellipse fill="#fecaca" stroke="black" cx="1616.28" cy="-113" rx="103.89" ry="37.45"/>
<text text-anchor="middle" x="1616.28" y="-127.5" font-family="Helvetica,sans-Serif" font-size="10.00">Pending</text>
<text text-anchor="middle" x="1616.28" y="-104.5" font-family="Helvetica,sans-Serif" font-size="10.00">Submitted, not yet</text>
<text text-anchor="middle" x="1616.28" y="-93.5" font-family="Helvetica,sans-Serif" font-size="10.00">acknowledged by gateway</text>
</g>
<!-- ORDER_MGR&#45;&gt;O_PENDING -->
<g id="edge18" class="edge">
<title>ORDER_MGR&#45;&gt;O_PENDING</title>
<path fill="none" stroke="#c53030" stroke-width="2" d="M1401.38,-108.66C1432.54,-109.3 1468.6,-110.03 1502.13,-110.71"/>
<polygon fill="#c53030" stroke="#c53030" stroke-width="2" points="1502.38,-114.21 1512.45,-110.92 1502.52,-107.21 1502.38,-114.21"/>
<text text-anchor="middle" x="1460.83" y="-112.8" font-family="Helvetica,sans-Serif" font-size="9.00">submit</text>
</g>
<!-- O_ACK -->
<g id="node13" class="node">
<title>O_ACK</title>
<ellipse fill="#fbd38d" stroke="black" cx="1925.73" cy="-214" rx="90.52" ry="37.45"/>
<text text-anchor="middle" x="1925.73" y="-228.5" font-family="Helvetica,sans-Serif" font-size="10.00">Acknowledged</text>
<text text-anchor="middle" x="1925.73" y="-205.5" font-family="Helvetica,sans-Serif" font-size="10.00">Gateway accepted</text>
<text text-anchor="middle" x="1925.73" y="-194.5" font-family="Helvetica,sans-Serif" font-size="10.00">Awaiting fill conditions</text>
</g>
<!-- O_PENDING&#45;&gt;O_ACK -->
<g id="edge1" class="edge">
<title>O_PENDING&#45;&gt;O_ACK</title>
<path fill="none" stroke="#38a169" d="M1693.67,-138.1C1739.58,-153.18 1797.93,-172.35 1844.51,-187.65"/>
<polygon fill="#38a169" stroke="#38a169" points="1843.67,-191.05 1854.26,-190.85 1845.85,-184.4 1843.67,-191.05"/>
<text text-anchor="middle" x="1777.72" y="-180.8" font-family="Helvetica,sans-Serif" font-size="9.00">gateway accept</text>
</g>
<!-- O_REJECTED -->
<g id="node17" class="node">
<title>O_REJECTED</title>
<ellipse fill="#fc8181" stroke="black" cx="1925.73" cy="-113" rx="77.15" ry="45.01"/>
<text text-anchor="middle" x="1925.73" y="-133" font-family="Helvetica,sans-Serif" font-size="10.00">Rejected</text>
<text text-anchor="middle" x="1925.73" y="-110" font-family="Helvetica,sans-Serif" font-size="10.00">Risk check failed</text>
<text text-anchor="middle" x="1925.73" y="-99" font-family="Helvetica,sans-Serif" font-size="10.00">Invalid parameters</text>
<text text-anchor="middle" x="1925.73" y="-88" font-family="Helvetica,sans-Serif" font-size="10.00">Insufficient capital</text>
</g>
<!-- O_PENDING&#45;&gt;O_REJECTED -->
<g id="edge2" class="edge">
<title>O_PENDING&#45;&gt;O_REJECTED</title>
<path fill="none" stroke="#c53030" d="M1720.51,-113C1758.78,-113 1801.75,-113 1838.36,-113"/>
<polygon fill="#c53030" stroke="#c53030" points="1838.51,-116.5 1848.51,-113 1838.51,-109.5 1838.51,-116.5"/>
<text text-anchor="middle" x="1777.72" y="-115.8" font-family="Helvetica,sans-Serif" font-size="9.00">risk/validation fail</text>
</g>
<!-- O_FILLED -->
<g id="node14" class="node">
<title>O_FILLED</title>
<ellipse fill="#9ae6b4" stroke="black" cx="2462.46" cy="-206" rx="73.58" ry="45.01"/>
<text text-anchor="middle" x="2462.46" y="-226" font-family="Helvetica,sans-Serif" font-size="10.00">Filled</text>
<text text-anchor="middle" x="2462.46" y="-203" font-family="Helvetica,sans-Serif" font-size="10.00">Full fill executed</text>
<text text-anchor="middle" x="2462.46" y="-192" font-family="Helvetica,sans-Serif" font-size="10.00">Fill record created</text>
<text text-anchor="middle" x="2462.46" y="-181" font-family="Helvetica,sans-Serif" font-size="10.00">Position updated</text>
</g>
<!-- O_ACK&#45;&gt;O_FILLED -->
<g id="edge3" class="edge">
<title>O_ACK&#45;&gt;O_FILLED</title>
<path fill="none" stroke="#38a169" d="M2016.48,-215C2084.96,-215.52 2181.62,-215.74 2266.36,-214 2303.22,-213.24 2343.98,-211.69 2378.67,-210.15"/>
<polygon fill="#38a169" stroke="#38a169" points="2378.92,-213.64 2388.75,-209.69 2378.6,-206.64 2378.92,-213.64"/>
<text text-anchor="middle" x="2180.8" y="-217.8" font-family="Helvetica,sans-Serif" font-size="9.00">fill at price</text>
</g>
<!-- O_PARTIAL -->
<g id="node15" class="node">
<title>O_PARTIAL</title>
<ellipse fill="#feebc8" stroke="black" cx="2180.8" cy="-160" rx="85.62" ry="45.01"/>
<text text-anchor="middle" x="2180.8" y="-180" font-family="Helvetica,sans-Serif" font-size="10.00">PartiallyFilled</text>
<text text-anchor="middle" x="2180.8" y="-157" font-family="Helvetica,sans-Serif" font-size="10.00">Partial fill executed</text>
<text text-anchor="middle" x="2180.8" y="-146" font-family="Helvetica,sans-Serif" font-size="10.00">(live trading only)</text>
<text text-anchor="middle" x="2180.8" y="-135" font-family="Helvetica,sans-Serif" font-size="10.00">Remaining qty active</text>
</g>
<!-- O_ACK&#45;&gt;O_PARTIAL -->
<g id="edge4" class="edge">
<title>O_ACK&#45;&gt;O_PARTIAL</title>
<path fill="none" stroke="#ed8936" stroke-dasharray="5,2" d="M2006.46,-196.99C2033.3,-191.26 2063.41,-184.84 2090.91,-178.97"/>
<polygon fill="#ed8936" stroke="#ed8936" points="2091.86,-182.34 2100.91,-176.83 2090.4,-175.5 2091.86,-182.34"/>
<text text-anchor="middle" x="2055.74" y="-192.8" font-family="Helvetica,sans-Serif" font-size="9.00">partial fill</text>
</g>
<!-- O_CANCELLED -->
<g id="node16" class="node">
<title>O_CANCELLED</title>
<ellipse fill="#e2e8f0" stroke="black" cx="2462.46" cy="-105" rx="89.19" ry="37.45"/>
<text text-anchor="middle" x="2462.46" y="-119.5" font-family="Helvetica,sans-Serif" font-size="10.00">Cancelled</text>
<text text-anchor="middle" x="2462.46" y="-96.5" font-family="Helvetica,sans-Serif" font-size="10.00">Explicit cancel</text>
<text text-anchor="middle" x="2462.46" y="-85.5" font-family="Helvetica,sans-Serif" font-size="10.00">or IOC/FOK/Day expiry</text>
</g>
<!-- O_ACK&#45;&gt;O_CANCELLED -->
<g id="edge6" class="edge">
<title>O_ACK&#45;&gt;O_CANCELLED</title>
<path fill="none" stroke="#718096" d="M1985.75,-185.69C1996.18,-179.94 2006.73,-173.62 2016.24,-167 2054.99,-140.04 2051.16,-112.9 2095.24,-96 2185.75,-61.31 2298.29,-71.11 2374.55,-84.73"/>
<polygon fill="#718096" stroke="#718096" points="2374.13,-88.21 2384.6,-86.58 2375.4,-81.33 2374.13,-88.21"/>
<text text-anchor="middle" x="2180.8" y="-98.8" font-family="Helvetica,sans-Serif" font-size="9.00">cancel / expiry</text>
</g>
<!-- POSITIONS -->
<g id="node18" class="node">
<title>POSITIONS</title>
<path fill="#9ae6b4" stroke="black" d="M2751.05,-371C2751.05,-371 2650.05,-371 2650.05,-371 2644.05,-371 2638.05,-365 2638.05,-359 2638.05,-359 2638.05,-297 2638.05,-297 2638.05,-291 2644.05,-285 2650.05,-285 2650.05,-285 2751.05,-285 2751.05,-285 2757.05,-285 2763.05,-291 2763.05,-297 2763.05,-297 2763.05,-359 2763.05,-359 2763.05,-365 2757.05,-371 2751.05,-371"/>
<text text-anchor="middle" x="2700.55" y="-359" font-family="Helvetica,sans-Serif" font-size="10.00">ExecutionPosition</text>
<text text-anchor="middle" x="2700.55" y="-336" font-family="Helvetica,sans-Serif" font-size="10.00">Symbol positions map</text>
<text text-anchor="middle" x="2700.55" y="-325" font-family="Helvetica,sans-Serif" font-size="10.00">Avg cost basis</text>
<text text-anchor="middle" x="2700.55" y="-314" font-family="Helvetica,sans-Serif" font-size="10.00">Realized P&amp;L</text>
<text text-anchor="middle" x="2700.55" y="-303" font-family="Helvetica,sans-Serif" font-size="10.00">Unrealized P&amp;L</text>
<text text-anchor="middle" x="2700.55" y="-292" font-family="Helvetica,sans-Serif" font-size="10.00">Total exposure</text>
</g>
<!-- O_FILLED&#45;&gt;POSITIONS -->
<g id="edge19" class="edge">
<title>O_FILLED&#45;&gt;POSITIONS</title>
<path fill="none" stroke="#38a169" stroke-width="2" d="M2519.41,-234.91C2552.08,-251.79 2593.62,-273.26 2628.58,-291.32"/>
<polygon fill="#38a169" stroke="#38a169" stroke-width="2" points="2627.29,-294.6 2637.78,-296.08 2630.5,-288.38 2627.29,-294.6"/>
<text text-anchor="middle" x="2586.05" y="-276.8" font-family="Helvetica,sans-Serif" font-size="9.00">update</text>
</g>
<!-- FILLS -->
<g id="node20" class="node">
<title>FILLS</title>
<path fill="#68d391" stroke="black" d="M2775.05,-256.48C2775.05,-262.42 2741.66,-267.25 2700.55,-267.25 2659.44,-267.25 2626.05,-262.42 2626.05,-256.48 2626.05,-256.48 2626.05,-159.52 2626.05,-159.52 2626.05,-153.58 2659.44,-148.75 2700.55,-148.75 2741.66,-148.75 2775.05,-153.58 2775.05,-159.52 2775.05,-159.52 2775.05,-256.48 2775.05,-256.48"/>
<path fill="none" stroke="black" d="M2775.05,-256.48C2775.05,-250.53 2741.66,-245.7 2700.55,-245.7 2659.44,-245.7 2626.05,-250.53 2626.05,-256.48"/>
<text text-anchor="middle" x="2700.55" y="-239" font-family="Helvetica,sans-Serif" font-size="10.00">Fill Journal</text>
<text text-anchor="middle" x="2700.55" y="-216" font-family="Helvetica,sans-Serif" font-size="10.00">Fill records (price/qty/time)</text>
<text text-anchor="middle" x="2700.55" y="-205" font-family="Helvetica,sans-Serif" font-size="10.00">Commission per fill</text>
<text text-anchor="middle" x="2700.55" y="-194" font-family="Helvetica,sans-Serif" font-size="10.00">Slippage tracking</text>
<text text-anchor="middle" x="2700.55" y="-183" font-family="Helvetica,sans-Serif" font-size="10.00">Cumulative P&amp;L</text>
<text text-anchor="middle" x="2700.55" y="-172" font-family="Helvetica,sans-Serif" font-size="10.00">Audit trail</text>
</g>
<!-- O_FILLED&#45;&gt;FILLS -->
<g id="edge20" class="edge">
<title>O_FILLED&#45;&gt;FILLS</title>
<path fill="none" stroke="#38a169" d="M2536.22,-206.62C2561.34,-206.83 2589.68,-207.07 2615.62,-207.29"/>
<polygon fill="#38a169" stroke="#38a169" points="2615.78,-210.79 2625.81,-207.38 2615.84,-203.79 2615.78,-210.79"/>
</g>
<!-- COMPLETE_Q -->
<g id="node21" class="node">
<title>COMPLETE_Q</title>
<path fill="#ddd6fe" stroke="black" d="M2768.55,-103.5C2768.55,-103.5 2632.55,-103.5 2632.55,-103.5 2626.55,-103.5 2620.55,-97.5 2620.55,-91.5 2620.55,-91.5 2620.55,-40.5 2620.55,-40.5 2620.55,-34.5 2626.55,-28.5 2632.55,-28.5 2632.55,-28.5 2768.55,-28.5 2768.55,-28.5 2774.55,-28.5 2780.55,-34.5 2780.55,-40.5 2780.55,-40.5 2780.55,-91.5 2780.55,-91.5 2780.55,-97.5 2774.55,-103.5 2768.55,-103.5"/>
<text text-anchor="middle" x="2700.55" y="-91.5" font-family="Helvetica,sans-Serif" font-size="10.00">CompletionQueue</text>
<text text-anchor="middle" x="2700.55" y="-80.5" font-family="Helvetica,sans-Serif" font-size="10.00">[EventPipelinePolicy]</text>
<text text-anchor="middle" x="2700.55" y="-57.5" font-family="Helvetica,sans-Serif" font-size="10.00">Terminal status events</text>
<text text-anchor="middle" x="2700.55" y="-46.5" font-family="Helvetica,sans-Serif" font-size="10.00">(Filled / Rejected / Cancelled)</text>
<text text-anchor="middle" x="2700.55" y="-35.5" font-family="Helvetica,sans-Serif" font-size="10.00">Async notification to strategy</text>
</g>
<!-- O_FILLED&#45;&gt;COMPLETE_Q -->
<g id="edge22" class="edge">
<title>O_FILLED&#45;&gt;COMPLETE_Q</title>
<path fill="none" stroke="#805ad5" stroke-width="2" d="M2517.22,-175.55C2531.06,-167.63 2545.89,-159.05 2559.55,-151 2582.47,-137.49 2607.34,-122.49 2629.68,-108.91"/>
<polygon fill="#805ad5" stroke="#805ad5" stroke-width="2" points="2631.7,-111.77 2638.43,-103.58 2628.06,-105.79 2631.7,-111.77"/>
</g>
<!-- O_PARTIAL&#45;&gt;O_FILLED -->
<g id="edge5" class="edge">
<title>O_PARTIAL&#45;&gt;O_FILLED</title>
<path fill="none" stroke="#38a169" stroke-dasharray="5,2" d="M2262.69,-173.31C2299.85,-179.42 2343.8,-186.65 2380.92,-192.75"/>
<polygon fill="#38a169" stroke="#38a169" points="2380.76,-196.27 2391.19,-194.44 2381.89,-189.37 2380.76,-196.27"/>
<text text-anchor="middle" x="2319.86" y="-190.8" font-family="Helvetica,sans-Serif" font-size="9.00">remaining filled</text>
</g>
<!-- O_PARTIAL&#45;&gt;O_CANCELLED -->
<g id="edge7" class="edge">
<title>O_PARTIAL&#45;&gt;O_CANCELLED</title>
<path fill="none" stroke="#718096" stroke-dasharray="5,2" d="M2261.19,-144.39C2295.58,-137.62 2336.02,-129.67 2371.51,-122.69"/>
<polygon fill="#718096" stroke="#718096" points="2372.25,-126.11 2381.38,-120.75 2370.9,-119.24 2372.25,-126.11"/>
<text text-anchor="middle" x="2319.86" y="-141.8" font-family="Helvetica,sans-Serif" font-size="9.00">cancel / FOK</text>
</g>
<!-- O_CANCELLED&#45;&gt;COMPLETE_Q -->
<g id="edge24" class="edge">
<title>O_CANCELLED&#45;&gt;COMPLETE_Q</title>
<path fill="none" stroke="#805ad5" d="M2545.7,-91.41C2566.61,-87.96 2589.17,-84.23 2610.41,-80.73"/>
<polygon fill="#805ad5" stroke="#805ad5" points="2611.09,-84.16 2620.39,-79.08 2609.95,-77.25 2611.09,-84.16"/>
</g>
<!-- O_REJECTED&#45;&gt;COMPLETE_Q -->
<g id="edge23" class="edge">
<title>O_REJECTED&#45;&gt;COMPLETE_Q</title>
<path fill="none" stroke="#805ad5" d="M1993.64,-91.36C2024.27,-82.44 2061.24,-73.02 2095.24,-68 2276.52,-41.22 2491.74,-50.05 2610.2,-58.37"/>
<polygon fill="#805ad5" stroke="#805ad5" points="2610.08,-61.87 2620.31,-59.09 2610.58,-54.89 2610.08,-61.87"/>
</g>
<!-- RISK -->
<g id="node19" class="node">
<title>RISK</title>
<path fill="#9ae6b4" stroke="black" d="M2950.05,-371C2950.05,-371 2837.05,-371 2837.05,-371 2831.05,-371 2825.05,-365 2825.05,-359 2825.05,-359 2825.05,-297 2825.05,-297 2825.05,-291 2831.05,-285 2837.05,-285 2837.05,-285 2950.05,-285 2950.05,-285 2956.05,-285 2962.05,-291 2962.05,-297 2962.05,-297 2962.05,-359 2962.05,-359 2962.05,-365 2956.05,-371 2950.05,-371"/>
<text text-anchor="middle" x="2893.55" y="-359" font-family="Helvetica,sans-Serif" font-size="10.00">Risk Controls</text>
<text text-anchor="middle" x="2893.55" y="-336" font-family="Helvetica,sans-Serif" font-size="10.00">Max position size</text>
<text text-anchor="middle" x="2893.55" y="-325" font-family="Helvetica,sans-Serif" font-size="10.00">Max single order size</text>
<text text-anchor="middle" x="2893.55" y="-314" font-family="Helvetica,sans-Serif" font-size="10.00">Max portfolio exposure</text>
<text text-anchor="middle" x="2893.55" y="-303" font-family="Helvetica,sans-Serif" font-size="10.00">Pre&#45;trade risk check</text>
<text text-anchor="middle" x="2893.55" y="-292" font-family="Helvetica,sans-Serif" font-size="10.00">Pattern&#45;day&#45;trader guard</text>
</g>
<!-- POSITIONS&#45;&gt;RISK -->
<g id="edge21" class="edge">
<title>POSITIONS&#45;&gt;RISK</title>
<path fill="none" stroke="#4a5568" stroke-dasharray="5,2" d="M2763.3,-328C2779.55,-328 2797.29,-328 2814.28,-328"/>
<polygon fill="#4a5568" stroke="#4a5568" points="2814.74,-331.5 2824.74,-328 2814.74,-324.5 2814.74,-331.5"/>
</g>
<!-- STATUS_UPDATE -->
<g id="node22" class="node">
<title>STATUS_UPDATE</title>
<polygon fill="#c4b5fd" stroke="black" points="2963.55,-103 2817.55,-103 2817.55,-29 2969.55,-29 2969.55,-97 2963.55,-103"/>
<polyline fill="none" stroke="black" points="2963.55,-103 2963.55,-97 "/>
<polyline fill="none" stroke="black" points="2969.55,-97 2963.55,-97 "/>
<text text-anchor="middle" x="2893.55" y="-91" font-family="Helvetica,sans-Serif" font-size="10.00">OrderStatusUpdate:</text>
<text text-anchor="middle" x="2893.55" y="-80" font-family="Helvetica,sans-Serif" font-size="10.00">• OrderId</text>
<text text-anchor="middle" x="2893.55" y="-69" font-family="Helvetica,sans-Serif" font-size="10.00">• Status</text>
<text text-anchor="middle" x="2893.55" y="-58" font-family="Helvetica,sans-Serif" font-size="10.00">• Fill (if filled)</text>
<text text-anchor="middle" x="2893.55" y="-47" font-family="Helvetica,sans-Serif" font-size="10.00">• RejectReason (if rejected)</text>
<text text-anchor="middle" x="2893.55" y="-36" font-family="Helvetica,sans-Serif" font-size="10.00">• Timestamp</text>
</g>
<!-- COMPLETE_Q&#45;&gt;STATUS_UPDATE -->
<g id="edge25" class="edge">
<title>COMPLETE_Q&#45;&gt;STATUS_UPDATE</title>
<path fill="none" stroke="#4a5568" stroke-dasharray="5,2" d="M2780.62,-66C2789.49,-66 2798.56,-66 2807.5,-66"/>
<polygon fill="#4a5568" stroke="#4a5568" points="2807.53,-69.5 2817.53,-66 2807.53,-62.5 2807.53,-69.5"/>
</g>
<!-- STATUS_UPDATE&#45;&gt;STRATEGY -->
<g id="edge26" class="edge">
<title>STATUS_UPDATE&#45;&gt;STRATEGY</title>
<path fill="none" stroke="#805ad5" stroke-dasharray="5,2" d="M2821.53,-28.95C2786.39,-13.9 2742.78,0 2701.55,0 331,0 331,0 331,0 278.26,0 221.64,-18.88 179.4,-37.03"/>
<polygon fill="#805ad5" stroke="#805ad5" points="177.81,-33.9 170.06,-41.12 180.63,-40.31 177.81,-33.9"/>
<text text-anchor="middle" x="1460.83" y="-2.8" font-family="Helvetica,sans-Serif" font-size="9.00">async callback</text>
</g>
<!-- LEG -->
<g id="node23" class="node">
<title>LEG</title>
<path fill="lightgrey" stroke="transparent" d="M197,-328C197,-328 28,-328 28,-328 22,-328 16,-322 16,-316 16,-316 16,-288 16,-288 16,-282 22,-276 28,-276 28,-276 197,-276 197,-276 203,-276 209,-282 209,-288 209,-288 209,-316 209,-316 209,-322 203,-328 197,-328"/>
<text text-anchor="middle" x="112.5" y="-316" font-family="Helvetica,sans-Serif" font-size="10.00">━━ Primary flow</text>
<text text-anchor="middle" x="112.5" y="-305" font-family="Helvetica,sans-Serif" font-size="10.00">─ ─ Reference / Async</text>
<text text-anchor="middle" x="112.5" y="-294" font-family="Helvetica,sans-Serif" font-size="10.00">Oval = Order state</text>
<text text-anchor="middle" x="112.5" y="-283" font-family="Helvetica,sans-Serif" font-size="10.00">All fills are simulated in Paper mode</text>
</g>
</g>
</svg>
