<?xml version="1.0" encoding="UTF-8" standalone="no"?>
<!DOCTYPE svg PUBLIC "-//W3C//DTD SVG 1.1//EN"
 "http://www.w3.org/Graphics/SVG/1.1/DTD/svg11.dtd">
<!-- Generated by graphviz version 2.43.0 (0)
 -->
<!-- Title: FSharpDomain Pages: 1 -->
<svg width="2342pt" height="1453pt"
 viewBox="0.00 0.00 2342.00 1453.00" xmlns="http://www.w3.org/2000/svg" xmlns:xlink="http://www.w3.org/1999/xlink">
<g id="graph0" class="graph" transform="scale(1 1) rotate(0) translate(36 1417)">
<title>FSharpDomain</title>
<polygon fill="white" stroke="transparent" points="-36,36 -36,-1417 2306,-1417 2306,36 -36,36"/>
<text text-anchor="middle" x="1135" y="-1367.4" font-family="Helvetica,sans-Serif" font-size="12.00">Meridian &#45; F# Domain Library</text>
<text text-anchor="middle" x="1135" y="-1354.4" font-family="Helvetica,sans-Serif" font-size="12.00">Railway&#45;Oriented Validation &amp; Type&#45;Safe Calculations | v1.7.x</text>
<g id="clust1" class="cluster">
<title>cluster_csharp_input</title>
<path fill="#dbeafe" stroke="#2b6cb0" d="M1821,-1127C1821,-1127 1984,-1127 1984,-1127 1990,-1127 1996,-1133 1996,-1139 1996,-1139 1996,-1327 1996,-1327 1996,-1333 1990,-1339 1984,-1339 1984,-1339 1821,-1339 1821,-1339 1815,-1339 1809,-1333 1809,-1327 1809,-1327 1809,-1139 1809,-1139 1809,-1133 1815,-1127 1821,-1127"/>
<text text-anchor="middle" x="1902.5" y="-1325.4" font-family="Helvetica,sans-Serif" font-size="12.00">C# Layer (Meridian.Domain)</text>
</g>
<g id="clust2" class="cluster">
<title>cluster_validation</title>
<path fill="#e6fffa" stroke="#2c7a7b" d="M1499,-465C1499,-465 2095,-465 2095,-465 2101,-465 2107,-471 2107,-477 2107,-477 2107,-1087 2107,-1087 2107,-1093 2101,-1099 2095,-1099 2095,-1099 1499,-1099 1499,-1099 1493,-1099 1487,-1093 1487,-1087 1487,-1087 1487,-477 1487,-477 1487,-471 1493,-465 1499,-465"/>
<text text-anchor="middle" x="1797" y="-1085.4" font-family="Helvetica,sans-Serif" font-size="12.00">F# Validation Pipeline (Meridian.FSharp / railway&#45;oriented)</text>
</g>
<g id="clust3" class="cluster">
<title>cluster_result_type</title>
<polygon fill="#e6fffa" stroke="#047857" stroke-dasharray="5,2" points="1698,-473 1698,-764 1978,-764 1978,-473 1698,-473"/>
<text text-anchor="middle" x="1838" y="-750.4" font-family="Helvetica,sans-Serif" font-size="12.00">Validation Result Type</text>
</g>
<g id="clust4" class="cluster">
<title>cluster_validators</title>
<polygon fill="#e6fffa" stroke="#047857" stroke-dasharray="5,2" points="1495,-936 1495,-1070 2099,-1070 2099,-936 1495,-936"/>
<text text-anchor="middle" x="1797" y="-1056.4" font-family="Helvetica,sans-Serif" font-size="12.00">Built&#45;In Validators</text>
</g>
<g id="clust5" class="cluster">
<title>cluster_composition</title>
<polygon fill="#e6fffa" stroke="#047857" stroke-dasharray="5,2" points="1518,-635 1518,-917 1690,-917 1690,-635 1518,-635"/>
<text text-anchor="middle" x="1604" y="-903.4" font-family="Helvetica,sans-Serif" font-size="12.00">Railway Composition</text>
</g>
<g id="clust6" class="cluster">
<title>cluster_calcs</title>
<path fill="#faf5ff" stroke="#805ad5" d="M342,-305C342,-305 1267,-305 1267,-305 1273,-305 1279,-311 1279,-317 1279,-317 1279,-572.5 1279,-572.5 1279,-578.5 1273,-584.5 1267,-584.5 1267,-584.5 342,-584.5 342,-584.5 336,-584.5 330,-578.5 330,-572.5 330,-572.5 330,-317 330,-317 330,-311 336,-305 342,-305"/>
<text text-anchor="middle" x="804.5" y="-570.9" font-family="Helvetica,sans-Serif" font-size="12.00">F# Type&#45;Safe Calculations (Meridian.FSharp)</text>
</g>
<g id="clust7" class="cluster">
<title>cluster_calc_funcs</title>
<polygon fill="#faf5ff" stroke="#6b21a8" stroke-dasharray="5,2" points="338,-313 338,-437 1271,-437 1271,-313 338,-313"/>
<text text-anchor="middle" x="804.5" y="-423.4" font-family="Helvetica,sans-Serif" font-size="12.00">Calculation Functions</text>
</g>
<g id="clust8" class="cluster">
<title>cluster_trading</title>
<path fill="#fffaf0" stroke="#ed8936" d="M20,-159.5C20,-159.5 310,-159.5 310,-159.5 316,-159.5 322,-165.5 322,-171.5 322,-171.5 322,-424.5 322,-424.5 322,-430.5 316,-436.5 310,-436.5 310,-436.5 20,-436.5 20,-436.5 14,-436.5 8,-430.5 8,-424.5 8,-424.5 8,-171.5 8,-171.5 8,-165.5 14,-159.5 20,-159.5"/>
<text text-anchor="middle" x="165" y="-422.9" font-family="Helvetica,sans-Serif" font-size="12.00">F# Trading Calculations (Meridian.FSharp.Trading)</text>
</g>
<g id="clust9" class="cluster">
<title>cluster_ledger</title>
<path fill="#c6f6d5" stroke="#38a169" d="M342,-8C342,-8 553,-8 553,-8 559,-8 565,-14 565,-20 565,-20 565,-276 565,-276 565,-282 559,-288 553,-288 553,-288 342,-288 342,-288 336,-288 330,-282 330,-276 330,-276 330,-20 330,-20 330,-14 336,-8 342,-8"/>
<text text-anchor="middle" x="447.5" y="-274.4" font-family="Helvetica,sans-Serif" font-size="12.00">F# Ledger (Meridian.FSharp.Ledger)</text>
</g>
<g id="clust10" class="cluster">
<title>cluster_interop</title>
<path fill="#e2e8f0" stroke="#718096" d="M1299,-313.5C1299,-313.5 1467,-313.5 1467,-313.5 1473,-313.5 1479,-319.5 1479,-325.5 1479,-325.5 1479,-578 1479,-578 1479,-584 1473,-590 1467,-590 1467,-590 1299,-590 1299,-590 1293,-590 1287,-584 1287,-578 1287,-578 1287,-325.5 1287,-325.5 1287,-319.5 1293,-313.5 1299,-313.5"/>
<text text-anchor="middle" x="1383" y="-576.4" font-family="Helvetica,sans-Serif" font-size="12.00">C# Interop Layer (Interop.fs)</text>
</g>
<g id="clust11" class="cluster">
<title>cluster_legend</title>
<path fill="#fafafa" stroke="#666666" d="M2016,-1227.5C2016,-1227.5 2250,-1227.5 2250,-1227.5 2256,-1227.5 2262,-1233.5 2262,-1239.5 2262,-1239.5 2262,-1315.5 2262,-1315.5 2262,-1321.5 2256,-1327.5 2250,-1327.5 2250,-1327.5 2016,-1327.5 2016,-1327.5 2010,-1327.5 2004,-1321.5 2004,-1315.5 2004,-1315.5 2004,-1239.5 2004,-1239.5 2004,-1233.5 2010,-1227.5 2016,-1227.5"/>
<text text-anchor="middle" x="2133" y="-1313.9" font-family="Helvetica,sans-Serif" font-size="12.00">Legend</text>
</g>
<!-- COLLECTORS -->
<g id="node1" class="node">
<title>COLLECTORS</title>
<path fill="#bfdbfe" stroke="black" d="M1952.5,-1310C1952.5,-1310 1853.5,-1310 1853.5,-1310 1847.5,-1310 1841.5,-1304 1841.5,-1298 1841.5,-1298 1841.5,-1236 1841.5,-1236 1841.5,-1230 1847.5,-1224 1853.5,-1224 1853.5,-1224 1952.5,-1224 1952.5,-1224 1958.5,-1224 1964.5,-1230 1964.5,-1236 1964.5,-1236 1964.5,-1298 1964.5,-1298 1964.5,-1304 1958.5,-1310 1952.5,-1310"/>
<text text-anchor="middle" x="1903" y="-1298" font-family="Helvetica,sans-Serif" font-size="10.00">Domain Collectors</text>
<text text-anchor="middle" x="1903" y="-1287" font-family="Helvetica,sans-Serif" font-size="10.00">[C#]</text>
<text text-anchor="middle" x="1903" y="-1264" font-family="Helvetica,sans-Serif" font-size="10.00">TradeDataCollector</text>
<text text-anchor="middle" x="1903" y="-1253" font-family="Helvetica,sans-Serif" font-size="10.00">QuoteCollector</text>
<text text-anchor="middle" x="1903" y="-1242" font-family="Helvetica,sans-Serif" font-size="10.00">MarketDepthCollector</text>
<text text-anchor="middle" x="1903" y="-1231" font-family="Helvetica,sans-Serif" font-size="10.00">L3OrderBookCollector</text>
</g>
<!-- RAW_EVENTS -->
<g id="node2" class="node">
<title>RAW_EVENTS</title>
<polygon fill="#dbeafe" stroke="black" points="1941,-1187 1831,-1187 1831,-1135 1947,-1135 1947,-1181 1941,-1187"/>
<polyline fill="none" stroke="black" points="1941,-1187 1941,-1181 "/>
<polyline fill="none" stroke="black" points="1947,-1181 1941,-1181 "/>
<text text-anchor="middle" x="1889" y="-1175" font-family="Helvetica,sans-Serif" font-size="10.00">Raw domain events:</text>
<text text-anchor="middle" x="1889" y="-1164" font-family="Helvetica,sans-Serif" font-size="10.00">MarketTradeUpdate</text>
<text text-anchor="middle" x="1889" y="-1153" font-family="Helvetica,sans-Serif" font-size="10.00">MarketQuoteUpdate</text>
<text text-anchor="middle" x="1889" y="-1142" font-family="Helvetica,sans-Serif" font-size="10.00">MarketDepthUpdate</text>
</g>
<!-- COLLECTORS&#45;&gt;RAW_EVENTS -->
<g id="edge1" class="edge">
<title>COLLECTORS&#45;&gt;RAW_EVENTS</title>
<path fill="none" stroke="#2b6cb0" d="M1897.35,-1224C1896.15,-1215.1 1894.9,-1205.8 1893.74,-1197.18"/>
<polygon fill="#2b6cb0" stroke="#2b6cb0" points="1897.18,-1196.54 1892.38,-1187.09 1890.24,-1197.47 1897.18,-1196.54"/>
</g>
<!-- TRADE_VAL -->
<g id="node5" class="node">
<title>TRADE_VAL</title>
<path fill="#a7f3d0" stroke="black" d="M1887,-1041C1887,-1041 1735,-1041 1735,-1041 1729,-1041 1723,-1035 1723,-1029 1723,-1029 1723,-956 1723,-956 1723,-950 1729,-944 1735,-944 1735,-944 1887,-944 1887,-944 1893,-944 1899,-950 1899,-956 1899,-956 1899,-1029 1899,-1029 1899,-1035 1893,-1041 1887,-1041"/>
<text text-anchor="middle" x="1811" y="-1029" font-family="Helvetica,sans-Serif" font-size="10.00">TradeValidator</text>
<text text-anchor="middle" x="1811" y="-1006" font-family="Helvetica,sans-Serif" font-size="10.00">validatePrice: price &gt; 0M</text>
<text text-anchor="middle" x="1811" y="-995" font-family="Helvetica,sans-Serif" font-size="10.00">validateSize: size &gt; 0M</text>
<text text-anchor="middle" x="1811" y="-984" font-family="Helvetica,sans-Serif" font-size="10.00">validateTimestamp: not default</text>
<text text-anchor="middle" x="1811" y="-973" font-family="Helvetica,sans-Serif" font-size="10.00">validateSymbol: not null/empty</text>
<text text-anchor="middle" x="1811" y="-962" font-family="Helvetica,sans-Serif" font-size="10.00">validateSequence: monotone inc</text>
<text text-anchor="middle" x="1811" y="-951" font-family="Helvetica,sans-Serif" font-size="10.00">validateSide: valid enum value</text>
</g>
<!-- RAW_EVENTS&#45;&gt;TRADE_VAL -->
<g id="edge2" class="edge">
<title>RAW_EVENTS&#45;&gt;TRADE_VAL</title>
<path fill="none" stroke="#2c7a7b" stroke-width="2" d="M1877.15,-1134.71C1866.69,-1112.38 1851.06,-1079.01 1837.62,-1050.32"/>
<polygon fill="#2c7a7b" stroke="#2c7a7b" stroke-width="2" points="1840.75,-1048.76 1833.34,-1041.18 1834.41,-1051.72 1840.75,-1048.76"/>
<text text-anchor="middle" x="1886" y="-1109.8" font-family="Helvetica,sans-Serif" font-size="9.00">validate</text>
</g>
<!-- QUOTE_VAL -->
<g id="node6" class="node">
<title>QUOTE_VAL</title>
<path fill="#a7f3d0" stroke="black" d="M2078.5,-1035.5C2078.5,-1035.5 1929.5,-1035.5 1929.5,-1035.5 1923.5,-1035.5 1917.5,-1029.5 1917.5,-1023.5 1917.5,-1023.5 1917.5,-961.5 1917.5,-961.5 1917.5,-955.5 1923.5,-949.5 1929.5,-949.5 1929.5,-949.5 2078.5,-949.5 2078.5,-949.5 2084.5,-949.5 2090.5,-955.5 2090.5,-961.5 2090.5,-961.5 2090.5,-1023.5 2090.5,-1023.5 2090.5,-1029.5 2084.5,-1035.5 2078.5,-1035.5"/>
<text text-anchor="middle" x="2004" y="-1023.5" font-family="Helvetica,sans-Serif" font-size="10.00">QuoteValidator</text>
<text text-anchor="middle" x="2004" y="-1000.5" font-family="Helvetica,sans-Serif" font-size="10.00">validateBidPrice: bid &gt; 0</text>
<text text-anchor="middle" x="2004" y="-989.5" font-family="Helvetica,sans-Serif" font-size="10.00">validateAskPrice: ask &gt; bid</text>
<text text-anchor="middle" x="2004" y="-978.5" font-family="Helvetica,sans-Serif" font-size="10.00">validateSpread: spread ≥ 0</text>
<text text-anchor="middle" x="2004" y="-967.5" font-family="Helvetica,sans-Serif" font-size="10.00">validateSizes: bid/ask size &gt; 0</text>
<text text-anchor="middle" x="2004" y="-956.5" font-family="Helvetica,sans-Serif" font-size="10.00">validateCrossedBook: ask &gt; bid</text>
</g>
<!-- RAW_EVENTS&#45;&gt;QUOTE_VAL -->
<g id="edge3" class="edge">
<title>RAW_EVENTS&#45;&gt;QUOTE_VAL</title>
<path fill="none" stroke="#2c7a7b" stroke-width="2" d="M1906.47,-1134.71C1923.06,-1110.68 1948.5,-1073.86 1969.23,-1043.84"/>
<polygon fill="#2c7a7b" stroke="#2c7a7b" stroke-width="2" points="1972.14,-1045.78 1974.94,-1035.57 1966.38,-1041.81 1972.14,-1045.78"/>
</g>
<!-- DEPTH_VAL -->
<g id="node7" class="node">
<title>DEPTH_VAL</title>
<path fill="#a7f3d0" stroke="black" d="M1693.5,-1035.5C1693.5,-1035.5 1514.5,-1035.5 1514.5,-1035.5 1508.5,-1035.5 1502.5,-1029.5 1502.5,-1023.5 1502.5,-1023.5 1502.5,-961.5 1502.5,-961.5 1502.5,-955.5 1508.5,-949.5 1514.5,-949.5 1514.5,-949.5 1693.5,-949.5 1693.5,-949.5 1699.5,-949.5 1705.5,-955.5 1705.5,-961.5 1705.5,-961.5 1705.5,-1023.5 1705.5,-1023.5 1705.5,-1029.5 1699.5,-1035.5 1693.5,-1035.5"/>
<text text-anchor="middle" x="1604" y="-1023.5" font-family="Helvetica,sans-Serif" font-size="10.00">DepthValidator</text>
<text text-anchor="middle" x="1604" y="-1000.5" font-family="Helvetica,sans-Serif" font-size="10.00">validateLevels: bids/asks not empty</text>
<text text-anchor="middle" x="1604" y="-989.5" font-family="Helvetica,sans-Serif" font-size="10.00">validateBidAskCross: no crossed book</text>
<text text-anchor="middle" x="1604" y="-978.5" font-family="Helvetica,sans-Serif" font-size="10.00">validateMonotone: price ordering</text>
<text text-anchor="middle" x="1604" y="-967.5" font-family="Helvetica,sans-Serif" font-size="10.00">validateSequence: monotone inc</text>
<text text-anchor="middle" x="1604" y="-956.5" font-family="Helvetica,sans-Serif" font-size="10.00">validateDepthCount: count ≥ 0</text>
</g>
<!-- RAW_EVENTS&#45;&gt;DEPTH_VAL -->
<g id="edge4" class="edge">
<title>RAW_EVENTS&#45;&gt;DEPTH_VAL</title>
<path fill="none" stroke="#2c7a7b" stroke-width="2" d="M1830.68,-1146.44C1795.26,-1136.6 1750.07,-1121.11 1714,-1099 1689.4,-1083.92 1665.79,-1062.54 1646.8,-1042.96"/>
<polygon fill="#2c7a7b" stroke="#2c7a7b" stroke-width="2" points="1649.18,-1040.39 1639.75,-1035.56 1644.12,-1045.22 1649.18,-1040.39"/>
</g>
<!-- RESULT -->
<g id="node3" class="node">
<title>RESULT</title>
<path fill="#81e6d9" stroke="black" d="M1957.5,-735C1957.5,-735 1718.5,-735 1718.5,-735 1712.5,-735 1706.5,-729 1706.5,-723 1706.5,-723 1706.5,-638 1706.5,-638 1706.5,-632 1712.5,-626 1718.5,-626 1718.5,-626 1957.5,-626 1957.5,-626 1963.5,-626 1969.5,-632 1969.5,-638 1969.5,-638 1969.5,-723 1969.5,-723 1969.5,-729 1963.5,-735 1957.5,-735"/>
<text text-anchor="middle" x="1838" y="-723" font-family="Helvetica,sans-Serif" font-size="10.00">ValidationResult&lt;&#39;T&gt;</text>
<text text-anchor="middle" x="1838" y="-712" font-family="Helvetica,sans-Serif" font-size="10.00">[Discriminated Union]</text>
<text text-anchor="middle" x="1838" y="-689" font-family="Helvetica,sans-Serif" font-size="10.00">| Ok of &#39;T</text>
<text text-anchor="middle" x="1838" y="-678" font-family="Helvetica,sans-Serif" font-size="10.00">| Error of ValidationError list</text>
<text text-anchor="middle" x="1838" y="-655" font-family="Helvetica,sans-Serif" font-size="10.00">Railway&#45;oriented composition:</text>
<text text-anchor="middle" x="1838" y="-644" font-family="Helvetica,sans-Serif" font-size="10.00">bind: (T → Result&lt;U&gt;) → Result&lt;T&gt; → Result&lt;U&gt;</text>
<text text-anchor="middle" x="1838" y="-633" font-family="Helvetica,sans-Serif" font-size="10.00">map: (T → U) → Result&lt;T&gt; → Result&lt;U&gt;</text>
</g>
<!-- VAL_ERROR -->
<g id="node4" class="node">
<title>VAL_ERROR</title>
<polygon fill="#b2f5ea" stroke="black" points="1911.5,-544 1758.5,-544 1758.5,-481 1917.5,-481 1917.5,-538 1911.5,-544"/>
<polyline fill="none" stroke="black" points="1911.5,-544 1911.5,-538 "/>
<polyline fill="none" stroke="black" points="1917.5,-538 1911.5,-538 "/>
<text text-anchor="middle" x="1838" y="-532" font-family="Helvetica,sans-Serif" font-size="10.00">ValidationError:</text>
<text text-anchor="middle" x="1838" y="-521" font-family="Helvetica,sans-Serif" font-size="10.00">• Code: string</text>
<text text-anchor="middle" x="1838" y="-510" font-family="Helvetica,sans-Serif" font-size="10.00">• Message: string</text>
<text text-anchor="middle" x="1838" y="-499" font-family="Helvetica,sans-Serif" font-size="10.00">• Field: string option</text>
<text text-anchor="middle" x="1838" y="-488" font-family="Helvetica,sans-Serif" font-size="10.00">• Severity: Info|Warning|Error</text>
</g>
<!-- RESULT&#45;&gt;VAL_ERROR -->
<g id="edge10" class="edge">
<title>RESULT&#45;&gt;VAL_ERROR</title>
<path fill="none" stroke="#4a5568" stroke-dasharray="5,2" d="M1838,-625.6C1838,-602.5 1838,-575.95 1838,-554.49"/>
<polygon fill="#4a5568" stroke="#4a5568" points="1841.5,-554.4 1838,-544.4 1834.5,-554.4 1841.5,-554.4"/>
</g>
<!-- MARKET_CALCS -->
<g id="node10" class="node">
<title>MARKET_CALCS</title>
<path fill="#ddd6fe" stroke="black" d="M879.5,-555.5C879.5,-555.5 760.5,-555.5 760.5,-555.5 754.5,-555.5 748.5,-549.5 748.5,-543.5 748.5,-543.5 748.5,-481.5 748.5,-481.5 748.5,-475.5 754.5,-469.5 760.5,-469.5 760.5,-469.5 879.5,-469.5 879.5,-469.5 885.5,-469.5 891.5,-475.5 891.5,-481.5 891.5,-481.5 891.5,-543.5 891.5,-543.5 891.5,-549.5 885.5,-555.5 879.5,-555.5"/>
<text text-anchor="middle" x="820" y="-543.5" font-family="Helvetica,sans-Serif" font-size="10.00">MarketCalculations</text>
<text text-anchor="middle" x="820" y="-532.5" font-family="Helvetica,sans-Serif" font-size="10.00">[Module]</text>
<text text-anchor="middle" x="820" y="-509.5" font-family="Helvetica,sans-Serif" font-size="10.00">Immutable pure functions</text>
<text text-anchor="middle" x="820" y="-498.5" font-family="Helvetica,sans-Serif" font-size="10.00">No side effects</text>
<text text-anchor="middle" x="820" y="-487.5" font-family="Helvetica,sans-Serif" font-size="10.00">Decimal precision</text>
<text text-anchor="middle" x="820" y="-476.5" font-family="Helvetica,sans-Serif" font-size="10.00">Unit&#45;of&#45;measure safe</text>
</g>
<!-- RESULT&#45;&gt;MARKET_CALCS -->
<g id="edge11" class="edge">
<title>RESULT&#45;&gt;MARKET_CALCS</title>
<path fill="none" stroke="#805ad5" stroke-width="2" d="M1706.2,-628.97C1702.11,-627.9 1698.03,-626.91 1694,-626 1604.56,-605.85 1373.96,-601.48 1283,-590 1148.8,-573.06 993.93,-545.92 901.64,-528.93"/>
<polygon fill="#805ad5" stroke="#805ad5" stroke-width="2" points="902,-525.44 891.53,-527.06 900.73,-532.32 902,-525.44"/>
<text text-anchor="middle" x="1554.5" y="-600.8" font-family="Helvetica,sans-Serif" font-size="9.00">Ok path</text>
</g>
<!-- INTEROP -->
<g id="node20" class="node">
<title>INTEROP</title>
<path fill="#cbd5e0" stroke="black" d="M1459.5,-561C1459.5,-561 1306.5,-561 1306.5,-561 1300.5,-561 1294.5,-555 1294.5,-549 1294.5,-549 1294.5,-476 1294.5,-476 1294.5,-470 1300.5,-464 1306.5,-464 1306.5,-464 1459.5,-464 1459.5,-464 1465.5,-464 1471.5,-470 1471.5,-476 1471.5,-476 1471.5,-549 1471.5,-549 1471.5,-555 1465.5,-561 1459.5,-561"/>
<text text-anchor="middle" x="1383" y="-549" font-family="Helvetica,sans-Serif" font-size="10.00">Interop Module</text>
<text text-anchor="middle" x="1383" y="-538" font-family="Helvetica,sans-Serif" font-size="10.00">[F# → C# bridge]</text>
<text text-anchor="middle" x="1383" y="-515" font-family="Helvetica,sans-Serif" font-size="10.00">FSharpEventValidator (C# class)</text>
<text text-anchor="middle" x="1383" y="-504" font-family="Helvetica,sans-Serif" font-size="10.00">Exposes F# validation as C# API</text>
<text text-anchor="middle" x="1383" y="-493" font-family="Helvetica,sans-Serif" font-size="10.00">Result&lt;T&gt; → (bool, errors[])</text>
<text text-anchor="middle" x="1383" y="-482" font-family="Helvetica,sans-Serif" font-size="10.00">Async&#45;safe interop</text>
<text text-anchor="middle" x="1383" y="-471" font-family="Helvetica,sans-Serif" font-size="10.00">No F# DU exposure to C#</text>
</g>
<!-- RESULT&#45;&gt;INTEROP -->
<g id="edge21" class="edge">
<title>RESULT&#45;&gt;INTEROP</title>
<path fill="none" stroke="#718096" stroke-width="2" d="M1706.18,-630.47C1702.07,-628.96 1698.01,-627.47 1694,-626 1622.87,-599.92 1542.45,-570.84 1481.21,-548.78"/>
<polygon fill="#718096" stroke="#718096" stroke-width="2" points="1482.14,-545.4 1471.55,-545.3 1479.77,-551.98 1482.14,-545.4"/>
<text text-anchor="middle" x="1667.5" y="-600.8" font-family="Helvetica,sans-Serif" font-size="9.00">C# interop</text>
</g>
<!-- PIPE -->
<g id="node8" class="node">
<title>PIPE</title>
<path fill="#81e6d9" stroke="black" d="M1670,-888C1670,-888 1538,-888 1538,-888 1532,-888 1526,-882 1526,-876 1526,-876 1526,-803 1526,-803 1526,-797 1532,-791 1538,-791 1538,-791 1670,-791 1670,-791 1676,-791 1682,-797 1682,-803 1682,-803 1682,-876 1682,-876 1682,-882 1676,-888 1670,-888"/>
<text text-anchor="middle" x="1604" y="-876" font-family="Helvetica,sans-Serif" font-size="10.00">Validation Pipeline</text>
<text text-anchor="middle" x="1604" y="-853" font-family="Helvetica,sans-Serif" font-size="10.00">validate price</text>
<text text-anchor="middle" x="1604" y="-842" font-family="Helvetica,sans-Serif" font-size="10.00"> &#160;|&gt; bind validateSize</text>
<text text-anchor="middle" x="1604" y="-831" font-family="Helvetica,sans-Serif" font-size="10.00"> &#160;|&gt; bind validateTimestamp</text>
<text text-anchor="middle" x="1604" y="-820" font-family="Helvetica,sans-Serif" font-size="10.00"> &#160;|&gt; bind validateSymbol</text>
<text text-anchor="middle" x="1604" y="-809" font-family="Helvetica,sans-Serif" font-size="10.00"> &#160;|&gt; bind validateSequence</text>
<text text-anchor="middle" x="1604" y="-798" font-family="Helvetica,sans-Serif" font-size="10.00"> &#160;|&gt; map toCanonicalTrade</text>
</g>
<!-- TRADE_VAL&#45;&gt;PIPE -->
<g id="edge5" class="edge">
<title>TRADE_VAL&#45;&gt;PIPE</title>
<path fill="none" stroke="#2c7a7b" d="M1745.79,-943.93C1724.05,-928.07 1699.68,-910.29 1677.36,-894.01"/>
<polygon fill="#2c7a7b" stroke="#2c7a7b" points="1679.38,-891.16 1669.24,-888.09 1675.26,-896.81 1679.38,-891.16"/>
</g>
<!-- QUOTE_VAL&#45;&gt;PIPE -->
<g id="edge6" class="edge">
<title>QUOTE_VAL&#45;&gt;PIPE</title>
<path fill="none" stroke="#2c7a7b" d="M1935.47,-949.47C1926.39,-944.62 1917.08,-939.99 1908,-936 1837.46,-904.98 1753.68,-879.44 1691.95,-862.61"/>
<polygon fill="#2c7a7b" stroke="#2c7a7b" points="1692.8,-859.21 1682.24,-859.98 1690.98,-865.97 1692.8,-859.21"/>
</g>
<!-- DEPTH_VAL&#45;&gt;PIPE -->
<g id="edge7" class="edge">
<title>DEPTH_VAL&#45;&gt;PIPE</title>
<path fill="none" stroke="#2c7a7b" d="M1604,-949.44C1604,-933.68 1604,-915.5 1604,-898.55"/>
<polygon fill="#2c7a7b" stroke="#2c7a7b" points="1607.5,-898.19 1604,-888.19 1600.5,-898.19 1607.5,-898.19"/>
</g>
<!-- PIPE&#45;&gt;RESULT -->
<g id="edge8" class="edge">
<title>PIPE&#45;&gt;RESULT</title>
<path fill="none" stroke="#2c7a7b" stroke-width="2" d="M1674.84,-790.97C1698.41,-775.16 1724.95,-757.35 1749.67,-740.76"/>
<polygon fill="#2c7a7b" stroke="#2c7a7b" stroke-width="2" points="1751.63,-743.67 1757.98,-735.19 1747.73,-737.85 1751.63,-743.67"/>
</g>
<!-- ERROR_ACC -->
<g id="node9" class="node">
<title>ERROR_ACC</title>
<path fill="#b2f5ea" stroke="black" d="M1648,-718C1648,-718 1560,-718 1560,-718 1554,-718 1548,-712 1548,-706 1548,-706 1548,-655 1548,-655 1548,-649 1554,-643 1560,-643 1560,-643 1648,-643 1648,-643 1654,-643 1660,-649 1660,-655 1660,-655 1660,-706 1660,-706 1660,-712 1654,-718 1648,-718"/>
<text text-anchor="middle" x="1604" y="-706" font-family="Helvetica,sans-Serif" font-size="10.00">Error Accumulation</text>
<text text-anchor="middle" x="1604" y="-683" font-family="Helvetica,sans-Serif" font-size="10.00">Collect ALL errors</text>
<text text-anchor="middle" x="1604" y="-672" font-family="Helvetica,sans-Serif" font-size="10.00">(not short&#45;circuit)</text>
<text text-anchor="middle" x="1604" y="-661" font-family="Helvetica,sans-Serif" font-size="10.00">Return full error list</text>
<text text-anchor="middle" x="1604" y="-650" font-family="Helvetica,sans-Serif" font-size="10.00">for reporting</text>
</g>
<!-- PIPE&#45;&gt;ERROR_ACC -->
<g id="edge9" class="edge">
<title>PIPE&#45;&gt;ERROR_ACC</title>
<path fill="none" stroke="#4a5568" stroke-dasharray="5,2" d="M1604,-790.97C1604,-771.06 1604,-747.99 1604,-728.18"/>
<polygon fill="#4a5568" stroke="#4a5568" points="1607.5,-728.15 1604,-718.15 1600.5,-728.15 1607.5,-728.15"/>
</g>
<!-- SPREAD -->
<g id="node11" class="node">
<title>SPREAD</title>
<path fill="#e9d5ff" stroke="black" d="M884,-408C884,-408 756,-408 756,-408 750,-408 744,-402 744,-396 744,-396 744,-333 744,-333 744,-327 750,-321 756,-321 756,-321 884,-321 884,-321 890,-321 896,-327 896,-333 896,-333 896,-396 896,-396 896,-402 890,-408 884,-408"/>
<text text-anchor="middle" x="820" y="-396" font-family="Helvetica,sans-Serif" font-size="10.00">Spread Calculation</text>
<text text-anchor="middle" x="820" y="-373" font-family="Helvetica,sans-Serif" font-size="10.00">calculateSpread bid ask</text>
<text text-anchor="middle" x="820" y="-362" font-family="Helvetica,sans-Serif" font-size="10.00"> &#160;= ask &#45; bid</text>
<text text-anchor="middle" x="820" y="-339" font-family="Helvetica,sans-Serif" font-size="10.00">calculateSpreadBps bid ask</text>
<text text-anchor="middle" x="820" y="-328" font-family="Helvetica,sans-Serif" font-size="10.00"> &#160;= (ask &#45; bid) / mid * 10000</text>
</g>
<!-- MARKET_CALCS&#45;&gt;SPREAD -->
<g id="edge12" class="edge">
<title>MARKET_CALCS&#45;&gt;SPREAD</title>
<path fill="none" stroke="#4a5568" stroke-dasharray="5,2" d="M820,-469.27C820,-453.37 820,-435.08 820,-418.34"/>
<polygon fill="#4a5568" stroke="#4a5568" points="823.5,-418.14 820,-408.14 816.5,-418.14 823.5,-418.14"/>
</g>
<!-- VWAP -->
<g id="node12" class="node">
<title>VWAP</title>
<path fill="#e9d5ff" stroke="black" d="M1049.5,-408C1049.5,-408 926.5,-408 926.5,-408 920.5,-408 914.5,-402 914.5,-396 914.5,-396 914.5,-333 914.5,-333 914.5,-327 920.5,-321 926.5,-321 926.5,-321 1049.5,-321 1049.5,-321 1055.5,-321 1061.5,-327 1061.5,-333 1061.5,-333 1061.5,-396 1061.5,-396 1061.5,-402 1055.5,-408 1049.5,-408"/>
<text text-anchor="middle" x="988" y="-396" font-family="Helvetica,sans-Serif" font-size="10.00">VWAP Calculation</text>
<text text-anchor="middle" x="988" y="-373" font-family="Helvetica,sans-Serif" font-size="10.00">calculateVwap trades</text>
<text text-anchor="middle" x="988" y="-362" font-family="Helvetica,sans-Serif" font-size="10.00"> &#160;= Σ(price × size) / Σ(size)</text>
<text text-anchor="middle" x="988" y="-339" font-family="Helvetica,sans-Serif" font-size="10.00">Rolling window support</text>
<text text-anchor="middle" x="988" y="-328" font-family="Helvetica,sans-Serif" font-size="10.00">Time&#45;weighted variant</text>
</g>
<!-- MARKET_CALCS&#45;&gt;VWAP -->
<g id="edge13" class="edge">
<title>MARKET_CALCS&#45;&gt;VWAP</title>
<path fill="none" stroke="#4a5568" stroke-dasharray="5,2" d="M868.59,-469.27C888.18,-452.24 910.92,-432.48 931.27,-414.8"/>
<polygon fill="#4a5568" stroke="#4a5568" points="933.68,-417.34 938.93,-408.14 929.09,-412.06 933.68,-417.34"/>
</g>
<!-- IMBALANCE -->
<g id="node13" class="node">
<title>IMBALANCE</title>
<path fill="#e9d5ff" stroke="black" d="M1250.5,-408C1250.5,-408 1091.5,-408 1091.5,-408 1085.5,-408 1079.5,-402 1079.5,-396 1079.5,-396 1079.5,-333 1079.5,-333 1079.5,-327 1085.5,-321 1091.5,-321 1091.5,-321 1250.5,-321 1250.5,-321 1256.5,-321 1262.5,-327 1262.5,-333 1262.5,-333 1262.5,-396 1262.5,-396 1262.5,-402 1256.5,-408 1250.5,-408"/>
<text text-anchor="middle" x="1171" y="-396" font-family="Helvetica,sans-Serif" font-size="10.00">Order Flow Imbalance</text>
<text text-anchor="middle" x="1171" y="-373" font-family="Helvetica,sans-Serif" font-size="10.00">calculateImbalance buyVol sellVol</text>
<text text-anchor="middle" x="1171" y="-362" font-family="Helvetica,sans-Serif" font-size="10.00"> &#160;= (buy &#45; sell) / (buy + sell)</text>
<text text-anchor="middle" x="1171" y="-339" font-family="Helvetica,sans-Serif" font-size="10.00">Range: [&#45;1.0, +1.0]</text>
<text text-anchor="middle" x="1171" y="-328" font-family="Helvetica,sans-Serif" font-size="10.00">+1 = full buy pressure</text>
</g>
<!-- MARKET_CALCS&#45;&gt;IMBALANCE -->
<g id="edge14" class="edge">
<title>MARKET_CALCS&#45;&gt;IMBALANCE</title>
<path fill="none" stroke="#4a5568" stroke-dasharray="5,2" d="M891.59,-496.94C943.12,-484.89 1013.42,-465.14 1071,-437 1084.16,-430.57 1097.46,-422.44 1109.87,-413.99"/>
<polygon fill="#4a5568" stroke="#4a5568" points="1112.11,-416.7 1118.31,-408.11 1108.1,-410.96 1112.11,-416.7"/>
</g>
<!-- DRAWDOWN -->
<g id="node14" class="node">
<title>DRAWDOWN</title>
<path fill="#e9d5ff" stroke="black" d="M518.5,-408C518.5,-408 357.5,-408 357.5,-408 351.5,-408 345.5,-402 345.5,-396 345.5,-396 345.5,-333 345.5,-333 345.5,-327 351.5,-321 357.5,-321 357.5,-321 518.5,-321 518.5,-321 524.5,-321 530.5,-327 530.5,-333 530.5,-333 530.5,-396 530.5,-396 530.5,-402 524.5,-408 518.5,-408"/>
<text text-anchor="middle" x="438" y="-396" font-family="Helvetica,sans-Serif" font-size="10.00">Drawdown Calculation</text>
<text text-anchor="middle" x="438" y="-373" font-family="Helvetica,sans-Serif" font-size="10.00">calculateMaxDrawdown navSeries</text>
<text text-anchor="middle" x="438" y="-362" font-family="Helvetica,sans-Serif" font-size="10.00"> &#160;= (peak &#45; trough) / peak</text>
<text text-anchor="middle" x="438" y="-339" font-family="Helvetica,sans-Serif" font-size="10.00">Rolling high watermark</text>
<text text-anchor="middle" x="438" y="-328" font-family="Helvetica,sans-Serif" font-size="10.00">Max over full time series</text>
</g>
<!-- MARKET_CALCS&#45;&gt;DRAWDOWN -->
<g id="edge15" class="edge">
<title>MARKET_CALCS&#45;&gt;DRAWDOWN</title>
<path fill="none" stroke="#4a5568" stroke-dasharray="5,2" d="M748.29,-499.81C690,-488.61 606.66,-468.65 539,-437 525.35,-430.61 511.6,-422.36 498.83,-413.74"/>
<polygon fill="#4a5568" stroke="#4a5568" points="500.8,-410.85 490.59,-408.04 496.82,-416.61 500.8,-410.85"/>
</g>
<!-- SHARPE -->
<g id="node15" class="node">
<title>SHARPE</title>
<path fill="#e9d5ff" stroke="black" d="M714,-408C714,-408 560,-408 560,-408 554,-408 548,-402 548,-396 548,-396 548,-333 548,-333 548,-327 554,-321 560,-321 560,-321 714,-321 714,-321 720,-321 726,-327 726,-333 726,-333 726,-396 726,-396 726,-402 720,-408 714,-408"/>
<text text-anchor="middle" x="637" y="-396" font-family="Helvetica,sans-Serif" font-size="10.00">Sharpe Ratio</text>
<text text-anchor="middle" x="637" y="-373" font-family="Helvetica,sans-Serif" font-size="10.00">calculateSharpe returns riskFree</text>
<text text-anchor="middle" x="637" y="-362" font-family="Helvetica,sans-Serif" font-size="10.00"> &#160;= (mean(r) &#45; rf) / stdev(r)</text>
<text text-anchor="middle" x="637" y="-351" font-family="Helvetica,sans-Serif" font-size="10.00"> &#160;× sqrt(252) [annualized]</text>
<text text-anchor="middle" x="637" y="-328" font-family="Helvetica,sans-Serif" font-size="10.00">Handles zero&#45;variance edge case</text>
</g>
<!-- MARKET_CALCS&#45;&gt;SHARPE -->
<g id="edge16" class="edge">
<title>MARKET_CALCS&#45;&gt;SHARPE</title>
<path fill="none" stroke="#4a5568" stroke-dasharray="5,2" d="M767.07,-469.27C745.63,-452.17 720.74,-432.31 698.51,-414.57"/>
<polygon fill="#4a5568" stroke="#4a5568" points="700.45,-411.64 690.45,-408.14 696.08,-417.11 700.45,-411.64"/>
</g>
<!-- TRADE_CALCS -->
<g id="node16" class="node">
<title>TRADE_CALCS</title>
<path fill="#fbd38d" stroke="black" d="M302,-407.5C302,-407.5 210,-407.5 210,-407.5 204,-407.5 198,-401.5 198,-395.5 198,-395.5 198,-333.5 198,-333.5 198,-327.5 204,-321.5 210,-321.5 210,-321.5 302,-321.5 302,-321.5 308,-321.5 314,-327.5 314,-333.5 314,-333.5 314,-395.5 314,-395.5 314,-401.5 308,-407.5 302,-407.5"/>
<text text-anchor="middle" x="256" y="-395.5" font-family="Helvetica,sans-Serif" font-size="10.00">TradingCalculations</text>
<text text-anchor="middle" x="256" y="-384.5" font-family="Helvetica,sans-Serif" font-size="10.00">[Module]</text>
<text text-anchor="middle" x="256" y="-361.5" font-family="Helvetica,sans-Serif" font-size="10.00">Position P&amp;L</text>
<text text-anchor="middle" x="256" y="-350.5" font-family="Helvetica,sans-Serif" font-size="10.00">Commission models</text>
<text text-anchor="middle" x="256" y="-339.5" font-family="Helvetica,sans-Serif" font-size="10.00">Slippage estimation</text>
<text text-anchor="middle" x="256" y="-328.5" font-family="Helvetica,sans-Serif" font-size="10.00">Returns time series</text>
</g>
<!-- MARKET_CALCS&#45;&gt;TRADE_CALCS -->
<g id="edge17" class="edge">
<title>MARKET_CALCS&#45;&gt;TRADE_CALCS</title>
<path fill="none" stroke="#ed8936" d="M748.33,-505.66C631.51,-495.29 405.87,-471.46 334,-437 322.12,-431.3 310.77,-423.19 300.6,-414.46"/>
<polygon fill="#ed8936" stroke="#ed8936" points="302.83,-411.76 293.05,-407.69 298.16,-416.97 302.83,-411.76"/>
</g>
<!-- XIRR_FSHARP -->
<g id="node17" class="node">
<title>XIRR_FSHARP</title>
<path fill="#feebc8" stroke="black" d="M301.5,-253.5C301.5,-253.5 168.5,-253.5 168.5,-253.5 162.5,-253.5 156.5,-247.5 156.5,-241.5 156.5,-241.5 156.5,-179.5 156.5,-179.5 156.5,-173.5 162.5,-167.5 168.5,-167.5 168.5,-167.5 301.5,-167.5 301.5,-167.5 307.5,-167.5 313.5,-173.5 313.5,-179.5 313.5,-179.5 313.5,-241.5 313.5,-241.5 313.5,-247.5 307.5,-253.5 301.5,-253.5"/>
<text text-anchor="middle" x="235" y="-241.5" font-family="Helvetica,sans-Serif" font-size="10.00">XIRR Calculator</text>
<text text-anchor="middle" x="235" y="-218.5" font-family="Helvetica,sans-Serif" font-size="10.00">Newton&#45;Raphson solver</text>
<text text-anchor="middle" x="235" y="-207.5" font-family="Helvetica,sans-Serif" font-size="10.00">Cash flow schedule</text>
<text text-anchor="middle" x="235" y="-196.5" font-family="Helvetica,sans-Serif" font-size="10.00">(date × amount) list</text>
<text text-anchor="middle" x="235" y="-185.5" font-family="Helvetica,sans-Serif" font-size="10.00">Convergence tolerance: 1e&#45;8</text>
<text text-anchor="middle" x="235" y="-174.5" font-family="Helvetica,sans-Serif" font-size="10.00">Max iterations: 1000</text>
</g>
<!-- TRADE_CALCS&#45;&gt;XIRR_FSHARP -->
<g id="edge18" class="edge">
<title>TRADE_CALCS&#45;&gt;XIRR_FSHARP</title>
<path fill="none" stroke="#ed8936" d="M250.15,-321.16C247.69,-303.37 244.81,-282.5 242.22,-263.77"/>
<polygon fill="#ed8936" stroke="#ed8936" points="245.65,-263.04 240.82,-253.61 238.72,-264 245.65,-263.04"/>
</g>
<!-- LEDGER_CALCS -->
<g id="node18" class="node">
<title>LEDGER_CALCS</title>
<path fill="#9ae6b4" stroke="black" d="M457,-259C457,-259 365,-259 365,-259 359,-259 353,-253 353,-247 353,-247 353,-174 353,-174 353,-168 359,-162 365,-162 365,-162 457,-162 457,-162 463,-162 469,-168 469,-174 469,-174 469,-247 469,-247 469,-253 463,-259 457,-259"/>
<text text-anchor="middle" x="411" y="-247" font-family="Helvetica,sans-Serif" font-size="10.00">LedgerCalculations</text>
<text text-anchor="middle" x="411" y="-236" font-family="Helvetica,sans-Serif" font-size="10.00">[Module]</text>
<text text-anchor="middle" x="411" y="-213" font-family="Helvetica,sans-Serif" font-size="10.00">Fill aggregation</text>
<text text-anchor="middle" x="411" y="-202" font-family="Helvetica,sans-Serif" font-size="10.00">Position netting</text>
<text text-anchor="middle" x="411" y="-191" font-family="Helvetica,sans-Serif" font-size="10.00">Cost basis tracking</text>
<text text-anchor="middle" x="411" y="-180" font-family="Helvetica,sans-Serif" font-size="10.00">Realized P&amp;L</text>
<text text-anchor="middle" x="411" y="-169" font-family="Helvetica,sans-Serif" font-size="10.00">Dividend accounting</text>
</g>
<!-- TRADE_CALCS&#45;&gt;LEDGER_CALCS -->
<g id="edge19" class="edge">
<title>TRADE_CALCS&#45;&gt;LEDGER_CALCS</title>
<path fill="none" stroke="#38a169" d="M299.18,-321.16C316.49,-304.18 336.68,-284.38 355.09,-266.32"/>
<polygon fill="#38a169" stroke="#38a169" points="357.63,-268.73 362.32,-259.23 352.73,-263.74 357.63,-268.73"/>
</g>
<!-- DU_TYPES -->
<g id="node19" class="node">
<title>DU_TYPES</title>
<polygon fill="#bbf7d0" stroke="black" points="508,-125 338,-125 338,-16 514,-16 514,-119 508,-125"/>
<polyline fill="none" stroke="black" points="508,-125 508,-119 "/>
<polyline fill="none" stroke="black" points="514,-119 508,-119 "/>
<text text-anchor="middle" x="426" y="-113" font-family="Helvetica,sans-Serif" font-size="10.00">Discriminated Unions:</text>
<text text-anchor="middle" x="426" y="-90" font-family="Helvetica,sans-Serif" font-size="10.00">LedgerEntry =</text>
<text text-anchor="middle" x="426" y="-79" font-family="Helvetica,sans-Serif" font-size="10.00"> &#160;| Fill of FillRecord</text>
<text text-anchor="middle" x="426" y="-68" font-family="Helvetica,sans-Serif" font-size="10.00"> &#160;| Dividend of DivRecord</text>
<text text-anchor="middle" x="426" y="-57" font-family="Helvetica,sans-Serif" font-size="10.00"> &#160;| Split of SplitRecord</text>
<text text-anchor="middle" x="426" y="-46" font-family="Helvetica,sans-Serif" font-size="10.00"> &#160;| CashFlow of amount</text>
<text text-anchor="middle" x="426" y="-23" font-family="Helvetica,sans-Serif" font-size="10.00">PositionSide = Long | Short | Flat</text>
</g>
<!-- LEDGER_CALCS&#45;&gt;DU_TYPES -->
<g id="edge20" class="edge">
<title>LEDGER_CALCS&#45;&gt;DU_TYPES</title>
<path fill="none" stroke="#4a5568" stroke-dasharray="5,2" d="M416.2,-161.62C417.12,-153.23 418.08,-144.37 419.03,-135.63"/>
<polygon fill="#4a5568" stroke="#4a5568" points="422.54,-135.76 420.14,-125.44 415.58,-135 422.54,-135.76"/>
</g>
<!-- FSHARP_VAL_CS -->
<g id="node21" class="node">
<title>FSHARP_VAL_CS</title>
<path fill="#cbd5e0" stroke="black" d="M1458.5,-407.5C1458.5,-407.5 1309.5,-407.5 1309.5,-407.5 1303.5,-407.5 1297.5,-401.5 1297.5,-395.5 1297.5,-395.5 1297.5,-333.5 1297.5,-333.5 1297.5,-327.5 1303.5,-321.5 1309.5,-321.5 1309.5,-321.5 1458.5,-321.5 1458.5,-321.5 1464.5,-321.5 1470.5,-327.5 1470.5,-333.5 1470.5,-333.5 1470.5,-395.5 1470.5,-395.5 1470.5,-401.5 1464.5,-407.5 1458.5,-407.5"/>
<text text-anchor="middle" x="1384" y="-395.5" font-family="Helvetica,sans-Serif" font-size="10.00">FSharpEventValidator</text>
<text text-anchor="middle" x="1384" y="-384.5" font-family="Helvetica,sans-Serif" font-size="10.00">[C# class]</text>
<text text-anchor="middle" x="1384" y="-361.5" font-family="Helvetica,sans-Serif" font-size="10.00">ValidateTradeAsync(trade)</text>
<text text-anchor="middle" x="1384" y="-350.5" font-family="Helvetica,sans-Serif" font-size="10.00">ValidateQuoteAsync(quote)</text>
<text text-anchor="middle" x="1384" y="-339.5" font-family="Helvetica,sans-Serif" font-size="10.00">ValidateDepthAsync(depth)</text>
<text text-anchor="middle" x="1384" y="-328.5" font-family="Helvetica,sans-Serif" font-size="10.00">Returns: ValidationResult record</text>
</g>
<!-- INTEROP&#45;&gt;FSHARP_VAL_CS -->
<g id="edge22" class="edge">
<title>INTEROP&#45;&gt;FSHARP_VAL_CS</title>
<path fill="none" stroke="#718096" d="M1383.33,-463.69C1383.43,-448.96 1383.54,-432.67 1383.64,-417.67"/>
<polygon fill="#718096" stroke="#718096" points="1387.14,-417.54 1383.71,-407.52 1380.14,-417.49 1387.14,-417.54"/>
</g>
<!-- FSHARP_VAL_CS&#45;&gt;COLLECTORS -->
<g id="edge23" class="edge">
<title>FSHARP_VAL_CS&#45;&gt;COLLECTORS</title>
<path fill="none" stroke="#718096" stroke-dasharray="5,2" d="M1470.65,-373.39C1667.81,-392.5 2133,-444.68 2133,-511.5 2133,-1162 2133,-1162 2133,-1162 2133,-1164.21 2041.57,-1204.98 1974,-1234.8"/>
<polygon fill="#718096" stroke="#718096" points="1972.37,-1231.69 1964.64,-1238.93 1975.2,-1238.1 1972.37,-1231.69"/>
<text text-anchor="middle" x="2183" y="-837.3" font-family="Helvetica,sans-Serif" font-size="9.00">inject into C# pipeline</text>
</g>
<!-- LEG -->
<g id="node22" class="node">
<title>LEG</title>
<path fill="lightgrey" stroke="transparent" d="M2242,-1298.5C2242,-1298.5 2024,-1298.5 2024,-1298.5 2018,-1298.5 2012,-1292.5 2012,-1286.5 2012,-1286.5 2012,-1247.5 2012,-1247.5 2012,-1241.5 2018,-1235.5 2024,-1235.5 2024,-1235.5 2242,-1235.5 2242,-1235.5 2248,-1235.5 2254,-1241.5 2254,-1247.5 2254,-1247.5 2254,-1286.5 2254,-1286.5 2254,-1292.5 2248,-1298.5 2242,-1298.5"/>
<text text-anchor="middle" x="2133" y="-1286.5" font-family="Helvetica,sans-Serif" font-size="10.00">━━ Primary data flow</text>
<text text-anchor="middle" x="2133" y="-1275.5" font-family="Helvetica,sans-Serif" font-size="10.00">─ ─ Type reference / composition</text>
<text text-anchor="middle" x="2133" y="-1264.5" font-family="Helvetica,sans-Serif" font-size="10.00">All F# functions are pure (no side effects)</text>
<text text-anchor="middle" x="2133" y="-1253.5" font-family="Helvetica,sans-Serif" font-size="10.00">Railway: errors accumulate, don&#39;t short&#45;circuit</text>
<text text-anchor="middle" x="2133" y="-1242.5" font-family="Helvetica,sans-Serif" font-size="10.00">Interop.fs is the only C# boundary</text>
</g>
</g>
</svg>
