<?xml version="1.0" encoding="UTF-8" standalone="no"?>
<!DOCTYPE svg PUBLIC "-//W3C//DTD SVG 1.1//EN"
 "http://www.w3.org/Graphics/SVG/1.1/DTD/svg11.dtd">
<!-- Generated by graphviz version 14.1.3 (20260303.0454)
 -->
<!-- Title: FundOpsReconciliation Pages: 1 -->
<svg width="1835pt" height="641pt"
 viewBox="0.00 0.00 1835.00 641.00" xmlns="http://www.w3.org/2000/svg" xmlns:xlink="http://www.w3.org/1999/xlink">
<g id="graph0" class="graph" transform="scale(1 1) rotate(0) translate(36 604.8)">
<title>FundOpsReconciliation</title>
<polygon fill="white" stroke="none" points="-36,36 -36,-604.8 1799.29,-604.8 1799.29,36 -36,36"/>
<text xml:space="preserve" text-anchor="middle" x="881.64" y="-554" font-family="Helvetica,sans-Serif" font-size="12.00">Meridian &#45; Fund Ops and Reconciliation</text>
<text xml:space="preserve" text-anchor="middle" x="881.64" y="-539.6" font-family="Helvetica,sans-Serif" font-size="12.00">Governance workspace, reconciliation engine, and review loop | v1.8.x</text>
<g id="clust1" class="cluster">
<title>cluster_surfaces</title>
<path fill="#faf5ff" stroke="#805ad5" d="M20,-198C20,-198 771.5,-198 771.5,-198 777.5,-198 783.5,-204 783.5,-210 783.5,-210 783.5,-268 783.5,-268 783.5,-274 777.5,-280 771.5,-280 771.5,-280 20,-280 20,-280 14,-280 8,-274 8,-268 8,-268 8,-210 8,-210 8,-204 14,-198 20,-198"/>
<text xml:space="preserve" text-anchor="middle" x="395.75" y="-265.2" font-family="Helvetica,sans-Serif" font-size="12.00">Governance Surfaces</text>
</g>
<g id="clust2" class="cluster">
<title>cluster_workbench</title>
<path fill="#dbeafe" stroke="#2b6cb0" d="M322.11,-8C322.11,-8 1086.7,-8 1086.7,-8 1092.7,-8 1098.7,-14 1098.7,-20 1098.7,-20 1098.7,-178 1098.7,-178 1098.7,-184 1092.7,-190 1086.7,-190 1086.7,-190 322.11,-190 322.11,-190 316.11,-190 310.11,-184 310.11,-178 310.11,-178 310.11,-20 310.11,-20 310.11,-14 316.11,-8 322.11,-8"/>
<text xml:space="preserve" text-anchor="middle" x="704.41" y="-175.2" font-family="Helvetica,sans-Serif" font-size="12.00">Workbench and Read Models</text>
</g>
<g id="clust3" class="cluster">
<title>cluster_engine</title>
<path fill="#f0fff4" stroke="#38a169" d="M941.15,-275C941.15,-275 1743.29,-275 1743.29,-275 1749.29,-275 1755.29,-281 1755.29,-287 1755.29,-287 1755.29,-453 1755.29,-453 1755.29,-459 1749.29,-465 1743.29,-465 1743.29,-465 941.15,-465 941.15,-465 935.15,-465 929.15,-459 929.15,-453 929.15,-453 929.15,-287 929.15,-287 929.15,-281 935.15,-275 941.15,-275"/>
<text xml:space="preserve" text-anchor="middle" x="1342.22" y="-450.2" font-family="Helvetica,sans-Serif" font-size="12.00">Reconciliation Engine</text>
</g>
<g id="clust4" class="cluster">
<title>cluster_state</title>
<path fill="#fff5f5" stroke="#c53030" d="M1562.97,-107C1562.97,-107 1705.48,-107 1705.48,-107 1711.48,-107 1717.48,-113 1717.48,-119 1717.48,-119 1717.48,-255 1717.48,-255 1717.48,-261 1711.48,-267 1705.48,-267 1705.48,-267 1562.97,-267 1562.97,-267 1556.97,-267 1550.97,-261 1550.97,-255 1550.97,-255 1550.97,-119 1550.97,-119 1550.97,-113 1556.97,-107 1562.97,-107"/>
<text xml:space="preserve" text-anchor="middle" x="1634.22" y="-252.2" font-family="Helvetica,sans-Serif" font-size="12.00">Persisted State</text>
</g>
<g id="clust5" class="cluster">
<title>cluster_legend</title>
<path fill="#fafafa" stroke="#666666" d="M47.51,-288C47.51,-288 150.57,-288 150.57,-288 156.57,-288 162.57,-294 162.57,-300 162.57,-300 162.57,-512 162.57,-512 162.57,-518 156.57,-524 150.57,-524 150.57,-524 47.51,-524 47.51,-524 41.51,-524 35.51,-518 35.51,-512 35.51,-512 35.51,-300 35.51,-300 35.51,-294 41.51,-288 47.51,-288"/>
<text xml:space="preserve" text-anchor="middle" x="99.04" y="-509.2" font-family="Helvetica,sans-Serif" font-size="12.00">Legend</text>
</g>
<!-- GOVERNANCE_UI -->
<g id="node1" class="node">
<title>GOVERNANCE_UI</title>
<path fill="#805ad5" stroke="black" d="M170.08,-250C170.08,-250 28,-250 28,-250 22,-250 16,-244 16,-238 16,-238 16,-218 16,-218 16,-212 22,-206 28,-206 28,-206 170.08,-206 170.08,-206 176.08,-206 182.08,-212 182.08,-218 182.08,-218 182.08,-238 182.08,-238 182.08,-244 176.08,-250 170.08,-250"/>
<text xml:space="preserve" text-anchor="middle" x="99.04" y="-237" font-family="Helvetica,sans-Serif" font-size="10.00" fill="white">Governance workspace</text>
<text xml:space="preserve" text-anchor="middle" x="99.04" y="-225" font-family="Helvetica,sans-Serif" font-size="10.00" fill="white">GovernanceWorkspaceShellPage</text>
<text xml:space="preserve" text-anchor="middle" x="99.04" y="-213" font-family="Helvetica,sans-Serif" font-size="10.00" fill="white">FundLedgerViewModel</text>
</g>
<!-- API_CLIENT -->
<g id="node2" class="node">
<title>API_CLIENT</title>
<path fill="#c4b5fd" stroke="black" d="M485.52,-246C485.52,-246 335.67,-246 335.67,-246 329.67,-246 323.67,-240 323.67,-234 323.67,-234 323.67,-222 323.67,-222 323.67,-216 329.67,-210 335.67,-210 335.67,-210 485.52,-210 485.52,-210 491.52,-210 497.52,-216 497.52,-222 497.52,-222 497.52,-234 497.52,-234 497.52,-240 491.52,-246 485.52,-246"/>
<text xml:space="preserve" text-anchor="middle" x="410.59" y="-231" font-family="Helvetica,sans-Serif" font-size="10.00">IWorkstationReconciliationApiClient</text>
<text xml:space="preserve" text-anchor="middle" x="410.59" y="-219" font-family="Helvetica,sans-Serif" font-size="10.00">review / resolve / dismiss</text>
</g>
<!-- GOVERNANCE_UI&#45;&gt;API_CLIENT -->
<g id="edge2" class="edge">
<title>GOVERNANCE_UI&#45;&gt;API_CLIENT</title>
<path fill="none" stroke="#4a5568" d="M182.18,-228C222.05,-228 270.24,-228 311.97,-228"/>
<polygon fill="#4a5568" stroke="#4a5568" points="311.76,-231.5 321.76,-228 311.76,-224.5 311.76,-231.5"/>
<text xml:space="preserve" text-anchor="middle" x="250.09" y="-230.7" font-family="Helvetica,sans-Serif" font-size="9.00">review / resolve / dismiss</text>
</g>
<!-- WORKBENCH -->
<g id="node4" class="node">
<title>WORKBENCH</title>
<path fill="#93c5fd" stroke="black" d="M491.08,-160C491.08,-160 330.11,-160 330.11,-160 324.11,-160 318.11,-154 318.11,-148 318.11,-148 318.11,-128 318.11,-128 318.11,-122 324.11,-116 330.11,-116 330.11,-116 491.08,-116 491.08,-116 497.08,-116 503.08,-122 503.08,-128 503.08,-128 503.08,-148 503.08,-148 503.08,-154 497.08,-160 491.08,-160"/>
<text xml:space="preserve" text-anchor="middle" x="410.59" y="-147" font-family="Helvetica,sans-Serif" font-size="10.00">FundReconciliationWorkbenchService</text>
<text xml:space="preserve" text-anchor="middle" x="410.59" y="-135" font-family="Helvetica,sans-Serif" font-size="10.00">compose snapshot + break queue</text>
<text xml:space="preserve" text-anchor="middle" x="410.59" y="-123" font-family="Helvetica,sans-Serif" font-size="10.00">operator actions</text>
</g>
<!-- GOVERNANCE_UI&#45;&gt;WORKBENCH -->
<g id="edge1" class="edge">
<title>GOVERNANCE_UI&#45;&gt;WORKBENCH</title>
<path fill="none" stroke="#4a5568" d="M177.36,-205.52C221.11,-192.8 276,-176.84 321.43,-163.63"/>
<polygon fill="#4a5568" stroke="#4a5568" points="322.38,-167 331.01,-160.85 320.43,-160.28 322.38,-167"/>
<text xml:space="preserve" text-anchor="middle" x="250.09" y="-201.59" font-family="Helvetica,sans-Serif" font-size="9.00">open workspace</text>
</g>
<!-- WORKSTATION_API -->
<g id="node3" class="node">
<title>WORKSTATION_API</title>
<path fill="#c4b5fd" stroke="black" d="M763.5,-250C763.5,-250 634.21,-250 634.21,-250 628.21,-250 622.21,-244 622.21,-238 622.21,-238 622.21,-218 622.21,-218 622.21,-212 628.21,-206 634.21,-206 634.21,-206 763.5,-206 763.5,-206 769.5,-206 775.5,-212 775.5,-218 775.5,-218 775.5,-238 775.5,-238 775.5,-244 769.5,-250 763.5,-250"/>
<text xml:space="preserve" text-anchor="middle" x="698.85" y="-237" font-family="Helvetica,sans-Serif" font-size="10.00">WorkstationEndpoints</text>
<text xml:space="preserve" text-anchor="middle" x="698.85" y="-225" font-family="Helvetica,sans-Serif" font-size="10.00">/api/workstation/reconciliation/*</text>
<text xml:space="preserve" text-anchor="middle" x="698.85" y="-213" font-family="Helvetica,sans-Serif" font-size="10.00">/api/workstation/runs/*</text>
</g>
<!-- API_CLIENT&#45;&gt;WORKSTATION_API -->
<g id="edge3" class="edge">
<title>API_CLIENT&#45;&gt;WORKSTATION_API</title>
<path fill="none" stroke="#4a5568" d="M497.87,-228C533.52,-228 574.79,-228 610.55,-228"/>
<polygon fill="#4a5568" stroke="#4a5568" points="610.44,-231.5 620.44,-228 610.44,-224.5 610.44,-231.5"/>
<text xml:space="preserve" text-anchor="middle" x="559.1" y="-230.7" font-family="Helvetica,sans-Serif" font-size="9.00">HTTP calls</text>
</g>
<!-- RUN_SERVICE -->
<g id="node9" class="node">
<title>RUN_SERVICE</title>
<path fill="#a7f3d0" stroke="black" d="M1093.99,-319C1093.99,-319 949.15,-319 949.15,-319 943.15,-319 937.15,-313 937.15,-307 937.15,-307 937.15,-295 937.15,-295 937.15,-289 943.15,-283 949.15,-283 949.15,-283 1093.99,-283 1093.99,-283 1099.99,-283 1105.99,-289 1105.99,-295 1105.99,-295 1105.99,-307 1105.99,-307 1105.99,-313 1099.99,-319 1093.99,-319"/>
<text xml:space="preserve" text-anchor="middle" x="1021.57" y="-304" font-family="Helvetica,sans-Serif" font-size="10.00">ReconciliationRunService</text>
<text xml:space="preserve" text-anchor="middle" x="1021.57" y="-292" font-family="Helvetica,sans-Serif" font-size="10.00">RunAsync / GetLatest / GetHistory</text>
</g>
<!-- WORKSTATION_API&#45;&gt;RUN_SERVICE -->
<g id="edge9" class="edge">
<title>WORKSTATION_API&#45;&gt;RUN_SERVICE</title>
<path fill="none" stroke="#4a5568" d="M775.86,-245.3C821.57,-255.7 880.07,-269.02 928.4,-280.02"/>
<polygon fill="#4a5568" stroke="#4a5568" points="927.5,-283.41 938.03,-282.21 929.05,-276.58 927.5,-283.41"/>
<text xml:space="preserve" text-anchor="middle" x="859.87" y="-280.09" font-family="Helvetica,sans-Serif" font-size="9.00">create run / get detail / history</text>
</g>
<!-- RECON_REPO -->
<g id="node15" class="node">
<title>RECON_REPO</title>
<path fill="#fecaca" stroke="black" d="M1709.48,-169.75C1709.48,-172.78 1675.75,-175.25 1634.22,-175.25 1592.7,-175.25 1558.97,-172.78 1558.97,-169.75 1558.97,-169.75 1558.97,-120.25 1558.97,-120.25 1558.97,-117.22 1592.7,-114.75 1634.22,-114.75 1675.75,-114.75 1709.48,-117.22 1709.48,-120.25 1709.48,-120.25 1709.48,-169.75 1709.48,-169.75"/>
<path fill="none" stroke="black" d="M1709.48,-169.75C1709.48,-166.72 1675.75,-164.25 1634.22,-164.25 1592.7,-164.25 1558.97,-166.72 1558.97,-169.75"/>
<text xml:space="preserve" text-anchor="middle" x="1634.22" y="-154" font-family="Helvetica,sans-Serif" font-size="10.00">IReconciliationRunRepository</text>
<text xml:space="preserve" text-anchor="middle" x="1634.22" y="-142" font-family="Helvetica,sans-Serif" font-size="10.00">summary, detail, break queue,</text>
<text xml:space="preserve" text-anchor="middle" x="1634.22" y="-130" font-family="Helvetica,sans-Serif" font-size="10.00">history per run</text>
</g>
<!-- WORKSTATION_API&#45;&gt;RECON_REPO -->
<g id="edge10" class="edge">
<title>WORKSTATION_API&#45;&gt;RECON_REPO</title>
<path fill="none" stroke="#2b6cb0" stroke-dasharray="5,2" d="M775.84,-221.8C857.45,-215.1 990.91,-204.03 1105.99,-194 1282.56,-178.61 1326.71,-174.81 1503.16,-158 1517.47,-156.64 1532.67,-155.15 1547.43,-153.69"/>
<polygon fill="#2b6cb0" stroke="#2b6cb0" points="1547.5,-157.2 1557.1,-152.73 1546.81,-150.23 1547.5,-157.2"/>
<text xml:space="preserve" text-anchor="middle" x="1175.01" y="-194.97" font-family="Helvetica,sans-Serif" font-size="9.00">break queue reads</text>
</g>
<!-- WORKBENCH&#45;&gt;API_CLIENT -->
<g id="edge7" class="edge">
<title>WORKBENCH&#45;&gt;API_CLIENT</title>
<path fill="none" stroke="#4a5568" d="M410.59,-160.25C410.59,-171.77 410.59,-185.98 410.59,-198.42"/>
<polygon fill="#4a5568" stroke="#4a5568" points="407.09,-198.13 410.59,-208.13 414.09,-198.13 407.09,-198.13"/>
<text xml:space="preserve" text-anchor="middle" x="402.19" y="-182.3" font-family="Helvetica,sans-Serif" font-size="9.00">workflow actions</text>
</g>
<!-- RUN_WORKSPACE -->
<g id="node5" class="node">
<title>RUN_WORKSPACE</title>
<path fill="#bfdbfe" stroke="black" d="M770.59,-106C770.59,-106 627.12,-106 627.12,-106 621.12,-106 615.12,-100 615.12,-94 615.12,-94 615.12,-82 615.12,-82 615.12,-76 621.12,-70 627.12,-70 627.12,-70 770.59,-70 770.59,-70 776.59,-70 782.59,-76 782.59,-82 782.59,-82 782.59,-94 782.59,-94 782.59,-100 776.59,-106 770.59,-106"/>
<text xml:space="preserve" text-anchor="middle" x="698.85" y="-91" font-family="Helvetica,sans-Serif" font-size="10.00">StrategyRunWorkspaceService</text>
<text xml:space="preserve" text-anchor="middle" x="698.85" y="-79" font-family="Helvetica,sans-Serif" font-size="10.00">recorded runs + active run context</text>
</g>
<!-- WORKBENCH&#45;&gt;RUN_WORKSPACE -->
<g id="edge6" class="edge">
<title>WORKBENCH&#45;&gt;RUN_WORKSPACE</title>
<path fill="none" stroke="#4a5568" d="M503.35,-121.97C535.39,-116.38 571.38,-110.09 603.62,-104.46"/>
<polygon fill="#4a5568" stroke="#4a5568" points="604.11,-107.93 613.36,-102.76 602.91,-101.03 604.11,-107.93"/>
<text xml:space="preserve" text-anchor="middle" x="559.1" y="-120.18" font-family="Helvetica,sans-Serif" font-size="9.00">run inventory</text>
</g>
<!-- RECON_READ -->
<g id="node6" class="node">
<title>RECON_READ</title>
<path fill="#bfdbfe" stroke="black" d="M754.61,-160C754.61,-160 643.1,-160 643.1,-160 637.1,-160 631.1,-154 631.1,-148 631.1,-148 631.1,-136 631.1,-136 631.1,-130 637.1,-124 643.1,-124 643.1,-124 754.61,-124 754.61,-124 760.61,-124 766.61,-130 766.61,-136 766.61,-136 766.61,-148 766.61,-148 766.61,-154 760.61,-160 754.61,-160"/>
<text xml:space="preserve" text-anchor="middle" x="698.85" y="-145" font-family="Helvetica,sans-Serif" font-size="10.00">ReconciliationReadService</text>
<text xml:space="preserve" text-anchor="middle" x="698.85" y="-133" font-family="Helvetica,sans-Serif" font-size="10.00">fund snapshot assembly</text>
</g>
<!-- WORKBENCH&#45;&gt;RECON_READ -->
<g id="edge4" class="edge">
<title>WORKBENCH&#45;&gt;RECON_READ</title>
<path fill="none" stroke="#4a5568" d="M503.35,-139.28C540.68,-139.8 583.39,-140.4 619.26,-140.9"/>
<polygon fill="#4a5568" stroke="#4a5568" points="619.09,-144.4 629.14,-141.04 619.19,-137.4 619.09,-144.4"/>
<text xml:space="preserve" text-anchor="middle" x="559.1" y="-143.29" font-family="Helvetica,sans-Serif" font-size="9.00">build snapshot</text>
</g>
<!-- FUND_ACCOUNT -->
<g id="node7" class="node">
<title>FUND_ACCOUNT</title>
<path fill="#dbeafe" stroke="black" d="M767.95,-52C767.95,-52 629.76,-52 629.76,-52 623.76,-52 617.76,-46 617.76,-40 617.76,-40 617.76,-28 617.76,-28 617.76,-22 623.76,-16 629.76,-16 629.76,-16 767.95,-16 767.95,-16 773.95,-16 779.95,-22 779.95,-28 779.95,-28 779.95,-40 779.95,-40 779.95,-46 773.95,-52 767.95,-52"/>
<text xml:space="preserve" text-anchor="middle" x="698.85" y="-37" font-family="Helvetica,sans-Serif" font-size="10.00">IFundAccountService</text>
<text xml:space="preserve" text-anchor="middle" x="698.85" y="-25" font-family="Helvetica,sans-Serif" font-size="10.00">account&#45;run reconciliation results</text>
</g>
<!-- WORKBENCH&#45;&gt;FUND_ACCOUNT -->
<g id="edge5" class="edge">
<title>WORKBENCH&#45;&gt;FUND_ACCOUNT</title>
<path fill="none" stroke="#4a5568" d="M461.35,-115.6C479.94,-107.53 501.33,-98.6 521.08,-91.2 555,-78.49 593.18,-65.92 625.35,-55.82"/>
<polygon fill="#4a5568" stroke="#4a5568" points="626.07,-59.26 634.58,-52.94 623.99,-52.58 626.07,-59.26"/>
<text xml:space="preserve" text-anchor="middle" x="559.1" y="-93.9" font-family="Helvetica,sans-Serif" font-size="9.00">account&#45;run details</text>
</g>
<!-- CASH_FLOW -->
<g id="node8" class="node">
<title>CASH_FLOW</title>
<path fill="#dbeafe" stroke="black" d="M1078.7,-111C1078.7,-111 964.43,-111 964.43,-111 958.43,-111 952.43,-105 952.43,-99 952.43,-99 952.43,-87 952.43,-87 952.43,-81 958.43,-75 964.43,-75 964.43,-75 1078.7,-75 1078.7,-75 1084.7,-75 1090.7,-81 1090.7,-87 1090.7,-87 1090.7,-99 1090.7,-99 1090.7,-105 1084.7,-111 1078.7,-111"/>
<text xml:space="preserve" text-anchor="middle" x="1021.57" y="-96" font-family="Helvetica,sans-Serif" font-size="10.00">CashFlowProjectionService</text>
<text xml:space="preserve" text-anchor="middle" x="1021.57" y="-84" font-family="Helvetica,sans-Serif" font-size="10.00">cash ladder side panels</text>
</g>
<!-- RUN_WORKSPACE&#45;&gt;CASH_FLOW -->
<g id="edge8" class="edge">
<title>RUN_WORKSPACE&#45;&gt;CASH_FLOW</title>
<path fill="none" stroke="#4a5568" d="M782.86,-89.29C831.49,-90.05 892.59,-91 940.67,-91.75"/>
<polygon fill="#4a5568" stroke="#4a5568" points="940.4,-95.25 950.46,-91.91 940.51,-88.25 940.4,-95.25"/>
<text xml:space="preserve" text-anchor="middle" x="859.87" y="-94.08" font-family="Helvetica,sans-Serif" font-size="9.00">cash flow detail</text>
</g>
<!-- RECON_READ&#45;&gt;RECON_REPO -->
<g id="edge18" class="edge">
<title>RECON_READ&#45;&gt;RECON_REPO</title>
<path fill="none" stroke="#4a5568" d="M766.98,-142.22C933.1,-142.75 1363.27,-144.13 1547.46,-144.72"/>
<polygon fill="#4a5568" stroke="#4a5568" points="1547.18,-148.22 1557.19,-144.76 1547.2,-141.22 1547.18,-148.22"/>
<text xml:space="preserve" text-anchor="middle" x="1175.01" y="-146.37" font-family="Helvetica,sans-Serif" font-size="9.00">recent reconciliation state</text>
</g>
<!-- RUN_STORE -->
<g id="node14" class="node">
<title>RUN_STORE</title>
<path fill="#fecaca" stroke="black" d="M1701.28,-233C1701.28,-235.21 1671.22,-237 1634.22,-237 1597.22,-237 1567.17,-235.21 1567.17,-233 1567.17,-233 1567.17,-197 1567.17,-197 1567.17,-194.79 1597.22,-193 1634.22,-193 1671.22,-193 1701.28,-194.79 1701.28,-197 1701.28,-197 1701.28,-233 1701.28,-233"/>
<path fill="none" stroke="black" d="M1701.28,-233C1701.28,-230.79 1671.22,-229 1634.22,-229 1597.22,-229 1567.17,-230.79 1567.17,-233"/>
<text xml:space="preserve" text-anchor="middle" x="1634.22" y="-218" font-family="Helvetica,sans-Serif" font-size="10.00">StrategyRunStore</text>
<text xml:space="preserve" text-anchor="middle" x="1634.22" y="-206" font-family="Helvetica,sans-Serif" font-size="10.00">run metrics + ledger inputs</text>
</g>
<!-- CASH_FLOW&#45;&gt;RUN_STORE -->
<g id="edge17" class="edge">
<title>CASH_FLOW&#45;&gt;RUN_STORE</title>
<path fill="none" stroke="#4a5568" d="M1091.09,-101.33C1130.66,-106.49 1181.31,-113.72 1226.04,-122 1341.75,-143.42 1474.4,-175.06 1556,-195.35"/>
<polygon fill="#4a5568" stroke="#4a5568" points="1554.91,-198.68 1565.46,-197.71 1556.6,-191.89 1554.91,-198.68"/>
<text xml:space="preserve" text-anchor="middle" x="1322.07" y="-159.69" font-family="Helvetica,sans-Serif" font-size="9.00">read cash flows</text>
</g>
<!-- RUN_READ -->
<g id="node10" class="node">
<title>RUN_READ</title>
<path fill="#d1fae5" stroke="black" d="M1374.49,-373C1374.49,-373 1269.66,-373 1269.66,-373 1263.66,-373 1257.66,-367 1257.66,-361 1257.66,-361 1257.66,-349 1257.66,-349 1257.66,-343 1263.66,-337 1269.66,-337 1269.66,-337 1374.49,-337 1374.49,-337 1380.49,-337 1386.49,-343 1386.49,-349 1386.49,-349 1386.49,-361 1386.49,-361 1386.49,-367 1380.49,-373 1374.49,-373"/>
<text xml:space="preserve" text-anchor="middle" x="1322.07" y="-358" font-family="Helvetica,sans-Serif" font-size="10.00">StrategyRunReadService</text>
<text xml:space="preserve" text-anchor="middle" x="1322.07" y="-346" font-family="Helvetica,sans-Serif" font-size="10.00">load StrategyRunDetail</text>
</g>
<!-- RUN_SERVICE&#45;&gt;RUN_READ -->
<g id="edge11" class="edge">
<title>RUN_SERVICE&#45;&gt;RUN_READ</title>
<path fill="none" stroke="#4a5568" d="M1106.12,-316.11C1150.13,-324.08 1203.67,-333.76 1246.31,-341.47"/>
<polygon fill="#4a5568" stroke="#4a5568" points="1245.51,-344.89 1255.97,-343.22 1246.76,-338 1245.51,-344.89"/>
<text xml:space="preserve" text-anchor="middle" x="1175.01" y="-340.23" font-family="Helvetica,sans-Serif" font-size="9.00">load strategy run</text>
</g>
<!-- PROJECTION -->
<g id="node11" class="node">
<title>PROJECTION</title>
<path fill="#d1fae5" stroke="black" d="M1388.11,-435C1388.11,-435 1256.04,-435 1256.04,-435 1250.04,-435 1244.04,-429 1244.04,-423 1244.04,-423 1244.04,-403 1244.04,-403 1244.04,-397 1250.04,-391 1256.04,-391 1256.04,-391 1388.11,-391 1388.11,-391 1394.11,-391 1400.11,-397 1400.11,-403 1400.11,-403 1400.11,-423 1400.11,-423 1400.11,-429 1394.11,-435 1388.11,-435"/>
<text xml:space="preserve" text-anchor="middle" x="1322.07" y="-422" font-family="Helvetica,sans-Serif" font-size="10.00">ReconciliationProjectionService</text>
<text xml:space="preserve" text-anchor="middle" x="1322.07" y="-410" font-family="Helvetica,sans-Serif" font-size="10.00">portfolio&#45;vs&#45;ledger checks</text>
<text xml:space="preserve" text-anchor="middle" x="1322.07" y="-398" font-family="Helvetica,sans-Serif" font-size="10.00">optional banking checks</text>
</g>
<!-- RUN_SERVICE&#45;&gt;PROJECTION -->
<g id="edge12" class="edge">
<title>RUN_SERVICE&#45;&gt;PROJECTION</title>
<path fill="none" stroke="#4a5568" d="M1055.73,-319.43C1075.23,-329.82 1100.59,-342.57 1123.99,-352 1158.91,-366.07 1198.39,-378.87 1232.79,-389.07"/>
<polygon fill="#4a5568" stroke="#4a5568" points="1231.73,-392.41 1242.31,-391.87 1233.7,-385.7 1231.73,-392.41"/>
<text xml:space="preserve" text-anchor="middle" x="1175.01" y="-389.45" font-family="Helvetica,sans-Serif" font-size="9.00">build checks</text>
</g>
<!-- BANK_SOURCE -->
<g id="node13" class="node">
<title>BANK_SOURCE</title>
<path fill="#d1fae5" stroke="black" d="M1384.79,-319C1384.79,-319 1259.36,-319 1259.36,-319 1253.36,-319 1247.36,-313 1247.36,-307 1247.36,-307 1247.36,-295 1247.36,-295 1247.36,-289 1253.36,-283 1259.36,-283 1259.36,-283 1384.79,-283 1384.79,-283 1390.79,-283 1396.79,-289 1396.79,-295 1396.79,-295 1396.79,-307 1396.79,-307 1396.79,-313 1390.79,-319 1384.79,-319"/>
<text xml:space="preserve" text-anchor="middle" x="1322.07" y="-304" font-family="Helvetica,sans-Serif" font-size="10.00">IBankTransactionSource</text>
<text xml:space="preserve" text-anchor="middle" x="1322.07" y="-292" font-family="Helvetica,sans-Serif" font-size="10.00">optional bank transaction feed</text>
</g>
<!-- RUN_SERVICE&#45;&gt;BANK_SOURCE -->
<g id="edge13" class="edge">
<title>RUN_SERVICE&#45;&gt;BANK_SOURCE</title>
<path fill="none" stroke="#38a169" stroke-dasharray="5,2" d="M1106.12,-301C1146.63,-301 1195.22,-301 1235.95,-301"/>
<polygon fill="#38a169" stroke="#38a169" points="1235.7,-304.5 1245.7,-301 1235.7,-297.5 1235.7,-304.5"/>
<text xml:space="preserve" text-anchor="middle" x="1175.01" y="-303.7" font-family="Helvetica,sans-Serif" font-size="9.00">optional bank data</text>
</g>
<!-- RUN_SERVICE&#45;&gt;RECON_REPO -->
<g id="edge15" class="edge">
<title>RUN_SERVICE&#45;&gt;RECON_REPO</title>
<path fill="none" stroke="#4a5568" d="M1106.4,-286.46C1147.81,-279.34 1198.53,-270.7 1244.04,-263.2 1359.1,-244.23 1409.84,-291.92 1503.16,-222 1518.12,-210.79 1507.26,-196.49 1521.16,-184 1529.12,-176.85 1538.47,-171 1548.31,-166.21"/>
<polygon fill="#4a5568" stroke="#4a5568" points="1549.6,-169.46 1557.32,-162.2 1546.76,-163.06 1549.6,-169.46"/>
<text xml:space="preserve" text-anchor="middle" x="1322.07" y="-265.9" font-family="Helvetica,sans-Serif" font-size="9.00">save summary + detail</text>
</g>
<!-- RUN_READ&#45;&gt;RUN_STORE -->
<g id="edge16" class="edge">
<title>RUN_READ&#45;&gt;RUN_STORE</title>
<path fill="none" stroke="#4a5568" d="M1378.07,-336.59C1385.53,-333.84 1393.04,-330.94 1400.11,-328 1434.48,-313.7 1521.9,-270.63 1579.37,-241.99"/>
<polygon fill="#4a5568" stroke="#4a5568" points="1580.64,-245.27 1588.02,-237.67 1577.51,-239 1580.64,-245.27"/>
<text xml:space="preserve" text-anchor="middle" x="1460.63" y="-322.16" font-family="Helvetica,sans-Serif" font-size="9.00">read portfolio / ledger</text>
</g>
<!-- FSHARP_ENGINE -->
<g id="node12" class="node">
<title>FSHARP_ENGINE</title>
<path fill="#6ee7b7" stroke="black" d="M1735.29,-431C1735.29,-431 1533.16,-431 1533.16,-431 1527.16,-431 1521.16,-425 1521.16,-419 1521.16,-419 1521.16,-407 1521.16,-407 1521.16,-401 1527.16,-395 1533.16,-395 1533.16,-395 1735.29,-395 1735.29,-395 1741.29,-395 1747.29,-401 1747.29,-407 1747.29,-407 1747.29,-419 1747.29,-419 1747.29,-425 1741.29,-431 1735.29,-431"/>
<text xml:space="preserve" text-anchor="middle" x="1634.22" y="-416" font-family="Helvetica,sans-Serif" font-size="10.00">LedgerInterop.ReconcilePortfolioLedgerChecks</text>
<text xml:space="preserve" text-anchor="middle" x="1634.22" y="-404" font-family="Helvetica,sans-Serif" font-size="10.00">F# reconciliation rules</text>
</g>
<!-- PROJECTION&#45;&gt;FSHARP_ENGINE -->
<g id="edge14" class="edge">
<title>PROJECTION&#45;&gt;FSHARP_ENGINE</title>
<path fill="none" stroke="#4a5568" d="M1400.54,-413C1433.47,-413 1472.68,-413 1509.45,-413"/>
<polygon fill="#4a5568" stroke="#4a5568" points="1509.26,-416.5 1519.26,-413 1509.26,-409.5 1509.26,-416.5"/>
<text xml:space="preserve" text-anchor="middle" x="1460.63" y="-415.7" font-family="Helvetica,sans-Serif" font-size="9.00">reconcile check set</text>
</g>
<!-- LEG_UI -->
<g id="node16" class="node">
<title>LEG_UI</title>
<path fill="#805ad5" stroke="black" d="M132.56,-332C132.56,-332 65.52,-332 65.52,-332 59.52,-332 53.52,-326 53.52,-320 53.52,-320 53.52,-308 53.52,-308 53.52,-302 59.52,-296 65.52,-296 65.52,-296 132.56,-296 132.56,-296 138.56,-296 144.56,-302 144.56,-308 144.56,-308 144.56,-320 144.56,-320 144.56,-326 138.56,-332 132.56,-332"/>
<text xml:space="preserve" text-anchor="middle" x="99.04" y="-311" font-family="Helvetica,sans-Serif" font-size="10.00" fill="white">Operator surface</text>
</g>
<!-- LEG_APP -->
<g id="node17" class="node">
<title>LEG_APP</title>
<path fill="#93c5fd" stroke="black" d="M137.56,-386C137.56,-386 60.53,-386 60.53,-386 54.53,-386 48.53,-380 48.53,-374 48.53,-374 48.53,-362 48.53,-362 48.53,-356 54.53,-350 60.53,-350 60.53,-350 137.56,-350 137.56,-350 143.56,-350 149.56,-356 149.56,-362 149.56,-362 149.56,-374 149.56,-374 149.56,-380 143.56,-386 137.56,-386"/>
<text xml:space="preserve" text-anchor="middle" x="99.04" y="-365" font-family="Helvetica,sans-Serif" font-size="10.00">Workbench service</text>
</g>
<!-- LEG_ENGINE -->
<g id="node18" class="node">
<title>LEG_ENGINE</title>
<path fill="#a7f3d0" stroke="black" d="M142.57,-440C142.57,-440 55.51,-440 55.51,-440 49.51,-440 43.51,-434 43.51,-428 43.51,-428 43.51,-416 43.51,-416 43.51,-410 49.51,-404 55.51,-404 55.51,-404 142.57,-404 142.57,-404 148.57,-404 154.57,-410 154.57,-416 154.57,-416 154.57,-428 154.57,-428 154.57,-434 148.57,-440 142.57,-440"/>
<text xml:space="preserve" text-anchor="middle" x="99.04" y="-419" font-family="Helvetica,sans-Serif" font-size="10.00">Reconciliation engine</text>
</g>
<!-- LEG_STORE -->
<g id="node19" class="node">
<title>LEG_STORE</title>
<path fill="#fecaca" stroke="black" d="M140.11,-490.73C140.11,-492.53 121.7,-494 99.04,-494 76.38,-494 57.97,-492.53 57.97,-490.73 57.97,-490.73 57.97,-461.27 57.97,-461.27 57.97,-459.47 76.38,-458 99.04,-458 121.7,-458 140.11,-459.47 140.11,-461.27 140.11,-461.27 140.11,-490.73 140.11,-490.73"/>
<path fill="none" stroke="black" d="M140.11,-490.73C140.11,-488.92 121.7,-487.45 99.04,-487.45 76.38,-487.45 57.97,-488.92 57.97,-490.73"/>
<text xml:space="preserve" text-anchor="middle" x="99.04" y="-473" font-family="Helvetica,sans-Serif" font-size="10.00">Persisted state</text>
</g>
</g>
</svg>
