<?xml version="1.0" encoding="UTF-8" standalone="no"?>
<!DOCTYPE svg PUBLIC "-//W3C//DTD SVG 1.1//EN"
 "http://www.w3.org/Graphics/SVG/1.1/DTD/svg11.dtd">
<!-- Generated by graphviz version 2.43.0 (0)
 -->
<!-- Title: FundOpsReconciliation Pages: 1 -->
<svg width="1996pt" height="633pt"
 viewBox="0.00 0.00 1996.00 633.00" xmlns="http://www.w3.org/2000/svg" xmlns:xlink="http://www.w3.org/1999/xlink">
<g id="graph0" class="graph" transform="scale(1 1) rotate(0) translate(36 597)">
<title>FundOpsReconciliation</title>
<polygon fill="white" stroke="transparent" points="-36,36 -36,-597 1960,-597 1960,36 -36,36"/>
<text text-anchor="middle" x="962" y="-547.4" font-family="Helvetica,sans-Serif" font-size="12.00">Meridian &#45; Fund Ops and Reconciliation</text>
<text text-anchor="middle" x="962" y="-534.4" font-family="Helvetica,sans-Serif" font-size="12.00">Governance workspace, reconciliation engine, and review loop | v1.8.x</text>
<g id="clust1" class="cluster">
<title>cluster_surfaces</title>
<path fill="#faf5ff" stroke="#805ad5" d="M20,-197C20,-197 838.5,-197 838.5,-197 844.5,-197 850.5,-203 850.5,-209 850.5,-209 850.5,-264 850.5,-264 850.5,-270 844.5,-276 838.5,-276 838.5,-276 20,-276 20,-276 14,-276 8,-270 8,-264 8,-264 8,-209 8,-209 8,-203 14,-197 20,-197"/>
<text text-anchor="middle" x="429.25" y="-262.4" font-family="Helvetica,sans-Serif" font-size="12.00">Governance Surfaces</text>
</g>
<g id="clust2" class="cluster">
<title>cluster_workbench</title>
<path fill="#dbeafe" stroke="#2b6cb0" d="M344,-8C344,-8 1185.5,-8 1185.5,-8 1191.5,-8 1197.5,-14 1197.5,-20 1197.5,-20 1197.5,-177 1197.5,-177 1197.5,-183 1191.5,-189 1185.5,-189 1185.5,-189 344,-189 344,-189 338,-189 332,-183 332,-177 332,-177 332,-20 332,-20 332,-14 338,-8 344,-8"/>
<text text-anchor="middle" x="764.75" y="-175.4" font-family="Helvetica,sans-Serif" font-size="12.00">Workbench and Read Models</text>
</g>
<g id="clust3" class="cluster">
<title>cluster_engine</title>
<path fill="#f0fff4" stroke="#38a169" d="M1028,-273C1028,-273 1904,-273 1904,-273 1910,-273 1916,-279 1916,-285 1916,-285 1916,-448 1916,-448 1916,-454 1910,-460 1904,-460 1904,-460 1028,-460 1028,-460 1022,-460 1016,-454 1016,-448 1016,-448 1016,-285 1016,-285 1016,-279 1022,-273 1028,-273"/>
<text text-anchor="middle" x="1466" y="-446.4" font-family="Helvetica,sans-Serif" font-size="12.00">Reconciliation Engine</text>
</g>
<g id="clust4" class="cluster">
<title>cluster_state</title>
<path fill="#fff5f5" stroke="#c53030" d="M1706.5,-112C1706.5,-112 1865.5,-112 1865.5,-112 1871.5,-112 1877.5,-118 1877.5,-124 1877.5,-124 1877.5,-253 1877.5,-253 1877.5,-259 1871.5,-265 1865.5,-265 1865.5,-265 1706.5,-265 1706.5,-265 1700.5,-265 1694.5,-259 1694.5,-253 1694.5,-253 1694.5,-124 1694.5,-124 1694.5,-118 1700.5,-112 1706.5,-112"/>
<text text-anchor="middle" x="1786" y="-251.4" font-family="Helvetica,sans-Serif" font-size="12.00">Persisted State</text>
</g>
<g id="clust5" class="cluster">
<title>cluster_legend</title>
<path fill="#fafafa" stroke="#666666" d="M47,-284C47,-284 161,-284 161,-284 167,-284 173,-290 173,-296 173,-296 173,-507 173,-507 173,-513 167,-519 161,-519 161,-519 47,-519 47,-519 41,-519 35,-513 35,-507 35,-507 35,-296 35,-296 35,-290 41,-284 47,-284"/>
<text text-anchor="middle" x="104" y="-505.4" font-family="Helvetica,sans-Serif" font-size="12.00">Legend</text>
</g>
<!-- GOVERNANCE_UI -->
<g id="node1" class="node">
<title>GOVERNANCE_UI</title>
<path fill="#805ad5" stroke="black" d="M180,-246.5C180,-246.5 28,-246.5 28,-246.5 22,-246.5 16,-240.5 16,-234.5 16,-234.5 16,-217.5 16,-217.5 16,-211.5 22,-205.5 28,-205.5 28,-205.5 180,-205.5 180,-205.5 186,-205.5 192,-211.5 192,-217.5 192,-217.5 192,-234.5 192,-234.5 192,-240.5 186,-246.5 180,-246.5"/>
<text text-anchor="middle" x="104" y="-234.5" font-family="Helvetica,sans-Serif" font-size="10.00" fill="white">Governance workspace</text>
<text text-anchor="middle" x="104" y="-223.5" font-family="Helvetica,sans-Serif" font-size="10.00" fill="white">GovernanceWorkspaceShellPage</text>
<text text-anchor="middle" x="104" y="-212.5" font-family="Helvetica,sans-Serif" font-size="10.00" fill="white">FundLedgerViewModel</text>
</g>
<!-- API_CLIENT -->
<g id="node2" class="node">
<title>API_CLIENT</title>
<path fill="#c4b5fd" stroke="black" d="M523,-244C523,-244 356,-244 356,-244 350,-244 344,-238 344,-232 344,-232 344,-220 344,-220 344,-214 350,-208 356,-208 356,-208 523,-208 523,-208 529,-208 535,-214 535,-220 535,-220 535,-232 535,-232 535,-238 529,-244 523,-244"/>
<text text-anchor="middle" x="439.5" y="-229" font-family="Helvetica,sans-Serif" font-size="10.00">IWorkstationReconciliationApiClient</text>
<text text-anchor="middle" x="439.5" y="-218" font-family="Helvetica,sans-Serif" font-size="10.00">review / resolve / dismiss</text>
</g>
<!-- GOVERNANCE_UI&#45;&gt;API_CLIENT -->
<g id="edge2" class="edge">
<title>GOVERNANCE_UI&#45;&gt;API_CLIENT</title>
<path fill="none" stroke="#4a5568" d="M192.19,-226C235.52,-226 288.21,-226 333.72,-226"/>
<polygon fill="#4a5568" stroke="#4a5568" points="333.92,-229.5 343.92,-226 333.92,-222.5 333.92,-229.5"/>
<text text-anchor="middle" x="266" y="-228.8" font-family="Helvetica,sans-Serif" font-size="9.00">review / resolve / dismiss</text>
</g>
<!-- WORKBENCH -->
<g id="node4" class="node">
<title>WORKBENCH</title>
<path fill="#93c5fd" stroke="black" d="M527,-159.5C527,-159.5 352,-159.5 352,-159.5 346,-159.5 340,-153.5 340,-147.5 340,-147.5 340,-130.5 340,-130.5 340,-124.5 346,-118.5 352,-118.5 352,-118.5 527,-118.5 527,-118.5 533,-118.5 539,-124.5 539,-130.5 539,-130.5 539,-147.5 539,-147.5 539,-153.5 533,-159.5 527,-159.5"/>
<text text-anchor="middle" x="439.5" y="-147.5" font-family="Helvetica,sans-Serif" font-size="10.00">FundReconciliationWorkbenchService</text>
<text text-anchor="middle" x="439.5" y="-136.5" font-family="Helvetica,sans-Serif" font-size="10.00">compose snapshot + break queue</text>
<text text-anchor="middle" x="439.5" y="-125.5" font-family="Helvetica,sans-Serif" font-size="10.00">operator actions</text>
</g>
<!-- GOVERNANCE_UI&#45;&gt;WORKBENCH -->
<g id="edge1" class="edge">
<title>GOVERNANCE_UI&#45;&gt;WORKBENCH</title>
<path fill="none" stroke="#4a5568" d="M183.61,-205.49C233.54,-192.47 298.27,-175.58 350.01,-162.09"/>
<polygon fill="#4a5568" stroke="#4a5568" points="351.05,-165.43 359.84,-159.52 349.28,-158.66 351.05,-165.43"/>
<text text-anchor="middle" x="266" y="-199.8" font-family="Helvetica,sans-Serif" font-size="9.00">open workspace</text>
</g>
<!-- WORKSTATION_API -->
<g id="node3" class="node">
<title>WORKSTATION_API</title>
<path fill="#c4b5fd" stroke="black" d="M830.5,-246.5C830.5,-246.5 681.5,-246.5 681.5,-246.5 675.5,-246.5 669.5,-240.5 669.5,-234.5 669.5,-234.5 669.5,-217.5 669.5,-217.5 669.5,-211.5 675.5,-205.5 681.5,-205.5 681.5,-205.5 830.5,-205.5 830.5,-205.5 836.5,-205.5 842.5,-211.5 842.5,-217.5 842.5,-217.5 842.5,-234.5 842.5,-234.5 842.5,-240.5 836.5,-246.5 830.5,-246.5"/>
<text text-anchor="middle" x="756" y="-234.5" font-family="Helvetica,sans-Serif" font-size="10.00">WorkstationEndpoints</text>
<text text-anchor="middle" x="756" y="-223.5" font-family="Helvetica,sans-Serif" font-size="10.00">/api/workstation/reconciliation/*</text>
<text text-anchor="middle" x="756" y="-212.5" font-family="Helvetica,sans-Serif" font-size="10.00">/api/workstation/runs/*</text>
</g>
<!-- API_CLIENT&#45;&gt;WORKSTATION_API -->
<g id="edge3" class="edge">
<title>API_CLIENT&#45;&gt;WORKSTATION_API</title>
<path fill="none" stroke="#4a5568" d="M535.29,-226C574.47,-226 619.83,-226 659.13,-226"/>
<polygon fill="#4a5568" stroke="#4a5568" points="659.24,-229.5 669.24,-226 659.24,-222.5 659.24,-229.5"/>
<text text-anchor="middle" x="601" y="-228.8" font-family="Helvetica,sans-Serif" font-size="9.00">HTTP calls</text>
</g>
<!-- RUN_SERVICE -->
<g id="node9" class="node">
<title>RUN_SERVICE</title>
<path fill="#a7f3d0" stroke="black" d="M1194,-317C1194,-317 1036,-317 1036,-317 1030,-317 1024,-311 1024,-305 1024,-305 1024,-293 1024,-293 1024,-287 1030,-281 1036,-281 1036,-281 1194,-281 1194,-281 1200,-281 1206,-287 1206,-293 1206,-293 1206,-305 1206,-305 1206,-311 1200,-317 1194,-317"/>
<text text-anchor="middle" x="1115" y="-302" font-family="Helvetica,sans-Serif" font-size="10.00">ReconciliationRunService</text>
<text text-anchor="middle" x="1115" y="-291" font-family="Helvetica,sans-Serif" font-size="10.00">RunAsync / GetLatest / GetHistory</text>
</g>
<!-- WORKSTATION_API&#45;&gt;RUN_SERVICE -->
<g id="edge9" class="edge">
<title>WORKSTATION_API&#45;&gt;RUN_SERVICE</title>
<path fill="none" stroke="#4a5568" d="M842.51,-243.49C894.65,-254.15 961.48,-267.81 1015.78,-278.92"/>
<polygon fill="#4a5568" stroke="#4a5568" points="1015.27,-282.38 1025.77,-280.96 1016.68,-275.53 1015.27,-282.38"/>
<text text-anchor="middle" x="936.5" y="-277.8" font-family="Helvetica,sans-Serif" font-size="9.00">create run / get detail / history</text>
</g>
<!-- RECON_REPO -->
<g id="node15" class="node">
<title>RECON_REPO</title>
<path fill="#fecaca" stroke="black" d="M1869.5,-171.22C1869.5,-174.06 1832.07,-176.38 1786,-176.38 1739.93,-176.38 1702.5,-174.06 1702.5,-171.22 1702.5,-171.22 1702.5,-124.78 1702.5,-124.78 1702.5,-121.94 1739.93,-119.62 1786,-119.62 1832.07,-119.62 1869.5,-121.94 1869.5,-124.78 1869.5,-124.78 1869.5,-171.22 1869.5,-171.22"/>
<path fill="none" stroke="black" d="M1869.5,-171.22C1869.5,-168.37 1832.07,-166.06 1786,-166.06 1739.93,-166.06 1702.5,-168.37 1702.5,-171.22"/>
<text text-anchor="middle" x="1786" y="-156.5" font-family="Helvetica,sans-Serif" font-size="10.00">IReconciliationRunRepository</text>
<text text-anchor="middle" x="1786" y="-145.5" font-family="Helvetica,sans-Serif" font-size="10.00">summary, detail, break queue,</text>
<text text-anchor="middle" x="1786" y="-134.5" font-family="Helvetica,sans-Serif" font-size="10.00">history per run</text>
</g>
<!-- WORKSTATION_API&#45;&gt;RECON_REPO -->
<g id="edge10" class="edge">
<title>WORKSTATION_API&#45;&gt;RECON_REPO</title>
<path fill="none" stroke="#2b6cb0" stroke-dasharray="5,2" d="M842.54,-220.01C1001.05,-208.84 1351.16,-183.78 1646,-160 1660.95,-158.79 1676.81,-157.47 1692.25,-156.15"/>
<polygon fill="#2b6cb0" stroke="#2b6cb0" points="1692.66,-159.63 1702.32,-155.29 1692.06,-152.66 1692.66,-159.63"/>
<text text-anchor="middle" x="1283" y="-194.8" font-family="Helvetica,sans-Serif" font-size="9.00">break queue reads</text>
</g>
<!-- WORKBENCH&#45;&gt;API_CLIENT -->
<g id="edge7" class="edge">
<title>WORKBENCH&#45;&gt;API_CLIENT</title>
<path fill="none" stroke="#4a5568" d="M439.5,-159.62C439.5,-170.97 439.5,-185.22 439.5,-197.61"/>
<polygon fill="#4a5568" stroke="#4a5568" points="436,-197.89 439.5,-207.89 443,-197.89 436,-197.89"/>
<text text-anchor="middle" x="431.5" y="-181.55" font-family="Helvetica,sans-Serif" font-size="9.00">workflow actions</text>
</g>
<!-- RUN_WORKSPACE -->
<g id="node5" class="node">
<title>RUN_WORKSPACE</title>
<path fill="#bfdbfe" stroke="black" d="M837,-106C837,-106 675,-106 675,-106 669,-106 663,-100 663,-94 663,-94 663,-82 663,-82 663,-76 669,-70 675,-70 675,-70 837,-70 837,-70 843,-70 849,-76 849,-82 849,-82 849,-94 849,-94 849,-100 843,-106 837,-106"/>
<text text-anchor="middle" x="756" y="-91" font-family="Helvetica,sans-Serif" font-size="10.00">StrategyRunWorkspaceService</text>
<text text-anchor="middle" x="756" y="-80" font-family="Helvetica,sans-Serif" font-size="10.00">recorded runs + active run context</text>
</g>
<!-- WORKBENCH&#45;&gt;RUN_WORKSPACE -->
<g id="edge6" class="edge">
<title>WORKBENCH&#45;&gt;RUN_WORKSPACE</title>
<path fill="none" stroke="#4a5568" d="M539.15,-123C575.29,-117.14 616.25,-110.5 652.71,-104.59"/>
<polygon fill="#4a5568" stroke="#4a5568" points="653.55,-108 662.86,-102.94 652.43,-101.09 653.55,-108"/>
<text text-anchor="middle" x="601" y="-122.8" font-family="Helvetica,sans-Serif" font-size="9.00">run inventory</text>
</g>
<!-- RECON_READ -->
<g id="node6" class="node">
<title>RECON_READ</title>
<path fill="#bfdbfe" stroke="black" d="M817,-160C817,-160 695,-160 695,-160 689,-160 683,-154 683,-148 683,-148 683,-136 683,-136 683,-130 689,-124 695,-124 695,-124 817,-124 817,-124 823,-124 829,-130 829,-136 829,-136 829,-148 829,-148 829,-154 823,-160 817,-160"/>
<text text-anchor="middle" x="756" y="-145" font-family="Helvetica,sans-Serif" font-size="10.00">ReconciliationReadService</text>
<text text-anchor="middle" x="756" y="-134" font-family="Helvetica,sans-Serif" font-size="10.00">fund snapshot assembly</text>
</g>
<!-- WORKBENCH&#45;&gt;RECON_READ -->
<g id="edge4" class="edge">
<title>WORKBENCH&#45;&gt;RECON_READ</title>
<path fill="none" stroke="#4a5568" d="M539.15,-139.94C581.99,-140.35 631.61,-140.82 672.46,-141.21"/>
<polygon fill="#4a5568" stroke="#4a5568" points="672.62,-144.71 682.65,-141.31 672.69,-137.71 672.62,-144.71"/>
<text text-anchor="middle" x="601" y="-142.8" font-family="Helvetica,sans-Serif" font-size="9.00">build snapshot</text>
</g>
<!-- FUND_ACCOUNT -->
<g id="node7" class="node">
<title>FUND_ACCOUNT</title>
<path fill="#dbeafe" stroke="black" d="M833.5,-52C833.5,-52 678.5,-52 678.5,-52 672.5,-52 666.5,-46 666.5,-40 666.5,-40 666.5,-28 666.5,-28 666.5,-22 672.5,-16 678.5,-16 678.5,-16 833.5,-16 833.5,-16 839.5,-16 845.5,-22 845.5,-28 845.5,-28 845.5,-40 845.5,-40 845.5,-46 839.5,-52 833.5,-52"/>
<text text-anchor="middle" x="756" y="-37" font-family="Helvetica,sans-Serif" font-size="10.00">IFundAccountService</text>
<text text-anchor="middle" x="756" y="-26" font-family="Helvetica,sans-Serif" font-size="10.00">account&#45;run reconciliation results</text>
</g>
<!-- WORKBENCH&#45;&gt;FUND_ACCOUNT -->
<g id="edge5" class="edge">
<title>WORKBENCH&#45;&gt;FUND_ACCOUNT</title>
<path fill="none" stroke="#4a5568" d="M488.28,-118.49C509.19,-109.83 534.13,-99.94 557,-92 596.29,-78.36 640.68,-65.16 677.45,-54.8"/>
<polygon fill="#4a5568" stroke="#4a5568" points="678.43,-58.16 687.12,-52.1 676.55,-51.42 678.43,-58.16"/>
<text text-anchor="middle" x="601" y="-94.8" font-family="Helvetica,sans-Serif" font-size="9.00">account&#45;run details</text>
</g>
<!-- CASH_FLOW -->
<g id="node8" class="node">
<title>CASH_FLOW</title>
<path fill="#dbeafe" stroke="black" d="M1177.5,-111C1177.5,-111 1052.5,-111 1052.5,-111 1046.5,-111 1040.5,-105 1040.5,-99 1040.5,-99 1040.5,-87 1040.5,-87 1040.5,-81 1046.5,-75 1052.5,-75 1052.5,-75 1177.5,-75 1177.5,-75 1183.5,-75 1189.5,-81 1189.5,-87 1189.5,-87 1189.5,-99 1189.5,-99 1189.5,-105 1183.5,-111 1177.5,-111"/>
<text text-anchor="middle" x="1115" y="-96" font-family="Helvetica,sans-Serif" font-size="10.00">CashFlowProjectionService</text>
<text text-anchor="middle" x="1115" y="-85" font-family="Helvetica,sans-Serif" font-size="10.00">cash ladder side panels</text>
</g>
<!-- RUN_WORKSPACE&#45;&gt;CASH_FLOW -->
<g id="edge8" class="edge">
<title>RUN_WORKSPACE&#45;&gt;CASH_FLOW</title>
<path fill="none" stroke="#4a5568" d="M849.4,-89.29C905.2,-90.08 975.76,-91.06 1029.98,-91.82"/>
<polygon fill="#4a5568" stroke="#4a5568" points="1030.21,-95.33 1040.25,-91.97 1030.3,-88.33 1030.21,-95.33"/>
<text text-anchor="middle" x="936.5" y="-94.8" font-family="Helvetica,sans-Serif" font-size="9.00">cash flow detail</text>
</g>
<!-- RECON_READ&#45;&gt;RECON_REPO -->
<g id="edge18" class="edge">
<title>RECON_READ&#45;&gt;RECON_REPO</title>
<path fill="none" stroke="#4a5568" d="M829.29,-142.42C1011.53,-143.49 1489.63,-146.28 1692.18,-147.46"/>
<polygon fill="#4a5568" stroke="#4a5568" points="1692.18,-150.96 1702.2,-147.52 1692.23,-143.96 1692.18,-150.96"/>
<text text-anchor="middle" x="1283" y="-147.8" font-family="Helvetica,sans-Serif" font-size="9.00">recent reconciliation state</text>
</g>
<!-- RUN_STORE -->
<g id="node14" class="node">
<title>RUN_STORE</title>
<path fill="#fecaca" stroke="black" d="M1861,-231.98C1861,-234.06 1827.38,-235.75 1786,-235.75 1744.62,-235.75 1711,-234.06 1711,-231.98 1711,-231.98 1711,-198.02 1711,-198.02 1711,-195.94 1744.62,-194.25 1786,-194.25 1827.38,-194.25 1861,-195.94 1861,-198.02 1861,-198.02 1861,-231.98 1861,-231.98"/>
<path fill="none" stroke="black" d="M1861,-231.98C1861,-229.9 1827.38,-228.21 1786,-228.21 1744.62,-228.21 1711,-229.9 1711,-231.98"/>
<text text-anchor="middle" x="1786" y="-218" font-family="Helvetica,sans-Serif" font-size="10.00">StrategyRunStore</text>
<text text-anchor="middle" x="1786" y="-207" font-family="Helvetica,sans-Serif" font-size="10.00">run metrics + ledger inputs</text>
</g>
<!-- CASH_FLOW&#45;&gt;RUN_STORE -->
<g id="edge17" class="edge">
<title>CASH_FLOW&#45;&gt;RUN_STORE</title>
<path fill="none" stroke="#4a5568" d="M1189.73,-101.86C1233.99,-107.49 1291.35,-115.33 1342,-124 1467.56,-145.48 1611.91,-176.29 1700.8,-195.97"/>
<polygon fill="#4a5568" stroke="#4a5568" points="1700.3,-199.44 1710.82,-198.19 1701.82,-192.61 1700.3,-199.44"/>
<text text-anchor="middle" x="1445" y="-160.8" font-family="Helvetica,sans-Serif" font-size="9.00">read cash flows</text>
</g>
<!-- RUN_READ -->
<g id="node10" class="node">
<title>RUN_READ</title>
<path fill="#d1fae5" stroke="black" d="M1501.5,-371C1501.5,-371 1388.5,-371 1388.5,-371 1382.5,-371 1376.5,-365 1376.5,-359 1376.5,-359 1376.5,-347 1376.5,-347 1376.5,-341 1382.5,-335 1388.5,-335 1388.5,-335 1501.5,-335 1501.5,-335 1507.5,-335 1513.5,-341 1513.5,-347 1513.5,-347 1513.5,-359 1513.5,-359 1513.5,-365 1507.5,-371 1501.5,-371"/>
<text text-anchor="middle" x="1445" y="-356" font-family="Helvetica,sans-Serif" font-size="10.00">StrategyRunReadService</text>
<text text-anchor="middle" x="1445" y="-345" font-family="Helvetica,sans-Serif" font-size="10.00">load StrategyRunDetail</text>
</g>
<!-- RUN_SERVICE&#45;&gt;RUN_READ -->
<g id="edge11" class="edge">
<title>RUN_SERVICE&#45;&gt;RUN_READ</title>
<path fill="none" stroke="#4a5568" d="M1206.06,-313.83C1256.26,-322.09 1318.14,-332.28 1366.21,-340.19"/>
<polygon fill="#4a5568" stroke="#4a5568" points="1365.82,-343.68 1376.25,-341.85 1366.95,-336.77 1365.82,-343.68"/>
<text text-anchor="middle" x="1283" y="-337.8" font-family="Helvetica,sans-Serif" font-size="9.00">load strategy run</text>
</g>
<!-- PROJECTION -->
<g id="node11" class="node">
<title>PROJECTION</title>
<path fill="#d1fae5" stroke="black" d="M1518,-430.5C1518,-430.5 1372,-430.5 1372,-430.5 1366,-430.5 1360,-424.5 1360,-418.5 1360,-418.5 1360,-401.5 1360,-401.5 1360,-395.5 1366,-389.5 1372,-389.5 1372,-389.5 1518,-389.5 1518,-389.5 1524,-389.5 1530,-395.5 1530,-401.5 1530,-401.5 1530,-418.5 1530,-418.5 1530,-424.5 1524,-430.5 1518,-430.5"/>
<text text-anchor="middle" x="1445" y="-418.5" font-family="Helvetica,sans-Serif" font-size="10.00">ReconciliationProjectionService</text>
<text text-anchor="middle" x="1445" y="-407.5" font-family="Helvetica,sans-Serif" font-size="10.00">portfolio&#45;vs&#45;ledger checks</text>
<text text-anchor="middle" x="1445" y="-396.5" font-family="Helvetica,sans-Serif" font-size="10.00">optional banking checks</text>
</g>
<!-- RUN_SERVICE&#45;&gt;PROJECTION -->
<g id="edge12" class="edge">
<title>RUN_SERVICE&#45;&gt;PROJECTION</title>
<path fill="none" stroke="#4a5568" d="M1151.38,-317.16C1172.17,-327.38 1199.17,-339.88 1224,-349 1264.64,-363.93 1310.66,-377.23 1350.06,-387.56"/>
<polygon fill="#4a5568" stroke="#4a5568" points="1349.37,-391 1359.93,-390.13 1351.13,-384.22 1349.37,-391"/>
<text text-anchor="middle" x="1283" y="-386.8" font-family="Helvetica,sans-Serif" font-size="9.00">build checks</text>
</g>
<!-- BANK_SOURCE -->
<g id="node13" class="node">
<title>BANK_SOURCE</title>
<path fill="#d1fae5" stroke="black" d="M1516,-317C1516,-317 1374,-317 1374,-317 1368,-317 1362,-311 1362,-305 1362,-305 1362,-293 1362,-293 1362,-287 1368,-281 1374,-281 1374,-281 1516,-281 1516,-281 1522,-281 1528,-287 1528,-293 1528,-293 1528,-305 1528,-305 1528,-311 1522,-317 1516,-317"/>
<text text-anchor="middle" x="1445" y="-302" font-family="Helvetica,sans-Serif" font-size="10.00">IBankTransactionSource</text>
<text text-anchor="middle" x="1445" y="-291" font-family="Helvetica,sans-Serif" font-size="10.00">optional bank transaction feed</text>
</g>
<!-- RUN_SERVICE&#45;&gt;BANK_SOURCE -->
<g id="edge13" class="edge">
<title>RUN_SERVICE&#45;&gt;BANK_SOURCE</title>
<path fill="none" stroke="#38a169" stroke-dasharray="5,2" d="M1206.06,-299C1251.37,-299 1306.21,-299 1351.82,-299"/>
<polygon fill="#38a169" stroke="#38a169" points="1352,-302.5 1362,-299 1352,-295.5 1352,-302.5"/>
<text text-anchor="middle" x="1283" y="-301.8" font-family="Helvetica,sans-Serif" font-size="9.00">optional bank data</text>
</g>
<!-- RUN_SERVICE&#45;&gt;RECON_REPO -->
<g id="edge15" class="edge">
<title>RUN_SERVICE&#45;&gt;RECON_REPO</title>
<path fill="none" stroke="#4a5568" d="M1206.07,-285.16C1252.11,-278.14 1309.03,-269.52 1360,-262 1423.52,-252.63 1593.92,-258.55 1646,-221 1660.51,-210.54 1650.34,-196.55 1664,-185 1672.56,-177.76 1682.52,-171.94 1692.98,-167.25"/>
<polygon fill="#4a5568" stroke="#4a5568" points="1694.36,-170.47 1702.28,-163.42 1691.7,-163.99 1694.36,-170.47"/>
<text text-anchor="middle" x="1445" y="-264.8" font-family="Helvetica,sans-Serif" font-size="9.00">save summary + detail</text>
</g>
<!-- RUN_READ&#45;&gt;RUN_STORE -->
<g id="edge16" class="edge">
<title>RUN_READ&#45;&gt;RUN_STORE</title>
<path fill="none" stroke="#4a5568" d="M1505,-334.86C1513.44,-332.02 1521.97,-329.03 1530,-326 1549.63,-318.59 1660.17,-270.07 1729.11,-239.68"/>
<polygon fill="#4a5568" stroke="#4a5568" points="1730.81,-242.76 1738.55,-235.52 1727.99,-236.35 1730.81,-242.76"/>
<text text-anchor="middle" x="1597" y="-320.8" font-family="Helvetica,sans-Serif" font-size="9.00">read portfolio / ledger</text>
</g>
<!-- FSHARP_ENGINE -->
<g id="node12" class="node">
<title>FSHARP_ENGINE</title>
<path fill="#6ee7b7" stroke="black" d="M1896,-428C1896,-428 1676,-428 1676,-428 1670,-428 1664,-422 1664,-416 1664,-416 1664,-404 1664,-404 1664,-398 1670,-392 1676,-392 1676,-392 1896,-392 1896,-392 1902,-392 1908,-398 1908,-404 1908,-404 1908,-416 1908,-416 1908,-422 1902,-428 1896,-428"/>
<text text-anchor="middle" x="1786" y="-413" font-family="Helvetica,sans-Serif" font-size="10.00">LedgerInterop.ReconcilePortfolioLedgerChecks</text>
<text text-anchor="middle" x="1786" y="-402" font-family="Helvetica,sans-Serif" font-size="10.00">F# reconciliation rules</text>
</g>
<!-- PROJECTION&#45;&gt;FSHARP_ENGINE -->
<g id="edge14" class="edge">
<title>PROJECTION&#45;&gt;FSHARP_ENGINE</title>
<path fill="none" stroke="#4a5568" d="M1530.23,-410C1567.46,-410 1612.11,-410 1653.55,-410"/>
<polygon fill="#4a5568" stroke="#4a5568" points="1653.74,-413.5 1663.74,-410 1653.74,-406.5 1653.74,-413.5"/>
<text text-anchor="middle" x="1597" y="-412.8" font-family="Helvetica,sans-Serif" font-size="9.00">reconcile check set</text>
</g>
<!-- LEG_UI -->
<g id="node16" class="node">
<title>LEG_UI</title>
<path fill="#805ad5" stroke="black" d="M141,-490C141,-490 67,-490 67,-490 61,-490 55,-484 55,-478 55,-478 55,-466 55,-466 55,-460 61,-454 67,-454 67,-454 141,-454 141,-454 147,-454 153,-460 153,-466 153,-466 153,-478 153,-478 153,-484 147,-490 141,-490"/>
<text text-anchor="middle" x="104" y="-469.5" font-family="Helvetica,sans-Serif" font-size="10.00" fill="white">Operator surface</text>
</g>
<!-- LEG_APP -->
<g id="node17" class="node">
<title>LEG_APP</title>
<path fill="#93c5fd" stroke="black" d="M146.5,-436C146.5,-436 61.5,-436 61.5,-436 55.5,-436 49.5,-430 49.5,-424 49.5,-424 49.5,-412 49.5,-412 49.5,-406 55.5,-400 61.5,-400 61.5,-400 146.5,-400 146.5,-400 152.5,-400 158.5,-406 158.5,-412 158.5,-412 158.5,-424 158.5,-424 158.5,-430 152.5,-436 146.5,-436"/>
<text text-anchor="middle" x="104" y="-415.5" font-family="Helvetica,sans-Serif" font-size="10.00">Workbench service</text>
</g>
<!-- LEG_ENGINE -->
<g id="node18" class="node">
<title>LEG_ENGINE</title>
<path fill="#a7f3d0" stroke="black" d="M153,-382C153,-382 55,-382 55,-382 49,-382 43,-376 43,-370 43,-370 43,-358 43,-358 43,-352 49,-346 55,-346 55,-346 153,-346 153,-346 159,-346 165,-352 165,-358 165,-358 165,-370 165,-370 165,-376 159,-382 153,-382"/>
<text text-anchor="middle" x="104" y="-361.5" font-family="Helvetica,sans-Serif" font-size="10.00">Reconciliation engine</text>
</g>
<!-- LEG_STORE -->
<g id="node19" class="node">
<title>LEG_STORE</title>
<path fill="#fecaca" stroke="black" d="M148.5,-324.73C148.5,-326.53 128.55,-328 104,-328 79.45,-328 59.5,-326.53 59.5,-324.73 59.5,-324.73 59.5,-295.27 59.5,-295.27 59.5,-293.47 79.45,-292 104,-292 128.55,-292 148.5,-293.47 148.5,-295.27 148.5,-295.27 148.5,-324.73 148.5,-324.73"/>
<path fill="none" stroke="black" d="M148.5,-324.73C148.5,-322.92 128.55,-321.45 104,-321.45 79.45,-321.45 59.5,-322.92 59.5,-324.73"/>
<text text-anchor="middle" x="104" y="-307.5" font-family="Helvetica,sans-Serif" font-size="10.00">Persisted state</text>
</g>
</g>
</svg>
