<?xml version="1.0" encoding="UTF-8" standalone="no"?>
<!DOCTYPE svg PUBLIC "-//W3C//DTD SVG 1.1//EN"
 "http://www.w3.org/Graphics/SVG/1.1/DTD/svg11.dtd">
<!-- Generated by graphviz version 2.43.0 (0)
 -->
<!-- Title: McpServer Pages: 1 -->
<svg width="1033pt" height="1539pt"
 viewBox="0.00 0.00 1033.00 1539.00" xmlns="http://www.w3.org/2000/svg" xmlns:xlink="http://www.w3.org/1999/xlink">
<g id="graph0" class="graph" transform="scale(1 1) rotate(0) translate(36 1503)">
<title>McpServer</title>
<polygon fill="white" stroke="transparent" points="-36,36 -36,-1503 997,-1503 997,36 -36,36"/>
<text text-anchor="middle" x="480.5" y="-1453.4" font-family="Helvetica,sans-Serif" font-size="12.00">Meridian &#45; MCP Server Architecture</text>
<text text-anchor="middle" x="480.5" y="-1440.4" font-family="Helvetica,sans-Serif" font-size="12.00">Model Context Protocol Integration | v1.7.x</text>
<g id="clust1" class="cluster">
<title>cluster_clients</title>
<path fill="#f7fafc" stroke="#4a5568" d="M43.5,-1133C43.5,-1133 184.5,-1133 184.5,-1133 190.5,-1133 196.5,-1139 196.5,-1145 196.5,-1145 196.5,-1304 196.5,-1304 196.5,-1310 190.5,-1316 184.5,-1316 184.5,-1316 43.5,-1316 43.5,-1316 37.5,-1316 31.5,-1310 31.5,-1304 31.5,-1304 31.5,-1145 31.5,-1145 31.5,-1139 37.5,-1133 43.5,-1133"/>
<text text-anchor="middle" x="114" y="-1302.4" font-family="Helvetica,sans-Serif" font-size="12.00">MCP Clients</text>
</g>
<g id="clust2" class="cluster">
<title>cluster_server</title>
<path fill="#faf5ff" stroke="#805ad5" d="M326,-1175C326,-1175 698.5,-1175 698.5,-1175 704.5,-1175 710.5,-1181 710.5,-1187 710.5,-1187 710.5,-1275 710.5,-1275 710.5,-1281 704.5,-1287 698.5,-1287 698.5,-1287 326,-1287 326,-1287 320,-1287 314,-1281 314,-1275 314,-1275 314,-1187 314,-1187 314,-1181 320,-1175 326,-1175"/>
<text text-anchor="middle" x="512.25" y="-1273.4" font-family="Helvetica,sans-Serif" font-size="12.00">Meridian.McpServer (.NET 9 / ModelContextProtocol SDK)</text>
</g>
<g id="clust3" class="cluster">
<title>cluster_tools</title>
<path fill="#dbeafe" stroke="#2b6cb0" d="M544,-527C544,-527 733,-527 733,-527 739,-527 745,-533 745,-539 745,-539 745,-1155 745,-1155 745,-1161 739,-1167 733,-1167 733,-1167 544,-1167 544,-1167 538,-1167 532,-1161 532,-1155 532,-1155 532,-539 532,-539 532,-533 538,-527 544,-527"/>
<text text-anchor="middle" x="638.5" y="-1153.4" font-family="Helvetica,sans-Serif" font-size="12.00">MCP Tools ([McpServerTool])</text>
</g>
<g id="clust4" class="cluster">
<title>cluster_backfill_tools</title>
<polygon fill="#dbeafe" stroke="#1e40af" stroke-dasharray="5,2" points="554.5,-1026 554.5,-1138 722.5,-1138 722.5,-1026 554.5,-1026"/>
<text text-anchor="middle" x="638.5" y="-1124.4" font-family="Helvetica,sans-Serif" font-size="12.00">BackfillTools</text>
</g>
<g id="clust5" class="cluster">
<title>cluster_symbol_tools</title>
<polygon fill="#dbeafe" stroke="#1e40af" stroke-dasharray="5,2" points="550,-835 550,-1018 727,-1018 727,-835 550,-835"/>
<text text-anchor="middle" x="638.5" y="-1004.4" font-family="Helvetica,sans-Serif" font-size="12.00">SymbolTools</text>
</g>
<g id="clust6" class="cluster">
<title>cluster_provider_tools</title>
<polygon fill="#dbeafe" stroke="#1e40af" stroke-dasharray="5,2" points="553.5,-644 553.5,-827 723.5,-827 723.5,-644 553.5,-644"/>
<text text-anchor="middle" x="638.5" y="-813.4" font-family="Helvetica,sans-Serif" font-size="12.00">ProviderTools</text>
</g>
<g id="clust7" class="cluster">
<title>cluster_storage_tools</title>
<polygon fill="#dbeafe" stroke="#1e40af" stroke-dasharray="5,2" points="540,-535 540,-636 737,-636 737,-535 540,-535"/>
<text text-anchor="middle" x="638.5" y="-622.4" font-family="Helvetica,sans-Serif" font-size="12.00">StorageTools</text>
</g>
<g id="clust8" class="cluster">
<title>cluster_resources</title>
<path fill="#d1fae5" stroke="#2c7a7b" d="M527,-221C527,-221 751,-221 751,-221 757,-221 763,-227 763,-233 763,-233 763,-507 763,-507 763,-513 757,-519 751,-519 751,-519 527,-519 527,-519 521,-519 515,-513 515,-507 515,-507 515,-233 515,-233 515,-227 521,-221 527,-221"/>
<text text-anchor="middle" x="639" y="-505.4" font-family="Helvetica,sans-Serif" font-size="12.00">MCP Resources ([McpServerResource])</text>
</g>
<g id="clust9" class="cluster">
<title>cluster_prompts</title>
<path fill="#fffaf0" stroke="#ed8936" d="M539,-8C539,-8 739,-8 739,-8 745,-8 751,-14 751,-20 751,-20 751,-201 751,-201 751,-207 745,-213 739,-213 739,-213 539,-213 539,-213 533,-213 527,-207 527,-201 527,-201 527,-20 527,-20 527,-14 533,-8 539,-8"/>
<text text-anchor="middle" x="639" y="-199.4" font-family="Helvetica,sans-Serif" font-size="12.00">MCP Prompts ([McpServerPrompt])</text>
</g>
<g id="clust10" class="cluster">
<title>cluster_backend</title>
<path fill="#fee2e2" stroke="#c53030" d="M794,-671C794,-671 941,-671 941,-671 947,-671 953,-677 953,-683 953,-683 953,-1006 953,-1006 953,-1012 947,-1018 941,-1018 941,-1018 794,-1018 794,-1018 788,-1018 782,-1012 782,-1006 782,-1006 782,-683 782,-683 782,-677 788,-671 794,-671"/>
<text text-anchor="middle" x="867.5" y="-1004.4" font-family="Helvetica,sans-Serif" font-size="12.00">Meridian Core Services</text>
</g>
<g id="clust11" class="cluster">
<title>cluster_legend</title>
<path fill="#fafafa" stroke="#666666" d="M20,-1324C20,-1324 208,-1324 208,-1324 214,-1324 220,-1330 220,-1336 220,-1336 220,-1413 220,-1413 220,-1419 214,-1425 208,-1425 208,-1425 20,-1425 20,-1425 14,-1425 8,-1419 8,-1413 8,-1413 8,-1336 8,-1336 8,-1330 14,-1324 20,-1324"/>
<text text-anchor="middle" x="114" y="-1411.4" font-family="Helvetica,sans-Serif" font-size="12.00">Legend</text>
</g>
<!-- CLAUDE_CLIENT -->
<g id="node1" class="node">
<title>CLAUDE_CLIENT</title>
<path fill="#e2e8f0" stroke="black" d="M176.5,-1287C176.5,-1287 51.5,-1287 51.5,-1287 45.5,-1287 39.5,-1281 39.5,-1275 39.5,-1275 39.5,-1235 39.5,-1235 39.5,-1229 45.5,-1223 51.5,-1223 51.5,-1223 176.5,-1223 176.5,-1223 182.5,-1223 188.5,-1229 188.5,-1235 188.5,-1235 188.5,-1275 188.5,-1275 188.5,-1281 182.5,-1287 176.5,-1287"/>
<text text-anchor="middle" x="114" y="-1275" font-family="Helvetica,sans-Serif" font-size="10.00">Claude Desktop / Claude.ai</text>
<text text-anchor="middle" x="114" y="-1252" font-family="Helvetica,sans-Serif" font-size="10.00">AI assistant context</text>
<text text-anchor="middle" x="114" y="-1241" font-family="Helvetica,sans-Serif" font-size="10.00">Tool invocation</text>
<text text-anchor="middle" x="114" y="-1230" font-family="Helvetica,sans-Serif" font-size="10.00">Resource reads</text>
</g>
<!-- MCP_HOST -->
<g id="node3" class="node">
<title>MCP_HOST</title>
<path fill="#ddd6fe" stroke="black" d="M443,-1257.5C443,-1257.5 334,-1257.5 334,-1257.5 328,-1257.5 322,-1251.5 322,-1245.5 322,-1245.5 322,-1194.5 322,-1194.5 322,-1188.5 328,-1182.5 334,-1182.5 334,-1182.5 443,-1182.5 443,-1182.5 449,-1182.5 455,-1188.5 455,-1194.5 455,-1194.5 455,-1245.5 455,-1245.5 455,-1251.5 449,-1257.5 443,-1257.5"/>
<text text-anchor="middle" x="388.5" y="-1245.5" font-family="Helvetica,sans-Serif" font-size="10.00">McpServer Host</text>
<text text-anchor="middle" x="388.5" y="-1222.5" font-family="Helvetica,sans-Serif" font-size="10.00">ASP.NET Core hosting</text>
<text text-anchor="middle" x="388.5" y="-1211.5" font-family="Helvetica,sans-Serif" font-size="10.00">Stdio transport</text>
<text text-anchor="middle" x="388.5" y="-1200.5" font-family="Helvetica,sans-Serif" font-size="10.00">JSON&#45;RPC 2.0 protocol</text>
<text text-anchor="middle" x="388.5" y="-1189.5" font-family="Helvetica,sans-Serif" font-size="10.00">Capabilities negotiation</text>
</g>
<!-- CLAUDE_CLIENT&#45;&gt;MCP_HOST -->
<g id="edge1" class="edge">
<title>CLAUDE_CLIENT&#45;&gt;MCP_HOST</title>
<path fill="none" stroke="#805ad5" stroke-width="2" d="M188.74,-1245.53C226.8,-1240.64 273.16,-1234.69 311.53,-1229.76"/>
<polygon fill="#805ad5" stroke="#805ad5" stroke-width="2" points="312.14,-1233.21 321.61,-1228.46 311.25,-1226.27 312.14,-1233.21"/>
<text text-anchor="middle" x="267" y="-1241.8" font-family="Helvetica,sans-Serif" font-size="9.00">stdio / JSON&#45;RPC</text>
</g>
<!-- OTHER_CLIENT -->
<g id="node2" class="node">
<title>OTHER_CLIENT</title>
<path fill="#e2e8f0" stroke="black" d="M165,-1205C165,-1205 63,-1205 63,-1205 57,-1205 51,-1199 51,-1193 51,-1193 51,-1153 51,-1153 51,-1147 57,-1141 63,-1141 63,-1141 165,-1141 165,-1141 171,-1141 177,-1147 177,-1153 177,-1153 177,-1193 177,-1193 177,-1199 171,-1205 165,-1205"/>
<text text-anchor="middle" x="114" y="-1193" font-family="Helvetica,sans-Serif" font-size="10.00">Other MCP Clients</text>
<text text-anchor="middle" x="114" y="-1170" font-family="Helvetica,sans-Serif" font-size="10.00">Copilot, Cursor, etc.</text>
<text text-anchor="middle" x="114" y="-1159" font-family="Helvetica,sans-Serif" font-size="10.00">MCP&#45;compatible hosts</text>
<text text-anchor="middle" x="114" y="-1148" font-family="Helvetica,sans-Serif" font-size="10.00">Custom integrations</text>
</g>
<!-- OTHER_CLIENT&#45;&gt;MCP_HOST -->
<g id="edge2" class="edge">
<title>OTHER_CLIENT&#45;&gt;MCP_HOST</title>
<path fill="none" stroke="#805ad5" stroke-dasharray="5,2" d="M177.18,-1183.72C217.17,-1190.62 269.39,-1199.63 311.79,-1206.94"/>
<polygon fill="#805ad5" stroke="#805ad5" points="311.34,-1210.42 321.79,-1208.67 312.53,-1203.52 311.34,-1210.42"/>
</g>
<!-- DI -->
<g id="node4" class="node">
<title>DI</title>
<path fill="#e9d5ff" stroke="black" d="M690.5,-1257.5C690.5,-1257.5 586.5,-1257.5 586.5,-1257.5 580.5,-1257.5 574.5,-1251.5 574.5,-1245.5 574.5,-1245.5 574.5,-1194.5 574.5,-1194.5 574.5,-1188.5 580.5,-1182.5 586.5,-1182.5 586.5,-1182.5 690.5,-1182.5 690.5,-1182.5 696.5,-1182.5 702.5,-1188.5 702.5,-1194.5 702.5,-1194.5 702.5,-1245.5 702.5,-1245.5 702.5,-1251.5 696.5,-1257.5 690.5,-1257.5"/>
<text text-anchor="middle" x="638.5" y="-1245.5" font-family="Helvetica,sans-Serif" font-size="10.00">Dependency Injection</text>
<text text-anchor="middle" x="638.5" y="-1222.5" font-family="Helvetica,sans-Serif" font-size="10.00">BackfillCoordinator</text>
<text text-anchor="middle" x="638.5" y="-1211.5" font-family="Helvetica,sans-Serif" font-size="10.00">StorageCatalogService</text>
<text text-anchor="middle" x="638.5" y="-1200.5" font-family="Helvetica,sans-Serif" font-size="10.00">ProviderRegistry</text>
<text text-anchor="middle" x="638.5" y="-1189.5" font-family="Helvetica,sans-Serif" font-size="10.00">IOptionsMonitor&lt;T&gt;</text>
</g>
<!-- MCP_HOST&#45;&gt;DI -->
<g id="edge3" class="edge">
<title>MCP_HOST&#45;&gt;DI</title>
<path fill="none" stroke="#4a5568" stroke-dasharray="5,2" d="M455.31,-1220C488.87,-1220 529.8,-1220 564.35,-1220"/>
<polygon fill="#4a5568" stroke="#4a5568" points="564.38,-1223.5 574.38,-1220 564.38,-1216.5 564.38,-1223.5"/>
</g>
<!-- T_BACKFILL -->
<g id="node5" class="node">
<title>T_BACKFILL</title>
<path fill="#bfdbfe" stroke="black" d="M702.5,-1108.5C702.5,-1108.5 574.5,-1108.5 574.5,-1108.5 568.5,-1108.5 562.5,-1102.5 562.5,-1096.5 562.5,-1096.5 562.5,-1045.5 562.5,-1045.5 562.5,-1039.5 568.5,-1033.5 574.5,-1033.5 574.5,-1033.5 702.5,-1033.5 702.5,-1033.5 708.5,-1033.5 714.5,-1039.5 714.5,-1045.5 714.5,-1045.5 714.5,-1096.5 714.5,-1096.5 714.5,-1102.5 708.5,-1108.5 702.5,-1108.5"/>
<text text-anchor="middle" x="638.5" y="-1096.5" font-family="Helvetica,sans-Serif" font-size="10.00">RunBackfill</text>
<text text-anchor="middle" x="638.5" y="-1073.5" font-family="Helvetica,sans-Serif" font-size="10.00">Trigger historical backfill</text>
<text text-anchor="middle" x="638.5" y="-1062.5" font-family="Helvetica,sans-Serif" font-size="10.00">Params: symbols, provider,</text>
<text text-anchor="middle" x="638.5" y="-1051.5" font-family="Helvetica,sans-Serif" font-size="10.00">from, to dates</text>
<text text-anchor="middle" x="638.5" y="-1040.5" font-family="Helvetica,sans-Serif" font-size="10.00">Returns: run summary JSON</text>
</g>
<!-- MCP_HOST&#45;&gt;T_BACKFILL -->
<g id="edge4" class="edge">
<title>MCP_HOST&#45;&gt;T_BACKFILL</title>
<path fill="none" stroke="#2b6cb0" d="M452.08,-1182.4C486.74,-1161.58 529.96,-1135.61 565.95,-1113.99"/>
<polygon fill="#2b6cb0" stroke="#2b6cb0" points="568.17,-1116.74 574.94,-1108.59 564.56,-1110.74 568.17,-1116.74"/>
<text text-anchor="middle" x="490" y="-1169.8" font-family="Helvetica,sans-Serif" font-size="9.00">invoke</text>
</g>
<!-- T_ADD_SYM -->
<g id="node6" class="node">
<title>T_ADD_SYM</title>
<path fill="#bfdbfe" stroke="black" d="M707,-989C707,-989 570,-989 570,-989 564,-989 558,-983 558,-977 558,-977 558,-937 558,-937 558,-931 564,-925 570,-925 570,-925 707,-925 707,-925 713,-925 719,-931 719,-937 719,-937 719,-977 719,-977 719,-983 713,-989 707,-989"/>
<text text-anchor="middle" x="638.5" y="-977" font-family="Helvetica,sans-Serif" font-size="10.00">AddSymbol</text>
<text text-anchor="middle" x="638.5" y="-954" font-family="Helvetica,sans-Serif" font-size="10.00">Add symbol to monitoring set</text>
<text text-anchor="middle" x="638.5" y="-943" font-family="Helvetica,sans-Serif" font-size="10.00">Params: symbol, tier</text>
<text text-anchor="middle" x="638.5" y="-932" font-family="Helvetica,sans-Serif" font-size="10.00">Returns: updated symbol list</text>
</g>
<!-- MCP_HOST&#45;&gt;T_ADD_SYM -->
<g id="edge5" class="edge">
<title>MCP_HOST&#45;&gt;T_ADD_SYM</title>
<path fill="none" stroke="#2b6cb0" d="M406.01,-1182.36C426.46,-1139.2 464.83,-1068.45 515,-1022 526.3,-1011.54 539.61,-1002.24 553.21,-994.19"/>
<polygon fill="#2b6cb0" stroke="#2b6cb0" points="555.22,-997.07 562.17,-989.07 551.75,-990.99 555.22,-997.07"/>
</g>
<!-- T_RM_SYM -->
<g id="node7" class="node">
<title>T_RM_SYM</title>
<path fill="#bfdbfe" stroke="black" d="M696.5,-907C696.5,-907 580.5,-907 580.5,-907 574.5,-907 568.5,-901 568.5,-895 568.5,-895 568.5,-855 568.5,-855 568.5,-849 574.5,-843 580.5,-843 580.5,-843 696.5,-843 696.5,-843 702.5,-843 708.5,-849 708.5,-855 708.5,-855 708.5,-895 708.5,-895 708.5,-901 702.5,-907 696.5,-907"/>
<text text-anchor="middle" x="638.5" y="-895" font-family="Helvetica,sans-Serif" font-size="10.00">RemoveSymbol</text>
<text text-anchor="middle" x="638.5" y="-872" font-family="Helvetica,sans-Serif" font-size="10.00">Remove from monitoring</text>
<text text-anchor="middle" x="638.5" y="-861" font-family="Helvetica,sans-Serif" font-size="10.00">Params: symbol</text>
<text text-anchor="middle" x="638.5" y="-850" font-family="Helvetica,sans-Serif" font-size="10.00">Returns: confirmation</text>
</g>
<!-- MCP_HOST&#45;&gt;T_RM_SYM -->
<g id="edge6" class="edge">
<title>MCP_HOST&#45;&gt;T_RM_SYM</title>
<path fill="none" stroke="#2b6cb0" d="M394.8,-1182.3C405.72,-1118.52 436.64,-989.16 515,-916 527.22,-904.59 542.7,-896.35 558.52,-890.4"/>
<polygon fill="#2b6cb0" stroke="#2b6cb0" points="560.08,-893.57 568.39,-886.98 557.79,-886.95 560.08,-893.57"/>
</g>
<!-- T_LIST_PROV -->
<g id="node8" class="node">
<title>T_LIST_PROV</title>
<path fill="#bfdbfe" stroke="black" d="M699.5,-716C699.5,-716 577.5,-716 577.5,-716 571.5,-716 565.5,-710 565.5,-704 565.5,-704 565.5,-664 565.5,-664 565.5,-658 571.5,-652 577.5,-652 577.5,-652 699.5,-652 699.5,-652 705.5,-652 711.5,-658 711.5,-664 711.5,-664 711.5,-704 711.5,-704 711.5,-710 705.5,-716 699.5,-716"/>
<text text-anchor="middle" x="638.5" y="-704" font-family="Helvetica,sans-Serif" font-size="10.00">ListBackfillProviders</text>
<text text-anchor="middle" x="638.5" y="-681" font-family="Helvetica,sans-Serif" font-size="10.00">List all available providers</text>
<text text-anchor="middle" x="638.5" y="-670" font-family="Helvetica,sans-Serif" font-size="10.00">With health status</text>
<text text-anchor="middle" x="638.5" y="-659" font-family="Helvetica,sans-Serif" font-size="10.00">Priority + capabilities</text>
</g>
<!-- MCP_HOST&#45;&gt;T_LIST_PROV -->
<g id="edge7" class="edge">
<title>MCP_HOST&#45;&gt;T_LIST_PROV</title>
<path fill="none" stroke="#2b6cb0" d="M394,-1182.26C407.17,-1078.06 448.95,-789.81 515,-725 526.4,-713.81 540.94,-705.68 555.99,-699.76"/>
<polygon fill="#2b6cb0" stroke="#2b6cb0" points="557.18,-703.05 565.4,-696.36 554.8,-696.47 557.18,-703.05"/>
</g>
<!-- T_LAST_RESULT -->
<g id="node9" class="node">
<title>T_LAST_RESULT</title>
<path fill="#bfdbfe" stroke="black" d="M703.5,-798C703.5,-798 573.5,-798 573.5,-798 567.5,-798 561.5,-792 561.5,-786 561.5,-786 561.5,-746 561.5,-746 561.5,-740 567.5,-734 573.5,-734 573.5,-734 703.5,-734 703.5,-734 709.5,-734 715.5,-740 715.5,-746 715.5,-746 715.5,-786 715.5,-786 715.5,-792 709.5,-798 703.5,-798"/>
<text text-anchor="middle" x="638.5" y="-786" font-family="Helvetica,sans-Serif" font-size="10.00">GetLastBackfillResult</text>
<text text-anchor="middle" x="638.5" y="-763" font-family="Helvetica,sans-Serif" font-size="10.00">Fetch most recent run result</text>
<text text-anchor="middle" x="638.5" y="-752" font-family="Helvetica,sans-Serif" font-size="10.00">Coverage map, row counts</text>
<text text-anchor="middle" x="638.5" y="-741" font-family="Helvetica,sans-Serif" font-size="10.00">Errors + gaps remaining</text>
</g>
<!-- MCP_HOST&#45;&gt;T_LAST_RESULT -->
<g id="edge8" class="edge">
<title>MCP_HOST&#45;&gt;T_LAST_RESULT</title>
<path fill="none" stroke="#2b6cb0" d="M391.29,-1182.33C396.88,-1106.12 419.95,-932.3 515,-831 525.68,-819.62 538.8,-809.84 552.44,-801.57"/>
<polygon fill="#2b6cb0" stroke="#2b6cb0" points="554.56,-804.39 561.46,-796.36 551.05,-798.33 554.56,-804.39"/>
</g>
<!-- T_QUERY -->
<g id="node10" class="node">
<title>T_QUERY</title>
<path fill="#bfdbfe" stroke="black" d="M717,-607C717,-607 560,-607 560,-607 554,-607 548,-601 548,-595 548,-595 548,-555 548,-555 548,-549 554,-543 560,-543 560,-543 717,-543 717,-543 723,-543 729,-549 729,-555 729,-555 729,-595 729,-595 729,-601 723,-607 717,-607"/>
<text text-anchor="middle" x="638.5" y="-595" font-family="Helvetica,sans-Serif" font-size="10.00">QueryStoredData</text>
<text text-anchor="middle" x="638.5" y="-572" font-family="Helvetica,sans-Serif" font-size="10.00">Query stored data inventory</text>
<text text-anchor="middle" x="638.5" y="-561" font-family="Helvetica,sans-Serif" font-size="10.00">Params: symbol, type, date range</text>
<text text-anchor="middle" x="638.5" y="-550" font-family="Helvetica,sans-Serif" font-size="10.00">Returns: file list + row counts</text>
</g>
<!-- MCP_HOST&#45;&gt;T_QUERY -->
<g id="edge9" class="edge">
<title>MCP_HOST&#45;&gt;T_QUERY</title>
<path fill="none" stroke="#2b6cb0" d="M392.61,-1182.19C400.17,-1099.16 422.7,-895.26 473,-732 486.23,-689.04 484.18,-672.72 515,-640 524.99,-629.39 537.11,-620.17 549.79,-612.26"/>
<polygon fill="#2b6cb0" stroke="#2b6cb0" points="551.83,-615.12 558.63,-607 548.25,-609.11 551.83,-615.12"/>
</g>
<!-- R_CATALOG -->
<g id="node11" class="node">
<title>R_CATALOG</title>
<path fill="#6ee7b7" stroke="black" d="M704.5,-396.5C704.5,-396.5 572.5,-396.5 572.5,-396.5 566.5,-396.5 560.5,-390.5 560.5,-384.5 560.5,-384.5 560.5,-333.5 560.5,-333.5 560.5,-327.5 566.5,-321.5 572.5,-321.5 572.5,-321.5 704.5,-321.5 704.5,-321.5 710.5,-321.5 716.5,-327.5 716.5,-333.5 716.5,-333.5 716.5,-384.5 716.5,-384.5 716.5,-390.5 710.5,-396.5 704.5,-396.5"/>
<text text-anchor="middle" x="638.5" y="-384.5" font-family="Helvetica,sans-Serif" font-size="10.00">GetProviderCatalog</text>
<text text-anchor="middle" x="638.5" y="-361.5" font-family="Helvetica,sans-Serif" font-size="10.00">mcp://meridian/providers</text>
<text text-anchor="middle" x="638.5" y="-350.5" font-family="Helvetica,sans-Serif" font-size="10.00">All providers: name, priority,</text>
<text text-anchor="middle" x="638.5" y="-339.5" font-family="Helvetica,sans-Serif" font-size="10.00">capabilities, health status</text>
<text text-anchor="middle" x="638.5" y="-328.5" font-family="Helvetica,sans-Serif" font-size="10.00">JSON snapshot</text>
</g>
<!-- MCP_HOST&#45;&gt;R_CATALOG -->
<g id="edge10" class="edge">
<title>MCP_HOST&#45;&gt;R_CATALOG</title>
<path fill="none" stroke="#2c7a7b" d="M391.28,-1182.45C396.83,-1077.78 416.94,-774.32 473,-529 485.87,-472.69 474.92,-447.6 515,-406 525.08,-395.54 537.74,-387.37 551.07,-381"/>
<polygon fill="#2c7a7b" stroke="#2c7a7b" points="552.66,-384.13 560.38,-376.88 549.82,-377.73 552.66,-384.13"/>
<text text-anchor="middle" x="490" y="-531.8" font-family="Helvetica,sans-Serif" font-size="9.00">read</text>
</g>
<!-- R_STORAGE -->
<g id="node12" class="node">
<title>R_STORAGE</title>
<path fill="#6ee7b7" stroke="black" d="M714,-303.5C714,-303.5 563,-303.5 563,-303.5 557,-303.5 551,-297.5 551,-291.5 551,-291.5 551,-240.5 551,-240.5 551,-234.5 557,-228.5 563,-228.5 563,-228.5 714,-228.5 714,-228.5 720,-228.5 726,-234.5 726,-240.5 726,-240.5 726,-291.5 726,-291.5 726,-297.5 720,-303.5 714,-303.5"/>
<text text-anchor="middle" x="638.5" y="-291.5" font-family="Helvetica,sans-Serif" font-size="10.00">GetStorageCatalog</text>
<text text-anchor="middle" x="638.5" y="-268.5" font-family="Helvetica,sans-Serif" font-size="10.00">mcp://meridian/storage</text>
<text text-anchor="middle" x="638.5" y="-257.5" font-family="Helvetica,sans-Serif" font-size="10.00">Symbol × date × type inventory</text>
<text text-anchor="middle" x="638.5" y="-246.5" font-family="Helvetica,sans-Serif" font-size="10.00">Coverage stats, file sizes</text>
<text text-anchor="middle" x="638.5" y="-235.5" font-family="Helvetica,sans-Serif" font-size="10.00">Gap summary per symbol</text>
</g>
<!-- MCP_HOST&#45;&gt;R_STORAGE -->
<g id="edge11" class="edge">
<title>MCP_HOST&#45;&gt;R_STORAGE</title>
<path fill="none" stroke="#2c7a7b" d="M389.39,-1182.2C389.89,-1065.4 397.82,-700.74 473,-411 484.9,-365.13 480.85,-345.86 515,-313 522.85,-305.44 532.05,-299.07 541.82,-293.7"/>
<polygon fill="#2c7a7b" stroke="#2c7a7b" points="543.61,-296.71 550.92,-289.04 540.43,-290.48 543.61,-296.71"/>
</g>
<!-- R_CONFIG -->
<g id="node13" class="node">
<title>R_CONFIG</title>
<path fill="#6ee7b7" stroke="black" d="M706.5,-489.5C706.5,-489.5 570.5,-489.5 570.5,-489.5 564.5,-489.5 558.5,-483.5 558.5,-477.5 558.5,-477.5 558.5,-426.5 558.5,-426.5 558.5,-420.5 564.5,-414.5 570.5,-414.5 570.5,-414.5 706.5,-414.5 706.5,-414.5 712.5,-414.5 718.5,-420.5 718.5,-426.5 718.5,-426.5 718.5,-477.5 718.5,-477.5 718.5,-483.5 712.5,-489.5 706.5,-489.5"/>
<text text-anchor="middle" x="638.5" y="-477.5" font-family="Helvetica,sans-Serif" font-size="10.00">GetActiveConfiguration</text>
<text text-anchor="middle" x="638.5" y="-454.5" font-family="Helvetica,sans-Serif" font-size="10.00">mcp://meridian/config</text>
<text text-anchor="middle" x="638.5" y="-443.5" font-family="Helvetica,sans-Serif" font-size="10.00">Current appsettings snapshot</text>
<text text-anchor="middle" x="638.5" y="-432.5" font-family="Helvetica,sans-Serif" font-size="10.00">Credentials masked</text>
<text text-anchor="middle" x="638.5" y="-421.5" font-family="Helvetica,sans-Serif" font-size="10.00">Active feature flags</text>
</g>
<!-- MCP_HOST&#45;&gt;R_CONFIG -->
<g id="edge12" class="edge">
<title>MCP_HOST&#45;&gt;R_CONFIG</title>
<path fill="none" stroke="#2c7a7b" d="M392.22,-1182.47C399.52,-1089.95 422.49,-843.97 473,-645 486.29,-592.66 481.24,-573.14 515,-531 525.78,-517.55 539.5,-505.66 553.83,-495.45"/>
<polygon fill="#2c7a7b" stroke="#2c7a7b" points="556.04,-498.18 562.32,-489.64 552.09,-492.4 556.04,-498.18"/>
</g>
<!-- P_BACKFILL -->
<g id="node14" class="node">
<title>P_BACKFILL</title>
<path fill="#fbd38d" stroke="black" d="M718,-90.5C718,-90.5 559,-90.5 559,-90.5 553,-90.5 547,-84.5 547,-78.5 547,-78.5 547,-27.5 547,-27.5 547,-21.5 553,-15.5 559,-15.5 559,-15.5 718,-15.5 718,-15.5 724,-15.5 730,-21.5 730,-27.5 730,-27.5 730,-78.5 730,-78.5 730,-84.5 724,-90.5 718,-90.5"/>
<text text-anchor="middle" x="638.5" y="-78.5" font-family="Helvetica,sans-Serif" font-size="10.00">BackfillSetup Prompt</text>
<text text-anchor="middle" x="638.5" y="-55.5" font-family="Helvetica,sans-Serif" font-size="10.00">Guided backfill workflow</text>
<text text-anchor="middle" x="638.5" y="-44.5" font-family="Helvetica,sans-Serif" font-size="10.00">Params: symbols, provider,</text>
<text text-anchor="middle" x="638.5" y="-33.5" font-family="Helvetica,sans-Serif" font-size="10.00">from, to dates</text>
<text text-anchor="middle" x="638.5" y="-22.5" font-family="Helvetica,sans-Serif" font-size="10.00">Returns structured message chain</text>
</g>
<!-- MCP_HOST&#45;&gt;P_BACKFILL -->
<g id="edge13" class="edge">
<title>MCP_HOST&#45;&gt;P_BACKFILL</title>
<path fill="none" stroke="#ed8936" d="M389.03,-1182.47C388.12,-1048.93 391.4,-584.99 473,-214 484.69,-160.86 476.7,-137.65 515,-99 521.71,-92.23 529.5,-86.45 537.85,-81.51"/>
<polygon fill="#ed8936" stroke="#ed8936" points="539.63,-84.52 546.73,-76.66 536.27,-78.38 539.63,-84.52"/>
<text text-anchor="middle" x="490" y="-216.8" font-family="Helvetica,sans-Serif" font-size="9.00">expand</text>
</g>
<!-- P_PROVIDER -->
<g id="node15" class="node">
<title>P_PROVIDER</title>
<path fill="#fbd38d" stroke="black" d="M707,-183.5C707,-183.5 570,-183.5 570,-183.5 564,-183.5 558,-177.5 558,-171.5 558,-171.5 558,-120.5 558,-120.5 558,-114.5 564,-108.5 570,-108.5 570,-108.5 707,-108.5 707,-108.5 713,-108.5 719,-114.5 719,-120.5 719,-120.5 719,-171.5 719,-171.5 719,-177.5 713,-183.5 707,-183.5"/>
<text text-anchor="middle" x="638.5" y="-171.5" font-family="Helvetica,sans-Serif" font-size="10.00">ProviderConfiguration Prompt</text>
<text text-anchor="middle" x="638.5" y="-148.5" font-family="Helvetica,sans-Serif" font-size="10.00">Provider setup guidance</text>
<text text-anchor="middle" x="638.5" y="-137.5" font-family="Helvetica,sans-Serif" font-size="10.00">Params: provider identifier</text>
<text text-anchor="middle" x="638.5" y="-126.5" font-family="Helvetica,sans-Serif" font-size="10.00">API key instructions</text>
<text text-anchor="middle" x="638.5" y="-115.5" font-family="Helvetica,sans-Serif" font-size="10.00">Config snippet generation</text>
</g>
<!-- MCP_HOST&#45;&gt;P_PROVIDER -->
<g id="edge14" class="edge">
<title>MCP_HOST&#45;&gt;P_PROVIDER</title>
<path fill="none" stroke="#ed8936" d="M388.97,-1182.39C388.04,-1057.41 391.77,-645.41 473,-318 484.71,-270.82 482.95,-253.56 515,-217 524.84,-205.78 536.9,-195.89 549.57,-187.33"/>
<polygon fill="#ed8936" stroke="#ed8936" points="551.48,-190.26 557.97,-181.89 547.68,-184.39 551.48,-190.26"/>
</g>
<!-- BACKFILL_SVC -->
<g id="node16" class="node">
<title>BACKFILL_SVC</title>
<path fill="#fecaca" stroke="black" d="M928,-989C928,-989 807,-989 807,-989 801,-989 795,-983 795,-977 795,-977 795,-937 795,-937 795,-931 801,-925 807,-925 807,-925 928,-925 928,-925 934,-925 940,-931 940,-937 940,-937 940,-977 940,-977 940,-983 934,-989 928,-989"/>
<text text-anchor="middle" x="867.5" y="-977" font-family="Helvetica,sans-Serif" font-size="10.00">BackfillCoordinator</text>
<text text-anchor="middle" x="867.5" y="-954" font-family="Helvetica,sans-Serif" font-size="10.00">Orchestrates backfill runs</text>
<text text-anchor="middle" x="867.5" y="-943" font-family="Helvetica,sans-Serif" font-size="10.00">Manages provider failover</text>
<text text-anchor="middle" x="867.5" y="-932" font-family="Helvetica,sans-Serif" font-size="10.00">Run status tracking</text>
</g>
<!-- DI&#45;&gt;BACKFILL_SVC -->
<g id="edge24" class="edge">
<title>DI&#45;&gt;BACKFILL_SVC</title>
<path fill="none" stroke="#805ad5" stroke-dasharray="5,2" d="M702.7,-1188.34C723.57,-1175.85 745.81,-1160.13 763,-1142 803.2,-1099.6 833.35,-1038.63 850.45,-998.44"/>
<polygon fill="#805ad5" stroke="#805ad5" points="853.69,-999.77 854.31,-989.19 847.23,-997.07 853.69,-999.77"/>
</g>
<!-- STORAGE_CATALOG -->
<g id="node17" class="node">
<title>STORAGE_CATALOG</title>
<path fill="#fecaca" stroke="black" d="M933,-743C933,-743 802,-743 802,-743 796,-743 790,-737 790,-731 790,-731 790,-691 790,-691 790,-685 796,-679 802,-679 802,-679 933,-679 933,-679 939,-679 945,-685 945,-691 945,-691 945,-731 945,-731 945,-737 939,-743 933,-743"/>
<text text-anchor="middle" x="867.5" y="-731" font-family="Helvetica,sans-Serif" font-size="10.00">StorageCatalogService</text>
<text text-anchor="middle" x="867.5" y="-708" font-family="Helvetica,sans-Serif" font-size="10.00">Symbol × date × type index</text>
<text text-anchor="middle" x="867.5" y="-697" font-family="Helvetica,sans-Serif" font-size="10.00">Gap identification</text>
<text text-anchor="middle" x="867.5" y="-686" font-family="Helvetica,sans-Serif" font-size="10.00">Data lineage</text>
</g>
<!-- DI&#45;&gt;STORAGE_CATALOG -->
<g id="edge25" class="edge">
<title>DI&#45;&gt;STORAGE_CATALOG</title>
<path fill="none" stroke="#805ad5" stroke-dasharray="5,2" d="M702.67,-1195.46C725.8,-1183.08 749.58,-1165.58 763,-1142 771.08,-1127.8 769.85,-864.3 771,-848 774.03,-805.16 757.17,-787.04 782,-752 782.28,-751.6 782.57,-751.21 782.86,-750.81"/>
<polygon fill="#805ad5" stroke="#805ad5" points="785.66,-752.93 789.66,-743.12 780.42,-748.29 785.66,-752.93"/>
</g>
<!-- PROVIDER_REG -->
<g id="node18" class="node">
<title>PROVIDER_REG</title>
<path fill="#fecaca" stroke="black" d="M921,-825C921,-825 814,-825 814,-825 808,-825 802,-819 802,-813 802,-813 802,-773 802,-773 802,-767 808,-761 814,-761 814,-761 921,-761 921,-761 927,-761 933,-767 933,-773 933,-773 933,-813 933,-813 933,-819 927,-825 921,-825"/>
<text text-anchor="middle" x="867.5" y="-813" font-family="Helvetica,sans-Serif" font-size="10.00">ProviderRegistry</text>
<text text-anchor="middle" x="867.5" y="-790" font-family="Helvetica,sans-Serif" font-size="10.00">All registered providers</text>
<text text-anchor="middle" x="867.5" y="-779" font-family="Helvetica,sans-Serif" font-size="10.00">Capabilities + health</text>
<text text-anchor="middle" x="867.5" y="-768" font-family="Helvetica,sans-Serif" font-size="10.00">Priority ordering</text>
</g>
<!-- DI&#45;&gt;PROVIDER_REG -->
<g id="edge26" class="edge">
<title>DI&#45;&gt;PROVIDER_REG</title>
<path fill="none" stroke="#805ad5" stroke-dasharray="5,2" d="M702.51,-1195.36C725.61,-1182.97 749.42,-1165.49 763,-1142 773.85,-1123.23 769.5,-968.63 771,-947 774.48,-896.66 753.17,-875.42 782,-834 785.26,-829.32 789.21,-825.15 793.6,-821.44"/>
<polygon fill="#805ad5" stroke="#805ad5" points="795.98,-824.03 801.91,-815.25 791.8,-818.41 795.98,-824.03"/>
</g>
<!-- CONFIG_SVC -->
<g id="node19" class="node">
<title>CONFIG_SVC</title>
<path fill="#fecaca" stroke="black" d="M932,-907C932,-907 803,-907 803,-907 797,-907 791,-901 791,-895 791,-895 791,-855 791,-855 791,-849 797,-843 803,-843 803,-843 932,-843 932,-843 938,-843 944,-849 944,-855 944,-855 944,-895 944,-895 944,-901 938,-907 932,-907"/>
<text text-anchor="middle" x="867.5" y="-895" font-family="Helvetica,sans-Serif" font-size="10.00">IOptionsMonitor&lt;T&gt;</text>
<text text-anchor="middle" x="867.5" y="-872" font-family="Helvetica,sans-Serif" font-size="10.00">Live configuration</text>
<text text-anchor="middle" x="867.5" y="-861" font-family="Helvetica,sans-Serif" font-size="10.00">Hot&#45;reload support</text>
<text text-anchor="middle" x="867.5" y="-850" font-family="Helvetica,sans-Serif" font-size="10.00">Credentials masked on read</text>
</g>
<!-- DI&#45;&gt;CONFIG_SVC -->
<g id="edge27" class="edge">
<title>DI&#45;&gt;CONFIG_SVC</title>
<path fill="none" stroke="#805ad5" stroke-dasharray="5,2" d="M702.64,-1194.71C725.48,-1182.3 749.05,-1164.98 763,-1142 789.16,-1098.92 753.48,-957.55 782,-916 782.65,-915.06 783.32,-914.14 784.02,-913.24"/>
<polygon fill="#805ad5" stroke="#805ad5" points="786.78,-915.41 790.96,-905.68 781.62,-910.68 786.78,-915.41"/>
</g>
<!-- T_BACKFILL&#45;&gt;BACKFILL_SVC -->
<g id="edge15" class="edge">
<title>T_BACKFILL&#45;&gt;BACKFILL_SVC</title>
<path fill="none" stroke="#c53030" stroke-width="2" d="M714.6,-1043.75C730.81,-1037.17 747.67,-1029.77 763,-1022 778.9,-1013.94 795.51,-1004.17 810.65,-994.68"/>
<polygon fill="#c53030" stroke="#c53030" stroke-width="2" points="812.81,-997.45 819.38,-989.14 809.06,-991.54 812.81,-997.45"/>
</g>
<!-- T_ADD_SYM&#45;&gt;CONFIG_SVC -->
<g id="edge16" class="edge">
<title>T_ADD_SYM&#45;&gt;CONFIG_SVC</title>
<path fill="none" stroke="#c53030" d="M719.12,-931.3C733.76,-926.37 748.88,-921.14 763,-916 768.96,-913.83 775.09,-911.55 781.25,-909.21"/>
<polygon fill="#c53030" stroke="#c53030" points="782.85,-912.34 790.94,-905.5 780.35,-905.81 782.85,-912.34"/>
</g>
<!-- T_RM_SYM&#45;&gt;CONFIG_SVC -->
<g id="edge17" class="edge">
<title>T_RM_SYM&#45;&gt;CONFIG_SVC</title>
<path fill="none" stroke="#c53030" d="M708.53,-875C731.24,-875 756.78,-875 780.59,-875"/>
<polygon fill="#c53030" stroke="#c53030" points="780.68,-878.5 790.67,-875 780.67,-871.5 780.68,-878.5"/>
</g>
<!-- T_LIST_PROV&#45;&gt;PROVIDER_REG -->
<g id="edge18" class="edge">
<title>T_LIST_PROV&#45;&gt;PROVIDER_REG</title>
<path fill="none" stroke="#c53030" d="M711.74,-693.85C730.96,-699.87 749.97,-709.54 763,-725 778.35,-743.22 754.21,-761.1 771,-778 776.89,-783.92 784.1,-788.11 791.89,-791.01"/>
<polygon fill="#c53030" stroke="#c53030" points="791.05,-794.42 801.63,-793.95 793.07,-787.71 791.05,-794.42"/>
</g>
<!-- T_LAST_RESULT&#45;&gt;BACKFILL_SVC -->
<g id="edge19" class="edge">
<title>T_LAST_RESULT&#45;&gt;BACKFILL_SVC</title>
<path fill="none" stroke="#c53030" d="M715.73,-793.05C733.5,-802.58 750.78,-815.03 763,-831 768.88,-838.69 775.99,-908.41 782,-916 783.59,-918.01 785.31,-919.94 787.13,-921.77"/>
<polygon fill="#c53030" stroke="#c53030" points="784.81,-924.39 794.61,-928.4 789.45,-919.15 784.81,-924.39"/>
</g>
<!-- T_QUERY&#45;&gt;STORAGE_CATALOG -->
<g id="edge20" class="edge">
<title>T_QUERY&#45;&gt;STORAGE_CATALOG</title>
<path fill="none" stroke="#c53030" d="M703.75,-607C723.06,-617.1 744.12,-628.61 763,-640 779.92,-650.21 797.84,-662.1 813.93,-673.19"/>
<polygon fill="#c53030" stroke="#c53030" points="811.95,-676.08 822.16,-678.91 815.95,-670.33 811.95,-676.08"/>
</g>
<!-- R_CATALOG&#45;&gt;PROVIDER_REG -->
<g id="edge21" class="edge">
<title>R_CATALOG&#45;&gt;PROVIDER_REG</title>
<path fill="none" stroke="#2c7a7b" d="M716.76,-373.19C734.63,-380.16 751.7,-390.53 763,-406 785.71,-437.09 760.68,-719.94 782,-752 785.16,-756.75 789.04,-760.97 793.37,-764.71"/>
<polygon fill="#2c7a7b" stroke="#2c7a7b" points="791.53,-767.71 801.62,-770.95 795.75,-762.13 791.53,-767.71"/>
</g>
<!-- R_STORAGE&#45;&gt;STORAGE_CATALOG -->
<g id="edge22" class="edge">
<title>R_STORAGE&#45;&gt;STORAGE_CATALOG</title>
<path fill="none" stroke="#2c7a7b" d="M726.22,-286.76C739.99,-293.27 752.97,-301.81 763,-313 810.49,-365.98 846.77,-577.73 860.51,-668.9"/>
<polygon fill="#2c7a7b" stroke="#2c7a7b" points="857.06,-669.51 862,-678.89 863.99,-668.48 857.06,-669.51"/>
</g>
<!-- R_CONFIG&#45;&gt;CONFIG_SVC -->
<g id="edge23" class="edge">
<title>R_CONFIG&#45;&gt;CONFIG_SVC</title>
<path fill="none" stroke="#2c7a7b" d="M718.81,-486.73C736.31,-498.23 752.68,-512.86 763,-531 776.63,-554.97 767.84,-751.61 771,-779 773.86,-803.76 766.75,-814.28 782,-834 782.49,-834.63 782.98,-835.25 783.49,-835.86"/>
<polygon fill="#2c7a7b" stroke="#2c7a7b" points="781.24,-838.56 790.72,-843.3 786.27,-833.69 781.24,-838.56"/>
</g>
<!-- LEG -->
<g id="node20" class="node">
<title>LEG</title>
<path fill="lightgrey" stroke="transparent" d="M200,-1395.5C200,-1395.5 28,-1395.5 28,-1395.5 22,-1395.5 16,-1389.5 16,-1383.5 16,-1383.5 16,-1344.5 16,-1344.5 16,-1338.5 22,-1332.5 28,-1332.5 28,-1332.5 200,-1332.5 200,-1332.5 206,-1332.5 212,-1338.5 212,-1344.5 212,-1344.5 212,-1383.5 212,-1383.5 212,-1389.5 206,-1395.5 200,-1395.5"/>
<text text-anchor="middle" x="114" y="-1383.5" font-family="Helvetica,sans-Serif" font-size="10.00">━━ Protocol / invocation boundary</text>
<text text-anchor="middle" x="114" y="-1372.5" font-family="Helvetica,sans-Serif" font-size="10.00">─ ─ Dependency injection / reference</text>
<text text-anchor="middle" x="114" y="-1361.5" font-family="Helvetica,sans-Serif" font-size="10.00">Blue &#160;= Tools (write operations)</text>
<text text-anchor="middle" x="114" y="-1350.5" font-family="Helvetica,sans-Serif" font-size="10.00">Green = Resources (read&#45;only)</text>
<text text-anchor="middle" x="114" y="-1339.5" font-family="Helvetica,sans-Serif" font-size="10.00">Orange = Prompts (text templates)</text>
</g>
</g>
</svg>
