<?xml version="1.0" encoding="UTF-8" standalone="no"?>
<!DOCTYPE svg PUBLIC "-//W3C//DTD SVG 1.1//EN"
 "http://www.w3.org/Graphics/SVG/1.1/DTD/svg11.dtd">
<!-- Generated by graphviz version 2.43.0 (0)
 -->
<!-- Title: OnboardingFlow Pages: 1 -->
<svg width="1459pt" height="2135pt"
 viewBox="0.00 0.00 1459.00 2134.71" xmlns="http://www.w3.org/2000/svg" xmlns:xlink="http://www.w3.org/1999/xlink">
<g id="graph0" class="graph" transform="scale(1 1) rotate(0) translate(36 2098.71)">
<title>OnboardingFlow</title>
<polygon fill="white" stroke="transparent" points="-36,36 -36,-2098.71 1423,-2098.71 1423,36 -36,36"/>
<text text-anchor="middle" x="693.5" y="-2049.11" font-family="Helvetica,sans-Serif" font-size="12.00">Meridian &#45; Onboarding &amp; Diagnostics Flow</text>
<text text-anchor="middle" x="693.5" y="-2036.11" font-family="Helvetica,sans-Serif" font-size="12.00">User Journey from Installation to Operation | v1.6.1</text>
<g id="clust1" class="cluster">
<title>cluster_firstrun</title>
<path fill="#fffaf0" stroke="#ed8936" d="M390,-1663.5C390,-1663.5 540,-1663.5 540,-1663.5 546,-1663.5 552,-1669.5 552,-1675.5 552,-1675.5 552,-1913.5 552,-1913.5 552,-1919.5 546,-1925.5 540,-1925.5 540,-1925.5 390,-1925.5 390,-1925.5 384,-1925.5 378,-1919.5 378,-1913.5 378,-1913.5 378,-1675.5 378,-1675.5 378,-1669.5 384,-1663.5 390,-1663.5"/>
<text text-anchor="middle" x="465" y="-1911.9" font-family="Helvetica,sans-Serif" font-size="12.00">First&#45;Run Detection</text>
</g>
<g id="clust2" class="cluster">
<title>cluster_setup</title>
<path fill="#ede9fe" stroke="#805ad5" d="M20,-1433.5C20,-1433.5 482,-1433.5 482,-1433.5 488,-1433.5 494,-1439.5 494,-1445.5 494,-1445.5 494,-1632.5 494,-1632.5 494,-1638.5 488,-1644.5 482,-1644.5 482,-1644.5 20,-1644.5 20,-1644.5 14,-1644.5 8,-1638.5 8,-1632.5 8,-1632.5 8,-1445.5 8,-1445.5 8,-1439.5 14,-1433.5 20,-1433.5"/>
<text text-anchor="middle" x="251" y="-1630.9" font-family="Helvetica,sans-Serif" font-size="12.00">Setup Options (Choose One)</text>
</g>
<g id="clust3" class="cluster">
<title>cluster_wizard</title>
<path fill="#d1fae5" stroke="#2c7a7b" d="M297,-628C297,-628 471,-628 471,-628 477,-628 483,-634 483,-640 483,-640 483,-1402.5 483,-1402.5 483,-1408.5 477,-1414.5 471,-1414.5 471,-1414.5 297,-1414.5 297,-1414.5 291,-1414.5 285,-1408.5 285,-1402.5 285,-1402.5 285,-640 285,-640 285,-634 291,-628 297,-628"/>
<text text-anchor="middle" x="384" y="-1400.9" font-family="Helvetica,sans-Serif" font-size="12.00">Configuration Wizard (8 Steps)</text>
</g>
<g id="clust4" class="cluster">
<title>cluster_validation</title>
<path fill="#dbeafe" stroke="#2b6cb0" d="M70,-229C70,-229 623,-229 623,-229 629,-229 635,-235 635,-241 635,-241 635,-441.5 635,-441.5 635,-447.5 629,-453.5 623,-453.5 623,-453.5 70,-453.5 70,-453.5 64,-453.5 58,-447.5 58,-441.5 58,-441.5 58,-241 58,-241 58,-235 64,-229 70,-229"/>
<text text-anchor="middle" x="346.5" y="-439.9" font-family="Helvetica,sans-Serif" font-size="12.00">Validation &amp; Diagnostics</text>
</g>
<g id="clust5" class="cluster">
<title>cluster_docs</title>
<path fill="#f0fff4" stroke="#38a169" d="M503,-622.5C503,-622.5 884,-622.5 884,-622.5 890,-622.5 896,-628.5 896,-634.5 896,-634.5 896,-711.5 896,-711.5 896,-717.5 890,-723.5 884,-723.5 884,-723.5 503,-723.5 503,-723.5 497,-723.5 491,-717.5 491,-711.5 491,-711.5 491,-634.5 491,-634.5 491,-628.5 497,-622.5 503,-622.5"/>
<text text-anchor="middle" x="693.5" y="-709.9" font-family="Helvetica,sans-Serif" font-size="12.00">Documentation &amp; Help</text>
</g>
<g id="clust6" class="cluster">
<title>cluster_ready</title>
<path fill="#c6f6d5" stroke="#38a169" d="M468,-8C468,-8 580,-8 580,-8 586,-8 592,-14 592,-20 592,-20 592,-198 592,-198 592,-204 586,-210 580,-210 580,-210 468,-210 468,-210 462,-210 456,-204 456,-198 456,-198 456,-20 456,-20 456,-14 462,-8 468,-8"/>
<text text-anchor="middle" x="524" y="-196.4" font-family="Helvetica,sans-Serif" font-size="12.00">Ready to Operate</text>
</g>
<g id="clust7" class="cluster">
<title>cluster_errors</title>
<path fill="#fee2e2" stroke="#e53e3e" d="M764,-330C764,-330 884,-330 884,-330 890,-330 896,-336 896,-342 896,-342 896,-582.5 896,-582.5 896,-588.5 890,-594.5 884,-594.5 884,-594.5 764,-594.5 764,-594.5 758,-594.5 752,-588.5 752,-582.5 752,-582.5 752,-342 752,-342 752,-336 758,-330 764,-330"/>
<text text-anchor="middle" x="824" y="-580.9" font-family="Helvetica,sans-Serif" font-size="12.00">Error Handling</text>
</g>
<g id="clust8" class="cluster">
<title>cluster_legend</title>
<path fill="#fafafa" stroke="#666666" d="M537,-1947.71C537,-1947.71 1367,-1947.71 1367,-1947.71 1373,-1947.71 1379,-1953.71 1379,-1959.71 1379,-1959.71 1379,-2008.71 1379,-2008.71 1379,-2014.71 1373,-2020.71 1367,-2020.71 1367,-2020.71 537,-2020.71 537,-2020.71 531,-2020.71 525,-2014.71 525,-2008.71 525,-2008.71 525,-1959.71 525,-1959.71 525,-1953.71 531,-1947.71 537,-1947.71"/>
<text text-anchor="middle" x="952" y="-2007.11" font-family="Helvetica,sans-Serif" font-size="12.00">Legend</text>
</g>
<!-- START -->
<g id="node1" class="node">
<title>START</title>
<ellipse fill="#38a169" stroke="black" cx="469" cy="-1973.71" rx="46.84" ry="21.43"/>
<text text-anchor="middle" x="469" y="-1976.71" font-family="Helvetica,sans-Serif" font-size="10.00" fill="white">User Runs</text>
<text text-anchor="middle" x="469" y="-1965.71" font-family="Helvetica,sans-Serif" font-size="10.00" fill="white">Meridian</text>
</g>
<!-- FIRST_RUN -->
<g id="node2" class="node">
<title>FIRST_RUN</title>
<path fill="#fbd38d" stroke="black" d="M530,-1896.5C530,-1896.5 408,-1896.5 408,-1896.5 402,-1896.5 396,-1890.5 396,-1884.5 396,-1884.5 396,-1855.5 396,-1855.5 396,-1849.5 402,-1843.5 408,-1843.5 408,-1843.5 530,-1843.5 530,-1843.5 536,-1843.5 542,-1849.5 542,-1855.5 542,-1855.5 542,-1884.5 542,-1884.5 542,-1890.5 536,-1896.5 530,-1896.5"/>
<text text-anchor="middle" x="469" y="-1884.5" font-family="Helvetica,sans-Serif" font-size="10.00">FirstRunDetector</text>
<text text-anchor="middle" x="469" y="-1861.5" font-family="Helvetica,sans-Serif" font-size="10.00">Check for .meridian&#45;initialized</text>
<text text-anchor="middle" x="469" y="-1850.5" font-family="Helvetica,sans-Serif" font-size="10.00">Check for appsettings.json</text>
</g>
<!-- START&#45;&gt;FIRST_RUN -->
<g id="edge1" class="edge">
<title>START&#45;&gt;FIRST_RUN</title>
<path fill="none" stroke="#38a169" d="M469,-1952.48C469,-1952.48 469,-1906.75 469,-1906.75"/>
<polygon fill="#38a169" stroke="#38a169" points="472.5,-1906.75 469,-1896.75 465.5,-1906.75 472.5,-1906.75"/>
</g>
<!-- FIRST_RUN_CHOICE -->
<g id="node4" class="node">
<title>FIRST_RUN_CHOICE</title>
<path fill="#fed7aa" stroke="black" d="M457.61,-1802.72C457.61,-1802.72 426.16,-1792.28 426.16,-1792.28 420.47,-1790.39 420.47,-1786.61 426.16,-1784.72 426.16,-1784.72 457.61,-1774.28 457.61,-1774.28 463.31,-1772.39 474.69,-1772.39 480.39,-1774.28 480.39,-1774.28 511.84,-1784.72 511.84,-1784.72 517.53,-1786.61 517.53,-1790.39 511.84,-1792.28 511.84,-1792.28 480.39,-1802.72 480.39,-1802.72 474.69,-1804.61 463.31,-1804.61 457.61,-1802.72"/>
<text text-anchor="middle" x="469" y="-1786" font-family="Helvetica,sans-Serif" font-size="10.00">First Run?</text>
</g>
<!-- FIRST_RUN&#45;&gt;FIRST_RUN_CHOICE -->
<g id="edge2" class="edge">
<title>FIRST_RUN&#45;&gt;FIRST_RUN_CHOICE</title>
<path fill="none" stroke="#4a5568" d="M469,-1843.31C469,-1843.31 469,-1816.99 469,-1816.99"/>
<polygon fill="#4a5568" stroke="#4a5568" points="472.5,-1816.99 469,-1806.99 465.5,-1816.99 472.5,-1816.99"/>
</g>
<!-- WELCOME -->
<g id="node3" class="node">
<title>WELCOME</title>
<path fill="#fbd38d" stroke="black" d="M531.5,-1724.5C531.5,-1724.5 398.5,-1724.5 398.5,-1724.5 392.5,-1724.5 386.5,-1718.5 386.5,-1712.5 386.5,-1712.5 386.5,-1683.5 386.5,-1683.5 386.5,-1677.5 392.5,-1671.5 398.5,-1671.5 398.5,-1671.5 531.5,-1671.5 531.5,-1671.5 537.5,-1671.5 543.5,-1677.5 543.5,-1683.5 543.5,-1683.5 543.5,-1712.5 543.5,-1712.5 543.5,-1718.5 537.5,-1724.5 531.5,-1724.5"/>
<text text-anchor="middle" x="465" y="-1712.5" font-family="Helvetica,sans-Serif" font-size="10.00">Welcome Message</text>
<text text-anchor="middle" x="465" y="-1689.5" font-family="Helvetica,sans-Serif" font-size="10.00">Display ASCII banner</text>
<text text-anchor="middle" x="465" y="-1678.5" font-family="Helvetica,sans-Serif" font-size="10.00">Show getting started options</text>
</g>
<!-- WIZARD_OPT -->
<g id="node5" class="node">
<title>WIZARD_OPT</title>
<path fill="#c4b5fd" stroke="black" d="M463.5,-1505.5C463.5,-1505.5 368.5,-1505.5 368.5,-1505.5 362.5,-1505.5 356.5,-1499.5 356.5,-1493.5 356.5,-1493.5 356.5,-1453.5 356.5,-1453.5 356.5,-1447.5 362.5,-1441.5 368.5,-1441.5 368.5,-1441.5 463.5,-1441.5 463.5,-1441.5 469.5,-1441.5 475.5,-1447.5 475.5,-1453.5 475.5,-1453.5 475.5,-1493.5 475.5,-1493.5 475.5,-1499.5 469.5,-1505.5 463.5,-1505.5"/>
<text text-anchor="middle" x="416" y="-1493.5" font-family="Helvetica,sans-Serif" font-size="10.00">&#45;&#45;wizard</text>
<text text-anchor="middle" x="416" y="-1482.5" font-family="Helvetica,sans-Serif" font-size="10.00">[Interactive Setup]</text>
<text text-anchor="middle" x="416" y="-1459.5" font-family="Helvetica,sans-Serif" font-size="10.00">8&#45;step guided wizard</text>
<text text-anchor="middle" x="416" y="-1448.5" font-family="Helvetica,sans-Serif" font-size="10.00">Best for new users</text>
</g>
<!-- WELCOME&#45;&gt;WIZARD_OPT -->
<g id="edge5" class="edge">
<title>WELCOME&#45;&gt;WIZARD_OPT</title>
<path fill="none" stroke="#4a5568" stroke-dasharray="5,2" d="M493.25,-1671.31C493.25,-1611.71 493.25,-1473 493.25,-1473 493.25,-1473 485.72,-1473 485.72,-1473"/>
<polygon fill="#4a5568" stroke="#4a5568" points="485.72,-1469.5 475.72,-1473 485.72,-1476.5 485.72,-1469.5"/>
</g>
<!-- AUTO_OPT -->
<g id="node6" class="node">
<title>AUTO_OPT</title>
<path fill="#c4b5fd" stroke="black" d="M149.5,-1615.5C149.5,-1615.5 28.5,-1615.5 28.5,-1615.5 22.5,-1615.5 16.5,-1609.5 16.5,-1603.5 16.5,-1603.5 16.5,-1563.5 16.5,-1563.5 16.5,-1557.5 22.5,-1551.5 28.5,-1551.5 28.5,-1551.5 149.5,-1551.5 149.5,-1551.5 155.5,-1551.5 161.5,-1557.5 161.5,-1563.5 161.5,-1563.5 161.5,-1603.5 161.5,-1603.5 161.5,-1609.5 155.5,-1615.5 149.5,-1615.5"/>
<text text-anchor="middle" x="89" y="-1603.5" font-family="Helvetica,sans-Serif" font-size="10.00">&#45;&#45;auto&#45;config</text>
<text text-anchor="middle" x="89" y="-1592.5" font-family="Helvetica,sans-Serif" font-size="10.00">[Quick Setup]</text>
<text text-anchor="middle" x="89" y="-1569.5" font-family="Helvetica,sans-Serif" font-size="10.00">Auto&#45;detect from env vars</text>
<text text-anchor="middle" x="89" y="-1558.5" font-family="Helvetica,sans-Serif" font-size="10.00">Best for CI/CD</text>
</g>
<!-- WELCOME&#45;&gt;AUTO_OPT -->
<g id="edge6" class="edge">
<title>WELCOME&#45;&gt;AUTO_OPT</title>
<path fill="none" stroke="#4a5568" stroke-dasharray="5,2" d="M386.18,-1698C275.92,-1698 89,-1698 89,-1698 89,-1698 89,-1625.7 89,-1625.7"/>
<polygon fill="#4a5568" stroke="#4a5568" points="92.5,-1625.7 89,-1615.7 85.5,-1625.7 92.5,-1625.7"/>
</g>
<!-- DETECT_OPT -->
<g id="node8" class="node">
<title>DETECT_OPT</title>
<path fill="#c4b5fd" stroke="black" d="M474,-1615.5C474,-1615.5 358,-1615.5 358,-1615.5 352,-1615.5 346,-1609.5 346,-1603.5 346,-1603.5 346,-1563.5 346,-1563.5 346,-1557.5 352,-1551.5 358,-1551.5 358,-1551.5 474,-1551.5 474,-1551.5 480,-1551.5 486,-1557.5 486,-1563.5 486,-1563.5 486,-1603.5 486,-1603.5 486,-1609.5 480,-1615.5 474,-1615.5"/>
<text text-anchor="middle" x="416" y="-1603.5" font-family="Helvetica,sans-Serif" font-size="10.00">&#45;&#45;detect&#45;providers</text>
<text text-anchor="middle" x="416" y="-1592.5" font-family="Helvetica,sans-Serif" font-size="10.00">[Discovery]</text>
<text text-anchor="middle" x="416" y="-1569.5" font-family="Helvetica,sans-Serif" font-size="10.00">Scan environment</text>
<text text-anchor="middle" x="416" y="-1558.5" font-family="Helvetica,sans-Serif" font-size="10.00">Show available providers</text>
</g>
<!-- WELCOME&#45;&gt;DETECT_OPT -->
<g id="edge7" class="edge">
<title>WELCOME&#45;&gt;DETECT_OPT</title>
<path fill="none" stroke="#4a5568" stroke-dasharray="5,2" d="M436.25,-1671.44C436.25,-1671.44 436.25,-1625.62 436.25,-1625.62"/>
<polygon fill="#4a5568" stroke="#4a5568" points="439.75,-1625.62 436.25,-1615.62 432.75,-1625.62 439.75,-1625.62"/>
</g>
<!-- FIRST_RUN_CHOICE&#45;&gt;WELCOME -->
<g id="edge3" class="edge">
<title>FIRST_RUN_CHOICE&#45;&gt;WELCOME</title>
<path fill="none" stroke="#4a5568" d="M469,-1770.19C469,-1770.19 469,-1734.52 469,-1734.52"/>
<polygon fill="#4a5568" stroke="#4a5568" points="472.5,-1734.52 469,-1724.52 465.5,-1734.52 472.5,-1734.52"/>
<text text-anchor="middle" x="475.5" y="-1745.3" font-family="Helvetica,sans-Serif" font-size="9.00">Yes</text>
</g>
<!-- STARTUP_SUM -->
<g id="node26" class="node">
<title>STARTUP_SUM</title>
<path fill="#68d391" stroke="black" d="M571,-181C571,-181 477,-181 477,-181 471,-181 465,-175 465,-169 465,-169 465,-129 465,-129 465,-123 471,-117 477,-117 477,-117 571,-117 571,-117 577,-117 583,-123 583,-129 583,-129 583,-169 583,-169 583,-175 577,-181 571,-181"/>
<text text-anchor="middle" x="524" y="-169" font-family="Helvetica,sans-Serif" font-size="10.00">StartupSummary</text>
<text text-anchor="middle" x="524" y="-146" font-family="Helvetica,sans-Serif" font-size="10.00">Configuration review</text>
<text text-anchor="middle" x="524" y="-135" font-family="Helvetica,sans-Serif" font-size="10.00">Provider status</text>
<text text-anchor="middle" x="524" y="-124" font-family="Helvetica,sans-Serif" font-size="10.00">Health checks</text>
</g>
<!-- FIRST_RUN_CHOICE&#45;&gt;STARTUP_SUM -->
<g id="edge4" class="edge">
<title>FIRST_RUN_CHOICE&#45;&gt;STARTUP_SUM</title>
<path fill="none" stroke="#38a169" d="M521.99,-1788C604.05,-1788 752.5,-1788 752.5,-1788 752.5,-1788 752.5,-149 752.5,-149 752.5,-149 593.14,-149 593.14,-149"/>
<polygon fill="#38a169" stroke="#38a169" points="593.14,-145.5 583.14,-149 593.14,-152.5 593.14,-145.5"/>
<text text-anchor="middle" x="922.5" y="-1004.3" font-family="Helvetica,sans-Serif" font-size="9.00">No</text>
</g>
<!-- W1 -->
<g id="node9" class="node">
<title>W1</title>
<path fill="#6ee7b7" stroke="black" d="M460.5,-1385.5C460.5,-1385.5 359.5,-1385.5 359.5,-1385.5 353.5,-1385.5 347.5,-1379.5 347.5,-1373.5 347.5,-1373.5 347.5,-1344.5 347.5,-1344.5 347.5,-1338.5 353.5,-1332.5 359.5,-1332.5 359.5,-1332.5 460.5,-1332.5 460.5,-1332.5 466.5,-1332.5 472.5,-1338.5 472.5,-1344.5 472.5,-1344.5 472.5,-1373.5 472.5,-1373.5 472.5,-1379.5 466.5,-1385.5 460.5,-1385.5"/>
<text text-anchor="middle" x="410" y="-1373.5" font-family="Helvetica,sans-Serif" font-size="10.00">1. Detect Providers</text>
<text text-anchor="middle" x="410" y="-1350.5" font-family="Helvetica,sans-Serif" font-size="10.00">Scan env vars</text>
<text text-anchor="middle" x="410" y="-1339.5" font-family="Helvetica,sans-Serif" font-size="10.00">Identify available APIs</text>
</g>
<!-- WIZARD_OPT&#45;&gt;W1 -->
<g id="edge8" class="edge">
<title>WIZARD_OPT&#45;&gt;W1</title>
<path fill="none" stroke="#805ad5" d="M414.5,-1441.3C414.5,-1441.3 414.5,-1395.56 414.5,-1395.56"/>
<polygon fill="#805ad5" stroke="#805ad5" points="418,-1395.56 414.5,-1385.56 411,-1395.56 418,-1395.56"/>
</g>
<!-- CONFIG -->
<g id="node25" class="node">
<title>CONFIG</title>
<path fill="#fef3c7" stroke="black" d="M467.5,-569.5C467.5,-573.91 439.93,-577.5 406,-577.5 372.07,-577.5 344.5,-573.91 344.5,-569.5 344.5,-569.5 344.5,-497.5 344.5,-497.5 344.5,-493.09 372.07,-489.5 406,-489.5 439.93,-489.5 467.5,-493.09 467.5,-497.5 467.5,-497.5 467.5,-569.5 467.5,-569.5"/>
<path fill="none" stroke="black" d="M467.5,-569.5C467.5,-565.09 439.93,-561.5 406,-561.5 372.07,-561.5 344.5,-565.09 344.5,-569.5"/>
<text text-anchor="middle" x="406" y="-553.5" font-family="Helvetica,sans-Serif" font-size="10.00">appsettings.json</text>
<text text-anchor="middle" x="406" y="-542.5" font-family="Helvetica,sans-Serif" font-size="10.00">[Configuration File]</text>
<text text-anchor="middle" x="406" y="-519.5" font-family="Helvetica,sans-Serif" font-size="10.00">Generated or updated</text>
<text text-anchor="middle" x="406" y="-508.5" font-family="Helvetica,sans-Serif" font-size="10.00">All settings stored</text>
</g>
<!-- AUTO_OPT&#45;&gt;CONFIG -->
<g id="edge9" class="edge">
<title>AUTO_OPT&#45;&gt;CONFIG</title>
<path fill="none" stroke="#805ad5" d="M114,-1551.49C114,-1375.43 114,-533 114,-533 114,-533 334.43,-533 334.43,-533"/>
<polygon fill="#805ad5" stroke="#805ad5" points="334.43,-536.5 344.43,-533 334.43,-529.5 334.43,-536.5"/>
<text text-anchor="middle" x="122" y="-1053.8" font-family="Helvetica,sans-Serif" font-size="9.00">generates</text>
</g>
<!-- GENERATE_OPT -->
<g id="node7" class="node">
<title>GENERATE_OPT</title>
<path fill="#c4b5fd" stroke="black" d="M316,-1615.5C316,-1615.5 192,-1615.5 192,-1615.5 186,-1615.5 180,-1609.5 180,-1603.5 180,-1603.5 180,-1563.5 180,-1563.5 180,-1557.5 186,-1551.5 192,-1551.5 192,-1551.5 316,-1551.5 316,-1551.5 322,-1551.5 328,-1557.5 328,-1563.5 328,-1563.5 328,-1603.5 328,-1603.5 328,-1609.5 322,-1615.5 316,-1615.5"/>
<text text-anchor="middle" x="254" y="-1603.5" font-family="Helvetica,sans-Serif" font-size="10.00">&#45;&#45;generate&#45;config &lt;type&gt;</text>
<text text-anchor="middle" x="254" y="-1592.5" font-family="Helvetica,sans-Serif" font-size="10.00">[Template Generation]</text>
<text text-anchor="middle" x="254" y="-1569.5" font-family="Helvetica,sans-Serif" font-size="10.00">minimal, full, alpaca</text>
<text text-anchor="middle" x="254" y="-1558.5" font-family="Helvetica,sans-Serif" font-size="10.00">backfill, production, docker</text>
</g>
<!-- GENERATE_OPT&#45;&gt;CONFIG -->
<g id="edge10" class="edge">
<title>GENERATE_OPT&#45;&gt;CONFIG</title>
<path fill="none" stroke="#805ad5" d="M275,-1551.31C275,-1377.09 275,-555 275,-555 275,-555 334.34,-555 334.34,-555"/>
<polygon fill="#805ad5" stroke="#805ad5" points="334.34,-558.5 344.34,-555 334.34,-551.5 334.34,-558.5"/>
<text text-anchor="middle" x="238.5" y="-1053.8" font-family="Helvetica,sans-Serif" font-size="9.00">creates template</text>
</g>
<!-- DETECT_OPT&#45;&gt;WIZARD_OPT -->
<g id="edge11" class="edge">
<title>DETECT_OPT&#45;&gt;WIZARD_OPT</title>
<path fill="none" stroke="#4a5568" stroke-dasharray="5,2" d="M416,-1551.39C416,-1551.39 416,-1515.84 416,-1515.84"/>
<polygon fill="#4a5568" stroke="#4a5568" points="419.5,-1515.84 416,-1505.84 412.5,-1515.84 419.5,-1515.84"/>
<text text-anchor="middle" x="433" y="-1526.3" font-family="Helvetica,sans-Serif" font-size="9.00">informs</text>
</g>
<!-- W2 -->
<g id="node10" class="node">
<title>W2</title>
<path fill="#6ee7b7" stroke="black" d="M449.5,-1295.5C449.5,-1295.5 366.5,-1295.5 366.5,-1295.5 360.5,-1295.5 354.5,-1289.5 354.5,-1283.5 354.5,-1283.5 354.5,-1221.5 354.5,-1221.5 354.5,-1215.5 360.5,-1209.5 366.5,-1209.5 366.5,-1209.5 449.5,-1209.5 449.5,-1209.5 455.5,-1209.5 461.5,-1215.5 461.5,-1221.5 461.5,-1221.5 461.5,-1283.5 461.5,-1283.5 461.5,-1289.5 455.5,-1295.5 449.5,-1295.5"/>
<text text-anchor="middle" x="408" y="-1283.5" font-family="Helvetica,sans-Serif" font-size="10.00">2. Select Use Case</text>
<text text-anchor="middle" x="408" y="-1260.5" font-family="Helvetica,sans-Serif" font-size="10.00">Development</text>
<text text-anchor="middle" x="408" y="-1249.5" font-family="Helvetica,sans-Serif" font-size="10.00">Research</text>
<text text-anchor="middle" x="408" y="-1238.5" font-family="Helvetica,sans-Serif" font-size="10.00">Trading</text>
<text text-anchor="middle" x="408" y="-1227.5" font-family="Helvetica,sans-Serif" font-size="10.00">Backfill</text>
<text text-anchor="middle" x="408" y="-1216.5" font-family="Helvetica,sans-Serif" font-size="10.00">Production</text>
</g>
<!-- W1&#45;&gt;W2 -->
<g id="edge12" class="edge">
<title>W1&#45;&gt;W2</title>
<path fill="none" stroke="#2c7a7b" d="M408,-1332.4C408,-1332.4 408,-1305.73 408,-1305.73"/>
<polygon fill="#2c7a7b" stroke="#2c7a7b" points="411.5,-1305.73 408,-1295.73 404.5,-1305.73 411.5,-1305.73"/>
</g>
<!-- W3 -->
<g id="node11" class="node">
<title>W3</title>
<path fill="#6ee7b7" stroke="black" d="M462.5,-1172.5C462.5,-1172.5 349.5,-1172.5 349.5,-1172.5 343.5,-1172.5 337.5,-1166.5 337.5,-1160.5 337.5,-1160.5 337.5,-1131.5 337.5,-1131.5 337.5,-1125.5 343.5,-1119.5 349.5,-1119.5 349.5,-1119.5 462.5,-1119.5 462.5,-1119.5 468.5,-1119.5 474.5,-1125.5 474.5,-1131.5 474.5,-1131.5 474.5,-1160.5 474.5,-1160.5 474.5,-1166.5 468.5,-1172.5 462.5,-1172.5"/>
<text text-anchor="middle" x="406" y="-1160.5" font-family="Helvetica,sans-Serif" font-size="10.00">3. Configure Data Source</text>
<text text-anchor="middle" x="406" y="-1137.5" font-family="Helvetica,sans-Serif" font-size="10.00">Primary provider</text>
<text text-anchor="middle" x="406" y="-1126.5" font-family="Helvetica,sans-Serif" font-size="10.00">Connection settings</text>
</g>
<!-- W2&#45;&gt;W3 -->
<g id="edge13" class="edge">
<title>W2&#45;&gt;W3</title>
<path fill="none" stroke="#2c7a7b" d="M408,-1209.49C408,-1209.49 408,-1182.62 408,-1182.62"/>
<polygon fill="#2c7a7b" stroke="#2c7a7b" points="411.5,-1182.62 408,-1172.62 404.5,-1182.62 411.5,-1182.62"/>
</g>
<!-- W4 -->
<g id="node12" class="node">
<title>W4</title>
<path fill="#6ee7b7" stroke="black" d="M454,-1082.5C454,-1082.5 358,-1082.5 358,-1082.5 352,-1082.5 346,-1076.5 346,-1070.5 346,-1070.5 346,-1041.5 346,-1041.5 346,-1035.5 352,-1029.5 358,-1029.5 358,-1029.5 454,-1029.5 454,-1029.5 460,-1029.5 466,-1035.5 466,-1041.5 466,-1041.5 466,-1070.5 466,-1070.5 466,-1076.5 460,-1082.5 454,-1082.5"/>
<text text-anchor="middle" x="406" y="-1070.5" font-family="Helvetica,sans-Serif" font-size="10.00">4. Configure Symbols</text>
<text text-anchor="middle" x="406" y="-1047.5" font-family="Helvetica,sans-Serif" font-size="10.00">Presets: US Indices,</text>
<text text-anchor="middle" x="406" y="-1036.5" font-family="Helvetica,sans-Serif" font-size="10.00">Tech Giants, S&amp;P 500</text>
</g>
<!-- W3&#45;&gt;W4 -->
<g id="edge14" class="edge">
<title>W3&#45;&gt;W4</title>
<path fill="none" stroke="#2c7a7b" d="M406,-1119.48C406,-1119.48 406,-1092.64 406,-1092.64"/>
<polygon fill="#2c7a7b" stroke="#2c7a7b" points="409.5,-1092.64 406,-1082.64 402.5,-1092.64 409.5,-1092.64"/>
</g>
<!-- W5 -->
<g id="node13" class="node">
<title>W5</title>
<path fill="#6ee7b7" stroke="black" d="M452,-983.5C452,-983.5 360,-983.5 360,-983.5 354,-983.5 348,-977.5 348,-971.5 348,-971.5 348,-942.5 348,-942.5 348,-936.5 354,-930.5 360,-930.5 360,-930.5 452,-930.5 452,-930.5 458,-930.5 464,-936.5 464,-942.5 464,-942.5 464,-971.5 464,-971.5 464,-977.5 458,-983.5 452,-983.5"/>
<text text-anchor="middle" x="406" y="-971.5" font-family="Helvetica,sans-Serif" font-size="10.00">5. Configure Storage</text>
<text text-anchor="middle" x="406" y="-948.5" font-family="Helvetica,sans-Serif" font-size="10.00">Path, format</text>
<text text-anchor="middle" x="406" y="-937.5" font-family="Helvetica,sans-Serif" font-size="10.00">Retention policy</text>
</g>
<!-- W4&#45;&gt;W5 -->
<g id="edge15" class="edge">
<title>W4&#45;&gt;W5</title>
<path fill="none" stroke="#2c7a7b" d="M406,-1029.47C406,-1029.47 406,-993.6 406,-993.6"/>
<polygon fill="#2c7a7b" stroke="#2c7a7b" points="409.5,-993.6 406,-983.6 402.5,-993.6 409.5,-993.6"/>
</g>
<!-- W6 -->
<g id="node14" class="node">
<title>W6</title>
<path fill="#6ee7b7" stroke="black" d="M451,-893.5C451,-893.5 361,-893.5 361,-893.5 355,-893.5 349,-887.5 349,-881.5 349,-881.5 349,-852.5 349,-852.5 349,-846.5 355,-840.5 361,-840.5 361,-840.5 451,-840.5 451,-840.5 457,-840.5 463,-846.5 463,-852.5 463,-852.5 463,-881.5 463,-881.5 463,-887.5 457,-893.5 451,-893.5"/>
<text text-anchor="middle" x="406" y="-881.5" font-family="Helvetica,sans-Serif" font-size="10.00">6. Configure Backfill</text>
<text text-anchor="middle" x="406" y="-858.5" font-family="Helvetica,sans-Serif" font-size="10.00">Historical providers</text>
<text text-anchor="middle" x="406" y="-847.5" font-family="Helvetica,sans-Serif" font-size="10.00">Priority chain</text>
</g>
<!-- W5&#45;&gt;W6 -->
<g id="edge16" class="edge">
<title>W5&#45;&gt;W6</title>
<path fill="none" stroke="#2c7a7b" d="M406,-930.48C406,-930.48 406,-903.64 406,-903.64"/>
<polygon fill="#2c7a7b" stroke="#2c7a7b" points="409.5,-903.64 406,-893.64 402.5,-903.64 409.5,-903.64"/>
</g>
<!-- W7 -->
<g id="node15" class="node">
<title>W7</title>
<path fill="#6ee7b7" stroke="black" d="M447.5,-803.5C447.5,-803.5 364.5,-803.5 364.5,-803.5 358.5,-803.5 352.5,-797.5 352.5,-791.5 352.5,-791.5 352.5,-762.5 352.5,-762.5 352.5,-756.5 358.5,-750.5 364.5,-750.5 364.5,-750.5 447.5,-750.5 447.5,-750.5 453.5,-750.5 459.5,-756.5 459.5,-762.5 459.5,-762.5 459.5,-791.5 459.5,-791.5 459.5,-797.5 453.5,-803.5 447.5,-803.5"/>
<text text-anchor="middle" x="406" y="-791.5" font-family="Helvetica,sans-Serif" font-size="10.00">7. Review Settings</text>
<text text-anchor="middle" x="406" y="-768.5" font-family="Helvetica,sans-Serif" font-size="10.00">Summary display</text>
<text text-anchor="middle" x="406" y="-757.5" font-family="Helvetica,sans-Serif" font-size="10.00">Confirmation</text>
</g>
<!-- W6&#45;&gt;W7 -->
<g id="edge17" class="edge">
<title>W6&#45;&gt;W7</title>
<path fill="none" stroke="#2c7a7b" d="M406,-840.48C406,-840.48 406,-813.64 406,-813.64"/>
<polygon fill="#2c7a7b" stroke="#2c7a7b" points="409.5,-813.64 406,-803.64 402.5,-813.64 409.5,-813.64"/>
</g>
<!-- W8 -->
<g id="node16" class="node">
<title>W8</title>
<path fill="#6ee7b7" stroke="black" d="M457,-689C457,-689 355,-689 355,-689 349,-689 343,-683 343,-677 343,-677 343,-648 343,-648 343,-642 349,-636 355,-636 355,-636 457,-636 457,-636 463,-636 469,-642 469,-648 469,-648 469,-677 469,-677 469,-683 463,-689 457,-689"/>
<text text-anchor="middle" x="406" y="-677" font-family="Helvetica,sans-Serif" font-size="10.00">8. Save Configuration</text>
<text text-anchor="middle" x="406" y="-654" font-family="Helvetica,sans-Serif" font-size="10.00">Write appsettings.json</text>
<text text-anchor="middle" x="406" y="-643" font-family="Helvetica,sans-Serif" font-size="10.00">Create marker file</text>
</g>
<!-- W7&#45;&gt;W8 -->
<g id="edge18" class="edge">
<title>W7&#45;&gt;W8</title>
<path fill="none" stroke="#2c7a7b" d="M406,-750.44C406,-750.44 406,-699.31 406,-699.31"/>
<polygon fill="#2c7a7b" stroke="#2c7a7b" points="409.5,-699.31 406,-689.31 402.5,-699.31 409.5,-699.31"/>
</g>
<!-- W8&#45;&gt;CONFIG -->
<g id="edge19" class="edge">
<title>W8&#45;&gt;CONFIG</title>
<path fill="none" stroke="#2c7a7b" d="M406,-635.77C406,-635.77 406,-587.72 406,-587.72"/>
<polygon fill="#2c7a7b" stroke="#2c7a7b" points="409.5,-587.72 406,-577.72 402.5,-587.72 409.5,-587.72"/>
</g>
<!-- VAL_CREDS -->
<g id="node17" class="node">
<title>VAL_CREDS</title>
<path fill="#93c5fd" stroke="black" d="M614.5,-419C614.5,-419 517.5,-419 517.5,-419 511.5,-419 505.5,-413 505.5,-407 505.5,-407 505.5,-367 505.5,-367 505.5,-361 511.5,-355 517.5,-355 517.5,-355 614.5,-355 614.5,-355 620.5,-355 626.5,-361 626.5,-367 626.5,-367 626.5,-407 626.5,-407 626.5,-413 620.5,-419 614.5,-419"/>
<text text-anchor="middle" x="566" y="-407" font-family="Helvetica,sans-Serif" font-size="10.00">&#45;&#45;validate&#45;credentials</text>
<text text-anchor="middle" x="566" y="-384" font-family="Helvetica,sans-Serif" font-size="10.00">Test all API keys</text>
<text text-anchor="middle" x="566" y="-373" font-family="Helvetica,sans-Serif" font-size="10.00">Show account info</text>
<text text-anchor="middle" x="566" y="-362" font-family="Helvetica,sans-Serif" font-size="10.00">Report issues</text>
</g>
<!-- VAL_CREDS&#45;&gt;STARTUP_SUM -->
<g id="edge25" class="edge">
<title>VAL_CREDS&#45;&gt;STARTUP_SUM</title>
<path fill="none" stroke="#38a169" stroke-dasharray="5,2" d="M549.75,-354.9C549.75,-354.9 549.75,-191.35 549.75,-191.35"/>
<polygon fill="#38a169" stroke="#38a169" points="553.25,-191.35 549.75,-181.35 546.25,-191.35 553.25,-191.35"/>
</g>
<!-- TEST_CONN -->
<g id="node18" class="node">
<title>TEST_CONN</title>
<path fill="#93c5fd" stroke="black" d="M191.5,-419C191.5,-419 78.5,-419 78.5,-419 72.5,-419 66.5,-413 66.5,-407 66.5,-407 66.5,-367 66.5,-367 66.5,-361 72.5,-355 78.5,-355 78.5,-355 191.5,-355 191.5,-355 197.5,-355 203.5,-361 203.5,-367 203.5,-367 203.5,-407 203.5,-407 203.5,-413 197.5,-419 191.5,-419"/>
<text text-anchor="middle" x="135" y="-407" font-family="Helvetica,sans-Serif" font-size="10.00">&#45;&#45;test&#45;connectivity</text>
<text text-anchor="middle" x="135" y="-384" font-family="Helvetica,sans-Serif" font-size="10.00">Test internet, DNS</text>
<text text-anchor="middle" x="135" y="-373" font-family="Helvetica,sans-Serif" font-size="10.00">Test each provider</text>
<text text-anchor="middle" x="135" y="-362" font-family="Helvetica,sans-Serif" font-size="10.00">Measure response times</text>
</g>
<!-- TEST_CONN&#45;&gt;STARTUP_SUM -->
<g id="edge26" class="edge">
<title>TEST_CONN&#45;&gt;STARTUP_SUM</title>
<path fill="none" stroke="#38a169" stroke-dasharray="5,2" d="M135,-354.83C135,-286.48 135,-133 135,-133 135,-133 454.92,-133 454.92,-133"/>
<polygon fill="#38a169" stroke="#38a169" points="454.92,-136.5 464.92,-133 454.92,-129.5 454.92,-136.5"/>
</g>
<!-- QUICK_CHECK -->
<g id="node19" class="node">
<title>QUICK_CHECK</title>
<path fill="#93c5fd" stroke="black" d="M338,-424.5C338,-424.5 234,-424.5 234,-424.5 228,-424.5 222,-418.5 222,-412.5 222,-412.5 222,-361.5 222,-361.5 222,-355.5 228,-349.5 234,-349.5 234,-349.5 338,-349.5 338,-349.5 344,-349.5 350,-355.5 350,-361.5 350,-361.5 350,-412.5 350,-412.5 350,-418.5 344,-424.5 338,-424.5"/>
<text text-anchor="middle" x="286" y="-412.5" font-family="Helvetica,sans-Serif" font-size="10.00">&#45;&#45;quick&#45;check</text>
<text text-anchor="middle" x="286" y="-389.5" font-family="Helvetica,sans-Serif" font-size="10.00">Disk space check</text>
<text text-anchor="middle" x="286" y="-378.5" font-family="Helvetica,sans-Serif" font-size="10.00">Symbol configuration</text>
<text text-anchor="middle" x="286" y="-367.5" font-family="Helvetica,sans-Serif" font-size="10.00">Credentials present</text>
<text text-anchor="middle" x="286" y="-356.5" font-family="Helvetica,sans-Serif" font-size="10.00">Compression available</text>
</g>
<!-- QUICK_CHECK&#45;&gt;STARTUP_SUM -->
<g id="edge27" class="edge">
<title>QUICK_CHECK&#45;&gt;STARTUP_SUM</title>
<path fill="none" stroke="#38a169" stroke-dasharray="5,2" d="M286,-349.29C286,-282.18 286,-149 286,-149 286,-149 454.86,-149 454.86,-149"/>
<polygon fill="#38a169" stroke="#38a169" points="454.86,-152.5 464.86,-149 454.86,-145.5 454.86,-152.5"/>
</g>
<!-- VAL_CONFIG -->
<g id="node20" class="node">
<title>VAL_CONFIG</title>
<path fill="#93c5fd" stroke="black" d="M475.5,-419C475.5,-419 380.5,-419 380.5,-419 374.5,-419 368.5,-413 368.5,-407 368.5,-407 368.5,-367 368.5,-367 368.5,-361 374.5,-355 380.5,-355 380.5,-355 475.5,-355 475.5,-355 481.5,-355 487.5,-361 487.5,-367 487.5,-367 487.5,-407 487.5,-407 487.5,-413 481.5,-419 475.5,-419"/>
<text text-anchor="middle" x="428" y="-407" font-family="Helvetica,sans-Serif" font-size="10.00">&#45;&#45;validate&#45;config</text>
<text text-anchor="middle" x="428" y="-384" font-family="Helvetica,sans-Serif" font-size="10.00">Parse configuration</text>
<text text-anchor="middle" x="428" y="-373" font-family="Helvetica,sans-Serif" font-size="10.00">Check required fields</text>
<text text-anchor="middle" x="428" y="-362" font-family="Helvetica,sans-Serif" font-size="10.00">Validate values</text>
</g>
<!-- DRY_RUN -->
<g id="node21" class="node">
<title>DRY_RUN</title>
<path fill="#93c5fd" stroke="black" d="M504.5,-301C504.5,-301 423.5,-301 423.5,-301 417.5,-301 411.5,-295 411.5,-289 411.5,-289 411.5,-249 411.5,-249 411.5,-243 417.5,-237 423.5,-237 423.5,-237 504.5,-237 504.5,-237 510.5,-237 516.5,-243 516.5,-249 516.5,-249 516.5,-289 516.5,-289 516.5,-295 510.5,-301 504.5,-301"/>
<text text-anchor="middle" x="464" y="-289" font-family="Helvetica,sans-Serif" font-size="10.00">&#45;&#45;dry&#45;run</text>
<text text-anchor="middle" x="464" y="-266" font-family="Helvetica,sans-Serif" font-size="10.00">Full initialization</text>
<text text-anchor="middle" x="464" y="-255" font-family="Helvetica,sans-Serif" font-size="10.00">No data collection</text>
<text text-anchor="middle" x="464" y="-244" font-family="Helvetica,sans-Serif" font-size="10.00">Test everything</text>
</g>
<!-- VAL_CONFIG&#45;&gt;DRY_RUN -->
<g id="edge24" class="edge">
<title>VAL_CONFIG&#45;&gt;DRY_RUN</title>
<path fill="none" stroke="#4a5568" stroke-dasharray="5,2" d="M449.5,-354.76C449.5,-354.76 449.5,-311.21 449.5,-311.21"/>
<polygon fill="#4a5568" stroke="#4a5568" points="453,-311.2 449.5,-301.21 446,-311.21 453,-311.2"/>
</g>
<!-- DRY_RUN&#45;&gt;STARTUP_SUM -->
<g id="edge28" class="edge">
<title>DRY_RUN&#45;&gt;STARTUP_SUM</title>
<path fill="none" stroke="#38a169" stroke-dasharray="5,2" d="M490.75,-236.84C490.75,-236.84 490.75,-191.25 490.75,-191.25"/>
<polygon fill="#38a169" stroke="#38a169" points="494.25,-191.25 490.75,-181.25 487.25,-191.25 494.25,-191.25"/>
</g>
<!-- SHOW_CONFIG -->
<g id="node22" class="node">
<title>SHOW_CONFIG</title>
<path fill="#9ae6b4" stroke="black" d="M732.5,-689C732.5,-689 633.5,-689 633.5,-689 627.5,-689 621.5,-683 621.5,-677 621.5,-677 621.5,-648 621.5,-648 621.5,-642 627.5,-636 633.5,-636 633.5,-636 732.5,-636 732.5,-636 738.5,-636 744.5,-642 744.5,-648 744.5,-648 744.5,-677 744.5,-677 744.5,-683 738.5,-689 732.5,-689"/>
<text text-anchor="middle" x="683" y="-677" font-family="Helvetica,sans-Serif" font-size="10.00">&#45;&#45;show&#45;config</text>
<text text-anchor="middle" x="683" y="-654" font-family="Helvetica,sans-Serif" font-size="10.00">Display current config</text>
<text text-anchor="middle" x="683" y="-643" font-family="Helvetica,sans-Serif" font-size="10.00">Masked credentials</text>
</g>
<!-- SHOW_CONFIG&#45;&gt;CONFIG -->
<g id="edge32" class="edge">
<title>SHOW_CONFIG&#45;&gt;CONFIG</title>
<path fill="none" stroke="#4a5568" stroke-dasharray="5,2" d="M685.5,-635.54C685.5,-608.55 685.5,-571 685.5,-571 685.5,-571 477.68,-571 477.68,-571"/>
<polygon fill="#4a5568" stroke="#4a5568" points="477.68,-567.5 467.68,-571 477.68,-574.5 477.68,-567.5"/>
<text text-anchor="middle" x="573.5" y="-605.3" font-family="Helvetica,sans-Serif" font-size="9.00">reads</text>
</g>
<!-- ERROR_CODES -->
<g id="node23" class="node">
<title>ERROR_CODES</title>
<path fill="#9ae6b4" stroke="black" d="M875.5,-694.5C875.5,-694.5 774.5,-694.5 774.5,-694.5 768.5,-694.5 762.5,-688.5 762.5,-682.5 762.5,-682.5 762.5,-642.5 762.5,-642.5 762.5,-636.5 768.5,-630.5 774.5,-630.5 774.5,-630.5 875.5,-630.5 875.5,-630.5 881.5,-630.5 887.5,-636.5 887.5,-642.5 887.5,-642.5 887.5,-682.5 887.5,-682.5 887.5,-688.5 881.5,-694.5 875.5,-694.5"/>
<text text-anchor="middle" x="825" y="-682.5" font-family="Helvetica,sans-Serif" font-size="10.00">&#45;&#45;error&#45;codes</text>
<text text-anchor="middle" x="825" y="-659.5" font-family="Helvetica,sans-Serif" font-size="10.00">24 error codes</text>
<text text-anchor="middle" x="825" y="-648.5" font-family="Helvetica,sans-Serif" font-size="10.00">Meridian&#45;XXX&#45;NNN format</text>
<text text-anchor="middle" x="825" y="-637.5" font-family="Helvetica,sans-Serif" font-size="10.00">Troubleshooting tips</text>
</g>
<!-- ERROR_FMT -->
<g id="node28" class="node">
<title>ERROR_FMT</title>
<path fill="#fc8181" stroke="black" d="M875.5,-565.5C875.5,-565.5 772.5,-565.5 772.5,-565.5 766.5,-565.5 760.5,-559.5 760.5,-553.5 760.5,-553.5 760.5,-513.5 760.5,-513.5 760.5,-507.5 766.5,-501.5 772.5,-501.5 772.5,-501.5 875.5,-501.5 875.5,-501.5 881.5,-501.5 887.5,-507.5 887.5,-513.5 887.5,-513.5 887.5,-553.5 887.5,-553.5 887.5,-559.5 881.5,-565.5 875.5,-565.5"/>
<text text-anchor="middle" x="824" y="-553.5" font-family="Helvetica,sans-Serif" font-size="10.00" fill="white">FriendlyErrorFormatter</text>
<text text-anchor="middle" x="824" y="-530.5" font-family="Helvetica,sans-Serif" font-size="10.00" fill="white">Parse exception</text>
<text text-anchor="middle" x="824" y="-519.5" font-family="Helvetica,sans-Serif" font-size="10.00" fill="white">Assign error code</text>
<text text-anchor="middle" x="824" y="-508.5" font-family="Helvetica,sans-Serif" font-size="10.00" fill="white">Generate suggestions</text>
</g>
<!-- ERROR_CODES&#45;&gt;ERROR_FMT -->
<g id="edge33" class="edge">
<title>ERROR_CODES&#45;&gt;ERROR_FMT</title>
<path fill="none" stroke="#4a5568" stroke-dasharray="5,2" d="M825,-630.28C825,-630.28 825,-575.76 825,-575.76"/>
<polygon fill="#4a5568" stroke="#4a5568" points="828.5,-575.76 825,-565.76 821.5,-575.76 828.5,-575.76"/>
<text text-anchor="middle" x="846.5" y="-605.3" font-family="Helvetica,sans-Serif" font-size="9.00">reference</text>
</g>
<!-- HELP -->
<g id="node24" class="node">
<title>HELP</title>
<path fill="#9ae6b4" stroke="black" d="M591,-689C591,-689 511,-689 511,-689 505,-689 499,-683 499,-677 499,-677 499,-648 499,-648 499,-642 505,-636 511,-636 511,-636 591,-636 591,-636 597,-636 603,-642 603,-648 603,-648 603,-677 603,-677 603,-683 597,-689 591,-689"/>
<text text-anchor="middle" x="551" y="-677" font-family="Helvetica,sans-Serif" font-size="10.00">&#45;&#45;help</text>
<text text-anchor="middle" x="551" y="-654" font-family="Helvetica,sans-Serif" font-size="10.00">All available flags</text>
<text text-anchor="middle" x="551" y="-643" font-family="Helvetica,sans-Serif" font-size="10.00">Usage examples</text>
</g>
<!-- CONFIG&#45;&gt;VAL_CREDS -->
<g id="edge20" class="edge">
<title>CONFIG&#45;&gt;VAL_CREDS</title>
<path fill="none" stroke="#4a5568" stroke-dasharray="5,2" d="M467.58,-495C508.31,-495 554.25,-495 554.25,-495 554.25,-495 554.25,-429.11 554.25,-429.11"/>
<polygon fill="#4a5568" stroke="#4a5568" points="557.75,-429.11 554.25,-419.11 550.75,-429.11 557.75,-429.11"/>
<text text-anchor="middle" x="545.5" y="-464.3" font-family="Helvetica,sans-Serif" font-size="9.00">optional</text>
</g>
<!-- CONFIG&#45;&gt;TEST_CONN -->
<g id="edge21" class="edge">
<title>CONFIG&#45;&gt;TEST_CONN</title>
<path fill="none" stroke="#4a5568" stroke-dasharray="5,2" d="M344.32,-511C281.02,-511 191.75,-511 191.75,-511 191.75,-511 191.75,-429.26 191.75,-429.26"/>
<polygon fill="#4a5568" stroke="#4a5568" points="195.25,-429.26 191.75,-419.26 188.25,-429.26 195.25,-429.26"/>
<text text-anchor="middle" x="240.5" y="-464.3" font-family="Helvetica,sans-Serif" font-size="9.00">optional</text>
</g>
<!-- CONFIG&#45;&gt;QUICK_CHECK -->
<g id="edge22" class="edge">
<title>CONFIG&#45;&gt;QUICK_CHECK</title>
<path fill="none" stroke="#4a5568" stroke-dasharray="5,2" d="M356.17,-491.52C356.17,-448.23 356.17,-387 356.17,-387 356.17,-387 355.57,-387 355.57,-387"/>
<polygon fill="#4a5568" stroke="#4a5568" points="360.18,-383.5 350.18,-387 360.18,-390.5 360.18,-383.5"/>
<text text-anchor="middle" x="345.5" y="-464.3" font-family="Helvetica,sans-Serif" font-size="9.00">optional</text>
</g>
<!-- CONFIG&#45;&gt;VAL_CONFIG -->
<g id="edge23" class="edge">
<title>CONFIG&#45;&gt;VAL_CONFIG</title>
<path fill="none" stroke="#4a5568" stroke-dasharray="5,2" d="M418,-489.15C418,-489.15 418,-429.11 418,-429.11"/>
<polygon fill="#4a5568" stroke="#4a5568" points="421.5,-429.11 418,-419.11 414.5,-429.11 421.5,-429.11"/>
<text text-anchor="middle" x="435.5" y="-464.3" font-family="Helvetica,sans-Serif" font-size="9.00">optional</text>
</g>
<!-- CONFIG&#45;&gt;STARTUP_SUM -->
<g id="edge29" class="edge">
<title>CONFIG&#45;&gt;STARTUP_SUM</title>
<path fill="none" stroke="#38a169" d="M362.33,-490.51C362.33,-393.3 362.33,-165 362.33,-165 362.33,-165 454.72,-165 454.72,-165"/>
<polygon fill="#38a169" stroke="#38a169" points="454.72,-168.5 464.72,-165 454.72,-161.5 454.72,-168.5"/>
</g>
<!-- RUN_NORMAL -->
<g id="node27" class="node">
<title>RUN_NORMAL</title>
<path fill="#38a169" stroke="black" d="M571.5,-80C571.5,-80 476.5,-80 476.5,-80 470.5,-80 464.5,-74 464.5,-68 464.5,-68 464.5,-28 464.5,-28 464.5,-22 470.5,-16 476.5,-16 476.5,-16 571.5,-16 571.5,-16 577.5,-16 583.5,-22 583.5,-28 583.5,-28 583.5,-68 583.5,-68 583.5,-74 577.5,-80 571.5,-80"/>
<text text-anchor="middle" x="524" y="-68" font-family="Helvetica,sans-Serif" font-size="10.00" fill="white">Normal Operation</text>
<text text-anchor="middle" x="524" y="-45" font-family="Helvetica,sans-Serif" font-size="10.00" fill="white">&#45;&#45;ui (with dashboard)</text>
<text text-anchor="middle" x="524" y="-34" font-family="Helvetica,sans-Serif" font-size="10.00" fill="white">&#45;&#45;backfill (historical)</text>
<text text-anchor="middle" x="524" y="-23" font-family="Helvetica,sans-Serif" font-size="10.00" fill="white">default (streaming)</text>
</g>
<!-- STARTUP_SUM&#45;&gt;RUN_NORMAL -->
<g id="edge30" class="edge">
<title>STARTUP_SUM&#45;&gt;RUN_NORMAL</title>
<path fill="none" stroke="#38a169" d="M524,-116.77C524,-116.77 524,-90.27 524,-90.27"/>
<polygon fill="#38a169" stroke="#38a169" points="527.5,-90.27 524,-80.27 520.5,-90.27 527.5,-90.27"/>
</g>
<!-- ERROR_DISPLAY -->
<g id="node29" class="node">
<title>ERROR_DISPLAY</title>
<path fill="#fecaca" stroke="black" d="M872.5,-436C872.5,-436 775.5,-436 775.5,-436 769.5,-436 763.5,-430 763.5,-424 763.5,-424 763.5,-350 763.5,-350 763.5,-344 769.5,-338 775.5,-338 775.5,-338 872.5,-338 872.5,-338 878.5,-338 884.5,-344 884.5,-350 884.5,-350 884.5,-424 884.5,-424 884.5,-430 878.5,-436 872.5,-436"/>
<text text-anchor="middle" x="824" y="-424" font-family="Helvetica,sans-Serif" font-size="10.00">User&#45;Friendly Error</text>
<text text-anchor="middle" x="824" y="-401" font-family="Helvetica,sans-Serif" font-size="10.00">[Meridian&#45;CFG&#45;001]</text>
<text text-anchor="middle" x="824" y="-390" font-family="Helvetica,sans-Serif" font-size="10.00">Missing configuration</text>
<text text-anchor="middle" x="824" y="-367" font-family="Helvetica,sans-Serif" font-size="10.00">Suggestions:</text>
<text text-anchor="middle" x="824" y="-356" font-family="Helvetica,sans-Serif" font-size="10.00">1. Run &#45;&#45;wizard</text>
<text text-anchor="middle" x="824" y="-345" font-family="Helvetica,sans-Serif" font-size="10.00">2. Check env vars</text>
</g>
<!-- ERROR_FMT&#45;&gt;ERROR_DISPLAY -->
<g id="edge31" class="edge">
<title>ERROR_FMT&#45;&gt;ERROR_DISPLAY</title>
<path fill="none" stroke="#e53e3e" d="M824,-501.35C824,-501.35 824,-446.08 824,-446.08"/>
<polygon fill="#e53e3e" stroke="#e53e3e" points="827.5,-446.08 824,-436.08 820.5,-446.08 827.5,-446.08"/>
</g>
<!-- L1 -->
<g id="node30" class="node">
<title>L1</title>
<path fill="#fbd38d" stroke="black" d="M1359,-1991.71C1359,-1991.71 1279,-1991.71 1279,-1991.71 1273,-1991.71 1267,-1985.71 1267,-1979.71 1267,-1979.71 1267,-1967.71 1267,-1967.71 1267,-1961.71 1273,-1955.71 1279,-1955.71 1279,-1955.71 1359,-1955.71 1359,-1955.71 1365,-1955.71 1371,-1961.71 1371,-1967.71 1371,-1967.71 1371,-1979.71 1371,-1979.71 1371,-1985.71 1365,-1991.71 1359,-1991.71"/>
<text text-anchor="middle" x="1319" y="-1971.21" font-family="Helvetica,sans-Serif" font-size="10.00">First&#45;Run Services</text>
</g>
<!-- L2 -->
<g id="node31" class="node">
<title>L2</title>
<path fill="#c4b5fd" stroke="black" d="M1236.5,-1991.71C1236.5,-1991.71 1175.5,-1991.71 1175.5,-1991.71 1169.5,-1991.71 1163.5,-1985.71 1163.5,-1979.71 1163.5,-1979.71 1163.5,-1967.71 1163.5,-1967.71 1163.5,-1961.71 1169.5,-1955.71 1175.5,-1955.71 1175.5,-1955.71 1236.5,-1955.71 1236.5,-1955.71 1242.5,-1955.71 1248.5,-1961.71 1248.5,-1967.71 1248.5,-1967.71 1248.5,-1979.71 1248.5,-1979.71 1248.5,-1985.71 1242.5,-1991.71 1236.5,-1991.71"/>
<text text-anchor="middle" x="1206" y="-1971.21" font-family="Helvetica,sans-Serif" font-size="10.00">Setup Options</text>
</g>
<!-- L3 -->
<g id="node32" class="node">
<title>L3</title>
<path fill="#6ee7b7" stroke="black" d="M1133,-1991.71C1133,-1991.71 1077,-1991.71 1077,-1991.71 1071,-1991.71 1065,-1985.71 1065,-1979.71 1065,-1979.71 1065,-1967.71 1065,-1967.71 1065,-1961.71 1071,-1955.71 1077,-1955.71 1077,-1955.71 1133,-1955.71 1133,-1955.71 1139,-1955.71 1145,-1961.71 1145,-1967.71 1145,-1967.71 1145,-1979.71 1145,-1979.71 1145,-1985.71 1139,-1991.71 1133,-1991.71"/>
<text text-anchor="middle" x="1105" y="-1971.21" font-family="Helvetica,sans-Serif" font-size="10.00">Wizard Steps</text>
</g>
<!-- L4 -->
<g id="node33" class="node">
<title>L4</title>
<path fill="#93c5fd" stroke="black" d="M1034.5,-1991.71C1034.5,-1991.71 933.5,-1991.71 933.5,-1991.71 927.5,-1991.71 921.5,-1985.71 921.5,-1979.71 921.5,-1979.71 921.5,-1967.71 921.5,-1967.71 921.5,-1961.71 927.5,-1955.71 933.5,-1955.71 933.5,-1955.71 1034.5,-1955.71 1034.5,-1955.71 1040.5,-1955.71 1046.5,-1961.71 1046.5,-1967.71 1046.5,-1967.71 1046.5,-1979.71 1046.5,-1979.71 1046.5,-1985.71 1040.5,-1991.71 1034.5,-1991.71"/>
<text text-anchor="middle" x="984" y="-1971.21" font-family="Helvetica,sans-Serif" font-size="10.00">Validation/Diagnostics</text>
</g>
<!-- L5 -->
<g id="node34" class="node">
<title>L5</title>
<path fill="#9ae6b4" stroke="black" d="M891,-1991.71C891,-1991.71 823,-1991.71 823,-1991.71 817,-1991.71 811,-1985.71 811,-1979.71 811,-1979.71 811,-1967.71 811,-1967.71 811,-1961.71 817,-1955.71 823,-1955.71 823,-1955.71 891,-1955.71 891,-1955.71 897,-1955.71 903,-1961.71 903,-1967.71 903,-1967.71 903,-1979.71 903,-1979.71 903,-1985.71 897,-1991.71 891,-1991.71"/>
<text text-anchor="middle" x="857" y="-1971.21" font-family="Helvetica,sans-Serif" font-size="10.00">Documentation</text>
</g>
<!-- L6 -->
<g id="node35" class="node">
<title>L6</title>
<path fill="#fc8181" stroke="black" d="M781,-1991.71C781,-1991.71 719,-1991.71 719,-1991.71 713,-1991.71 707,-1985.71 707,-1979.71 707,-1979.71 707,-1967.71 707,-1967.71 707,-1961.71 713,-1955.71 719,-1955.71 719,-1955.71 781,-1955.71 781,-1955.71 787,-1955.71 793,-1961.71 793,-1967.71 793,-1967.71 793,-1979.71 793,-1979.71 793,-1985.71 787,-1991.71 781,-1991.71"/>
<text text-anchor="middle" x="750" y="-1971.21" font-family="Helvetica,sans-Serif" font-size="10.00" fill="white">Error Handling</text>
</g>
<!-- LEG_FLOW -->
<g id="node36" class="node">
<title>LEG_FLOW</title>
<path fill="lightgrey" stroke="transparent" d="M676.5,-1991.71C676.5,-1991.71 545.5,-1991.71 545.5,-1991.71 539.5,-1991.71 533.5,-1985.71 533.5,-1979.71 533.5,-1979.71 533.5,-1967.71 533.5,-1967.71 533.5,-1961.71 539.5,-1955.71 545.5,-1955.71 545.5,-1955.71 676.5,-1955.71 676.5,-1955.71 682.5,-1955.71 688.5,-1961.71 688.5,-1967.71 688.5,-1967.71 688.5,-1979.71 688.5,-1979.71 688.5,-1985.71 682.5,-1991.71 676.5,-1991.71"/>
<text text-anchor="middle" x="611" y="-1976.71" font-family="Helvetica,sans-Serif" font-size="10.00">━━ Primary flow</text>
<text text-anchor="middle" x="611" y="-1965.71" font-family="Helvetica,sans-Serif" font-size="10.00">─ ─ Optional/alternative flow</text>
</g>
</g>
</svg>
