<?xml version="1.0" encoding="UTF-8" standalone="no"?>
<!DOCTYPE svg PUBLIC "-//W3C//DTD SVG 1.1//EN"
 "http://www.w3.org/Graphics/SVG/1.1/DTD/svg11.dtd">
<!-- Generated by graphviz version 2.43.0 (0)
 -->
<!-- Title: OnboardingFlow Pages: 1 -->
<svg width="1243pt" height="2135pt"
 viewBox="0.00 0.00 1243.00 2134.71" xmlns="http://www.w3.org/2000/svg" xmlns:xlink="http://www.w3.org/1999/xlink">
<g id="graph0" class="graph" transform="scale(1 1) rotate(0) translate(36 2098.71)">
<title>OnboardingFlow</title>
<polygon fill="white" stroke="transparent" points="-36,36 -36,-2098.71 1207,-2098.71 1207,36 -36,36"/>
<text text-anchor="middle" x="585.5" y="-2049.11" font-family="Helvetica,sans-Serif" font-size="12.00">Meridian &#45; Onboarding &amp; Diagnostics Flow</text>
<text text-anchor="middle" x="585.5" y="-2036.11" font-family="Helvetica,sans-Serif" font-size="12.00">User Journey from Installation to Operation | v1.7.x</text>
<g id="clust1" class="cluster">
<title>cluster_firstrun</title>
<path fill="#fffaf0" stroke="#ed8936" d="M175,-1663.5C175,-1663.5 331,-1663.5 331,-1663.5 337,-1663.5 343,-1669.5 343,-1675.5 343,-1675.5 343,-1913.5 343,-1913.5 343,-1919.5 337,-1925.5 331,-1925.5 331,-1925.5 175,-1925.5 175,-1925.5 169,-1925.5 163,-1919.5 163,-1913.5 163,-1913.5 163,-1675.5 163,-1675.5 163,-1669.5 169,-1663.5 175,-1663.5"/>
<text text-anchor="middle" x="253" y="-1911.9" font-family="Helvetica,sans-Serif" font-size="12.00">First&#45;Run Detection</text>
</g>
<g id="clust2" class="cluster">
<title>cluster_setup</title>
<path fill="#ede9fe" stroke="#805ad5" d="M23,-1433.5C23,-1433.5 485,-1433.5 485,-1433.5 491,-1433.5 497,-1439.5 497,-1445.5 497,-1445.5 497,-1632.5 497,-1632.5 497,-1638.5 491,-1644.5 485,-1644.5 485,-1644.5 23,-1644.5 23,-1644.5 17,-1644.5 11,-1638.5 11,-1632.5 11,-1632.5 11,-1445.5 11,-1445.5 11,-1439.5 17,-1433.5 23,-1433.5"/>
<text text-anchor="middle" x="254" y="-1630.9" font-family="Helvetica,sans-Serif" font-size="12.00">Setup Options (Choose One)</text>
</g>
<g id="clust3" class="cluster">
<title>cluster_wizard</title>
<path fill="#d1fae5" stroke="#2c7a7b" d="M31,-628C31,-628 205,-628 205,-628 211,-628 217,-634 217,-640 217,-640 217,-1402.5 217,-1402.5 217,-1408.5 211,-1414.5 205,-1414.5 205,-1414.5 31,-1414.5 31,-1414.5 25,-1414.5 19,-1408.5 19,-1402.5 19,-1402.5 19,-640 19,-640 19,-634 25,-628 31,-628"/>
<text text-anchor="middle" x="118" y="-1400.9" font-family="Helvetica,sans-Serif" font-size="12.00">Configuration Wizard (8 Steps)</text>
</g>
<g id="clust4" class="cluster">
<title>cluster_validation</title>
<path fill="#dbeafe" stroke="#2b6cb0" d="M20,-229C20,-229 573,-229 573,-229 579,-229 585,-235 585,-241 585,-241 585,-441.5 585,-441.5 585,-447.5 579,-453.5 573,-453.5 573,-453.5 20,-453.5 20,-453.5 14,-453.5 8,-447.5 8,-441.5 8,-441.5 8,-241 8,-241 8,-235 14,-229 20,-229"/>
<text text-anchor="middle" x="296.5" y="-439.9" font-family="Helvetica,sans-Serif" font-size="12.00">Validation &amp; Diagnostics</text>
</g>
<g id="clust5" class="cluster">
<title>cluster_docs</title>
<path fill="#f0fff4" stroke="#38a169" d="M394,-622.5C394,-622.5 801,-622.5 801,-622.5 807,-622.5 813,-628.5 813,-634.5 813,-634.5 813,-711.5 813,-711.5 813,-717.5 807,-723.5 801,-723.5 801,-723.5 394,-723.5 394,-723.5 388,-723.5 382,-717.5 382,-711.5 382,-711.5 382,-634.5 382,-634.5 382,-628.5 388,-622.5 394,-622.5"/>
<text text-anchor="middle" x="597.5" y="-709.9" font-family="Helvetica,sans-Serif" font-size="12.00">Documentation &amp; Help</text>
</g>
<g id="clust6" class="cluster">
<title>cluster_ready</title>
<path fill="#c6f6d5" stroke="#38a169" d="M426,-8C426,-8 538,-8 538,-8 544,-8 550,-14 550,-20 550,-20 550,-198 550,-198 550,-204 544,-210 538,-210 538,-210 426,-210 426,-210 420,-210 414,-204 414,-198 414,-198 414,-20 414,-20 414,-14 420,-8 426,-8"/>
<text text-anchor="middle" x="482" y="-196.4" font-family="Helvetica,sans-Serif" font-size="12.00">Ready to Operate</text>
</g>
<g id="clust7" class="cluster">
<title>cluster_errors</title>
<path fill="#fee2e2" stroke="#e53e3e" d="M669,-330C669,-330 789,-330 789,-330 795,-330 801,-336 801,-342 801,-342 801,-582.5 801,-582.5 801,-588.5 795,-594.5 789,-594.5 789,-594.5 669,-594.5 669,-594.5 663,-594.5 657,-588.5 657,-582.5 657,-582.5 657,-342 657,-342 657,-336 663,-330 669,-330"/>
<text text-anchor="middle" x="729" y="-580.9" font-family="Helvetica,sans-Serif" font-size="12.00">Error Handling</text>
</g>
<g id="clust8" class="cluster">
<title>cluster_legend</title>
<path fill="#fafafa" stroke="#666666" d="M321,-1947.71C321,-1947.71 1151,-1947.71 1151,-1947.71 1157,-1947.71 1163,-1953.71 1163,-1959.71 1163,-1959.71 1163,-2008.71 1163,-2008.71 1163,-2014.71 1157,-2020.71 1151,-2020.71 1151,-2020.71 321,-2020.71 321,-2020.71 315,-2020.71 309,-2014.71 309,-2008.71 309,-2008.71 309,-1959.71 309,-1959.71 309,-1953.71 315,-1947.71 321,-1947.71"/>
<text text-anchor="middle" x="736" y="-2007.11" font-family="Helvetica,sans-Serif" font-size="12.00">Legend</text>
</g>
<!-- START -->
<g id="node1" class="node">
<title>START</title>
<ellipse fill="#38a169" stroke="black" cx="253" cy="-1973.71" rx="46.84" ry="21.43"/>
<text text-anchor="middle" x="253" y="-1976.71" font-family="Helvetica,sans-Serif" font-size="10.00" fill="white">User Runs</text>
<text text-anchor="middle" x="253" y="-1965.71" font-family="Helvetica,sans-Serif" font-size="10.00" fill="white">Meridian</text>
</g>
<!-- FIRST_RUN -->
<g id="node2" class="node">
<title>FIRST_RUN</title>
<path fill="#fbd38d" stroke="black" d="M323,-1896.5C323,-1896.5 183,-1896.5 183,-1896.5 177,-1896.5 171,-1890.5 171,-1884.5 171,-1884.5 171,-1855.5 171,-1855.5 171,-1849.5 177,-1843.5 183,-1843.5 183,-1843.5 323,-1843.5 323,-1843.5 329,-1843.5 335,-1849.5 335,-1855.5 335,-1855.5 335,-1884.5 335,-1884.5 335,-1890.5 329,-1896.5 323,-1896.5"/>
<text text-anchor="middle" x="253" y="-1884.5" font-family="Helvetica,sans-Serif" font-size="10.00">FirstRunDetector</text>
<text text-anchor="middle" x="253" y="-1861.5" font-family="Helvetica,sans-Serif" font-size="10.00">Check for .meridian&#45;initialized</text>
<text text-anchor="middle" x="253" y="-1850.5" font-family="Helvetica,sans-Serif" font-size="10.00">Check for appsettings.json</text>
</g>
<!-- START&#45;&gt;FIRST_RUN -->
<g id="edge1" class="edge">
<title>START&#45;&gt;FIRST_RUN</title>
<path fill="none" stroke="#38a169" d="M253,-1952.48C253,-1952.48 253,-1906.75 253,-1906.75"/>
<polygon fill="#38a169" stroke="#38a169" points="256.5,-1906.75 253,-1896.75 249.5,-1906.75 256.5,-1906.75"/>
</g>
<!-- FIRST_RUN_CHOICE -->
<g id="node4" class="node">
<title>FIRST_RUN_CHOICE</title>
<path fill="#fed7aa" stroke="black" d="M241.61,-1802.72C241.61,-1802.72 210.16,-1792.28 210.16,-1792.28 204.47,-1790.39 204.47,-1786.61 210.16,-1784.72 210.16,-1784.72 241.61,-1774.28 241.61,-1774.28 247.31,-1772.39 258.69,-1772.39 264.39,-1774.28 264.39,-1774.28 295.84,-1784.72 295.84,-1784.72 301.53,-1786.61 301.53,-1790.39 295.84,-1792.28 295.84,-1792.28 264.39,-1802.72 264.39,-1802.72 258.69,-1804.61 247.31,-1804.61 241.61,-1802.72"/>
<text text-anchor="middle" x="253" y="-1786" font-family="Helvetica,sans-Serif" font-size="10.00">First Run?</text>
</g>
<!-- FIRST_RUN&#45;&gt;FIRST_RUN_CHOICE -->
<g id="edge2" class="edge">
<title>FIRST_RUN&#45;&gt;FIRST_RUN_CHOICE</title>
<path fill="none" stroke="#4a5568" d="M253,-1843.31C253,-1843.31 253,-1816.99 253,-1816.99"/>
<polygon fill="#4a5568" stroke="#4a5568" points="256.5,-1816.99 253,-1806.99 249.5,-1816.99 256.5,-1816.99"/>
</g>
<!-- WELCOME -->
<g id="node3" class="node">
<title>WELCOME</title>
<path fill="#fbd38d" stroke="black" d="M317.5,-1724.5C317.5,-1724.5 184.5,-1724.5 184.5,-1724.5 178.5,-1724.5 172.5,-1718.5 172.5,-1712.5 172.5,-1712.5 172.5,-1683.5 172.5,-1683.5 172.5,-1677.5 178.5,-1671.5 184.5,-1671.5 184.5,-1671.5 317.5,-1671.5 317.5,-1671.5 323.5,-1671.5 329.5,-1677.5 329.5,-1683.5 329.5,-1683.5 329.5,-1712.5 329.5,-1712.5 329.5,-1718.5 323.5,-1724.5 317.5,-1724.5"/>
<text text-anchor="middle" x="251" y="-1712.5" font-family="Helvetica,sans-Serif" font-size="10.00">Welcome Message</text>
<text text-anchor="middle" x="251" y="-1689.5" font-family="Helvetica,sans-Serif" font-size="10.00">Display ASCII banner</text>
<text text-anchor="middle" x="251" y="-1678.5" font-family="Helvetica,sans-Serif" font-size="10.00">Show getting started options</text>
</g>
<!-- WIZARD_OPT -->
<g id="node5" class="node">
<title>WIZARD_OPT</title>
<path fill="#c4b5fd" stroke="black" d="M136.5,-1505.5C136.5,-1505.5 41.5,-1505.5 41.5,-1505.5 35.5,-1505.5 29.5,-1499.5 29.5,-1493.5 29.5,-1493.5 29.5,-1453.5 29.5,-1453.5 29.5,-1447.5 35.5,-1441.5 41.5,-1441.5 41.5,-1441.5 136.5,-1441.5 136.5,-1441.5 142.5,-1441.5 148.5,-1447.5 148.5,-1453.5 148.5,-1453.5 148.5,-1493.5 148.5,-1493.5 148.5,-1499.5 142.5,-1505.5 136.5,-1505.5"/>
<text text-anchor="middle" x="89" y="-1493.5" font-family="Helvetica,sans-Serif" font-size="10.00">&#45;&#45;wizard</text>
<text text-anchor="middle" x="89" y="-1482.5" font-family="Helvetica,sans-Serif" font-size="10.00">[Interactive Setup]</text>
<text text-anchor="middle" x="89" y="-1459.5" font-family="Helvetica,sans-Serif" font-size="10.00">8&#45;step guided wizard</text>
<text text-anchor="middle" x="89" y="-1448.5" font-family="Helvetica,sans-Serif" font-size="10.00">Best for new users</text>
</g>
<!-- WELCOME&#45;&gt;WIZARD_OPT -->
<g id="edge5" class="edge">
<title>WELCOME&#45;&gt;WIZARD_OPT</title>
<path fill="none" stroke="#4a5568" stroke-dasharray="5,2" d="M172.33,-1689C167.78,-1689 165,-1689 165,-1689 165,-1689 165,-1473 165,-1473 165,-1473 158.51,-1473 158.51,-1473"/>
<polygon fill="#4a5568" stroke="#4a5568" points="158.51,-1469.5 148.51,-1473 158.51,-1476.5 158.51,-1469.5"/>
</g>
<!-- AUTO_OPT -->
<g id="node6" class="node">
<title>AUTO_OPT</title>
<path fill="#c4b5fd" stroke="black" d="M476.5,-1615.5C476.5,-1615.5 355.5,-1615.5 355.5,-1615.5 349.5,-1615.5 343.5,-1609.5 343.5,-1603.5 343.5,-1603.5 343.5,-1563.5 343.5,-1563.5 343.5,-1557.5 349.5,-1551.5 355.5,-1551.5 355.5,-1551.5 476.5,-1551.5 476.5,-1551.5 482.5,-1551.5 488.5,-1557.5 488.5,-1563.5 488.5,-1563.5 488.5,-1603.5 488.5,-1603.5 488.5,-1609.5 482.5,-1615.5 476.5,-1615.5"/>
<text text-anchor="middle" x="416" y="-1603.5" font-family="Helvetica,sans-Serif" font-size="10.00">&#45;&#45;auto&#45;config</text>
<text text-anchor="middle" x="416" y="-1592.5" font-family="Helvetica,sans-Serif" font-size="10.00">[Quick Setup]</text>
<text text-anchor="middle" x="416" y="-1569.5" font-family="Helvetica,sans-Serif" font-size="10.00">Auto&#45;detect from env vars</text>
<text text-anchor="middle" x="416" y="-1558.5" font-family="Helvetica,sans-Serif" font-size="10.00">Best for CI/CD</text>
</g>
<!-- WELCOME&#45;&gt;AUTO_OPT -->
<g id="edge6" class="edge">
<title>WELCOME&#45;&gt;AUTO_OPT</title>
<path fill="none" stroke="#4a5568" stroke-dasharray="5,2" d="M329.96,-1698C369.06,-1698 408,-1698 408,-1698 408,-1698 408,-1625.7 408,-1625.7"/>
<polygon fill="#4a5568" stroke="#4a5568" points="411.5,-1625.7 408,-1615.7 404.5,-1625.7 411.5,-1625.7"/>
</g>
<!-- GENERATE_OPT -->
<g id="node7" class="node">
<title>GENERATE_OPT</title>
<path fill="#c4b5fd" stroke="black" d="M313,-1615.5C313,-1615.5 189,-1615.5 189,-1615.5 183,-1615.5 177,-1609.5 177,-1603.5 177,-1603.5 177,-1563.5 177,-1563.5 177,-1557.5 183,-1551.5 189,-1551.5 189,-1551.5 313,-1551.5 313,-1551.5 319,-1551.5 325,-1557.5 325,-1563.5 325,-1563.5 325,-1603.5 325,-1603.5 325,-1609.5 319,-1615.5 313,-1615.5"/>
<text text-anchor="middle" x="251" y="-1603.5" font-family="Helvetica,sans-Serif" font-size="10.00">&#45;&#45;generate&#45;config &lt;type&gt;</text>
<text text-anchor="middle" x="251" y="-1592.5" font-family="Helvetica,sans-Serif" font-size="10.00">[Template Generation]</text>
<text text-anchor="middle" x="251" y="-1569.5" font-family="Helvetica,sans-Serif" font-size="10.00">minimal, full, alpaca</text>
<text text-anchor="middle" x="251" y="-1558.5" font-family="Helvetica,sans-Serif" font-size="10.00">backfill, production, docker</text>
</g>
<!-- WELCOME&#45;&gt;GENERATE_OPT -->
<g id="edge7" class="edge">
<title>WELCOME&#45;&gt;GENERATE_OPT</title>
<path fill="none" stroke="#4a5568" stroke-dasharray="5,2" d="M251,-1671.44C251,-1671.44 251,-1625.62 251,-1625.62"/>
<polygon fill="#4a5568" stroke="#4a5568" points="254.5,-1625.62 251,-1615.62 247.5,-1625.62 254.5,-1625.62"/>
</g>
<!-- DETECT_OPT -->
<g id="node8" class="node">
<title>DETECT_OPT</title>
<path fill="#c4b5fd" stroke="black" d="M147,-1615.5C147,-1615.5 31,-1615.5 31,-1615.5 25,-1615.5 19,-1609.5 19,-1603.5 19,-1603.5 19,-1563.5 19,-1563.5 19,-1557.5 25,-1551.5 31,-1551.5 31,-1551.5 147,-1551.5 147,-1551.5 153,-1551.5 159,-1557.5 159,-1563.5 159,-1563.5 159,-1603.5 159,-1603.5 159,-1609.5 153,-1615.5 147,-1615.5"/>
<text text-anchor="middle" x="89" y="-1603.5" font-family="Helvetica,sans-Serif" font-size="10.00">&#45;&#45;detect&#45;providers</text>
<text text-anchor="middle" x="89" y="-1592.5" font-family="Helvetica,sans-Serif" font-size="10.00">[Discovery]</text>
<text text-anchor="middle" x="89" y="-1569.5" font-family="Helvetica,sans-Serif" font-size="10.00">Scan environment</text>
<text text-anchor="middle" x="89" y="-1558.5" font-family="Helvetica,sans-Serif" font-size="10.00">Show available providers</text>
</g>
<!-- WELCOME&#45;&gt;DETECT_OPT -->
<g id="edge8" class="edge">
<title>WELCOME&#45;&gt;DETECT_OPT</title>
<path fill="none" stroke="#4a5568" stroke-dasharray="5,2" d="M172.37,-1706C131.1,-1706 89,-1706 89,-1706 89,-1706 89,-1625.69 89,-1625.69"/>
<polygon fill="#4a5568" stroke="#4a5568" points="92.5,-1625.69 89,-1615.69 85.5,-1625.69 92.5,-1625.69"/>
</g>
<!-- FIRST_RUN_CHOICE&#45;&gt;WELCOME -->
<g id="edge3" class="edge">
<title>FIRST_RUN_CHOICE&#45;&gt;WELCOME</title>
<path fill="none" stroke="#4a5568" d="M253,-1770.19C253,-1770.19 253,-1734.52 253,-1734.52"/>
<polygon fill="#4a5568" stroke="#4a5568" points="256.5,-1734.52 253,-1724.52 249.5,-1734.52 256.5,-1734.52"/>
<text text-anchor="middle" x="259.5" y="-1745.3" font-family="Helvetica,sans-Serif" font-size="9.00">Yes</text>
</g>
<!-- STARTUP_SUM -->
<g id="node26" class="node">
<title>STARTUP_SUM</title>
<path fill="#68d391" stroke="black" d="M529,-181C529,-181 435,-181 435,-181 429,-181 423,-175 423,-169 423,-169 423,-129 423,-129 423,-123 429,-117 435,-117 435,-117 529,-117 529,-117 535,-117 541,-123 541,-129 541,-129 541,-169 541,-169 541,-175 535,-181 529,-181"/>
<text text-anchor="middle" x="482" y="-169" font-family="Helvetica,sans-Serif" font-size="10.00">StartupSummary</text>
<text text-anchor="middle" x="482" y="-146" font-family="Helvetica,sans-Serif" font-size="10.00">Configuration review</text>
<text text-anchor="middle" x="482" y="-135" font-family="Helvetica,sans-Serif" font-size="10.00">Provider status</text>
<text text-anchor="middle" x="482" y="-124" font-family="Helvetica,sans-Serif" font-size="10.00">Health checks</text>
</g>
<!-- FIRST_RUN_CHOICE&#45;&gt;STARTUP_SUM -->
<g id="edge4" class="edge">
<title>FIRST_RUN_CHOICE&#45;&gt;STARTUP_SUM</title>
<path fill="none" stroke="#38a169" d="M305.8,-1788C412.66,-1788 644.5,-1788 644.5,-1788 644.5,-1788 644.5,-149 644.5,-149 644.5,-149 551.13,-149 551.13,-149"/>
<polygon fill="#38a169" stroke="#38a169" points="551.13,-145.5 541.13,-149 551.13,-152.5 551.13,-145.5"/>
<text text-anchor="middle" x="839.5" y="-1004.3" font-family="Helvetica,sans-Serif" font-size="9.00">No</text>
</g>
<!-- W1 -->
<g id="node9" class="node">
<title>W1</title>
<path fill="#6ee7b7" stroke="black" d="M143.5,-1385.5C143.5,-1385.5 42.5,-1385.5 42.5,-1385.5 36.5,-1385.5 30.5,-1379.5 30.5,-1373.5 30.5,-1373.5 30.5,-1344.5 30.5,-1344.5 30.5,-1338.5 36.5,-1332.5 42.5,-1332.5 42.5,-1332.5 143.5,-1332.5 143.5,-1332.5 149.5,-1332.5 155.5,-1338.5 155.5,-1344.5 155.5,-1344.5 155.5,-1373.5 155.5,-1373.5 155.5,-1379.5 149.5,-1385.5 143.5,-1385.5"/>
<text text-anchor="middle" x="93" y="-1373.5" font-family="Helvetica,sans-Serif" font-size="10.00">1. Detect Providers</text>
<text text-anchor="middle" x="93" y="-1350.5" font-family="Helvetica,sans-Serif" font-size="10.00">Scan env vars</text>
<text text-anchor="middle" x="93" y="-1339.5" font-family="Helvetica,sans-Serif" font-size="10.00">Identify available APIs</text>
</g>
<!-- WIZARD_OPT&#45;&gt;W1 -->
<g id="edge9" class="edge">
<title>WIZARD_OPT&#45;&gt;W1</title>
<path fill="none" stroke="#805ad5" d="M89.5,-1441.3C89.5,-1441.3 89.5,-1395.56 89.5,-1395.56"/>
<polygon fill="#805ad5" stroke="#805ad5" points="93,-1395.56 89.5,-1385.56 86,-1395.56 93,-1395.56"/>
</g>
<!-- CONFIG -->
<g id="node25" class="node">
<title>CONFIG</title>
<path fill="#fef3c7" stroke="black" d="M423.5,-569.5C423.5,-573.91 395.93,-577.5 362,-577.5 328.07,-577.5 300.5,-573.91 300.5,-569.5 300.5,-569.5 300.5,-497.5 300.5,-497.5 300.5,-493.09 328.07,-489.5 362,-489.5 395.93,-489.5 423.5,-493.09 423.5,-497.5 423.5,-497.5 423.5,-569.5 423.5,-569.5"/>
<path fill="none" stroke="black" d="M423.5,-569.5C423.5,-565.09 395.93,-561.5 362,-561.5 328.07,-561.5 300.5,-565.09 300.5,-569.5"/>
<text text-anchor="middle" x="362" y="-553.5" font-family="Helvetica,sans-Serif" font-size="10.00">appsettings.json</text>
<text text-anchor="middle" x="362" y="-542.5" font-family="Helvetica,sans-Serif" font-size="10.00">[Configuration File]</text>
<text text-anchor="middle" x="362" y="-519.5" font-family="Helvetica,sans-Serif" font-size="10.00">Generated or updated</text>
<text text-anchor="middle" x="362" y="-508.5" font-family="Helvetica,sans-Serif" font-size="10.00">All settings stored</text>
</g>
<!-- AUTO_OPT&#45;&gt;CONFIG -->
<g id="edge10" class="edge">
<title>AUTO_OPT&#45;&gt;CONFIG</title>
<path fill="none" stroke="#805ad5" d="M366.75,-1551.21C366.75,-1551.21 366.75,-587.71 366.75,-587.71"/>
<polygon fill="#805ad5" stroke="#805ad5" points="370.25,-587.71 366.75,-577.71 363.25,-587.71 370.25,-587.71"/>
<text text-anchor="middle" x="385" y="-1053.8" font-family="Helvetica,sans-Serif" font-size="9.00">generates</text>
</g>
<!-- GENERATE_OPT&#45;&gt;CONFIG -->
<g id="edge11" class="edge">
<title>GENERATE_OPT&#45;&gt;CONFIG</title>
<path fill="none" stroke="#805ad5" d="M316.83,-1551.21C316.83,-1551.21 316.83,-586.23 316.83,-586.23"/>
<polygon fill="#805ad5" stroke="#805ad5" points="320.33,-586.23 316.83,-576.23 313.33,-586.23 320.33,-586.23"/>
<text text-anchor="middle" x="287.5" y="-1053.8" font-family="Helvetica,sans-Serif" font-size="9.00">creates template</text>
</g>
<!-- DETECT_OPT&#45;&gt;WIZARD_OPT -->
<g id="edge12" class="edge">
<title>DETECT_OPT&#45;&gt;WIZARD_OPT</title>
<path fill="none" stroke="#4a5568" stroke-dasharray="5,2" d="M89,-1551.39C89,-1551.39 89,-1515.84 89,-1515.84"/>
<polygon fill="#4a5568" stroke="#4a5568" points="92.5,-1515.84 89,-1505.84 85.5,-1515.84 92.5,-1515.84"/>
<text text-anchor="middle" x="106" y="-1526.3" font-family="Helvetica,sans-Serif" font-size="9.00">informs</text>
</g>
<!-- W2 -->
<g id="node10" class="node">
<title>W2</title>
<path fill="#6ee7b7" stroke="black" d="M138.5,-1295.5C138.5,-1295.5 55.5,-1295.5 55.5,-1295.5 49.5,-1295.5 43.5,-1289.5 43.5,-1283.5 43.5,-1283.5 43.5,-1221.5 43.5,-1221.5 43.5,-1215.5 49.5,-1209.5 55.5,-1209.5 55.5,-1209.5 138.5,-1209.5 138.5,-1209.5 144.5,-1209.5 150.5,-1215.5 150.5,-1221.5 150.5,-1221.5 150.5,-1283.5 150.5,-1283.5 150.5,-1289.5 144.5,-1295.5 138.5,-1295.5"/>
<text text-anchor="middle" x="97" y="-1283.5" font-family="Helvetica,sans-Serif" font-size="10.00">2. Select Use Case</text>
<text text-anchor="middle" x="97" y="-1260.5" font-family="Helvetica,sans-Serif" font-size="10.00">Development</text>
<text text-anchor="middle" x="97" y="-1249.5" font-family="Helvetica,sans-Serif" font-size="10.00">Research</text>
<text text-anchor="middle" x="97" y="-1238.5" font-family="Helvetica,sans-Serif" font-size="10.00">Trading</text>
<text text-anchor="middle" x="97" y="-1227.5" font-family="Helvetica,sans-Serif" font-size="10.00">Backfill</text>
<text text-anchor="middle" x="97" y="-1216.5" font-family="Helvetica,sans-Serif" font-size="10.00">Production</text>
</g>
<!-- W1&#45;&gt;W2 -->
<g id="edge13" class="edge">
<title>W1&#45;&gt;W2</title>
<path fill="none" stroke="#2c7a7b" d="M97,-1332.4C97,-1332.4 97,-1305.73 97,-1305.73"/>
<polygon fill="#2c7a7b" stroke="#2c7a7b" points="100.5,-1305.73 97,-1295.73 93.5,-1305.73 100.5,-1305.73"/>
</g>
<!-- W3 -->
<g id="node11" class="node">
<title>W3</title>
<path fill="#6ee7b7" stroke="black" d="M164.5,-1172.5C164.5,-1172.5 51.5,-1172.5 51.5,-1172.5 45.5,-1172.5 39.5,-1166.5 39.5,-1160.5 39.5,-1160.5 39.5,-1131.5 39.5,-1131.5 39.5,-1125.5 45.5,-1119.5 51.5,-1119.5 51.5,-1119.5 164.5,-1119.5 164.5,-1119.5 170.5,-1119.5 176.5,-1125.5 176.5,-1131.5 176.5,-1131.5 176.5,-1160.5 176.5,-1160.5 176.5,-1166.5 170.5,-1172.5 164.5,-1172.5"/>
<text text-anchor="middle" x="108" y="-1160.5" font-family="Helvetica,sans-Serif" font-size="10.00">3. Configure Data Source</text>
<text text-anchor="middle" x="108" y="-1137.5" font-family="Helvetica,sans-Serif" font-size="10.00">Primary provider</text>
<text text-anchor="middle" x="108" y="-1126.5" font-family="Helvetica,sans-Serif" font-size="10.00">Connection settings</text>
</g>
<!-- W2&#45;&gt;W3 -->
<g id="edge14" class="edge">
<title>W2&#45;&gt;W3</title>
<path fill="none" stroke="#2c7a7b" d="M97,-1209.49C97,-1209.49 97,-1182.62 97,-1182.62"/>
<polygon fill="#2c7a7b" stroke="#2c7a7b" points="100.5,-1182.62 97,-1172.62 93.5,-1182.62 100.5,-1182.62"/>
</g>
<!-- W4 -->
<g id="node12" class="node">
<title>W4</title>
<path fill="#6ee7b7" stroke="black" d="M162,-1082.5C162,-1082.5 66,-1082.5 66,-1082.5 60,-1082.5 54,-1076.5 54,-1070.5 54,-1070.5 54,-1041.5 54,-1041.5 54,-1035.5 60,-1029.5 66,-1029.5 66,-1029.5 162,-1029.5 162,-1029.5 168,-1029.5 174,-1035.5 174,-1041.5 174,-1041.5 174,-1070.5 174,-1070.5 174,-1076.5 168,-1082.5 162,-1082.5"/>
<text text-anchor="middle" x="114" y="-1070.5" font-family="Helvetica,sans-Serif" font-size="10.00">4. Configure Symbols</text>
<text text-anchor="middle" x="114" y="-1047.5" font-family="Helvetica,sans-Serif" font-size="10.00">Presets: US Indices,</text>
<text text-anchor="middle" x="114" y="-1036.5" font-family="Helvetica,sans-Serif" font-size="10.00">Tech Giants, S&amp;P 500</text>
</g>
<!-- W3&#45;&gt;W4 -->
<g id="edge15" class="edge">
<title>W3&#45;&gt;W4</title>
<path fill="none" stroke="#2c7a7b" d="M114,-1119.48C114,-1119.48 114,-1092.64 114,-1092.64"/>
<polygon fill="#2c7a7b" stroke="#2c7a7b" points="117.5,-1092.64 114,-1082.64 110.5,-1092.64 117.5,-1092.64"/>
</g>
<!-- W5 -->
<g id="node13" class="node">
<title>W5</title>
<path fill="#6ee7b7" stroke="black" d="M163,-983.5C163,-983.5 71,-983.5 71,-983.5 65,-983.5 59,-977.5 59,-971.5 59,-971.5 59,-942.5 59,-942.5 59,-936.5 65,-930.5 71,-930.5 71,-930.5 163,-930.5 163,-930.5 169,-930.5 175,-936.5 175,-942.5 175,-942.5 175,-971.5 175,-971.5 175,-977.5 169,-983.5 163,-983.5"/>
<text text-anchor="middle" x="117" y="-971.5" font-family="Helvetica,sans-Serif" font-size="10.00">5. Configure Storage</text>
<text text-anchor="middle" x="117" y="-948.5" font-family="Helvetica,sans-Serif" font-size="10.00">Path, format</text>
<text text-anchor="middle" x="117" y="-937.5" font-family="Helvetica,sans-Serif" font-size="10.00">Retention policy</text>
</g>
<!-- W4&#45;&gt;W5 -->
<g id="edge16" class="edge">
<title>W4&#45;&gt;W5</title>
<path fill="none" stroke="#2c7a7b" d="M116.5,-1029.47C116.5,-1029.47 116.5,-993.6 116.5,-993.6"/>
<polygon fill="#2c7a7b" stroke="#2c7a7b" points="120,-993.6 116.5,-983.6 113,-993.6 120,-993.6"/>
</g>
<!-- W6 -->
<g id="node14" class="node">
<title>W6</title>
<path fill="#6ee7b7" stroke="black" d="M164,-893.5C164,-893.5 74,-893.5 74,-893.5 68,-893.5 62,-887.5 62,-881.5 62,-881.5 62,-852.5 62,-852.5 62,-846.5 68,-840.5 74,-840.5 74,-840.5 164,-840.5 164,-840.5 170,-840.5 176,-846.5 176,-852.5 176,-852.5 176,-881.5 176,-881.5 176,-887.5 170,-893.5 164,-893.5"/>
<text text-anchor="middle" x="119" y="-881.5" font-family="Helvetica,sans-Serif" font-size="10.00">6. Configure Backfill</text>
<text text-anchor="middle" x="119" y="-858.5" font-family="Helvetica,sans-Serif" font-size="10.00">Historical providers</text>
<text text-anchor="middle" x="119" y="-847.5" font-family="Helvetica,sans-Serif" font-size="10.00">Priority chain</text>
</g>
<!-- W5&#45;&gt;W6 -->
<g id="edge17" class="edge">
<title>W5&#45;&gt;W6</title>
<path fill="none" stroke="#2c7a7b" d="M118.5,-930.48C118.5,-930.48 118.5,-903.64 118.5,-903.64"/>
<polygon fill="#2c7a7b" stroke="#2c7a7b" points="122,-903.64 118.5,-893.64 115,-903.64 122,-903.64"/>
</g>
<!-- W7 -->
<g id="node15" class="node">
<title>W7</title>
<path fill="#6ee7b7" stroke="black" d="M161.5,-803.5C161.5,-803.5 78.5,-803.5 78.5,-803.5 72.5,-803.5 66.5,-797.5 66.5,-791.5 66.5,-791.5 66.5,-762.5 66.5,-762.5 66.5,-756.5 72.5,-750.5 78.5,-750.5 78.5,-750.5 161.5,-750.5 161.5,-750.5 167.5,-750.5 173.5,-756.5 173.5,-762.5 173.5,-762.5 173.5,-791.5 173.5,-791.5 173.5,-797.5 167.5,-803.5 161.5,-803.5"/>
<text text-anchor="middle" x="120" y="-791.5" font-family="Helvetica,sans-Serif" font-size="10.00">7. Review Settings</text>
<text text-anchor="middle" x="120" y="-768.5" font-family="Helvetica,sans-Serif" font-size="10.00">Summary display</text>
<text text-anchor="middle" x="120" y="-757.5" font-family="Helvetica,sans-Serif" font-size="10.00">Confirmation</text>
</g>
<!-- W6&#45;&gt;W7 -->
<g id="edge18" class="edge">
<title>W6&#45;&gt;W7</title>
<path fill="none" stroke="#2c7a7b" d="M120,-840.48C120,-840.48 120,-813.64 120,-813.64"/>
<polygon fill="#2c7a7b" stroke="#2c7a7b" points="123.5,-813.64 120,-803.64 116.5,-813.64 123.5,-813.64"/>
</g>
<!-- W8 -->
<g id="node16" class="node">
<title>W8</title>
<path fill="#6ee7b7" stroke="black" d="M172,-689C172,-689 70,-689 70,-689 64,-689 58,-683 58,-677 58,-677 58,-648 58,-648 58,-642 64,-636 70,-636 70,-636 172,-636 172,-636 178,-636 184,-642 184,-648 184,-648 184,-677 184,-677 184,-683 178,-689 172,-689"/>
<text text-anchor="middle" x="121" y="-677" font-family="Helvetica,sans-Serif" font-size="10.00">8. Save Configuration</text>
<text text-anchor="middle" x="121" y="-654" font-family="Helvetica,sans-Serif" font-size="10.00">Write appsettings.json</text>
<text text-anchor="middle" x="121" y="-643" font-family="Helvetica,sans-Serif" font-size="10.00">Create marker file</text>
</g>
<!-- W7&#45;&gt;W8 -->
<g id="edge19" class="edge">
<title>W7&#45;&gt;W8</title>
<path fill="none" stroke="#2c7a7b" d="M120,-750.44C120,-750.44 120,-699.31 120,-699.31"/>
<polygon fill="#2c7a7b" stroke="#2c7a7b" points="123.5,-699.31 120,-689.31 116.5,-699.31 123.5,-699.31"/>
</g>
<!-- W8&#45;&gt;CONFIG -->
<g id="edge20" class="edge">
<title>W8&#45;&gt;CONFIG</title>
<path fill="none" stroke="#2c7a7b" d="M184.01,-662C238.53,-662 308.67,-662 308.67,-662 308.67,-662 308.67,-585.22 308.67,-585.22"/>
<polygon fill="#2c7a7b" stroke="#2c7a7b" points="312.17,-585.22 308.67,-575.22 305.17,-585.22 312.17,-585.22"/>
</g>
<!-- VAL_CREDS -->
<g id="node17" class="node">
<title>VAL_CREDS</title>
<path fill="#93c5fd" stroke="black" d="M564.5,-419C564.5,-419 467.5,-419 467.5,-419 461.5,-419 455.5,-413 455.5,-407 455.5,-407 455.5,-367 455.5,-367 455.5,-361 461.5,-355 467.5,-355 467.5,-355 564.5,-355 564.5,-355 570.5,-355 576.5,-361 576.5,-367 576.5,-367 576.5,-407 576.5,-407 576.5,-413 570.5,-419 564.5,-419"/>
<text text-anchor="middle" x="516" y="-407" font-family="Helvetica,sans-Serif" font-size="10.00">&#45;&#45;validate&#45;credentials</text>
<text text-anchor="middle" x="516" y="-384" font-family="Helvetica,sans-Serif" font-size="10.00">Test all API keys</text>
<text text-anchor="middle" x="516" y="-373" font-family="Helvetica,sans-Serif" font-size="10.00">Show account info</text>
<text text-anchor="middle" x="516" y="-362" font-family="Helvetica,sans-Serif" font-size="10.00">Report issues</text>
</g>
<!-- VAL_CREDS&#45;&gt;STARTUP_SUM -->
<g id="edge26" class="edge">
<title>VAL_CREDS&#45;&gt;STARTUP_SUM</title>
<path fill="none" stroke="#38a169" stroke-dasharray="5,2" d="M503.25,-354.9C503.25,-354.9 503.25,-191.35 503.25,-191.35"/>
<polygon fill="#38a169" stroke="#38a169" points="506.75,-191.35 503.25,-181.35 499.75,-191.35 506.75,-191.35"/>
</g>
<!-- TEST_CONN -->
<g id="node18" class="node">
<title>TEST_CONN</title>
<path fill="#93c5fd" stroke="black" d="M141.5,-419C141.5,-419 28.5,-419 28.5,-419 22.5,-419 16.5,-413 16.5,-407 16.5,-407 16.5,-367 16.5,-367 16.5,-361 22.5,-355 28.5,-355 28.5,-355 141.5,-355 141.5,-355 147.5,-355 153.5,-361 153.5,-367 153.5,-367 153.5,-407 153.5,-407 153.5,-413 147.5,-419 141.5,-419"/>
<text text-anchor="middle" x="85" y="-407" font-family="Helvetica,sans-Serif" font-size="10.00">&#45;&#45;test&#45;connectivity</text>
<text text-anchor="middle" x="85" y="-384" font-family="Helvetica,sans-Serif" font-size="10.00">Test internet, DNS</text>
<text text-anchor="middle" x="85" y="-373" font-family="Helvetica,sans-Serif" font-size="10.00">Test each provider</text>
<text text-anchor="middle" x="85" y="-362" font-family="Helvetica,sans-Serif" font-size="10.00">Measure response times</text>
</g>
<!-- TEST_CONN&#45;&gt;STARTUP_SUM -->
<g id="edge27" class="edge">
<title>TEST_CONN&#45;&gt;STARTUP_SUM</title>
<path fill="none" stroke="#38a169" stroke-dasharray="5,2" d="M85,-354.83C85,-286.48 85,-133 85,-133 85,-133 412.99,-133 412.99,-133"/>
<polygon fill="#38a169" stroke="#38a169" points="412.99,-136.5 422.99,-133 412.99,-129.5 412.99,-136.5"/>
</g>
<!-- QUICK_CHECK -->
<g id="node19" class="node">
<title>QUICK_CHECK</title>
<path fill="#93c5fd" stroke="black" d="M288,-424.5C288,-424.5 184,-424.5 184,-424.5 178,-424.5 172,-418.5 172,-412.5 172,-412.5 172,-361.5 172,-361.5 172,-355.5 178,-349.5 184,-349.5 184,-349.5 288,-349.5 288,-349.5 294,-349.5 300,-355.5 300,-361.5 300,-361.5 300,-412.5 300,-412.5 300,-418.5 294,-424.5 288,-424.5"/>
<text text-anchor="middle" x="236" y="-412.5" font-family="Helvetica,sans-Serif" font-size="10.00">&#45;&#45;quick&#45;check</text>
<text text-anchor="middle" x="236" y="-389.5" font-family="Helvetica,sans-Serif" font-size="10.00">Disk space check</text>
<text text-anchor="middle" x="236" y="-378.5" font-family="Helvetica,sans-Serif" font-size="10.00">Symbol configuration</text>
<text text-anchor="middle" x="236" y="-367.5" font-family="Helvetica,sans-Serif" font-size="10.00">Credentials present</text>
<text text-anchor="middle" x="236" y="-356.5" font-family="Helvetica,sans-Serif" font-size="10.00">Compression available</text>
</g>
<!-- QUICK_CHECK&#45;&gt;STARTUP_SUM -->
<g id="edge28" class="edge">
<title>QUICK_CHECK&#45;&gt;STARTUP_SUM</title>
<path fill="none" stroke="#38a169" stroke-dasharray="5,2" d="M236,-349.29C236,-282.18 236,-149 236,-149 236,-149 412.76,-149 412.76,-149"/>
<polygon fill="#38a169" stroke="#38a169" points="412.76,-152.5 422.76,-149 412.76,-145.5 412.76,-152.5"/>
</g>
<!-- VAL_CONFIG -->
<g id="node20" class="node">
<title>VAL_CONFIG</title>
<path fill="#93c5fd" stroke="black" d="M425.5,-419C425.5,-419 330.5,-419 330.5,-419 324.5,-419 318.5,-413 318.5,-407 318.5,-407 318.5,-367 318.5,-367 318.5,-361 324.5,-355 330.5,-355 330.5,-355 425.5,-355 425.5,-355 431.5,-355 437.5,-361 437.5,-367 437.5,-367 437.5,-407 437.5,-407 437.5,-413 431.5,-419 425.5,-419"/>
<text text-anchor="middle" x="378" y="-407" font-family="Helvetica,sans-Serif" font-size="10.00">&#45;&#45;validate&#45;config</text>
<text text-anchor="middle" x="378" y="-384" font-family="Helvetica,sans-Serif" font-size="10.00">Parse configuration</text>
<text text-anchor="middle" x="378" y="-373" font-family="Helvetica,sans-Serif" font-size="10.00">Check required fields</text>
<text text-anchor="middle" x="378" y="-362" font-family="Helvetica,sans-Serif" font-size="10.00">Validate values</text>
</g>
<!-- DRY_RUN -->
<g id="node21" class="node">
<title>DRY_RUN</title>
<path fill="#93c5fd" stroke="black" d="M453.5,-301C453.5,-301 372.5,-301 372.5,-301 366.5,-301 360.5,-295 360.5,-289 360.5,-289 360.5,-249 360.5,-249 360.5,-243 366.5,-237 372.5,-237 372.5,-237 453.5,-237 453.5,-237 459.5,-237 465.5,-243 465.5,-249 465.5,-249 465.5,-289 465.5,-289 465.5,-295 459.5,-301 453.5,-301"/>
<text text-anchor="middle" x="413" y="-289" font-family="Helvetica,sans-Serif" font-size="10.00">&#45;&#45;dry&#45;run</text>
<text text-anchor="middle" x="413" y="-266" font-family="Helvetica,sans-Serif" font-size="10.00">Full initialization</text>
<text text-anchor="middle" x="413" y="-255" font-family="Helvetica,sans-Serif" font-size="10.00">No data collection</text>
<text text-anchor="middle" x="413" y="-244" font-family="Helvetica,sans-Serif" font-size="10.00">Test everything</text>
</g>
<!-- VAL_CONFIG&#45;&gt;DRY_RUN -->
<g id="edge25" class="edge">
<title>VAL_CONFIG&#45;&gt;DRY_RUN</title>
<path fill="none" stroke="#4a5568" stroke-dasharray="5,2" d="M399,-354.76C399,-354.76 399,-311.21 399,-311.21"/>
<polygon fill="#4a5568" stroke="#4a5568" points="402.5,-311.2 399,-301.21 395.5,-311.21 402.5,-311.2"/>
</g>
<!-- DRY_RUN&#45;&gt;STARTUP_SUM -->
<g id="edge29" class="edge">
<title>DRY_RUN&#45;&gt;STARTUP_SUM</title>
<path fill="none" stroke="#38a169" stroke-dasharray="5,2" d="M444.25,-236.84C444.25,-236.84 444.25,-191.25 444.25,-191.25"/>
<polygon fill="#38a169" stroke="#38a169" points="447.75,-191.25 444.25,-181.25 440.75,-191.25 447.75,-191.25"/>
</g>
<!-- SHOW_CONFIG -->
<g id="node22" class="node">
<title>SHOW_CONFIG</title>
<path fill="#9ae6b4" stroke="black" d="M623.5,-689C623.5,-689 524.5,-689 524.5,-689 518.5,-689 512.5,-683 512.5,-677 512.5,-677 512.5,-648 512.5,-648 512.5,-642 518.5,-636 524.5,-636 524.5,-636 623.5,-636 623.5,-636 629.5,-636 635.5,-642 635.5,-648 635.5,-648 635.5,-677 635.5,-677 635.5,-683 629.5,-689 623.5,-689"/>
<text text-anchor="middle" x="574" y="-677" font-family="Helvetica,sans-Serif" font-size="10.00">&#45;&#45;show&#45;config</text>
<text text-anchor="middle" x="574" y="-654" font-family="Helvetica,sans-Serif" font-size="10.00">Display current config</text>
<text text-anchor="middle" x="574" y="-643" font-family="Helvetica,sans-Serif" font-size="10.00">Masked credentials</text>
</g>
<!-- SHOW_CONFIG&#45;&gt;CONFIG -->
<g id="edge33" class="edge">
<title>SHOW_CONFIG&#45;&gt;CONFIG</title>
<path fill="none" stroke="#4a5568" stroke-dasharray="5,2" d="M544.5,-635.54C544.5,-608.55 544.5,-571 544.5,-571 544.5,-571 433.53,-571 433.53,-571"/>
<polygon fill="#4a5568" stroke="#4a5568" points="433.53,-567.5 423.53,-571 433.53,-574.5 433.53,-567.5"/>
<text text-anchor="middle" x="497.5" y="-605.3" font-family="Helvetica,sans-Serif" font-size="9.00">reads</text>
</g>
<!-- ERROR_CODES -->
<g id="node23" class="node">
<title>ERROR_CODES</title>
<path fill="#9ae6b4" stroke="black" d="M792.5,-694.5C792.5,-694.5 665.5,-694.5 665.5,-694.5 659.5,-694.5 653.5,-688.5 653.5,-682.5 653.5,-682.5 653.5,-642.5 653.5,-642.5 653.5,-636.5 659.5,-630.5 665.5,-630.5 665.5,-630.5 792.5,-630.5 792.5,-630.5 798.5,-630.5 804.5,-636.5 804.5,-642.5 804.5,-642.5 804.5,-682.5 804.5,-682.5 804.5,-688.5 798.5,-694.5 792.5,-694.5"/>
<text text-anchor="middle" x="729" y="-682.5" font-family="Helvetica,sans-Serif" font-size="10.00">&#45;&#45;error&#45;codes</text>
<text text-anchor="middle" x="729" y="-659.5" font-family="Helvetica,sans-Serif" font-size="10.00">24 error codes</text>
<text text-anchor="middle" x="729" y="-648.5" font-family="Helvetica,sans-Serif" font-size="10.00">MERIDIAN&#45;XXX&#45;NNN format</text>
<text text-anchor="middle" x="729" y="-637.5" font-family="Helvetica,sans-Serif" font-size="10.00">Troubleshooting tips</text>
</g>
<!-- ERROR_FMT -->
<g id="node28" class="node">
<title>ERROR_FMT</title>
<path fill="#fc8181" stroke="black" d="M780.5,-565.5C780.5,-565.5 677.5,-565.5 677.5,-565.5 671.5,-565.5 665.5,-559.5 665.5,-553.5 665.5,-553.5 665.5,-513.5 665.5,-513.5 665.5,-507.5 671.5,-501.5 677.5,-501.5 677.5,-501.5 780.5,-501.5 780.5,-501.5 786.5,-501.5 792.5,-507.5 792.5,-513.5 792.5,-513.5 792.5,-553.5 792.5,-553.5 792.5,-559.5 786.5,-565.5 780.5,-565.5"/>
<text text-anchor="middle" x="729" y="-553.5" font-family="Helvetica,sans-Serif" font-size="10.00" fill="white">FriendlyErrorFormatter</text>
<text text-anchor="middle" x="729" y="-530.5" font-family="Helvetica,sans-Serif" font-size="10.00" fill="white">Parse exception</text>
<text text-anchor="middle" x="729" y="-519.5" font-family="Helvetica,sans-Serif" font-size="10.00" fill="white">Assign error code</text>
<text text-anchor="middle" x="729" y="-508.5" font-family="Helvetica,sans-Serif" font-size="10.00" fill="white">Generate suggestions</text>
</g>
<!-- ERROR_CODES&#45;&gt;ERROR_FMT -->
<g id="edge34" class="edge">
<title>ERROR_CODES&#45;&gt;ERROR_FMT</title>
<path fill="none" stroke="#4a5568" stroke-dasharray="5,2" d="M729,-630.28C729,-630.28 729,-575.76 729,-575.76"/>
<polygon fill="#4a5568" stroke="#4a5568" points="732.5,-575.76 729,-565.76 725.5,-575.76 732.5,-575.76"/>
<text text-anchor="middle" x="750.5" y="-605.3" font-family="Helvetica,sans-Serif" font-size="9.00">reference</text>
</g>
<!-- HELP -->
<g id="node24" class="node">
<title>HELP</title>
<path fill="#9ae6b4" stroke="black" d="M482,-689C482,-689 402,-689 402,-689 396,-689 390,-683 390,-677 390,-677 390,-648 390,-648 390,-642 396,-636 402,-636 402,-636 482,-636 482,-636 488,-636 494,-642 494,-648 494,-648 494,-677 494,-677 494,-683 488,-689 482,-689"/>
<text text-anchor="middle" x="442" y="-677" font-family="Helvetica,sans-Serif" font-size="10.00">&#45;&#45;help</text>
<text text-anchor="middle" x="442" y="-654" font-family="Helvetica,sans-Serif" font-size="10.00">All available flags</text>
<text text-anchor="middle" x="442" y="-643" font-family="Helvetica,sans-Serif" font-size="10.00">Usage examples</text>
</g>
<!-- CONFIG&#45;&gt;VAL_CREDS -->
<g id="edge21" class="edge">
<title>CONFIG&#45;&gt;VAL_CREDS</title>
<path fill="none" stroke="#4a5568" stroke-dasharray="5,2" d="M423.65,-495C449.98,-495 474.75,-495 474.75,-495 474.75,-495 474.75,-429.11 474.75,-429.11"/>
<polygon fill="#4a5568" stroke="#4a5568" points="478.25,-429.11 474.75,-419.11 471.25,-429.11 478.25,-429.11"/>
<text text-anchor="middle" x="495.5" y="-464.3" font-family="Helvetica,sans-Serif" font-size="9.00">optional</text>
</g>
<!-- CONFIG&#45;&gt;TEST_CONN -->
<g id="edge22" class="edge">
<title>CONFIG&#45;&gt;TEST_CONN</title>
<path fill="none" stroke="#4a5568" stroke-dasharray="5,2" d="M300.3,-533C224.47,-533 105.75,-533 105.75,-533 105.75,-533 105.75,-429.04 105.75,-429.04"/>
<polygon fill="#4a5568" stroke="#4a5568" points="109.25,-429.04 105.75,-419.04 102.25,-429.04 109.25,-429.04"/>
<text text-anchor="middle" x="161.5" y="-464.3" font-family="Helvetica,sans-Serif" font-size="9.00">optional</text>
</g>
<!-- CONFIG&#45;&gt;QUICK_CHECK -->
<g id="edge23" class="edge">
<title>CONFIG&#45;&gt;QUICK_CHECK</title>
<path fill="none" stroke="#4a5568" stroke-dasharray="5,2" d="M306.5,-492.3C306.5,-448.97 306.5,-387 306.5,-387 306.5,-387 305.9,-387 305.9,-387"/>
<polygon fill="#4a5568" stroke="#4a5568" points="310.49,-383.5 300.49,-387 310.49,-390.5 310.49,-383.5"/>
<text text-anchor="middle" x="287.5" y="-464.3" font-family="Helvetica,sans-Serif" font-size="9.00">optional</text>
</g>
<!-- CONFIG&#45;&gt;VAL_CONFIG -->
<g id="edge24" class="edge">
<title>CONFIG&#45;&gt;VAL_CONFIG</title>
<path fill="none" stroke="#4a5568" stroke-dasharray="5,2" d="M371,-489.15C371,-489.15 371,-429.11 371,-429.11"/>
<polygon fill="#4a5568" stroke="#4a5568" points="374.5,-429.11 371,-419.11 367.5,-429.11 374.5,-429.11"/>
<text text-anchor="middle" x="388.5" y="-464.3" font-family="Helvetica,sans-Serif" font-size="9.00">optional</text>
</g>
<!-- CONFIG&#45;&gt;STARTUP_SUM -->
<g id="edge30" class="edge">
<title>CONFIG&#45;&gt;STARTUP_SUM</title>
<path fill="none" stroke="#38a169" d="M312.5,-491.23C312.5,-394.44 312.5,-165 312.5,-165 312.5,-165 412.72,-165 412.72,-165"/>
<polygon fill="#38a169" stroke="#38a169" points="412.72,-168.5 422.72,-165 412.72,-161.5 412.72,-168.5"/>
</g>
<!-- RUN_NORMAL -->
<g id="node27" class="node">
<title>RUN_NORMAL</title>
<path fill="#38a169" stroke="black" d="M529.5,-80C529.5,-80 434.5,-80 434.5,-80 428.5,-80 422.5,-74 422.5,-68 422.5,-68 422.5,-28 422.5,-28 422.5,-22 428.5,-16 434.5,-16 434.5,-16 529.5,-16 529.5,-16 535.5,-16 541.5,-22 541.5,-28 541.5,-28 541.5,-68 541.5,-68 541.5,-74 535.5,-80 529.5,-80"/>
<text text-anchor="middle" x="482" y="-68" font-family="Helvetica,sans-Serif" font-size="10.00" fill="white">Normal Operation</text>
<text text-anchor="middle" x="482" y="-45" font-family="Helvetica,sans-Serif" font-size="10.00" fill="white">&#45;&#45;ui (with dashboard)</text>
<text text-anchor="middle" x="482" y="-34" font-family="Helvetica,sans-Serif" font-size="10.00" fill="white">&#45;&#45;backfill (historical)</text>
<text text-anchor="middle" x="482" y="-23" font-family="Helvetica,sans-Serif" font-size="10.00" fill="white">default (streaming)</text>
</g>
<!-- STARTUP_SUM&#45;&gt;RUN_NORMAL -->
<g id="edge31" class="edge">
<title>STARTUP_SUM&#45;&gt;RUN_NORMAL</title>
<path fill="none" stroke="#38a169" d="M482,-116.77C482,-116.77 482,-90.27 482,-90.27"/>
<polygon fill="#38a169" stroke="#38a169" points="485.5,-90.27 482,-80.27 478.5,-90.27 485.5,-90.27"/>
</g>
<!-- ERROR_DISPLAY -->
<g id="node29" class="node">
<title>ERROR_DISPLAY</title>
<path fill="#fecaca" stroke="black" d="M777.5,-436C777.5,-436 680.5,-436 680.5,-436 674.5,-436 668.5,-430 668.5,-424 668.5,-424 668.5,-350 668.5,-350 668.5,-344 674.5,-338 680.5,-338 680.5,-338 777.5,-338 777.5,-338 783.5,-338 789.5,-344 789.5,-350 789.5,-350 789.5,-424 789.5,-424 789.5,-430 783.5,-436 777.5,-436"/>
<text text-anchor="middle" x="729" y="-424" font-family="Helvetica,sans-Serif" font-size="10.00">User&#45;Friendly Error</text>
<text text-anchor="middle" x="729" y="-401" font-family="Helvetica,sans-Serif" font-size="10.00">[Meridian&#45;CFG&#45;001]</text>
<text text-anchor="middle" x="729" y="-390" font-family="Helvetica,sans-Serif" font-size="10.00">Missing configuration</text>
<text text-anchor="middle" x="729" y="-367" font-family="Helvetica,sans-Serif" font-size="10.00">Suggestions:</text>
<text text-anchor="middle" x="729" y="-356" font-family="Helvetica,sans-Serif" font-size="10.00">1. Run &#45;&#45;wizard</text>
<text text-anchor="middle" x="729" y="-345" font-family="Helvetica,sans-Serif" font-size="10.00">2. Check env vars</text>
</g>
<!-- ERROR_FMT&#45;&gt;ERROR_DISPLAY -->
<g id="edge32" class="edge">
<title>ERROR_FMT&#45;&gt;ERROR_DISPLAY</title>
<path fill="none" stroke="#e53e3e" d="M729,-501.35C729,-501.35 729,-446.08 729,-446.08"/>
<polygon fill="#e53e3e" stroke="#e53e3e" points="732.5,-446.08 729,-436.08 725.5,-446.08 732.5,-446.08"/>
</g>
<!-- L1 -->
<g id="node30" class="node">
<title>L1</title>
<path fill="#fbd38d" stroke="black" d="M1143,-1991.71C1143,-1991.71 1063,-1991.71 1063,-1991.71 1057,-1991.71 1051,-1985.71 1051,-1979.71 1051,-1979.71 1051,-1967.71 1051,-1967.71 1051,-1961.71 1057,-1955.71 1063,-1955.71 1063,-1955.71 1143,-1955.71 1143,-1955.71 1149,-1955.71 1155,-1961.71 1155,-1967.71 1155,-1967.71 1155,-1979.71 1155,-1979.71 1155,-1985.71 1149,-1991.71 1143,-1991.71"/>
<text text-anchor="middle" x="1103" y="-1971.21" font-family="Helvetica,sans-Serif" font-size="10.00">First&#45;Run Services</text>
</g>
<!-- L2 -->
<g id="node31" class="node">
<title>L2</title>
<path fill="#c4b5fd" stroke="black" d="M1020.5,-1991.71C1020.5,-1991.71 959.5,-1991.71 959.5,-1991.71 953.5,-1991.71 947.5,-1985.71 947.5,-1979.71 947.5,-1979.71 947.5,-1967.71 947.5,-1967.71 947.5,-1961.71 953.5,-1955.71 959.5,-1955.71 959.5,-1955.71 1020.5,-1955.71 1020.5,-1955.71 1026.5,-1955.71 1032.5,-1961.71 1032.5,-1967.71 1032.5,-1967.71 1032.5,-1979.71 1032.5,-1979.71 1032.5,-1985.71 1026.5,-1991.71 1020.5,-1991.71"/>
<text text-anchor="middle" x="990" y="-1971.21" font-family="Helvetica,sans-Serif" font-size="10.00">Setup Options</text>
</g>
<!-- L3 -->
<g id="node32" class="node">
<title>L3</title>
<path fill="#6ee7b7" stroke="black" d="M917,-1991.71C917,-1991.71 861,-1991.71 861,-1991.71 855,-1991.71 849,-1985.71 849,-1979.71 849,-1979.71 849,-1967.71 849,-1967.71 849,-1961.71 855,-1955.71 861,-1955.71 861,-1955.71 917,-1955.71 917,-1955.71 923,-1955.71 929,-1961.71 929,-1967.71 929,-1967.71 929,-1979.71 929,-1979.71 929,-1985.71 923,-1991.71 917,-1991.71"/>
<text text-anchor="middle" x="889" y="-1971.21" font-family="Helvetica,sans-Serif" font-size="10.00">Wizard Steps</text>
</g>
<!-- L4 -->
<g id="node33" class="node">
<title>L4</title>
<path fill="#93c5fd" stroke="black" d="M818.5,-1991.71C818.5,-1991.71 717.5,-1991.71 717.5,-1991.71 711.5,-1991.71 705.5,-1985.71 705.5,-1979.71 705.5,-1979.71 705.5,-1967.71 705.5,-1967.71 705.5,-1961.71 711.5,-1955.71 717.5,-1955.71 717.5,-1955.71 818.5,-1955.71 818.5,-1955.71 824.5,-1955.71 830.5,-1961.71 830.5,-1967.71 830.5,-1967.71 830.5,-1979.71 830.5,-1979.71 830.5,-1985.71 824.5,-1991.71 818.5,-1991.71"/>
<text text-anchor="middle" x="768" y="-1971.21" font-family="Helvetica,sans-Serif" font-size="10.00">Validation/Diagnostics</text>
</g>
<!-- L5 -->
<g id="node34" class="node">
<title>L5</title>
<path fill="#9ae6b4" stroke="black" d="M675,-1991.71C675,-1991.71 607,-1991.71 607,-1991.71 601,-1991.71 595,-1985.71 595,-1979.71 595,-1979.71 595,-1967.71 595,-1967.71 595,-1961.71 601,-1955.71 607,-1955.71 607,-1955.71 675,-1955.71 675,-1955.71 681,-1955.71 687,-1961.71 687,-1967.71 687,-1967.71 687,-1979.71 687,-1979.71 687,-1985.71 681,-1991.71 675,-1991.71"/>
<text text-anchor="middle" x="641" y="-1971.21" font-family="Helvetica,sans-Serif" font-size="10.00">Documentation</text>
</g>
<!-- L6 -->
<g id="node35" class="node">
<title>L6</title>
<path fill="#fc8181" stroke="black" d="M565,-1991.71C565,-1991.71 503,-1991.71 503,-1991.71 497,-1991.71 491,-1985.71 491,-1979.71 491,-1979.71 491,-1967.71 491,-1967.71 491,-1961.71 497,-1955.71 503,-1955.71 503,-1955.71 565,-1955.71 565,-1955.71 571,-1955.71 577,-1961.71 577,-1967.71 577,-1967.71 577,-1979.71 577,-1979.71 577,-1985.71 571,-1991.71 565,-1991.71"/>
<text text-anchor="middle" x="534" y="-1971.21" font-family="Helvetica,sans-Serif" font-size="10.00" fill="white">Error Handling</text>
</g>
<!-- LEG_FLOW -->
<g id="node36" class="node">
<title>LEG_FLOW</title>
<path fill="lightgrey" stroke="transparent" d="M460.5,-1991.71C460.5,-1991.71 329.5,-1991.71 329.5,-1991.71 323.5,-1991.71 317.5,-1985.71 317.5,-1979.71 317.5,-1979.71 317.5,-1967.71 317.5,-1967.71 317.5,-1961.71 323.5,-1955.71 329.5,-1955.71 329.5,-1955.71 460.5,-1955.71 460.5,-1955.71 466.5,-1955.71 472.5,-1961.71 472.5,-1967.71 472.5,-1967.71 472.5,-1979.71 472.5,-1979.71 472.5,-1985.71 466.5,-1991.71 460.5,-1991.71"/>
<text text-anchor="middle" x="395" y="-1976.71" font-family="Helvetica,sans-Serif" font-size="10.00">━━ Primary flow</text>
<text text-anchor="middle" x="395" y="-1965.71" font-family="Helvetica,sans-Serif" font-size="10.00">─ ─ Optional/alternative flow</text>
</g>
</g>
</svg>
