<?xml version="1.0" encoding="UTF-8" standalone="no"?>
<!DOCTYPE svg PUBLIC "-//W3C//DTD SVG 1.1//EN"
 "http://www.w3.org/Graphics/SVG/1.1/DTD/svg11.dtd">
<!-- Generated by graphviz version 14.1.3 (20260303.0454)
 -->
<!-- Title: OnboardingFlow Pages: 1 -->
<svg width="1219pt" height="2218pt"
 viewBox="0.00 0.00 1219.00 2218.00" xmlns="http://www.w3.org/2000/svg" xmlns:xlink="http://www.w3.org/1999/xlink">
<g id="graph0" class="graph" transform="scale(1 1) rotate(0) translate(36 2182.38)">
<title>OnboardingFlow</title>
<polygon fill="white" stroke="none" points="-36,36 -36,-2182.38 1182.75,-2182.38 1182.75,36 -36,36"/>
<text xml:space="preserve" text-anchor="middle" x="573.37" y="-2131.58" font-family="Helvetica,sans-Serif" font-size="12.00">Meridian &#45; Onboarding &amp; Diagnostics Flow</text>
<text xml:space="preserve" text-anchor="middle" x="573.37" y="-2117.18" font-family="Helvetica,sans-Serif" font-size="12.00">User Journey from Installation to Operation | v1.7.x</text>
<g id="clust1" class="cluster">
<title>cluster_firstrun</title>
<path fill="#fffaf0" stroke="#ed8936" d="M213.75,-1733.35C213.75,-1733.35 353.75,-1733.35 353.75,-1733.35 359.75,-1733.35 365.75,-1739.35 365.75,-1745.35 365.75,-1745.35 365.75,-1991.55 365.75,-1991.55 365.75,-1997.55 359.75,-2003.55 353.75,-2003.55 353.75,-2003.55 213.75,-2003.55 213.75,-2003.55 207.75,-2003.55 201.75,-1997.55 201.75,-1991.55 201.75,-1991.55 201.75,-1745.35 201.75,-1745.35 201.75,-1739.35 207.75,-1733.35 213.75,-1733.35"/>
<text xml:space="preserve" text-anchor="middle" x="283.75" y="-1988.75" font-family="Helvetica,sans-Serif" font-size="12.00">First&#45;Run Detection</text>
</g>
<g id="clust2" class="cluster">
<title>cluster_setup</title>
<path fill="#ede9fe" stroke="#805ad5" d="M72.75,-1493.15C72.75,-1493.15 492.75,-1493.15 492.75,-1493.15 498.75,-1493.15 504.75,-1499.15 504.75,-1505.15 504.75,-1505.15 504.75,-1702.35 504.75,-1702.35 504.75,-1708.35 498.75,-1714.35 492.75,-1714.35 492.75,-1714.35 72.75,-1714.35 72.75,-1714.35 66.75,-1714.35 60.75,-1708.35 60.75,-1702.35 60.75,-1702.35 60.75,-1505.15 60.75,-1505.15 60.75,-1499.15 66.75,-1493.15 72.75,-1493.15"/>
<text xml:space="preserve" text-anchor="middle" x="282.75" y="-1699.55" font-family="Helvetica,sans-Serif" font-size="12.00">Setup Options (Choose One)</text>
</g>
<g id="clust3" class="cluster">
<title>cluster_wizard</title>
<path fill="#d1fae5" stroke="#2c7a7b" d="M84.75,-656.55C84.75,-656.55 240.75,-656.55 240.75,-656.55 246.75,-656.55 252.75,-662.55 252.75,-668.55 252.75,-668.55 252.75,-1462.15 252.75,-1462.15 252.75,-1468.15 246.75,-1474.15 240.75,-1474.15 240.75,-1474.15 84.75,-1474.15 84.75,-1474.15 78.75,-1474.15 72.75,-1468.15 72.75,-1462.15 72.75,-1462.15 72.75,-668.55 72.75,-668.55 72.75,-662.55 78.75,-656.55 84.75,-656.55"/>
<text xml:space="preserve" text-anchor="middle" x="162.75" y="-1459.35" font-family="Helvetica,sans-Serif" font-size="12.00">Configuration Wizard (8 Steps)</text>
</g>
<g id="clust4" class="cluster">
<title>cluster_validation</title>
<path fill="#dbeafe" stroke="#2b6cb0" d="M21.75,-238.4C21.75,-238.4 528.75,-238.4 528.75,-238.4 534.75,-238.4 540.75,-244.4 540.75,-250.4 540.75,-250.4 540.75,-461.8 540.75,-461.8 540.75,-467.8 534.75,-473.8 528.75,-473.8 528.75,-473.8 21.75,-473.8 21.75,-473.8 15.75,-473.8 9.75,-467.8 9.75,-461.8 9.75,-461.8 9.75,-250.4 9.75,-250.4 9.75,-244.4 15.75,-238.4 21.75,-238.4"/>
<text xml:space="preserve" text-anchor="middle" x="275.25" y="-459" font-family="Helvetica,sans-Serif" font-size="12.00">Validation &amp; Diagnostics</text>
</g>
<g id="clust5" class="cluster">
<title>cluster_docs</title>
<path fill="#f0fff4" stroke="#38a169" d="M415.75,-650.55C415.75,-650.55 793.75,-650.55 793.75,-650.55 799.75,-650.55 805.75,-656.55 805.75,-662.55 805.75,-662.55 805.75,-744.95 805.75,-744.95 805.75,-750.95 799.75,-756.95 793.75,-756.95 793.75,-756.95 415.75,-756.95 415.75,-756.95 409.75,-756.95 403.75,-750.95 403.75,-744.95 403.75,-744.95 403.75,-662.55 403.75,-662.55 403.75,-656.55 409.75,-650.55 415.75,-650.55"/>
<text xml:space="preserve" text-anchor="middle" x="604.75" y="-742.15" font-family="Helvetica,sans-Serif" font-size="12.00">Documentation &amp; Help</text>
</g>
<g id="clust6" class="cluster">
<title>cluster_ready</title>
<path fill="#c6f6d5" stroke="#38a169" d="M358.75,-8C358.75,-8 534.75,-8 534.75,-8 540.75,-8 546.75,-14 546.75,-20 546.75,-20 546.75,-207.4 546.75,-207.4 546.75,-213.4 540.75,-219.4 534.75,-219.4 534.75,-219.4 358.75,-219.4 358.75,-219.4 352.75,-219.4 346.75,-213.4 346.75,-207.4 346.75,-207.4 346.75,-20 346.75,-20 346.75,-14 352.75,-8 358.75,-8"/>
<text xml:space="preserve" text-anchor="middle" x="446.75" y="-204.6" font-family="Helvetica,sans-Serif" font-size="12.00">Ready to Operate</text>
</g>
<g id="clust7" class="cluster">
<title>cluster_errors</title>
<path fill="#fee2e2" stroke="#e53e3e" d="M590.75,-343.4C590.75,-343.4 700.75,-343.4 700.75,-343.4 706.75,-343.4 712.75,-349.4 712.75,-355.4 712.75,-355.4 712.75,-609.75 712.75,-609.75 712.75,-615.75 706.75,-621.75 700.75,-621.75 700.75,-621.75 590.75,-621.75 590.75,-621.75 584.75,-621.75 578.75,-615.75 578.75,-609.75 578.75,-609.75 578.75,-355.4 578.75,-355.4 578.75,-349.4 584.75,-343.4 590.75,-343.4"/>
<text xml:space="preserve" text-anchor="middle" x="645.75" y="-606.95" font-family="Helvetica,sans-Serif" font-size="12.00">Error Handling</text>
</g>
<g id="clust8" class="cluster">
<title>cluster_legend</title>
<path fill="#fafafa" stroke="#666666" d="M350.75,-2027.18C350.75,-2027.18 1126.75,-2027.18 1126.75,-2027.18 1132.75,-2027.18 1138.75,-2033.18 1138.75,-2039.18 1138.75,-2039.18 1138.75,-2089.58 1138.75,-2089.58 1138.75,-2095.58 1132.75,-2101.58 1126.75,-2101.58 1126.75,-2101.58 350.75,-2101.58 350.75,-2101.58 344.75,-2101.58 338.75,-2095.58 338.75,-2089.58 338.75,-2089.58 338.75,-2039.18 338.75,-2039.18 338.75,-2033.18 344.75,-2027.18 350.75,-2027.18"/>
<text xml:space="preserve" text-anchor="middle" x="738.75" y="-2086.78" font-family="Helvetica,sans-Serif" font-size="12.00">Legend</text>
</g>
<!-- START -->
<g id="node1" class="node">
<title>START</title>
<ellipse fill="#38a169" stroke="black" cx="283.75" cy="-2053.18" rx="44.71" ry="22.63"/>
<text xml:space="preserve" text-anchor="middle" x="283.75" y="-2056.18" font-family="Helvetica,sans-Serif" font-size="10.00" fill="white">User Runs</text>
<text xml:space="preserve" text-anchor="middle" x="283.75" y="-2044.18" font-family="Helvetica,sans-Serif" font-size="10.00" fill="white">Meridian</text>
</g>
<!-- FIRST_RUN -->
<g id="node2" class="node">
<title>FIRST_RUN</title>
<path fill="#fbd38d" stroke="black" d="M345.33,-1973.15C345.33,-1973.15 222.17,-1973.15 222.17,-1973.15 216.17,-1973.15 210.17,-1967.15 210.17,-1961.15 210.17,-1961.15 210.17,-1929.15 210.17,-1929.15 210.17,-1923.15 216.17,-1917.15 222.17,-1917.15 222.17,-1917.15 345.33,-1917.15 345.33,-1917.15 351.33,-1917.15 357.33,-1923.15 357.33,-1929.15 357.33,-1929.15 357.33,-1961.15 357.33,-1961.15 357.33,-1967.15 351.33,-1973.15 345.33,-1973.15"/>
<text xml:space="preserve" text-anchor="middle" x="283.75" y="-1960.15" font-family="Helvetica,sans-Serif" font-size="10.00">FirstRunDetector</text>
<text xml:space="preserve" text-anchor="middle" x="283.75" y="-1936.15" font-family="Helvetica,sans-Serif" font-size="10.00">Check for .meridian&#45;initialized</text>
<text xml:space="preserve" text-anchor="middle" x="283.75" y="-1924.15" font-family="Helvetica,sans-Serif" font-size="10.00">Check for appsettings.json</text>
</g>
<!-- START&#45;&gt;FIRST_RUN -->
<g id="edge1" class="edge">
<title>START&#45;&gt;FIRST_RUN</title>
<path fill="none" stroke="#38a169" d="M283.75,-2030.27C283.75,-2030.27 283.75,-1984.92 283.75,-1984.92"/>
<polygon fill="#38a169" stroke="#38a169" points="287.25,-1984.92 283.75,-1974.92 280.25,-1984.92 287.25,-1984.92"/>
</g>
<!-- FIRST_RUN_CHOICE -->
<g id="node4" class="node">
<title>FIRST_RUN_CHOICE</title>
<path fill="#fed7aa" stroke="black" d="M272.39,-1876.28C272.39,-1876.28 242.27,-1866.02 242.27,-1866.02 236.59,-1864.09 236.59,-1860.21 242.27,-1858.28 242.27,-1858.28 272.39,-1848.02 272.39,-1848.02 278.07,-1846.09 289.43,-1846.09 295.1,-1848.02 295.1,-1848.02 325.22,-1858.28 325.22,-1858.28 330.9,-1860.21 330.9,-1864.09 325.22,-1866.02 325.22,-1866.02 295.1,-1876.28 295.1,-1876.28 289.43,-1878.21 278.07,-1878.21 272.39,-1876.28"/>
<text xml:space="preserve" text-anchor="middle" x="283.75" y="-1859.15" font-family="Helvetica,sans-Serif" font-size="10.00">First Run?</text>
</g>
<!-- FIRST_RUN&#45;&gt;FIRST_RUN_CHOICE -->
<g id="edge2" class="edge">
<title>FIRST_RUN&#45;&gt;FIRST_RUN_CHOICE</title>
<path fill="none" stroke="#4a5568" d="M283.75,-1917.05C283.75,-1917.05 283.75,-1892.08 283.75,-1892.08"/>
<polygon fill="#4a5568" stroke="#4a5568" points="287.25,-1892.08 283.75,-1882.08 280.25,-1892.08 287.25,-1892.08"/>
</g>
<!-- WELCOME -->
<g id="node3" class="node">
<title>WELCOME</title>
<path fill="#fbd38d" stroke="black" d="M340.84,-1797.35C340.84,-1797.35 222.65,-1797.35 222.65,-1797.35 216.65,-1797.35 210.65,-1791.35 210.65,-1785.35 210.65,-1785.35 210.65,-1753.35 210.65,-1753.35 210.65,-1747.35 216.65,-1741.35 222.65,-1741.35 222.65,-1741.35 340.84,-1741.35 340.84,-1741.35 346.84,-1741.35 352.84,-1747.35 352.84,-1753.35 352.84,-1753.35 352.84,-1785.35 352.84,-1785.35 352.84,-1791.35 346.84,-1797.35 340.84,-1797.35"/>
<text xml:space="preserve" text-anchor="middle" x="281.75" y="-1784.35" font-family="Helvetica,sans-Serif" font-size="10.00">Welcome Message</text>
<text xml:space="preserve" text-anchor="middle" x="281.75" y="-1760.35" font-family="Helvetica,sans-Serif" font-size="10.00">Display ASCII banner</text>
<text xml:space="preserve" text-anchor="middle" x="281.75" y="-1748.35" font-family="Helvetica,sans-Serif" font-size="10.00">Show getting started options</text>
</g>
<!-- WIZARD_OPT -->
<g id="node5" class="node">
<title>WIZARD_OPT</title>
<path fill="#c4b5fd" stroke="black" d="M174.88,-1569.15C174.88,-1569.15 90.61,-1569.15 90.61,-1569.15 84.61,-1569.15 78.61,-1563.15 78.61,-1557.15 78.61,-1557.15 78.61,-1513.15 78.61,-1513.15 78.61,-1507.15 84.61,-1501.15 90.61,-1501.15 90.61,-1501.15 174.88,-1501.15 174.88,-1501.15 180.88,-1501.15 186.88,-1507.15 186.88,-1513.15 186.88,-1513.15 186.88,-1557.15 186.88,-1557.15 186.88,-1563.15 180.88,-1569.15 174.88,-1569.15"/>
<text xml:space="preserve" text-anchor="middle" x="132.75" y="-1556.15" font-family="Helvetica,sans-Serif" font-size="10.00">&#45;&#45;wizard</text>
<text xml:space="preserve" text-anchor="middle" x="132.75" y="-1544.15" font-family="Helvetica,sans-Serif" font-size="10.00">[Interactive Setup]</text>
<text xml:space="preserve" text-anchor="middle" x="132.75" y="-1520.15" font-family="Helvetica,sans-Serif" font-size="10.00">8&#45;step guided wizard</text>
<text xml:space="preserve" text-anchor="middle" x="132.75" y="-1508.15" font-family="Helvetica,sans-Serif" font-size="10.00">Best for new users</text>
</g>
<!-- WELCOME&#45;&gt;WIZARD_OPT -->
<g id="edge5" class="edge">
<title>WELCOME&#45;&gt;WIZARD_OPT</title>
<path fill="none" stroke="#4a5568" stroke-dasharray="5,2" d="M210.41,-1760C206.45,-1760 204.05,-1760 204.05,-1760 204.05,-1760 204.05,-1535 204.05,-1535 204.05,-1535 198.67,-1535 198.67,-1535"/>
<polygon fill="#4a5568" stroke="#4a5568" points="198.67,-1531.5 188.67,-1535 198.67,-1538.5 198.67,-1531.5"/>
</g>
<!-- AUTO_OPT -->
<g id="node6" class="node">
<title>AUTO_OPT</title>
<path fill="#c4b5fd" stroke="black" d="M484.99,-1683.95C484.99,-1683.95 378.5,-1683.95 378.5,-1683.95 372.5,-1683.95 366.5,-1677.95 366.5,-1671.95 366.5,-1671.95 366.5,-1627.95 366.5,-1627.95 366.5,-1621.95 372.5,-1615.95 378.5,-1615.95 378.5,-1615.95 484.99,-1615.95 484.99,-1615.95 490.99,-1615.95 496.99,-1621.95 496.99,-1627.95 496.99,-1627.95 496.99,-1671.95 496.99,-1671.95 496.99,-1677.95 490.99,-1683.95 484.99,-1683.95"/>
<text xml:space="preserve" text-anchor="middle" x="431.75" y="-1670.95" font-family="Helvetica,sans-Serif" font-size="10.00">&#45;&#45;auto&#45;config</text>
<text xml:space="preserve" text-anchor="middle" x="431.75" y="-1658.95" font-family="Helvetica,sans-Serif" font-size="10.00">[Quick Setup]</text>
<text xml:space="preserve" text-anchor="middle" x="431.75" y="-1634.95" font-family="Helvetica,sans-Serif" font-size="10.00">Auto&#45;detect from env vars</text>
<text xml:space="preserve" text-anchor="middle" x="431.75" y="-1622.95" font-family="Helvetica,sans-Serif" font-size="10.00">Best for CI/CD</text>
</g>
<!-- WELCOME&#45;&gt;AUTO_OPT -->
<g id="edge6" class="edge">
<title>WELCOME&#45;&gt;AUTO_OPT</title>
<path fill="none" stroke="#4a5568" stroke-dasharray="5,2" d="M353.12,-1769C380.67,-1769 405.68,-1769 405.68,-1769 405.68,-1769 405.68,-1695.9 405.68,-1695.9"/>
<polygon fill="#4a5568" stroke="#4a5568" points="409.18,-1695.9 405.68,-1685.9 402.18,-1695.9 409.18,-1695.9"/>
</g>
<!-- GENERATE_OPT -->
<g id="node7" class="node">
<title>GENERATE_OPT</title>
<path fill="#c4b5fd" stroke="black" d="M336.94,-1683.95C336.94,-1683.95 226.55,-1683.95 226.55,-1683.95 220.55,-1683.95 214.55,-1677.95 214.55,-1671.95 214.55,-1671.95 214.55,-1627.95 214.55,-1627.95 214.55,-1621.95 220.55,-1615.95 226.55,-1615.95 226.55,-1615.95 336.94,-1615.95 336.94,-1615.95 342.94,-1615.95 348.94,-1621.95 348.94,-1627.95 348.94,-1627.95 348.94,-1671.95 348.94,-1671.95 348.94,-1677.95 342.94,-1683.95 336.94,-1683.95"/>
<text xml:space="preserve" text-anchor="middle" x="281.75" y="-1670.95" font-family="Helvetica,sans-Serif" font-size="10.00">&#45;&#45;generate&#45;config &lt;type&gt;</text>
<text xml:space="preserve" text-anchor="middle" x="281.75" y="-1658.95" font-family="Helvetica,sans-Serif" font-size="10.00">[Template Generation]</text>
<text xml:space="preserve" text-anchor="middle" x="281.75" y="-1634.95" font-family="Helvetica,sans-Serif" font-size="10.00">minimal, full, alpaca</text>
<text xml:space="preserve" text-anchor="middle" x="281.75" y="-1622.95" font-family="Helvetica,sans-Serif" font-size="10.00">backfill, production, docker</text>
</g>
<!-- WELCOME&#45;&gt;GENERATE_OPT -->
<g id="edge7" class="edge">
<title>WELCOME&#45;&gt;GENERATE_OPT</title>
<path fill="none" stroke="#4a5568" stroke-dasharray="5,2" d="M281.75,-1741.05C281.75,-1741.05 281.75,-1695.95 281.75,-1695.95"/>
<polygon fill="#4a5568" stroke="#4a5568" points="285.25,-1695.95 281.75,-1685.95 278.25,-1695.95 285.25,-1695.95"/>
</g>
<!-- DETECT_OPT -->
<g id="node8" class="node">
<title>DETECT_OPT</title>
<path fill="#c4b5fd" stroke="black" d="M184.33,-1683.95C184.33,-1683.95 81.16,-1683.95 81.16,-1683.95 75.16,-1683.95 69.16,-1677.95 69.16,-1671.95 69.16,-1671.95 69.16,-1627.95 69.16,-1627.95 69.16,-1621.95 75.16,-1615.95 81.16,-1615.95 81.16,-1615.95 184.33,-1615.95 184.33,-1615.95 190.33,-1615.95 196.33,-1621.95 196.33,-1627.95 196.33,-1627.95 196.33,-1671.95 196.33,-1671.95 196.33,-1677.95 190.33,-1683.95 184.33,-1683.95"/>
<text xml:space="preserve" text-anchor="middle" x="132.75" y="-1670.95" font-family="Helvetica,sans-Serif" font-size="10.00">&#45;&#45;detect&#45;providers</text>
<text xml:space="preserve" text-anchor="middle" x="132.75" y="-1658.95" font-family="Helvetica,sans-Serif" font-size="10.00">[Discovery]</text>
<text xml:space="preserve" text-anchor="middle" x="132.75" y="-1634.95" font-family="Helvetica,sans-Serif" font-size="10.00">Scan environment</text>
<text xml:space="preserve" text-anchor="middle" x="132.75" y="-1622.95" font-family="Helvetica,sans-Serif" font-size="10.00">Show available providers</text>
</g>
<!-- WELCOME&#45;&gt;DETECT_OPT -->
<g id="edge8" class="edge">
<title>WELCOME&#45;&gt;DETECT_OPT</title>
<path fill="none" stroke="#4a5568" stroke-dasharray="5,2" d="M210.3,-1779C172.06,-1779 132.75,-1779 132.75,-1779 132.75,-1779 132.75,-1695.71 132.75,-1695.71"/>
<polygon fill="#4a5568" stroke="#4a5568" points="136.25,-1695.71 132.75,-1685.71 129.25,-1695.71 136.25,-1695.71"/>
</g>
<!-- FIRST_RUN_CHOICE&#45;&gt;WELCOME -->
<g id="edge3" class="edge">
<title>FIRST_RUN_CHOICE&#45;&gt;WELCOME</title>
<path fill="none" stroke="#4a5568" d="M283.75,-1843.82C283.75,-1843.82 283.75,-1809.03 283.75,-1809.03"/>
<polygon fill="#4a5568" stroke="#4a5568" points="287.25,-1809.03 283.75,-1799.03 280.25,-1809.03 287.25,-1809.03"/>
<text xml:space="preserve" text-anchor="middle" x="290.5" y="-1818.05" font-family="Helvetica,sans-Serif" font-size="9.00">Yes</text>
</g>
<!-- STARTUP_SUM -->
<g id="node26" class="node">
<title>STARTUP_SUM</title>
<path fill="#68d391" stroke="black" d="M488.32,-189C488.32,-189 405.17,-189 405.17,-189 399.17,-189 393.17,-183 393.17,-177 393.17,-177 393.17,-133 393.17,-133 393.17,-127 399.17,-121 405.17,-121 405.17,-121 488.32,-121 488.32,-121 494.32,-121 500.32,-127 500.32,-133 500.32,-133 500.32,-177 500.32,-177 500.32,-183 494.32,-189 488.32,-189"/>
<text xml:space="preserve" text-anchor="middle" x="446.75" y="-176" font-family="Helvetica,sans-Serif" font-size="10.00">StartupSummary</text>
<text xml:space="preserve" text-anchor="middle" x="446.75" y="-152" font-family="Helvetica,sans-Serif" font-size="10.00">Configuration review</text>
<text xml:space="preserve" text-anchor="middle" x="446.75" y="-140" font-family="Helvetica,sans-Serif" font-size="10.00">Provider status</text>
<text xml:space="preserve" text-anchor="middle" x="446.75" y="-128" font-family="Helvetica,sans-Serif" font-size="10.00">Health checks</text>
</g>
<!-- FIRST_RUN_CHOICE&#45;&gt;STARTUP_SUM -->
<g id="edge4" class="edge">
<title>FIRST_RUN_CHOICE&#45;&gt;STARTUP_SUM</title>
<path fill="none" stroke="#38a169" d="M230.04,-1862C147.78,-1862 0,-1862 0,-1862 0,-1862 0,-135 0,-135 0,-135 381.34,-135 381.34,-135"/>
<polygon fill="#38a169" stroke="#38a169" points="381.34,-138.5 391.34,-135 381.34,-131.5 381.34,-138.5"/>
<text xml:space="preserve" text-anchor="middle" x="831.5" y="-1046.65" font-family="Helvetica,sans-Serif" font-size="9.00">No</text>
</g>
<!-- W1 -->
<g id="node9" class="node">
<title>W1</title>
<path fill="#6ee7b7" stroke="black" d="M185.94,-1443.75C185.94,-1443.75 95.55,-1443.75 95.55,-1443.75 89.55,-1443.75 83.55,-1437.75 83.55,-1431.75 83.55,-1431.75 83.55,-1399.75 83.55,-1399.75 83.55,-1393.75 89.55,-1387.75 95.55,-1387.75 95.55,-1387.75 185.94,-1387.75 185.94,-1387.75 191.94,-1387.75 197.94,-1393.75 197.94,-1399.75 197.94,-1399.75 197.94,-1431.75 197.94,-1431.75 197.94,-1437.75 191.94,-1443.75 185.94,-1443.75"/>
<text xml:space="preserve" text-anchor="middle" x="140.75" y="-1430.75" font-family="Helvetica,sans-Serif" font-size="10.00">1. Detect Providers</text>
<text xml:space="preserve" text-anchor="middle" x="140.75" y="-1406.75" font-family="Helvetica,sans-Serif" font-size="10.00">Scan env vars</text>
<text xml:space="preserve" text-anchor="middle" x="140.75" y="-1394.75" font-family="Helvetica,sans-Serif" font-size="10.00">Identify available APIs</text>
</g>
<!-- WIZARD_OPT&#45;&gt;W1 -->
<g id="edge9" class="edge">
<title>WIZARD_OPT&#45;&gt;W1</title>
<path fill="none" stroke="#805ad5" d="M135.22,-1500.93C135.22,-1500.93 135.22,-1455.45 135.22,-1455.45"/>
<polygon fill="#805ad5" stroke="#805ad5" points="138.72,-1455.45 135.22,-1445.45 131.72,-1455.45 138.72,-1455.45"/>
</g>
<!-- CONFIG -->
<g id="node25" class="node">
<title>CONFIG</title>
<path fill="#fef3c7" stroke="black" d="M408.67,-595.6C408.67,-600.29 383.16,-604.1 351.75,-604.1 320.34,-604.1 294.82,-600.29 294.82,-595.6 294.82,-595.6 294.82,-519.1 294.82,-519.1 294.82,-514.41 320.34,-510.6 351.75,-510.6 383.16,-510.6 408.67,-514.41 408.67,-519.1 408.67,-519.1 408.67,-595.6 408.67,-595.6"/>
<path fill="none" stroke="black" d="M408.67,-595.6C408.67,-590.91 383.16,-587.1 351.75,-587.1 320.34,-587.1 294.82,-590.91 294.82,-595.6"/>
<text xml:space="preserve" text-anchor="middle" x="351.75" y="-578.35" font-family="Helvetica,sans-Serif" font-size="10.00">appsettings.json</text>
<text xml:space="preserve" text-anchor="middle" x="351.75" y="-566.35" font-family="Helvetica,sans-Serif" font-size="10.00">[Configuration File]</text>
<text xml:space="preserve" text-anchor="middle" x="351.75" y="-542.35" font-family="Helvetica,sans-Serif" font-size="10.00">Generated or updated</text>
<text xml:space="preserve" text-anchor="middle" x="351.75" y="-530.35" font-family="Helvetica,sans-Serif" font-size="10.00">All settings stored</text>
</g>
<!-- AUTO_OPT&#45;&gt;CONFIG -->
<g id="edge10" class="edge">
<title>AUTO_OPT&#45;&gt;CONFIG</title>
<path fill="none" stroke="#805ad5" d="M387.59,-1615.75C387.59,-1615.75 387.59,-615.39 387.59,-615.39"/>
<polygon fill="#805ad5" stroke="#805ad5" points="391.09,-615.39 387.59,-605.39 384.09,-615.39 391.09,-615.39"/>
<text xml:space="preserve" text-anchor="middle" x="403.76" y="-1098.05" font-family="Helvetica,sans-Serif" font-size="9.00">generates</text>
</g>
<!-- GENERATE_OPT&#45;&gt;CONFIG -->
<g id="edge11" class="edge">
<title>GENERATE_OPT&#45;&gt;CONFIG</title>
<path fill="none" stroke="#805ad5" d="M330.9,-1615.75C330.9,-1615.75 330.9,-616.02 330.9,-616.02"/>
<polygon fill="#805ad5" stroke="#805ad5" points="334.4,-616.02 330.9,-606.02 327.4,-616.02 334.4,-616.02"/>
<text xml:space="preserve" text-anchor="middle" x="314.01" y="-1098.05" font-family="Helvetica,sans-Serif" font-size="9.00">creates template</text>
</g>
<!-- DETECT_OPT&#45;&gt;WIZARD_OPT -->
<g id="edge12" class="edge">
<title>DETECT_OPT&#45;&gt;WIZARD_OPT</title>
<path fill="none" stroke="#4a5568" stroke-dasharray="5,2" d="M132.75,-1615.51C132.75,-1615.51 132.75,-1581.08 132.75,-1581.08"/>
<polygon fill="#4a5568" stroke="#4a5568" points="136.25,-1581.08 132.75,-1571.08 129.25,-1581.08 136.25,-1581.08"/>
<text xml:space="preserve" text-anchor="middle" x="147.5" y="-1589.85" font-family="Helvetica,sans-Serif" font-size="9.00">informs</text>
</g>
<!-- W2 -->
<g id="node10" class="node">
<title>W2</title>
<path fill="#6ee7b7" stroke="black" d="M184.54,-1350.75C184.54,-1350.75 106.95,-1350.75 106.95,-1350.75 100.95,-1350.75 94.95,-1344.75 94.95,-1338.75 94.95,-1338.75 94.95,-1270.75 94.95,-1270.75 94.95,-1264.75 100.95,-1258.75 106.95,-1258.75 106.95,-1258.75 184.54,-1258.75 184.54,-1258.75 190.54,-1258.75 196.54,-1264.75 196.54,-1270.75 196.54,-1270.75 196.54,-1338.75 196.54,-1338.75 196.54,-1344.75 190.54,-1350.75 184.54,-1350.75"/>
<text xml:space="preserve" text-anchor="middle" x="145.75" y="-1337.75" font-family="Helvetica,sans-Serif" font-size="10.00">2. Select Use Case</text>
<text xml:space="preserve" text-anchor="middle" x="145.75" y="-1313.75" font-family="Helvetica,sans-Serif" font-size="10.00">Development</text>
<text xml:space="preserve" text-anchor="middle" x="145.75" y="-1301.75" font-family="Helvetica,sans-Serif" font-size="10.00">Research</text>
<text xml:space="preserve" text-anchor="middle" x="145.75" y="-1289.75" font-family="Helvetica,sans-Serif" font-size="10.00">Trading</text>
<text xml:space="preserve" text-anchor="middle" x="145.75" y="-1277.75" font-family="Helvetica,sans-Serif" font-size="10.00">Backfill</text>
<text xml:space="preserve" text-anchor="middle" x="145.75" y="-1265.75" font-family="Helvetica,sans-Serif" font-size="10.00">Production</text>
</g>
<!-- W1&#45;&gt;W2 -->
<g id="edge13" class="edge">
<title>W1&#45;&gt;W2</title>
<path fill="none" stroke="#2c7a7b" d="M145.75,-1387.45C145.75,-1387.45 145.75,-1362.62 145.75,-1362.62"/>
<polygon fill="#2c7a7b" stroke="#2c7a7b" points="149.25,-1362.62 145.75,-1352.62 142.25,-1362.62 149.25,-1362.62"/>
</g>
<!-- W3 -->
<g id="node11" class="node">
<title>W3</title>
<path fill="#6ee7b7" stroke="black" d="M208.17,-1221.75C208.17,-1221.75 103.33,-1221.75 103.33,-1221.75 97.33,-1221.75 91.33,-1215.75 91.33,-1209.75 91.33,-1209.75 91.33,-1177.75 91.33,-1177.75 91.33,-1171.75 97.33,-1165.75 103.33,-1165.75 103.33,-1165.75 208.17,-1165.75 208.17,-1165.75 214.17,-1165.75 220.17,-1171.75 220.17,-1177.75 220.17,-1177.75 220.17,-1209.75 220.17,-1209.75 220.17,-1215.75 214.17,-1221.75 208.17,-1221.75"/>
<text xml:space="preserve" text-anchor="middle" x="155.75" y="-1208.75" font-family="Helvetica,sans-Serif" font-size="10.00">3. Configure Data Source</text>
<text xml:space="preserve" text-anchor="middle" x="155.75" y="-1184.75" font-family="Helvetica,sans-Serif" font-size="10.00">Primary provider</text>
<text xml:space="preserve" text-anchor="middle" x="155.75" y="-1172.75" font-family="Helvetica,sans-Serif" font-size="10.00">Connection settings</text>
</g>
<!-- W2&#45;&gt;W3 -->
<g id="edge14" class="edge">
<title>W2&#45;&gt;W3</title>
<path fill="none" stroke="#2c7a7b" d="M145.75,-1258.32C145.75,-1258.32 145.75,-1233.45 145.75,-1233.45"/>
<polygon fill="#2c7a7b" stroke="#2c7a7b" points="149.25,-1233.45 145.75,-1223.45 142.25,-1233.45 149.25,-1233.45"/>
</g>
<!-- W4 -->
<g id="node12" class="node">
<title>W4</title>
<path fill="#6ee7b7" stroke="black" d="M206.22,-1128.75C206.22,-1128.75 115.28,-1128.75 115.28,-1128.75 109.28,-1128.75 103.28,-1122.75 103.28,-1116.75 103.28,-1116.75 103.28,-1084.75 103.28,-1084.75 103.28,-1078.75 109.28,-1072.75 115.28,-1072.75 115.28,-1072.75 206.22,-1072.75 206.22,-1072.75 212.22,-1072.75 218.22,-1078.75 218.22,-1084.75 218.22,-1084.75 218.22,-1116.75 218.22,-1116.75 218.22,-1122.75 212.22,-1128.75 206.22,-1128.75"/>
<text xml:space="preserve" text-anchor="middle" x="160.75" y="-1115.75" font-family="Helvetica,sans-Serif" font-size="10.00">4. Configure Symbols</text>
<text xml:space="preserve" text-anchor="middle" x="160.75" y="-1091.75" font-family="Helvetica,sans-Serif" font-size="10.00">Presets: US Indices,</text>
<text xml:space="preserve" text-anchor="middle" x="160.75" y="-1079.75" font-family="Helvetica,sans-Serif" font-size="10.00">Tech Giants, S&amp;P 500</text>
</g>
<!-- W3&#45;&gt;W4 -->
<g id="edge15" class="edge">
<title>W3&#45;&gt;W4</title>
<path fill="none" stroke="#2c7a7b" d="M160.75,-1165.34C160.75,-1165.34 160.75,-1140.5 160.75,-1140.5"/>
<polygon fill="#2c7a7b" stroke="#2c7a7b" points="164.25,-1140.5 160.75,-1130.5 157.25,-1140.5 164.25,-1140.5"/>
</g>
<!-- W5 -->
<g id="node13" class="node">
<title>W5</title>
<path fill="#6ee7b7" stroke="black" d="M205.89,-1025.95C205.89,-1025.95 121.61,-1025.95 121.61,-1025.95 115.61,-1025.95 109.61,-1019.95 109.61,-1013.95 109.61,-1013.95 109.61,-981.95 109.61,-981.95 109.61,-975.95 115.61,-969.95 121.61,-969.95 121.61,-969.95 205.89,-969.95 205.89,-969.95 211.89,-969.95 217.89,-975.95 217.89,-981.95 217.89,-981.95 217.89,-1013.95 217.89,-1013.95 217.89,-1019.95 211.89,-1025.95 205.89,-1025.95"/>
<text xml:space="preserve" text-anchor="middle" x="163.75" y="-1012.95" font-family="Helvetica,sans-Serif" font-size="10.00">5. Configure Storage</text>
<text xml:space="preserve" text-anchor="middle" x="163.75" y="-988.95" font-family="Helvetica,sans-Serif" font-size="10.00">Path, format</text>
<text xml:space="preserve" text-anchor="middle" x="163.75" y="-976.95" font-family="Helvetica,sans-Serif" font-size="10.00">Retention policy</text>
</g>
<!-- W4&#45;&gt;W5 -->
<g id="edge16" class="edge">
<title>W4&#45;&gt;W5</title>
<path fill="none" stroke="#2c7a7b" d="M163.75,-1072.39C163.75,-1072.39 163.75,-1037.73 163.75,-1037.73"/>
<polygon fill="#2c7a7b" stroke="#2c7a7b" points="167.25,-1037.73 163.75,-1027.73 160.25,-1037.73 167.25,-1037.73"/>
</g>
<!-- W6 -->
<g id="node14" class="node">
<title>W6</title>
<path fill="#6ee7b7" stroke="black" d="M205.21,-932.95C205.21,-932.95 124.28,-932.95 124.28,-932.95 118.28,-932.95 112.28,-926.95 112.28,-920.95 112.28,-920.95 112.28,-888.95 112.28,-888.95 112.28,-882.95 118.28,-876.95 124.28,-876.95 124.28,-876.95 205.21,-876.95 205.21,-876.95 211.21,-876.95 217.21,-882.95 217.21,-888.95 217.21,-888.95 217.21,-920.95 217.21,-920.95 217.21,-926.95 211.21,-932.95 205.21,-932.95"/>
<text xml:space="preserve" text-anchor="middle" x="164.75" y="-919.95" font-family="Helvetica,sans-Serif" font-size="10.00">6. Configure Backfill</text>
<text xml:space="preserve" text-anchor="middle" x="164.75" y="-895.95" font-family="Helvetica,sans-Serif" font-size="10.00">Historical providers</text>
<text xml:space="preserve" text-anchor="middle" x="164.75" y="-883.95" font-family="Helvetica,sans-Serif" font-size="10.00">Priority chain</text>
</g>
<!-- W5&#45;&gt;W6 -->
<g id="edge17" class="edge">
<title>W5&#45;&gt;W6</title>
<path fill="none" stroke="#2c7a7b" d="M164.75,-969.54C164.75,-969.54 164.75,-944.7 164.75,-944.7"/>
<polygon fill="#2c7a7b" stroke="#2c7a7b" points="168.25,-944.7 164.75,-934.7 161.25,-944.7 168.25,-944.7"/>
</g>
<!-- W7 -->
<g id="node15" class="node">
<title>W7</title>
<path fill="#6ee7b7" stroke="black" d="M203.15,-839.95C203.15,-839.95 128.34,-839.95 128.34,-839.95 122.34,-839.95 116.34,-833.95 116.34,-827.95 116.34,-827.95 116.34,-795.95 116.34,-795.95 116.34,-789.95 122.34,-783.95 128.34,-783.95 128.34,-783.95 203.15,-783.95 203.15,-783.95 209.15,-783.95 215.15,-789.95 215.15,-795.95 215.15,-795.95 215.15,-827.95 215.15,-827.95 215.15,-833.95 209.15,-839.95 203.15,-839.95"/>
<text xml:space="preserve" text-anchor="middle" x="165.75" y="-826.95" font-family="Helvetica,sans-Serif" font-size="10.00">7. Review Settings</text>
<text xml:space="preserve" text-anchor="middle" x="165.75" y="-802.95" font-family="Helvetica,sans-Serif" font-size="10.00">Summary display</text>
<text xml:space="preserve" text-anchor="middle" x="165.75" y="-790.95" font-family="Helvetica,sans-Serif" font-size="10.00">Confirmation</text>
</g>
<!-- W6&#45;&gt;W7 -->
<g id="edge18" class="edge">
<title>W6&#45;&gt;W7</title>
<path fill="none" stroke="#2c7a7b" d="M165.75,-876.54C165.75,-876.54 165.75,-851.7 165.75,-851.7"/>
<polygon fill="#2c7a7b" stroke="#2c7a7b" points="169.25,-851.7 165.75,-841.7 162.25,-851.7 169.25,-851.7"/>
</g>
<!-- W8 -->
<g id="node16" class="node">
<title>W8</title>
<path fill="#6ee7b7" stroke="black" d="M211.94,-720.55C211.94,-720.55 121.56,-720.55 121.56,-720.55 115.56,-720.55 109.56,-714.55 109.56,-708.55 109.56,-708.55 109.56,-676.55 109.56,-676.55 109.56,-670.55 115.56,-664.55 121.56,-664.55 121.56,-664.55 211.94,-664.55 211.94,-664.55 217.94,-664.55 223.94,-670.55 223.94,-676.55 223.94,-676.55 223.94,-708.55 223.94,-708.55 223.94,-714.55 217.94,-720.55 211.94,-720.55"/>
<text xml:space="preserve" text-anchor="middle" x="166.75" y="-707.55" font-family="Helvetica,sans-Serif" font-size="10.00">8. Save Configuration</text>
<text xml:space="preserve" text-anchor="middle" x="166.75" y="-683.55" font-family="Helvetica,sans-Serif" font-size="10.00">Write appsettings.json</text>
<text xml:space="preserve" text-anchor="middle" x="166.75" y="-671.55" font-family="Helvetica,sans-Serif" font-size="10.00">Create marker file</text>
</g>
<!-- W7&#45;&gt;W8 -->
<g id="edge19" class="edge">
<title>W7&#45;&gt;W8</title>
<path fill="none" stroke="#2c7a7b" d="M165.75,-783.65C165.75,-783.65 165.75,-732.16 165.75,-732.16"/>
<polygon fill="#2c7a7b" stroke="#2c7a7b" points="169.25,-732.16 165.75,-722.16 162.25,-732.16 169.25,-732.16"/>
</g>
<!-- W8&#45;&gt;CONFIG -->
<g id="edge20" class="edge">
<title>W8&#45;&gt;CONFIG</title>
<path fill="none" stroke="#2c7a7b" d="M224.08,-693C265.01,-693 312.86,-693 312.86,-693 312.86,-693 312.86,-614.79 312.86,-614.79"/>
<polygon fill="#2c7a7b" stroke="#2c7a7b" points="316.36,-614.79 312.86,-604.79 309.36,-614.79 316.36,-614.79"/>
</g>
<!-- VAL_CREDS -->
<g id="node17" class="node">
<title>VAL_CREDS</title>
<path fill="#93c5fd" stroke="black" d="M521.15,-437.4C521.15,-437.4 436.34,-437.4 436.34,-437.4 430.34,-437.4 424.34,-431.4 424.34,-425.4 424.34,-425.4 424.34,-381.4 424.34,-381.4 424.34,-375.4 430.34,-369.4 436.34,-369.4 436.34,-369.4 521.15,-369.4 521.15,-369.4 527.15,-369.4 533.15,-375.4 533.15,-381.4 533.15,-381.4 533.15,-425.4 533.15,-425.4 533.15,-431.4 527.15,-437.4 521.15,-437.4"/>
<text xml:space="preserve" text-anchor="middle" x="478.75" y="-424.4" font-family="Helvetica,sans-Serif" font-size="10.00">&#45;&#45;validate&#45;credentials</text>
<text xml:space="preserve" text-anchor="middle" x="478.75" y="-400.4" font-family="Helvetica,sans-Serif" font-size="10.00">Test all API keys</text>
<text xml:space="preserve" text-anchor="middle" x="478.75" y="-388.4" font-family="Helvetica,sans-Serif" font-size="10.00">Show account info</text>
<text xml:space="preserve" text-anchor="middle" x="478.75" y="-376.4" font-family="Helvetica,sans-Serif" font-size="10.00">Report issues</text>
</g>
<!-- VAL_CREDS&#45;&gt;STARTUP_SUM -->
<g id="edge26" class="edge">
<title>VAL_CREDS&#45;&gt;STARTUP_SUM</title>
<path fill="none" stroke="#38a169" stroke-dasharray="5,2" d="M465.41,-369.12C465.41,-369.12 465.41,-200.84 465.41,-200.84"/>
<polygon fill="#38a169" stroke="#38a169" points="468.91,-200.84 465.41,-190.84 461.91,-200.84 468.91,-200.84"/>
</g>
<!-- TEST_CONN -->
<g id="node18" class="node">
<title>TEST_CONN</title>
<path fill="#93c5fd" stroke="black" d="M131.49,-437.4C131.49,-437.4 30,-437.4 30,-437.4 24,-437.4 18,-431.4 18,-425.4 18,-425.4 18,-381.4 18,-381.4 18,-375.4 24,-369.4 30,-369.4 30,-369.4 131.49,-369.4 131.49,-369.4 137.49,-369.4 143.49,-375.4 143.49,-381.4 143.49,-381.4 143.49,-425.4 143.49,-425.4 143.49,-431.4 137.49,-437.4 131.49,-437.4"/>
<text xml:space="preserve" text-anchor="middle" x="80.75" y="-424.4" font-family="Helvetica,sans-Serif" font-size="10.00">&#45;&#45;test&#45;connectivity</text>
<text xml:space="preserve" text-anchor="middle" x="80.75" y="-400.4" font-family="Helvetica,sans-Serif" font-size="10.00">Test internet, DNS</text>
<text xml:space="preserve" text-anchor="middle" x="80.75" y="-388.4" font-family="Helvetica,sans-Serif" font-size="10.00">Test each provider</text>
<text xml:space="preserve" text-anchor="middle" x="80.75" y="-376.4" font-family="Helvetica,sans-Serif" font-size="10.00">Measure response times</text>
</g>
<!-- TEST_CONN&#45;&gt;STARTUP_SUM -->
<g id="edge27" class="edge">
<title>TEST_CONN&#45;&gt;STARTUP_SUM</title>
<path fill="none" stroke="#38a169" stroke-dasharray="5,2" d="M80.75,-368.96C80.75,-299.24 80.75,-148 80.75,-148 80.75,-148 381.23,-148 381.23,-148"/>
<polygon fill="#38a169" stroke="#38a169" points="381.23,-151.5 391.23,-148 381.23,-144.5 381.23,-151.5"/>
</g>
<!-- QUICK_CHECK -->
<g id="node19" class="node">
<title>QUICK_CHECK</title>
<path fill="#93c5fd" stroke="black" d="M266.33,-443.4C266.33,-443.4 173.17,-443.4 173.17,-443.4 167.17,-443.4 161.17,-437.4 161.17,-431.4 161.17,-431.4 161.17,-375.4 161.17,-375.4 161.17,-369.4 167.17,-363.4 173.17,-363.4 173.17,-363.4 266.33,-363.4 266.33,-363.4 272.33,-363.4 278.33,-369.4 278.33,-375.4 278.33,-375.4 278.33,-431.4 278.33,-431.4 278.33,-437.4 272.33,-443.4 266.33,-443.4"/>
<text xml:space="preserve" text-anchor="middle" x="219.75" y="-430.4" font-family="Helvetica,sans-Serif" font-size="10.00">&#45;&#45;quick&#45;check</text>
<text xml:space="preserve" text-anchor="middle" x="219.75" y="-406.4" font-family="Helvetica,sans-Serif" font-size="10.00">Disk space check</text>
<text xml:space="preserve" text-anchor="middle" x="219.75" y="-394.4" font-family="Helvetica,sans-Serif" font-size="10.00">Symbol configuration</text>
<text xml:space="preserve" text-anchor="middle" x="219.75" y="-382.4" font-family="Helvetica,sans-Serif" font-size="10.00">Credentials present</text>
<text xml:space="preserve" text-anchor="middle" x="219.75" y="-370.4" font-family="Helvetica,sans-Serif" font-size="10.00">Compression available</text>
</g>
<!-- QUICK_CHECK&#45;&gt;STARTUP_SUM -->
<g id="edge28" class="edge">
<title>QUICK_CHECK&#45;&gt;STARTUP_SUM</title>
<path fill="none" stroke="#38a169" stroke-dasharray="5,2" d="M219.75,-363C219.75,-294.27 219.75,-162 219.75,-162 219.75,-162 381.44,-162 381.44,-162"/>
<polygon fill="#38a169" stroke="#38a169" points="381.44,-165.5 391.44,-162 381.44,-158.5 381.44,-165.5"/>
</g>
<!-- VAL_CONFIG -->
<g id="node20" class="node">
<title>VAL_CONFIG</title>
<path fill="#93c5fd" stroke="black" d="M394.71,-437.4C394.71,-437.4 308.78,-437.4 308.78,-437.4 302.78,-437.4 296.78,-431.4 296.78,-425.4 296.78,-425.4 296.78,-381.4 296.78,-381.4 296.78,-375.4 302.78,-369.4 308.78,-369.4 308.78,-369.4 394.71,-369.4 394.71,-369.4 400.71,-369.4 406.71,-375.4 406.71,-381.4 406.71,-381.4 406.71,-425.4 406.71,-425.4 406.71,-431.4 400.71,-437.4 394.71,-437.4"/>
<text xml:space="preserve" text-anchor="middle" x="351.75" y="-424.4" font-family="Helvetica,sans-Serif" font-size="10.00">&#45;&#45;validate&#45;config</text>
<text xml:space="preserve" text-anchor="middle" x="351.75" y="-400.4" font-family="Helvetica,sans-Serif" font-size="10.00">Parse configuration</text>
<text xml:space="preserve" text-anchor="middle" x="351.75" y="-388.4" font-family="Helvetica,sans-Serif" font-size="10.00">Check required fields</text>
<text xml:space="preserve" text-anchor="middle" x="351.75" y="-376.4" font-family="Helvetica,sans-Serif" font-size="10.00">Validate values</text>
</g>
<!-- DRY_RUN -->
<g id="node21" class="node">
<title>DRY_RUN</title>
<path fill="#93c5fd" stroke="black" d="M418.49,-314.4C418.49,-314.4 347,-314.4 347,-314.4 341,-314.4 335,-308.4 335,-302.4 335,-302.4 335,-258.4 335,-258.4 335,-252.4 341,-246.4 347,-246.4 347,-246.4 418.49,-246.4 418.49,-246.4 424.49,-246.4 430.49,-252.4 430.49,-258.4 430.49,-258.4 430.49,-302.4 430.49,-302.4 430.49,-308.4 424.49,-314.4 418.49,-314.4"/>
<text xml:space="preserve" text-anchor="middle" x="382.75" y="-301.4" font-family="Helvetica,sans-Serif" font-size="10.00">&#45;&#45;dry&#45;run</text>
<text xml:space="preserve" text-anchor="middle" x="382.75" y="-277.4" font-family="Helvetica,sans-Serif" font-size="10.00">Full initialization</text>
<text xml:space="preserve" text-anchor="middle" x="382.75" y="-265.4" font-family="Helvetica,sans-Serif" font-size="10.00">No data collection</text>
<text xml:space="preserve" text-anchor="middle" x="382.75" y="-253.4" font-family="Helvetica,sans-Serif" font-size="10.00">Test everything</text>
</g>
<!-- VAL_CONFIG&#45;&gt;DRY_RUN -->
<g id="edge25" class="edge">
<title>VAL_CONFIG&#45;&gt;DRY_RUN</title>
<path fill="none" stroke="#4a5568" stroke-dasharray="5,2" d="M370.86,-369.14C370.86,-369.14 370.86,-325.99 370.86,-325.99"/>
<polygon fill="#4a5568" stroke="#4a5568" points="374.36,-325.99 370.86,-315.99 367.36,-325.99 374.36,-325.99"/>
</g>
<!-- DRY_RUN&#45;&gt;STARTUP_SUM -->
<g id="edge29" class="edge">
<title>DRY_RUN&#45;&gt;STARTUP_SUM</title>
<path fill="none" stroke="#38a169" stroke-dasharray="5,2" d="M411.83,-246.13C411.83,-246.13 411.83,-200.74 411.83,-200.74"/>
<polygon fill="#38a169" stroke="#38a169" points="415.33,-200.74 411.83,-190.74 408.33,-200.74 415.33,-200.74"/>
</g>
<!-- SHOW_CONFIG -->
<g id="node22" class="node">
<title>SHOW_CONFIG</title>
<path fill="#9ae6b4" stroke="black" d="M511.82,-720.55C511.82,-720.55 423.67,-720.55 423.67,-720.55 417.67,-720.55 411.67,-714.55 411.67,-708.55 411.67,-708.55 411.67,-676.55 411.67,-676.55 411.67,-670.55 417.67,-664.55 423.67,-664.55 423.67,-664.55 511.82,-664.55 511.82,-664.55 517.82,-664.55 523.82,-670.55 523.82,-676.55 523.82,-676.55 523.82,-708.55 523.82,-708.55 523.82,-714.55 517.82,-720.55 511.82,-720.55"/>
<text xml:space="preserve" text-anchor="middle" x="467.75" y="-707.55" font-family="Helvetica,sans-Serif" font-size="10.00">&#45;&#45;show&#45;config</text>
<text xml:space="preserve" text-anchor="middle" x="467.75" y="-683.55" font-family="Helvetica,sans-Serif" font-size="10.00">Display current config</text>
<text xml:space="preserve" text-anchor="middle" x="467.75" y="-671.55" font-family="Helvetica,sans-Serif" font-size="10.00">Masked credentials</text>
</g>
<!-- SHOW_CONFIG&#45;&gt;CONFIG -->
<g id="edge33" class="edge">
<title>SHOW_CONFIG&#45;&gt;CONFIG</title>
<path fill="none" stroke="#4a5568" stroke-dasharray="5,2" d="M418,-664.18C418,-636.33 418,-598 418,-598 418,-598 417.11,-598 417.11,-598"/>
<polygon fill="#4a5568" stroke="#4a5568" points="420.58,-594.5 410.58,-598 420.58,-601.5 420.58,-594.5"/>
<text xml:space="preserve" text-anchor="middle" x="454" y="-632.45" font-family="Helvetica,sans-Serif" font-size="9.00">reads</text>
</g>
<!-- ERROR_CODES -->
<g id="node23" class="node">
<title>ERROR_CODES</title>
<path fill="#9ae6b4" stroke="black" d="M673.92,-726.55C673.92,-726.55 553.57,-726.55 553.57,-726.55 547.57,-726.55 541.57,-720.55 541.57,-714.55 541.57,-714.55 541.57,-670.55 541.57,-670.55 541.57,-664.55 547.57,-658.55 553.57,-658.55 553.57,-658.55 673.92,-658.55 673.92,-658.55 679.92,-658.55 685.92,-664.55 685.92,-670.55 685.92,-670.55 685.92,-714.55 685.92,-714.55 685.92,-720.55 679.92,-726.55 673.92,-726.55"/>
<text xml:space="preserve" text-anchor="middle" x="613.75" y="-713.55" font-family="Helvetica,sans-Serif" font-size="10.00">&#45;&#45;error&#45;codes</text>
<text xml:space="preserve" text-anchor="middle" x="613.75" y="-689.55" font-family="Helvetica,sans-Serif" font-size="10.00">24 error codes</text>
<text xml:space="preserve" text-anchor="middle" x="613.75" y="-677.55" font-family="Helvetica,sans-Serif" font-size="10.00">MERIDIAN&#45;XXX&#45;NNN format</text>
<text xml:space="preserve" text-anchor="middle" x="613.75" y="-665.55" font-family="Helvetica,sans-Serif" font-size="10.00">Troubleshooting tips</text>
</g>
<!-- ERROR_FMT -->
<g id="node28" class="node">
<title>ERROR_FMT</title>
<path fill="#fc8181" stroke="black" d="M692.31,-591.35C692.31,-591.35 599.18,-591.35 599.18,-591.35 593.18,-591.35 587.18,-585.35 587.18,-579.35 587.18,-579.35 587.18,-535.35 587.18,-535.35 587.18,-529.35 593.18,-523.35 599.18,-523.35 599.18,-523.35 692.31,-523.35 692.31,-523.35 698.31,-523.35 704.31,-529.35 704.31,-535.35 704.31,-535.35 704.31,-579.35 704.31,-579.35 704.31,-585.35 698.31,-591.35 692.31,-591.35"/>
<text xml:space="preserve" text-anchor="middle" x="645.75" y="-578.35" font-family="Helvetica,sans-Serif" font-size="10.00" fill="white">FriendlyErrorFormatter</text>
<text xml:space="preserve" text-anchor="middle" x="645.75" y="-554.35" font-family="Helvetica,sans-Serif" font-size="10.00" fill="white">Parse exception</text>
<text xml:space="preserve" text-anchor="middle" x="645.75" y="-542.35" font-family="Helvetica,sans-Serif" font-size="10.00" fill="white">Assign error code</text>
<text xml:space="preserve" text-anchor="middle" x="645.75" y="-530.35" font-family="Helvetica,sans-Serif" font-size="10.00" fill="white">Generate suggestions</text>
</g>
<!-- ERROR_CODES&#45;&gt;ERROR_FMT -->
<g id="edge34" class="edge">
<title>ERROR_CODES&#45;&gt;ERROR_FMT</title>
<path fill="none" stroke="#4a5568" stroke-dasharray="5,2" d="M636.55,-658.08C636.55,-658.08 636.55,-603.27 636.55,-603.27"/>
<polygon fill="#4a5568" stroke="#4a5568" points="640.05,-603.27 636.55,-593.27 633.05,-603.27 640.05,-603.27"/>
<text xml:space="preserve" text-anchor="middle" x="648.76" y="-632.45" font-family="Helvetica,sans-Serif" font-size="9.00">reference</text>
</g>
<!-- HELP -->
<g id="node24" class="node">
<title>HELP</title>
<path fill="#9ae6b4" stroke="black" d="M785.38,-720.55C785.38,-720.55 716.11,-720.55 716.11,-720.55 710.11,-720.55 704.11,-714.55 704.11,-708.55 704.11,-708.55 704.11,-676.55 704.11,-676.55 704.11,-670.55 710.11,-664.55 716.11,-664.55 716.11,-664.55 785.38,-664.55 785.38,-664.55 791.38,-664.55 797.38,-670.55 797.38,-676.55 797.38,-676.55 797.38,-708.55 797.38,-708.55 797.38,-714.55 791.38,-720.55 785.38,-720.55"/>
<text xml:space="preserve" text-anchor="middle" x="750.75" y="-707.55" font-family="Helvetica,sans-Serif" font-size="10.00">&#45;&#45;help</text>
<text xml:space="preserve" text-anchor="middle" x="750.75" y="-683.55" font-family="Helvetica,sans-Serif" font-size="10.00">All available flags</text>
<text xml:space="preserve" text-anchor="middle" x="750.75" y="-671.55" font-family="Helvetica,sans-Serif" font-size="10.00">Usage examples</text>
</g>
<!-- CONFIG&#45;&gt;VAL_CREDS -->
<g id="edge21" class="edge">
<title>CONFIG&#45;&gt;VAL_CREDS</title>
<path fill="none" stroke="#4a5568" stroke-dasharray="5,2" d="M408.97,-517C440.81,-517 474.08,-517 474.08,-517 474.08,-517 474.08,-449.31 474.08,-449.31"/>
<polygon fill="#4a5568" stroke="#4a5568" points="477.58,-449.31 474.08,-439.31 470.58,-449.31 477.58,-449.31"/>
<text xml:space="preserve" text-anchor="middle" x="458.51" y="-484.5" font-family="Helvetica,sans-Serif" font-size="9.00">optional</text>
</g>
<!-- CONFIG&#45;&gt;TEST_CONN -->
<g id="edge22" class="edge">
<title>CONFIG&#45;&gt;TEST_CONN</title>
<path fill="none" stroke="#4a5568" stroke-dasharray="5,2" d="M294.33,-557C227.6,-557 126.52,-557 126.52,-557 126.52,-557 126.52,-449.38 126.52,-449.38"/>
<polygon fill="#4a5568" stroke="#4a5568" points="130.02,-449.38 126.52,-439.38 123.02,-449.38 130.02,-449.38"/>
<text xml:space="preserve" text-anchor="middle" x="158.51" y="-484.5" font-family="Helvetica,sans-Serif" font-size="9.00">optional</text>
</g>
<!-- CONFIG&#45;&gt;QUICK_CHECK -->
<g id="edge23" class="edge">
<title>CONFIG&#45;&gt;QUICK_CHECK</title>
<path fill="none" stroke="#4a5568" stroke-dasharray="5,2" d="M294.38,-534C271.79,-534 251.13,-534 251.13,-534 251.13,-534 251.13,-455.16 251.13,-455.16"/>
<polygon fill="#4a5568" stroke="#4a5568" points="254.63,-455.16 251.13,-445.16 247.63,-455.16 254.63,-455.16"/>
<text xml:space="preserve" text-anchor="middle" x="274.51" y="-484.5" font-family="Helvetica,sans-Serif" font-size="9.00">optional</text>
</g>
<!-- CONFIG&#45;&gt;VAL_CONFIG -->
<g id="edge24" class="edge">
<title>CONFIG&#45;&gt;VAL_CONFIG</title>
<path fill="none" stroke="#4a5568" stroke-dasharray="5,2" d="M351.75,-510.32C351.75,-510.32 351.75,-448.95 351.75,-448.95"/>
<polygon fill="#4a5568" stroke="#4a5568" points="355.25,-448.95 351.75,-438.95 348.25,-448.95 355.25,-448.95"/>
<text xml:space="preserve" text-anchor="middle" x="367.51" y="-484.5" font-family="Helvetica,sans-Serif" font-size="9.00">optional</text>
</g>
<!-- CONFIG&#45;&gt;STARTUP_SUM -->
<g id="edge30" class="edge">
<title>CONFIG&#45;&gt;STARTUP_SUM</title>
<path fill="none" stroke="#38a169" d="M294.57,-581C289.69,-581 286.57,-581 286.57,-581 286.57,-581 286.57,-175 286.57,-175 286.57,-175 381.45,-175 381.45,-175"/>
<polygon fill="#38a169" stroke="#38a169" points="381.45,-178.5 391.45,-175 381.45,-171.5 381.45,-178.5"/>
</g>
<!-- RUN_NORMAL -->
<g id="node27" class="node">
<title>RUN_NORMAL</title>
<path fill="#38a169" stroke="black" d="M526.25,-84C526.25,-84 367.24,-84 367.24,-84 361.24,-84 355.24,-78 355.24,-72 355.24,-72 355.24,-28 355.24,-28 355.24,-22 361.24,-16 367.24,-16 367.24,-16 526.25,-16 526.25,-16 532.25,-16 538.25,-22 538.25,-28 538.25,-28 538.25,-72 538.25,-72 538.25,-78 532.25,-84 526.25,-84"/>
<text xml:space="preserve" text-anchor="middle" x="446.75" y="-71" font-family="Helvetica,sans-Serif" font-size="10.00" fill="white">Normal Operation</text>
<text xml:space="preserve" text-anchor="middle" x="446.75" y="-47" font-family="Helvetica,sans-Serif" font-size="10.00" fill="white">&#45;&#45;mode desktop (local API + collector)</text>
<text xml:space="preserve" text-anchor="middle" x="446.75" y="-35" font-family="Helvetica,sans-Serif" font-size="10.00" fill="white">&#45;&#45;backfill (historical)</text>
<text xml:space="preserve" text-anchor="middle" x="446.75" y="-23" font-family="Helvetica,sans-Serif" font-size="10.00" fill="white">default/headless (streaming)</text>
</g>
<!-- STARTUP_SUM&#45;&gt;RUN_NORMAL -->
<g id="edge31" class="edge">
<title>STARTUP_SUM&#45;&gt;RUN_NORMAL</title>
<path fill="none" stroke="#38a169" d="M446.75,-120.62C446.75,-120.62 446.75,-95.97 446.75,-95.97"/>
<polygon fill="#38a169" stroke="#38a169" points="450.25,-95.97 446.75,-85.97 443.25,-95.97 450.25,-95.97"/>
</g>
<!-- ERROR_DISPLAY -->
<g id="node29" class="node">
<title>ERROR_DISPLAY</title>
<path fill="#fecaca" stroke="black" d="M688.71,-455.4C688.71,-455.4 602.78,-455.4 602.78,-455.4 596.78,-455.4 590.78,-449.4 590.78,-443.4 590.78,-443.4 590.78,-363.4 590.78,-363.4 590.78,-357.4 596.78,-351.4 602.78,-351.4 602.78,-351.4 688.71,-351.4 688.71,-351.4 694.71,-351.4 700.71,-357.4 700.71,-363.4 700.71,-363.4 700.71,-443.4 700.71,-443.4 700.71,-449.4 694.71,-455.4 688.71,-455.4"/>
<text xml:space="preserve" text-anchor="middle" x="645.75" y="-442.4" font-family="Helvetica,sans-Serif" font-size="10.00">User&#45;Friendly Error</text>
<text xml:space="preserve" text-anchor="middle" x="645.75" y="-418.4" font-family="Helvetica,sans-Serif" font-size="10.00">[Meridian&#45;CFG&#45;001]</text>
<text xml:space="preserve" text-anchor="middle" x="645.75" y="-406.4" font-family="Helvetica,sans-Serif" font-size="10.00">Missing configuration</text>
<text xml:space="preserve" text-anchor="middle" x="645.75" y="-382.4" font-family="Helvetica,sans-Serif" font-size="10.00">Suggestions:</text>
<text xml:space="preserve" text-anchor="middle" x="645.75" y="-370.4" font-family="Helvetica,sans-Serif" font-size="10.00">1. Run &#45;&#45;wizard</text>
<text xml:space="preserve" text-anchor="middle" x="645.75" y="-358.4" font-family="Helvetica,sans-Serif" font-size="10.00">2. Check env vars</text>
</g>
<!-- ERROR_FMT&#45;&gt;ERROR_DISPLAY -->
<g id="edge32" class="edge">
<title>ERROR_FMT&#45;&gt;ERROR_DISPLAY</title>
<path fill="none" stroke="#e53e3e" d="M645.75,-523.18C645.75,-523.18 645.75,-467.14 645.75,-467.14"/>
<polygon fill="#e53e3e" stroke="#e53e3e" points="649.25,-467.14 645.75,-457.14 642.25,-467.14 649.25,-467.14"/>
</g>
<!-- L1 -->
<g id="node30" class="node">
<title>L1</title>
<path fill="#fbd38d" stroke="black" d="M432.86,-2071.18C432.86,-2071.18 358.63,-2071.18 358.63,-2071.18 352.63,-2071.18 346.63,-2065.18 346.63,-2059.18 346.63,-2059.18 346.63,-2047.18 346.63,-2047.18 346.63,-2041.18 352.63,-2035.18 358.63,-2035.18 358.63,-2035.18 432.86,-2035.18 432.86,-2035.18 438.86,-2035.18 444.86,-2041.18 444.86,-2047.18 444.86,-2047.18 444.86,-2059.18 444.86,-2059.18 444.86,-2065.18 438.86,-2071.18 432.86,-2071.18"/>
<text xml:space="preserve" text-anchor="middle" x="395.75" y="-2050.18" font-family="Helvetica,sans-Serif" font-size="10.00">First&#45;Run Services</text>
</g>
<!-- L2 -->
<g id="node31" class="node">
<title>L2</title>
<path fill="#c4b5fd" stroke="black" d="M530.43,-2071.18C530.43,-2071.18 475.06,-2071.18 475.06,-2071.18 469.06,-2071.18 463.06,-2065.18 463.06,-2059.18 463.06,-2059.18 463.06,-2047.18 463.06,-2047.18 463.06,-2041.18 469.06,-2035.18 475.06,-2035.18 475.06,-2035.18 530.43,-2035.18 530.43,-2035.18 536.43,-2035.18 542.43,-2041.18 542.43,-2047.18 542.43,-2047.18 542.43,-2059.18 542.43,-2059.18 542.43,-2065.18 536.43,-2071.18 530.43,-2071.18"/>
<text xml:space="preserve" text-anchor="middle" x="502.75" y="-2050.18" font-family="Helvetica,sans-Serif" font-size="10.00">Setup Options</text>
</g>
<!-- L3 -->
<g id="node32" class="node">
<title>L3</title>
<path fill="#6ee7b7" stroke="black" d="M623.48,-2071.18C623.48,-2071.18 572.01,-2071.18 572.01,-2071.18 566.01,-2071.18 560.01,-2065.18 560.01,-2059.18 560.01,-2059.18 560.01,-2047.18 560.01,-2047.18 560.01,-2041.18 566.01,-2035.18 572.01,-2035.18 572.01,-2035.18 623.48,-2035.18 623.48,-2035.18 629.48,-2035.18 635.48,-2041.18 635.48,-2047.18 635.48,-2047.18 635.48,-2059.18 635.48,-2059.18 635.48,-2065.18 629.48,-2071.18 623.48,-2071.18"/>
<text xml:space="preserve" text-anchor="middle" x="597.75" y="-2050.18" font-family="Helvetica,sans-Serif" font-size="10.00">Wizard Steps</text>
</g>
<!-- L4 -->
<g id="node33" class="node">
<title>L4</title>
<path fill="#93c5fd" stroke="black" d="M755.94,-2071.18C755.94,-2071.18 665.55,-2071.18 665.55,-2071.18 659.55,-2071.18 653.55,-2065.18 653.55,-2059.18 653.55,-2059.18 653.55,-2047.18 653.55,-2047.18 653.55,-2041.18 659.55,-2035.18 665.55,-2035.18 665.55,-2035.18 755.94,-2035.18 755.94,-2035.18 761.94,-2035.18 767.94,-2041.18 767.94,-2047.18 767.94,-2047.18 767.94,-2059.18 767.94,-2059.18 767.94,-2065.18 761.94,-2071.18 755.94,-2071.18"/>
<text xml:space="preserve" text-anchor="middle" x="710.75" y="-2050.18" font-family="Helvetica,sans-Serif" font-size="10.00">Validation/Diagnostics</text>
</g>
<!-- L5 -->
<g id="node34" class="node">
<title>L5</title>
<path fill="#9ae6b4" stroke="black" d="M857.38,-2071.18C857.38,-2071.18 798.12,-2071.18 798.12,-2071.18 792.12,-2071.18 786.12,-2065.18 786.12,-2059.18 786.12,-2059.18 786.12,-2047.18 786.12,-2047.18 786.12,-2041.18 792.12,-2035.18 798.12,-2035.18 798.12,-2035.18 857.38,-2035.18 857.38,-2035.18 863.38,-2035.18 869.38,-2041.18 869.38,-2047.18 869.38,-2047.18 869.38,-2059.18 869.38,-2059.18 869.38,-2065.18 863.38,-2071.18 857.38,-2071.18"/>
<text xml:space="preserve" text-anchor="middle" x="827.75" y="-2050.18" font-family="Helvetica,sans-Serif" font-size="10.00">Documentation</text>
</g>
<!-- L6 -->
<g id="node35" class="node">
<title>L6</title>
<path fill="#fc8181" stroke="black" d="M955.98,-2071.18C955.98,-2071.18 899.51,-2071.18 899.51,-2071.18 893.51,-2071.18 887.51,-2065.18 887.51,-2059.18 887.51,-2059.18 887.51,-2047.18 887.51,-2047.18 887.51,-2041.18 893.51,-2035.18 899.51,-2035.18 899.51,-2035.18 955.98,-2035.18 955.98,-2035.18 961.98,-2035.18 967.98,-2041.18 967.98,-2047.18 967.98,-2047.18 967.98,-2059.18 967.98,-2059.18 967.98,-2065.18 961.98,-2071.18 955.98,-2071.18"/>
<text xml:space="preserve" text-anchor="middle" x="927.75" y="-2050.18" font-family="Helvetica,sans-Serif" font-size="10.00" fill="white">Error Handling</text>
</g>
<!-- LEG_FLOW -->
<g id="node36" class="node">
<title>LEG_FLOW</title>
<path fill="lightgrey" stroke="none" d="M1119.22,-2071.18C1119.22,-2071.18 998.27,-2071.18 998.27,-2071.18 992.27,-2071.18 986.27,-2065.18 986.27,-2059.18 986.27,-2059.18 986.27,-2047.18 986.27,-2047.18 986.27,-2041.18 992.27,-2035.18 998.27,-2035.18 998.27,-2035.18 1119.22,-2035.18 1119.22,-2035.18 1125.22,-2035.18 1131.22,-2041.18 1131.22,-2047.18 1131.22,-2047.18 1131.22,-2059.18 1131.22,-2059.18 1131.22,-2065.18 1125.22,-2071.18 1119.22,-2071.18"/>
<text xml:space="preserve" text-anchor="middle" x="1058.75" y="-2056.18" font-family="Helvetica,sans-Serif" font-size="10.00">━━ Primary flow</text>
<text xml:space="preserve" text-anchor="middle" x="1058.75" y="-2044.18" font-family="Helvetica,sans-Serif" font-size="10.00">─ ─ Optional/alternative flow</text>
</g>
</g>
</svg>
