<?xml version="1.0" encoding="UTF-8" standalone="no"?>
<!DOCTYPE svg PUBLIC "-//W3C//DTD SVG 1.1//EN"
 "http://www.w3.org/Graphics/SVG/1.1/DTD/svg11.dtd">
<!-- Generated by graphviz version 14.1.3 (20260303.0454)
 -->
<!-- Title: ProjectDependencies Pages: 1 -->
<svg width="3432pt" height="766pt"
 viewBox="0.00 0.00 3432.00 766.00" xmlns="http://www.w3.org/2000/svg" xmlns:xlink="http://www.w3.org/1999/xlink">
<g id="graph0" class="graph" transform="scale(1 1) rotate(0) translate(4 762.24)">
<title>ProjectDependencies</title>
<polygon fill="white" stroke="none" points="-4,4 -4,-762.24 3428,-762.24 3428,4 -4,4"/>
<text xml:space="preserve" text-anchor="middle" x="1712" y="-741.64" font-family="Segoe UI, Helvetica, Arial, sans-serif" font-size="14.00">Meridian &#45; Project Dependencies</text>
<text xml:space="preserve" text-anchor="middle" x="1712" y="-724.84" font-family="Segoe UI, Helvetica, Arial, sans-serif" font-size="14.00">(28 source projects | 8 test projects | 1 benchmark project)</text>
<g id="clust1" class="cluster">
<title>cluster_layer0</title>
<path fill="none" stroke="#aaaaaa" stroke-dasharray="5,2" d="M2510,-8C2510,-8 3175,-8 3175,-8 3181,-8 3187,-14 3187,-20 3187,-20 3187,-213.96 3187,-213.96 3187,-219.96 3181,-225.96 3175,-225.96 3175,-225.96 2510,-225.96 2510,-225.96 2504,-225.96 2498,-219.96 2498,-213.96 2498,-213.96 2498,-20 2498,-20 2498,-14 2504,-8 2510,-8"/>
<text xml:space="preserve" text-anchor="middle" x="2842.5" y="-212.06" font-family="Segoe UI, Helvetica, Arial, sans-serif" font-size="11.00">Layer 0: Foundation — shared contracts and F# domain primitives (no inbound project deps)</text>
</g>
<g id="clust2" class="cluster">
<title>cluster_fsharp_family</title>
<path fill="none" stroke="#66bb6a" d="M2694,-16C2694,-16 3167,-16 3167,-16 3173,-16 3179,-22 3179,-28 3179,-28 3179,-184.76 3179,-184.76 3179,-190.76 3173,-196.76 3167,-196.76 3167,-196.76 2694,-196.76 2694,-196.76 2688,-196.76 2682,-190.76 2682,-184.76 2682,-184.76 2682,-28 2682,-28 2682,-22 2688,-16 2694,-16"/>
<text xml:space="preserve" text-anchor="middle" x="2930.5" y="-183.76" font-family="Segoe UI, Helvetica, Arial, sans-serif" font-size="10.00">F# Domain Family</text>
</g>
<g id="clust3" class="cluster">
<title>cluster_layer1</title>
<path fill="none" stroke="#aaaaaa" stroke-dasharray="5,2" d="M790,-119C790,-119 1304,-119 1304,-119 1310,-119 1316,-125 1316,-131 1316,-131 1316,-191.72 1316,-191.72 1316,-197.72 1310,-203.72 1304,-203.72 1304,-203.72 790,-203.72 790,-203.72 784,-203.72 778,-197.72 778,-191.72 778,-191.72 778,-131 778,-131 778,-125 784,-119 790,-119"/>
<text xml:space="preserve" text-anchor="middle" x="1047" y="-189.82" font-family="Segoe UI, Helvetica, Arial, sans-serif" font-size="11.00">Layer 1: SDK &amp; Core Interfaces</text>
</g>
<g id="clust4" class="cluster">
<title>cluster_layer2</title>
<path fill="none" stroke="#aaaaaa" stroke-dasharray="5,2" d="M2308,-119C2308,-119 2440,-119 2440,-119 2446,-119 2452,-125 2452,-131 2452,-131 2452,-447.2 2452,-447.2 2452,-453.2 2446,-459.2 2440,-459.2 2440,-459.2 2308,-459.2 2308,-459.2 2302,-459.2 2296,-453.2 2296,-447.2 2296,-447.2 2296,-131 2296,-131 2296,-125 2302,-119 2308,-119"/>
<text xml:space="preserve" text-anchor="middle" x="2374" y="-445.3" font-family="Segoe UI, Helvetica, Arial, sans-serif" font-size="11.00">Layer 2: Core Domain</text>
</g>
<g id="clust5" class="cluster">
<title>cluster_layer3</title>
<path fill="none" stroke="#aaaaaa" stroke-dasharray="5,2" d="M820,-259.96C820,-259.96 1192,-259.96 1192,-259.96 1198,-259.96 1204,-265.96 1204,-271.96 1204,-271.96 1204,-447.2 1204,-447.2 1204,-453.2 1198,-459.2 1192,-459.2 1192,-459.2 820,-459.2 820,-459.2 814,-459.2 808,-453.2 808,-447.2 808,-447.2 808,-271.96 808,-271.96 808,-265.96 814,-259.96 820,-259.96"/>
<text xml:space="preserve" text-anchor="middle" x="1006" y="-445.3" font-family="Segoe UI, Helvetica, Arial, sans-serif" font-size="11.00">Layer 3: Infrastructure &amp; Storage</text>
</g>
<g id="clust6" class="cluster">
<title>cluster_layer4</title>
<path fill="none" stroke="#aaaaaa" stroke-dasharray="5,2" d="M1532,-374.48C1532,-374.48 1896,-374.48 1896,-374.48 1902,-374.48 1908,-380.48 1908,-386.48 1908,-386.48 1908,-447.2 1908,-447.2 1908,-453.2 1902,-459.2 1896,-459.2 1896,-459.2 1532,-459.2 1532,-459.2 1526,-459.2 1520,-453.2 1520,-447.2 1520,-447.2 1520,-386.48 1520,-386.48 1520,-380.48 1526,-374.48 1532,-374.48"/>
<text xml:space="preserve" text-anchor="middle" x="1714" y="-445.3" font-family="Segoe UI, Helvetica, Arial, sans-serif" font-size="11.00">Layer 4: Application Logic &amp; Backtesting SDK</text>
</g>
<g id="clust7" class="cluster">
<title>cluster_layer5</title>
<path fill="none" stroke="#aaaaaa" stroke-dasharray="5,2" d="M20,-374.48C20,-374.48 594,-374.48 594,-374.48 600,-374.48 606,-380.48 606,-386.48 606,-386.48 606,-565.92 606,-565.92 606,-571.92 600,-577.92 594,-577.92 594,-577.92 20,-577.92 20,-577.92 14,-577.92 8,-571.92 8,-565.92 8,-565.92 8,-386.48 8,-386.48 8,-380.48 14,-374.48 20,-374.48"/>
<text xml:space="preserve" text-anchor="middle" x="307" y="-564.02" font-family="Segoe UI, Helvetica, Arial, sans-serif" font-size="11.00">Layer 5: Execution, Backtesting, Risk &amp; Strategies</text>
</g>
<g id="clust8" class="cluster">
<title>cluster_layer6</title>
<path fill="none" stroke="#aaaaaa" stroke-dasharray="5,2" d="M1792,-493.2C1792,-493.2 2292,-493.2 2292,-493.2 2298,-493.2 2304,-499.2 2304,-505.2 2304,-505.2 2304,-690.64 2304,-690.64 2304,-696.64 2298,-702.64 2292,-702.64 2292,-702.64 1792,-702.64 1792,-702.64 1786,-702.64 1780,-696.64 1780,-690.64 1780,-690.64 1780,-505.2 1780,-505.2 1780,-499.2 1786,-493.2 1792,-493.2"/>
<text xml:space="preserve" text-anchor="middle" x="2042" y="-688.74" font-family="Segoe UI, Helvetica, Arial, sans-serif" font-size="11.00">Layer 6: UI &amp; Presentation</text>
</g>
<g id="clust9" class="cluster">
<title>cluster_layer7</title>
<path fill="none" stroke="#aaaaaa" stroke-dasharray="5,2" d="M3110,-493.2C3110,-493.2 3290,-493.2 3290,-493.2 3296,-493.2 3302,-499.2 3302,-505.2 3302,-505.2 3302,-565.92 3302,-565.92 3302,-571.92 3296,-577.92 3290,-577.92 3290,-577.92 3110,-577.92 3110,-577.92 3104,-577.92 3098,-571.92 3098,-565.92 3098,-565.92 3098,-505.2 3098,-505.2 3098,-499.2 3104,-493.2 3110,-493.2"/>
<text xml:space="preserve" text-anchor="middle" x="3200" y="-564.02" font-family="Segoe UI, Helvetica, Arial, sans-serif" font-size="11.00">Layer 7: Entry Point</text>
</g>
<g id="clust10" class="cluster">
<title>cluster_tests</title>
<path fill="none" stroke="#888888" stroke-dasharray="5,2" d="M508,-611.92C508,-611.92 1730,-611.92 1730,-611.92 1736,-611.92 1742,-617.92 1742,-623.92 1742,-623.92 1742,-696.64 1742,-696.64 1742,-702.64 1736,-708.64 1730,-708.64 1730,-708.64 508,-708.64 508,-708.64 502,-708.64 496,-702.64 496,-696.64 496,-696.64 496,-623.92 496,-623.92 496,-617.92 502,-611.92 508,-611.92"/>
<text xml:space="preserve" text-anchor="middle" x="1119" y="-694.74" font-family="Segoe UI, Helvetica, Arial, sans-serif" font-size="11.00">Test Projects &#160;(8 projects · 371 test files total)</text>
</g>
<g id="clust11" class="cluster">
<title>cluster_benchmarks</title>
<path fill="none" stroke="#888888" stroke-dasharray="5,2" d="M2411,-617.92C2411,-617.92 2547,-617.92 2547,-617.92 2553,-617.92 2559,-623.92 2559,-629.92 2559,-629.92 2559,-690.64 2559,-690.64 2559,-696.64 2553,-702.64 2547,-702.64 2547,-702.64 2411,-702.64 2411,-702.64 2405,-702.64 2399,-696.64 2399,-690.64 2399,-690.64 2399,-629.92 2399,-629.92 2399,-623.92 2405,-617.92 2411,-617.92"/>
<text xml:space="preserve" text-anchor="middle" x="2479" y="-688.74" font-family="Segoe UI, Helvetica, Arial, sans-serif" font-size="11.00">Benchmarks</text>
</g>
<g id="clust12" class="cluster">
<title>cluster_legend</title>
<path fill="#fafafa" stroke="#888888" d="M2592,-623.68C2592,-623.68 3404,-623.68 3404,-623.68 3410,-623.68 3416,-629.68 3416,-635.68 3416,-635.68 3416,-683.68 3416,-683.68 3416,-689.68 3410,-695.68 3404,-695.68 3404,-695.68 2592,-695.68 2592,-695.68 2586,-695.68 2580,-689.68 2580,-683.68 2580,-683.68 2580,-635.68 2580,-635.68 2580,-629.68 2586,-623.68 2592,-623.68"/>
<text xml:space="preserve" text-anchor="middle" x="2998" y="-682.68" font-family="Segoe UI, Helvetica, Arial, sans-serif" font-size="10.00">Legend</text>
</g>
<!-- Contracts -->
<g id="node1" class="node">
<title>Contracts</title>
<path fill="#e8f5e9" stroke="black" d="M2662.12,-60C2662.12,-60 2517.88,-60 2517.88,-60 2511.88,-60 2505.88,-54 2505.88,-48 2505.88,-48 2505.88,-36 2505.88,-36 2505.88,-30 2511.88,-24 2517.88,-24 2517.88,-24 2662.12,-24 2662.12,-24 2668.12,-24 2674.12,-30 2674.12,-36 2674.12,-36 2674.12,-48 2674.12,-48 2674.12,-54 2668.12,-60 2662.12,-60"/>
<text xml:space="preserve" text-anchor="middle" x="2590" y="-45" font-family="Segoe UI, Helvetica, Arial, sans-serif" font-size="10.00">Contracts</text>
<text xml:space="preserve" text-anchor="middle" x="2590" y="-33" font-family="Segoe UI, Helvetica, Arial, sans-serif" font-size="10.00">(API models, DTOs, domain events)</text>
</g>
<!-- FSharp -->
<g id="node2" class="node">
<title>FSharp</title>
<path fill="#c8e6c9" stroke="black" d="M2842.17,-60C2842.17,-60 2721.83,-60 2721.83,-60 2715.83,-60 2709.83,-54 2709.83,-48 2709.83,-48 2709.83,-36 2709.83,-36 2709.83,-30 2715.83,-24 2721.83,-24 2721.83,-24 2842.17,-24 2842.17,-24 2848.17,-24 2854.17,-30 2854.17,-36 2854.17,-36 2854.17,-48 2854.17,-48 2854.17,-54 2848.17,-60 2842.17,-60"/>
<text xml:space="preserve" text-anchor="middle" x="2782" y="-45" font-family="Segoe UI, Helvetica, Arial, sans-serif" font-size="10.00">FSharp</text>
<text xml:space="preserve" text-anchor="middle" x="2782" y="-33" font-family="Segoe UI, Helvetica, Arial, sans-serif" font-size="10.00">(validation, calculations, DUs)</text>
</g>
<!-- FSharpLedger -->
<g id="node3" class="node">
<title>FSharpLedger</title>
<path fill="#c8e6c9" stroke="black" d="M2794.28,-168.76C2794.28,-168.76 2701.72,-168.76 2701.72,-168.76 2695.72,-168.76 2689.72,-162.76 2689.72,-156.76 2689.72,-156.76 2689.72,-144.76 2689.72,-144.76 2689.72,-138.76 2695.72,-132.76 2701.72,-132.76 2701.72,-132.76 2794.28,-132.76 2794.28,-132.76 2800.28,-132.76 2806.28,-138.76 2806.28,-144.76 2806.28,-144.76 2806.28,-156.76 2806.28,-156.76 2806.28,-162.76 2800.28,-168.76 2794.28,-168.76"/>
<text xml:space="preserve" text-anchor="middle" x="2748" y="-153.76" font-family="Segoe UI, Helvetica, Arial, sans-serif" font-size="10.00">FSharp.Ledger</text>
<text xml:space="preserve" text-anchor="middle" x="2748" y="-141.76" font-family="Segoe UI, Helvetica, Arial, sans-serif" font-size="10.00">(journal, reconciliation)</text>
</g>
<!-- FSharpTrading -->
<g id="node4" class="node">
<title>FSharpTrading</title>
<path fill="#c8e6c9" stroke="black" d="M2963.75,-168.76C2963.75,-168.76 2854.25,-168.76 2854.25,-168.76 2848.25,-168.76 2842.25,-162.76 2842.25,-156.76 2842.25,-156.76 2842.25,-144.76 2842.25,-144.76 2842.25,-138.76 2848.25,-132.76 2854.25,-132.76 2854.25,-132.76 2963.75,-132.76 2963.75,-132.76 2969.75,-132.76 2975.75,-138.76 2975.75,-144.76 2975.75,-144.76 2975.75,-156.76 2975.75,-156.76 2975.75,-162.76 2969.75,-168.76 2963.75,-168.76"/>
<text xml:space="preserve" text-anchor="middle" x="2909" y="-153.76" font-family="Segoe UI, Helvetica, Arial, sans-serif" font-size="10.00">FSharp.Trading</text>
<text xml:space="preserve" text-anchor="middle" x="2909" y="-141.76" font-family="Segoe UI, Helvetica, Arial, sans-serif" font-size="10.00">(strategy lifecycle F# types)</text>
</g>
<!-- FSharpDL -->
<g id="node5" class="node">
<title>FSharpDL</title>
<path fill="#dcedc8" stroke="black" d="M3158.67,-168.76C3158.67,-168.76 3023.33,-168.76 3023.33,-168.76 3017.33,-168.76 3011.33,-162.76 3011.33,-156.76 3011.33,-156.76 3011.33,-144.76 3011.33,-144.76 3011.33,-138.76 3017.33,-132.76 3023.33,-132.76 3023.33,-132.76 3158.67,-132.76 3158.67,-132.76 3164.67,-132.76 3170.67,-138.76 3170.67,-144.76 3170.67,-144.76 3170.67,-156.76 3170.67,-156.76 3170.67,-162.76 3164.67,-168.76 3158.67,-168.76"/>
<text xml:space="preserve" text-anchor="middle" x="3091" y="-153.76" font-family="Segoe UI, Helvetica, Arial, sans-serif" font-size="10.00">FSharp.DirectLending.Aggregates</text>
<text xml:space="preserve" text-anchor="middle" x="3091" y="-141.76" font-family="Segoe UI, Helvetica, Arial, sans-serif" font-size="10.00">(contract &amp; servicing aggregates)</text>
</g>
<!-- FSharpDL&#45;&gt;Contracts -->
<g id="edge1" class="edge">
<title>FSharpDL&#45;&gt;Contracts</title>
<path fill="none" stroke="#666666" d="M3064.44,-132.26C3064.44,-108.7 3064.44,-71 3064.44,-71 3064.44,-71 2645.29,-71 2645.29,-71 2645.29,-71 2645.29,-68.72 2645.29,-68.72"/>
<polygon fill="#666666" stroke="#666666" points="2647.74,-68.71 2645.29,-61.72 2642.84,-68.72 2647.74,-68.71"/>
</g>
<!-- FSharpDL&#45;&gt;FSharp -->
<g id="edge2" class="edge">
<title>FSharpDL&#45;&gt;FSharp</title>
<path fill="none" stroke="#666666" d="M3117.56,-132.31C3117.56,-101.28 3117.56,-42 3117.56,-42 3117.56,-42 2862.91,-42 2862.91,-42"/>
<polygon fill="#666666" stroke="#666666" points="2862.91,-39.55 2855.91,-42 2862.91,-44.45 2862.91,-39.55"/>
</g>
<!-- ProviderSdk -->
<g id="node6" class="node">
<title>ProviderSdk</title>
<path fill="#e3f2fd" stroke="black" d="M1137.72,-174.52C1137.72,-174.52 1006.28,-174.52 1006.28,-174.52 1000.28,-174.52 994.28,-168.52 994.28,-162.52 994.28,-162.52 994.28,-139 994.28,-139 994.28,-133 1000.28,-127 1006.28,-127 1006.28,-127 1137.72,-127 1137.72,-127 1143.72,-127 1149.72,-133 1149.72,-139 1149.72,-139 1149.72,-162.52 1149.72,-162.52 1149.72,-168.52 1143.72,-174.52 1137.72,-174.52"/>
<text xml:space="preserve" text-anchor="middle" x="1072" y="-159.76" font-family="Segoe UI, Helvetica, Arial, sans-serif" font-size="10.00">ProviderSdk</text>
<text xml:space="preserve" text-anchor="middle" x="1072" y="-147.76" font-family="Segoe UI, Helvetica, Arial, sans-serif" font-size="10.00">(IDataSource, IMarketDataClient</text>
<text xml:space="preserve" text-anchor="middle" x="1072" y="-135.76" font-family="Segoe UI, Helvetica, Arial, sans-serif" font-size="10.00">[DataSource] attribute, registry)</text>
</g>
<!-- ProviderSdk&#45;&gt;Contracts -->
<g id="edge3" class="edge">
<title>ProviderSdk&#45;&gt;Contracts</title>
<path fill="none" stroke="#666666" d="M1046.09,-126.67C1046.09,-94.36 1046.09,-41 1046.09,-41 1046.09,-41 2497.11,-41 2497.11,-41"/>
<polygon fill="#666666" stroke="#666666" points="2497.11,-43.45 2504.11,-41 2497.11,-38.55 2497.11,-43.45"/>
</g>
<!-- ExecutionSdk -->
<g id="node7" class="node">
<title>ExecutionSdk</title>
<path fill="#e3f2fd" stroke="black" d="M946.32,-174.52C946.32,-174.52 797.68,-174.52 797.68,-174.52 791.68,-174.52 785.68,-168.52 785.68,-162.52 785.68,-162.52 785.68,-139 785.68,-139 785.68,-133 791.68,-127 797.68,-127 797.68,-127 946.32,-127 946.32,-127 952.32,-127 958.32,-133 958.32,-139 958.32,-139 958.32,-162.52 958.32,-162.52 958.32,-168.52 952.32,-174.52 946.32,-174.52"/>
<text xml:space="preserve" text-anchor="middle" x="872" y="-159.76" font-family="Segoe UI, Helvetica, Arial, sans-serif" font-size="10.00">Execution.Sdk</text>
<text xml:space="preserve" text-anchor="middle" x="872" y="-147.76" font-family="Segoe UI, Helvetica, Arial, sans-serif" font-size="10.00">(IOrderGateway, IBrokerageGateway</text>
<text xml:space="preserve" text-anchor="middle" x="872" y="-135.76" font-family="Segoe UI, Helvetica, Arial, sans-serif" font-size="10.00">IOrderManager, IPositionTracker)</text>
</g>
<!-- ExecutionSdk&#45;&gt;Contracts -->
<g id="edge4" class="edge">
<title>ExecutionSdk&#45;&gt;Contracts</title>
<path fill="none" stroke="#666666" d="M872,-126.7C872,-93.05 872,-36 872,-36 872,-36 2496.88,-36 2496.88,-36"/>
<polygon fill="#666666" stroke="#666666" points="2496.88,-38.45 2503.88,-36 2496.88,-33.55 2496.88,-38.45"/>
</g>
<!-- IbApiStub -->
<g id="node8" class="node">
<title>IbApiStub</title>
<path fill="#e3f2fd" stroke="black" stroke-dasharray="5,2" d="M1295.93,-168.76C1295.93,-168.76 1198.07,-168.76 1198.07,-168.76 1192.07,-168.76 1186.07,-162.76 1186.07,-156.76 1186.07,-156.76 1186.07,-144.76 1186.07,-144.76 1186.07,-138.76 1192.07,-132.76 1198.07,-132.76 1198.07,-132.76 1295.93,-132.76 1295.93,-132.76 1301.93,-132.76 1307.93,-138.76 1307.93,-144.76 1307.93,-144.76 1307.93,-156.76 1307.93,-156.76 1307.93,-162.76 1301.93,-168.76 1295.93,-168.76"/>
<text xml:space="preserve" text-anchor="middle" x="1247" y="-153.76" font-family="Segoe UI, Helvetica, Arial, sans-serif" font-size="10.00">IbApi.SmokeStub</text>
<text xml:space="preserve" text-anchor="middle" x="1247" y="-141.76" font-family="Segoe UI, Helvetica, Arial, sans-serif" font-size="10.00">(IB API smoke&#45;test stub)</text>
</g>
<!-- Domain -->
<g id="node9" class="node">
<title>Domain</title>
<path fill="#e1f5fe" stroke="black" d="M2420.12,-174.52C2420.12,-174.52 2315.88,-174.52 2315.88,-174.52 2309.88,-174.52 2303.88,-168.52 2303.88,-162.52 2303.88,-162.52 2303.88,-139 2303.88,-139 2303.88,-133 2309.88,-127 2315.88,-127 2315.88,-127 2420.12,-127 2420.12,-127 2426.12,-127 2432.12,-133 2432.12,-139 2432.12,-139 2432.12,-162.52 2432.12,-162.52 2432.12,-168.52 2426.12,-174.52 2420.12,-174.52"/>
<text xml:space="preserve" text-anchor="middle" x="2368" y="-159.76" font-family="Segoe UI, Helvetica, Arial, sans-serif" font-size="10.00">Domain</text>
<text xml:space="preserve" text-anchor="middle" x="2368" y="-147.76" font-family="Segoe UI, Helvetica, Arial, sans-serif" font-size="10.00">(collectors, events, models</text>
<text xml:space="preserve" text-anchor="middle" x="2368" y="-135.76" font-family="Segoe UI, Helvetica, Arial, sans-serif" font-size="10.00">MarketEvent hierarchy)</text>
</g>
<!-- Domain&#45;&gt;Contracts -->
<g id="edge5" class="edge">
<title>Domain&#45;&gt;Contracts</title>
<path fill="none" stroke="#666666" d="M2432.6,-142C2472.94,-142 2517.27,-142 2517.27,-142 2517.27,-142 2517.27,-68.86 2517.27,-68.86"/>
<polygon fill="#666666" stroke="#666666" points="2519.72,-68.86 2517.27,-61.86 2514.82,-68.86 2519.72,-68.86"/>
</g>
<!-- Domain&#45;&gt;ProviderSdk -->
<g id="edge6" class="edge">
<title>Domain&#45;&gt;ProviderSdk</title>
<path fill="none" stroke="#666666" d="M2368,-126.62C2368,-120.69 2368,-116 2368,-116 2368,-116 1097.91,-116 1097.91,-116 1097.91,-116 1097.91,-118.1 1097.91,-118.1"/>
<polygon fill="#666666" stroke="#666666" points="1095.46,-118.1 1097.91,-125.1 1100.36,-118.1 1095.46,-118.1"/>
</g>
<!-- Core -->
<g id="node10" class="node">
<title>Core</title>
<path fill="#e1f5fe" stroke="black" d="M2431.95,-315.48C2431.95,-315.48 2316.05,-315.48 2316.05,-315.48 2310.05,-315.48 2304.05,-309.48 2304.05,-303.48 2304.05,-303.48 2304.05,-279.96 2304.05,-279.96 2304.05,-273.96 2310.05,-267.96 2316.05,-267.96 2316.05,-267.96 2431.95,-267.96 2431.95,-267.96 2437.95,-267.96 2443.95,-273.96 2443.95,-279.96 2443.95,-279.96 2443.95,-303.48 2443.95,-303.48 2443.95,-309.48 2437.95,-315.48 2431.95,-315.48"/>
<text xml:space="preserve" text-anchor="middle" x="2374" y="-300.72" font-family="Segoe UI, Helvetica, Arial, sans-serif" font-size="10.00">Core</text>
<text xml:space="preserve" text-anchor="middle" x="2374" y="-288.72" font-family="Segoe UI, Helvetica, Arial, sans-serif" font-size="10.00">(config, logging, serialization</text>
<text xml:space="preserve" text-anchor="middle" x="2374" y="-276.72" font-family="Segoe UI, Helvetica, Arial, sans-serif" font-size="10.00">schedules, performance)</text>
</g>
<!-- Core&#45;&gt;Contracts -->
<g id="edge7" class="edge">
<title>Core&#45;&gt;Contracts</title>
<path fill="none" stroke="#666666" d="M2438.03,-267.59C2438.03,-207.87 2438.03,-58 2438.03,-58 2438.03,-58 2497.06,-58 2497.06,-58"/>
<polygon fill="#666666" stroke="#666666" points="2497.06,-60.45 2504.06,-58 2497.06,-55.55 2497.06,-60.45"/>
</g>
<!-- Core&#45;&gt;ProviderSdk -->
<g id="edge9" class="edge">
<title>Core&#45;&gt;ProviderSdk</title>
<path fill="none" stroke="#666666" d="M2303.89,-274C2040.9,-274 1128.03,-274 1128.03,-274 1128.03,-274 1128.03,-183.33 1128.03,-183.33"/>
<polygon fill="#666666" stroke="#666666" points="1130.48,-183.33 1128.03,-176.33 1125.58,-183.33 1130.48,-183.33"/>
</g>
<!-- Core&#45;&gt;Domain -->
<g id="edge8" class="edge">
<title>Core&#45;&gt;Domain</title>
<path fill="none" stroke="#666666" d="M2406.5,-267.49C2406.5,-267.49 2406.5,-183.19 2406.5,-183.19"/>
<polygon fill="#666666" stroke="#666666" points="2408.95,-183.19 2406.5,-176.19 2404.05,-183.19 2408.95,-183.19"/>
</g>
<!-- Ledger -->
<g id="node11" class="node">
<title>Ledger</title>
<path fill="#e1f5fe" stroke="black" d="M2431.84,-430C2431.84,-430 2318.16,-430 2318.16,-430 2312.16,-430 2306.16,-424 2306.16,-418 2306.16,-418 2306.16,-394.48 2306.16,-394.48 2306.16,-388.48 2312.16,-382.48 2318.16,-382.48 2318.16,-382.48 2431.84,-382.48 2431.84,-382.48 2437.84,-382.48 2443.84,-388.48 2443.84,-394.48 2443.84,-394.48 2443.84,-418 2443.84,-418 2443.84,-424 2437.84,-430 2431.84,-430"/>
<text xml:space="preserve" text-anchor="middle" x="2375" y="-415.24" font-family="Segoe UI, Helvetica, Arial, sans-serif" font-size="10.00">Ledger</text>
<text xml:space="preserve" text-anchor="middle" x="2375" y="-403.24" font-family="Segoe UI, Helvetica, Arial, sans-serif" font-size="10.00">(double&#45;entry journal</text>
<text xml:space="preserve" text-anchor="middle" x="2375" y="-391.24" font-family="Segoe UI, Helvetica, Arial, sans-serif" font-size="10.00">fund &amp; project ledger books)</text>
</g>
<!-- Ledger&#45;&gt;FSharpLedger -->
<g id="edge11" class="edge">
<title>Ledger&#45;&gt;FSharpLedger</title>
<path fill="none" stroke="#666666" d="M2444.2,-406C2546.28,-406 2725.27,-406 2725.27,-406 2725.27,-406 2725.27,-177.63 2725.27,-177.63"/>
<polygon fill="#666666" stroke="#666666" points="2727.72,-177.63 2725.27,-170.63 2722.82,-177.63 2727.72,-177.63"/>
</g>
<!-- Ledger&#45;&gt;Core -->
<g id="edge10" class="edge">
<title>Ledger&#45;&gt;Core</title>
<path fill="none" stroke="#666666" d="M2397.95,-382.23C2397.95,-382.23 2397.95,-324.21 2397.95,-324.21"/>
<polygon fill="#666666" stroke="#666666" points="2400.4,-324.21 2397.95,-317.21 2395.5,-324.21 2400.4,-324.21"/>
</g>
<!-- Infrastructure -->
<g id="node12" class="node">
<title>Infrastructure</title>
<path fill="#fff3e0" stroke="black" d="M950.42,-315.48C950.42,-315.48 827.58,-315.48 827.58,-315.48 821.58,-315.48 815.58,-309.48 815.58,-303.48 815.58,-303.48 815.58,-279.96 815.58,-279.96 815.58,-273.96 821.58,-267.96 827.58,-267.96 827.58,-267.96 950.42,-267.96 950.42,-267.96 956.42,-267.96 962.42,-273.96 962.42,-279.96 962.42,-279.96 962.42,-303.48 962.42,-303.48 962.42,-309.48 956.42,-315.48 950.42,-315.48"/>
<text xml:space="preserve" text-anchor="middle" x="889" y="-300.72" font-family="Segoe UI, Helvetica, Arial, sans-serif" font-size="10.00">Infrastructure</text>
<text xml:space="preserve" text-anchor="middle" x="889" y="-288.72" font-family="Segoe UI, Helvetica, Arial, sans-serif" font-size="10.00">(streaming providers, historical</text>
<text xml:space="preserve" text-anchor="middle" x="889" y="-276.72" font-family="Segoe UI, Helvetica, Arial, sans-serif" font-size="10.00">providers, resilience, HTTP)</text>
</g>
<!-- Infrastructure&#45;&gt;Contracts -->
<g id="edge14" class="edge">
<title>Infrastructure&#45;&gt;Contracts</title>
<path fill="none" stroke="#666666" d="M962.83,-277C1043.63,-277 1161.83,-277 1161.83,-277 1161.83,-277 1161.83,-43 1161.83,-43 1161.83,-43 2496.95,-43 2496.95,-43"/>
<polygon fill="#666666" stroke="#666666" points="2496.95,-45.45 2503.95,-43 2496.95,-40.55 2496.95,-45.45"/>
</g>
<!-- Infrastructure&#45;&gt;ProviderSdk -->
<g id="edge15" class="edge">
<title>Infrastructure&#45;&gt;ProviderSdk</title>
<path fill="none" stroke="#666666" d="M962.68,-271C992.3,-271 1019.57,-271 1019.57,-271 1019.57,-271 1019.57,-183.32 1019.57,-183.32"/>
<polygon fill="#666666" stroke="#666666" points="1022.02,-183.32 1019.57,-176.32 1017.12,-183.32 1022.02,-183.32"/>
</g>
<!-- Infrastructure&#45;&gt;Domain -->
<g id="edge13" class="edge">
<title>Infrastructure&#45;&gt;Domain</title>
<path fill="none" stroke="#666666" d="M962.73,-281C1091.36,-281 1343.21,-281 1343.21,-281 1343.21,-281 1343.21,-142 1343.21,-142 1343.21,-142 2294.99,-142 2294.99,-142"/>
<polygon fill="#666666" stroke="#666666" points="2294.99,-144.45 2301.99,-142 2294.99,-139.55 2294.99,-144.45"/>
</g>
<!-- Infrastructure&#45;&gt;Core -->
<g id="edge12" class="edge">
<title>Infrastructure&#45;&gt;Core</title>
<path fill="none" stroke="#666666" d="M962.9,-284C962.9,-284 2295.35,-284 2295.35,-284"/>
<polygon fill="#666666" stroke="#666666" points="2295.35,-286.45 2302.35,-284 2295.35,-281.55 2295.35,-286.45"/>
</g>
<!-- Storage -->
<g id="node13" class="node">
<title>Storage</title>
<path fill="#fff3e0" stroke="black" d="M1184.12,-430C1184.12,-430 1009.88,-430 1009.88,-430 1003.88,-430 997.88,-424 997.88,-418 997.88,-418 997.88,-394.48 997.88,-394.48 997.88,-388.48 1003.88,-382.48 1009.88,-382.48 1009.88,-382.48 1184.12,-382.48 1184.12,-382.48 1190.12,-382.48 1196.12,-388.48 1196.12,-394.48 1196.12,-394.48 1196.12,-418 1196.12,-418 1196.12,-424 1190.12,-430 1184.12,-430"/>
<text xml:space="preserve" text-anchor="middle" x="1097" y="-415.24" font-family="Segoe UI, Helvetica, Arial, sans-serif" font-size="10.00">Storage</text>
<text xml:space="preserve" text-anchor="middle" x="1097" y="-403.24" font-family="Segoe UI, Helvetica, Arial, sans-serif" font-size="10.00">(WAL, JSONL/Parquet sinks, tiered storage</text>
<text xml:space="preserve" text-anchor="middle" x="1097" y="-391.24" font-family="Segoe UI, Helvetica, Arial, sans-serif" font-size="10.00">export, security master, packaging)</text>
</g>
<!-- Storage&#45;&gt;Contracts -->
<g id="edge18" class="edge">
<title>Storage&#45;&gt;Contracts</title>
<path fill="none" stroke="#666666" d="M1173.95,-382.04C1173.95,-301.27 1173.95,-46 1173.95,-46 1173.95,-46 2496.88,-46 2496.88,-46"/>
<polygon fill="#666666" stroke="#666666" points="2496.88,-48.45 2503.88,-46 2496.88,-43.55 2496.88,-48.45"/>
</g>
<!-- Storage&#45;&gt;ProviderSdk -->
<g id="edge19" class="edge">
<title>Storage&#45;&gt;ProviderSdk</title>
<path fill="none" stroke="#666666" d="M1062.96,-382.21C1062.96,-382.21 1062.96,-183.43 1062.96,-183.43"/>
<polygon fill="#666666" stroke="#666666" points="1065.41,-183.43 1062.96,-176.43 1060.51,-183.43 1065.41,-183.43"/>
</g>
<!-- Storage&#45;&gt;Domain -->
<g id="edge17" class="edge">
<title>Storage&#45;&gt;Domain</title>
<path fill="none" stroke="#666666" d="M1196.28,-406C1275.05,-406 1372,-406 1372,-406 1372,-406 1372,-151 1372,-151 1372,-151 2294.9,-151 2294.9,-151"/>
<polygon fill="#666666" stroke="#666666" points="2294.9,-153.45 2301.9,-151 2294.9,-148.55 2294.9,-153.45"/>
</g>
<!-- Storage&#45;&gt;Core -->
<g id="edge16" class="edge">
<title>Storage&#45;&gt;Core</title>
<path fill="none" stroke="#666666" d="M1191.09,-382.03C1191.09,-351.52 1191.09,-303 1191.09,-303 1191.09,-303 2295.47,-303 2295.47,-303"/>
<polygon fill="#666666" stroke="#666666" points="2295.47,-305.45 2302.47,-303 2295.47,-300.55 2295.47,-305.45"/>
</g>
<!-- CppTrader -->
<g id="node14" class="node">
<title>CppTrader</title>
<path fill="#fff3e0" stroke="black" stroke-dasharray="5,2" d="M950.14,-430C950.14,-430 827.86,-430 827.86,-430 821.86,-430 815.86,-424 815.86,-418 815.86,-418 815.86,-394.48 815.86,-394.48 815.86,-388.48 821.86,-382.48 827.86,-382.48 827.86,-382.48 950.14,-382.48 950.14,-382.48 956.14,-382.48 962.14,-388.48 962.14,-394.48 962.14,-394.48 962.14,-418 962.14,-418 962.14,-424 956.14,-430 950.14,-430"/>
<text xml:space="preserve" text-anchor="middle" x="889" y="-415.24" font-family="Segoe UI, Helvetica, Arial, sans-serif" font-size="10.00">Infrastructure.CppTrader</text>
<text xml:space="preserve" text-anchor="middle" x="889" y="-403.24" font-family="Segoe UI, Helvetica, Arial, sans-serif" font-size="10.00">(native matching engine bridge</text>
<text xml:space="preserve" text-anchor="middle" x="889" y="-391.24" font-family="Segoe UI, Helvetica, Arial, sans-serif" font-size="10.00">ITCH ingestion, replay)</text>
</g>
<!-- CppTrader&#45;&gt;Contracts -->
<g id="edge26" class="edge">
<title>CppTrader&#45;&gt;Contracts</title>
<path fill="none" stroke="#666666" d="M962.54,-390C969.26,-390 973.61,-390 973.61,-390 973.61,-390 973.61,-38 973.61,-38 973.61,-38 2497.14,-38 2497.14,-38"/>
<polygon fill="#666666" stroke="#666666" points="2497.14,-40.45 2504.14,-38 2497.14,-35.55 2497.14,-40.45"/>
</g>
<!-- CppTrader&#45;&gt;ProviderSdk -->
<g id="edge23" class="edge">
<title>CppTrader&#45;&gt;ProviderSdk</title>
<path fill="none" stroke="#666666" d="M962.42,-398C973.06,-398 980.5,-398 980.5,-398 980.5,-398 980.5,-143 980.5,-143 980.5,-143 985.49,-143 985.49,-143"/>
<polygon fill="#666666" stroke="#666666" points="985.49,-145.45 992.49,-143 985.49,-140.55 985.49,-145.45"/>
</g>
<!-- CppTrader&#45;&gt;ExecutionSdk -->
<g id="edge21" class="edge">
<title>CppTrader&#45;&gt;ExecutionSdk</title>
<path fill="none" stroke="#666666" d="M815.62,-394C814,-394 813.09,-394 813.09,-394 813.09,-394 813.09,-183.49 813.09,-183.49"/>
<polygon fill="#666666" stroke="#666666" points="815.54,-183.49 813.09,-176.49 810.64,-183.49 815.54,-183.49"/>
</g>
<!-- CppTrader&#45;&gt;Domain -->
<g id="edge25" class="edge">
<title>CppTrader&#45;&gt;Domain</title>
<path fill="none" stroke="#666666" d="M962.45,-406C974.01,-406 982.22,-406 982.22,-406 982.22,-406 982.22,-221 982.22,-221 982.22,-221 2355.28,-221 2355.28,-221 2355.28,-221 2355.28,-183.45 2355.28,-183.45"/>
<polygon fill="#666666" stroke="#666666" points="2357.73,-183.45 2355.28,-176.45 2352.83,-183.45 2357.73,-183.45"/>
</g>
<!-- CppTrader&#45;&gt;Core -->
<g id="edge24" class="edge">
<title>CppTrader&#45;&gt;Core</title>
<path fill="none" stroke="#666666" d="M962.4,-414C974.9,-414 983.94,-414 983.94,-414 983.94,-414 983.94,-296 983.94,-296 983.94,-296 2295.12,-296 2295.12,-296"/>
<polygon fill="#666666" stroke="#666666" points="2295.12,-298.45 2302.12,-296 2295.12,-293.55 2295.12,-298.45"/>
</g>
<!-- CppTrader&#45;&gt;Infrastructure -->
<g id="edge22" class="edge">
<title>CppTrader&#45;&gt;Infrastructure</title>
<path fill="none" stroke="#666666" d="M889,-382.23C889,-382.23 889,-324.21 889,-324.21"/>
<polygon fill="#666666" stroke="#666666" points="891.45,-324.21 889,-317.21 886.55,-324.21 891.45,-324.21"/>
</g>
<!-- Execution -->
<g id="node17" class="node">
<title>Execution</title>
<path fill="#f3e5f5" stroke="black" d="M546.27,-430C546.27,-430 413.73,-430 413.73,-430 407.73,-430 401.73,-424 401.73,-418 401.73,-418 401.73,-394.48 401.73,-394.48 401.73,-388.48 407.73,-382.48 413.73,-382.48 413.73,-382.48 546.27,-382.48 546.27,-382.48 552.27,-382.48 558.27,-388.48 558.27,-394.48 558.27,-394.48 558.27,-418 558.27,-418 558.27,-424 552.27,-430 546.27,-430"/>
<text xml:space="preserve" text-anchor="middle" x="480" y="-415.24" font-family="Segoe UI, Helvetica, Arial, sans-serif" font-size="10.00">Execution</text>
<text xml:space="preserve" text-anchor="middle" x="480" y="-403.24" font-family="Segoe UI, Helvetica, Arial, sans-serif" font-size="10.00">(PaperTradingGateway, OMS</text>
<text xml:space="preserve" text-anchor="middle" x="480" y="-391.24" font-family="Segoe UI, Helvetica, Arial, sans-serif" font-size="10.00">brokerage adapters, risk gateway)</text>
</g>
<!-- CppTrader&#45;&gt;Execution -->
<g id="edge20" class="edge">
<title>CppTrader&#45;&gt;Execution</title>
<path fill="none" stroke="#666666" d="M815.41,-418C815.41,-418 567.09,-418 567.09,-418"/>
<polygon fill="#666666" stroke="#666666" points="567.09,-415.55 560.09,-418 567.09,-420.45 567.09,-415.55"/>
</g>
<!-- Application -->
<g id="node15" class="node">
<title>Application</title>
<path fill="#fce4ec" stroke="black" d="M1887.87,-430C1887.87,-430 1746.13,-430 1746.13,-430 1740.13,-430 1734.13,-424 1734.13,-418 1734.13,-418 1734.13,-394.48 1734.13,-394.48 1734.13,-388.48 1740.13,-382.48 1746.13,-382.48 1746.13,-382.48 1887.87,-382.48 1887.87,-382.48 1893.87,-382.48 1899.87,-388.48 1899.87,-394.48 1899.87,-394.48 1899.87,-418 1899.87,-418 1899.87,-424 1893.87,-430 1887.87,-430"/>
<text xml:space="preserve" text-anchor="middle" x="1817" y="-415.24" font-family="Segoe UI, Helvetica, Arial, sans-serif" font-size="10.00">Application</text>
<text xml:space="preserve" text-anchor="middle" x="1817" y="-403.24" font-family="Segoe UI, Helvetica, Arial, sans-serif" font-size="10.00">(pipeline, backfill, canonicalization</text>
<text xml:space="preserve" text-anchor="middle" x="1817" y="-391.24" font-family="Segoe UI, Helvetica, Arial, sans-serif" font-size="10.00">monitoring, security master, config)</text>
</g>
<!-- Application&#45;&gt;Contracts -->
<g id="edge31" class="edge">
<title>Application&#45;&gt;Contracts</title>
<path fill="none" stroke="#666666" d="M1817,-382.03C1817,-301.85 1817,-50 1817,-50 1817,-50 2496.92,-50 2496.92,-50"/>
<polygon fill="#666666" stroke="#666666" points="2496.92,-52.45 2503.92,-50 2496.92,-47.55 2496.92,-52.45"/>
</g>
<!-- Application&#45;&gt;ProviderSdk -->
<g id="edge32" class="edge">
<title>Application&#45;&gt;ProviderSdk</title>
<path fill="none" stroke="#666666" d="M1761.76,-382.32C1761.76,-364.06 1761.76,-342 1761.76,-342 1761.76,-342 1084.65,-342 1084.65,-342 1084.65,-342 1084.65,-183.49 1084.65,-183.49"/>
<polygon fill="#666666" stroke="#666666" points="1087.1,-183.49 1084.65,-176.49 1082.2,-183.49 1087.1,-183.49"/>
</g>
<!-- Application&#45;&gt;Domain -->
<g id="edge30" class="edge">
<title>Application&#45;&gt;Domain</title>
<path fill="none" stroke="#666666" d="M1844.62,-382.18C1844.62,-320.22 1844.62,-160 1844.62,-160 1844.62,-160 2295.05,-160 2295.05,-160"/>
<polygon fill="#666666" stroke="#666666" points="2295.05,-162.45 2302.05,-160 2295.05,-157.55 2295.05,-162.45"/>
</g>
<!-- Application&#45;&gt;Core -->
<g id="edge29" class="edge">
<title>Application&#45;&gt;Core</title>
<path fill="none" stroke="#666666" d="M1872.24,-382.2C1872.24,-353.41 1872.24,-309 1872.24,-309 1872.24,-309 2295.19,-309 2295.19,-309"/>
<polygon fill="#666666" stroke="#666666" points="2295.19,-311.45 2302.19,-309 2295.19,-306.55 2295.19,-311.45"/>
</g>
<!-- Application&#45;&gt;Infrastructure -->
<g id="edge27" class="edge">
<title>Application&#45;&gt;Infrastructure</title>
<path fill="none" stroke="#666666" d="M1789.38,-382.15C1789.38,-348.11 1789.38,-290 1789.38,-290 1789.38,-290 971.2,-290 971.2,-290"/>
<polygon fill="#666666" stroke="#666666" points="971.2,-287.55 964.2,-290 971.2,-292.45 971.2,-287.55"/>
</g>
<!-- Application&#45;&gt;Storage -->
<g id="edge28" class="edge">
<title>Application&#45;&gt;Storage</title>
<path fill="none" stroke="#666666" d="M1769.89,-430.26C1769.89,-433.65 1769.89,-436 1769.89,-436 1769.89,-436 1187.71,-436 1187.71,-436 1187.71,-436 1187.71,-435.43 1187.71,-435.43"/>
<polygon fill="#666666" stroke="#666666" points="1190.16,-438.78 1187.71,-431.78 1185.26,-438.78 1190.16,-438.78"/>
</g>
<!-- BacktestSdk -->
<g id="node16" class="node">
<title>BacktestSdk</title>
<path fill="#fce4ec" stroke="black" d="M1686.22,-430C1686.22,-430 1539.78,-430 1539.78,-430 1533.78,-430 1527.78,-424 1527.78,-418 1527.78,-418 1527.78,-394.48 1527.78,-394.48 1527.78,-388.48 1533.78,-382.48 1539.78,-382.48 1539.78,-382.48 1686.22,-382.48 1686.22,-382.48 1692.22,-382.48 1698.22,-388.48 1698.22,-394.48 1698.22,-394.48 1698.22,-418 1698.22,-418 1698.22,-424 1692.22,-430 1686.22,-430"/>
<text xml:space="preserve" text-anchor="middle" x="1613" y="-415.24" font-family="Segoe UI, Helvetica, Arial, sans-serif" font-size="10.00">Backtesting.Sdk</text>
<text xml:space="preserve" text-anchor="middle" x="1613" y="-403.24" font-family="Segoe UI, Helvetica, Arial, sans-serif" font-size="10.00">(IBacktestStrategy, IBacktestContext</text>
<text xml:space="preserve" text-anchor="middle" x="1613" y="-391.24" font-family="Segoe UI, Helvetica, Arial, sans-serif" font-size="10.00">Order, Fill, PortfolioSnapshot)</text>
</g>
<!-- BacktestSdk&#45;&gt;Contracts -->
<g id="edge33" class="edge">
<title>BacktestSdk&#45;&gt;Contracts</title>
<path fill="none" stroke="#666666" d="M1613,-382.18C1613,-301.86 1613,-48 1613,-48 1613,-48 2496.92,-48 2496.92,-48"/>
<polygon fill="#666666" stroke="#666666" points="2496.92,-50.45 2503.92,-48 2496.92,-45.55 2496.92,-50.45"/>
</g>
<!-- BacktestSdk&#45;&gt;Ledger -->
<g id="edge34" class="edge">
<title>BacktestSdk&#45;&gt;Ledger</title>
<path fill="none" stroke="#666666" d="M1671.2,-430.42C1671.2,-435.83 1671.2,-440 1671.2,-440 1671.2,-440 2331.26,-440 2331.26,-440 2331.26,-440 2331.26,-438.93 2331.26,-438.93"/>
<polygon fill="#666666" stroke="#666666" points="2333.71,-438.93 2331.26,-431.93 2328.81,-438.93 2333.71,-438.93"/>
</g>
<!-- Execution&#45;&gt;Contracts -->
<g id="edge39" class="edge">
<title>Execution&#45;&gt;Contracts</title>
<path fill="none" stroke="#666666" d="M453.91,-382.2C453.91,-299.38 453.91,-31 453.91,-31 453.91,-31 2497.09,-31 2497.09,-31"/>
<polygon fill="#666666" stroke="#666666" points="2497.09,-33.45 2504.09,-31 2497.09,-28.55 2497.09,-33.45"/>
</g>
<!-- Execution&#45;&gt;ExecutionSdk -->
<g id="edge35" class="edge">
<title>Execution&#45;&gt;ExecutionSdk</title>
<path fill="none" stroke="#666666" d="M558.41,-406C650.93,-406 792.33,-406 792.33,-406 792.33,-406 792.33,-183.29 792.33,-183.29"/>
<polygon fill="#666666" stroke="#666666" points="794.78,-183.29 792.33,-176.29 789.88,-183.29 794.78,-183.29"/>
</g>
<!-- Execution&#45;&gt;Core -->
<g id="edge38" class="edge">
<title>Execution&#45;&gt;Core</title>
<path fill="none" stroke="#666666" d="M506.09,-382.02C506.09,-374.91 506.09,-369 506.09,-369 506.09,-369 2352.05,-369 2352.05,-369 2352.05,-369 2352.05,-324.26 2352.05,-324.26"/>
<polygon fill="#666666" stroke="#666666" points="2354.5,-324.26 2352.05,-317.26 2349.6,-324.26 2354.5,-324.26"/>
</g>
<!-- Execution&#45;&gt;Ledger -->
<g id="edge36" class="edge">
<title>Execution&#45;&gt;Ledger</title>
<path fill="none" stroke="#666666" d="M460.67,-430.25C460.67,-442.97 460.67,-456 460.67,-456 460.67,-456 2356.36,-456 2356.36,-456 2356.36,-456 2356.36,-438.76 2356.36,-438.76"/>
<polygon fill="#666666" stroke="#666666" points="2358.81,-438.76 2356.36,-431.76 2353.91,-438.76 2358.81,-438.76"/>
</g>
<!-- Execution&#45;&gt;Application -->
<g id="edge37" class="edge">
<title>Execution&#45;&gt;Application</title>
<path fill="none" stroke="#666666" d="M485.07,-430.44C485.07,-441.85 485.07,-453 485.07,-453 485.07,-453 1746.05,-453 1746.05,-453 1746.05,-453 1746.05,-438.96 1746.05,-438.96"/>
<polygon fill="#666666" stroke="#666666" points="1748.5,-438.96 1746.05,-431.96 1743.6,-438.96 1748.5,-438.96"/>
</g>
<!-- Backtesting -->
<g id="node18" class="node">
<title>Backtesting</title>
<path fill="#f3e5f5" stroke="black" d="M353.87,-430C353.87,-430 242.13,-430 242.13,-430 236.13,-430 230.13,-424 230.13,-418 230.13,-418 230.13,-394.48 230.13,-394.48 230.13,-388.48 236.13,-382.48 242.13,-382.48 242.13,-382.48 353.87,-382.48 353.87,-382.48 359.87,-382.48 365.87,-388.48 365.87,-394.48 365.87,-394.48 365.87,-418 365.87,-418 365.87,-424 359.87,-430 353.87,-430"/>
<text xml:space="preserve" text-anchor="middle" x="298" y="-415.24" font-family="Segoe UI, Helvetica, Arial, sans-serif" font-size="10.00">Backtesting</text>
<text xml:space="preserve" text-anchor="middle" x="298" y="-403.24" font-family="Segoe UI, Helvetica, Arial, sans-serif" font-size="10.00">(BacktestEngine, fill models</text>
<text xml:space="preserve" text-anchor="middle" x="298" y="-391.24" font-family="Segoe UI, Helvetica, Arial, sans-serif" font-size="10.00">metrics engine, XIRR)</text>
</g>
<!-- Backtesting&#45;&gt;Storage -->
<g id="edge41" class="edge">
<title>Backtesting&#45;&gt;Storage</title>
<path fill="none" stroke="#666666" d="M260.29,-430.2C260.29,-446.83 260.29,-466 260.29,-466 260.29,-466 1010.35,-466 1010.35,-466 1010.35,-466 1010.35,-438.72 1010.35,-438.72"/>
<polygon fill="#666666" stroke="#666666" points="1012.81,-438.72 1010.35,-431.72 1007.91,-438.72 1012.81,-438.72"/>
</g>
<!-- Backtesting&#45;&gt;Application -->
<g id="edge42" class="edge">
<title>Backtesting&#45;&gt;Application</title>
<path fill="none" stroke="#666666" d="M320.62,-430.29C320.62,-450.12 320.62,-475 320.62,-475 320.62,-475 1752.01,-475 1752.01,-475 1752.01,-475 1752.01,-438.8 1752.01,-438.8"/>
<polygon fill="#666666" stroke="#666666" points="1754.46,-438.8 1752.01,-431.8 1749.56,-438.8 1754.46,-438.8"/>
</g>
<!-- Backtesting&#45;&gt;BacktestSdk -->
<g id="edge40" class="edge">
<title>Backtesting&#45;&gt;BacktestSdk</title>
<path fill="none" stroke="#666666" d="M290.46,-430.33C290.46,-448.02 290.46,-469 290.46,-469 290.46,-469 1539.29,-469 1539.29,-469 1539.29,-469 1539.29,-438.84 1539.29,-438.84"/>
<polygon fill="#666666" stroke="#666666" points="1541.74,-438.84 1539.29,-431.84 1536.84,-438.84 1541.74,-438.84"/>
</g>
<!-- Risk -->
<g id="node19" class="node">
<title>Risk</title>
<path fill="#f3e5f5" stroke="black" d="M167.77,-548.72C167.77,-548.72 28.23,-548.72 28.23,-548.72 22.23,-548.72 16.23,-542.72 16.23,-536.72 16.23,-536.72 16.23,-513.2 16.23,-513.2 16.23,-507.2 22.23,-501.2 28.23,-501.2 28.23,-501.2 167.77,-501.2 167.77,-501.2 173.77,-501.2 179.77,-507.2 179.77,-513.2 179.77,-513.2 179.77,-536.72 179.77,-536.72 179.77,-542.72 173.77,-548.72 167.77,-548.72"/>
<text xml:space="preserve" text-anchor="middle" x="98" y="-533.96" font-family="Segoe UI, Helvetica, Arial, sans-serif" font-size="10.00">Risk</text>
<text xml:space="preserve" text-anchor="middle" x="98" y="-521.96" font-family="Segoe UI, Helvetica, Arial, sans-serif" font-size="10.00">(CompositeRiskValidator</text>
<text xml:space="preserve" text-anchor="middle" x="98" y="-509.96" font-family="Segoe UI, Helvetica, Arial, sans-serif" font-size="10.00">position limits, drawdown, throttle)</text>
</g>
<!-- Risk&#45;&gt;Contracts -->
<g id="edge45" class="edge">
<title>Risk&#45;&gt;Contracts</title>
<path fill="none" stroke="#666666" d="M48.94,-500.89C48.94,-401.22 48.94,-26 48.94,-26 48.94,-26 2496.94,-26 2496.94,-26"/>
<polygon fill="#666666" stroke="#666666" points="2496.94,-28.45 2503.94,-26 2496.94,-23.55 2496.94,-28.45"/>
</g>
<!-- Risk&#45;&gt;FSharp -->
<g id="edge46" class="edge">
<title>Risk&#45;&gt;FSharp</title>
<path fill="none" stroke="#666666" d="M81.65,-500.83C81.65,-408.39 81.65,-82 81.65,-82 81.65,-82 2733.94,-82 2733.94,-82 2733.94,-82 2733.94,-68.64 2733.94,-68.64"/>
<polygon fill="#666666" stroke="#666666" points="2736.39,-68.64 2733.94,-61.64 2731.49,-68.64 2736.39,-68.64"/>
</g>
<!-- Risk&#45;&gt;ExecutionSdk -->
<g id="edge43" class="edge">
<title>Risk&#45;&gt;ExecutionSdk</title>
<path fill="none" stroke="#666666" d="M114.35,-500.71C114.35,-417.84 114.35,-151 114.35,-151 114.35,-151 776.94,-151 776.94,-151"/>
<polygon fill="#666666" stroke="#666666" points="776.94,-153.45 783.94,-151 776.94,-148.55 776.94,-153.45"/>
</g>
<!-- Risk&#45;&gt;Execution -->
<g id="edge44" class="edge">
<title>Risk&#45;&gt;Execution</title>
<path fill="none" stroke="#666666" d="M147.06,-500.8C147.06,-473.55 147.06,-433 147.06,-433 147.06,-433 406.8,-433 406.8,-433 406.8,-433 406.8,-432.71 406.8,-432.71"/>
<polygon fill="#666666" stroke="#666666" points="409.25,-438.65 406.8,-431.65 404.35,-438.65 409.25,-438.65"/>
</g>
<!-- Strategies -->
<g id="node20" class="node">
<title>Strategies</title>
<path fill="#f3e5f5" stroke="black" d="M586.14,-548.72C586.14,-548.72 423.86,-548.72 423.86,-548.72 417.86,-548.72 411.86,-542.72 411.86,-536.72 411.86,-536.72 411.86,-513.2 411.86,-513.2 411.86,-507.2 417.86,-501.2 423.86,-501.2 423.86,-501.2 586.14,-501.2 586.14,-501.2 592.14,-501.2 598.14,-507.2 598.14,-513.2 598.14,-513.2 598.14,-536.72 598.14,-536.72 598.14,-542.72 592.14,-548.72 586.14,-548.72"/>
<text xml:space="preserve" text-anchor="middle" x="505" y="-533.96" font-family="Segoe UI, Helvetica, Arial, sans-serif" font-size="10.00">Strategies</text>
<text xml:space="preserve" text-anchor="middle" x="505" y="-521.96" font-family="Segoe UI, Helvetica, Arial, sans-serif" font-size="10.00">(StrategyLifecycleManager</text>
<text xml:space="preserve" text-anchor="middle" x="505" y="-509.96" font-family="Segoe UI, Helvetica, Arial, sans-serif" font-size="10.00">promotion, portfolio read, reconciliation)</text>
</g>
<!-- Strategies&#45;&gt;Contracts -->
<g id="edge48" class="edge">
<title>Strategies&#45;&gt;Contracts</title>
<path fill="none" stroke="#666666" d="M563.96,-500.95C563.96,-402.38 563.96,-34 563.96,-34 563.96,-34 2497.01,-34 2497.01,-34"/>
<polygon fill="#666666" stroke="#666666" points="2497.01,-36.45 2504.01,-34 2497.01,-31.55 2497.01,-36.45"/>
</g>
<!-- Strategies&#45;&gt;FSharp -->
<g id="edge52" class="edge">
<title>Strategies&#45;&gt;FSharp</title>
<path fill="none" stroke="#666666" d="M569.66,-500.87C569.66,-410.11 569.66,-94 569.66,-94 569.66,-94 2758.05,-94 2758.05,-94 2758.05,-94 2758.05,-68.99 2758.05,-68.99"/>
<polygon fill="#666666" stroke="#666666" points="2760.5,-68.99 2758.05,-61.99 2755.6,-68.99 2760.5,-68.99"/>
</g>
<!-- Strategies&#45;&gt;FSharpLedger -->
<g id="edge53" class="edge">
<title>Strategies&#45;&gt;FSharpLedger</title>
<path fill="none" stroke="#666666" d="M575.35,-501.01C575.35,-495.39 575.35,-491 575.35,-491 575.35,-491 2760.82,-491 2760.82,-491 2760.82,-491 2760.82,-177.57 2760.82,-177.57"/>
<polygon fill="#666666" stroke="#666666" points="2763.27,-177.57 2760.82,-170.57 2758.37,-177.57 2763.27,-177.57"/>
</g>
<!-- Strategies&#45;&gt;FSharpTrading -->
<g id="edge54" class="edge">
<title>Strategies&#45;&gt;FSharpTrading</title>
<path fill="none" stroke="#666666" d="M581.05,-500.78C581.05,-497.37 581.05,-495 581.05,-495 581.05,-495 2886.75,-495 2886.75,-495 2886.75,-495 2886.75,-177.3 2886.75,-177.3"/>
<polygon fill="#666666" stroke="#666666" points="2889.2,-177.3 2886.75,-170.3 2884.3,-177.3 2889.2,-177.3"/>
</g>
<!-- Strategies&#45;&gt;ExecutionSdk -->
<g id="edge51" class="edge">
<title>Strategies&#45;&gt;ExecutionSdk</title>
<path fill="none" stroke="#666666" d="M598.42,-507C684.5,-507 798.98,-507 798.98,-507 798.98,-507 798.98,-183.48 798.98,-183.48"/>
<polygon fill="#666666" stroke="#666666" points="801.43,-183.48 798.98,-176.48 796.53,-183.48 801.43,-183.48"/>
</g>
<!-- Strategies&#45;&gt;Core -->
<g id="edge49" class="edge">
<title>Strategies&#45;&gt;Core</title>
<path fill="none" stroke="#666666" d="M598.57,-513C793.16,-513 1223.53,-513 1223.53,-513 1223.53,-513 1223.53,-306 1223.53,-306 1223.53,-306 2295.25,-306 2295.25,-306"/>
<polygon fill="#666666" stroke="#666666" points="2295.25,-308.45 2302.25,-306 2295.25,-303.55 2295.25,-308.45"/>
</g>
<!-- Strategies&#45;&gt;Infrastructure -->
<g id="edge55" class="edge">
<title>Strategies&#45;&gt;Infrastructure</title>
<path fill="none" stroke="#666666" d="M592.44,-500.89C592.44,-442.85 592.44,-300 592.44,-300 592.44,-300 806.8,-300 806.8,-300"/>
<polygon fill="#666666" stroke="#666666" points="806.8,-302.45 813.8,-300 806.8,-297.55 806.8,-302.45"/>
</g>
<!-- Strategies&#45;&gt;BacktestSdk -->
<g id="edge47" class="edge">
<title>Strategies&#45;&gt;BacktestSdk</title>
<path fill="none" stroke="#666666" d="M598.36,-519C856.75,-519 1562.31,-519 1562.31,-519 1562.31,-519 1562.31,-438.94 1562.31,-438.94"/>
<polygon fill="#666666" stroke="#666666" points="1564.76,-438.94 1562.31,-431.94 1559.86,-438.94 1564.76,-438.94"/>
</g>
<!-- Strategies&#45;&gt;Execution -->
<g id="edge50" class="edge">
<title>Strategies&#45;&gt;Execution</title>
<path fill="none" stroke="#666666" d="M436.26,-500.94C436.26,-500.94 436.26,-438.74 436.26,-438.74"/>
<polygon fill="#666666" stroke="#666666" points="438.71,-438.74 436.26,-431.74 433.81,-438.74 438.71,-438.74"/>
</g>
<!-- QuantScript -->
<g id="node21" class="node">
<title>QuantScript</title>
<path fill="#f3e5f5" stroke="black" d="M363.96,-548.72C363.96,-548.72 228.04,-548.72 228.04,-548.72 222.04,-548.72 216.04,-542.72 216.04,-536.72 216.04,-536.72 216.04,-513.2 216.04,-513.2 216.04,-507.2 222.04,-501.2 228.04,-501.2 228.04,-501.2 363.96,-501.2 363.96,-501.2 369.96,-501.2 375.96,-507.2 375.96,-513.2 375.96,-513.2 375.96,-536.72 375.96,-536.72 375.96,-542.72 369.96,-548.72 363.96,-548.72"/>
<text xml:space="preserve" text-anchor="middle" x="296" y="-533.96" font-family="Segoe UI, Helvetica, Arial, sans-serif" font-size="10.00">QuantScript</text>
<text xml:space="preserve" text-anchor="middle" x="296" y="-521.96" font-family="Segoe UI, Helvetica, Arial, sans-serif" font-size="10.00">(Roslyn scripting, PriceSeries</text>
<text xml:space="preserve" text-anchor="middle" x="296" y="-509.96" font-family="Segoe UI, Helvetica, Arial, sans-serif" font-size="10.00">PortfolioBuilder, StatisticsEngine)</text>
</g>
<!-- QuantScript&#45;&gt;Contracts -->
<g id="edge61" class="edge">
<title>QuantScript&#45;&gt;Contracts</title>
<path fill="none" stroke="#666666" d="M367.89,-500.7C367.89,-401.13 367.89,-29 367.89,-29 367.89,-29 2497.09,-29 2497.09,-29"/>
<polygon fill="#666666" stroke="#666666" points="2497.09,-31.45 2504.09,-29 2497.09,-26.55 2497.09,-31.45"/>
</g>
<!-- QuantScript&#45;&gt;ProviderSdk -->
<g id="edge56" class="edge">
<title>QuantScript&#45;&gt;ProviderSdk</title>
<path fill="none" stroke="#666666" d="M371.92,-500.75C371.92,-454.03 371.92,-356 371.92,-356 371.92,-356 1041.27,-356 1041.27,-356 1041.27,-356 1041.27,-183.22 1041.27,-183.22"/>
<polygon fill="#666666" stroke="#666666" points="1043.72,-183.22 1041.27,-176.22 1038.82,-183.22 1043.72,-183.22"/>
</g>
<!-- QuantScript&#45;&gt;Domain -->
<g id="edge62" class="edge">
<title>QuantScript&#45;&gt;Domain</title>
<path fill="none" stroke="#666666" d="M369.91,-500.92C369.91,-425.41 369.91,-198 369.91,-198 369.91,-198 2329.66,-198 2329.66,-198 2329.66,-198 2329.66,-183.45 2329.66,-183.45"/>
<polygon fill="#666666" stroke="#666666" points="2332.11,-183.45 2329.66,-176.45 2327.21,-183.45 2332.11,-183.45"/>
</g>
<!-- QuantScript&#45;&gt;Storage -->
<g id="edge60" class="edge">
<title>QuantScript&#45;&gt;Storage</title>
<path fill="none" stroke="#666666" d="M373.94,-500.79C373.94,-492.38 373.94,-485 373.94,-485 373.94,-485 1022.83,-485 1022.83,-485 1022.83,-485 1022.83,-438.81 1022.83,-438.81"/>
<polygon fill="#666666" stroke="#666666" points="1025.28,-438.81 1022.83,-431.81 1020.38,-438.81 1025.28,-438.81"/>
</g>
<!-- QuantScript&#45;&gt;Application -->
<g id="edge59" class="edge">
<title>QuantScript&#45;&gt;Application</title>
<path fill="none" stroke="#666666" d="M305.54,-500.93C305.54,-493.87 305.54,-488 305.54,-488 305.54,-488 1757.97,-488 1757.97,-488 1757.97,-488 1757.97,-438.84 1757.97,-438.84"/>
<polygon fill="#666666" stroke="#666666" points="1760.42,-438.84 1757.97,-431.84 1755.52,-438.84 1760.42,-438.84"/>
</g>
<!-- QuantScript&#45;&gt;BacktestSdk -->
<g id="edge58" class="edge">
<title>QuantScript&#45;&gt;BacktestSdk</title>
<path fill="none" stroke="#666666" d="M275.38,-500.96C275.38,-486.95 275.38,-472 275.38,-472 275.38,-472 1550.8,-472 1550.8,-472 1550.8,-472 1550.8,-438.87 1550.8,-438.87"/>
<polygon fill="#666666" stroke="#666666" points="1553.25,-438.87 1550.8,-431.87 1548.35,-438.87 1553.25,-438.87"/>
</g>
<!-- QuantScript&#45;&gt;Backtesting -->
<g id="edge57" class="edge">
<title>QuantScript&#45;&gt;Backtesting</title>
<path fill="none" stroke="#666666" d="M245.21,-500.94C245.21,-500.94 245.21,-438.74 245.21,-438.74"/>
<polygon fill="#666666" stroke="#666666" points="247.66,-438.74 245.21,-431.74 242.76,-438.74 247.66,-438.74"/>
</g>
<!-- UiShared -->
<g id="node22" class="node">
<title>UiShared</title>
<path fill="#ede7f6" stroke="black" d="M2087.73,-548.72C2087.73,-548.72 1976.27,-548.72 1976.27,-548.72 1970.27,-548.72 1964.27,-542.72 1964.27,-536.72 1964.27,-536.72 1964.27,-513.2 1964.27,-513.2 1964.27,-507.2 1970.27,-501.2 1976.27,-501.2 1976.27,-501.2 2087.73,-501.2 2087.73,-501.2 2093.73,-501.2 2099.73,-507.2 2099.73,-513.2 2099.73,-513.2 2099.73,-536.72 2099.73,-536.72 2099.73,-542.72 2093.73,-548.72 2087.73,-548.72"/>
<text xml:space="preserve" text-anchor="middle" x="2032" y="-533.96" font-family="Segoe UI, Helvetica, Arial, sans-serif" font-size="10.00">Ui.Shared</text>
<text xml:space="preserve" text-anchor="middle" x="2032" y="-521.96" font-family="Segoe UI, Helvetica, Arial, sans-serif" font-size="10.00">(300 REST endpoints, auth</text>
<text xml:space="preserve" text-anchor="middle" x="2032" y="-509.96" font-family="Segoe UI, Helvetica, Arial, sans-serif" font-size="10.00">DI wiring, endpoint helpers)</text>
</g>
<!-- UiShared&#45;&gt;Contracts -->
<g id="edge64" class="edge">
<title>UiShared&#45;&gt;Contracts</title>
<path fill="none" stroke="#666666" d="M2100.02,-518C2236.04,-518 2528.66,-518 2528.66,-518 2528.66,-518 2528.66,-68.88 2528.66,-68.88"/>
<polygon fill="#666666" stroke="#666666" points="2531.11,-68.88 2528.66,-61.88 2526.21,-68.88 2531.11,-68.88"/>
</g>
<!-- UiShared&#45;&gt;Storage -->
<g id="edge67" class="edge">
<title>UiShared&#45;&gt;Storage</title>
<path fill="none" stroke="#666666" d="M2054.58,-500.84C2054.58,-477.62 2054.58,-446 2054.58,-446 2054.58,-446 1170.89,-446 1170.89,-446 1170.89,-446 1170.89,-438.8 1170.89,-438.8"/>
<polygon fill="#666666" stroke="#666666" points="1173.34,-438.8 1170.89,-431.8 1168.44,-438.8 1173.34,-438.8"/>
</g>
<!-- UiShared&#45;&gt;CppTrader -->
<g id="edge66" class="edge">
<title>UiShared&#45;&gt;CppTrader</title>
<path fill="none" stroke="#666666" d="M2032,-500.93C2032,-478.67 2032,-449 2032,-449 2032,-449 949.25,-449 949.25,-449 949.25,-449 949.25,-438.63 949.25,-438.63"/>
<polygon fill="#666666" stroke="#666666" points="951.7,-438.63 949.25,-431.63 946.8,-438.63 951.7,-438.63"/>
</g>
<!-- UiShared&#45;&gt;Application -->
<g id="edge63" class="edge">
<title>UiShared&#45;&gt;Application</title>
<path fill="none" stroke="#666666" d="M2077.15,-500.88C2077.15,-469.89 2077.15,-420 2077.15,-420 2077.15,-420 1908.54,-420 1908.54,-420"/>
<polygon fill="#666666" stroke="#666666" points="1908.54,-417.55 1901.54,-420 1908.54,-422.45 1908.54,-417.55"/>
</g>
<!-- UiShared&#45;&gt;Execution -->
<g id="edge65" class="edge">
<title>UiShared&#45;&gt;Execution</title>
<path fill="none" stroke="#666666" d="M2009.42,-500.77C2009.42,-481.95 2009.42,-459 2009.42,-459 2009.42,-459 533.87,-459 533.87,-459 533.87,-459 533.87,-438.97 533.87,-438.97"/>
<polygon fill="#666666" stroke="#666666" points="536.32,-438.97 533.87,-431.97 531.42,-438.97 536.32,-438.97"/>
</g>
<!-- UiShared&#45;&gt;Strategies -->
<g id="edge68" class="edge">
<title>UiShared&#45;&gt;Strategies</title>
<path fill="none" stroke="#666666" d="M1986.85,-500.89C1986.85,-499.11 1986.85,-498 1986.85,-498 1986.85,-498 586.75,-498 586.75,-498 586.75,-498 586.75,-498.29 586.75,-498.29"/>
<polygon fill="#666666" stroke="#666666" points="584.3,-492.37 586.75,-499.37 589.2,-492.37 584.3,-492.37"/>
</g>
<!-- UiServices -->
<g id="node23" class="node">
<title>UiServices</title>
<path fill="#ede7f6" stroke="black" stroke-dasharray="5,2" d="M1916.23,-548.72C1916.23,-548.72 1799.77,-548.72 1799.77,-548.72 1793.77,-548.72 1787.77,-542.72 1787.77,-536.72 1787.77,-536.72 1787.77,-513.2 1787.77,-513.2 1787.77,-507.2 1793.77,-501.2 1799.77,-501.2 1799.77,-501.2 1916.23,-501.2 1916.23,-501.2 1922.23,-501.2 1928.23,-507.2 1928.23,-513.2 1928.23,-513.2 1928.23,-536.72 1928.23,-536.72 1928.23,-542.72 1922.23,-548.72 1916.23,-548.72"/>
<text xml:space="preserve" text-anchor="middle" x="1858" y="-533.96" font-family="Segoe UI, Helvetica, Arial, sans-serif" font-size="10.00">Ui.Services</text>
<text xml:space="preserve" text-anchor="middle" x="1858" y="-521.96" font-family="Segoe UI, Helvetica, Arial, sans-serif" font-size="10.00">(desktop services, API clients</text>
<text xml:space="preserve" text-anchor="middle" x="1858" y="-509.96" font-family="Segoe UI, Helvetica, Arial, sans-serif" font-size="10.00">charts, export wizard)</text>
</g>
<!-- UiServices&#45;&gt;Contracts -->
<g id="edge69" class="edge">
<title>UiServices&#45;&gt;Contracts</title>
<path fill="none" stroke="#666666" stroke-dasharray="5,2" d="M1914.05,-500.91C1914.05,-404.73 1914.05,-53 1914.05,-53 1914.05,-53 2496.9,-53 2496.9,-53"/>
<polygon fill="#666666" stroke="#666666" points="2496.9,-55.45 2503.9,-53 2496.9,-50.55 2496.9,-55.45"/>
<text xml:space="preserve" text-anchor="middle" x="2904.27" y="-295.92" font-family="Times,serif" font-size="14.00">source</text>
<text xml:space="preserve" text-anchor="middle" x="2904.27" y="-279.12" font-family="Times,serif" font-size="14.00">link</text>
</g>
<!-- Wpf -->
<g id="node24" class="node">
<title>Wpf</title>
<path fill="#ede7f6" stroke="black" stroke-dasharray="5,2" d="M1919.71,-673.44C1919.71,-673.44 1800.29,-673.44 1800.29,-673.44 1794.29,-673.44 1788.29,-667.44 1788.29,-661.44 1788.29,-661.44 1788.29,-637.92 1788.29,-637.92 1788.29,-631.92 1794.29,-625.92 1800.29,-625.92 1800.29,-625.92 1919.71,-625.92 1919.71,-625.92 1925.71,-625.92 1931.71,-631.92 1931.71,-637.92 1931.71,-637.92 1931.71,-661.44 1931.71,-661.44 1931.71,-667.44 1925.71,-673.44 1919.71,-673.44"/>
<text xml:space="preserve" text-anchor="middle" x="1860" y="-658.68" font-family="Segoe UI, Helvetica, Arial, sans-serif" font-size="10.00">Wpf</text>
<text xml:space="preserve" text-anchor="middle" x="1860" y="-646.68" font-family="Segoe UI, Helvetica, Arial, sans-serif" font-size="10.00">(WPF desktop app</text>
<text xml:space="preserve" text-anchor="middle" x="1860" y="-634.68" font-family="Segoe UI, Helvetica, Arial, sans-serif" font-size="10.00">80+ Views, 60+ ViewModels)</text>
</g>
<!-- Wpf&#45;&gt;Backtesting -->
<g id="edge72" class="edge">
<title>Wpf&#45;&gt;Backtesting</title>
<path fill="none" stroke="#666666" d="M1787.91,-644C1780.63,-644 1775.85,-644 1775.85,-644 1775.85,-644 1775.85,-479 1775.85,-479 1775.85,-479 350.79,-479 350.79,-479 350.79,-479 350.79,-438.98 350.79,-438.98"/>
<polygon fill="#666666" stroke="#666666" points="353.24,-438.98 350.79,-431.98 348.34,-438.98 353.24,-438.98"/>
</g>
<!-- Wpf&#45;&gt;Strategies -->
<g id="edge73" class="edge">
<title>Wpf&#45;&gt;Strategies</title>
<path fill="none" stroke="#666666" d="M1787.83,-656C1762.43,-656 1740.09,-656 1740.09,-656 1740.09,-656 1740.09,-537 1740.09,-537 1740.09,-537 607.11,-537 607.11,-537"/>
<polygon fill="#666666" stroke="#666666" points="607.11,-534.55 600.11,-537 607.11,-539.45 607.11,-534.55"/>
</g>
<!-- Wpf&#45;&gt;QuantScript -->
<g id="edge74" class="edge">
<title>Wpf&#45;&gt;QuantScript</title>
<path fill="none" stroke="#666666" d="M1834.94,-625.51C1834.94,-614.98 1834.94,-605 1834.94,-605 1834.94,-605 322.65,-605 322.65,-605 322.65,-605 322.65,-557.49 322.65,-557.49"/>
<polygon fill="#666666" stroke="#666666" points="325.1,-557.49 322.65,-550.49 320.2,-557.49 325.1,-557.49"/>
</g>
<!-- Wpf&#45;&gt;UiShared -->
<g id="edge71" class="edge">
<title>Wpf&#45;&gt;UiShared</title>
<path fill="none" stroke="#666666" d="M1931.85,-650C1941.41,-650 1947.99,-650 1947.99,-650 1947.99,-650 1947.99,-525 1947.99,-525 1947.99,-525 1955.28,-525 1955.28,-525"/>
<polygon fill="#666666" stroke="#666666" points="1955.28,-527.45 1962.28,-525 1955.28,-522.55 1955.28,-527.45"/>
</g>
<!-- Wpf&#45;&gt;UiServices -->
<g id="edge70" class="edge">
<title>Wpf&#45;&gt;UiServices</title>
<path fill="none" stroke="#666666" stroke-dasharray="5,2" d="M1881.58,-625.63C1881.58,-625.63 1881.58,-557.45 1881.58,-557.45"/>
<polygon fill="#666666" stroke="#666666" points="1884.03,-557.45 1881.58,-550.45 1879.13,-557.45 1884.03,-557.45"/>
</g>
<!-- McpServer -->
<g id="node25" class="node">
<title>McpServer</title>
<path fill="#ede7f6" stroke="black" d="M2104.26,-673.44C2104.26,-673.44 1979.74,-673.44 1979.74,-673.44 1973.74,-673.44 1967.74,-667.44 1967.74,-661.44 1967.74,-661.44 1967.74,-637.92 1967.74,-637.92 1967.74,-631.92 1973.74,-625.92 1979.74,-625.92 1979.74,-625.92 2104.26,-625.92 2104.26,-625.92 2110.26,-625.92 2116.26,-631.92 2116.26,-637.92 2116.26,-637.92 2116.26,-661.44 2116.26,-661.44 2116.26,-667.44 2110.26,-673.44 2104.26,-673.44"/>
<text xml:space="preserve" text-anchor="middle" x="2042" y="-658.68" font-family="Segoe UI, Helvetica, Arial, sans-serif" font-size="10.00">McpServer</text>
<text xml:space="preserve" text-anchor="middle" x="2042" y="-646.68" font-family="Segoe UI, Helvetica, Arial, sans-serif" font-size="10.00">(Model Context Protocol server</text>
<text xml:space="preserve" text-anchor="middle" x="2042" y="-634.68" font-family="Segoe UI, Helvetica, Arial, sans-serif" font-size="10.00">tools, resources, prompts)</text>
</g>
<!-- McpServer&#45;&gt;Contracts -->
<g id="edge76" class="edge">
<title>McpServer&#45;&gt;Contracts</title>
<path fill="none" stroke="#666666" d="M2108,-625.63C2108,-514.38 2108,-55 2108,-55 2108,-55 2496.98,-55 2496.98,-55"/>
<polygon fill="#666666" stroke="#666666" points="2496.98,-57.45 2503.98,-55 2496.98,-52.55 2496.98,-57.45"/>
</g>
<!-- McpServer&#45;&gt;Core -->
<g id="edge77" class="edge">
<title>McpServer&#45;&gt;Core</title>
<path fill="none" stroke="#666666" d="M2112.13,-625.67C2112.13,-548.52 2112.13,-312 2112.13,-312 2112.13,-312 2295.31,-312 2295.31,-312"/>
<polygon fill="#666666" stroke="#666666" points="2295.31,-314.45 2302.31,-312 2295.31,-309.55 2295.31,-314.45"/>
</g>
<!-- McpServer&#45;&gt;Storage -->
<g id="edge78" class="edge">
<title>McpServer&#45;&gt;Storage</title>
<path fill="none" stroke="#666666" d="M2066.73,-625.75C2066.73,-605.25 2066.73,-579 2066.73,-579 2066.73,-579 1154.07,-579 1154.07,-579 1154.07,-579 1154.07,-438.78 1154.07,-438.78"/>
<polygon fill="#666666" stroke="#666666" points="1156.52,-438.78 1154.07,-431.78 1151.62,-438.78 1156.52,-438.78"/>
</g>
<!-- McpServer&#45;&gt;Application -->
<g id="edge75" class="edge">
<title>McpServer&#45;&gt;Application</title>
<path fill="none" stroke="#666666" d="M2103.86,-625.48C2103.86,-564.8 2103.86,-411 2103.86,-411 2103.86,-411 1908.87,-411 1908.87,-411"/>
<polygon fill="#666666" stroke="#666666" points="1908.87,-408.55 1901.87,-411 1908.87,-413.45 1908.87,-408.55"/>
</g>
<!-- Mcp -->
<g id="node26" class="node">
<title>Mcp</title>
<path fill="#ede7f6" stroke="black" d="M2283.76,-673.44C2283.76,-673.44 2164.24,-673.44 2164.24,-673.44 2158.24,-673.44 2152.24,-667.44 2152.24,-661.44 2152.24,-661.44 2152.24,-637.92 2152.24,-637.92 2152.24,-631.92 2158.24,-625.92 2164.24,-625.92 2164.24,-625.92 2283.76,-625.92 2283.76,-625.92 2289.76,-625.92 2295.76,-631.92 2295.76,-637.92 2295.76,-637.92 2295.76,-661.44 2295.76,-661.44 2295.76,-667.44 2289.76,-673.44 2283.76,-673.44"/>
<text xml:space="preserve" text-anchor="middle" x="2224" y="-658.68" font-family="Segoe UI, Helvetica, Arial, sans-serif" font-size="10.00">Mcp</text>
<text xml:space="preserve" text-anchor="middle" x="2224" y="-646.68" font-family="Segoe UI, Helvetica, Arial, sans-serif" font-size="10.00">(MCP tools for code review</text>
<text xml:space="preserve" text-anchor="middle" x="2224" y="-634.68" font-family="Segoe UI, Helvetica, Arial, sans-serif" font-size="10.00">ADR &amp; convention resources)</text>
</g>
<!-- MainApp -->
<g id="node27" class="node">
<title>MainApp</title>
<path fill="#ffebee" stroke="black" d="M3281.55,-548.72C3281.55,-548.72 3118.45,-548.72 3118.45,-548.72 3112.45,-548.72 3106.45,-542.72 3106.45,-536.72 3106.45,-536.72 3106.45,-513.2 3106.45,-513.2 3106.45,-507.2 3112.45,-501.2 3118.45,-501.2 3118.45,-501.2 3281.55,-501.2 3281.55,-501.2 3287.55,-501.2 3293.55,-507.2 3293.55,-513.2 3293.55,-513.2 3293.55,-536.72 3293.55,-536.72 3293.55,-542.72 3287.55,-548.72 3281.55,-548.72"/>
<text xml:space="preserve" text-anchor="middle" x="3200" y="-533.96" font-family="Segoe UI, Helvetica, Arial, sans-serif" font-size="10.00">Meridian</text>
<text xml:space="preserve" text-anchor="middle" x="3200" y="-521.96" font-family="Segoe UI, Helvetica, Arial, sans-serif" font-size="10.00">(CLI entry point, startup orchestration</text>
<text xml:space="preserve" text-anchor="middle" x="3200" y="-509.96" font-family="Segoe UI, Helvetica, Arial, sans-serif" font-size="10.00">mode runners: collector/backfill/desktop)</text>
</g>
<!-- MainApp&#45;&gt;Contracts -->
<g id="edge84" class="edge">
<title>MainApp&#45;&gt;Contracts</title>
<path fill="none" stroke="#666666" d="M3106.24,-527C2941.29,-527 2616.46,-527 2616.46,-527 2616.46,-527 2616.46,-68.93 2616.46,-68.93"/>
<polygon fill="#666666" stroke="#666666" points="2618.91,-68.93 2616.46,-61.93 2614.01,-68.93 2618.91,-68.93"/>
</g>
<!-- MainApp&#45;&gt;FSharp -->
<g id="edge87" class="edge">
<title>MainApp&#45;&gt;FSharp</title>
<path fill="none" stroke="#666666" d="M3106.1,-510C2998.61,-510 2837.21,-510 2837.21,-510 2837.21,-510 2837.21,-68.86 2837.21,-68.86"/>
<polygon fill="#666666" stroke="#666666" points="2839.66,-68.86 2837.21,-61.86 2834.76,-68.86 2839.66,-68.86"/>
</g>
<!-- MainApp&#45;&gt;FSharpLedger -->
<g id="edge89" class="edge">
<title>MainApp&#45;&gt;FSharpLedger</title>
<path fill="none" stroke="#666666" d="M3106.02,-514C2988.16,-514 2801.32,-514 2801.32,-514 2801.32,-514 2801.32,-177.29 2801.32,-177.29"/>
<polygon fill="#666666" stroke="#666666" points="2803.77,-177.29 2801.32,-170.29 2798.87,-177.29 2803.77,-177.29"/>
</g>
<!-- MainApp&#45;&gt;FSharpTrading -->
<g id="edge90" class="edge">
<title>MainApp&#45;&gt;FSharpTrading</title>
<path fill="none" stroke="#666666" d="M3106,-506C3028.51,-506 2931.25,-506 2931.25,-506 2931.25,-506 2931.25,-177.38 2931.25,-177.38"/>
<polygon fill="#666666" stroke="#666666" points="2933.7,-177.38 2931.25,-170.38 2928.8,-177.38 2933.7,-177.38"/>
</g>
<!-- MainApp&#45;&gt;FSharpDL -->
<g id="edge88" class="edge">
<title>MainApp&#45;&gt;FSharpDL</title>
<path fill="none" stroke="#666666" d="M3157.83,-500.98C3157.83,-500.98 3157.83,-177.58 3157.83,-177.58"/>
<polygon fill="#666666" stroke="#666666" points="3160.28,-177.58 3157.83,-170.58 3155.38,-177.58 3160.28,-177.58"/>
</g>
<!-- MainApp&#45;&gt;ProviderSdk -->
<g id="edge85" class="edge">
<title>MainApp&#45;&gt;ProviderSdk</title>
<path fill="none" stroke="#666666" d="M3132.14,-500.93C3132.14,-448.6 3132.14,-329 3132.14,-329 3132.14,-329 1106.34,-329 1106.34,-329 1106.34,-329 1106.34,-183.31 1106.34,-183.31"/>
<polygon fill="#666666" stroke="#666666" points="1108.79,-183.31 1106.34,-176.31 1103.89,-183.31 1108.79,-183.31"/>
</g>
<!-- MainApp&#45;&gt;Domain -->
<g id="edge83" class="edge">
<title>MainApp&#45;&gt;Domain</title>
<path fill="none" stroke="#666666" d="M3106.18,-523C2956.88,-523 2681.92,-523 2681.92,-523 2681.92,-523 2681.92,-151 2681.92,-151 2681.92,-151 2440.8,-151 2440.8,-151"/>
<polygon fill="#666666" stroke="#666666" points="2440.8,-148.55 2433.8,-151 2440.8,-153.45 2440.8,-148.55"/>
</g>
<!-- MainApp&#45;&gt;Core -->
<g id="edge82" class="edge">
<title>MainApp&#45;&gt;Core</title>
<path fill="none" stroke="#666666" d="M3144.98,-500.97C3144.98,-440.03 3144.98,-284 3144.98,-284 3144.98,-284 2452.63,-284 2452.63,-284"/>
<polygon fill="#666666" stroke="#666666" points="2452.63,-281.55 2445.63,-284 2452.63,-286.45 2452.63,-281.55"/>
</g>
<!-- MainApp&#45;&gt;Infrastructure -->
<g id="edge80" class="edge">
<title>MainApp&#45;&gt;Infrastructure</title>
<path fill="none" stroke="#666666" d="M3106.11,-531C2865.91,-531 2247.92,-531 2247.92,-531 2247.92,-531 2247.92,-287 2247.92,-287 2247.92,-287 971.06,-287 971.06,-287"/>
<polygon fill="#666666" stroke="#666666" points="971.06,-284.55 964.06,-287 971.06,-289.45 971.06,-284.55"/>
</g>
<!-- MainApp&#45;&gt;Storage -->
<g id="edge81" class="edge">
<title>MainApp&#45;&gt;Storage</title>
<path fill="none" stroke="#666666" d="M3119.29,-500.81C3119.29,-476.64 3119.29,-443 3119.29,-443 3119.29,-443 1179.3,-443 1179.3,-443 1179.3,-443 1179.3,-438.66 1179.3,-438.66"/>
<polygon fill="#666666" stroke="#666666" points="1181.75,-438.66 1179.3,-431.66 1176.85,-438.66 1181.75,-438.66"/>
</g>
<!-- MainApp&#45;&gt;Application -->
<g id="edge79" class="edge">
<title>MainApp&#45;&gt;Application</title>
<path fill="none" stroke="#666666" d="M3106.38,-536C2857.81,-536 2200.08,-536 2200.08,-536 2200.08,-536 2200.08,-401 2200.08,-401 2200.08,-401 1908.64,-401 1908.64,-401"/>
<polygon fill="#666666" stroke="#666666" points="1908.64,-398.55 1901.64,-401 1908.64,-403.45 1908.64,-398.55"/>
</g>
<!-- MainApp&#45;&gt;UiShared -->
<g id="edge86" class="edge">
<title>MainApp&#45;&gt;UiShared</title>
<path fill="none" stroke="#666666" d="M3106.39,-540C3106.39,-540 2108.67,-540 2108.67,-540"/>
<polygon fill="#666666" stroke="#666666" points="2108.67,-537.55 2101.67,-540 2108.67,-542.45 2108.67,-537.55"/>
</g>
<!-- Tests -->
<g id="node28" class="node">
<title>Tests</title>
<path fill="#eceff1" stroke="black" d="M1098.12,-679.44C1098.12,-679.44 983.88,-679.44 983.88,-679.44 977.88,-679.44 971.88,-673.44 971.88,-667.44 971.88,-667.44 971.88,-631.92 971.88,-631.92 971.88,-625.92 977.88,-619.92 983.88,-619.92 983.88,-619.92 1098.12,-619.92 1098.12,-619.92 1104.12,-619.92 1110.12,-625.92 1110.12,-631.92 1110.12,-631.92 1110.12,-667.44 1110.12,-667.44 1110.12,-673.44 1104.12,-679.44 1098.12,-679.44"/>
<text xml:space="preserve" text-anchor="middle" x="1041" y="-664.68" font-family="Segoe UI, Helvetica, Arial, sans-serif" font-size="10.00">Tests</text>
<text xml:space="preserve" text-anchor="middle" x="1041" y="-652.68" font-family="Segoe UI, Helvetica, Arial, sans-serif" font-size="10.00">(251 test files)</text>
<text xml:space="preserve" text-anchor="middle" x="1041" y="-640.68" font-family="Segoe UI, Helvetica, Arial, sans-serif" font-size="10.00">Application, Infrastructure</text>
<text xml:space="preserve" text-anchor="middle" x="1041" y="-628.68" font-family="Segoe UI, Helvetica, Arial, sans-serif" font-size="10.00">Storage, Domain, Integration</text>
</g>
<!-- Tests&#45;&gt;ExecutionSdk -->
<g id="edge103" class="edge">
<title>Tests&#45;&gt;ExecutionSdk</title>
<path fill="none" stroke="#999999" stroke-dasharray="1,5" d="M989.11,-619.72C989.11,-513.19 989.11,-159 989.11,-159 989.11,-159 967.16,-159 967.16,-159"/>
<polygon fill="#999999" stroke="#999999" points="967.16,-156.55 960.16,-159 967.16,-161.45 967.16,-156.55"/>
</g>
<!-- Tests&#45;&gt;Domain -->
<g id="edge96" class="edge">
<title>Tests&#45;&gt;Domain</title>
<path fill="none" stroke="#999999" stroke-dasharray="1,5" d="M990.84,-619.59C990.84,-525.81 990.84,-245 990.84,-245 990.84,-245 2380.89,-245 2380.89,-245 2380.89,-245 2380.89,-183.05 2380.89,-183.05"/>
<polygon fill="#999999" stroke="#999999" points="2383.34,-183.05 2380.89,-176.05 2378.44,-183.05 2383.34,-183.05"/>
</g>
<!-- Tests&#45;&gt;Core -->
<g id="edge95" class="edge">
<title>Tests&#45;&gt;Core</title>
<path fill="none" stroke="#999999" stroke-dasharray="1,5" d="M992.56,-619.56C992.56,-534.74 992.56,-300 992.56,-300 992.56,-300 2295.08,-300 2295.08,-300"/>
<polygon fill="#999999" stroke="#999999" points="2295.08,-302.45 2302.08,-300 2295.08,-297.55 2295.08,-302.45"/>
</g>
<!-- Tests&#45;&gt;Ledger -->
<g id="edge101" class="edge">
<title>Tests&#45;&gt;Ledger</title>
<path fill="none" stroke="#999999" stroke-dasharray="1,5" d="M1072.71,-619.7C1072.71,-604.41 1072.71,-589 1072.71,-589 1072.71,-589 2381.46,-589 2381.46,-589 2381.46,-589 2381.46,-438.65 2381.46,-438.65"/>
<polygon fill="#999999" stroke="#999999" points="2383.91,-438.65 2381.46,-431.65 2379.01,-438.65 2383.91,-438.65"/>
</g>
<!-- Tests&#45;&gt;Infrastructure -->
<g id="edge93" class="edge">
<title>Tests&#45;&gt;Infrastructure</title>
<path fill="none" stroke="#999999" stroke-dasharray="1,5" d="M987.39,-619.58C987.39,-533.59 987.39,-293 987.39,-293 987.39,-293 971.33,-293 971.33,-293"/>
<polygon fill="#999999" stroke="#999999" points="971.33,-290.55 964.33,-293 971.33,-295.45 971.33,-290.55"/>
</g>
<!-- Tests&#45;&gt;Storage -->
<g id="edge94" class="edge">
<title>Tests&#45;&gt;Storage</title>
<path fill="none" stroke="#999999" stroke-dasharray="1,5" d="M1097.65,-619.83C1097.65,-619.83 1097.65,-438.99 1097.65,-438.99"/>
<polygon fill="#999999" stroke="#999999" points="1100.1,-438.99 1097.65,-431.99 1095.2,-438.99 1100.1,-438.99"/>
</g>
<!-- Tests&#45;&gt;CppTrader -->
<g id="edge104" class="edge">
<title>Tests&#45;&gt;CppTrader</title>
<path fill="none" stroke="#999999" stroke-dasharray="1,5" d="M985.67,-619.45C985.67,-557.51 985.67,-422 985.67,-422 985.67,-422 970.78,-422 970.78,-422"/>
<polygon fill="#999999" stroke="#999999" points="970.78,-419.55 963.78,-422 970.78,-424.45 970.78,-419.55"/>
</g>
<!-- Tests&#45;&gt;Application -->
<g id="edge92" class="edge">
<title>Tests&#45;&gt;Application</title>
<path fill="none" stroke="#999999" stroke-dasharray="1,5" d="M1047.77,-619.71C1047.77,-595.01 1047.77,-564 1047.77,-564 1047.77,-564 1781.81,-564 1781.81,-564 1781.81,-564 1781.81,-438.71 1781.81,-438.71"/>
<polygon fill="#999999" stroke="#999999" points="1784.26,-438.71 1781.81,-431.71 1779.36,-438.71 1784.26,-438.71"/>
</g>
<!-- Tests&#45;&gt;BacktestSdk -->
<g id="edge102" class="edge">
<title>Tests&#45;&gt;BacktestSdk</title>
<path fill="none" stroke="#999999" stroke-dasharray="1,5" d="M1035.3,-619.48C1035.3,-593.11 1035.3,-559 1035.3,-559 1035.3,-559 1585.32,-559 1585.32,-559 1585.32,-559 1585.32,-438.96 1585.32,-438.96"/>
<polygon fill="#999999" stroke="#999999" points="1587.78,-438.96 1585.32,-431.96 1582.88,-438.96 1587.78,-438.96"/>
</g>
<!-- Tests&#45;&gt;Execution -->
<g id="edge98" class="edge">
<title>Tests&#45;&gt;Execution</title>
<path fill="none" stroke="#999999" stroke-dasharray="1,5" d="M978.77,-619.53C978.77,-566.47 978.77,-462 978.77,-462 978.77,-462 509.47,-462 509.47,-462 509.47,-462 509.47,-438.72 509.47,-438.72"/>
<polygon fill="#999999" stroke="#999999" points="511.92,-438.72 509.47,-431.72 507.02,-438.72 511.92,-438.72"/>
</g>
<!-- Tests&#45;&gt;Risk -->
<g id="edge100" class="edge">
<title>Tests&#45;&gt;Risk</title>
<path fill="none" stroke="#999999" stroke-dasharray="1,5" d="M975.33,-619.53C975.33,-616.78 975.33,-615 975.33,-615 975.33,-615 98,-615 98,-615 98,-615 98,-557.6 98,-557.6"/>
<polygon fill="#999999" stroke="#999999" points="100.45,-557.6 98,-550.6 95.55,-557.6 100.45,-557.6"/>
</g>
<!-- Tests&#45;&gt;Strategies -->
<g id="edge99" class="edge">
<title>Tests&#45;&gt;Strategies</title>
<path fill="none" stroke="#999999" stroke-dasharray="1,5" d="M977.05,-619.68C977.05,-588.13 977.05,-543 977.05,-543 977.05,-543 607.06,-543 607.06,-543"/>
<polygon fill="#999999" stroke="#999999" points="607.06,-540.55 600.06,-543 607.06,-545.45 607.06,-540.55"/>
</g>
<!-- Tests&#45;&gt;UiShared -->
<g id="edge97" class="edge">
<title>Tests&#45;&gt;UiShared</title>
<path fill="none" stroke="#999999" stroke-dasharray="1,5" d="M1060.24,-619.53C1060.24,-602.27 1060.24,-584 1060.24,-584 1060.24,-584 2000.74,-584 2000.74,-584 2000.74,-584 2000.74,-557.49 2000.74,-557.49"/>
<polygon fill="#999999" stroke="#999999" points="2003.19,-557.49 2000.74,-550.49 1998.29,-557.49 2003.19,-557.49"/>
</g>
<!-- Tests&#45;&gt;MainApp -->
<g id="edge91" class="edge">
<title>Tests&#45;&gt;MainApp</title>
<path fill="none" stroke="#999999" stroke-dasharray="1,5" d="M1085.18,-619.56C1085.18,-606.44 1085.18,-594 1085.18,-594 1085.18,-594 3164.15,-594 3164.15,-594 3164.15,-594 3164.15,-557.62 3164.15,-557.62"/>
<polygon fill="#999999" stroke="#999999" points="3166.6,-557.62 3164.15,-550.62 3161.7,-557.62 3166.6,-557.62"/>
</g>
<!-- FSharpTests -->
<g id="node29" class="node">
<title>FSharpTests</title>
<path fill="#eceff1" stroke="black" d="M625.9,-673.44C625.9,-673.44 516.1,-673.44 516.1,-673.44 510.1,-673.44 504.1,-667.44 504.1,-661.44 504.1,-661.44 504.1,-637.92 504.1,-637.92 504.1,-631.92 510.1,-625.92 516.1,-625.92 516.1,-625.92 625.9,-625.92 625.9,-625.92 631.9,-625.92 637.9,-631.92 637.9,-637.92 637.9,-637.92 637.9,-661.44 637.9,-661.44 637.9,-667.44 631.9,-673.44 625.9,-673.44"/>
<text xml:space="preserve" text-anchor="middle" x="571" y="-658.68" font-family="Segoe UI, Helvetica, Arial, sans-serif" font-size="10.00">FSharp.Tests</text>
<text xml:space="preserve" text-anchor="middle" x="571" y="-646.68" font-family="Segoe UI, Helvetica, Arial, sans-serif" font-size="10.00">(10 test files)</text>
<text xml:space="preserve" text-anchor="middle" x="571" y="-634.68" font-family="Segoe UI, Helvetica, Arial, sans-serif" font-size="10.00">validation, domain, pipeline</text>
</g>
<!-- FSharpTests&#45;&gt;FSharp -->
<g id="edge105" class="edge">
<title>FSharpTests&#45;&gt;FSharp</title>
<path fill="none" stroke="#999999" stroke-dasharray="1,5" d="M618.02,-625.57C618.02,-520.16 618.02,-105 618.02,-105 618.02,-105 2782.17,-105 2782.17,-105 2782.17,-105 2782.17,-68.74 2782.17,-68.74"/>
<polygon fill="#999999" stroke="#999999" points="2784.62,-68.74 2782.17,-61.74 2779.72,-68.74 2784.62,-68.74"/>
</g>
<!-- BacktestTests -->
<g id="node30" class="node">
<title>BacktestTests</title>
<path fill="#eceff1" stroke="black" d="M924.37,-673.44C924.37,-673.44 817.63,-673.44 817.63,-673.44 811.63,-673.44 805.63,-667.44 805.63,-661.44 805.63,-661.44 805.63,-637.92 805.63,-637.92 805.63,-631.92 811.63,-625.92 817.63,-625.92 817.63,-625.92 924.37,-625.92 924.37,-625.92 930.37,-625.92 936.37,-631.92 936.37,-637.92 936.37,-637.92 936.37,-661.44 936.37,-661.44 936.37,-667.44 930.37,-673.44 924.37,-673.44"/>
<text xml:space="preserve" text-anchor="middle" x="871" y="-658.68" font-family="Segoe UI, Helvetica, Arial, sans-serif" font-size="10.00">Backtesting.Tests</text>
<text xml:space="preserve" text-anchor="middle" x="871" y="-646.68" font-family="Segoe UI, Helvetica, Arial, sans-serif" font-size="10.00">(13 test files)</text>
<text xml:space="preserve" text-anchor="middle" x="871" y="-634.68" font-family="Segoe UI, Helvetica, Arial, sans-serif" font-size="10.00">engine, fill models, metrics</text>
</g>
<!-- BacktestTests&#45;&gt;Infrastructure -->
<g id="edge108" class="edge">
<title>BacktestTests&#45;&gt;Infrastructure</title>
<path fill="none" stroke="#999999" stroke-dasharray="1,5" d="M810.6,-625.69C810.6,-544.33 810.6,-284 810.6,-284 810.6,-284 811.07,-284 811.07,-284"/>
<polygon fill="#999999" stroke="#999999" points="806.76,-286.45 813.76,-284 806.76,-281.55 806.76,-286.45"/>
</g>
<!-- BacktestTests&#45;&gt;BacktestSdk -->
<g id="edge107" class="edge">
<title>BacktestTests&#45;&gt;BacktestSdk</title>
<path fill="none" stroke="#999999" stroke-dasharray="1,5" d="M876.12,-625.54C876.12,-597.19 876.12,-554 876.12,-554 876.12,-554 1573.82,-554 1573.82,-554 1573.82,-554 1573.82,-438.82 1573.82,-438.82"/>
<polygon fill="#999999" stroke="#999999" points="1576.27,-438.82 1573.82,-431.82 1571.37,-438.82 1576.27,-438.82"/>
</g>
<!-- BacktestTests&#45;&gt;Backtesting -->
<g id="edge106" class="edge">
<title>BacktestTests&#45;&gt;Backtesting</title>
<path fill="none" stroke="#999999" stroke-dasharray="1,5" d="M808.12,-625.66C808.12,-579.29 808.12,-482 808.12,-482 808.12,-482 335.71,-482 335.71,-482 335.71,-482 335.71,-438.72 335.71,-438.72"/>
<polygon fill="#999999" stroke="#999999" points="338.16,-438.72 335.71,-431.72 333.26,-438.72 338.16,-438.72"/>
</g>
<!-- DLTests -->
<g id="node31" class="node">
<title>DLTests</title>
<path fill="#eceff1" stroke="black" d="M1266.34,-673.44C1266.34,-673.44 1157.66,-673.44 1157.66,-673.44 1151.66,-673.44 1145.66,-667.44 1145.66,-661.44 1145.66,-661.44 1145.66,-637.92 1145.66,-637.92 1145.66,-631.92 1151.66,-625.92 1157.66,-625.92 1157.66,-625.92 1266.34,-625.92 1266.34,-625.92 1272.34,-625.92 1278.34,-631.92 1278.34,-637.92 1278.34,-637.92 1278.34,-661.44 1278.34,-661.44 1278.34,-667.44 1272.34,-673.44 1266.34,-673.44"/>
<text xml:space="preserve" text-anchor="middle" x="1212" y="-658.68" font-family="Segoe UI, Helvetica, Arial, sans-serif" font-size="10.00">DirectLending.Tests</text>
<text xml:space="preserve" text-anchor="middle" x="1212" y="-646.68" font-family="Segoe UI, Helvetica, Arial, sans-serif" font-size="10.00">(5 test files)</text>
<text xml:space="preserve" text-anchor="middle" x="1212" y="-634.68" font-family="Segoe UI, Helvetica, Arial, sans-serif" font-size="10.00">service, workflow, Postgres</text>
</g>
<!-- DLTests&#45;&gt;Application -->
<g id="edge109" class="edge">
<title>DLTests&#45;&gt;Application</title>
<path fill="none" stroke="#999999" stroke-dasharray="1,5" d="M1250.93,-625.47C1250.93,-601.71 1250.93,-569 1250.93,-569 1250.93,-569 1763.93,-569 1763.93,-569 1763.93,-569 1763.93,-438.77 1763.93,-438.77"/>
<polygon fill="#999999" stroke="#999999" points="1766.38,-438.77 1763.93,-431.77 1761.48,-438.77 1766.38,-438.77"/>
</g>
<!-- McpTests -->
<g id="node32" class="node">
<title>McpTests</title>
<path fill="#eceff1" stroke="black" d="M1721.82,-667.68C1721.82,-667.68 1656.18,-667.68 1656.18,-667.68 1650.18,-667.68 1644.18,-661.68 1644.18,-655.68 1644.18,-655.68 1644.18,-643.68 1644.18,-643.68 1644.18,-637.68 1650.18,-631.68 1656.18,-631.68 1656.18,-631.68 1721.82,-631.68 1721.82,-631.68 1727.82,-631.68 1733.82,-637.68 1733.82,-643.68 1733.82,-643.68 1733.82,-655.68 1733.82,-655.68 1733.82,-661.68 1727.82,-667.68 1721.82,-667.68"/>
<text xml:space="preserve" text-anchor="middle" x="1689" y="-652.68" font-family="Segoe UI, Helvetica, Arial, sans-serif" font-size="10.00">McpServer.Tests</text>
<text xml:space="preserve" text-anchor="middle" x="1689" y="-640.68" font-family="Segoe UI, Helvetica, Arial, sans-serif" font-size="10.00">(2 test files)</text>
</g>
<!-- McpTests&#45;&gt;McpServer -->
<g id="edge110" class="edge">
<title>McpTests&#45;&gt;McpServer</title>
<path fill="none" stroke="#999999" stroke-dasharray="1,5" d="M1716.02,-631.18C1716.02,-617.06 1716.02,-600 1716.02,-600 1716.02,-600 2033.74,-600 2033.74,-600 2033.74,-600 2033.74,-616.91 2033.74,-616.91"/>
<polygon fill="#999999" stroke="#999999" points="2031.29,-616.91 2033.74,-623.91 2036.19,-616.91 2031.29,-616.91"/>
</g>
<!-- QsTests -->
<g id="node33" class="node">
<title>QsTests</title>
<path fill="#eceff1" stroke="black" d="M758.02,-673.44C758.02,-673.44 685.98,-673.44 685.98,-673.44 679.98,-673.44 673.98,-667.44 673.98,-661.44 673.98,-661.44 673.98,-637.92 673.98,-637.92 673.98,-631.92 679.98,-625.92 685.98,-625.92 685.98,-625.92 758.02,-625.92 758.02,-625.92 764.02,-625.92 770.02,-631.92 770.02,-637.92 770.02,-637.92 770.02,-661.44 770.02,-661.44 770.02,-667.44 764.02,-673.44 758.02,-673.44"/>
<text xml:space="preserve" text-anchor="middle" x="722" y="-658.68" font-family="Segoe UI, Helvetica, Arial, sans-serif" font-size="10.00">QuantScript.Tests</text>
<text xml:space="preserve" text-anchor="middle" x="722" y="-646.68" font-family="Segoe UI, Helvetica, Arial, sans-serif" font-size="10.00">(6 test files)</text>
<text xml:space="preserve" text-anchor="middle" x="722" y="-634.68" font-family="Segoe UI, Helvetica, Arial, sans-serif" font-size="10.00">scripting, statistics</text>
</g>
<!-- QsTests&#45;&gt;QuantScript -->
<g id="edge111" class="edge">
<title>QsTests&#45;&gt;QuantScript</title>
<path fill="none" stroke="#999999" stroke-dasharray="1,5" d="M722,-625.68C722,-617.33 722,-610 722,-610 722,-610 269.35,-610 269.35,-610 269.35,-610 269.35,-557.62 269.35,-557.62"/>
<polygon fill="#999999" stroke="#999999" points="271.8,-557.62 269.35,-550.62 266.9,-557.62 271.8,-557.62"/>
</g>
<!-- WpfTests -->
<g id="node34" class="node">
<title>WpfTests</title>
<path fill="#eceff1" stroke="black" stroke-dasharray="5,2" d="M1596.34,-673.44C1596.34,-673.44 1477.66,-673.44 1477.66,-673.44 1471.66,-673.44 1465.66,-667.44 1465.66,-661.44 1465.66,-661.44 1465.66,-637.92 1465.66,-637.92 1465.66,-631.92 1471.66,-625.92 1477.66,-625.92 1477.66,-625.92 1596.34,-625.92 1596.34,-625.92 1602.34,-625.92 1608.34,-631.92 1608.34,-637.92 1608.34,-637.92 1608.34,-661.44 1608.34,-661.44 1608.34,-667.44 1602.34,-673.44 1596.34,-673.44"/>
<text xml:space="preserve" text-anchor="middle" x="1537" y="-658.68" font-family="Segoe UI, Helvetica, Arial, sans-serif" font-size="10.00">Wpf.Tests</text>
<text xml:space="preserve" text-anchor="middle" x="1537" y="-646.68" font-family="Segoe UI, Helvetica, Arial, sans-serif" font-size="10.00">(30 test files)</text>
<text xml:space="preserve" text-anchor="middle" x="1537" y="-634.68" font-family="Segoe UI, Helvetica, Arial, sans-serif" font-size="10.00">ViewModels, Services, Views</text>
</g>
<!-- WpfTests&#45;&gt;UiServices -->
<g id="edge113" class="edge">
<title>WpfTests&#45;&gt;UiServices</title>
<path fill="none" stroke="#999999" stroke-dasharray="1,5" d="M1596.83,-625.66C1596.83,-590.98 1596.83,-531 1596.83,-531 1596.83,-531 1778.81,-531 1778.81,-531"/>
<polygon fill="#999999" stroke="#999999" points="1778.81,-533.45 1785.81,-531 1778.81,-528.55 1778.81,-533.45"/>
</g>
<!-- WpfTests&#45;&gt;Wpf -->
<g id="edge112" class="edge">
<title>WpfTests&#45;&gt;Wpf</title>
<path fill="none" stroke="#999999" stroke-dasharray="1,5" d="M1537,-673.89C1537,-685.54 1537,-697 1537,-697 1537,-697 1860,-697 1860,-697 1860,-697 1860,-682.41 1860,-682.41"/>
<polygon fill="#999999" stroke="#999999" points="1862.45,-682.41 1860,-675.41 1857.55,-682.41 1862.45,-682.41"/>
</g>
<!-- UiTests -->
<g id="node35" class="node">
<title>UiTests</title>
<path fill="#eceff1" stroke="black" stroke-dasharray="5,2" d="M1417.59,-673.44C1417.59,-673.44 1326.41,-673.44 1326.41,-673.44 1320.41,-673.44 1314.41,-667.44 1314.41,-661.44 1314.41,-661.44 1314.41,-637.92 1314.41,-637.92 1314.41,-631.92 1320.41,-625.92 1326.41,-625.92 1326.41,-625.92 1417.59,-625.92 1417.59,-625.92 1423.59,-625.92 1429.59,-631.92 1429.59,-637.92 1429.59,-637.92 1429.59,-661.44 1429.59,-661.44 1429.59,-667.44 1423.59,-673.44 1417.59,-673.44"/>
<text xml:space="preserve" text-anchor="middle" x="1372" y="-658.68" font-family="Segoe UI, Helvetica, Arial, sans-serif" font-size="10.00">Ui.Tests</text>
<text xml:space="preserve" text-anchor="middle" x="1372" y="-646.68" font-family="Segoe UI, Helvetica, Arial, sans-serif" font-size="10.00">(54 test files)</text>
<text xml:space="preserve" text-anchor="middle" x="1372" y="-634.68" font-family="Segoe UI, Helvetica, Arial, sans-serif" font-size="10.00">UI services, collections</text>
</g>
<!-- UiTests&#45;&gt;UiServices -->
<g id="edge114" class="edge">
<title>UiTests&#45;&gt;UiServices</title>
<path fill="none" stroke="#999999" stroke-dasharray="1,5" d="M1400.79,-625.64C1400.79,-589.41 1400.79,-525 1400.79,-525 1400.79,-525 1778.8,-525 1778.8,-525"/>
<polygon fill="#999999" stroke="#999999" points="1778.8,-527.45 1785.8,-525 1778.8,-522.55 1778.8,-527.45"/>
</g>
<!-- Benchmarks -->
<g id="node36" class="node">
<title>Benchmarks</title>
<path fill="#eceff1" stroke="black" d="M2539.44,-673.44C2539.44,-673.44 2418.56,-673.44 2418.56,-673.44 2412.56,-673.44 2406.56,-667.44 2406.56,-661.44 2406.56,-661.44 2406.56,-637.92 2406.56,-637.92 2406.56,-631.92 2412.56,-625.92 2418.56,-625.92 2418.56,-625.92 2539.44,-625.92 2539.44,-625.92 2545.44,-625.92 2551.44,-631.92 2551.44,-637.92 2551.44,-637.92 2551.44,-661.44 2551.44,-661.44 2551.44,-667.44 2545.44,-673.44 2539.44,-673.44"/>
<text xml:space="preserve" text-anchor="middle" x="2479" y="-658.68" font-family="Segoe UI, Helvetica, Arial, sans-serif" font-size="10.00">Benchmarks</text>
<text xml:space="preserve" text-anchor="middle" x="2479" y="-646.68" font-family="Segoe UI, Helvetica, Arial, sans-serif" font-size="10.00">(BenchmarkDotNet</text>
<text xml:space="preserve" text-anchor="middle" x="2479" y="-634.68" font-family="Segoe UI, Helvetica, Arial, sans-serif" font-size="10.00">pipeline, storage, serialization)</text>
</g>
<!-- Benchmarks&#45;&gt;Domain -->
<g id="edge118" class="edge">
<title>Benchmarks&#45;&gt;Domain</title>
<path fill="none" stroke="#999999" stroke-dasharray="1,5" d="M2485.23,-625.73C2485.23,-527.42 2485.23,-160 2485.23,-160 2485.23,-160 2440.96,-160 2440.96,-160"/>
<polygon fill="#999999" stroke="#999999" points="2440.96,-157.55 2433.96,-160 2440.96,-162.45 2440.96,-157.55"/>
</g>
<!-- Benchmarks&#45;&gt;Core -->
<g id="edge117" class="edge">
<title>Benchmarks&#45;&gt;Core</title>
<path fill="none" stroke="#999999" stroke-dasharray="1,5" d="M2464.59,-625.65C2464.59,-546.64 2464.59,-300 2464.59,-300 2464.59,-300 2452.55,-300 2452.55,-300"/>
<polygon fill="#999999" stroke="#999999" points="2452.55,-297.55 2445.55,-300 2452.55,-302.45 2452.55,-297.55"/>
</g>
<!-- Benchmarks&#45;&gt;Storage -->
<g id="edge119" class="edge">
<title>Benchmarks&#45;&gt;Storage</title>
<path fill="none" stroke="#999999" stroke-dasharray="1,5" d="M2425.2,-625.73C2425.2,-603.56 2425.2,-574 2425.2,-574 2425.2,-574 1162.48,-574 1162.48,-574 1162.48,-574 1162.48,-438.79 1162.48,-438.79"/>
<polygon fill="#999999" stroke="#999999" points="1164.93,-438.79 1162.48,-431.79 1160.03,-438.79 1164.93,-438.79"/>
</g>
<!-- Benchmarks&#45;&gt;Application -->
<g id="edge116" class="edge">
<title>Benchmarks&#45;&gt;Application</title>
<path fill="none" stroke="#999999" stroke-dasharray="1,5" d="M2406.12,-650C2356.51,-650 2299.82,-650 2299.82,-650 2299.82,-650 2299.82,-392 2299.82,-392 2299.82,-392 1908.79,-392 1908.79,-392"/>
<polygon fill="#999999" stroke="#999999" points="1908.79,-389.55 1901.79,-392 1908.79,-394.45 1908.79,-389.55"/>
</g>
<!-- Benchmarks&#45;&gt;MainApp -->
<g id="edge115" class="edge">
<title>Benchmarks&#45;&gt;MainApp</title>
<path fill="none" stroke="#999999" stroke-dasharray="1,5" d="M2540.05,-625.43C2540.05,-594.23 2540.05,-544 2540.05,-544 2540.05,-544 3097.63,-544 3097.63,-544"/>
<polygon fill="#999999" stroke="#999999" points="3097.63,-546.45 3104.63,-544 3097.63,-541.55 3097.63,-546.45"/>
</g>
<!-- L_SOLID -->
<g id="node37" class="node">
<title>L_SOLID</title>
<path fill="lightgrey" stroke="none" d="M2784.37,-667.68C2784.37,-667.68 2599.63,-667.68 2599.63,-667.68 2593.63,-667.68 2587.63,-661.68 2587.63,-655.68 2587.63,-655.68 2587.63,-643.68 2587.63,-643.68 2587.63,-637.68 2593.63,-631.68 2599.63,-631.68 2599.63,-631.68 2784.37,-631.68 2784.37,-631.68 2790.37,-631.68 2796.37,-637.68 2796.37,-643.68 2796.37,-643.68 2796.37,-655.68 2796.37,-655.68 2796.37,-661.68 2790.37,-667.68 2784.37,-667.68"/>
<text xml:space="preserve" text-anchor="middle" x="2692" y="-646.68" font-family="Segoe UI, Helvetica, Arial, sans-serif" font-size="10.00">━━━ &#160;Project reference (compile dependency)</text>
</g>
<!-- L_DASH -->
<g id="node38" class="node">
<title>L_DASH</title>
<path fill="lightgrey" stroke="none" d="M3017.83,-667.68C3017.83,-667.68 2844.17,-667.68 2844.17,-667.68 2838.17,-667.68 2832.17,-661.68 2832.17,-655.68 2832.17,-655.68 2832.17,-643.68 2832.17,-643.68 2832.17,-637.68 2838.17,-631.68 2844.17,-631.68 2844.17,-631.68 3017.83,-631.68 3017.83,-631.68 3023.83,-631.68 3029.83,-637.68 3029.83,-643.68 3029.83,-643.68 3029.83,-655.68 3029.83,-655.68 3029.83,-661.68 3023.83,-667.68 3017.83,-667.68"/>
<text xml:space="preserve" text-anchor="middle" x="2931" y="-646.68" font-family="Segoe UI, Helvetica, Arial, sans-serif" font-size="10.00">─ ─ &#160;Source&#45;link / Windows&#45;only reference</text>
</g>
<!-- L_DOT -->
<g id="node39" class="node">
<title>L_DOT</title>
<path fill="lightgrey" stroke="none" d="M3209.85,-667.68C3209.85,-667.68 3078.15,-667.68 3078.15,-667.68 3072.15,-667.68 3066.15,-661.68 3066.15,-655.68 3066.15,-655.68 3066.15,-643.68 3066.15,-643.68 3066.15,-637.68 3072.15,-631.68 3078.15,-631.68 3078.15,-631.68 3209.85,-631.68 3209.85,-631.68 3215.85,-631.68 3221.85,-637.68 3221.85,-643.68 3221.85,-643.68 3221.85,-655.68 3221.85,-655.68 3221.85,-661.68 3215.85,-667.68 3209.85,-667.68"/>
<text xml:space="preserve" text-anchor="middle" x="3144" y="-646.68" font-family="Segoe UI, Helvetica, Arial, sans-serif" font-size="10.00">· · · &#160;Test / benchmark reference</text>
</g>
<!-- L_NATIVE -->
<g id="node40" class="node">
<title>L_NATIVE</title>
<path fill="#fff3e0" stroke="black" stroke-dasharray="5,2" d="M3396.13,-667.68C3396.13,-667.68 3269.87,-667.68 3269.87,-667.68 3263.87,-667.68 3257.87,-661.68 3257.87,-655.68 3257.87,-655.68 3257.87,-643.68 3257.87,-643.68 3257.87,-637.68 3263.87,-631.68 3269.87,-631.68 3269.87,-631.68 3396.13,-631.68 3396.13,-631.68 3402.13,-631.68 3408.13,-637.68 3408.13,-643.68 3408.13,-643.68 3408.13,-655.68 3408.13,-655.68 3408.13,-661.68 3402.13,-667.68 3396.13,-667.68"/>
<text xml:space="preserve" text-anchor="middle" x="3333" y="-652.68" font-family="Segoe UI, Helvetica, Arial, sans-serif" font-size="10.00">Dashed border = Windows&#45;only</text>
<text xml:space="preserve" text-anchor="middle" x="3333" y="-640.68" font-family="Segoe UI, Helvetica, Arial, sans-serif" font-size="10.00">or conditional build</text>
</g>
</g>
</svg>
