<?xml version="1.0" encoding="UTF-8" standalone="no"?>
<!DOCTYPE svg PUBLIC "-//W3C//DTD SVG 1.1//EN"
 "http://www.w3.org/Graphics/SVG/1.1/DTD/svg11.dtd">
<!-- Generated by graphviz version 2.43.0 (0)
 -->
<!-- Title: ProjectDependencies Pages: 1 -->
<svg width="3534pt" height="745pt"
 viewBox="0.00 0.00 3534.00 744.50" xmlns="http://www.w3.org/2000/svg" xmlns:xlink="http://www.w3.org/1999/xlink">
<g id="graph0" class="graph" transform="scale(1 1) rotate(0) translate(4 740.5)">
<title>ProjectDependencies</title>
<polygon fill="white" stroke="transparent" points="-4,4 -4,-740.5 3530,-740.5 3530,4 -4,4"/>
<text text-anchor="middle" x="1763" y="-721.3" font-family="Segoe UI, Helvetica, Arial, sans-serif" font-size="14.00">Meridian &#45; Project Dependencies</text>
<text text-anchor="middle" x="1763" y="-706.3" font-family="Segoe UI, Helvetica, Arial, sans-serif" font-size="14.00">(28 source projects | 8 test projects | 1 benchmark project)</text>
<g id="clust1" class="cluster">
<title>cluster_layer0</title>
<path fill="none" stroke="#aaaaaa" stroke-dasharray="5,2" d="M2591,-8C2591,-8 3295,-8 3295,-8 3301,-8 3307,-14 3307,-20 3307,-20 3307,-210.5 3307,-210.5 3307,-216.5 3301,-222.5 3295,-222.5 3295,-222.5 2591,-222.5 2591,-222.5 2585,-222.5 2579,-216.5 2579,-210.5 2579,-210.5 2579,-20 2579,-20 2579,-14 2585,-8 2591,-8"/>
<text text-anchor="middle" x="2943" y="-209.7" font-family="Segoe UI, Helvetica, Arial, sans-serif" font-size="11.00">Layer 0: Foundation — shared contracts and F# domain primitives (no inbound project deps)</text>
</g>
<g id="clust2" class="cluster">
<title>cluster_fsharp_family</title>
<path fill="none" stroke="#66bb6a" d="M2789,-16C2789,-16 3287,-16 3287,-16 3293,-16 3299,-22 3299,-28 3299,-28 3299,-182.5 3299,-182.5 3299,-188.5 3293,-194.5 3287,-194.5 3287,-194.5 2789,-194.5 2789,-194.5 2783,-194.5 2777,-188.5 2777,-182.5 2777,-182.5 2777,-28 2777,-28 2777,-22 2783,-16 2789,-16"/>
<text text-anchor="middle" x="3038" y="-182.5" font-family="Segoe UI, Helvetica, Arial, sans-serif" font-size="10.00">F# Domain Family</text>
</g>
<g id="clust3" class="cluster">
<title>cluster_layer1</title>
<path fill="none" stroke="#aaaaaa" stroke-dasharray="5,2" d="M724,-119C724,-119 1269,-119 1269,-119 1275,-119 1281,-125 1281,-131 1281,-131 1281,-188 1281,-188 1281,-194 1275,-200 1269,-200 1269,-200 724,-200 724,-200 718,-200 712,-194 712,-188 712,-188 712,-131 712,-131 712,-125 718,-119 724,-119"/>
<text text-anchor="middle" x="996.5" y="-187.2" font-family="Segoe UI, Helvetica, Arial, sans-serif" font-size="11.00">Layer 1: SDK &amp; Core Interfaces</text>
</g>
<g id="clust4" class="cluster">
<title>cluster_layer2</title>
<path fill="none" stroke="#aaaaaa" stroke-dasharray="5,2" d="M2391,-119C2391,-119 2529,-119 2529,-119 2535,-119 2541,-125 2541,-131 2541,-131 2541,-437.5 2541,-437.5 2541,-443.5 2535,-449.5 2529,-449.5 2529,-449.5 2391,-449.5 2391,-449.5 2385,-449.5 2379,-443.5 2379,-437.5 2379,-437.5 2379,-131 2379,-131 2379,-125 2385,-119 2391,-119"/>
<text text-anchor="middle" x="2460" y="-436.7" font-family="Segoe UI, Helvetica, Arial, sans-serif" font-size="11.00">Layer 2: Core Domain</text>
</g>
<g id="clust5" class="cluster">
<title>cluster_layer3</title>
<path fill="none" stroke="#aaaaaa" stroke-dasharray="5,2" d="M850,-256.5C850,-256.5 1246,-256.5 1246,-256.5 1252,-256.5 1258,-262.5 1258,-268.5 1258,-268.5 1258,-437.5 1258,-437.5 1258,-443.5 1252,-449.5 1246,-449.5 1246,-449.5 850,-449.5 850,-449.5 844,-449.5 838,-443.5 838,-437.5 838,-437.5 838,-268.5 838,-268.5 838,-262.5 844,-256.5 850,-256.5"/>
<text text-anchor="middle" x="1048" y="-436.7" font-family="Segoe UI, Helvetica, Arial, sans-serif" font-size="11.00">Layer 3: Infrastructure &amp; Storage</text>
</g>
<g id="clust6" class="cluster">
<title>cluster_layer4</title>
<path fill="none" stroke="#aaaaaa" stroke-dasharray="5,2" d="M1587,-368.5C1587,-368.5 1977,-368.5 1977,-368.5 1983,-368.5 1989,-374.5 1989,-380.5 1989,-380.5 1989,-437.5 1989,-437.5 1989,-443.5 1983,-449.5 1977,-449.5 1977,-449.5 1587,-449.5 1587,-449.5 1581,-449.5 1575,-443.5 1575,-437.5 1575,-437.5 1575,-380.5 1575,-380.5 1575,-374.5 1581,-368.5 1587,-368.5"/>
<text text-anchor="middle" x="1782" y="-436.7" font-family="Segoe UI, Helvetica, Arial, sans-serif" font-size="11.00">Layer 4: Application Logic &amp; Backtesting SDK</text>
</g>
<g id="clust7" class="cluster">
<title>cluster_layer5</title>
<path fill="none" stroke="#aaaaaa" stroke-dasharray="5,2" d="M20,-368.5C20,-368.5 619,-368.5 619,-368.5 625,-368.5 631,-374.5 631,-380.5 631,-380.5 631,-552.5 631,-552.5 631,-558.5 625,-564.5 619,-564.5 619,-564.5 20,-564.5 20,-564.5 14,-564.5 8,-558.5 8,-552.5 8,-552.5 8,-380.5 8,-380.5 8,-374.5 14,-368.5 20,-368.5"/>
<text text-anchor="middle" x="319.5" y="-551.7" font-family="Segoe UI, Helvetica, Arial, sans-serif" font-size="11.00">Layer 5: Execution, Backtesting, Risk &amp; Strategies</text>
</g>
<g id="clust8" class="cluster">
<title>cluster_layer6</title>
<path fill="none" stroke="#aaaaaa" stroke-dasharray="5,2" d="M1824,-483.5C1824,-483.5 2351,-483.5 2351,-483.5 2357,-483.5 2363,-489.5 2363,-495.5 2363,-495.5 2363,-673 2363,-673 2363,-679 2357,-685 2351,-685 2351,-685 1824,-685 1824,-685 1818,-685 1812,-679 1812,-673 1812,-673 1812,-495.5 1812,-495.5 1812,-489.5 1818,-483.5 1824,-483.5"/>
<text text-anchor="middle" x="2087.5" y="-672.2" font-family="Segoe UI, Helvetica, Arial, sans-serif" font-size="11.00">Layer 6: UI &amp; Presentation</text>
</g>
<g id="clust9" class="cluster">
<title>cluster_layer7</title>
<path fill="none" stroke="#aaaaaa" stroke-dasharray="5,2" d="M3204,-483.5C3204,-483.5 3396,-483.5 3396,-483.5 3402,-483.5 3408,-489.5 3408,-495.5 3408,-495.5 3408,-552.5 3408,-552.5 3408,-558.5 3402,-564.5 3396,-564.5 3396,-564.5 3204,-564.5 3204,-564.5 3198,-564.5 3192,-558.5 3192,-552.5 3192,-552.5 3192,-495.5 3192,-495.5 3192,-489.5 3198,-483.5 3204,-483.5"/>
<text text-anchor="middle" x="3300" y="-551.7" font-family="Segoe UI, Helvetica, Arial, sans-serif" font-size="11.00">Layer 7: Entry Point</text>
</g>
<g id="clust10" class="cluster">
<title>cluster_tests</title>
<path fill="none" stroke="#888888" stroke-dasharray="5,2" d="M484,-598.5C484,-598.5 1780,-598.5 1780,-598.5 1786,-598.5 1792,-604.5 1792,-610.5 1792,-610.5 1792,-678.5 1792,-678.5 1792,-684.5 1786,-690.5 1780,-690.5 1780,-690.5 484,-690.5 484,-690.5 478,-690.5 472,-684.5 472,-678.5 472,-678.5 472,-610.5 472,-610.5 472,-604.5 478,-598.5 484,-598.5"/>
<text text-anchor="middle" x="1132" y="-677.7" font-family="Segoe UI, Helvetica, Arial, sans-serif" font-size="11.00">Test Projects &#160;(8 projects · 371 test files total)</text>
</g>
<g id="clust11" class="cluster">
<title>cluster_benchmarks</title>
<path fill="none" stroke="#888888" stroke-dasharray="5,2" d="M2464,-604C2464,-604 2612,-604 2612,-604 2618,-604 2624,-610 2624,-616 2624,-616 2624,-673 2624,-673 2624,-679 2618,-685 2612,-685 2612,-685 2464,-685 2464,-685 2458,-685 2452,-679 2452,-673 2452,-673 2452,-616 2452,-616 2452,-610 2458,-604 2464,-604"/>
<text text-anchor="middle" x="2538" y="-672.2" font-family="Segoe UI, Helvetica, Arial, sans-serif" font-size="11.00">Benchmarks</text>
</g>
<g id="clust12" class="cluster">
<title>cluster_legend</title>
<path fill="#fafafa" stroke="#888888" d="M2656,-608.5C2656,-608.5 3506,-608.5 3506,-608.5 3512,-608.5 3518,-614.5 3518,-620.5 3518,-620.5 3518,-667.5 3518,-667.5 3518,-673.5 3512,-679.5 3506,-679.5 3506,-679.5 2656,-679.5 2656,-679.5 2650,-679.5 2644,-673.5 2644,-667.5 2644,-667.5 2644,-620.5 2644,-620.5 2644,-614.5 2650,-608.5 2656,-608.5"/>
<text text-anchor="middle" x="3081" y="-667.5" font-family="Segoe UI, Helvetica, Arial, sans-serif" font-size="10.00">Legend</text>
</g>
<!-- Contracts -->
<g id="node1" class="node">
<title>Contracts</title>
<path fill="#e8f5e9" stroke="black" d="M2757,-60C2757,-60 2599,-60 2599,-60 2593,-60 2587,-54 2587,-48 2587,-48 2587,-36 2587,-36 2587,-30 2593,-24 2599,-24 2599,-24 2757,-24 2757,-24 2763,-24 2769,-30 2769,-36 2769,-36 2769,-48 2769,-48 2769,-54 2763,-60 2757,-60"/>
<text text-anchor="middle" x="2678" y="-45" font-family="Segoe UI, Helvetica, Arial, sans-serif" font-size="10.00">Contracts</text>
<text text-anchor="middle" x="2678" y="-34" font-family="Segoe UI, Helvetica, Arial, sans-serif" font-size="10.00">(API models, DTOs, domain events)</text>
</g>
<!-- FSharp -->
<g id="node2" class="node">
<title>FSharp</title>
<path fill="#c8e6c9" stroke="black" d="M2947,-60C2947,-60 2817,-60 2817,-60 2811,-60 2805,-54 2805,-48 2805,-48 2805,-36 2805,-36 2805,-30 2811,-24 2817,-24 2817,-24 2947,-24 2947,-24 2953,-24 2959,-30 2959,-36 2959,-36 2959,-48 2959,-48 2959,-54 2953,-60 2947,-60"/>
<text text-anchor="middle" x="2882" y="-45" font-family="Segoe UI, Helvetica, Arial, sans-serif" font-size="10.00">FSharp</text>
<text text-anchor="middle" x="2882" y="-34" font-family="Segoe UI, Helvetica, Arial, sans-serif" font-size="10.00">(validation, calculations, DUs)</text>
</g>
<!-- FSharpLedger -->
<g id="node3" class="node">
<title>FSharpLedger</title>
<path fill="#c8e6c9" stroke="black" d="M2893,-167.5C2893,-167.5 2797,-167.5 2797,-167.5 2791,-167.5 2785,-161.5 2785,-155.5 2785,-155.5 2785,-143.5 2785,-143.5 2785,-137.5 2791,-131.5 2797,-131.5 2797,-131.5 2893,-131.5 2893,-131.5 2899,-131.5 2905,-137.5 2905,-143.5 2905,-143.5 2905,-155.5 2905,-155.5 2905,-161.5 2899,-167.5 2893,-167.5"/>
<text text-anchor="middle" x="2845" y="-152.5" font-family="Segoe UI, Helvetica, Arial, sans-serif" font-size="10.00">FSharp.Ledger</text>
<text text-anchor="middle" x="2845" y="-141.5" font-family="Segoe UI, Helvetica, Arial, sans-serif" font-size="10.00">(journal, reconciliation)</text>
</g>
<!-- FSharpTrading -->
<g id="node4" class="node">
<title>FSharpTrading</title>
<path fill="#c8e6c9" stroke="black" d="M3073,-167.5C3073,-167.5 2953,-167.5 2953,-167.5 2947,-167.5 2941,-161.5 2941,-155.5 2941,-155.5 2941,-143.5 2941,-143.5 2941,-137.5 2947,-131.5 2953,-131.5 2953,-131.5 3073,-131.5 3073,-131.5 3079,-131.5 3085,-137.5 3085,-143.5 3085,-143.5 3085,-155.5 3085,-155.5 3085,-161.5 3079,-167.5 3073,-167.5"/>
<text text-anchor="middle" x="3013" y="-152.5" font-family="Segoe UI, Helvetica, Arial, sans-serif" font-size="10.00">FSharp.Trading</text>
<text text-anchor="middle" x="3013" y="-141.5" font-family="Segoe UI, Helvetica, Arial, sans-serif" font-size="10.00">(strategy lifecycle F# types)</text>
</g>
<!-- FSharpDL -->
<g id="node5" class="node">
<title>FSharpDL</title>
<path fill="#dcedc8" stroke="black" d="M3279,-167.5C3279,-167.5 3133,-167.5 3133,-167.5 3127,-167.5 3121,-161.5 3121,-155.5 3121,-155.5 3121,-143.5 3121,-143.5 3121,-137.5 3127,-131.5 3133,-131.5 3133,-131.5 3279,-131.5 3279,-131.5 3285,-131.5 3291,-137.5 3291,-143.5 3291,-143.5 3291,-155.5 3291,-155.5 3291,-161.5 3285,-167.5 3279,-167.5"/>
<text text-anchor="middle" x="3206" y="-152.5" font-family="Segoe UI, Helvetica, Arial, sans-serif" font-size="10.00">FSharp.DirectLending.Aggregates</text>
<text text-anchor="middle" x="3206" y="-141.5" font-family="Segoe UI, Helvetica, Arial, sans-serif" font-size="10.00">(contract &amp; servicing aggregates)</text>
</g>
<!-- FSharpDL&#45;&gt;Contracts -->
<g id="edge1" class="edge">
<title>FSharpDL&#45;&gt;Contracts</title>
<path fill="none" stroke="#666666" d="M3177.67,-131.33C3177.67,-109.57 3177.67,-76 3177.67,-76 3177.67,-76 2730,-76 2730,-76 2730,-76 2730,-67.19 2730,-67.19"/>
<polygon fill="#666666" stroke="#666666" points="2732.45,-67.19 2730,-60.19 2727.55,-67.19 2732.45,-67.19"/>
</g>
<!-- FSharpDL&#45;&gt;FSharp -->
<g id="edge2" class="edge">
<title>FSharpDL&#45;&gt;FSharp</title>
<path fill="none" stroke="#666666" d="M3234.33,-131.26C3234.33,-100.59 3234.33,-42 3234.33,-42 3234.33,-42 2966.32,-42 2966.32,-42"/>
<polygon fill="#666666" stroke="#666666" points="2966.32,-39.55 2959.32,-42 2966.32,-44.45 2966.32,-39.55"/>
</g>
<!-- ProviderSdk -->
<g id="node6" class="node">
<title>ProviderSdk</title>
<path fill="#e3f2fd" stroke="black" d="M1261,-172C1261,-172 1119,-172 1119,-172 1113,-172 1107,-166 1107,-160 1107,-160 1107,-139 1107,-139 1107,-133 1113,-127 1119,-127 1119,-127 1261,-127 1261,-127 1267,-127 1273,-133 1273,-139 1273,-139 1273,-160 1273,-160 1273,-166 1267,-172 1261,-172"/>
<text text-anchor="middle" x="1190" y="-158" font-family="Segoe UI, Helvetica, Arial, sans-serif" font-size="10.00">ProviderSdk</text>
<text text-anchor="middle" x="1190" y="-147" font-family="Segoe UI, Helvetica, Arial, sans-serif" font-size="10.00">(IDataSource, IMarketDataClient</text>
<text text-anchor="middle" x="1190" y="-136" font-family="Segoe UI, Helvetica, Arial, sans-serif" font-size="10.00">[DataSource] attribute, registry)</text>
</g>
<!-- ProviderSdk&#45;&gt;Contracts -->
<g id="edge3" class="edge">
<title>ProviderSdk&#45;&gt;Contracts</title>
<path fill="none" stroke="#666666" d="M1190,-126.79C1190,-96.32 1190,-46 1190,-46 1190,-46 2579.88,-46 2579.88,-46"/>
<polygon fill="#666666" stroke="#666666" points="2579.88,-48.45 2586.88,-46 2579.88,-43.55 2579.88,-48.45"/>
</g>
<!-- ExecutionSdk -->
<g id="node7" class="node">
<title>ExecutionSdk</title>
<path fill="#e3f2fd" stroke="black" d="M1058.5,-172C1058.5,-172 899.5,-172 899.5,-172 893.5,-172 887.5,-166 887.5,-160 887.5,-160 887.5,-139 887.5,-139 887.5,-133 893.5,-127 899.5,-127 899.5,-127 1058.5,-127 1058.5,-127 1064.5,-127 1070.5,-133 1070.5,-139 1070.5,-139 1070.5,-160 1070.5,-160 1070.5,-166 1064.5,-172 1058.5,-172"/>
<text text-anchor="middle" x="979" y="-158" font-family="Segoe UI, Helvetica, Arial, sans-serif" font-size="10.00">Execution.Sdk</text>
<text text-anchor="middle" x="979" y="-147" font-family="Segoe UI, Helvetica, Arial, sans-serif" font-size="10.00">(IOrderGateway, IBrokerageGateway</text>
<text text-anchor="middle" x="979" y="-136" font-family="Segoe UI, Helvetica, Arial, sans-serif" font-size="10.00">IOrderManager, IPositionTracker)</text>
</g>
<!-- ExecutionSdk&#45;&gt;Contracts -->
<g id="edge4" class="edge">
<title>ExecutionSdk&#45;&gt;Contracts</title>
<path fill="none" stroke="#666666" d="M979,-126.81C979,-94.74 979,-40 979,-40 979,-40 2579.95,-40 2579.95,-40"/>
<polygon fill="#666666" stroke="#666666" points="2579.95,-42.45 2586.95,-40 2579.95,-37.55 2579.95,-42.45"/>
</g>
<!-- IbApiStub -->
<g id="node8" class="node">
<title>IbApiStub</title>
<path fill="#e3f2fd" stroke="black" stroke-dasharray="5,2" d="M839.5,-167.5C839.5,-167.5 732.5,-167.5 732.5,-167.5 726.5,-167.5 720.5,-161.5 720.5,-155.5 720.5,-155.5 720.5,-143.5 720.5,-143.5 720.5,-137.5 726.5,-131.5 732.5,-131.5 732.5,-131.5 839.5,-131.5 839.5,-131.5 845.5,-131.5 851.5,-137.5 851.5,-143.5 851.5,-143.5 851.5,-155.5 851.5,-155.5 851.5,-161.5 845.5,-167.5 839.5,-167.5"/>
<text text-anchor="middle" x="786" y="-152.5" font-family="Segoe UI, Helvetica, Arial, sans-serif" font-size="10.00">IbApi.SmokeStub</text>
<text text-anchor="middle" x="786" y="-141.5" font-family="Segoe UI, Helvetica, Arial, sans-serif" font-size="10.00">(IB API smoke&#45;test stub)</text>
</g>
<!-- Domain -->
<g id="node9" class="node">
<title>Domain</title>
<path fill="#e1f5fe" stroke="black" d="M2515,-172C2515,-172 2399,-172 2399,-172 2393,-172 2387,-166 2387,-160 2387,-160 2387,-139 2387,-139 2387,-133 2393,-127 2399,-127 2399,-127 2515,-127 2515,-127 2521,-127 2527,-133 2527,-139 2527,-139 2527,-160 2527,-160 2527,-166 2521,-172 2515,-172"/>
<text text-anchor="middle" x="2457" y="-158" font-family="Segoe UI, Helvetica, Arial, sans-serif" font-size="10.00">Domain</text>
<text text-anchor="middle" x="2457" y="-147" font-family="Segoe UI, Helvetica, Arial, sans-serif" font-size="10.00">(collectors, events, models</text>
<text text-anchor="middle" x="2457" y="-136" font-family="Segoe UI, Helvetica, Arial, sans-serif" font-size="10.00">MarketEvent hierarchy)</text>
</g>
<!-- Domain&#45;&gt;Contracts -->
<g id="edge5" class="edge">
<title>Domain&#45;&gt;Contracts</title>
<path fill="none" stroke="#666666" d="M2527.14,-140C2559.88,-140 2591.75,-140 2591.75,-140 2591.75,-140 2591.75,-67.43 2591.75,-67.43"/>
<polygon fill="#666666" stroke="#666666" points="2594.2,-67.43 2591.75,-60.43 2589.3,-67.43 2594.2,-67.43"/>
</g>
<!-- Domain&#45;&gt;ProviderSdk -->
<g id="edge6" class="edge">
<title>Domain&#45;&gt;ProviderSdk</title>
<path fill="none" stroke="#666666" d="M2386.62,-133C2386.62,-133 1280.37,-133 1280.37,-133"/>
<polygon fill="#666666" stroke="#666666" points="1280.37,-130.55 1273.37,-133 1280.37,-135.45 1280.37,-130.55"/>
</g>
<!-- Core -->
<g id="node10" class="node">
<title>Core</title>
<path fill="#e1f5fe" stroke="black" d="M2521,-309.5C2521,-309.5 2399,-309.5 2399,-309.5 2393,-309.5 2387,-303.5 2387,-297.5 2387,-297.5 2387,-276.5 2387,-276.5 2387,-270.5 2393,-264.5 2399,-264.5 2399,-264.5 2521,-264.5 2521,-264.5 2527,-264.5 2533,-270.5 2533,-276.5 2533,-276.5 2533,-297.5 2533,-297.5 2533,-303.5 2527,-309.5 2521,-309.5"/>
<text text-anchor="middle" x="2460" y="-295.5" font-family="Segoe UI, Helvetica, Arial, sans-serif" font-size="10.00">Core</text>
<text text-anchor="middle" x="2460" y="-284.5" font-family="Segoe UI, Helvetica, Arial, sans-serif" font-size="10.00">(config, logging, serialization</text>
<text text-anchor="middle" x="2460" y="-273.5" font-family="Segoe UI, Helvetica, Arial, sans-serif" font-size="10.00">schedules, performance)</text>
</g>
<!-- Core&#45;&gt;Contracts -->
<g id="edge7" class="edge">
<title>Core&#45;&gt;Contracts</title>
<path fill="none" stroke="#666666" d="M2533.05,-275C2565.5,-275 2596.5,-275 2596.5,-275 2596.5,-275 2596.5,-67.28 2596.5,-67.28"/>
<polygon fill="#666666" stroke="#666666" points="2598.95,-67.28 2596.5,-60.28 2594.05,-67.28 2598.95,-67.28"/>
</g>
<!-- Core&#45;&gt;ProviderSdk -->
<g id="edge9" class="edge">
<title>Core&#45;&gt;ProviderSdk</title>
<path fill="none" stroke="#666666" d="M2386.85,-270C2126.69,-270 1261.75,-270 1261.75,-270 1261.75,-270 1261.75,-179.17 1261.75,-179.17"/>
<polygon fill="#666666" stroke="#666666" points="1264.2,-179.17 1261.75,-172.17 1259.3,-179.17 1264.2,-179.17"/>
</g>
<!-- Core&#45;&gt;Domain -->
<g id="edge8" class="edge">
<title>Core&#45;&gt;Domain</title>
<path fill="none" stroke="#666666" d="M2499,-264.29C2499,-264.29 2499,-179.24 2499,-179.24"/>
<polygon fill="#666666" stroke="#666666" points="2501.45,-179.24 2499,-172.24 2496.55,-179.24 2501.45,-179.24"/>
</g>
<!-- Ledger -->
<g id="node11" class="node">
<title>Ledger</title>
<path fill="#e1f5fe" stroke="black" d="M2520.5,-421.5C2520.5,-421.5 2399.5,-421.5 2399.5,-421.5 2393.5,-421.5 2387.5,-415.5 2387.5,-409.5 2387.5,-409.5 2387.5,-388.5 2387.5,-388.5 2387.5,-382.5 2393.5,-376.5 2399.5,-376.5 2399.5,-376.5 2520.5,-376.5 2520.5,-376.5 2526.5,-376.5 2532.5,-382.5 2532.5,-388.5 2532.5,-388.5 2532.5,-409.5 2532.5,-409.5 2532.5,-415.5 2526.5,-421.5 2520.5,-421.5"/>
<text text-anchor="middle" x="2460" y="-407.5" font-family="Segoe UI, Helvetica, Arial, sans-serif" font-size="10.00">Ledger</text>
<text text-anchor="middle" x="2460" y="-396.5" font-family="Segoe UI, Helvetica, Arial, sans-serif" font-size="10.00">(double&#45;entry journal</text>
<text text-anchor="middle" x="2460" y="-385.5" font-family="Segoe UI, Helvetica, Arial, sans-serif" font-size="10.00">fund &amp; project ledger books)</text>
</g>
<!-- Ledger&#45;&gt;FSharpLedger -->
<g id="edge11" class="edge">
<title>Ledger&#45;&gt;FSharpLedger</title>
<path fill="none" stroke="#666666" d="M2532.88,-399C2631.16,-399 2794,-399 2794,-399 2794,-399 2794,-174.85 2794,-174.85"/>
<polygon fill="#666666" stroke="#666666" points="2796.45,-174.85 2794,-167.85 2791.55,-174.85 2796.45,-174.85"/>
</g>
<!-- Ledger&#45;&gt;Core -->
<g id="edge10" class="edge">
<title>Ledger&#45;&gt;Core</title>
<path fill="none" stroke="#666666" d="M2484.17,-376.34C2484.17,-376.34 2484.17,-316.63 2484.17,-316.63"/>
<polygon fill="#666666" stroke="#666666" points="2486.62,-316.63 2484.17,-309.63 2481.72,-316.63 2486.62,-316.63"/>
</g>
<!-- Infrastructure -->
<g id="node12" class="node">
<title>Infrastructure</title>
<path fill="#fff3e0" stroke="black" d="M990,-309.5C990,-309.5 858,-309.5 858,-309.5 852,-309.5 846,-303.5 846,-297.5 846,-297.5 846,-276.5 846,-276.5 846,-270.5 852,-264.5 858,-264.5 858,-264.5 990,-264.5 990,-264.5 996,-264.5 1002,-270.5 1002,-276.5 1002,-276.5 1002,-297.5 1002,-297.5 1002,-303.5 996,-309.5 990,-309.5"/>
<text text-anchor="middle" x="924" y="-295.5" font-family="Segoe UI, Helvetica, Arial, sans-serif" font-size="10.00">Infrastructure</text>
<text text-anchor="middle" x="924" y="-284.5" font-family="Segoe UI, Helvetica, Arial, sans-serif" font-size="10.00">(streaming providers, historical</text>
<text text-anchor="middle" x="924" y="-273.5" font-family="Segoe UI, Helvetica, Arial, sans-serif" font-size="10.00">providers, resilience, HTTP)</text>
</g>
<!-- Infrastructure&#45;&gt;Contracts -->
<g id="edge14" class="edge">
<title>Infrastructure&#45;&gt;Contracts</title>
<path fill="none" stroke="#666666" d="M869.5,-264.37C869.5,-202.83 869.5,-37 869.5,-37 869.5,-37 2579.77,-37 2579.77,-37"/>
<polygon fill="#666666" stroke="#666666" points="2579.77,-39.45 2586.77,-37 2579.77,-34.55 2579.77,-39.45"/>
</g>
<!-- Infrastructure&#45;&gt;ProviderSdk -->
<g id="edge15" class="edge">
<title>Infrastructure&#45;&gt;ProviderSdk</title>
<path fill="none" stroke="#666666" d="M1002.23,-267C1060.82,-267 1130.92,-267 1130.92,-267 1130.92,-267 1130.92,-179.16 1130.92,-179.16"/>
<polygon fill="#666666" stroke="#666666" points="1133.37,-179.16 1130.92,-172.16 1128.47,-179.16 1133.37,-179.16"/>
</g>
<!-- Infrastructure&#45;&gt;Domain -->
<g id="edge13" class="edge">
<title>Infrastructure&#45;&gt;Domain</title>
<path fill="none" stroke="#666666" d="M1002.15,-274C1106.98,-274 1280.12,-274 1280.12,-274 1280.12,-274 1280.12,-139 1280.12,-139 1280.12,-139 2379.91,-139 2379.91,-139"/>
<polygon fill="#666666" stroke="#666666" points="2379.91,-141.45 2386.91,-139 2379.91,-136.55 2379.91,-141.45"/>
</g>
<!-- Infrastructure&#45;&gt;Core -->
<g id="edge12" class="edge">
<title>Infrastructure&#45;&gt;Core</title>
<path fill="none" stroke="#666666" d="M1002.02,-277C1002.02,-277 2379.8,-277 2379.8,-277"/>
<polygon fill="#666666" stroke="#666666" points="2379.8,-279.45 2386.8,-277 2379.8,-274.55 2379.8,-279.45"/>
</g>
<!-- Storage -->
<g id="node13" class="node">
<title>Storage</title>
<path fill="#fff3e0" stroke="black" d="M1238.5,-421.5C1238.5,-421.5 1049.5,-421.5 1049.5,-421.5 1043.5,-421.5 1037.5,-415.5 1037.5,-409.5 1037.5,-409.5 1037.5,-388.5 1037.5,-388.5 1037.5,-382.5 1043.5,-376.5 1049.5,-376.5 1049.5,-376.5 1238.5,-376.5 1238.5,-376.5 1244.5,-376.5 1250.5,-382.5 1250.5,-388.5 1250.5,-388.5 1250.5,-409.5 1250.5,-409.5 1250.5,-415.5 1244.5,-421.5 1238.5,-421.5"/>
<text text-anchor="middle" x="1144" y="-407.5" font-family="Segoe UI, Helvetica, Arial, sans-serif" font-size="10.00">Storage</text>
<text text-anchor="middle" x="1144" y="-396.5" font-family="Segoe UI, Helvetica, Arial, sans-serif" font-size="10.00">(WAL, JSONL/Parquet sinks, tiered storage</text>
<text text-anchor="middle" x="1144" y="-385.5" font-family="Segoe UI, Helvetica, Arial, sans-serif" font-size="10.00">export, security master, packaging)</text>
</g>
<!-- Storage&#45;&gt;Contracts -->
<g id="edge18" class="edge">
<title>Storage&#45;&gt;Contracts</title>
<path fill="none" stroke="#666666" d="M1088.75,-376.46C1088.75,-298.2 1088.75,-43 1088.75,-43 1088.75,-43 2579.85,-43 2579.85,-43"/>
<polygon fill="#666666" stroke="#666666" points="2579.85,-45.45 2586.85,-43 2579.85,-40.55 2579.85,-45.45"/>
</g>
<!-- Storage&#45;&gt;ProviderSdk -->
<g id="edge19" class="edge">
<title>Storage&#45;&gt;ProviderSdk</title>
<path fill="none" stroke="#666666" d="M1202.67,-376.42C1202.67,-376.42 1202.67,-179.21 1202.67,-179.21"/>
<polygon fill="#666666" stroke="#666666" points="1205.12,-179.21 1202.67,-172.21 1200.22,-179.21 1205.12,-179.21"/>
</g>
<!-- Storage&#45;&gt;Domain -->
<g id="edge17" class="edge">
<title>Storage&#45;&gt;Domain</title>
<path fill="none" stroke="#666666" d="M1250.73,-399C1271.64,-399 1287.25,-399 1287.25,-399 1287.25,-399 1287.25,-146 1287.25,-146 1287.25,-146 2379.9,-146 2379.9,-146"/>
<polygon fill="#666666" stroke="#666666" points="2379.9,-148.45 2386.9,-146 2379.9,-143.55 2379.9,-148.45"/>
</g>
<!-- Storage&#45;&gt;Core -->
<g id="edge16" class="edge">
<title>Storage&#45;&gt;Core</title>
<path fill="none" stroke="#666666" d="M1226.58,-376.4C1226.58,-346.08 1226.58,-296 1226.58,-296 1226.58,-296 2379.99,-296 2379.99,-296"/>
<polygon fill="#666666" stroke="#666666" points="2379.99,-298.45 2386.99,-296 2379.99,-293.55 2379.99,-298.45"/>
</g>
<!-- CppTrader -->
<g id="node14" class="node">
<title>CppTrader</title>
<path fill="#fff3e0" stroke="black" stroke-dasharray="5,2" d="M989.5,-421.5C989.5,-421.5 858.5,-421.5 858.5,-421.5 852.5,-421.5 846.5,-415.5 846.5,-409.5 846.5,-409.5 846.5,-388.5 846.5,-388.5 846.5,-382.5 852.5,-376.5 858.5,-376.5 858.5,-376.5 989.5,-376.5 989.5,-376.5 995.5,-376.5 1001.5,-382.5 1001.5,-388.5 1001.5,-388.5 1001.5,-409.5 1001.5,-409.5 1001.5,-415.5 995.5,-421.5 989.5,-421.5"/>
<text text-anchor="middle" x="924" y="-407.5" font-family="Segoe UI, Helvetica, Arial, sans-serif" font-size="10.00">Infrastructure.CppTrader</text>
<text text-anchor="middle" x="924" y="-396.5" font-family="Segoe UI, Helvetica, Arial, sans-serif" font-size="10.00">(native matching engine bridge</text>
<text text-anchor="middle" x="924" y="-385.5" font-family="Segoe UI, Helvetica, Arial, sans-serif" font-size="10.00">ITCH ingestion, replay)</text>
</g>
<!-- CppTrader&#45;&gt;Contracts -->
<g id="edge26" class="edge">
<title>CppTrader&#45;&gt;Contracts</title>
<path fill="none" stroke="#666666" d="M962.75,-376.44C962.75,-370.64 962.75,-366 962.75,-366 962.75,-366 2601.25,-366 2601.25,-366 2601.25,-366 2601.25,-67.35 2601.25,-67.35"/>
<polygon fill="#666666" stroke="#666666" points="2603.7,-67.35 2601.25,-60.35 2598.8,-67.35 2603.7,-67.35"/>
</g>
<!-- CppTrader&#45;&gt;ProviderSdk -->
<g id="edge23" class="edge">
<title>CppTrader&#45;&gt;ProviderSdk</title>
<path fill="none" stroke="#666666" d="M924,-376.14C924,-355.39 924,-328 924,-328 924,-328 1178.75,-328 1178.75,-328 1178.75,-328 1178.75,-179.11 1178.75,-179.11"/>
<polygon fill="#666666" stroke="#666666" points="1181.2,-179.11 1178.75,-172.11 1176.3,-179.11 1181.2,-179.11"/>
</g>
<!-- CppTrader&#45;&gt;ExecutionSdk -->
<g id="edge21" class="edge">
<title>CppTrader&#45;&gt;ExecutionSdk</title>
<path fill="none" stroke="#666666" d="M1001.54,-387C1004.32,-387 1005.94,-387 1005.94,-387 1005.94,-387 1005.94,-179.27 1005.94,-179.27"/>
<polygon fill="#666666" stroke="#666666" points="1008.39,-179.27 1005.94,-172.27 1003.49,-179.27 1008.39,-179.27"/>
</g>
<!-- CppTrader&#45;&gt;Domain -->
<g id="edge25" class="edge">
<title>CppTrader&#45;&gt;Domain</title>
<path fill="none" stroke="#666666" d="M1001.65,-399C1006.74,-399 1009.89,-399 1009.89,-399 1009.89,-399 1009.89,-233 1009.89,-233 1009.89,-233 2443,-233 2443,-233 2443,-233 2443,-179.32 2443,-179.32"/>
<polygon fill="#666666" stroke="#666666" points="2445.45,-179.32 2443,-172.32 2440.55,-179.32 2445.45,-179.32"/>
</g>
<!-- CppTrader&#45;&gt;Core -->
<g id="edge24" class="edge">
<title>CppTrader&#45;&gt;Core</title>
<path fill="none" stroke="#666666" d="M1001.72,-410C1009.06,-410 1013.83,-410 1013.83,-410 1013.83,-410 1013.83,-280 1013.83,-280 1013.83,-280 2379.8,-280 2379.8,-280"/>
<polygon fill="#666666" stroke="#666666" points="2379.8,-282.45 2386.8,-280 2379.8,-277.55 2379.8,-282.45"/>
</g>
<!-- CppTrader&#45;&gt;Infrastructure -->
<g id="edge22" class="edge">
<title>CppTrader&#45;&gt;Infrastructure</title>
<path fill="none" stroke="#666666" d="M885.25,-376.34C885.25,-376.34 885.25,-316.63 885.25,-316.63"/>
<polygon fill="#666666" stroke="#666666" points="887.7,-316.63 885.25,-309.63 882.8,-316.63 887.7,-316.63"/>
</g>
<!-- Execution -->
<g id="node17" class="node">
<title>Execution</title>
<path fill="#f3e5f5" stroke="black" d="M576,-421.5C576,-421.5 430,-421.5 430,-421.5 424,-421.5 418,-415.5 418,-409.5 418,-409.5 418,-388.5 418,-388.5 418,-382.5 424,-376.5 430,-376.5 430,-376.5 576,-376.5 576,-376.5 582,-376.5 588,-382.5 588,-388.5 588,-388.5 588,-409.5 588,-409.5 588,-415.5 582,-421.5 576,-421.5"/>
<text text-anchor="middle" x="503" y="-407.5" font-family="Segoe UI, Helvetica, Arial, sans-serif" font-size="10.00">Execution</text>
<text text-anchor="middle" x="503" y="-396.5" font-family="Segoe UI, Helvetica, Arial, sans-serif" font-size="10.00">(PaperTradingGateway, OMS</text>
<text text-anchor="middle" x="503" y="-385.5" font-family="Segoe UI, Helvetica, Arial, sans-serif" font-size="10.00">brokerage adapters, risk gateway)</text>
</g>
<!-- CppTrader&#45;&gt;Execution -->
<g id="edge20" class="edge">
<title>CppTrader&#45;&gt;Execution</title>
<path fill="none" stroke="#666666" d="M846.29,-399C846.29,-399 595.22,-399 595.22,-399"/>
<polygon fill="#666666" stroke="#666666" points="595.22,-396.55 588.22,-399 595.22,-401.45 595.22,-396.55"/>
</g>
<!-- Application -->
<g id="node15" class="node">
<title>Application</title>
<path fill="#fce4ec" stroke="black" d="M1969,-421.5C1969,-421.5 1817,-421.5 1817,-421.5 1811,-421.5 1805,-415.5 1805,-409.5 1805,-409.5 1805,-388.5 1805,-388.5 1805,-382.5 1811,-376.5 1817,-376.5 1817,-376.5 1969,-376.5 1969,-376.5 1975,-376.5 1981,-382.5 1981,-388.5 1981,-388.5 1981,-409.5 1981,-409.5 1981,-415.5 1975,-421.5 1969,-421.5"/>
<text text-anchor="middle" x="1893" y="-407.5" font-family="Segoe UI, Helvetica, Arial, sans-serif" font-size="10.00">Application</text>
<text text-anchor="middle" x="1893" y="-396.5" font-family="Segoe UI, Helvetica, Arial, sans-serif" font-size="10.00">(pipeline, backfill, canonicalization</text>
<text text-anchor="middle" x="1893" y="-385.5" font-family="Segoe UI, Helvetica, Arial, sans-serif" font-size="10.00">monitoring, security master, config)</text>
</g>
<!-- Application&#45;&gt;Contracts -->
<g id="edge31" class="edge">
<title>Application&#45;&gt;Contracts</title>
<path fill="none" stroke="#666666" d="M1905.57,-376.43C1905.57,-299.32 1905.57,-51 1905.57,-51 1905.57,-51 2579.74,-51 2579.74,-51"/>
<polygon fill="#666666" stroke="#666666" points="2579.74,-53.45 2586.74,-51 2579.74,-48.55 2579.74,-53.45"/>
</g>
<!-- Application&#45;&gt;ProviderSdk -->
<g id="edge32" class="edge">
<title>Application&#45;&gt;ProviderSdk</title>
<path fill="none" stroke="#666666" d="M1880.43,-376.14C1880.43,-317.26 1880.43,-165 1880.43,-165 1880.43,-165 1280.28,-165 1280.28,-165"/>
<polygon fill="#666666" stroke="#666666" points="1280.28,-162.55 1273.28,-165 1280.28,-167.45 1280.28,-162.55"/>
</g>
<!-- Application&#45;&gt;Domain -->
<g id="edge30" class="edge">
<title>Application&#45;&gt;Domain</title>
<path fill="none" stroke="#666666" d="M1930.71,-376.42C1930.71,-316.68 1930.71,-159 1930.71,-159 1930.71,-159 2379.84,-159 2379.84,-159"/>
<polygon fill="#666666" stroke="#666666" points="2379.84,-161.45 2386.84,-159 2379.84,-156.55 2379.84,-161.45"/>
</g>
<!-- Application&#45;&gt;Core -->
<g id="edge29" class="edge">
<title>Application&#45;&gt;Core</title>
<path fill="none" stroke="#666666" d="M1955.86,-376.25C1955.86,-347.86 1955.86,-303 1955.86,-303 1955.86,-303 2379.96,-303 2379.96,-303"/>
<polygon fill="#666666" stroke="#666666" points="2379.96,-305.45 2386.96,-303 2379.96,-300.55 2379.96,-305.45"/>
</g>
<!-- Application&#45;&gt;Infrastructure -->
<g id="edge27" class="edge">
<title>Application&#45;&gt;Infrastructure</title>
<path fill="none" stroke="#666666" d="M1855.29,-376.42C1855.29,-344.49 1855.29,-290 1855.29,-290 1855.29,-290 1009.2,-290 1009.2,-290"/>
<polygon fill="#666666" stroke="#666666" points="1009.2,-287.55 1002.2,-290 1009.2,-292.45 1009.2,-287.55"/>
</g>
<!-- Application&#45;&gt;Storage -->
<g id="edge28" class="edge">
<title>Application&#45;&gt;Storage</title>
<path fill="none" stroke="#666666" d="M1814.3,-421.56C1814.3,-425.31 1814.3,-428 1814.3,-428 1814.3,-428 1235.17,-428 1235.17,-428 1235.17,-428 1235.17,-427.36 1235.17,-427.36"/>
<polygon fill="#666666" stroke="#666666" points="1237.62,-428.56 1235.17,-421.56 1232.72,-428.56 1237.62,-428.56"/>
</g>
<!-- BacktestSdk -->
<g id="node16" class="node">
<title>BacktestSdk</title>
<path fill="#fce4ec" stroke="black" d="M1757,-421.5C1757,-421.5 1595,-421.5 1595,-421.5 1589,-421.5 1583,-415.5 1583,-409.5 1583,-409.5 1583,-388.5 1583,-388.5 1583,-382.5 1589,-376.5 1595,-376.5 1595,-376.5 1757,-376.5 1757,-376.5 1763,-376.5 1769,-382.5 1769,-388.5 1769,-388.5 1769,-409.5 1769,-409.5 1769,-415.5 1763,-421.5 1757,-421.5"/>
<text text-anchor="middle" x="1676" y="-407.5" font-family="Segoe UI, Helvetica, Arial, sans-serif" font-size="10.00">Backtesting.Sdk</text>
<text text-anchor="middle" x="1676" y="-396.5" font-family="Segoe UI, Helvetica, Arial, sans-serif" font-size="10.00">(IBacktestStrategy, IBacktestContext</text>
<text text-anchor="middle" x="1676" y="-385.5" font-family="Segoe UI, Helvetica, Arial, sans-serif" font-size="10.00">Order, Fill, PortfolioSnapshot)</text>
</g>
<!-- BacktestSdk&#45;&gt;Contracts -->
<g id="edge33" class="edge">
<title>BacktestSdk&#45;&gt;Contracts</title>
<path fill="none" stroke="#666666" d="M1676,-376.24C1676,-298.46 1676,-48 1676,-48 1676,-48 2579.87,-48 2579.87,-48"/>
<polygon fill="#666666" stroke="#666666" points="2579.87,-50.45 2586.87,-48 2579.87,-45.55 2579.87,-50.45"/>
</g>
<!-- BacktestSdk&#45;&gt;Ledger -->
<g id="edge34" class="edge">
<title>BacktestSdk&#45;&gt;Ledger</title>
<path fill="none" stroke="#666666" d="M1728.25,-421.56C1728.25,-427.36 1728.25,-432 1728.25,-432 1728.25,-432 2405.75,-432 2405.75,-432 2405.75,-432 2405.75,-428.56 2405.75,-428.56"/>
<polygon fill="#666666" stroke="#666666" points="2408.2,-428.56 2405.75,-421.56 2403.3,-428.56 2408.2,-428.56"/>
</g>
<!-- Execution&#45;&gt;Contracts -->
<g id="edge39" class="edge">
<title>Execution&#45;&gt;Contracts</title>
<path fill="none" stroke="#666666" d="M460.5,-376.32C460.5,-296.31 460.5,-32 460.5,-32 460.5,-32 2579.94,-32 2579.94,-32"/>
<polygon fill="#666666" stroke="#666666" points="2579.94,-34.45 2586.94,-32 2579.94,-29.55 2579.94,-34.45"/>
</g>
<!-- Execution&#45;&gt;ExecutionSdk -->
<g id="edge35" class="edge">
<title>Execution&#45;&gt;ExecutionSdk</title>
<path fill="none" stroke="#666666" d="M545.5,-376.4C545.5,-324.66 545.5,-202 545.5,-202 545.5,-202 963.83,-202 963.83,-202 963.83,-202 963.83,-179.07 963.83,-179.07"/>
<polygon fill="#666666" stroke="#666666" points="966.28,-179.07 963.83,-172.07 961.38,-179.07 966.28,-179.07"/>
</g>
<!-- Execution&#45;&gt;Core -->
<g id="edge38" class="edge">
<title>Execution&#45;&gt;Core</title>
<path fill="none" stroke="#666666" d="M503,-376.03C503,-366.23 503,-357 503,-357 503,-357 2435.83,-357 2435.83,-357 2435.83,-357 2435.83,-316.53 2435.83,-316.53"/>
<polygon fill="#666666" stroke="#666666" points="2438.28,-316.53 2435.83,-309.53 2433.38,-316.53 2438.28,-316.53"/>
</g>
<!-- Execution&#45;&gt;Ledger -->
<g id="edge36" class="edge">
<title>Execution&#45;&gt;Ledger</title>
<path fill="none" stroke="#666666" d="M482,-421.66C482,-434.89 482,-449 482,-449 482,-449 2424,-449 2424,-449 2424,-449 2424,-428.66 2424,-428.66"/>
<polygon fill="#666666" stroke="#666666" points="2426.45,-428.66 2424,-421.66 2421.55,-428.66 2426.45,-428.66"/>
</g>
<!-- Execution&#45;&gt;Application -->
<g id="edge37" class="edge">
<title>Execution&#45;&gt;Application</title>
<path fill="none" stroke="#666666" d="M508.5,-421.67C508.5,-433.69 508.5,-446 508.5,-446 508.5,-446 1808.1,-446 1808.1,-446 1808.1,-446 1808.1,-428.67 1808.1,-428.67"/>
<polygon fill="#666666" stroke="#666666" points="1810.55,-428.67 1808.1,-421.67 1805.65,-428.67 1810.55,-428.67"/>
</g>
<!-- Backtesting -->
<g id="node18" class="node">
<title>Backtesting</title>
<path fill="#f3e5f5" stroke="black" d="M369.5,-421.5C369.5,-421.5 248.5,-421.5 248.5,-421.5 242.5,-421.5 236.5,-415.5 236.5,-409.5 236.5,-409.5 236.5,-388.5 236.5,-388.5 236.5,-382.5 242.5,-376.5 248.5,-376.5 248.5,-376.5 369.5,-376.5 369.5,-376.5 375.5,-376.5 381.5,-382.5 381.5,-388.5 381.5,-388.5 381.5,-409.5 381.5,-409.5 381.5,-415.5 375.5,-421.5 369.5,-421.5"/>
<text text-anchor="middle" x="309" y="-407.5" font-family="Segoe UI, Helvetica, Arial, sans-serif" font-size="10.00">Backtesting</text>
<text text-anchor="middle" x="309" y="-396.5" font-family="Segoe UI, Helvetica, Arial, sans-serif" font-size="10.00">(BacktestEngine, fill models</text>
<text text-anchor="middle" x="309" y="-385.5" font-family="Segoe UI, Helvetica, Arial, sans-serif" font-size="10.00">metrics engine, XIRR)</text>
</g>
<!-- Backtesting&#45;&gt;Storage -->
<g id="edge41" class="edge">
<title>Backtesting&#45;&gt;Storage</title>
<path fill="none" stroke="#666666" d="M333.17,-376.34C333.17,-362.33 333.17,-347 333.17,-347 333.17,-347 1054,-347 1054,-347 1054,-347 1054,-369.34 1054,-369.34"/>
<polygon fill="#666666" stroke="#666666" points="1051.55,-369.34 1054,-376.34 1056.45,-369.34 1051.55,-369.34"/>
</g>
<!-- Backtesting&#45;&gt;Application -->
<g id="edge42" class="edge">
<title>Backtesting&#45;&gt;Application</title>
<path fill="none" stroke="#666666" d="M284.83,-376.29C284.83,-358.94 284.83,-338 284.83,-338 284.83,-338 1830.14,-338 1830.14,-338 1830.14,-338 1830.14,-369.29 1830.14,-369.29"/>
<polygon fill="#666666" stroke="#666666" points="1827.69,-369.29 1830.14,-376.29 1832.59,-369.29 1827.69,-369.29"/>
</g>
<!-- Backtesting&#45;&gt;BacktestSdk -->
<g id="edge40" class="edge">
<title>Backtesting&#45;&gt;BacktestSdk</title>
<path fill="none" stroke="#666666" d="M319.36,-421.71C319.36,-439.06 319.36,-460 319.36,-460 319.36,-460 1591.56,-460 1591.56,-460 1591.56,-460 1591.56,-428.71 1591.56,-428.71"/>
<polygon fill="#666666" stroke="#666666" points="1594.01,-428.71 1591.56,-421.71 1589.11,-428.71 1594.01,-428.71"/>
</g>
<!-- Risk -->
<g id="node19" class="node">
<title>Risk</title>
<path fill="#f3e5f5" stroke="black" d="M176,-536.5C176,-536.5 28,-536.5 28,-536.5 22,-536.5 16,-530.5 16,-524.5 16,-524.5 16,-503.5 16,-503.5 16,-497.5 22,-491.5 28,-491.5 28,-491.5 176,-491.5 176,-491.5 182,-491.5 188,-497.5 188,-503.5 188,-503.5 188,-524.5 188,-524.5 188,-530.5 182,-536.5 176,-536.5"/>
<text text-anchor="middle" x="102" y="-522.5" font-family="Segoe UI, Helvetica, Arial, sans-serif" font-size="10.00">Risk</text>
<text text-anchor="middle" x="102" y="-511.5" font-family="Segoe UI, Helvetica, Arial, sans-serif" font-size="10.00">(CompositeRiskValidator</text>
<text text-anchor="middle" x="102" y="-500.5" font-family="Segoe UI, Helvetica, Arial, sans-serif" font-size="10.00">position limits, drawdown, throttle)</text>
</g>
<!-- Risk&#45;&gt;Contracts -->
<g id="edge45" class="edge">
<title>Risk&#45;&gt;Contracts</title>
<path fill="none" stroke="#666666" d="M50.4,-491.44C50.4,-395.47 50.4,-26 50.4,-26 50.4,-26 2579.79,-26 2579.79,-26"/>
<polygon fill="#666666" stroke="#666666" points="2579.79,-28.45 2586.79,-26 2579.79,-23.55 2579.79,-28.45"/>
</g>
<!-- Risk&#45;&gt;FSharp -->
<g id="edge46" class="edge">
<title>Risk&#45;&gt;FSharp</title>
<path fill="none" stroke="#666666" d="M84.8,-491.37C84.8,-403.92 84.8,-93 84.8,-93 84.8,-93 2838.33,-93 2838.33,-93 2838.33,-93 2838.33,-67.12 2838.33,-67.12"/>
<polygon fill="#666666" stroke="#666666" points="2840.78,-67.12 2838.33,-60.12 2835.88,-67.12 2840.78,-67.12"/>
</g>
<!-- Risk&#45;&gt;ExecutionSdk -->
<g id="edge43" class="edge">
<title>Risk&#45;&gt;ExecutionSdk</title>
<path fill="none" stroke="#666666" d="M119.2,-491.27C119.2,-417.11 119.2,-187 119.2,-187 119.2,-187 925.67,-187 925.67,-187 925.67,-187 925.67,-179.18 925.67,-179.18"/>
<polygon fill="#666666" stroke="#666666" points="928.12,-179.18 925.67,-172.18 923.22,-179.18 928.12,-179.18"/>
</g>
<!-- Risk&#45;&gt;Execution -->
<g id="edge44" class="edge">
<title>Risk&#45;&gt;Execution</title>
<path fill="none" stroke="#666666" d="M153.6,-491.08C153.6,-464.71 153.6,-425 153.6,-425 153.6,-425 423.5,-425 423.5,-425 423.5,-425 423.5,-424.68 423.5,-424.68"/>
<polygon fill="#666666" stroke="#666666" points="425.95,-428.81 423.5,-421.81 421.05,-428.81 425.95,-428.81"/>
</g>
<!-- Strategies -->
<g id="node20" class="node">
<title>Strategies</title>
<path fill="#f3e5f5" stroke="black" d="M611,-536.5C611,-536.5 441,-536.5 441,-536.5 435,-536.5 429,-530.5 429,-524.5 429,-524.5 429,-503.5 429,-503.5 429,-497.5 435,-491.5 441,-491.5 441,-491.5 611,-491.5 611,-491.5 617,-491.5 623,-497.5 623,-503.5 623,-503.5 623,-524.5 623,-524.5 623,-530.5 617,-536.5 611,-536.5"/>
<text text-anchor="middle" x="526" y="-522.5" font-family="Segoe UI, Helvetica, Arial, sans-serif" font-size="10.00">Strategies</text>
<text text-anchor="middle" x="526" y="-511.5" font-family="Segoe UI, Helvetica, Arial, sans-serif" font-size="10.00">(StrategyLifecycleManager</text>
<text text-anchor="middle" x="526" y="-500.5" font-family="Segoe UI, Helvetica, Arial, sans-serif" font-size="10.00">promotion, portfolio read, reconciliation)</text>
</g>
<!-- Strategies&#45;&gt;Contracts -->
<g id="edge48" class="edge">
<title>Strategies&#45;&gt;Contracts</title>
<path fill="none" stroke="#666666" d="M593,-491.22C593,-396.03 593,-35 593,-35 593,-35 2579.73,-35 2579.73,-35"/>
<polygon fill="#666666" stroke="#666666" points="2579.73,-37.45 2586.73,-35 2579.73,-32.55 2579.73,-37.45"/>
</g>
<!-- Strategies&#45;&gt;FSharp -->
<g id="edge52" class="edge">
<title>Strategies&#45;&gt;FSharp</title>
<path fill="none" stroke="#666666" d="M598,-491.41C598,-406.33 598,-110 598,-110 598,-110 2871.67,-110 2871.67,-110 2871.67,-110 2871.67,-67.22 2871.67,-67.22"/>
<polygon fill="#666666" stroke="#666666" points="2874.12,-67.22 2871.67,-60.22 2869.22,-67.22 2874.12,-67.22"/>
</g>
<!-- Strategies&#45;&gt;FSharpLedger -->
<g id="edge53" class="edge">
<title>Strategies&#45;&gt;FSharpLedger</title>
<path fill="none" stroke="#666666" d="M603,-491.44C603,-485.64 603,-481 603,-481 603,-481 2803,-481 2803,-481 2803,-481 2803,-174.8 2803,-174.8"/>
<polygon fill="#666666" stroke="#666666" points="2805.45,-174.8 2803,-167.8 2800.55,-174.8 2805.45,-174.8"/>
</g>
<!-- Strategies&#45;&gt;FSharpTrading -->
<g id="edge54" class="edge">
<title>Strategies&#45;&gt;FSharpTrading</title>
<path fill="none" stroke="#666666" d="M608,-491.26C608,-487.08 608,-484 608,-484 608,-484 2975.5,-484 2975.5,-484 2975.5,-484 2975.5,-174.96 2975.5,-174.96"/>
<polygon fill="#666666" stroke="#666666" points="2977.95,-174.96 2975.5,-167.96 2973.05,-174.96 2977.95,-174.96"/>
</g>
<!-- Strategies&#45;&gt;ExecutionSdk -->
<g id="edge51" class="edge">
<title>Strategies&#45;&gt;ExecutionSdk</title>
<path fill="none" stroke="#666666" d="M623.05,-497C767.37,-497 1021.72,-497 1021.72,-497 1021.72,-497 1021.72,-179.03 1021.72,-179.03"/>
<polygon fill="#666666" stroke="#666666" points="1024.17,-179.03 1021.72,-172.03 1019.27,-179.03 1024.17,-179.03"/>
</g>
<!-- Strategies&#45;&gt;Core -->
<g id="edge49" class="edge">
<title>Strategies&#45;&gt;Core</title>
<path fill="none" stroke="#666666" d="M623.19,-514C920.03,-514 1794.75,-514 1794.75,-514 1794.75,-514 1794.75,-299 1794.75,-299 1794.75,-299 2379.9,-299 2379.9,-299"/>
<polygon fill="#666666" stroke="#666666" points="2379.9,-301.45 2386.9,-299 2379.9,-296.55 2379.9,-301.45"/>
</g>
<!-- Strategies&#45;&gt;Infrastructure -->
<g id="edge55" class="edge">
<title>Strategies&#45;&gt;Infrastructure</title>
<path fill="none" stroke="#666666" d="M618,-491.28C618,-435.08 618,-294 618,-294 618,-294 838.99,-294 838.99,-294"/>
<polygon fill="#666666" stroke="#666666" points="838.99,-296.45 845.99,-294 838.99,-291.55 838.99,-296.45"/>
</g>
<!-- Strategies&#45;&gt;BacktestSdk -->
<g id="edge47" class="edge">
<title>Strategies&#45;&gt;BacktestSdk</title>
<path fill="none" stroke="#666666" d="M623.03,-502C888.78,-502 1608.69,-502 1608.69,-502 1608.69,-502 1608.69,-428.6 1608.69,-428.6"/>
<polygon fill="#666666" stroke="#666666" points="1611.14,-428.6 1608.69,-421.6 1606.24,-428.6 1611.14,-428.6"/>
</g>
<!-- Strategies&#45;&gt;Execution -->
<g id="edge50" class="edge">
<title>Strategies&#45;&gt;Execution</title>
<path fill="none" stroke="#666666" d="M455.5,-491.28C455.5,-491.28 455.5,-428.67 455.5,-428.67"/>
<polygon fill="#666666" stroke="#666666" points="457.95,-428.67 455.5,-421.67 453.05,-428.67 457.95,-428.67"/>
</g>
<!-- QuantScript -->
<g id="node21" class="node">
<title>QuantScript</title>
<path fill="#f3e5f5" stroke="black" d="M381.5,-536.5C381.5,-536.5 236.5,-536.5 236.5,-536.5 230.5,-536.5 224.5,-530.5 224.5,-524.5 224.5,-524.5 224.5,-503.5 224.5,-503.5 224.5,-497.5 230.5,-491.5 236.5,-491.5 236.5,-491.5 381.5,-491.5 381.5,-491.5 387.5,-491.5 393.5,-497.5 393.5,-503.5 393.5,-503.5 393.5,-524.5 393.5,-524.5 393.5,-530.5 387.5,-536.5 381.5,-536.5"/>
<text text-anchor="middle" x="309" y="-522.5" font-family="Segoe UI, Helvetica, Arial, sans-serif" font-size="10.00">QuantScript</text>
<text text-anchor="middle" x="309" y="-511.5" font-family="Segoe UI, Helvetica, Arial, sans-serif" font-size="10.00">(Roslyn scripting, PriceSeries</text>
<text text-anchor="middle" x="309" y="-500.5" font-family="Segoe UI, Helvetica, Arial, sans-serif" font-size="10.00">PortfolioBuilder, StatisticsEngine)</text>
</g>
<!-- QuantScript&#45;&gt;Contracts -->
<g id="edge61" class="edge">
<title>QuantScript&#45;&gt;Contracts</title>
<path fill="none" stroke="#666666" d="M383.9,-491.26C383.9,-395.37 383.9,-29 383.9,-29 383.9,-29 2579.65,-29 2579.65,-29"/>
<polygon fill="#666666" stroke="#666666" points="2579.65,-31.45 2586.65,-29 2579.65,-26.55 2579.65,-31.45"/>
</g>
<!-- QuantScript&#45;&gt;ProviderSdk -->
<g id="edge56" class="edge">
<title>QuantScript&#45;&gt;ProviderSdk</title>
<path fill="none" stroke="#666666" d="M388.7,-491.25C388.7,-439.81 388.7,-319 388.7,-319 388.7,-319 1154.83,-319 1154.83,-319 1154.83,-319 1154.83,-179.01 1154.83,-179.01"/>
<polygon fill="#666666" stroke="#666666" points="1157.28,-179.01 1154.83,-172.01 1152.38,-179.01 1157.28,-179.01"/>
</g>
<!-- QuantScript&#45;&gt;Domain -->
<g id="edge62" class="edge">
<title>QuantScript&#45;&gt;Domain</title>
<path fill="none" stroke="#666666" d="M386.3,-491.26C386.3,-421.95 386.3,-218 386.3,-218 386.3,-218 2415,-218 2415,-218 2415,-218 2415,-179.31 2415,-179.31"/>
<polygon fill="#666666" stroke="#666666" points="2417.45,-179.31 2415,-172.31 2412.55,-179.31 2417.45,-179.31"/>
</g>
<!-- QuantScript&#45;&gt;Storage -->
<g id="edge60" class="edge">
<title>QuantScript&#45;&gt;Storage</title>
<path fill="none" stroke="#666666" d="M391.1,-491.2C391.1,-483.59 391.1,-477 391.1,-477 391.1,-477 1090.31,-477 1090.31,-477 1090.31,-477 1090.31,-428.56 1090.31,-428.56"/>
<polygon fill="#666666" stroke="#666666" points="1092.76,-428.56 1090.31,-421.56 1087.86,-428.56 1092.76,-428.56"/>
</g>
<!-- QuantScript&#45;&gt;Application -->
<g id="edge59" class="edge">
<title>QuantScript&#45;&gt;Application</title>
<path fill="none" stroke="#666666" d="M298.64,-491.33C298.64,-479.31 298.64,-467 298.64,-467 298.64,-467 1897,-467 1897,-467 1897,-467 1897,-428.64 1897,-428.64"/>
<polygon fill="#666666" stroke="#666666" points="1899.45,-428.64 1897,-421.64 1894.55,-428.64 1899.45,-428.64"/>
</g>
<!-- QuantScript&#45;&gt;BacktestSdk -->
<g id="edge58" class="edge">
<title>QuantScript&#45;&gt;BacktestSdk</title>
<path fill="none" stroke="#666666" d="M277.93,-491.48C277.93,-477.82 277.93,-463 277.93,-463 277.93,-463 1600.12,-463 1600.12,-463 1600.12,-463 1600.12,-428.74 1600.12,-428.74"/>
<polygon fill="#666666" stroke="#666666" points="1602.58,-428.74 1600.12,-421.74 1597.68,-428.74 1602.58,-428.74"/>
</g>
<!-- QuantScript&#45;&gt;Backtesting -->
<g id="edge57" class="edge">
<title>QuantScript&#45;&gt;Backtesting</title>
<path fill="none" stroke="#666666" d="M257.21,-491.28C257.21,-491.28 257.21,-428.67 257.21,-428.67"/>
<polygon fill="#666666" stroke="#666666" points="259.66,-428.67 257.21,-421.67 254.76,-428.67 259.66,-428.67"/>
</g>
<!-- UiShared -->
<g id="node22" class="node">
<title>UiShared</title>
<path fill="#ede7f6" stroke="black" d="M2140,-536.5C2140,-536.5 2022,-536.5 2022,-536.5 2016,-536.5 2010,-530.5 2010,-524.5 2010,-524.5 2010,-503.5 2010,-503.5 2010,-497.5 2016,-491.5 2022,-491.5 2022,-491.5 2140,-491.5 2140,-491.5 2146,-491.5 2152,-497.5 2152,-503.5 2152,-503.5 2152,-524.5 2152,-524.5 2152,-530.5 2146,-536.5 2140,-536.5"/>
<text text-anchor="middle" x="2081" y="-522.5" font-family="Segoe UI, Helvetica, Arial, sans-serif" font-size="10.00">Ui.Shared</text>
<text text-anchor="middle" x="2081" y="-511.5" font-family="Segoe UI, Helvetica, Arial, sans-serif" font-size="10.00">(300 REST endpoints, auth</text>
<text text-anchor="middle" x="2081" y="-500.5" font-family="Segoe UI, Helvetica, Arial, sans-serif" font-size="10.00">DI wiring, endpoint helpers)</text>
</g>
<!-- UiShared&#45;&gt;Contracts -->
<g id="edge64" class="edge">
<title>UiShared&#45;&gt;Contracts</title>
<path fill="none" stroke="#666666" d="M2152.08,-506C2295.5,-506 2606,-506 2606,-506 2606,-506 2606,-67.19 2606,-67.19"/>
<polygon fill="#666666" stroke="#666666" points="2608.45,-67.19 2606,-60.19 2603.55,-67.19 2608.45,-67.19"/>
</g>
<!-- UiShared&#45;&gt;Storage -->
<g id="edge67" class="edge">
<title>UiShared&#45;&gt;Storage</title>
<path fill="none" stroke="#666666" d="M2123.6,-491.5C2123.6,-469.41 2123.6,-439 2123.6,-439 2123.6,-439 1204.5,-439 1204.5,-439 1204.5,-439 1204.5,-428.8 1204.5,-428.8"/>
<polygon fill="#666666" stroke="#666666" points="1206.95,-428.8 1204.5,-421.8 1202.05,-428.8 1206.95,-428.8"/>
</g>
<!-- UiShared&#45;&gt;CppTrader -->
<g id="edge66" class="edge">
<title>UiShared&#45;&gt;CppTrader</title>
<path fill="none" stroke="#666666" d="M2095.2,-491.22C2095.2,-470.12 2095.2,-442 2095.2,-442 2095.2,-442 996.92,-442 996.92,-442 996.92,-442 996.92,-428.51 996.92,-428.51"/>
<polygon fill="#666666" stroke="#666666" points="999.37,-428.51 996.92,-421.51 994.47,-428.51 999.37,-428.51"/>
</g>
<!-- UiShared&#45;&gt;Application -->
<g id="edge63" class="edge">
<title>UiShared&#45;&gt;Application</title>
<path fill="none" stroke="#666666" d="M2009.81,-514C1992.32,-514 1978.5,-514 1978.5,-514 1978.5,-514 1978.5,-428.72 1978.5,-428.72"/>
<polygon fill="#666666" stroke="#666666" points="1980.95,-428.72 1978.5,-421.72 1976.05,-428.72 1980.95,-428.72"/>
</g>
<!-- UiShared&#45;&gt;Execution -->
<g id="edge65" class="edge">
<title>UiShared&#45;&gt;Execution</title>
<path fill="none" stroke="#666666" d="M2066.8,-491.29C2066.8,-473.94 2066.8,-453 2066.8,-453 2066.8,-453 561.5,-453 561.5,-453 561.5,-453 561.5,-428.59 561.5,-428.59"/>
<polygon fill="#666666" stroke="#666666" points="563.95,-428.59 561.5,-421.59 559.05,-428.59 563.95,-428.59"/>
</g>
<!-- UiShared&#45;&gt;Strategies -->
<g id="edge68" class="edge">
<title>UiShared&#45;&gt;Strategies</title>
<path fill="none" stroke="#666666" d="M2038.4,-491.19C2038.4,-489.24 2038.4,-488 2038.4,-488 2038.4,-488 613,-488 613,-488 613,-488 613,-488.32 613,-488.32"/>
<polygon fill="#666666" stroke="#666666" points="610.55,-484.19 613,-491.19 615.45,-484.19 610.55,-484.19"/>
</g>
<!-- UiServices -->
<g id="node23" class="node">
<title>UiServices</title>
<path fill="#ede7f6" stroke="black" stroke-dasharray="5,2" d="M1961.5,-536.5C1961.5,-536.5 1832.5,-536.5 1832.5,-536.5 1826.5,-536.5 1820.5,-530.5 1820.5,-524.5 1820.5,-524.5 1820.5,-503.5 1820.5,-503.5 1820.5,-497.5 1826.5,-491.5 1832.5,-491.5 1832.5,-491.5 1961.5,-491.5 1961.5,-491.5 1967.5,-491.5 1973.5,-497.5 1973.5,-503.5 1973.5,-503.5 1973.5,-524.5 1973.5,-524.5 1973.5,-530.5 1967.5,-536.5 1961.5,-536.5"/>
<text text-anchor="middle" x="1897" y="-522.5" font-family="Segoe UI, Helvetica, Arial, sans-serif" font-size="10.00">Ui.Services</text>
<text text-anchor="middle" x="1897" y="-511.5" font-family="Segoe UI, Helvetica, Arial, sans-serif" font-size="10.00">(desktop services, API clients</text>
<text text-anchor="middle" x="1897" y="-500.5" font-family="Segoe UI, Helvetica, Arial, sans-serif" font-size="10.00">charts, export wizard)</text>
</g>
<!-- UiServices&#45;&gt;Contracts -->
<g id="edge69" class="edge">
<title>UiServices&#45;&gt;Contracts</title>
<path fill="none" stroke="#666666" stroke-dasharray="5,2" d="M1973.78,-502C1983.71,-502 1990.5,-502 1990.5,-502 1990.5,-502 1990.5,-54 1990.5,-54 1990.5,-54 2579.71,-54 2579.71,-54"/>
<polygon fill="#666666" stroke="#666666" points="2579.71,-56.45 2586.71,-54 2579.71,-51.55 2579.71,-56.45"/>
<text text-anchor="middle" x="2999" y="-290.8" font-family="Times,serif" font-size="14.00">source</text>
<text text-anchor="middle" x="2999" y="-275.8" font-family="Times,serif" font-size="14.00">link</text>
</g>
<!-- Wpf -->
<g id="node24" class="node">
<title>Wpf</title>
<path fill="#ede7f6" stroke="black" stroke-dasharray="5,2" d="M2148.5,-657C2148.5,-657 2021.5,-657 2021.5,-657 2015.5,-657 2009.5,-651 2009.5,-645 2009.5,-645 2009.5,-624 2009.5,-624 2009.5,-618 2015.5,-612 2021.5,-612 2021.5,-612 2148.5,-612 2148.5,-612 2154.5,-612 2160.5,-618 2160.5,-624 2160.5,-624 2160.5,-645 2160.5,-645 2160.5,-651 2154.5,-657 2148.5,-657"/>
<text text-anchor="middle" x="2085" y="-643" font-family="Segoe UI, Helvetica, Arial, sans-serif" font-size="10.00">Wpf</text>
<text text-anchor="middle" x="2085" y="-632" font-family="Segoe UI, Helvetica, Arial, sans-serif" font-size="10.00">(WPF desktop app</text>
<text text-anchor="middle" x="2085" y="-621" font-family="Segoe UI, Helvetica, Arial, sans-serif" font-size="10.00">80+ Views, 60+ ViewModels)</text>
</g>
<!-- Wpf&#45;&gt;Backtesting -->
<g id="edge72" class="edge">
<title>Wpf&#45;&gt;Backtesting</title>
<path fill="none" stroke="#666666" d="M2156.25,-611.97C2156.25,-566.92 2156.25,-470 2156.25,-470 2156.25,-470 360.79,-470 360.79,-470 360.79,-470 360.79,-428.86 360.79,-428.86"/>
<polygon fill="#666666" stroke="#666666" points="363.24,-428.86 360.79,-421.86 358.34,-428.86 363.24,-428.86"/>
</g>
<!-- Wpf&#45;&gt;Strategies -->
<g id="edge73" class="edge">
<title>Wpf&#45;&gt;Strategies</title>
<path fill="none" stroke="#666666" d="M2104.67,-611.67C2104.67,-588.81 2104.67,-557 2104.67,-557 2104.67,-557 573.33,-557 573.33,-557 573.33,-557 573.33,-543.51 573.33,-543.51"/>
<polygon fill="#666666" stroke="#666666" points="575.78,-543.51 573.33,-536.51 570.88,-543.51 575.78,-543.51"/>
</g>
<!-- Wpf&#45;&gt;QuantScript -->
<g id="edge74" class="edge">
<title>Wpf&#45;&gt;QuantScript</title>
<path fill="none" stroke="#666666" d="M2081,-611.65C2081,-590.07 2081,-561 2081,-561 2081,-561 337.17,-561 337.17,-561 337.17,-561 337.17,-543.67 337.17,-543.67"/>
<polygon fill="#666666" stroke="#666666" points="339.62,-543.67 337.17,-536.67 334.72,-543.67 339.62,-543.67"/>
</g>
<!-- Wpf&#45;&gt;UiShared -->
<g id="edge71" class="edge">
<title>Wpf&#45;&gt;UiShared</title>
<path fill="none" stroke="#666666" d="M2128.33,-611.83C2128.33,-611.83 2128.33,-543.56 2128.33,-543.56"/>
<polygon fill="#666666" stroke="#666666" points="2130.78,-543.56 2128.33,-536.56 2125.88,-543.56 2130.78,-543.56"/>
</g>
<!-- Wpf&#45;&gt;UiServices -->
<g id="edge70" class="edge">
<title>Wpf&#45;&gt;UiServices</title>
<path fill="none" stroke="#666666" stroke-dasharray="5,2" d="M2009.42,-634C2003.64,-634 2000,-634 2000,-634 2000,-634 2000,-525 2000,-525 2000,-525 1980.74,-525 1980.74,-525"/>
<polygon fill="#666666" stroke="#666666" points="1980.74,-522.55 1973.74,-525 1980.74,-527.45 1980.74,-522.55"/>
</g>
<!-- McpServer -->
<g id="node25" class="node">
<title>McpServer</title>
<path fill="#ede7f6" stroke="black" d="M2343,-657C2343,-657 2209,-657 2209,-657 2203,-657 2197,-651 2197,-645 2197,-645 2197,-624 2197,-624 2197,-618 2203,-612 2209,-612 2209,-612 2343,-612 2343,-612 2349,-612 2355,-618 2355,-624 2355,-624 2355,-645 2355,-645 2355,-651 2349,-657 2343,-657"/>
<text text-anchor="middle" x="2276" y="-643" font-family="Segoe UI, Helvetica, Arial, sans-serif" font-size="10.00">McpServer</text>
<text text-anchor="middle" x="2276" y="-632" font-family="Segoe UI, Helvetica, Arial, sans-serif" font-size="10.00">(Model Context Protocol server</text>
<text text-anchor="middle" x="2276" y="-621" font-family="Segoe UI, Helvetica, Arial, sans-serif" font-size="10.00">tools, resources, prompts)</text>
</g>
<!-- McpServer&#45;&gt;Contracts -->
<g id="edge76" class="edge">
<title>McpServer&#45;&gt;Contracts</title>
<path fill="none" stroke="#666666" d="M2302.33,-611.86C2302.33,-505.09 2302.33,-57 2302.33,-57 2302.33,-57 2579.58,-57 2579.58,-57"/>
<polygon fill="#666666" stroke="#666666" points="2579.58,-59.45 2586.58,-57 2579.58,-54.55 2579.58,-59.45"/>
</g>
<!-- McpServer&#45;&gt;Core -->
<g id="edge77" class="edge">
<title>McpServer&#45;&gt;Core</title>
<path fill="none" stroke="#666666" d="M2328.67,-611.92C2328.67,-537.7 2328.67,-306 2328.67,-306 2328.67,-306 2379.65,-306 2379.65,-306"/>
<polygon fill="#666666" stroke="#666666" points="2379.65,-308.45 2386.65,-306 2379.65,-303.55 2379.65,-308.45"/>
</g>
<!-- McpServer&#45;&gt;Storage -->
<g id="edge78" class="edge">
<title>McpServer&#45;&gt;Storage</title>
<path fill="none" stroke="#666666" d="M2249.67,-611.77C2249.67,-586.14 2249.67,-548 2249.67,-548 2249.67,-548 1173.83,-548 1173.83,-548 1173.83,-548 1173.83,-428.63 1173.83,-428.63"/>
<polygon fill="#666666" stroke="#666666" points="1176.28,-428.63 1173.83,-421.63 1171.38,-428.63 1176.28,-428.63"/>
</g>
<!-- McpServer&#45;&gt;Application -->
<g id="edge75" class="edge">
<title>McpServer&#45;&gt;Application</title>
<path fill="none" stroke="#666666" d="M2276,-611.76C2276,-553.96 2276,-406 2276,-406 2276,-406 1988.35,-406 1988.35,-406"/>
<polygon fill="#666666" stroke="#666666" points="1988.35,-403.55 1981.35,-406 1988.35,-408.45 1988.35,-403.55"/>
</g>
<!-- Mcp -->
<g id="node26" class="node">
<title>Mcp</title>
<path fill="#ede7f6" stroke="black" d="M1961.5,-657C1961.5,-657 1832.5,-657 1832.5,-657 1826.5,-657 1820.5,-651 1820.5,-645 1820.5,-645 1820.5,-624 1820.5,-624 1820.5,-618 1826.5,-612 1832.5,-612 1832.5,-612 1961.5,-612 1961.5,-612 1967.5,-612 1973.5,-618 1973.5,-624 1973.5,-624 1973.5,-645 1973.5,-645 1973.5,-651 1967.5,-657 1961.5,-657"/>
<text text-anchor="middle" x="1897" y="-643" font-family="Segoe UI, Helvetica, Arial, sans-serif" font-size="10.00">Mcp</text>
<text text-anchor="middle" x="1897" y="-632" font-family="Segoe UI, Helvetica, Arial, sans-serif" font-size="10.00">(MCP tools for code review</text>
<text text-anchor="middle" x="1897" y="-621" font-family="Segoe UI, Helvetica, Arial, sans-serif" font-size="10.00">ADR &amp; convention resources)</text>
</g>
<!-- MainApp -->
<g id="node27" class="node">
<title>MainApp</title>
<path fill="#ffebee" stroke="black" d="M3387.5,-536.5C3387.5,-536.5 3212.5,-536.5 3212.5,-536.5 3206.5,-536.5 3200.5,-530.5 3200.5,-524.5 3200.5,-524.5 3200.5,-503.5 3200.5,-503.5 3200.5,-497.5 3206.5,-491.5 3212.5,-491.5 3212.5,-491.5 3387.5,-491.5 3387.5,-491.5 3393.5,-491.5 3399.5,-497.5 3399.5,-503.5 3399.5,-503.5 3399.5,-524.5 3399.5,-524.5 3399.5,-530.5 3393.5,-536.5 3387.5,-536.5"/>
<text text-anchor="middle" x="3300" y="-522.5" font-family="Segoe UI, Helvetica, Arial, sans-serif" font-size="10.00">Meridian</text>
<text text-anchor="middle" x="3300" y="-511.5" font-family="Segoe UI, Helvetica, Arial, sans-serif" font-size="10.00">(CLI entry point, startup orchestration</text>
<text text-anchor="middle" x="3300" y="-500.5" font-family="Segoe UI, Helvetica, Arial, sans-serif" font-size="10.00">mode runners: collector/backfill/desktop)</text>
</g>
<!-- MainApp&#45;&gt;Contracts -->
<g id="edge84" class="edge">
<title>MainApp&#45;&gt;Contracts</title>
<path fill="none" stroke="#666666" d="M3200.46,-514C3027.79,-514 2691,-514 2691,-514 2691,-514 2691,-67.21 2691,-67.21"/>
<polygon fill="#666666" stroke="#666666" points="2693.45,-67.21 2691,-60.21 2688.55,-67.21 2693.45,-67.21"/>
</g>
<!-- MainApp&#45;&gt;FSharp -->
<g id="edge87" class="edge">
<title>MainApp&#45;&gt;FSharp</title>
<path fill="none" stroke="#666666" d="M3200.09,-499C3090.21,-499 2929,-499 2929,-499 2929,-499 2929,-67.2 2929,-67.2"/>
<polygon fill="#666666" stroke="#666666" points="2931.45,-67.2 2929,-60.2 2926.55,-67.2 2931.45,-67.2"/>
</g>
<!-- MainApp&#45;&gt;FSharpLedger -->
<g id="edge89" class="edge">
<title>MainApp&#45;&gt;FSharpLedger</title>
<path fill="none" stroke="#666666" d="M3200.44,-502C3075.25,-502 2876.5,-502 2876.5,-502 2876.5,-502 2876.5,-174.96 2876.5,-174.96"/>
<polygon fill="#666666" stroke="#666666" points="2878.95,-174.96 2876.5,-167.96 2874.05,-174.96 2878.95,-174.96"/>
</g>
<!-- MainApp&#45;&gt;FSharpTrading -->
<g id="edge90" class="edge">
<title>MainApp&#45;&gt;FSharpTrading</title>
<path fill="none" stroke="#666666" d="M3200.21,-495C3136.39,-495 3065.5,-495 3065.5,-495 3065.5,-495 3065.5,-174.59 3065.5,-174.59"/>
<polygon fill="#666666" stroke="#666666" points="3067.95,-174.59 3065.5,-167.59 3063.05,-174.59 3067.95,-174.59"/>
</g>
<!-- MainApp&#45;&gt;FSharpDL -->
<g id="edge88" class="edge">
<title>MainApp&#45;&gt;FSharpDL</title>
<path fill="none" stroke="#666666" d="M3268.38,-491.47C3268.38,-491.47 3268.38,-174.87 3268.38,-174.87"/>
<polygon fill="#666666" stroke="#666666" points="3270.83,-174.87 3268.38,-167.87 3265.93,-174.87 3270.83,-174.87"/>
</g>
<!-- MainApp&#45;&gt;ProviderSdk -->
<g id="edge85" class="edge">
<title>MainApp&#45;&gt;ProviderSdk</title>
<path fill="none" stroke="#666666" d="M3200.12,-517C2961.7,-517 2379,-517 2379,-517 2379,-517 2379,-152 2379,-152 2379,-152 1280.14,-152 1280.14,-152"/>
<polygon fill="#666666" stroke="#666666" points="1280.14,-149.55 1273.14,-152 1280.14,-154.45 1280.14,-149.55"/>
</g>
<!-- MainApp&#45;&gt;Domain -->
<g id="edge83" class="edge">
<title>MainApp&#45;&gt;Domain</title>
<path fill="none" stroke="#666666" d="M3200.4,-510C3048.65,-510 2777,-510 2777,-510 2777,-510 2777,-149 2777,-149 2777,-149 2534.23,-149 2534.23,-149"/>
<polygon fill="#666666" stroke="#666666" points="2534.23,-146.55 2527.23,-149 2534.23,-151.45 2534.23,-146.55"/>
</g>
<!-- MainApp&#45;&gt;Core -->
<g id="edge82" class="edge">
<title>MainApp&#45;&gt;Core</title>
<path fill="none" stroke="#666666" d="M3245.75,-491.4C3245.75,-433.99 3245.75,-287 3245.75,-287 3245.75,-287 2540.22,-287 2540.22,-287"/>
<polygon fill="#666666" stroke="#666666" points="2540.22,-284.55 2533.22,-287 2540.22,-289.45 2540.22,-284.55"/>
</g>
<!-- MainApp&#45;&gt;Infrastructure -->
<g id="edge80" class="edge">
<title>MainApp&#45;&gt;Infrastructure</title>
<path fill="none" stroke="#666666" d="M3200.14,-521C2960.2,-521 2371,-521 2371,-521 2371,-521 2371,-287 2371,-287 2371,-287 1009.05,-287 1009.05,-287"/>
<polygon fill="#666666" stroke="#666666" points="1009.05,-284.55 1002.05,-287 1009.05,-289.45 1009.05,-284.55"/>
</g>
<!-- MainApp&#45;&gt;Storage -->
<g id="edge81" class="edge">
<title>MainApp&#45;&gt;Storage</title>
<path fill="none" stroke="#666666" d="M3223.12,-491.15C3223.12,-467.82 3223.12,-435 3223.12,-435 3223.12,-435 1219.83,-435 1219.83,-435 1219.83,-435 1219.83,-428.59 1219.83,-428.59"/>
<polygon fill="#666666" stroke="#666666" points="1222.28,-428.59 1219.83,-421.59 1217.38,-428.59 1222.28,-428.59"/>
</g>
<!-- MainApp&#45;&gt;Application -->
<g id="edge79" class="edge">
<title>MainApp&#45;&gt;Application</title>
<path fill="none" stroke="#666666" d="M3200.17,-525C2958.73,-525 2363,-525 2363,-525 2363,-525 2363,-391 2363,-391 2363,-391 1988.13,-391 1988.13,-391"/>
<polygon fill="#666666" stroke="#666666" points="1988.13,-388.55 1981.13,-391 1988.13,-393.45 1988.13,-388.55"/>
</g>
<!-- MainApp&#45;&gt;UiShared -->
<g id="edge86" class="edge">
<title>MainApp&#45;&gt;UiShared</title>
<path fill="none" stroke="#666666" d="M3200.24,-529C3200.24,-529 2159.18,-529 2159.18,-529"/>
<polygon fill="#666666" stroke="#666666" points="2159.18,-526.55 2152.18,-529 2159.18,-531.45 2159.18,-526.55"/>
</g>
<!-- Tests -->
<g id="node28" class="node">
<title>Tests</title>
<path fill="#eceff1" stroke="black" d="M1110,-662.5C1110,-662.5 986,-662.5 986,-662.5 980,-662.5 974,-656.5 974,-650.5 974,-650.5 974,-618.5 974,-618.5 974,-612.5 980,-606.5 986,-606.5 986,-606.5 1110,-606.5 1110,-606.5 1116,-606.5 1122,-612.5 1122,-618.5 1122,-618.5 1122,-650.5 1122,-650.5 1122,-656.5 1116,-662.5 1110,-662.5"/>
<text text-anchor="middle" x="1048" y="-648.5" font-family="Segoe UI, Helvetica, Arial, sans-serif" font-size="10.00">Tests</text>
<text text-anchor="middle" x="1048" y="-637.5" font-family="Segoe UI, Helvetica, Arial, sans-serif" font-size="10.00">(251 test files)</text>
<text text-anchor="middle" x="1048" y="-626.5" font-family="Segoe UI, Helvetica, Arial, sans-serif" font-size="10.00">Application, Infrastructure</text>
<text text-anchor="middle" x="1048" y="-615.5" font-family="Segoe UI, Helvetica, Arial, sans-serif" font-size="10.00">Storage, Domain, Integration</text>
</g>
<!-- Tests&#45;&gt;ExecutionSdk -->
<g id="edge103" class="edge">
<title>Tests&#45;&gt;ExecutionSdk</title>
<path fill="none" stroke="#999999" stroke-dasharray="1,5" d="M1025.67,-606.33C1025.67,-606.33 1025.67,-179.24 1025.67,-179.24"/>
<polygon fill="#999999" stroke="#999999" points="1028.12,-179.24 1025.67,-172.24 1023.22,-179.24 1028.12,-179.24"/>
</g>
<!-- Tests&#45;&gt;Domain -->
<g id="edge96" class="edge">
<title>Tests&#45;&gt;Domain</title>
<path fill="none" stroke="#999999" stroke-dasharray="1,5" d="M1029.61,-606.47C1029.61,-517.76 1029.61,-249 1029.61,-249 1029.61,-249 2471,-249 2471,-249 2471,-249 2471,-179.08 2471,-179.08"/>
<polygon fill="#999999" stroke="#999999" points="2473.45,-179.08 2471,-172.08 2468.55,-179.08 2473.45,-179.08"/>
</g>
<!-- Tests&#45;&gt;Core -->
<g id="edge95" class="edge">
<title>Tests&#45;&gt;Core</title>
<path fill="none" stroke="#999999" stroke-dasharray="1,5" d="M1033.56,-606.33C1033.56,-522.92 1033.56,-283 1033.56,-283 1033.56,-283 2379.81,-283 2379.81,-283"/>
<polygon fill="#999999" stroke="#999999" points="2379.81,-285.45 2386.81,-283 2379.81,-280.55 2379.81,-285.45"/>
</g>
<!-- Tests&#45;&gt;Ledger -->
<g id="edge101" class="edge">
<title>Tests&#45;&gt;Ledger</title>
<path fill="none" stroke="#999999" stroke-dasharray="1,5" d="M1069.19,-606.28C1069.19,-595.16 1069.19,-585 1069.19,-585 1069.19,-585 2442.25,-585 2442.25,-585 2442.25,-585 2442.25,-428.81 2442.25,-428.81"/>
<polygon fill="#999999" stroke="#999999" points="2444.7,-428.81 2442.25,-421.81 2439.8,-428.81 2444.7,-428.81"/>
</g>
<!-- Tests&#45;&gt;Infrastructure -->
<g id="edge93" class="edge">
<title>Tests&#45;&gt;Infrastructure</title>
<path fill="none" stroke="#999999" stroke-dasharray="1,5" d="M1017.78,-606.26C1017.78,-524.44 1017.78,-293 1017.78,-293 1017.78,-293 1009.29,-293 1009.29,-293"/>
<polygon fill="#999999" stroke="#999999" points="1009.29,-290.55 1002.29,-293 1009.29,-295.45 1009.29,-290.55"/>
</g>
<!-- Tests&#45;&gt;Storage -->
<g id="edge94" class="edge">
<title>Tests&#45;&gt;Storage</title>
<path fill="none" stroke="#999999" stroke-dasharray="1,5" d="M1100.88,-606.09C1100.88,-606.09 1100.88,-428.54 1100.88,-428.54"/>
<polygon fill="#999999" stroke="#999999" points="1103.33,-428.54 1100.88,-421.54 1098.43,-428.54 1103.33,-428.54"/>
</g>
<!-- Tests&#45;&gt;CppTrader -->
<g id="edge104" class="edge">
<title>Tests&#45;&gt;CppTrader</title>
<path fill="none" stroke="#999999" stroke-dasharray="1,5" d="M992.33,-606.09C992.33,-606.09 992.33,-428.54 992.33,-428.54"/>
<polygon fill="#999999" stroke="#999999" points="994.78,-428.54 992.33,-421.54 989.88,-428.54 994.78,-428.54"/>
</g>
<!-- Tests&#45;&gt;Application -->
<g id="edge92" class="edge">
<title>Tests&#45;&gt;Application</title>
<path fill="none" stroke="#999999" stroke-dasharray="1,5" d="M1048.06,-606.27C1048.06,-590.1 1048.06,-573 1048.06,-573 1048.06,-573 1817.4,-573 1817.4,-573 1817.4,-573 1817.4,-428.75 1817.4,-428.75"/>
<polygon fill="#999999" stroke="#999999" points="1819.85,-428.75 1817.4,-421.75 1814.95,-428.75 1819.85,-428.75"/>
</g>
<!-- Tests&#45;&gt;BacktestSdk -->
<g id="edge102" class="edge">
<title>Tests&#45;&gt;BacktestSdk</title>
<path fill="none" stroke="#999999" stroke-dasharray="1,5" d="M1111.44,-606.43C1111.44,-569.16 1111.44,-508 1111.44,-508 1111.44,-508 1617.25,-508 1617.25,-508 1617.25,-508 1617.25,-428.58 1617.25,-428.58"/>
<polygon fill="#999999" stroke="#999999" points="1619.7,-428.58 1617.25,-421.58 1614.8,-428.58 1619.7,-428.58"/>
</g>
<!-- Tests&#45;&gt;Execution -->
<g id="edge98" class="edge">
<title>Tests&#45;&gt;Execution</title>
<path fill="none" stroke="#999999" stroke-dasharray="1,5" d="M987.75,-606.22C987.75,-555.88 987.75,-456 987.75,-456 987.75,-456 535,-456 535,-456 535,-456 535,-428.53 535,-428.53"/>
<polygon fill="#999999" stroke="#999999" points="537.45,-428.53 535,-421.53 532.55,-428.53 537.45,-428.53"/>
</g>
<!-- Tests&#45;&gt;Risk -->
<g id="edge100" class="edge">
<title>Tests&#45;&gt;Risk</title>
<path fill="none" stroke="#999999" stroke-dasharray="1,5" d="M978.58,-606.25C978.58,-603.67 978.58,-602 978.58,-602 978.58,-602 102,-602 102,-602 102,-602 102,-543.66 102,-543.66"/>
<polygon fill="#999999" stroke="#999999" points="104.45,-543.66 102,-536.66 99.55,-543.66 104.45,-543.66"/>
</g>
<!-- Tests&#45;&gt;Strategies -->
<g id="edge99" class="edge">
<title>Tests&#45;&gt;Strategies</title>
<path fill="none" stroke="#999999" stroke-dasharray="1,5" d="M983.17,-606.5C983.17,-575.54 983.17,-530 983.17,-530 983.17,-530 630.23,-530 630.23,-530"/>
<polygon fill="#999999" stroke="#999999" points="630.23,-527.55 623.23,-530 630.23,-532.45 630.23,-527.55"/>
</g>
<!-- Tests&#45;&gt;UiShared -->
<g id="edge97" class="edge">
<title>Tests&#45;&gt;UiShared</title>
<path fill="none" stroke="#999999" stroke-dasharray="1,5" d="M1058.62,-606.5C1058.62,-593.55 1058.62,-581 1058.62,-581 1058.62,-581 2033.67,-581 2033.67,-581 2033.67,-581 2033.67,-543.68 2033.67,-543.68"/>
<polygon fill="#999999" stroke="#999999" points="2036.12,-543.68 2033.67,-536.68 2031.22,-543.68 2036.12,-543.68"/>
</g>
<!-- Tests&#45;&gt;MainApp -->
<g id="edge91" class="edge">
<title>Tests&#45;&gt;MainApp</title>
<path fill="none" stroke="#999999" stroke-dasharray="1,5" d="M1079.75,-606.32C1079.75,-597.49 1079.75,-590 1079.75,-590 1079.75,-590 3227.25,-590 3227.25,-590 3227.25,-590 3227.25,-543.8 3227.25,-543.8"/>
<polygon fill="#999999" stroke="#999999" points="3229.7,-543.8 3227.25,-536.8 3224.8,-543.8 3229.7,-543.8"/>
</g>
<!-- FSharpTests -->
<g id="node29" class="node">
<title>FSharpTests</title>
<path fill="#eceff1" stroke="black" d="M608,-657C608,-657 492,-657 492,-657 486,-657 480,-651 480,-645 480,-645 480,-624 480,-624 480,-618 486,-612 492,-612 492,-612 608,-612 608,-612 614,-612 620,-618 620,-624 620,-624 620,-645 620,-645 620,-651 614,-657 608,-657"/>
<text text-anchor="middle" x="550" y="-643" font-family="Segoe UI, Helvetica, Arial, sans-serif" font-size="10.00">FSharp.Tests</text>
<text text-anchor="middle" x="550" y="-632" font-family="Segoe UI, Helvetica, Arial, sans-serif" font-size="10.00">(10 test files)</text>
<text text-anchor="middle" x="550" y="-621" font-family="Segoe UI, Helvetica, Arial, sans-serif" font-size="10.00">validation, domain, pipeline</text>
</g>
<!-- FSharpTests&#45;&gt;FSharp -->
<g id="edge105" class="edge">
<title>FSharpTests&#45;&gt;FSharp</title>
<path fill="none" stroke="#999999" stroke-dasharray="1,5" d="M526.67,-611.96C526.67,-587.53 526.67,-552 526.67,-552 526.67,-552 2917,-552 2917,-552 2917,-552 2917,-67.15 2917,-67.15"/>
<polygon fill="#999999" stroke="#999999" points="2919.45,-67.15 2917,-60.15 2914.55,-67.15 2919.45,-67.15"/>
</g>
<!-- BacktestTests -->
<g id="node30" class="node">
<title>BacktestTests</title>
<path fill="#eceff1" stroke="black" d="M926,-657C926,-657 810,-657 810,-657 804,-657 798,-651 798,-645 798,-645 798,-624 798,-624 798,-618 804,-612 810,-612 810,-612 926,-612 926,-612 932,-612 938,-618 938,-624 938,-624 938,-645 938,-645 938,-651 932,-657 926,-657"/>
<text text-anchor="middle" x="868" y="-643" font-family="Segoe UI, Helvetica, Arial, sans-serif" font-size="10.00">Backtesting.Tests</text>
<text text-anchor="middle" x="868" y="-632" font-family="Segoe UI, Helvetica, Arial, sans-serif" font-size="10.00">(13 test files)</text>
<text text-anchor="middle" x="868" y="-621" font-family="Segoe UI, Helvetica, Arial, sans-serif" font-size="10.00">engine, fill models, metrics</text>
</g>
<!-- BacktestTests&#45;&gt;Infrastructure -->
<g id="edge108" class="edge">
<title>BacktestTests&#45;&gt;Infrastructure</title>
<path fill="none" stroke="#999999" stroke-dasharray="1,5" d="M830,-611.99C830,-533.85 830,-279 830,-279 830,-279 838.95,-279 838.95,-279"/>
<polygon fill="#999999" stroke="#999999" points="838.95,-281.45 845.95,-279 838.95,-276.55 838.95,-281.45"/>
</g>
<!-- BacktestTests&#45;&gt;BacktestSdk -->
<g id="edge107" class="edge">
<title>BacktestTests&#45;&gt;BacktestSdk</title>
<path fill="none" stroke="#999999" stroke-dasharray="1,5" d="M892.25,-611.96C892.25,-593.01 892.25,-569 892.25,-569 892.25,-569 1625.81,-569 1625.81,-569 1625.81,-569 1625.81,-428.57 1625.81,-428.57"/>
<polygon fill="#999999" stroke="#999999" points="1628.26,-428.57 1625.81,-421.57 1623.36,-428.57 1628.26,-428.57"/>
</g>
<!-- BacktestTests&#45;&gt;Backtesting -->
<g id="edge106" class="edge">
<title>BacktestTests&#45;&gt;Backtesting</title>
<path fill="none" stroke="#999999" stroke-dasharray="1,5" d="M814,-611.84C814,-567.6 814,-474 814,-474 814,-474 340.07,-474 340.07,-474 340.07,-474 340.07,-428.5 340.07,-428.5"/>
<polygon fill="#999999" stroke="#999999" points="342.52,-428.5 340.07,-421.5 337.62,-428.5 342.52,-428.5"/>
</g>
<!-- DLTests -->
<g id="node31" class="node">
<title>DLTests</title>
<path fill="#eceff1" stroke="black" d="M1289.5,-657C1289.5,-657 1170.5,-657 1170.5,-657 1164.5,-657 1158.5,-651 1158.5,-645 1158.5,-645 1158.5,-624 1158.5,-624 1158.5,-618 1164.5,-612 1170.5,-612 1170.5,-612 1289.5,-612 1289.5,-612 1295.5,-612 1301.5,-618 1301.5,-624 1301.5,-624 1301.5,-645 1301.5,-645 1301.5,-651 1295.5,-657 1289.5,-657"/>
<text text-anchor="middle" x="1230" y="-643" font-family="Segoe UI, Helvetica, Arial, sans-serif" font-size="10.00">DirectLending.Tests</text>
<text text-anchor="middle" x="1230" y="-632" font-family="Segoe UI, Helvetica, Arial, sans-serif" font-size="10.00">(5 test files)</text>
<text text-anchor="middle" x="1230" y="-621" font-family="Segoe UI, Helvetica, Arial, sans-serif" font-size="10.00">service, workflow, Postgres</text>
</g>
<!-- DLTests&#45;&gt;Application -->
<g id="edge109" class="edge">
<title>DLTests&#45;&gt;Application</title>
<path fill="none" stroke="#999999" stroke-dasharray="1,5" d="M1294.38,-611.77C1294.38,-595.7 1294.38,-577 1294.38,-577 1294.38,-577 1811.2,-577 1811.2,-577 1811.2,-577 1811.2,-428.54 1811.2,-428.54"/>
<polygon fill="#999999" stroke="#999999" points="1813.65,-428.54 1811.2,-421.54 1808.75,-428.54 1813.65,-428.54"/>
</g>
<!-- McpTests -->
<g id="node32" class="node">
<title>McpTests</title>
<path fill="#eceff1" stroke="black" d="M1772.5,-652.5C1772.5,-652.5 1699.5,-652.5 1699.5,-652.5 1693.5,-652.5 1687.5,-646.5 1687.5,-640.5 1687.5,-640.5 1687.5,-628.5 1687.5,-628.5 1687.5,-622.5 1693.5,-616.5 1699.5,-616.5 1699.5,-616.5 1772.5,-616.5 1772.5,-616.5 1778.5,-616.5 1784.5,-622.5 1784.5,-628.5 1784.5,-628.5 1784.5,-640.5 1784.5,-640.5 1784.5,-646.5 1778.5,-652.5 1772.5,-652.5"/>
<text text-anchor="middle" x="1736" y="-637.5" font-family="Segoe UI, Helvetica, Arial, sans-serif" font-size="10.00">McpServer.Tests</text>
<text text-anchor="middle" x="1736" y="-626.5" font-family="Segoe UI, Helvetica, Arial, sans-serif" font-size="10.00">(2 test files)</text>
</g>
<!-- McpTests&#45;&gt;McpServer -->
<g id="edge110" class="edge">
<title>McpTests&#45;&gt;McpServer</title>
<path fill="none" stroke="#999999" stroke-dasharray="1,5" d="M1776.75,-616.25C1776.75,-607.12 1776.75,-598 1776.75,-598 1776.75,-598 2223.33,-598 2223.33,-598 2223.33,-598 2223.33,-604.59 2223.33,-604.59"/>
<polygon fill="#999999" stroke="#999999" points="2220.88,-604.59 2223.33,-611.59 2225.78,-604.59 2220.88,-604.59"/>
</g>
<!-- QsTests -->
<g id="node33" class="node">
<title>QsTests</title>
<path fill="#eceff1" stroke="black" d="M749.5,-657C749.5,-657 668.5,-657 668.5,-657 662.5,-657 656.5,-651 656.5,-645 656.5,-645 656.5,-624 656.5,-624 656.5,-618 662.5,-612 668.5,-612 668.5,-612 749.5,-612 749.5,-612 755.5,-612 761.5,-618 761.5,-624 761.5,-624 761.5,-645 761.5,-645 761.5,-651 755.5,-657 749.5,-657"/>
<text text-anchor="middle" x="709" y="-643" font-family="Segoe UI, Helvetica, Arial, sans-serif" font-size="10.00">QuantScript.Tests</text>
<text text-anchor="middle" x="709" y="-632" font-family="Segoe UI, Helvetica, Arial, sans-serif" font-size="10.00">(6 test files)</text>
<text text-anchor="middle" x="709" y="-621" font-family="Segoe UI, Helvetica, Arial, sans-serif" font-size="10.00">scripting, statistics</text>
</g>
<!-- QsTests&#45;&gt;QuantScript -->
<g id="edge111" class="edge">
<title>QsTests&#45;&gt;QuantScript</title>
<path fill="none" stroke="#999999" stroke-dasharray="1,5" d="M688.5,-611.74C688.5,-591.47 688.5,-565 688.5,-565 688.5,-565 280.83,-565 280.83,-565 280.83,-565 280.83,-543.52 280.83,-543.52"/>
<polygon fill="#999999" stroke="#999999" points="283.28,-543.52 280.83,-536.52 278.38,-543.52 283.28,-543.52"/>
</g>
<!-- WpfTests -->
<g id="node34" class="node">
<title>WpfTests</title>
<path fill="#eceff1" stroke="black" stroke-dasharray="5,2" d="M1639.5,-657C1639.5,-657 1510.5,-657 1510.5,-657 1504.5,-657 1498.5,-651 1498.5,-645 1498.5,-645 1498.5,-624 1498.5,-624 1498.5,-618 1504.5,-612 1510.5,-612 1510.5,-612 1639.5,-612 1639.5,-612 1645.5,-612 1651.5,-618 1651.5,-624 1651.5,-624 1651.5,-645 1651.5,-645 1651.5,-651 1645.5,-657 1639.5,-657"/>
<text text-anchor="middle" x="1575" y="-643" font-family="Segoe UI, Helvetica, Arial, sans-serif" font-size="10.00">Wpf.Tests</text>
<text text-anchor="middle" x="1575" y="-632" font-family="Segoe UI, Helvetica, Arial, sans-serif" font-size="10.00">(30 test files)</text>
<text text-anchor="middle" x="1575" y="-621" font-family="Segoe UI, Helvetica, Arial, sans-serif" font-size="10.00">ViewModels, Services, Views</text>
</g>
<!-- WpfTests&#45;&gt;UiServices -->
<g id="edge113" class="edge">
<title>WpfTests&#45;&gt;UiServices</title>
<path fill="none" stroke="#999999" stroke-dasharray="1,5" d="M1634.38,-611.81C1634.38,-579.74 1634.38,-525 1634.38,-525 1634.38,-525 1813.33,-525 1813.33,-525"/>
<polygon fill="#999999" stroke="#999999" points="1813.33,-527.45 1820.33,-525 1813.33,-522.55 1813.33,-527.45"/>
</g>
<!-- WpfTests&#45;&gt;Wpf -->
<g id="edge112" class="edge">
<title>WpfTests&#45;&gt;Wpf</title>
<path fill="none" stroke="#999999" stroke-dasharray="1,5" d="M1642.94,-611.88C1642.94,-602.6 1642.94,-594 1642.94,-594 1642.94,-594 2057.33,-594 2057.33,-594 2057.33,-594 2057.33,-604.88 2057.33,-604.88"/>
<polygon fill="#999999" stroke="#999999" points="2054.88,-604.88 2057.33,-611.88 2059.78,-604.88 2054.88,-604.88"/>
</g>
<!-- UiTests -->
<g id="node35" class="node">
<title>UiTests</title>
<path fill="#eceff1" stroke="black" stroke-dasharray="5,2" d="M1450.5,-657C1450.5,-657 1349.5,-657 1349.5,-657 1343.5,-657 1337.5,-651 1337.5,-645 1337.5,-645 1337.5,-624 1337.5,-624 1337.5,-618 1343.5,-612 1349.5,-612 1349.5,-612 1450.5,-612 1450.5,-612 1456.5,-612 1462.5,-618 1462.5,-624 1462.5,-624 1462.5,-645 1462.5,-645 1462.5,-651 1456.5,-657 1450.5,-657"/>
<text text-anchor="middle" x="1400" y="-643" font-family="Segoe UI, Helvetica, Arial, sans-serif" font-size="10.00">Ui.Tests</text>
<text text-anchor="middle" x="1400" y="-632" font-family="Segoe UI, Helvetica, Arial, sans-serif" font-size="10.00">(54 test files)</text>
<text text-anchor="middle" x="1400" y="-621" font-family="Segoe UI, Helvetica, Arial, sans-serif" font-size="10.00">UI services, collections</text>
</g>
<!-- UiTests&#45;&gt;UiServices -->
<g id="edge114" class="edge">
<title>UiTests&#45;&gt;UiServices</title>
<path fill="none" stroke="#999999" stroke-dasharray="1,5" d="M1400,-611.96C1400,-578.34 1400,-519 1400,-519 1400,-519 1813.43,-519 1813.43,-519"/>
<polygon fill="#999999" stroke="#999999" points="1813.43,-521.45 1820.43,-519 1813.43,-516.55 1813.43,-521.45"/>
</g>
<!-- Benchmarks -->
<g id="node36" class="node">
<title>Benchmarks</title>
<path fill="#eceff1" stroke="black" d="M2603.5,-657C2603.5,-657 2472.5,-657 2472.5,-657 2466.5,-657 2460.5,-651 2460.5,-645 2460.5,-645 2460.5,-624 2460.5,-624 2460.5,-618 2466.5,-612 2472.5,-612 2472.5,-612 2603.5,-612 2603.5,-612 2609.5,-612 2615.5,-618 2615.5,-624 2615.5,-624 2615.5,-645 2615.5,-645 2615.5,-651 2609.5,-657 2603.5,-657"/>
<text text-anchor="middle" x="2538" y="-643" font-family="Segoe UI, Helvetica, Arial, sans-serif" font-size="10.00">Benchmarks</text>
<text text-anchor="middle" x="2538" y="-632" font-family="Segoe UI, Helvetica, Arial, sans-serif" font-size="10.00">(BenchmarkDotNet</text>
<text text-anchor="middle" x="2538" y="-621" font-family="Segoe UI, Helvetica, Arial, sans-serif" font-size="10.00">pipeline, storage, serialization)</text>
</g>
<!-- Benchmarks&#45;&gt;Domain -->
<g id="edge118" class="edge">
<title>Benchmarks&#45;&gt;Domain</title>
<path fill="none" stroke="#999999" stroke-dasharray="1,5" d="M2569,-611.84C2569,-517.14 2569,-158 2569,-158 2569,-158 2534.3,-158 2534.3,-158"/>
<polygon fill="#999999" stroke="#999999" points="2534.3,-155.55 2527.3,-158 2534.3,-160.45 2534.3,-155.55"/>
</g>
<!-- Benchmarks&#45;&gt;Core -->
<g id="edge117" class="edge">
<title>Benchmarks&#45;&gt;Core</title>
<path fill="none" stroke="#999999" stroke-dasharray="1,5" d="M2551,-611.9C2551,-536.45 2551,-298 2551,-298 2551,-298 2540.02,-298 2540.02,-298"/>
<polygon fill="#999999" stroke="#999999" points="2540.02,-295.55 2533.02,-298 2540.02,-300.45 2540.02,-295.55"/>
</g>
<!-- Benchmarks&#45;&gt;Storage -->
<g id="edge119" class="edge">
<title>Benchmarks&#45;&gt;Storage</title>
<path fill="none" stroke="#999999" stroke-dasharray="1,5" d="M2484.5,-611.66C2484.5,-584.85 2484.5,-544 2484.5,-544 2484.5,-544 1189.17,-544 1189.17,-544 1189.17,-544 1189.17,-428.66 1189.17,-428.66"/>
<polygon fill="#999999" stroke="#999999" points="1191.62,-428.66 1189.17,-421.66 1186.72,-428.66 1191.62,-428.66"/>
</g>
<!-- Benchmarks&#45;&gt;Application -->
<g id="edge116" class="edge">
<title>Benchmarks&#45;&gt;Application</title>
<path fill="none" stroke="#999999" stroke-dasharray="1,5" d="M2508.5,-611.62C2508.5,-583.66 2508.5,-540 2508.5,-540 2508.5,-540 1976,-540 1976,-540 1976,-540 1976,-428.65 1976,-428.65"/>
<polygon fill="#999999" stroke="#999999" points="1978.45,-428.65 1976,-421.65 1973.55,-428.65 1978.45,-428.65"/>
</g>
<!-- Benchmarks&#45;&gt;MainApp -->
<g id="edge115" class="edge">
<title>Benchmarks&#45;&gt;MainApp</title>
<path fill="none" stroke="#999999" stroke-dasharray="1,5" d="M2610.75,-611.75C2610.75,-581.55 2610.75,-532 2610.75,-532 2610.75,-532 3193.15,-532 3193.15,-532"/>
<polygon fill="#999999" stroke="#999999" points="3193.15,-534.45 3200.15,-532 3193.15,-529.55 3193.15,-534.45"/>
</g>
<!-- L_SOLID -->
<g id="node37" class="node">
<title>L_SOLID</title>
<path fill="lightgrey" stroke="transparent" d="M3497.5,-652.5C3497.5,-652.5 3302.5,-652.5 3302.5,-652.5 3296.5,-652.5 3290.5,-646.5 3290.5,-640.5 3290.5,-640.5 3290.5,-628.5 3290.5,-628.5 3290.5,-622.5 3296.5,-616.5 3302.5,-616.5 3302.5,-616.5 3497.5,-616.5 3497.5,-616.5 3503.5,-616.5 3509.5,-622.5 3509.5,-628.5 3509.5,-628.5 3509.5,-640.5 3509.5,-640.5 3509.5,-646.5 3503.5,-652.5 3497.5,-652.5"/>
<text text-anchor="middle" x="3400" y="-632" font-family="Segoe UI, Helvetica, Arial, sans-serif" font-size="10.00">━━━ &#160;Project reference (compile dependency)</text>
</g>
<!-- L_DASH -->
<g id="node38" class="node">
<title>L_DASH</title>
<path fill="lightgrey" stroke="transparent" d="M3242,-652.5C3242,-652.5 3058,-652.5 3058,-652.5 3052,-652.5 3046,-646.5 3046,-640.5 3046,-640.5 3046,-628.5 3046,-628.5 3046,-622.5 3052,-616.5 3058,-616.5 3058,-616.5 3242,-616.5 3242,-616.5 3248,-616.5 3254,-622.5 3254,-628.5 3254,-628.5 3254,-640.5 3254,-640.5 3254,-646.5 3248,-652.5 3242,-652.5"/>
<text text-anchor="middle" x="3150" y="-632" font-family="Segoe UI, Helvetica, Arial, sans-serif" font-size="10.00">─ ─ &#160;Source&#45;link / Windows&#45;only reference</text>
</g>
<!-- L_DOT -->
<g id="node39" class="node">
<title>L_DOT</title>
<path fill="lightgrey" stroke="transparent" d="M2998,-652.5C2998,-652.5 2860,-652.5 2860,-652.5 2854,-652.5 2848,-646.5 2848,-640.5 2848,-640.5 2848,-628.5 2848,-628.5 2848,-622.5 2854,-616.5 2860,-616.5 2860,-616.5 2998,-616.5 2998,-616.5 3004,-616.5 3010,-622.5 3010,-628.5 3010,-628.5 3010,-640.5 3010,-640.5 3010,-646.5 3004,-652.5 2998,-652.5"/>
<text text-anchor="middle" x="2929" y="-632" font-family="Segoe UI, Helvetica, Arial, sans-serif" font-size="10.00">· · · &#160;Test / benchmark reference</text>
</g>
<!-- L_NATIVE -->
<g id="node40" class="node">
<title>L_NATIVE</title>
<path fill="#fff3e0" stroke="black" stroke-dasharray="5,2" d="M2800,-652.5C2800,-652.5 2664,-652.5 2664,-652.5 2658,-652.5 2652,-646.5 2652,-640.5 2652,-640.5 2652,-628.5 2652,-628.5 2652,-622.5 2658,-616.5 2664,-616.5 2664,-616.5 2800,-616.5 2800,-616.5 2806,-616.5 2812,-622.5 2812,-628.5 2812,-628.5 2812,-640.5 2812,-640.5 2812,-646.5 2806,-652.5 2800,-652.5"/>
<text text-anchor="middle" x="2732" y="-637.5" font-family="Segoe UI, Helvetica, Arial, sans-serif" font-size="10.00">Dashed border = Windows&#45;only</text>
<text text-anchor="middle" x="2732" y="-626.5" font-family="Segoe UI, Helvetica, Arial, sans-serif" font-size="10.00">or conditional build</text>
</g>
</g>
</svg>
