<?xml version="1.0" encoding="UTF-8" standalone="no"?>
<!DOCTYPE svg PUBLIC "-//W3C//DTD SVG 1.1//EN"
 "http://www.w3.org/Graphics/SVG/1.1/DTD/svg11.dtd">
<!-- Generated by graphviz version 2.43.0 (0)
 -->
<!-- Title: ProjectDependencies Pages: 1 -->
<svg width="1263pt" height="651pt"
 viewBox="0.00 0.00 1263.00 651.00" xmlns="http://www.w3.org/2000/svg" xmlns:xlink="http://www.w3.org/1999/xlink">
<g id="graph0" class="graph" transform="scale(1 1) rotate(0) translate(4 647)">
<title>ProjectDependencies</title>
<polygon fill="white" stroke="transparent" points="-4,4 -4,-647 1259,-647 1259,4 -4,4"/>
<text text-anchor="middle" x="627.5" y="-627.8" font-family="Segoe UI, Helvetica, Arial, sans-serif" font-size="14.00">Meridian &#45; Project Dependencies</text>
<g id="clust1" class="cluster">
<title>cluster_layer0</title>
<path fill="none" stroke="#cccccc" stroke-dasharray="5,2" d="M837,-8C837,-8 1106,-8 1106,-8 1112,-8 1118,-14 1118,-20 1118,-20 1118,-68 1118,-68 1118,-74 1112,-80 1106,-80 1106,-80 837,-80 837,-80 831,-80 825,-74 825,-68 825,-68 825,-20 825,-20 825,-14 831,-8 837,-8"/>
<text text-anchor="middle" x="971.5" y="-67.2" font-family="Segoe UI, Helvetica, Arial, sans-serif" font-size="11.00">Layer 0: Foundation</text>
</g>
<g id="clust2" class="cluster">
<title>cluster_layer1</title>
<path fill="none" stroke="#cccccc" stroke-dasharray="5,2" d="M204,-8C204,-8 385,-8 385,-8 391,-8 397,-14 397,-20 397,-20 397,-294 397,-294 397,-300 391,-306 385,-306 385,-306 204,-306 204,-306 198,-306 192,-300 192,-294 192,-294 192,-20 192,-20 192,-14 198,-8 204,-8"/>
<text text-anchor="middle" x="294.5" y="-293.2" font-family="Segoe UI, Helvetica, Arial, sans-serif" font-size="11.00">Layer 1: Core Domain &amp; SDK</text>
</g>
<g id="clust3" class="cluster">
<title>cluster_layer2</title>
<path fill="none" stroke="#cccccc" stroke-dasharray="5,2" d="M479,-234C479,-234 814,-234 814,-234 820,-234 826,-240 826,-246 826,-246 826,-294 826,-294 826,-300 820,-306 814,-306 814,-306 479,-306 479,-306 473,-306 467,-300 467,-294 467,-294 467,-246 467,-246 467,-240 473,-234 479,-234"/>
<text text-anchor="middle" x="646.5" y="-293.2" font-family="Segoe UI, Helvetica, Arial, sans-serif" font-size="11.00">Layer 2: Infrastructure &amp; Storage</text>
</g>
<g id="clust4" class="cluster">
<title>cluster_layer3</title>
<path fill="none" stroke="#cccccc" stroke-dasharray="5,2" d="M108,-336C108,-336 248,-336 248,-336 254,-336 260,-342 260,-348 260,-348 260,-396 260,-396 260,-402 254,-408 248,-408 248,-408 108,-408 108,-408 102,-408 96,-402 96,-396 96,-396 96,-348 96,-348 96,-342 102,-336 108,-336"/>
<text text-anchor="middle" x="178" y="-395.2" font-family="Segoe UI, Helvetica, Arial, sans-serif" font-size="11.00">Layer 3: Application Logic</text>
</g>
<g id="clust5" class="cluster">
<title>cluster_layer4</title>
<path fill="none" stroke="#cccccc" stroke-dasharray="5,2" d="M996,-336C996,-336 1235,-336 1235,-336 1241,-336 1247,-342 1247,-348 1247,-348 1247,-498 1247,-498 1247,-504 1241,-510 1235,-510 1235,-510 996,-510 996,-510 990,-510 984,-504 984,-498 984,-498 984,-348 984,-348 984,-342 990,-336 996,-336"/>
<text text-anchor="middle" x="1115.5" y="-497.2" font-family="Segoe UI, Helvetica, Arial, sans-serif" font-size="11.00">Layer 4: UI &amp; Presentation</text>
</g>
<g id="clust6" class="cluster">
<title>cluster_layer5</title>
<path fill="none" stroke="#cccccc" stroke-dasharray="5,2" d="M325,-438C325,-438 413,-438 413,-438 419,-438 425,-444 425,-450 425,-450 425,-498 425,-498 425,-504 419,-510 413,-510 413,-510 325,-510 325,-510 319,-510 313,-504 313,-498 313,-498 313,-450 313,-450 313,-444 319,-438 325,-438"/>
<text text-anchor="middle" x="369" y="-497.2" font-family="Segoe UI, Helvetica, Arial, sans-serif" font-size="11.00">Layer 5: Entry Point</text>
</g>
<g id="clust7" class="cluster">
<title>cluster_tests</title>
<path fill="none" stroke="#999999" stroke-dasharray="5,2" d="M774,-540C774,-540 1223,-540 1223,-540 1229,-540 1235,-546 1235,-552 1235,-552 1235,-600 1235,-600 1235,-606 1229,-612 1223,-612 1223,-612 774,-612 774,-612 768,-612 762,-606 762,-600 762,-600 762,-552 762,-552 762,-546 768,-540 774,-540"/>
<text text-anchor="middle" x="998.5" y="-599.2" font-family="Segoe UI, Helvetica, Arial, sans-serif" font-size="11.00">Test Projects</text>
</g>
<g id="clust8" class="cluster">
<title>cluster_benchmarks</title>
<path fill="none" stroke="#999999" stroke-dasharray="5,2" d="M20,-540C20,-540 122,-540 122,-540 128,-540 134,-546 134,-552 134,-552 134,-600 134,-600 134,-606 128,-612 122,-612 122,-612 20,-612 20,-612 14,-612 8,-606 8,-600 8,-600 8,-552 8,-552 8,-546 14,-540 20,-540"/>
<text text-anchor="middle" x="71" y="-599.2" font-family="Segoe UI, Helvetica, Arial, sans-serif" font-size="11.00">Benchmarks</text>
</g>
<!-- Contracts -->
<g id="node1" class="node">
<title>Contracts</title>
<path fill="#e8f5e9" stroke="black" d="M933,-52C933,-52 845,-52 845,-52 839,-52 833,-46 833,-40 833,-40 833,-28 833,-28 833,-22 839,-16 845,-16 845,-16 933,-16 933,-16 939,-16 945,-22 945,-28 945,-28 945,-40 945,-40 945,-46 939,-52 933,-52"/>
<text text-anchor="middle" x="889" y="-37" font-family="Segoe UI, Helvetica, Arial, sans-serif" font-size="10.00">Contracts</text>
<text text-anchor="middle" x="889" y="-26" font-family="Segoe UI, Helvetica, Arial, sans-serif" font-size="10.00">(API models, DTOs)</text>
</g>
<!-- FSharp -->
<g id="node2" class="node">
<title>FSharp</title>
<path fill="#e8f5e9" stroke="black" d="M1098,-52C1098,-52 1000,-52 1000,-52 994,-52 988,-46 988,-40 988,-40 988,-28 988,-28 988,-22 994,-16 1000,-16 1000,-16 1098,-16 1098,-16 1104,-16 1110,-22 1110,-28 1110,-28 1110,-40 1110,-40 1110,-46 1104,-52 1098,-52"/>
<text text-anchor="middle" x="1049" y="-37" font-family="Segoe UI, Helvetica, Arial, sans-serif" font-size="10.00">FSharp</text>
<text text-anchor="middle" x="1049" y="-26" font-family="Segoe UI, Helvetica, Arial, sans-serif" font-size="10.00">(F# domain, validation)</text>
</g>
<!-- ProviderSdk -->
<g id="node3" class="node">
<title>ProviderSdk</title>
<path fill="#e3f2fd" stroke="black" d="M377.5,-52C377.5,-52 232.5,-52 232.5,-52 226.5,-52 220.5,-46 220.5,-40 220.5,-40 220.5,-28 220.5,-28 220.5,-22 226.5,-16 232.5,-16 232.5,-16 377.5,-16 377.5,-16 383.5,-16 389.5,-22 389.5,-28 389.5,-28 389.5,-40 389.5,-40 389.5,-46 383.5,-52 377.5,-52"/>
<text text-anchor="middle" x="305" y="-37" font-family="Segoe UI, Helvetica, Arial, sans-serif" font-size="10.00">ProviderSdk</text>
<text text-anchor="middle" x="305" y="-26" font-family="Segoe UI, Helvetica, Arial, sans-serif" font-size="10.00">(IDataSource, IMarketDataClient)</text>
</g>
<!-- ProviderSdk&#45;&gt;Contracts -->
<g id="edge1" class="edge">
<title>ProviderSdk&#45;&gt;Contracts</title>
<path fill="none" stroke="#666666" d="M389.61,-21C389.61,-21 825.93,-21 825.93,-21"/>
<polygon fill="#666666" stroke="#666666" points="825.93,-23.45 832.93,-21 825.93,-18.55 825.93,-23.45"/>
</g>
<!-- Domain -->
<g id="node4" class="node">
<title>Domain</title>
<path fill="#e3f2fd" stroke="black" d="M331.5,-154C331.5,-154 212.5,-154 212.5,-154 206.5,-154 200.5,-148 200.5,-142 200.5,-142 200.5,-130 200.5,-130 200.5,-124 206.5,-118 212.5,-118 212.5,-118 331.5,-118 331.5,-118 337.5,-118 343.5,-124 343.5,-130 343.5,-130 343.5,-142 343.5,-142 343.5,-148 337.5,-154 331.5,-154"/>
<text text-anchor="middle" x="272" y="-139" font-family="Segoe UI, Helvetica, Arial, sans-serif" font-size="10.00">Domain</text>
<text text-anchor="middle" x="272" y="-128" font-family="Segoe UI, Helvetica, Arial, sans-serif" font-size="10.00">(collectors, events, models)</text>
</g>
<!-- Domain&#45;&gt;Contracts -->
<g id="edge2" class="edge">
<title>Domain&#45;&gt;Contracts</title>
<path fill="none" stroke="#666666" d="M343.74,-124C495.71,-124 836.21,-124 836.21,-124 836.21,-124 836.21,-59.21 836.21,-59.21"/>
<polygon fill="#666666" stroke="#666666" points="838.66,-59.21 836.21,-52.21 833.76,-59.21 838.66,-59.21"/>
</g>
<!-- Domain&#45;&gt;ProviderSdk -->
<g id="edge3" class="edge">
<title>Domain&#45;&gt;ProviderSdk</title>
<path fill="none" stroke="#666666" d="M282,-117.76C282,-117.76 282,-59.08 282,-59.08"/>
<polygon fill="#666666" stroke="#666666" points="284.45,-59.08 282,-52.08 279.55,-59.08 284.45,-59.08"/>
</g>
<!-- Core -->
<g id="node5" class="node">
<title>Core</title>
<path fill="#e3f2fd" stroke="black" d="M377.5,-278C377.5,-278 252.5,-278 252.5,-278 246.5,-278 240.5,-272 240.5,-266 240.5,-266 240.5,-254 240.5,-254 240.5,-248 246.5,-242 252.5,-242 252.5,-242 377.5,-242 377.5,-242 383.5,-242 389.5,-248 389.5,-254 389.5,-254 389.5,-266 389.5,-266 389.5,-272 383.5,-278 377.5,-278"/>
<text text-anchor="middle" x="315" y="-263" font-family="Segoe UI, Helvetica, Arial, sans-serif" font-size="10.00">Core</text>
<text text-anchor="middle" x="315" y="-252" font-family="Segoe UI, Helvetica, Arial, sans-serif" font-size="10.00">(config, logging, serialization)</text>
</g>
<!-- Core&#45;&gt;Contracts -->
<g id="edge4" class="edge">
<title>Core&#45;&gt;Contracts</title>
<path fill="none" stroke="#666666" d="M358.83,-241.73C358.83,-223.44 358.83,-198 358.83,-198 358.83,-198 839.43,-198 839.43,-198 839.43,-198 839.43,-59.18 839.43,-59.18"/>
<polygon fill="#666666" stroke="#666666" points="841.88,-59.18 839.43,-52.18 836.98,-59.18 841.88,-59.18"/>
</g>
<!-- Core&#45;&gt;ProviderSdk -->
<g id="edge6" class="edge">
<title>Core&#45;&gt;ProviderSdk</title>
<path fill="none" stroke="#666666" d="M374.17,-241.89C374.17,-241.89 374.17,-59.2 374.17,-59.2"/>
<polygon fill="#666666" stroke="#666666" points="376.62,-59.2 374.17,-52.2 371.72,-59.2 376.62,-59.2"/>
</g>
<!-- Core&#45;&gt;Domain -->
<g id="edge5" class="edge">
<title>Core&#45;&gt;Domain</title>
<path fill="none" stroke="#666666" d="M292,-241.97C292,-241.97 292,-161.05 292,-161.05"/>
<polygon fill="#666666" stroke="#666666" points="294.45,-161.05 292,-154.05 289.55,-161.05 294.45,-161.05"/>
</g>
<!-- Infrastructure -->
<g id="node6" class="node">
<title>Infrastructure</title>
<path fill="#fff3e0" stroke="black" d="M806,-278C806,-278 682,-278 682,-278 676,-278 670,-272 670,-266 670,-266 670,-254 670,-254 670,-248 676,-242 682,-242 682,-242 806,-242 806,-242 812,-242 818,-248 818,-254 818,-254 818,-266 818,-266 818,-272 812,-278 806,-278"/>
<text text-anchor="middle" x="744" y="-263" font-family="Segoe UI, Helvetica, Arial, sans-serif" font-size="10.00">Infrastructure</text>
<text text-anchor="middle" x="744" y="-252" font-family="Segoe UI, Helvetica, Arial, sans-serif" font-size="10.00">(providers, resilience, HTTP)</text>
</g>
<!-- Infrastructure&#45;&gt;Contracts -->
<g id="edge9" class="edge">
<title>Infrastructure&#45;&gt;Contracts</title>
<path fill="none" stroke="#666666" d="M818.01,-260C832.15,-260 842.64,-260 842.64,-260 842.64,-260 842.64,-59.11 842.64,-59.11"/>
<polygon fill="#666666" stroke="#666666" points="845.09,-59.11 842.64,-52.11 840.19,-59.11 845.09,-59.11"/>
</g>
<!-- Infrastructure&#45;&gt;ProviderSdk -->
<g id="edge10" class="edge">
<title>Infrastructure&#45;&gt;ProviderSdk</title>
<path fill="none" stroke="#666666" d="M768.67,-241.8C768.67,-187.1 768.67,-28 768.67,-28 768.67,-28 396.5,-28 396.5,-28"/>
<polygon fill="#666666" stroke="#666666" points="396.5,-25.55 389.5,-28 396.5,-30.45 396.5,-25.55"/>
</g>
<!-- Infrastructure&#45;&gt;Domain -->
<g id="edge8" class="edge">
<title>Infrastructure&#45;&gt;Domain</title>
<path fill="none" stroke="#666666" d="M719.33,-241.97C719.33,-207.58 719.33,-136 719.33,-136 719.33,-136 350.87,-136 350.87,-136"/>
<polygon fill="#666666" stroke="#666666" points="350.87,-133.55 343.87,-136 350.87,-138.45 350.87,-133.55"/>
</g>
<!-- Infrastructure&#45;&gt;Core -->
<g id="edge7" class="edge">
<title>Infrastructure&#45;&gt;Core</title>
<path fill="none" stroke="#666666" d="M720.25,-278.13C720.25,-288.71 720.25,-300 720.25,-300 720.25,-300 372.38,-300 372.38,-300 372.38,-300 372.38,-285.13 372.38,-285.13"/>
<polygon fill="#666666" stroke="#666666" points="374.83,-285.13 372.38,-278.13 369.93,-285.13 374.83,-285.13"/>
</g>
<!-- Storage -->
<g id="node7" class="node">
<title>Storage</title>
<path fill="#fff3e0" stroke="black" d="M615,-278C615,-278 487,-278 487,-278 481,-278 475,-272 475,-266 475,-266 475,-254 475,-254 475,-248 481,-242 487,-242 487,-242 615,-242 615,-242 621,-242 627,-248 627,-254 627,-254 627,-266 627,-266 627,-272 621,-278 615,-278"/>
<text text-anchor="middle" x="551" y="-263" font-family="Segoe UI, Helvetica, Arial, sans-serif" font-size="10.00">Storage</text>
<text text-anchor="middle" x="551" y="-252" font-family="Segoe UI, Helvetica, Arial, sans-serif" font-size="10.00">(sinks, export, archival, WAL)</text>
</g>
<!-- Storage&#45;&gt;Contracts -->
<g id="edge13" class="edge">
<title>Storage&#45;&gt;Contracts</title>
<path fill="none" stroke="#666666" d="M589,-242C589,-189.45 589,-40 589,-40 589,-40 825.92,-40 825.92,-40"/>
<polygon fill="#666666" stroke="#666666" points="825.92,-42.45 832.92,-40 825.92,-37.55 825.92,-42.45"/>
</g>
<!-- Storage&#45;&gt;ProviderSdk -->
<g id="edge14" class="edge">
<title>Storage&#45;&gt;ProviderSdk</title>
<path fill="none" stroke="#666666" d="M551,-241.89C551,-188.26 551,-34 551,-34 551,-34 396.66,-34 396.66,-34"/>
<polygon fill="#666666" stroke="#666666" points="396.66,-31.55 389.66,-34 396.66,-36.45 396.66,-31.55"/>
</g>
<!-- Storage&#45;&gt;Domain -->
<g id="edge12" class="edge">
<title>Storage&#45;&gt;Domain</title>
<path fill="none" stroke="#666666" d="M513,-241.82C513,-208.72 513,-142 513,-142 513,-142 350.66,-142 350.66,-142"/>
<polygon fill="#666666" stroke="#666666" points="350.66,-139.55 343.66,-142 350.66,-144.45 350.66,-139.55"/>
</g>
<!-- Storage&#45;&gt;Core -->
<g id="edge11" class="edge">
<title>Storage&#45;&gt;Core</title>
<path fill="none" stroke="#666666" d="M474.7,-254C474.7,-254 396.83,-254 396.83,-254"/>
<polygon fill="#666666" stroke="#666666" points="396.83,-251.55 389.83,-254 396.83,-256.45 396.83,-251.55"/>
</g>
<!-- Application -->
<g id="node8" class="node">
<title>Application</title>
<path fill="#fce4ec" stroke="black" d="M240.5,-380C240.5,-380 115.5,-380 115.5,-380 109.5,-380 103.5,-374 103.5,-368 103.5,-368 103.5,-356 103.5,-356 103.5,-350 109.5,-344 115.5,-344 115.5,-344 240.5,-344 240.5,-344 246.5,-344 252.5,-350 252.5,-356 252.5,-356 252.5,-368 252.5,-368 252.5,-374 246.5,-380 240.5,-380"/>
<text text-anchor="middle" x="178" y="-365" font-family="Segoe UI, Helvetica, Arial, sans-serif" font-size="10.00">Application</text>
<text text-anchor="middle" x="178" y="-354" font-family="Segoe UI, Helvetica, Arial, sans-serif" font-size="10.00">(pipeline, backfill, monitoring)</text>
</g>
<!-- Application&#45;&gt;Contracts -->
<g id="edge19" class="edge">
<title>Application&#45;&gt;Contracts</title>
<path fill="none" stroke="#666666" d="M252.67,-354C426.94,-354 845.86,-354 845.86,-354 845.86,-354 845.86,-59.12 845.86,-59.12"/>
<polygon fill="#666666" stroke="#666666" points="848.31,-59.12 845.86,-52.12 843.41,-59.12 848.31,-59.12"/>
</g>
<!-- Application&#45;&gt;ProviderSdk -->
<g id="edge20" class="edge">
<title>Application&#45;&gt;ProviderSdk</title>
<path fill="none" stroke="#666666" d="M152,-343.9C152,-275.14 152,-34 152,-34 152,-34 213.44,-34 213.44,-34"/>
<polygon fill="#666666" stroke="#666666" points="213.44,-36.45 220.44,-34 213.44,-31.55 213.44,-36.45"/>
</g>
<!-- Application&#45;&gt;Domain -->
<g id="edge18" class="edge">
<title>Application&#45;&gt;Domain</title>
<path fill="none" stroke="#666666" d="M220.5,-343.89C220.5,-343.89 220.5,-161.2 220.5,-161.2"/>
<polygon fill="#666666" stroke="#666666" points="222.95,-161.2 220.5,-154.2 218.05,-161.2 222.95,-161.2"/>
</g>
<!-- Application&#45;&gt;Core -->
<g id="edge17" class="edge">
<title>Application&#45;&gt;Core</title>
<path fill="none" stroke="#666666" d="M246.5,-343.76C246.5,-343.76 246.5,-285.08 246.5,-285.08"/>
<polygon fill="#666666" stroke="#666666" points="248.95,-285.08 246.5,-278.08 244.05,-285.08 248.95,-285.08"/>
</g>
<!-- Application&#45;&gt;Infrastructure -->
<g id="edge15" class="edge">
<title>Application&#45;&gt;Infrastructure</title>
<path fill="none" stroke="#666666" d="M252.76,-351C406.82,-351 745.38,-351 745.38,-351 745.38,-351 745.38,-285.42 745.38,-285.42"/>
<polygon fill="#666666" stroke="#666666" points="747.83,-285.42 745.38,-278.42 742.93,-285.42 747.83,-285.42"/>
</g>
<!-- Application&#45;&gt;Storage -->
<g id="edge16" class="edge">
<title>Application&#45;&gt;Storage</title>
<path fill="none" stroke="#666666" d="M252.58,-347C354.74,-347 525.67,-347 525.67,-347 525.67,-347 525.67,-285.03 525.67,-285.03"/>
<polygon fill="#666666" stroke="#666666" points="528.12,-285.03 525.67,-278.03 523.22,-285.03 528.12,-285.03"/>
</g>
<!-- UiShared -->
<g id="node9" class="node">
<title>UiShared</title>
<path fill="#f3e5f5" stroke="black" d="M1080,-380C1080,-380 1004,-380 1004,-380 998,-380 992,-374 992,-368 992,-368 992,-356 992,-356 992,-350 998,-344 1004,-344 1004,-344 1080,-344 1080,-344 1086,-344 1092,-350 1092,-356 1092,-356 1092,-368 1092,-368 1092,-374 1086,-380 1080,-380"/>
<text text-anchor="middle" x="1042" y="-365" font-family="Segoe UI, Helvetica, Arial, sans-serif" font-size="10.00">Ui.Shared</text>
<text text-anchor="middle" x="1042" y="-354" font-family="Segoe UI, Helvetica, Arial, sans-serif" font-size="10.00">(HTTP endpoints)</text>
</g>
<!-- UiShared&#45;&gt;Contracts -->
<g id="edge22" class="edge">
<title>UiShared&#45;&gt;Contracts</title>
<path fill="none" stroke="#666666" d="M991.8,-358C958.92,-358 922,-358 922,-358 922,-358 922,-59.35 922,-59.35"/>
<polygon fill="#666666" stroke="#666666" points="924.45,-59.35 922,-52.35 919.55,-59.35 924.45,-59.35"/>
</g>
<!-- UiShared&#45;&gt;Application -->
<g id="edge21" class="edge">
<title>UiShared&#45;&gt;Application</title>
<path fill="none" stroke="#666666" d="M991.81,-362C991.81,-362 259.57,-362 259.57,-362"/>
<polygon fill="#666666" stroke="#666666" points="259.57,-359.55 252.57,-362 259.57,-364.45 259.57,-359.55"/>
</g>
<!-- UiServices -->
<g id="node10" class="node">
<title>UiServices</title>
<path fill="#f3e5f5" stroke="black" stroke-dasharray="5,2" d="M1226.5,-380C1226.5,-380 1147.5,-380 1147.5,-380 1141.5,-380 1135.5,-374 1135.5,-368 1135.5,-368 1135.5,-356 1135.5,-356 1135.5,-350 1141.5,-344 1147.5,-344 1147.5,-344 1226.5,-344 1226.5,-344 1232.5,-344 1238.5,-350 1238.5,-356 1238.5,-356 1238.5,-368 1238.5,-368 1238.5,-374 1232.5,-380 1226.5,-380"/>
<text text-anchor="middle" x="1187" y="-365" font-family="Segoe UI, Helvetica, Arial, sans-serif" font-size="10.00">Ui.Services</text>
<text text-anchor="middle" x="1187" y="-354" font-family="Segoe UI, Helvetica, Arial, sans-serif" font-size="10.00">(desktop services)</text>
</g>
<!-- UiServices&#45;&gt;Contracts -->
<g id="edge24" class="edge">
<title>UiServices&#45;&gt;Contracts</title>
<path fill="none" stroke="#666666" stroke-dasharray="5,2" d="M1187,-343.87C1187,-333.29 1187,-322 1187,-322 1187,-322 933.5,-322 933.5,-322 933.5,-322 933.5,-59.02 933.5,-59.02"/>
<polygon fill="#666666" stroke="#666666" points="935.95,-59.02 933.5,-52.02 931.05,-59.02 935.95,-59.02"/>
<text text-anchor="middle" x="1193" y="-201.8" font-family="Times,serif" font-size="14.00">source</text>
<text text-anchor="middle" x="1193" y="-186.8" font-family="Times,serif" font-size="14.00">link</text>
</g>
<!-- Ui -->
<g id="node11" class="node">
<title>Ui</title>
<path fill="#f3e5f5" stroke="black" d="M1075.5,-482C1075.5,-482 1004.5,-482 1004.5,-482 998.5,-482 992.5,-476 992.5,-470 992.5,-470 992.5,-458 992.5,-458 992.5,-452 998.5,-446 1004.5,-446 1004.5,-446 1075.5,-446 1075.5,-446 1081.5,-446 1087.5,-452 1087.5,-458 1087.5,-458 1087.5,-470 1087.5,-470 1087.5,-476 1081.5,-482 1075.5,-482"/>
<text text-anchor="middle" x="1040" y="-467" font-family="Segoe UI, Helvetica, Arial, sans-serif" font-size="10.00">Ui</text>
<text text-anchor="middle" x="1040" y="-456" font-family="Segoe UI, Helvetica, Arial, sans-serif" font-size="10.00">(web dashboard)</text>
</g>
<!-- Ui&#45;&gt;UiShared -->
<g id="edge23" class="edge">
<title>Ui&#45;&gt;UiShared</title>
<path fill="none" stroke="#666666" d="M1040,-445.76C1040,-445.76 1040,-387.08 1040,-387.08"/>
<polygon fill="#666666" stroke="#666666" points="1042.45,-387.08 1040,-380.08 1037.55,-387.08 1042.45,-387.08"/>
</g>
<!-- Wpf -->
<g id="node12" class="node">
<title>Wpf</title>
<path fill="#f3e5f5" stroke="black" stroke-dasharray="5,2" d="M1225.5,-482C1225.5,-482 1142.5,-482 1142.5,-482 1136.5,-482 1130.5,-476 1130.5,-470 1130.5,-470 1130.5,-458 1130.5,-458 1130.5,-452 1136.5,-446 1142.5,-446 1142.5,-446 1225.5,-446 1225.5,-446 1231.5,-446 1237.5,-452 1237.5,-458 1237.5,-458 1237.5,-470 1237.5,-470 1237.5,-476 1231.5,-482 1225.5,-482"/>
<text text-anchor="middle" x="1184" y="-467" font-family="Segoe UI, Helvetica, Arial, sans-serif" font-size="10.00">Wpf</text>
<text text-anchor="middle" x="1184" y="-456" font-family="Segoe UI, Helvetica, Arial, sans-serif" font-size="10.00">(WPF desktop app)</text>
</g>
<!-- Wpf&#45;&gt;UiServices -->
<g id="edge25" class="edge">
<title>Wpf&#45;&gt;UiServices</title>
<path fill="none" stroke="#666666" stroke-dasharray="5,2" d="M1203.5,-445.76C1203.5,-445.76 1203.5,-387.08 1203.5,-387.08"/>
<polygon fill="#666666" stroke="#666666" points="1205.95,-387.08 1203.5,-380.08 1201.05,-387.08 1205.95,-387.08"/>
</g>
<!-- MainApp -->
<g id="node13" class="node">
<title>MainApp</title>
<path fill="#ffebee" stroke="black" d="M405,-482C405,-482 333,-482 333,-482 327,-482 321,-476 321,-470 321,-470 321,-458 321,-458 321,-452 327,-446 333,-446 333,-446 405,-446 405,-446 411,-446 417,-452 417,-458 417,-458 417,-470 417,-470 417,-476 411,-482 405,-482"/>
<text text-anchor="middle" x="369" y="-467" font-family="Segoe UI, Helvetica, Arial, sans-serif" font-size="10.00">Meridian</text>
<text text-anchor="middle" x="369" y="-456" font-family="Segoe UI, Helvetica, Arial, sans-serif" font-size="10.00">(entry point, CLI)</text>
</g>
<!-- MainApp&#45;&gt;Contracts -->
<g id="edge31" class="edge">
<title>MainApp&#45;&gt;Contracts</title>
<path fill="none" stroke="#666666" d="M417.23,-464C538.97,-464 849.07,-464 849.07,-464 849.07,-464 849.07,-59.2 849.07,-59.2"/>
<polygon fill="#666666" stroke="#666666" points="851.52,-59.2 849.07,-52.2 846.62,-59.2 851.52,-59.2"/>
</g>
<!-- MainApp&#45;&gt;ProviderSdk -->
<g id="edge32" class="edge">
<title>MainApp&#45;&gt;ProviderSdk</title>
<path fill="none" stroke="#666666" d="M400.5,-445.77C400.5,-365.32 400.5,-46 400.5,-46 400.5,-46 396.54,-46 396.54,-46"/>
<polygon fill="#666666" stroke="#666666" points="396.54,-43.55 389.54,-46 396.54,-48.45 396.54,-43.55"/>
</g>
<!-- MainApp&#45;&gt;Domain -->
<g id="edge30" class="edge">
<title>MainApp&#45;&gt;Domain</title>
<path fill="none" stroke="#666666" d="M395,-445.64C395,-378.2 395,-148 395,-148 395,-148 350.55,-148 350.55,-148"/>
<polygon fill="#666666" stroke="#666666" points="350.55,-145.55 343.55,-148 350.55,-150.45 350.55,-145.55"/>
</g>
<!-- MainApp&#45;&gt;Core -->
<g id="edge29" class="edge">
<title>MainApp&#45;&gt;Core</title>
<path fill="none" stroke="#666666" d="M355.25,-445.9C355.25,-445.9 355.25,-285.06 355.25,-285.06"/>
<polygon fill="#666666" stroke="#666666" points="357.7,-285.06 355.25,-278.06 352.8,-285.06 357.7,-285.06"/>
</g>
<!-- MainApp&#45;&gt;Infrastructure -->
<g id="edge27" class="edge">
<title>MainApp&#45;&gt;Infrastructure</title>
<path fill="none" stroke="#666666" d="M417.12,-455C507.84,-455 695.12,-455 695.12,-455 695.12,-455 695.12,-285.35 695.12,-285.35"/>
<polygon fill="#666666" stroke="#666666" points="697.58,-285.35 695.12,-278.35 692.68,-285.35 697.58,-285.35"/>
</g>
<!-- MainApp&#45;&gt;Storage -->
<g id="edge28" class="edge">
<title>MainApp&#45;&gt;Storage</title>
<path fill="none" stroke="#666666" d="M406,-445.73C406,-396.71 406,-266 406,-266 406,-266 467.68,-266 467.68,-266"/>
<polygon fill="#666666" stroke="#666666" points="467.68,-268.45 474.68,-266 467.68,-263.55 467.68,-268.45"/>
</g>
<!-- MainApp&#45;&gt;Application -->
<g id="edge26" class="edge">
<title>MainApp&#45;&gt;Application</title>
<path fill="none" stroke="#666666" d="M338.12,-445.68C338.12,-418.08 338.12,-369 338.12,-369 338.12,-369 259.91,-369 259.91,-369"/>
<polygon fill="#666666" stroke="#666666" points="259.91,-366.55 252.91,-369 259.91,-371.45 259.91,-366.55"/>
</g>
<!-- MainApp&#45;&gt;UiShared -->
<g id="edge33" class="edge">
<title>MainApp&#45;&gt;UiShared</title>
<path fill="none" stroke="#666666" d="M411.5,-445.82C411.5,-419.01 411.5,-372 411.5,-372 411.5,-372 985,-372 985,-372"/>
<polygon fill="#666666" stroke="#666666" points="985,-374.45 992,-372 985,-369.55 985,-374.45"/>
</g>
<!-- Tests -->
<g id="node14" class="node">
<title>Tests</title>
<path fill="#eceff1" stroke="black" d="M843.5,-584C843.5,-584 782.5,-584 782.5,-584 776.5,-584 770.5,-578 770.5,-572 770.5,-572 770.5,-560 770.5,-560 770.5,-554 776.5,-548 782.5,-548 782.5,-548 843.5,-548 843.5,-548 849.5,-548 855.5,-554 855.5,-560 855.5,-560 855.5,-572 855.5,-572 855.5,-578 849.5,-584 843.5,-584"/>
<text text-anchor="middle" x="813" y="-569" font-family="Segoe UI, Helvetica, Arial, sans-serif" font-size="10.00">Tests</text>
<text text-anchor="middle" x="813" y="-558" font-family="Segoe UI, Helvetica, Arial, sans-serif" font-size="10.00">(140 test files)</text>
</g>
<!-- Tests&#45;&gt;Domain -->
<g id="edge39" class="edge">
<title>Tests&#45;&gt;Domain</title>
<path fill="none" stroke="#999999" stroke-dasharray="1,5" d="M825.5,-547.82C825.5,-465.3 825.5,-130 825.5,-130 825.5,-130 350.51,-130 350.51,-130"/>
<polygon fill="#999999" stroke="#999999" points="350.51,-127.55 343.51,-130 350.51,-132.45 350.51,-127.55"/>
</g>
<!-- Tests&#45;&gt;Core -->
<g id="edge38" class="edge">
<title>Tests&#45;&gt;Core</title>
<path fill="none" stroke="#999999" stroke-dasharray="1,5" d="M770.43,-575C647.08,-575 298.17,-575 298.17,-575 298.17,-575 298.17,-285.3 298.17,-285.3"/>
<polygon fill="#999999" stroke="#999999" points="300.62,-285.3 298.17,-278.3 295.72,-285.3 300.62,-285.3"/>
</g>
<!-- Tests&#45;&gt;Infrastructure -->
<g id="edge36" class="edge">
<title>Tests&#45;&gt;Infrastructure</title>
<path fill="none" stroke="#999999" stroke-dasharray="1,5" d="M806.12,-547.77C806.12,-547.77 806.12,-285.13 806.12,-285.13"/>
<polygon fill="#999999" stroke="#999999" points="808.58,-285.13 806.12,-278.13 803.68,-285.13 808.58,-285.13"/>
</g>
<!-- Tests&#45;&gt;Storage -->
<g id="edge37" class="edge">
<title>Tests&#45;&gt;Storage</title>
<path fill="none" stroke="#999999" stroke-dasharray="1,5" d="M770.42,-566C702.28,-566 576.33,-566 576.33,-566 576.33,-566 576.33,-285.23 576.33,-285.23"/>
<polygon fill="#999999" stroke="#999999" points="578.78,-285.23 576.33,-278.23 573.88,-285.23 578.78,-285.23"/>
</g>
<!-- Tests&#45;&gt;Application -->
<g id="edge35" class="edge">
<title>Tests&#45;&gt;Application</title>
<path fill="none" stroke="#999999" stroke-dasharray="1,5" d="M794.25,-547.81C794.25,-498.33 794.25,-365 794.25,-365 794.25,-365 259.64,-365 259.64,-365"/>
<polygon fill="#999999" stroke="#999999" points="259.64,-362.55 252.64,-365 259.64,-367.45 259.64,-362.55"/>
</g>
<!-- Tests&#45;&gt;UiShared -->
<g id="edge40" class="edge">
<title>Tests&#45;&gt;UiShared</title>
<path fill="none" stroke="#999999" stroke-dasharray="1,5" d="M852.29,-547.78C852.29,-500.23 852.29,-376 852.29,-376 852.29,-376 984.66,-376 984.66,-376"/>
<polygon fill="#999999" stroke="#999999" points="984.66,-378.45 991.66,-376 984.66,-373.55 984.66,-378.45"/>
</g>
<!-- Tests&#45;&gt;MainApp -->
<g id="edge34" class="edge">
<title>Tests&#45;&gt;MainApp</title>
<path fill="none" stroke="#999999" stroke-dasharray="1,5" d="M782.38,-547.63C782.38,-520.52 782.38,-473 782.38,-473 782.38,-473 424.23,-473 424.23,-473"/>
<polygon fill="#999999" stroke="#999999" points="424.23,-470.55 417.23,-473 424.23,-475.45 424.23,-470.55"/>
</g>
<!-- FSharpTests -->
<g id="node15" class="node">
<title>FSharpTests</title>
<path fill="#eceff1" stroke="black" d="M1214.5,-584C1214.5,-584 1157.5,-584 1157.5,-584 1151.5,-584 1145.5,-578 1145.5,-572 1145.5,-572 1145.5,-560 1145.5,-560 1145.5,-554 1151.5,-548 1157.5,-548 1157.5,-548 1214.5,-548 1214.5,-548 1220.5,-548 1226.5,-554 1226.5,-560 1226.5,-560 1226.5,-572 1226.5,-572 1226.5,-578 1220.5,-584 1214.5,-584"/>
<text text-anchor="middle" x="1186" y="-569" font-family="Segoe UI, Helvetica, Arial, sans-serif" font-size="10.00">FSharp.Tests</text>
<text text-anchor="middle" x="1186" y="-558" font-family="Segoe UI, Helvetica, Arial, sans-serif" font-size="10.00">(4 test files)</text>
</g>
<!-- FSharpTests&#45;&gt;FSharp -->
<g id="edge41" class="edge">
<title>FSharpTests&#45;&gt;FSharp</title>
<path fill="none" stroke="#999999" stroke-dasharray="1,5" d="M1145.06,-566C1125.38,-566 1106,-566 1106,-566 1106,-566 1106,-59.01 1106,-59.01"/>
<polygon fill="#999999" stroke="#999999" points="1108.45,-59.01 1106,-52.01 1103.55,-59.01 1108.45,-59.01"/>
</g>
<!-- WpfTests -->
<g id="node16" class="node">
<title>WpfTests</title>
<path fill="#eceff1" stroke="black" stroke-dasharray="5,2" d="M967,-584C967,-584 911,-584 911,-584 905,-584 899,-578 899,-572 899,-572 899,-560 899,-560 899,-554 905,-548 911,-548 911,-548 967,-548 967,-548 973,-548 979,-554 979,-560 979,-560 979,-572 979,-572 979,-578 973,-584 967,-584"/>
<text text-anchor="middle" x="939" y="-569" font-family="Segoe UI, Helvetica, Arial, sans-serif" font-size="10.00">Wpf.Tests</text>
<text text-anchor="middle" x="939" y="-558" font-family="Segoe UI, Helvetica, Arial, sans-serif" font-size="10.00">(19 test files)</text>
</g>
<!-- WpfTests&#45;&gt;Contracts -->
<g id="edge44" class="edge">
<title>WpfTests&#45;&gt;Contracts</title>
<path fill="none" stroke="#999999" stroke-dasharray="1,5" d="M910.5,-547.99C910.5,-547.99 910.5,-59 910.5,-59"/>
<polygon fill="#999999" stroke="#999999" points="912.95,-59 910.5,-52 908.05,-59 912.95,-59"/>
</g>
<!-- WpfTests&#45;&gt;UiServices -->
<g id="edge43" class="edge">
<title>WpfTests&#45;&gt;UiServices</title>
<path fill="none" stroke="#999999" stroke-dasharray="1,5" d="M956.33,-547.85C956.33,-507.32 956.33,-413 956.33,-413 956.33,-413 1169.5,-413 1169.5,-413 1169.5,-413 1169.5,-387.12 1169.5,-387.12"/>
<polygon fill="#999999" stroke="#999999" points="1171.95,-387.12 1169.5,-380.12 1167.05,-387.12 1171.95,-387.12"/>
</g>
<!-- WpfTests&#45;&gt;Wpf -->
<g id="edge42" class="edge">
<title>WpfTests&#45;&gt;Wpf</title>
<path fill="none" stroke="#999999" stroke-dasharray="1,5" d="M967.67,-547.88C967.67,-533.22 967.67,-515 967.67,-515 967.67,-515 1138,-515 1138,-515 1138,-515 1138,-489.12 1138,-489.12"/>
<polygon fill="#999999" stroke="#999999" points="1140.45,-489.12 1138,-482.12 1135.55,-489.12 1140.45,-489.12"/>
</g>
<!-- UiTests -->
<g id="node17" class="node">
<title>UiTests</title>
<path fill="#eceff1" stroke="black" stroke-dasharray="5,2" d="M1090,-584C1090,-584 1034,-584 1034,-584 1028,-584 1022,-578 1022,-572 1022,-572 1022,-560 1022,-560 1022,-554 1028,-548 1034,-548 1034,-548 1090,-548 1090,-548 1096,-548 1102,-554 1102,-560 1102,-560 1102,-572 1102,-572 1102,-578 1096,-584 1090,-584"/>
<text text-anchor="middle" x="1062" y="-569" font-family="Segoe UI, Helvetica, Arial, sans-serif" font-size="10.00">Ui.Tests</text>
<text text-anchor="middle" x="1062" y="-558" font-family="Segoe UI, Helvetica, Arial, sans-serif" font-size="10.00">(50 test files)</text>
</g>
<!-- UiTests&#45;&gt;UiServices -->
<g id="edge45" class="edge">
<title>UiTests&#45;&gt;UiServices</title>
<path fill="none" stroke="#999999" stroke-dasharray="1,5" d="M1097,-547.9C1097,-497.97 1097,-362 1097,-362 1097,-362 1128.43,-362 1128.43,-362"/>
<polygon fill="#999999" stroke="#999999" points="1128.43,-364.45 1135.43,-362 1128.43,-359.55 1128.43,-364.45"/>
</g>
<!-- Benchmarks -->
<g id="node18" class="node">
<title>Benchmarks</title>
<path fill="#eceff1" stroke="black" d="M114,-584C114,-584 28,-584 28,-584 22,-584 16,-578 16,-572 16,-572 16,-560 16,-560 16,-554 22,-548 28,-548 28,-548 114,-548 114,-548 120,-548 126,-554 126,-560 126,-560 126,-572 126,-572 126,-578 120,-584 114,-584"/>
<text text-anchor="middle" x="71" y="-569" font-family="Segoe UI, Helvetica, Arial, sans-serif" font-size="10.00">Benchmarks</text>
<text text-anchor="middle" x="71" y="-558" font-family="Segoe UI, Helvetica, Arial, sans-serif" font-size="10.00">(BenchmarkDotNet)</text>
</g>
<!-- Benchmarks&#45;&gt;Domain -->
<g id="edge49" class="edge">
<title>Benchmarks&#45;&gt;Domain</title>
<path fill="none" stroke="#999999" stroke-dasharray="1,5" d="M59.75,-547.8C59.75,-465.95 59.75,-136 59.75,-136 59.75,-136 193.44,-136 193.44,-136"/>
<polygon fill="#999999" stroke="#999999" points="193.44,-138.45 200.44,-136 193.44,-133.55 193.44,-138.45"/>
</g>
<!-- Benchmarks&#45;&gt;Core -->
<g id="edge48" class="edge">
<title>Benchmarks&#45;&gt;Core</title>
<path fill="none" stroke="#999999" stroke-dasharray="1,5" d="M126.03,-557C186.55,-557 275.33,-557 275.33,-557 275.33,-557 275.33,-285.13 275.33,-285.13"/>
<polygon fill="#999999" stroke="#999999" points="277.78,-285.13 275.33,-278.13 272.88,-285.13 277.78,-285.13"/>
</g>
<!-- Benchmarks&#45;&gt;Application -->
<g id="edge47" class="edge">
<title>Benchmarks&#45;&gt;Application</title>
<path fill="none" stroke="#999999" stroke-dasharray="1,5" d="M111,-547.9C111,-547.9 111,-387.06 111,-387.06"/>
<polygon fill="#999999" stroke="#999999" points="113.45,-387.06 111,-380.06 108.55,-387.06 113.45,-387.06"/>
</g>
<!-- Benchmarks&#45;&gt;MainApp -->
<g id="edge46" class="edge">
<title>Benchmarks&#45;&gt;MainApp</title>
<path fill="none" stroke="#999999" stroke-dasharray="1,5" d="M118.5,-547.76C118.5,-518.43 118.5,-464 118.5,-464 118.5,-464 314,-464 314,-464"/>
<polygon fill="#999999" stroke="#999999" points="314,-466.45 321,-464 314,-461.55 314,-466.45"/>
</g>
</g>
</svg>
