<?xml version="1.0" encoding="UTF-8" standalone="no"?>
<!DOCTYPE svg PUBLIC "-//W3C//DTD SVG 1.1//EN"
 "http://www.w3.org/Graphics/SVG/1.1/DTD/svg11.dtd">
<!-- Generated by graphviz version 2.43.0 (0)
 -->
<!-- Title: ProjectDependencies Pages: 1 -->
<svg width="3712pt" height="745pt"
 viewBox="0.00 0.00 3712.00 744.50" xmlns="http://www.w3.org/2000/svg" xmlns:xlink="http://www.w3.org/1999/xlink">
<g id="graph0" class="graph" transform="scale(1 1) rotate(0) translate(4 740.5)">
<title>ProjectDependencies</title>
<polygon fill="white" stroke="transparent" points="-4,4 -4,-740.5 3708,-740.5 3708,4 -4,4"/>
<text text-anchor="middle" x="1852" y="-721.3" font-family="Segoe UI, Helvetica, Arial, sans-serif" font-size="14.00">Meridian &#45; Project Dependencies</text>
<text text-anchor="middle" x="1852" y="-706.3" font-family="Segoe UI, Helvetica, Arial, sans-serif" font-size="14.00">(28 source projects | 8 test projects | 1 benchmark project)</text>
<g id="clust1" class="cluster">
<title>cluster_layer0</title>
<path fill="none" stroke="#aaaaaa" stroke-dasharray="5,2" d="M2591,-8C2591,-8 3295,-8 3295,-8 3301,-8 3307,-14 3307,-20 3307,-20 3307,-210.5 3307,-210.5 3307,-216.5 3301,-222.5 3295,-222.5 3295,-222.5 2591,-222.5 2591,-222.5 2585,-222.5 2579,-216.5 2579,-210.5 2579,-210.5 2579,-20 2579,-20 2579,-14 2585,-8 2591,-8"/>
<text text-anchor="middle" x="2943" y="-209.7" font-family="Segoe UI, Helvetica, Arial, sans-serif" font-size="11.00">Layer 0: Foundation — shared contracts and F# domain primitives (no inbound project deps)</text>
</g>
<g id="clust2" class="cluster">
<title>cluster_fsharp_family</title>
<path fill="none" stroke="#66bb6a" d="M2789,-16C2789,-16 3287,-16 3287,-16 3293,-16 3299,-22 3299,-28 3299,-28 3299,-182.5 3299,-182.5 3299,-188.5 3293,-194.5 3287,-194.5 3287,-194.5 2789,-194.5 2789,-194.5 2783,-194.5 2777,-188.5 2777,-182.5 2777,-182.5 2777,-28 2777,-28 2777,-22 2783,-16 2789,-16"/>
<text text-anchor="middle" x="3038" y="-182.5" font-family="Segoe UI, Helvetica, Arial, sans-serif" font-size="10.00">F# Domain Family</text>
</g>
<g id="clust3" class="cluster">
<title>cluster_layer1</title>
<path fill="none" stroke="#aaaaaa" stroke-dasharray="5,2" d="M734,-119C734,-119 1279,-119 1279,-119 1285,-119 1291,-125 1291,-131 1291,-131 1291,-188 1291,-188 1291,-194 1285,-200 1279,-200 1279,-200 734,-200 734,-200 728,-200 722,-194 722,-188 722,-188 722,-131 722,-131 722,-125 728,-119 734,-119"/>
<text text-anchor="middle" x="1006.5" y="-187.2" font-family="Segoe UI, Helvetica, Arial, sans-serif" font-size="11.00">Layer 1: SDK &amp; Core Interfaces</text>
</g>
<g id="clust4" class="cluster">
<title>cluster_layer2</title>
<path fill="none" stroke="#aaaaaa" stroke-dasharray="5,2" d="M2391,-119C2391,-119 2529,-119 2529,-119 2535,-119 2541,-125 2541,-131 2541,-131 2541,-437.5 2541,-437.5 2541,-443.5 2535,-449.5 2529,-449.5 2529,-449.5 2391,-449.5 2391,-449.5 2385,-449.5 2379,-443.5 2379,-437.5 2379,-437.5 2379,-131 2379,-131 2379,-125 2385,-119 2391,-119"/>
<text text-anchor="middle" x="2460" y="-436.7" font-family="Segoe UI, Helvetica, Arial, sans-serif" font-size="11.00">Layer 2: Core Domain</text>
</g>
<g id="clust5" class="cluster">
<title>cluster_layer3</title>
<path fill="none" stroke="#aaaaaa" stroke-dasharray="5,2" d="M850,-256.5C850,-256.5 1246,-256.5 1246,-256.5 1252,-256.5 1258,-262.5 1258,-268.5 1258,-268.5 1258,-437.5 1258,-437.5 1258,-443.5 1252,-449.5 1246,-449.5 1246,-449.5 850,-449.5 850,-449.5 844,-449.5 838,-443.5 838,-437.5 838,-437.5 838,-268.5 838,-268.5 838,-262.5 844,-256.5 850,-256.5"/>
<text text-anchor="middle" x="1048" y="-436.7" font-family="Segoe UI, Helvetica, Arial, sans-serif" font-size="11.00">Layer 3: Infrastructure &amp; Storage</text>
</g>
<g id="clust6" class="cluster">
<title>cluster_layer4</title>
<path fill="none" stroke="#aaaaaa" stroke-dasharray="5,2" d="M1587,-368.5C1587,-368.5 1977,-368.5 1977,-368.5 1983,-368.5 1989,-374.5 1989,-380.5 1989,-380.5 1989,-437.5 1989,-437.5 1989,-443.5 1983,-449.5 1977,-449.5 1977,-449.5 1587,-449.5 1587,-449.5 1581,-449.5 1575,-443.5 1575,-437.5 1575,-437.5 1575,-380.5 1575,-380.5 1575,-374.5 1581,-368.5 1587,-368.5"/>
<text text-anchor="middle" x="1782" y="-436.7" font-family="Segoe UI, Helvetica, Arial, sans-serif" font-size="11.00">Layer 4: Application Logic &amp; Backtesting SDK</text>
</g>
<g id="clust7" class="cluster">
<title>cluster_layer5</title>
<path fill="none" stroke="#aaaaaa" stroke-dasharray="5,2" d="M20,-368.5C20,-368.5 619,-368.5 619,-368.5 625,-368.5 631,-374.5 631,-380.5 631,-380.5 631,-552.5 631,-552.5 631,-558.5 625,-564.5 619,-564.5 619,-564.5 20,-564.5 20,-564.5 14,-564.5 8,-558.5 8,-552.5 8,-552.5 8,-380.5 8,-380.5 8,-374.5 14,-368.5 20,-368.5"/>
<text text-anchor="middle" x="319.5" y="-551.7" font-family="Segoe UI, Helvetica, Arial, sans-serif" font-size="11.00">Layer 5: Execution, Backtesting, Risk &amp; Strategies</text>
</g>
<g id="clust8" class="cluster">
<title>cluster_layer6</title>
<path fill="none" stroke="#aaaaaa" stroke-dasharray="5,2" d="M1825,-483.5C1825,-483.5 2529,-483.5 2529,-483.5 2535,-483.5 2541,-489.5 2541,-495.5 2541,-495.5 2541,-673 2541,-673 2541,-679 2535,-685 2529,-685 2529,-685 1825,-685 1825,-685 1819,-685 1813,-679 1813,-673 1813,-673 1813,-495.5 1813,-495.5 1813,-489.5 1819,-483.5 1825,-483.5"/>
<text text-anchor="middle" x="2177" y="-672.2" font-family="Segoe UI, Helvetica, Arial, sans-serif" font-size="11.00">Layer 6: UI &amp; Presentation</text>
</g>
<g id="clust9" class="cluster">
<title>cluster_layer7</title>
<path fill="none" stroke="#aaaaaa" stroke-dasharray="5,2" d="M3194,-483.5C3194,-483.5 3406,-483.5 3406,-483.5 3412,-483.5 3418,-489.5 3418,-495.5 3418,-495.5 3418,-552.5 3418,-552.5 3418,-558.5 3412,-564.5 3406,-564.5 3406,-564.5 3194,-564.5 3194,-564.5 3188,-564.5 3182,-558.5 3182,-552.5 3182,-552.5 3182,-495.5 3182,-495.5 3182,-489.5 3188,-483.5 3194,-483.5"/>
<text text-anchor="middle" x="3300" y="-551.7" font-family="Segoe UI, Helvetica, Arial, sans-serif" font-size="11.00">Layer 7: Entry Point</text>
</g>
<g id="clust10" class="cluster">
<title>cluster_tests</title>
<path fill="none" stroke="#888888" stroke-dasharray="5,2" d="M485,-598.5C485,-598.5 1781,-598.5 1781,-598.5 1787,-598.5 1793,-604.5 1793,-610.5 1793,-610.5 1793,-678.5 1793,-678.5 1793,-684.5 1787,-690.5 1781,-690.5 1781,-690.5 485,-690.5 485,-690.5 479,-690.5 473,-684.5 473,-678.5 473,-678.5 473,-610.5 473,-610.5 473,-604.5 479,-598.5 485,-598.5"/>
<text text-anchor="middle" x="1133" y="-677.7" font-family="Segoe UI, Helvetica, Arial, sans-serif" font-size="11.00">Test Projects &#160;(8 projects · 371 test files total)</text>
</g>
<g id="clust11" class="cluster">
<title>cluster_benchmarks</title>
<path fill="none" stroke="#888888" stroke-dasharray="5,2" d="M2642,-604C2642,-604 2790,-604 2790,-604 2796,-604 2802,-610 2802,-616 2802,-616 2802,-673 2802,-673 2802,-679 2796,-685 2790,-685 2790,-685 2642,-685 2642,-685 2636,-685 2630,-679 2630,-673 2630,-673 2630,-616 2630,-616 2630,-610 2636,-604 2642,-604"/>
<text text-anchor="middle" x="2716" y="-672.2" font-family="Segoe UI, Helvetica, Arial, sans-serif" font-size="11.00">Benchmarks</text>
</g>
<g id="clust12" class="cluster">
<title>cluster_legend</title>
<path fill="#fafafa" stroke="#888888" d="M2834,-608.5C2834,-608.5 3684,-608.5 3684,-608.5 3690,-608.5 3696,-614.5 3696,-620.5 3696,-620.5 3696,-667.5 3696,-667.5 3696,-673.5 3690,-679.5 3684,-679.5 3684,-679.5 2834,-679.5 2834,-679.5 2828,-679.5 2822,-673.5 2822,-667.5 2822,-667.5 2822,-620.5 2822,-620.5 2822,-614.5 2828,-608.5 2834,-608.5"/>
<text text-anchor="middle" x="3259" y="-667.5" font-family="Segoe UI, Helvetica, Arial, sans-serif" font-size="10.00">Legend</text>
</g>
<!-- Contracts -->
<g id="node1" class="node">
<title>Contracts</title>
<path fill="#e8f5e9" stroke="black" d="M2757,-60C2757,-60 2599,-60 2599,-60 2593,-60 2587,-54 2587,-48 2587,-48 2587,-36 2587,-36 2587,-30 2593,-24 2599,-24 2599,-24 2757,-24 2757,-24 2763,-24 2769,-30 2769,-36 2769,-36 2769,-48 2769,-48 2769,-54 2763,-60 2757,-60"/>
<text text-anchor="middle" x="2678" y="-45" font-family="Segoe UI, Helvetica, Arial, sans-serif" font-size="10.00">Contracts</text>
<text text-anchor="middle" x="2678" y="-34" font-family="Segoe UI, Helvetica, Arial, sans-serif" font-size="10.00">(API models, DTOs, domain events)</text>
</g>
<!-- FSharp -->
<g id="node2" class="node">
<title>FSharp</title>
<path fill="#c8e6c9" stroke="black" d="M2947,-60C2947,-60 2817,-60 2817,-60 2811,-60 2805,-54 2805,-48 2805,-48 2805,-36 2805,-36 2805,-30 2811,-24 2817,-24 2817,-24 2947,-24 2947,-24 2953,-24 2959,-30 2959,-36 2959,-36 2959,-48 2959,-48 2959,-54 2953,-60 2947,-60"/>
<text text-anchor="middle" x="2882" y="-45" font-family="Segoe UI, Helvetica, Arial, sans-serif" font-size="10.00">FSharp</text>
<text text-anchor="middle" x="2882" y="-34" font-family="Segoe UI, Helvetica, Arial, sans-serif" font-size="10.00">(validation, calculations, DUs)</text>
</g>
<!-- FSharpLedger -->
<g id="node3" class="node">
<title>FSharpLedger</title>
<path fill="#c8e6c9" stroke="black" d="M2893,-167.5C2893,-167.5 2797,-167.5 2797,-167.5 2791,-167.5 2785,-161.5 2785,-155.5 2785,-155.5 2785,-143.5 2785,-143.5 2785,-137.5 2791,-131.5 2797,-131.5 2797,-131.5 2893,-131.5 2893,-131.5 2899,-131.5 2905,-137.5 2905,-143.5 2905,-143.5 2905,-155.5 2905,-155.5 2905,-161.5 2899,-167.5 2893,-167.5"/>
<text text-anchor="middle" x="2845" y="-152.5" font-family="Segoe UI, Helvetica, Arial, sans-serif" font-size="10.00">FSharp.Ledger</text>
<text text-anchor="middle" x="2845" y="-141.5" font-family="Segoe UI, Helvetica, Arial, sans-serif" font-size="10.00">(journal, reconciliation)</text>
</g>
<!-- FSharpTrading -->
<g id="node4" class="node">
<title>FSharpTrading</title>
<path fill="#c8e6c9" stroke="black" d="M3073,-167.5C3073,-167.5 2953,-167.5 2953,-167.5 2947,-167.5 2941,-161.5 2941,-155.5 2941,-155.5 2941,-143.5 2941,-143.5 2941,-137.5 2947,-131.5 2953,-131.5 2953,-131.5 3073,-131.5 3073,-131.5 3079,-131.5 3085,-137.5 3085,-143.5 3085,-143.5 3085,-155.5 3085,-155.5 3085,-161.5 3079,-167.5 3073,-167.5"/>
<text text-anchor="middle" x="3013" y="-152.5" font-family="Segoe UI, Helvetica, Arial, sans-serif" font-size="10.00">FSharp.Trading</text>
<text text-anchor="middle" x="3013" y="-141.5" font-family="Segoe UI, Helvetica, Arial, sans-serif" font-size="10.00">(strategy lifecycle F# types)</text>
</g>
<!-- FSharpDL -->
<g id="node5" class="node">
<title>FSharpDL</title>
<path fill="#dcedc8" stroke="black" d="M3279,-167.5C3279,-167.5 3133,-167.5 3133,-167.5 3127,-167.5 3121,-161.5 3121,-155.5 3121,-155.5 3121,-143.5 3121,-143.5 3121,-137.5 3127,-131.5 3133,-131.5 3133,-131.5 3279,-131.5 3279,-131.5 3285,-131.5 3291,-137.5 3291,-143.5 3291,-143.5 3291,-155.5 3291,-155.5 3291,-161.5 3285,-167.5 3279,-167.5"/>
<text text-anchor="middle" x="3206" y="-152.5" font-family="Segoe UI, Helvetica, Arial, sans-serif" font-size="10.00">FSharp.DirectLending.Aggregates</text>
<text text-anchor="middle" x="3206" y="-141.5" font-family="Segoe UI, Helvetica, Arial, sans-serif" font-size="10.00">(contract &amp; servicing aggregates)</text>
</g>
<!-- FSharpDL&#45;&gt;Contracts -->
<g id="edge1" class="edge">
<title>FSharpDL&#45;&gt;Contracts</title>
<path fill="none" stroke="#666666" d="M3177.67,-131.33C3177.67,-109.57 3177.67,-76 3177.67,-76 3177.67,-76 2750.36,-76 2750.36,-76 2750.36,-76 2750.36,-67.19 2750.36,-67.19"/>
<polygon fill="#666666" stroke="#666666" points="2752.81,-67.19 2750.36,-60.19 2747.91,-67.19 2752.81,-67.19"/>
</g>
<!-- FSharpDL&#45;&gt;FSharp -->
<g id="edge2" class="edge">
<title>FSharpDL&#45;&gt;FSharp</title>
<path fill="none" stroke="#666666" d="M3234.33,-131.26C3234.33,-100.59 3234.33,-42 3234.33,-42 3234.33,-42 2966.32,-42 2966.32,-42"/>
<polygon fill="#666666" stroke="#666666" points="2966.32,-39.55 2959.32,-42 2966.32,-44.45 2966.32,-39.55"/>
</g>
<!-- ProviderSdk -->
<g id="node6" class="node">
<title>ProviderSdk</title>
<path fill="#e3f2fd" stroke="black" d="M1271,-172C1271,-172 1129,-172 1129,-172 1123,-172 1117,-166 1117,-160 1117,-160 1117,-139 1117,-139 1117,-133 1123,-127 1129,-127 1129,-127 1271,-127 1271,-127 1277,-127 1283,-133 1283,-139 1283,-139 1283,-160 1283,-160 1283,-166 1277,-172 1271,-172"/>
<text text-anchor="middle" x="1200" y="-158" font-family="Segoe UI, Helvetica, Arial, sans-serif" font-size="10.00">ProviderSdk</text>
<text text-anchor="middle" x="1200" y="-147" font-family="Segoe UI, Helvetica, Arial, sans-serif" font-size="10.00">(IDataSource, IMarketDataClient</text>
<text text-anchor="middle" x="1200" y="-136" font-family="Segoe UI, Helvetica, Arial, sans-serif" font-size="10.00">[DataSource] attribute, registry)</text>
</g>
<!-- ProviderSdk&#45;&gt;Contracts -->
<g id="edge3" class="edge">
<title>ProviderSdk&#45;&gt;Contracts</title>
<path fill="none" stroke="#666666" d="M1200,-126.97C1200,-97.07 1200,-48 1200,-48 1200,-48 2579.94,-48 2579.94,-48"/>
<polygon fill="#666666" stroke="#666666" points="2579.94,-50.45 2586.94,-48 2579.94,-45.55 2579.94,-50.45"/>
</g>
<!-- ExecutionSdk -->
<g id="node7" class="node">
<title>ExecutionSdk</title>
<path fill="#e3f2fd" stroke="black" d="M1068.5,-172C1068.5,-172 909.5,-172 909.5,-172 903.5,-172 897.5,-166 897.5,-160 897.5,-160 897.5,-139 897.5,-139 897.5,-133 903.5,-127 909.5,-127 909.5,-127 1068.5,-127 1068.5,-127 1074.5,-127 1080.5,-133 1080.5,-139 1080.5,-139 1080.5,-160 1080.5,-160 1080.5,-166 1074.5,-172 1068.5,-172"/>
<text text-anchor="middle" x="989" y="-158" font-family="Segoe UI, Helvetica, Arial, sans-serif" font-size="10.00">Execution.Sdk</text>
<text text-anchor="middle" x="989" y="-147" font-family="Segoe UI, Helvetica, Arial, sans-serif" font-size="10.00">(IOrderGateway, IBrokerageGateway</text>
<text text-anchor="middle" x="989" y="-136" font-family="Segoe UI, Helvetica, Arial, sans-serif" font-size="10.00">IOrderManager, IPositionTracker)</text>
</g>
<!-- ExecutionSdk&#45;&gt;Contracts -->
<g id="edge4" class="edge">
<title>ExecutionSdk&#45;&gt;Contracts</title>
<path fill="none" stroke="#666666" d="M989,-126.96C989,-95.44 989,-42 989,-42 989,-42 2579.89,-42 2579.89,-42"/>
<polygon fill="#666666" stroke="#666666" points="2579.89,-44.45 2586.89,-42 2579.89,-39.55 2579.89,-44.45"/>
</g>
<!-- IbApiStub -->
<g id="node8" class="node">
<title>IbApiStub</title>
<path fill="#e3f2fd" stroke="black" stroke-dasharray="5,2" d="M849.5,-167.5C849.5,-167.5 742.5,-167.5 742.5,-167.5 736.5,-167.5 730.5,-161.5 730.5,-155.5 730.5,-155.5 730.5,-143.5 730.5,-143.5 730.5,-137.5 736.5,-131.5 742.5,-131.5 742.5,-131.5 849.5,-131.5 849.5,-131.5 855.5,-131.5 861.5,-137.5 861.5,-143.5 861.5,-143.5 861.5,-155.5 861.5,-155.5 861.5,-161.5 855.5,-167.5 849.5,-167.5"/>
<text text-anchor="middle" x="796" y="-152.5" font-family="Segoe UI, Helvetica, Arial, sans-serif" font-size="10.00">IbApi.SmokeStub</text>
<text text-anchor="middle" x="796" y="-141.5" font-family="Segoe UI, Helvetica, Arial, sans-serif" font-size="10.00">(IB API smoke&#45;test stub)</text>
</g>
<!-- Domain -->
<g id="node9" class="node">
<title>Domain</title>
<path fill="#e1f5fe" stroke="black" d="M2515,-172C2515,-172 2399,-172 2399,-172 2393,-172 2387,-166 2387,-160 2387,-160 2387,-139 2387,-139 2387,-133 2393,-127 2399,-127 2399,-127 2515,-127 2515,-127 2521,-127 2527,-133 2527,-139 2527,-139 2527,-160 2527,-160 2527,-166 2521,-172 2515,-172"/>
<text text-anchor="middle" x="2457" y="-158" font-family="Segoe UI, Helvetica, Arial, sans-serif" font-size="10.00">Domain</text>
<text text-anchor="middle" x="2457" y="-147" font-family="Segoe UI, Helvetica, Arial, sans-serif" font-size="10.00">(collectors, events, models</text>
<text text-anchor="middle" x="2457" y="-136" font-family="Segoe UI, Helvetica, Arial, sans-serif" font-size="10.00">MarketEvent hierarchy)</text>
</g>
<!-- Domain&#45;&gt;Contracts -->
<g id="edge5" class="edge">
<title>Domain&#45;&gt;Contracts</title>
<path fill="none" stroke="#666666" d="M2527.1,-140C2561.48,-140 2595.58,-140 2595.58,-140 2595.58,-140 2595.58,-67.43 2595.58,-67.43"/>
<polygon fill="#666666" stroke="#666666" points="2598.03,-67.43 2595.58,-60.43 2593.13,-67.43 2598.03,-67.43"/>
</g>
<!-- Domain&#45;&gt;ProviderSdk -->
<g id="edge6" class="edge">
<title>Domain&#45;&gt;ProviderSdk</title>
<path fill="none" stroke="#666666" d="M2386.72,-133C2386.72,-133 1290.04,-133 1290.04,-133"/>
<polygon fill="#666666" stroke="#666666" points="1290.04,-130.55 1283.04,-133 1290.04,-135.45 1290.04,-130.55"/>
</g>
<!-- Core -->
<g id="node10" class="node">
<title>Core</title>
<path fill="#e1f5fe" stroke="black" d="M2521,-309.5C2521,-309.5 2399,-309.5 2399,-309.5 2393,-309.5 2387,-303.5 2387,-297.5 2387,-297.5 2387,-276.5 2387,-276.5 2387,-270.5 2393,-264.5 2399,-264.5 2399,-264.5 2521,-264.5 2521,-264.5 2527,-264.5 2533,-270.5 2533,-276.5 2533,-276.5 2533,-297.5 2533,-297.5 2533,-303.5 2527,-309.5 2521,-309.5"/>
<text text-anchor="middle" x="2460" y="-295.5" font-family="Segoe UI, Helvetica, Arial, sans-serif" font-size="10.00">Core</text>
<text text-anchor="middle" x="2460" y="-284.5" font-family="Segoe UI, Helvetica, Arial, sans-serif" font-size="10.00">(config, logging, serialization</text>
<text text-anchor="middle" x="2460" y="-273.5" font-family="Segoe UI, Helvetica, Arial, sans-serif" font-size="10.00">schedules, performance)</text>
</g>
<!-- Core&#45;&gt;Contracts -->
<g id="edge7" class="edge">
<title>Core&#45;&gt;Contracts</title>
<path fill="none" stroke="#666666" d="M2533.35,-275C2568.96,-275 2604.17,-275 2604.17,-275 2604.17,-275 2604.17,-67.28 2604.17,-67.28"/>
<polygon fill="#666666" stroke="#666666" points="2606.62,-67.28 2604.17,-60.28 2601.72,-67.28 2606.62,-67.28"/>
</g>
<!-- Core&#45;&gt;ProviderSdk -->
<g id="edge9" class="edge">
<title>Core&#45;&gt;ProviderSdk</title>
<path fill="none" stroke="#666666" d="M2386.71,-274C2127.09,-274 1266.75,-274 1266.75,-274 1266.75,-274 1266.75,-179.05 1266.75,-179.05"/>
<polygon fill="#666666" stroke="#666666" points="1269.2,-179.05 1266.75,-172.05 1264.3,-179.05 1269.2,-179.05"/>
</g>
<!-- Core&#45;&gt;Domain -->
<g id="edge8" class="edge">
<title>Core&#45;&gt;Domain</title>
<path fill="none" stroke="#666666" d="M2499,-264.29C2499,-264.29 2499,-179.24 2499,-179.24"/>
<polygon fill="#666666" stroke="#666666" points="2501.45,-179.24 2499,-172.24 2496.55,-179.24 2501.45,-179.24"/>
</g>
<!-- Ledger -->
<g id="node11" class="node">
<title>Ledger</title>
<path fill="#e1f5fe" stroke="black" d="M2520.5,-421.5C2520.5,-421.5 2399.5,-421.5 2399.5,-421.5 2393.5,-421.5 2387.5,-415.5 2387.5,-409.5 2387.5,-409.5 2387.5,-388.5 2387.5,-388.5 2387.5,-382.5 2393.5,-376.5 2399.5,-376.5 2399.5,-376.5 2520.5,-376.5 2520.5,-376.5 2526.5,-376.5 2532.5,-382.5 2532.5,-388.5 2532.5,-388.5 2532.5,-409.5 2532.5,-409.5 2532.5,-415.5 2526.5,-421.5 2520.5,-421.5"/>
<text text-anchor="middle" x="2460" y="-407.5" font-family="Segoe UI, Helvetica, Arial, sans-serif" font-size="10.00">Ledger</text>
<text text-anchor="middle" x="2460" y="-396.5" font-family="Segoe UI, Helvetica, Arial, sans-serif" font-size="10.00">(double&#45;entry journal</text>
<text text-anchor="middle" x="2460" y="-385.5" font-family="Segoe UI, Helvetica, Arial, sans-serif" font-size="10.00">fund &amp; project ledger books)</text>
</g>
<!-- Ledger&#45;&gt;FSharpLedger -->
<g id="edge11" class="edge">
<title>Ledger&#45;&gt;FSharpLedger</title>
<path fill="none" stroke="#666666" d="M2532.66,-399C2629.62,-399 2789.25,-399 2789.25,-399 2789.25,-399 2789.25,-174.85 2789.25,-174.85"/>
<polygon fill="#666666" stroke="#666666" points="2791.7,-174.85 2789.25,-167.85 2786.8,-174.85 2791.7,-174.85"/>
</g>
<!-- Ledger&#45;&gt;Core -->
<g id="edge10" class="edge">
<title>Ledger&#45;&gt;Core</title>
<path fill="none" stroke="#666666" d="M2484.17,-376.34C2484.17,-376.34 2484.17,-316.63 2484.17,-316.63"/>
<polygon fill="#666666" stroke="#666666" points="2486.62,-316.63 2484.17,-309.63 2481.72,-316.63 2486.62,-316.63"/>
</g>
<!-- Infrastructure -->
<g id="node12" class="node">
<title>Infrastructure</title>
<path fill="#fff3e0" stroke="black" d="M990,-309.5C990,-309.5 858,-309.5 858,-309.5 852,-309.5 846,-303.5 846,-297.5 846,-297.5 846,-276.5 846,-276.5 846,-270.5 852,-264.5 858,-264.5 858,-264.5 990,-264.5 990,-264.5 996,-264.5 1002,-270.5 1002,-276.5 1002,-276.5 1002,-297.5 1002,-297.5 1002,-303.5 996,-309.5 990,-309.5"/>
<text text-anchor="middle" x="924" y="-295.5" font-family="Segoe UI, Helvetica, Arial, sans-serif" font-size="10.00">Infrastructure</text>
<text text-anchor="middle" x="924" y="-284.5" font-family="Segoe UI, Helvetica, Arial, sans-serif" font-size="10.00">(streaming providers, historical</text>
<text text-anchor="middle" x="924" y="-273.5" font-family="Segoe UI, Helvetica, Arial, sans-serif" font-size="10.00">providers, resilience, HTTP)</text>
</g>
<!-- Infrastructure&#45;&gt;Contracts -->
<g id="edge14" class="edge">
<title>Infrastructure&#45;&gt;Contracts</title>
<path fill="none" stroke="#666666" d="M879.5,-264.11C879.5,-202.72 879.5,-39 879.5,-39 879.5,-39 2579.96,-39 2579.96,-39"/>
<polygon fill="#666666" stroke="#666666" points="2579.96,-41.45 2586.96,-39 2579.96,-36.55 2579.96,-41.45"/>
</g>
<!-- Infrastructure&#45;&gt;ProviderSdk -->
<g id="edge15" class="edge">
<title>Infrastructure&#45;&gt;ProviderSdk</title>
<path fill="none" stroke="#666666" d="M1002.01,-267C1063.62,-267 1139.25,-267 1139.25,-267 1139.25,-267 1139.25,-179.16 1139.25,-179.16"/>
<polygon fill="#666666" stroke="#666666" points="1141.7,-179.16 1139.25,-172.16 1136.8,-179.16 1141.7,-179.16"/>
</g>
<!-- Infrastructure&#45;&gt;Domain -->
<g id="edge13" class="edge">
<title>Infrastructure&#45;&gt;Domain</title>
<path fill="none" stroke="#666666" d="M1002.08,-277C1116.04,-277 1314.5,-277 1314.5,-277 1314.5,-277 1314.5,-139 1314.5,-139 1314.5,-139 2379.82,-139 2379.82,-139"/>
<polygon fill="#666666" stroke="#666666" points="2379.82,-141.45 2386.82,-139 2379.82,-136.55 2379.82,-141.45"/>
</g>
<!-- Infrastructure&#45;&gt;Core -->
<g id="edge12" class="edge">
<title>Infrastructure&#45;&gt;Core</title>
<path fill="none" stroke="#666666" d="M1002.02,-280C1002.02,-280 2379.8,-280 2379.8,-280"/>
<polygon fill="#666666" stroke="#666666" points="2379.8,-282.45 2386.8,-280 2379.8,-277.55 2379.8,-282.45"/>
</g>
<!-- Storage -->
<g id="node13" class="node">
<title>Storage</title>
<path fill="#fff3e0" stroke="black" d="M1238.5,-421.5C1238.5,-421.5 1049.5,-421.5 1049.5,-421.5 1043.5,-421.5 1037.5,-415.5 1037.5,-409.5 1037.5,-409.5 1037.5,-388.5 1037.5,-388.5 1037.5,-382.5 1043.5,-376.5 1049.5,-376.5 1049.5,-376.5 1238.5,-376.5 1238.5,-376.5 1244.5,-376.5 1250.5,-382.5 1250.5,-388.5 1250.5,-388.5 1250.5,-409.5 1250.5,-409.5 1250.5,-415.5 1244.5,-421.5 1238.5,-421.5"/>
<text text-anchor="middle" x="1144" y="-407.5" font-family="Segoe UI, Helvetica, Arial, sans-serif" font-size="10.00">Storage</text>
<text text-anchor="middle" x="1144" y="-396.5" font-family="Segoe UI, Helvetica, Arial, sans-serif" font-size="10.00">(WAL, JSONL/Parquet sinks, tiered storage</text>
<text text-anchor="middle" x="1144" y="-385.5" font-family="Segoe UI, Helvetica, Arial, sans-serif" font-size="10.00">export, security master, packaging)</text>
</g>
<!-- Storage&#45;&gt;Contracts -->
<g id="edge18" class="edge">
<title>Storage&#45;&gt;Contracts</title>
<path fill="none" stroke="#666666" d="M1098.75,-376.32C1098.75,-298.19 1098.75,-45 1098.75,-45 1098.75,-45 2579.84,-45 2579.84,-45"/>
<polygon fill="#666666" stroke="#666666" points="2579.84,-47.45 2586.84,-45 2579.84,-42.55 2579.84,-47.45"/>
</g>
<!-- Storage&#45;&gt;ProviderSdk -->
<g id="edge19" class="edge">
<title>Storage&#45;&gt;ProviderSdk</title>
<path fill="none" stroke="#666666" d="M1206,-376.42C1206,-376.42 1206,-179.21 1206,-179.21"/>
<polygon fill="#666666" stroke="#666666" points="1208.45,-179.21 1206,-172.21 1203.55,-179.21 1208.45,-179.21"/>
</g>
<!-- Storage&#45;&gt;Domain -->
<g id="edge17" class="edge">
<title>Storage&#45;&gt;Domain</title>
<path fill="none" stroke="#666666" d="M1250.69,-399C1290.63,-399 1326.5,-399 1326.5,-399 1326.5,-399 1326.5,-146 1326.5,-146 1326.5,-146 2379.71,-146 2379.71,-146"/>
<polygon fill="#666666" stroke="#666666" points="2379.71,-148.45 2386.71,-146 2379.71,-143.55 2379.71,-148.45"/>
</g>
<!-- Storage&#45;&gt;Core -->
<g id="edge16" class="edge">
<title>Storage&#45;&gt;Core</title>
<path fill="none" stroke="#666666" d="M1228.25,-376.31C1228.25,-346.8 1228.25,-299 1228.25,-299 1228.25,-299 2379.64,-299 2379.64,-299"/>
<polygon fill="#666666" stroke="#666666" points="2379.64,-301.45 2386.64,-299 2379.64,-296.55 2379.64,-301.45"/>
</g>
<!-- CppTrader -->
<g id="node14" class="node">
<title>CppTrader</title>
<path fill="#fff3e0" stroke="black" stroke-dasharray="5,2" d="M989.5,-421.5C989.5,-421.5 858.5,-421.5 858.5,-421.5 852.5,-421.5 846.5,-415.5 846.5,-409.5 846.5,-409.5 846.5,-388.5 846.5,-388.5 846.5,-382.5 852.5,-376.5 858.5,-376.5 858.5,-376.5 989.5,-376.5 989.5,-376.5 995.5,-376.5 1001.5,-382.5 1001.5,-388.5 1001.5,-388.5 1001.5,-409.5 1001.5,-409.5 1001.5,-415.5 995.5,-421.5 989.5,-421.5"/>
<text text-anchor="middle" x="924" y="-407.5" font-family="Segoe UI, Helvetica, Arial, sans-serif" font-size="10.00">Infrastructure.CppTrader</text>
<text text-anchor="middle" x="924" y="-396.5" font-family="Segoe UI, Helvetica, Arial, sans-serif" font-size="10.00">(native matching engine bridge</text>
<text text-anchor="middle" x="924" y="-385.5" font-family="Segoe UI, Helvetica, Arial, sans-serif" font-size="10.00">ITCH ingestion, replay)</text>
</g>
<!-- CppTrader&#45;&gt;Contracts -->
<g id="edge26" class="edge">
<title>CppTrader&#45;&gt;Contracts</title>
<path fill="none" stroke="#666666" d="M962.75,-376.44C962.75,-370.64 962.75,-366 962.75,-366 962.75,-366 2612.75,-366 2612.75,-366 2612.75,-366 2612.75,-67.35 2612.75,-67.35"/>
<polygon fill="#666666" stroke="#666666" points="2615.2,-67.35 2612.75,-60.35 2610.3,-67.35 2615.2,-67.35"/>
</g>
<!-- CppTrader&#45;&gt;ProviderSdk -->
<g id="edge23" class="edge">
<title>CppTrader&#45;&gt;ProviderSdk</title>
<path fill="none" stroke="#666666" d="M924,-376.14C924,-355.39 924,-328 924,-328 924,-328 1183.75,-328 1183.75,-328 1183.75,-328 1183.75,-179.11 1183.75,-179.11"/>
<polygon fill="#666666" stroke="#666666" points="1186.2,-179.11 1183.75,-172.11 1181.3,-179.11 1186.2,-179.11"/>
</g>
<!-- CppTrader&#45;&gt;ExecutionSdk -->
<g id="edge21" class="edge">
<title>CppTrader&#45;&gt;ExecutionSdk</title>
<path fill="none" stroke="#666666" d="M1001.54,-387C1004.32,-387 1005.94,-387 1005.94,-387 1005.94,-387 1005.94,-179.27 1005.94,-179.27"/>
<polygon fill="#666666" stroke="#666666" points="1008.39,-179.27 1005.94,-172.27 1003.49,-179.27 1008.39,-179.27"/>
</g>
<!-- CppTrader&#45;&gt;Domain -->
<g id="edge25" class="edge">
<title>CppTrader&#45;&gt;Domain</title>
<path fill="none" stroke="#666666" d="M1001.65,-399C1006.74,-399 1009.89,-399 1009.89,-399 1009.89,-399 1009.89,-233 1009.89,-233 1009.89,-233 2443,-233 2443,-233 2443,-233 2443,-179.32 2443,-179.32"/>
<polygon fill="#666666" stroke="#666666" points="2445.45,-179.32 2443,-172.32 2440.55,-179.32 2445.45,-179.32"/>
</g>
<!-- CppTrader&#45;&gt;Core -->
<g id="edge24" class="edge">
<title>CppTrader&#45;&gt;Core</title>
<path fill="none" stroke="#666666" d="M1001.72,-410C1009.06,-410 1013.83,-410 1013.83,-410 1013.83,-410 1013.83,-283 1013.83,-283 1013.83,-283 2379.8,-283 2379.8,-283"/>
<polygon fill="#666666" stroke="#666666" points="2379.8,-285.45 2386.8,-283 2379.8,-280.55 2379.8,-285.45"/>
</g>
<!-- CppTrader&#45;&gt;Infrastructure -->
<g id="edge22" class="edge">
<title>CppTrader&#45;&gt;Infrastructure</title>
<path fill="none" stroke="#666666" d="M885.25,-376.34C885.25,-376.34 885.25,-316.63 885.25,-316.63"/>
<polygon fill="#666666" stroke="#666666" points="887.7,-316.63 885.25,-309.63 882.8,-316.63 887.7,-316.63"/>
</g>
<!-- Execution -->
<g id="node17" class="node">
<title>Execution</title>
<path fill="#f3e5f5" stroke="black" d="M576,-421.5C576,-421.5 430,-421.5 430,-421.5 424,-421.5 418,-415.5 418,-409.5 418,-409.5 418,-388.5 418,-388.5 418,-382.5 424,-376.5 430,-376.5 430,-376.5 576,-376.5 576,-376.5 582,-376.5 588,-382.5 588,-388.5 588,-388.5 588,-409.5 588,-409.5 588,-415.5 582,-421.5 576,-421.5"/>
<text text-anchor="middle" x="503" y="-407.5" font-family="Segoe UI, Helvetica, Arial, sans-serif" font-size="10.00">Execution</text>
<text text-anchor="middle" x="503" y="-396.5" font-family="Segoe UI, Helvetica, Arial, sans-serif" font-size="10.00">(PaperTradingGateway, OMS</text>
<text text-anchor="middle" x="503" y="-385.5" font-family="Segoe UI, Helvetica, Arial, sans-serif" font-size="10.00">brokerage adapters, risk gateway)</text>
</g>
<!-- CppTrader&#45;&gt;Execution -->
<g id="edge20" class="edge">
<title>CppTrader&#45;&gt;Execution</title>
<path fill="none" stroke="#666666" d="M846.29,-399C846.29,-399 595.22,-399 595.22,-399"/>
<polygon fill="#666666" stroke="#666666" points="595.22,-396.55 588.22,-399 595.22,-401.45 595.22,-396.55"/>
</g>
<!-- Application -->
<g id="node15" class="node">
<title>Application</title>
<path fill="#fce4ec" stroke="black" d="M1969,-421.5C1969,-421.5 1817,-421.5 1817,-421.5 1811,-421.5 1805,-415.5 1805,-409.5 1805,-409.5 1805,-388.5 1805,-388.5 1805,-382.5 1811,-376.5 1817,-376.5 1817,-376.5 1969,-376.5 1969,-376.5 1975,-376.5 1981,-382.5 1981,-388.5 1981,-388.5 1981,-409.5 1981,-409.5 1981,-415.5 1975,-421.5 1969,-421.5"/>
<text text-anchor="middle" x="1893" y="-407.5" font-family="Segoe UI, Helvetica, Arial, sans-serif" font-size="10.00">Application</text>
<text text-anchor="middle" x="1893" y="-396.5" font-family="Segoe UI, Helvetica, Arial, sans-serif" font-size="10.00">(pipeline, backfill, canonicalization</text>
<text text-anchor="middle" x="1893" y="-385.5" font-family="Segoe UI, Helvetica, Arial, sans-serif" font-size="10.00">monitoring, security master, config)</text>
</g>
<!-- Application&#45;&gt;Contracts -->
<g id="edge31" class="edge">
<title>Application&#45;&gt;Contracts</title>
<path fill="none" stroke="#666666" d="M1905.57,-376.36C1905.57,-299.61 1905.57,-54 1905.57,-54 1905.57,-54 2579.74,-54 2579.74,-54"/>
<polygon fill="#666666" stroke="#666666" points="2579.74,-56.45 2586.74,-54 2579.74,-51.55 2579.74,-56.45"/>
</g>
<!-- Application&#45;&gt;ProviderSdk -->
<g id="edge32" class="edge">
<title>Application&#45;&gt;ProviderSdk</title>
<path fill="none" stroke="#666666" d="M1880.43,-376.14C1880.43,-317.26 1880.43,-165 1880.43,-165 1880.43,-165 1290.09,-165 1290.09,-165"/>
<polygon fill="#666666" stroke="#666666" points="1290.09,-162.55 1283.09,-165 1290.09,-167.45 1290.09,-162.55"/>
</g>
<!-- Application&#45;&gt;Domain -->
<g id="edge30" class="edge">
<title>Application&#45;&gt;Domain</title>
<path fill="none" stroke="#666666" d="M1930.71,-376.21C1930.71,-315.06 1930.71,-152 1930.71,-152 1930.71,-152 2379.84,-152 2379.84,-152"/>
<polygon fill="#666666" stroke="#666666" points="2379.84,-154.45 2386.84,-152 2379.84,-149.55 2379.84,-154.45"/>
</g>
<!-- Application&#45;&gt;Core -->
<g id="edge29" class="edge">
<title>Application&#45;&gt;Core</title>
<path fill="none" stroke="#666666" d="M1955.86,-376.49C1955.86,-348.96 1955.86,-306 1955.86,-306 1955.86,-306 2379.96,-306 2379.96,-306"/>
<polygon fill="#666666" stroke="#666666" points="2379.96,-308.45 2386.96,-306 2379.96,-303.55 2379.96,-308.45"/>
</g>
<!-- Application&#45;&gt;Infrastructure -->
<g id="edge27" class="edge">
<title>Application&#45;&gt;Infrastructure</title>
<path fill="none" stroke="#666666" d="M1855.29,-376.26C1855.29,-345.11 1855.29,-293 1855.29,-293 1855.29,-293 1009.2,-293 1009.2,-293"/>
<polygon fill="#666666" stroke="#666666" points="1009.2,-290.55 1002.2,-293 1009.2,-295.45 1009.2,-290.55"/>
</g>
<!-- Application&#45;&gt;Storage -->
<g id="edge28" class="edge">
<title>Application&#45;&gt;Storage</title>
<path fill="none" stroke="#666666" d="M1814.9,-421.56C1814.9,-425.31 1814.9,-428 1814.9,-428 1814.9,-428 1235.33,-428 1235.33,-428 1235.33,-428 1235.33,-427.36 1235.33,-427.36"/>
<polygon fill="#666666" stroke="#666666" points="1237.78,-428.56 1235.33,-421.56 1232.88,-428.56 1237.78,-428.56"/>
</g>
<!-- BacktestSdk -->
<g id="node16" class="node">
<title>BacktestSdk</title>
<path fill="#fce4ec" stroke="black" d="M1757,-421.5C1757,-421.5 1595,-421.5 1595,-421.5 1589,-421.5 1583,-415.5 1583,-409.5 1583,-409.5 1583,-388.5 1583,-388.5 1583,-382.5 1589,-376.5 1595,-376.5 1595,-376.5 1757,-376.5 1757,-376.5 1763,-376.5 1769,-382.5 1769,-388.5 1769,-388.5 1769,-409.5 1769,-409.5 1769,-415.5 1763,-421.5 1757,-421.5"/>
<text text-anchor="middle" x="1676" y="-407.5" font-family="Segoe UI, Helvetica, Arial, sans-serif" font-size="10.00">Backtesting.Sdk</text>
<text text-anchor="middle" x="1676" y="-396.5" font-family="Segoe UI, Helvetica, Arial, sans-serif" font-size="10.00">(IBacktestStrategy, IBacktestContext</text>
<text text-anchor="middle" x="1676" y="-385.5" font-family="Segoe UI, Helvetica, Arial, sans-serif" font-size="10.00">Order, Fill, PortfolioSnapshot)</text>
</g>
<!-- BacktestSdk&#45;&gt;Contracts -->
<g id="edge33" class="edge">
<title>BacktestSdk&#45;&gt;Contracts</title>
<path fill="none" stroke="#666666" d="M1676,-376.43C1676,-299.32 1676,-51 1676,-51 1676,-51 2579.87,-51 2579.87,-51"/>
<polygon fill="#666666" stroke="#666666" points="2579.87,-53.45 2586.87,-51 2579.87,-48.55 2579.87,-53.45"/>
</g>
<!-- BacktestSdk&#45;&gt;Ledger -->
<g id="edge34" class="edge">
<title>BacktestSdk&#45;&gt;Ledger</title>
<path fill="none" stroke="#666666" d="M1728.75,-421.57C1728.75,-426.87 1728.75,-431 1728.75,-431 1728.75,-431 2423.75,-431 2423.75,-431 2423.75,-431 2423.75,-428.57 2423.75,-428.57"/>
<polygon fill="#666666" stroke="#666666" points="2426.2,-428.57 2423.75,-421.57 2421.3,-428.57 2426.2,-428.57"/>
</g>
<!-- Execution&#45;&gt;Contracts -->
<g id="edge39" class="edge">
<title>Execution&#45;&gt;Contracts</title>
<path fill="none" stroke="#666666" d="M460.5,-376.38C460.5,-296.59 460.5,-33 460.5,-33 460.5,-33 2579.94,-33 2579.94,-33"/>
<polygon fill="#666666" stroke="#666666" points="2579.94,-35.45 2586.94,-33 2579.94,-30.55 2579.94,-35.45"/>
</g>
<!-- Execution&#45;&gt;ExecutionSdk -->
<g id="edge35" class="edge">
<title>Execution&#45;&gt;ExecutionSdk</title>
<path fill="none" stroke="#666666" d="M545.5,-376.4C545.5,-324.66 545.5,-202 545.5,-202 545.5,-202 967.17,-202 967.17,-202 967.17,-202 967.17,-179.07 967.17,-179.07"/>
<polygon fill="#666666" stroke="#666666" points="969.62,-179.07 967.17,-172.07 964.72,-179.07 969.62,-179.07"/>
</g>
<!-- Execution&#45;&gt;Core -->
<g id="edge38" class="edge">
<title>Execution&#45;&gt;Core</title>
<path fill="none" stroke="#666666" d="M503,-376.03C503,-366.23 503,-357 503,-357 503,-357 2435.83,-357 2435.83,-357 2435.83,-357 2435.83,-316.53 2435.83,-316.53"/>
<polygon fill="#666666" stroke="#666666" points="2438.28,-316.53 2435.83,-309.53 2433.38,-316.53 2438.28,-316.53"/>
</g>
<!-- Execution&#45;&gt;Ledger -->
<g id="edge36" class="edge">
<title>Execution&#45;&gt;Ledger</title>
<path fill="none" stroke="#666666" d="M482,-421.66C482,-435.67 482,-451 482,-451 482,-451 2460,-451 2460,-451 2460,-451 2460,-428.66 2460,-428.66"/>
<polygon fill="#666666" stroke="#666666" points="2462.45,-428.66 2460,-421.66 2457.55,-428.66 2462.45,-428.66"/>
</g>
<!-- Execution&#45;&gt;Application -->
<g id="edge37" class="edge">
<title>Execution&#45;&gt;Application</title>
<path fill="none" stroke="#666666" d="M508.5,-421.78C508.5,-434.57 508.5,-448 508.5,-448 508.5,-448 1808.3,-448 1808.3,-448 1808.3,-448 1808.3,-428.78 1808.3,-428.78"/>
<polygon fill="#666666" stroke="#666666" points="1810.75,-428.78 1808.3,-421.78 1805.85,-428.78 1810.75,-428.78"/>
</g>
<!-- Backtesting -->
<g id="node18" class="node">
<title>Backtesting</title>
<path fill="#f3e5f5" stroke="black" d="M369.5,-421.5C369.5,-421.5 248.5,-421.5 248.5,-421.5 242.5,-421.5 236.5,-415.5 236.5,-409.5 236.5,-409.5 236.5,-388.5 236.5,-388.5 236.5,-382.5 242.5,-376.5 248.5,-376.5 248.5,-376.5 369.5,-376.5 369.5,-376.5 375.5,-376.5 381.5,-382.5 381.5,-388.5 381.5,-388.5 381.5,-409.5 381.5,-409.5 381.5,-415.5 375.5,-421.5 369.5,-421.5"/>
<text text-anchor="middle" x="309" y="-407.5" font-family="Segoe UI, Helvetica, Arial, sans-serif" font-size="10.00">Backtesting</text>
<text text-anchor="middle" x="309" y="-396.5" font-family="Segoe UI, Helvetica, Arial, sans-serif" font-size="10.00">(BacktestEngine, fill models</text>
<text text-anchor="middle" x="309" y="-385.5" font-family="Segoe UI, Helvetica, Arial, sans-serif" font-size="10.00">metrics engine, XIRR)</text>
</g>
<!-- Backtesting&#45;&gt;Storage -->
<g id="edge41" class="edge">
<title>Backtesting&#45;&gt;Storage</title>
<path fill="none" stroke="#666666" d="M333.17,-376.34C333.17,-362.33 333.17,-347 333.17,-347 333.17,-347 1059,-347 1059,-347 1059,-347 1059,-369.34 1059,-369.34"/>
<polygon fill="#666666" stroke="#666666" points="1056.55,-369.34 1059,-376.34 1061.45,-369.34 1056.55,-369.34"/>
</g>
<!-- Backtesting&#45;&gt;Application -->
<g id="edge42" class="edge">
<title>Backtesting&#45;&gt;Application</title>
<path fill="none" stroke="#666666" d="M284.83,-376.29C284.83,-358.94 284.83,-338 284.83,-338 284.83,-338 1830.14,-338 1830.14,-338 1830.14,-338 1830.14,-369.29 1830.14,-369.29"/>
<polygon fill="#666666" stroke="#666666" points="1827.69,-369.29 1830.14,-376.29 1832.59,-369.29 1827.69,-369.29"/>
</g>
<!-- Backtesting&#45;&gt;BacktestSdk -->
<g id="edge40" class="edge">
<title>Backtesting&#45;&gt;BacktestSdk</title>
<path fill="none" stroke="#666666" d="M319.36,-421.73C319.36,-439.43 319.36,-461 319.36,-461 319.36,-461 1592.93,-461 1592.93,-461 1592.93,-461 1592.93,-428.73 1592.93,-428.73"/>
<polygon fill="#666666" stroke="#666666" points="1595.38,-428.73 1592.93,-421.73 1590.48,-428.73 1595.38,-428.73"/>
</g>
<!-- Risk -->
<g id="node19" class="node">
<title>Risk</title>
<path fill="#f3e5f5" stroke="black" d="M176,-536.5C176,-536.5 28,-536.5 28,-536.5 22,-536.5 16,-530.5 16,-524.5 16,-524.5 16,-503.5 16,-503.5 16,-497.5 22,-491.5 28,-491.5 28,-491.5 176,-491.5 176,-491.5 182,-491.5 188,-497.5 188,-503.5 188,-503.5 188,-524.5 188,-524.5 188,-530.5 182,-536.5 176,-536.5"/>
<text text-anchor="middle" x="102" y="-522.5" font-family="Segoe UI, Helvetica, Arial, sans-serif" font-size="10.00">Risk</text>
<text text-anchor="middle" x="102" y="-511.5" font-family="Segoe UI, Helvetica, Arial, sans-serif" font-size="10.00">(CompositeRiskValidator</text>
<text text-anchor="middle" x="102" y="-500.5" font-family="Segoe UI, Helvetica, Arial, sans-serif" font-size="10.00">position limits, drawdown, throttle)</text>
</g>
<!-- Risk&#45;&gt;Contracts -->
<g id="edge45" class="edge">
<title>Risk&#45;&gt;Contracts</title>
<path fill="none" stroke="#666666" d="M50.4,-491.49C50.4,-395.71 50.4,-27 50.4,-27 50.4,-27 2579.79,-27 2579.79,-27"/>
<polygon fill="#666666" stroke="#666666" points="2579.79,-29.45 2586.79,-27 2579.79,-24.55 2579.79,-29.45"/>
</g>
<!-- Risk&#45;&gt;FSharp -->
<g id="edge46" class="edge">
<title>Risk&#45;&gt;FSharp</title>
<path fill="none" stroke="#666666" d="M84.8,-491.37C84.8,-403.92 84.8,-93 84.8,-93 84.8,-93 2838.33,-93 2838.33,-93 2838.33,-93 2838.33,-67.12 2838.33,-67.12"/>
<polygon fill="#666666" stroke="#666666" points="2840.78,-67.12 2838.33,-60.12 2835.88,-67.12 2840.78,-67.12"/>
</g>
<!-- Risk&#45;&gt;ExecutionSdk -->
<g id="edge43" class="edge">
<title>Risk&#45;&gt;ExecutionSdk</title>
<path fill="none" stroke="#666666" d="M119.2,-491.27C119.2,-417.11 119.2,-187 119.2,-187 119.2,-187 932.33,-187 932.33,-187 932.33,-187 932.33,-179.18 932.33,-179.18"/>
<polygon fill="#666666" stroke="#666666" points="934.78,-179.18 932.33,-172.18 929.88,-179.18 934.78,-179.18"/>
</g>
<!-- Risk&#45;&gt;Execution -->
<g id="edge44" class="edge">
<title>Risk&#45;&gt;Execution</title>
<path fill="none" stroke="#666666" d="M153.6,-491.29C153.6,-464.63 153.6,-424 153.6,-424 153.6,-424 423.5,-424 423.5,-424 423.5,-424 423.5,-423.77 423.5,-423.77"/>
<polygon fill="#666666" stroke="#666666" points="425.95,-428.69 423.5,-421.69 421.05,-428.69 425.95,-428.69"/>
</g>
<!-- Strategies -->
<g id="node20" class="node">
<title>Strategies</title>
<path fill="#f3e5f5" stroke="black" d="M611,-536.5C611,-536.5 441,-536.5 441,-536.5 435,-536.5 429,-530.5 429,-524.5 429,-524.5 429,-503.5 429,-503.5 429,-497.5 435,-491.5 441,-491.5 441,-491.5 611,-491.5 611,-491.5 617,-491.5 623,-497.5 623,-503.5 623,-503.5 623,-524.5 623,-524.5 623,-530.5 617,-536.5 611,-536.5"/>
<text text-anchor="middle" x="526" y="-522.5" font-family="Segoe UI, Helvetica, Arial, sans-serif" font-size="10.00">Strategies</text>
<text text-anchor="middle" x="526" y="-511.5" font-family="Segoe UI, Helvetica, Arial, sans-serif" font-size="10.00">(StrategyLifecycleManager</text>
<text text-anchor="middle" x="526" y="-500.5" font-family="Segoe UI, Helvetica, Arial, sans-serif" font-size="10.00">promotion, portfolio read, reconciliation)</text>
</g>
<!-- Strategies&#45;&gt;Contracts -->
<g id="edge48" class="edge">
<title>Strategies&#45;&gt;Contracts</title>
<path fill="none" stroke="#666666" d="M593,-491.27C593,-396.27 593,-36 593,-36 593,-36 2579.73,-36 2579.73,-36"/>
<polygon fill="#666666" stroke="#666666" points="2579.73,-38.45 2586.73,-36 2579.73,-33.55 2579.73,-38.45"/>
</g>
<!-- Strategies&#45;&gt;FSharp -->
<g id="edge52" class="edge">
<title>Strategies&#45;&gt;FSharp</title>
<path fill="none" stroke="#666666" d="M598,-491.41C598,-406.33 598,-110 598,-110 598,-110 2871.67,-110 2871.67,-110 2871.67,-110 2871.67,-67.22 2871.67,-67.22"/>
<polygon fill="#666666" stroke="#666666" points="2874.12,-67.22 2871.67,-60.22 2869.22,-67.22 2874.12,-67.22"/>
</g>
<!-- Strategies&#45;&gt;FSharpLedger -->
<g id="edge53" class="edge">
<title>Strategies&#45;&gt;FSharpLedger</title>
<path fill="none" stroke="#666666" d="M603,-491.44C603,-485.64 603,-481 603,-481 603,-481 2791.38,-481 2791.38,-481 2791.38,-481 2791.38,-174.8 2791.38,-174.8"/>
<polygon fill="#666666" stroke="#666666" points="2793.83,-174.8 2791.38,-167.8 2788.93,-174.8 2793.83,-174.8"/>
</g>
<!-- Strategies&#45;&gt;FSharpTrading -->
<g id="edge54" class="edge">
<title>Strategies&#45;&gt;FSharpTrading</title>
<path fill="none" stroke="#666666" d="M608,-491.26C608,-487.08 608,-484 608,-484 608,-484 2965.5,-484 2965.5,-484 2965.5,-484 2965.5,-174.96 2965.5,-174.96"/>
<polygon fill="#666666" stroke="#666666" points="2967.95,-174.96 2965.5,-167.96 2963.05,-174.96 2967.95,-174.96"/>
</g>
<!-- Strategies&#45;&gt;ExecutionSdk -->
<g id="edge51" class="edge">
<title>Strategies&#45;&gt;ExecutionSdk</title>
<path fill="none" stroke="#666666" d="M623.05,-497C767.37,-497 1021.72,-497 1021.72,-497 1021.72,-497 1021.72,-179.03 1021.72,-179.03"/>
<polygon fill="#666666" stroke="#666666" points="1024.17,-179.03 1021.72,-172.03 1019.27,-179.03 1024.17,-179.03"/>
</g>
<!-- Strategies&#45;&gt;Core -->
<g id="edge49" class="edge">
<title>Strategies&#45;&gt;Core</title>
<path fill="none" stroke="#666666" d="M623.19,-510C916.77,-510 1774.5,-510 1774.5,-510 1774.5,-510 1774.5,-303 1774.5,-303 1774.5,-303 2379.96,-303 2379.96,-303"/>
<polygon fill="#666666" stroke="#666666" points="2379.96,-305.45 2386.96,-303 2379.96,-300.55 2379.96,-305.45"/>
</g>
<!-- Strategies&#45;&gt;Infrastructure -->
<g id="edge55" class="edge">
<title>Strategies&#45;&gt;Infrastructure</title>
<path fill="none" stroke="#666666" d="M618,-491.28C618,-435.08 618,-294 618,-294 618,-294 838.99,-294 838.99,-294"/>
<polygon fill="#666666" stroke="#666666" points="838.99,-296.45 845.99,-294 838.99,-291.55 838.99,-296.45"/>
</g>
<!-- Strategies&#45;&gt;BacktestSdk -->
<g id="edge47" class="edge">
<title>Strategies&#45;&gt;BacktestSdk</title>
<path fill="none" stroke="#666666" d="M623.4,-504C890.15,-504 1612.79,-504 1612.79,-504 1612.79,-504 1612.79,-428.53 1612.79,-428.53"/>
<polygon fill="#666666" stroke="#666666" points="1615.24,-428.53 1612.79,-421.53 1610.34,-428.53 1615.24,-428.53"/>
</g>
<!-- Strategies&#45;&gt;Execution -->
<g id="edge50" class="edge">
<title>Strategies&#45;&gt;Execution</title>
<path fill="none" stroke="#666666" d="M455.5,-491.28C455.5,-491.28 455.5,-428.67 455.5,-428.67"/>
<polygon fill="#666666" stroke="#666666" points="457.95,-428.67 455.5,-421.67 453.05,-428.67 457.95,-428.67"/>
</g>
<!-- QuantScript -->
<g id="node21" class="node">
<title>QuantScript</title>
<path fill="#f3e5f5" stroke="black" d="M381.5,-536.5C381.5,-536.5 236.5,-536.5 236.5,-536.5 230.5,-536.5 224.5,-530.5 224.5,-524.5 224.5,-524.5 224.5,-503.5 224.5,-503.5 224.5,-497.5 230.5,-491.5 236.5,-491.5 236.5,-491.5 381.5,-491.5 381.5,-491.5 387.5,-491.5 393.5,-497.5 393.5,-503.5 393.5,-503.5 393.5,-524.5 393.5,-524.5 393.5,-530.5 387.5,-536.5 381.5,-536.5"/>
<text text-anchor="middle" x="309" y="-522.5" font-family="Segoe UI, Helvetica, Arial, sans-serif" font-size="10.00">QuantScript</text>
<text text-anchor="middle" x="309" y="-511.5" font-family="Segoe UI, Helvetica, Arial, sans-serif" font-size="10.00">(Roslyn scripting, PriceSeries</text>
<text text-anchor="middle" x="309" y="-500.5" font-family="Segoe UI, Helvetica, Arial, sans-serif" font-size="10.00">PortfolioBuilder, StatisticsEngine)</text>
</g>
<!-- QuantScript&#45;&gt;Contracts -->
<g id="edge61" class="edge">
<title>QuantScript&#45;&gt;Contracts</title>
<path fill="none" stroke="#666666" d="M383.9,-491.3C383.9,-395.62 383.9,-30 383.9,-30 383.9,-30 2579.65,-30 2579.65,-30"/>
<polygon fill="#666666" stroke="#666666" points="2579.65,-32.45 2586.65,-30 2579.65,-27.55 2579.65,-32.45"/>
</g>
<!-- QuantScript&#45;&gt;ProviderSdk -->
<g id="edge56" class="edge">
<title>QuantScript&#45;&gt;ProviderSdk</title>
<path fill="none" stroke="#666666" d="M388.7,-491.25C388.7,-439.81 388.7,-319 388.7,-319 388.7,-319 1161.5,-319 1161.5,-319 1161.5,-319 1161.5,-179.01 1161.5,-179.01"/>
<polygon fill="#666666" stroke="#666666" points="1163.95,-179.01 1161.5,-172.01 1159.05,-179.01 1163.95,-179.01"/>
</g>
<!-- QuantScript&#45;&gt;Domain -->
<g id="edge62" class="edge">
<title>QuantScript&#45;&gt;Domain</title>
<path fill="none" stroke="#666666" d="M386.3,-491.26C386.3,-421.95 386.3,-218 386.3,-218 386.3,-218 2415,-218 2415,-218 2415,-218 2415,-179.31 2415,-179.31"/>
<polygon fill="#666666" stroke="#666666" points="2417.45,-179.31 2415,-172.31 2412.55,-179.31 2417.45,-179.31"/>
</g>
<!-- QuantScript&#45;&gt;Storage -->
<g id="edge60" class="edge">
<title>QuantScript&#45;&gt;Storage</title>
<path fill="none" stroke="#666666" d="M391.1,-491.41C391.1,-484.17 391.1,-478 391.1,-478 391.1,-478 1048.19,-478 1048.19,-478 1048.19,-478 1048.19,-428.85 1048.19,-428.85"/>
<polygon fill="#666666" stroke="#666666" points="1050.64,-428.85 1048.19,-421.85 1045.74,-428.85 1050.64,-428.85"/>
</g>
<!-- QuantScript&#45;&gt;Application -->
<g id="edge59" class="edge">
<title>QuantScript&#45;&gt;Application</title>
<path fill="none" stroke="#666666" d="M298.64,-491.27C298.64,-479.68 298.64,-468 298.64,-468 298.64,-468 1874.5,-468 1874.5,-468 1874.5,-468 1874.5,-428.59 1874.5,-428.59"/>
<polygon fill="#666666" stroke="#666666" points="1876.95,-428.59 1874.5,-421.59 1872.05,-428.59 1876.95,-428.59"/>
</g>
<!-- QuantScript&#45;&gt;BacktestSdk -->
<g id="edge58" class="edge">
<title>QuantScript&#45;&gt;BacktestSdk</title>
<path fill="none" stroke="#666666" d="M277.93,-491.34C277.93,-478.11 277.93,-464 277.93,-464 277.93,-464 1602.86,-464 1602.86,-464 1602.86,-464 1602.86,-428.73 1602.86,-428.73"/>
<polygon fill="#666666" stroke="#666666" points="1605.31,-428.73 1602.86,-421.73 1600.41,-428.73 1605.31,-428.73"/>
</g>
<!-- QuantScript&#45;&gt;Backtesting -->
<g id="edge57" class="edge">
<title>QuantScript&#45;&gt;Backtesting</title>
<path fill="none" stroke="#666666" d="M257.21,-491.28C257.21,-491.28 257.21,-428.67 257.21,-428.67"/>
<polygon fill="#666666" stroke="#666666" points="259.66,-428.67 257.21,-421.67 254.76,-428.67 259.66,-428.67"/>
</g>
<!-- UiShared -->
<g id="node22" class="node">
<title>UiShared</title>
<path fill="#ede7f6" stroke="black" d="M2145,-536.5C2145,-536.5 2027,-536.5 2027,-536.5 2021,-536.5 2015,-530.5 2015,-524.5 2015,-524.5 2015,-503.5 2015,-503.5 2015,-497.5 2021,-491.5 2027,-491.5 2027,-491.5 2145,-491.5 2145,-491.5 2151,-491.5 2157,-497.5 2157,-503.5 2157,-503.5 2157,-524.5 2157,-524.5 2157,-530.5 2151,-536.5 2145,-536.5"/>
<text text-anchor="middle" x="2086" y="-522.5" font-family="Segoe UI, Helvetica, Arial, sans-serif" font-size="10.00">Ui.Shared</text>
<text text-anchor="middle" x="2086" y="-511.5" font-family="Segoe UI, Helvetica, Arial, sans-serif" font-size="10.00">(300 REST endpoints, auth</text>
<text text-anchor="middle" x="2086" y="-500.5" font-family="Segoe UI, Helvetica, Arial, sans-serif" font-size="10.00">DI wiring, endpoint helpers)</text>
</g>
<!-- UiShared&#45;&gt;Contracts -->
<g id="edge64" class="edge">
<title>UiShared&#45;&gt;Contracts</title>
<path fill="none" stroke="#666666" d="M2157.09,-494C2302.71,-494 2621.33,-494 2621.33,-494 2621.33,-494 2621.33,-67.28 2621.33,-67.28"/>
<polygon fill="#666666" stroke="#666666" points="2623.78,-67.28 2621.33,-60.28 2618.88,-67.28 2623.78,-67.28"/>
</g>
<!-- UiShared&#45;&gt;Storage -->
<g id="edge67" class="edge">
<title>UiShared&#45;&gt;Storage</title>
<path fill="none" stroke="#666666" d="M2109.67,-491.3C2109.67,-469.87 2109.67,-441 2109.67,-441 2109.67,-441 1205,-441 1205,-441 1205,-441 1205,-428.97 1205,-428.97"/>
<polygon fill="#666666" stroke="#666666" points="1207.45,-428.97 1205,-421.97 1202.55,-428.97 1207.45,-428.97"/>
</g>
<!-- UiShared&#45;&gt;CppTrader -->
<g id="edge66" class="edge">
<title>UiShared&#45;&gt;CppTrader</title>
<path fill="none" stroke="#666666" d="M2086,-491.47C2086,-471 2086,-444 2086,-444 2086,-444 997.08,-444 997.08,-444 997.08,-444 997.08,-428.76 997.08,-428.76"/>
<polygon fill="#666666" stroke="#666666" points="999.53,-428.76 997.08,-421.76 994.63,-428.76 999.53,-428.76"/>
</g>
<!-- UiShared&#45;&gt;Application -->
<g id="edge63" class="edge">
<title>UiShared&#45;&gt;Application</title>
<path fill="none" stroke="#666666" d="M2133.33,-491.43C2133.33,-460.85 2133.33,-410 2133.33,-410 2133.33,-410 1988.13,-410 1988.13,-410"/>
<polygon fill="#666666" stroke="#666666" points="1988.13,-407.55 1981.13,-410 1988.13,-412.45 1988.13,-407.55"/>
</g>
<!-- UiShared&#45;&gt;Execution -->
<g id="edge65" class="edge">
<title>UiShared&#45;&gt;Execution</title>
<path fill="none" stroke="#666666" d="M2062.33,-491.32C2062.33,-474.33 2062.33,-454 2062.33,-454 2062.33,-454 561.5,-454 561.5,-454 561.5,-454 561.5,-428.69 561.5,-428.69"/>
<polygon fill="#666666" stroke="#666666" points="563.95,-428.69 561.5,-421.69 559.05,-428.69 563.95,-428.69"/>
</g>
<!-- UiShared&#45;&gt;Strategies -->
<g id="edge68" class="edge">
<title>UiShared&#45;&gt;Strategies</title>
<path fill="none" stroke="#666666" d="M2038.67,-491.19C2038.67,-489.24 2038.67,-488 2038.67,-488 2038.67,-488 613,-488 613,-488 613,-488 613,-488.32 613,-488.32"/>
<polygon fill="#666666" stroke="#666666" points="610.55,-484.19 613,-491.19 615.45,-484.19 610.55,-484.19"/>
</g>
<!-- UiServices -->
<g id="node23" class="node">
<title>UiServices</title>
<path fill="#ede7f6" stroke="black" stroke-dasharray="5,2" d="M1964.5,-536.5C1964.5,-536.5 1835.5,-536.5 1835.5,-536.5 1829.5,-536.5 1823.5,-530.5 1823.5,-524.5 1823.5,-524.5 1823.5,-503.5 1823.5,-503.5 1823.5,-497.5 1829.5,-491.5 1835.5,-491.5 1835.5,-491.5 1964.5,-491.5 1964.5,-491.5 1970.5,-491.5 1976.5,-497.5 1976.5,-503.5 1976.5,-503.5 1976.5,-524.5 1976.5,-524.5 1976.5,-530.5 1970.5,-536.5 1964.5,-536.5"/>
<text text-anchor="middle" x="1900" y="-522.5" font-family="Segoe UI, Helvetica, Arial, sans-serif" font-size="10.00">Ui.Services</text>
<text text-anchor="middle" x="1900" y="-511.5" font-family="Segoe UI, Helvetica, Arial, sans-serif" font-size="10.00">(desktop services, API clients</text>
<text text-anchor="middle" x="1900" y="-500.5" font-family="Segoe UI, Helvetica, Arial, sans-serif" font-size="10.00">charts, export wizard)</text>
</g>
<!-- UiServices&#45;&gt;Contracts -->
<g id="edge70" class="edge">
<title>UiServices&#45;&gt;Contracts</title>
<path fill="none" stroke="#666666" stroke-dasharray="5,2" d="M1976.82,-506C1983.84,-506 1988.38,-506 1988.38,-506 1988.38,-506 1988.38,-57 1988.38,-57 1988.38,-57 2579.78,-57 2579.78,-57"/>
<polygon fill="#666666" stroke="#666666" points="2579.78,-59.45 2586.78,-57 2579.78,-54.55 2579.78,-59.45"/>
<text text-anchor="middle" x="2999" y="-290.8" font-family="Times,serif" font-size="14.00">source</text>
<text text-anchor="middle" x="2999" y="-275.8" font-family="Times,serif" font-size="14.00">link</text>
</g>
<!-- Ui -->
<g id="node24" class="node">
<title>Ui</title>
<path fill="#ede7f6" stroke="black" d="M2326.5,-657C2326.5,-657 2209.5,-657 2209.5,-657 2203.5,-657 2197.5,-651 2197.5,-645 2197.5,-645 2197.5,-624 2197.5,-624 2197.5,-618 2203.5,-612 2209.5,-612 2209.5,-612 2326.5,-612 2326.5,-612 2332.5,-612 2338.5,-618 2338.5,-624 2338.5,-624 2338.5,-645 2338.5,-645 2338.5,-651 2332.5,-657 2326.5,-657"/>
<text text-anchor="middle" x="2268" y="-643" font-family="Segoe UI, Helvetica, Arial, sans-serif" font-size="10.00">Ui</text>
<text text-anchor="middle" x="2268" y="-632" font-family="Segoe UI, Helvetica, Arial, sans-serif" font-size="10.00">(React/Vite web dashboard</text>
<text text-anchor="middle" x="2268" y="-621" font-family="Segoe UI, Helvetica, Arial, sans-serif" font-size="10.00">workstation screens)</text>
</g>
<!-- Ui&#45;&gt;UiShared -->
<g id="edge69" class="edge">
<title>Ui&#45;&gt;UiShared</title>
<path fill="none" stroke="#666666" d="M2268,-611.87C2268,-580.87 2268,-529 2268,-529 2268,-529 2164.15,-529 2164.15,-529"/>
<polygon fill="#666666" stroke="#666666" points="2164.15,-526.55 2157.15,-529 2164.15,-531.45 2164.15,-526.55"/>
</g>
<!-- Wpf -->
<g id="node25" class="node">
<title>Wpf</title>
<path fill="#ede7f6" stroke="black" stroke-dasharray="5,2" d="M2149.5,-657C2149.5,-657 2022.5,-657 2022.5,-657 2016.5,-657 2010.5,-651 2010.5,-645 2010.5,-645 2010.5,-624 2010.5,-624 2010.5,-618 2016.5,-612 2022.5,-612 2022.5,-612 2149.5,-612 2149.5,-612 2155.5,-612 2161.5,-618 2161.5,-624 2161.5,-624 2161.5,-645 2161.5,-645 2161.5,-651 2155.5,-657 2149.5,-657"/>
<text text-anchor="middle" x="2086" y="-643" font-family="Segoe UI, Helvetica, Arial, sans-serif" font-size="10.00">Wpf</text>
<text text-anchor="middle" x="2086" y="-632" font-family="Segoe UI, Helvetica, Arial, sans-serif" font-size="10.00">(WPF desktop app</text>
<text text-anchor="middle" x="2086" y="-621" font-family="Segoe UI, Helvetica, Arial, sans-serif" font-size="10.00">80+ Views, 60+ ViewModels)</text>
</g>
<!-- Wpf&#45;&gt;Backtesting -->
<g id="edge73" class="edge">
<title>Wpf&#45;&gt;Backtesting</title>
<path fill="none" stroke="#666666" d="M2010.48,-627C2005.92,-627 2003.12,-627 2003.12,-627 2003.12,-627 2003.12,-471 2003.12,-471 2003.12,-471 360.79,-471 360.79,-471 360.79,-471 360.79,-428.78 360.79,-428.78"/>
<polygon fill="#666666" stroke="#666666" points="363.24,-428.78 360.79,-421.78 358.34,-428.78 363.24,-428.78"/>
</g>
<!-- Wpf&#45;&gt;Strategies -->
<g id="edge74" class="edge">
<title>Wpf&#45;&gt;Strategies</title>
<path fill="none" stroke="#666666" d="M2100.2,-611.65C2100.2,-587.85 2100.2,-554 2100.2,-554 2100.2,-554 574.33,-554 574.33,-554 574.33,-554 574.33,-543.8 574.33,-543.8"/>
<polygon fill="#666666" stroke="#666666" points="576.78,-543.8 574.33,-536.8 571.88,-543.8 576.78,-543.8"/>
</g>
<!-- Wpf&#45;&gt;QuantScript -->
<g id="edge75" class="edge">
<title>Wpf&#45;&gt;QuantScript</title>
<path fill="none" stroke="#666666" d="M2071.8,-611.96C2071.8,-589.4 2071.8,-558 2071.8,-558 2071.8,-558 337.17,-558 337.17,-558 337.17,-558 337.17,-543.52 337.17,-543.52"/>
<polygon fill="#666666" stroke="#666666" points="339.62,-543.52 337.17,-536.52 334.72,-543.52 339.62,-543.52"/>
</g>
<!-- Wpf&#45;&gt;UiShared -->
<g id="edge72" class="edge">
<title>Wpf&#45;&gt;UiShared</title>
<path fill="none" stroke="#666666" d="M2128.6,-611.83C2128.6,-611.83 2128.6,-543.56 2128.6,-543.56"/>
<polygon fill="#666666" stroke="#666666" points="2131.05,-543.56 2128.6,-536.56 2126.15,-543.56 2131.05,-543.56"/>
</g>
<!-- Wpf&#45;&gt;UiServices -->
<g id="edge71" class="edge">
<title>Wpf&#45;&gt;UiServices</title>
<path fill="none" stroke="#666666" stroke-dasharray="5,2" d="M2010.25,-642C2001.57,-642 1995.75,-642 1995.75,-642 1995.75,-642 1995.75,-521 1995.75,-521 1995.75,-521 1983.83,-521 1983.83,-521"/>
<polygon fill="#666666" stroke="#666666" points="1983.83,-518.55 1976.83,-521 1983.83,-523.45 1983.83,-518.55"/>
</g>
<!-- McpServer -->
<g id="node26" class="node">
<title>McpServer</title>
<path fill="#ede7f6" stroke="black" d="M2521,-657C2521,-657 2387,-657 2387,-657 2381,-657 2375,-651 2375,-645 2375,-645 2375,-624 2375,-624 2375,-618 2381,-612 2387,-612 2387,-612 2521,-612 2521,-612 2527,-612 2533,-618 2533,-624 2533,-624 2533,-645 2533,-645 2533,-651 2527,-657 2521,-657"/>
<text text-anchor="middle" x="2454" y="-643" font-family="Segoe UI, Helvetica, Arial, sans-serif" font-size="10.00">McpServer</text>
<text text-anchor="middle" x="2454" y="-632" font-family="Segoe UI, Helvetica, Arial, sans-serif" font-size="10.00">(Model Context Protocol server</text>
<text text-anchor="middle" x="2454" y="-621" font-family="Segoe UI, Helvetica, Arial, sans-serif" font-size="10.00">tools, resources, prompts)</text>
</g>
<!-- McpServer&#45;&gt;Contracts -->
<g id="edge77" class="edge">
<title>McpServer&#45;&gt;Contracts</title>
<path fill="none" stroke="#666666" d="M2533.21,-634C2579.9,-634 2629.92,-634 2629.92,-634 2629.92,-634 2629.92,-67.04 2629.92,-67.04"/>
<polygon fill="#666666" stroke="#666666" points="2632.37,-67.04 2629.92,-60.04 2627.47,-67.04 2632.37,-67.04"/>
</g>
<!-- McpServer&#45;&gt;Core -->
<g id="edge78" class="edge">
<title>McpServer&#45;&gt;Core</title>
<path fill="none" stroke="#666666" d="M2385,-611.97C2385,-532.5 2385,-270 2385,-270 2385,-270 2385.19,-270 2385.19,-270"/>
<polygon fill="#666666" stroke="#666666" points="2379.85,-272.45 2386.85,-270 2379.85,-267.55 2379.85,-272.45"/>
</g>
<!-- McpServer&#45;&gt;Storage -->
<g id="edge79" class="edge">
<title>McpServer&#45;&gt;Storage</title>
<path fill="none" stroke="#666666" d="M2379,-611.92C2379,-585.4 2379,-545 2379,-545 2379,-545 1174.67,-545 1174.67,-545 1174.67,-545 1174.67,-428.81 1174.67,-428.81"/>
<polygon fill="#666666" stroke="#666666" points="1177.12,-428.81 1174.67,-421.81 1172.22,-428.81 1177.12,-428.81"/>
</g>
<!-- McpServer&#45;&gt;Application -->
<g id="edge76" class="edge">
<title>McpServer&#45;&gt;Application</title>
<path fill="none" stroke="#666666" d="M2381,-611.92C2381,-552.98 2381,-399 2381,-399 2381,-399 1988.09,-399 1988.09,-399"/>
<polygon fill="#666666" stroke="#666666" points="1988.09,-396.55 1981.09,-399 1988.09,-401.45 1988.09,-396.55"/>
</g>
<!-- Mcp -->
<g id="node27" class="node">
<title>Mcp</title>
<path fill="#ede7f6" stroke="black" d="M1962.5,-657C1962.5,-657 1833.5,-657 1833.5,-657 1827.5,-657 1821.5,-651 1821.5,-645 1821.5,-645 1821.5,-624 1821.5,-624 1821.5,-618 1827.5,-612 1833.5,-612 1833.5,-612 1962.5,-612 1962.5,-612 1968.5,-612 1974.5,-618 1974.5,-624 1974.5,-624 1974.5,-645 1974.5,-645 1974.5,-651 1968.5,-657 1962.5,-657"/>
<text text-anchor="middle" x="1898" y="-643" font-family="Segoe UI, Helvetica, Arial, sans-serif" font-size="10.00">Mcp</text>
<text text-anchor="middle" x="1898" y="-632" font-family="Segoe UI, Helvetica, Arial, sans-serif" font-size="10.00">(MCP tools for code review</text>
<text text-anchor="middle" x="1898" y="-621" font-family="Segoe UI, Helvetica, Arial, sans-serif" font-size="10.00">ADR &amp; convention resources)</text>
</g>
<!-- MainApp -->
<g id="node28" class="node">
<title>MainApp</title>
<path fill="#ffebee" stroke="black" d="M3398,-536.5C3398,-536.5 3202,-536.5 3202,-536.5 3196,-536.5 3190,-530.5 3190,-524.5 3190,-524.5 3190,-503.5 3190,-503.5 3190,-497.5 3196,-491.5 3202,-491.5 3202,-491.5 3398,-491.5 3398,-491.5 3404,-491.5 3410,-497.5 3410,-503.5 3410,-503.5 3410,-524.5 3410,-524.5 3410,-530.5 3404,-536.5 3398,-536.5"/>
<text text-anchor="middle" x="3300" y="-522.5" font-family="Segoe UI, Helvetica, Arial, sans-serif" font-size="10.00">Meridian</text>
<text text-anchor="middle" x="3300" y="-511.5" font-family="Segoe UI, Helvetica, Arial, sans-serif" font-size="10.00">(CLI entry point, startup orchestration</text>
<text text-anchor="middle" x="3300" y="-500.5" font-family="Segoe UI, Helvetica, Arial, sans-serif" font-size="10.00">mode runners: collector/backfill/web/desktop)</text>
</g>
<!-- MainApp&#45;&gt;Contracts -->
<g id="edge85" class="edge">
<title>MainApp&#45;&gt;Contracts</title>
<path fill="none" stroke="#666666" d="M3189.75,-512C3024.49,-512 2731.71,-512 2731.71,-512 2731.71,-512 2731.71,-67.14 2731.71,-67.14"/>
<polygon fill="#666666" stroke="#666666" points="2734.16,-67.14 2731.71,-60.14 2729.26,-67.14 2734.16,-67.14"/>
</g>
<!-- MainApp&#45;&gt;FSharp -->
<g id="edge88" class="edge">
<title>MainApp&#45;&gt;FSharp</title>
<path fill="none" stroke="#666666" d="M3189.94,-501C3080.56,-501 2929,-501 2929,-501 2929,-501 2929,-67.28 2929,-67.28"/>
<polygon fill="#666666" stroke="#666666" points="2931.45,-67.28 2929,-60.28 2926.55,-67.28 2931.45,-67.28"/>
</g>
<!-- MainApp&#45;&gt;FSharpLedger -->
<g id="edge90" class="edge">
<title>MainApp&#45;&gt;FSharpLedger</title>
<path fill="none" stroke="#666666" d="M3189.74,-505C3061.6,-505 2867.5,-505 2867.5,-505 2867.5,-505 2867.5,-174.62 2867.5,-174.62"/>
<polygon fill="#666666" stroke="#666666" points="2869.95,-174.62 2867.5,-167.62 2865.05,-174.62 2869.95,-174.62"/>
</g>
<!-- MainApp&#45;&gt;FSharpTrading -->
<g id="edge91" class="edge">
<title>MainApp&#45;&gt;FSharpTrading</title>
<path fill="none" stroke="#666666" d="M3189.91,-498C3125.01,-498 3055.5,-498 3055.5,-498 3055.5,-498 3055.5,-174.75 3055.5,-174.75"/>
<polygon fill="#666666" stroke="#666666" points="3057.95,-174.75 3055.5,-167.75 3053.05,-174.75 3057.95,-174.75"/>
</g>
<!-- MainApp&#45;&gt;FSharpDL -->
<g id="edge89" class="edge">
<title>MainApp&#45;&gt;FSharpDL</title>
<path fill="none" stroke="#666666" d="M3265.75,-491.47C3265.75,-491.47 3265.75,-174.87 3265.75,-174.87"/>
<polygon fill="#666666" stroke="#666666" points="3268.2,-174.87 3265.75,-167.87 3263.3,-174.87 3268.2,-174.87"/>
</g>
<!-- MainApp&#45;&gt;ProviderSdk -->
<g id="edge86" class="edge">
<title>MainApp&#45;&gt;ProviderSdk</title>
<path fill="none" stroke="#666666" d="M3189.74,-519C2942.01,-519 2362.83,-519 2362.83,-519 2362.83,-519 2362.83,-159 2362.83,-159 2362.83,-159 1290.16,-159 1290.16,-159"/>
<polygon fill="#666666" stroke="#666666" points="1290.16,-156.55 1283.16,-159 1290.16,-161.45 1290.16,-156.55"/>
</g>
<!-- MainApp&#45;&gt;Domain -->
<g id="edge84" class="edge">
<title>MainApp&#45;&gt;Domain</title>
<path fill="none" stroke="#666666" d="M3189.72,-508C3036.28,-508 2777,-508 2777,-508 2777,-508 2777,-149 2777,-149 2777,-149 2534.23,-149 2534.23,-149"/>
<polygon fill="#666666" stroke="#666666" points="2534.23,-146.55 2527.23,-149 2534.23,-151.45 2534.23,-146.55"/>
</g>
<!-- MainApp&#45;&gt;Core -->
<g id="edge83" class="edge">
<title>MainApp&#45;&gt;Core</title>
<path fill="none" stroke="#666666" d="M3240.5,-491.4C3240.5,-433.99 3240.5,-287 3240.5,-287 3240.5,-287 2540.08,-287 2540.08,-287"/>
<polygon fill="#666666" stroke="#666666" points="2540.08,-284.55 2533.08,-287 2540.08,-289.45 2540.08,-284.55"/>
</g>
<!-- MainApp&#45;&gt;Infrastructure -->
<g id="edge81" class="edge">
<title>MainApp&#45;&gt;Infrastructure</title>
<path fill="none" stroke="#666666" d="M3189.71,-522C2939.55,-522 2350.67,-522 2350.67,-522 2350.67,-522 2350.67,-290 2350.67,-290 2350.67,-290 1009.23,-290 1009.23,-290"/>
<polygon fill="#666666" stroke="#666666" points="1009.23,-287.55 1002.23,-290 1009.23,-292.45 1009.23,-287.55"/>
</g>
<!-- MainApp&#45;&gt;Storage -->
<g id="edge82" class="edge">
<title>MainApp&#45;&gt;Storage</title>
<path fill="none" stroke="#666666" d="M3215.25,-491.2C3215.25,-468.81 3215.25,-438 3215.25,-438 3215.25,-438 1220.17,-438 1220.17,-438 1220.17,-438 1220.17,-428.69 1220.17,-428.69"/>
<polygon fill="#666666" stroke="#666666" points="1222.62,-428.69 1220.17,-421.69 1217.72,-428.69 1222.62,-428.69"/>
</g>
<!-- MainApp&#45;&gt;Application -->
<g id="edge80" class="edge">
<title>MainApp&#45;&gt;Application</title>
<path fill="none" stroke="#666666" d="M3189.84,-515C2946.2,-515 2383,-515 2383,-515 2383,-515 2383,-387 2383,-387 2383,-387 1988.17,-387 1988.17,-387"/>
<polygon fill="#666666" stroke="#666666" points="1988.17,-384.55 1981.17,-387 1988.17,-389.45 1988.17,-384.55"/>
</g>
<!-- MainApp&#45;&gt;UiShared -->
<g id="edge87" class="edge">
<title>MainApp&#45;&gt;UiShared</title>
<path fill="none" stroke="#666666" d="M3189.86,-526C3189.86,-526 2164.08,-526 2164.08,-526"/>
<polygon fill="#666666" stroke="#666666" points="2164.08,-523.55 2157.08,-526 2164.08,-528.45 2164.08,-523.55"/>
</g>
<!-- Tests -->
<g id="node29" class="node">
<title>Tests</title>
<path fill="#eceff1" stroke="black" d="M1111,-662.5C1111,-662.5 987,-662.5 987,-662.5 981,-662.5 975,-656.5 975,-650.5 975,-650.5 975,-618.5 975,-618.5 975,-612.5 981,-606.5 987,-606.5 987,-606.5 1111,-606.5 1111,-606.5 1117,-606.5 1123,-612.5 1123,-618.5 1123,-618.5 1123,-650.5 1123,-650.5 1123,-656.5 1117,-662.5 1111,-662.5"/>
<text text-anchor="middle" x="1049" y="-648.5" font-family="Segoe UI, Helvetica, Arial, sans-serif" font-size="10.00">Tests</text>
<text text-anchor="middle" x="1049" y="-637.5" font-family="Segoe UI, Helvetica, Arial, sans-serif" font-size="10.00">(251 test files)</text>
<text text-anchor="middle" x="1049" y="-626.5" font-family="Segoe UI, Helvetica, Arial, sans-serif" font-size="10.00">Application, Infrastructure</text>
<text text-anchor="middle" x="1049" y="-615.5" font-family="Segoe UI, Helvetica, Arial, sans-serif" font-size="10.00">Storage, Domain, Integration</text>
</g>
<!-- Tests&#45;&gt;ExecutionSdk -->
<g id="edge104" class="edge">
<title>Tests&#45;&gt;ExecutionSdk</title>
<path fill="none" stroke="#999999" stroke-dasharray="1,5" d="M1025.67,-606.33C1025.67,-606.33 1025.67,-179.24 1025.67,-179.24"/>
<polygon fill="#999999" stroke="#999999" points="1028.12,-179.24 1025.67,-172.24 1023.22,-179.24 1028.12,-179.24"/>
</g>
<!-- Tests&#45;&gt;Domain -->
<g id="edge97" class="edge">
<title>Tests&#45;&gt;Domain</title>
<path fill="none" stroke="#999999" stroke-dasharray="1,5" d="M1029.61,-606.47C1029.61,-517.76 1029.61,-249 1029.61,-249 1029.61,-249 2471,-249 2471,-249 2471,-249 2471,-179.08 2471,-179.08"/>
<polygon fill="#999999" stroke="#999999" points="2473.45,-179.08 2471,-172.08 2468.55,-179.08 2473.45,-179.08"/>
</g>
<!-- Tests&#45;&gt;Core -->
<g id="edge96" class="edge">
<title>Tests&#45;&gt;Core</title>
<path fill="none" stroke="#999999" stroke-dasharray="1,5" d="M1033.56,-606.36C1033.56,-523.63 1033.56,-287 1033.56,-287 1033.56,-287 2379.81,-287 2379.81,-287"/>
<polygon fill="#999999" stroke="#999999" points="2379.81,-289.45 2386.81,-287 2379.81,-284.55 2379.81,-289.45"/>
</g>
<!-- Tests&#45;&gt;Ledger -->
<g id="edge102" class="edge">
<title>Tests&#45;&gt;Ledger</title>
<path fill="none" stroke="#999999" stroke-dasharray="1,5" d="M1090.94,-606.46C1090.94,-597.1 1090.94,-589 1090.94,-589 1090.94,-589 2496.25,-589 2496.25,-589 2496.25,-589 2496.25,-428.54 2496.25,-428.54"/>
<polygon fill="#999999" stroke="#999999" points="2498.7,-428.54 2496.25,-421.54 2493.8,-428.54 2498.7,-428.54"/>
</g>
<!-- Tests&#45;&gt;Infrastructure -->
<g id="edge94" class="edge">
<title>Tests&#45;&gt;Infrastructure</title>
<path fill="none" stroke="#999999" stroke-dasharray="1,5" d="M1017.78,-606.22C1017.78,-524.87 1017.78,-296 1017.78,-296 1017.78,-296 1009.29,-296 1009.29,-296"/>
<polygon fill="#999999" stroke="#999999" points="1009.29,-293.55 1002.29,-296 1009.29,-298.45 1009.29,-293.55"/>
</g>
<!-- Tests&#45;&gt;Storage -->
<g id="edge95" class="edge">
<title>Tests&#45;&gt;Storage</title>
<path fill="none" stroke="#999999" stroke-dasharray="1,5" d="M1112.31,-606.09C1112.31,-606.09 1112.31,-428.54 1112.31,-428.54"/>
<polygon fill="#999999" stroke="#999999" points="1114.76,-428.54 1112.31,-421.54 1109.86,-428.54 1114.76,-428.54"/>
</g>
<!-- Tests&#45;&gt;CppTrader -->
<g id="edge105" class="edge">
<title>Tests&#45;&gt;CppTrader</title>
<path fill="none" stroke="#999999" stroke-dasharray="1,5" d="M992.67,-606.09C992.67,-606.09 992.67,-428.54 992.67,-428.54"/>
<polygon fill="#999999" stroke="#999999" points="995.12,-428.54 992.67,-421.54 990.22,-428.54 995.12,-428.54"/>
</g>
<!-- Tests&#45;&gt;Application -->
<g id="edge93" class="edge">
<title>Tests&#45;&gt;Application</title>
<path fill="none" stroke="#999999" stroke-dasharray="1,5" d="M1069.56,-606.49C1069.56,-591.06 1069.56,-575 1069.56,-575 1069.56,-575 1818.2,-575 1818.2,-575 1818.2,-575 1818.2,-428.65 1818.2,-428.65"/>
<polygon fill="#999999" stroke="#999999" points="1820.65,-428.65 1818.2,-421.65 1815.75,-428.65 1820.65,-428.65"/>
</g>
<!-- Tests&#45;&gt;BacktestSdk -->
<g id="edge103" class="edge">
<title>Tests&#45;&gt;BacktestSdk</title>
<path fill="none" stroke="#999999" stroke-dasharray="1,5" d="M1058.88,-606.46C1058.88,-589.45 1058.88,-571 1058.88,-571 1058.88,-571 1632.64,-571 1632.64,-571 1632.64,-571 1632.64,-428.84 1632.64,-428.84"/>
<polygon fill="#999999" stroke="#999999" points="1635.09,-428.84 1632.64,-421.84 1630.19,-428.84 1635.09,-428.84"/>
</g>
<!-- Tests&#45;&gt;Execution -->
<g id="edge99" class="edge">
<title>Tests&#45;&gt;Execution</title>
<path fill="none" stroke="#999999" stroke-dasharray="1,5" d="M988.25,-606.14C988.25,-556.25 988.25,-458 988.25,-458 988.25,-458 535,-458 535,-458 535,-458 535,-428.64 535,-428.64"/>
<polygon fill="#999999" stroke="#999999" points="537.45,-428.64 535,-421.64 532.55,-428.64 537.45,-428.64"/>
</g>
<!-- Tests&#45;&gt;Risk -->
<g id="edge101" class="edge">
<title>Tests&#45;&gt;Risk</title>
<path fill="none" stroke="#999999" stroke-dasharray="1,5" d="M979.42,-606.25C979.42,-603.67 979.42,-602 979.42,-602 979.42,-602 102,-602 102,-602 102,-602 102,-543.66 102,-543.66"/>
<polygon fill="#999999" stroke="#999999" points="104.45,-543.66 102,-536.66 99.55,-543.66 104.45,-543.66"/>
</g>
<!-- Tests&#45;&gt;Strategies -->
<g id="edge100" class="edge">
<title>Tests&#45;&gt;Strategies</title>
<path fill="none" stroke="#999999" stroke-dasharray="1,5" d="M983.83,-606.5C983.83,-575.54 983.83,-530 983.83,-530 983.83,-530 630.09,-530 630.09,-530"/>
<polygon fill="#999999" stroke="#999999" points="630.09,-527.55 623.09,-530 630.09,-532.45 630.09,-527.55"/>
</g>
<!-- Tests&#45;&gt;UiShared -->
<g id="edge98" class="edge">
<title>Tests&#45;&gt;UiShared</title>
<path fill="none" stroke="#999999" stroke-dasharray="1,5" d="M1080.25,-606.3C1080.25,-594.73 1080.25,-584 1080.25,-584 1080.25,-584 2043.4,-584 2043.4,-584 2043.4,-584 2043.4,-543.53 2043.4,-543.53"/>
<polygon fill="#999999" stroke="#999999" points="2045.85,-543.53 2043.4,-536.53 2040.95,-543.53 2045.85,-543.53"/>
</g>
<!-- Tests&#45;&gt;MainApp -->
<g id="edge92" class="edge">
<title>Tests&#45;&gt;MainApp</title>
<path fill="none" stroke="#999999" stroke-dasharray="1,5" d="M1101.62,-606.13C1101.62,-598.84 1101.62,-593 1101.62,-593 1101.62,-593 3207,-593 3207,-593 3207,-593 3207,-543.85 3207,-543.85"/>
<polygon fill="#999999" stroke="#999999" points="3209.45,-543.85 3207,-536.85 3204.55,-543.85 3209.45,-543.85"/>
</g>
<!-- FSharpTests -->
<g id="node30" class="node">
<title>FSharpTests</title>
<path fill="#eceff1" stroke="black" d="M609,-657C609,-657 493,-657 493,-657 487,-657 481,-651 481,-645 481,-645 481,-624 481,-624 481,-618 487,-612 493,-612 493,-612 609,-612 609,-612 615,-612 621,-618 621,-624 621,-624 621,-645 621,-645 621,-651 615,-657 609,-657"/>
<text text-anchor="middle" x="551" y="-643" font-family="Segoe UI, Helvetica, Arial, sans-serif" font-size="10.00">FSharp.Tests</text>
<text text-anchor="middle" x="551" y="-632" font-family="Segoe UI, Helvetica, Arial, sans-serif" font-size="10.00">(10 test files)</text>
<text text-anchor="middle" x="551" y="-621" font-family="Segoe UI, Helvetica, Arial, sans-serif" font-size="10.00">validation, domain, pipeline</text>
</g>
<!-- FSharpTests&#45;&gt;FSharp -->
<g id="edge106" class="edge">
<title>FSharpTests&#45;&gt;FSharp</title>
<path fill="none" stroke="#999999" stroke-dasharray="1,5" d="M527.67,-611.59C527.67,-586.26 527.67,-549 527.67,-549 527.67,-549 2917,-549 2917,-549 2917,-549 2917,-67.04 2917,-67.04"/>
<polygon fill="#999999" stroke="#999999" points="2919.45,-67.04 2917,-60.04 2914.55,-67.04 2919.45,-67.04"/>
</g>
<!-- BacktestTests -->
<g id="node31" class="node">
<title>BacktestTests</title>
<path fill="#eceff1" stroke="black" d="M927,-657C927,-657 811,-657 811,-657 805,-657 799,-651 799,-645 799,-645 799,-624 799,-624 799,-618 805,-612 811,-612 811,-612 927,-612 927,-612 933,-612 939,-618 939,-624 939,-624 939,-645 939,-645 939,-651 933,-657 927,-657"/>
<text text-anchor="middle" x="869" y="-643" font-family="Segoe UI, Helvetica, Arial, sans-serif" font-size="10.00">Backtesting.Tests</text>
<text text-anchor="middle" x="869" y="-632" font-family="Segoe UI, Helvetica, Arial, sans-serif" font-size="10.00">(13 test files)</text>
<text text-anchor="middle" x="869" y="-621" font-family="Segoe UI, Helvetica, Arial, sans-serif" font-size="10.00">engine, fill models, metrics</text>
</g>
<!-- BacktestTests&#45;&gt;Infrastructure -->
<g id="edge109" class="edge">
<title>BacktestTests&#45;&gt;Infrastructure</title>
<path fill="none" stroke="#999999" stroke-dasharray="1,5" d="M830.33,-611.99C830.33,-533.85 830.33,-279 830.33,-279 830.33,-279 838.8,-279 838.8,-279"/>
<polygon fill="#999999" stroke="#999999" points="838.8,-281.45 845.8,-279 838.8,-276.55 838.8,-281.45"/>
</g>
<!-- BacktestTests&#45;&gt;BacktestSdk -->
<g id="edge108" class="edge">
<title>BacktestTests&#45;&gt;BacktestSdk</title>
<path fill="none" stroke="#999999" stroke-dasharray="1,5" d="M892.75,-611.65C892.75,-592.07 892.75,-567 892.75,-567 892.75,-567 1622.71,-567 1622.71,-567 1622.71,-567 1622.71,-428.66 1622.71,-428.66"/>
<polygon fill="#999999" stroke="#999999" points="1625.16,-428.66 1622.71,-421.66 1620.26,-428.66 1625.16,-428.66"/>
</g>
<!-- BacktestTests&#45;&gt;Backtesting -->
<g id="edge107" class="edge">
<title>BacktestTests&#45;&gt;Backtesting</title>
<path fill="none" stroke="#999999" stroke-dasharray="1,5" d="M814.67,-611.84C814.67,-567.6 814.67,-474 814.67,-474 814.67,-474 340.07,-474 340.07,-474 340.07,-474 340.07,-428.5 340.07,-428.5"/>
<polygon fill="#999999" stroke="#999999" points="342.52,-428.5 340.07,-421.5 337.62,-428.5 342.52,-428.5"/>
</g>
<!-- DLTests -->
<g id="node32" class="node">
<title>DLTests</title>
<path fill="#eceff1" stroke="black" d="M1290.5,-657C1290.5,-657 1171.5,-657 1171.5,-657 1165.5,-657 1159.5,-651 1159.5,-645 1159.5,-645 1159.5,-624 1159.5,-624 1159.5,-618 1165.5,-612 1171.5,-612 1171.5,-612 1290.5,-612 1290.5,-612 1296.5,-612 1302.5,-618 1302.5,-624 1302.5,-624 1302.5,-645 1302.5,-645 1302.5,-651 1296.5,-657 1290.5,-657"/>
<text text-anchor="middle" x="1231" y="-643" font-family="Segoe UI, Helvetica, Arial, sans-serif" font-size="10.00">DirectLending.Tests</text>
<text text-anchor="middle" x="1231" y="-632" font-family="Segoe UI, Helvetica, Arial, sans-serif" font-size="10.00">(5 test files)</text>
<text text-anchor="middle" x="1231" y="-621" font-family="Segoe UI, Helvetica, Arial, sans-serif" font-size="10.00">service, workflow, Postgres</text>
</g>
<!-- DLTests&#45;&gt;Application -->
<g id="edge110" class="edge">
<title>DLTests&#45;&gt;Application</title>
<path fill="none" stroke="#999999" stroke-dasharray="1,5" d="M1292.75,-611.7C1292.75,-596.77 1292.75,-580 1292.75,-580 1292.75,-580 1811.6,-580 1811.6,-580 1811.6,-580 1811.6,-428.56 1811.6,-428.56"/>
<polygon fill="#999999" stroke="#999999" points="1814.05,-428.56 1811.6,-421.56 1809.15,-428.56 1814.05,-428.56"/>
</g>
<!-- McpTests -->
<g id="node33" class="node">
<title>McpTests</title>
<path fill="#eceff1" stroke="black" d="M1773.5,-652.5C1773.5,-652.5 1700.5,-652.5 1700.5,-652.5 1694.5,-652.5 1688.5,-646.5 1688.5,-640.5 1688.5,-640.5 1688.5,-628.5 1688.5,-628.5 1688.5,-622.5 1694.5,-616.5 1700.5,-616.5 1700.5,-616.5 1773.5,-616.5 1773.5,-616.5 1779.5,-616.5 1785.5,-622.5 1785.5,-628.5 1785.5,-628.5 1785.5,-640.5 1785.5,-640.5 1785.5,-646.5 1779.5,-652.5 1773.5,-652.5"/>
<text text-anchor="middle" x="1737" y="-637.5" font-family="Segoe UI, Helvetica, Arial, sans-serif" font-size="10.00">McpServer.Tests</text>
<text text-anchor="middle" x="1737" y="-626.5" font-family="Segoe UI, Helvetica, Arial, sans-serif" font-size="10.00">(2 test files)</text>
</g>
<!-- McpTests&#45;&gt;McpServer -->
<g id="edge111" class="edge">
<title>McpTests&#45;&gt;McpServer</title>
<path fill="none" stroke="#999999" stroke-dasharray="1,5" d="M1780,-616.19C1780,-606.67 1780,-597 1780,-597 1780,-597 2377,-597 2377,-597 2377,-597 2377,-604.82 2377,-604.82"/>
<polygon fill="#999999" stroke="#999999" points="2374.55,-604.82 2377,-611.82 2379.45,-604.82 2374.55,-604.82"/>
</g>
<!-- QsTests -->
<g id="node34" class="node">
<title>QsTests</title>
<path fill="#eceff1" stroke="black" d="M750.5,-657C750.5,-657 669.5,-657 669.5,-657 663.5,-657 657.5,-651 657.5,-645 657.5,-645 657.5,-624 657.5,-624 657.5,-618 663.5,-612 669.5,-612 669.5,-612 750.5,-612 750.5,-612 756.5,-612 762.5,-618 762.5,-624 762.5,-624 762.5,-645 762.5,-645 762.5,-651 756.5,-657 750.5,-657"/>
<text text-anchor="middle" x="710" y="-643" font-family="Segoe UI, Helvetica, Arial, sans-serif" font-size="10.00">QuantScript.Tests</text>
<text text-anchor="middle" x="710" y="-632" font-family="Segoe UI, Helvetica, Arial, sans-serif" font-size="10.00">(6 test files)</text>
<text text-anchor="middle" x="710" y="-621" font-family="Segoe UI, Helvetica, Arial, sans-serif" font-size="10.00">scripting, statistics</text>
</g>
<!-- QsTests&#45;&gt;QuantScript -->
<g id="edge112" class="edge">
<title>QsTests&#45;&gt;QuantScript</title>
<path fill="none" stroke="#999999" stroke-dasharray="1,5" d="M694,-611.96C694,-590.68 694,-562 694,-562 694,-562 280.83,-562 280.83,-562 280.83,-562 280.83,-543.59 280.83,-543.59"/>
<polygon fill="#999999" stroke="#999999" points="283.28,-543.59 280.83,-536.59 278.38,-543.59 283.28,-543.59"/>
</g>
<!-- WpfTests -->
<g id="node35" class="node">
<title>WpfTests</title>
<path fill="#eceff1" stroke="black" stroke-dasharray="5,2" d="M1479.5,-657C1479.5,-657 1350.5,-657 1350.5,-657 1344.5,-657 1338.5,-651 1338.5,-645 1338.5,-645 1338.5,-624 1338.5,-624 1338.5,-618 1344.5,-612 1350.5,-612 1350.5,-612 1479.5,-612 1479.5,-612 1485.5,-612 1491.5,-618 1491.5,-624 1491.5,-624 1491.5,-645 1491.5,-645 1491.5,-651 1485.5,-657 1479.5,-657"/>
<text text-anchor="middle" x="1415" y="-643" font-family="Segoe UI, Helvetica, Arial, sans-serif" font-size="10.00">Wpf.Tests</text>
<text text-anchor="middle" x="1415" y="-632" font-family="Segoe UI, Helvetica, Arial, sans-serif" font-size="10.00">(30 test files)</text>
<text text-anchor="middle" x="1415" y="-621" font-family="Segoe UI, Helvetica, Arial, sans-serif" font-size="10.00">ViewModels, Services, Views</text>
</g>
<!-- WpfTests&#45;&gt;UiServices -->
<g id="edge114" class="edge">
<title>WpfTests&#45;&gt;UiServices</title>
<path fill="none" stroke="#999999" stroke-dasharray="1,5" d="M1415,-611.84C1415,-577.7 1415,-517 1415,-517 1415,-517 1816.42,-517 1816.42,-517"/>
<polygon fill="#999999" stroke="#999999" points="1816.42,-519.45 1823.42,-517 1816.42,-514.55 1816.42,-519.45"/>
</g>
<!-- WpfTests&#45;&gt;Wpf -->
<g id="edge113" class="edge">
<title>WpfTests&#45;&gt;Wpf</title>
<path fill="none" stroke="#999999" stroke-dasharray="1,5" d="M1415,-657.25C1415,-668.62 1415,-680 1415,-680 1415,-680 2086,-680 2086,-680 2086,-680 2086,-664.25 2086,-664.25"/>
<polygon fill="#999999" stroke="#999999" points="2088.45,-664.25 2086,-657.25 2083.55,-664.25 2088.45,-664.25"/>
</g>
<!-- UiTests -->
<g id="node36" class="node">
<title>UiTests</title>
<path fill="#eceff1" stroke="black" stroke-dasharray="5,2" d="M1640.5,-657C1640.5,-657 1539.5,-657 1539.5,-657 1533.5,-657 1527.5,-651 1527.5,-645 1527.5,-645 1527.5,-624 1527.5,-624 1527.5,-618 1533.5,-612 1539.5,-612 1539.5,-612 1640.5,-612 1640.5,-612 1646.5,-612 1652.5,-618 1652.5,-624 1652.5,-624 1652.5,-645 1652.5,-645 1652.5,-651 1646.5,-657 1640.5,-657"/>
<text text-anchor="middle" x="1590" y="-643" font-family="Segoe UI, Helvetica, Arial, sans-serif" font-size="10.00">Ui.Tests</text>
<text text-anchor="middle" x="1590" y="-632" font-family="Segoe UI, Helvetica, Arial, sans-serif" font-size="10.00">(54 test files)</text>
<text text-anchor="middle" x="1590" y="-621" font-family="Segoe UI, Helvetica, Arial, sans-serif" font-size="10.00">UI services, collections</text>
</g>
<!-- UiTests&#45;&gt;UiServices -->
<g id="edge115" class="edge">
<title>UiTests&#45;&gt;UiServices</title>
<path fill="none" stroke="#999999" stroke-dasharray="1,5" d="M1642.57,-611.94C1642.57,-579.36 1642.57,-523 1642.57,-523 1642.57,-523 1816.46,-523 1816.46,-523"/>
<polygon fill="#999999" stroke="#999999" points="1816.46,-525.45 1823.46,-523 1816.46,-520.55 1816.46,-525.45"/>
</g>
<!-- Benchmarks -->
<g id="node37" class="node">
<title>Benchmarks</title>
<path fill="#eceff1" stroke="black" d="M2781.5,-657C2781.5,-657 2650.5,-657 2650.5,-657 2644.5,-657 2638.5,-651 2638.5,-645 2638.5,-645 2638.5,-624 2638.5,-624 2638.5,-618 2644.5,-612 2650.5,-612 2650.5,-612 2781.5,-612 2781.5,-612 2787.5,-612 2793.5,-618 2793.5,-624 2793.5,-624 2793.5,-645 2793.5,-645 2793.5,-651 2787.5,-657 2781.5,-657"/>
<text text-anchor="middle" x="2716" y="-643" font-family="Segoe UI, Helvetica, Arial, sans-serif" font-size="10.00">Benchmarks</text>
<text text-anchor="middle" x="2716" y="-632" font-family="Segoe UI, Helvetica, Arial, sans-serif" font-size="10.00">(BenchmarkDotNet</text>
<text text-anchor="middle" x="2716" y="-621" font-family="Segoe UI, Helvetica, Arial, sans-serif" font-size="10.00">pipeline, storage, serialization)</text>
</g>
<!-- Benchmarks&#45;&gt;Domain -->
<g id="edge119" class="edge">
<title>Benchmarks&#45;&gt;Domain</title>
<path fill="none" stroke="#999999" stroke-dasharray="1,5" d="M2713.07,-611.84C2713.07,-517.14 2713.07,-158 2713.07,-158 2713.07,-158 2534.31,-158 2534.31,-158"/>
<polygon fill="#999999" stroke="#999999" points="2534.31,-155.55 2527.31,-158 2534.31,-160.45 2534.31,-155.55"/>
</g>
<!-- Benchmarks&#45;&gt;Core -->
<g id="edge118" class="edge">
<title>Benchmarks&#45;&gt;Core</title>
<path fill="none" stroke="#999999" stroke-dasharray="1,5" d="M2694.43,-611.9C2694.43,-536.45 2694.43,-298 2694.43,-298 2694.43,-298 2540.21,-298 2540.21,-298"/>
<polygon fill="#999999" stroke="#999999" points="2540.21,-295.55 2533.21,-298 2540.21,-300.45 2540.21,-295.55"/>
</g>
<!-- Benchmarks&#45;&gt;Storage -->
<g id="edge120" class="edge">
<title>Benchmarks&#45;&gt;Storage</title>
<path fill="none" stroke="#999999" stroke-dasharray="1,5" d="M2657.14,-611.62C2657.14,-583.66 2657.14,-540 2657.14,-540 2657.14,-540 1189.83,-540 1189.83,-540 1189.83,-540 1189.83,-428.65 1189.83,-428.65"/>
<polygon fill="#999999" stroke="#999999" points="1192.28,-428.65 1189.83,-421.65 1187.38,-428.65 1192.28,-428.65"/>
</g>
<!-- Benchmarks&#45;&gt;Application -->
<g id="edge117" class="edge">
<title>Benchmarks&#45;&gt;Application</title>
<path fill="none" stroke="#999999" stroke-dasharray="1,5" d="M2675.79,-611.89C2675.79,-559.45 2675.79,-434 2675.79,-434 2675.79,-434 1925.5,-434 1925.5,-434 1925.5,-434 1925.5,-428.76 1925.5,-428.76"/>
<polygon fill="#999999" stroke="#999999" points="1927.95,-428.76 1925.5,-421.76 1923.05,-428.76 1927.95,-428.76"/>
</g>
<!-- Benchmarks&#45;&gt;MainApp -->
<g id="edge116" class="edge">
<title>Benchmarks&#45;&gt;MainApp</title>
<path fill="none" stroke="#999999" stroke-dasharray="1,5" d="M2787.12,-611.97C2787.12,-582.07 2787.12,-533 2787.12,-533 2787.12,-533 3182.98,-533 3182.98,-533"/>
<polygon fill="#999999" stroke="#999999" points="3182.98,-535.45 3189.98,-533 3182.98,-530.55 3182.98,-535.45"/>
</g>
<!-- L_SOLID -->
<g id="node38" class="node">
<title>L_SOLID</title>
<path fill="lightgrey" stroke="transparent" d="M3675.5,-652.5C3675.5,-652.5 3480.5,-652.5 3480.5,-652.5 3474.5,-652.5 3468.5,-646.5 3468.5,-640.5 3468.5,-640.5 3468.5,-628.5 3468.5,-628.5 3468.5,-622.5 3474.5,-616.5 3480.5,-616.5 3480.5,-616.5 3675.5,-616.5 3675.5,-616.5 3681.5,-616.5 3687.5,-622.5 3687.5,-628.5 3687.5,-628.5 3687.5,-640.5 3687.5,-640.5 3687.5,-646.5 3681.5,-652.5 3675.5,-652.5"/>
<text text-anchor="middle" x="3578" y="-632" font-family="Segoe UI, Helvetica, Arial, sans-serif" font-size="10.00">━━━ &#160;Project reference (compile dependency)</text>
</g>
<!-- L_DASH -->
<g id="node39" class="node">
<title>L_DASH</title>
<path fill="lightgrey" stroke="transparent" d="M3420,-652.5C3420,-652.5 3236,-652.5 3236,-652.5 3230,-652.5 3224,-646.5 3224,-640.5 3224,-640.5 3224,-628.5 3224,-628.5 3224,-622.5 3230,-616.5 3236,-616.5 3236,-616.5 3420,-616.5 3420,-616.5 3426,-616.5 3432,-622.5 3432,-628.5 3432,-628.5 3432,-640.5 3432,-640.5 3432,-646.5 3426,-652.5 3420,-652.5"/>
<text text-anchor="middle" x="3328" y="-632" font-family="Segoe UI, Helvetica, Arial, sans-serif" font-size="10.00">─ ─ &#160;Source&#45;link / Windows&#45;only reference</text>
</g>
<!-- L_DOT -->
<g id="node40" class="node">
<title>L_DOT</title>
<path fill="lightgrey" stroke="transparent" d="M3176,-652.5C3176,-652.5 3038,-652.5 3038,-652.5 3032,-652.5 3026,-646.5 3026,-640.5 3026,-640.5 3026,-628.5 3026,-628.5 3026,-622.5 3032,-616.5 3038,-616.5 3038,-616.5 3176,-616.5 3176,-616.5 3182,-616.5 3188,-622.5 3188,-628.5 3188,-628.5 3188,-640.5 3188,-640.5 3188,-646.5 3182,-652.5 3176,-652.5"/>
<text text-anchor="middle" x="3107" y="-632" font-family="Segoe UI, Helvetica, Arial, sans-serif" font-size="10.00">· · · &#160;Test / benchmark reference</text>
</g>
<!-- L_NATIVE -->
<g id="node41" class="node">
<title>L_NATIVE</title>
<path fill="#fff3e0" stroke="black" stroke-dasharray="5,2" d="M2978,-652.5C2978,-652.5 2842,-652.5 2842,-652.5 2836,-652.5 2830,-646.5 2830,-640.5 2830,-640.5 2830,-628.5 2830,-628.5 2830,-622.5 2836,-616.5 2842,-616.5 2842,-616.5 2978,-616.5 2978,-616.5 2984,-616.5 2990,-622.5 2990,-628.5 2990,-628.5 2990,-640.5 2990,-640.5 2990,-646.5 2984,-652.5 2978,-652.5"/>
<text text-anchor="middle" x="2910" y="-637.5" font-family="Segoe UI, Helvetica, Arial, sans-serif" font-size="10.00">Dashed border = Windows&#45;only</text>
<text text-anchor="middle" x="2910" y="-626.5" font-family="Segoe UI, Helvetica, Arial, sans-serif" font-size="10.00">or conditional build</text>
</g>
</g>
</svg>
