<?xml version="1.0" encoding="UTF-8" standalone="no"?>
<!DOCTYPE svg PUBLIC "-//W3C//DTD SVG 1.1//EN"
 "http://www.w3.org/Graphics/SVG/1.1/DTD/svg11.dtd">
<!-- Generated by graphviz version 2.43.0 (0)
 -->
<!-- Title: ProviderArchitecture Pages: 1 -->
<svg width="2631pt" height="1056pt"
 viewBox="0.00 0.00 2631.22 1056.02" xmlns="http://www.w3.org/2000/svg" xmlns:xlink="http://www.w3.org/1999/xlink">
<g id="graph0" class="graph" transform="scale(1 1) rotate(0) translate(36 1020.02)">
<title>ProviderArchitecture</title>
<polygon fill="white" stroke="transparent" points="-36,36 -36,-1020.02 2595.22,-1020.02 2595.22,36 -36,36"/>
<text text-anchor="middle" x="1279.61" y="-970.42" font-family="Helvetica,sans-Serif" font-size="12.00">Meridian &#45; Provider Architecture</text>
<text text-anchor="middle" x="1279.61" y="-957.42" font-family="Helvetica,sans-Serif" font-size="12.00">Unified Data Source Abstraction | v1.6.1</text>
<g id="clust1" class="cluster">
<title>cluster_interfaces</title>
<path fill="#faf5ff" stroke="#805ad5" d="M38.22,-154C38.22,-154 574.22,-154 574.22,-154 580.22,-154 586.22,-160 586.22,-166 586.22,-166 586.22,-810.02 586.22,-810.02 586.22,-816.02 580.22,-822.02 574.22,-822.02 574.22,-822.02 38.22,-822.02 38.22,-822.02 32.22,-822.02 26.22,-816.02 26.22,-810.02 26.22,-810.02 26.22,-166 26.22,-166 26.22,-160 32.22,-154 38.22,-154"/>
<text text-anchor="middle" x="306.22" y="-808.42" font-family="Helvetica,sans-Serif" font-size="12.00">Provider Abstractions (Infrastructure/DataSources/)</text>
</g>
<g id="clust2" class="cluster">
<title>cluster_core_interfaces</title>
<polygon fill="#faf5ff" stroke="#6b21a8" stroke-dasharray="5,2" points="103.22,-162 103.22,-448.26 497.22,-448.26 497.22,-162 103.22,-162"/>
<text text-anchor="middle" x="300.22" y="-434.66" font-family="Helvetica,sans-Serif" font-size="12.00">Core Interfaces</text>
</g>
<g id="clust3" class="cluster">
<title>cluster_legacy_interfaces</title>
<polygon fill="#faf5ff" stroke="#6b21a8" stroke-dasharray="5,2" points="178.22,-665.51 178.22,-793.02 578.22,-793.02 578.22,-665.51 178.22,-665.51"/>
<text text-anchor="middle" x="378.22" y="-779.42" font-family="Helvetica,sans-Serif" font-size="12.00">Legacy Interfaces (Compatibility)</text>
</g>
<g id="clust4" class="cluster">
<title>cluster_streaming</title>
<path fill="#dbeafe" stroke="#2b6cb0" d="M798.22,-486.51C798.22,-486.51 1562.22,-486.51 1562.22,-486.51 1568.22,-486.51 1574.22,-492.51 1574.22,-498.51 1574.22,-498.51 1574.22,-634.51 1574.22,-634.51 1574.22,-640.51 1568.22,-646.51 1562.22,-646.51 1562.22,-646.51 798.22,-646.51 798.22,-646.51 792.22,-646.51 786.22,-640.51 786.22,-634.51 786.22,-634.51 786.22,-498.51 786.22,-498.51 786.22,-492.51 792.22,-486.51 798.22,-486.51"/>
<text text-anchor="middle" x="1180.22" y="-632.91" font-family="Helvetica,sans-Serif" font-size="12.00">Real&#45;Time Streaming Providers (5 Production)</text>
</g>
<g id="clust5" class="cluster">
<title>cluster_production_streaming</title>
<polygon fill="#dbeafe" stroke="#1e40af" stroke-dasharray="5,2" points="964.22,-494.51 964.22,-617.51 1566.22,-617.51 1566.22,-494.51 964.22,-494.51"/>
<text text-anchor="middle" x="1265.22" y="-603.91" font-family="Helvetica,sans-Serif" font-size="12.00">Implemented</text>
</g>
<g id="clust6" class="cluster">
<title>cluster_polygon_streaming</title>
<polygon fill="#dbeafe" stroke="#1e40af" stroke-dasharray="5,2" points="794.22,-505.51 794.22,-606.51 956.22,-606.51 956.22,-505.51 794.22,-505.51"/>
<text text-anchor="middle" x="875.22" y="-592.91" font-family="Helvetica,sans-Serif" font-size="12.00">Additional Providers</text>
</g>
<g id="clust7" class="cluster">
<title>cluster_historical</title>
<path fill="#d1fae5" stroke="#2c7a7b" d="M606.22,-8C606.22,-8 1859.22,-8 1859.22,-8 1865.22,-8 1871.22,-14 1871.22,-20 1871.22,-20 1871.22,-280.75 1871.22,-280.75 1871.22,-286.75 1865.22,-292.75 1859.22,-292.75 1859.22,-292.75 606.22,-292.75 606.22,-292.75 600.22,-292.75 594.22,-286.75 594.22,-280.75 594.22,-280.75 594.22,-20 594.22,-20 594.22,-14 600.22,-8 606.22,-8"/>
<text text-anchor="middle" x="1232.72" y="-279.15" font-family="Helvetica,sans-Serif" font-size="12.00">Historical Data Providers (10 Implemented)</text>
</g>
<g id="clust8" class="cluster">
<title>cluster_hist_tier1</title>
<polygon fill="#d1fae5" stroke="#047857" stroke-dasharray="5,2" points="602.22,-16 602.22,-128 882.22,-128 882.22,-16 602.22,-16"/>
<text text-anchor="middle" x="742.22" y="-114.4" font-family="Helvetica,sans-Serif" font-size="12.00">Tier 1 &#45; Primary (Priority 5)</text>
</g>
<g id="clust9" class="cluster">
<title>cluster_hist_tier2</title>
<polygon fill="#d1fae5" stroke="#047857" stroke-dasharray="5,2" points="890.22,-16 890.22,-128 1249.22,-128 1249.22,-16 890.22,-16"/>
<text text-anchor="middle" x="1069.72" y="-114.4" font-family="Helvetica,sans-Serif" font-size="12.00">Tier 2 &#45; Secondary (Priority 10&#45;20)</text>
</g>
<g id="clust10" class="cluster">
<title>cluster_hist_tier3</title>
<polygon fill="#d1fae5" stroke="#047857" stroke-dasharray="5,2" points="1257.22,-21.5 1257.22,-122.5 1863.22,-122.5 1863.22,-21.5 1257.22,-21.5"/>
<text text-anchor="middle" x="1560.22" y="-108.9" font-family="Helvetica,sans-Serif" font-size="12.00">Tier 3 &#45; Fallback (Priority 30+)</text>
</g>
<g id="clust11" class="cluster">
<title>cluster_resilience</title>
<path fill="#fee2e2" stroke="#c53030" d="M948.22,-320.51C948.22,-320.51 1570.22,-320.51 1570.22,-320.51 1576.22,-320.51 1582.22,-326.51 1582.22,-332.51 1582.22,-332.51 1582.22,-457.51 1582.22,-457.51 1582.22,-463.51 1576.22,-469.51 1570.22,-469.51 1570.22,-469.51 948.22,-469.51 948.22,-469.51 942.22,-469.51 936.22,-463.51 936.22,-457.51 936.22,-457.51 936.22,-332.51 936.22,-332.51 936.22,-326.51 942.22,-320.51 948.22,-320.51"/>
<text text-anchor="middle" x="1259.22" y="-455.91" font-family="Helvetica,sans-Serif" font-size="12.00">Resilience &amp; Connection Management</text>
</g>
<g id="clust12" class="cluster">
<title>cluster_connection</title>
<polygon fill="#fee2e2" stroke="#991b1b" stroke-dasharray="5,2" points="1220.22,-328.51 1220.22,-440.51 1574.22,-440.51 1574.22,-328.51 1220.22,-328.51"/>
<text text-anchor="middle" x="1397.22" y="-426.91" font-family="Helvetica,sans-Serif" font-size="12.00">Connection Management</text>
</g>
<g id="clust13" class="cluster">
<title>cluster_failover</title>
<polygon fill="#fee2e2" stroke="#991b1b" stroke-dasharray="5,2" points="944.22,-334.01 944.22,-435.01 1212.22,-435.01 1212.22,-334.01 944.22,-334.01"/>
<text text-anchor="middle" x="1078.22" y="-421.41" font-family="Helvetica,sans-Serif" font-size="12.00">Failover &amp; Load Balancing</text>
</g>
<g id="clust14" class="cluster">
<title>cluster_symbols</title>
<path fill="#c6f6d5" stroke="#38a169" d="M1546.22,-678.76C1546.22,-678.76 1851.22,-678.76 1851.22,-678.76 1857.22,-678.76 1863.22,-684.76 1863.22,-690.76 1863.22,-690.76 1863.22,-930.02 1863.22,-930.02 1863.22,-936.02 1857.22,-942.02 1851.22,-942.02 1851.22,-942.02 1546.22,-942.02 1546.22,-942.02 1540.22,-942.02 1534.22,-936.02 1534.22,-930.02 1534.22,-930.02 1534.22,-690.76 1534.22,-690.76 1534.22,-684.76 1540.22,-678.76 1546.22,-678.76"/>
<text text-anchor="middle" x="1698.72" y="-928.42" font-family="Helvetica,sans-Serif" font-size="12.00">Symbol Resolution &amp; Mapping</text>
</g>
<g id="clust15" class="cluster">
<title>cluster_legend</title>
<path fill="#fafafa" stroke="#666666" d="M1883.22,-855.02C1883.22,-855.02 2539.22,-855.02 2539.22,-855.02 2545.22,-855.02 2551.22,-861.02 2551.22,-867.02 2551.22,-867.02 2551.22,-916.02 2551.22,-916.02 2551.22,-922.02 2545.22,-928.02 2539.22,-928.02 2539.22,-928.02 1883.22,-928.02 1883.22,-928.02 1877.22,-928.02 1871.22,-922.02 1871.22,-916.02 1871.22,-916.02 1871.22,-867.02 1871.22,-867.02 1871.22,-861.02 1877.22,-855.02 1883.22,-855.02"/>
<text text-anchor="middle" x="2211.22" y="-914.42" font-family="Helvetica,sans-Serif" font-size="12.00">Legend</text>
</g>
<!-- I_DATASOURCE -->
<g id="node1" class="node">
<title>I_DATASOURCE</title>
<ellipse fill="#ddd6fe" stroke="black" cx="215.22" cy="-374.01" rx="103.89" ry="45.01"/>
<text text-anchor="middle" x="215.22" y="-394.01" font-family="Helvetica,sans-Serif" font-size="10.00">IDataSource</text>
<text text-anchor="middle" x="215.22" y="-383.01" font-family="Helvetica,sans-Serif" font-size="10.00">[Base Interface]</text>
<text text-anchor="middle" x="215.22" y="-360.01" font-family="Helvetica,sans-Serif" font-size="10.00">Common provider contract</text>
<text text-anchor="middle" x="215.22" y="-349.01" font-family="Helvetica,sans-Serif" font-size="10.00">Capabilities discovery</text>
</g>
<!-- I_REALTIME -->
<g id="node2" class="node">
<title>I_REALTIME</title>
<ellipse fill="#ddd6fe" stroke="black" cx="202.22" cy="-215.25" rx="91.43" ry="45.01"/>
<text text-anchor="middle" x="202.22" y="-235.25" font-family="Helvetica,sans-Serif" font-size="10.00">IRealtimeDataSource</text>
<text text-anchor="middle" x="202.22" y="-224.25" font-family="Helvetica,sans-Serif" font-size="10.00">[Interface]</text>
<text text-anchor="middle" x="202.22" y="-201.25" font-family="Helvetica,sans-Serif" font-size="10.00">Trades, Quotes, Depth</text>
<text text-anchor="middle" x="202.22" y="-190.25" font-family="Helvetica,sans-Serif" font-size="10.00">Streaming subscription</text>
</g>
<!-- I_DATASOURCE&#45;&gt;I_REALTIME -->
<g id="edge1" class="edge">
<title>I_DATASOURCE&#45;&gt;I_REALTIME</title>
<path fill="none" stroke="#4a5568" stroke-dasharray="5,2" d="M211.53,-328.51C210.03,-310.48 208.29,-289.49 206.72,-270.57"/>
<polygon fill="#4a5568" stroke="#4a5568" points="210.21,-270.27 205.89,-260.59 203.23,-270.85 210.21,-270.27"/>
<text text-anchor="middle" x="228.72" y="-303.55" font-family="Helvetica,sans-Serif" font-size="9.00">extends</text>
</g>
<!-- I_HISTORICAL -->
<g id="node3" class="node">
<title>I_HISTORICAL</title>
<ellipse fill="#ddd6fe" stroke="black" cx="400.22" cy="-215.25" rx="89.19" ry="45.01"/>
<text text-anchor="middle" x="400.22" y="-235.25" font-family="Helvetica,sans-Serif" font-size="10.00">IHistoricalDataSource</text>
<text text-anchor="middle" x="400.22" y="-224.25" font-family="Helvetica,sans-Serif" font-size="10.00">[Interface]</text>
<text text-anchor="middle" x="400.22" y="-201.25" font-family="Helvetica,sans-Serif" font-size="10.00">Bars, Dividends, Splits</text>
<text text-anchor="middle" x="400.22" y="-190.25" font-family="Helvetica,sans-Serif" font-size="10.00">Date range queries</text>
</g>
<!-- I_DATASOURCE&#45;&gt;I_HISTORICAL -->
<g id="edge2" class="edge">
<title>I_DATASOURCE&#45;&gt;I_HISTORICAL</title>
<path fill="none" stroke="#4a5568" stroke-dasharray="5,2" d="M261.9,-333.45C287.91,-311.41 320.39,-283.89 347.34,-261.06"/>
<polygon fill="#4a5568" stroke="#4a5568" points="349.78,-263.58 355.15,-254.44 345.25,-258.24 349.78,-263.58"/>
<text text-anchor="middle" x="315.72" y="-303.55" font-family="Helvetica,sans-Serif" font-size="9.00">extends</text>
</g>
<!-- I_MARKET -->
<g id="node4" class="node">
<title>I_MARKET</title>
<ellipse fill="#e9d5ff" stroke="black" cx="492.22" cy="-718.76" rx="77.56" ry="45.01"/>
<text text-anchor="middle" x="492.22" y="-738.76" font-family="Helvetica,sans-Serif" font-size="10.00">IMarketDataClient</text>
<text text-anchor="middle" x="492.22" y="-727.76" font-family="Helvetica,sans-Serif" font-size="10.00">[Interface]</text>
<text text-anchor="middle" x="492.22" y="-704.76" font-family="Helvetica,sans-Serif" font-size="10.00">Connect, Subscribe</text>
<text text-anchor="middle" x="492.22" y="-693.76" font-family="Helvetica,sans-Serif" font-size="10.00">GetEventsAsync</text>
</g>
<!-- IB_CLIENT -->
<g id="node8" class="node">
<title>IB_CLIENT</title>
<path fill="#bfdbfe" stroke="black" d="M1546.22,-588.51C1546.22,-588.51 1432.22,-588.51 1432.22,-588.51 1426.22,-588.51 1420.22,-582.51 1420.22,-576.51 1420.22,-576.51 1420.22,-514.51 1420.22,-514.51 1420.22,-508.51 1426.22,-502.51 1432.22,-502.51 1432.22,-502.51 1546.22,-502.51 1546.22,-502.51 1552.22,-502.51 1558.22,-508.51 1558.22,-514.51 1558.22,-514.51 1558.22,-576.51 1558.22,-576.51 1558.22,-582.51 1552.22,-588.51 1546.22,-588.51"/>
<text text-anchor="middle" x="1489.22" y="-576.51" font-family="Helvetica,sans-Serif" font-size="10.00">IBMarketDataClient</text>
<text text-anchor="middle" x="1489.22" y="-565.51" font-family="Helvetica,sans-Serif" font-size="10.00">[Production]</text>
<text text-anchor="middle" x="1489.22" y="-542.51" font-family="Helvetica,sans-Serif" font-size="10.00">IB TWS/Gateway API</text>
<text text-anchor="middle" x="1489.22" y="-531.51" font-family="Helvetica,sans-Serif" font-size="10.00">Trades, Quotes, L2 Depth</text>
<text text-anchor="middle" x="1489.22" y="-520.51" font-family="Helvetica,sans-Serif" font-size="10.00">Market Scanner, News</text>
<text text-anchor="middle" x="1489.22" y="-509.51" font-family="Helvetica,sans-Serif" font-size="10.00">Free equity data support</text>
</g>
<!-- I_MARKET&#45;&gt;IB_CLIENT -->
<g id="edge3" class="edge">
<title>I_MARKET&#45;&gt;IB_CLIENT</title>
<path fill="none" stroke="#4a5568" stroke-dasharray="5,2" d="M569.66,-713.46C784.46,-701.31 1374.36,-666.3 1411.22,-646.51 1432.07,-635.31 1449.17,-615.87 1461.99,-597.1"/>
<polygon fill="#4a5568" stroke="#4a5568" points="1465.03,-598.83 1467.57,-588.55 1459.17,-595.01 1465.03,-598.83"/>
</g>
<!-- ALP_CLIENT -->
<g id="node9" class="node">
<title>ALP_CLIENT</title>
<path fill="#bfdbfe" stroke="black" d="M1389.72,-583.01C1389.72,-583.01 1278.72,-583.01 1278.72,-583.01 1272.72,-583.01 1266.72,-577.01 1266.72,-571.01 1266.72,-571.01 1266.72,-520.01 1266.72,-520.01 1266.72,-514.01 1272.72,-508.01 1278.72,-508.01 1278.72,-508.01 1389.72,-508.01 1389.72,-508.01 1395.72,-508.01 1401.72,-514.01 1401.72,-520.01 1401.72,-520.01 1401.72,-571.01 1401.72,-571.01 1401.72,-577.01 1395.72,-583.01 1389.72,-583.01"/>
<text text-anchor="middle" x="1334.22" y="-571.01" font-family="Helvetica,sans-Serif" font-size="10.00">AlpacaMarketDataClient</text>
<text text-anchor="middle" x="1334.22" y="-560.01" font-family="Helvetica,sans-Serif" font-size="10.00">[Production]</text>
<text text-anchor="middle" x="1334.22" y="-537.01" font-family="Helvetica,sans-Serif" font-size="10.00">WebSocket streaming</text>
<text text-anchor="middle" x="1334.22" y="-526.01" font-family="Helvetica,sans-Serif" font-size="10.00">IEX/SIP feeds</text>
<text text-anchor="middle" x="1334.22" y="-515.01" font-family="Helvetica,sans-Serif" font-size="10.00">Trades + Quotes</text>
</g>
<!-- I_MARKET&#45;&gt;ALP_CLIENT -->
<g id="edge4" class="edge">
<title>I_MARKET&#45;&gt;ALP_CLIENT</title>
<path fill="none" stroke="#4a5568" stroke-dasharray="5,2" d="M570.02,-718.33C740.6,-718.35 1141.59,-711.26 1258.22,-646.51 1280.47,-634.15 1298.23,-612.28 1310.97,-592.13"/>
<polygon fill="#4a5568" stroke="#4a5568" points="1314.11,-593.7 1316.29,-583.33 1308.12,-590.08 1314.11,-593.7"/>
</g>
<!-- NYSE_CLIENT -->
<g id="node10" class="node">
<title>NYSE_CLIENT</title>
<path fill="#bfdbfe" stroke="black" d="M1085.72,-583.01C1085.72,-583.01 984.72,-583.01 984.72,-583.01 978.72,-583.01 972.72,-577.01 972.72,-571.01 972.72,-571.01 972.72,-520.01 972.72,-520.01 972.72,-514.01 978.72,-508.01 984.72,-508.01 984.72,-508.01 1085.72,-508.01 1085.72,-508.01 1091.72,-508.01 1097.72,-514.01 1097.72,-520.01 1097.72,-520.01 1097.72,-571.01 1097.72,-571.01 1097.72,-577.01 1091.72,-583.01 1085.72,-583.01"/>
<text text-anchor="middle" x="1035.22" y="-571.01" font-family="Helvetica,sans-Serif" font-size="10.00">NYSEDataSource</text>
<text text-anchor="middle" x="1035.22" y="-560.01" font-family="Helvetica,sans-Serif" font-size="10.00">[Production]</text>
<text text-anchor="middle" x="1035.22" y="-537.01" font-family="Helvetica,sans-Serif" font-size="10.00">Exchange&#45;direct feed</text>
<text text-anchor="middle" x="1035.22" y="-526.01" font-family="Helvetica,sans-Serif" font-size="10.00">US Equities</text>
<text text-anchor="middle" x="1035.22" y="-515.01" font-family="Helvetica,sans-Serif" font-size="10.00">Real&#45;time + Historical</text>
</g>
<!-- I_MARKET&#45;&gt;NYSE_CLIENT -->
<g id="edge5" class="edge">
<title>I_MARKET&#45;&gt;NYSE_CLIENT</title>
<path fill="none" stroke="#4a5568" stroke-dasharray="5,2" d="M569.41,-713.07C684.84,-704.89 895.77,-685.07 960.22,-646.51 981.79,-633.6 999.2,-611.89 1011.79,-592"/>
<polygon fill="#4a5568" stroke="#4a5568" points="1014.87,-593.68 1017.07,-583.32 1008.88,-590.05 1014.87,-593.68"/>
</g>
<!-- SS_CLIENT -->
<g id="node11" class="node">
<title>SS_CLIENT</title>
<path fill="#bfdbfe" stroke="black" d="M1236.72,-583.01C1236.72,-583.01 1127.72,-583.01 1127.72,-583.01 1121.72,-583.01 1115.72,-577.01 1115.72,-571.01 1115.72,-571.01 1115.72,-520.01 1115.72,-520.01 1115.72,-514.01 1121.72,-508.01 1127.72,-508.01 1127.72,-508.01 1236.72,-508.01 1236.72,-508.01 1242.72,-508.01 1248.72,-514.01 1248.72,-520.01 1248.72,-520.01 1248.72,-571.01 1248.72,-571.01 1248.72,-577.01 1242.72,-583.01 1236.72,-583.01"/>
<text text-anchor="middle" x="1182.22" y="-571.01" font-family="Helvetica,sans-Serif" font-size="10.00">StockSharpConnector</text>
<text text-anchor="middle" x="1182.22" y="-560.01" font-family="Helvetica,sans-Serif" font-size="10.00">[Production]</text>
<text text-anchor="middle" x="1182.22" y="-537.01" font-family="Helvetica,sans-Serif" font-size="10.00">Multi&#45;exchange adapter</text>
<text text-anchor="middle" x="1182.22" y="-526.01" font-family="Helvetica,sans-Serif" font-size="10.00">Global markets</text>
<text text-anchor="middle" x="1182.22" y="-515.01" font-family="Helvetica,sans-Serif" font-size="10.00">90+ connectors</text>
</g>
<!-- I_MARKET&#45;&gt;SS_CLIENT -->
<g id="edge6" class="edge">
<title>I_MARKET&#45;&gt;SS_CLIENT</title>
<path fill="none" stroke="#4a5568" stroke-dasharray="5,2" d="M570.12,-716.3C714.58,-712.38 1017.45,-698.07 1107.22,-646.51 1129.18,-633.89 1146.71,-611.99 1159.28,-591.9"/>
<polygon fill="#4a5568" stroke="#4a5568" points="1162.4,-593.51 1164.53,-583.13 1156.39,-589.91 1162.4,-593.51"/>
</g>
<!-- POL_CLIENT -->
<g id="node12" class="node">
<title>POL_CLIENT</title>
<path fill="#bfdbfe" stroke="black" d="M935.72,-577.51C935.72,-577.51 814.72,-577.51 814.72,-577.51 808.72,-577.51 802.72,-571.51 802.72,-565.51 802.72,-565.51 802.72,-525.51 802.72,-525.51 802.72,-519.51 808.72,-513.51 814.72,-513.51 814.72,-513.51 935.72,-513.51 935.72,-513.51 941.72,-513.51 947.72,-519.51 947.72,-525.51 947.72,-525.51 947.72,-565.51 947.72,-565.51 947.72,-571.51 941.72,-577.51 935.72,-577.51"/>
<text text-anchor="middle" x="875.22" y="-565.51" font-family="Helvetica,sans-Serif" font-size="10.00">PolygonMarketDataClient</text>
<text text-anchor="middle" x="875.22" y="-554.51" font-family="Helvetica,sans-Serif" font-size="10.00">[Production]</text>
<text text-anchor="middle" x="875.22" y="-531.51" font-family="Helvetica,sans-Serif" font-size="10.00">Polygon.io streaming</text>
<text text-anchor="middle" x="875.22" y="-520.51" font-family="Helvetica,sans-Serif" font-size="10.00">Trades, quotes, websocket</text>
</g>
<!-- I_MARKET&#45;&gt;POL_CLIENT -->
<g id="edge7" class="edge">
<title>I_MARKET&#45;&gt;POL_CLIENT</title>
<path fill="none" stroke="#4a5568" stroke-dasharray="5,2" d="M569.81,-714.61C631.24,-709.06 717.21,-694.29 782.22,-655.51 810.66,-638.54 834.67,-609.74 851.17,-586"/>
<polygon fill="#4a5568" stroke="#4a5568" points="854.21,-587.76 856.9,-577.51 848.41,-583.84 854.21,-587.76"/>
</g>
<!-- I_HIST_PROVIDER -->
<g id="node5" class="node">
<title>I_HIST_PROVIDER</title>
<ellipse fill="#e9d5ff" stroke="black" cx="291.22" cy="-718.76" rx="105.22" ry="45.01"/>
<text text-anchor="middle" x="291.22" y="-738.76" font-family="Helvetica,sans-Serif" font-size="10.00">IHistoricalDataProvider</text>
<text text-anchor="middle" x="291.22" y="-727.76" font-family="Helvetica,sans-Serif" font-size="10.00">[Interface]</text>
<text text-anchor="middle" x="291.22" y="-704.76" font-family="Helvetica,sans-Serif" font-size="10.00">GetHistoricalBarsAsync</text>
<text text-anchor="middle" x="291.22" y="-693.76" font-family="Helvetica,sans-Serif" font-size="10.00">StreamHistoricalBarsAsync</text>
</g>
<!-- ALPACA_HIST -->
<g id="node13" class="node">
<title>ALPACA_HIST</title>
<path fill="#a7f3d0" stroke="black" d="M734.22,-99C734.22,-99 622.22,-99 622.22,-99 616.22,-99 610.22,-93 610.22,-87 610.22,-87 610.22,-36 610.22,-36 610.22,-30 616.22,-24 622.22,-24 622.22,-24 734.22,-24 734.22,-24 740.22,-24 746.22,-30 746.22,-36 746.22,-36 746.22,-87 746.22,-87 746.22,-93 740.22,-99 734.22,-99"/>
<text text-anchor="middle" x="678.22" y="-87" font-family="Helvetica,sans-Serif" font-size="10.00">Alpaca Historical</text>
<text text-anchor="middle" x="678.22" y="-76" font-family="Helvetica,sans-Serif" font-size="10.00">[Priority 5]</text>
<text text-anchor="middle" x="678.22" y="-53" font-family="Helvetica,sans-Serif" font-size="10.00">OHLCV, Trades, Auctions</text>
<text text-anchor="middle" x="678.22" y="-42" font-family="Helvetica,sans-Serif" font-size="10.00">Adjusted prices</text>
<text text-anchor="middle" x="678.22" y="-31" font-family="Helvetica,sans-Serif" font-size="10.00">1min to 1day bars</text>
</g>
<!-- I_HIST_PROVIDER&#45;&gt;ALPACA_HIST -->
<g id="edge8" class="edge">
<title>I_HIST_PROVIDER&#45;&gt;ALPACA_HIST</title>
<path fill="none" stroke="#4a5568" stroke-dasharray="5,2" d="M356.75,-683.31C372.28,-676.39 389.04,-669.91 405.22,-665.51 426.34,-659.76 487.54,-670.79 503.22,-655.51 538.2,-621.43 517.22,-595.35 517.22,-546.51 517.22,-546.51 517.22,-546.51 517.22,-214.25 517.22,-177.88 518.12,-164.1 541.22,-136 556.96,-116.85 579.04,-101.98 600.88,-90.78"/>
<polygon fill="#4a5568" stroke="#4a5568" points="602.45,-93.91 609.88,-86.36 599.36,-87.63 602.45,-93.91"/>
</g>
<!-- IB_HIST -->
<g id="node14" class="node">
<title>IB_HIST</title>
<path fill="#a7f3d0" stroke="black" d="M861.72,-99C861.72,-99 776.72,-99 776.72,-99 770.72,-99 764.72,-93 764.72,-87 764.72,-87 764.72,-36 764.72,-36 764.72,-30 770.72,-24 776.72,-24 776.72,-24 861.72,-24 861.72,-24 867.72,-24 873.72,-30 873.72,-36 873.72,-36 873.72,-87 873.72,-87 873.72,-93 867.72,-99 861.72,-99"/>
<text text-anchor="middle" x="819.22" y="-87" font-family="Helvetica,sans-Serif" font-size="10.00">Interactive Brokers</text>
<text text-anchor="middle" x="819.22" y="-76" font-family="Helvetica,sans-Serif" font-size="10.00">[Priority 5]</text>
<text text-anchor="middle" x="819.22" y="-53" font-family="Helvetica,sans-Serif" font-size="10.00">All timeframes</text>
<text text-anchor="middle" x="819.22" y="-42" font-family="Helvetica,sans-Serif" font-size="10.00">IB pacing rules</text>
<text text-anchor="middle" x="819.22" y="-31" font-family="Helvetica,sans-Serif" font-size="10.00">Full historical data</text>
</g>
<!-- I_HIST_PROVIDER&#45;&gt;IB_HIST -->
<g id="edge16" class="edge">
<title>I_HIST_PROVIDER&#45;&gt;IB_HIST</title>
<path fill="none" stroke="#4a5568" stroke-dasharray="5,2" d="M356.71,-683.16C372.24,-676.25 389.01,-669.81 405.22,-665.51 432.8,-658.19 515.45,-669.6 532.22,-646.51 559.02,-609.61 555.22,-592.11 555.22,-546.51 555.22,-546.51 555.22,-546.51 555.22,-214.25 555.22,-177.88 550.46,-158.28 579.22,-136 594.69,-124.01 737.35,-136 755.22,-128 766.32,-123.02 776.51,-115.16 785.34,-106.59"/>
<polygon fill="#4a5568" stroke="#4a5568" points="787.98,-108.89 792.42,-99.27 782.95,-104.03 787.98,-108.89"/>
</g>
<!-- YAHOO_HIST -->
<g id="node15" class="node">
<title>YAHOO_HIST</title>
<path fill="#6ee7b7" stroke="black" d="M1228.72,-99C1228.72,-99 1125.72,-99 1125.72,-99 1119.72,-99 1113.72,-93 1113.72,-87 1113.72,-87 1113.72,-36 1113.72,-36 1113.72,-30 1119.72,-24 1125.72,-24 1125.72,-24 1228.72,-24 1228.72,-24 1234.72,-24 1240.72,-30 1240.72,-36 1240.72,-36 1240.72,-87 1240.72,-87 1240.72,-93 1234.72,-99 1228.72,-99"/>
<text text-anchor="middle" x="1177.22" y="-87" font-family="Helvetica,sans-Serif" font-size="10.00">Yahoo Finance</text>
<text text-anchor="middle" x="1177.22" y="-76" font-family="Helvetica,sans-Serif" font-size="10.00">[Priority 10]</text>
<text text-anchor="middle" x="1177.22" y="-53" font-family="Helvetica,sans-Serif" font-size="10.00">50K+ global securities</text>
<text text-anchor="middle" x="1177.22" y="-42" font-family="Helvetica,sans-Serif" font-size="10.00">Free, no API key</text>
<text text-anchor="middle" x="1177.22" y="-31" font-family="Helvetica,sans-Serif" font-size="10.00">Dividends, Splits</text>
</g>
<!-- I_HIST_PROVIDER&#45;&gt;YAHOO_HIST -->
<g id="edge9" class="edge">
<title>I_HIST_PROVIDER&#45;&gt;YAHOO_HIST</title>
<path fill="none" stroke="#4a5568" stroke-dasharray="5,2" d="M356,-683.01C371.71,-676.02 388.73,-669.58 405.22,-665.51 452.86,-653.75 587.81,-678.27 625.22,-646.51 662.23,-615.08 669.22,-595.07 669.22,-546.51 669.22,-546.51 669.22,-546.51 669.22,-304.75 669.22,-225.15 658.73,-172.99 729.22,-136 766.12,-116.63 1065.46,-143.32 1104.22,-128 1116.71,-123.06 1128.44,-114.95 1138.68,-106.08"/>
<polygon fill="#4a5568" stroke="#4a5568" points="1141.19,-108.53 1146.21,-99.2 1136.47,-103.36 1141.19,-108.53"/>
</g>
<!-- STOOQ_HIST -->
<g id="node16" class="node">
<title>STOOQ_HIST</title>
<path fill="#6ee7b7" stroke="black" d="M1083.22,-99C1083.22,-99 1017.22,-99 1017.22,-99 1011.22,-99 1005.22,-93 1005.22,-87 1005.22,-87 1005.22,-36 1005.22,-36 1005.22,-30 1011.22,-24 1017.22,-24 1017.22,-24 1083.22,-24 1083.22,-24 1089.22,-24 1095.22,-30 1095.22,-36 1095.22,-36 1095.22,-87 1095.22,-87 1095.22,-93 1089.22,-99 1083.22,-99"/>
<text text-anchor="middle" x="1050.22" y="-87" font-family="Helvetica,sans-Serif" font-size="10.00">Stooq</text>
<text text-anchor="middle" x="1050.22" y="-76" font-family="Helvetica,sans-Serif" font-size="10.00">[Priority 20]</text>
<text text-anchor="middle" x="1050.22" y="-53" font-family="Helvetica,sans-Serif" font-size="10.00">Global equities</text>
<text text-anchor="middle" x="1050.22" y="-42" font-family="Helvetica,sans-Serif" font-size="10.00">EOD data</text>
<text text-anchor="middle" x="1050.22" y="-31" font-family="Helvetica,sans-Serif" font-size="10.00">No rate limits</text>
</g>
<!-- I_HIST_PROVIDER&#45;&gt;STOOQ_HIST -->
<g id="edge10" class="edge">
<title>I_HIST_PROVIDER&#45;&gt;STOOQ_HIST</title>
<path fill="none" stroke="#4a5568" stroke-dasharray="5,2" d="M356.34,-683C371.95,-676.06 388.86,-669.64 405.22,-665.51 445.29,-655.39 559.48,-674.14 590.22,-646.51 625.94,-614.4 631.22,-594.54 631.22,-546.51 631.22,-546.51 631.22,-546.51 631.22,-304.75 631.22,-229.75 579.61,-189.46 632.22,-136 646.4,-121.58 978.02,-136.83 996.22,-128 1006.27,-123.12 1015.1,-115.39 1022.56,-106.93"/>
<polygon fill="#4a5568" stroke="#4a5568" points="1025.41,-108.97 1029.01,-99 1019.98,-104.55 1025.41,-108.97"/>
</g>
<!-- POLYGON_HIST -->
<g id="node17" class="node">
<title>POLYGON_HIST</title>
<path fill="#6ee7b7" stroke="black" d="M974.72,-99C974.72,-99 909.72,-99 909.72,-99 903.72,-99 897.72,-93 897.72,-87 897.72,-87 897.72,-36 897.72,-36 897.72,-30 903.72,-24 909.72,-24 909.72,-24 974.72,-24 974.72,-24 980.72,-24 986.72,-30 986.72,-36 986.72,-36 986.72,-87 986.72,-87 986.72,-93 980.72,-99 974.72,-99"/>
<text text-anchor="middle" x="942.22" y="-87" font-family="Helvetica,sans-Serif" font-size="10.00">Polygon.io</text>
<text text-anchor="middle" x="942.22" y="-76" font-family="Helvetica,sans-Serif" font-size="10.00">[Priority 15]</text>
<text text-anchor="middle" x="942.22" y="-53" font-family="Helvetica,sans-Serif" font-size="10.00">Historical bars</text>
<text text-anchor="middle" x="942.22" y="-42" font-family="Helvetica,sans-Serif" font-size="10.00">Minute/Day</text>
<text text-anchor="middle" x="942.22" y="-31" font-family="Helvetica,sans-Serif" font-size="10.00">Trades, Quotes</text>
</g>
<!-- I_HIST_PROVIDER&#45;&gt;POLYGON_HIST -->
<g id="edge11" class="edge">
<title>I_HIST_PROVIDER&#45;&gt;POLYGON_HIST</title>
<path fill="none" stroke="#4a5568" stroke-dasharray="5,2" d="M356.38,-683.15C371.99,-676.2 388.88,-669.74 405.22,-665.51 438.38,-656.91 534.26,-671 558.22,-646.51 591.14,-612.85 593.22,-593.6 593.22,-546.51 593.22,-546.51 593.22,-546.51 593.22,-214.25 593.22,-178.92 580.45,-159.06 607.22,-136 618.96,-125.88 872.23,-134.69 886.22,-128 896.34,-123.16 905.34,-115.53 913.01,-107.16"/>
<polygon fill="#4a5568" stroke="#4a5568" points="915.86,-109.21 919.67,-99.32 910.53,-104.68 915.86,-109.21"/>
</g>
<!-- NASDAQ_HIST -->
<g id="node18" class="node">
<title>NASDAQ_HIST</title>
<path fill="#bbf7d0" stroke="black" d="M1705.22,-93.5C1705.22,-93.5 1613.22,-93.5 1613.22,-93.5 1607.22,-93.5 1601.22,-87.5 1601.22,-81.5 1601.22,-81.5 1601.22,-41.5 1601.22,-41.5 1601.22,-35.5 1607.22,-29.5 1613.22,-29.5 1613.22,-29.5 1705.22,-29.5 1705.22,-29.5 1711.22,-29.5 1717.22,-35.5 1717.22,-41.5 1717.22,-41.5 1717.22,-81.5 1717.22,-81.5 1717.22,-87.5 1711.22,-93.5 1705.22,-93.5"/>
<text text-anchor="middle" x="1659.22" y="-81.5" font-family="Helvetica,sans-Serif" font-size="10.00">Nasdaq Data Link</text>
<text text-anchor="middle" x="1659.22" y="-70.5" font-family="Helvetica,sans-Serif" font-size="10.00">[Priority 30]</text>
<text text-anchor="middle" x="1659.22" y="-47.5" font-family="Helvetica,sans-Serif" font-size="10.00">Quandl API</text>
<text text-anchor="middle" x="1659.22" y="-36.5" font-family="Helvetica,sans-Serif" font-size="10.00">Alternative datasets</text>
</g>
<!-- I_HIST_PROVIDER&#45;&gt;NASDAQ_HIST -->
<g id="edge12" class="edge">
<title>I_HIST_PROVIDER&#45;&gt;NASDAQ_HIST</title>
<path fill="none" stroke="#4a5568" stroke-dasharray="5,2" d="M355.98,-682.91C371.68,-675.92 388.71,-669.51 405.22,-665.51 460.66,-652.08 614.22,-678.85 661.22,-646.51 705.7,-615.9 730.22,-600.51 730.22,-546.51 730.22,-546.51 730.22,-546.51 730.22,-304.75 730.22,-228.8 699.5,-185.37 757.22,-136 774.84,-120.92 1570.78,-136.86 1592.22,-128 1606.26,-122.2 1618.98,-111.9 1629.47,-101.17"/>
<polygon fill="#4a5568" stroke="#4a5568" points="1632.14,-103.44 1636.37,-93.72 1627,-98.68 1632.14,-103.44"/>
</g>
<!-- TIINGO_HIST -->
<g id="node19" class="node">
<title>TIINGO_HIST</title>
<path fill="#bbf7d0" stroke="black" d="M1842.72,-93.5C1842.72,-93.5 1747.72,-93.5 1747.72,-93.5 1741.72,-93.5 1735.72,-87.5 1735.72,-81.5 1735.72,-81.5 1735.72,-41.5 1735.72,-41.5 1735.72,-35.5 1741.72,-29.5 1747.72,-29.5 1747.72,-29.5 1842.72,-29.5 1842.72,-29.5 1848.72,-29.5 1854.72,-35.5 1854.72,-41.5 1854.72,-41.5 1854.72,-81.5 1854.72,-81.5 1854.72,-87.5 1848.72,-93.5 1842.72,-93.5"/>
<text text-anchor="middle" x="1795.22" y="-81.5" font-family="Helvetica,sans-Serif" font-size="10.00">Tiingo</text>
<text text-anchor="middle" x="1795.22" y="-70.5" font-family="Helvetica,sans-Serif" font-size="10.00">[Priority 25]</text>
<text text-anchor="middle" x="1795.22" y="-47.5" font-family="Helvetica,sans-Serif" font-size="10.00">Dividend&#45;adjusted</text>
<text text-anchor="middle" x="1795.22" y="-36.5" font-family="Helvetica,sans-Serif" font-size="10.00">Fundamentals, News</text>
</g>
<!-- I_HIST_PROVIDER&#45;&gt;TIINGO_HIST -->
<g id="edge13" class="edge">
<title>I_HIST_PROVIDER&#45;&gt;TIINGO_HIST</title>
<path fill="none" stroke="#4a5568" stroke-dasharray="5,2" d="M355.96,-682.83C371.66,-675.85 388.7,-669.46 405.22,-665.51 471.26,-649.72 654.49,-685.32 710.22,-646.51 752.38,-617.15 768.22,-597.89 768.22,-546.51 768.22,-546.51 768.22,-546.51 768.22,-214.25 768.22,-178.92 755.22,-158.79 782.22,-136 802.25,-119.08 1701.9,-137.82 1726.22,-128 1740.53,-122.22 1753.58,-111.93 1764.39,-101.2"/>
<polygon fill="#4a5568" stroke="#4a5568" points="1767.13,-103.4 1771.51,-93.75 1762.07,-98.56 1767.13,-103.4"/>
</g>
<!-- FINNHUB_HIST -->
<g id="node20" class="node">
<title>FINNHUB_HIST</title>
<path fill="#bbf7d0" stroke="black" d="M1345.22,-93.5C1345.22,-93.5 1277.22,-93.5 1277.22,-93.5 1271.22,-93.5 1265.22,-87.5 1265.22,-81.5 1265.22,-81.5 1265.22,-41.5 1265.22,-41.5 1265.22,-35.5 1271.22,-29.5 1277.22,-29.5 1277.22,-29.5 1345.22,-29.5 1345.22,-29.5 1351.22,-29.5 1357.22,-35.5 1357.22,-41.5 1357.22,-41.5 1357.22,-81.5 1357.22,-81.5 1357.22,-87.5 1351.22,-93.5 1345.22,-93.5"/>
<text text-anchor="middle" x="1311.22" y="-81.5" font-family="Helvetica,sans-Serif" font-size="10.00">Finnhub</text>
<text text-anchor="middle" x="1311.22" y="-70.5" font-family="Helvetica,sans-Serif" font-size="10.00">[Priority 35]</text>
<text text-anchor="middle" x="1311.22" y="-47.5" font-family="Helvetica,sans-Serif" font-size="10.00">Fundamentals</text>
<text text-anchor="middle" x="1311.22" y="-36.5" font-family="Helvetica,sans-Serif" font-size="10.00">Earnings, News</text>
</g>
<!-- I_HIST_PROVIDER&#45;&gt;FINNHUB_HIST -->
<g id="edge14" class="edge">
<title>I_HIST_PROVIDER&#45;&gt;FINNHUB_HIST</title>
<path fill="none" stroke="#4a5568" stroke-dasharray="5,2" d="M227.92,-682.46C213.31,-675.72 197.54,-669.53 182.22,-665.51 165.95,-661.24 43.97,-666.47 31.22,-655.51 -6.4,-623.17 7.22,-596.11 7.22,-546.51 7.22,-546.51 7.22,-546.51 7.22,-304.75 7.22,-236.91 -19.78,-198.75 31.22,-154 58.41,-130.14 646.04,-136.75 682.22,-136 698.08,-135.67 1238.8,-134.61 1253.22,-128 1265.87,-122.2 1276.89,-112.16 1285.84,-101.65"/>
<polygon fill="#4a5568" stroke="#4a5568" points="1288.77,-103.6 1292.26,-93.59 1283.29,-99.23 1288.77,-103.6"/>
</g>
<!-- AV_HIST -->
<g id="node21" class="node">
<title>AV_HIST</title>
<path fill="#bbf7d0" stroke="black" d="M1461.22,-93.5C1461.22,-93.5 1387.22,-93.5 1387.22,-93.5 1381.22,-93.5 1375.22,-87.5 1375.22,-81.5 1375.22,-81.5 1375.22,-41.5 1375.22,-41.5 1375.22,-35.5 1381.22,-29.5 1387.22,-29.5 1387.22,-29.5 1461.22,-29.5 1461.22,-29.5 1467.22,-29.5 1473.22,-35.5 1473.22,-41.5 1473.22,-41.5 1473.22,-81.5 1473.22,-81.5 1473.22,-87.5 1467.22,-93.5 1461.22,-93.5"/>
<text text-anchor="middle" x="1424.22" y="-81.5" font-family="Helvetica,sans-Serif" font-size="10.00">Alpha Vantage</text>
<text text-anchor="middle" x="1424.22" y="-70.5" font-family="Helvetica,sans-Serif" font-size="10.00">[Priority 40]</text>
<text text-anchor="middle" x="1424.22" y="-47.5" font-family="Helvetica,sans-Serif" font-size="10.00">Intraday data</text>
<text text-anchor="middle" x="1424.22" y="-36.5" font-family="Helvetica,sans-Serif" font-size="10.00">5min to monthly</text>
</g>
<!-- I_HIST_PROVIDER&#45;&gt;AV_HIST -->
<g id="edge15" class="edge">
<title>I_HIST_PROVIDER&#45;&gt;AV_HIST</title>
<path fill="none" stroke="#4a5568" stroke-dasharray="5,2" d="M227.56,-682.58C213.04,-675.88 197.4,-669.67 182.22,-665.51 157.9,-658.84 88.15,-672.15 69.22,-655.51 31.96,-622.76 45.22,-596.11 45.22,-546.51 45.22,-546.51 45.22,-546.51 45.22,-304.75 45.22,-236.91 18.16,-198.68 69.22,-154 75.97,-148.09 383.25,-146.25 392.22,-146 532.23,-142.04 567.18,-139.07 707.22,-136 725.52,-135.6 1349.57,-135.62 1366.22,-128 1378.87,-122.21 1389.9,-112.17 1398.84,-101.67"/>
<polygon fill="#4a5568" stroke="#4a5568" points="1401.77,-103.61 1405.27,-93.61 1396.3,-99.25 1401.77,-103.61"/>
</g>
<!-- SS_HIST -->
<g id="node22" class="node">
<title>SS_HIST</title>
<path fill="#bbf7d0" stroke="black" d="M1571.22,-93.5C1571.22,-93.5 1503.22,-93.5 1503.22,-93.5 1497.22,-93.5 1491.22,-87.5 1491.22,-81.5 1491.22,-81.5 1491.22,-41.5 1491.22,-41.5 1491.22,-35.5 1497.22,-29.5 1503.22,-29.5 1503.22,-29.5 1571.22,-29.5 1571.22,-29.5 1577.22,-29.5 1583.22,-35.5 1583.22,-41.5 1583.22,-41.5 1583.22,-81.5 1583.22,-81.5 1583.22,-87.5 1577.22,-93.5 1571.22,-93.5"/>
<text text-anchor="middle" x="1537.22" y="-81.5" font-family="Helvetica,sans-Serif" font-size="10.00">StockSharp</text>
<text text-anchor="middle" x="1537.22" y="-70.5" font-family="Helvetica,sans-Serif" font-size="10.00">[Priority 35]</text>
<text text-anchor="middle" x="1537.22" y="-47.5" font-family="Helvetica,sans-Serif" font-size="10.00">Multi&#45;exchange</text>
<text text-anchor="middle" x="1537.22" y="-36.5" font-family="Helvetica,sans-Serif" font-size="10.00">Global markets</text>
</g>
<!-- I_HIST_PROVIDER&#45;&gt;SS_HIST -->
<g id="edge17" class="edge">
<title>I_HIST_PROVIDER&#45;&gt;SS_HIST</title>
<path fill="none" stroke="#4a5568" stroke-dasharray="5,2" d="M225.36,-683.25C211.36,-676.75 196.49,-670.46 182.22,-665.51 145.64,-652.84 123.46,-674.97 97.22,-646.51 66.79,-613.52 83.22,-591.39 83.22,-546.51 83.22,-546.51 83.22,-546.51 83.22,-304.75 83.22,-237.38 49.51,-199.49 99.22,-154 108.75,-145.28 551.31,-146.5 564.22,-146 638.96,-143.13 657.46,-138.62 732.22,-136 753.04,-135.27 1463.38,-136.9 1482.22,-128 1494.52,-122.19 1505.06,-112.14 1513.53,-101.64"/>
<polygon fill="#4a5568" stroke="#4a5568" points="1516.37,-103.68 1519.59,-93.58 1510.78,-99.47 1516.37,-103.68"/>
</g>
<!-- CAPABILITIES -->
<g id="node6" class="node">
<title>CAPABILITIES</title>
<polygon fill="#f3e8ff" stroke="black" points="162.22,-756.26 34.22,-756.26 34.22,-681.26 168.22,-681.26 168.22,-750.26 162.22,-756.26"/>
<polyline fill="none" stroke="black" points="162.22,-756.26 162.22,-750.26 "/>
<polyline fill="none" stroke="black" points="168.22,-750.26 162.22,-750.26 "/>
<text text-anchor="middle" x="101.22" y="-744.26" font-family="Helvetica,sans-Serif" font-size="10.00">DataSourceCapabilities</text>
<text text-anchor="middle" x="101.22" y="-721.26" font-family="Helvetica,sans-Serif" font-size="10.00">• SupportsRealtime</text>
<text text-anchor="middle" x="101.22" y="-710.26" font-family="Helvetica,sans-Serif" font-size="10.00">• SupportsHistorical</text>
<text text-anchor="middle" x="101.22" y="-699.26" font-family="Helvetica,sans-Serif" font-size="10.00">• SupportsLevel2</text>
<text text-anchor="middle" x="101.22" y="-688.26" font-family="Helvetica,sans-Serif" font-size="10.00">• SupportedTimeframes</text>
</g>
<!-- REGISTRY -->
<g id="node7" class="node">
<title>REGISTRY</title>
<polygon fill="#f3e8ff" stroke="black" points="241.72,-577.51 122.72,-577.51 122.72,-513.51 247.72,-513.51 247.72,-571.51 241.72,-577.51"/>
<polyline fill="none" stroke="black" points="241.72,-577.51 241.72,-571.51 "/>
<polyline fill="none" stroke="black" points="247.72,-571.51 241.72,-571.51 "/>
<text text-anchor="middle" x="185.22" y="-565.51" font-family="Helvetica,sans-Serif" font-size="10.00">DataSourceRegistry</text>
<text text-anchor="middle" x="185.22" y="-542.51" font-family="Helvetica,sans-Serif" font-size="10.00">[DataSource] attribute</text>
<text text-anchor="middle" x="185.22" y="-531.51" font-family="Helvetica,sans-Serif" font-size="10.00">Automatic discovery</text>
<text text-anchor="middle" x="185.22" y="-520.51" font-family="Helvetica,sans-Serif" font-size="10.00">DI registration</text>
</g>
<!-- CAPABILITIES&#45;&gt;REGISTRY -->
<g id="edge42" class="edge">
<title>CAPABILITIES&#45;&gt;REGISTRY</title>
<path fill="none" stroke="#4a5568" stroke-dasharray="5,2" d="M119.24,-681.03C132.79,-653.39 151.36,-615.53 165.35,-587.02"/>
<polygon fill="#4a5568" stroke="#4a5568" points="168.64,-588.25 169.9,-577.73 162.35,-585.17 168.64,-588.25"/>
</g>
<!-- REGISTRY&#45;&gt;I_DATASOURCE -->
<g id="edge43" class="edge">
<title>REGISTRY&#45;&gt;I_DATASOURCE</title>
<path fill="none" stroke="#4a5568" stroke-dasharray="5,2" d="M190.72,-513.42C194.88,-489.93 200.69,-457.09 205.61,-429.29"/>
<polygon fill="#4a5568" stroke="#4a5568" points="209.08,-429.77 207.38,-419.31 202.19,-428.55 209.08,-429.77"/>
</g>
<!-- CONN_MGR -->
<g id="node24" class="node">
<title>CONN_MGR</title>
<path fill="#fecaca" stroke="black" d="M1553.72,-411.51C1553.72,-411.51 1406.72,-411.51 1406.72,-411.51 1400.72,-411.51 1394.72,-405.51 1394.72,-399.51 1394.72,-399.51 1394.72,-348.51 1394.72,-348.51 1394.72,-342.51 1400.72,-336.51 1406.72,-336.51 1406.72,-336.51 1553.72,-336.51 1553.72,-336.51 1559.72,-336.51 1565.72,-342.51 1565.72,-348.51 1565.72,-348.51 1565.72,-399.51 1565.72,-399.51 1565.72,-405.51 1559.72,-411.51 1553.72,-411.51"/>
<text text-anchor="middle" x="1480.22" y="-399.51" font-family="Helvetica,sans-Serif" font-size="10.00">EnhancedIBConnectionManager</text>
<text text-anchor="middle" x="1480.22" y="-376.51" font-family="Helvetica,sans-Serif" font-size="10.00">Automatic reconnection</text>
<text text-anchor="middle" x="1480.22" y="-365.51" font-family="Helvetica,sans-Serif" font-size="10.00">Heartbeat monitoring</text>
<text text-anchor="middle" x="1480.22" y="-354.51" font-family="Helvetica,sans-Serif" font-size="10.00">State machine</text>
<text text-anchor="middle" x="1480.22" y="-343.51" font-family="Helvetica,sans-Serif" font-size="10.00">Graceful degradation</text>
</g>
<!-- IB_CLIENT&#45;&gt;CONN_MGR -->
<g id="edge28" class="edge">
<title>IB_CLIENT&#45;&gt;CONN_MGR</title>
<path fill="none" stroke="#c53030" d="M1486.97,-502.17C1485.67,-477.7 1484.03,-446.86 1482.69,-421.69"/>
<polygon fill="#c53030" stroke="#c53030" points="1486.19,-421.44 1482.16,-411.64 1479.2,-421.81 1486.19,-421.44"/>
</g>
<!-- WS_RESILIENCE -->
<g id="node25" class="node">
<title>WS_RESILIENCE</title>
<path fill="#fecaca" stroke="black" d="M1364.72,-411.51C1364.72,-411.51 1239.72,-411.51 1239.72,-411.51 1233.72,-411.51 1227.72,-405.51 1227.72,-399.51 1227.72,-399.51 1227.72,-348.51 1227.72,-348.51 1227.72,-342.51 1233.72,-336.51 1239.72,-336.51 1239.72,-336.51 1364.72,-336.51 1364.72,-336.51 1370.72,-336.51 1376.72,-342.51 1376.72,-348.51 1376.72,-348.51 1376.72,-399.51 1376.72,-399.51 1376.72,-405.51 1370.72,-411.51 1364.72,-411.51"/>
<text text-anchor="middle" x="1302.22" y="-399.51" font-family="Helvetica,sans-Serif" font-size="10.00">WebSocketResiliencePolicy</text>
<text text-anchor="middle" x="1302.22" y="-376.51" font-family="Helvetica,sans-Serif" font-size="10.00">Polly retry policies</text>
<text text-anchor="middle" x="1302.22" y="-365.51" font-family="Helvetica,sans-Serif" font-size="10.00">Circuit breaker</text>
<text text-anchor="middle" x="1302.22" y="-354.51" font-family="Helvetica,sans-Serif" font-size="10.00">Exponential backoff</text>
<text text-anchor="middle" x="1302.22" y="-343.51" font-family="Helvetica,sans-Serif" font-size="10.00">Jitter randomization</text>
</g>
<!-- ALP_CLIENT&#45;&gt;WS_RESILIENCE -->
<g id="edge29" class="edge">
<title>ALP_CLIENT&#45;&gt;WS_RESILIENCE</title>
<path fill="none" stroke="#c53030" d="M1327.27,-507.73C1322.51,-482.52 1316.16,-448.87 1311.04,-421.76"/>
<polygon fill="#c53030" stroke="#c53030" points="1314.44,-420.89 1309.15,-411.72 1307.56,-422.19 1314.44,-420.89"/>
</g>
<!-- NYSE_CLIENT&#45;&gt;WS_RESILIENCE -->
<g id="edge30" class="edge">
<title>NYSE_CLIENT&#45;&gt;WS_RESILIENCE</title>
<path fill="none" stroke="#c53030" d="M1073.1,-507.93C1083.47,-499.7 1095.18,-491.83 1107.22,-486.51 1152.06,-466.68 1173.04,-492.74 1216.22,-469.51 1238.07,-457.75 1257.25,-438.23 1271.91,-419.96"/>
<polygon fill="#c53030" stroke="#c53030" points="1274.96,-421.74 1278.33,-411.7 1269.43,-417.45 1274.96,-421.74"/>
</g>
<!-- COMPOSITE -->
<g id="node23" class="node">
<title>COMPOSITE</title>
<path fill="#fef3c7" stroke="black" d="M1328.72,-263.75C1328.72,-263.75 1173.72,-263.75 1173.72,-263.75 1167.72,-263.75 1161.72,-257.75 1161.72,-251.75 1161.72,-251.75 1161.72,-178.75 1161.72,-178.75 1161.72,-172.75 1167.72,-166.75 1173.72,-166.75 1173.72,-166.75 1328.72,-166.75 1328.72,-166.75 1334.72,-166.75 1340.72,-172.75 1340.72,-178.75 1340.72,-178.75 1340.72,-251.75 1340.72,-251.75 1340.72,-257.75 1334.72,-263.75 1328.72,-263.75"/>
<text text-anchor="middle" x="1251.22" y="-251.75" font-family="Helvetica,sans-Serif" font-size="10.00">CompositeHistoricalDataProvider</text>
<text text-anchor="middle" x="1251.22" y="-240.75" font-family="Helvetica,sans-Serif" font-size="10.00">[Orchestrator]</text>
<text text-anchor="middle" x="1251.22" y="-217.75" font-family="Helvetica,sans-Serif" font-size="10.00">Automatic provider failover</text>
<text text-anchor="middle" x="1251.22" y="-206.75" font-family="Helvetica,sans-Serif" font-size="10.00">Rate&#45;limit rotation</text>
<text text-anchor="middle" x="1251.22" y="-195.75" font-family="Helvetica,sans-Serif" font-size="10.00">Priority&#45;based selection</text>
<text text-anchor="middle" x="1251.22" y="-184.75" font-family="Helvetica,sans-Serif" font-size="10.00">Health monitoring</text>
<text text-anchor="middle" x="1251.22" y="-173.75" font-family="Helvetica,sans-Serif" font-size="10.00">Circuit breaker per provider</text>
</g>
<!-- COMPOSITE&#45;&gt;ALPACA_HIST -->
<g id="edge18" class="edge">
<title>COMPOSITE&#45;&gt;ALPACA_HIST</title>
<path fill="none" stroke="#4a5568" d="M1161.64,-212.63C1059.13,-207.67 888.38,-189.8 756.22,-128 744.09,-122.33 732.32,-114.28 721.74,-105.77"/>
<polygon fill="#4a5568" stroke="#4a5568" points="723.82,-102.94 713.91,-99.19 719.32,-108.3 723.82,-102.94"/>
<text text-anchor="middle" x="814.22" y="-138.8" font-family="Helvetica,sans-Serif" font-size="9.00">priority 5</text>
</g>
<!-- COMPOSITE&#45;&gt;IB_HIST -->
<g id="edge26" class="edge">
<title>COMPOSITE&#45;&gt;IB_HIST</title>
<path fill="none" stroke="#4a5568" d="M1161.61,-206.65C1084.61,-197.04 972.64,-175.56 886.22,-128 875.75,-122.24 865.78,-114.4 856.87,-106.14"/>
<polygon fill="#4a5568" stroke="#4a5568" points="859.27,-103.59 849.66,-99.14 854.4,-108.61 859.27,-103.59"/>
<text text-anchor="middle" x="943.22" y="-138.8" font-family="Helvetica,sans-Serif" font-size="9.00">priority 5</text>
</g>
<!-- COMPOSITE&#45;&gt;YAHOO_HIST -->
<g id="edge19" class="edge">
<title>COMPOSITE&#45;&gt;YAHOO_HIST</title>
<path fill="none" stroke="#4a5568" d="M1228.01,-166.66C1218.94,-148.06 1208.59,-126.83 1199.6,-108.41"/>
<polygon fill="#4a5568" stroke="#4a5568" points="1202.71,-106.79 1195.18,-99.34 1196.42,-109.86 1202.71,-106.79"/>
<text text-anchor="middle" x="1240.22" y="-138.8" font-family="Helvetica,sans-Serif" font-size="9.00">priority 10</text>
</g>
<!-- COMPOSITE&#45;&gt;STOOQ_HIST -->
<g id="edge21" class="edge">
<title>COMPOSITE&#45;&gt;STOOQ_HIST</title>
<path fill="none" stroke="#4a5568" d="M1161.5,-167.75C1142.09,-155.94 1122.29,-142.46 1105.22,-128 1097.9,-121.8 1090.77,-114.55 1084.2,-107.18"/>
<polygon fill="#4a5568" stroke="#4a5568" points="1086.49,-104.48 1077.31,-99.19 1081.18,-109.05 1086.49,-104.48"/>
</g>
<!-- COMPOSITE&#45;&gt;POLYGON_HIST -->
<g id="edge20" class="edge">
<title>COMPOSITE&#45;&gt;POLYGON_HIST</title>
<path fill="none" stroke="#4a5568" d="M1161.55,-196.83C1109.96,-183.78 1045.75,-162.16 996.22,-128 987.85,-122.23 980.06,-114.81 973.16,-107.05"/>
<polygon fill="#4a5568" stroke="#4a5568" points="975.69,-104.61 966.56,-99.22 970.34,-109.13 975.69,-104.61"/>
</g>
<!-- COMPOSITE&#45;&gt;NASDAQ_HIST -->
<g id="edge23" class="edge">
<title>COMPOSITE&#45;&gt;NASDAQ_HIST</title>
<path fill="none" stroke="#4a5568" d="M1341.08,-204.59C1412.76,-193.89 1513.78,-171.97 1592.22,-128 1604.78,-120.96 1616.66,-110.96 1626.84,-100.88"/>
<polygon fill="#4a5568" stroke="#4a5568" points="1629.47,-103.19 1633.93,-93.58 1624.45,-98.31 1629.47,-103.19"/>
</g>
<!-- COMPOSITE&#45;&gt;TIINGO_HIST -->
<g id="edge22" class="edge">
<title>COMPOSITE&#45;&gt;TIINGO_HIST</title>
<path fill="none" stroke="#4a5568" d="M1340.95,-213.07C1440.23,-208.42 1602.51,-190.76 1726.22,-128 1739.37,-121.33 1751.75,-111.33 1762.29,-101.15"/>
<polygon fill="#4a5568" stroke="#4a5568" points="1765.07,-103.32 1769.62,-93.75 1760.1,-98.39 1765.07,-103.32"/>
</g>
<!-- COMPOSITE&#45;&gt;FINNHUB_HIST -->
<g id="edge24" class="edge">
<title>COMPOSITE&#45;&gt;FINNHUB_HIST</title>
<path fill="none" stroke="#4a5568" d="M1270.04,-166.66C1278.09,-146.28 1287.4,-122.73 1295.13,-103.18"/>
<polygon fill="#4a5568" stroke="#4a5568" points="1298.48,-104.24 1298.9,-93.65 1291.97,-101.67 1298.48,-104.24"/>
</g>
<!-- COMPOSITE&#45;&gt;AV_HIST -->
<g id="edge25" class="edge">
<title>COMPOSITE&#45;&gt;AV_HIST</title>
<path fill="none" stroke="#4a5568" d="M1319.33,-166.74C1335.22,-154.69 1351.72,-141.36 1366.22,-128 1375.12,-119.8 1384.09,-110.35 1392.24,-101.24"/>
<polygon fill="#4a5568" stroke="#4a5568" points="1394.9,-103.51 1398.87,-93.69 1389.64,-98.89 1394.9,-103.51"/>
</g>
<!-- COMPOSITE&#45;&gt;SS_HIST -->
<g id="edge27" class="edge">
<title>COMPOSITE&#45;&gt;SS_HIST</title>
<path fill="none" stroke="#4a5568" d="M1340.88,-192.52C1385.98,-178.78 1439.9,-157.88 1482.22,-128 1492.45,-120.77 1501.91,-111.19 1510,-101.6"/>
<polygon fill="#4a5568" stroke="#4a5568" points="1512.91,-103.57 1516.46,-93.59 1507.46,-99.18 1512.91,-103.57"/>
</g>
<!-- CIRCUIT -->
<g id="node26" class="node">
<title>CIRCUIT</title>
<path fill="#fecaca" stroke="black" d="M1191.72,-406.01C1191.72,-406.01 1088.72,-406.01 1088.72,-406.01 1082.72,-406.01 1076.72,-400.01 1076.72,-394.01 1076.72,-394.01 1076.72,-354.01 1076.72,-354.01 1076.72,-348.01 1082.72,-342.01 1088.72,-342.01 1088.72,-342.01 1191.72,-342.01 1191.72,-342.01 1197.72,-342.01 1203.72,-348.01 1203.72,-354.01 1203.72,-354.01 1203.72,-394.01 1203.72,-394.01 1203.72,-400.01 1197.72,-406.01 1191.72,-406.01"/>
<text text-anchor="middle" x="1140.22" y="-394.01" font-family="Helvetica,sans-Serif" font-size="10.00">CircuitBreaker</text>
<text text-anchor="middle" x="1140.22" y="-371.01" font-family="Helvetica,sans-Serif" font-size="10.00">Open/Closed/HalfOpen</text>
<text text-anchor="middle" x="1140.22" y="-360.01" font-family="Helvetica,sans-Serif" font-size="10.00">Failure counting</text>
<text text-anchor="middle" x="1140.22" y="-349.01" font-family="Helvetica,sans-Serif" font-size="10.00">Auto recovery</text>
</g>
<!-- CIRCUIT&#45;&gt;COMPOSITE -->
<g id="edge36" class="edge">
<title>CIRCUIT&#45;&gt;COMPOSITE</title>
<path fill="none" stroke="#c53030" stroke-dasharray="5,2" d="M1162.41,-341.66C1176.44,-321.85 1194.98,-295.67 1211.49,-272.36"/>
<polygon fill="#c53030" stroke="#c53030" points="1214.54,-274.1 1217.46,-263.92 1208.83,-270.06 1214.54,-274.1"/>
</g>
<!-- RATE_LIMIT -->
<g id="node27" class="node">
<title>RATE_LIMIT</title>
<path fill="#fecaca" stroke="black" d="M1046.72,-406.01C1046.72,-406.01 963.72,-406.01 963.72,-406.01 957.72,-406.01 951.72,-400.01 951.72,-394.01 951.72,-394.01 951.72,-354.01 951.72,-354.01 951.72,-348.01 957.72,-342.01 963.72,-342.01 963.72,-342.01 1046.72,-342.01 1046.72,-342.01 1052.72,-342.01 1058.72,-348.01 1058.72,-354.01 1058.72,-354.01 1058.72,-394.01 1058.72,-394.01 1058.72,-400.01 1052.72,-406.01 1046.72,-406.01"/>
<text text-anchor="middle" x="1005.22" y="-394.01" font-family="Helvetica,sans-Serif" font-size="10.00">RateLimiter</text>
<text text-anchor="middle" x="1005.22" y="-371.01" font-family="Helvetica,sans-Serif" font-size="10.00">Per&#45;provider limits</text>
<text text-anchor="middle" x="1005.22" y="-360.01" font-family="Helvetica,sans-Serif" font-size="10.00">Token bucket</text>
<text text-anchor="middle" x="1005.22" y="-349.01" font-family="Helvetica,sans-Serif" font-size="10.00">Request queuing</text>
</g>
<!-- RATE_LIMIT&#45;&gt;COMPOSITE -->
<g id="edge37" class="edge">
<title>RATE_LIMIT&#45;&gt;COMPOSITE</title>
<path fill="none" stroke="#c53030" stroke-dasharray="5,2" d="M1040.33,-341.89C1049.19,-334.56 1058.86,-327 1068.22,-320.51 1094.65,-302.18 1124.53,-284.13 1152.36,-268.34"/>
<polygon fill="#c53030" stroke="#c53030" points="1154.33,-271.26 1161.32,-263.3 1150.89,-265.16 1154.33,-271.26"/>
</g>
<!-- FIGI -->
<g id="node28" class="node">
<title>FIGI</title>
<path fill="#9ae6b4" stroke="black" d="M1843.72,-913.02C1843.72,-913.02 1718.72,-913.02 1718.72,-913.02 1712.72,-913.02 1706.72,-907.02 1706.72,-901.02 1706.72,-901.02 1706.72,-861.02 1706.72,-861.02 1706.72,-855.02 1712.72,-849.02 1718.72,-849.02 1718.72,-849.02 1843.72,-849.02 1843.72,-849.02 1849.72,-849.02 1855.72,-855.02 1855.72,-861.02 1855.72,-861.02 1855.72,-901.02 1855.72,-901.02 1855.72,-907.02 1849.72,-913.02 1843.72,-913.02"/>
<text text-anchor="middle" x="1781.22" y="-901.02" font-family="Helvetica,sans-Serif" font-size="10.00">OpenFIGI Resolver</text>
<text text-anchor="middle" x="1781.22" y="-878.02" font-family="Helvetica,sans-Serif" font-size="10.00">Global symbol mapping</text>
<text text-anchor="middle" x="1781.22" y="-867.02" font-family="Helvetica,sans-Serif" font-size="10.00">FIGI to ticker</text>
<text text-anchor="middle" x="1781.22" y="-856.02" font-family="Helvetica,sans-Serif" font-size="10.00">Cross&#45;market identification</text>
</g>
<!-- MAPPER -->
<g id="node29" class="node">
<title>MAPPER</title>
<path fill="#9ae6b4" stroke="black" d="M1695.72,-750.76C1695.72,-750.76 1580.72,-750.76 1580.72,-750.76 1574.72,-750.76 1568.72,-744.76 1568.72,-738.76 1568.72,-738.76 1568.72,-698.76 1568.72,-698.76 1568.72,-692.76 1574.72,-686.76 1580.72,-686.76 1580.72,-686.76 1695.72,-686.76 1695.72,-686.76 1701.72,-686.76 1707.72,-692.76 1707.72,-698.76 1707.72,-698.76 1707.72,-738.76 1707.72,-738.76 1707.72,-744.76 1701.72,-750.76 1695.72,-750.76"/>
<text text-anchor="middle" x="1638.22" y="-738.76" font-family="Helvetica,sans-Serif" font-size="10.00">SymbolMapper</text>
<text text-anchor="middle" x="1638.22" y="-715.76" font-family="Helvetica,sans-Serif" font-size="10.00">Provider&#45;specific formats</text>
<text text-anchor="middle" x="1638.22" y="-704.76" font-family="Helvetica,sans-Serif" font-size="10.00">Exchange suffixes</text>
<text text-anchor="middle" x="1638.22" y="-693.76" font-family="Helvetica,sans-Serif" font-size="10.00">CUSIP/SEDOL/ISIN</text>
</g>
<!-- FIGI&#45;&gt;MAPPER -->
<g id="edge38" class="edge">
<title>FIGI&#45;&gt;MAPPER</title>
<path fill="none" stroke="#38a169" d="M1753.31,-848.74C1730.27,-822.93 1697.48,-786.18 1672.79,-758.51"/>
<polygon fill="#38a169" stroke="#38a169" points="1675.33,-756.1 1666.06,-750.96 1670.1,-760.76 1675.33,-756.1"/>
</g>
<!-- MAPPER&#45;&gt;IB_CLIENT -->
<g id="edge40" class="edge">
<title>MAPPER&#45;&gt;IB_CLIENT</title>
<path fill="none" stroke="#38a169" d="M1611.23,-686.75C1589.29,-661.53 1557.92,-625.47 1532.48,-596.23"/>
<polygon fill="#38a169" stroke="#38a169" points="1535.01,-593.81 1525.81,-588.57 1529.73,-598.41 1535.01,-593.81"/>
</g>
<!-- MAPPER&#45;&gt;COMPOSITE -->
<g id="edge39" class="edge">
<title>MAPPER&#45;&gt;COMPOSITE</title>
<path fill="none" stroke="#38a169" d="M1644.14,-686.72C1655.92,-616.07 1675.47,-440.17 1605.22,-320.51 1579.14,-276.09 1446.14,-246.34 1350.84,-230.35"/>
<polygon fill="#38a169" stroke="#38a169" points="1351.3,-226.88 1340.87,-228.71 1350.16,-233.79 1351.3,-226.88"/>
</g>
<!-- CONTRACT -->
<g id="node30" class="node">
<title>CONTRACT</title>
<path fill="#9ae6b4" stroke="black" d="M1676.22,-913.02C1676.22,-913.02 1554.22,-913.02 1554.22,-913.02 1548.22,-913.02 1542.22,-907.02 1542.22,-901.02 1542.22,-901.02 1542.22,-861.02 1542.22,-861.02 1542.22,-855.02 1548.22,-849.02 1554.22,-849.02 1554.22,-849.02 1676.22,-849.02 1676.22,-849.02 1682.22,-849.02 1688.22,-855.02 1688.22,-861.02 1688.22,-861.02 1688.22,-901.02 1688.22,-901.02 1688.22,-907.02 1682.22,-913.02 1676.22,-913.02"/>
<text text-anchor="middle" x="1615.22" y="-901.02" font-family="Helvetica,sans-Serif" font-size="10.00">ContractFactory</text>
<text text-anchor="middle" x="1615.22" y="-878.02" font-family="Helvetica,sans-Serif" font-size="10.00">IB contract resolution</text>
<text text-anchor="middle" x="1615.22" y="-867.02" font-family="Helvetica,sans-Serif" font-size="10.00">Symbol to contract</text>
<text text-anchor="middle" x="1615.22" y="-856.02" font-family="Helvetica,sans-Serif" font-size="10.00">Multiple exchange support</text>
</g>
<!-- CONTRACT&#45;&gt;IB_CLIENT -->
<g id="edge41" class="edge">
<title>CONTRACT&#45;&gt;IB_CLIENT</title>
<path fill="none" stroke="#38a169" d="M1542.04,-872.45C1509.55,-865.02 1474.2,-850.46 1454.22,-822.02 1407.51,-755.55 1437.44,-657.23 1463.37,-597.78"/>
<polygon fill="#38a169" stroke="#38a169" points="1466.59,-599.14 1467.48,-588.59 1460.2,-596.29 1466.59,-599.14"/>
</g>
<!-- FAILOVER -->
<g id="node31" class="node">
<title>FAILOVER</title>
<path fill="lightgrey" stroke="black" d="M1513.72,-736.76C1513.72,-736.76 1474.72,-736.76 1474.72,-736.76 1468.72,-736.76 1462.72,-730.76 1462.72,-724.76 1462.72,-724.76 1462.72,-712.76 1462.72,-712.76 1462.72,-706.76 1468.72,-700.76 1474.72,-700.76 1474.72,-700.76 1513.72,-700.76 1513.72,-700.76 1519.72,-700.76 1525.72,-706.76 1525.72,-712.76 1525.72,-712.76 1525.72,-724.76 1525.72,-724.76 1525.72,-730.76 1519.72,-736.76 1513.72,-736.76"/>
<text text-anchor="middle" x="1494.22" y="-716.26" font-family="Helvetica,sans-Serif" font-size="10.00">FAILOVER</text>
</g>
<!-- FAILOVER&#45;&gt;IB_CLIENT -->
<g id="edge32" class="edge">
<title>FAILOVER&#45;&gt;IB_CLIENT</title>
<path fill="none" stroke="#c53030" stroke-dasharray="5,2" d="M1493.72,-700.72C1493.03,-677.16 1491.76,-633.6 1490.74,-598.77"/>
<polygon fill="#c53030" stroke="#c53030" points="1494.24,-598.63 1490.45,-588.74 1487.24,-598.84 1494.24,-598.63"/>
</g>
<!-- FAILOVER&#45;&gt;ALP_CLIENT -->
<g id="edge33" class="edge">
<title>FAILOVER&#45;&gt;ALP_CLIENT</title>
<path fill="none" stroke="#c53030" stroke-dasharray="5,2" d="M1471.98,-700.75C1454.61,-686.98 1430.29,-666.63 1411.22,-646.51 1395.15,-629.57 1379.12,-609.4 1365.88,-591.63"/>
<polygon fill="#c53030" stroke="#c53030" points="1368.36,-589.1 1359.61,-583.13 1362.72,-593.25 1368.36,-589.1"/>
</g>
<!-- FAILOVER&#45;&gt;COMPOSITE -->
<g id="edge31" class="edge">
<title>FAILOVER&#45;&gt;COMPOSITE</title>
<path fill="none" stroke="#c53030" d="M1503.01,-700.49C1509.36,-689.36 1518.81,-675.22 1530.22,-665.51 1545.2,-652.75 1559.33,-662.9 1570.22,-646.51 1610.31,-586.14 1620.97,-379.02 1578.22,-320.51 1550.92,-283.16 1436.45,-252.77 1350.59,-234.63"/>
<polygon fill="#c53030" stroke="#c53030" points="1351.3,-231.2 1340.79,-232.59 1349.87,-238.05 1351.3,-231.2"/>
</g>
<!-- MULTI_CONN -->
<g id="node32" class="node">
<title>MULTI_CONN</title>
<path fill="lightgrey" stroke="black" d="M1377.72,-736.76C1377.72,-736.76 1320.72,-736.76 1320.72,-736.76 1314.72,-736.76 1308.72,-730.76 1308.72,-724.76 1308.72,-724.76 1308.72,-712.76 1308.72,-712.76 1308.72,-706.76 1314.72,-700.76 1320.72,-700.76 1320.72,-700.76 1377.72,-700.76 1377.72,-700.76 1383.72,-700.76 1389.72,-706.76 1389.72,-712.76 1389.72,-712.76 1389.72,-724.76 1389.72,-724.76 1389.72,-730.76 1383.72,-736.76 1377.72,-736.76"/>
<text text-anchor="middle" x="1349.22" y="-716.26" font-family="Helvetica,sans-Serif" font-size="10.00">MULTI_CONN</text>
</g>
<!-- MULTI_CONN&#45;&gt;IB_CLIENT -->
<g id="edge34" class="edge">
<title>MULTI_CONN&#45;&gt;IB_CLIENT</title>
<path fill="none" stroke="#c53030" d="M1364.51,-700.71C1377.22,-686.41 1395.68,-665.37 1411.22,-646.51 1424.33,-630.59 1438.29,-612.94 1450.72,-596.94"/>
<polygon fill="#c53030" stroke="#c53030" points="1453.72,-598.8 1457.07,-588.75 1448.18,-594.51 1453.72,-598.8"/>
</g>
<!-- MULTI_CONN&#45;&gt;ALP_CLIENT -->
<g id="edge35" class="edge">
<title>MULTI_CONN&#45;&gt;ALP_CLIENT</title>
<path fill="none" stroke="#c53030" d="M1347.72,-700.72C1345.55,-675.92 1341.44,-628.99 1338.32,-593.38"/>
<polygon fill="#c53030" stroke="#c53030" points="1341.79,-592.86 1337.43,-583.2 1334.82,-593.47 1341.79,-592.86"/>
</g>
<!-- L1 -->
<g id="node33" class="node">
<title>L1</title>
<path fill="#bfdbfe" stroke="black" d="M2531.22,-899.02C2531.22,-899.02 2433.22,-899.02 2433.22,-899.02 2427.22,-899.02 2421.22,-893.02 2421.22,-887.02 2421.22,-887.02 2421.22,-875.02 2421.22,-875.02 2421.22,-869.02 2427.22,-863.02 2433.22,-863.02 2433.22,-863.02 2531.22,-863.02 2531.22,-863.02 2537.22,-863.02 2543.22,-869.02 2543.22,-875.02 2543.22,-875.02 2543.22,-887.02 2543.22,-887.02 2543.22,-893.02 2537.22,-899.02 2531.22,-899.02"/>
<text text-anchor="middle" x="2482.22" y="-878.52" font-family="Helvetica,sans-Serif" font-size="10.00">Production Streaming</text>
</g>
<!-- L2 -->
<g id="node34" class="node">
<title>L2</title>
<path fill="#a7f3d0" stroke="black" d="M2391.22,-899.02C2391.22,-899.02 2321.22,-899.02 2321.22,-899.02 2315.22,-899.02 2309.22,-893.02 2309.22,-887.02 2309.22,-887.02 2309.22,-875.02 2309.22,-875.02 2309.22,-869.02 2315.22,-863.02 2321.22,-863.02 2321.22,-863.02 2391.22,-863.02 2391.22,-863.02 2397.22,-863.02 2403.22,-869.02 2403.22,-875.02 2403.22,-875.02 2403.22,-887.02 2403.22,-887.02 2403.22,-893.02 2397.22,-899.02 2391.22,-899.02"/>
<text text-anchor="middle" x="2356.22" y="-878.52" font-family="Helvetica,sans-Serif" font-size="10.00">Tier 1 Historical</text>
</g>
<!-- L3 -->
<g id="node35" class="node">
<title>L3</title>
<path fill="#6ee7b7" stroke="black" d="M2279.22,-899.02C2279.22,-899.02 2209.22,-899.02 2209.22,-899.02 2203.22,-899.02 2197.22,-893.02 2197.22,-887.02 2197.22,-887.02 2197.22,-875.02 2197.22,-875.02 2197.22,-869.02 2203.22,-863.02 2209.22,-863.02 2209.22,-863.02 2279.22,-863.02 2279.22,-863.02 2285.22,-863.02 2291.22,-869.02 2291.22,-875.02 2291.22,-875.02 2291.22,-887.02 2291.22,-887.02 2291.22,-893.02 2285.22,-899.02 2279.22,-899.02"/>
<text text-anchor="middle" x="2244.22" y="-878.52" font-family="Helvetica,sans-Serif" font-size="10.00">Tier 2 Historical</text>
</g>
<!-- L4 -->
<g id="node36" class="node">
<title>L4</title>
<path fill="#bbf7d0" stroke="black" d="M2167.22,-899.02C2167.22,-899.02 2097.22,-899.02 2097.22,-899.02 2091.22,-899.02 2085.22,-893.02 2085.22,-887.02 2085.22,-887.02 2085.22,-875.02 2085.22,-875.02 2085.22,-869.02 2091.22,-863.02 2097.22,-863.02 2097.22,-863.02 2167.22,-863.02 2167.22,-863.02 2173.22,-863.02 2179.22,-869.02 2179.22,-875.02 2179.22,-875.02 2179.22,-887.02 2179.22,-887.02 2179.22,-893.02 2173.22,-899.02 2167.22,-899.02"/>
<text text-anchor="middle" x="2132.22" y="-878.52" font-family="Helvetica,sans-Serif" font-size="10.00">Tier 3 Historical</text>
</g>
<!-- L5 -->
<g id="node37" class="node">
<title>L5</title>
<path fill="#fef3c7" stroke="black" d="M2054.72,-899.02C2054.72,-899.02 2001.72,-899.02 2001.72,-899.02 1995.72,-899.02 1989.72,-893.02 1989.72,-887.02 1989.72,-887.02 1989.72,-875.02 1989.72,-875.02 1989.72,-869.02 1995.72,-863.02 2001.72,-863.02 2001.72,-863.02 2054.72,-863.02 2054.72,-863.02 2060.72,-863.02 2066.72,-869.02 2066.72,-875.02 2066.72,-875.02 2066.72,-887.02 2066.72,-887.02 2066.72,-893.02 2060.72,-899.02 2054.72,-899.02"/>
<text text-anchor="middle" x="2028.22" y="-878.52" font-family="Helvetica,sans-Serif" font-size="10.00">Orchestrator</text>
</g>
<!-- L6 -->
<g id="node38" class="node">
<title>L6</title>
<path fill="#fecaca" stroke="black" d="M1959.22,-899.02C1959.22,-899.02 1891.22,-899.02 1891.22,-899.02 1885.22,-899.02 1879.22,-893.02 1879.22,-887.02 1879.22,-887.02 1879.22,-875.02 1879.22,-875.02 1879.22,-869.02 1885.22,-863.02 1891.22,-863.02 1891.22,-863.02 1959.22,-863.02 1959.22,-863.02 1965.22,-863.02 1971.22,-869.02 1971.22,-875.02 1971.22,-875.02 1971.22,-887.02 1971.22,-887.02 1971.22,-893.02 1965.22,-899.02 1959.22,-899.02"/>
<text text-anchor="middle" x="1925.22" y="-878.52" font-family="Helvetica,sans-Serif" font-size="10.00">Stub/Resilience</text>
</g>
</g>
</svg>
