<?xml version="1.0" encoding="UTF-8" standalone="no"?>
<!DOCTYPE svg PUBLIC "-//W3C//DTD SVG 1.1//EN"
 "http://www.w3.org/Graphics/SVG/1.1/DTD/svg11.dtd">
<!-- Generated by graphviz version 14.1.3 (20260303.0454)
 -->
<!-- Title: RuntimeHosts Pages: 1 -->
<svg width="2217pt" height="642pt"
 viewBox="0.00 0.00 2217.00 642.00" xmlns="http://www.w3.org/2000/svg" xmlns:xlink="http://www.w3.org/1999/xlink">
<g id="graph0" class="graph" transform="scale(1 1) rotate(0) translate(36 605.8)">
<title>RuntimeHosts</title>
<polygon fill="white" stroke="none" points="-36,36 -36,-605.8 2181.2,-605.8 2181.2,36 -36,36"/>
<text xml:space="preserve" text-anchor="middle" x="1072.6" y="-555" font-family="Helvetica,sans-Serif" font-size="12.00">Meridian &#45; Runtime Hosts and Startup Modes</text>
<text xml:space="preserve" text-anchor="middle" x="1072.6" y="-540.6" font-family="Helvetica,sans-Serif" font-size="12.00">Entry points, host surfaces, and shared startup orchestration | v1.8.x</text>
<g id="clust1" class="cluster">
<title>cluster_clients</title>
<path fill="#f7fafc" stroke="#4a5568" d="M20,-17C20,-17 197.33,-17 197.33,-17 203.33,-17 209.33,-23 209.33,-29 209.33,-29 209.33,-215 209.33,-215 209.33,-221 203.33,-227 197.33,-227 197.33,-227 20,-227 20,-227 14,-227 8,-221 8,-215 8,-215 8,-29 8,-29 8,-23 14,-17 20,-17"/>
<text xml:space="preserve" text-anchor="middle" x="108.67" y="-212.2" font-family="Helvetica,sans-Serif" font-size="12.00">Clients</text>
</g>
<g id="clust2" class="cluster">
<title>cluster_entrypoints</title>
<path fill="#faf5ff" stroke="#805ad5" d="M329.38,-20C329.38,-20 465.77,-20 465.77,-20 471.77,-20 477.77,-26 477.77,-32 477.77,-32 477.77,-276 477.77,-276 477.77,-282 471.77,-288 465.77,-288 465.77,-288 329.38,-288 329.38,-288 323.38,-288 317.38,-282 317.38,-276 317.38,-276 317.38,-32 317.38,-32 317.38,-26 323.38,-20 329.38,-20"/>
<text xml:space="preserve" text-anchor="middle" x="397.57" y="-273.2" font-family="Helvetica,sans-Serif" font-size="12.00">Runnable Projects</text>
</g>
<g id="clust3" class="cluster">
<title>cluster_startup</title>
<path fill="#dbeafe" stroke="#2b6cb0" d="M510.77,-64C510.77,-64 1336.22,-64 1336.22,-64 1342.22,-64 1348.22,-70 1348.22,-76 1348.22,-76 1348.22,-290 1348.22,-290 1348.22,-296 1342.22,-302 1336.22,-302 1336.22,-302 510.77,-302 510.77,-302 504.77,-302 498.77,-296 498.77,-290 498.77,-290 498.77,-76 498.77,-76 498.77,-70 504.77,-64 510.77,-64"/>
<text xml:space="preserve" text-anchor="middle" x="923.49" y="-287.2" font-family="Helvetica,sans-Serif" font-size="12.00">Shared Startup Flow Used By src/Meridian</text>
</g>
<g id="clust4" class="cluster">
<title>cluster_shared_runtime</title>
<path fill="#f0fff4" stroke="#38a169" d="M1457.25,-77C1457.25,-77 2125.2,-77 2125.2,-77 2131.2,-77 2137.2,-83 2137.2,-89 2137.2,-89 2137.2,-310 2137.2,-310 2137.2,-316 2131.2,-322 2125.2,-322 2125.2,-322 1457.25,-322 1457.25,-322 1451.25,-322 1445.25,-316 1445.25,-310 1445.25,-310 1445.25,-89 1445.25,-89 1445.25,-83 1451.25,-77 1457.25,-77"/>
<text xml:space="preserve" text-anchor="middle" x="1791.23" y="-307.2" font-family="Helvetica,sans-Serif" font-size="12.00">Shared Runtime Services</text>
</g>
<g id="clust5" class="cluster">
<title>cluster_legend</title>
<path fill="#fafafa" stroke="#666666" d="M31.01,-235C31.01,-235 186.32,-235 186.32,-235 192.32,-235 198.32,-241 198.32,-247 198.32,-247 198.32,-513 198.32,-513 198.32,-519 192.32,-525 186.32,-525 186.32,-525 31.01,-525 31.01,-525 25.01,-525 19.01,-519 19.01,-513 19.01,-513 19.01,-247 19.01,-247 19.01,-241 25.01,-235 31.01,-235"/>
<text xml:space="preserve" text-anchor="middle" x="108.67" y="-510.2" font-family="Helvetica,sans-Serif" font-size="12.00">Legend</text>
</g>
<!-- OPERATOR -->
<g id="node1" class="node">
<title>OPERATOR</title>
<ellipse fill="#08427b" stroke="black" cx="108.67" cy="-174" rx="39.22" ry="22.63"/>
<text xml:space="preserve" text-anchor="middle" x="108.67" y="-177" font-family="Helvetica,sans-Serif" font-size="10.00" fill="white">Operator</text>
<text xml:space="preserve" text-anchor="middle" x="108.67" y="-165" font-family="Helvetica,sans-Serif" font-size="10.00" fill="white">[Person]</text>
</g>
<!-- MAIN_APP -->
<g id="node4" class="node">
<title>MAIN_APP</title>
<path fill="#438dd5" stroke="black" d="M439.15,-258C439.15,-258 356,-258 356,-258 350,-258 344,-252 344,-246 344,-246 344,-226 344,-226 344,-220 350,-214 356,-214 356,-214 439.15,-214 439.15,-214 445.15,-214 451.15,-220 451.15,-226 451.15,-226 451.15,-246 451.15,-246 451.15,-252 445.15,-258 439.15,-258"/>
<text xml:space="preserve" text-anchor="middle" x="397.57" y="-245" font-family="Helvetica,sans-Serif" font-size="10.00" fill="white">src/Meridian</text>
<text xml:space="preserve" text-anchor="middle" x="397.57" y="-233" font-family="Helvetica,sans-Serif" font-size="10.00" fill="white">CLI / composite host</text>
<text xml:space="preserve" text-anchor="middle" x="397.57" y="-221" font-family="Helvetica,sans-Serif" font-size="10.00" fill="white">Program.cs</text>
</g>
<!-- OPERATOR&#45;&gt;MAIN_APP -->
<g id="edge1" class="edge">
<title>OPERATOR&#45;&gt;MAIN_APP</title>
<path fill="none" stroke="#4a5568" d="M146,-181.85C192.86,-191.98 275.16,-209.76 332.6,-222.18"/>
<polygon fill="#4a5568" stroke="#4a5568" points="331.75,-225.57 342.26,-224.26 333.23,-218.73 331.75,-225.57"/>
<text xml:space="preserve" text-anchor="middle" x="263.36" y="-218.65" font-family="Helvetica,sans-Serif" font-size="9.00">CLI / make targets</text>
</g>
<!-- WPF_APP -->
<g id="node5" class="node">
<title>WPF_APP</title>
<path fill="#805ad5" stroke="black" d="M455.26,-196C455.26,-196 339.88,-196 339.88,-196 333.88,-196 327.88,-190 327.88,-184 327.88,-184 327.88,-164 327.88,-164 327.88,-158 333.88,-152 339.88,-152 339.88,-152 455.26,-152 455.26,-152 461.26,-152 467.26,-158 467.26,-164 467.26,-164 467.26,-184 467.26,-184 467.26,-190 461.26,-196 455.26,-196"/>
<text xml:space="preserve" text-anchor="middle" x="397.57" y="-183" font-family="Helvetica,sans-Serif" font-size="10.00" fill="white">src/Meridian.Wpf</text>
<text xml:space="preserve" text-anchor="middle" x="397.57" y="-171" font-family="Helvetica,sans-Serif" font-size="10.00" fill="white">Windows workstation shell</text>
<text xml:space="preserve" text-anchor="middle" x="397.57" y="-159" font-family="Helvetica,sans-Serif" font-size="10.00" fill="white">App.xaml.cs DI composition</text>
</g>
<!-- OPERATOR&#45;&gt;WPF_APP -->
<g id="edge2" class="edge">
<title>OPERATOR&#45;&gt;WPF_APP</title>
<path fill="none" stroke="#4a5568" d="M148.36,-174C191.13,-174 261.21,-174 316.02,-174"/>
<polygon fill="#4a5568" stroke="#4a5568" points="315.96,-177.5 325.96,-174 315.96,-170.5 315.96,-177.5"/>
<text xml:space="preserve" text-anchor="middle" x="263.36" y="-176.7" font-family="Helvetica,sans-Serif" font-size="9.00">Windows desktop app</text>
</g>
<!-- LOCAL_CLIENT -->
<g id="node2" class="node">
<title>LOCAL_CLIENT</title>
<ellipse fill="#08427b" stroke="black" cx="108.67" cy="-48" rx="91.08" ry="22.63"/>
<text xml:space="preserve" text-anchor="middle" x="108.67" y="-51" font-family="Helvetica,sans-Serif" font-size="10.00" fill="white">Local API Client</text>
<text xml:space="preserve" text-anchor="middle" x="108.67" y="-39" font-family="Helvetica,sans-Serif" font-size="10.00" fill="white">[WPF / Swagger / scripts]</text>
</g>
<!-- DASHBOARD_BRIDGE -->
<g id="node14" class="node">
<title>DASHBOARD_BRIDGE</title>
<path fill="#c4b5fd" stroke="black" d="M1578.42,-129C1578.42,-129 1470.81,-129 1470.81,-129 1464.81,-129 1458.81,-123 1458.81,-117 1458.81,-117 1458.81,-97 1458.81,-97 1458.81,-91 1464.81,-85 1470.81,-85 1470.81,-85 1578.42,-85 1578.42,-85 1584.42,-85 1590.42,-91 1590.42,-97 1590.42,-97 1590.42,-117 1590.42,-117 1590.42,-123 1584.42,-129 1578.42,-129"/>
<text xml:space="preserve" text-anchor="middle" x="1524.62" y="-116" font-family="Helvetica,sans-Serif" font-size="10.00">UiServer</text>
<text xml:space="preserve" text-anchor="middle" x="1524.62" y="-104" font-family="Helvetica,sans-Serif" font-size="10.00">Embedded ASP.NET host</text>
<text xml:space="preserve" text-anchor="middle" x="1524.62" y="-92" font-family="Helvetica,sans-Serif" font-size="10.00">localhost API + Swagger</text>
</g>
<!-- LOCAL_CLIENT&#45;&gt;DASHBOARD_BRIDGE -->
<g id="edge3" class="edge">
<title>LOCAL_CLIENT&#45;&gt;DASHBOARD_BRIDGE</title>
<path fill="none" stroke="#4a5568" d="M172.13,-31.41C229.91,-17.54 318.42,0 396.57,0 396.57,0 396.57,0 1261.37,0 1344.58,0 1432.37,-46.75 1482.33,-78.45"/>
<polygon fill="#4a5568" stroke="#4a5568" points="1480.23,-81.26 1490.53,-83.75 1484.03,-75.38 1480.23,-81.26"/>
<text xml:space="preserve" text-anchor="middle" x="737.04" y="-2.7" font-family="Helvetica,sans-Serif" font-size="9.00">localhost API / Swagger</text>
</g>
<!-- MCP_HOST -->
<g id="node3" class="node">
<title>MCP_HOST</title>
<ellipse fill="#08427b" stroke="black" cx="108.67" cy="-111" rx="92.67" ry="22.63"/>
<text xml:space="preserve" text-anchor="middle" x="108.67" y="-114" font-family="Helvetica,sans-Serif" font-size="10.00" fill="white">MCP Host</text>
<text xml:space="preserve" text-anchor="middle" x="108.67" y="-102" font-family="Helvetica,sans-Serif" font-size="10.00" fill="white">[Claude / Cursor / Copilot]</text>
</g>
<!-- MCP_REPO -->
<g id="node6" class="node">
<title>MCP_REPO</title>
<path fill="#2c7a7b" stroke="black" d="M457.77,-134C457.77,-134 337.38,-134 337.38,-134 331.38,-134 325.38,-128 325.38,-122 325.38,-122 325.38,-102 325.38,-102 325.38,-96 331.38,-90 337.38,-90 337.38,-90 457.77,-90 457.77,-90 463.77,-90 469.77,-96 469.77,-102 469.77,-102 469.77,-122 469.77,-122 469.77,-128 463.77,-134 457.77,-134"/>
<text xml:space="preserve" text-anchor="middle" x="397.57" y="-121" font-family="Helvetica,sans-Serif" font-size="10.00" fill="white">src/Meridian.Mcp</text>
<text xml:space="preserve" text-anchor="middle" x="397.57" y="-109" font-family="Helvetica,sans-Serif" font-size="10.00" fill="white">Repo&#45;navigation MCP server</text>
<text xml:space="preserve" text-anchor="middle" x="397.57" y="-97" font-family="Helvetica,sans-Serif" font-size="10.00" fill="white">stdio transport</text>
</g>
<!-- MCP_HOST&#45;&gt;MCP_REPO -->
<g id="edge4" class="edge">
<title>MCP_HOST&#45;&gt;MCP_REPO</title>
<path fill="none" stroke="#4a5568" d="M201.63,-111.32C237.72,-111.45 278.82,-111.59 313.94,-111.71"/>
<polygon fill="#4a5568" stroke="#4a5568" points="313.6,-115.21 323.61,-111.75 313.62,-108.21 313.6,-115.21"/>
<text xml:space="preserve" text-anchor="middle" x="263.36" y="-114.38" font-family="Helvetica,sans-Serif" font-size="9.00">repo tools</text>
</g>
<!-- MCP_MARKET -->
<g id="node7" class="node">
<title>MCP_MARKET</title>
<path fill="#2c7a7b" stroke="black" d="M448.03,-72C448.03,-72 347.12,-72 347.12,-72 341.12,-72 335.12,-66 335.12,-60 335.12,-60 335.12,-40 335.12,-40 335.12,-34 341.12,-28 347.12,-28 347.12,-28 448.03,-28 448.03,-28 454.03,-28 460.03,-34 460.03,-40 460.03,-40 460.03,-60 460.03,-60 460.03,-66 454.03,-72 448.03,-72"/>
<text xml:space="preserve" text-anchor="middle" x="397.57" y="-59" font-family="Helvetica,sans-Serif" font-size="10.00" fill="white">src/Meridian.McpServer</text>
<text xml:space="preserve" text-anchor="middle" x="397.57" y="-47" font-family="Helvetica,sans-Serif" font-size="10.00" fill="white">Market&#45;data MCP server</text>
<text xml:space="preserve" text-anchor="middle" x="397.57" y="-35" font-family="Helvetica,sans-Serif" font-size="10.00" fill="white">stdio transport</text>
</g>
<!-- MCP_HOST&#45;&gt;MCP_MARKET -->
<g id="edge5" class="edge">
<title>MCP_HOST&#45;&gt;MCP_MARKET</title>
<path fill="none" stroke="#4a5568" d="M179.48,-96.16C223.22,-86.86 279.48,-74.9 323.76,-65.48"/>
<polygon fill="#4a5568" stroke="#4a5568" points="324.22,-68.96 333.27,-63.46 322.76,-62.12 324.22,-68.96"/>
<text xml:space="preserve" text-anchor="middle" x="263.36" y="-88.66" font-family="Helvetica,sans-Serif" font-size="9.00">provider tools</text>
</g>
<!-- BOOTSTRAPPER -->
<g id="node8" class="node">
<title>BOOTSTRAPPER</title>
<path fill="#bfdbfe" stroke="black" d="M632.51,-255C632.51,-255 518.77,-255 518.77,-255 512.77,-255 506.77,-249 506.77,-243 506.77,-243 506.77,-211 506.77,-211 506.77,-205 512.77,-199 518.77,-199 518.77,-199 632.51,-199 632.51,-199 638.51,-199 644.51,-205 644.51,-211 644.51,-211 644.51,-243 644.51,-243 644.51,-249 638.51,-255 632.51,-255"/>
<text xml:space="preserve" text-anchor="middle" x="575.64" y="-242" font-family="Helvetica,sans-Serif" font-size="10.00">SharedStartupBootstrapper</text>
<text xml:space="preserve" text-anchor="middle" x="575.64" y="-230" font-family="Helvetica,sans-Serif" font-size="10.00">Resolve config path</text>
<text xml:space="preserve" text-anchor="middle" x="575.64" y="-218" font-family="Helvetica,sans-Serif" font-size="10.00">Load minimal config</text>
<text xml:space="preserve" text-anchor="middle" x="575.64" y="-206" font-family="Helvetica,sans-Serif" font-size="10.00">Resolve deployment</text>
</g>
<!-- MAIN_APP&#45;&gt;BOOTSTRAPPER -->
<g id="edge6" class="edge">
<title>MAIN_APP&#45;&gt;BOOTSTRAPPER</title>
<path fill="none" stroke="#4a5568" d="M451.4,-233.3C465.2,-232.59 480.39,-231.82 495.24,-231.06"/>
<polygon fill="#4a5568" stroke="#4a5568" points="495.19,-234.57 505,-230.56 494.83,-227.58 495.19,-234.57"/>
</g>
<!-- BACKFILL_SERVICES -->
<g id="node19" class="node">
<title>BACKFILL_SERVICES</title>
<path fill="#d1fae5" stroke="black" d="M1583.98,-191C1583.98,-191 1465.25,-191 1465.25,-191 1459.25,-191 1453.25,-185 1453.25,-179 1453.25,-179 1453.25,-159 1453.25,-159 1453.25,-153 1459.25,-147 1465.25,-147 1465.25,-147 1583.98,-147 1583.98,-147 1589.98,-147 1595.98,-153 1595.98,-159 1595.98,-159 1595.98,-179 1595.98,-179 1595.98,-185 1589.98,-191 1583.98,-191"/>
<text xml:space="preserve" text-anchor="middle" x="1524.62" y="-178" font-family="Helvetica,sans-Serif" font-size="10.00">HistoricalBackfillService</text>
<text xml:space="preserve" text-anchor="middle" x="1524.62" y="-166" font-family="Helvetica,sans-Serif" font-size="10.00">BackfillCoordinator</text>
<text xml:space="preserve" text-anchor="middle" x="1524.62" y="-154" font-family="Helvetica,sans-Serif" font-size="10.00">composite provider selection</text>
</g>
<!-- MCP_MARKET&#45;&gt;BACKFILL_SERVICES -->
<g id="edge25" class="edge">
<title>MCP_MARKET&#45;&gt;BACKFILL_SERVICES</title>
<path fill="none" stroke="#2c7a7b" stroke-dasharray="5,2" d="M460.48,-46.86C494.22,-45.41 536.72,-44 574.64,-44 574.64,-44 574.64,-44 1261.37,-44 1300.62,-44 1312.54,-43.65 1348.22,-60 1398.52,-83.05 1397.42,-110.18 1445.25,-138 1447.28,-139.18 1449.36,-140.33 1451.47,-141.46"/>
<polygon fill="#2c7a7b" stroke="#2c7a7b" points="1449.75,-144.5 1460.26,-145.84 1452.87,-138.24 1449.75,-144.5"/>
<text xml:space="preserve" text-anchor="middle" x="863.59" y="-46.7" font-family="Helvetica,sans-Serif" font-size="9.00">tool/resource access</text>
</g>
<!-- STORAGE -->
<g id="node20" class="node">
<title>STORAGE</title>
<path fill="#fecaca" stroke="black" d="M2129.2,-266.75C2129.2,-269.78 2106.56,-272.25 2078.68,-272.25 2050.8,-272.25 2028.16,-269.78 2028.16,-266.75 2028.16,-266.75 2028.16,-217.25 2028.16,-217.25 2028.16,-214.22 2050.8,-211.75 2078.68,-211.75 2106.56,-211.75 2129.2,-214.22 2129.2,-217.25 2129.2,-217.25 2129.2,-266.75 2129.2,-266.75"/>
<path fill="none" stroke="black" d="M2129.2,-266.75C2129.2,-263.72 2106.56,-261.25 2078.68,-261.25 2050.8,-261.25 2028.16,-263.72 2028.16,-266.75"/>
<text xml:space="preserve" text-anchor="middle" x="2078.68" y="-251" font-family="Helvetica,sans-Serif" font-size="10.00">data/</text>
<text xml:space="preserve" text-anchor="middle" x="2078.68" y="-239" font-family="Helvetica,sans-Serif" font-size="10.00">JSONL, Parquet,</text>
<text xml:space="preserve" text-anchor="middle" x="2078.68" y="-227" font-family="Helvetica,sans-Serif" font-size="10.00">checkpoints, status</text>
</g>
<!-- MCP_MARKET&#45;&gt;STORAGE -->
<g id="edge26" class="edge">
<title>MCP_MARKET&#45;&gt;STORAGE</title>
<path fill="none" stroke="#2c7a7b" stroke-dasharray="5,2" d="M460.5,-66C467.14,-69.95 473.15,-74.87 477.77,-81 507.97,-121.12 466.77,-267.3 498.77,-306 521.14,-333.06 539.53,-328 574.64,-328 574.64,-328 574.64,-328 1832.96,-328 1899.38,-328 1970.51,-299.45 2018.87,-275.25"/>
<polygon fill="#2c7a7b" stroke="#2c7a7b" points="2020.17,-278.51 2027.48,-270.85 2016.98,-272.28 2020.17,-278.51"/>
<text xml:space="preserve" text-anchor="middle" x="1126.01" y="-330.7" font-family="Helvetica,sans-Serif" font-size="9.00">catalog / inventory</text>
</g>
<!-- ORCHESTRATOR -->
<g id="node9" class="node">
<title>ORCHESTRATOR</title>
<path fill="#93c5fd" stroke="black" d="M780.56,-231C780.56,-231 693.51,-231 693.51,-231 687.51,-231 681.51,-225 681.51,-219 681.51,-219 681.51,-187 681.51,-187 681.51,-181 687.51,-175 693.51,-175 693.51,-175 780.56,-175 780.56,-175 786.56,-175 792.56,-181 792.56,-187 792.56,-187 792.56,-219 792.56,-219 792.56,-225 786.56,-231 780.56,-231"/>
<text xml:space="preserve" text-anchor="middle" x="737.04" y="-218" font-family="Helvetica,sans-Serif" font-size="10.00">StartupOrchestrator</text>
<text xml:space="preserve" text-anchor="middle" x="737.04" y="-206" font-family="Helvetica,sans-Serif" font-size="10.00">1. command dispatch</text>
<text xml:space="preserve" text-anchor="middle" x="737.04" y="-194" font-family="Helvetica,sans-Serif" font-size="10.00">2. mode validation</text>
<text xml:space="preserve" text-anchor="middle" x="737.04" y="-182" font-family="Helvetica,sans-Serif" font-size="10.00">3. runtime selection</text>
</g>
<!-- BOOTSTRAPPER&#45;&gt;ORCHESTRATOR -->
<g id="edge7" class="edge">
<title>BOOTSTRAPPER&#45;&gt;ORCHESTRATOR</title>
<path fill="none" stroke="#4a5568" d="M644.7,-216.75C653.08,-215.49 661.63,-214.2 669.98,-212.95"/>
<polygon fill="#4a5568" stroke="#4a5568" points="670.33,-216.43 679.7,-211.48 669.29,-209.51 670.33,-216.43"/>
</g>
<!-- COMMAND_MODE -->
<g id="node10" class="node">
<title>COMMAND_MODE</title>
<path fill="#feebc8" stroke="black" d="M1051.02,-116C1051.02,-116 955.08,-116 955.08,-116 949.08,-116 943.08,-110 943.08,-104 943.08,-104 943.08,-84 943.08,-84 943.08,-78 949.08,-72 955.08,-72 955.08,-72 1051.02,-72 1051.02,-72 1057.02,-72 1063.02,-78 1063.02,-84 1063.02,-84 1063.02,-104 1063.02,-104 1063.02,-110 1057.02,-116 1051.02,-116"/>
<text xml:space="preserve" text-anchor="middle" x="1003.05" y="-103" font-family="Helvetica,sans-Serif" font-size="10.00">CommandModeRunner</text>
<text xml:space="preserve" text-anchor="middle" x="1003.05" y="-91" font-family="Helvetica,sans-Serif" font-size="10.00">help, config, symbols,</text>
<text xml:space="preserve" text-anchor="middle" x="1003.05" y="-79" font-family="Helvetica,sans-Serif" font-size="10.00">validation, packaging</text>
</g>
<!-- ORCHESTRATOR&#45;&gt;COMMAND_MODE -->
<g id="edge8" class="edge">
<title>ORCHESTRATOR&#45;&gt;COMMAND_MODE</title>
<path fill="none" stroke="#4a5568" d="M762.27,-174.51C775.27,-160.97 792.35,-145.7 810.56,-136.2 847.9,-116.73 893.87,-106.22 931.4,-100.56"/>
<polygon fill="#4a5568" stroke="#4a5568" points="931.85,-104.03 941.26,-99.17 930.87,-97.1 931.85,-104.03"/>
<text xml:space="preserve" text-anchor="middle" x="863.59" y="-138.9" font-family="Helvetica,sans-Serif" font-size="9.00">phase 1</text>
</g>
<!-- DESKTOP_MODE -->
<g id="node11" class="node">
<title>DESKTOP_MODE</title>
<path fill="#ddd6fe" stroke="black" d="M1059.49,-225C1059.49,-225 946.61,-225 946.61,-225 940.61,-225 934.61,-219 934.61,-213 934.61,-213 934.61,-193 934.61,-193 934.61,-187 940.61,-181 946.61,-181 946.61,-181 1059.49,-181 1059.49,-181 1065.49,-181 1071.49,-187 1071.49,-193 1071.49,-193 1071.49,-213 1071.49,-213 1071.49,-219 1065.49,-225 1059.49,-225"/>
<text xml:space="preserve" text-anchor="middle" x="1003.05" y="-212" font-family="Helvetica,sans-Serif" font-size="10.00">DesktopModeRunner</text>
<text xml:space="preserve" text-anchor="middle" x="1003.05" y="-200" font-family="Helvetica,sans-Serif" font-size="10.00">DeploymentMode.Desktop</text>
<text xml:space="preserve" text-anchor="middle" x="1003.05" y="-188" font-family="Helvetica,sans-Serif" font-size="10.00">UiServer + collector/backfill</text>
</g>
<!-- ORCHESTRATOR&#45;&gt;DESKTOP_MODE -->
<g id="edge9" class="edge">
<title>ORCHESTRATOR&#45;&gt;DESKTOP_MODE</title>
<path fill="none" stroke="#4a5568" d="M792.74,-203C830.37,-203 880.95,-203 922.95,-203"/>
<polygon fill="#4a5568" stroke="#4a5568" points="922.76,-206.5 932.76,-203 922.76,-199.5 922.76,-206.5"/>
<text xml:space="preserve" text-anchor="middle" x="863.59" y="-205.7" font-family="Helvetica,sans-Serif" font-size="9.00">DeploymentMode.Desktop</text>
</g>
<!-- COLLECTOR_MODE -->
<g id="node12" class="node">
<title>COLLECTOR_MODE</title>
<path fill="#bfdbfe" stroke="black" d="M1328.22,-259C1328.22,-259 1192.53,-259 1192.53,-259 1186.53,-259 1180.53,-253 1180.53,-247 1180.53,-247 1180.53,-227 1180.53,-227 1180.53,-221 1186.53,-215 1192.53,-215 1192.53,-215 1328.22,-215 1328.22,-215 1334.22,-215 1340.22,-221 1340.22,-227 1340.22,-227 1340.22,-247 1340.22,-247 1340.22,-253 1334.22,-259 1328.22,-259"/>
<text xml:space="preserve" text-anchor="middle" x="1260.37" y="-246" font-family="Helvetica,sans-Serif" font-size="10.00">CollectorModeRunner</text>
<text xml:space="preserve" text-anchor="middle" x="1260.37" y="-234" font-family="Helvetica,sans-Serif" font-size="10.00">Default/headless streaming</text>
<text xml:space="preserve" text-anchor="middle" x="1260.37" y="-222" font-family="Helvetica,sans-Serif" font-size="10.00">provider connect + subscriptions</text>
</g>
<!-- ORCHESTRATOR&#45;&gt;COLLECTOR_MODE -->
<g id="edge10" class="edge">
<title>ORCHESTRATOR&#45;&gt;COLLECTOR_MODE</title>
<path fill="none" stroke="#4a5568" d="M793,-214.82C798.91,-215.96 804.85,-217.04 810.56,-218 965.11,-243.91 1005.83,-240.62 1162.53,-239 1164.58,-238.98 1166.66,-238.96 1168.76,-238.93"/>
<polygon fill="#4a5568" stroke="#4a5568" points="1168.64,-242.43 1178.59,-238.79 1168.54,-235.43 1168.64,-242.43"/>
<text xml:space="preserve" text-anchor="middle" x="1003.05" y="-242.78" font-family="Helvetica,sans-Serif" font-size="9.00">default/headless</text>
</g>
<!-- BACKFILL_MODE -->
<g id="node13" class="node">
<title>BACKFILL_MODE</title>
<path fill="#bfdbfe" stroke="black" d="M1321.69,-194C1321.69,-194 1199.06,-194 1199.06,-194 1193.06,-194 1187.06,-188 1187.06,-182 1187.06,-182 1187.06,-162 1187.06,-162 1187.06,-156 1193.06,-150 1199.06,-150 1199.06,-150 1321.69,-150 1321.69,-150 1327.69,-150 1333.69,-156 1333.69,-162 1333.69,-162 1333.69,-182 1333.69,-182 1333.69,-188 1327.69,-194 1321.69,-194"/>
<text xml:space="preserve" text-anchor="middle" x="1260.37" y="-181" font-family="Helvetica,sans-Serif" font-size="10.00">BackfillModeRunner</text>
<text xml:space="preserve" text-anchor="middle" x="1260.37" y="-169" font-family="Helvetica,sans-Serif" font-size="10.00">CLI/config backfill</text>
<text xml:space="preserve" text-anchor="middle" x="1260.37" y="-157" font-family="Helvetica,sans-Serif" font-size="10.00">checkpointed historical ingest</text>
</g>
<!-- ORCHESTRATOR&#45;&gt;BACKFILL_MODE -->
<g id="edge11" class="edge">
<title>ORCHESTRATOR&#45;&gt;BACKFILL_MODE</title>
<path fill="none" stroke="#4a5568" d="M793.04,-188.07C832.18,-178.24 886.21,-166.29 934.61,-161.2 1016.16,-152.63 1109.79,-157.27 1175.5,-162.88"/>
<polygon fill="#4a5568" stroke="#4a5568" points="1174.84,-166.34 1185.11,-163.73 1175.45,-159.37 1174.84,-166.34"/>
<text xml:space="preserve" text-anchor="middle" x="1003.05" y="-163.9" font-family="Helvetica,sans-Serif" font-size="9.00">&#45;&#45;backfill or config</text>
</g>
<!-- DESKTOP_MODE&#45;&gt;COLLECTOR_MODE -->
<g id="edge14" class="edge">
<title>DESKTOP_MODE&#45;&gt;COLLECTOR_MODE</title>
<path fill="none" stroke="#4a5568" d="M1071.8,-212.02C1101.67,-216 1137.19,-220.73 1169.25,-225"/>
<polygon fill="#4a5568" stroke="#4a5568" points="1168.56,-228.44 1178.93,-226.29 1169.48,-221.5 1168.56,-228.44"/>
<text xml:space="preserve" text-anchor="middle" x="1126.01" y="-226.75" font-family="Helvetica,sans-Serif" font-size="9.00">normal desktop</text>
</g>
<!-- DESKTOP_MODE&#45;&gt;BACKFILL_MODE -->
<g id="edge15" class="edge">
<title>DESKTOP_MODE&#45;&gt;BACKFILL_MODE</title>
<path fill="none" stroke="#4a5568" d="M1071.8,-194.77C1103.66,-190.91 1141.95,-186.26 1175.61,-182.17"/>
<polygon fill="#4a5568" stroke="#4a5568" points="1175.82,-185.67 1185.32,-180.99 1174.98,-178.72 1175.82,-185.67"/>
<text xml:space="preserve" text-anchor="middle" x="1126.01" y="-194.79" font-family="Helvetica,sans-Serif" font-size="9.00">desktop backfill</text>
</g>
<!-- DESKTOP_MODE&#45;&gt;DASHBOARD_BRIDGE -->
<g id="edge12" class="edge">
<title>DESKTOP_MODE&#45;&gt;DASHBOARD_BRIDGE</title>
<path fill="none" stroke="#4a5568" d="M1060.38,-180.53C1064.14,-179 1067.87,-177.48 1071.49,-176 1120.12,-156.05 1129.38,-142.32 1180.53,-130.2 1270.36,-108.92 1376.86,-104.88 1447.1,-105.02"/>
<polygon fill="#4a5568" stroke="#4a5568" points="1446.96,-108.52 1456.98,-105.08 1446.99,-101.52 1446.96,-108.52"/>
<text xml:space="preserve" text-anchor="middle" x="1260.37" y="-132.9" font-family="Helvetica,sans-Serif" font-size="9.00">start local API host</text>
</g>
<!-- HOST_FACTORY -->
<g id="node16" class="node">
<title>HOST_FACTORY</title>
<path fill="#a7f3d0" stroke="black" d="M1563.98,-256C1563.98,-256 1485.26,-256 1485.26,-256 1479.26,-256 1473.26,-250 1473.26,-244 1473.26,-244 1473.26,-224 1473.26,-224 1473.26,-218 1479.26,-212 1485.26,-212 1485.26,-212 1563.98,-212 1563.98,-212 1569.98,-212 1575.98,-218 1575.98,-224 1575.98,-224 1575.98,-244 1575.98,-244 1575.98,-250 1569.98,-256 1563.98,-256"/>
<text xml:space="preserve" text-anchor="middle" x="1524.62" y="-243" font-family="Helvetica,sans-Serif" font-size="10.00">HostStartupFactory</text>
<text xml:space="preserve" text-anchor="middle" x="1524.62" y="-231" font-family="Helvetica,sans-Serif" font-size="10.00">providers, storage,</text>
<text xml:space="preserve" text-anchor="middle" x="1524.62" y="-219" font-family="Helvetica,sans-Serif" font-size="10.00">pipeline, monitoring</text>
</g>
<!-- COLLECTOR_MODE&#45;&gt;HOST_FACTORY -->
<g id="edge16" class="edge">
<title>COLLECTOR_MODE&#45;&gt;HOST_FACTORY</title>
<path fill="none" stroke="#4a5568" d="M1340.41,-236.1C1379.19,-235.65 1425.24,-235.13 1461.46,-234.71"/>
<polygon fill="#4a5568" stroke="#4a5568" points="1461.39,-238.21 1471.34,-234.6 1461.31,-231.21 1461.39,-238.21"/>
<text xml:space="preserve" text-anchor="middle" x="1396.73" y="-238.56" font-family="Helvetica,sans-Serif" font-size="9.00">create runtime host</text>
</g>
<!-- BACKFILL_MODE&#45;&gt;HOST_FACTORY -->
<g id="edge17" class="edge">
<title>BACKFILL_MODE&#45;&gt;HOST_FACTORY</title>
<path fill="none" stroke="#4a5568" d="M1334.07,-189.19C1374.22,-198.68 1423.55,-210.34 1461.82,-219.39"/>
<polygon fill="#4a5568" stroke="#4a5568" points="1460.8,-222.75 1471.34,-221.64 1462.41,-215.93 1460.8,-222.75"/>
<text xml:space="preserve" text-anchor="middle" x="1396.73" y="-214.88" font-family="Helvetica,sans-Serif" font-size="9.00">create runtime host</text>
</g>
<!-- BACKFILL_MODE&#45;&gt;BACKFILL_SERVICES -->
<g id="edge18" class="edge">
<title>BACKFILL_MODE&#45;&gt;BACKFILL_SERVICES</title>
<path fill="none" stroke="#4a5568" d="M1334.08,-170.56C1342.22,-170.42 1350.4,-170.3 1358.22,-170.2 1385.35,-169.85 1414.99,-169.59 1441.59,-169.41"/>
<polygon fill="#4a5568" stroke="#4a5568" points="1441.29,-172.91 1451.27,-169.35 1441.25,-165.91 1441.29,-172.91"/>
<text xml:space="preserve" text-anchor="middle" x="1396.73" y="-172.9" font-family="Helvetica,sans-Serif" font-size="9.00">run historical jobs</text>
</g>
<!-- UI_SHARED -->
<g id="node15" class="node">
<title>UI_SHARED</title>
<path fill="#ddd6fe" stroke="black" d="M1880.22,-129C1880.22,-129 1783.7,-129 1783.7,-129 1777.7,-129 1771.7,-123 1771.7,-117 1771.7,-117 1771.7,-97 1771.7,-97 1771.7,-91 1777.7,-85 1783.7,-85 1783.7,-85 1880.22,-85 1880.22,-85 1886.22,-85 1892.22,-91 1892.22,-97 1892.22,-97 1892.22,-117 1892.22,-117 1892.22,-123 1886.22,-129 1880.22,-129"/>
<text xml:space="preserve" text-anchor="middle" x="1831.96" y="-116" font-family="Helvetica,sans-Serif" font-size="10.00">Meridian.Ui.Shared</text>
<text xml:space="preserve" text-anchor="middle" x="1831.96" y="-104" font-family="Helvetica,sans-Serif" font-size="10.00">shared endpoints, auth,</text>
<text xml:space="preserve" text-anchor="middle" x="1831.96" y="-92" font-family="Helvetica,sans-Serif" font-size="10.00">workstation APIs</text>
</g>
<!-- DASHBOARD_BRIDGE&#45;&gt;UI_SHARED -->
<g id="edge13" class="edge">
<title>DASHBOARD_BRIDGE&#45;&gt;UI_SHARED</title>
<path fill="none" stroke="#4a5568" d="M1590.74,-107C1640.49,-107 1708.96,-107 1760.08,-107"/>
<polygon fill="#4a5568" stroke="#4a5568" points="1759.85,-110.5 1769.85,-107 1759.85,-103.5 1759.85,-110.5"/>
<text xml:space="preserve" text-anchor="middle" x="1661.76" y="-109.7" font-family="Helvetica,sans-Serif" font-size="9.00">map shared endpoints</text>
</g>
<!-- PIPELINE -->
<g id="node17" class="node">
<title>PIPELINE</title>
<path fill="#d1fae5" stroke="black" d="M1924.38,-230C1924.38,-230 1739.53,-230 1739.53,-230 1733.53,-230 1727.53,-224 1727.53,-218 1727.53,-218 1727.53,-206 1727.53,-206 1727.53,-200 1733.53,-194 1739.53,-194 1739.53,-194 1924.38,-194 1924.38,-194 1930.38,-194 1936.38,-200 1936.38,-206 1936.38,-206 1936.38,-218 1936.38,-218 1936.38,-224 1930.38,-230 1924.38,-230"/>
<text xml:space="preserve" text-anchor="middle" x="1831.96" y="-215" font-family="Helvetica,sans-Serif" font-size="10.00">EventPipeline + WAL</text>
<text xml:space="preserve" text-anchor="middle" x="1831.96" y="-203" font-family="Helvetica,sans-Serif" font-size="10.00">RecoverAsync / PublishAsync / FlushAsync</text>
</g>
<!-- HOST_FACTORY&#45;&gt;PIPELINE -->
<g id="edge19" class="edge">
<title>HOST_FACTORY&#45;&gt;PIPELINE</title>
<path fill="none" stroke="#4a5568" d="M1576.38,-230.34C1614.29,-227.61 1667.64,-223.77 1715.71,-220.3"/>
<polygon fill="#4a5568" stroke="#4a5568" points="1715.93,-223.8 1725.65,-219.59 1715.42,-216.82 1715.93,-223.8"/>
</g>
<!-- STATUS_WRITER -->
<g id="node18" class="node">
<title>STATUS_WRITER</title>
<polygon fill="#feebc8" stroke="black" points="1875.37,-292 1782.55,-292 1782.55,-248 1881.37,-248 1881.37,-286 1875.37,-292"/>
<polyline fill="none" stroke="black" points="1875.37,-292 1875.37,-286"/>
<polyline fill="none" stroke="black" points="1881.37,-286 1875.37,-286"/>
<text xml:space="preserve" text-anchor="middle" x="1831.96" y="-279" font-family="Helvetica,sans-Serif" font-size="10.00">StatusWriter</text>
<text xml:space="preserve" text-anchor="middle" x="1831.96" y="-267" font-family="Helvetica,sans-Serif" font-size="10.00">_status/status.json</text>
<text xml:space="preserve" text-anchor="middle" x="1831.96" y="-255" font-family="Helvetica,sans-Serif" font-size="10.00">health snapshots</text>
</g>
<!-- HOST_FACTORY&#45;&gt;STATUS_WRITER -->
<g id="edge20" class="edge">
<title>HOST_FACTORY&#45;&gt;STATUS_WRITER</title>
<path fill="none" stroke="#4a5568" d="M1576.38,-239.99C1629.84,-246.29 1714,-256.21 1770.77,-262.9"/>
<polygon fill="#4a5568" stroke="#4a5568" points="1770.25,-266.37 1780.59,-264.06 1771.07,-259.41 1770.25,-266.37"/>
</g>
<!-- PIPELINE&#45;&gt;STORAGE -->
<g id="edge22" class="edge">
<title>PIPELINE&#45;&gt;STORAGE</title>
<path fill="none" stroke="#4a5568" d="M1936.74,-224.72C1963.96,-228.06 1992.43,-231.55 2016.6,-234.51"/>
<polygon fill="#4a5568" stroke="#4a5568" points="2015.88,-237.95 2026.23,-235.69 2016.73,-231 2015.88,-237.95"/>
<text xml:space="preserve" text-anchor="middle" x="1982.27" y="-235.84" font-family="Helvetica,sans-Serif" font-size="9.00">persist + flush</text>
</g>
<!-- STATUS_WRITER&#45;&gt;STORAGE -->
<g id="edge23" class="edge">
<title>STATUS_WRITER&#45;&gt;STORAGE</title>
<path fill="none" stroke="#4a5568" d="M1881.6,-264.43C1920.33,-260 1974.78,-253.77 2016.47,-249"/>
<polygon fill="#4a5568" stroke="#4a5568" points="2016.83,-252.49 2026.37,-247.87 2016.03,-245.53 2016.83,-252.49"/>
<text xml:space="preserve" text-anchor="middle" x="1982.27" y="-258.7" font-family="Helvetica,sans-Serif" font-size="9.00">write status</text>
</g>
<!-- BACKFILL_SERVICES&#45;&gt;PIPELINE -->
<g id="edge21" class="edge">
<title>BACKFILL_SERVICES&#45;&gt;PIPELINE</title>
<path fill="none" stroke="#4a5568" d="M1596.43,-178.97C1631.94,-183.97 1675.84,-190.16 1716.01,-195.81"/>
<polygon fill="#4a5568" stroke="#4a5568" points="1715.35,-199.25 1725.74,-197.18 1716.32,-192.32 1715.35,-199.25"/>
<text xml:space="preserve" text-anchor="middle" x="1661.76" y="-197.05" font-family="Helvetica,sans-Serif" font-size="9.00">publish historical events</text>
</g>
<!-- BACKFILL_SERVICES&#45;&gt;STORAGE -->
<g id="edge24" class="edge">
<title>BACKFILL_SERVICES&#45;&gt;STORAGE</title>
<path fill="none" stroke="#4a5568" d="M1596.14,-160.77C1678.86,-153.2 1819.55,-146.84 1936.38,-174.2 1965.84,-181.1 1996.36,-194.79 2021.46,-208.08"/>
<polygon fill="#4a5568" stroke="#4a5568" points="2019.73,-211.12 2030.19,-212.81 2023.06,-204.96 2019.73,-211.12"/>
<text xml:space="preserve" text-anchor="middle" x="1831.96" y="-176.9" font-family="Helvetica,sans-Serif" font-size="9.00">checkpoints / results</text>
</g>
<!-- LEG_PERSON -->
<g id="node21" class="node">
<title>LEG_PERSON</title>
<ellipse fill="#08427b" stroke="black" cx="108.67" cy="-261" rx="41.37" ry="18"/>
<text xml:space="preserve" text-anchor="middle" x="108.67" y="-258" font-family="Helvetica,sans-Serif" font-size="10.00" fill="white">User / client</text>
</g>
<!-- LEG_HOST -->
<g id="node22" class="node">
<title>LEG_HOST</title>
<path fill="#438dd5" stroke="black" d="M136.91,-333C136.91,-333 80.42,-333 80.42,-333 74.42,-333 68.42,-327 68.42,-321 68.42,-321 68.42,-309 68.42,-309 68.42,-303 74.42,-297 80.42,-297 80.42,-297 136.91,-297 136.91,-297 142.91,-297 148.91,-303 148.91,-309 148.91,-309 148.91,-321 148.91,-321 148.91,-327 142.91,-333 136.91,-333"/>
<text xml:space="preserve" text-anchor="middle" x="108.67" y="-312" font-family="Helvetica,sans-Serif" font-size="10.00" fill="white">Runnable host</text>
</g>
<!-- LEG_MODE -->
<g id="node23" class="node">
<title>LEG_MODE</title>
<path fill="#bfdbfe" stroke="black" d="M154.69,-387C154.69,-387 62.64,-387 62.64,-387 56.64,-387 50.64,-381 50.64,-375 50.64,-375 50.64,-363 50.64,-363 50.64,-357 56.64,-351 62.64,-351 62.64,-351 154.69,-351 154.69,-351 160.69,-351 166.69,-357 166.69,-363 166.69,-363 166.69,-375 166.69,-375 166.69,-381 160.69,-387 154.69,-387"/>
<text xml:space="preserve" text-anchor="middle" x="108.67" y="-366" font-family="Helvetica,sans-Serif" font-size="10.00">Startup mode / service</text>
</g>
<!-- LEG_UI -->
<g id="node24" class="node">
<title>LEG_UI</title>
<path fill="#ddd6fe" stroke="black" d="M178.32,-441C178.32,-441 39.01,-441 39.01,-441 33.01,-441 27.01,-435 27.01,-429 27.01,-429 27.01,-417 27.01,-417 27.01,-411 33.01,-405 39.01,-405 39.01,-405 178.32,-405 178.32,-405 184.32,-405 190.32,-411 190.32,-417 190.32,-417 190.32,-429 190.32,-429 190.32,-435 184.32,-441 178.32,-441"/>
<text xml:space="preserve" text-anchor="middle" x="108.67" y="-420" font-family="Helvetica,sans-Serif" font-size="10.00">Local API / shared endpoint layer</text>
</g>
<!-- LEG_STORE -->
<g id="node25" class="node">
<title>LEG_STORE</title>
<path fill="#fecaca" stroke="black" d="M151.13,-491.73C151.13,-493.53 132.09,-495 108.67,-495 85.24,-495 66.21,-493.53 66.21,-491.73 66.21,-491.73 66.21,-462.27 66.21,-462.27 66.21,-460.47 85.24,-459 108.67,-459 132.09,-459 151.13,-460.47 151.13,-462.27 151.13,-462.27 151.13,-491.73 151.13,-491.73"/>
<path fill="none" stroke="black" d="M151.13,-491.73C151.13,-489.92 132.09,-488.45 108.67,-488.45 85.24,-488.45 66.21,-489.92 66.21,-491.73"/>
<text xml:space="preserve" text-anchor="middle" x="108.67" y="-474" font-family="Helvetica,sans-Serif" font-size="10.00">Persistent state</text>
</g>
</g>
</svg>
