<?xml version="1.0" encoding="UTF-8" standalone="no"?>
<!DOCTYPE svg PUBLIC "-//W3C//DTD SVG 1.1//EN"
 "http://www.w3.org/Graphics/SVG/1.1/DTD/svg11.dtd">
<!-- Generated by graphviz version 2.43.0 (0)
 -->
<!-- Title: RuntimeHosts Pages: 1 -->
<svg width="2416pt" height="628pt"
 viewBox="0.00 0.00 2415.82 628.00" xmlns="http://www.w3.org/2000/svg" xmlns:xlink="http://www.w3.org/1999/xlink">
<g id="graph0" class="graph" transform="scale(1 1) rotate(0) translate(36 592)">
<title>RuntimeHosts</title>
<polygon fill="white" stroke="transparent" points="-36,36 -36,-592 2379.82,-592 2379.82,36 -36,36"/>
<text text-anchor="middle" x="1171.91" y="-542.4" font-family="Helvetica,sans-Serif" font-size="12.00">Meridian &#45; Runtime Hosts and Startup Modes</text>
<text text-anchor="middle" x="1171.91" y="-529.4" font-family="Helvetica,sans-Serif" font-size="12.00">Entry points, host surfaces, and shared startup orchestration | v1.8.x</text>
<g id="clust1" class="cluster">
<title>cluster_clients</title>
<path fill="#f7fafc" stroke="#4a5568" d="M20,-18C20,-18 212.82,-18 212.82,-18 218.82,-18 224.82,-24 224.82,-30 224.82,-30 224.82,-205 224.82,-205 224.82,-211 218.82,-217 212.82,-217 212.82,-217 20,-217 20,-217 14,-217 8,-211 8,-205 8,-205 8,-30 8,-30 8,-24 14,-18 20,-18"/>
<text text-anchor="middle" x="116.41" y="-203.4" font-family="Helvetica,sans-Serif" font-size="12.00">Clients</text>
</g>
<g id="clust2" class="cluster">
<title>cluster_entrypoints</title>
<path fill="#faf5ff" stroke="#805ad5" d="M356.82,-20C356.82,-20 503.82,-20 503.82,-20 509.82,-20 515.82,-26 515.82,-32 515.82,-32 515.82,-264 515.82,-264 515.82,-270 509.82,-276 503.82,-276 503.82,-276 356.82,-276 356.82,-276 350.82,-276 344.82,-270 344.82,-264 344.82,-264 344.82,-32 344.82,-32 344.82,-26 350.82,-20 356.82,-20"/>
<text text-anchor="middle" x="430.32" y="-262.4" font-family="Helvetica,sans-Serif" font-size="12.00">Runnable Projects</text>
</g>
<g id="clust3" class="cluster">
<title>cluster_startup</title>
<path fill="#dbeafe" stroke="#2b6cb0" d="M548.82,-63C548.82,-63 1454.82,-63 1454.82,-63 1460.82,-63 1466.82,-69 1466.82,-75 1466.82,-75 1466.82,-282 1466.82,-282 1466.82,-288 1460.82,-294 1454.82,-294 1454.82,-294 548.82,-294 548.82,-294 542.82,-294 536.82,-288 536.82,-282 536.82,-282 536.82,-75 536.82,-75 536.82,-69 542.82,-63 548.82,-63"/>
<text text-anchor="middle" x="1001.82" y="-280.4" font-family="Helvetica,sans-Serif" font-size="12.00">Shared Startup Flow Used By src/Meridian</text>
</g>
<g id="clust4" class="cluster">
<title>cluster_shared_runtime</title>
<path fill="#f0fff4" stroke="#38a169" d="M1589.82,-80C1589.82,-80 2323.82,-80 2323.82,-80 2329.82,-80 2335.82,-86 2335.82,-92 2335.82,-92 2335.82,-307 2335.82,-307 2335.82,-313 2329.82,-319 2323.82,-319 2323.82,-319 1589.82,-319 1589.82,-319 1583.82,-319 1577.82,-313 1577.82,-307 1577.82,-307 1577.82,-92 1577.82,-92 1577.82,-86 1583.82,-80 1589.82,-80"/>
<text text-anchor="middle" x="1956.82" y="-305.4" font-family="Helvetica,sans-Serif" font-size="12.00">Shared Runtime Services</text>
</g>
<g id="clust5" class="cluster">
<title>cluster_legend</title>
<path fill="#fafafa" stroke="#666666" d="M32.41,-225C32.41,-225 200.41,-225 200.41,-225 206.41,-225 212.41,-231 212.41,-237 212.41,-237 212.41,-502 212.41,-502 212.41,-508 206.41,-514 200.41,-514 200.41,-514 32.41,-514 32.41,-514 26.41,-514 20.41,-508 20.41,-502 20.41,-502 20.41,-237 20.41,-237 20.41,-231 26.41,-225 32.41,-225"/>
<text text-anchor="middle" x="116.41" y="-500.4" font-family="Helvetica,sans-Serif" font-size="12.00">Legend</text>
</g>
<!-- OPERATOR -->
<g id="node1" class="node">
<title>OPERATOR</title>
<ellipse fill="#08427b" stroke="black" cx="116.41" cy="-167" rx="41.94" ry="21.43"/>
<text text-anchor="middle" x="116.41" y="-170" font-family="Helvetica,sans-Serif" font-size="10.00" fill="white">Operator</text>
<text text-anchor="middle" x="116.41" y="-159" font-family="Helvetica,sans-Serif" font-size="10.00" fill="white">[Person]</text>
</g>
<!-- MAIN_APP -->
<g id="node4" class="node">
<title>MAIN_APP</title>
<path fill="#438dd5" stroke="black" d="M476.32,-246.5C476.32,-246.5 384.32,-246.5 384.32,-246.5 378.32,-246.5 372.32,-240.5 372.32,-234.5 372.32,-234.5 372.32,-217.5 372.32,-217.5 372.32,-211.5 378.32,-205.5 384.32,-205.5 384.32,-205.5 476.32,-205.5 476.32,-205.5 482.32,-205.5 488.32,-211.5 488.32,-217.5 488.32,-217.5 488.32,-234.5 488.32,-234.5 488.32,-240.5 482.32,-246.5 476.32,-246.5"/>
<text text-anchor="middle" x="430.32" y="-234.5" font-family="Helvetica,sans-Serif" font-size="10.00" fill="white">src/Meridian</text>
<text text-anchor="middle" x="430.32" y="-223.5" font-family="Helvetica,sans-Serif" font-size="10.00" fill="white">CLI / composite host</text>
<text text-anchor="middle" x="430.32" y="-212.5" font-family="Helvetica,sans-Serif" font-size="10.00" fill="white">Program.cs</text>
</g>
<!-- OPERATOR&#45;&gt;MAIN_APP -->
<g id="edge1" class="edge">
<title>OPERATOR&#45;&gt;MAIN_APP</title>
<path fill="none" stroke="#4a5568" d="M155.66,-174.23C207.07,-183.96 299.31,-201.41 362.36,-213.34"/>
<polygon fill="#4a5568" stroke="#4a5568" points="361.75,-216.78 372.22,-215.2 363.05,-209.9 361.75,-216.78"/>
<text text-anchor="middle" x="284.82" y="-208.8" font-family="Helvetica,sans-Serif" font-size="9.00">CLI / make targets</text>
</g>
<!-- WPF_APP -->
<g id="node5" class="node">
<title>WPF_APP</title>
<path fill="#805ad5" stroke="black" d="M494.82,-187.5C494.82,-187.5 365.82,-187.5 365.82,-187.5 359.82,-187.5 353.82,-181.5 353.82,-175.5 353.82,-175.5 353.82,-158.5 353.82,-158.5 353.82,-152.5 359.82,-146.5 365.82,-146.5 365.82,-146.5 494.82,-146.5 494.82,-146.5 500.82,-146.5 506.82,-152.5 506.82,-158.5 506.82,-158.5 506.82,-175.5 506.82,-175.5 506.82,-181.5 500.82,-187.5 494.82,-187.5"/>
<text text-anchor="middle" x="430.32" y="-175.5" font-family="Helvetica,sans-Serif" font-size="10.00" fill="white">src/Meridian.Wpf</text>
<text text-anchor="middle" x="430.32" y="-164.5" font-family="Helvetica,sans-Serif" font-size="10.00" fill="white">Windows workstation shell</text>
<text text-anchor="middle" x="430.32" y="-153.5" font-family="Helvetica,sans-Serif" font-size="10.00" fill="white">App.xaml.cs DI composition</text>
</g>
<!-- OPERATOR&#45;&gt;WPF_APP -->
<g id="edge2" class="edge">
<title>OPERATOR&#45;&gt;WPF_APP</title>
<path fill="none" stroke="#4a5568" d="M158.19,-167C204.94,-167 282.89,-167 343.24,-167"/>
<polygon fill="#4a5568" stroke="#4a5568" points="343.53,-170.5 353.53,-167 343.53,-163.5 343.53,-170.5"/>
<text text-anchor="middle" x="284.82" y="-169.8" font-family="Helvetica,sans-Serif" font-size="9.00">Windows desktop app</text>
</g>
<!-- LOCAL_CLIENT -->
<g id="node2" class="node">
<title>LOCAL_CLIENT</title>
<ellipse fill="#08427b" stroke="black" cx="116.41" cy="-47" rx="97.66" ry="21.43"/>
<text text-anchor="middle" x="116.41" y="-50" font-family="Helvetica,sans-Serif" font-size="10.00" fill="white">Local API Client</text>
<text text-anchor="middle" x="116.41" y="-39" font-family="Helvetica,sans-Serif" font-size="10.00" fill="white">[WPF / Swagger / scripts]</text>
</g>
<!-- DASHBOARD_BRIDGE -->
<g id="node14" class="node">
<title>DASHBOARD_BRIDGE</title>
<path fill="#c4b5fd" stroke="black" d="M1720.82,-129.5C1720.82,-129.5 1608.82,-129.5 1608.82,-129.5 1602.82,-129.5 1596.82,-123.5 1596.82,-117.5 1596.82,-117.5 1596.82,-100.5 1596.82,-100.5 1596.82,-94.5 1602.82,-88.5 1608.82,-88.5 1608.82,-88.5 1720.82,-88.5 1720.82,-88.5 1726.82,-88.5 1732.82,-94.5 1732.82,-100.5 1732.82,-100.5 1732.82,-117.5 1732.82,-117.5 1732.82,-123.5 1726.82,-129.5 1720.82,-129.5"/>
<text text-anchor="middle" x="1664.82" y="-117.5" font-family="Helvetica,sans-Serif" font-size="10.00">UiServer</text>
<text text-anchor="middle" x="1664.82" y="-106.5" font-family="Helvetica,sans-Serif" font-size="10.00">Embedded ASP.NET host</text>
<text text-anchor="middle" x="1664.82" y="-95.5" font-family="Helvetica,sans-Serif" font-size="10.00">localhost API + Swagger</text>
</g>
<!-- LOCAL_CLIENT&#45;&gt;DASHBOARD_BRIDGE -->
<g id="edge3" class="edge">
<title>LOCAL_CLIENT&#45;&gt;DASHBOARD_BRIDGE</title>
<path fill="none" stroke="#4a5568" d="M182.7,-31.35C245.51,-17.68 343.34,0 429.32,0 429.32,0 429.32,0 1371.32,0 1466.29,0 1568.3,-51.08 1623.21,-83.3"/>
<polygon fill="#4a5568" stroke="#4a5568" points="1621.55,-86.39 1631.94,-88.5 1625.14,-80.37 1621.55,-86.39"/>
<text text-anchor="middle" x="791.82" y="-2.8" font-family="Helvetica,sans-Serif" font-size="9.00">localhost API / Swagger</text>
</g>
<!-- MCP_HOST -->
<g id="node3" class="node">
<title>MCP_HOST</title>
<ellipse fill="#08427b" stroke="black" cx="116.41" cy="-107" rx="100.32" ry="21.43"/>
<text text-anchor="middle" x="116.41" y="-110" font-family="Helvetica,sans-Serif" font-size="10.00" fill="white">MCP Host</text>
<text text-anchor="middle" x="116.41" y="-99" font-family="Helvetica,sans-Serif" font-size="10.00" fill="white">[Claude / Cursor / Copilot]</text>
</g>
<!-- MCP_REPO -->
<g id="node6" class="node">
<title>MCP_REPO</title>
<path fill="#2c7a7b" stroke="black" d="M495.82,-128.5C495.82,-128.5 364.82,-128.5 364.82,-128.5 358.82,-128.5 352.82,-122.5 352.82,-116.5 352.82,-116.5 352.82,-99.5 352.82,-99.5 352.82,-93.5 358.82,-87.5 364.82,-87.5 364.82,-87.5 495.82,-87.5 495.82,-87.5 501.82,-87.5 507.82,-93.5 507.82,-99.5 507.82,-99.5 507.82,-116.5 507.82,-116.5 507.82,-122.5 501.82,-128.5 495.82,-128.5"/>
<text text-anchor="middle" x="430.32" y="-116.5" font-family="Helvetica,sans-Serif" font-size="10.00" fill="white">src/Meridian.Mcp</text>
<text text-anchor="middle" x="430.32" y="-105.5" font-family="Helvetica,sans-Serif" font-size="10.00" fill="white">Repo&#45;navigation MCP server</text>
<text text-anchor="middle" x="430.32" y="-94.5" font-family="Helvetica,sans-Serif" font-size="10.00" fill="white">stdio transport</text>
</g>
<!-- MCP_HOST&#45;&gt;MCP_REPO -->
<g id="edge4" class="edge">
<title>MCP_HOST&#45;&gt;MCP_REPO</title>
<path fill="none" stroke="#4a5568" d="M216.96,-107.32C257.22,-107.45 303.27,-107.6 342.18,-107.72"/>
<polygon fill="#4a5568" stroke="#4a5568" points="342.42,-111.22 352.43,-107.75 342.44,-104.22 342.42,-111.22"/>
<text text-anchor="middle" x="284.82" y="-109.8" font-family="Helvetica,sans-Serif" font-size="9.00">repo tools</text>
</g>
<!-- MCP_MARKET -->
<g id="node7" class="node">
<title>MCP_MARKET</title>
<path fill="#2c7a7b" stroke="black" d="M485.32,-69.5C485.32,-69.5 375.32,-69.5 375.32,-69.5 369.32,-69.5 363.32,-63.5 363.32,-57.5 363.32,-57.5 363.32,-40.5 363.32,-40.5 363.32,-34.5 369.32,-28.5 375.32,-28.5 375.32,-28.5 485.32,-28.5 485.32,-28.5 491.32,-28.5 497.32,-34.5 497.32,-40.5 497.32,-40.5 497.32,-57.5 497.32,-57.5 497.32,-63.5 491.32,-69.5 485.32,-69.5"/>
<text text-anchor="middle" x="430.32" y="-57.5" font-family="Helvetica,sans-Serif" font-size="10.00" fill="white">src/Meridian.McpServer</text>
<text text-anchor="middle" x="430.32" y="-46.5" font-family="Helvetica,sans-Serif" font-size="10.00" fill="white">Market&#45;data MCP server</text>
<text text-anchor="middle" x="430.32" y="-35.5" font-family="Helvetica,sans-Serif" font-size="10.00" fill="white">stdio transport</text>
</g>
<!-- MCP_HOST&#45;&gt;MCP_MARKET -->
<g id="edge5" class="edge">
<title>MCP_HOST&#45;&gt;MCP_MARKET</title>
<path fill="none" stroke="#4a5568" d="M192.52,-93.03C241.17,-83.99 304.33,-72.24 353.19,-63.16"/>
<polygon fill="#4a5568" stroke="#4a5568" points="353.88,-66.59 363.07,-61.32 352.6,-59.71 353.88,-66.59"/>
<text text-anchor="middle" x="284.82" y="-86.8" font-family="Helvetica,sans-Serif" font-size="9.00">provider tools</text>
</g>
<!-- BOOTSTRAPPER -->
<g id="node8" class="node">
<title>BOOTSTRAPPER</title>
<path fill="#bfdbfe" stroke="black" d="M681.82,-245C681.82,-245 556.82,-245 556.82,-245 550.82,-245 544.82,-239 544.82,-233 544.82,-233 544.82,-205 544.82,-205 544.82,-199 550.82,-193 556.82,-193 556.82,-193 681.82,-193 681.82,-193 687.82,-193 693.82,-199 693.82,-205 693.82,-205 693.82,-233 693.82,-233 693.82,-239 687.82,-245 681.82,-245"/>
<text text-anchor="middle" x="619.32" y="-233" font-family="Helvetica,sans-Serif" font-size="10.00">SharedStartupBootstrapper</text>
<text text-anchor="middle" x="619.32" y="-222" font-family="Helvetica,sans-Serif" font-size="10.00">Resolve config path</text>
<text text-anchor="middle" x="619.32" y="-211" font-family="Helvetica,sans-Serif" font-size="10.00">Load minimal config</text>
<text text-anchor="middle" x="619.32" y="-200" font-family="Helvetica,sans-Serif" font-size="10.00">Resolve deployment</text>
</g>
<!-- MAIN_APP&#45;&gt;BOOTSTRAPPER -->
<g id="edge6" class="edge">
<title>MAIN_APP&#45;&gt;BOOTSTRAPPER</title>
<path fill="none" stroke="#4a5568" d="M488.44,-223.86C502.98,-223.32 518.91,-222.72 534.47,-222.14"/>
<polygon fill="#4a5568" stroke="#4a5568" points="534.77,-225.63 544.63,-221.76 534.51,-218.63 534.77,-225.63"/>
</g>
<!-- BACKFILL_SERVICES -->
<g id="node19" class="node">
<title>BACKFILL_SERVICES</title>
<path fill="#d1fae5" stroke="black" d="M1731.82,-188.5C1731.82,-188.5 1597.82,-188.5 1597.82,-188.5 1591.82,-188.5 1585.82,-182.5 1585.82,-176.5 1585.82,-176.5 1585.82,-159.5 1585.82,-159.5 1585.82,-153.5 1591.82,-147.5 1597.82,-147.5 1597.82,-147.5 1731.82,-147.5 1731.82,-147.5 1737.82,-147.5 1743.82,-153.5 1743.82,-159.5 1743.82,-159.5 1743.82,-176.5 1743.82,-176.5 1743.82,-182.5 1737.82,-188.5 1731.82,-188.5"/>
<text text-anchor="middle" x="1664.82" y="-176.5" font-family="Helvetica,sans-Serif" font-size="10.00">HistoricalBackfillService</text>
<text text-anchor="middle" x="1664.82" y="-165.5" font-family="Helvetica,sans-Serif" font-size="10.00">BackfillCoordinator</text>
<text text-anchor="middle" x="1664.82" y="-154.5" font-family="Helvetica,sans-Serif" font-size="10.00">composite provider selection</text>
</g>
<!-- MCP_MARKET&#45;&gt;BACKFILL_SERVICES -->
<g id="edge25" class="edge">
<title>MCP_MARKET&#45;&gt;BACKFILL_SERVICES</title>
<path fill="none" stroke="#2c7a7b" stroke-dasharray="5,2" d="M497.51,-45.84C533.27,-44.4 578.2,-43 618.32,-43 618.32,-43 618.32,-43 1371.32,-43 1414.35,-43 1427.1,-42.43 1466.82,-59 1522.94,-82.41 1523.74,-111.2 1577.82,-139 1580.76,-140.51 1583.8,-141.97 1586.9,-143.38"/>
<polygon fill="#2c7a7b" stroke="#2c7a7b" points="1585.77,-146.7 1596.34,-147.43 1588.53,-140.27 1585.77,-146.7"/>
<text text-anchor="middle" x="930.32" y="-45.8" font-family="Helvetica,sans-Serif" font-size="9.00">tool/resource access</text>
</g>
<!-- STORAGE -->
<g id="node20" class="node">
<title>STORAGE</title>
<path fill="#fecaca" stroke="black" d="M2327.82,-254.22C2327.82,-257.06 2302.94,-259.38 2272.32,-259.38 2241.69,-259.38 2216.82,-257.06 2216.82,-254.22 2216.82,-254.22 2216.82,-207.78 2216.82,-207.78 2216.82,-204.94 2241.69,-202.62 2272.32,-202.62 2302.94,-202.62 2327.82,-204.94 2327.82,-207.78 2327.82,-207.78 2327.82,-254.22 2327.82,-254.22"/>
<path fill="none" stroke="black" d="M2327.82,-254.22C2327.82,-251.37 2302.94,-249.06 2272.32,-249.06 2241.69,-249.06 2216.82,-251.37 2216.82,-254.22"/>
<text text-anchor="middle" x="2272.32" y="-239.5" font-family="Helvetica,sans-Serif" font-size="10.00">data/</text>
<text text-anchor="middle" x="2272.32" y="-228.5" font-family="Helvetica,sans-Serif" font-size="10.00">JSONL, Parquet,</text>
<text text-anchor="middle" x="2272.32" y="-217.5" font-family="Helvetica,sans-Serif" font-size="10.00">checkpoints, status</text>
</g>
<!-- MCP_MARKET&#45;&gt;STORAGE -->
<g id="edge26" class="edge">
<title>MCP_MARKET&#45;&gt;STORAGE</title>
<path fill="none" stroke="#2c7a7b" stroke-dasharray="5,2" d="M497.7,-63.86C504.64,-67.78 510.93,-72.74 515.82,-79 545.89,-117.54 505.27,-260.65 536.82,-298 561.03,-326.66 580.8,-320 618.32,-320 618.32,-320 618.32,-320 2002.82,-320 2078.33,-320 2160,-287.89 2213.19,-262.24"/>
<polygon fill="#2c7a7b" stroke="#2c7a7b" points="2215.01,-265.25 2222.45,-257.7 2211.93,-258.96 2215.01,-265.25"/>
<text text-anchor="middle" x="1221.32" y="-322.8" font-family="Helvetica,sans-Serif" font-size="9.00">catalog / inventory</text>
</g>
<!-- ORCHESTRATOR -->
<g id="node9" class="node">
<title>ORCHESTRATOR</title>
<path fill="#93c5fd" stroke="black" d="M840.82,-224C840.82,-224 742.82,-224 742.82,-224 736.82,-224 730.82,-218 730.82,-212 730.82,-212 730.82,-184 730.82,-184 730.82,-178 736.82,-172 742.82,-172 742.82,-172 840.82,-172 840.82,-172 846.82,-172 852.82,-178 852.82,-184 852.82,-184 852.82,-212 852.82,-212 852.82,-218 846.82,-224 840.82,-224"/>
<text text-anchor="middle" x="791.82" y="-212" font-family="Helvetica,sans-Serif" font-size="10.00">StartupOrchestrator</text>
<text text-anchor="middle" x="791.82" y="-201" font-family="Helvetica,sans-Serif" font-size="10.00">1. command dispatch</text>
<text text-anchor="middle" x="791.82" y="-190" font-family="Helvetica,sans-Serif" font-size="10.00">2. mode validation</text>
<text text-anchor="middle" x="791.82" y="-179" font-family="Helvetica,sans-Serif" font-size="10.00">3. runtime selection</text>
</g>
<!-- BOOTSTRAPPER&#45;&gt;ORCHESTRATOR -->
<g id="edge7" class="edge">
<title>BOOTSTRAPPER&#45;&gt;ORCHESTRATOR</title>
<path fill="none" stroke="#4a5568" d="M694.11,-209.91C702.91,-208.83 711.87,-207.72 720.62,-206.65"/>
<polygon fill="#4a5568" stroke="#4a5568" points="721.26,-210.09 730.76,-205.4 720.41,-203.15 721.26,-210.09"/>
</g>
<!-- COMMAND_MODE -->
<g id="node10" class="node">
<title>COMMAND_MODE</title>
<path fill="#feebc8" stroke="black" d="M1136.32,-112.5C1136.32,-112.5 1032.32,-112.5 1032.32,-112.5 1026.32,-112.5 1020.32,-106.5 1020.32,-100.5 1020.32,-100.5 1020.32,-83.5 1020.32,-83.5 1020.32,-77.5 1026.32,-71.5 1032.32,-71.5 1032.32,-71.5 1136.32,-71.5 1136.32,-71.5 1142.32,-71.5 1148.32,-77.5 1148.32,-83.5 1148.32,-83.5 1148.32,-100.5 1148.32,-100.5 1148.32,-106.5 1142.32,-112.5 1136.32,-112.5"/>
<text text-anchor="middle" x="1084.32" y="-100.5" font-family="Helvetica,sans-Serif" font-size="10.00">CommandModeRunner</text>
<text text-anchor="middle" x="1084.32" y="-89.5" font-family="Helvetica,sans-Serif" font-size="10.00">help, config, symbols,</text>
<text text-anchor="middle" x="1084.32" y="-78.5" font-family="Helvetica,sans-Serif" font-size="10.00">validation, packaging</text>
</g>
<!-- ORCHESTRATOR&#45;&gt;COMMAND_MODE -->
<g id="edge8" class="edge">
<title>ORCHESTRATOR&#45;&gt;COMMAND_MODE</title>
<path fill="none" stroke="#4a5568" d="M817.98,-171.9C832.26,-158.58 851.18,-143.27 870.82,-134 914.42,-113.41 967.65,-102.91 1009.93,-97.56"/>
<polygon fill="#4a5568" stroke="#4a5568" points="1010.37,-101.03 1019.88,-96.37 1009.53,-94.08 1010.37,-101.03"/>
<text text-anchor="middle" x="930.32" y="-136.8" font-family="Helvetica,sans-Serif" font-size="9.00">phase 1</text>
</g>
<!-- DESKTOP_MODE -->
<g id="node11" class="node">
<title>DESKTOP_MODE</title>
<path fill="#ddd6fe" stroke="black" d="M1148.82,-218.5C1148.82,-218.5 1019.82,-218.5 1019.82,-218.5 1013.82,-218.5 1007.82,-212.5 1007.82,-206.5 1007.82,-206.5 1007.82,-189.5 1007.82,-189.5 1007.82,-183.5 1013.82,-177.5 1019.82,-177.5 1019.82,-177.5 1148.82,-177.5 1148.82,-177.5 1154.82,-177.5 1160.82,-183.5 1160.82,-189.5 1160.82,-189.5 1160.82,-206.5 1160.82,-206.5 1160.82,-212.5 1154.82,-218.5 1148.82,-218.5"/>
<text text-anchor="middle" x="1084.32" y="-206.5" font-family="Helvetica,sans-Serif" font-size="10.00">DesktopModeRunner</text>
<text text-anchor="middle" x="1084.32" y="-195.5" font-family="Helvetica,sans-Serif" font-size="10.00">DeploymentMode.Desktop</text>
<text text-anchor="middle" x="1084.32" y="-184.5" font-family="Helvetica,sans-Serif" font-size="10.00">UiServer + collector/backfill</text>
</g>
<!-- ORCHESTRATOR&#45;&gt;DESKTOP_MODE -->
<g id="edge9" class="edge">
<title>ORCHESTRATOR&#45;&gt;DESKTOP_MODE</title>
<path fill="none" stroke="#4a5568" d="M853.01,-198C894.81,-198 951.13,-198 997.61,-198"/>
<polygon fill="#4a5568" stroke="#4a5568" points="997.67,-201.5 1007.67,-198 997.67,-194.5 997.67,-201.5"/>
<text text-anchor="middle" x="930.32" y="-200.8" font-family="Helvetica,sans-Serif" font-size="9.00">DeploymentMode.Desktop</text>
</g>
<!-- COLLECTOR_MODE -->
<g id="node12" class="node">
<title>COLLECTOR_MODE</title>
<path fill="#bfdbfe" stroke="black" d="M1446.82,-254.5C1446.82,-254.5 1293.82,-254.5 1293.82,-254.5 1287.82,-254.5 1281.82,-248.5 1281.82,-242.5 1281.82,-242.5 1281.82,-225.5 1281.82,-225.5 1281.82,-219.5 1287.82,-213.5 1293.82,-213.5 1293.82,-213.5 1446.82,-213.5 1446.82,-213.5 1452.82,-213.5 1458.82,-219.5 1458.82,-225.5 1458.82,-225.5 1458.82,-242.5 1458.82,-242.5 1458.82,-248.5 1452.82,-254.5 1446.82,-254.5"/>
<text text-anchor="middle" x="1370.32" y="-242.5" font-family="Helvetica,sans-Serif" font-size="10.00">CollectorModeRunner</text>
<text text-anchor="middle" x="1370.32" y="-231.5" font-family="Helvetica,sans-Serif" font-size="10.00">Default/headless streaming</text>
<text text-anchor="middle" x="1370.32" y="-220.5" font-family="Helvetica,sans-Serif" font-size="10.00">provider connect + subscriptions</text>
</g>
<!-- ORCHESTRATOR&#45;&gt;COLLECTOR_MODE -->
<g id="edge10" class="edge">
<title>ORCHESTRATOR&#45;&gt;COLLECTOR_MODE</title>
<path fill="none" stroke="#4a5568" d="M853.23,-209.22C859.16,-210.21 865.1,-211.15 870.82,-212 1006.58,-232.09 1041.6,-231.59 1178.82,-234 1208.84,-234.53 1241.53,-234.68 1271.22,-234.66"/>
<polygon fill="#4a5568" stroke="#4a5568" points="1271.59,-238.16 1281.59,-234.64 1271.58,-231.16 1271.59,-238.16"/>
<text text-anchor="middle" x="1084.32" y="-235.8" font-family="Helvetica,sans-Serif" font-size="9.00">default/headless</text>
</g>
<!-- BACKFILL_MODE -->
<g id="node13" class="node">
<title>BACKFILL_MODE</title>
<path fill="#bfdbfe" stroke="black" d="M1439.82,-192.5C1439.82,-192.5 1300.82,-192.5 1300.82,-192.5 1294.82,-192.5 1288.82,-186.5 1288.82,-180.5 1288.82,-180.5 1288.82,-163.5 1288.82,-163.5 1288.82,-157.5 1294.82,-151.5 1300.82,-151.5 1300.82,-151.5 1439.82,-151.5 1439.82,-151.5 1445.82,-151.5 1451.82,-157.5 1451.82,-163.5 1451.82,-163.5 1451.82,-180.5 1451.82,-180.5 1451.82,-186.5 1445.82,-192.5 1439.82,-192.5"/>
<text text-anchor="middle" x="1370.32" y="-180.5" font-family="Helvetica,sans-Serif" font-size="10.00">BackfillModeRunner</text>
<text text-anchor="middle" x="1370.32" y="-169.5" font-family="Helvetica,sans-Serif" font-size="10.00">CLI/config backfill</text>
<text text-anchor="middle" x="1370.32" y="-158.5" font-family="Helvetica,sans-Serif" font-size="10.00">checkpointed historical ingest</text>
</g>
<!-- ORCHESTRATOR&#45;&gt;BACKFILL_MODE -->
<g id="edge11" class="edge">
<title>ORCHESTRATOR&#45;&gt;BACKFILL_MODE</title>
<path fill="none" stroke="#4a5568" d="M853.12,-184.07C896,-174.9 955.11,-163.74 1007.82,-159 1099.82,-150.72 1205.43,-156.25 1278.65,-162.45"/>
<polygon fill="#4a5568" stroke="#4a5568" points="1278.49,-165.95 1288.76,-163.33 1279.1,-158.97 1278.49,-165.95"/>
<text text-anchor="middle" x="1084.32" y="-161.8" font-family="Helvetica,sans-Serif" font-size="9.00">&#45;&#45;backfill or config</text>
</g>
<!-- DESKTOP_MODE&#45;&gt;COLLECTOR_MODE -->
<g id="edge14" class="edge">
<title>DESKTOP_MODE&#45;&gt;COLLECTOR_MODE</title>
<path fill="none" stroke="#4a5568" d="M1161.05,-207.6C1195,-211.9 1235.45,-217.03 1271.64,-221.62"/>
<polygon fill="#4a5568" stroke="#4a5568" points="1271.37,-225.11 1281.73,-222.9 1272.25,-218.17 1271.37,-225.11"/>
<text text-anchor="middle" x="1221.32" y="-222.8" font-family="Helvetica,sans-Serif" font-size="9.00">normal desktop</text>
</g>
<!-- DESKTOP_MODE&#45;&gt;BACKFILL_MODE -->
<g id="edge15" class="edge">
<title>DESKTOP_MODE&#45;&gt;BACKFILL_MODE</title>
<path fill="none" stroke="#4a5568" d="M1161.05,-191.07C1197.18,-187.76 1240.68,-183.78 1278.56,-180.31"/>
<polygon fill="#4a5568" stroke="#4a5568" points="1278.94,-183.79 1288.57,-179.39 1278.3,-176.82 1278.94,-183.79"/>
<text text-anchor="middle" x="1221.32" y="-190.8" font-family="Helvetica,sans-Serif" font-size="9.00">desktop backfill</text>
</g>
<!-- DESKTOP_MODE&#45;&gt;DASHBOARD_BRIDGE -->
<g id="edge12" class="edge">
<title>DESKTOP_MODE&#45;&gt;DASHBOARD_BRIDGE</title>
<path fill="none" stroke="#4a5568" d="M1147.31,-177.47C1204.73,-158.45 1281.38,-133.09 1281.82,-133 1385.93,-112.86 1508.69,-108.5 1586.38,-108.08"/>
<polygon fill="#4a5568" stroke="#4a5568" points="1586.58,-111.58 1596.57,-108.04 1586.56,-104.58 1586.58,-111.58"/>
<text text-anchor="middle" x="1370.32" y="-135.8" font-family="Helvetica,sans-Serif" font-size="9.00">start local API host</text>
</g>
<!-- HOST_FACTORY -->
<g id="node16" class="node">
<title>HOST_FACTORY</title>
<path fill="#a7f3d0" stroke="black" d="M1710.32,-251.5C1710.32,-251.5 1619.32,-251.5 1619.32,-251.5 1613.32,-251.5 1607.32,-245.5 1607.32,-239.5 1607.32,-239.5 1607.32,-222.5 1607.32,-222.5 1607.32,-216.5 1613.32,-210.5 1619.32,-210.5 1619.32,-210.5 1710.32,-210.5 1710.32,-210.5 1716.32,-210.5 1722.32,-216.5 1722.32,-222.5 1722.32,-222.5 1722.32,-239.5 1722.32,-239.5 1722.32,-245.5 1716.32,-251.5 1710.32,-251.5"/>
<text text-anchor="middle" x="1664.82" y="-239.5" font-family="Helvetica,sans-Serif" font-size="10.00">HostStartupFactory</text>
<text text-anchor="middle" x="1664.82" y="-228.5" font-family="Helvetica,sans-Serif" font-size="10.00">providers, storage,</text>
<text text-anchor="middle" x="1664.82" y="-217.5" font-family="Helvetica,sans-Serif" font-size="10.00">pipeline, monitoring</text>
</g>
<!-- COLLECTOR_MODE&#45;&gt;HOST_FACTORY -->
<g id="edge16" class="edge">
<title>COLLECTOR_MODE&#45;&gt;HOST_FACTORY</title>
<path fill="none" stroke="#4a5568" d="M1459.08,-233.1C1503.29,-232.65 1556.04,-232.11 1596.92,-231.69"/>
<polygon fill="#4a5568" stroke="#4a5568" points="1597.09,-235.18 1607.05,-231.58 1597.01,-228.19 1597.09,-235.18"/>
<text text-anchor="middle" x="1522.32" y="-234.8" font-family="Helvetica,sans-Serif" font-size="9.00">create runtime host</text>
</g>
<!-- BACKFILL_MODE&#45;&gt;HOST_FACTORY -->
<g id="edge17" class="edge">
<title>BACKFILL_MODE&#45;&gt;HOST_FACTORY</title>
<path fill="none" stroke="#4a5568" d="M1452.02,-188.28C1497.67,-197.49 1554.07,-208.86 1597.18,-217.56"/>
<polygon fill="#4a5568" stroke="#4a5568" points="1596.51,-220.99 1607.01,-219.54 1597.89,-214.13 1596.51,-220.99"/>
<text text-anchor="middle" x="1522.32" y="-212.8" font-family="Helvetica,sans-Serif" font-size="9.00">create runtime host</text>
</g>
<!-- BACKFILL_MODE&#45;&gt;BACKFILL_SERVICES -->
<g id="edge18" class="edge">
<title>BACKFILL_MODE&#45;&gt;BACKFILL_SERVICES</title>
<path fill="none" stroke="#4a5568" d="M1451.96,-169.52C1460.35,-169.31 1468.76,-169.14 1476.82,-169 1508.9,-168.46 1544.08,-168.19 1575.19,-168.06"/>
<polygon fill="#4a5568" stroke="#4a5568" points="1575.58,-171.55 1585.57,-168.02 1575.55,-164.55 1575.58,-171.55"/>
<text text-anchor="middle" x="1522.32" y="-171.8" font-family="Helvetica,sans-Serif" font-size="9.00">run historical jobs</text>
</g>
<!-- UI_SHARED -->
<g id="node15" class="node">
<title>UI_SHARED</title>
<path fill="#ddd6fe" stroke="black" d="M2055.32,-129.5C2055.32,-129.5 1948.32,-129.5 1948.32,-129.5 1942.32,-129.5 1936.32,-123.5 1936.32,-117.5 1936.32,-117.5 1936.32,-100.5 1936.32,-100.5 1936.32,-94.5 1942.32,-88.5 1948.32,-88.5 1948.32,-88.5 2055.32,-88.5 2055.32,-88.5 2061.32,-88.5 2067.32,-94.5 2067.32,-100.5 2067.32,-100.5 2067.32,-117.5 2067.32,-117.5 2067.32,-123.5 2061.32,-129.5 2055.32,-129.5"/>
<text text-anchor="middle" x="2001.82" y="-117.5" font-family="Helvetica,sans-Serif" font-size="10.00">Meridian.Ui.Shared</text>
<text text-anchor="middle" x="2001.82" y="-106.5" font-family="Helvetica,sans-Serif" font-size="10.00">shared endpoints, auth,</text>
<text text-anchor="middle" x="2001.82" y="-95.5" font-family="Helvetica,sans-Serif" font-size="10.00">workstation APIs</text>
</g>
<!-- DASHBOARD_BRIDGE&#45;&gt;UI_SHARED -->
<g id="edge13" class="edge">
<title>DASHBOARD_BRIDGE&#45;&gt;UI_SHARED</title>
<path fill="none" stroke="#4a5568" d="M1733.21,-109C1788.99,-109 1868.18,-109 1925.94,-109"/>
<polygon fill="#4a5568" stroke="#4a5568" points="1926.1,-112.5 1936.1,-109 1926.1,-105.5 1926.1,-112.5"/>
<text text-anchor="middle" x="1816.82" y="-111.8" font-family="Helvetica,sans-Serif" font-size="9.00">map shared endpoints</text>
</g>
<!-- PIPELINE -->
<g id="node17" class="node">
<title>PIPELINE</title>
<path fill="#d1fae5" stroke="black" d="M2101.82,-230C2101.82,-230 1901.82,-230 1901.82,-230 1895.82,-230 1889.82,-224 1889.82,-218 1889.82,-218 1889.82,-206 1889.82,-206 1889.82,-200 1895.82,-194 1901.82,-194 1901.82,-194 2101.82,-194 2101.82,-194 2107.82,-194 2113.82,-200 2113.82,-206 2113.82,-206 2113.82,-218 2113.82,-218 2113.82,-224 2107.82,-230 2101.82,-230"/>
<text text-anchor="middle" x="2001.82" y="-215" font-family="Helvetica,sans-Serif" font-size="10.00">EventPipeline + WAL</text>
<text text-anchor="middle" x="2001.82" y="-204" font-family="Helvetica,sans-Serif" font-size="10.00">RecoverAsync / PublishAsync / FlushAsync</text>
</g>
<!-- HOST_FACTORY&#45;&gt;PIPELINE -->
<g id="edge19" class="edge">
<title>HOST_FACTORY&#45;&gt;PIPELINE</title>
<path fill="none" stroke="#4a5568" d="M1722.65,-227.78C1765.52,-225.35 1825.92,-221.92 1879.48,-218.88"/>
<polygon fill="#4a5568" stroke="#4a5568" points="1879.96,-222.36 1889.74,-218.3 1879.56,-215.37 1879.96,-222.36"/>
</g>
<!-- STATUS_WRITER -->
<g id="node18" class="node">
<title>STATUS_WRITER</title>
<polygon fill="#feebc8" stroke="black" points="2049.82,-289.5 1947.82,-289.5 1947.82,-248.5 2055.82,-248.5 2055.82,-283.5 2049.82,-289.5"/>
<polyline fill="none" stroke="black" points="2049.82,-289.5 2049.82,-283.5 "/>
<polyline fill="none" stroke="black" points="2055.82,-283.5 2049.82,-283.5 "/>
<text text-anchor="middle" x="2001.82" y="-277.5" font-family="Helvetica,sans-Serif" font-size="10.00">StatusWriter</text>
<text text-anchor="middle" x="2001.82" y="-266.5" font-family="Helvetica,sans-Serif" font-size="10.00">_status/status.json</text>
<text text-anchor="middle" x="2001.82" y="-255.5" font-family="Helvetica,sans-Serif" font-size="10.00">health snapshots</text>
</g>
<!-- HOST_FACTORY&#45;&gt;STATUS_WRITER -->
<g id="edge20" class="edge">
<title>HOST_FACTORY&#45;&gt;STATUS_WRITER</title>
<path fill="none" stroke="#4a5568" d="M1722.65,-237.45C1782.24,-244.21 1875.66,-254.8 1937.56,-261.82"/>
<polygon fill="#4a5568" stroke="#4a5568" points="1937.26,-265.31 1947.59,-262.96 1938.05,-258.36 1937.26,-265.31"/>
</g>
<!-- PIPELINE&#45;&gt;STORAGE -->
<g id="edge22" class="edge">
<title>PIPELINE&#45;&gt;STORAGE</title>
<path fill="none" stroke="#4a5568" d="M2113.97,-219.87C2145.57,-222.1 2178.94,-224.46 2206.78,-226.43"/>
<polygon fill="#4a5568" stroke="#4a5568" points="2206.55,-229.93 2216.77,-227.14 2207.04,-222.94 2206.55,-229.93"/>
<text text-anchor="middle" x="2165.32" y="-227.8" font-family="Helvetica,sans-Serif" font-size="9.00">persist + flush</text>
</g>
<!-- STATUS_WRITER&#45;&gt;STORAGE -->
<g id="edge23" class="edge">
<title>STATUS_WRITER&#45;&gt;STORAGE</title>
<path fill="none" stroke="#4a5568" d="M2055.87,-261.49C2099.15,-255.37 2160.47,-246.69 2206.63,-240.15"/>
<polygon fill="#4a5568" stroke="#4a5568" points="2207.13,-243.62 2216.54,-238.75 2206.15,-236.69 2207.13,-243.62"/>
<text text-anchor="middle" x="2165.32" y="-252.8" font-family="Helvetica,sans-Serif" font-size="9.00">write status</text>
</g>
<!-- BACKFILL_SERVICES&#45;&gt;PIPELINE -->
<g id="edge21" class="edge">
<title>BACKFILL_SERVICES&#45;&gt;PIPELINE</title>
<path fill="none" stroke="#4a5568" d="M1743.94,-178.26C1784.2,-183.55 1834.21,-190.12 1879.37,-196.05"/>
<polygon fill="#4a5568" stroke="#4a5568" points="1879.16,-199.55 1889.53,-197.38 1880.07,-192.61 1879.16,-199.55"/>
<text text-anchor="middle" x="1816.82" y="-195.8" font-family="Helvetica,sans-Serif" font-size="9.00">publish historical events</text>
</g>
<!-- BACKFILL_SERVICES&#45;&gt;STORAGE -->
<g id="edge24" class="edge">
<title>BACKFILL_SERVICES&#45;&gt;STORAGE</title>
<path fill="none" stroke="#4a5568" d="M1743.85,-161.61C1833.83,-155.99 1985.79,-151.89 2113.82,-175 2145.51,-180.72 2179.31,-192 2207.45,-202.95"/>
<polygon fill="#4a5568" stroke="#4a5568" points="2206.18,-206.21 2216.76,-206.64 2208.76,-199.7 2206.18,-206.21"/>
<text text-anchor="middle" x="2001.82" y="-177.8" font-family="Helvetica,sans-Serif" font-size="9.00">checkpoints / results</text>
</g>
<!-- LEG_PERSON -->
<g id="node21" class="node">
<title>LEG_PERSON</title>
<ellipse fill="#08427b" stroke="black" cx="116.41" cy="-467" rx="44.3" ry="18"/>
<text text-anchor="middle" x="116.41" y="-464.5" font-family="Helvetica,sans-Serif" font-size="10.00" fill="white">User / client</text>
</g>
<!-- LEG_HOST -->
<g id="node22" class="node">
<title>LEG_HOST</title>
<path fill="#438dd5" stroke="black" d="M147.41,-431C147.41,-431 85.41,-431 85.41,-431 79.41,-431 73.41,-425 73.41,-419 73.41,-419 73.41,-407 73.41,-407 73.41,-401 79.41,-395 85.41,-395 85.41,-395 147.41,-395 147.41,-395 153.41,-395 159.41,-401 159.41,-407 159.41,-407 159.41,-419 159.41,-419 159.41,-425 153.41,-431 147.41,-431"/>
<text text-anchor="middle" x="116.41" y="-410.5" font-family="Helvetica,sans-Serif" font-size="10.00" fill="white">Runnable host</text>
</g>
<!-- LEG_MODE -->
<g id="node23" class="node">
<title>LEG_MODE</title>
<path fill="#bfdbfe" stroke="black" d="M167.91,-377C167.91,-377 64.91,-377 64.91,-377 58.91,-377 52.91,-371 52.91,-365 52.91,-365 52.91,-353 52.91,-353 52.91,-347 58.91,-341 64.91,-341 64.91,-341 167.91,-341 167.91,-341 173.91,-341 179.91,-347 179.91,-353 179.91,-353 179.91,-365 179.91,-365 179.91,-371 173.91,-377 167.91,-377"/>
<text text-anchor="middle" x="116.41" y="-356.5" font-family="Helvetica,sans-Serif" font-size="10.00">Startup mode / service</text>
</g>
<!-- LEG_UI -->
<g id="node24" class="node">
<title>LEG_UI</title>
<path fill="#ddd6fe" stroke="black" d="M192.41,-323C192.41,-323 40.41,-323 40.41,-323 34.41,-323 28.41,-317 28.41,-311 28.41,-311 28.41,-299 28.41,-299 28.41,-293 34.41,-287 40.41,-287 40.41,-287 192.41,-287 192.41,-287 198.41,-287 204.41,-293 204.41,-299 204.41,-299 204.41,-311 204.41,-311 204.41,-317 198.41,-323 192.41,-323"/>
<text text-anchor="middle" x="116.41" y="-302.5" font-family="Helvetica,sans-Serif" font-size="10.00">Local API / shared endpoint layer</text>
</g>
<!-- LEG_STORE -->
<g id="node25" class="node">
<title>LEG_STORE</title>
<path fill="#fecaca" stroke="black" d="M162.91,-265.73C162.91,-267.53 142.07,-269 116.41,-269 90.75,-269 69.91,-267.53 69.91,-265.73 69.91,-265.73 69.91,-236.27 69.91,-236.27 69.91,-234.47 90.75,-233 116.41,-233 142.07,-233 162.91,-234.47 162.91,-236.27 162.91,-236.27 162.91,-265.73 162.91,-265.73"/>
<path fill="none" stroke="black" d="M162.91,-265.73C162.91,-263.92 142.07,-262.45 116.41,-262.45 90.75,-262.45 69.91,-263.92 69.91,-265.73"/>
<text text-anchor="middle" x="116.41" y="-248.5" font-family="Helvetica,sans-Serif" font-size="10.00">Persistent state</text>
</g>
</g>
</svg>
