<?xml version="1.0" encoding="UTF-8" standalone="no"?>
<!DOCTYPE svg PUBLIC "-//W3C//DTD SVG 1.1//EN"
 "http://www.w3.org/Graphics/SVG/1.1/DTD/svg11.dtd">
<!-- Generated by graphviz version 14.1.3 (20260303.0454)
 -->
<!-- Title: RuntimeHosts Pages: 1 -->
<svg width="2219pt" height="721pt"
 viewBox="0.00 0.00 2219.00 721.00" xmlns="http://www.w3.org/2000/svg" xmlns:xlink="http://www.w3.org/1999/xlink">
<g id="graph0" class="graph" transform="scale(1 1) rotate(0) translate(36 684.84)">
<title>RuntimeHosts</title>
<polygon fill="white" stroke="none" points="-36,36 -36,-684.84 2182.87,-684.84 2182.87,36 -36,36"/>
<text xml:space="preserve" text-anchor="middle" x="1073.43" y="-634.04" font-family="Helvetica,sans-Serif" font-size="12.00">Meridian &#45; Runtime Hosts and Startup Modes</text>
<text xml:space="preserve" text-anchor="middle" x="1073.43" y="-619.64" font-family="Helvetica,sans-Serif" font-size="12.00">Entry points, host surfaces, and shared startup orchestration | v1.8.x</text>
<g id="clust1" class="cluster">
<title>cluster_clients</title>
<path fill="#f7fafc" stroke="#4a5568" d="M20,-96.04C20,-96.04 197.33,-96.04 197.33,-96.04 203.33,-96.04 209.33,-102.04 209.33,-108.04 209.33,-108.04 209.33,-294.04 209.33,-294.04 209.33,-300.04 203.33,-306.04 197.33,-306.04 197.33,-306.04 20,-306.04 20,-306.04 14,-306.04 8,-300.04 8,-294.04 8,-294.04 8,-108.04 8,-108.04 8,-102.04 14,-96.04 20,-96.04"/>
<text xml:space="preserve" text-anchor="middle" x="108.67" y="-291.24" font-family="Helvetica,sans-Serif" font-size="12.00">Clients</text>
</g>
<g id="clust2" class="cluster">
<title>cluster_entrypoints</title>
<path fill="#faf5ff" stroke="#805ad5" d="M329.38,-68.04C329.38,-68.04 465.77,-68.04 465.77,-68.04 471.77,-68.04 477.77,-74.04 477.77,-80.04 477.77,-80.04 477.77,-386.04 477.77,-386.04 477.77,-392.04 471.77,-398.04 465.77,-398.04 465.77,-398.04 329.38,-398.04 329.38,-398.04 323.38,-398.04 317.38,-392.04 317.38,-386.04 317.38,-386.04 317.38,-80.04 317.38,-80.04 317.38,-74.04 323.38,-68.04 329.38,-68.04"/>
<text xml:space="preserve" text-anchor="middle" x="397.57" y="-383.24" font-family="Helvetica,sans-Serif" font-size="12.00">Runnable Projects</text>
</g>
<g id="clust3" class="cluster">
<title>cluster_startup</title>
<path fill="#dbeafe" stroke="#2b6cb0" d="M510.77,-20.04C510.77,-20.04 1337.88,-20.04 1337.88,-20.04 1343.88,-20.04 1349.88,-26.04 1349.88,-32.04 1349.88,-32.04 1349.88,-308.04 1349.88,-308.04 1349.88,-314.04 1343.88,-320.04 1337.88,-320.04 1337.88,-320.04 510.77,-320.04 510.77,-320.04 504.77,-320.04 498.77,-314.04 498.77,-308.04 498.77,-308.04 498.77,-32.04 498.77,-32.04 498.77,-26.04 504.77,-20.04 510.77,-20.04"/>
<text xml:space="preserve" text-anchor="middle" x="924.32" y="-305.24" font-family="Helvetica,sans-Serif" font-size="12.00">Shared Startup Flow Used By src/Meridian</text>
</g>
<g id="clust4" class="cluster">
<title>cluster_shared_runtime</title>
<path fill="#f0fff4" stroke="#38a169" d="M1458.92,-124.04C1458.92,-124.04 2126.87,-124.04 2126.87,-124.04 2132.87,-124.04 2138.87,-130.04 2138.87,-136.04 2138.87,-136.04 2138.87,-369.04 2138.87,-369.04 2138.87,-375.04 2132.87,-381.04 2126.87,-381.04 2126.87,-381.04 1458.92,-381.04 1458.92,-381.04 1452.92,-381.04 1446.92,-375.04 1446.92,-369.04 1446.92,-369.04 1446.92,-136.04 1446.92,-136.04 1446.92,-130.04 1452.92,-124.04 1458.92,-124.04"/>
<text xml:space="preserve" text-anchor="middle" x="1792.89" y="-366.24" font-family="Helvetica,sans-Serif" font-size="12.00">Shared Runtime Services</text>
</g>
<g id="clust5" class="cluster">
<title>cluster_legend</title>
<path fill="#fafafa" stroke="#666666" d="M54.64,-314.04C54.64,-314.04 162.69,-314.04 162.69,-314.04 168.69,-314.04 174.69,-320.04 174.69,-326.04 174.69,-326.04 174.69,-592.04 174.69,-592.04 174.69,-598.04 168.69,-604.04 162.69,-604.04 162.69,-604.04 54.64,-604.04 54.64,-604.04 48.64,-604.04 42.64,-598.04 42.64,-592.04 42.64,-592.04 42.64,-326.04 42.64,-326.04 42.64,-320.04 48.64,-314.04 54.64,-314.04"/>
<text xml:space="preserve" text-anchor="middle" x="108.67" y="-589.24" font-family="Helvetica,sans-Serif" font-size="12.00">Legend</text>
</g>
<!-- OPERATOR -->
<g id="node1" class="node">
<title>OPERATOR</title>
<ellipse fill="#08427b" stroke="black" cx="108.67" cy="-253.04" rx="39.22" ry="22.63"/>
<text xml:space="preserve" text-anchor="middle" x="108.67" y="-256.04" font-family="Helvetica,sans-Serif" font-size="10.00" fill="white">Operator</text>
<text xml:space="preserve" text-anchor="middle" x="108.67" y="-244.04" font-family="Helvetica,sans-Serif" font-size="10.00" fill="white">[Person]</text>
</g>
<!-- MAIN_APP -->
<g id="node4" class="node">
<title>MAIN_APP</title>
<path fill="#438dd5" stroke="black" d="M439.15,-306.04C439.15,-306.04 356,-306.04 356,-306.04 350,-306.04 344,-300.04 344,-294.04 344,-294.04 344,-274.04 344,-274.04 344,-268.04 350,-262.04 356,-262.04 356,-262.04 439.15,-262.04 439.15,-262.04 445.15,-262.04 451.15,-268.04 451.15,-274.04 451.15,-274.04 451.15,-294.04 451.15,-294.04 451.15,-300.04 445.15,-306.04 439.15,-306.04"/>
<text xml:space="preserve" text-anchor="middle" x="397.57" y="-293.04" font-family="Helvetica,sans-Serif" font-size="10.00" fill="white">src/Meridian</text>
<text xml:space="preserve" text-anchor="middle" x="397.57" y="-281.04" font-family="Helvetica,sans-Serif" font-size="10.00" fill="white">CLI / composite host</text>
<text xml:space="preserve" text-anchor="middle" x="397.57" y="-269.04" font-family="Helvetica,sans-Serif" font-size="10.00" fill="white">Program.cs</text>
</g>
<!-- OPERATOR&#45;&gt;MAIN_APP -->
<g id="edge1" class="edge">
<title>OPERATOR&#45;&gt;MAIN_APP</title>
<path fill="none" stroke="#4a5568" d="M147.47,-257.12C194.45,-262.2 275.34,-270.94 332.17,-277.08"/>
<polygon fill="#4a5568" stroke="#4a5568" points="331.73,-280.55 342.05,-278.15 332.49,-273.6 331.73,-280.55"/>
<text xml:space="preserve" text-anchor="middle" x="263.36" y="-276.71" font-family="Helvetica,sans-Serif" font-size="9.00">CLI / make targets</text>
</g>
<!-- WPF_APP -->
<g id="node6" class="node">
<title>WPF_APP</title>
<path fill="#805ad5" stroke="black" d="M455.26,-244.04C455.26,-244.04 339.88,-244.04 339.88,-244.04 333.88,-244.04 327.88,-238.04 327.88,-232.04 327.88,-232.04 327.88,-212.04 327.88,-212.04 327.88,-206.04 333.88,-200.04 339.88,-200.04 339.88,-200.04 455.26,-200.04 455.26,-200.04 461.26,-200.04 467.26,-206.04 467.26,-212.04 467.26,-212.04 467.26,-232.04 467.26,-232.04 467.26,-238.04 461.26,-244.04 455.26,-244.04"/>
<text xml:space="preserve" text-anchor="middle" x="397.57" y="-231.04" font-family="Helvetica,sans-Serif" font-size="10.00" fill="white">src/Meridian.Wpf</text>
<text xml:space="preserve" text-anchor="middle" x="397.57" y="-219.04" font-family="Helvetica,sans-Serif" font-size="10.00" fill="white">Windows workstation shell</text>
<text xml:space="preserve" text-anchor="middle" x="397.57" y="-207.04" font-family="Helvetica,sans-Serif" font-size="10.00" fill="white">App.xaml.cs DI composition</text>
</g>
<!-- OPERATOR&#45;&gt;WPF_APP -->
<g id="edge2" class="edge">
<title>OPERATOR&#45;&gt;WPF_APP</title>
<path fill="none" stroke="#4a5568" d="M147.47,-248.96C190.25,-244.33 261.15,-236.67 316.4,-230.7"/>
<polygon fill="#4a5568" stroke="#4a5568" points="316.51,-234.21 326.07,-229.66 315.76,-227.25 316.51,-234.21"/>
<text xml:space="preserve" text-anchor="middle" x="263.36" y="-243.02" font-family="Helvetica,sans-Serif" font-size="9.00">Windows desktop app</text>
</g>
<!-- BROWSER -->
<g id="node2" class="node">
<title>BROWSER</title>
<ellipse fill="#08427b" stroke="black" cx="108.67" cy="-127.04" rx="54.14" ry="22.63"/>
<text xml:space="preserve" text-anchor="middle" x="108.67" y="-130.04" font-family="Helvetica,sans-Serif" font-size="10.00" fill="white">Browser User</text>
<text xml:space="preserve" text-anchor="middle" x="108.67" y="-118.04" font-family="Helvetica,sans-Serif" font-size="10.00" fill="white">[Person]</text>
</g>
<!-- WEB_APP -->
<g id="node5" class="node">
<title>WEB_APP</title>
<path fill="#805ad5" stroke="black" d="M433.59,-182.04C433.59,-182.04 361.56,-182.04 361.56,-182.04 355.56,-182.04 349.56,-176.04 349.56,-170.04 349.56,-170.04 349.56,-150.04 349.56,-150.04 349.56,-144.04 355.56,-138.04 361.56,-138.04 361.56,-138.04 433.59,-138.04 433.59,-138.04 439.59,-138.04 445.59,-144.04 445.59,-150.04 445.59,-150.04 445.59,-170.04 445.59,-170.04 445.59,-176.04 439.59,-182.04 433.59,-182.04"/>
<text xml:space="preserve" text-anchor="middle" x="397.57" y="-169.04" font-family="Helvetica,sans-Serif" font-size="10.00" fill="white">src/Meridian.Ui</text>
<text xml:space="preserve" text-anchor="middle" x="397.57" y="-157.04" font-family="Helvetica,sans-Serif" font-size="10.00" fill="white">Thin web host</text>
<text xml:space="preserve" text-anchor="middle" x="397.57" y="-145.04" font-family="Helvetica,sans-Serif" font-size="10.00" fill="white">BuildUiHost() only</text>
</g>
<!-- BROWSER&#45;&gt;WEB_APP -->
<g id="edge3" class="edge">
<title>BROWSER&#45;&gt;WEB_APP</title>
<path fill="none" stroke="#4a5568" d="M161.29,-132.98C210.94,-138.69 285.9,-147.31 337.81,-153.28"/>
<polygon fill="#4a5568" stroke="#4a5568" points="337.33,-156.75 347.67,-154.42 338.13,-149.8 337.33,-156.75"/>
<text xml:space="preserve" text-anchor="middle" x="263.36" y="-152.07" font-family="Helvetica,sans-Serif" font-size="9.00">standalone web host</text>
</g>
<!-- DASHBOARD_BRIDGE -->
<g id="node16" class="node">
<title>DASHBOARD_BRIDGE</title>
<path fill="#c4b5fd" stroke="black" d="M1584.53,-176.04C1584.53,-176.04 1468.03,-176.04 1468.03,-176.04 1462.03,-176.04 1456.03,-170.04 1456.03,-164.04 1456.03,-164.04 1456.03,-144.04 1456.03,-144.04 1456.03,-138.04 1462.03,-132.04 1468.03,-132.04 1468.03,-132.04 1584.53,-132.04 1584.53,-132.04 1590.53,-132.04 1596.53,-138.04 1596.53,-144.04 1596.53,-144.04 1596.53,-164.04 1596.53,-164.04 1596.53,-170.04 1590.53,-176.04 1584.53,-176.04"/>
<text xml:space="preserve" text-anchor="middle" x="1526.28" y="-163.04" font-family="Helvetica,sans-Serif" font-size="10.00">DashboardServerBridge</text>
<text xml:space="preserve" text-anchor="middle" x="1526.28" y="-151.04" font-family="Helvetica,sans-Serif" font-size="10.00">Embedded ASP.NET server</text>
<text xml:space="preserve" text-anchor="middle" x="1526.28" y="-139.04" font-family="Helvetica,sans-Serif" font-size="10.00">localhost dashboard</text>
</g>
<!-- BROWSER&#45;&gt;DASHBOARD_BRIDGE -->
<g id="edge4" class="edge">
<title>BROWSER&#45;&gt;DASHBOARD_BRIDGE</title>
<path fill="none" stroke="#4a5568" d="M135.26,-106.92C183.46,-71.11 292.26,-0.04 396.57,-0.04 396.57,-0.04 396.57,-0.04 1263.04,-0.04 1302.28,-0.04 1314.12,0.12 1349.88,-16.04 1407.98,-42.3 1463.86,-91.82 1496.37,-123.84"/>
<polygon fill="#4a5568" stroke="#4a5568" points="1493.5,-125.92 1503.05,-130.52 1498.45,-120.97 1493.5,-125.92"/>
<text xml:space="preserve" text-anchor="middle" x="737.04" y="-2.74" font-family="Helvetica,sans-Serif" font-size="9.00">embedded dashboard</text>
</g>
<!-- MCP_HOST -->
<g id="node3" class="node">
<title>MCP_HOST</title>
<ellipse fill="#08427b" stroke="black" cx="108.67" cy="-190.04" rx="92.67" ry="22.63"/>
<text xml:space="preserve" text-anchor="middle" x="108.67" y="-193.04" font-family="Helvetica,sans-Serif" font-size="10.00" fill="white">MCP Host</text>
<text xml:space="preserve" text-anchor="middle" x="108.67" y="-181.04" font-family="Helvetica,sans-Serif" font-size="10.00" fill="white">[Claude / Cursor / Copilot]</text>
</g>
<!-- MCP_REPO -->
<g id="node7" class="node">
<title>MCP_REPO</title>
<path fill="#2c7a7b" stroke="black" d="M457.77,-120.04C457.77,-120.04 337.38,-120.04 337.38,-120.04 331.38,-120.04 325.38,-114.04 325.38,-108.04 325.38,-108.04 325.38,-88.04 325.38,-88.04 325.38,-82.04 331.38,-76.04 337.38,-76.04 337.38,-76.04 457.77,-76.04 457.77,-76.04 463.77,-76.04 469.77,-82.04 469.77,-88.04 469.77,-88.04 469.77,-108.04 469.77,-108.04 469.77,-114.04 463.77,-120.04 457.77,-120.04"/>
<text xml:space="preserve" text-anchor="middle" x="397.57" y="-107.04" font-family="Helvetica,sans-Serif" font-size="10.00" fill="white">src/Meridian.Mcp</text>
<text xml:space="preserve" text-anchor="middle" x="397.57" y="-95.04" font-family="Helvetica,sans-Serif" font-size="10.00" fill="white">Repo&#45;navigation MCP server</text>
<text xml:space="preserve" text-anchor="middle" x="397.57" y="-83.04" font-family="Helvetica,sans-Serif" font-size="10.00" fill="white">stdio transport</text>
</g>
<!-- MCP_HOST&#45;&gt;MCP_REPO -->
<g id="edge5" class="edge">
<title>MCP_HOST&#45;&gt;MCP_REPO</title>
<path fill="none" stroke="#4a5568" d="M183.25,-176.36C192.91,-172.06 201.98,-166.43 209.33,-159.04 220.08,-148.23 207.84,-136.25 219.33,-126.24 244.98,-103.91 280.97,-95.5 313.82,-93.19"/>
<polygon fill="#4a5568" stroke="#4a5568" points="313.97,-96.69 323.78,-92.69 313.62,-89.69 313.97,-96.69"/>
<text xml:space="preserve" text-anchor="middle" x="263.36" y="-128.94" font-family="Helvetica,sans-Serif" font-size="9.00">repo tools</text>
</g>
<!-- MCP_MARKET -->
<g id="node8" class="node">
<title>MCP_MARKET</title>
<path fill="#2c7a7b" stroke="black" d="M448.03,-368.04C448.03,-368.04 347.12,-368.04 347.12,-368.04 341.12,-368.04 335.12,-362.04 335.12,-356.04 335.12,-356.04 335.12,-336.04 335.12,-336.04 335.12,-330.04 341.12,-324.04 347.12,-324.04 347.12,-324.04 448.03,-324.04 448.03,-324.04 454.03,-324.04 460.03,-330.04 460.03,-336.04 460.03,-336.04 460.03,-356.04 460.03,-356.04 460.03,-362.04 454.03,-368.04 448.03,-368.04"/>
<text xml:space="preserve" text-anchor="middle" x="397.57" y="-355.04" font-family="Helvetica,sans-Serif" font-size="10.00" fill="white">src/Meridian.McpServer</text>
<text xml:space="preserve" text-anchor="middle" x="397.57" y="-343.04" font-family="Helvetica,sans-Serif" font-size="10.00" fill="white">Market&#45;data MCP server</text>
<text xml:space="preserve" text-anchor="middle" x="397.57" y="-331.04" font-family="Helvetica,sans-Serif" font-size="10.00" fill="white">stdio transport</text>
</g>
<!-- MCP_HOST&#45;&gt;MCP_MARKET -->
<g id="edge6" class="edge">
<title>MCP_HOST&#45;&gt;MCP_MARKET</title>
<path fill="none" stroke="#4a5568" d="M185.03,-203.12C194.26,-207.51 202.73,-213.33 209.33,-221.04 229.19,-244.25 199.59,-265.73 219.33,-289.04 245.08,-319.44 287.12,-333.78 323.8,-340.48"/>
<polygon fill="#4a5568" stroke="#4a5568" points="323.05,-343.9 333.49,-342.07 324.19,-336.99 323.05,-343.9"/>
<text xml:space="preserve" text-anchor="middle" x="263.36" y="-339.08" font-family="Helvetica,sans-Serif" font-size="9.00">provider tools</text>
</g>
<!-- BOOTSTRAPPER -->
<g id="node9" class="node">
<title>BOOTSTRAPPER</title>
<path fill="#bfdbfe" stroke="black" d="M632.51,-276.04C632.51,-276.04 518.77,-276.04 518.77,-276.04 512.77,-276.04 506.77,-270.04 506.77,-264.04 506.77,-264.04 506.77,-232.04 506.77,-232.04 506.77,-226.04 512.77,-220.04 518.77,-220.04 518.77,-220.04 632.51,-220.04 632.51,-220.04 638.51,-220.04 644.51,-226.04 644.51,-232.04 644.51,-232.04 644.51,-264.04 644.51,-264.04 644.51,-270.04 638.51,-276.04 632.51,-276.04"/>
<text xml:space="preserve" text-anchor="middle" x="575.64" y="-263.04" font-family="Helvetica,sans-Serif" font-size="10.00">SharedStartupBootstrapper</text>
<text xml:space="preserve" text-anchor="middle" x="575.64" y="-251.04" font-family="Helvetica,sans-Serif" font-size="10.00">Resolve config path</text>
<text xml:space="preserve" text-anchor="middle" x="575.64" y="-239.04" font-family="Helvetica,sans-Serif" font-size="10.00">Load minimal config</text>
<text xml:space="preserve" text-anchor="middle" x="575.64" y="-227.04" font-family="Helvetica,sans-Serif" font-size="10.00">Resolve deployment</text>
</g>
<!-- MAIN_APP&#45;&gt;BOOTSTRAPPER -->
<g id="edge7" class="edge">
<title>MAIN_APP&#45;&gt;BOOTSTRAPPER</title>
<path fill="none" stroke="#4a5568" d="M451.4,-273.24C465.2,-270.42 480.39,-267.31 495.24,-264.27"/>
<polygon fill="#4a5568" stroke="#4a5568" points="495.93,-267.71 505.02,-262.27 494.53,-260.85 495.93,-267.71"/>
</g>
<!-- UI_SHARED -->
<g id="node17" class="node">
<title>UI_SHARED</title>
<path fill="#ddd6fe" stroke="black" d="M1881.88,-304.04C1881.88,-304.04 1785.36,-304.04 1785.36,-304.04 1779.36,-304.04 1773.36,-298.04 1773.36,-292.04 1773.36,-292.04 1773.36,-260.04 1773.36,-260.04 1773.36,-254.04 1779.36,-248.04 1785.36,-248.04 1785.36,-248.04 1881.88,-248.04 1881.88,-248.04 1887.88,-248.04 1893.88,-254.04 1893.88,-260.04 1893.88,-260.04 1893.88,-292.04 1893.88,-292.04 1893.88,-298.04 1887.88,-304.04 1881.88,-304.04"/>
<text xml:space="preserve" text-anchor="middle" x="1833.62" y="-291.04" font-family="Helvetica,sans-Serif" font-size="10.00">Meridian.Ui.Shared</text>
<text xml:space="preserve" text-anchor="middle" x="1833.62" y="-279.04" font-family="Helvetica,sans-Serif" font-size="10.00">BuildUiHost()</text>
<text xml:space="preserve" text-anchor="middle" x="1833.62" y="-267.04" font-family="Helvetica,sans-Serif" font-size="10.00">shared endpoints, auth,</text>
<text xml:space="preserve" text-anchor="middle" x="1833.62" y="-255.04" font-family="Helvetica,sans-Serif" font-size="10.00">workstation APIs</text>
</g>
<!-- WEB_APP&#45;&gt;UI_SHARED -->
<g id="edge17" class="edge">
<title>WEB_APP&#45;&gt;UI_SHARED</title>
<path fill="none" stroke="#4a5568" d="M446.02,-169.64C458,-174.24 469.72,-181.03 477.77,-191.04 515.26,-237.68 468.56,-272.38 498.77,-324.04 520.47,-361.15 531.65,-384.04 574.64,-384.04 574.64,-384.04 574.64,-384.04 1527.28,-384.04 1623.01,-384.04 1638.7,-340.27 1729.2,-309.04 1739.82,-305.37 1751.1,-301.63 1762.17,-298.03"/>
<polygon fill="#4a5568" stroke="#4a5568" points="1763.24,-301.36 1771.68,-294.96 1761.09,-294.7 1763.24,-301.36"/>
<text xml:space="preserve" text-anchor="middle" x="1003.88" y="-386.74" font-family="Helvetica,sans-Serif" font-size="9.00">same endpoint module</text>
</g>
<!-- BACKFILL_SERVICES -->
<g id="node21" class="node">
<title>BACKFILL_SERVICES</title>
<path fill="#d1fae5" stroke="black" d="M1585.65,-340.04C1585.65,-340.04 1466.92,-340.04 1466.92,-340.04 1460.92,-340.04 1454.92,-334.04 1454.92,-328.04 1454.92,-328.04 1454.92,-308.04 1454.92,-308.04 1454.92,-302.04 1460.92,-296.04 1466.92,-296.04 1466.92,-296.04 1585.65,-296.04 1585.65,-296.04 1591.65,-296.04 1597.65,-302.04 1597.65,-308.04 1597.65,-308.04 1597.65,-328.04 1597.65,-328.04 1597.65,-334.04 1591.65,-340.04 1585.65,-340.04"/>
<text xml:space="preserve" text-anchor="middle" x="1526.28" y="-327.04" font-family="Helvetica,sans-Serif" font-size="10.00">HistoricalBackfillService</text>
<text xml:space="preserve" text-anchor="middle" x="1526.28" y="-315.04" font-family="Helvetica,sans-Serif" font-size="10.00">BackfillCoordinator</text>
<text xml:space="preserve" text-anchor="middle" x="1526.28" y="-303.04" font-family="Helvetica,sans-Serif" font-size="10.00">composite provider selection</text>
</g>
<!-- MCP_MARKET&#45;&gt;BACKFILL_SERVICES -->
<g id="edge29" class="edge">
<title>MCP_MARKET&#45;&gt;BACKFILL_SERVICES</title>
<path fill="none" stroke="#2c7a7b" stroke-dasharray="5,2" d="M460.35,-344.85C611.91,-341.87 1014.25,-333.66 1349.88,-324.04 1380.26,-323.17 1413.6,-322.07 1442.98,-321.04"/>
<polygon fill="#2c7a7b" stroke="#2c7a7b" points="1443.07,-324.54 1452.94,-320.69 1442.82,-317.55 1443.07,-324.54"/>
<text xml:space="preserve" text-anchor="middle" x="863.59" y="-340.2" font-family="Helvetica,sans-Serif" font-size="9.00">tool/resource access</text>
</g>
<!-- STORAGE -->
<g id="node22" class="node">
<title>STORAGE</title>
<path fill="#fecaca" stroke="black" d="M2130.87,-328.79C2130.87,-331.83 2108.22,-334.29 2080.34,-334.29 2052.47,-334.29 2029.82,-331.83 2029.82,-328.79 2029.82,-328.79 2029.82,-279.29 2029.82,-279.29 2029.82,-276.26 2052.47,-273.79 2080.34,-273.79 2108.22,-273.79 2130.87,-276.26 2130.87,-279.29 2130.87,-279.29 2130.87,-328.79 2130.87,-328.79"/>
<path fill="none" stroke="black" d="M2130.87,-328.79C2130.87,-325.76 2108.22,-323.29 2080.34,-323.29 2052.47,-323.29 2029.82,-325.76 2029.82,-328.79"/>
<text xml:space="preserve" text-anchor="middle" x="2080.34" y="-313.04" font-family="Helvetica,sans-Serif" font-size="10.00">data/</text>
<text xml:space="preserve" text-anchor="middle" x="2080.34" y="-301.04" font-family="Helvetica,sans-Serif" font-size="10.00">JSONL, Parquet,</text>
<text xml:space="preserve" text-anchor="middle" x="2080.34" y="-289.04" font-family="Helvetica,sans-Serif" font-size="10.00">checkpoints, status</text>
</g>
<!-- MCP_MARKET&#45;&gt;STORAGE -->
<g id="edge30" class="edge">
<title>MCP_MARKET&#45;&gt;STORAGE</title>
<path fill="none" stroke="#2c7a7b" stroke-dasharray="5,2" d="M428.94,-368.52C462.71,-391.25 519.76,-423.04 574.64,-423.04 574.64,-423.04 574.64,-423.04 1834.62,-423.04 1911.02,-423.04 1988.56,-375.55 2035.3,-340.57"/>
<polygon fill="#2c7a7b" stroke="#2c7a7b" points="2037.2,-343.53 2043.03,-334.68 2032.96,-337.96 2037.2,-343.53"/>
<text xml:space="preserve" text-anchor="middle" x="1127.67" y="-425.74" font-family="Helvetica,sans-Serif" font-size="9.00">catalog / inventory</text>
</g>
<!-- ORCHESTRATOR -->
<g id="node10" class="node">
<title>ORCHESTRATOR</title>
<path fill="#93c5fd" stroke="black" d="M780.56,-223.04C780.56,-223.04 693.51,-223.04 693.51,-223.04 687.51,-223.04 681.51,-217.04 681.51,-211.04 681.51,-211.04 681.51,-167.04 681.51,-167.04 681.51,-161.04 687.51,-155.04 693.51,-155.04 693.51,-155.04 780.56,-155.04 780.56,-155.04 786.56,-155.04 792.56,-161.04 792.56,-167.04 792.56,-167.04 792.56,-211.04 792.56,-211.04 792.56,-217.04 786.56,-223.04 780.56,-223.04"/>
<text xml:space="preserve" text-anchor="middle" x="737.04" y="-210.04" font-family="Helvetica,sans-Serif" font-size="10.00">StartupOrchestrator</text>
<text xml:space="preserve" text-anchor="middle" x="737.04" y="-198.04" font-family="Helvetica,sans-Serif" font-size="10.00">1. command dispatch</text>
<text xml:space="preserve" text-anchor="middle" x="737.04" y="-186.04" font-family="Helvetica,sans-Serif" font-size="10.00">2. web mode</text>
<text xml:space="preserve" text-anchor="middle" x="737.04" y="-174.04" font-family="Helvetica,sans-Serif" font-size="10.00">3. validation</text>
<text xml:space="preserve" text-anchor="middle" x="737.04" y="-162.04" font-family="Helvetica,sans-Serif" font-size="10.00">4. runtime selection</text>
</g>
<!-- BOOTSTRAPPER&#45;&gt;ORCHESTRATOR -->
<g id="edge8" class="edge">
<title>BOOTSTRAPPER&#45;&gt;ORCHESTRATOR</title>
<path fill="none" stroke="#4a5568" d="M644.7,-222.85C653.27,-219.68 662.02,-216.44 670.55,-213.28"/>
<polygon fill="#4a5568" stroke="#4a5568" points="671.61,-216.62 679.78,-209.86 669.18,-210.05 671.61,-216.62"/>
</g>
<!-- COMMAND_MODE -->
<g id="node11" class="node">
<title>COMMAND_MODE</title>
<path fill="#feebc8" stroke="black" d="M1051.85,-72.04C1051.85,-72.04 955.91,-72.04 955.91,-72.04 949.91,-72.04 943.91,-66.04 943.91,-60.04 943.91,-60.04 943.91,-40.04 943.91,-40.04 943.91,-34.04 949.91,-28.04 955.91,-28.04 955.91,-28.04 1051.85,-28.04 1051.85,-28.04 1057.85,-28.04 1063.85,-34.04 1063.85,-40.04 1063.85,-40.04 1063.85,-60.04 1063.85,-60.04 1063.85,-66.04 1057.85,-72.04 1051.85,-72.04"/>
<text xml:space="preserve" text-anchor="middle" x="1003.88" y="-59.04" font-family="Helvetica,sans-Serif" font-size="10.00">CommandModeRunner</text>
<text xml:space="preserve" text-anchor="middle" x="1003.88" y="-47.04" font-family="Helvetica,sans-Serif" font-size="10.00">help, config, symbols,</text>
<text xml:space="preserve" text-anchor="middle" x="1003.88" y="-35.04" font-family="Helvetica,sans-Serif" font-size="10.00">validation, packaging</text>
</g>
<!-- ORCHESTRATOR&#45;&gt;COMMAND_MODE -->
<g id="edge9" class="edge">
<title>ORCHESTRATOR&#45;&gt;COMMAND_MODE</title>
<path fill="none" stroke="#4a5568" d="M763.91,-154.67C776.57,-139.86 792.89,-123.41 810.56,-112.24 847.69,-88.79 894.48,-73.4 932.61,-63.8"/>
<polygon fill="#4a5568" stroke="#4a5568" points="933.27,-67.24 942.16,-61.48 931.62,-60.44 933.27,-67.24"/>
<text xml:space="preserve" text-anchor="middle" x="863.59" y="-114.94" font-family="Helvetica,sans-Serif" font-size="9.00">phase 1</text>
</g>
<!-- WEB_MODE -->
<g id="node12" class="node">
<title>WEB_MODE</title>
<path fill="#ddd6fe" stroke="black" d="M1050.74,-134.04C1050.74,-134.04 957.03,-134.04 957.03,-134.04 951.03,-134.04 945.03,-128.04 945.03,-122.04 945.03,-122.04 945.03,-102.04 945.03,-102.04 945.03,-96.04 951.03,-90.04 957.03,-90.04 957.03,-90.04 1050.74,-90.04 1050.74,-90.04 1056.74,-90.04 1062.74,-96.04 1062.74,-102.04 1062.74,-102.04 1062.74,-122.04 1062.74,-122.04 1062.74,-128.04 1056.74,-134.04 1050.74,-134.04"/>
<text xml:space="preserve" text-anchor="middle" x="1003.88" y="-121.04" font-family="Helvetica,sans-Serif" font-size="10.00">WebModeRunner</text>
<text xml:space="preserve" text-anchor="middle" x="1003.88" y="-109.04" font-family="Helvetica,sans-Serif" font-size="10.00">DeploymentMode.Web</text>
<text xml:space="preserve" text-anchor="middle" x="1003.88" y="-97.04" font-family="Helvetica,sans-Serif" font-size="10.00">HTTP&#45;only dashboard</text>
</g>
<!-- ORCHESTRATOR&#45;&gt;WEB_MODE -->
<g id="edge10" class="edge">
<title>ORCHESTRATOR&#45;&gt;WEB_MODE</title>
<path fill="none" stroke="#4a5568" d="M792.92,-161.09C798.8,-158.58 804.75,-156.24 810.56,-154.24 850.4,-140.52 896.45,-130.23 933.51,-123.25"/>
<polygon fill="#4a5568" stroke="#4a5568" points="934.01,-126.71 943.21,-121.46 932.74,-119.83 934.01,-126.71"/>
<text xml:space="preserve" text-anchor="middle" x="863.59" y="-156.94" font-family="Helvetica,sans-Serif" font-size="9.00">DeploymentMode.Web</text>
</g>
<!-- DESKTOP_MODE -->
<g id="node13" class="node">
<title>DESKTOP_MODE</title>
<path fill="#ddd6fe" stroke="black" d="M1061.15,-243.04C1061.15,-243.04 946.61,-243.04 946.61,-243.04 940.61,-243.04 934.61,-237.04 934.61,-231.04 934.61,-231.04 934.61,-211.04 934.61,-211.04 934.61,-205.04 940.61,-199.04 946.61,-199.04 946.61,-199.04 1061.15,-199.04 1061.15,-199.04 1067.15,-199.04 1073.15,-205.04 1073.15,-211.04 1073.15,-211.04 1073.15,-231.04 1073.15,-231.04 1073.15,-237.04 1067.15,-243.04 1061.15,-243.04"/>
<text xml:space="preserve" text-anchor="middle" x="1003.88" y="-230.04" font-family="Helvetica,sans-Serif" font-size="10.00">DesktopModeRunner</text>
<text xml:space="preserve" text-anchor="middle" x="1003.88" y="-218.04" font-family="Helvetica,sans-Serif" font-size="10.00">DeploymentMode.Desktop</text>
<text xml:space="preserve" text-anchor="middle" x="1003.88" y="-206.04" font-family="Helvetica,sans-Serif" font-size="10.00">UI server + collector/backfill</text>
</g>
<!-- ORCHESTRATOR&#45;&gt;DESKTOP_MODE -->
<g id="edge11" class="edge">
<title>ORCHESTRATOR&#45;&gt;DESKTOP_MODE</title>
<path fill="none" stroke="#4a5568" d="M792.91,-195.67C830.52,-200.22 881.02,-206.32 923.07,-211.4"/>
<polygon fill="#4a5568" stroke="#4a5568" points="922.56,-214.86 932.9,-212.59 923.4,-207.91 922.56,-214.86"/>
<text xml:space="preserve" text-anchor="middle" x="863.59" y="-212.48" font-family="Helvetica,sans-Serif" font-size="9.00">DeploymentMode.Desktop</text>
</g>
<!-- COLLECTOR_MODE -->
<g id="node14" class="node">
<title>COLLECTOR_MODE</title>
<path fill="#bfdbfe" stroke="black" d="M1329.88,-228.04C1329.88,-228.04 1194.19,-228.04 1194.19,-228.04 1188.19,-228.04 1182.19,-222.04 1182.19,-216.04 1182.19,-216.04 1182.19,-196.04 1182.19,-196.04 1182.19,-190.04 1188.19,-184.04 1194.19,-184.04 1194.19,-184.04 1329.88,-184.04 1329.88,-184.04 1335.88,-184.04 1341.88,-190.04 1341.88,-196.04 1341.88,-196.04 1341.88,-216.04 1341.88,-216.04 1341.88,-222.04 1335.88,-228.04 1329.88,-228.04"/>
<text xml:space="preserve" text-anchor="middle" x="1262.04" y="-215.04" font-family="Helvetica,sans-Serif" font-size="10.00">CollectorModeRunner</text>
<text xml:space="preserve" text-anchor="middle" x="1262.04" y="-203.04" font-family="Helvetica,sans-Serif" font-size="10.00">Default/headless streaming</text>
<text xml:space="preserve" text-anchor="middle" x="1262.04" y="-191.04" font-family="Helvetica,sans-Serif" font-size="10.00">provider connect + subscriptions</text>
</g>
<!-- ORCHESTRATOR&#45;&gt;COLLECTOR_MODE -->
<g id="edge12" class="edge">
<title>ORCHESTRATOR&#45;&gt;COLLECTOR_MODE</title>
<path fill="none" stroke="#4a5568" d="M792.96,-184.07C859.4,-178.84 974.6,-172.25 1073.15,-179.24 1105.06,-181.5 1139.78,-185.91 1170.6,-190.5"/>
<polygon fill="#4a5568" stroke="#4a5568" points="1169.86,-193.92 1180.27,-191.97 1170.91,-187 1169.86,-193.92"/>
<text xml:space="preserve" text-anchor="middle" x="1003.88" y="-181.94" font-family="Helvetica,sans-Serif" font-size="9.00">default/headless</text>
</g>
<!-- BACKFILL_MODE -->
<g id="node15" class="node">
<title>BACKFILL_MODE</title>
<path fill="#bfdbfe" stroke="black" d="M1323.35,-290.04C1323.35,-290.04 1200.72,-290.04 1200.72,-290.04 1194.72,-290.04 1188.72,-284.04 1188.72,-278.04 1188.72,-278.04 1188.72,-258.04 1188.72,-258.04 1188.72,-252.04 1194.72,-246.04 1200.72,-246.04 1200.72,-246.04 1323.35,-246.04 1323.35,-246.04 1329.35,-246.04 1335.35,-252.04 1335.35,-258.04 1335.35,-258.04 1335.35,-278.04 1335.35,-278.04 1335.35,-284.04 1329.35,-290.04 1323.35,-290.04"/>
<text xml:space="preserve" text-anchor="middle" x="1262.04" y="-277.04" font-family="Helvetica,sans-Serif" font-size="10.00">BackfillModeRunner</text>
<text xml:space="preserve" text-anchor="middle" x="1262.04" y="-265.04" font-family="Helvetica,sans-Serif" font-size="10.00">CLI/config backfill</text>
<text xml:space="preserve" text-anchor="middle" x="1262.04" y="-253.04" font-family="Helvetica,sans-Serif" font-size="10.00">checkpointed historical ingest</text>
</g>
<!-- ORCHESTRATOR&#45;&gt;BACKFILL_MODE -->
<g id="edge13" class="edge">
<title>ORCHESTRATOR&#45;&gt;BACKFILL_MODE</title>
<path fill="none" stroke="#4a5568" d="M792.86,-218C798.75,-220.58 804.72,-222.99 810.56,-225.04 932.96,-268 1084.86,-273.43 1177.3,-271.87"/>
<polygon fill="#4a5568" stroke="#4a5568" points="1177.11,-275.38 1187.03,-271.67 1176.96,-268.38 1177.11,-275.38"/>
<text xml:space="preserve" text-anchor="middle" x="1003.88" y="-272.77" font-family="Helvetica,sans-Serif" font-size="9.00">&#45;&#45;backfill or config</text>
</g>
<!-- WEB_MODE&#45;&gt;DASHBOARD_BRIDGE -->
<g id="edge14" class="edge">
<title>WEB_MODE&#45;&gt;DASHBOARD_BRIDGE</title>
<path fill="none" stroke="#4a5568" d="M1063.06,-116.74C1156.21,-124.25 1339.05,-139.01 1444.71,-147.54"/>
<polygon fill="#4a5568" stroke="#4a5568" points="1444.19,-151.01 1454.44,-148.32 1444.75,-144.03 1444.19,-151.01"/>
<text xml:space="preserve" text-anchor="middle" x="1262.04" y="-141.96" font-family="Helvetica,sans-Serif" font-size="9.00">start UI server</text>
</g>
<!-- DESKTOP_MODE&#45;&gt;COLLECTOR_MODE -->
<g id="edge18" class="edge">
<title>DESKTOP_MODE&#45;&gt;COLLECTOR_MODE</title>
<path fill="none" stroke="#4a5568" d="M1073.53,-217.02C1103.36,-215.27 1138.71,-213.2 1170.63,-211.33"/>
<polygon fill="#4a5568" stroke="#4a5568" points="1170.48,-214.85 1180.26,-210.77 1170.07,-207.86 1170.48,-214.85"/>
<text xml:space="preserve" text-anchor="middle" x="1127.67" y="-218.46" font-family="Helvetica,sans-Serif" font-size="9.00">normal desktop</text>
</g>
<!-- DESKTOP_MODE&#45;&gt;BACKFILL_MODE -->
<g id="edge19" class="edge">
<title>DESKTOP_MODE&#45;&gt;BACKFILL_MODE</title>
<path fill="none" stroke="#4a5568" d="M1073.53,-233.64C1105.48,-239.5 1143.78,-246.53 1177.41,-252.7"/>
<polygon fill="#4a5568" stroke="#4a5568" points="1176.66,-256.12 1187.13,-254.48 1177.93,-249.23 1176.66,-256.12"/>
<text xml:space="preserve" text-anchor="middle" x="1127.67" y="-252.83" font-family="Helvetica,sans-Serif" font-size="9.00">desktop backfill</text>
</g>
<!-- DESKTOP_MODE&#45;&gt;DASHBOARD_BRIDGE -->
<g id="edge15" class="edge">
<title>DESKTOP_MODE&#45;&gt;DASHBOARD_BRIDGE</title>
<path fill="none" stroke="#4a5568" d="M1064.53,-198.56C1067.48,-197.11 1070.37,-195.6 1073.15,-194.04 1126.02,-164.46 1124.72,-131.4 1182.19,-112.24 1273.56,-81.78 1385.23,-105.95 1455.82,-128.22"/>
<polygon fill="#4a5568" stroke="#4a5568" points="1454.33,-131.41 1464.92,-131.16 1456.48,-124.75 1454.33,-131.41"/>
<text xml:space="preserve" text-anchor="middle" x="1262.04" y="-114.94" font-family="Helvetica,sans-Serif" font-size="9.00">start UI server</text>
</g>
<!-- HOST_FACTORY -->
<g id="node18" class="node">
<title>HOST_FACTORY</title>
<path fill="#a7f3d0" stroke="black" d="M1565.64,-238.04C1565.64,-238.04 1486.92,-238.04 1486.92,-238.04 1480.92,-238.04 1474.92,-232.04 1474.92,-226.04 1474.92,-226.04 1474.92,-206.04 1474.92,-206.04 1474.92,-200.04 1480.92,-194.04 1486.92,-194.04 1486.92,-194.04 1565.64,-194.04 1565.64,-194.04 1571.64,-194.04 1577.64,-200.04 1577.64,-206.04 1577.64,-206.04 1577.64,-226.04 1577.64,-226.04 1577.64,-232.04 1571.64,-238.04 1565.64,-238.04"/>
<text xml:space="preserve" text-anchor="middle" x="1526.28" y="-225.04" font-family="Helvetica,sans-Serif" font-size="10.00">HostStartupFactory</text>
<text xml:space="preserve" text-anchor="middle" x="1526.28" y="-213.04" font-family="Helvetica,sans-Serif" font-size="10.00">providers, storage,</text>
<text xml:space="preserve" text-anchor="middle" x="1526.28" y="-201.04" font-family="Helvetica,sans-Serif" font-size="10.00">pipeline, monitoring</text>
</g>
<!-- COLLECTOR_MODE&#45;&gt;HOST_FACTORY -->
<g id="edge20" class="edge">
<title>COLLECTOR_MODE&#45;&gt;HOST_FACTORY</title>
<path fill="none" stroke="#4a5568" d="M1342.07,-209.05C1380.86,-210.53 1426.9,-212.29 1463.13,-213.67"/>
<polygon fill="#4a5568" stroke="#4a5568" points="1462.88,-217.16 1473.01,-214.05 1463.15,-210.17 1462.88,-217.16"/>
<text xml:space="preserve" text-anchor="middle" x="1398.4" y="-215.22" font-family="Helvetica,sans-Serif" font-size="9.00">create runtime host</text>
</g>
<!-- BACKFILL_MODE&#45;&gt;HOST_FACTORY -->
<g id="edge21" class="edge">
<title>BACKFILL_MODE&#45;&gt;HOST_FACTORY</title>
<path fill="none" stroke="#4a5568" d="M1335.74,-253.62C1375.89,-245.66 1425.22,-235.88 1463.49,-228.29"/>
<polygon fill="#4a5568" stroke="#4a5568" points="1463.87,-231.79 1472.99,-226.41 1462.5,-224.92 1463.87,-231.79"/>
<text xml:space="preserve" text-anchor="middle" x="1398.4" y="-250.93" font-family="Helvetica,sans-Serif" font-size="9.00">create runtime host</text>
</g>
<!-- BACKFILL_MODE&#45;&gt;BACKFILL_SERVICES -->
<g id="edge22" class="edge">
<title>BACKFILL_MODE&#45;&gt;BACKFILL_SERVICES</title>
<path fill="none" stroke="#4a5568" d="M1335.74,-281.9C1369.25,-288.29 1409.16,-295.9 1443.69,-302.48"/>
<polygon fill="#4a5568" stroke="#4a5568" points="1442.74,-305.87 1453.22,-304.3 1444.05,-298.99 1442.74,-305.87"/>
<text xml:space="preserve" text-anchor="middle" x="1398.4" y="-303.14" font-family="Helvetica,sans-Serif" font-size="9.00">run historical jobs</text>
</g>
<!-- DASHBOARD_BRIDGE&#45;&gt;UI_SHARED -->
<g id="edge16" class="edge">
<title>DASHBOARD_BRIDGE&#45;&gt;UI_SHARED</title>
<path fill="none" stroke="#4a5568" d="M1581.27,-176.51C1617.95,-191.83 1667.56,-212.63 1711.2,-231.24 1719.22,-234.66 1721.09,-235.84 1729.2,-239.04 1739.88,-243.26 1751.27,-247.55 1762.43,-251.63"/>
<polygon fill="#4a5568" stroke="#4a5568" points="1761.01,-254.84 1771.61,-254.96 1763.4,-248.26 1761.01,-254.84"/>
<text xml:space="preserve" text-anchor="middle" x="1663.42" y="-233.94" font-family="Helvetica,sans-Serif" font-size="9.00">shared web surface</text>
</g>
<!-- PIPELINE -->
<g id="node19" class="node">
<title>PIPELINE</title>
<path fill="#d1fae5" stroke="black" d="M1926.05,-230.04C1926.05,-230.04 1741.2,-230.04 1741.2,-230.04 1735.2,-230.04 1729.2,-224.04 1729.2,-218.04 1729.2,-218.04 1729.2,-206.04 1729.2,-206.04 1729.2,-200.04 1735.2,-194.04 1741.2,-194.04 1741.2,-194.04 1926.05,-194.04 1926.05,-194.04 1932.05,-194.04 1938.05,-200.04 1938.05,-206.04 1938.05,-206.04 1938.05,-218.04 1938.05,-218.04 1938.05,-224.04 1932.05,-230.04 1926.05,-230.04"/>
<text xml:space="preserve" text-anchor="middle" x="1833.62" y="-215.04" font-family="Helvetica,sans-Serif" font-size="10.00">EventPipeline + WAL</text>
<text xml:space="preserve" text-anchor="middle" x="1833.62" y="-203.04" font-family="Helvetica,sans-Serif" font-size="10.00">RecoverAsync / PublishAsync / FlushAsync</text>
</g>
<!-- HOST_FACTORY&#45;&gt;PIPELINE -->
<g id="edge23" class="edge">
<title>HOST_FACTORY&#45;&gt;PIPELINE</title>
<path fill="none" stroke="#4a5568" d="M1578.04,-215.38C1615.96,-214.88 1669.3,-214.18 1717.37,-213.55"/>
<polygon fill="#4a5568" stroke="#4a5568" points="1717.36,-217.05 1727.31,-213.42 1717.26,-210.05 1717.36,-217.05"/>
</g>
<!-- STATUS_WRITER -->
<g id="node20" class="node">
<title>STATUS_WRITER</title>
<polygon fill="#feebc8" stroke="black" points="1877.03,-176.04 1784.21,-176.04 1784.21,-132.04 1883.03,-132.04 1883.03,-170.04 1877.03,-176.04"/>
<polyline fill="none" stroke="black" points="1877.03,-176.04 1877.03,-170.04"/>
<polyline fill="none" stroke="black" points="1883.03,-170.04 1877.03,-170.04"/>
<text xml:space="preserve" text-anchor="middle" x="1833.62" y="-163.04" font-family="Helvetica,sans-Serif" font-size="10.00">StatusWriter</text>
<text xml:space="preserve" text-anchor="middle" x="1833.62" y="-151.04" font-family="Helvetica,sans-Serif" font-size="10.00">_status/status.json</text>
<text xml:space="preserve" text-anchor="middle" x="1833.62" y="-139.04" font-family="Helvetica,sans-Serif" font-size="10.00">health snapshots</text>
</g>
<!-- HOST_FACTORY&#45;&gt;STATUS_WRITER -->
<g id="edge24" class="edge">
<title>HOST_FACTORY&#45;&gt;STATUS_WRITER</title>
<path fill="none" stroke="#4a5568" d="M1578.04,-205.73C1631.62,-194.85 1716.01,-177.72 1772.79,-166.19"/>
<polygon fill="#4a5568" stroke="#4a5568" points="1773.17,-169.68 1782.28,-164.26 1771.78,-162.82 1773.17,-169.68"/>
</g>
<!-- PIPELINE&#45;&gt;STORAGE -->
<g id="edge26" class="edge">
<title>PIPELINE&#45;&gt;STORAGE</title>
<path fill="none" stroke="#4a5568" d="M1911.61,-230.53C1920.6,-233.16 1929.57,-236.01 1938.05,-239.04 1965.3,-248.78 1994.5,-261.76 2019.25,-273.56"/>
<polygon fill="#4a5568" stroke="#4a5568" points="2017.67,-276.68 2028.19,-277.87 2020.71,-270.38 2017.67,-276.68"/>
<text xml:space="preserve" text-anchor="middle" x="1983.94" y="-271.24" font-family="Helvetica,sans-Serif" font-size="9.00">persist + flush</text>
</g>
<!-- STATUS_WRITER&#45;&gt;STORAGE -->
<g id="edge27" class="edge">
<title>STATUS_WRITER&#45;&gt;STORAGE</title>
<path fill="none" stroke="#4a5568" d="M1883.49,-165.78C1901.07,-170.75 1920.8,-177.23 1938.05,-185.04 1973.29,-201 1982.02,-206.58 2011.82,-231.24 2024.11,-241.41 2036.34,-253.74 2046.95,-265.34"/>
<polygon fill="#4a5568" stroke="#4a5568" points="2044.07,-267.37 2053.35,-272.49 2049.28,-262.7 2044.07,-267.37"/>
<text xml:space="preserve" text-anchor="middle" x="1983.94" y="-233.94" font-family="Helvetica,sans-Serif" font-size="9.00">write status</text>
</g>
<!-- BACKFILL_SERVICES&#45;&gt;PIPELINE -->
<g id="edge25" class="edge">
<title>BACKFILL_SERVICES&#45;&gt;PIPELINE</title>
<path fill="none" stroke="#4a5568" d="M1579.39,-295.7C1619.8,-278.85 1677.46,-255.85 1729.2,-239.04 1734.93,-237.18 1740.88,-235.35 1746.89,-233.58"/>
<polygon fill="#4a5568" stroke="#4a5568" points="1747.65,-237.01 1756.29,-230.89 1745.72,-230.28 1747.65,-237.01"/>
<text xml:space="preserve" text-anchor="middle" x="1663.42" y="-282.41" font-family="Helvetica,sans-Serif" font-size="9.00">publish historical events</text>
</g>
<!-- BACKFILL_SERVICES&#45;&gt;STORAGE -->
<g id="edge28" class="edge">
<title>BACKFILL_SERVICES&#45;&gt;STORAGE</title>
<path fill="none" stroke="#4a5568" d="M1597.81,-318.28C1679.66,-318.31 1818.67,-317.57 1938.05,-313.04 1964.24,-312.05 1993.12,-310.32 2017.91,-308.64"/>
<polygon fill="#4a5568" stroke="#4a5568" points="2018.11,-312.14 2027.84,-307.96 2017.62,-305.15 2018.11,-312.14"/>
<text xml:space="preserve" text-anchor="middle" x="1833.62" y="-320.32" font-family="Helvetica,sans-Serif" font-size="9.00">checkpoints / results</text>
</g>
<!-- LEG_PERSON -->
<g id="node23" class="node">
<title>LEG_PERSON</title>
<ellipse fill="#08427b" stroke="black" cx="108.67" cy="-340.04" rx="41.37" ry="18"/>
<text xml:space="preserve" text-anchor="middle" x="108.67" y="-337.04" font-family="Helvetica,sans-Serif" font-size="10.00" fill="white">User / client</text>
</g>
<!-- LEG_HOST -->
<g id="node24" class="node">
<title>LEG_HOST</title>
<path fill="#438dd5" stroke="black" d="M136.91,-412.04C136.91,-412.04 80.42,-412.04 80.42,-412.04 74.42,-412.04 68.42,-406.04 68.42,-400.04 68.42,-400.04 68.42,-388.04 68.42,-388.04 68.42,-382.04 74.42,-376.04 80.42,-376.04 80.42,-376.04 136.91,-376.04 136.91,-376.04 142.91,-376.04 148.91,-382.04 148.91,-388.04 148.91,-388.04 148.91,-400.04 148.91,-400.04 148.91,-406.04 142.91,-412.04 136.91,-412.04"/>
<text xml:space="preserve" text-anchor="middle" x="108.67" y="-391.04" font-family="Helvetica,sans-Serif" font-size="10.00" fill="white">Runnable host</text>
</g>
<!-- LEG_MODE -->
<g id="node25" class="node">
<title>LEG_MODE</title>
<path fill="#bfdbfe" stroke="black" d="M154.69,-466.04C154.69,-466.04 62.64,-466.04 62.64,-466.04 56.64,-466.04 50.64,-460.04 50.64,-454.04 50.64,-454.04 50.64,-442.04 50.64,-442.04 50.64,-436.04 56.64,-430.04 62.64,-430.04 62.64,-430.04 154.69,-430.04 154.69,-430.04 160.69,-430.04 166.69,-436.04 166.69,-442.04 166.69,-442.04 166.69,-454.04 166.69,-454.04 166.69,-460.04 160.69,-466.04 154.69,-466.04"/>
<text xml:space="preserve" text-anchor="middle" x="108.67" y="-445.04" font-family="Helvetica,sans-Serif" font-size="10.00">Startup mode / service</text>
</g>
<!-- LEG_UI -->
<g id="node26" class="node">
<title>LEG_UI</title>
<path fill="#ddd6fe" stroke="black" d="M138.02,-520.04C138.02,-520.04 79.31,-520.04 79.31,-520.04 73.31,-520.04 67.31,-514.04 67.31,-508.04 67.31,-508.04 67.31,-496.04 67.31,-496.04 67.31,-490.04 73.31,-484.04 79.31,-484.04 79.31,-484.04 138.02,-484.04 138.02,-484.04 144.02,-484.04 150.02,-490.04 150.02,-496.04 150.02,-496.04 150.02,-508.04 150.02,-508.04 150.02,-514.04 144.02,-520.04 138.02,-520.04"/>
<text xml:space="preserve" text-anchor="middle" x="108.67" y="-499.04" font-family="Helvetica,sans-Serif" font-size="10.00">Shared UI host</text>
</g>
<!-- LEG_STORE -->
<g id="node27" class="node">
<title>LEG_STORE</title>
<path fill="#fecaca" stroke="black" d="M151.13,-570.77C151.13,-572.57 132.09,-574.04 108.67,-574.04 85.24,-574.04 66.21,-572.57 66.21,-570.77 66.21,-570.77 66.21,-541.31 66.21,-541.31 66.21,-539.51 85.24,-538.04 108.67,-538.04 132.09,-538.04 151.13,-539.51 151.13,-541.31 151.13,-541.31 151.13,-570.77 151.13,-570.77"/>
<path fill="none" stroke="black" d="M151.13,-570.77C151.13,-568.96 132.09,-567.49 108.67,-567.49 85.24,-567.49 66.21,-568.96 66.21,-570.77"/>
<text xml:space="preserve" text-anchor="middle" x="108.67" y="-553.04" font-family="Helvetica,sans-Serif" font-size="10.00">Persistent state</text>
</g>
</g>
</svg>
