<?xml version="1.0" encoding="UTF-8" standalone="no"?>
<!DOCTYPE svg PUBLIC "-//W3C//DTD SVG 1.1//EN"
 "http://www.w3.org/Graphics/SVG/1.1/DTD/svg11.dtd">
<!-- Generated by graphviz version 14.1.3 (20260303.0454)
 -->
<!-- Title: SecurityMasterLifecycle Pages: 1 -->
<svg width="1774pt" height="915pt"
 viewBox="0.00 0.00 1774.00 915.00" xmlns="http://www.w3.org/2000/svg" xmlns:xlink="http://www.w3.org/1999/xlink">
<g id="graph0" class="graph" transform="scale(1 1) rotate(0) translate(36 878.8)">
<title>SecurityMasterLifecycle</title>
<polygon fill="white" stroke="none" points="-36,36 -36,-878.8 1738.27,-878.8 1738.27,36 -36,36"/>
<text xml:space="preserve" text-anchor="middle" x="851.13" y="-828" font-family="Helvetica,sans-Serif" font-size="12.00">Meridian &#45; Security Master Lifecycle</text>
<text xml:space="preserve" text-anchor="middle" x="851.13" y="-813.6" font-family="Helvetica,sans-Serif" font-size="12.00">Import, event storage, projections, and workstation consumers | v1.8.x</text>
<g id="clust1" class="cluster">
<title>cluster_inputs</title>
<path fill="#faf5ff" stroke="#805ad5" d="M20,-364C20,-364 713.18,-364 713.18,-364 719.18,-364 725.18,-370 725.18,-376 725.18,-376 725.18,-542 725.18,-542 725.18,-548 719.18,-554 713.18,-554 713.18,-554 20,-554 20,-554 14,-554 8,-548 8,-542 8,-542 8,-376 8,-376 8,-370 14,-364 20,-364"/>
<text xml:space="preserve" text-anchor="middle" x="366.59" y="-539.2" font-family="Helvetica,sans-Serif" font-size="12.00">Inputs and Entry Paths</text>
</g>
<g id="clust2" class="cluster">
<title>cluster_core</title>
<path fill="#dbeafe" stroke="#2b6cb0" d="M544.7,-58C544.7,-58 1399.92,-58 1399.92,-58 1405.92,-58 1411.92,-64 1411.92,-70 1411.92,-70 1411.92,-344 1411.92,-344 1411.92,-350 1405.92,-356 1399.92,-356 1399.92,-356 544.7,-356 544.7,-356 538.7,-356 532.7,-350 532.7,-344 532.7,-344 532.7,-70 532.7,-70 532.7,-64 538.7,-58 544.7,-58"/>
<text xml:space="preserve" text-anchor="middle" x="972.31" y="-341.2" font-family="Helvetica,sans-Serif" font-size="12.00">Application and Projection Layer</text>
</g>
<g id="clust3" class="cluster">
<title>cluster_storage</title>
<path fill="#fff5f5" stroke="#c53030" d="M1501.96,-95C1501.96,-95 1682.27,-95 1682.27,-95 1688.27,-95 1694.27,-101 1694.27,-107 1694.27,-107 1694.27,-289 1694.27,-289 1694.27,-295 1688.27,-301 1682.27,-301 1682.27,-301 1501.96,-301 1501.96,-301 1495.96,-301 1489.96,-295 1489.96,-289 1489.96,-289 1489.96,-107 1489.96,-107 1489.96,-101 1495.96,-95 1501.96,-95"/>
<text xml:space="preserve" text-anchor="middle" x="1592.11" y="-286.2" font-family="Helvetica,sans-Serif" font-size="12.00">Persistence</text>
</g>
<g id="clust4" class="cluster">
<title>cluster_legend</title>
<path fill="#fafafa" stroke="#666666" d="M30.55,-562C30.55,-562 164.72,-562 164.72,-562 170.72,-562 176.72,-568 176.72,-574 176.72,-574 176.72,-786 176.72,-786 176.72,-792 170.72,-798 164.72,-798 164.72,-798 30.55,-798 30.55,-798 24.55,-798 18.55,-792 18.55,-786 18.55,-786 18.55,-574 18.55,-574 18.55,-568 24.55,-562 30.55,-562"/>
<text xml:space="preserve" text-anchor="middle" x="97.64" y="-783.2" font-family="Helvetica,sans-Serif" font-size="12.00">Legend</text>
</g>
<!-- WPF_PAGE -->
<g id="node1" class="node">
<title>WPF_PAGE</title>
<path fill="#805ad5" stroke="black" d="M144.76,-524C144.76,-524 50.51,-524 50.51,-524 44.51,-524 38.51,-518 38.51,-512 38.51,-512 38.51,-500 38.51,-500 38.51,-494 44.51,-488 50.51,-488 50.51,-488 144.76,-488 144.76,-488 150.76,-488 156.76,-494 156.76,-500 156.76,-500 156.76,-512 156.76,-512 156.76,-518 150.76,-524 144.76,-524"/>
<text xml:space="preserve" text-anchor="middle" x="97.64" y="-509" font-family="Helvetica,sans-Serif" font-size="10.00" fill="white">SecurityMasterPage</text>
<text xml:space="preserve" text-anchor="middle" x="97.64" y="-497" font-family="Helvetica,sans-Serif" font-size="10.00" fill="white">WPF create/edit/import</text>
</g>
<!-- IMPORT_SERVICE -->
<g id="node4" class="node">
<title>IMPORT_SERVICE</title>
<path fill="#fbd38d" stroke="black" d="M409.66,-435C409.66,-435 289.29,-435 289.29,-435 283.29,-435 277.29,-429 277.29,-423 277.29,-423 277.29,-403 277.29,-403 277.29,-397 283.29,-391 289.29,-391 289.29,-391 409.66,-391 409.66,-391 415.66,-391 421.66,-397 421.66,-403 421.66,-403 421.66,-423 421.66,-423 421.66,-429 415.66,-435 409.66,-435"/>
<text xml:space="preserve" text-anchor="middle" x="349.48" y="-422" font-family="Helvetica,sans-Serif" font-size="10.00">SecurityMasterImportService</text>
<text xml:space="preserve" text-anchor="middle" x="349.48" y="-410" font-family="Helvetica,sans-Serif" font-size="10.00">CSV / JSON bulk import</text>
<text xml:space="preserve" text-anchor="middle" x="349.48" y="-398" font-family="Helvetica,sans-Serif" font-size="10.00">progress + conflict counts</text>
</g>
<!-- WPF_PAGE&#45;&gt;IMPORT_SERVICE -->
<g id="edge1" class="edge">
<title>WPF_PAGE&#45;&gt;IMPORT_SERVICE</title>
<path fill="none" stroke="#4a5568" d="M154.71,-487.6C162.97,-484.78 171.36,-481.86 179.27,-479 213.65,-466.59 251.58,-451.89 282.8,-439.52"/>
<polygon fill="#4a5568" stroke="#4a5568" points="283.71,-442.92 291.71,-435.98 281.12,-436.42 283.71,-442.92"/>
<text xml:space="preserve" text-anchor="middle" x="228.28" y="-474.93" font-family="Helvetica,sans-Serif" font-size="9.00">bulk import</text>
</g>
<!-- SECURITY_SERVICE -->
<g id="node6" class="node">
<title>SECURITY_SERVICE</title>
<path fill="#93c5fd" stroke="black" d="M696.16,-272C696.16,-272 583.53,-272 583.53,-272 577.53,-272 571.53,-266 571.53,-260 571.53,-260 571.53,-248 571.53,-248 571.53,-242 577.53,-236 583.53,-236 583.53,-236 696.16,-236 696.16,-236 702.16,-236 708.16,-242 708.16,-248 708.16,-248 708.16,-260 708.16,-260 708.16,-266 702.16,-272 696.16,-272"/>
<text xml:space="preserve" text-anchor="middle" x="639.84" y="-257" font-family="Helvetica,sans-Serif" font-size="10.00">SecurityMasterService</text>
<text xml:space="preserve" text-anchor="middle" x="639.84" y="-245" font-family="Helvetica,sans-Serif" font-size="10.00">create / update / deactivate</text>
</g>
<!-- WPF_PAGE&#45;&gt;SECURITY_SERVICE -->
<g id="edge6" class="edge">
<title>WPF_PAGE&#45;&gt;SECURITY_SERVICE</title>
<path fill="none" stroke="#4a5568" d="M157.14,-493.86C165.33,-490.16 173.06,-485.32 179.27,-479 197.89,-460.05 181.08,-443.06 197.27,-422 223.25,-388.21 399.46,-295.37 439.66,-282 478.1,-269.22 522.6,-262.27 559.78,-258.5"/>
<polygon fill="#4a5568" stroke="#4a5568" points="559.93,-262 569.56,-257.57 559.27,-255.03 559.93,-262"/>
<text xml:space="preserve" text-anchor="middle" x="349.48" y="-366.63" font-family="Helvetica,sans-Serif" font-size="9.00">create / edit</text>
</g>
<!-- API_ENDPOINTS -->
<g id="node2" class="node">
<title>API_ENDPOINTS</title>
<path fill="#c4b5fd" stroke="black" d="M167.27,-470C167.27,-470 28,-470 28,-470 22,-470 16,-464 16,-458 16,-458 16,-438 16,-438 16,-432 22,-426 28,-426 28,-426 167.27,-426 167.27,-426 173.27,-426 179.27,-432 179.27,-438 179.27,-438 179.27,-458 179.27,-458 179.27,-464 173.27,-470 167.27,-470"/>
<text xml:space="preserve" text-anchor="middle" x="97.64" y="-457" font-family="Helvetica,sans-Serif" font-size="10.00">Security Master endpoints</text>
<text xml:space="preserve" text-anchor="middle" x="97.64" y="-445" font-family="Helvetica,sans-Serif" font-size="10.00">/api/security&#45;master/*</text>
<text xml:space="preserve" text-anchor="middle" x="97.64" y="-433" font-family="Helvetica,sans-Serif" font-size="10.00">/api/workstation/security&#45;master/*</text>
</g>
<!-- API_ENDPOINTS&#45;&gt;IMPORT_SERVICE -->
<g id="edge2" class="edge">
<title>API_ENDPOINTS&#45;&gt;IMPORT_SERVICE</title>
<path fill="none" stroke="#4a5568" d="M179.75,-436.64C207.3,-432.78 238.11,-428.46 265.78,-424.58"/>
<polygon fill="#4a5568" stroke="#4a5568" points="266.11,-428.07 275.53,-423.22 265.14,-421.14 266.11,-428.07"/>
<text xml:space="preserve" text-anchor="middle" x="228.28" y="-436.33" font-family="Helvetica,sans-Serif" font-size="9.00">import requests</text>
</g>
<!-- QUERY_SERVICE -->
<g id="node11" class="node">
<title>QUERY_SERVICE</title>
<path fill="#93c5fd" stroke="black" d="M1056.27,-221C1056.27,-221 937.01,-221 937.01,-221 931.01,-221 925.01,-215 925.01,-209 925.01,-209 925.01,-189 925.01,-189 925.01,-183 931.01,-177 937.01,-177 937.01,-177 1056.27,-177 1056.27,-177 1062.27,-177 1068.27,-183 1068.27,-189 1068.27,-189 1068.27,-209 1068.27,-209 1068.27,-215 1062.27,-221 1056.27,-221"/>
<text xml:space="preserve" text-anchor="middle" x="996.64" y="-208" font-family="Helvetica,sans-Serif" font-size="10.00">SecurityMasterQueryService</text>
<text xml:space="preserve" text-anchor="middle" x="996.64" y="-196" font-family="Helvetica,sans-Serif" font-size="10.00">search, history, identity,</text>
<text xml:space="preserve" text-anchor="middle" x="996.64" y="-184" font-family="Helvetica,sans-Serif" font-size="10.00">economic definition</text>
</g>
<!-- API_ENDPOINTS&#45;&gt;QUERY_SERVICE -->
<g id="edge7" class="edge">
<title>API_ENDPOINTS&#45;&gt;QUERY_SERVICE</title>
<path fill="none" stroke="#4a5568" d="M170.73,-425.58C173.87,-423.02 176.75,-420.17 179.27,-417 215.52,-371.31 176.67,-341.57 197.27,-287 220.04,-226.68 227.77,-207.28 277.29,-166 372.09,-86.97 411.78,-81.72 532.7,-57 622.52,-38.63 648.66,-41.29 738.98,-57 799.95,-67.6 827.84,-58.74 870.04,-104 890.18,-125.61 867.21,-147.04 888.04,-168 895.38,-175.39 904.37,-181.05 913.99,-185.37"/>
<polygon fill="#4a5568" stroke="#4a5568" points="912.63,-188.6 923.22,-189 915.2,-182.08 912.63,-188.6"/>
<text xml:space="preserve" text-anchor="middle" x="481.18" y="-79.71" font-family="Helvetica,sans-Serif" font-size="9.00">query detail/history</text>
</g>
<!-- NULL_FALLBACKS -->
<g id="node15" class="node">
<title>NULL_FALLBACKS</title>
<polygon fill="#feebc8" stroke="black" points="718.55,-110 555.13,-110 555.13,-66 724.55,-66 724.55,-104 718.55,-110"/>
<polyline fill="none" stroke="black" points="718.55,-110 718.55,-104"/>
<polyline fill="none" stroke="black" points="724.55,-104 718.55,-104"/>
<text xml:space="preserve" text-anchor="middle" x="639.84" y="-97" font-family="Helvetica,sans-Serif" font-size="10.00">NullSecurityMaster* fallbacks</text>
<text xml:space="preserve" text-anchor="middle" x="639.84" y="-85" font-family="Helvetica,sans-Serif" font-size="10.00">keep APIs routable when Postgres</text>
<text xml:space="preserve" text-anchor="middle" x="639.84" y="-73" font-family="Helvetica,sans-Serif" font-size="10.00">security&#45;master config is absent</text>
</g>
<!-- API_ENDPOINTS&#45;&gt;NULL_FALLBACKS -->
<g id="edge22" class="edge">
<title>API_ENDPOINTS&#45;&gt;NULL_FALLBACKS</title>
<path fill="none" stroke="#718096" stroke-dasharray="5,2" d="M168.69,-425.54C172.49,-422.98 176.06,-420.15 179.27,-417 194.37,-402.22 186.51,-391.18 197.27,-373 226.06,-324.38 234.74,-311.38 277.29,-274.2 377.33,-186.81 411.15,-172.57 532.7,-119 536.44,-117.35 540.28,-115.77 544.19,-114.24"/>
<polygon fill="#718096" stroke="#718096" points="545.1,-117.64 553.26,-110.88 542.66,-111.08 545.1,-117.64"/>
<text xml:space="preserve" text-anchor="middle" x="349.48" y="-276.9" font-family="Helvetica,sans-Serif" font-size="9.00">not configured</text>
</g>
<!-- CSV_PARSER -->
<g id="node3" class="node">
<title>CSV_PARSER</title>
<path fill="#fbd38d" stroke="black" d="M705.18,-431C705.18,-431 574.51,-431 574.51,-431 568.51,-431 562.51,-425 562.51,-419 562.51,-419 562.51,-407 562.51,-407 562.51,-401 568.51,-395 574.51,-395 574.51,-395 705.18,-395 705.18,-395 711.18,-395 717.18,-401 717.18,-407 717.18,-407 717.18,-419 717.18,-419 717.18,-425 711.18,-431 705.18,-431"/>
<text xml:space="preserve" text-anchor="middle" x="639.84" y="-416" font-family="Helvetica,sans-Serif" font-size="10.00">SecurityMasterCsvParser</text>
<text xml:space="preserve" text-anchor="middle" x="639.84" y="-404" font-family="Helvetica,sans-Serif" font-size="10.00">CSV &#45;&gt; CreateSecurityRequest</text>
</g>
<!-- IMPORT_SERVICE&#45;&gt;CSV_PARSER -->
<g id="edge3" class="edge">
<title>IMPORT_SERVICE&#45;&gt;CSV_PARSER</title>
<path fill="none" stroke="#4a5568" d="M422.13,-413C461.09,-413 509.59,-413 550.83,-413"/>
<polygon fill="#4a5568" stroke="#4a5568" points="550.74,-416.5 560.74,-413 550.74,-409.5 550.74,-416.5"/>
<text xml:space="preserve" text-anchor="middle" x="481.18" y="-415.7" font-family="Helvetica,sans-Serif" font-size="9.00">parse CSV</text>
</g>
<!-- IMPORT_SERVICE&#45;&gt;SECURITY_SERVICE -->
<g id="edge4" class="edge">
<title>IMPORT_SERVICE&#45;&gt;SECURITY_SERVICE</title>
<path fill="none" stroke="#4a5568" d="M373.58,-390.6C406.16,-360.42 468.81,-307.43 532.7,-281 541.42,-277.39 550.74,-274.17 560.1,-271.32"/>
<polygon fill="#4a5568" stroke="#4a5568" points="561,-274.71 569.63,-268.56 559.05,-267.98 561,-274.71"/>
<text xml:space="preserve" text-anchor="middle" x="481.18" y="-336.09" font-family="Helvetica,sans-Serif" font-size="9.00">CreateAsync</text>
</g>
<!-- CONFLICT_SERVICE -->
<g id="node7" class="node">
<title>CONFLICT_SERVICE</title>
<path fill="#bfdbfe" stroke="black" d="M702.53,-326C702.53,-326 577.16,-326 577.16,-326 571.16,-326 565.16,-320 565.16,-314 565.16,-314 565.16,-302 565.16,-302 565.16,-296 571.16,-290 577.16,-290 577.16,-290 702.53,-290 702.53,-290 708.53,-290 714.53,-296 714.53,-302 714.53,-302 714.53,-314 714.53,-314 714.53,-320 708.53,-326 702.53,-326"/>
<text xml:space="preserve" text-anchor="middle" x="639.84" y="-311" font-family="Helvetica,sans-Serif" font-size="10.00">SecurityMasterConflictService</text>
<text xml:space="preserve" text-anchor="middle" x="639.84" y="-299" font-family="Helvetica,sans-Serif" font-size="10.00">duplicate / ambiguity handling</text>
</g>
<!-- IMPORT_SERVICE&#45;&gt;CONFLICT_SERVICE -->
<g id="edge5" class="edge">
<title>IMPORT_SERVICE&#45;&gt;CONFLICT_SERVICE</title>
<path fill="none" stroke="#ed8936" stroke-dasharray="5,2" d="M411.99,-390.6C460.89,-372.8 528.95,-348.01 577.75,-330.25"/>
<polygon fill="#ed8936" stroke="#ed8936" points="578.85,-333.57 587.05,-326.86 576.45,-326.99 578.85,-333.57"/>
<text xml:space="preserve" text-anchor="middle" x="481.18" y="-381.74" font-family="Helvetica,sans-Serif" font-size="9.00">count/report conflicts</text>
</g>
<!-- CORPORATE_ACTIONS -->
<g id="node5" class="node">
<title>CORPORATE_ACTIONS</title>
<path fill="#fbd38d" stroke="black" d="M164.79,-408C164.79,-408 30.49,-408 30.49,-408 24.49,-408 18.49,-402 18.49,-396 18.49,-396 18.49,-384 18.49,-384 18.49,-378 24.49,-372 30.49,-372 30.49,-372 164.79,-372 164.79,-372 170.79,-372 176.79,-378 176.79,-384 176.79,-384 176.79,-396 176.79,-396 176.79,-402 170.79,-408 164.79,-408"/>
<text xml:space="preserve" text-anchor="middle" x="97.64" y="-393" font-family="Helvetica,sans-Serif" font-size="10.00">PolygonCorporateActionFetcher</text>
<text xml:space="preserve" text-anchor="middle" x="97.64" y="-381" font-family="Helvetica,sans-Serif" font-size="10.00">corporate action ingestion</text>
</g>
<!-- EVENT_STORE -->
<g id="node16" class="node">
<title>EVENT_STORE</title>
<path fill="#fc8181" stroke="black" d="M1677.92,-143C1677.92,-145.21 1639.46,-147 1592.11,-147 1544.77,-147 1506.3,-145.21 1506.3,-143 1506.3,-143 1506.3,-107 1506.3,-107 1506.3,-104.79 1544.77,-103 1592.11,-103 1639.46,-103 1677.92,-104.79 1677.92,-107 1677.92,-107 1677.92,-143 1677.92,-143"/>
<path fill="none" stroke="black" d="M1677.92,-143C1677.92,-140.79 1639.46,-139 1592.11,-139 1544.77,-139 1506.3,-140.79 1506.3,-143"/>
<text xml:space="preserve" text-anchor="middle" x="1592.11" y="-128" font-family="Helvetica,sans-Serif" font-size="10.00" fill="white">PostgresSecurityMasterEventStore</text>
<text xml:space="preserve" text-anchor="middle" x="1592.11" y="-116" font-family="Helvetica,sans-Serif" font-size="10.00" fill="white">append + stream replay</text>
</g>
<!-- CORPORATE_ACTIONS&#45;&gt;EVENT_STORE -->
<g id="edge11" class="edge">
<title>CORPORATE_ACTIONS&#45;&gt;EVENT_STORE</title>
<path fill="none" stroke="#4a5568" d="M101.16,-371.71C112.92,-294.61 169.57,0 348.48,0 348.48,0 348.48,0 1319.11,0 1410.41,0 1504.5,-58.87 1554.55,-95.81"/>
<polygon fill="#4a5568" stroke="#4a5568" points="1552.36,-98.54 1562.46,-101.74 1556.56,-92.94 1552.36,-98.54"/>
<text xml:space="preserve" text-anchor="middle" x="813.51" y="-2.7" font-family="Helvetica,sans-Serif" font-size="9.00">append corp actions</text>
</g>
<!-- SECURITY_SERVICE&#45;&gt;EVENT_STORE -->
<g id="edge8" class="edge">
<title>SECURITY_SERVICE&#45;&gt;EVENT_STORE</title>
<path fill="none" stroke="#4a5568" d="M708.58,-253.92C903.11,-253.37 1451.4,-249.57 1479.96,-224 1502.72,-203.62 1470.06,-179.17 1489.96,-156 1492.09,-153.52 1494.42,-151.23 1496.9,-149.13"/>
<polygon fill="#4a5568" stroke="#4a5568" points="1498.6,-152.22 1504.65,-143.52 1494.5,-146.54 1498.6,-152.22"/>
<text xml:space="preserve" text-anchor="middle" x="1168.76" y="-251.63" font-family="Helvetica,sans-Serif" font-size="9.00">append events</text>
</g>
<!-- SNAPSHOT_STORE -->
<g id="node17" class="node">
<title>SNAPSHOT_STORE</title>
<path fill="#fecaca" stroke="black" d="M1686.27,-267C1686.27,-269.21 1644.07,-271 1592.11,-271 1540.16,-271 1497.96,-269.21 1497.96,-267 1497.96,-267 1497.96,-231 1497.96,-231 1497.96,-228.79 1540.16,-227 1592.11,-227 1644.07,-227 1686.27,-228.79 1686.27,-231 1686.27,-231 1686.27,-267 1686.27,-267"/>
<path fill="none" stroke="black" d="M1686.27,-267C1686.27,-264.79 1644.07,-263 1592.11,-263 1540.16,-263 1497.96,-264.79 1497.96,-267"/>
<text xml:space="preserve" text-anchor="middle" x="1592.11" y="-252" font-family="Helvetica,sans-Serif" font-size="10.00">PostgresSecurityMasterSnapshotStore</text>
<text xml:space="preserve" text-anchor="middle" x="1592.11" y="-240" font-family="Helvetica,sans-Serif" font-size="10.00">periodic aggregate snapshots</text>
</g>
<!-- SECURITY_SERVICE&#45;&gt;SNAPSHOT_STORE -->
<g id="edge9" class="edge">
<title>SECURITY_SERVICE&#45;&gt;SNAPSHOT_STORE</title>
<path fill="none" stroke="#c53030" stroke-dasharray="5,2" d="M708.65,-260.11C724.5,-261.3 741.32,-262.37 756.98,-263 1078.05,-275.86 1159.31,-283.72 1479.96,-263 1482.02,-262.87 1484.1,-262.72 1486.19,-262.56"/>
<polygon fill="#c53030" stroke="#c53030" points="1486.32,-266.07 1495.99,-261.74 1485.73,-259.09 1486.32,-266.07"/>
<text xml:space="preserve" text-anchor="middle" x="1168.76" y="-278.46" font-family="Helvetica,sans-Serif" font-size="9.00">snapshot cadence</text>
</g>
<!-- PROJECTION_STORE -->
<g id="node18" class="node">
<title>PROJECTION_STORE</title>
<path fill="#fecaca" stroke="black" d="M1665.14,-205C1665.14,-207.21 1632.41,-209 1592.11,-209 1551.82,-209 1519.09,-207.21 1519.09,-205 1519.09,-205 1519.09,-169 1519.09,-169 1519.09,-166.79 1551.82,-165 1592.11,-165 1632.41,-165 1665.14,-166.79 1665.14,-169 1665.14,-169 1665.14,-205 1665.14,-205"/>
<path fill="none" stroke="black" d="M1665.14,-205C1665.14,-202.79 1632.41,-201 1592.11,-201 1551.82,-201 1519.09,-202.79 1519.09,-205"/>
<text xml:space="preserve" text-anchor="middle" x="1592.11" y="-190" font-family="Helvetica,sans-Serif" font-size="10.00">PostgresSecurityMasterStore</text>
<text xml:space="preserve" text-anchor="middle" x="1592.11" y="-178" font-family="Helvetica,sans-Serif" font-size="10.00">projection records + lookups</text>
</g>
<!-- CONFLICT_SERVICE&#45;&gt;PROJECTION_STORE -->
<g id="edge10" class="edge">
<title>CONFLICT_SERVICE&#45;&gt;PROJECTION_STORE</title>
<path fill="none" stroke="#ed8936" stroke-dasharray="5,2" d="M698.98,-326.5C849.52,-370.41 1255.86,-462.97 1479.96,-263 1495.25,-249.36 1476.06,-233.05 1489.96,-218 1495.24,-212.29 1501.54,-207.62 1508.37,-203.81"/>
<polygon fill="#ed8936" stroke="#ed8936" points="1509.88,-206.97 1517.35,-199.46 1506.83,-200.66 1509.88,-206.97"/>
<text xml:space="preserve" text-anchor="middle" x="1168.76" y="-388.54" font-family="Helvetica,sans-Serif" font-size="9.00">open conflict review</text>
</g>
<!-- AGGREGATE_REBUILDER -->
<g id="node8" class="node">
<title>AGGREGATE_REBUILDER</title>
<path fill="#bfdbfe" stroke="black" d="M1391.92,-116C1391.92,-116 1244.29,-116 1244.29,-116 1238.29,-116 1232.29,-110 1232.29,-104 1232.29,-104 1232.29,-92 1232.29,-92 1232.29,-86 1238.29,-80 1244.29,-80 1244.29,-80 1391.92,-80 1391.92,-80 1397.92,-80 1403.92,-86 1403.92,-92 1403.92,-92 1403.92,-104 1403.92,-104 1403.92,-110 1397.92,-116 1391.92,-116"/>
<text xml:space="preserve" text-anchor="middle" x="1318.11" y="-101" font-family="Helvetica,sans-Serif" font-size="10.00">SecurityMasterAggregateRebuilder</text>
<text xml:space="preserve" text-anchor="middle" x="1318.11" y="-89" font-family="Helvetica,sans-Serif" font-size="10.00">replay security streams</text>
</g>
<!-- AGGREGATE_REBUILDER&#45;&gt;EVENT_STORE -->
<g id="edge15" class="edge">
<title>AGGREGATE_REBUILDER&#45;&gt;EVENT_STORE</title>
<path fill="none" stroke="#4a5568" d="M1404.05,-106.43C1432.8,-109.29 1465.11,-112.49 1494.69,-115.43"/>
<polygon fill="#4a5568" stroke="#4a5568" points="1494.07,-118.88 1504.37,-116.39 1494.77,-111.92 1494.07,-118.88"/>
<text xml:space="preserve" text-anchor="middle" x="1450.94" y="-116.62" font-family="Helvetica,sans-Serif" font-size="9.00">replay stream</text>
</g>
<!-- AGGREGATE_REBUILDER&#45;&gt;SNAPSHOT_STORE -->
<g id="edge16" class="edge">
<title>AGGREGATE_REBUILDER&#45;&gt;SNAPSHOT_STORE</title>
<path fill="none" stroke="#c53030" stroke-dasharray="5,2" d="M1396.19,-116.45C1401.69,-118.96 1407,-121.79 1411.92,-125 1457.12,-154.47 1444.98,-188.2 1489.96,-218 1492.49,-219.68 1495.12,-221.27 1497.82,-222.77"/>
<polygon fill="#c53030" stroke="#c53030" points="1496.02,-225.79 1506.52,-227.19 1499.19,-219.54 1496.02,-225.79"/>
<text xml:space="preserve" text-anchor="middle" x="1450.94" y="-211.65" font-family="Helvetica,sans-Serif" font-size="9.00">use snapshots</text>
</g>
<!-- PROJECTION_SERVICE -->
<g id="node9" class="node">
<title>PROJECTION_SERVICE</title>
<path fill="#bfdbfe" stroke="black" d="M1069.32,-103C1069.32,-103 923.96,-103 923.96,-103 917.96,-103 911.96,-97 911.96,-91 911.96,-91 911.96,-79 911.96,-79 911.96,-73 917.96,-67 923.96,-67 923.96,-67 1069.32,-67 1069.32,-67 1075.32,-67 1081.32,-73 1081.32,-79 1081.32,-79 1081.32,-91 1081.32,-91 1081.32,-97 1075.32,-103 1069.32,-103"/>
<text xml:space="preserve" text-anchor="middle" x="996.64" y="-88" font-family="Helvetica,sans-Serif" font-size="10.00">SecurityMasterProjectionService</text>
<text xml:space="preserve" text-anchor="middle" x="996.64" y="-76" font-family="Helvetica,sans-Serif" font-size="10.00">BuildWarmSetAsync / WarmAsync</text>
</g>
<!-- PROJECTION_SERVICE&#45;&gt;AGGREGATE_REBUILDER -->
<g id="edge14" class="edge">
<title>PROJECTION_SERVICE&#45;&gt;AGGREGATE_REBUILDER</title>
<path fill="none" stroke="#4a5568" d="M1081.56,-82.68C1121.76,-82.18 1170.55,-82.47 1214.29,-85.2 1216.35,-85.33 1218.44,-85.47 1220.54,-85.63"/>
<polygon fill="#4a5568" stroke="#4a5568" points="1220.14,-89.11 1230.39,-86.45 1220.72,-82.13 1220.14,-89.11"/>
<text xml:space="preserve" text-anchor="middle" x="1168.76" y="-87.9" font-family="Helvetica,sans-Serif" font-size="9.00">rebuild economics</text>
</g>
<!-- PROJECTION_CACHE -->
<g id="node12" class="node">
<title>PROJECTION_CACHE</title>
<path fill="#d1fae5" stroke="black" d="M1384.14,-170C1384.14,-170 1252.08,-170 1252.08,-170 1246.08,-170 1240.08,-164 1240.08,-158 1240.08,-158 1240.08,-146 1240.08,-146 1240.08,-140 1246.08,-134 1252.08,-134 1252.08,-134 1384.14,-134 1384.14,-134 1390.14,-134 1396.14,-140 1396.14,-146 1396.14,-146 1396.14,-158 1396.14,-158 1396.14,-164 1390.14,-170 1384.14,-170"/>
<text xml:space="preserve" text-anchor="middle" x="1318.11" y="-155" font-family="Helvetica,sans-Serif" font-size="10.00">SecurityMasterProjectionCache</text>
<text xml:space="preserve" text-anchor="middle" x="1318.11" y="-143" font-family="Helvetica,sans-Serif" font-size="10.00">warm in&#45;memory projection set</text>
</g>
<!-- PROJECTION_SERVICE&#45;&gt;PROJECTION_CACHE -->
<g id="edge17" class="edge">
<title>PROJECTION_SERVICE&#45;&gt;PROJECTION_CACHE</title>
<path fill="none" stroke="#4a5568" d="M1081.57,-102.6C1126.83,-112.1 1182.66,-123.8 1228.6,-133.44"/>
<polygon fill="#4a5568" stroke="#4a5568" points="1227.77,-136.84 1238.27,-135.47 1229.2,-129.99 1227.77,-136.84"/>
<text xml:space="preserve" text-anchor="middle" x="1168.76" y="-133.03" font-family="Helvetica,sans-Serif" font-size="9.00">ReplaceAll</text>
</g>
<!-- PROJECTION_SERVICE&#45;&gt;PROJECTION_STORE -->
<g id="edge13" class="edge">
<title>PROJECTION_SERVICE&#45;&gt;PROJECTION_STORE</title>
<path fill="none" stroke="#4a5568" d="M1067.81,-66.54C1151.55,-47.72 1294.93,-25.8 1411.92,-60.2 1446.43,-70.35 1459.82,-74.2 1479.96,-104 1493.14,-123.5 1474.24,-138.49 1489.96,-156 1495.32,-161.97 1501.79,-166.8 1508.84,-170.71"/>
<polygon fill="#4a5568" stroke="#4a5568" points="1506.87,-173.65 1517.4,-174.84 1509.91,-167.34 1506.87,-173.65"/>
<text xml:space="preserve" text-anchor="middle" x="1318.11" y="-62.9" font-family="Helvetica,sans-Serif" font-size="9.00">load seed records</text>
</g>
<!-- WARMUP_SERVICE -->
<g id="node10" class="node">
<title>WARMUP_SERVICE</title>
<path fill="#bfdbfe" stroke="black" d="M726.98,-164C726.98,-164 552.7,-164 552.7,-164 546.7,-164 540.7,-158 540.7,-152 540.7,-152 540.7,-140 540.7,-140 540.7,-134 546.7,-128 552.7,-128 552.7,-128 726.98,-128 726.98,-128 732.98,-128 738.98,-134 738.98,-140 738.98,-140 738.98,-152 738.98,-152 738.98,-158 732.98,-164 726.98,-164"/>
<text xml:space="preserve" text-anchor="middle" x="639.84" y="-149" font-family="Helvetica,sans-Serif" font-size="10.00">SecurityMasterProjectionWarmupService</text>
<text xml:space="preserve" text-anchor="middle" x="639.84" y="-137" font-family="Helvetica,sans-Serif" font-size="10.00">startup cache warmup</text>
</g>
<!-- WARMUP_SERVICE&#45;&gt;PROJECTION_SERVICE -->
<g id="edge12" class="edge">
<title>WARMUP_SERVICE&#45;&gt;PROJECTION_SERVICE</title>
<path fill="none" stroke="#4a5568" d="M739.2,-129.09C789.54,-120.44 850.54,-109.95 900.42,-101.37"/>
<polygon fill="#4a5568" stroke="#4a5568" points="900.78,-104.86 910.04,-99.72 899.6,-97.96 900.78,-104.86"/>
<text xml:space="preserve" text-anchor="middle" x="813.51" y="-127.23" font-family="Helvetica,sans-Serif" font-size="9.00">startup warm</text>
</g>
<!-- QUERY_SERVICE&#45;&gt;PROJECTION_CACHE -->
<g id="edge19" class="edge">
<title>QUERY_SERVICE&#45;&gt;PROJECTION_CACHE</title>
<path fill="none" stroke="#4a5568" d="M1068.54,-188.57C1115.71,-181.63 1178.03,-172.46 1228.47,-165.04"/>
<polygon fill="#4a5568" stroke="#4a5568" points="1228.81,-168.53 1238.2,-163.61 1227.79,-161.6 1228.81,-168.53"/>
<text xml:space="preserve" text-anchor="middle" x="1168.76" y="-182.41" font-family="Helvetica,sans-Serif" font-size="9.00">warm reads</text>
</g>
<!-- QUERY_SERVICE&#45;&gt;PROJECTION_STORE -->
<g id="edge20" class="edge">
<title>QUERY_SERVICE&#45;&gt;PROJECTION_STORE</title>
<path fill="none" stroke="#4a5568" d="M1068.37,-200.21C1162.42,-201.44 1333.77,-202.36 1479.96,-196 1488.9,-195.61 1498.23,-195.07 1507.53,-194.44"/>
<polygon fill="#4a5568" stroke="#4a5568" points="1507.58,-197.95 1517.31,-193.75 1507.08,-190.96 1507.58,-197.95"/>
<text xml:space="preserve" text-anchor="middle" x="1318.11" y="-203.73" font-family="Helvetica,sans-Serif" font-size="9.00">history / fallback reads</text>
</g>
<!-- SEED_SERVICE -->
<g id="node13" class="node">
<title>SEED_SERVICE</title>
<path fill="#d1fae5" stroke="black" d="M1093.24,-159C1093.24,-159 900.04,-159 900.04,-159 894.04,-159 888.04,-153 888.04,-147 888.04,-147 888.04,-135 888.04,-135 888.04,-129 894.04,-123 900.04,-123 900.04,-123 1093.24,-123 1093.24,-123 1099.24,-123 1105.24,-129 1105.24,-135 1105.24,-135 1105.24,-147 1105.24,-147 1105.24,-153 1099.24,-159 1093.24,-159"/>
<text xml:space="preserve" text-anchor="middle" x="996.64" y="-144" font-family="Helvetica,sans-Serif" font-size="10.00">SecurityMasterCanonicalSymbolSeedService</text>
<text xml:space="preserve" text-anchor="middle" x="996.64" y="-132" font-family="Helvetica,sans-Serif" font-size="10.00">seed canonical&#45;symbol cache</text>
</g>
<!-- SEED_SERVICE&#45;&gt;PROJECTION_CACHE -->
<g id="edge18" class="edge">
<title>SEED_SERVICE&#45;&gt;PROJECTION_CACHE</title>
<path fill="none" stroke="#4a5568" d="M1105.35,-144.71C1145.41,-146.09 1190.38,-147.64 1228.53,-148.95"/>
<polygon fill="#4a5568" stroke="#4a5568" points="1227.99,-152.43 1238.11,-149.28 1228.23,-145.44 1227.99,-152.43"/>
<text xml:space="preserve" text-anchor="middle" x="1168.76" y="-151.14" font-family="Helvetica,sans-Serif" font-size="9.00">canonical symbol seed</text>
</g>
<!-- LOOKUP -->
<g id="node14" class="node">
<title>LOOKUP</title>
<path fill="#d1fae5" stroke="black" d="M726.72,-218C726.72,-218 552.97,-218 552.97,-218 546.97,-218 540.97,-212 540.97,-206 540.97,-206 540.97,-194 540.97,-194 540.97,-188 546.97,-182 552.97,-182 552.97,-182 726.72,-182 726.72,-182 732.72,-182 738.72,-188 738.72,-194 738.72,-194 738.72,-206 738.72,-206 738.72,-212 732.72,-218 726.72,-218"/>
<text xml:space="preserve" text-anchor="middle" x="639.84" y="-203" font-family="Helvetica,sans-Serif" font-size="10.00">SecurityMasterSecurityReferenceLookup</text>
<text xml:space="preserve" text-anchor="middle" x="639.84" y="-191" font-family="Helvetica,sans-Serif" font-size="10.00">portfolio / ledger enrichment</text>
</g>
<!-- LOOKUP&#45;&gt;QUERY_SERVICE -->
<g id="edge21" class="edge">
<title>LOOKUP&#45;&gt;QUERY_SERVICE</title>
<path fill="none" stroke="#4a5568" d="M739.2,-199.72C793.92,-199.57 861.25,-199.38 913.19,-199.23"/>
<polygon fill="#4a5568" stroke="#4a5568" points="913.19,-202.73 923.18,-199.2 913.17,-195.73 913.19,-202.73"/>
<text xml:space="preserve" text-anchor="middle" x="813.51" y="-202.35" font-family="Helvetica,sans-Serif" font-size="9.00">security reference resolution</text>
</g>
<!-- LEG_INPUT -->
<g id="node19" class="node">
<title>LEG_INPUT</title>
<path fill="#fbd38d" stroke="black" d="M136.44,-606C136.44,-606 58.83,-606 58.83,-606 52.83,-606 46.83,-600 46.83,-594 46.83,-594 46.83,-582 46.83,-582 46.83,-576 52.83,-570 58.83,-570 58.83,-570 136.44,-570 136.44,-570 142.44,-570 148.44,-576 148.44,-582 148.44,-582 148.44,-594 148.44,-594 148.44,-600 142.44,-606 136.44,-606"/>
<text xml:space="preserve" text-anchor="middle" x="97.64" y="-585" font-family="Helvetica,sans-Serif" font-size="10.00">Import / ingest path</text>
</g>
<!-- LEG_CORE -->
<g id="node20" class="node">
<title>LEG_CORE</title>
<path fill="#93c5fd" stroke="black" d="M121.7,-660C121.7,-660 73.57,-660 73.57,-660 67.57,-660 61.57,-654 61.57,-648 61.57,-648 61.57,-636 61.57,-636 61.57,-630 67.57,-624 73.57,-624 73.57,-624 121.7,-624 121.7,-624 127.7,-624 133.7,-630 133.7,-636 133.7,-636 133.7,-648 133.7,-648 133.7,-654 127.7,-660 121.7,-660"/>
<text xml:space="preserve" text-anchor="middle" x="97.64" y="-639" font-family="Helvetica,sans-Serif" font-size="10.00">Core service</text>
</g>
<!-- LEG_CACHE -->
<g id="node21" class="node">
<title>LEG_CACHE</title>
<path fill="#d1fae5" stroke="black" d="M156.72,-714C156.72,-714 38.55,-714 38.55,-714 32.55,-714 26.55,-708 26.55,-702 26.55,-702 26.55,-690 26.55,-690 26.55,-684 32.55,-678 38.55,-678 38.55,-678 156.72,-678 156.72,-678 162.72,-678 168.72,-684 168.72,-690 168.72,-690 168.72,-702 168.72,-702 168.72,-708 162.72,-714 156.72,-714"/>
<text xml:space="preserve" text-anchor="middle" x="97.64" y="-693" font-family="Helvetica,sans-Serif" font-size="10.00">Projection / cache consumer</text>
</g>
<!-- LEG_STORE -->
<g id="node22" class="node">
<title>LEG_STORE</title>
<path fill="#fecaca" stroke="black" d="M140.37,-764.73C140.37,-766.53 121.22,-768 97.64,-768 74.05,-768 54.9,-766.53 54.9,-764.73 54.9,-764.73 54.9,-735.27 54.9,-735.27 54.9,-733.47 74.05,-732 97.64,-732 121.22,-732 140.37,-733.47 140.37,-735.27 140.37,-735.27 140.37,-764.73 140.37,-764.73"/>
<path fill="none" stroke="black" d="M140.37,-764.73C140.37,-762.92 121.22,-761.45 97.64,-761.45 74.05,-761.45 54.9,-762.92 54.9,-764.73"/>
<text xml:space="preserve" text-anchor="middle" x="97.64" y="-747" font-family="Helvetica,sans-Serif" font-size="10.00">Persistent store</text>
</g>
</g>
</svg>
