<?xml version="1.0" encoding="UTF-8" standalone="no"?>
<!DOCTYPE svg PUBLIC "-//W3C//DTD SVG 1.1//EN"
 "http://www.w3.org/Graphics/SVG/1.1/DTD/svg11.dtd">
<!-- Generated by graphviz version 2.43.0 (0)
 -->
<!-- Title: SecurityMasterLifecycle Pages: 1 -->
<svg width="1936pt" height="905pt"
 viewBox="0.00 0.00 1936.00 905.00" xmlns="http://www.w3.org/2000/svg" xmlns:xlink="http://www.w3.org/1999/xlink">
<g id="graph0" class="graph" transform="scale(1 1) rotate(0) translate(36 869)">
<title>SecurityMasterLifecycle</title>
<polygon fill="white" stroke="transparent" points="-36,36 -36,-869 1900,-869 1900,36 -36,36"/>
<text text-anchor="middle" x="932" y="-819.4" font-family="Helvetica,sans-Serif" font-size="12.00">Meridian &#45; Security Master Lifecycle</text>
<text text-anchor="middle" x="932" y="-806.4" font-family="Helvetica,sans-Serif" font-size="12.00">Import, event storage, projections, and workstation consumers | v1.8.x</text>
<g id="clust1" class="cluster">
<title>cluster_inputs</title>
<path fill="#faf5ff" stroke="#805ad5" d="M20,-361C20,-361 788.5,-361 788.5,-361 794.5,-361 800.5,-367 800.5,-373 800.5,-373 800.5,-536 800.5,-536 800.5,-542 794.5,-548 788.5,-548 788.5,-548 20,-548 20,-548 14,-548 8,-542 8,-536 8,-536 8,-373 8,-373 8,-367 14,-361 20,-361"/>
<text text-anchor="middle" x="404.25" y="-534.4" font-family="Helvetica,sans-Serif" font-size="12.00">Inputs and Entry Paths</text>
</g>
<g id="clust2" class="cluster">
<title>cluster_core</title>
<path fill="#dbeafe" stroke="#2b6cb0" d="M606,-58C606,-58 1540,-58 1540,-58 1546,-58 1552,-64 1552,-70 1552,-70 1552,-341 1552,-341 1552,-347 1546,-353 1540,-353 1540,-353 606,-353 606,-353 600,-353 594,-347 594,-341 594,-341 594,-70 594,-70 594,-64 600,-58 606,-58"/>
<text text-anchor="middle" x="1073" y="-339.4" font-family="Helvetica,sans-Serif" font-size="12.00">Application and Projection Layer</text>
</g>
<g id="clust3" class="cluster">
<title>cluster_storage</title>
<path fill="#fff5f5" stroke="#c53030" d="M1649,-100C1649,-100 1844,-100 1844,-100 1850,-100 1856,-106 1856,-112 1856,-112 1856,-285 1856,-285 1856,-291 1850,-297 1844,-297 1844,-297 1649,-297 1649,-297 1643,-297 1637,-291 1637,-285 1637,-285 1637,-112 1637,-112 1637,-106 1643,-100 1649,-100"/>
<text text-anchor="middle" x="1746.5" y="-283.4" font-family="Helvetica,sans-Serif" font-size="12.00">Persistence</text>
</g>
<g id="clust4" class="cluster">
<title>cluster_legend</title>
<path fill="#fafafa" stroke="#666666" d="M35,-556C35,-556 181,-556 181,-556 187,-556 193,-562 193,-568 193,-568 193,-779 193,-779 193,-785 187,-791 181,-791 181,-791 35,-791 35,-791 29,-791 23,-785 23,-779 23,-779 23,-568 23,-568 23,-562 29,-556 35,-556"/>
<text text-anchor="middle" x="108" y="-777.4" font-family="Helvetica,sans-Serif" font-size="12.00">Legend</text>
</g>
<!-- WPF_PAGE -->
<g id="node1" class="node">
<title>WPF_PAGE</title>
<path fill="#805ad5" stroke="black" d="M160.5,-519C160.5,-519 55.5,-519 55.5,-519 49.5,-519 43.5,-513 43.5,-507 43.5,-507 43.5,-495 43.5,-495 43.5,-489 49.5,-483 55.5,-483 55.5,-483 160.5,-483 160.5,-483 166.5,-483 172.5,-489 172.5,-495 172.5,-495 172.5,-507 172.5,-507 172.5,-513 166.5,-519 160.5,-519"/>
<text text-anchor="middle" x="108" y="-504" font-family="Helvetica,sans-Serif" font-size="10.00" fill="white">SecurityMasterPage</text>
<text text-anchor="middle" x="108" y="-493" font-family="Helvetica,sans-Serif" font-size="10.00" fill="white">WPF create/edit/import</text>
</g>
<!-- IMPORT_SERVICE -->
<g id="node4" class="node">
<title>IMPORT_SERVICE</title>
<path fill="#fbd38d" stroke="black" d="M455,-429.5C455,-429.5 321,-429.5 321,-429.5 315,-429.5 309,-423.5 309,-417.5 309,-417.5 309,-400.5 309,-400.5 309,-394.5 315,-388.5 321,-388.5 321,-388.5 455,-388.5 455,-388.5 461,-388.5 467,-394.5 467,-400.5 467,-400.5 467,-417.5 467,-417.5 467,-423.5 461,-429.5 455,-429.5"/>
<text text-anchor="middle" x="388" y="-417.5" font-family="Helvetica,sans-Serif" font-size="10.00">SecurityMasterImportService</text>
<text text-anchor="middle" x="388" y="-406.5" font-family="Helvetica,sans-Serif" font-size="10.00">CSV / JSON bulk import</text>
<text text-anchor="middle" x="388" y="-395.5" font-family="Helvetica,sans-Serif" font-size="10.00">progress + conflict counts</text>
</g>
<!-- WPF_PAGE&#45;&gt;IMPORT_SERVICE -->
<g id="edge1" class="edge">
<title>WPF_PAGE&#45;&gt;IMPORT_SERVICE</title>
<path fill="none" stroke="#4a5568" d="M171.27,-482.88C180.91,-479.98 190.74,-476.95 200,-474 240.26,-461.17 284.98,-445.68 320.59,-433.03"/>
<polygon fill="#4a5568" stroke="#4a5568" points="322.14,-436.2 330.38,-429.54 319.79,-429.6 322.14,-436.2"/>
<text text-anchor="middle" x="254.5" y="-469.8" font-family="Helvetica,sans-Serif" font-size="9.00">bulk import</text>
</g>
<!-- SECURITY_SERVICE -->
<g id="node6" class="node">
<title>SECURITY_SERVICE</title>
<path fill="#93c5fd" stroke="black" d="M773,-270C773,-270 646,-270 646,-270 640,-270 634,-264 634,-258 634,-258 634,-246 634,-246 634,-240 640,-234 646,-234 646,-234 773,-234 773,-234 779,-234 785,-240 785,-246 785,-246 785,-258 785,-258 785,-264 779,-270 773,-270"/>
<text text-anchor="middle" x="709.5" y="-255" font-family="Helvetica,sans-Serif" font-size="10.00">SecurityMasterService</text>
<text text-anchor="middle" x="709.5" y="-244" font-family="Helvetica,sans-Serif" font-size="10.00">create / update / deactivate</text>
</g>
<!-- WPF_PAGE&#45;&gt;SECURITY_SERVICE -->
<g id="edge6" class="edge">
<title>WPF_PAGE&#45;&gt;SECURITY_SERVICE</title>
<path fill="none" stroke="#4a5568" d="M172.62,-490.88C182.73,-486.94 192.36,-481.51 200,-474 218.95,-455.38 200.89,-437.32 218,-417 232.31,-400.02 402.97,-305.26 485,-280 529.72,-266.23 581.46,-259.22 623.9,-255.65"/>
<polygon fill="#4a5568" stroke="#4a5568" points="624.22,-259.14 633.91,-254.86 623.67,-252.16 624.22,-259.14"/>
<text text-anchor="middle" x="388" y="-361.8" font-family="Helvetica,sans-Serif" font-size="9.00">create / edit</text>
</g>
<!-- API_ENDPOINTS -->
<g id="node2" class="node">
<title>API_ENDPOINTS</title>
<path fill="#c4b5fd" stroke="black" d="M188,-464.5C188,-464.5 28,-464.5 28,-464.5 22,-464.5 16,-458.5 16,-452.5 16,-452.5 16,-435.5 16,-435.5 16,-429.5 22,-423.5 28,-423.5 28,-423.5 188,-423.5 188,-423.5 194,-423.5 200,-429.5 200,-435.5 200,-435.5 200,-452.5 200,-452.5 200,-458.5 194,-464.5 188,-464.5"/>
<text text-anchor="middle" x="108" y="-452.5" font-family="Helvetica,sans-Serif" font-size="10.00">Security Master endpoints</text>
<text text-anchor="middle" x="108" y="-441.5" font-family="Helvetica,sans-Serif" font-size="10.00">/api/security&#45;master/*</text>
<text text-anchor="middle" x="108" y="-430.5" font-family="Helvetica,sans-Serif" font-size="10.00">/api/workstation/security&#45;master/*</text>
</g>
<!-- API_ENDPOINTS&#45;&gt;IMPORT_SERVICE -->
<g id="edge2" class="edge">
<title>API_ENDPOINTS&#45;&gt;IMPORT_SERVICE</title>
<path fill="none" stroke="#4a5568" d="M200.03,-432.54C231.75,-428.55 267.27,-424.07 298.76,-420.11"/>
<polygon fill="#4a5568" stroke="#4a5568" points="299.35,-423.56 308.83,-418.84 298.47,-416.62 299.35,-423.56"/>
<text text-anchor="middle" x="254.5" y="-431.8" font-family="Helvetica,sans-Serif" font-size="9.00">import requests</text>
</g>
<!-- QUERY_SERVICE -->
<g id="node11" class="node">
<title>QUERY_SERVICE</title>
<path fill="#93c5fd" stroke="black" d="M1166,-216.5C1166,-216.5 1035,-216.5 1035,-216.5 1029,-216.5 1023,-210.5 1023,-204.5 1023,-204.5 1023,-187.5 1023,-187.5 1023,-181.5 1029,-175.5 1035,-175.5 1035,-175.5 1166,-175.5 1166,-175.5 1172,-175.5 1178,-181.5 1178,-187.5 1178,-187.5 1178,-204.5 1178,-204.5 1178,-210.5 1172,-216.5 1166,-216.5"/>
<text text-anchor="middle" x="1100.5" y="-204.5" font-family="Helvetica,sans-Serif" font-size="10.00">SecurityMasterQueryService</text>
<text text-anchor="middle" x="1100.5" y="-193.5" font-family="Helvetica,sans-Serif" font-size="10.00">search, history, identity,</text>
<text text-anchor="middle" x="1100.5" y="-182.5" font-family="Helvetica,sans-Serif" font-size="10.00">economic definition</text>
</g>
<!-- API_ENDPOINTS&#45;&gt;QUERY_SERVICE -->
<g id="edge7" class="edge">
<title>API_ENDPOINTS&#45;&gt;QUERY_SERVICE</title>
<path fill="none" stroke="#4a5568" d="M190.28,-423.22C193.85,-420.51 197.13,-417.45 200,-414 237.61,-368.84 195.07,-337.11 218,-283 243.57,-222.67 256.26,-205.89 309,-167 418.14,-86.51 460.64,-82.63 594,-58 757.23,-27.85 848.37,17.11 965,-101 986.06,-122.33 961.61,-145 983,-166 991.56,-174.4 1002.14,-180.55 1013.4,-185.02"/>
<polygon fill="#4a5568" stroke="#4a5568" points="1012.4,-188.38 1022.99,-188.4 1014.72,-181.77 1012.4,-188.38"/>
<text text-anchor="middle" x="534.5" y="-81.8" font-family="Helvetica,sans-Serif" font-size="9.00">query detail/history</text>
</g>
<!-- NULL_FALLBACKS -->
<g id="node15" class="node">
<title>NULL_FALLBACKS</title>
<polygon fill="#feebc8" stroke="black" points="794.5,-107.5 618.5,-107.5 618.5,-66.5 800.5,-66.5 800.5,-101.5 794.5,-107.5"/>
<polyline fill="none" stroke="black" points="794.5,-107.5 794.5,-101.5 "/>
<polyline fill="none" stroke="black" points="800.5,-101.5 794.5,-101.5 "/>
<text text-anchor="middle" x="709.5" y="-95.5" font-family="Helvetica,sans-Serif" font-size="10.00">NullSecurityMaster* fallbacks</text>
<text text-anchor="middle" x="709.5" y="-84.5" font-family="Helvetica,sans-Serif" font-size="10.00">keep APIs routable when Postgres</text>
<text text-anchor="middle" x="709.5" y="-73.5" font-family="Helvetica,sans-Serif" font-size="10.00">security&#45;master config is absent</text>
</g>
<!-- API_ENDPOINTS&#45;&gt;NULL_FALLBACKS -->
<g id="edge22" class="edge">
<title>API_ENDPOINTS&#45;&gt;NULL_FALLBACKS</title>
<path fill="none" stroke="#718096" stroke-dasharray="5,2" d="M187.64,-423.43C192.08,-420.67 196.26,-417.55 200,-414 215.94,-398.91 206.18,-386.5 218,-368 249.47,-318.73 262.59,-308.56 309,-273 423.62,-185.17 459.82,-170.36 594,-117 599.5,-114.81 605.22,-112.73 611.03,-110.77"/>
<polygon fill="#718096" stroke="#718096" points="612.45,-113.99 620.88,-107.58 610.29,-107.33 612.45,-113.99"/>
<text text-anchor="middle" x="388" y="-275.8" font-family="Helvetica,sans-Serif" font-size="9.00">not configured</text>
</g>
<!-- CSV_PARSER -->
<g id="node3" class="node">
<title>CSV_PARSER</title>
<path fill="#fbd38d" stroke="black" d="M780.5,-427C780.5,-427 638.5,-427 638.5,-427 632.5,-427 626.5,-421 626.5,-415 626.5,-415 626.5,-403 626.5,-403 626.5,-397 632.5,-391 638.5,-391 638.5,-391 780.5,-391 780.5,-391 786.5,-391 792.5,-397 792.5,-403 792.5,-403 792.5,-415 792.5,-415 792.5,-421 786.5,-427 780.5,-427"/>
<text text-anchor="middle" x="709.5" y="-412" font-family="Helvetica,sans-Serif" font-size="10.00">SecurityMasterCsvParser</text>
<text text-anchor="middle" x="709.5" y="-401" font-family="Helvetica,sans-Serif" font-size="10.00">CSV &#45;&gt; CreateSecurityRequest</text>
</g>
<!-- IMPORT_SERVICE&#45;&gt;CSV_PARSER -->
<g id="edge3" class="edge">
<title>IMPORT_SERVICE&#45;&gt;CSV_PARSER</title>
<path fill="none" stroke="#4a5568" d="M467.16,-409C512.17,-409 568.98,-409 616.18,-409"/>
<polygon fill="#4a5568" stroke="#4a5568" points="616.41,-412.5 626.41,-409 616.41,-405.5 616.41,-412.5"/>
<text text-anchor="middle" x="534.5" y="-411.8" font-family="Helvetica,sans-Serif" font-size="9.00">parse CSV</text>
</g>
<!-- IMPORT_SERVICE&#45;&gt;SECURITY_SERVICE -->
<g id="edge4" class="edge">
<title>IMPORT_SERVICE&#45;&gt;SECURITY_SERVICE</title>
<path fill="none" stroke="#4a5568" d="M412.89,-388.19C431.74,-372.31 459.1,-350.43 485,-334 530.82,-304.94 543.02,-297.58 594,-279 603.6,-275.5 613.82,-272.34 624.05,-269.52"/>
<polygon fill="#4a5568" stroke="#4a5568" points="625.07,-272.87 633.84,-266.91 623.27,-266.1 625.07,-272.87"/>
<text text-anchor="middle" x="534.5" y="-336.8" font-family="Helvetica,sans-Serif" font-size="9.00">CreateAsync</text>
</g>
<!-- CONFLICT_SERVICE -->
<g id="node7" class="node">
<title>CONFLICT_SERVICE</title>
<path fill="#bfdbfe" stroke="black" d="M780,-324C780,-324 639,-324 639,-324 633,-324 627,-318 627,-312 627,-312 627,-300 627,-300 627,-294 633,-288 639,-288 639,-288 780,-288 780,-288 786,-288 792,-294 792,-300 792,-300 792,-312 792,-312 792,-318 786,-324 780,-324"/>
<text text-anchor="middle" x="709.5" y="-309" font-family="Helvetica,sans-Serif" font-size="10.00">SecurityMasterConflictService</text>
<text text-anchor="middle" x="709.5" y="-298" font-family="Helvetica,sans-Serif" font-size="10.00">duplicate / ambiguity handling</text>
</g>
<!-- IMPORT_SERVICE&#45;&gt;CONFLICT_SERVICE -->
<g id="edge5" class="edge">
<title>IMPORT_SERVICE&#45;&gt;CONFLICT_SERVICE</title>
<path fill="none" stroke="#ed8936" stroke-dasharray="5,2" d="M452.89,-388.4C507.95,-370.65 587.11,-345.13 642.72,-327.21"/>
<polygon fill="#ed8936" stroke="#ed8936" points="644.02,-330.46 652.47,-324.06 641.88,-323.8 644.02,-330.46"/>
<text text-anchor="middle" x="534.5" y="-377.8" font-family="Helvetica,sans-Serif" font-size="9.00">count/report conflicts</text>
</g>
<!-- CORPORATE_ACTIONS -->
<g id="node5" class="node">
<title>CORPORATE_ACTIONS</title>
<path fill="#fbd38d" stroke="black" d="M181,-405C181,-405 35,-405 35,-405 29,-405 23,-399 23,-393 23,-393 23,-381 23,-381 23,-375 29,-369 35,-369 35,-369 181,-369 181,-369 187,-369 193,-375 193,-381 193,-381 193,-393 193,-393 193,-399 187,-405 181,-405"/>
<text text-anchor="middle" x="108" y="-390" font-family="Helvetica,sans-Serif" font-size="10.00">PolygonCorporateActionFetcher</text>
<text text-anchor="middle" x="108" y="-379" font-family="Helvetica,sans-Serif" font-size="10.00">corporate action ingestion</text>
</g>
<!-- EVENT_STORE -->
<g id="node16" class="node">
<title>EVENT_STORE</title>
<path fill="#fc8181" stroke="black" d="M1839,-145.98C1839,-148.06 1797.54,-149.75 1746.5,-149.75 1695.46,-149.75 1654,-148.06 1654,-145.98 1654,-145.98 1654,-112.02 1654,-112.02 1654,-109.94 1695.46,-108.25 1746.5,-108.25 1797.54,-108.25 1839,-109.94 1839,-112.02 1839,-112.02 1839,-145.98 1839,-145.98"/>
<path fill="none" stroke="black" d="M1839,-145.98C1839,-143.9 1797.54,-142.21 1746.5,-142.21 1695.46,-142.21 1654,-143.9 1654,-145.98"/>
<text text-anchor="middle" x="1746.5" y="-132" font-family="Helvetica,sans-Serif" font-size="10.00" fill="white">PostgresSecurityMasterEventStore</text>
<text text-anchor="middle" x="1746.5" y="-121" font-family="Helvetica,sans-Serif" font-size="10.00" fill="white">append + stream replay</text>
</g>
<!-- CORPORATE_ACTIONS&#45;&gt;EVENT_STORE -->
<g id="edge11" class="edge">
<title>CORPORATE_ACTIONS&#45;&gt;EVENT_STORE</title>
<path fill="none" stroke="#4a5568" d="M112.58,-368.85C128.82,-292.34 202.94,0 387,0 387,0 387,0 1451.5,0 1552.35,0 1657.5,-64.43 1710.5,-102.23"/>
<polygon fill="#4a5568" stroke="#4a5568" points="1708.7,-105.25 1718.85,-108.27 1712.81,-99.58 1708.7,-105.25"/>
<text text-anchor="middle" x="900" y="-2.8" font-family="Helvetica,sans-Serif" font-size="9.00">append corp actions</text>
</g>
<!-- SECURITY_SERVICE&#45;&gt;EVENT_STORE -->
<g id="edge8" class="edge">
<title>SECURITY_SERVICE&#45;&gt;EVENT_STORE</title>
<path fill="none" stroke="#4a5568" d="M785.23,-252.3C998.33,-252.81 1595.72,-251.74 1627,-224 1649.2,-204.32 1617.22,-180.11 1637,-158 1639.59,-155.11 1642.43,-152.49 1645.48,-150.12"/>
<polygon fill="#4a5568" stroke="#4a5568" points="1647.62,-152.89 1653.96,-144.41 1643.71,-147.09 1647.62,-152.89"/>
<text text-anchor="middle" x="1287.5" y="-251.8" font-family="Helvetica,sans-Serif" font-size="9.00">append events</text>
</g>
<!-- SNAPSHOT_STORE -->
<g id="node17" class="node">
<title>SNAPSHOT_STORE</title>
<path fill="#fecaca" stroke="black" d="M1848,-263.98C1848,-266.06 1802.51,-267.75 1746.5,-267.75 1690.49,-267.75 1645,-266.06 1645,-263.98 1645,-263.98 1645,-230.02 1645,-230.02 1645,-227.94 1690.49,-226.25 1746.5,-226.25 1802.51,-226.25 1848,-227.94 1848,-230.02 1848,-230.02 1848,-263.98 1848,-263.98"/>
<path fill="none" stroke="black" d="M1848,-263.98C1848,-261.9 1802.51,-260.21 1746.5,-260.21 1690.49,-260.21 1645,-261.9 1645,-263.98"/>
<text text-anchor="middle" x="1746.5" y="-250" font-family="Helvetica,sans-Serif" font-size="10.00">PostgresSecurityMasterSnapshotStore</text>
<text text-anchor="middle" x="1746.5" y="-239" font-family="Helvetica,sans-Serif" font-size="10.00">periodic aggregate snapshots</text>
</g>
<!-- SECURITY_SERVICE&#45;&gt;SNAPSHOT_STORE -->
<g id="edge9" class="edge">
<title>SECURITY_SERVICE&#45;&gt;SNAPSHOT_STORE</title>
<path fill="none" stroke="#c53030" stroke-dasharray="5,2" d="M785.19,-256.88C801.6,-257.77 818.88,-258.55 835,-259 1186.86,-268.88 1275.45,-276.75 1627,-259 1629.53,-258.87 1632.09,-258.73 1634.67,-258.57"/>
<polygon fill="#c53030" stroke="#c53030" points="1634.96,-262.06 1644.7,-257.91 1634.49,-255.08 1634.96,-262.06"/>
<text text-anchor="middle" x="1287.5" y="-271.8" font-family="Helvetica,sans-Serif" font-size="9.00">snapshot cadence</text>
</g>
<!-- PROJECTION_STORE -->
<g id="node18" class="node">
<title>PROJECTION_STORE</title>
<path fill="#fecaca" stroke="black" d="M1825.5,-204.98C1825.5,-207.06 1790.09,-208.75 1746.5,-208.75 1702.91,-208.75 1667.5,-207.06 1667.5,-204.98 1667.5,-204.98 1667.5,-171.02 1667.5,-171.02 1667.5,-168.94 1702.91,-167.25 1746.5,-167.25 1790.09,-167.25 1825.5,-168.94 1825.5,-171.02 1825.5,-171.02 1825.5,-204.98 1825.5,-204.98"/>
<path fill="none" stroke="black" d="M1825.5,-204.98C1825.5,-202.9 1790.09,-201.21 1746.5,-201.21 1702.91,-201.21 1667.5,-202.9 1667.5,-204.98"/>
<text text-anchor="middle" x="1746.5" y="-191" font-family="Helvetica,sans-Serif" font-size="10.00">PostgresSecurityMasterStore</text>
<text text-anchor="middle" x="1746.5" y="-180" font-family="Helvetica,sans-Serif" font-size="10.00">projection records + lookups</text>
</g>
<!-- CONFLICT_SERVICE&#45;&gt;PROJECTION_STORE -->
<g id="edge10" class="edge">
<title>CONFLICT_SERVICE&#45;&gt;PROJECTION_STORE</title>
<path fill="none" stroke="#ed8936" stroke-dasharray="5,2" d="M767.15,-324.03C925.04,-370.41 1374.95,-475.69 1627,-259 1641.55,-246.49 1623.62,-230.75 1637,-217 1643.01,-210.82 1650.18,-205.91 1657.93,-202.02"/>
<polygon fill="#ed8936" stroke="#ed8936" points="1659.52,-205.14 1667.26,-197.9 1656.7,-198.74 1659.52,-205.14"/>
<text text-anchor="middle" x="1287.5" y="-392.8" font-family="Helvetica,sans-Serif" font-size="9.00">open conflict review</text>
</g>
<!-- AGGREGATE_REBUILDER -->
<g id="node8" class="node">
<title>AGGREGATE_REBUILDER</title>
<path fill="#bfdbfe" stroke="black" d="M1532,-117C1532,-117 1369,-117 1369,-117 1363,-117 1357,-111 1357,-105 1357,-105 1357,-93 1357,-93 1357,-87 1363,-81 1369,-81 1369,-81 1532,-81 1532,-81 1538,-81 1544,-87 1544,-93 1544,-93 1544,-105 1544,-105 1544,-111 1538,-117 1532,-117"/>
<text text-anchor="middle" x="1450.5" y="-102" font-family="Helvetica,sans-Serif" font-size="10.00">SecurityMasterAggregateRebuilder</text>
<text text-anchor="middle" x="1450.5" y="-91" font-family="Helvetica,sans-Serif" font-size="10.00">replay security streams</text>
</g>
<!-- AGGREGATE_REBUILDER&#45;&gt;EVENT_STORE -->
<g id="edge15" class="edge">
<title>AGGREGATE_REBUILDER&#45;&gt;EVENT_STORE</title>
<path fill="none" stroke="#4a5568" d="M1544.12,-108.45C1575.71,-111.67 1611.2,-115.3 1643.49,-118.59"/>
<polygon fill="#4a5568" stroke="#4a5568" points="1643.55,-122.11 1653.85,-119.65 1644.26,-115.15 1643.55,-122.11"/>
<text text-anchor="middle" x="1594.5" y="-118.8" font-family="Helvetica,sans-Serif" font-size="9.00">replay stream</text>
</g>
<!-- AGGREGATE_REBUILDER&#45;&gt;SNAPSHOT_STORE -->
<g id="edge16" class="edge">
<title>AGGREGATE_REBUILDER&#45;&gt;SNAPSHOT_STORE</title>
<path fill="none" stroke="#c53030" stroke-dasharray="5,2" d="M1534.26,-117.09C1540.45,-119.68 1546.43,-122.64 1552,-126 1599.64,-154.8 1589.34,-189.23 1637,-218 1640.06,-219.84 1643.23,-221.57 1646.49,-223.19"/>
<polygon fill="#c53030" stroke="#c53030" points="1645.32,-226.51 1655.87,-227.48 1648.23,-220.14 1645.32,-226.51"/>
<text text-anchor="middle" x="1594.5" y="-212.8" font-family="Helvetica,sans-Serif" font-size="9.00">use snapshots</text>
</g>
<!-- PROJECTION_SERVICE -->
<g id="node9" class="node">
<title>PROJECTION_SERVICE</title>
<path fill="#bfdbfe" stroke="black" d="M1179.5,-102C1179.5,-102 1021.5,-102 1021.5,-102 1015.5,-102 1009.5,-96 1009.5,-90 1009.5,-90 1009.5,-78 1009.5,-78 1009.5,-72 1015.5,-66 1021.5,-66 1021.5,-66 1179.5,-66 1179.5,-66 1185.5,-66 1191.5,-72 1191.5,-78 1191.5,-78 1191.5,-90 1191.5,-90 1191.5,-96 1185.5,-102 1179.5,-102"/>
<text text-anchor="middle" x="1100.5" y="-87" font-family="Helvetica,sans-Serif" font-size="10.00">SecurityMasterProjectionService</text>
<text text-anchor="middle" x="1100.5" y="-76" font-family="Helvetica,sans-Serif" font-size="10.00">BuildWarmSetAsync / WarmAsync</text>
</g>
<!-- PROJECTION_SERVICE&#45;&gt;AGGREGATE_REBUILDER -->
<g id="edge14" class="edge">
<title>PROJECTION_SERVICE&#45;&gt;AGGREGATE_REBUILDER</title>
<path fill="none" stroke="#4a5568" d="M1191.53,-81.8C1235.97,-81.37 1290.35,-81.83 1339,-85 1341.53,-85.17 1344.1,-85.35 1346.68,-85.55"/>
<polygon fill="#4a5568" stroke="#4a5568" points="1346.47,-89.05 1356.73,-86.41 1347.07,-82.07 1346.47,-89.05"/>
<text text-anchor="middle" x="1287.5" y="-87.8" font-family="Helvetica,sans-Serif" font-size="9.00">rebuild economics</text>
</g>
<!-- PROJECTION_CACHE -->
<g id="node12" class="node">
<title>PROJECTION_CACHE</title>
<path fill="#d1fae5" stroke="black" d="M1524,-171C1524,-171 1377,-171 1377,-171 1371,-171 1365,-165 1365,-159 1365,-159 1365,-147 1365,-147 1365,-141 1371,-135 1377,-135 1377,-135 1524,-135 1524,-135 1530,-135 1536,-141 1536,-147 1536,-147 1536,-159 1536,-159 1536,-165 1530,-171 1524,-171"/>
<text text-anchor="middle" x="1450.5" y="-156" font-family="Helvetica,sans-Serif" font-size="10.00">SecurityMasterProjectionCache</text>
<text text-anchor="middle" x="1450.5" y="-145" font-family="Helvetica,sans-Serif" font-size="10.00">warm in&#45;memory projection set</text>
</g>
<!-- PROJECTION_SERVICE&#45;&gt;PROJECTION_CACHE -->
<g id="edge17" class="edge">
<title>PROJECTION_SERVICE&#45;&gt;PROJECTION_CACHE</title>
<path fill="none" stroke="#4a5568" d="M1191.78,-101.18C1236.16,-109.7 1290.41,-120.24 1339,-130 1344.09,-131.02 1349.32,-132.08 1354.59,-133.16"/>
<polygon fill="#4a5568" stroke="#4a5568" points="1354.26,-136.66 1364.76,-135.24 1355.67,-129.8 1354.26,-136.66"/>
<text text-anchor="middle" x="1287.5" y="-132.8" font-family="Helvetica,sans-Serif" font-size="9.00">ReplaceAll</text>
</g>
<!-- PROJECTION_SERVICE&#45;&gt;PROJECTION_STORE -->
<g id="edge13" class="edge">
<title>PROJECTION_SERVICE&#45;&gt;PROJECTION_STORE</title>
<path fill="none" stroke="#4a5568" d="M1178.79,-65.92C1269.79,-47.88 1424.67,-27.41 1552,-62 1589.29,-72.13 1604.75,-74.4 1627,-106 1640.8,-125.6 1620.69,-141.43 1637,-159 1643.02,-165.49 1650.32,-170.59 1658.26,-174.59"/>
<polygon fill="#4a5568" stroke="#4a5568" points="1656.89,-177.81 1667.45,-178.65 1659.72,-171.41 1656.89,-177.81"/>
<text text-anchor="middle" x="1450.5" y="-64.8" font-family="Helvetica,sans-Serif" font-size="9.00">load seed records</text>
</g>
<!-- WARMUP_SERVICE -->
<g id="node10" class="node">
<title>WARMUP_SERVICE</title>
<path fill="#bfdbfe" stroke="black" d="M805,-162C805,-162 614,-162 614,-162 608,-162 602,-156 602,-150 602,-150 602,-138 602,-138 602,-132 608,-126 614,-126 614,-126 805,-126 805,-126 811,-126 817,-132 817,-138 817,-138 817,-150 817,-150 817,-156 811,-162 805,-162"/>
<text text-anchor="middle" x="709.5" y="-147" font-family="Helvetica,sans-Serif" font-size="10.00">SecurityMasterProjectionWarmupService</text>
<text text-anchor="middle" x="709.5" y="-136" font-family="Helvetica,sans-Serif" font-size="10.00">startup cache warmup</text>
</g>
<!-- WARMUP_SERVICE&#45;&gt;PROJECTION_SERVICE -->
<g id="edge12" class="edge">
<title>WARMUP_SERVICE&#45;&gt;PROJECTION_SERVICE</title>
<path fill="none" stroke="#4a5568" d="M817.05,-127.57C873.92,-118.79 943.5,-108.06 999.36,-99.45"/>
<polygon fill="#4a5568" stroke="#4a5568" points="999.92,-102.9 1009.27,-97.92 998.86,-95.98 999.92,-102.9"/>
<text text-anchor="middle" x="900" y="-126.8" font-family="Helvetica,sans-Serif" font-size="9.00">startup warm</text>
</g>
<!-- QUERY_SERVICE&#45;&gt;PROJECTION_CACHE -->
<g id="edge19" class="edge">
<title>QUERY_SERVICE&#45;&gt;PROJECTION_CACHE</title>
<path fill="none" stroke="#4a5568" d="M1178.3,-186.51C1230.31,-180.08 1299.37,-171.55 1354.79,-164.7"/>
<polygon fill="#4a5568" stroke="#4a5568" points="1355.48,-168.14 1364.97,-163.44 1354.62,-161.2 1355.48,-168.14"/>
<text text-anchor="middle" x="1287.5" y="-180.8" font-family="Helvetica,sans-Serif" font-size="9.00">warm reads</text>
</g>
<!-- QUERY_SERVICE&#45;&gt;PROJECTION_STORE -->
<g id="edge20" class="edge">
<title>QUERY_SERVICE&#45;&gt;PROJECTION_STORE</title>
<path fill="none" stroke="#4a5568" d="M1178.1,-196.44C1280.43,-196.82 1467.39,-196.82 1627,-193 1636.8,-192.77 1647.06,-192.44 1657.26,-192.08"/>
<polygon fill="#4a5568" stroke="#4a5568" points="1657.57,-195.57 1667.43,-191.7 1657.31,-188.57 1657.57,-195.57"/>
<text text-anchor="middle" x="1450.5" y="-198.8" font-family="Helvetica,sans-Serif" font-size="9.00">history / fallback reads</text>
</g>
<!-- SEED_SERVICE -->
<g id="node13" class="node">
<title>SEED_SERVICE</title>
<path fill="#d1fae5" stroke="black" d="M1206,-157C1206,-157 995,-157 995,-157 989,-157 983,-151 983,-145 983,-145 983,-133 983,-133 983,-127 989,-121 995,-121 995,-121 1206,-121 1206,-121 1212,-121 1218,-127 1218,-133 1218,-133 1218,-145 1218,-145 1218,-151 1212,-157 1206,-157"/>
<text text-anchor="middle" x="1100.5" y="-142" font-family="Helvetica,sans-Serif" font-size="10.00">SecurityMasterCanonicalSymbolSeedService</text>
<text text-anchor="middle" x="1100.5" y="-131" font-family="Helvetica,sans-Serif" font-size="10.00">seed canonical&#45;symbol cache</text>
</g>
<!-- SEED_SERVICE&#45;&gt;PROJECTION_CACHE -->
<g id="edge18" class="edge">
<title>SEED_SERVICE&#45;&gt;PROJECTION_CACHE</title>
<path fill="none" stroke="#4a5568" d="M1218.35,-143.7C1262.67,-145.48 1312.57,-147.49 1354.63,-149.18"/>
<polygon fill="#4a5568" stroke="#4a5568" points="1354.73,-152.69 1364.86,-149.6 1355.01,-145.7 1354.73,-152.69"/>
<text text-anchor="middle" x="1287.5" y="-150.8" font-family="Helvetica,sans-Serif" font-size="9.00">canonical symbol seed</text>
</g>
<!-- LOOKUP -->
<g id="node14" class="node">
<title>LOOKUP</title>
<path fill="#d1fae5" stroke="black" d="M804.5,-216C804.5,-216 614.5,-216 614.5,-216 608.5,-216 602.5,-210 602.5,-204 602.5,-204 602.5,-192 602.5,-192 602.5,-186 608.5,-180 614.5,-180 614.5,-180 804.5,-180 804.5,-180 810.5,-180 816.5,-186 816.5,-192 816.5,-192 816.5,-204 816.5,-204 816.5,-210 810.5,-216 804.5,-216"/>
<text text-anchor="middle" x="709.5" y="-201" font-family="Helvetica,sans-Serif" font-size="10.00">SecurityMasterSecurityReferenceLookup</text>
<text text-anchor="middle" x="709.5" y="-190" font-family="Helvetica,sans-Serif" font-size="10.00">portfolio / ledger enrichment</text>
</g>
<!-- LOOKUP&#45;&gt;QUERY_SERVICE -->
<g id="edge21" class="edge">
<title>LOOKUP&#45;&gt;QUERY_SERVICE</title>
<path fill="none" stroke="#4a5568" d="M816.54,-197.45C878.08,-197.14 954.65,-196.74 1012.6,-196.45"/>
<polygon fill="#4a5568" stroke="#4a5568" points="1012.85,-199.95 1022.84,-196.39 1012.82,-192.95 1012.85,-199.95"/>
<text text-anchor="middle" x="900" y="-199.8" font-family="Helvetica,sans-Serif" font-size="9.00">security reference resolution</text>
</g>
<!-- LEG_INPUT -->
<g id="node19" class="node">
<title>LEG_INPUT</title>
<path fill="#fbd38d" stroke="black" d="M152.5,-762C152.5,-762 63.5,-762 63.5,-762 57.5,-762 51.5,-756 51.5,-750 51.5,-750 51.5,-738 51.5,-738 51.5,-732 57.5,-726 63.5,-726 63.5,-726 152.5,-726 152.5,-726 158.5,-726 164.5,-732 164.5,-738 164.5,-738 164.5,-750 164.5,-750 164.5,-756 158.5,-762 152.5,-762"/>
<text text-anchor="middle" x="108" y="-741.5" font-family="Helvetica,sans-Serif" font-size="10.00">Import / ingest path</text>
</g>
<!-- LEG_CORE -->
<g id="node20" class="node">
<title>LEG_CORE</title>
<path fill="#93c5fd" stroke="black" d="M134.5,-708C134.5,-708 81.5,-708 81.5,-708 75.5,-708 69.5,-702 69.5,-696 69.5,-696 69.5,-684 69.5,-684 69.5,-678 75.5,-672 81.5,-672 81.5,-672 134.5,-672 134.5,-672 140.5,-672 146.5,-678 146.5,-684 146.5,-684 146.5,-696 146.5,-696 146.5,-702 140.5,-708 134.5,-708"/>
<text text-anchor="middle" x="108" y="-687.5" font-family="Helvetica,sans-Serif" font-size="10.00">Core service</text>
</g>
<!-- LEG_CACHE -->
<g id="node21" class="node">
<title>LEG_CACHE</title>
<path fill="#d1fae5" stroke="black" d="M173,-654C173,-654 43,-654 43,-654 37,-654 31,-648 31,-642 31,-642 31,-630 31,-630 31,-624 37,-618 43,-618 43,-618 173,-618 173,-618 179,-618 185,-624 185,-630 185,-630 185,-642 185,-642 185,-648 179,-654 173,-654"/>
<text text-anchor="middle" x="108" y="-633.5" font-family="Helvetica,sans-Serif" font-size="10.00">Projection / cache consumer</text>
</g>
<!-- LEG_STORE -->
<g id="node22" class="node">
<title>LEG_STORE</title>
<path fill="#fecaca" stroke="black" d="M154.5,-596.73C154.5,-598.53 133.66,-600 108,-600 82.34,-600 61.5,-598.53 61.5,-596.73 61.5,-596.73 61.5,-567.27 61.5,-567.27 61.5,-565.47 82.34,-564 108,-564 133.66,-564 154.5,-565.47 154.5,-567.27 154.5,-567.27 154.5,-596.73 154.5,-596.73"/>
<path fill="none" stroke="black" d="M154.5,-596.73C154.5,-594.92 133.66,-593.45 108,-593.45 82.34,-593.45 61.5,-594.92 61.5,-596.73"/>
<text text-anchor="middle" x="108" y="-579.5" font-family="Helvetica,sans-Serif" font-size="10.00">Persistent store</text>
</g>
</g>
</svg>
