<?xml version="1.0" encoding="UTF-8" standalone="no"?>
<!DOCTYPE svg PUBLIC "-//W3C//DTD SVG 1.1//EN"
 "http://www.w3.org/Graphics/SVG/1.1/DTD/svg11.dtd">
<!-- Generated by graphviz version 14.1.3 (20260303.0454)
 -->
<!-- Title: SecurityMasterLifecycle Pages: 1 -->
<svg width="2472pt" height="969pt"
 viewBox="0.00 0.00 2472.00 969.00" xmlns="http://www.w3.org/2000/svg" xmlns:xlink="http://www.w3.org/1999/xlink">
<g id="graph0" class="graph" transform="scale(1 1) rotate(0) translate(36 933.16)">
<title>SecurityMasterLifecycle</title>
<polygon fill="white" stroke="none" points="-36,36 -36,-933.16 2436.21,-933.16 2436.21,36 -36,36"/>
<text xml:space="preserve" text-anchor="middle" x="1200.1" y="-882.36" font-family="Helvetica,sans-Serif" font-size="12.00">Meridian &#45; Security Master Lifecycle</text>
<text xml:space="preserve" text-anchor="middle" x="1200.1" y="-867.96" font-family="Helvetica,sans-Serif" font-size="12.00">Import, ingest status, conflict triage, and workstation consumers | v1.8.x</text>
<g id="clust1" class="cluster">
<title>cluster_inputs</title>
<path fill="#faf5ff" stroke="#805ad5" d="M20,-472.36C20,-472.36 1400.62,-472.36 1400.62,-472.36 1406.62,-472.36 1412.62,-478.36 1412.62,-484.36 1412.62,-484.36 1412.62,-596.36 1412.62,-596.36 1412.62,-602.36 1406.62,-608.36 1400.62,-608.36 1400.62,-608.36 20,-608.36 20,-608.36 14,-608.36 8,-602.36 8,-596.36 8,-596.36 8,-484.36 8,-484.36 8,-478.36 14,-472.36 20,-472.36"/>
<text xml:space="preserve" text-anchor="middle" x="710.31" y="-593.56" font-family="Helvetica,sans-Serif" font-size="12.00">Inputs and Entry Paths</text>
</g>
<g id="clust2" class="cluster">
<title>cluster_core</title>
<path fill="#dbeafe" stroke="#2b6cb0" d="M1232.14,-96.36C1232.14,-96.36 2097.86,-96.36 2097.86,-96.36 2103.86,-96.36 2109.86,-102.36 2109.86,-108.36 2109.86,-108.36 2109.86,-452.36 2109.86,-452.36 2109.86,-458.36 2103.86,-464.36 2097.86,-464.36 2097.86,-464.36 1232.14,-464.36 1232.14,-464.36 1226.14,-464.36 1220.14,-458.36 1220.14,-452.36 1220.14,-452.36 1220.14,-108.36 1220.14,-108.36 1220.14,-102.36 1226.14,-96.36 1232.14,-96.36"/>
<text xml:space="preserve" text-anchor="middle" x="1665" y="-449.56" font-family="Helvetica,sans-Serif" font-size="12.00">Application and Projection Layer</text>
</g>
<g id="clust3" class="cluster">
<title>cluster_storage</title>
<path fill="#fff5f5" stroke="#c53030" d="M2199.9,-208.36C2199.9,-208.36 2380.21,-208.36 2380.21,-208.36 2386.21,-208.36 2392.21,-214.36 2392.21,-220.36 2392.21,-220.36 2392.21,-402.36 2392.21,-402.36 2392.21,-408.36 2386.21,-414.36 2380.21,-414.36 2380.21,-414.36 2199.9,-414.36 2199.9,-414.36 2193.9,-414.36 2187.9,-408.36 2187.9,-402.36 2187.9,-402.36 2187.9,-220.36 2187.9,-220.36 2187.9,-214.36 2193.9,-208.36 2199.9,-208.36"/>
<text xml:space="preserve" text-anchor="middle" x="2290.05" y="-399.56" font-family="Helvetica,sans-Serif" font-size="12.00">Persistence</text>
</g>
<g id="clust4" class="cluster">
<title>cluster_legend</title>
<path fill="#fafafa" stroke="#666666" d="M28.06,-616.36C28.06,-616.36 162.24,-616.36 162.24,-616.36 168.24,-616.36 174.24,-622.36 174.24,-628.36 174.24,-628.36 174.24,-840.36 174.24,-840.36 174.24,-846.36 168.24,-852.36 162.24,-852.36 162.24,-852.36 28.06,-852.36 28.06,-852.36 22.06,-852.36 16.06,-846.36 16.06,-840.36 16.06,-840.36 16.06,-628.36 16.06,-628.36 16.06,-622.36 22.06,-616.36 28.06,-616.36"/>
<text xml:space="preserve" text-anchor="middle" x="95.15" y="-837.56" font-family="Helvetica,sans-Serif" font-size="12.00">Legend</text>
</g>
<!-- WPF_PAGE -->
<g id="node1" class="node">
<title>WPF_PAGE</title>
<path fill="#805ad5" stroke="black" d="M140.35,-578.36C140.35,-578.36 49.95,-578.36 49.95,-578.36 43.95,-578.36 37.95,-572.36 37.95,-566.36 37.95,-566.36 37.95,-546.36 37.95,-546.36 37.95,-540.36 43.95,-534.36 49.95,-534.36 49.95,-534.36 140.35,-534.36 140.35,-534.36 146.35,-534.36 152.35,-540.36 152.35,-546.36 152.35,-546.36 152.35,-566.36 152.35,-566.36 152.35,-572.36 146.35,-578.36 140.35,-578.36"/>
<text xml:space="preserve" text-anchor="middle" x="95.15" y="-565.36" font-family="Helvetica,sans-Serif" font-size="10.00" fill="white">SecurityMasterPage</text>
<text xml:space="preserve" text-anchor="middle" x="95.15" y="-553.36" font-family="Helvetica,sans-Serif" font-size="10.00" fill="white">search / detail /</text>
<text xml:space="preserve" text-anchor="middle" x="95.15" y="-541.36" font-family="Helvetica,sans-Serif" font-size="10.00" fill="white">grouped conflict triage</text>
</g>
<!-- WORKFLOW_CLIENT -->
<g id="node2" class="node">
<title>WORKFLOW_CLIENT</title>
<path fill="#c4b5fd" stroke="black" d="M501.71,-527.36C501.71,-527.36 336.89,-527.36 336.89,-527.36 330.89,-527.36 324.89,-521.36 324.89,-515.36 324.89,-515.36 324.89,-495.36 324.89,-495.36 324.89,-489.36 330.89,-483.36 336.89,-483.36 336.89,-483.36 501.71,-483.36 501.71,-483.36 507.71,-483.36 513.71,-489.36 513.71,-495.36 513.71,-495.36 513.71,-515.36 513.71,-515.36 513.71,-521.36 507.71,-527.36 501.71,-527.36"/>
<text xml:space="preserve" text-anchor="middle" x="419.3" y="-514.36" font-family="Helvetica,sans-Serif" font-size="10.00">SecurityMasterOperatorWorkflowClient</text>
<text xml:space="preserve" text-anchor="middle" x="419.3" y="-502.36" font-family="Helvetica,sans-Serif" font-size="10.00">ingest posture / grouped queue</text>
<text xml:space="preserve" text-anchor="middle" x="419.3" y="-490.36" font-family="Helvetica,sans-Serif" font-size="10.00">resolve + dismiss actions</text>
</g>
<!-- WPF_PAGE&#45;&gt;WORKFLOW_CLIENT -->
<g id="edge1" class="edge">
<title>WPF_PAGE&#45;&gt;WORKFLOW_CLIENT</title>
<path fill="none" stroke="#2b6cb0" stroke-dasharray="5,2" d="M152.62,-541.88C165.6,-538.86 179.38,-535.89 192.3,-533.56 231.61,-526.46 275.09,-520.58 313.33,-516.05"/>
<polygon fill="#2b6cb0" stroke="#2b6cb0" points="313.46,-519.56 322.99,-514.92 312.65,-512.61 313.46,-519.56"/>
<text xml:space="preserve" text-anchor="middle" x="249.59" y="-536.26" font-family="Helvetica,sans-Serif" font-size="9.00">poll posture / grouped queue</text>
</g>
<!-- IMPORT_SERVICE -->
<g id="node5" class="node">
<title>IMPORT_SERVICE</title>
<path fill="#fbd38d" stroke="black" d="M1061.32,-529.36C1061.32,-529.36 912.29,-529.36 912.29,-529.36 906.29,-529.36 900.29,-523.36 900.29,-517.36 900.29,-517.36 900.29,-497.36 900.29,-497.36 900.29,-491.36 906.29,-485.36 912.29,-485.36 912.29,-485.36 1061.32,-485.36 1061.32,-485.36 1067.32,-485.36 1073.32,-491.36 1073.32,-497.36 1073.32,-497.36 1073.32,-517.36 1073.32,-517.36 1073.32,-523.36 1067.32,-529.36 1061.32,-529.36"/>
<text xml:space="preserve" text-anchor="middle" x="986.8" y="-516.36" font-family="Helvetica,sans-Serif" font-size="10.00">SecurityMasterImportService</text>
<text xml:space="preserve" text-anchor="middle" x="986.8" y="-504.36" font-family="Helvetica,sans-Serif" font-size="10.00">CSV / JSON bulk import</text>
<text xml:space="preserve" text-anchor="middle" x="986.8" y="-492.36" font-family="Helvetica,sans-Serif" font-size="10.00">session snapshots + conflict counts</text>
</g>
<!-- WPF_PAGE&#45;&gt;IMPORT_SERVICE -->
<g id="edge2" class="edge">
<title>WPF_PAGE&#45;&gt;IMPORT_SERVICE</title>
<path fill="none" stroke="#4a5568" d="M152.56,-556.59C272.43,-556.62 561.24,-554.29 802.26,-533.36 830.44,-530.91 860.91,-527.08 888.77,-523.1"/>
<polygon fill="#4a5568" stroke="#4a5568" points="889.23,-526.57 898.62,-521.67 888.22,-519.64 889.23,-526.57"/>
<text xml:space="preserve" text-anchor="middle" x="576.35" y="-552.17" font-family="Helvetica,sans-Serif" font-size="9.00">bulk import</text>
</g>
<!-- SECURITY_SERVICE -->
<g id="node7" class="node">
<title>SECURITY_SERVICE</title>
<path fill="#93c5fd" stroke="black" d="M1383.6,-434.36C1383.6,-434.36 1270.96,-434.36 1270.96,-434.36 1264.96,-434.36 1258.96,-428.36 1258.96,-422.36 1258.96,-422.36 1258.96,-410.36 1258.96,-410.36 1258.96,-404.36 1264.96,-398.36 1270.96,-398.36 1270.96,-398.36 1383.6,-398.36 1383.6,-398.36 1389.6,-398.36 1395.6,-404.36 1395.6,-410.36 1395.6,-410.36 1395.6,-422.36 1395.6,-422.36 1395.6,-428.36 1389.6,-434.36 1383.6,-434.36"/>
<text xml:space="preserve" text-anchor="middle" x="1327.28" y="-419.36" font-family="Helvetica,sans-Serif" font-size="10.00">SecurityMasterService</text>
<text xml:space="preserve" text-anchor="middle" x="1327.28" y="-407.36" font-family="Helvetica,sans-Serif" font-size="10.00">create / update / deactivate</text>
</g>
<!-- WPF_PAGE&#45;&gt;SECURITY_SERVICE -->
<g id="edge11" class="edge">
<title>WPF_PAGE&#45;&gt;SECURITY_SERVICE</title>
<path fill="none" stroke="#4a5568" d="M152.71,-535.57C160.08,-532.38 167.45,-528.95 174.3,-525.36 182.82,-520.89 183.9,-518.03 192.3,-513.36 288.75,-459.68 307.92,-410.36 418.3,-410.36 418.3,-410.36 418.3,-410.36 852.28,-410.36 991.32,-410.36 1153.29,-412.97 1247.37,-414.75"/>
<polygon fill="#4a5568" stroke="#4a5568" points="1247.2,-418.24 1257.26,-414.94 1247.33,-411.25 1247.2,-418.24"/>
<text xml:space="preserve" text-anchor="middle" x="720.63" y="-413.06" font-family="Helvetica,sans-Serif" font-size="9.00">create / edit</text>
</g>
<!-- QUERY_SERVICE -->
<g id="node13" class="node">
<title>QUERY_SERVICE</title>
<path fill="#93c5fd" stroke="black" d="M1743.7,-202.36C1743.7,-202.36 1624.44,-202.36 1624.44,-202.36 1618.44,-202.36 1612.44,-196.36 1612.44,-190.36 1612.44,-190.36 1612.44,-170.36 1612.44,-170.36 1612.44,-164.36 1618.44,-158.36 1624.44,-158.36 1624.44,-158.36 1743.7,-158.36 1743.7,-158.36 1749.7,-158.36 1755.7,-164.36 1755.7,-170.36 1755.7,-170.36 1755.7,-190.36 1755.7,-190.36 1755.7,-196.36 1749.7,-202.36 1743.7,-202.36"/>
<text xml:space="preserve" text-anchor="middle" x="1684.07" y="-189.36" font-family="Helvetica,sans-Serif" font-size="10.00">SecurityMasterQueryService</text>
<text xml:space="preserve" text-anchor="middle" x="1684.07" y="-177.36" font-family="Helvetica,sans-Serif" font-size="10.00">search, history, identity,</text>
<text xml:space="preserve" text-anchor="middle" x="1684.07" y="-165.36" font-family="Helvetica,sans-Serif" font-size="10.00">economic definition</text>
</g>
<!-- WPF_PAGE&#45;&gt;QUERY_SERVICE -->
<g id="edge3" class="edge">
<title>WPF_PAGE&#45;&gt;QUERY_SERVICE</title>
<path fill="none" stroke="#2b6cb0" stroke-dasharray="5,2" d="M152.78,-541.9C160.93,-537.71 168.5,-532.3 174.3,-525.36 200.43,-494.03 178.03,-473.57 192.3,-435.36 263.34,-245.16 215.27,-38.36 418.3,-38.36 418.3,-38.36 418.3,-38.36 1328.28,-38.36 1433.25,-38.36 1480.41,-24.08 1557.47,-95.36 1576.05,-112.53 1557.22,-131.84 1575.47,-149.36 1582.94,-156.52 1591.96,-162.05 1601.55,-166.31"/>
<polygon fill="#2b6cb0" stroke="#2b6cb0" points="1600.15,-169.52 1610.74,-169.9 1602.7,-163 1600.15,-169.52"/>
<text xml:space="preserve" text-anchor="middle" x="851.28" y="-51.86" font-family="Helvetica,sans-Serif" font-size="9.00">detail / history /</text>
<text xml:space="preserve" text-anchor="middle" x="851.28" y="-41.06" font-family="Helvetica,sans-Serif" font-size="9.00">trading params</text>
</g>
<!-- API_ENDPOINTS -->
<g id="node3" class="node">
<title>API_ENDPOINTS</title>
<path fill="#c4b5fd" stroke="black" d="M790.26,-524.36C790.26,-524.36 650.99,-524.36 650.99,-524.36 644.99,-524.36 638.99,-518.36 638.99,-512.36 638.99,-512.36 638.99,-492.36 638.99,-492.36 638.99,-486.36 644.99,-480.36 650.99,-480.36 650.99,-480.36 790.26,-480.36 790.26,-480.36 796.26,-480.36 802.26,-486.36 802.26,-492.36 802.26,-492.36 802.26,-512.36 802.26,-512.36 802.26,-518.36 796.26,-524.36 790.26,-524.36"/>
<text xml:space="preserve" text-anchor="middle" x="720.63" y="-511.36" font-family="Helvetica,sans-Serif" font-size="10.00">Security Master endpoints</text>
<text xml:space="preserve" text-anchor="middle" x="720.63" y="-499.36" font-family="Helvetica,sans-Serif" font-size="10.00">/api/security&#45;master/*</text>
<text xml:space="preserve" text-anchor="middle" x="720.63" y="-487.36" font-family="Helvetica,sans-Serif" font-size="10.00">/api/workstation/security&#45;master/*</text>
</g>
<!-- WORKFLOW_CLIENT&#45;&gt;API_ENDPOINTS -->
<g id="edge5" class="edge">
<title>WORKFLOW_CLIENT&#45;&gt;API_ENDPOINTS</title>
<path fill="none" stroke="#4a5568" d="M514.19,-504.41C550.24,-504.05 591.32,-503.64 627.23,-503.28"/>
<polygon fill="#4a5568" stroke="#4a5568" points="627.21,-506.78 637.18,-503.18 627.14,-499.78 627.21,-506.78"/>
<text xml:space="preserve" text-anchor="middle" x="576.35" y="-506.91" font-family="Helvetica,sans-Serif" font-size="9.00">HTTP status + resolve</text>
</g>
<!-- API_ENDPOINTS&#45;&gt;IMPORT_SERVICE -->
<g id="edge4" class="edge">
<title>API_ENDPOINTS&#45;&gt;IMPORT_SERVICE</title>
<path fill="none" stroke="#4a5568" d="M802.69,-503.89C829.75,-504.4 860.18,-504.98 888.36,-505.51"/>
<polygon fill="#4a5568" stroke="#4a5568" points="888.28,-509.01 898.35,-505.7 888.42,-502.01 888.28,-509.01"/>
<text xml:space="preserve" text-anchor="middle" x="851.28" y="-508" font-family="Helvetica,sans-Serif" font-size="9.00">import requests</text>
</g>
<!-- CONFLICT_SERVICE -->
<g id="node8" class="node">
<title>CONFLICT_SERVICE</title>
<path fill="#bfdbfe" stroke="black" d="M1389.97,-380.36C1389.97,-380.36 1264.59,-380.36 1264.59,-380.36 1258.59,-380.36 1252.59,-374.36 1252.59,-368.36 1252.59,-368.36 1252.59,-348.36 1252.59,-348.36 1252.59,-342.36 1258.59,-336.36 1264.59,-336.36 1264.59,-336.36 1389.97,-336.36 1389.97,-336.36 1395.97,-336.36 1401.97,-342.36 1401.97,-348.36 1401.97,-348.36 1401.97,-368.36 1401.97,-368.36 1401.97,-374.36 1395.97,-380.36 1389.97,-380.36"/>
<text xml:space="preserve" text-anchor="middle" x="1327.28" y="-367.36" font-family="Helvetica,sans-Serif" font-size="10.00">SecurityMasterConflictService</text>
<text xml:space="preserve" text-anchor="middle" x="1327.28" y="-355.36" font-family="Helvetica,sans-Serif" font-size="10.00">detect / queue / resolve</text>
<text xml:space="preserve" text-anchor="middle" x="1327.28" y="-343.36" font-family="Helvetica,sans-Serif" font-size="10.00">provider conflicts</text>
</g>
<!-- API_ENDPOINTS&#45;&gt;CONFLICT_SERVICE -->
<g id="edge6" class="edge">
<title>API_ENDPOINTS&#45;&gt;CONFLICT_SERVICE</title>
<path fill="none" stroke="#4a5568" d="M770.58,-479.92C840.17,-449.21 972.48,-395.19 1091.32,-371.36 1140.24,-361.55 1195.95,-358.14 1240.85,-357.25"/>
<polygon fill="#4a5568" stroke="#4a5568" points="1240.85,-360.76 1250.8,-357.1 1240.75,-353.76 1240.85,-360.76"/>
<text xml:space="preserve" text-anchor="middle" x="986.8" y="-429.1" font-family="Helvetica,sans-Serif" font-size="9.00">open queue / resolve</text>
</g>
<!-- INGEST_STATUS_SERVICE -->
<g id="node9" class="node">
<title>INGEST_STATUS_SERVICE</title>
<path fill="#bfdbfe" stroke="black" d="M1401.09,-318.36C1401.09,-318.36 1253.47,-318.36 1253.47,-318.36 1247.47,-318.36 1241.47,-312.36 1241.47,-306.36 1241.47,-306.36 1241.47,-286.36 1241.47,-286.36 1241.47,-280.36 1247.47,-274.36 1253.47,-274.36 1253.47,-274.36 1401.09,-274.36 1401.09,-274.36 1407.09,-274.36 1413.09,-280.36 1413.09,-286.36 1413.09,-286.36 1413.09,-306.36 1413.09,-306.36 1413.09,-312.36 1407.09,-318.36 1401.09,-318.36"/>
<text xml:space="preserve" text-anchor="middle" x="1327.28" y="-305.36" font-family="Helvetica,sans-Serif" font-size="10.00">SecurityMasterIngestStatusService</text>
<text xml:space="preserve" text-anchor="middle" x="1327.28" y="-293.36" font-family="Helvetica,sans-Serif" font-size="10.00">active import + last completed</text>
<text xml:space="preserve" text-anchor="middle" x="1327.28" y="-281.36" font-family="Helvetica,sans-Serif" font-size="10.00">session snapshot</text>
</g>
<!-- API_ENDPOINTS&#45;&gt;INGEST_STATUS_SERVICE -->
<g id="edge7" class="edge">
<title>API_ENDPOINTS&#45;&gt;INGEST_STATUS_SERVICE</title>
<path fill="none" stroke="#4a5568" d="M746.51,-480.1C787.13,-444.25 866.51,-376.22 900.29,-361.56 1006.8,-315.31 1140.73,-301.17 1229.69,-297.21"/>
<polygon fill="#4a5568" stroke="#4a5568" points="1229.76,-300.71 1239.61,-296.81 1229.48,-293.72 1229.76,-300.71"/>
<text xml:space="preserve" text-anchor="middle" x="986.8" y="-364.26" font-family="Helvetica,sans-Serif" font-size="9.00">ingest status</text>
</g>
<!-- API_ENDPOINTS&#45;&gt;QUERY_SERVICE -->
<g id="edge12" class="edge">
<title>API_ENDPOINTS&#45;&gt;QUERY_SERVICE</title>
<path fill="none" stroke="#4a5568" d="M753.78,-480.02C770.99,-466.29 790.93,-447.17 802.26,-425.36 826.93,-377.89 798.94,-355.41 820.26,-306.36 843.1,-253.83 853.54,-238.45 900.29,-205.36 1022.99,-118.5 1071.87,-120.14 1220.14,-95.36 1310.56,-80.24 1336.12,-79.5 1426.42,-95.36 1495.82,-107.54 1508.46,-127.59 1575.47,-149.36 1583.73,-152.04 1592.38,-154.73 1601.03,-157.34"/>
<polygon fill="#4a5568" stroke="#4a5568" points="1599.93,-160.66 1610.52,-160.17 1601.93,-153.96 1599.93,-160.66"/>
<text xml:space="preserve" text-anchor="middle" x="1150.73" y="-119.53" font-family="Helvetica,sans-Serif" font-size="9.00">query detail/history</text>
</g>
<!-- NULL_FALLBACKS -->
<g id="node18" class="node">
<title>NULL_FALLBACKS</title>
<polygon fill="#feebc8" stroke="black" points="1405.99,-148.36 1242.57,-148.36 1242.57,-104.36 1411.99,-104.36 1411.99,-142.36 1405.99,-148.36"/>
<polyline fill="none" stroke="black" points="1405.99,-148.36 1405.99,-142.36"/>
<polyline fill="none" stroke="black" points="1411.99,-142.36 1405.99,-142.36"/>
<text xml:space="preserve" text-anchor="middle" x="1327.28" y="-135.36" font-family="Helvetica,sans-Serif" font-size="10.00">NullSecurityMaster* fallbacks</text>
<text xml:space="preserve" text-anchor="middle" x="1327.28" y="-123.36" font-family="Helvetica,sans-Serif" font-size="10.00">keep APIs routable when Postgres</text>
<text xml:space="preserve" text-anchor="middle" x="1327.28" y="-111.36" font-family="Helvetica,sans-Serif" font-size="10.00">security&#45;master config is absent</text>
</g>
<!-- API_ENDPOINTS&#45;&gt;NULL_FALLBACKS -->
<g id="edge29" class="edge">
<title>API_ENDPOINTS&#45;&gt;NULL_FALLBACKS</title>
<path fill="none" stroke="#718096" stroke-dasharray="5,2" d="M751.76,-479.98C768.74,-465.97 789.11,-446.58 802.26,-425.36 816.48,-402.41 805.45,-389.92 820.26,-367.36 846,-328.14 860.62,-323.59 900.29,-298.56 1031.7,-215.63 1074.17,-210.63 1220.14,-157.36 1224.83,-155.64 1229.66,-153.96 1234.56,-152.31"/>
<polygon fill="#718096" stroke="#718096" points="1235.51,-155.69 1243.93,-149.25 1233.33,-149.04 1235.51,-155.69"/>
<text xml:space="preserve" text-anchor="middle" x="986.8" y="-301.26" font-family="Helvetica,sans-Serif" font-size="9.00">not configured</text>
</g>
<!-- CSV_PARSER -->
<g id="node4" class="node">
<title>CSV_PARSER</title>
<path fill="#fbd38d" stroke="black" d="M1392.62,-535.36C1392.62,-535.36 1261.94,-535.36 1261.94,-535.36 1255.94,-535.36 1249.94,-529.36 1249.94,-523.36 1249.94,-523.36 1249.94,-511.36 1249.94,-511.36 1249.94,-505.36 1255.94,-499.36 1261.94,-499.36 1261.94,-499.36 1392.62,-499.36 1392.62,-499.36 1398.62,-499.36 1404.62,-505.36 1404.62,-511.36 1404.62,-511.36 1404.62,-523.36 1404.62,-523.36 1404.62,-529.36 1398.62,-535.36 1392.62,-535.36"/>
<text xml:space="preserve" text-anchor="middle" x="1327.28" y="-520.36" font-family="Helvetica,sans-Serif" font-size="10.00">SecurityMasterCsvParser</text>
<text xml:space="preserve" text-anchor="middle" x="1327.28" y="-508.36" font-family="Helvetica,sans-Serif" font-size="10.00">CSV &#45;&gt; CreateSecurityRequest</text>
</g>
<!-- IMPORT_SERVICE&#45;&gt;CSV_PARSER -->
<g id="edge8" class="edge">
<title>IMPORT_SERVICE&#45;&gt;CSV_PARSER</title>
<path fill="none" stroke="#4a5568" d="M1073.65,-509.89C1124,-511.38 1187.47,-513.25 1238.2,-514.75"/>
<polygon fill="#4a5568" stroke="#4a5568" points="1237.87,-518.25 1247.96,-515.04 1238.07,-511.25 1237.87,-518.25"/>
<text xml:space="preserve" text-anchor="middle" x="1150.73" y="-516.54" font-family="Helvetica,sans-Serif" font-size="9.00">parse CSV</text>
</g>
<!-- IMPORT_SERVICE&#45;&gt;SECURITY_SERVICE -->
<g id="edge9" class="edge">
<title>IMPORT_SERVICE&#45;&gt;SECURITY_SERVICE</title>
<path fill="none" stroke="#4a5568" d="M1073.61,-493.04C1115.23,-485.22 1165.72,-474.46 1210.14,-461.36 1231.14,-455.16 1253.69,-446.83 1273.29,-439.02"/>
<polygon fill="#4a5568" stroke="#4a5568" points="1274.48,-442.31 1282.44,-435.31 1271.86,-435.82 1274.48,-442.31"/>
<text xml:space="preserve" text-anchor="middle" x="1150.73" y="-491.45" font-family="Helvetica,sans-Serif" font-size="9.00">create / update</text>
</g>
<!-- IMPORT_SERVICE&#45;&gt;CONFLICT_SERVICE -->
<g id="edge10" class="edge">
<title>IMPORT_SERVICE&#45;&gt;CONFLICT_SERVICE</title>
<path fill="none" stroke="#ed8936" stroke-dasharray="5,2" d="M1051.47,-484.87C1059.17,-480.93 1066.65,-476.43 1073.32,-471.36 1083.59,-463.54 1080.85,-456.12 1091.32,-448.56 1136.87,-415.65 1166.46,-440.71 1210.14,-405.36 1216.66,-400.08 1213.45,-394.42 1220.14,-389.36 1226.66,-384.42 1233.96,-380.26 1241.58,-376.77"/>
<polygon fill="#ed8936" stroke="#ed8936" points="1242.84,-380.03 1250.75,-372.98 1240.17,-373.56 1242.84,-380.03"/>
<text xml:space="preserve" text-anchor="middle" x="1150.73" y="-451.26" font-family="Helvetica,sans-Serif" font-size="9.00">record conflicts + counts</text>
</g>
<!-- CORPORATE_ACTIONS -->
<g id="node6" class="node">
<title>CORPORATE_ACTIONS</title>
<path fill="#fbd38d" stroke="black" d="M162.3,-516.36C162.3,-516.36 28,-516.36 28,-516.36 22,-516.36 16,-510.36 16,-504.36 16,-504.36 16,-492.36 16,-492.36 16,-486.36 22,-480.36 28,-480.36 28,-480.36 162.3,-480.36 162.3,-480.36 168.3,-480.36 174.3,-486.36 174.3,-492.36 174.3,-492.36 174.3,-504.36 174.3,-504.36 174.3,-510.36 168.3,-516.36 162.3,-516.36"/>
<text xml:space="preserve" text-anchor="middle" x="95.15" y="-501.36" font-family="Helvetica,sans-Serif" font-size="10.00">PolygonCorporateActionFetcher</text>
<text xml:space="preserve" text-anchor="middle" x="95.15" y="-489.36" font-family="Helvetica,sans-Serif" font-size="10.00">corporate action ingestion</text>
</g>
<!-- EVENT_STORE -->
<g id="node19" class="node">
<title>EVENT_STORE</title>
<path fill="#fc8181" stroke="black" d="M2375.86,-256.36C2375.86,-258.56 2337.4,-260.36 2290.05,-260.36 2242.7,-260.36 2204.24,-258.56 2204.24,-256.36 2204.24,-256.36 2204.24,-220.36 2204.24,-220.36 2204.24,-218.15 2242.7,-216.36 2290.05,-216.36 2337.4,-216.36 2375.86,-218.15 2375.86,-220.36 2375.86,-220.36 2375.86,-256.36 2375.86,-256.36"/>
<path fill="none" stroke="black" d="M2375.86,-256.36C2375.86,-254.15 2337.4,-252.36 2290.05,-252.36 2242.7,-252.36 2204.24,-254.15 2204.24,-256.36"/>
<text xml:space="preserve" text-anchor="middle" x="2290.05" y="-241.36" font-family="Helvetica,sans-Serif" font-size="10.00" fill="white">PostgresSecurityMasterEventStore</text>
<text xml:space="preserve" text-anchor="middle" x="2290.05" y="-229.36" font-family="Helvetica,sans-Serif" font-size="10.00" fill="white">append + stream replay</text>
</g>
<!-- CORPORATE_ACTIONS&#45;&gt;EVENT_STORE -->
<g id="edge18" class="edge">
<title>CORPORATE_ACTIONS&#45;&gt;EVENT_STORE</title>
<path fill="none" stroke="#4a5568" d="M97.9,-479.86C105.23,-406.1 135.74,-134.03 192.3,-72.36 263.55,5.34 312.88,-0.36 418.3,-0.36 418.3,-0.36 418.3,-0.36 2017.04,-0.36 2140.64,-0.36 2235.07,-141.24 2272.05,-206.22"/>
<polygon fill="#4a5568" stroke="#4a5568" points="2268.82,-207.62 2276.75,-214.64 2274.93,-204.21 2268.82,-207.62"/>
<text xml:space="preserve" text-anchor="middle" x="1150.73" y="-3.06" font-family="Helvetica,sans-Serif" font-size="9.00">append corp actions</text>
</g>
<!-- SECURITY_SERVICE&#45;&gt;EVENT_STORE -->
<g id="edge13" class="edge">
<title>SECURITY_SERVICE&#45;&gt;EVENT_STORE</title>
<path fill="none" stroke="#4a5568" d="M1395.81,-408.69C1573.05,-388.38 2042.47,-333.22 2109.86,-311.36 2147.33,-299.2 2151.55,-284.53 2187.9,-269.36 2193.01,-267.22 2198.33,-265.16 2203.72,-263.18"/>
<polygon fill="#4a5568" stroke="#4a5568" points="2204.47,-266.63 2212.73,-259.99 2202.14,-260.03 2204.47,-266.63"/>
<text xml:space="preserve" text-anchor="middle" x="1861.45" y="-360.52" font-family="Helvetica,sans-Serif" font-size="9.00">append events</text>
</g>
<!-- SNAPSHOT_STORE -->
<g id="node20" class="node">
<title>SNAPSHOT_STORE</title>
<path fill="#fecaca" stroke="black" d="M2384.21,-380.36C2384.21,-382.56 2342,-384.36 2290.05,-384.36 2238.1,-384.36 2195.9,-382.56 2195.9,-380.36 2195.9,-380.36 2195.9,-344.36 2195.9,-344.36 2195.9,-342.15 2238.1,-340.36 2290.05,-340.36 2342,-340.36 2384.21,-342.15 2384.21,-344.36 2384.21,-344.36 2384.21,-380.36 2384.21,-380.36"/>
<path fill="none" stroke="black" d="M2384.21,-380.36C2384.21,-378.15 2342,-376.36 2290.05,-376.36 2238.1,-376.36 2195.9,-378.15 2195.9,-380.36"/>
<text xml:space="preserve" text-anchor="middle" x="2290.05" y="-365.36" font-family="Helvetica,sans-Serif" font-size="10.00">PostgresSecurityMasterSnapshotStore</text>
<text xml:space="preserve" text-anchor="middle" x="2290.05" y="-353.36" font-family="Helvetica,sans-Serif" font-size="10.00">periodic aggregate snapshots</text>
</g>
<!-- SECURITY_SERVICE&#45;&gt;SNAPSHOT_STORE -->
<g id="edge14" class="edge">
<title>SECURITY_SERVICE&#45;&gt;SNAPSHOT_STORE</title>
<path fill="none" stroke="#c53030" stroke-dasharray="5,2" d="M1395.87,-422.12C1540.62,-432.93 1890.75,-450.87 2177.9,-400.36 2193.17,-397.67 2209.18,-393.23 2224.14,-388.31"/>
<polygon fill="#c53030" stroke="#c53030" points="2225.06,-391.69 2233.39,-385.15 2222.79,-385.07 2225.06,-391.69"/>
<text xml:space="preserve" text-anchor="middle" x="1861.45" y="-435.84" font-family="Helvetica,sans-Serif" font-size="9.00">snapshot cadence</text>
</g>
<!-- CONFLICT_QUEUE -->
<g id="node17" class="node">
<title>CONFLICT_QUEUE</title>
<polygon fill="#feebc8" stroke="black" points="1753.88,-318.36 1608.27,-318.36 1608.27,-274.36 1759.88,-274.36 1759.88,-312.36 1753.88,-318.36"/>
<polyline fill="none" stroke="black" points="1753.88,-318.36 1753.88,-312.36"/>
<polyline fill="none" stroke="black" points="1759.88,-312.36 1753.88,-312.36"/>
<text xml:space="preserve" text-anchor="middle" x="1684.07" y="-305.36" font-family="Helvetica,sans-Serif" font-size="10.00">Open conflict queue +</text>
<text xml:space="preserve" text-anchor="middle" x="1684.07" y="-293.36" font-family="Helvetica,sans-Serif" font-size="10.00">resolution state live in&#45;memory</text>
<text xml:space="preserve" text-anchor="middle" x="1684.07" y="-281.36" font-family="Helvetica,sans-Serif" font-size="10.00">today</text>
</g>
<!-- CONFLICT_SERVICE&#45;&gt;CONFLICT_QUEUE -->
<g id="edge16" class="edge">
<title>CONFLICT_SERVICE&#45;&gt;CONFLICT_QUEUE</title>
<path fill="none" stroke="#ed8936" stroke-dasharray="5,2" d="M1402.22,-345.43C1458.89,-335.53 1537.2,-321.85 1596.74,-311.44"/>
<polygon fill="#ed8936" stroke="#ed8936" points="1597.26,-314.9 1606.51,-309.73 1596.06,-308.01 1597.26,-314.9"/>
<text xml:space="preserve" text-anchor="middle" x="1500.95" y="-339.23" font-family="Helvetica,sans-Serif" font-size="9.00">track open queue</text>
</g>
<!-- PROJECTION_STORE -->
<g id="node21" class="node">
<title>PROJECTION_STORE</title>
<path fill="#fecaca" stroke="black" d="M2363.08,-318.36C2363.08,-320.56 2330.35,-322.36 2290.05,-322.36 2249.76,-322.36 2217.03,-320.56 2217.03,-318.36 2217.03,-318.36 2217.03,-282.36 2217.03,-282.36 2217.03,-280.15 2249.76,-278.36 2290.05,-278.36 2330.35,-278.36 2363.08,-280.15 2363.08,-282.36 2363.08,-282.36 2363.08,-318.36 2363.08,-318.36"/>
<path fill="none" stroke="black" d="M2363.08,-318.36C2363.08,-316.15 2330.35,-314.36 2290.05,-314.36 2249.76,-314.36 2217.03,-316.15 2217.03,-318.36"/>
<text xml:space="preserve" text-anchor="middle" x="2290.05" y="-303.36" font-family="Helvetica,sans-Serif" font-size="10.00">PostgresSecurityMasterStore</text>
<text xml:space="preserve" text-anchor="middle" x="2290.05" y="-291.36" font-family="Helvetica,sans-Serif" font-size="10.00">projection records + lookups</text>
</g>
<!-- CONFLICT_SERVICE&#45;&gt;PROJECTION_STORE -->
<g id="edge15" class="edge">
<title>CONFLICT_SERVICE&#45;&gt;PROJECTION_STORE</title>
<path fill="none" stroke="#ed8936" stroke-dasharray="5,2" d="M1402.46,-366.23C1542.06,-379.32 1852.89,-400.2 2109.86,-358.36 2141.23,-353.25 2148.48,-348.39 2177.9,-336.36 2182.5,-334.47 2183.29,-333.2 2187.9,-331.36 2193.8,-329 2199.95,-326.71 2206.18,-324.52"/>
<polygon fill="#ed8936" stroke="#ed8936" points="2206.94,-327.95 2215.27,-321.41 2204.68,-321.33 2206.94,-327.95"/>
<text xml:space="preserve" text-anchor="middle" x="1861.45" y="-385.31" font-family="Helvetica,sans-Serif" font-size="9.00">scan projection identifiers</text>
</g>
<!-- INGEST_STATUS_SERVICE&#45;&gt;IMPORT_SERVICE -->
<g id="edge17" class="edge">
<title>INGEST_STATUS_SERVICE&#45;&gt;IMPORT_SERVICE</title>
<path fill="none" stroke="#718096" stroke-dasharray="5,2" d="M1244.1,-318.82C1235.94,-321.51 1227.83,-324.37 1220.14,-327.36 1160.69,-350.42 1130.77,-340.45 1091.32,-390.56 1068.56,-419.46 1096.9,-443.12 1073.32,-471.36 1071.24,-473.85 1068.96,-476.17 1066.51,-478.34"/>
<polygon fill="#718096" stroke="#718096" points="1064.69,-475.33 1058.87,-484.18 1068.94,-480.88 1064.69,-475.33"/>
<text xml:space="preserve" text-anchor="middle" x="1150.73" y="-393.26" font-family="Helvetica,sans-Serif" font-size="9.00">active + completed snapshots</text>
</g>
<!-- AGGREGATE_REBUILDER -->
<g id="node10" class="node">
<title>AGGREGATE_REBUILDER</title>
<path fill="#bfdbfe" stroke="black" d="M2089.86,-219.36C2089.86,-219.36 1942.23,-219.36 1942.23,-219.36 1936.23,-219.36 1930.23,-213.36 1930.23,-207.36 1930.23,-207.36 1930.23,-195.36 1930.23,-195.36 1930.23,-189.36 1936.23,-183.36 1942.23,-183.36 1942.23,-183.36 2089.86,-183.36 2089.86,-183.36 2095.86,-183.36 2101.86,-189.36 2101.86,-195.36 2101.86,-195.36 2101.86,-207.36 2101.86,-207.36 2101.86,-213.36 2095.86,-219.36 2089.86,-219.36"/>
<text xml:space="preserve" text-anchor="middle" x="2016.04" y="-204.36" font-family="Helvetica,sans-Serif" font-size="10.00">SecurityMasterAggregateRebuilder</text>
<text xml:space="preserve" text-anchor="middle" x="2016.04" y="-192.36" font-family="Helvetica,sans-Serif" font-size="10.00">replay security streams</text>
</g>
<!-- AGGREGATE_REBUILDER&#45;&gt;EVENT_STORE -->
<g id="edge22" class="edge">
<title>AGGREGATE_REBUILDER&#45;&gt;EVENT_STORE</title>
<path fill="none" stroke="#4a5568" d="M2101.99,-212.91C2130.74,-216.82 2163.05,-221.22 2192.63,-225.24"/>
<polygon fill="#4a5568" stroke="#4a5568" points="2191.94,-228.68 2202.32,-226.56 2192.88,-221.74 2191.94,-228.68"/>
<text xml:space="preserve" text-anchor="middle" x="2148.88" y="-225.87" font-family="Helvetica,sans-Serif" font-size="9.00">replay stream</text>
</g>
<!-- AGGREGATE_REBUILDER&#45;&gt;SNAPSHOT_STORE -->
<g id="edge23" class="edge">
<title>AGGREGATE_REBUILDER&#45;&gt;SNAPSHOT_STORE</title>
<path fill="none" stroke="#c53030" stroke-dasharray="5,2" d="M2085.17,-219.76C2093.87,-223.55 2102.35,-228.04 2109.86,-233.36 2155.33,-265.49 2141.88,-300.02 2187.9,-331.36 2190.29,-332.98 2192.77,-334.53 2195.32,-336"/>
<polygon fill="#c53030" stroke="#c53030" points="2193.62,-339.06 2204.11,-340.57 2196.85,-332.85 2193.62,-339.06"/>
<text xml:space="preserve" text-anchor="middle" x="2148.88" y="-324.56" font-family="Helvetica,sans-Serif" font-size="9.00">use snapshots</text>
</g>
<!-- PROJECTION_SERVICE -->
<g id="node11" class="node">
<title>PROJECTION_SERVICE</title>
<path fill="#bfdbfe" stroke="black" d="M1756.76,-256.36C1756.76,-256.36 1611.39,-256.36 1611.39,-256.36 1605.39,-256.36 1599.39,-250.36 1599.39,-244.36 1599.39,-244.36 1599.39,-232.36 1599.39,-232.36 1599.39,-226.36 1605.39,-220.36 1611.39,-220.36 1611.39,-220.36 1756.76,-220.36 1756.76,-220.36 1762.76,-220.36 1768.76,-226.36 1768.76,-232.36 1768.76,-232.36 1768.76,-244.36 1768.76,-244.36 1768.76,-250.36 1762.76,-256.36 1756.76,-256.36"/>
<text xml:space="preserve" text-anchor="middle" x="1684.07" y="-241.36" font-family="Helvetica,sans-Serif" font-size="10.00">SecurityMasterProjectionService</text>
<text xml:space="preserve" text-anchor="middle" x="1684.07" y="-229.36" font-family="Helvetica,sans-Serif" font-size="10.00">BuildWarmSetAsync / WarmAsync</text>
</g>
<!-- PROJECTION_SERVICE&#45;&gt;AGGREGATE_REBUILDER -->
<g id="edge21" class="edge">
<title>PROJECTION_SERVICE&#45;&gt;AGGREGATE_REBUILDER</title>
<path fill="none" stroke="#4a5568" d="M1769.19,-228.92C1814.8,-223.81 1871.36,-217.47 1918.73,-212.16"/>
<polygon fill="#4a5568" stroke="#4a5568" points="1918.88,-215.66 1928.43,-211.07 1918.1,-208.7 1918.88,-215.66"/>
<text xml:space="preserve" text-anchor="middle" x="1861.45" y="-226.96" font-family="Helvetica,sans-Serif" font-size="9.00">rebuild economics</text>
</g>
<!-- PROJECTION_CACHE -->
<g id="node14" class="node">
<title>PROJECTION_CACHE</title>
<path fill="#d1fae5" stroke="black" d="M2082.07,-165.36C2082.07,-165.36 1950.02,-165.36 1950.02,-165.36 1944.02,-165.36 1938.02,-159.36 1938.02,-153.36 1938.02,-153.36 1938.02,-141.36 1938.02,-141.36 1938.02,-135.36 1944.02,-129.36 1950.02,-129.36 1950.02,-129.36 2082.07,-129.36 2082.07,-129.36 2088.07,-129.36 2094.07,-135.36 2094.07,-141.36 2094.07,-141.36 2094.07,-153.36 2094.07,-153.36 2094.07,-159.36 2088.07,-165.36 2082.07,-165.36"/>
<text xml:space="preserve" text-anchor="middle" x="2016.04" y="-150.36" font-family="Helvetica,sans-Serif" font-size="10.00">SecurityMasterProjectionCache</text>
<text xml:space="preserve" text-anchor="middle" x="2016.04" y="-138.36" font-family="Helvetica,sans-Serif" font-size="10.00">warm in&#45;memory projection set</text>
</g>
<!-- PROJECTION_SERVICE&#45;&gt;PROJECTION_CACHE -->
<g id="edge24" class="edge">
<title>PROJECTION_SERVICE&#45;&gt;PROJECTION_CACHE</title>
<path fill="none" stroke="#4a5568" d="M1769.25,-220.49C1777.31,-217.82 1785.24,-214.78 1792.67,-211.36 1801.59,-207.25 1801.76,-202.66 1810.67,-198.56 1816.36,-195.93 1874.5,-181.45 1927.31,-168.56"/>
<polygon fill="#4a5568" stroke="#4a5568" points="1928.12,-171.96 1937.01,-166.2 1926.47,-165.16 1928.12,-171.96"/>
<text xml:space="preserve" text-anchor="middle" x="1861.45" y="-201.26" font-family="Helvetica,sans-Serif" font-size="9.00">ReplaceAll</text>
</g>
<!-- PROJECTION_SERVICE&#45;&gt;PROJECTION_STORE -->
<g id="edge20" class="edge">
<title>PROJECTION_SERVICE&#45;&gt;PROJECTION_STORE</title>
<path fill="none" stroke="#4a5568" d="M1758.76,-256.82C1784.43,-263.2 1807.65,-268.89 1810.67,-269.36 1948,-290.58 2109.68,-297.31 2205.54,-299.42"/>
<polygon fill="#4a5568" stroke="#4a5568" points="2205.31,-302.91 2215.38,-299.62 2205.46,-295.91 2205.31,-302.91"/>
<text xml:space="preserve" text-anchor="middle" x="2016.04" y="-298.97" font-family="Helvetica,sans-Serif" font-size="9.00">load seed records</text>
</g>
<!-- WARMUP_SERVICE -->
<g id="node12" class="node">
<title>WARMUP_SERVICE</title>
<path fill="#bfdbfe" stroke="black" d="M1414.42,-256.36C1414.42,-256.36 1240.14,-256.36 1240.14,-256.36 1234.14,-256.36 1228.14,-250.36 1228.14,-244.36 1228.14,-244.36 1228.14,-232.36 1228.14,-232.36 1228.14,-226.36 1234.14,-220.36 1240.14,-220.36 1240.14,-220.36 1414.42,-220.36 1414.42,-220.36 1420.42,-220.36 1426.42,-226.36 1426.42,-232.36 1426.42,-232.36 1426.42,-244.36 1426.42,-244.36 1426.42,-250.36 1420.42,-256.36 1414.42,-256.36"/>
<text xml:space="preserve" text-anchor="middle" x="1327.28" y="-241.36" font-family="Helvetica,sans-Serif" font-size="10.00">SecurityMasterProjectionWarmupService</text>
<text xml:space="preserve" text-anchor="middle" x="1327.28" y="-229.36" font-family="Helvetica,sans-Serif" font-size="10.00">startup cache warmup</text>
</g>
<!-- WARMUP_SERVICE&#45;&gt;PROJECTION_SERVICE -->
<g id="edge19" class="edge">
<title>WARMUP_SERVICE&#45;&gt;PROJECTION_SERVICE</title>
<path fill="none" stroke="#4a5568" d="M1426.64,-238.36C1476.87,-238.36 1537.72,-238.36 1587.54,-238.36"/>
<polygon fill="#4a5568" stroke="#4a5568" points="1587.46,-241.86 1597.46,-238.36 1587.46,-234.86 1587.46,-241.86"/>
<text xml:space="preserve" text-anchor="middle" x="1500.95" y="-241.06" font-family="Helvetica,sans-Serif" font-size="9.00">startup warm</text>
</g>
<!-- QUERY_SERVICE&#45;&gt;PROJECTION_CACHE -->
<g id="edge26" class="edge">
<title>QUERY_SERVICE&#45;&gt;PROJECTION_CACHE</title>
<path fill="none" stroke="#4a5568" d="M1755.99,-168.01C1773.8,-165.23 1792.9,-162.53 1810.67,-160.56 1848.46,-156.37 1890.34,-153.37 1926.29,-151.31"/>
<polygon fill="#4a5568" stroke="#4a5568" points="1926.45,-154.81 1936.24,-150.75 1926.06,-147.82 1926.45,-154.81"/>
<text xml:space="preserve" text-anchor="middle" x="1861.45" y="-163.26" font-family="Helvetica,sans-Serif" font-size="9.00">warm reads</text>
</g>
<!-- QUERY_SERVICE&#45;&gt;PROJECTION_STORE -->
<g id="edge27" class="edge">
<title>QUERY_SERVICE&#45;&gt;PROJECTION_STORE</title>
<path fill="none" stroke="#4a5568" d="M1755.93,-192.9C1768.95,-197.31 1781.84,-203.29 1792.67,-211.36 1804.54,-220.19 1798.06,-231.62 1810.67,-239.36 1867.64,-274.29 2043.65,-260.53 2109.86,-269.56 2141.2,-273.83 2175.46,-279.47 2205.55,-284.76"/>
<polygon fill="#4a5568" stroke="#4a5568" points="2204.92,-288.2 2215.37,-286.5 2206.14,-281.31 2204.92,-288.2"/>
<text xml:space="preserve" text-anchor="middle" x="2016.04" y="-272.26" font-family="Helvetica,sans-Serif" font-size="9.00">history / fallback reads</text>
</g>
<!-- SEED_SERVICE -->
<g id="node15" class="node">
<title>SEED_SERVICE</title>
<path fill="#d1fae5" stroke="black" d="M1780.67,-140.36C1780.67,-140.36 1587.47,-140.36 1587.47,-140.36 1581.47,-140.36 1575.47,-134.36 1575.47,-128.36 1575.47,-128.36 1575.47,-116.36 1575.47,-116.36 1575.47,-110.36 1581.47,-104.36 1587.47,-104.36 1587.47,-104.36 1780.67,-104.36 1780.67,-104.36 1786.67,-104.36 1792.67,-110.36 1792.67,-116.36 1792.67,-116.36 1792.67,-128.36 1792.67,-128.36 1792.67,-134.36 1786.67,-140.36 1780.67,-140.36"/>
<text xml:space="preserve" text-anchor="middle" x="1684.07" y="-125.36" font-family="Helvetica,sans-Serif" font-size="10.00">SecurityMasterCanonicalSymbolSeedService</text>
<text xml:space="preserve" text-anchor="middle" x="1684.07" y="-113.36" font-family="Helvetica,sans-Serif" font-size="10.00">seed canonical&#45;symbol cache</text>
</g>
<!-- SEED_SERVICE&#45;&gt;PROJECTION_CACHE -->
<g id="edge25" class="edge">
<title>SEED_SERVICE&#45;&gt;PROJECTION_CACHE</title>
<path fill="none" stroke="#4a5568" d="M1793.11,-118.81C1830.89,-118.79 1873.53,-120.13 1912.23,-124.56 1917.82,-125.2 1923.55,-126.01 1929.31,-126.95"/>
<polygon fill="#4a5568" stroke="#4a5568" points="1928.44,-130.35 1938.89,-128.64 1929.65,-123.46 1928.44,-130.35"/>
<text xml:space="preserve" text-anchor="middle" x="1861.45" y="-127.26" font-family="Helvetica,sans-Serif" font-size="9.00">canonical symbol seed</text>
</g>
<!-- LOOKUP -->
<g id="node16" class="node">
<title>LOOKUP</title>
<path fill="#d1fae5" stroke="black" d="M1414.16,-202.36C1414.16,-202.36 1240.4,-202.36 1240.4,-202.36 1234.4,-202.36 1228.4,-196.36 1228.4,-190.36 1228.4,-190.36 1228.4,-178.36 1228.4,-178.36 1228.4,-172.36 1234.4,-166.36 1240.4,-166.36 1240.4,-166.36 1414.16,-166.36 1414.16,-166.36 1420.16,-166.36 1426.16,-172.36 1426.16,-178.36 1426.16,-178.36 1426.16,-190.36 1426.16,-190.36 1426.16,-196.36 1420.16,-202.36 1414.16,-202.36"/>
<text xml:space="preserve" text-anchor="middle" x="1327.28" y="-187.36" font-family="Helvetica,sans-Serif" font-size="10.00">SecurityMasterSecurityReferenceLookup</text>
<text xml:space="preserve" text-anchor="middle" x="1327.28" y="-175.36" font-family="Helvetica,sans-Serif" font-size="10.00">portfolio / ledger enrichment</text>
</g>
<!-- LOOKUP&#45;&gt;QUERY_SERVICE -->
<g id="edge28" class="edge">
<title>LOOKUP&#45;&gt;QUERY_SERVICE</title>
<path fill="none" stroke="#4a5568" d="M1426.64,-183.25C1481.36,-182.63 1548.69,-181.87 1600.62,-181.29"/>
<polygon fill="#4a5568" stroke="#4a5568" points="1600.66,-184.79 1610.62,-181.17 1600.58,-177.79 1600.66,-184.79"/>
<text xml:space="preserve" text-anchor="middle" x="1500.95" y="-185.65" font-family="Helvetica,sans-Serif" font-size="9.00">security reference resolution</text>
</g>
<!-- LEG_INPUT -->
<g id="node22" class="node">
<title>LEG_INPUT</title>
<path fill="#fbd38d" stroke="black" d="M133.95,-660.36C133.95,-660.36 56.35,-660.36 56.35,-660.36 50.35,-660.36 44.35,-654.36 44.35,-648.36 44.35,-648.36 44.35,-636.36 44.35,-636.36 44.35,-630.36 50.35,-624.36 56.35,-624.36 56.35,-624.36 133.95,-624.36 133.95,-624.36 139.95,-624.36 145.95,-630.36 145.95,-636.36 145.95,-636.36 145.95,-648.36 145.95,-648.36 145.95,-654.36 139.95,-660.36 133.95,-660.36"/>
<text xml:space="preserve" text-anchor="middle" x="95.15" y="-639.36" font-family="Helvetica,sans-Serif" font-size="10.00">Import / ingest path</text>
</g>
<!-- LEG_CORE -->
<g id="node23" class="node">
<title>LEG_CORE</title>
<path fill="#93c5fd" stroke="black" d="M119.21,-714.36C119.21,-714.36 71.09,-714.36 71.09,-714.36 65.09,-714.36 59.09,-708.36 59.09,-702.36 59.09,-702.36 59.09,-690.36 59.09,-690.36 59.09,-684.36 65.09,-678.36 71.09,-678.36 71.09,-678.36 119.21,-678.36 119.21,-678.36 125.21,-678.36 131.21,-684.36 131.21,-690.36 131.21,-690.36 131.21,-702.36 131.21,-702.36 131.21,-708.36 125.21,-714.36 119.21,-714.36"/>
<text xml:space="preserve" text-anchor="middle" x="95.15" y="-693.36" font-family="Helvetica,sans-Serif" font-size="10.00">Core service</text>
</g>
<!-- LEG_CACHE -->
<g id="node24" class="node">
<title>LEG_CACHE</title>
<path fill="#d1fae5" stroke="black" d="M154.24,-768.36C154.24,-768.36 36.06,-768.36 36.06,-768.36 30.06,-768.36 24.06,-762.36 24.06,-756.36 24.06,-756.36 24.06,-744.36 24.06,-744.36 24.06,-738.36 30.06,-732.36 36.06,-732.36 36.06,-732.36 154.24,-732.36 154.24,-732.36 160.24,-732.36 166.24,-738.36 166.24,-744.36 166.24,-744.36 166.24,-756.36 166.24,-756.36 166.24,-762.36 160.24,-768.36 154.24,-768.36"/>
<text xml:space="preserve" text-anchor="middle" x="95.15" y="-747.36" font-family="Helvetica,sans-Serif" font-size="10.00">Projection / cache consumer</text>
</g>
<!-- LEG_STORE -->
<g id="node25" class="node">
<title>LEG_STORE</title>
<path fill="#fecaca" stroke="black" d="M137.89,-819.08C137.89,-820.89 118.73,-822.36 95.15,-822.36 71.57,-822.36 52.41,-820.89 52.41,-819.08 52.41,-819.08 52.41,-789.63 52.41,-789.63 52.41,-787.82 71.57,-786.36 95.15,-786.36 118.73,-786.36 137.89,-787.82 137.89,-789.63 137.89,-789.63 137.89,-819.08 137.89,-819.08"/>
<path fill="none" stroke="black" d="M137.89,-819.08C137.89,-817.28 118.73,-815.81 95.15,-815.81 71.57,-815.81 52.41,-817.28 52.41,-819.08"/>
<text xml:space="preserve" text-anchor="middle" x="95.15" y="-801.36" font-family="Helvetica,sans-Serif" font-size="10.00">Persistent store</text>
</g>
</g>
</svg>
