<?xml version="1.0" encoding="UTF-8" standalone="no"?>
<!DOCTYPE svg PUBLIC "-//W3C//DTD SVG 1.1//EN"
 "http://www.w3.org/Graphics/SVG/1.1/DTD/svg11.dtd">
<!-- Generated by graphviz version 2.43.0 (0)
 -->
<!-- Title: SymbolSearchResolution Pages: 1 -->
<svg width="1475pt" height="1486pt"
 viewBox="0.00 0.00 1475.00 1486.01" xmlns="http://www.w3.org/2000/svg" xmlns:xlink="http://www.w3.org/1999/xlink">
<g id="graph0" class="graph" transform="scale(1 1) rotate(0) translate(36 1450.01)">
<title>SymbolSearchResolution</title>
<polygon fill="white" stroke="transparent" points="-36,36 -36,-1450.01 1439,-1450.01 1439,36 -36,36"/>
<text text-anchor="middle" x="701.5" y="-1400.41" font-family="Helvetica,sans-Serif" font-size="12.00">Meridian &#45; Symbol Search &amp; Resolution</text>
<text text-anchor="middle" x="701.5" y="-1387.41" font-family="Helvetica,sans-Serif" font-size="12.00">Search → OpenFIGI Canonical ID → Provider&#45;Specific Formats | v1.7.x</text>
<g id="clust1" class="cluster">
<title>cluster_entry</title>
<path fill="#faf5ff" stroke="#805ad5" d="M343,-1249.01C343,-1249.01 625,-1249.01 625,-1249.01 631,-1249.01 637,-1255.01 637,-1261.01 637,-1261.01 637,-1360.01 637,-1360.01 637,-1366.01 631,-1372.01 625,-1372.01 625,-1372.01 343,-1372.01 343,-1372.01 337,-1372.01 331,-1366.01 331,-1360.01 331,-1360.01 331,-1261.01 331,-1261.01 331,-1255.01 337,-1249.01 343,-1249.01"/>
<text text-anchor="middle" x="484" y="-1358.41" font-family="Helvetica,sans-Serif" font-size="12.00">1. Search Entry</text>
</g>
<g id="clust2" class="cluster">
<title>cluster_interface</title>
<path fill="#dbeafe" stroke="#2b6cb0" d="M377,-1093.5C377,-1093.5 779,-1093.5 779,-1093.5 785,-1093.5 791,-1099.5 791,-1105.5 791,-1105.5 791,-1209.01 791,-1209.01 791,-1215.01 785,-1221.01 779,-1221.01 779,-1221.01 377,-1221.01 377,-1221.01 371,-1221.01 365,-1215.01 365,-1209.01 365,-1209.01 365,-1105.5 365,-1105.5 365,-1099.5 371,-1093.5 377,-1093.5"/>
<text text-anchor="middle" x="578" y="-1207.41" font-family="Helvetica,sans-Serif" font-size="12.00">2. ISymbolSearchProvider Interface</text>
</g>
<g id="clust3" class="cluster">
<title>cluster_providers</title>
<path fill="#d1fae5" stroke="#2c7a7b" d="M20,-931.5C20,-931.5 946,-931.5 946,-931.5 952,-931.5 958,-937.5 958,-943.5 958,-943.5 958,-1053.5 958,-1053.5 958,-1059.5 952,-1065.5 946,-1065.5 946,-1065.5 20,-1065.5 20,-1065.5 14,-1065.5 8,-1059.5 8,-1053.5 8,-1053.5 8,-943.5 8,-943.5 8,-937.5 14,-931.5 20,-931.5"/>
<text text-anchor="middle" x="483" y="-1051.9" font-family="Helvetica,sans-Serif" font-size="12.00">3. Symbol Search Providers (5 Implemented)</text>
</g>
<g id="clust4" class="cluster">
<title>cluster_aggregate</title>
<path fill="#f7fafc" stroke="#718096" d="M444,-649.5C444,-649.5 662,-649.5 662,-649.5 668,-649.5 674,-655.5 674,-661.5 674,-661.5 674,-891.5 674,-891.5 674,-897.5 668,-903.5 662,-903.5 662,-903.5 444,-903.5 444,-903.5 438,-903.5 432,-897.5 432,-891.5 432,-891.5 432,-661.5 432,-661.5 432,-655.5 438,-649.5 444,-649.5"/>
<text text-anchor="middle" x="553" y="-889.9" font-family="Helvetica,sans-Serif" font-size="12.00">4. Result Aggregation &amp; Deduplication</text>
</g>
<g id="clust5" class="cluster">
<title>cluster_figi</title>
<path fill="#fffaf0" stroke="#ed8936" d="M703,-474.25C703,-474.25 910,-474.25 910,-474.25 916,-474.25 922,-480.25 922,-486.25 922,-486.25 922,-891.5 922,-891.5 922,-897.5 916,-903.5 910,-903.5 910,-903.5 703,-903.5 703,-903.5 697,-903.5 691,-897.5 691,-891.5 691,-891.5 691,-486.25 691,-486.25 691,-480.25 697,-474.25 703,-474.25"/>
<text text-anchor="middle" x="806.5" y="-889.9" font-family="Helvetica,sans-Serif" font-size="12.00">5. OpenFIGI Canonical Identification</text>
</g>
<g id="clust6" class="cluster">
<title>cluster_mapping</title>
<path fill="#c6f6d5" stroke="#38a169" d="M349,-172.25C349,-172.25 1065,-172.25 1065,-172.25 1071,-172.25 1077,-178.25 1077,-184.25 1077,-184.25 1077,-434.25 1077,-434.25 1077,-440.25 1071,-446.25 1065,-446.25 1065,-446.25 349,-446.25 349,-446.25 343,-446.25 337,-440.25 337,-434.25 337,-434.25 337,-184.25 337,-184.25 337,-178.25 343,-172.25 349,-172.25"/>
<text text-anchor="middle" x="707" y="-432.65" font-family="Helvetica,sans-Serif" font-size="12.00">6. Provider&#45;Specific Symbol Mapping</text>
</g>
<g id="clust7" class="cluster">
<title>cluster_format_examples</title>
<polygon fill="#c6f6d5" stroke="#276749" stroke-dasharray="5,2" points="513,-197.25 513,-270.25 1069,-270.25 1069,-197.25 513,-197.25"/>
<text text-anchor="middle" x="791" y="-256.65" font-family="Helvetica,sans-Serif" font-size="12.00">Format Examples</text>
</g>
<g id="clust8" class="cluster">
<title>cluster_output</title>
<path fill="#dbeafe" stroke="#2b6cb0" d="M1097,-8C1097,-8 1383,-8 1383,-8 1389,-8 1395,-14 1395,-20 1395,-20 1395,-283.25 1395,-283.25 1395,-289.25 1389,-295.25 1383,-295.25 1383,-295.25 1097,-295.25 1097,-295.25 1091,-295.25 1085,-289.25 1085,-283.25 1085,-283.25 1085,-20 1085,-20 1085,-14 1091,-8 1097,-8"/>
<text text-anchor="middle" x="1240" y="-281.65" font-family="Helvetica,sans-Serif" font-size="12.00">7. Canonical Symbol — Ready for Data Collection</text>
</g>
<g id="clust9" class="cluster">
<title>cluster_legend</title>
<path fill="#fafafa" stroke="#666666" d="M910,-1260.51C910,-1260.51 1072,-1260.51 1072,-1260.51 1078,-1260.51 1084,-1266.51 1084,-1272.51 1084,-1272.51 1084,-1348.51 1084,-1348.51 1084,-1354.51 1078,-1360.51 1072,-1360.51 1072,-1360.51 910,-1360.51 910,-1360.51 904,-1360.51 898,-1354.51 898,-1348.51 898,-1348.51 898,-1272.51 898,-1272.51 898,-1266.51 904,-1260.51 910,-1260.51"/>
<text text-anchor="middle" x="991" y="-1346.91" font-family="Helvetica,sans-Serif" font-size="12.00">Legend</text>
</g>
<!-- USER_QUERY -->
<g id="node1" class="node">
<title>USER_QUERY</title>
<path fill="#ddd6fe" stroke="black" d="M452.5,-1343.01C452.5,-1343.01 351.5,-1343.01 351.5,-1343.01 345.5,-1343.01 339.5,-1337.01 339.5,-1331.01 339.5,-1331.01 339.5,-1269.01 339.5,-1269.01 339.5,-1263.01 345.5,-1257.01 351.5,-1257.01 351.5,-1257.01 452.5,-1257.01 452.5,-1257.01 458.5,-1257.01 464.5,-1263.01 464.5,-1269.01 464.5,-1269.01 464.5,-1331.01 464.5,-1331.01 464.5,-1337.01 458.5,-1343.01 452.5,-1343.01"/>
<text text-anchor="middle" x="402" y="-1331.01" font-family="Helvetica,sans-Serif" font-size="10.00">Search Query</text>
<text text-anchor="middle" x="402" y="-1308.01" font-family="Helvetica,sans-Serif" font-size="10.00">Free&#45;text: &quot;Apple Inc&quot;</text>
<text text-anchor="middle" x="402" y="-1297.01" font-family="Helvetica,sans-Serif" font-size="10.00">Ticker: &quot;AAPL&quot;</text>
<text text-anchor="middle" x="402" y="-1286.01" font-family="Helvetica,sans-Serif" font-size="10.00">ISIN: &quot;US0378331005&quot;</text>
<text text-anchor="middle" x="402" y="-1275.01" font-family="Helvetica,sans-Serif" font-size="10.00">CUSIP: &quot;037833100&quot;</text>
<text text-anchor="middle" x="402" y="-1264.01" font-family="Helvetica,sans-Serif" font-size="10.00">SEDOL: &quot;2046251&quot;</text>
</g>
<!-- I_SEARCH -->
<g id="node3" class="node">
<title>I_SEARCH</title>
<ellipse fill="#93c5fd" stroke="black" cx="492" cy="-1146.75" rx="118.59" ry="45.01"/>
<text text-anchor="middle" x="492" y="-1166.75" font-family="Helvetica,sans-Serif" font-size="10.00">ISymbolSearchProvider</text>
<text text-anchor="middle" x="492" y="-1155.75" font-family="Helvetica,sans-Serif" font-size="10.00">[Interface]</text>
<text text-anchor="middle" x="492" y="-1132.75" font-family="Helvetica,sans-Serif" font-size="10.00">SearchAsync(query, ct)</text>
<text text-anchor="middle" x="492" y="-1121.75" font-family="Helvetica,sans-Serif" font-size="10.00">Returns: SymbolSearchResult[]</text>
</g>
<!-- USER_QUERY&#45;&gt;I_SEARCH -->
<g id="edge1" class="edge">
<title>USER_QUERY&#45;&gt;I_SEARCH</title>
<path fill="none" stroke="#805ad5" stroke-width="2" d="M427.07,-1256.88C437.62,-1239.14 450.01,-1218.33 461.11,-1199.66"/>
<polygon fill="#805ad5" stroke="#805ad5" stroke-width="2" points="464.18,-1201.36 466.28,-1190.98 458.16,-1197.78 464.18,-1201.36"/>
<text text-anchor="middle" x="461.5" y="-1231.81" font-family="Helvetica,sans-Serif" font-size="9.00">1. query</text>
</g>
<!-- CLI_SEARCH -->
<g id="node2" class="node">
<title>CLI_SEARCH</title>
<path fill="#e9d5ff" stroke="black" d="M617,-1337.51C617,-1337.51 495,-1337.51 495,-1337.51 489,-1337.51 483,-1331.51 483,-1325.51 483,-1325.51 483,-1274.51 483,-1274.51 483,-1268.51 489,-1262.51 495,-1262.51 495,-1262.51 617,-1262.51 617,-1262.51 623,-1262.51 629,-1268.51 629,-1274.51 629,-1274.51 629,-1325.51 629,-1325.51 629,-1331.51 623,-1337.51 617,-1337.51"/>
<text text-anchor="middle" x="556" y="-1325.51" font-family="Helvetica,sans-Serif" font-size="10.00">CLI / REST API</text>
<text text-anchor="middle" x="556" y="-1302.51" font-family="Helvetica,sans-Serif" font-size="10.00">&#45;&#45;symbols&#45;add AAPL</text>
<text text-anchor="middle" x="556" y="-1291.51" font-family="Helvetica,sans-Serif" font-size="10.00">&#45;&#45;symbol&#45;status AAPL</text>
<text text-anchor="middle" x="556" y="-1280.51" font-family="Helvetica,sans-Serif" font-size="10.00">POST /api/symbols/search</text>
<text text-anchor="middle" x="556" y="-1269.51" font-family="Helvetica,sans-Serif" font-size="10.00">GET &#160;/api/symbols/{ticker}</text>
</g>
<!-- CLI_SEARCH&#45;&gt;I_SEARCH -->
<g id="edge2" class="edge">
<title>CLI_SEARCH&#45;&gt;I_SEARCH</title>
<path fill="none" stroke="#805ad5" stroke-dasharray="5,2" d="M540.51,-1262.4C532.71,-1243.98 523.12,-1221.31 514.53,-1201.01"/>
<polygon fill="#805ad5" stroke="#805ad5" points="517.66,-1199.41 510.54,-1191.57 511.21,-1202.14 517.66,-1199.41"/>
</g>
<!-- ALP_SEARCH -->
<g id="node5" class="node">
<title>ALP_SEARCH</title>
<path fill="#6ee7b7" stroke="black" d="M570,-1031C570,-1031 414,-1031 414,-1031 408,-1031 402,-1025 402,-1019 402,-1019 402,-957 402,-957 402,-951 408,-945 414,-945 414,-945 570,-945 570,-945 576,-945 582,-951 582,-957 582,-957 582,-1019 582,-1019 582,-1025 576,-1031 570,-1031"/>
<text text-anchor="middle" x="492" y="-1019" font-family="Helvetica,sans-Serif" font-size="10.00">AlpacaSymbolSearchProvider</text>
<text text-anchor="middle" x="492" y="-1008" font-family="Helvetica,sans-Serif" font-size="10.00">[Production]</text>
<text text-anchor="middle" x="492" y="-985" font-family="Helvetica,sans-Serif" font-size="10.00">US equities + ETFs</text>
<text text-anchor="middle" x="492" y="-974" font-family="Helvetica,sans-Serif" font-size="10.00">Real&#45;time status (active/inactive)</text>
<text text-anchor="middle" x="492" y="-963" font-family="Helvetica,sans-Serif" font-size="10.00">Asset class filter</text>
<text text-anchor="middle" x="492" y="-952" font-family="Helvetica,sans-Serif" font-size="10.00">Full text + ticker match</text>
</g>
<!-- I_SEARCH&#45;&gt;ALP_SEARCH -->
<g id="edge3" class="edge">
<title>I_SEARCH&#45;&gt;ALP_SEARCH</title>
<path fill="none" stroke="#2c7a7b" d="M492,-1101.25C492,-1082.61 492,-1060.8 492,-1041.39"/>
<polygon fill="#2c7a7b" stroke="#2c7a7b" points="495.5,-1041.18 492,-1031.18 488.5,-1041.18 495.5,-1041.18"/>
<text text-anchor="middle" x="513" y="-1076.3" font-family="Helvetica,sans-Serif" font-size="9.00">2. fanout</text>
</g>
<!-- FINN_SEARCH -->
<g id="node6" class="node">
<title>FINN_SEARCH</title>
<path fill="#6ee7b7" stroke="black" d="M753.5,-1031C753.5,-1031 612.5,-1031 612.5,-1031 606.5,-1031 600.5,-1025 600.5,-1019 600.5,-1019 600.5,-957 600.5,-957 600.5,-951 606.5,-945 612.5,-945 612.5,-945 753.5,-945 753.5,-945 759.5,-945 765.5,-951 765.5,-957 765.5,-957 765.5,-1019 765.5,-1019 765.5,-1025 759.5,-1031 753.5,-1031"/>
<text text-anchor="middle" x="683" y="-1019" font-family="Helvetica,sans-Serif" font-size="10.00">FinnhubSymbolSearchProvider</text>
<text text-anchor="middle" x="683" y="-1008" font-family="Helvetica,sans-Serif" font-size="10.00">[Production]</text>
<text text-anchor="middle" x="683" y="-985" font-family="Helvetica,sans-Serif" font-size="10.00">Global stocks</text>
<text text-anchor="middle" x="683" y="-974" font-family="Helvetica,sans-Serif" font-size="10.00">Exchange filter</text>
<text text-anchor="middle" x="683" y="-963" font-family="Helvetica,sans-Serif" font-size="10.00">Instrument type filter</text>
<text text-anchor="middle" x="683" y="-952" font-family="Helvetica,sans-Serif" font-size="10.00">Full description included</text>
</g>
<!-- I_SEARCH&#45;&gt;FINN_SEARCH -->
<g id="edge4" class="edge">
<title>I_SEARCH&#45;&gt;FINN_SEARCH</title>
<path fill="none" stroke="#2c7a7b" d="M541.95,-1105.46C557.68,-1092.72 575.1,-1078.56 591,-1065.5 601.85,-1056.59 613.39,-1047.05 624.49,-1037.84"/>
<polygon fill="#2c7a7b" stroke="#2c7a7b" points="627.02,-1040.28 632.48,-1031.2 622.55,-1034.9 627.02,-1040.28"/>
</g>
<!-- POL_SEARCH -->
<g id="node7" class="node">
<title>POL_SEARCH</title>
<path fill="#6ee7b7" stroke="black" d="M172,-1031C172,-1031 28,-1031 28,-1031 22,-1031 16,-1025 16,-1019 16,-1019 16,-957 16,-957 16,-951 22,-945 28,-945 28,-945 172,-945 172,-945 178,-945 184,-951 184,-957 184,-957 184,-1019 184,-1019 184,-1025 178,-1031 172,-1031"/>
<text text-anchor="middle" x="100" y="-1019" font-family="Helvetica,sans-Serif" font-size="10.00">PolygonSymbolSearchProvider</text>
<text text-anchor="middle" x="100" y="-1008" font-family="Helvetica,sans-Serif" font-size="10.00">[Production]</text>
<text text-anchor="middle" x="100" y="-985" font-family="Helvetica,sans-Serif" font-size="10.00">US + global tickers</text>
<text text-anchor="middle" x="100" y="-974" font-family="Helvetica,sans-Serif" font-size="10.00">Full text search</text>
<text text-anchor="middle" x="100" y="-963" font-family="Helvetica,sans-Serif" font-size="10.00">Market type filter (stocks, fx…)</text>
<text text-anchor="middle" x="100" y="-952" font-family="Helvetica,sans-Serif" font-size="10.00">Active/inactive flag</text>
</g>
<!-- I_SEARCH&#45;&gt;POL_SEARCH -->
<g id="edge5" class="edge">
<title>I_SEARCH&#45;&gt;POL_SEARCH</title>
<path fill="none" stroke="#2c7a7b" d="M383.47,-1128.22C324.84,-1115.94 252.5,-1096.12 193,-1065.5 178.53,-1058.05 164.26,-1048.06 151.41,-1037.76"/>
<polygon fill="#2c7a7b" stroke="#2c7a7b" points="153.54,-1034.99 143.6,-1031.33 149.09,-1040.39 153.54,-1034.99"/>
</g>
<!-- SS_SEARCH -->
<g id="node8" class="node">
<title>SS_SEARCH</title>
<path fill="#6ee7b7" stroke="black" d="M372,-1025.5C372,-1025.5 214,-1025.5 214,-1025.5 208,-1025.5 202,-1019.5 202,-1013.5 202,-1013.5 202,-962.5 202,-962.5 202,-956.5 208,-950.5 214,-950.5 214,-950.5 372,-950.5 372,-950.5 378,-950.5 384,-956.5 384,-962.5 384,-962.5 384,-1013.5 384,-1013.5 384,-1019.5 378,-1025.5 372,-1025.5"/>
<text text-anchor="middle" x="293" y="-1013.5" font-family="Helvetica,sans-Serif" font-size="10.00">StockSharpSymbolSearchProvider</text>
<text text-anchor="middle" x="293" y="-1002.5" font-family="Helvetica,sans-Serif" font-size="10.00">[Production]</text>
<text text-anchor="middle" x="293" y="-979.5" font-family="Helvetica,sans-Serif" font-size="10.00">90+ exchange coverage</text>
<text text-anchor="middle" x="293" y="-968.5" font-family="Helvetica,sans-Serif" font-size="10.00">Multi&#45;exchange search</text>
<text text-anchor="middle" x="293" y="-957.5" font-family="Helvetica,sans-Serif" font-size="10.00">Global market identifiers</text>
</g>
<!-- I_SEARCH&#45;&gt;SS_SEARCH -->
<g id="edge6" class="edge">
<title>I_SEARCH&#45;&gt;SS_SEARCH</title>
<path fill="none" stroke="#2c7a7b" d="M441.27,-1105.79C412.64,-1083.24 376.85,-1055.05 347.61,-1032.02"/>
<polygon fill="#2c7a7b" stroke="#2c7a7b" points="349.57,-1029.1 339.55,-1025.67 345.24,-1034.6 349.57,-1029.1"/>
</g>
<!-- SEARCH_RESULT -->
<g id="node4" class="node">
<title>SEARCH_RESULT</title>
<polygon fill="#bfdbfe" stroke="black" points="777,-1189.25 629,-1189.25 629,-1104.25 783,-1104.25 783,-1183.25 777,-1189.25"/>
<polyline fill="none" stroke="black" points="777,-1189.25 777,-1183.25 "/>
<polyline fill="none" stroke="black" points="783,-1183.25 777,-1183.25 "/>
<text text-anchor="middle" x="706" y="-1177.25" font-family="Helvetica,sans-Serif" font-size="10.00">SymbolSearchResult:</text>
<text text-anchor="middle" x="706" y="-1166.25" font-family="Helvetica,sans-Serif" font-size="10.00">• Ticker (exchange&#45;local)</text>
<text text-anchor="middle" x="706" y="-1155.25" font-family="Helvetica,sans-Serif" font-size="10.00">• Name (company/fund)</text>
<text text-anchor="middle" x="706" y="-1144.25" font-family="Helvetica,sans-Serif" font-size="10.00">• Exchange (e.g. XNAS)</text>
<text text-anchor="middle" x="706" y="-1133.25" font-family="Helvetica,sans-Serif" font-size="10.00">• AssetClass (Equity, ETF…)</text>
<text text-anchor="middle" x="706" y="-1122.25" font-family="Helvetica,sans-Serif" font-size="10.00">• Currency</text>
<text text-anchor="middle" x="706" y="-1111.25" font-family="Helvetica,sans-Serif" font-size="10.00">• Description</text>
</g>
<!-- AGGREGATOR -->
<g id="node10" class="node">
<title>AGGREGATOR</title>
<path fill="#e2e8f0" stroke="black" d="M618.5,-874.5C618.5,-874.5 487.5,-874.5 487.5,-874.5 481.5,-874.5 475.5,-868.5 475.5,-862.5 475.5,-862.5 475.5,-800.5 475.5,-800.5 475.5,-794.5 481.5,-788.5 487.5,-788.5 487.5,-788.5 618.5,-788.5 618.5,-788.5 624.5,-788.5 630.5,-794.5 630.5,-800.5 630.5,-800.5 630.5,-862.5 630.5,-862.5 630.5,-868.5 624.5,-874.5 618.5,-874.5"/>
<text text-anchor="middle" x="553" y="-862.5" font-family="Helvetica,sans-Serif" font-size="10.00">SymbolSearchAggregator</text>
<text text-anchor="middle" x="553" y="-839.5" font-family="Helvetica,sans-Serif" font-size="10.00">Fanout to all providers</text>
<text text-anchor="middle" x="553" y="-828.5" font-family="Helvetica,sans-Serif" font-size="10.00">Dedup by ticker + exchange</text>
<text text-anchor="middle" x="553" y="-817.5" font-family="Helvetica,sans-Serif" font-size="10.00">Rank by confidence score</text>
<text text-anchor="middle" x="553" y="-806.5" font-family="Helvetica,sans-Serif" font-size="10.00">Merge metadata fields</text>
<text text-anchor="middle" x="553" y="-795.5" font-family="Helvetica,sans-Serif" font-size="10.00">Select best canonical form</text>
</g>
<!-- ALP_SEARCH&#45;&gt;AGGREGATOR -->
<g id="edge7" class="edge">
<title>ALP_SEARCH&#45;&gt;AGGREGATOR</title>
<path fill="none" stroke="#718096" d="M508.67,-944.78C516.07,-926.05 524.84,-903.83 532.62,-884.11"/>
<polygon fill="#718096" stroke="#718096" points="535.93,-885.25 536.35,-874.67 529.42,-882.68 535.93,-885.25"/>
</g>
<!-- FINN_SEARCH&#45;&gt;AGGREGATOR -->
<g id="edge8" class="edge">
<title>FINN_SEARCH&#45;&gt;AGGREGATOR</title>
<path fill="none" stroke="#718096" d="M647.48,-944.78C631.28,-925.54 611.99,-902.61 595.08,-882.51"/>
<polygon fill="#718096" stroke="#718096" points="597.6,-880.07 588.48,-874.67 592.24,-884.57 597.6,-880.07"/>
</g>
<!-- POL_SEARCH&#45;&gt;AGGREGATOR -->
<g id="edge9" class="edge">
<title>POL_SEARCH&#45;&gt;AGGREGATOR</title>
<path fill="none" stroke="#718096" d="M165.66,-944.89C174.65,-939.99 183.92,-935.37 193,-931.5 282.73,-893.22 391.37,-865.74 465.68,-849.58"/>
<polygon fill="#718096" stroke="#718096" points="466.44,-853 475.48,-847.48 464.96,-846.16 466.44,-853"/>
</g>
<!-- SS_SEARCH&#45;&gt;AGGREGATOR -->
<g id="edge10" class="edge">
<title>SS_SEARCH&#45;&gt;AGGREGATOR</title>
<path fill="none" stroke="#718096" d="M354.62,-950.39C390.07,-929.32 435,-902.62 473.14,-879.96"/>
<polygon fill="#718096" stroke="#718096" points="475.36,-882.71 482.17,-874.59 471.79,-876.69 475.36,-882.71"/>
</g>
<!-- FIGI_SEARCH -->
<g id="node9" class="node">
<title>FIGI_SEARCH</title>
<path fill="#a7f3d0" stroke="black" d="M938,-1036.5C938,-1036.5 796,-1036.5 796,-1036.5 790,-1036.5 784,-1030.5 784,-1024.5 784,-1024.5 784,-951.5 784,-951.5 784,-945.5 790,-939.5 796,-939.5 796,-939.5 938,-939.5 938,-939.5 944,-939.5 950,-945.5 950,-951.5 950,-951.5 950,-1024.5 950,-1024.5 950,-1030.5 944,-1036.5 938,-1036.5"/>
<text text-anchor="middle" x="867" y="-1024.5" font-family="Helvetica,sans-Serif" font-size="10.00">OpenFigiClient</text>
<text text-anchor="middle" x="867" y="-1013.5" font-family="Helvetica,sans-Serif" font-size="10.00">[Production — FIGI Resolution]</text>
<text text-anchor="middle" x="867" y="-990.5" font-family="Helvetica,sans-Serif" font-size="10.00">Global FIGI assignment lookup</text>
<text text-anchor="middle" x="867" y="-979.5" font-family="Helvetica,sans-Serif" font-size="10.00">FIGI → ticker mapping</text>
<text text-anchor="middle" x="867" y="-968.5" font-family="Helvetica,sans-Serif" font-size="10.00">CUSIP / SEDOL / ISIN → FIGI</text>
<text text-anchor="middle" x="867" y="-957.5" font-family="Helvetica,sans-Serif" font-size="10.00">Cross&#45;market identification</text>
<text text-anchor="middle" x="867" y="-946.5" font-family="Helvetica,sans-Serif" font-size="10.00">Bulk batch API support</text>
</g>
<!-- FIGI_API -->
<g id="node12" class="node">
<title>FIGI_API</title>
<path fill="#fbd38d" stroke="black" d="M845,-874.5C845,-874.5 713,-874.5 713,-874.5 707,-874.5 701,-868.5 701,-862.5 701,-862.5 701,-800.5 701,-800.5 701,-794.5 707,-788.5 713,-788.5 713,-788.5 845,-788.5 845,-788.5 851,-788.5 857,-794.5 857,-800.5 857,-800.5 857,-862.5 857,-862.5 857,-868.5 851,-874.5 845,-874.5"/>
<text text-anchor="middle" x="779" y="-862.5" font-family="Helvetica,sans-Serif" font-size="10.00">OpenFIGI API</text>
<text text-anchor="middle" x="779" y="-851.5" font-family="Helvetica,sans-Serif" font-size="10.00">(api.openfigi.com)</text>
<text text-anchor="middle" x="779" y="-828.5" font-family="Helvetica,sans-Serif" font-size="10.00">Mapping request:</text>
<text text-anchor="middle" x="779" y="-817.5" font-family="Helvetica,sans-Serif" font-size="10.00">{idType, idValue, exchCode}</text>
<text text-anchor="middle" x="779" y="-806.5" font-family="Helvetica,sans-Serif" font-size="10.00">Returns: FIGI + metadata</text>
<text text-anchor="middle" x="779" y="-795.5" font-family="Helvetica,sans-Serif" font-size="10.00">Free tier: 250 req/hr</text>
</g>
<!-- FIGI_SEARCH&#45;&gt;FIGI_API -->
<g id="edge14" class="edge">
<title>FIGI_SEARCH&#45;&gt;FIGI_API</title>
<path fill="none" stroke="#ed8936" stroke-width="2" d="M839.88,-939.38C829.86,-921.79 818.46,-901.78 808.26,-883.87"/>
<polygon fill="#ed8936" stroke="#ed8936" stroke-width="2" points="811.04,-881.68 803.05,-874.72 804.96,-885.14 811.04,-881.68"/>
</g>
<!-- FIGI_CACHE -->
<g id="node14" class="node">
<title>FIGI_CACHE</title>
<path fill="#fef3c7" stroke="black" d="M860,-589.85C860,-595.8 825.04,-600.63 782,-600.63 738.96,-600.63 704,-595.8 704,-589.85 704,-589.85 704,-492.9 704,-492.9 704,-486.95 738.96,-482.12 782,-482.12 825.04,-482.12 860,-486.95 860,-492.9 860,-492.9 860,-589.85 860,-589.85"/>
<path fill="none" stroke="black" d="M860,-589.85C860,-583.91 825.04,-579.08 782,-579.08 738.96,-579.08 704,-583.91 704,-589.85"/>
<text text-anchor="middle" x="782" y="-572.38" font-family="Helvetica,sans-Serif" font-size="10.00">SecurityMasterEventStore</text>
<text text-anchor="middle" x="782" y="-561.38" font-family="Helvetica,sans-Serif" font-size="10.00">[Event&#45;sourced cache]</text>
<text text-anchor="middle" x="782" y="-538.38" font-family="Helvetica,sans-Serif" font-size="10.00">FIGI → ticker map persisted</text>
<text text-anchor="middle" x="782" y="-527.38" font-family="Helvetica,sans-Serif" font-size="10.00">ISIN / CUSIP / SEDOL index</text>
<text text-anchor="middle" x="782" y="-516.38" font-family="Helvetica,sans-Serif" font-size="10.00">Snapshot + projection cache</text>
<text text-anchor="middle" x="782" y="-505.38" font-family="Helvetica,sans-Serif" font-size="10.00">Zero&#45;latency repeat lookups</text>
</g>
<!-- FIGI_SEARCH&#45;&gt;FIGI_CACHE -->
<g id="edge16" class="edge">
<title>FIGI_SEARCH&#45;&gt;FIGI_CACHE</title>
<path fill="none" stroke="#ed8936" d="M874.62,-939.32C883.43,-871.87 892.53,-745.75 857,-646.5 852.32,-633.42 845.47,-620.53 837.78,-608.52"/>
<polygon fill="#ed8936" stroke="#ed8936" points="840.52,-606.32 832.05,-599.94 834.69,-610.2 840.52,-606.32"/>
<text text-anchor="middle" x="903.5" y="-763.3" font-family="Helvetica,sans-Serif" font-size="9.00">cache hit?</text>
</g>
<!-- AGGREGATOR&#45;&gt;SEARCH_RESULT -->
<g id="edge12" class="edge">
<title>AGGREGATOR&#45;&gt;SEARCH_RESULT</title>
<path fill="none" stroke="#4a5568" stroke-dasharray="5,2" d="M619.16,-874.68C640.08,-886.04 663.81,-896.97 687,-903.5 746.13,-920.16 921.62,-885.21 962,-931.5 1001.15,-976.38 997.26,-1017.5 962,-1065.5 923.63,-1117.73 851.34,-1136.9 793.34,-1143.51"/>
<polygon fill="#4a5568" stroke="#4a5568" points="792.65,-1140.06 783.06,-1144.56 793.37,-1147.02 792.65,-1140.06"/>
</g>
<!-- AGGREGATOR&#45;&gt;FIGI_SEARCH -->
<g id="edge13" class="edge">
<title>AGGREGATOR&#45;&gt;FIGI_SEARCH</title>
<path fill="none" stroke="#ed8936" d="M626.63,-874.54C645.94,-884.73 666.97,-895.09 687,-903.5 724.84,-919.39 737.62,-914.56 775,-931.5 777.34,-932.56 779.7,-933.67 782.06,-934.81"/>
<polygon fill="#ed8936" stroke="#ed8936" points="780.68,-938.04 791.18,-939.41 783.83,-931.79 780.68,-938.04"/>
<text text-anchor="middle" x="780" y="-914.3" font-family="Helvetica,sans-Serif" font-size="9.00">3. FIGI lookup</text>
</g>
<!-- RANK -->
<g id="node11" class="node">
<title>RANK</title>
<polygon fill="#edf2f7" stroke="black" points="605,-731.5 495,-731.5 495,-657.5 611,-657.5 611,-725.5 605,-731.5"/>
<polyline fill="none" stroke="black" points="605,-731.5 605,-725.5 "/>
<polyline fill="none" stroke="black" points="611,-725.5 605,-725.5 "/>
<text text-anchor="middle" x="553" y="-719.5" font-family="Helvetica,sans-Serif" font-size="10.00">Ranking Factors:</text>
<text text-anchor="middle" x="553" y="-708.5" font-family="Helvetica,sans-Serif" font-size="10.00">• Exact ticker match</text>
<text text-anchor="middle" x="553" y="-697.5" font-family="Helvetica,sans-Serif" font-size="10.00">• Provider priority</text>
<text text-anchor="middle" x="553" y="-686.5" font-family="Helvetica,sans-Serif" font-size="10.00">• Market cap weight</text>
<text text-anchor="middle" x="553" y="-675.5" font-family="Helvetica,sans-Serif" font-size="10.00">• Active status</text>
<text text-anchor="middle" x="553" y="-664.5" font-family="Helvetica,sans-Serif" font-size="10.00">• FIGI confirmation</text>
</g>
<!-- AGGREGATOR&#45;&gt;RANK -->
<g id="edge11" class="edge">
<title>AGGREGATOR&#45;&gt;RANK</title>
<path fill="none" stroke="#4a5568" stroke-dasharray="5,2" d="M553,-788.16C553,-773.45 553,-756.89 553,-741.88"/>
<polygon fill="#4a5568" stroke="#4a5568" points="556.5,-741.78 553,-731.78 549.5,-741.78 556.5,-741.78"/>
</g>
<!-- FIGI_RESULT -->
<g id="node13" class="node">
<title>FIGI_RESULT</title>
<polygon fill="#feebc8" stroke="black" points="841.5,-742.5 712.5,-742.5 712.5,-646.5 847.5,-646.5 847.5,-736.5 841.5,-742.5"/>
<polyline fill="none" stroke="black" points="841.5,-742.5 841.5,-736.5 "/>
<polyline fill="none" stroke="black" points="847.5,-736.5 841.5,-736.5 "/>
<text text-anchor="middle" x="780" y="-730.5" font-family="Helvetica,sans-Serif" font-size="10.00">FIGI Response:</text>
<text text-anchor="middle" x="780" y="-719.5" font-family="Helvetica,sans-Serif" font-size="10.00">• FIGI (global unique ID)</text>
<text text-anchor="middle" x="780" y="-708.5" font-family="Helvetica,sans-Serif" font-size="10.00">• CompositeFIGI</text>
<text text-anchor="middle" x="780" y="-697.5" font-family="Helvetica,sans-Serif" font-size="10.00">• Ticker</text>
<text text-anchor="middle" x="780" y="-686.5" font-family="Helvetica,sans-Serif" font-size="10.00">• Name</text>
<text text-anchor="middle" x="780" y="-675.5" font-family="Helvetica,sans-Serif" font-size="10.00">• ExchangeCode</text>
<text text-anchor="middle" x="780" y="-664.5" font-family="Helvetica,sans-Serif" font-size="10.00">• SecurityType</text>
<text text-anchor="middle" x="780" y="-653.5" font-family="Helvetica,sans-Serif" font-size="10.00">• MarketSector</text>
</g>
<!-- FIGI_API&#45;&gt;FIGI_RESULT -->
<g id="edge15" class="edge">
<title>FIGI_API&#45;&gt;FIGI_RESULT</title>
<path fill="none" stroke="#4a5568" stroke-dasharray="5,2" d="M779.31,-788.16C779.4,-777.03 779.49,-764.84 779.57,-753.07"/>
<polygon fill="#4a5568" stroke="#4a5568" points="783.07,-752.89 779.65,-742.86 776.08,-752.84 783.07,-752.89"/>
</g>
<!-- FIGI_RESULT&#45;&gt;FIGI_CACHE -->
<g id="edge17" class="edge">
<title>FIGI_RESULT&#45;&gt;FIGI_CACHE</title>
<path fill="none" stroke="#ed8936" d="M780.63,-646.1C780.78,-634.8 780.94,-622.53 781.1,-610.51"/>
<polygon fill="#ed8936" stroke="#ed8936" points="784.6,-610.55 781.23,-600.5 777.6,-610.45 784.6,-610.55"/>
<text text-anchor="middle" x="795.5" y="-621.3" font-family="Helvetica,sans-Serif" font-size="9.00">persist</text>
</g>
<!-- SYMBOL_MAPPER -->
<g id="node15" class="node">
<title>SYMBOL_MAPPER</title>
<path fill="#9ae6b4" stroke="black" d="M848.5,-417.25C848.5,-417.25 715.5,-417.25 715.5,-417.25 709.5,-417.25 703.5,-411.25 703.5,-405.25 703.5,-405.25 703.5,-343.25 703.5,-343.25 703.5,-337.25 709.5,-331.25 715.5,-331.25 715.5,-331.25 848.5,-331.25 848.5,-331.25 854.5,-331.25 860.5,-337.25 860.5,-343.25 860.5,-343.25 860.5,-405.25 860.5,-405.25 860.5,-411.25 854.5,-417.25 848.5,-417.25"/>
<text text-anchor="middle" x="782" y="-405.25" font-family="Helvetica,sans-Serif" font-size="10.00">SymbolMapper</text>
<text text-anchor="middle" x="782" y="-382.25" font-family="Helvetica,sans-Serif" font-size="10.00">Canonical → provider format</text>
<text text-anchor="middle" x="782" y="-371.25" font-family="Helvetica,sans-Serif" font-size="10.00">Exchange suffix rules</text>
<text text-anchor="middle" x="782" y="-360.25" font-family="Helvetica,sans-Serif" font-size="10.00">Normalize CUSIP/SEDOL/ISIN</text>
<text text-anchor="middle" x="782" y="-349.25" font-family="Helvetica,sans-Serif" font-size="10.00">Handle ADR suffixes</text>
<text text-anchor="middle" x="782" y="-338.25" font-family="Helvetica,sans-Serif" font-size="10.00">Regional market variants</text>
</g>
<!-- FIGI_CACHE&#45;&gt;SYMBOL_MAPPER -->
<g id="edge18" class="edge">
<title>FIGI_CACHE&#45;&gt;SYMBOL_MAPPER</title>
<path fill="none" stroke="#38a169" stroke-width="2" d="M782,-482.16C782,-464.47 782,-445.15 782,-427.86"/>
<polygon fill="#38a169" stroke="#38a169" stroke-width="2" points="785.5,-427.38 782,-417.38 778.5,-427.38 785.5,-427.38"/>
<text text-anchor="middle" x="798.5" y="-457.05" font-family="Helvetica,sans-Serif" font-size="9.00">4. map</text>
</g>
<!-- CONTRACT_FACTORY -->
<g id="node16" class="node">
<title>CONTRACT_FACTORY</title>
<path fill="#9ae6b4" stroke="black" d="M491,-266.25C491,-266.25 357,-266.25 357,-266.25 351,-266.25 345,-260.25 345,-254.25 345,-254.25 345,-192.25 345,-192.25 345,-186.25 351,-180.25 357,-180.25 357,-180.25 491,-180.25 491,-180.25 497,-180.25 503,-186.25 503,-192.25 503,-192.25 503,-254.25 503,-254.25 503,-260.25 497,-266.25 491,-266.25"/>
<text text-anchor="middle" x="424" y="-254.25" font-family="Helvetica,sans-Serif" font-size="10.00">ContractFactory</text>
<text text-anchor="middle" x="424" y="-243.25" font-family="Helvetica,sans-Serif" font-size="10.00">[IB&#45;specific]</text>
<text text-anchor="middle" x="424" y="-220.25" font-family="Helvetica,sans-Serif" font-size="10.00">Symbol → IB Contract</text>
<text text-anchor="middle" x="424" y="-209.25" font-family="Helvetica,sans-Serif" font-size="10.00">Multiple exchange resolution</text>
<text text-anchor="middle" x="424" y="-198.25" font-family="Helvetica,sans-Serif" font-size="10.00">ConId lookup</text>
<text text-anchor="middle" x="424" y="-187.25" font-family="Helvetica,sans-Serif" font-size="10.00">Option / futures specs</text>
</g>
<!-- SYMBOL_MAPPER&#45;&gt;CONTRACT_FACTORY -->
<g id="edge19" class="edge">
<title>SYMBOL_MAPPER&#45;&gt;CONTRACT_FACTORY</title>
<path fill="none" stroke="#38a169" stroke-dasharray="5,2" d="M703.41,-359.87C647,-348.14 570.42,-327.78 509,-295.25 497.36,-289.08 485.85,-281.13 475.25,-272.79"/>
<polygon fill="#38a169" stroke="#38a169" points="477.3,-269.94 467.34,-266.36 472.89,-275.38 477.3,-269.94"/>
<text text-anchor="middle" x="558.5" y="-306.05" font-family="Helvetica,sans-Serif" font-size="9.00">IB only</text>
</g>
<!-- FMT_IB -->
<g id="node17" class="node">
<title>FMT_IB</title>
<polygon fill="#c6f6d5" stroke="black" points="947,-241.25 843,-241.25 843,-205.25 953,-205.25 953,-235.25 947,-241.25"/>
<polyline fill="none" stroke="black" points="947,-241.25 947,-235.25 "/>
<polyline fill="none" stroke="black" points="953,-235.25 947,-235.25 "/>
<text text-anchor="middle" x="898" y="-226.25" font-family="Helvetica,sans-Serif" font-size="10.00">IB Format:</text>
<text text-anchor="middle" x="898" y="-215.25" font-family="Helvetica,sans-Serif" font-size="10.00">AAPL [SMART/USD]</text>
</g>
<!-- SYMBOL_MAPPER&#45;&gt;FMT_IB -->
<g id="edge20" class="edge">
<title>SYMBOL_MAPPER&#45;&gt;FMT_IB</title>
<path fill="none" stroke="#4a5568" stroke-dasharray="5,2" d="M814.93,-330.95C835.36,-304.71 860.93,-271.86 878.27,-249.6"/>
<polygon fill="#4a5568" stroke="#4a5568" points="881.1,-251.66 884.48,-241.62 875.58,-247.36 881.1,-251.66"/>
</g>
<!-- FMT_ALP -->
<g id="node18" class="node">
<title>FMT_ALP</title>
<polygon fill="#c6f6d5" stroke="black" points="1055,-241.25 971,-241.25 971,-205.25 1061,-205.25 1061,-235.25 1055,-241.25"/>
<polyline fill="none" stroke="black" points="1055,-241.25 1055,-235.25 "/>
<polyline fill="none" stroke="black" points="1061,-235.25 1055,-235.25 "/>
<text text-anchor="middle" x="1016" y="-226.25" font-family="Helvetica,sans-Serif" font-size="10.00">Alpaca Format:</text>
<text text-anchor="middle" x="1016" y="-215.25" font-family="Helvetica,sans-Serif" font-size="10.00">AAPL</text>
</g>
<!-- SYMBOL_MAPPER&#45;&gt;FMT_ALP -->
<g id="edge21" class="edge">
<title>SYMBOL_MAPPER&#45;&gt;FMT_ALP</title>
<path fill="none" stroke="#4a5568" stroke-dasharray="5,2" d="M860.74,-349.14C894.11,-336.49 932.11,-318.67 962,-295.25 977.75,-282.91 991.35,-264.94 1000.97,-250.17"/>
<polygon fill="#4a5568" stroke="#4a5568" points="1004.08,-251.8 1006.42,-241.47 998.15,-248.08 1004.08,-251.8"/>
</g>
<!-- FMT_POL -->
<g id="node19" class="node">
<title>FMT_POL</title>
<polygon fill="#c6f6d5" stroke="black" points="611,-241.25 521,-241.25 521,-205.25 617,-205.25 617,-235.25 611,-241.25"/>
<polyline fill="none" stroke="black" points="611,-241.25 611,-235.25 "/>
<polyline fill="none" stroke="black" points="617,-235.25 611,-235.25 "/>
<text text-anchor="middle" x="569" y="-226.25" font-family="Helvetica,sans-Serif" font-size="10.00">Polygon Format:</text>
<text text-anchor="middle" x="569" y="-215.25" font-family="Helvetica,sans-Serif" font-size="10.00">AAPL</text>
</g>
<!-- SYMBOL_MAPPER&#45;&gt;FMT_POL -->
<g id="edge22" class="edge">
<title>SYMBOL_MAPPER&#45;&gt;FMT_POL</title>
<path fill="none" stroke="#4a5568" stroke-dasharray="5,2" d="M703.28,-341.52C677.57,-329.16 649.79,-313.53 627,-295.25 611.06,-282.47 596.53,-264.65 585.99,-250.07"/>
<polygon fill="#4a5568" stroke="#4a5568" points="588.58,-247.66 579.97,-241.48 582.84,-251.67 588.58,-247.66"/>
</g>
<!-- FMT_STOOQ -->
<g id="node20" class="node">
<title>FMT_STOOQ</title>
<polygon fill="#c6f6d5" stroke="black" points="714.5,-241.25 635.5,-241.25 635.5,-205.25 720.5,-205.25 720.5,-235.25 714.5,-241.25"/>
<polyline fill="none" stroke="black" points="714.5,-241.25 714.5,-235.25 "/>
<polyline fill="none" stroke="black" points="720.5,-235.25 714.5,-235.25 "/>
<text text-anchor="middle" x="678" y="-226.25" font-family="Helvetica,sans-Serif" font-size="10.00">Stooq Format:</text>
<text text-anchor="middle" x="678" y="-215.25" font-family="Helvetica,sans-Serif" font-size="10.00">AAPL.US</text>
</g>
<!-- SYMBOL_MAPPER&#45;&gt;FMT_STOOQ -->
<g id="edge23" class="edge">
<title>SYMBOL_MAPPER&#45;&gt;FMT_STOOQ</title>
<path fill="none" stroke="#4a5568" stroke-dasharray="5,2" d="M752.48,-330.95C734.24,-304.82 711.43,-272.15 695.9,-249.89"/>
<polygon fill="#4a5568" stroke="#4a5568" points="698.71,-247.81 690.12,-241.62 692.97,-251.82 698.71,-247.81"/>
</g>
<!-- FMT_YAHOO -->
<g id="node21" class="node">
<title>FMT_YAHOO</title>
<polygon fill="#c6f6d5" stroke="black" points="819,-241.25 739,-241.25 739,-205.25 825,-205.25 825,-235.25 819,-241.25"/>
<polyline fill="none" stroke="black" points="819,-241.25 819,-235.25 "/>
<polyline fill="none" stroke="black" points="825,-235.25 819,-235.25 "/>
<text text-anchor="middle" x="782" y="-226.25" font-family="Helvetica,sans-Serif" font-size="10.00">Yahoo Format:</text>
<text text-anchor="middle" x="782" y="-215.25" font-family="Helvetica,sans-Serif" font-size="10.00">AAPL</text>
</g>
<!-- SYMBOL_MAPPER&#45;&gt;FMT_YAHOO -->
<g id="edge24" class="edge">
<title>SYMBOL_MAPPER&#45;&gt;FMT_YAHOO</title>
<path fill="none" stroke="#4a5568" stroke-dasharray="5,2" d="M782,-330.95C782,-305.52 782,-273.88 782,-251.69"/>
<polygon fill="#4a5568" stroke="#4a5568" points="785.5,-251.62 782,-241.62 778.5,-251.62 785.5,-251.62"/>
</g>
<!-- CANONICAL -->
<g id="node22" class="node">
<title>CANONICAL</title>
<path fill="#93c5fd" stroke="black" d="M1235,-266.25C1235,-266.25 1105,-266.25 1105,-266.25 1099,-266.25 1093,-260.25 1093,-254.25 1093,-254.25 1093,-192.25 1093,-192.25 1093,-186.25 1099,-180.25 1105,-180.25 1105,-180.25 1235,-180.25 1235,-180.25 1241,-180.25 1247,-186.25 1247,-192.25 1247,-192.25 1247,-254.25 1247,-254.25 1247,-260.25 1241,-266.25 1235,-266.25"/>
<text text-anchor="middle" x="1170" y="-254.25" font-family="Helvetica,sans-Serif" font-size="10.00">CanonicalSymbol</text>
<text text-anchor="middle" x="1170" y="-231.25" font-family="Helvetica,sans-Serif" font-size="10.00">Global identifier (FIGI)</text>
<text text-anchor="middle" x="1170" y="-220.25" font-family="Helvetica,sans-Serif" font-size="10.00">Exchange&#45;qualified ticker</text>
<text text-anchor="middle" x="1170" y="-209.25" font-family="Helvetica,sans-Serif" font-size="10.00">Asset class + currency</text>
<text text-anchor="middle" x="1170" y="-198.25" font-family="Helvetica,sans-Serif" font-size="10.00">Provider format cache</text>
<text text-anchor="middle" x="1170" y="-187.25" font-family="Helvetica,sans-Serif" font-size="10.00">Ready to subscribe / backfill</text>
</g>
<!-- SYMBOL_MAPPER&#45;&gt;CANONICAL -->
<g id="edge25" class="edge">
<title>SYMBOL_MAPPER&#45;&gt;CANONICAL</title>
<path fill="none" stroke="#2b6cb0" stroke-width="2" d="M860.73,-360.34C920.91,-348.55 1004.84,-327.91 1073,-295.25 1086.15,-288.95 1099.35,-280.8 1111.59,-272.28"/>
<polygon fill="#2b6cb0" stroke="#2b6cb0" stroke-width="2" points="1113.8,-275 1119.9,-266.33 1109.73,-269.3 1113.8,-275"/>
<text text-anchor="middle" x="1077.5" y="-306.05" font-family="Helvetica,sans-Serif" font-size="9.00">5. canonical</text>
</g>
<!-- SYMBOL_STORE -->
<g id="node23" class="node">
<title>SYMBOL_STORE</title>
<path fill="#bfdbfe" stroke="black" d="M1239.5,-123.6C1239.5,-129.55 1208.35,-134.38 1170,-134.38 1131.65,-134.38 1100.5,-129.55 1100.5,-123.6 1100.5,-123.6 1100.5,-26.65 1100.5,-26.65 1100.5,-20.7 1131.65,-15.87 1170,-15.87 1208.35,-15.87 1239.5,-20.7 1239.5,-26.65 1239.5,-26.65 1239.5,-123.6 1239.5,-123.6"/>
<path fill="none" stroke="black" d="M1239.5,-123.6C1239.5,-117.66 1208.35,-112.83 1170,-112.83 1131.65,-112.83 1100.5,-117.66 1100.5,-123.6"/>
<text text-anchor="middle" x="1170" y="-106.12" font-family="Helvetica,sans-Serif" font-size="10.00">Symbol Registry</text>
<text text-anchor="middle" x="1170" y="-95.12" font-family="Helvetica,sans-Serif" font-size="10.00">(appsettings.json)</text>
<text text-anchor="middle" x="1170" y="-72.12" font-family="Helvetica,sans-Serif" font-size="10.00">Monitored symbols list</text>
<text text-anchor="middle" x="1170" y="-61.12" font-family="Helvetica,sans-Serif" font-size="10.00">Archival symbols list</text>
<text text-anchor="middle" x="1170" y="-50.12" font-family="Helvetica,sans-Serif" font-size="10.00">Tier assignment</text>
<text text-anchor="middle" x="1170" y="-39.12" font-family="Helvetica,sans-Serif" font-size="10.00">Added via &#45;&#45;symbols&#45;add</text>
</g>
<!-- CANONICAL&#45;&gt;SYMBOL_STORE -->
<g id="edge26" class="edge">
<title>CANONICAL&#45;&gt;SYMBOL_STORE</title>
<path fill="none" stroke="#2b6cb0" d="M1170,-179.98C1170,-168.86 1170,-156.56 1170,-144.44"/>
<polygon fill="#2b6cb0" stroke="#2b6cb0" points="1173.5,-144.33 1170,-134.33 1166.5,-144.33 1173.5,-144.33"/>
<text text-anchor="middle" x="1187.5" y="-155.05" font-family="Helvetica,sans-Serif" font-size="9.00">register</text>
</g>
<!-- LEG -->
<g id="node24" class="node">
<title>LEG</title>
<path fill="lightgrey" stroke="transparent" d="M1064,-1331.51C1064,-1331.51 918,-1331.51 918,-1331.51 912,-1331.51 906,-1325.51 906,-1319.51 906,-1319.51 906,-1280.51 906,-1280.51 906,-1274.51 912,-1268.51 918,-1268.51 918,-1268.51 1064,-1268.51 1064,-1268.51 1070,-1268.51 1076,-1274.51 1076,-1280.51 1076,-1280.51 1076,-1319.51 1076,-1319.51 1076,-1325.51 1070,-1331.51 1064,-1331.51"/>
<text text-anchor="middle" x="991" y="-1319.51" font-family="Helvetica,sans-Serif" font-size="10.00">━━ Search / resolution flow</text>
<text text-anchor="middle" x="991" y="-1308.51" font-family="Helvetica,sans-Serif" font-size="10.00">─ ─ Reference / Cache path</text>
<text text-anchor="middle" x="991" y="-1297.51" font-family="Helvetica,sans-Serif" font-size="10.00">Green &#160;= Search providers</text>
<text text-anchor="middle" x="991" y="-1286.51" font-family="Helvetica,sans-Serif" font-size="10.00">Orange = FIGI canonical ID</text>
<text text-anchor="middle" x="991" y="-1275.51" font-family="Helvetica,sans-Serif" font-size="10.00">Blue &#160;&#160;= Final canonical symbol</text>
</g>
</g>
</svg>
