<?xml version="1.0" encoding="UTF-8" standalone="no"?>
<!DOCTYPE svg PUBLIC "-//W3C//DTD SVG 1.1//EN"
 "http://www.w3.org/Graphics/SVG/1.1/DTD/svg11.dtd">
<!-- Generated by graphviz version 2.43.0 (0)
 -->
<!-- Title: UiNavigationMap Pages: 1 -->
<svg width="1145pt" height="4082pt"
 viewBox="0.00 0.00 1144.60 4081.60" xmlns="http://www.w3.org/2000/svg" xmlns:xlink="http://www.w3.org/1999/xlink">
<g id="graph0" class="graph" transform="scale(1 1) rotate(0) translate(28.8 4052.8)">
<title>UiNavigationMap</title>
<polygon fill="#0f172a" stroke="transparent" points="-28.8,28.8 -28.8,-4052.8 1115.8,-4052.8 1115.8,28.8 -28.8,28.8"/>
<text text-anchor="middle" x="543.5" y="-4004" font-family="Segoe UI" font-size="20.00">Meridian WPF UI navigation map</text>
<text text-anchor="middle" x="543.5" y="-3982" font-family="Segoe UI" font-size="20.00">(auto&#45;generated from MainPage.xaml + NavigationService.cs)</text>
<g id="clust1" class="cluster">
<title>cluster_workspace_1</title>
<path fill="#0f172a" stroke="#334155" d="M435,-2368C435,-2368 1067,-2368 1067,-2368 1073,-2368 1079,-2374 1079,-2380 1079,-2380 1079,-3952 1079,-3952 1079,-3958 1073,-3964 1067,-3964 1067,-3964 435,-3964 435,-3964 429,-3964 423,-3958 423,-3952 423,-3952 423,-2380 423,-2380 423,-2374 429,-2368 435,-2368"/>
<text text-anchor="middle" x="751" y="-3944" font-family="Segoe UI" font-size="20.00">Shell workspace</text>
</g>
<g id="clust2" class="cluster">
<title>cluster_hidden_pages</title>
<path fill="#0f172a" stroke="#7c2d12" stroke-dasharray="5,2" d="M328,-8C328,-8 658,-8 658,-8 664,-8 670,-14 670,-20 670,-20 670,-2348 670,-2348 670,-2354 664,-2360 658,-2360 658,-2360 328,-2360 328,-2360 322,-2360 316,-2354 316,-2348 316,-2348 316,-20 316,-20 316,-14 322,-8 328,-8"/>
<text text-anchor="middle" x="493" y="-2340" font-family="Segoe UI" font-size="20.00">Registered but not in sidebar shell</text>
</g>
<!-- generated -->
<g id="node1" class="node">
<title>generated</title>
<polygon fill="#1d4ed8" stroke="#60a5fa" points="245,-1155.5 0,-1155.5 0,-1102.5 251,-1102.5 251,-1149.5 245,-1155.5"/>
<polyline fill="none" stroke="#60a5fa" points="245,-1155.5 245,-1149.5 "/>
<polyline fill="none" stroke="#60a5fa" points="251,-1149.5 245,-1149.5 "/>
<text text-anchor="middle" x="125.5" y="-1140.3" font-family="Segoe UI" font-size="14.00" fill="#e2e8f0">Source fingerprint: 2e1ef9c6eda5</text>
<text text-anchor="middle" x="125.5" y="-1125.3" font-family="Segoe UI" font-size="14.00" fill="#e2e8f0">Shell entries: 27</text>
<text text-anchor="middle" x="125.5" y="-1110.3" font-family="Segoe UI" font-size="14.00" fill="#e2e8f0">Registered pages: 62</text>
</g>
<!-- shell -->
<g id="node2" class="node">
<title>shell</title>
<polygon fill="#0f766e" stroke="#2dd4bf" points="190,-2010 61,-2010 61,-2006 57,-2006 57,-2002 61,-2002 61,-1980 57,-1980 57,-1976 61,-1976 61,-1972 190,-1972 190,-2010"/>
<polyline fill="none" stroke="#2dd4bf" points="61,-2006 65,-2006 65,-2002 61,-2002 "/>
<polyline fill="none" stroke="#2dd4bf" points="61,-1980 65,-1980 65,-1976 61,-1976 "/>
<text text-anchor="middle" x="125.5" y="-1994.8" font-family="Segoe UI" font-size="14.00" fill="#e2e8f0">MainPage.xaml</text>
<text text-anchor="middle" x="125.5" y="-1979.8" font-family="Segoe UI" font-size="14.00" fill="#e2e8f0">Workspace shell</text>
</g>
<!-- navigation -->
<g id="node3" class="node">
<title>navigation</title>
<polygon fill="#7c3aed" stroke="#c4b5fd" points="196.5,-1219 54.5,-1219 54.5,-1215 50.5,-1215 50.5,-1211 54.5,-1211 54.5,-1189 50.5,-1189 50.5,-1185 54.5,-1185 54.5,-1181 196.5,-1181 196.5,-1219"/>
<polyline fill="none" stroke="#c4b5fd" points="54.5,-1215 58.5,-1215 58.5,-1211 54.5,-1211 "/>
<polyline fill="none" stroke="#c4b5fd" points="54.5,-1189 58.5,-1189 58.5,-1185 54.5,-1185 "/>
<text text-anchor="middle" x="125.5" y="-1203.8" font-family="Segoe UI" font-size="14.00" fill="#e2e8f0">NavigationService</text>
<text text-anchor="middle" x="125.5" y="-1188.8" font-family="Segoe UI" font-size="14.00" fill="#e2e8f0">RegisterAllPages()</text>
</g>
<!-- shell&#45;&gt;navigation -->
<g id="edge1" class="edge">
<title>shell&#45;&gt;navigation</title>
<path fill="none" stroke="#38bdf8" stroke-width="1.3" d="M125.5,-1971.74C125.5,-1865.61 125.5,-1352.44 125.5,-1227.48"/>
<polygon fill="#38bdf8" stroke="#38bdf8" stroke-width="1.3" points="128.3,-1227.16 125.5,-1219.16 122.7,-1227.16 128.3,-1227.16"/>
<text text-anchor="middle" x="115" y="-1591.8" font-family="Segoe UI" font-size="14.00">navigate via tags</text>
</g>
<!-- workspace_1 -->
<g id="node4" class="node">
<title>workspace_1</title>
<polygon fill="#1d4ed8" stroke="#93c5fd" points="555,-3075 552,-3079 531,-3079 528,-3075 431,-3075 431,-3037 555,-3037 555,-3075"/>
<text text-anchor="middle" x="493" y="-3059.8" font-family="Segoe UI" font-size="14.00" fill="#e2e8f0">Shell</text>
<text text-anchor="middle" x="493" y="-3044.8" font-family="Segoe UI" font-size="14.00" fill="#e2e8f0">27 shell entries</text>
</g>
<!-- shell&#45;&gt;workspace_1 -->
<g id="edge2" class="edge">
<title>shell&#45;&gt;workspace_1</title>
<path fill="none" stroke="#22d3ee" stroke-width="1.3" d="M133.16,-2010.39C177.55,-2139.75 430.56,-2876.96 482.63,-3028.69"/>
<polygon fill="#22d3ee" stroke="#22d3ee" stroke-width="1.3" points="480.12,-3030.01 485.36,-3036.66 485.42,-3028.19 480.12,-3030.01"/>
</g>
<!-- hidden_DataSources -->
<g id="node30" class="node">
<title>hidden_DataSources</title>
<path fill="#431407" stroke="#fb923c" d="M549.5,-2322C549.5,-2322 436.5,-2322 436.5,-2322 430.5,-2322 424.5,-2316 424.5,-2310 424.5,-2310 424.5,-2296 424.5,-2296 424.5,-2290 430.5,-2284 436.5,-2284 436.5,-2284 549.5,-2284 549.5,-2284 555.5,-2284 561.5,-2290 561.5,-2296 561.5,-2296 561.5,-2310 561.5,-2310 561.5,-2316 555.5,-2322 549.5,-2322"/>
<text text-anchor="middle" x="493" y="-2306.8" font-family="Segoe UI" font-size="14.00" fill="#e2e8f0">DataSources</text>
<text text-anchor="middle" x="493" y="-2291.8" font-family="Segoe UI" font-size="14.00" fill="#e2e8f0">DataSourcesPage</text>
</g>
<!-- navigation&#45;&gt;hidden_DataSources -->
<g id="edge30" class="edge">
<title>navigation&#45;&gt;hidden_DataSources</title>
<path fill="none" stroke="#fb923c" stroke-width="1.3" stroke-dasharray="5,2" d="M129.56,-1219.15C152.42,-1361.73 295.91,-2252.76 316,-2272 342.25,-2297.13 381.31,-2305.75 415.97,-2307.72"/>
<polygon fill="#fb923c" stroke="#fb923c" stroke-width="1.3" points="416.11,-2310.52 424.22,-2308.06 416.34,-2304.93 416.11,-2310.52"/>
</g>
<!-- hidden_DataBrowser -->
<g id="node31" class="node">
<title>hidden_DataBrowser</title>
<path fill="#431407" stroke="#fb923c" d="M550,-2259C550,-2259 436,-2259 436,-2259 430,-2259 424,-2253 424,-2247 424,-2247 424,-2233 424,-2233 424,-2227 430,-2221 436,-2221 436,-2221 550,-2221 550,-2221 556,-2221 562,-2227 562,-2233 562,-2233 562,-2247 562,-2247 562,-2253 556,-2259 550,-2259"/>
<text text-anchor="middle" x="493" y="-2243.8" font-family="Segoe UI" font-size="14.00" fill="#e2e8f0">DataBrowser</text>
<text text-anchor="middle" x="493" y="-2228.8" font-family="Segoe UI" font-size="14.00" fill="#e2e8f0">DataBrowserPage</text>
</g>
<!-- navigation&#45;&gt;hidden_DataBrowser -->
<g id="edge31" class="edge">
<title>navigation&#45;&gt;hidden_DataBrowser</title>
<path fill="none" stroke="#fb923c" stroke-width="1.3" stroke-dasharray="5,2" d="M129.49,-1219.39C150.65,-1356.3 278.23,-2172.9 316,-2209 342.16,-2234.01 381.02,-2242.66 415.58,-2244.67"/>
<polygon fill="#fb923c" stroke="#fb923c" stroke-width="1.3" points="415.68,-2247.48 423.8,-2245.03 415.93,-2241.89 415.68,-2247.48"/>
</g>
<!-- hidden_SymbolMapping -->
<g id="node32" class="node">
<title>hidden_SymbolMapping</title>
<path fill="#431407" stroke="#fb923c" d="M561.5,-2196C561.5,-2196 424.5,-2196 424.5,-2196 418.5,-2196 412.5,-2190 412.5,-2184 412.5,-2184 412.5,-2170 412.5,-2170 412.5,-2164 418.5,-2158 424.5,-2158 424.5,-2158 561.5,-2158 561.5,-2158 567.5,-2158 573.5,-2164 573.5,-2170 573.5,-2170 573.5,-2184 573.5,-2184 573.5,-2190 567.5,-2196 561.5,-2196"/>
<text text-anchor="middle" x="493" y="-2180.8" font-family="Segoe UI" font-size="14.00" fill="#e2e8f0">SymbolMapping</text>
<text text-anchor="middle" x="493" y="-2165.8" font-family="Segoe UI" font-size="14.00" fill="#e2e8f0">SymbolMappingPage</text>
</g>
<!-- navigation&#45;&gt;hidden_SymbolMapping -->
<g id="edge32" class="edge">
<title>navigation&#45;&gt;hidden_SymbolMapping</title>
<path fill="none" stroke="#fb923c" stroke-width="1.3" stroke-dasharray="5,2" d="M129.65,-1219.04C151.37,-1350.02 279.36,-2113.48 316,-2146 339.86,-2167.17 372.94,-2176.34 403.99,-2179.73"/>
<polygon fill="#fb923c" stroke="#fb923c" stroke-width="1.3" points="404.03,-2182.55 412.26,-2180.5 404.55,-2176.97 404.03,-2182.55"/>
</g>
<!-- hidden_SymbolStorage -->
<g id="node33" class="node">
<title>hidden_SymbolStorage</title>
<path fill="#431407" stroke="#fb923c" d="M558.5,-2133C558.5,-2133 427.5,-2133 427.5,-2133 421.5,-2133 415.5,-2127 415.5,-2121 415.5,-2121 415.5,-2107 415.5,-2107 415.5,-2101 421.5,-2095 427.5,-2095 427.5,-2095 558.5,-2095 558.5,-2095 564.5,-2095 570.5,-2101 570.5,-2107 570.5,-2107 570.5,-2121 570.5,-2121 570.5,-2127 564.5,-2133 558.5,-2133"/>
<text text-anchor="middle" x="493" y="-2117.8" font-family="Segoe UI" font-size="14.00" fill="#e2e8f0">SymbolStorage</text>
<text text-anchor="middle" x="493" y="-2102.8" font-family="Segoe UI" font-size="14.00" fill="#e2e8f0">SymbolStoragePage</text>
</g>
<!-- navigation&#45;&gt;hidden_SymbolStorage -->
<g id="edge33" class="edge">
<title>navigation&#45;&gt;hidden_SymbolStorage</title>
<path fill="none" stroke="#fb923c" stroke-width="1.3" stroke-dasharray="5,2" d="M129.17,-1219.08C146.63,-1342.5 245.91,-2024.61 316,-2083 341.16,-2103.96 375.5,-2112.91 407.16,-2116.18"/>
<polygon fill="#fb923c" stroke="#fb923c" stroke-width="1.3" points="406.93,-2118.97 415.15,-2116.9 407.43,-2113.4 406.93,-2118.97"/>
</g>
<!-- hidden_IndexSubscription -->
<g id="node34" class="node">
<title>hidden_IndexSubscription</title>
<path fill="#431407" stroke="#fb923c" d="M569,-2070C569,-2070 417,-2070 417,-2070 411,-2070 405,-2064 405,-2058 405,-2058 405,-2044 405,-2044 405,-2038 411,-2032 417,-2032 417,-2032 569,-2032 569,-2032 575,-2032 581,-2038 581,-2044 581,-2044 581,-2058 581,-2058 581,-2064 575,-2070 569,-2070"/>
<text text-anchor="middle" x="493" y="-2054.8" font-family="Segoe UI" font-size="14.00" fill="#e2e8f0">IndexSubscription</text>
<text text-anchor="middle" x="493" y="-2039.8" font-family="Segoe UI" font-size="14.00" fill="#e2e8f0">IndexSubscriptionPage</text>
</g>
<!-- navigation&#45;&gt;hidden_IndexSubscription -->
<g id="edge34" class="edge">
<title>navigation&#45;&gt;hidden_IndexSubscription</title>
<path fill="none" stroke="#fb923c" stroke-width="1.3" stroke-dasharray="5,2" d="M127.89,-1219.21C136.49,-1332.5 186.48,-1912.1 316,-2020 338.44,-2038.7 368.18,-2047.83 396.82,-2051.91"/>
<polygon fill="#fb923c" stroke="#fb923c" stroke-width="1.3" points="396.57,-2054.71 404.86,-2052.94 397.27,-2049.15 396.57,-2054.71"/>
</g>
<!-- hidden_Options -->
<g id="node35" class="node">
<title>hidden_Options</title>
<path fill="#431407" stroke="#fb923c" d="M533,-2007C533,-2007 453,-2007 453,-2007 447,-2007 441,-2001 441,-1995 441,-1995 441,-1981 441,-1981 441,-1975 447,-1969 453,-1969 453,-1969 533,-1969 533,-1969 539,-1969 545,-1975 545,-1981 545,-1981 545,-1995 545,-1995 545,-2001 539,-2007 533,-2007"/>
<text text-anchor="middle" x="493" y="-1991.8" font-family="Segoe UI" font-size="14.00" fill="#e2e8f0">Options</text>
<text text-anchor="middle" x="493" y="-1976.8" font-family="Segoe UI" font-size="14.00" fill="#e2e8f0">OptionsPage</text>
</g>
<!-- navigation&#45;&gt;hidden_Options -->
<g id="edge35" class="edge">
<title>navigation&#45;&gt;hidden_Options</title>
<path fill="none" stroke="#fb923c" stroke-width="1.3" stroke-dasharray="5,2" d="M128.3,-1219.1C138.85,-1326.86 196.43,-1857.38 316,-1957 348.13,-1983.77 395.23,-1990.94 432.62,-1991.73"/>
<polygon fill="#fb923c" stroke="#fb923c" stroke-width="1.3" points="432.9,-1994.54 440.92,-1991.81 432.95,-1988.94 432.9,-1994.54"/>
</g>
<!-- hidden_Schedules -->
<g id="node36" class="node">
<title>hidden_Schedules</title>
<path fill="#431407" stroke="#fb923c" d="M568,-1944C568,-1944 418,-1944 418,-1944 412,-1944 406,-1938 406,-1932 406,-1932 406,-1918 406,-1918 406,-1912 412,-1906 418,-1906 418,-1906 568,-1906 568,-1906 574,-1906 580,-1912 580,-1918 580,-1918 580,-1932 580,-1932 580,-1938 574,-1944 568,-1944"/>
<text text-anchor="middle" x="493" y="-1928.8" font-family="Segoe UI" font-size="14.00" fill="#e2e8f0">Schedules</text>
<text text-anchor="middle" x="493" y="-1913.8" font-family="Segoe UI" font-size="14.00" fill="#e2e8f0">ScheduleManagerPage</text>
</g>
<!-- navigation&#45;&gt;hidden_Schedules -->
<g id="edge36" class="edge">
<title>navigation&#45;&gt;hidden_Schedules</title>
<path fill="none" stroke="#fb923c" stroke-width="1.3" stroke-dasharray="5,2" d="M128.79,-1219.15C141.43,-1321.52 206.17,-1802.9 316,-1894 338.7,-1912.83 368.81,-1921.95 397.7,-1925.98"/>
<polygon fill="#fb923c" stroke="#fb923c" stroke-width="1.3" points="397.52,-1928.77 405.81,-1926.98 398.21,-1923.22 397.52,-1928.77"/>
</g>
<!-- hidden_RunDetail -->
<g id="node37" class="node">
<title>hidden_RunDetail</title>
<path fill="#431407" stroke="#fb923c" d="M539,-1881C539,-1881 447,-1881 447,-1881 441,-1881 435,-1875 435,-1869 435,-1869 435,-1855 435,-1855 435,-1849 441,-1843 447,-1843 447,-1843 539,-1843 539,-1843 545,-1843 551,-1849 551,-1855 551,-1855 551,-1869 551,-1869 551,-1875 545,-1881 539,-1881"/>
<text text-anchor="middle" x="493" y="-1865.8" font-family="Segoe UI" font-size="14.00" fill="#e2e8f0">RunDetail</text>
<text text-anchor="middle" x="493" y="-1850.8" font-family="Segoe UI" font-size="14.00" fill="#e2e8f0">RunDetailPage</text>
</g>
<!-- navigation&#45;&gt;hidden_RunDetail -->
<g id="edge37" class="edge">
<title>navigation&#45;&gt;hidden_RunDetail</title>
<path fill="none" stroke="#fb923c" stroke-width="1.3" stroke-dasharray="5,2" d="M129.3,-1219.01C143.91,-1315.5 214.63,-1749.66 316,-1831 346.82,-1855.73 390.54,-1863.53 426.69,-1865.12"/>
<polygon fill="#fb923c" stroke="#fb923c" stroke-width="1.3" points="426.67,-1867.92 434.76,-1865.38 426.85,-1862.32 426.67,-1867.92"/>
</g>
<!-- hidden_RunPortfolio -->
<g id="node38" class="node">
<title>hidden_RunPortfolio</title>
<path fill="#431407" stroke="#fb923c" d="M548,-1818C548,-1818 438,-1818 438,-1818 432,-1818 426,-1812 426,-1806 426,-1806 426,-1792 426,-1792 426,-1786 432,-1780 438,-1780 438,-1780 548,-1780 548,-1780 554,-1780 560,-1786 560,-1792 560,-1792 560,-1806 560,-1806 560,-1812 554,-1818 548,-1818"/>
<text text-anchor="middle" x="493" y="-1802.8" font-family="Segoe UI" font-size="14.00" fill="#e2e8f0">RunPortfolio</text>
<text text-anchor="middle" x="493" y="-1787.8" font-family="Segoe UI" font-size="14.00" fill="#e2e8f0">RunPortfolioPage</text>
</g>
<!-- navigation&#45;&gt;hidden_RunPortfolio -->
<g id="edge38" class="edge">
<title>navigation&#45;&gt;hidden_RunPortfolio</title>
<path fill="none" stroke="#fb923c" stroke-width="1.3" stroke-dasharray="5,2" d="M126.12,-1219.2C125.64,-1301.05 135.6,-1623.25 316,-1768 344.34,-1790.74 383.58,-1799.16 417.82,-1801.61"/>
<polygon fill="#fb923c" stroke="#fb923c" stroke-width="1.3" points="417.8,-1804.41 425.95,-1802.08 418.13,-1798.82 417.8,-1804.41"/>
</g>
<!-- hidden_RunLedger -->
<g id="node39" class="node">
<title>hidden_RunLedger</title>
<path fill="#431407" stroke="#fb923c" d="M543.5,-1755C543.5,-1755 442.5,-1755 442.5,-1755 436.5,-1755 430.5,-1749 430.5,-1743 430.5,-1743 430.5,-1729 430.5,-1729 430.5,-1723 436.5,-1717 442.5,-1717 442.5,-1717 543.5,-1717 543.5,-1717 549.5,-1717 555.5,-1723 555.5,-1729 555.5,-1729 555.5,-1743 555.5,-1743 555.5,-1749 549.5,-1755 543.5,-1755"/>
<text text-anchor="middle" x="493" y="-1739.8" font-family="Segoe UI" font-size="14.00" fill="#e2e8f0">RunLedger</text>
<text text-anchor="middle" x="493" y="-1724.8" font-family="Segoe UI" font-size="14.00" fill="#e2e8f0">RunLedgerPage</text>
</g>
<!-- navigation&#45;&gt;hidden_RunLedger -->
<g id="edge39" class="edge">
<title>navigation&#45;&gt;hidden_RunLedger</title>
<path fill="none" stroke="#fb923c" stroke-width="1.3" stroke-dasharray="5,2" d="M127.14,-1219.24C130.8,-1295.15 155.13,-1575.92 316,-1705 345.46,-1728.64 386.7,-1736.8 421.86,-1738.87"/>
<polygon fill="#fb923c" stroke="#fb923c" stroke-width="1.3" points="422.07,-1741.68 430.19,-1739.25 422.32,-1736.09 422.07,-1741.68"/>
</g>
<!-- hidden_RunCashFlow -->
<g id="node40" class="node">
<title>hidden_RunCashFlow</title>
<path fill="#431407" stroke="#fb923c" d="M552.5,-1692C552.5,-1692 433.5,-1692 433.5,-1692 427.5,-1692 421.5,-1686 421.5,-1680 421.5,-1680 421.5,-1666 421.5,-1666 421.5,-1660 427.5,-1654 433.5,-1654 433.5,-1654 552.5,-1654 552.5,-1654 558.5,-1654 564.5,-1660 564.5,-1666 564.5,-1666 564.5,-1680 564.5,-1680 564.5,-1686 558.5,-1692 552.5,-1692"/>
<text text-anchor="middle" x="493" y="-1676.8" font-family="Segoe UI" font-size="14.00" fill="#e2e8f0">RunCashFlow</text>
<text text-anchor="middle" x="493" y="-1661.8" font-family="Segoe UI" font-size="14.00" fill="#e2e8f0">RunCashFlowPage</text>
</g>
<!-- navigation&#45;&gt;hidden_RunCashFlow -->
<g id="edge40" class="edge">
<title>navigation&#45;&gt;hidden_RunCashFlow</title>
<path fill="none" stroke="#fb923c" stroke-width="1.3" stroke-dasharray="5,2" d="M128.41,-1219.33C136.4,-1289.03 173.67,-1529.22 316,-1642 343.13,-1663.49 380.03,-1672.14 413.04,-1675.06"/>
<polygon fill="#fb923c" stroke="#fb923c" stroke-width="1.3" points="413.15,-1677.87 421.34,-1675.68 413.57,-1672.29 413.15,-1677.87"/>
</g>
<!-- hidden_CollectionSessions -->
<g id="node41" class="node">
<title>hidden_CollectionSessions</title>
<path fill="#431407" stroke="#fb923c" d="M566,-1629C566,-1629 420,-1629 420,-1629 414,-1629 408,-1623 408,-1617 408,-1617 408,-1603 408,-1603 408,-1597 414,-1591 420,-1591 420,-1591 566,-1591 566,-1591 572,-1591 578,-1597 578,-1603 578,-1603 578,-1617 578,-1617 578,-1623 572,-1629 566,-1629"/>
<text text-anchor="middle" x="493" y="-1613.8" font-family="Segoe UI" font-size="14.00" fill="#e2e8f0">CollectionSessions</text>
<text text-anchor="middle" x="493" y="-1598.8" font-family="Segoe UI" font-size="14.00" fill="#e2e8f0">CollectionSessionPage</text>
</g>
<!-- navigation&#45;&gt;hidden_CollectionSessions -->
<g id="edge41" class="edge">
<title>navigation&#45;&gt;hidden_CollectionSessions</title>
<path fill="none" stroke="#fb923c" stroke-width="1.3" stroke-dasharray="5,2" d="M129.85,-1219.21C141.95,-1282.34 189.5,-1484.67 316,-1579 339.87,-1596.8 370.58,-1605.61 399.65,-1609.67"/>
<polygon fill="#fb923c" stroke="#fb923c" stroke-width="1.3" points="399.51,-1612.48 407.79,-1610.69 400.21,-1606.92 399.51,-1612.48"/>
</g>
<!-- hidden_ArchiveHealth -->
<g id="node42" class="node">
<title>hidden_ArchiveHealth</title>
<path fill="#431407" stroke="#fb923c" d="M554,-1566C554,-1566 432,-1566 432,-1566 426,-1566 420,-1560 420,-1554 420,-1554 420,-1540 420,-1540 420,-1534 426,-1528 432,-1528 432,-1528 554,-1528 554,-1528 560,-1528 566,-1534 566,-1540 566,-1540 566,-1554 566,-1554 566,-1560 560,-1566 554,-1566"/>
<text text-anchor="middle" x="493" y="-1550.8" font-family="Segoe UI" font-size="14.00" fill="#e2e8f0">ArchiveHealth</text>
<text text-anchor="middle" x="493" y="-1535.8" font-family="Segoe UI" font-size="14.00" fill="#e2e8f0">ArchiveHealthPage</text>
</g>
<!-- navigation&#45;&gt;hidden_ArchiveHealth -->
<g id="edge42" class="edge">
<title>navigation&#45;&gt;hidden_ArchiveHealth</title>
<path fill="none" stroke="#fb923c" stroke-width="1.3" stroke-dasharray="5,2" d="M131.82,-1219.17C148.44,-1275.22 205.05,-1439.69 316,-1516 343.69,-1535.04 379.46,-1543.52 411.51,-1546.97"/>
<polygon fill="#fb923c" stroke="#fb923c" stroke-width="1.3" points="411.34,-1549.76 419.57,-1547.74 411.87,-1544.19 411.34,-1549.76"/>
</g>
<!-- hidden_ServiceManager -->
<g id="node43" class="node">
<title>hidden_ServiceManager</title>
<path fill="#431407" stroke="#fb923c" d="M561.5,-1503C561.5,-1503 424.5,-1503 424.5,-1503 418.5,-1503 412.5,-1497 412.5,-1491 412.5,-1491 412.5,-1477 412.5,-1477 412.5,-1471 418.5,-1465 424.5,-1465 424.5,-1465 561.5,-1465 561.5,-1465 567.5,-1465 573.5,-1471 573.5,-1477 573.5,-1477 573.5,-1491 573.5,-1491 573.5,-1497 567.5,-1503 561.5,-1503"/>
<text text-anchor="middle" x="493" y="-1487.8" font-family="Segoe UI" font-size="14.00" fill="#e2e8f0">ServiceManager</text>
<text text-anchor="middle" x="493" y="-1472.8" font-family="Segoe UI" font-size="14.00" fill="#e2e8f0">ServiceManagerPage</text>
</g>
<!-- navigation&#45;&gt;hidden_ServiceManager -->
<g id="edge43" class="edge">
<title>navigation&#45;&gt;hidden_ServiceManager</title>
<path fill="none" stroke="#fb923c" stroke-width="1.3" stroke-dasharray="5,2" d="M134.65,-1219.11C156.3,-1267.29 220.16,-1394.09 316,-1453 342.09,-1469.04 374.23,-1477.32 403.88,-1481.44"/>
<polygon fill="#fb923c" stroke="#fb923c" stroke-width="1.3" points="403.88,-1484.26 412.17,-1482.49 404.58,-1478.7 403.88,-1484.26"/>
</g>
<!-- hidden_DataSampling -->
<g id="node44" class="node">
<title>hidden_DataSampling</title>
<path fill="#431407" stroke="#fb923c" d="M554.5,-1440C554.5,-1440 431.5,-1440 431.5,-1440 425.5,-1440 419.5,-1434 419.5,-1428 419.5,-1428 419.5,-1414 419.5,-1414 419.5,-1408 425.5,-1402 431.5,-1402 431.5,-1402 554.5,-1402 554.5,-1402 560.5,-1402 566.5,-1408 566.5,-1414 566.5,-1414 566.5,-1428 566.5,-1428 566.5,-1434 560.5,-1440 554.5,-1440"/>
<text text-anchor="middle" x="493" y="-1424.8" font-family="Segoe UI" font-size="14.00" fill="#e2e8f0">DataSampling</text>
<text text-anchor="middle" x="493" y="-1409.8" font-family="Segoe UI" font-size="14.00" fill="#e2e8f0">DataSamplingPage</text>
</g>
<!-- navigation&#45;&gt;hidden_DataSampling -->
<g id="edge44" class="edge">
<title>navigation&#45;&gt;hidden_DataSampling</title>
<path fill="none" stroke="#fb923c" stroke-width="1.3" stroke-dasharray="5,2" d="M139.3,-1219.16C166.62,-1258.39 234.82,-1347.68 316,-1390 345.04,-1405.14 380.06,-1413.07 411.19,-1417.15"/>
<polygon fill="#fb923c" stroke="#fb923c" stroke-width="1.3" points="411.15,-1419.97 419.43,-1418.16 411.83,-1414.41 411.15,-1419.97"/>
</g>
<!-- hidden_TimeSeriesAlignment -->
<g id="node45" class="node">
<title>hidden_TimeSeriesAlignment</title>
<path fill="#431407" stroke="#fb923c" d="M579.5,-1377C579.5,-1377 406.5,-1377 406.5,-1377 400.5,-1377 394.5,-1371 394.5,-1365 394.5,-1365 394.5,-1351 394.5,-1351 394.5,-1345 400.5,-1339 406.5,-1339 406.5,-1339 579.5,-1339 579.5,-1339 585.5,-1339 591.5,-1345 591.5,-1351 591.5,-1351 591.5,-1365 591.5,-1365 591.5,-1371 585.5,-1377 579.5,-1377"/>
<text text-anchor="middle" x="493" y="-1361.8" font-family="Segoe UI" font-size="14.00" fill="#e2e8f0">TimeSeriesAlignment</text>
<text text-anchor="middle" x="493" y="-1346.8" font-family="Segoe UI" font-size="14.00" fill="#e2e8f0">TimeSeriesAlignmentPage</text>
</g>
<!-- navigation&#45;&gt;hidden_TimeSeriesAlignment -->
<g id="edge45" class="edge">
<title>navigation&#45;&gt;hidden_TimeSeriesAlignment</title>
<path fill="none" stroke="#fb923c" stroke-width="1.3" stroke-dasharray="5,2" d="M148.36,-1219.19C181.93,-1247.55 249.31,-1300.18 316,-1327 337.98,-1335.84 362.51,-1342.17 386.11,-1346.69"/>
<polygon fill="#fb923c" stroke="#fb923c" stroke-width="1.3" points="385.7,-1349.46 394.08,-1348.16 386.71,-1343.95 385.7,-1349.46"/>
</g>
<!-- hidden_ExportPresets -->
<g id="node46" class="node">
<title>hidden_ExportPresets</title>
<path fill="#431407" stroke="#fb923c" d="M554,-1314C554,-1314 432,-1314 432,-1314 426,-1314 420,-1308 420,-1302 420,-1302 420,-1288 420,-1288 420,-1282 426,-1276 432,-1276 432,-1276 554,-1276 554,-1276 560,-1276 566,-1282 566,-1288 566,-1288 566,-1302 566,-1302 566,-1308 560,-1314 554,-1314"/>
<text text-anchor="middle" x="493" y="-1298.8" font-family="Segoe UI" font-size="14.00" fill="#e2e8f0">ExportPresets</text>
<text text-anchor="middle" x="493" y="-1283.8" font-family="Segoe UI" font-size="14.00" fill="#e2e8f0">ExportPresetsPage</text>
</g>
<!-- navigation&#45;&gt;hidden_ExportPresets -->
<g id="edge46" class="edge">
<title>navigation&#45;&gt;hidden_ExportPresets</title>
<path fill="none" stroke="#fb923c" stroke-width="1.3" stroke-dasharray="5,2" d="M176.15,-1219.07C214.02,-1233.05 267.72,-1251.67 316,-1264 347.04,-1271.93 381.68,-1278.5 411.96,-1283.53"/>
<polygon fill="#fb923c" stroke="#fb923c" stroke-width="1.3" points="411.63,-1286.31 419.97,-1284.84 412.53,-1280.78 411.63,-1286.31"/>
</g>
<!-- hidden_AnalysisExport -->
<g id="node47" class="node">
<title>hidden_AnalysisExport</title>
<path fill="#431407" stroke="#fb923c" d="M557.5,-1251C557.5,-1251 428.5,-1251 428.5,-1251 422.5,-1251 416.5,-1245 416.5,-1239 416.5,-1239 416.5,-1225 416.5,-1225 416.5,-1219 422.5,-1213 428.5,-1213 428.5,-1213 557.5,-1213 557.5,-1213 563.5,-1213 569.5,-1219 569.5,-1225 569.5,-1225 569.5,-1239 569.5,-1239 569.5,-1245 563.5,-1251 557.5,-1251"/>
<text text-anchor="middle" x="493" y="-1235.8" font-family="Segoe UI" font-size="14.00" fill="#e2e8f0">AnalysisExport</text>
<text text-anchor="middle" x="493" y="-1220.8" font-family="Segoe UI" font-size="14.00" fill="#e2e8f0">AnalysisExportPage</text>
</g>
<!-- navigation&#45;&gt;hidden_AnalysisExport -->
<g id="edge47" class="edge">
<title>navigation&#45;&gt;hidden_AnalysisExport</title>
<path fill="none" stroke="#fb923c" stroke-width="1.3" stroke-dasharray="5,2" d="M196.54,-1206.13C256.87,-1211.41 344.09,-1219.05 408.13,-1224.66"/>
<polygon fill="#fb923c" stroke="#fb923c" stroke-width="1.3" points="408,-1227.46 416.21,-1225.36 408.49,-1221.88 408,-1227.46"/>
</g>
<!-- hidden_AnalysisExportWizard -->
<g id="node48" class="node">
<title>hidden_AnalysisExportWizard</title>
<path fill="#431407" stroke="#fb923c" d="M581,-1188C581,-1188 405,-1188 405,-1188 399,-1188 393,-1182 393,-1176 393,-1176 393,-1162 393,-1162 393,-1156 399,-1150 405,-1150 405,-1150 581,-1150 581,-1150 587,-1150 593,-1156 593,-1162 593,-1162 593,-1176 593,-1176 593,-1182 587,-1188 581,-1188"/>
<text text-anchor="middle" x="493" y="-1172.8" font-family="Segoe UI" font-size="14.00" fill="#e2e8f0">AnalysisExportWizard</text>
<text text-anchor="middle" x="493" y="-1157.8" font-family="Segoe UI" font-size="14.00" fill="#e2e8f0">AnalysisExportWizardPage</text>
</g>
<!-- navigation&#45;&gt;hidden_AnalysisExportWizard -->
<g id="edge48" class="edge">
<title>navigation&#45;&gt;hidden_AnalysisExportWizard</title>
<path fill="none" stroke="#fb923c" stroke-width="1.3" stroke-dasharray="5,2" d="M196.54,-1194.06C249.8,-1189.54 324.03,-1183.25 384.75,-1178.1"/>
<polygon fill="#fb923c" stroke="#fb923c" stroke-width="1.3" points="385.11,-1180.88 392.85,-1177.41 384.64,-1175.3 385.11,-1180.88"/>
</g>
<!-- hidden_EventReplay -->
<g id="node49" class="node">
<title>hidden_EventReplay</title>
<path fill="#431407" stroke="#fb923c" d="M549,-1125C549,-1125 437,-1125 437,-1125 431,-1125 425,-1119 425,-1113 425,-1113 425,-1099 425,-1099 425,-1093 431,-1087 437,-1087 437,-1087 549,-1087 549,-1087 555,-1087 561,-1093 561,-1099 561,-1099 561,-1113 561,-1113 561,-1119 555,-1125 549,-1125"/>
<text text-anchor="middle" x="493" y="-1109.8" font-family="Segoe UI" font-size="14.00" fill="#e2e8f0">EventReplay</text>
<text text-anchor="middle" x="493" y="-1094.8" font-family="Segoe UI" font-size="14.00" fill="#e2e8f0">EventReplayPage</text>
</g>
<!-- navigation&#45;&gt;hidden_EventReplay -->
<g id="edge49" class="edge">
<title>navigation&#45;&gt;hidden_EventReplay</title>
<path fill="none" stroke="#fb923c" stroke-width="1.3" stroke-dasharray="5,2" d="M196.64,-1184.34C214.56,-1179.69 233.65,-1174.17 251,-1168 280.97,-1157.33 285.66,-1147.59 316,-1138 348.21,-1127.82 384.83,-1120.51 416.29,-1115.48"/>
<polygon fill="#fb923c" stroke="#fb923c" stroke-width="1.3" points="417.12,-1118.18 424.59,-1114.18 416.25,-1112.65 417.12,-1118.18"/>
</g>
<!-- hidden_AdvancedAnalytics -->
<g id="node50" class="node">
<title>hidden_AdvancedAnalytics</title>
<path fill="#431407" stroke="#fb923c" d="M571.5,-1062C571.5,-1062 414.5,-1062 414.5,-1062 408.5,-1062 402.5,-1056 402.5,-1050 402.5,-1050 402.5,-1036 402.5,-1036 402.5,-1030 408.5,-1024 414.5,-1024 414.5,-1024 571.5,-1024 571.5,-1024 577.5,-1024 583.5,-1030 583.5,-1036 583.5,-1036 583.5,-1050 583.5,-1050 583.5,-1056 577.5,-1062 571.5,-1062"/>
<text text-anchor="middle" x="493" y="-1046.8" font-family="Segoe UI" font-size="14.00" fill="#e2e8f0">AdvancedAnalytics</text>
<text text-anchor="middle" x="493" y="-1031.8" font-family="Segoe UI" font-size="14.00" fill="#e2e8f0">AdvancedAnalyticsPage</text>
</g>
<!-- navigation&#45;&gt;hidden_AdvancedAnalytics -->
<g id="edge50" class="edge">
<title>navigation&#45;&gt;hidden_AdvancedAnalytics</title>
<path fill="none" stroke="#fb923c" stroke-width="1.3" stroke-dasharray="5,2" d="M196.77,-1191.04C215.55,-1186.3 235.04,-1179.06 251,-1168 292.44,-1139.27 273.55,-1102.23 316,-1075 339.2,-1060.12 367.46,-1051.71 394.49,-1047.08"/>
<polygon fill="#fb923c" stroke="#fb923c" stroke-width="1.3" points="394.99,-1049.83 402.45,-1045.81 394.11,-1044.3 394.99,-1049.83"/>
</g>
<!-- hidden_DataCalendar -->
<g id="node51" class="node">
<title>hidden_DataCalendar</title>
<path fill="#431407" stroke="#fb923c" d="M553,-999C553,-999 433,-999 433,-999 427,-999 421,-993 421,-987 421,-987 421,-973 421,-973 421,-967 427,-961 433,-961 433,-961 553,-961 553,-961 559,-961 565,-967 565,-973 565,-973 565,-987 565,-987 565,-993 559,-999 553,-999"/>
<text text-anchor="middle" x="493" y="-983.8" font-family="Segoe UI" font-size="14.00" fill="#e2e8f0">DataCalendar</text>
<text text-anchor="middle" x="493" y="-968.8" font-family="Segoe UI" font-size="14.00" fill="#e2e8f0">DataCalendarPage</text>
</g>
<!-- navigation&#45;&gt;hidden_DataCalendar -->
<g id="edge51" class="edge">
<title>navigation&#45;&gt;hidden_DataCalendar</title>
<path fill="none" stroke="#fb923c" stroke-width="1.3" stroke-dasharray="5,2" d="M196.51,-1193.67C215.92,-1189.01 235.82,-1181.15 251,-1168 307.78,-1118.82 257.5,-1059.11 316,-1012 342.87,-990.36 379.56,-981.48 412.49,-978.35"/>
<polygon fill="#fb923c" stroke="#fb923c" stroke-width="1.3" points="413.03,-981.12 420.77,-977.68 412.57,-975.54 413.03,-981.12"/>
</g>
<!-- hidden_StorageOptimization -->
<g id="node52" class="node">
<title>hidden_StorageOptimization</title>
<path fill="#431407" stroke="#fb923c" d="M577,-936C577,-936 409,-936 409,-936 403,-936 397,-930 397,-924 397,-924 397,-910 397,-910 397,-904 403,-898 409,-898 409,-898 577,-898 577,-898 583,-898 589,-904 589,-910 589,-910 589,-924 589,-924 589,-930 583,-936 577,-936"/>
<text text-anchor="middle" x="493" y="-920.8" font-family="Segoe UI" font-size="14.00" fill="#e2e8f0">StorageOptimization</text>
<text text-anchor="middle" x="493" y="-905.8" font-family="Segoe UI" font-size="14.00" fill="#e2e8f0">StorageOptimizationPage</text>
</g>
<!-- navigation&#45;&gt;hidden_StorageOptimization -->
<g id="edge52" class="edge">
<title>navigation&#45;&gt;hidden_StorageOptimization</title>
<path fill="none" stroke="#fb923c" stroke-width="1.3" stroke-dasharray="5,2" d="M196.77,-1194.82C216.42,-1190.21 236.38,-1182.09 251,-1168 324.11,-1097.55 240.41,-1016.79 316,-949 335.91,-931.15 362.33,-921.68 388.63,-916.99"/>
<polygon fill="#fb923c" stroke="#fb923c" stroke-width="1.3" points="389.33,-919.71 396.79,-915.68 388.44,-914.18 389.33,-919.71"/>
</g>
<!-- hidden_RetentionAssurance -->
<g id="node53" class="node">
<title>hidden_RetentionAssurance</title>
<path fill="#431407" stroke="#fb923c" d="M575,-873C575,-873 411,-873 411,-873 405,-873 399,-867 399,-861 399,-861 399,-847 399,-847 399,-841 405,-835 411,-835 411,-835 575,-835 575,-835 581,-835 587,-841 587,-847 587,-847 587,-861 587,-861 587,-867 581,-873 575,-873"/>
<text text-anchor="middle" x="493" y="-857.8" font-family="Segoe UI" font-size="14.00" fill="#e2e8f0">RetentionAssurance</text>
<text text-anchor="middle" x="493" y="-842.8" font-family="Segoe UI" font-size="14.00" fill="#e2e8f0">RetentionAssurancePage</text>
</g>
<!-- navigation&#45;&gt;hidden_RetentionAssurance -->
<g id="edge53" class="edge">
<title>navigation&#45;&gt;hidden_RetentionAssurance</title>
<path fill="none" stroke="#fb923c" stroke-width="1.3" stroke-dasharray="5,2" d="M196.64,-1195.88C216.64,-1191.35 236.83,-1183.01 251,-1168 339.3,-1074.48 220.4,-972.04 316,-886 336.38,-867.66 363.63,-858.16 390.6,-853.59"/>
<polygon fill="#fb923c" stroke="#fb923c" stroke-width="1.3" points="391.08,-856.35 398.57,-852.38 390.24,-850.81 391.08,-856.35"/>
</g>
<!-- hidden_MessagingHub -->
<g id="node54" class="node">
<title>hidden_MessagingHub</title>
<path fill="#431407" stroke="#fb923c" d="M557,-810C557,-810 429,-810 429,-810 423,-810 417,-804 417,-798 417,-798 417,-784 417,-784 417,-778 423,-772 429,-772 429,-772 557,-772 557,-772 563,-772 569,-778 569,-784 569,-784 569,-798 569,-798 569,-804 563,-810 557,-810"/>
<text text-anchor="middle" x="493" y="-794.8" font-family="Segoe UI" font-size="14.00" fill="#e2e8f0">MessagingHub</text>
<text text-anchor="middle" x="493" y="-779.8" font-family="Segoe UI" font-size="14.00" fill="#e2e8f0">MessagingHubPage</text>
</g>
<!-- navigation&#45;&gt;hidden_MessagingHub -->
<g id="edge54" class="edge">
<title>navigation&#45;&gt;hidden_MessagingHub</title>
<path fill="none" stroke="#fb923c" stroke-width="1.3" stroke-dasharray="5,2" d="M196.8,-1196.4C216.93,-1191.9 237.15,-1183.45 251,-1168 303.07,-1109.91 257.64,-874.78 316,-823 341.06,-800.77 376.24,-791.59 408.57,-788.41"/>
<polygon fill="#fb923c" stroke="#fb923c" stroke-width="1.3" points="408.99,-791.19 416.72,-787.73 408.52,-785.61 408.99,-791.19"/>
</g>
<!-- hidden_ResearchShell -->
<g id="node55" class="node">
<title>hidden_ResearchShell</title>
<path fill="#431407" stroke="#fb923c" d="M592,-747C592,-747 394,-747 394,-747 388,-747 382,-741 382,-735 382,-735 382,-721 382,-721 382,-715 388,-709 394,-709 394,-709 592,-709 592,-709 598,-709 604,-715 604,-721 604,-721 604,-735 604,-735 604,-741 598,-747 592,-747"/>
<text text-anchor="middle" x="493" y="-731.8" font-family="Segoe UI" font-size="14.00" fill="#e2e8f0">ResearchShell</text>
<text text-anchor="middle" x="493" y="-716.8" font-family="Segoe UI" font-size="14.00" fill="#e2e8f0">ResearchWorkspaceShellPage</text>
</g>
<!-- navigation&#45;&gt;hidden_ResearchShell -->
<g id="edge55" class="edge">
<title>navigation&#45;&gt;hidden_ResearchShell</title>
<path fill="none" stroke="#fb923c" stroke-width="1.3" stroke-dasharray="5,2" d="M196.61,-1196.59C216.85,-1192.12 237.19,-1183.64 251,-1168 311.78,-1099.19 249.7,-823.51 316,-760 331.88,-744.79 352.44,-735.54 373.87,-730.13"/>
<polygon fill="#fb923c" stroke="#fb923c" stroke-width="1.3" points="374.64,-732.83 381.8,-728.3 373.38,-727.37 374.64,-732.83"/>
</g>
<!-- hidden_TradingShell -->
<g id="node56" class="node">
<title>hidden_TradingShell</title>
<path fill="#431407" stroke="#fb923c" d="M586.5,-684C586.5,-684 399.5,-684 399.5,-684 393.5,-684 387.5,-678 387.5,-672 387.5,-672 387.5,-658 387.5,-658 387.5,-652 393.5,-646 399.5,-646 399.5,-646 586.5,-646 586.5,-646 592.5,-646 598.5,-652 598.5,-658 598.5,-658 598.5,-672 598.5,-672 598.5,-678 592.5,-684 586.5,-684"/>
<text text-anchor="middle" x="493" y="-668.8" font-family="Segoe UI" font-size="14.00" fill="#e2e8f0">TradingShell</text>
<text text-anchor="middle" x="493" y="-653.8" font-family="Segoe UI" font-size="14.00" fill="#e2e8f0">TradingWorkspaceShellPage</text>
</g>
<!-- navigation&#45;&gt;hidden_TradingShell -->
<g id="edge56" class="edge">
<title>navigation&#45;&gt;hidden_TradingShell</title>
<path fill="none" stroke="#fb923c" stroke-width="1.3" stroke-dasharray="5,2" d="M196.5,-1196.85C216.87,-1192.41 237.29,-1183.88 251,-1168 320.04,-1088.01 239.76,-770.15 316,-697 333.21,-680.48 355.94,-671 379.33,-665.81"/>
<polygon fill="#fb923c" stroke="#fb923c" stroke-width="1.3" points="379.99,-668.53 387.28,-664.21 378.88,-663.04 379.99,-668.53"/>
</g>
<!-- hidden_Workspaces -->
<g id="node57" class="node">
<title>hidden_Workspaces</title>
<path fill="#431407" stroke="#fb923c" d="M543.5,-621C543.5,-621 442.5,-621 442.5,-621 436.5,-621 430.5,-615 430.5,-609 430.5,-609 430.5,-595 430.5,-595 430.5,-589 436.5,-583 442.5,-583 442.5,-583 543.5,-583 543.5,-583 549.5,-583 555.5,-589 555.5,-595 555.5,-595 555.5,-609 555.5,-609 555.5,-615 549.5,-621 543.5,-621"/>
<text text-anchor="middle" x="493" y="-605.8" font-family="Segoe UI" font-size="14.00" fill="#e2e8f0">Workspaces</text>
<text text-anchor="middle" x="493" y="-590.8" font-family="Segoe UI" font-size="14.00" fill="#e2e8f0">WorkspacePage</text>
</g>
<!-- navigation&#45;&gt;hidden_Workspaces -->
<g id="edge57" class="edge">
<title>navigation&#45;&gt;hidden_Workspaces</title>
<path fill="none" stroke="#fb923c" stroke-width="1.3" stroke-dasharray="5,2" d="M196.67,-1197C217.05,-1192.57 237.44,-1184 251,-1168 328.29,-1076.81 229.16,-716.16 316,-634 344,-607.51 386.22,-599.18 422.29,-597.64"/>
<polygon fill="#fb923c" stroke="#fb923c" stroke-width="1.3" points="422.44,-600.43 430.36,-597.4 422.28,-594.83 422.44,-600.43"/>
</g>
<!-- hidden_NotificationCenter -->
<g id="node58" class="node">
<title>hidden_NotificationCenter</title>
<path fill="#431407" stroke="#fb923c" d="M568.5,-558C568.5,-558 417.5,-558 417.5,-558 411.5,-558 405.5,-552 405.5,-546 405.5,-546 405.5,-532 405.5,-532 405.5,-526 411.5,-520 417.5,-520 417.5,-520 568.5,-520 568.5,-520 574.5,-520 580.5,-526 580.5,-532 580.5,-532 580.5,-546 580.5,-546 580.5,-552 574.5,-558 568.5,-558"/>
<text text-anchor="middle" x="493" y="-542.8" font-family="Segoe UI" font-size="14.00" fill="#e2e8f0">NotificationCenter</text>
<text text-anchor="middle" x="493" y="-527.8" font-family="Segoe UI" font-size="14.00" fill="#e2e8f0">NotificationCenterPage</text>
</g>
<!-- navigation&#45;&gt;hidden_NotificationCenter -->
<g id="edge58" class="edge">
<title>navigation&#45;&gt;hidden_NotificationCenter</title>
<path fill="none" stroke="#fb923c" stroke-width="1.3" stroke-dasharray="5,2" d="M196.79,-1197.1C217.17,-1192.67 237.54,-1184.09 251,-1168 336.65,-1065.66 218.52,-662.14 316,-571 337.77,-550.64 367.96,-541.05 397.19,-537.02"/>
<polygon fill="#fb923c" stroke="#fb923c" stroke-width="1.3" points="397.79,-539.76 405.4,-536.02 397.12,-534.2 397.79,-539.76"/>
</g>
<!-- hidden_Help -->
<g id="node59" class="node">
<title>hidden_Help</title>
<path fill="#431407" stroke="#fb923c" d="M521.5,-495C521.5,-495 464.5,-495 464.5,-495 458.5,-495 452.5,-489 452.5,-483 452.5,-483 452.5,-469 452.5,-469 452.5,-463 458.5,-457 464.5,-457 464.5,-457 521.5,-457 521.5,-457 527.5,-457 533.5,-463 533.5,-469 533.5,-469 533.5,-483 533.5,-483 533.5,-489 527.5,-495 521.5,-495"/>
<text text-anchor="middle" x="493" y="-479.8" font-family="Segoe UI" font-size="14.00" fill="#e2e8f0">Help</text>
<text text-anchor="middle" x="493" y="-464.8" font-family="Segoe UI" font-size="14.00" fill="#e2e8f0">HelpPage</text>
</g>
<!-- navigation&#45;&gt;hidden_Help -->
<g id="edge59" class="edge">
<title>navigation&#45;&gt;hidden_Help</title>
<path fill="none" stroke="#fb923c" stroke-width="1.3" stroke-dasharray="5,2" d="M196.56,-1197.25C217.05,-1192.85 237.54,-1184.24 251,-1168 345.05,-1054.53 207.46,-607.7 316,-508 350.38,-476.42 405.06,-470.89 444.35,-471.71"/>
<polygon fill="#fb923c" stroke="#fb923c" stroke-width="1.3" points="444.4,-474.51 452.49,-471.98 444.59,-468.92 444.4,-474.51"/>
</g>
<!-- hidden_Welcome -->
<g id="node60" class="node">
<title>hidden_Welcome</title>
<path fill="#431407" stroke="#fb923c" d="M537,-432C537,-432 449,-432 449,-432 443,-432 437,-426 437,-420 437,-420 437,-406 437,-406 437,-400 443,-394 449,-394 449,-394 537,-394 537,-394 543,-394 549,-400 549,-406 549,-406 549,-420 549,-420 549,-426 543,-432 537,-432"/>
<text text-anchor="middle" x="493" y="-416.8" font-family="Segoe UI" font-size="14.00" fill="#e2e8f0">Welcome</text>
<text text-anchor="middle" x="493" y="-401.8" font-family="Segoe UI" font-size="14.00" fill="#e2e8f0">WelcomePage</text>
</g>
<!-- navigation&#45;&gt;hidden_Welcome -->
<g id="edge60" class="edge">
<title>navigation&#45;&gt;hidden_Welcome</title>
<path fill="none" stroke="#fb923c" stroke-width="1.3" stroke-dasharray="5,2" d="M196.63,-1197.3C217.12,-1192.91 237.6,-1184.28 251,-1168 294.78,-1114.81 275.68,-616.96 287,-549 294.88,-501.67 280.54,-477.33 316,-445 346.08,-417.57 391.5,-409.84 428.67,-408.83"/>
<polygon fill="#fb923c" stroke="#fb923c" stroke-width="1.3" points="428.99,-411.62 436.95,-408.71 428.91,-406.02 428.99,-411.62"/>
</g>
<!-- hidden_CredentialManagement -->
<g id="node61" class="node">
<title>hidden_CredentialManagement</title>
<path fill="#431407" stroke="#fb923c" d="M586.5,-369C586.5,-369 399.5,-369 399.5,-369 393.5,-369 387.5,-363 387.5,-357 387.5,-357 387.5,-343 387.5,-343 387.5,-337 393.5,-331 399.5,-331 399.5,-331 586.5,-331 586.5,-331 592.5,-331 598.5,-337 598.5,-343 598.5,-343 598.5,-357 598.5,-357 598.5,-363 592.5,-369 586.5,-369"/>
<text text-anchor="middle" x="493" y="-353.8" font-family="Segoe UI" font-size="14.00" fill="#e2e8f0">CredentialManagement</text>
<text text-anchor="middle" x="493" y="-338.8" font-family="Segoe UI" font-size="14.00" fill="#e2e8f0">CredentialManagementPage</text>
</g>
<!-- navigation&#45;&gt;hidden_CredentialManagement -->
<g id="edge61" class="edge">
<title>navigation&#45;&gt;hidden_CredentialManagement</title>
<path fill="none" stroke="#fb923c" stroke-width="1.3" stroke-dasharray="5,2" d="M196.64,-1197.31C217.14,-1192.91 237.61,-1184.29 251,-1168 306.65,-1100.31 253.88,-443.81 316,-382 333.01,-365.08 355.79,-355.45 379.3,-350.26"/>
<polygon fill="#fb923c" stroke="#fb923c" stroke-width="1.3" points="379.99,-352.98 387.29,-348.67 378.9,-347.49 379.99,-352.98"/>
</g>
<!-- hidden_KeyboardShortcuts -->
<g id="node62" class="node">
<title>hidden_KeyboardShortcuts</title>
<path fill="#431407" stroke="#fb923c" d="M571.5,-306C571.5,-306 414.5,-306 414.5,-306 408.5,-306 402.5,-300 402.5,-294 402.5,-294 402.5,-280 402.5,-280 402.5,-274 408.5,-268 414.5,-268 414.5,-268 571.5,-268 571.5,-268 577.5,-268 583.5,-274 583.5,-280 583.5,-280 583.5,-294 583.5,-294 583.5,-300 577.5,-306 571.5,-306"/>
<text text-anchor="middle" x="493" y="-290.8" font-family="Segoe UI" font-size="14.00" fill="#e2e8f0">KeyboardShortcuts</text>
<text text-anchor="middle" x="493" y="-275.8" font-family="Segoe UI" font-size="14.00" fill="#e2e8f0">KeyboardShortcutsPage</text>
</g>
<!-- navigation&#45;&gt;hidden_KeyboardShortcuts -->
<g id="edge62" class="edge">
<title>navigation&#45;&gt;hidden_KeyboardShortcuts</title>
<path fill="none" stroke="#fb923c" stroke-width="1.3" stroke-dasharray="5,2" d="M196.66,-1197.33C217.16,-1192.93 237.62,-1184.3 251,-1168 311.01,-1094.86 250.21,-386.99 316,-319 336.33,-297.99 365.51,-288.1 394.29,-284"/>
<polygon fill="#fb923c" stroke="#fb923c" stroke-width="1.3" points="394.79,-286.76 402.38,-282.99 394.1,-281.2 394.79,-286.76"/>
</g>
<!-- hidden_SetupWizard -->
<g id="node63" class="node">
<title>hidden_SetupWizard</title>
<path fill="#431407" stroke="#fb923c" d="M549.5,-243C549.5,-243 436.5,-243 436.5,-243 430.5,-243 424.5,-237 424.5,-231 424.5,-231 424.5,-217 424.5,-217 424.5,-211 430.5,-205 436.5,-205 436.5,-205 549.5,-205 549.5,-205 555.5,-205 561.5,-211 561.5,-217 561.5,-217 561.5,-231 561.5,-231 561.5,-237 555.5,-243 549.5,-243"/>
<text text-anchor="middle" x="493" y="-227.8" font-family="Segoe UI" font-size="14.00" fill="#e2e8f0">SetupWizard</text>
<text text-anchor="middle" x="493" y="-212.8" font-family="Segoe UI" font-size="14.00" fill="#e2e8f0">SetupWizardPage</text>
</g>
<!-- navigation&#45;&gt;hidden_SetupWizard -->
<g id="edge63" class="edge">
<title>navigation&#45;&gt;hidden_SetupWizard</title>
<path fill="none" stroke="#fb923c" stroke-width="1.3" stroke-dasharray="5,2" d="M196.7,-1197.37C217.2,-1192.97 237.66,-1184.33 251,-1168 315.26,-1089.31 245.41,-329.06 316,-256 341.47,-229.64 380.87,-220.78 415.94,-218.89"/>
<polygon fill="#fb923c" stroke="#fb923c" stroke-width="1.3" points="416.4,-221.68 424.28,-218.57 416.18,-216.08 416.4,-221.68"/>
</g>
<!-- hidden_AddProviderWizard -->
<g id="node64" class="node">
<title>hidden_AddProviderWizard</title>
<path fill="#431407" stroke="#fb923c" d="M571.5,-180C571.5,-180 414.5,-180 414.5,-180 408.5,-180 402.5,-174 402.5,-168 402.5,-168 402.5,-154 402.5,-154 402.5,-148 408.5,-142 414.5,-142 414.5,-142 571.5,-142 571.5,-142 577.5,-142 583.5,-148 583.5,-154 583.5,-154 583.5,-168 583.5,-168 583.5,-174 577.5,-180 571.5,-180"/>
<text text-anchor="middle" x="493" y="-164.8" font-family="Segoe UI" font-size="14.00" fill="#e2e8f0">AddProviderWizard</text>
<text text-anchor="middle" x="493" y="-149.8" font-family="Segoe UI" font-size="14.00" fill="#e2e8f0">AddProviderWizardPage</text>
</g>
<!-- navigation&#45;&gt;hidden_AddProviderWizard -->
<g id="edge64" class="edge">
<title>navigation&#45;&gt;hidden_AddProviderWizard</title>
<path fill="none" stroke="#fb923c" stroke-width="1.3" stroke-dasharray="5,2" d="M196.75,-1197.41C217.26,-1193.01 237.7,-1184.37 251,-1168 319.46,-1083.73 240.04,-270.57 316,-193 336.36,-172.21 365.39,-162.35 394.02,-158.21"/>
<polygon fill="#fb923c" stroke="#fb923c" stroke-width="1.3" points="394.49,-160.97 402.07,-157.19 393.78,-155.41 394.49,-160.97"/>
</g>
<!-- hidden_ActivityLog -->
<g id="node65" class="node">
<title>hidden_ActivityLog</title>
<path fill="#431407" stroke="#fb923c" d="M543.5,-117C543.5,-117 442.5,-117 442.5,-117 436.5,-117 430.5,-111 430.5,-105 430.5,-105 430.5,-91 430.5,-91 430.5,-85 436.5,-79 442.5,-79 442.5,-79 543.5,-79 543.5,-79 549.5,-79 555.5,-85 555.5,-91 555.5,-91 555.5,-105 555.5,-105 555.5,-111 549.5,-117 543.5,-117"/>
<text text-anchor="middle" x="493" y="-101.8" font-family="Segoe UI" font-size="14.00" fill="#e2e8f0">ActivityLog</text>
<text text-anchor="middle" x="493" y="-86.8" font-family="Segoe UI" font-size="14.00" fill="#e2e8f0">ActivityLogPage</text>
</g>
<!-- navigation&#45;&gt;hidden_ActivityLog -->
<g id="edge65" class="edge">
<title>navigation&#45;&gt;hidden_ActivityLog</title>
<path fill="none" stroke="#fb923c" stroke-width="1.3" stroke-dasharray="5,2" d="M196.79,-1197.44C217.3,-1193.05 237.73,-1184.39 251,-1168 323.69,-1078.17 234.73,-212.16 316,-130 343.21,-102.49 385.61,-94.18 421.98,-92.89"/>
<polygon fill="#fb923c" stroke="#fb923c" stroke-width="1.3" points="422.19,-95.69 430.12,-92.72 422.06,-90.09 422.19,-95.69"/>
</g>
<!-- hidden_SecurityMaster -->
<g id="node66" class="node">
<title>hidden_SecurityMaster</title>
<path fill="#431407" stroke="#fb923c" d="M558,-54C558,-54 428,-54 428,-54 422,-54 416,-48 416,-42 416,-42 416,-28 416,-28 416,-22 422,-16 428,-16 428,-16 558,-16 558,-16 564,-16 570,-22 570,-28 570,-28 570,-42 570,-42 570,-48 564,-54 558,-54"/>
<text text-anchor="middle" x="493" y="-38.8" font-family="Segoe UI" font-size="14.00" fill="#e2e8f0">SecurityMaster</text>
<text text-anchor="middle" x="493" y="-23.8" font-family="Segoe UI" font-size="14.00" fill="#e2e8f0">SecurityMasterPage</text>
</g>
<!-- navigation&#45;&gt;hidden_SecurityMaster -->
<g id="edge66" class="edge">
<title>navigation&#45;&gt;hidden_SecurityMaster</title>
<path fill="none" stroke="#fb923c" stroke-width="1.3" stroke-dasharray="5,2" d="M196.82,-1197.46C217.33,-1193.07 237.76,-1184.42 251,-1168 327.93,-1072.61 229.32,-153.63 316,-67 339.79,-43.22 374.96,-33.83 407.62,-30.92"/>
<polygon fill="#fb923c" stroke="#fb923c" stroke-width="1.3" points="408.09,-33.69 415.86,-30.31 407.68,-28.11 408.09,-33.69"/>
</g>
<!-- page_Dashboard -->
<g id="node5" class="node">
<title>page_Dashboard</title>
<path fill="#1e293b" stroke="#475569" d="M1001.5,-2414C1001.5,-2414 804.5,-2414 804.5,-2414 798.5,-2414 792.5,-2408 792.5,-2402 792.5,-2402 792.5,-2388 792.5,-2388 792.5,-2382 798.5,-2376 804.5,-2376 804.5,-2376 1001.5,-2376 1001.5,-2376 1007.5,-2376 1013.5,-2382 1013.5,-2388 1013.5,-2388 1013.5,-2402 1013.5,-2402 1013.5,-2408 1007.5,-2414 1001.5,-2414"/>
<text text-anchor="middle" x="903" y="-2398.8" font-family="Segoe UI" font-size="14.00" fill="#e2e8f0">Dashboard</text>
<text text-anchor="middle" x="903" y="-2383.8" font-family="Segoe UI" font-size="14.00" fill="#e2e8f0">Dashboard → DashboardPage</text>
</g>
<!-- workspace_1&#45;&gt;page_Dashboard -->
<g id="edge3" class="edge">
<title>workspace_1&#45;&gt;page_Dashboard</title>
<path fill="none" stroke="#94a3b8" stroke-width="1.3" d="M494.85,-3036.74C499.77,-2950.01 532.15,-2592.74 735,-2427 749.3,-2415.31 766.59,-2407.43 784.54,-2402.19"/>
<polygon fill="#94a3b8" stroke="#94a3b8" stroke-width="1.3" points="785.28,-2404.89 792.27,-2400.1 783.82,-2399.48 785.28,-2404.89"/>
</g>
<!-- page_LiveData -->
<g id="node6" class="node">
<title>page_LiveData</title>
<path fill="#1e293b" stroke="#475569" d="M1009.5,-2477C1009.5,-2477 796.5,-2477 796.5,-2477 790.5,-2477 784.5,-2471 784.5,-2465 784.5,-2465 784.5,-2451 784.5,-2451 784.5,-2445 790.5,-2439 796.5,-2439 796.5,-2439 1009.5,-2439 1009.5,-2439 1015.5,-2439 1021.5,-2445 1021.5,-2451 1021.5,-2451 1021.5,-2465 1021.5,-2465 1021.5,-2471 1015.5,-2477 1009.5,-2477"/>
<text text-anchor="middle" x="903" y="-2461.8" font-family="Segoe UI" font-size="14.00" fill="#e2e8f0">LiveData</text>
<text text-anchor="middle" x="903" y="-2446.8" font-family="Segoe UI" font-size="14.00" fill="#e2e8f0">LiveData → LiveDataViewerPage</text>
</g>
<!-- workspace_1&#45;&gt;page_LiveData -->
<g id="edge4" class="edge">
<title>workspace_1&#45;&gt;page_LiveData</title>
<path fill="none" stroke="#94a3b8" stroke-width="1.3" d="M495.83,-3036.85C504.64,-2955.89 550.25,-2639.03 735,-2490 747.13,-2480.21 761.36,-2473.1 776.31,-2467.98"/>
<polygon fill="#94a3b8" stroke="#94a3b8" stroke-width="1.3" points="777.41,-2470.57 784.18,-2465.48 775.71,-2465.23 777.41,-2470.57"/>
</g>
<!-- page_Charts -->
<g id="node7" class="node">
<title>page_Charts</title>
<path fill="#1e293b" stroke="#475569" d="M979,-2540C979,-2540 827,-2540 827,-2540 821,-2540 815,-2534 815,-2528 815,-2528 815,-2514 815,-2514 815,-2508 821,-2502 827,-2502 827,-2502 979,-2502 979,-2502 985,-2502 991,-2508 991,-2514 991,-2514 991,-2528 991,-2528 991,-2534 985,-2540 979,-2540"/>
<text text-anchor="middle" x="903" y="-2524.8" font-family="Segoe UI" font-size="14.00" fill="#e2e8f0">Charts</text>
<text text-anchor="middle" x="903" y="-2509.8" font-family="Segoe UI" font-size="14.00" fill="#e2e8f0">Charts → ChartingPage</text>
</g>
<!-- workspace_1&#45;&gt;page_Charts -->
<g id="edge5" class="edge">
<title>workspace_1&#45;&gt;page_Charts</title>
<path fill="none" stroke="#94a3b8" stroke-width="1.3" d="M496.9,-3036.93C509.43,-2961.69 566.08,-2683.2 735,-2553 755.36,-2537.31 781.19,-2528.59 806.41,-2523.91"/>
<polygon fill="#94a3b8" stroke="#94a3b8" stroke-width="1.3" points="807.15,-2526.63 814.58,-2522.53 806.22,-2521.11 807.15,-2526.63"/>
</g>
<!-- page_QuantScript -->
<g id="node8" class="node">
<title>page_QuantScript</title>
<path fill="#1e293b" stroke="#475569" d="M1009.5,-2603C1009.5,-2603 796.5,-2603 796.5,-2603 790.5,-2603 784.5,-2597 784.5,-2591 784.5,-2591 784.5,-2577 784.5,-2577 784.5,-2571 790.5,-2565 796.5,-2565 796.5,-2565 1009.5,-2565 1009.5,-2565 1015.5,-2565 1021.5,-2571 1021.5,-2577 1021.5,-2577 1021.5,-2591 1021.5,-2591 1021.5,-2597 1015.5,-2603 1009.5,-2603"/>
<text text-anchor="middle" x="903" y="-2587.8" font-family="Segoe UI" font-size="14.00" fill="#e2e8f0">QuantScript</text>
<text text-anchor="middle" x="903" y="-2572.8" font-family="Segoe UI" font-size="14.00" fill="#e2e8f0">QuantScript → QuantScriptPage</text>
</g>
<!-- workspace_1&#45;&gt;page_QuantScript -->
<g id="edge6" class="edge">
<title>workspace_1&#45;&gt;page_QuantScript</title>
<path fill="none" stroke="#94a3b8" stroke-width="1.3" d="M497.35,-3036.63C512.25,-2965.12 578.71,-2717.84 735,-2604 747.4,-2594.97 761.64,-2588.29 776.46,-2583.47"/>
<polygon fill="#94a3b8" stroke="#94a3b8" stroke-width="1.3" points="777.41,-2586.11 784.26,-2581.12 775.8,-2580.75 777.41,-2586.11"/>
</g>
<!-- workspace_1&#45;&gt;page_QuantScript -->
<g id="edge8" class="edge">
<title>workspace_1&#45;&gt;page_QuantScript</title>
<path fill="none" stroke="#94a3b8" stroke-width="1.3" d="M499.68,-3036.73C518.42,-2968.12 585.75,-2737.71 735,-2629 750.14,-2617.97 768.03,-2610.45 786.38,-2605.17"/>
<polygon fill="#94a3b8" stroke="#94a3b8" stroke-width="1.3" points="787.27,-2607.83 794.26,-2603.04 785.81,-2602.42 787.27,-2607.83"/>
</g>
<!-- page_RunMat -->
<g id="node9" class="node">
<title>page_RunMat</title>
<path fill="#1e293b" stroke="#475569" d="M979,-2666C979,-2666 827,-2666 827,-2666 821,-2666 815,-2660 815,-2654 815,-2654 815,-2640 815,-2640 815,-2634 821,-2628 827,-2628 827,-2628 979,-2628 979,-2628 985,-2628 991,-2634 991,-2640 991,-2640 991,-2654 991,-2654 991,-2660 985,-2666 979,-2666"/>
<text text-anchor="middle" x="903" y="-2650.8" font-family="Segoe UI" font-size="14.00" fill="#e2e8f0">RunMat</text>
<text text-anchor="middle" x="903" y="-2635.8" font-family="Segoe UI" font-size="14.00" fill="#e2e8f0">RunMat → RunMatPage</text>
</g>
<!-- workspace_1&#45;&gt;page_RunMat -->
<g id="edge7" class="edge">
<title>workspace_1&#45;&gt;page_RunMat</title>
<path fill="none" stroke="#94a3b8" stroke-width="1.3" d="M500.07,-3036.86C521.08,-2973.99 597.07,-2772.49 735,-2679 756.06,-2664.73 781.86,-2656.44 806.83,-2651.72"/>
<polygon fill="#94a3b8" stroke="#94a3b8" stroke-width="1.3" points="807.5,-2654.45 814.9,-2650.31 806.54,-2648.93 807.5,-2654.45"/>
</g>
<!-- page_StrategyRuns -->
<g id="node10" class="node">
<title>page_StrategyRuns</title>
<path fill="#1e293b" stroke="#475569" d="M1020,-2729C1020,-2729 786,-2729 786,-2729 780,-2729 774,-2723 774,-2717 774,-2717 774,-2703 774,-2703 774,-2697 780,-2691 786,-2691 786,-2691 1020,-2691 1020,-2691 1026,-2691 1032,-2697 1032,-2703 1032,-2703 1032,-2717 1032,-2717 1032,-2723 1026,-2729 1020,-2729"/>
<text text-anchor="middle" x="903" y="-2713.8" font-family="Segoe UI" font-size="14.00" fill="#e2e8f0">StrategyRuns</text>
<text text-anchor="middle" x="903" y="-2698.8" font-family="Segoe UI" font-size="14.00" fill="#e2e8f0">StrategyRuns → StrategyRunsPage</text>
</g>
<!-- workspace_1&#45;&gt;page_StrategyRuns -->
<g id="edge9" class="edge">
<title>workspace_1&#45;&gt;page_StrategyRuns</title>
<path fill="none" stroke="#94a3b8" stroke-width="1.3" d="M507.18,-3036.83C541.6,-2995.07 635.88,-2894.9 699,-2800 718.37,-2770.87 706.99,-2750.96 735,-2730 744.41,-2722.96 754.93,-2717.33 765.99,-2712.9"/>
<polygon fill="#94a3b8" stroke="#94a3b8" stroke-width="1.3" points="767.21,-2715.43 773.73,-2710.01 765.25,-2710.18 767.21,-2715.43"/>
</g>
<!-- workspace_1&#45;&gt;page_StrategyRuns -->
<g id="edge13" class="edge">
<title>workspace_1&#45;&gt;page_StrategyRuns</title>
<path fill="none" stroke="#94a3b8" stroke-width="1.3" d="M520.49,-3036.93C561.83,-2998.25 642.78,-2909.54 699,-2825 718.37,-2795.87 706.99,-2775.96 735,-2755 749.55,-2744.11 766.76,-2736.6 784.51,-2731.31"/>
<polygon fill="#94a3b8" stroke="#94a3b8" stroke-width="1.3" points="785.75,-2733.87 792.7,-2729.03 784.24,-2728.48 785.75,-2733.87"/>
</g>
<!-- page_OrderBook -->
<g id="node11" class="node">
<title>page_OrderBook</title>
<path fill="#1e293b" stroke="#475569" d="M1000.5,-2792C1000.5,-2792 805.5,-2792 805.5,-2792 799.5,-2792 793.5,-2786 793.5,-2780 793.5,-2780 793.5,-2766 793.5,-2766 793.5,-2760 799.5,-2754 805.5,-2754 805.5,-2754 1000.5,-2754 1000.5,-2754 1006.5,-2754 1012.5,-2760 1012.5,-2766 1012.5,-2766 1012.5,-2780 1012.5,-2780 1012.5,-2786 1006.5,-2792 1000.5,-2792"/>
<text text-anchor="middle" x="903" y="-2776.8" font-family="Segoe UI" font-size="14.00" fill="#e2e8f0">OrderBook</text>
<text text-anchor="middle" x="903" y="-2761.8" font-family="Segoe UI" font-size="14.00" fill="#e2e8f0">OrderBook → OrderBookPage</text>
</g>
<!-- workspace_1&#45;&gt;page_OrderBook -->
<g id="edge10" class="edge">
<title>workspace_1&#45;&gt;page_OrderBook</title>
<path fill="none" stroke="#94a3b8" stroke-width="1.3" d="M538.02,-3036.91C584.48,-3014.61 656.72,-2973.44 699,-2917 730.35,-2875.15 695.85,-2839.66 735,-2805 749.22,-2792.42 766.83,-2784.14 785.24,-2778.79"/>
<polygon fill="#94a3b8" stroke="#94a3b8" stroke-width="1.3" points="786.16,-2781.44 793.16,-2776.67 784.71,-2776.03 786.16,-2781.44"/>
</g>
<!-- page_Watchlist -->
<g id="node12" class="node">
<title>page_Watchlist</title>
<path fill="#1e293b" stroke="#475569" d="M989.5,-2855C989.5,-2855 816.5,-2855 816.5,-2855 810.5,-2855 804.5,-2849 804.5,-2843 804.5,-2843 804.5,-2829 804.5,-2829 804.5,-2823 810.5,-2817 816.5,-2817 816.5,-2817 989.5,-2817 989.5,-2817 995.5,-2817 1001.5,-2823 1001.5,-2829 1001.5,-2829 1001.5,-2843 1001.5,-2843 1001.5,-2849 995.5,-2855 989.5,-2855"/>
<text text-anchor="middle" x="903" y="-2839.8" font-family="Segoe UI" font-size="14.00" fill="#e2e8f0">Watchlist</text>
<text text-anchor="middle" x="903" y="-2824.8" font-family="Segoe UI" font-size="14.00" fill="#e2e8f0">Watchlist → WatchlistPage</text>
</g>
<!-- workspace_1&#45;&gt;page_Watchlist -->
<g id="edge11" class="edge">
<title>workspace_1&#45;&gt;page_Watchlist</title>
<path fill="none" stroke="#94a3b8" stroke-width="1.3" d="M555.08,-3045.41C600.45,-3034.54 660.85,-3013.29 699,-2973 732.92,-2937.18 697.75,-2900.34 735,-2868 752.15,-2853.11 774.07,-2844.28 796.35,-2839.21"/>
<polygon fill="#94a3b8" stroke="#94a3b8" stroke-width="1.3" points="796.98,-2841.94 804.24,-2837.57 795.84,-2836.46 796.98,-2841.94"/>
</g>
<!-- page_Backtest -->
<g id="node13" class="node">
<title>page_Backtest</title>
<path fill="#1e293b" stroke="#475569" d="M986.5,-2918C986.5,-2918 819.5,-2918 819.5,-2918 813.5,-2918 807.5,-2912 807.5,-2906 807.5,-2906 807.5,-2892 807.5,-2892 807.5,-2886 813.5,-2880 819.5,-2880 819.5,-2880 986.5,-2880 986.5,-2880 992.5,-2880 998.5,-2886 998.5,-2892 998.5,-2892 998.5,-2906 998.5,-2906 998.5,-2912 992.5,-2918 986.5,-2918"/>
<text text-anchor="middle" x="903" y="-2902.8" font-family="Segoe UI" font-size="14.00" fill="#e2e8f0">Backtest</text>
<text text-anchor="middle" x="903" y="-2887.8" font-family="Segoe UI" font-size="14.00" fill="#e2e8f0">Backtest → BacktestPage</text>
</g>
<!-- workspace_1&#45;&gt;page_Backtest -->
<g id="edge12" class="edge">
<title>workspace_1&#45;&gt;page_Backtest</title>
<path fill="none" stroke="#94a3b8" stroke-width="1.3" d="M555.18,-3053.81C599.42,-3049.3 658.33,-3036.92 699,-3004 727.12,-2981.24 706.22,-2952.92 735,-2931 753.49,-2916.92 776.39,-2908.47 799.26,-2903.52"/>
<polygon fill="#94a3b8" stroke="#94a3b8" stroke-width="1.3" points="800.03,-2906.22 807.33,-2901.92 798.94,-2900.73 800.03,-2906.22"/>
</g>
<!-- page_LeanIntegration -->
<g id="node14" class="node">
<title>page_LeanIntegration</title>
<path fill="#1e293b" stroke="#475569" d="M1036,-2981C1036,-2981 770,-2981 770,-2981 764,-2981 758,-2975 758,-2969 758,-2969 758,-2955 758,-2955 758,-2949 764,-2943 770,-2943 770,-2943 1036,-2943 1036,-2943 1042,-2943 1048,-2949 1048,-2955 1048,-2955 1048,-2969 1048,-2969 1048,-2975 1042,-2981 1036,-2981"/>
<text text-anchor="middle" x="903" y="-2965.8" font-family="Segoe UI" font-size="14.00" fill="#e2e8f0">LeanIntegration</text>
<text text-anchor="middle" x="903" y="-2950.8" font-family="Segoe UI" font-size="14.00" fill="#e2e8f0">LeanIntegration → LeanIntegrationPage</text>
</g>
<!-- workspace_1&#45;&gt;page_LeanIntegration -->
<g id="edge14" class="edge">
<title>workspace_1&#45;&gt;page_LeanIntegration</title>
<path fill="none" stroke="#94a3b8" stroke-width="1.3" d="M555.09,-3054.36C597.13,-3051.3 653.39,-3043.31 699,-3023 717.77,-3014.64 716.36,-3002.63 735,-2994 743.58,-2990.03 752.63,-2986.55 761.89,-2983.5"/>
<polygon fill="#94a3b8" stroke="#94a3b8" stroke-width="1.3" points="762.93,-2986.11 769.72,-2981.04 761.25,-2980.77 762.93,-2986.11"/>
</g>
<!-- page_PortfolioImport -->
<g id="node15" class="node">
<title>page_PortfolioImport</title>
<path fill="#1e293b" stroke="#475569" d="M1030,-3044C1030,-3044 776,-3044 776,-3044 770,-3044 764,-3038 764,-3032 764,-3032 764,-3018 764,-3018 764,-3012 770,-3006 776,-3006 776,-3006 1030,-3006 1030,-3006 1036,-3006 1042,-3012 1042,-3018 1042,-3018 1042,-3032 1042,-3032 1042,-3038 1036,-3044 1030,-3044"/>
<text text-anchor="middle" x="903" y="-3028.8" font-family="Segoe UI" font-size="14.00" fill="#e2e8f0">PortfolioImport</text>
<text text-anchor="middle" x="903" y="-3013.8" font-family="Segoe UI" font-size="14.00" fill="#e2e8f0">PortfolioImport → PortfolioImportPage</text>
</g>
<!-- workspace_1&#45;&gt;page_PortfolioImport -->
<g id="edge15" class="edge">
<title>workspace_1&#45;&gt;page_PortfolioImport</title>
<path fill="none" stroke="#94a3b8" stroke-width="1.3" d="M555.08,-3051.36C607.95,-3047.34 686.56,-3041.37 755.59,-3036.12"/>
<polygon fill="#94a3b8" stroke="#94a3b8" stroke-width="1.3" points="756.19,-3038.89 763.96,-3035.49 755.77,-3033.3 756.19,-3038.89"/>
</g>
<!-- page_TradingHours -->
<g id="node16" class="node">
<title>page_TradingHours</title>
<path fill="#1e293b" stroke="#475569" d="M1019.5,-3107C1019.5,-3107 786.5,-3107 786.5,-3107 780.5,-3107 774.5,-3101 774.5,-3095 774.5,-3095 774.5,-3081 774.5,-3081 774.5,-3075 780.5,-3069 786.5,-3069 786.5,-3069 1019.5,-3069 1019.5,-3069 1025.5,-3069 1031.5,-3075 1031.5,-3081 1031.5,-3081 1031.5,-3095 1031.5,-3095 1031.5,-3101 1025.5,-3107 1019.5,-3107"/>
<text text-anchor="middle" x="903" y="-3091.8" font-family="Segoe UI" font-size="14.00" fill="#e2e8f0">TradingHours</text>
<text text-anchor="middle" x="903" y="-3076.8" font-family="Segoe UI" font-size="14.00" fill="#e2e8f0">TradingHours → TradingHoursPage</text>
</g>
<!-- workspace_1&#45;&gt;page_TradingHours -->
<g id="edge16" class="edge">
<title>workspace_1&#45;&gt;page_TradingHours</title>
<path fill="none" stroke="#94a3b8" stroke-width="1.3" d="M555.08,-3060.79C610.63,-3065.15 694.58,-3071.73 765.99,-3077.33"/>
<polygon fill="#94a3b8" stroke="#94a3b8" stroke-width="1.3" points="765.99,-3080.14 774.19,-3077.98 766.43,-3074.56 765.99,-3080.14"/>
</g>
<!-- page_DirectLending -->
<g id="node17" class="node">
<title>page_DirectLending</title>
<path fill="#1e293b" stroke="#475569" d="M1022.5,-3170C1022.5,-3170 783.5,-3170 783.5,-3170 777.5,-3170 771.5,-3164 771.5,-3158 771.5,-3158 771.5,-3144 771.5,-3144 771.5,-3138 777.5,-3132 783.5,-3132 783.5,-3132 1022.5,-3132 1022.5,-3132 1028.5,-3132 1034.5,-3138 1034.5,-3144 1034.5,-3144 1034.5,-3158 1034.5,-3158 1034.5,-3164 1028.5,-3170 1022.5,-3170"/>
<text text-anchor="middle" x="903" y="-3154.8" font-family="Segoe UI" font-size="14.00" fill="#e2e8f0">DirectLending</text>
<text text-anchor="middle" x="903" y="-3139.8" font-family="Segoe UI" font-size="14.00" fill="#e2e8f0">DirectLending → DirectLendingPage</text>
</g>
<!-- workspace_1&#45;&gt;page_DirectLending -->
<g id="edge17" class="edge">
<title>workspace_1&#45;&gt;page_DirectLending</title>
<path fill="none" stroke="#94a3b8" stroke-width="1.3" d="M555.1,-3073.6C603.62,-3087.25 673.34,-3106.11 735,-3120 750.95,-3123.59 767.82,-3127.08 784.46,-3130.35"/>
<polygon fill="#94a3b8" stroke="#94a3b8" stroke-width="1.3" points="784.22,-3133.15 792.61,-3131.93 785.29,-3127.65 784.22,-3133.15"/>
</g>
<!-- page_Provider -->
<g id="node18" class="node">
<title>page_Provider</title>
<path fill="#1e293b" stroke="#475569" d="M983.5,-3233C983.5,-3233 822.5,-3233 822.5,-3233 816.5,-3233 810.5,-3227 810.5,-3221 810.5,-3221 810.5,-3207 810.5,-3207 810.5,-3201 816.5,-3195 822.5,-3195 822.5,-3195 983.5,-3195 983.5,-3195 989.5,-3195 995.5,-3201 995.5,-3207 995.5,-3207 995.5,-3221 995.5,-3221 995.5,-3227 989.5,-3233 983.5,-3233"/>
<text text-anchor="middle" x="903" y="-3217.8" font-family="Segoe UI" font-size="14.00" fill="#e2e8f0">Provider</text>
<text text-anchor="middle" x="903" y="-3202.8" font-family="Segoe UI" font-size="14.00" fill="#e2e8f0">Provider → ProviderPage</text>
</g>
<!-- workspace_1&#45;&gt;page_Provider -->
<g id="edge18" class="edge">
<title>workspace_1&#45;&gt;page_Provider</title>
<path fill="none" stroke="#94a3b8" stroke-width="1.3" d="M523.11,-3075.08C567.14,-3103.06 654.14,-3154.92 735,-3183 756.31,-3190.4 779.79,-3196.14 802.24,-3200.56"/>
<polygon fill="#94a3b8" stroke="#94a3b8" stroke-width="1.3" points="801.75,-3203.32 810.14,-3202.07 802.8,-3197.82 801.75,-3203.32"/>
</g>
<!-- page_Symbols -->
<g id="node19" class="node">
<title>page_Symbols</title>
<path fill="#1e293b" stroke="#475569" d="M985.5,-3296C985.5,-3296 820.5,-3296 820.5,-3296 814.5,-3296 808.5,-3290 808.5,-3284 808.5,-3284 808.5,-3270 808.5,-3270 808.5,-3264 814.5,-3258 820.5,-3258 820.5,-3258 985.5,-3258 985.5,-3258 991.5,-3258 997.5,-3264 997.5,-3270 997.5,-3270 997.5,-3284 997.5,-3284 997.5,-3290 991.5,-3296 985.5,-3296"/>
<text text-anchor="middle" x="903" y="-3280.8" font-family="Segoe UI" font-size="14.00" fill="#e2e8f0">Symbols</text>
<text text-anchor="middle" x="903" y="-3265.8" font-family="Segoe UI" font-size="14.00" fill="#e2e8f0">Symbols → SymbolsPage</text>
</g>
<!-- workspace_1&#45;&gt;page_Symbols -->
<g id="edge19" class="edge">
<title>workspace_1&#45;&gt;page_Symbols</title>
<path fill="none" stroke="#94a3b8" stroke-width="1.3" d="M511.55,-3075.02C548.68,-3113.96 639.64,-3202.78 735,-3246 755.21,-3255.16 777.97,-3261.62 800.04,-3266.16"/>
<polygon fill="#94a3b8" stroke="#94a3b8" stroke-width="1.3" points="799.74,-3268.96 808.13,-3267.75 800.82,-3263.46 799.74,-3268.96"/>
</g>
<!-- page_Backfill -->
<g id="node20" class="node">
<title>page_Backfill</title>
<path fill="#1e293b" stroke="#475569" d="M976.5,-3359C976.5,-3359 829.5,-3359 829.5,-3359 823.5,-3359 817.5,-3353 817.5,-3347 817.5,-3347 817.5,-3333 817.5,-3333 817.5,-3327 823.5,-3321 829.5,-3321 829.5,-3321 976.5,-3321 976.5,-3321 982.5,-3321 988.5,-3327 988.5,-3333 988.5,-3333 988.5,-3347 988.5,-3347 988.5,-3353 982.5,-3359 976.5,-3359"/>
<text text-anchor="middle" x="903" y="-3343.8" font-family="Segoe UI" font-size="14.00" fill="#e2e8f0">Backfill</text>
<text text-anchor="middle" x="903" y="-3328.8" font-family="Segoe UI" font-size="14.00" fill="#e2e8f0">Backfill → BackfillPage</text>
</g>
<!-- workspace_1&#45;&gt;page_Backfill -->
<g id="edge20" class="edge">
<title>workspace_1&#45;&gt;page_Backfill</title>
<path fill="none" stroke="#94a3b8" stroke-width="1.3" d="M505.87,-3075.07C536.9,-3123.16 625.66,-3249.75 735,-3309 757.58,-3321.23 784.11,-3328.73 809.31,-3333.3"/>
<polygon fill="#94a3b8" stroke="#94a3b8" stroke-width="1.3" points="809.08,-3336.1 817.43,-3334.68 810.02,-3330.58 809.08,-3336.1"/>
</g>
<!-- page_Storage -->
<g id="node21" class="node">
<title>page_Storage</title>
<path fill="#1e293b" stroke="#475569" d="M980.5,-3422C980.5,-3422 825.5,-3422 825.5,-3422 819.5,-3422 813.5,-3416 813.5,-3410 813.5,-3410 813.5,-3396 813.5,-3396 813.5,-3390 819.5,-3384 825.5,-3384 825.5,-3384 980.5,-3384 980.5,-3384 986.5,-3384 992.5,-3390 992.5,-3396 992.5,-3396 992.5,-3410 992.5,-3410 992.5,-3416 986.5,-3422 980.5,-3422"/>
<text text-anchor="middle" x="903" y="-3406.8" font-family="Segoe UI" font-size="14.00" fill="#e2e8f0">Storage</text>
<text text-anchor="middle" x="903" y="-3391.8" font-family="Segoe UI" font-size="14.00" fill="#e2e8f0">Storage → StoragePage</text>
</g>
<!-- workspace_1&#45;&gt;page_Storage -->
<g id="edge21" class="edge">
<title>workspace_1&#45;&gt;page_Storage</title>
<path fill="none" stroke="#94a3b8" stroke-width="1.3" d="M502.41,-3075.19C528.08,-3131.3 611.29,-3295.92 735,-3372 755.87,-3384.84 780.8,-3392.61 804.94,-3397.25"/>
<polygon fill="#94a3b8" stroke="#94a3b8" stroke-width="1.3" points="804.72,-3400.05 813.09,-3398.7 805.7,-3394.54 804.72,-3400.05"/>
</g>
<!-- page_DataExport -->
<g id="node22" class="node">
<title>page_DataExport</title>
<path fill="#1e293b" stroke="#475569" d="M1004.5,-3485C1004.5,-3485 801.5,-3485 801.5,-3485 795.5,-3485 789.5,-3479 789.5,-3473 789.5,-3473 789.5,-3459 789.5,-3459 789.5,-3453 795.5,-3447 801.5,-3447 801.5,-3447 1004.5,-3447 1004.5,-3447 1010.5,-3447 1016.5,-3453 1016.5,-3459 1016.5,-3459 1016.5,-3473 1016.5,-3473 1016.5,-3479 1010.5,-3485 1004.5,-3485"/>
<text text-anchor="middle" x="903" y="-3469.8" font-family="Segoe UI" font-size="14.00" fill="#e2e8f0">DataExport</text>
<text text-anchor="middle" x="903" y="-3454.8" font-family="Segoe UI" font-size="14.00" fill="#e2e8f0">DataExport → DataExportPage</text>
</g>
<!-- workspace_1&#45;&gt;page_DataExport -->
<g id="edge22" class="edge">
<title>workspace_1&#45;&gt;page_DataExport</title>
<path fill="none" stroke="#94a3b8" stroke-width="1.3" d="M500.02,-3075.27C520.86,-3138.57 596.39,-3341.39 735,-3435 748.86,-3444.36 764.78,-3451.09 781.16,-3455.91"/>
<polygon fill="#94a3b8" stroke="#94a3b8" stroke-width="1.3" points="780.77,-3458.71 789.23,-3458.12 782.25,-3453.3 780.77,-3458.71"/>
</g>
<!-- page_PackageManager -->
<g id="node23" class="node">
<title>page_PackageManager</title>
<path fill="#1e293b" stroke="#475569" d="M1043.5,-3548C1043.5,-3548 762.5,-3548 762.5,-3548 756.5,-3548 750.5,-3542 750.5,-3536 750.5,-3536 750.5,-3522 750.5,-3522 750.5,-3516 756.5,-3510 762.5,-3510 762.5,-3510 1043.5,-3510 1043.5,-3510 1049.5,-3510 1055.5,-3516 1055.5,-3522 1055.5,-3522 1055.5,-3536 1055.5,-3536 1055.5,-3542 1049.5,-3548 1043.5,-3548"/>
<text text-anchor="middle" x="903" y="-3532.8" font-family="Segoe UI" font-size="14.00" fill="#e2e8f0">PackageManager</text>
<text text-anchor="middle" x="903" y="-3517.8" font-family="Segoe UI" font-size="14.00" fill="#e2e8f0">PackageManager → PackageManagerPage</text>
</g>
<!-- workspace_1&#45;&gt;page_PackageManager -->
<g id="edge23" class="edge">
<title>workspace_1&#45;&gt;page_PackageManager</title>
<path fill="none" stroke="#94a3b8" stroke-width="1.3" d="M498.27,-3075.41C514.75,-3145.37 581.12,-3386.38 735,-3498 739.15,-3501.01 743.51,-3503.76 748.03,-3506.26"/>
<polygon fill="#94a3b8" stroke="#94a3b8" stroke-width="1.3" points="746.86,-3508.8 755.25,-3509.99 749.43,-3503.83 746.86,-3508.8"/>
</g>
<!-- page_DataQuality -->
<g id="node24" class="node">
<title>page_DataQuality</title>
<path fill="#1e293b" stroke="#475569" d="M1008,-3611C1008,-3611 798,-3611 798,-3611 792,-3611 786,-3605 786,-3599 786,-3599 786,-3585 786,-3585 786,-3579 792,-3573 798,-3573 798,-3573 1008,-3573 1008,-3573 1014,-3573 1020,-3579 1020,-3585 1020,-3585 1020,-3599 1020,-3599 1020,-3605 1014,-3611 1008,-3611"/>
<text text-anchor="middle" x="903" y="-3595.8" font-family="Segoe UI" font-size="14.00" fill="#e2e8f0">DataQuality</text>
<text text-anchor="middle" x="903" y="-3580.8" font-family="Segoe UI" font-size="14.00" fill="#e2e8f0">DataQuality → DataQualityPage</text>
</g>
<!-- workspace_1&#45;&gt;page_DataQuality -->
<g id="edge24" class="edge">
<title>workspace_1&#45;&gt;page_DataQuality</title>
<path fill="none" stroke="#94a3b8" stroke-width="1.3" d="M496.86,-3075.17C509.2,-3150.82 565.26,-3430.74 735,-3561 747.77,-3570.8 762.68,-3577.83 778.24,-3582.82"/>
<polygon fill="#94a3b8" stroke="#94a3b8" stroke-width="1.3" points="777.46,-3585.51 785.93,-3585.11 779.06,-3580.14 777.46,-3585.51"/>
</g>
<!-- page_ProviderHealth -->
<g id="node25" class="node">
<title>page_ProviderHealth</title>
<path fill="#1e293b" stroke="#475569" d="M1028.5,-3674C1028.5,-3674 777.5,-3674 777.5,-3674 771.5,-3674 765.5,-3668 765.5,-3662 765.5,-3662 765.5,-3648 765.5,-3648 765.5,-3642 771.5,-3636 777.5,-3636 777.5,-3636 1028.5,-3636 1028.5,-3636 1034.5,-3636 1040.5,-3642 1040.5,-3648 1040.5,-3648 1040.5,-3662 1040.5,-3662 1040.5,-3668 1034.5,-3674 1028.5,-3674"/>
<text text-anchor="middle" x="903" y="-3658.8" font-family="Segoe UI" font-size="14.00" fill="#e2e8f0">ProviderHealth</text>
<text text-anchor="middle" x="903" y="-3643.8" font-family="Segoe UI" font-size="14.00" fill="#e2e8f0">ProviderHealth → ProviderHealthPage</text>
</g>
<!-- workspace_1&#45;&gt;page_ProviderHealth -->
<g id="edge25" class="edge">
<title>workspace_1&#45;&gt;page_ProviderHealth</title>
<path fill="none" stroke="#94a3b8" stroke-width="1.3" d="M495.78,-3075.24C504.41,-3156.59 549.36,-3474.94 735,-3624 741.95,-3629.58 749.6,-3634.28 757.66,-3638.22"/>
<polygon fill="#94a3b8" stroke="#94a3b8" stroke-width="1.3" points="756.75,-3640.88 765.19,-3641.63 759.06,-3635.78 756.75,-3640.88"/>
</g>
<!-- page_SystemHealth -->
<g id="node26" class="node">
<title>page_SystemHealth</title>
<path fill="#1e293b" stroke="#475569" d="M1023,-3737C1023,-3737 783,-3737 783,-3737 777,-3737 771,-3731 771,-3725 771,-3725 771,-3711 771,-3711 771,-3705 777,-3699 783,-3699 783,-3699 1023,-3699 1023,-3699 1029,-3699 1035,-3705 1035,-3711 1035,-3711 1035,-3725 1035,-3725 1035,-3731 1029,-3737 1023,-3737"/>
<text text-anchor="middle" x="903" y="-3721.8" font-family="Segoe UI" font-size="14.00" fill="#e2e8f0">SystemHealth</text>
<text text-anchor="middle" x="903" y="-3706.8" font-family="Segoe UI" font-size="14.00" fill="#e2e8f0">SystemHealth → SystemHealthPage</text>
</g>
<!-- workspace_1&#45;&gt;page_SystemHealth -->
<g id="edge26" class="edge">
<title>workspace_1&#45;&gt;page_SystemHealth</title>
<path fill="none" stroke="#94a3b8" stroke-width="1.3" d="M494.78,-3075.06C499.44,-3161.69 530.88,-3521.21 735,-3687 743.56,-3693.96 753.19,-3699.54 763.39,-3704.01"/>
<polygon fill="#94a3b8" stroke="#94a3b8" stroke-width="1.3" points="762.45,-3706.65 770.91,-3707.07 764.56,-3701.46 762.45,-3706.65"/>
</g>
<!-- page_Diagnostics -->
<g id="node27" class="node">
<title>page_Diagnostics</title>
<path fill="#1e293b" stroke="#475569" d="M1006.5,-3800C1006.5,-3800 799.5,-3800 799.5,-3800 793.5,-3800 787.5,-3794 787.5,-3788 787.5,-3788 787.5,-3774 787.5,-3774 787.5,-3768 793.5,-3762 799.5,-3762 799.5,-3762 1006.5,-3762 1006.5,-3762 1012.5,-3762 1018.5,-3768 1018.5,-3774 1018.5,-3774 1018.5,-3788 1018.5,-3788 1018.5,-3794 1012.5,-3800 1006.5,-3800"/>
<text text-anchor="middle" x="903" y="-3784.8" font-family="Segoe UI" font-size="14.00" fill="#e2e8f0">Diagnostics</text>
<text text-anchor="middle" x="903" y="-3769.8" font-family="Segoe UI" font-size="14.00" fill="#e2e8f0">Diagnostics → DiagnosticsPage</text>
</g>
<!-- workspace_1&#45;&gt;page_Diagnostics -->
<g id="edge27" class="edge">
<title>workspace_1&#45;&gt;page_Diagnostics</title>
<path fill="none" stroke="#94a3b8" stroke-width="1.3" d="M493.94,-3075.18C494.77,-3167.42 511.5,-3568.47 735,-3750 747.88,-3760.46 763.18,-3767.83 779.19,-3772.94"/>
<polygon fill="#94a3b8" stroke="#94a3b8" stroke-width="1.3" points="778.64,-3775.7 787.11,-3775.28 780.23,-3770.33 778.64,-3775.7"/>
</g>
<!-- page_Settings -->
<g id="node28" class="node">
<title>page_Settings</title>
<path fill="#1e293b" stroke="#475569" d="M983.5,-3863C983.5,-3863 822.5,-3863 822.5,-3863 816.5,-3863 810.5,-3857 810.5,-3851 810.5,-3851 810.5,-3837 810.5,-3837 810.5,-3831 816.5,-3825 822.5,-3825 822.5,-3825 983.5,-3825 983.5,-3825 989.5,-3825 995.5,-3831 995.5,-3837 995.5,-3837 995.5,-3851 995.5,-3851 995.5,-3857 989.5,-3863 983.5,-3863"/>
<text text-anchor="middle" x="903" y="-3847.8" font-family="Segoe UI" font-size="14.00" fill="#e2e8f0">Settings</text>
<text text-anchor="middle" x="903" y="-3832.8" font-family="Segoe UI" font-size="14.00" fill="#e2e8f0">Settings → SettingsPage</text>
</g>
<!-- workspace_1&#45;&gt;page_Settings -->
<g id="edge28" class="edge">
<title>workspace_1&#45;&gt;page_Settings</title>
<path fill="none" stroke="#94a3b8" stroke-width="1.3" d="M497.2,-3075.1C515.63,-3182.85 611.82,-3713.35 735,-3813 753.95,-3828.33 778.07,-3836.99 802.05,-3841.69"/>
<polygon fill="#94a3b8" stroke="#94a3b8" stroke-width="1.3" points="801.8,-3844.49 810.17,-3843.14 802.79,-3838.98 801.8,-3844.49"/>
</g>
<!-- page_AdminMaintenance -->
<g id="node29" class="node">
<title>page_AdminMaintenance</title>
<path fill="#1e293b" stroke="#475569" d="M1059,-3926C1059,-3926 747,-3926 747,-3926 741,-3926 735,-3920 735,-3914 735,-3914 735,-3900 735,-3900 735,-3894 741,-3888 747,-3888 747,-3888 1059,-3888 1059,-3888 1065,-3888 1071,-3894 1071,-3900 1071,-3900 1071,-3914 1071,-3914 1071,-3920 1065,-3926 1059,-3926"/>
<text text-anchor="middle" x="903" y="-3910.8" font-family="Segoe UI" font-size="14.00" fill="#e2e8f0">AdminMaintenance</text>
<text text-anchor="middle" x="903" y="-3895.8" font-family="Segoe UI" font-size="14.00" fill="#e2e8f0">AdminMaintenance → AdminMaintenancePage</text>
</g>
<!-- workspace_1&#45;&gt;page_AdminMaintenance -->
<g id="edge29" class="edge">
<title>workspace_1&#45;&gt;page_AdminMaintenance</title>
<path fill="none" stroke="#94a3b8" stroke-width="1.3" d="M496.74,-3075.15C513.33,-3188.07 603.88,-3765.93 735,-3876 738.3,-3878.77 741.77,-3881.33 745.38,-3883.69"/>
<polygon fill="#94a3b8" stroke="#94a3b8" stroke-width="1.3" points="744.19,-3886.24 752.48,-3887.98 747.08,-3881.44 744.19,-3886.24"/>
</g>
</g>
</svg>
