<?xml version="1.0" encoding="UTF-8" standalone="no"?>
<!DOCTYPE svg PUBLIC "-//W3C//DTD SVG 1.1//EN"
 "http://www.w3.org/Graphics/SVG/1.1/DTD/svg11.dtd">
<!-- Generated by graphviz version 2.43.0 (0)
 -->
<!-- Title: UiNavigationMap Pages: 1 -->
<svg width="1150pt" height="4208pt"
 viewBox="0.00 0.00 1149.60 4207.60" xmlns="http://www.w3.org/2000/svg" xmlns:xlink="http://www.w3.org/1999/xlink">
<g id="graph0" class="graph" transform="scale(1 1) rotate(0) translate(28.8 4178.8)">
<title>UiNavigationMap</title>
<polygon fill="#0f172a" stroke="transparent" points="-28.8,28.8 -28.8,-4178.8 1120.8,-4178.8 1120.8,28.8 -28.8,28.8"/>
<text text-anchor="middle" x="546" y="-4130" font-family="Segoe UI" font-size="20.00">Meridian WPF UI navigation map</text>
<text text-anchor="middle" x="546" y="-4108" font-family="Segoe UI" font-size="20.00">(auto&#45;generated from MainPage.xaml + NavigationService.cs)</text>
<g id="clust1" class="cluster">
<title>cluster_workspace_1</title>
<path fill="#0f172a" stroke="#334155" d="M440,-2431C440,-2431 1072,-2431 1072,-2431 1078,-2431 1084,-2437 1084,-2443 1084,-2443 1084,-4078 1084,-4078 1084,-4084 1078,-4090 1072,-4090 1072,-4090 440,-4090 440,-4090 434,-4090 428,-4084 428,-4078 428,-4078 428,-2443 428,-2443 428,-2437 434,-2431 440,-2431"/>
<text text-anchor="middle" x="756" y="-4070" font-family="Segoe UI" font-size="20.00">Shell workspace</text>
</g>
<g id="clust2" class="cluster">
<title>cluster_hidden_pages</title>
<path fill="#0f172a" stroke="#7c2d12" stroke-dasharray="5,2" d="M333,-8C333,-8 663,-8 663,-8 669,-8 675,-14 675,-20 675,-20 675,-2411 675,-2411 675,-2417 669,-2423 663,-2423 663,-2423 333,-2423 333,-2423 327,-2423 321,-2417 321,-2411 321,-2411 321,-20 321,-20 321,-14 327,-8 333,-8"/>
<text text-anchor="middle" x="498" y="-2403" font-family="Segoe UI" font-size="20.00">Registered but not in sidebar shell</text>
</g>
<!-- generated -->
<g id="node1" class="node">
<title>generated</title>
<polygon fill="#1d4ed8" stroke="#60a5fa" points="250,-1187.5 0,-1187.5 0,-1134.5 256,-1134.5 256,-1181.5 250,-1187.5"/>
<polyline fill="none" stroke="#60a5fa" points="250,-1187.5 250,-1181.5 "/>
<polyline fill="none" stroke="#60a5fa" points="256,-1181.5 250,-1181.5 "/>
<text text-anchor="middle" x="128" y="-1172.3" font-family="Segoe UI" font-size="14.00" fill="#e2e8f0">Source fingerprint: c1e5829a38ba</text>
<text text-anchor="middle" x="128" y="-1157.3" font-family="Segoe UI" font-size="14.00" fill="#e2e8f0">Shell entries: 27</text>
<text text-anchor="middle" x="128" y="-1142.3" font-family="Segoe UI" font-size="14.00" fill="#e2e8f0">Registered pages: 64</text>
</g>
<!-- shell -->
<g id="node2" class="node">
<title>shell</title>
<polygon fill="#0f766e" stroke="#2dd4bf" points="192.5,-2058 63.5,-2058 63.5,-2054 59.5,-2054 59.5,-2050 63.5,-2050 63.5,-2028 59.5,-2028 59.5,-2024 63.5,-2024 63.5,-2020 192.5,-2020 192.5,-2058"/>
<polyline fill="none" stroke="#2dd4bf" points="63.5,-2054 67.5,-2054 67.5,-2050 63.5,-2050 "/>
<polyline fill="none" stroke="#2dd4bf" points="63.5,-2028 67.5,-2028 67.5,-2024 63.5,-2024 "/>
<text text-anchor="middle" x="128" y="-2042.8" font-family="Segoe UI" font-size="14.00" fill="#e2e8f0">MainPage.xaml</text>
<text text-anchor="middle" x="128" y="-2027.8" font-family="Segoe UI" font-size="14.00" fill="#e2e8f0">Workspace shell</text>
</g>
<!-- navigation -->
<g id="node3" class="node">
<title>navigation</title>
<polygon fill="#7c3aed" stroke="#c4b5fd" points="199,-1251 57,-1251 57,-1247 53,-1247 53,-1243 57,-1243 57,-1221 53,-1221 53,-1217 57,-1217 57,-1213 199,-1213 199,-1251"/>
<polyline fill="none" stroke="#c4b5fd" points="57,-1247 61,-1247 61,-1243 57,-1243 "/>
<polyline fill="none" stroke="#c4b5fd" points="57,-1221 61,-1221 61,-1217 57,-1217 "/>
<text text-anchor="middle" x="128" y="-1235.8" font-family="Segoe UI" font-size="14.00" fill="#e2e8f0">NavigationService</text>
<text text-anchor="middle" x="128" y="-1220.8" font-family="Segoe UI" font-size="14.00" fill="#e2e8f0">RegisterAllPages()</text>
</g>
<!-- shell&#45;&gt;navigation -->
<g id="edge1" class="edge">
<title>shell&#45;&gt;navigation</title>
<path fill="none" stroke="#38bdf8" stroke-width="1.3" d="M128,-2019.67C128,-1911.87 128,-1385.36 128,-1259.2"/>
<polygon fill="#38bdf8" stroke="#38bdf8" stroke-width="1.3" points="130.8,-1259.15 128,-1251.15 125.2,-1259.15 130.8,-1259.15"/>
<text text-anchor="middle" x="117.5" y="-1631.8" font-family="Segoe UI" font-size="14.00">navigate via tags</text>
</g>
<!-- workspace_1 -->
<g id="node4" class="node">
<title>workspace_1</title>
<polygon fill="#1d4ed8" stroke="#93c5fd" points="560,-3201 557,-3205 536,-3205 533,-3201 436,-3201 436,-3163 560,-3163 560,-3201"/>
<text text-anchor="middle" x="498" y="-3185.8" font-family="Segoe UI" font-size="14.00" fill="#e2e8f0">Shell</text>
<text text-anchor="middle" x="498" y="-3170.8" font-family="Segoe UI" font-size="14.00" fill="#e2e8f0">27 shell entries</text>
</g>
<!-- shell&#45;&gt;workspace_1 -->
<g id="edge2" class="edge">
<title>shell&#45;&gt;workspace_1</title>
<path fill="none" stroke="#22d3ee" stroke-width="1.3" d="M135.23,-2058.36C178.8,-2193.67 437.47,-2997.1 488.32,-3155.05"/>
<polygon fill="#22d3ee" stroke="#22d3ee" stroke-width="1.3" points="485.74,-3156.15 490.85,-3162.91 491.07,-3154.43 485.74,-3156.15"/>
</g>
<!-- hidden_DataSources -->
<g id="node31" class="node">
<title>hidden_DataSources</title>
<path fill="#431407" stroke="#fb923c" d="M554.5,-2385C554.5,-2385 441.5,-2385 441.5,-2385 435.5,-2385 429.5,-2379 429.5,-2373 429.5,-2373 429.5,-2359 429.5,-2359 429.5,-2353 435.5,-2347 441.5,-2347 441.5,-2347 554.5,-2347 554.5,-2347 560.5,-2347 566.5,-2353 566.5,-2359 566.5,-2359 566.5,-2373 566.5,-2373 566.5,-2379 560.5,-2385 554.5,-2385"/>
<text text-anchor="middle" x="498" y="-2369.8" font-family="Segoe UI" font-size="14.00" fill="#e2e8f0">DataSources</text>
<text text-anchor="middle" x="498" y="-2354.8" font-family="Segoe UI" font-size="14.00" fill="#e2e8f0">DataSourcesPage</text>
</g>
<!-- navigation&#45;&gt;hidden_DataSources -->
<g id="edge30" class="edge">
<title>navigation&#45;&gt;hidden_DataSources</title>
<path fill="none" stroke="#fb923c" stroke-width="1.3" stroke-dasharray="5,2" d="M131.89,-1251.18C146.96,-1350.88 218.75,-1819.88 292,-2201 303.5,-2260.84 277.09,-2292.76 321,-2335 347.19,-2360.19 386.25,-2368.82 420.92,-2370.77"/>
<polygon fill="#fb923c" stroke="#fb923c" stroke-width="1.3" points="421.06,-2373.58 429.17,-2371.12 421.29,-2367.98 421.06,-2373.58"/>
</g>
<!-- hidden_DataBrowser -->
<g id="node32" class="node">
<title>hidden_DataBrowser</title>
<path fill="#431407" stroke="#fb923c" d="M555,-2322C555,-2322 441,-2322 441,-2322 435,-2322 429,-2316 429,-2310 429,-2310 429,-2296 429,-2296 429,-2290 435,-2284 441,-2284 441,-2284 555,-2284 555,-2284 561,-2284 567,-2290 567,-2296 567,-2296 567,-2310 567,-2310 567,-2316 561,-2322 555,-2322"/>
<text text-anchor="middle" x="498" y="-2306.8" font-family="Segoe UI" font-size="14.00" fill="#e2e8f0">DataBrowser</text>
<text text-anchor="middle" x="498" y="-2291.8" font-family="Segoe UI" font-size="14.00" fill="#e2e8f0">DataBrowserPage</text>
</g>
<!-- navigation&#45;&gt;hidden_DataBrowser -->
<g id="edge31" class="edge">
<title>navigation&#45;&gt;hidden_DataBrowser</title>
<path fill="none" stroke="#fb923c" stroke-width="1.3" stroke-dasharray="5,2" d="M131.88,-1251.09C152.83,-1389.5 282.1,-2234.64 321,-2272 347.1,-2297.07 385.96,-2305.73 420.53,-2307.73"/>
<polygon fill="#fb923c" stroke="#fb923c" stroke-width="1.3" points="420.64,-2310.54 428.75,-2308.09 420.88,-2304.94 420.64,-2310.54"/>
</g>
<!-- hidden_SymbolMapping -->
<g id="node33" class="node">
<title>hidden_SymbolMapping</title>
<path fill="#431407" stroke="#fb923c" d="M566.5,-2259C566.5,-2259 429.5,-2259 429.5,-2259 423.5,-2259 417.5,-2253 417.5,-2247 417.5,-2247 417.5,-2233 417.5,-2233 417.5,-2227 423.5,-2221 429.5,-2221 429.5,-2221 566.5,-2221 566.5,-2221 572.5,-2221 578.5,-2227 578.5,-2233 578.5,-2233 578.5,-2247 578.5,-2247 578.5,-2253 572.5,-2259 566.5,-2259"/>
<text text-anchor="middle" x="498" y="-2243.8" font-family="Segoe UI" font-size="14.00" fill="#e2e8f0">SymbolMapping</text>
<text text-anchor="middle" x="498" y="-2228.8" font-family="Segoe UI" font-size="14.00" fill="#e2e8f0">SymbolMappingPage</text>
</g>
<!-- navigation&#45;&gt;hidden_SymbolMapping -->
<g id="edge32" class="edge">
<title>navigation&#45;&gt;hidden_SymbolMapping</title>
<path fill="none" stroke="#fb923c" stroke-width="1.3" stroke-dasharray="5,2" d="M132.12,-1251.21C153.97,-1385.07 284.1,-2174.35 321,-2209 344.36,-2230.93 377.51,-2240.22 408.76,-2243.49"/>
<polygon fill="#fb923c" stroke="#fb923c" stroke-width="1.3" points="408.86,-2246.31 417.08,-2244.22 409.36,-2240.73 408.86,-2246.31"/>
</g>
<!-- hidden_SymbolStorage -->
<g id="node34" class="node">
<title>hidden_SymbolStorage</title>
<path fill="#431407" stroke="#fb923c" d="M563.5,-2196C563.5,-2196 432.5,-2196 432.5,-2196 426.5,-2196 420.5,-2190 420.5,-2184 420.5,-2184 420.5,-2170 420.5,-2170 420.5,-2164 426.5,-2158 432.5,-2158 432.5,-2158 563.5,-2158 563.5,-2158 569.5,-2158 575.5,-2164 575.5,-2170 575.5,-2170 575.5,-2184 575.5,-2184 575.5,-2190 569.5,-2196 563.5,-2196"/>
<text text-anchor="middle" x="498" y="-2180.8" font-family="Segoe UI" font-size="14.00" fill="#e2e8f0">SymbolStorage</text>
<text text-anchor="middle" x="498" y="-2165.8" font-family="Segoe UI" font-size="14.00" fill="#e2e8f0">SymbolStoragePage</text>
</g>
<!-- navigation&#45;&gt;hidden_SymbolStorage -->
<g id="edge33" class="edge">
<title>navigation&#45;&gt;hidden_SymbolStorage</title>
<path fill="none" stroke="#fb923c" stroke-width="1.3" stroke-dasharray="5,2" d="M131.51,-1251.13C143.83,-1343.03 200.94,-1747.82 292,-2069 301.97,-2104.18 292.85,-2122.65 321,-2146 346.21,-2166.91 380.55,-2175.85 412.21,-2179.13"/>
<polygon fill="#fb923c" stroke="#fb923c" stroke-width="1.3" points="411.97,-2181.92 420.19,-2179.84 412.47,-2176.34 411.97,-2181.92"/>
</g>
<!-- hidden_IndexSubscription -->
<g id="node35" class="node">
<title>hidden_IndexSubscription</title>
<path fill="#431407" stroke="#fb923c" d="M574,-2133C574,-2133 422,-2133 422,-2133 416,-2133 410,-2127 410,-2121 410,-2121 410,-2107 410,-2107 410,-2101 416,-2095 422,-2095 422,-2095 574,-2095 574,-2095 580,-2095 586,-2101 586,-2107 586,-2107 586,-2121 586,-2121 586,-2127 580,-2133 574,-2133"/>
<text text-anchor="middle" x="498" y="-2117.8" font-family="Segoe UI" font-size="14.00" fill="#e2e8f0">IndexSubscription</text>
<text text-anchor="middle" x="498" y="-2102.8" font-family="Segoe UI" font-size="14.00" fill="#e2e8f0">IndexSubscriptionPage</text>
</g>
<!-- navigation&#45;&gt;hidden_IndexSubscription -->
<g id="edge34" class="edge">
<title>navigation&#45;&gt;hidden_IndexSubscription</title>
<path fill="none" stroke="#fb923c" stroke-width="1.3" stroke-dasharray="5,2" d="M130.26,-1251.18C138.31,-1366.92 186.45,-1970.91 321,-2083 343.44,-2101.7 373.18,-2110.83 401.82,-2114.91"/>
<polygon fill="#fb923c" stroke="#fb923c" stroke-width="1.3" points="401.57,-2117.71 409.86,-2115.94 402.27,-2112.15 401.57,-2117.71"/>
</g>
<!-- hidden_Options -->
<g id="node36" class="node">
<title>hidden_Options</title>
<path fill="#431407" stroke="#fb923c" d="M538,-2070C538,-2070 458,-2070 458,-2070 452,-2070 446,-2064 446,-2058 446,-2058 446,-2044 446,-2044 446,-2038 452,-2032 458,-2032 458,-2032 538,-2032 538,-2032 544,-2032 550,-2038 550,-2044 550,-2044 550,-2058 550,-2058 550,-2064 544,-2070 538,-2070"/>
<text text-anchor="middle" x="498" y="-2054.8" font-family="Segoe UI" font-size="14.00" fill="#e2e8f0">Options</text>
<text text-anchor="middle" x="498" y="-2039.8" font-family="Segoe UI" font-size="14.00" fill="#e2e8f0">OptionsPage</text>
</g>
<!-- navigation&#45;&gt;hidden_Options -->
<g id="edge35" class="edge">
<title>navigation&#45;&gt;hidden_Options</title>
<path fill="none" stroke="#fb923c" stroke-width="1.3" stroke-dasharray="5,2" d="M130.66,-1251.16C140.63,-1361.68 196.45,-1916.24 321,-2020 353.13,-2046.77 400.23,-2053.94 437.62,-2054.73"/>
<polygon fill="#fb923c" stroke="#fb923c" stroke-width="1.3" points="437.9,-2057.54 445.92,-2054.81 437.95,-2051.94 437.9,-2057.54"/>
</g>
<!-- hidden_Schedules -->
<g id="node37" class="node">
<title>hidden_Schedules</title>
<path fill="#431407" stroke="#fb923c" d="M573,-2007C573,-2007 423,-2007 423,-2007 417,-2007 411,-2001 411,-1995 411,-1995 411,-1981 411,-1981 411,-1975 417,-1969 423,-1969 423,-1969 573,-1969 573,-1969 579,-1969 585,-1975 585,-1981 585,-1981 585,-1995 585,-1995 585,-2001 579,-2007 573,-2007"/>
<text text-anchor="middle" x="498" y="-1991.8" font-family="Segoe UI" font-size="14.00" fill="#e2e8f0">Schedules</text>
<text text-anchor="middle" x="498" y="-1976.8" font-family="Segoe UI" font-size="14.00" fill="#e2e8f0">ScheduleManagerPage</text>
</g>
<!-- navigation&#45;&gt;hidden_Schedules -->
<g id="edge36" class="edge">
<title>navigation&#45;&gt;hidden_Schedules</title>
<path fill="none" stroke="#fb923c" stroke-width="1.3" stroke-dasharray="5,2" d="M131.13,-1251.32C143.16,-1356.79 206.25,-1861.82 321,-1957 343.7,-1975.83 373.81,-1984.95 402.7,-1988.98"/>
<polygon fill="#fb923c" stroke="#fb923c" stroke-width="1.3" points="402.52,-1991.77 410.81,-1989.98 403.21,-1986.22 402.52,-1991.77"/>
</g>
<!-- hidden_RunDetail -->
<g id="node38" class="node">
<title>hidden_RunDetail</title>
<path fill="#431407" stroke="#fb923c" d="M544,-1944C544,-1944 452,-1944 452,-1944 446,-1944 440,-1938 440,-1932 440,-1932 440,-1918 440,-1918 440,-1912 446,-1906 452,-1906 452,-1906 544,-1906 544,-1906 550,-1906 556,-1912 556,-1918 556,-1918 556,-1932 556,-1932 556,-1938 550,-1944 544,-1944"/>
<text text-anchor="middle" x="498" y="-1928.8" font-family="Segoe UI" font-size="14.00" fill="#e2e8f0">RunDetail</text>
<text text-anchor="middle" x="498" y="-1913.8" font-family="Segoe UI" font-size="14.00" fill="#e2e8f0">RunDetailPage</text>
</g>
<!-- navigation&#45;&gt;hidden_RunDetail -->
<g id="edge37" class="edge">
<title>navigation&#45;&gt;hidden_RunDetail</title>
<path fill="none" stroke="#fb923c" stroke-width="1.3" stroke-dasharray="5,2" d="M131.62,-1251.29C145.58,-1351.22 214.71,-1808.72 321,-1894 351.82,-1918.73 395.54,-1926.53 431.69,-1928.12"/>
<polygon fill="#fb923c" stroke="#fb923c" stroke-width="1.3" points="431.67,-1930.92 439.76,-1928.38 431.85,-1925.32 431.67,-1930.92"/>
</g>
<!-- hidden_RunPortfolio -->
<g id="node39" class="node">
<title>hidden_RunPortfolio</title>
<path fill="#431407" stroke="#fb923c" d="M553,-1881C553,-1881 443,-1881 443,-1881 437,-1881 431,-1875 431,-1869 431,-1869 431,-1855 431,-1855 431,-1849 437,-1843 443,-1843 443,-1843 553,-1843 553,-1843 559,-1843 565,-1849 565,-1855 565,-1855 565,-1869 565,-1869 565,-1875 559,-1881 553,-1881"/>
<text text-anchor="middle" x="498" y="-1865.8" font-family="Segoe UI" font-size="14.00" fill="#e2e8f0">RunPortfolio</text>
<text text-anchor="middle" x="498" y="-1850.8" font-family="Segoe UI" font-size="14.00" fill="#e2e8f0">RunPortfolioPage</text>
</g>
<!-- navigation&#45;&gt;hidden_RunPortfolio -->
<g id="edge38" class="edge">
<title>navigation&#45;&gt;hidden_RunPortfolio</title>
<path fill="none" stroke="#fb923c" stroke-width="1.3" stroke-dasharray="5,2" d="M128.29,-1251.13C126.32,-1335.65 130.63,-1678.25 321,-1831 349.34,-1853.74 388.58,-1862.16 422.82,-1864.61"/>
<polygon fill="#fb923c" stroke="#fb923c" stroke-width="1.3" points="422.8,-1867.41 430.95,-1865.08 423.13,-1861.82 422.8,-1867.41"/>
</g>
<!-- hidden_RunLedger -->
<g id="node40" class="node">
<title>hidden_RunLedger</title>
<path fill="#431407" stroke="#fb923c" d="M548.5,-1818C548.5,-1818 447.5,-1818 447.5,-1818 441.5,-1818 435.5,-1812 435.5,-1806 435.5,-1806 435.5,-1792 435.5,-1792 435.5,-1786 441.5,-1780 447.5,-1780 447.5,-1780 548.5,-1780 548.5,-1780 554.5,-1780 560.5,-1786 560.5,-1792 560.5,-1792 560.5,-1806 560.5,-1806 560.5,-1812 554.5,-1818 548.5,-1818"/>
<text text-anchor="middle" x="498" y="-1802.8" font-family="Segoe UI" font-size="14.00" fill="#e2e8f0">RunLedger</text>
<text text-anchor="middle" x="498" y="-1787.8" font-family="Segoe UI" font-size="14.00" fill="#e2e8f0">RunLedgerPage</text>
</g>
<!-- navigation&#45;&gt;hidden_RunLedger -->
<g id="edge39" class="edge">
<title>navigation&#45;&gt;hidden_RunLedger</title>
<path fill="none" stroke="#fb923c" stroke-width="1.3" stroke-dasharray="5,2" d="M129.22,-1251.11C131.24,-1329.8 150.23,-1630.98 321,-1768 350.46,-1791.64 391.7,-1799.8 426.86,-1801.87"/>
<polygon fill="#fb923c" stroke="#fb923c" stroke-width="1.3" points="427.07,-1804.68 435.19,-1802.25 427.32,-1799.09 427.07,-1804.68"/>
</g>
<!-- hidden_RunCashFlow -->
<g id="node41" class="node">
<title>hidden_RunCashFlow</title>
<path fill="#431407" stroke="#fb923c" d="M557.5,-1755C557.5,-1755 438.5,-1755 438.5,-1755 432.5,-1755 426.5,-1749 426.5,-1743 426.5,-1743 426.5,-1729 426.5,-1729 426.5,-1723 432.5,-1717 438.5,-1717 438.5,-1717 557.5,-1717 557.5,-1717 563.5,-1717 569.5,-1723 569.5,-1729 569.5,-1729 569.5,-1743 569.5,-1743 569.5,-1749 563.5,-1755 557.5,-1755"/>
<text text-anchor="middle" x="498" y="-1739.8" font-family="Segoe UI" font-size="14.00" fill="#e2e8f0">RunCashFlow</text>
<text text-anchor="middle" x="498" y="-1724.8" font-family="Segoe UI" font-size="14.00" fill="#e2e8f0">RunCashFlowPage</text>
</g>
<!-- navigation&#45;&gt;hidden_RunCashFlow -->
<g id="edge40" class="edge">
<title>navigation&#45;&gt;hidden_RunCashFlow</title>
<path fill="none" stroke="#fb923c" stroke-width="1.3" stroke-dasharray="5,2" d="M130.37,-1251.2C136.64,-1323.85 169.31,-1583.92 321,-1705 348.05,-1726.59 384.94,-1735.25 417.96,-1738.15"/>
<polygon fill="#fb923c" stroke="#fb923c" stroke-width="1.3" points="418.08,-1740.97 426.27,-1738.77 418.5,-1735.38 418.08,-1740.97"/>
</g>
<!-- hidden_RunRisk -->
<g id="node42" class="node">
<title>hidden_RunRisk</title>
<path fill="#431407" stroke="#fb923c" d="M539,-1692C539,-1692 457,-1692 457,-1692 451,-1692 445,-1686 445,-1680 445,-1680 445,-1666 445,-1666 445,-1660 451,-1654 457,-1654 457,-1654 539,-1654 539,-1654 545,-1654 551,-1660 551,-1666 551,-1666 551,-1680 551,-1680 551,-1686 545,-1692 539,-1692"/>
<text text-anchor="middle" x="498" y="-1676.8" font-family="Segoe UI" font-size="14.00" fill="#e2e8f0">RunRisk</text>
<text text-anchor="middle" x="498" y="-1661.8" font-family="Segoe UI" font-size="14.00" fill="#e2e8f0">RunRiskPage</text>
</g>
<!-- navigation&#45;&gt;hidden_RunRisk -->
<g id="edge41" class="edge">
<title>navigation&#45;&gt;hidden_RunRisk</title>
<path fill="none" stroke="#fb923c" stroke-width="1.3" stroke-dasharray="5,2" d="M131.73,-1251.34C142.19,-1317.86 186.22,-1538.77 321,-1642 353.75,-1667.08 399.95,-1674.47 436.8,-1675.78"/>
<polygon fill="#fb923c" stroke="#fb923c" stroke-width="1.3" points="436.92,-1678.59 444.99,-1675.98 437.06,-1672.99 436.92,-1678.59"/>
</g>
<!-- hidden_CollectionSessions -->
<g id="node43" class="node">
<title>hidden_CollectionSessions</title>
<path fill="#431407" stroke="#fb923c" d="M571,-1629C571,-1629 425,-1629 425,-1629 419,-1629 413,-1623 413,-1617 413,-1617 413,-1603 413,-1603 413,-1597 419,-1591 425,-1591 425,-1591 571,-1591 571,-1591 577,-1591 583,-1597 583,-1603 583,-1603 583,-1617 583,-1617 583,-1623 577,-1629 571,-1629"/>
<text text-anchor="middle" x="498" y="-1613.8" font-family="Segoe UI" font-size="14.00" fill="#e2e8f0">CollectionSessions</text>
<text text-anchor="middle" x="498" y="-1598.8" font-family="Segoe UI" font-size="14.00" fill="#e2e8f0">CollectionSessionPage</text>
</g>
<!-- navigation&#45;&gt;hidden_CollectionSessions -->
<g id="edge42" class="edge">
<title>navigation&#45;&gt;hidden_CollectionSessions</title>
<path fill="none" stroke="#fb923c" stroke-width="1.3" stroke-dasharray="5,2" d="M133.43,-1251.29C148.24,-1311.02 201.91,-1494.01 321,-1579 345.12,-1596.22 375.75,-1604.9 404.66,-1609.02"/>
<polygon fill="#fb923c" stroke="#fb923c" stroke-width="1.3" points="404.47,-1611.82 412.76,-1610.07 405.19,-1606.27 404.47,-1611.82"/>
</g>
<!-- hidden_ArchiveHealth -->
<g id="node44" class="node">
<title>hidden_ArchiveHealth</title>
<path fill="#431407" stroke="#fb923c" d="M559,-1566C559,-1566 437,-1566 437,-1566 431,-1566 425,-1560 425,-1554 425,-1554 425,-1540 425,-1540 425,-1534 431,-1528 437,-1528 437,-1528 559,-1528 559,-1528 565,-1528 571,-1534 571,-1540 571,-1540 571,-1554 571,-1554 571,-1560 565,-1566 559,-1566"/>
<text text-anchor="middle" x="498" y="-1550.8" font-family="Segoe UI" font-size="14.00" fill="#e2e8f0">ArchiveHealth</text>
<text text-anchor="middle" x="498" y="-1535.8" font-family="Segoe UI" font-size="14.00" fill="#e2e8f0">ArchiveHealthPage</text>
</g>
<!-- navigation&#45;&gt;hidden_ArchiveHealth -->
<g id="edge43" class="edge">
<title>navigation&#45;&gt;hidden_ArchiveHealth</title>
<path fill="none" stroke="#fb923c" stroke-width="1.3" stroke-dasharray="5,2" d="M135.76,-1251.1C155.3,-1303.26 217.14,-1448.64 321,-1516 349.08,-1534.21 384.74,-1542.58 416.61,-1546.16"/>
<polygon fill="#fb923c" stroke="#fb923c" stroke-width="1.3" points="416.38,-1548.96 424.62,-1546.98 416.94,-1543.38 416.38,-1548.96"/>
</g>
<!-- hidden_ServiceManager -->
<g id="node45" class="node">
<title>hidden_ServiceManager</title>
<path fill="#431407" stroke="#fb923c" d="M566.5,-1503C566.5,-1503 429.5,-1503 429.5,-1503 423.5,-1503 417.5,-1497 417.5,-1491 417.5,-1491 417.5,-1477 417.5,-1477 417.5,-1471 423.5,-1465 429.5,-1465 429.5,-1465 566.5,-1465 566.5,-1465 572.5,-1465 578.5,-1471 578.5,-1477 578.5,-1477 578.5,-1491 578.5,-1491 578.5,-1497 572.5,-1503 566.5,-1503"/>
<text text-anchor="middle" x="498" y="-1487.8" font-family="Segoe UI" font-size="14.00" fill="#e2e8f0">ServiceManager</text>
<text text-anchor="middle" x="498" y="-1472.8" font-family="Segoe UI" font-size="14.00" fill="#e2e8f0">ServiceManagerPage</text>
</g>
<!-- navigation&#45;&gt;hidden_ServiceManager -->
<g id="edge44" class="edge">
<title>navigation&#45;&gt;hidden_ServiceManager</title>
<path fill="none" stroke="#fb923c" stroke-width="1.3" stroke-dasharray="5,2" d="M139.47,-1251.25C164.43,-1295.14 232.09,-1402.69 321,-1453 347.53,-1468.01 379.63,-1476.07 409.11,-1480.3"/>
<polygon fill="#fb923c" stroke="#fb923c" stroke-width="1.3" points="409.04,-1483.11 417.34,-1481.39 409.78,-1477.56 409.04,-1483.11"/>
</g>
<!-- hidden_DataSampling -->
<g id="node46" class="node">
<title>hidden_DataSampling</title>
<path fill="#431407" stroke="#fb923c" d="M559.5,-1440C559.5,-1440 436.5,-1440 436.5,-1440 430.5,-1440 424.5,-1434 424.5,-1428 424.5,-1428 424.5,-1414 424.5,-1414 424.5,-1408 430.5,-1402 436.5,-1402 436.5,-1402 559.5,-1402 559.5,-1402 565.5,-1402 571.5,-1408 571.5,-1414 571.5,-1414 571.5,-1428 571.5,-1428 571.5,-1434 565.5,-1440 559.5,-1440"/>
<text text-anchor="middle" x="498" y="-1424.8" font-family="Segoe UI" font-size="14.00" fill="#e2e8f0">DataSampling</text>
<text text-anchor="middle" x="498" y="-1409.8" font-family="Segoe UI" font-size="14.00" fill="#e2e8f0">DataSamplingPage</text>
</g>
<!-- navigation&#45;&gt;hidden_DataSampling -->
<g id="edge45" class="edge">
<title>navigation&#45;&gt;hidden_DataSampling</title>
<path fill="none" stroke="#fb923c" stroke-width="1.3" stroke-dasharray="5,2" d="M145.85,-1251.25C176.82,-1285.28 246.5,-1355.7 321,-1390 350.49,-1403.58 385.28,-1411.24 416.11,-1415.54"/>
<polygon fill="#fb923c" stroke="#fb923c" stroke-width="1.3" points="415.98,-1418.35 424.28,-1416.62 416.71,-1412.8 415.98,-1418.35"/>
</g>
<!-- hidden_TimeSeriesAlignment -->
<g id="node47" class="node">
<title>hidden_TimeSeriesAlignment</title>
<path fill="#431407" stroke="#fb923c" d="M584.5,-1377C584.5,-1377 411.5,-1377 411.5,-1377 405.5,-1377 399.5,-1371 399.5,-1365 399.5,-1365 399.5,-1351 399.5,-1351 399.5,-1345 405.5,-1339 411.5,-1339 411.5,-1339 584.5,-1339 584.5,-1339 590.5,-1339 596.5,-1345 596.5,-1351 596.5,-1351 596.5,-1365 596.5,-1365 596.5,-1371 590.5,-1377 584.5,-1377"/>
<text text-anchor="middle" x="498" y="-1361.8" font-family="Segoe UI" font-size="14.00" fill="#e2e8f0">TimeSeriesAlignment</text>
<text text-anchor="middle" x="498" y="-1346.8" font-family="Segoe UI" font-size="14.00" fill="#e2e8f0">TimeSeriesAlignmentPage</text>
</g>
<!-- navigation&#45;&gt;hidden_TimeSeriesAlignment -->
<g id="edge46" class="edge">
<title>navigation&#45;&gt;hidden_TimeSeriesAlignment</title>
<path fill="none" stroke="#fb923c" stroke-width="1.3" stroke-dasharray="5,2" d="M160.42,-1251.06C197.5,-1272.7 261.63,-1307.53 321,-1327 343.38,-1334.34 367.97,-1340.05 391.48,-1344.46"/>
<polygon fill="#fb923c" stroke="#fb923c" stroke-width="1.3" points="391.04,-1347.22 399.41,-1345.9 392.04,-1341.71 391.04,-1347.22"/>
</g>
<!-- hidden_ExportPresets -->
<g id="node48" class="node">
<title>hidden_ExportPresets</title>
<path fill="#431407" stroke="#fb923c" d="M559,-1314C559,-1314 437,-1314 437,-1314 431,-1314 425,-1308 425,-1302 425,-1302 425,-1288 425,-1288 425,-1282 431,-1276 437,-1276 437,-1276 559,-1276 559,-1276 565,-1276 571,-1282 571,-1288 571,-1288 571,-1302 571,-1302 571,-1308 565,-1314 559,-1314"/>
<text text-anchor="middle" x="498" y="-1298.8" font-family="Segoe UI" font-size="14.00" fill="#e2e8f0">ExportPresets</text>
<text text-anchor="middle" x="498" y="-1283.8" font-family="Segoe UI" font-size="14.00" fill="#e2e8f0">ExportPresetsPage</text>
</g>
<!-- navigation&#45;&gt;hidden_ExportPresets -->
<g id="edge47" class="edge">
<title>navigation&#45;&gt;hidden_ExportPresets</title>
<path fill="none" stroke="#fb923c" stroke-width="1.3" stroke-dasharray="5,2" d="M199.08,-1244C261.18,-1254.63 351.81,-1270.14 416.79,-1281.27"/>
<polygon fill="#fb923c" stroke="#fb923c" stroke-width="1.3" points="416.62,-1284.08 424.98,-1282.67 417.57,-1278.56 416.62,-1284.08"/>
</g>
<!-- hidden_AnalysisExport -->
<g id="node49" class="node">
<title>hidden_AnalysisExport</title>
<path fill="#431407" stroke="#fb923c" d="M562.5,-1251C562.5,-1251 433.5,-1251 433.5,-1251 427.5,-1251 421.5,-1245 421.5,-1239 421.5,-1239 421.5,-1225 421.5,-1225 421.5,-1219 427.5,-1213 433.5,-1213 433.5,-1213 562.5,-1213 562.5,-1213 568.5,-1213 574.5,-1219 574.5,-1225 574.5,-1225 574.5,-1239 574.5,-1239 574.5,-1245 568.5,-1251 562.5,-1251"/>
<text text-anchor="middle" x="498" y="-1235.8" font-family="Segoe UI" font-size="14.00" fill="#e2e8f0">AnalysisExport</text>
<text text-anchor="middle" x="498" y="-1220.8" font-family="Segoe UI" font-size="14.00" fill="#e2e8f0">AnalysisExportPage</text>
</g>
<!-- navigation&#45;&gt;hidden_AnalysisExport -->
<g id="edge48" class="edge">
<title>navigation&#45;&gt;hidden_AnalysisExport</title>
<path fill="none" stroke="#fb923c" stroke-width="1.3" stroke-dasharray="5,2" d="M199.08,-1232C260.08,-1232 348.61,-1232 413.31,-1232"/>
<polygon fill="#fb923c" stroke="#fb923c" stroke-width="1.3" points="413.48,-1234.8 421.48,-1232 413.48,-1229.2 413.48,-1234.8"/>
</g>
<!-- hidden_AnalysisExportWizard -->
<g id="node50" class="node">
<title>hidden_AnalysisExportWizard</title>
<path fill="#431407" stroke="#fb923c" d="M586,-1188C586,-1188 410,-1188 410,-1188 404,-1188 398,-1182 398,-1176 398,-1176 398,-1162 398,-1162 398,-1156 404,-1150 410,-1150 410,-1150 586,-1150 586,-1150 592,-1150 598,-1156 598,-1162 598,-1162 598,-1176 598,-1176 598,-1182 592,-1188 586,-1188"/>
<text text-anchor="middle" x="498" y="-1172.8" font-family="Segoe UI" font-size="14.00" fill="#e2e8f0">AnalysisExportWizard</text>
<text text-anchor="middle" x="498" y="-1157.8" font-family="Segoe UI" font-size="14.00" fill="#e2e8f0">AnalysisExportWizardPage</text>
</g>
<!-- navigation&#45;&gt;hidden_AnalysisExportWizard -->
<g id="edge49" class="edge">
<title>navigation&#45;&gt;hidden_AnalysisExportWizard</title>
<path fill="none" stroke="#fb923c" stroke-width="1.3" stroke-dasharray="5,2" d="M199.08,-1220C252.97,-1210.78 328.35,-1197.87 389.8,-1187.35"/>
<polygon fill="#fb923c" stroke="#fb923c" stroke-width="1.3" points="390.57,-1190.06 397.99,-1185.95 389.63,-1184.54 390.57,-1190.06"/>
</g>
<!-- hidden_EventReplay -->
<g id="node51" class="node">
<title>hidden_EventReplay</title>
<path fill="#431407" stroke="#fb923c" d="M554,-1125C554,-1125 442,-1125 442,-1125 436,-1125 430,-1119 430,-1113 430,-1113 430,-1099 430,-1099 430,-1093 436,-1087 442,-1087 442,-1087 554,-1087 554,-1087 560,-1087 566,-1093 566,-1099 566,-1099 566,-1113 566,-1113 566,-1119 560,-1125 554,-1125"/>
<text text-anchor="middle" x="498" y="-1109.8" font-family="Segoe UI" font-size="14.00" fill="#e2e8f0">EventReplay</text>
<text text-anchor="middle" x="498" y="-1094.8" font-family="Segoe UI" font-size="14.00" fill="#e2e8f0">EventReplayPage</text>
</g>
<!-- navigation&#45;&gt;hidden_EventReplay -->
<g id="edge50" class="edge">
<title>navigation&#45;&gt;hidden_EventReplay</title>
<path fill="none" stroke="#fb923c" stroke-width="1.3" stroke-dasharray="5,2" d="M199.32,-1221.07C218.47,-1216.32 238.68,-1209.56 256,-1200 290.95,-1180.71 285.42,-1156.11 321,-1138 351.87,-1122.29 389.26,-1114.19 421.62,-1110.06"/>
<polygon fill="#fb923c" stroke="#fb923c" stroke-width="1.3" points="422.12,-1112.82 429.73,-1109.09 421.45,-1107.26 422.12,-1112.82"/>
</g>
<!-- hidden_AdvancedAnalytics -->
<g id="node52" class="node">
<title>hidden_AdvancedAnalytics</title>
<path fill="#431407" stroke="#fb923c" d="M576.5,-1062C576.5,-1062 419.5,-1062 419.5,-1062 413.5,-1062 407.5,-1056 407.5,-1050 407.5,-1050 407.5,-1036 407.5,-1036 407.5,-1030 413.5,-1024 419.5,-1024 419.5,-1024 576.5,-1024 576.5,-1024 582.5,-1024 588.5,-1030 588.5,-1036 588.5,-1036 588.5,-1050 588.5,-1050 588.5,-1056 582.5,-1062 576.5,-1062"/>
<text text-anchor="middle" x="498" y="-1046.8" font-family="Segoe UI" font-size="14.00" fill="#e2e8f0">AdvancedAnalytics</text>
<text text-anchor="middle" x="498" y="-1031.8" font-family="Segoe UI" font-size="14.00" fill="#e2e8f0">AdvancedAnalyticsPage</text>
</g>
<!-- navigation&#45;&gt;hidden_AdvancedAnalytics -->
<g id="edge51" class="edge">
<title>navigation&#45;&gt;hidden_AdvancedAnalytics</title>
<path fill="none" stroke="#fb923c" stroke-width="1.3" stroke-dasharray="5,2" d="M199.04,-1225.25C219.03,-1220.59 239.77,-1212.83 256,-1200 305.12,-1161.16 270.61,-1112.17 321,-1075 343.41,-1058.47 371.7,-1049.6 399.02,-1045.04"/>
<polygon fill="#fb923c" stroke="#fb923c" stroke-width="1.3" points="399.58,-1047.78 407.07,-1043.81 398.74,-1042.25 399.58,-1047.78"/>
</g>
<!-- hidden_DataCalendar -->
<g id="node53" class="node">
<title>hidden_DataCalendar</title>
<path fill="#431407" stroke="#fb923c" d="M558,-999C558,-999 438,-999 438,-999 432,-999 426,-993 426,-987 426,-987 426,-973 426,-973 426,-967 432,-961 438,-961 438,-961 558,-961 558,-961 564,-961 570,-967 570,-973 570,-973 570,-987 570,-987 570,-993 564,-999 558,-999"/>
<text text-anchor="middle" x="498" y="-983.8" font-family="Segoe UI" font-size="14.00" fill="#e2e8f0">DataCalendar</text>
<text text-anchor="middle" x="498" y="-968.8" font-family="Segoe UI" font-size="14.00" fill="#e2e8f0">DataCalendarPage</text>
</g>
<!-- navigation&#45;&gt;hidden_DataCalendar -->
<g id="edge52" class="edge">
<title>navigation&#45;&gt;hidden_DataCalendar</title>
<path fill="none" stroke="#fb923c" stroke-width="1.3" stroke-dasharray="5,2" d="M199.27,-1226.91C219.62,-1222.34 240.5,-1214.22 256,-1200 321.15,-1140.23 253.89,-1069.55 321,-1012 347.3,-989.45 384.09,-980.47 417.24,-977.53"/>
<polygon fill="#fb923c" stroke="#fb923c" stroke-width="1.3" points="417.82,-980.29 425.59,-976.9 417.4,-974.71 417.82,-980.29"/>
</g>
<!-- hidden_StorageOptimization -->
<g id="node54" class="node">
<title>hidden_StorageOptimization</title>
<path fill="#431407" stroke="#fb923c" d="M582,-936C582,-936 414,-936 414,-936 408,-936 402,-930 402,-924 402,-924 402,-910 402,-910 402,-904 408,-898 414,-898 414,-898 582,-898 582,-898 588,-898 594,-904 594,-910 594,-910 594,-924 594,-924 594,-930 588,-936 582,-936"/>
<text text-anchor="middle" x="498" y="-920.8" font-family="Segoe UI" font-size="14.00" fill="#e2e8f0">StorageOptimization</text>
<text text-anchor="middle" x="498" y="-905.8" font-family="Segoe UI" font-size="14.00" fill="#e2e8f0">StorageOptimizationPage</text>
</g>
<!-- navigation&#45;&gt;hidden_StorageOptimization -->
<g id="edge53" class="edge">
<title>navigation&#45;&gt;hidden_StorageOptimization</title>
<path fill="none" stroke="#fb923c" stroke-width="1.3" stroke-dasharray="5,2" d="M199.17,-1228.05C219.87,-1223.56 240.98,-1215.21 256,-1200 336.96,-1118 235.45,-1026.21 321,-949 340.85,-931.09 367.25,-921.6 393.56,-916.9"/>
<polygon fill="#fb923c" stroke="#fb923c" stroke-width="1.3" points="394.26,-919.63 401.71,-915.6 393.37,-914.1 394.26,-919.63"/>
</g>
<!-- hidden_RetentionAssurance -->
<g id="node55" class="node">
<title>hidden_RetentionAssurance</title>
<path fill="#431407" stroke="#fb923c" d="M580,-873C580,-873 416,-873 416,-873 410,-873 404,-867 404,-861 404,-861 404,-847 404,-847 404,-841 410,-835 416,-835 416,-835 580,-835 580,-835 586,-835 592,-841 592,-847 592,-847 592,-861 592,-861 592,-867 586,-873 580,-873"/>
<text text-anchor="middle" x="498" y="-857.8" font-family="Segoe UI" font-size="14.00" fill="#e2e8f0">RetentionAssurance</text>
<text text-anchor="middle" x="498" y="-842.8" font-family="Segoe UI" font-size="14.00" fill="#e2e8f0">RetentionAssurancePage</text>
</g>
<!-- navigation&#45;&gt;hidden_RetentionAssurance -->
<g id="edge54" class="edge">
<title>navigation&#45;&gt;hidden_RetentionAssurance</title>
<path fill="none" stroke="#fb923c" stroke-width="1.3" stroke-dasharray="5,2" d="M199.16,-1228.82C220.12,-1224.41 241.38,-1215.9 256,-1200 304.23,-1147.54 267.77,-933.37 321,-886 341.48,-867.77 368.77,-858.31 395.73,-853.74"/>
<polygon fill="#fb923c" stroke="#fb923c" stroke-width="1.3" points="396.21,-856.5 403.7,-852.52 395.37,-850.96 396.21,-856.5"/>
</g>
<!-- hidden_MessagingHub -->
<g id="node56" class="node">
<title>hidden_MessagingHub</title>
<path fill="#431407" stroke="#fb923c" d="M562,-810C562,-810 434,-810 434,-810 428,-810 422,-804 422,-798 422,-798 422,-784 422,-784 422,-778 428,-772 434,-772 434,-772 562,-772 562,-772 568,-772 574,-778 574,-784 574,-784 574,-798 574,-798 574,-804 568,-810 562,-810"/>
<text text-anchor="middle" x="498" y="-794.8" font-family="Segoe UI" font-size="14.00" fill="#e2e8f0">MessagingHub</text>
<text text-anchor="middle" x="498" y="-779.8" font-family="Segoe UI" font-size="14.00" fill="#e2e8f0">MessagingHubPage</text>
</g>
<!-- navigation&#45;&gt;hidden_MessagingHub -->
<g id="edge55" class="edge">
<title>navigation&#45;&gt;hidden_MessagingHub</title>
<path fill="none" stroke="#fb923c" stroke-width="1.3" stroke-dasharray="5,2" d="M199.31,-1228.95C220.27,-1224.55 241.5,-1216.01 256,-1200 313.06,-1136.98 259.94,-882.15 321,-823 345.26,-799.49 380.69,-790.19 413.4,-787.26"/>
<polygon fill="#fb923c" stroke="#fb923c" stroke-width="1.3" points="413.88,-790.03 421.65,-786.64 413.47,-784.44 413.88,-790.03"/>
</g>
<!-- hidden_ResearchShell -->
<g id="node57" class="node">
<title>hidden_ResearchShell</title>
<path fill="#431407" stroke="#fb923c" d="M597,-747C597,-747 399,-747 399,-747 393,-747 387,-741 387,-735 387,-735 387,-721 387,-721 387,-715 393,-709 399,-709 399,-709 597,-709 597,-709 603,-709 609,-715 609,-721 609,-721 609,-735 609,-735 609,-741 603,-747 597,-747"/>
<text text-anchor="middle" x="498" y="-731.8" font-family="Segoe UI" font-size="14.00" fill="#e2e8f0">ResearchShell</text>
<text text-anchor="middle" x="498" y="-716.8" font-family="Segoe UI" font-size="14.00" fill="#e2e8f0">ResearchWorkspaceShellPage</text>
</g>
<!-- navigation&#45;&gt;hidden_ResearchShell -->
<g id="edge56" class="edge">
<title>navigation&#45;&gt;hidden_ResearchShell</title>
<path fill="none" stroke="#fb923c" stroke-width="1.3" stroke-dasharray="5,2" d="M199.26,-1229.27C220.35,-1224.91 241.67,-1216.31 256,-1200 321.24,-1125.75 250.06,-828.83 321,-760 336.78,-744.69 357.3,-735.4 378.72,-729.97"/>
<polygon fill="#fb923c" stroke="#fb923c" stroke-width="1.3" points="379.48,-732.67 386.65,-728.14 378.22,-727.21 379.48,-732.67"/>
</g>
<!-- hidden_TradingShell -->
<g id="node58" class="node">
<title>hidden_TradingShell</title>
<path fill="#431407" stroke="#fb923c" d="M591.5,-684C591.5,-684 404.5,-684 404.5,-684 398.5,-684 392.5,-678 392.5,-672 392.5,-672 392.5,-658 392.5,-658 392.5,-652 398.5,-646 404.5,-646 404.5,-646 591.5,-646 591.5,-646 597.5,-646 603.5,-652 603.5,-658 603.5,-658 603.5,-672 603.5,-672 603.5,-678 597.5,-684 591.5,-684"/>
<text text-anchor="middle" x="498" y="-668.8" font-family="Segoe UI" font-size="14.00" fill="#e2e8f0">TradingShell</text>
<text text-anchor="middle" x="498" y="-653.8" font-family="Segoe UI" font-size="14.00" fill="#e2e8f0">TradingWorkspaceShellPage</text>
</g>
<!-- navigation&#45;&gt;hidden_TradingShell -->
<g id="edge57" class="edge">
<title>navigation&#45;&gt;hidden_TradingShell</title>
<path fill="none" stroke="#fb923c" stroke-width="1.3" stroke-dasharray="5,2" d="M199.15,-1229.53C220.36,-1225.2 241.78,-1216.56 256,-1200 329.43,-1114.5 239.48,-774.83 321,-697 338.26,-680.53 361,-671.06 384.39,-665.87"/>
<polygon fill="#fb923c" stroke="#fb923c" stroke-width="1.3" points="385.05,-668.6 392.34,-664.28 383.95,-663.11 385.05,-668.6"/>
</g>
<!-- hidden_Workspaces -->
<g id="node59" class="node">
<title>hidden_Workspaces</title>
<path fill="#431407" stroke="#fb923c" d="M548.5,-621C548.5,-621 447.5,-621 447.5,-621 441.5,-621 435.5,-615 435.5,-609 435.5,-609 435.5,-595 435.5,-595 435.5,-589 441.5,-583 447.5,-583 447.5,-583 548.5,-583 548.5,-583 554.5,-583 560.5,-589 560.5,-595 560.5,-595 560.5,-609 560.5,-609 560.5,-615 554.5,-621 548.5,-621"/>
<text text-anchor="middle" x="498" y="-605.8" font-family="Segoe UI" font-size="14.00" fill="#e2e8f0">Workspaces</text>
<text text-anchor="middle" x="498" y="-590.8" font-family="Segoe UI" font-size="14.00" fill="#e2e8f0">WorkspacePage</text>
</g>
<!-- navigation&#45;&gt;hidden_Workspaces -->
<g id="edge58" class="edge">
<title>navigation&#45;&gt;hidden_Workspaces</title>
<path fill="none" stroke="#fb923c" stroke-width="1.3" stroke-dasharray="5,2" d="M199.3,-1229.66C220.52,-1225.34 241.91,-1216.67 256,-1200 337.74,-1103.32 228.61,-720.56 321,-634 349.13,-607.65 391.35,-599.32 427.39,-597.74"/>
<polygon fill="#fb923c" stroke="#fb923c" stroke-width="1.3" points="427.54,-600.54 435.45,-597.5 427.37,-594.94 427.54,-600.54"/>
</g>
<!-- hidden_NotificationCenter -->
<g id="node60" class="node">
<title>hidden_NotificationCenter</title>
<path fill="#431407" stroke="#fb923c" d="M573.5,-558C573.5,-558 422.5,-558 422.5,-558 416.5,-558 410.5,-552 410.5,-546 410.5,-546 410.5,-532 410.5,-532 410.5,-526 416.5,-520 422.5,-520 422.5,-520 573.5,-520 573.5,-520 579.5,-520 585.5,-526 585.5,-532 585.5,-532 585.5,-546 585.5,-546 585.5,-552 579.5,-558 573.5,-558"/>
<text text-anchor="middle" x="498" y="-542.8" font-family="Segoe UI" font-size="14.00" fill="#e2e8f0">NotificationCenter</text>
<text text-anchor="middle" x="498" y="-527.8" font-family="Segoe UI" font-size="14.00" fill="#e2e8f0">NotificationCenterPage</text>
</g>
<!-- navigation&#45;&gt;hidden_NotificationCenter -->
<g id="edge59" class="edge">
<title>navigation&#45;&gt;hidden_NotificationCenter</title>
<path fill="none" stroke="#fb923c" stroke-width="1.3" stroke-dasharray="5,2" d="M199.07,-1229.81C220.41,-1225.52 241.92,-1216.83 256,-1200 346.15,-1092.21 217.73,-666.3 321,-571 342.8,-550.88 372.83,-541.32 401.92,-537.24"/>
<polygon fill="#fb923c" stroke="#fb923c" stroke-width="1.3" points="402.5,-539.99 410.1,-536.23 401.81,-534.43 402.5,-539.99"/>
</g>
<!-- hidden_Help -->
<g id="node61" class="node">
<title>hidden_Help</title>
<path fill="#431407" stroke="#fb923c" d="M526.5,-495C526.5,-495 469.5,-495 469.5,-495 463.5,-495 457.5,-489 457.5,-483 457.5,-483 457.5,-469 457.5,-469 457.5,-463 463.5,-457 469.5,-457 469.5,-457 526.5,-457 526.5,-457 532.5,-457 538.5,-463 538.5,-469 538.5,-469 538.5,-483 538.5,-483 538.5,-489 532.5,-495 526.5,-495"/>
<text text-anchor="middle" x="498" y="-479.8" font-family="Segoe UI" font-size="14.00" fill="#e2e8f0">Help</text>
<text text-anchor="middle" x="498" y="-464.8" font-family="Segoe UI" font-size="14.00" fill="#e2e8f0">HelpPage</text>
</g>
<!-- navigation&#45;&gt;hidden_Help -->
<g id="edge60" class="edge">
<title>navigation&#45;&gt;hidden_Help</title>
<path fill="none" stroke="#fb923c" stroke-width="1.3" stroke-dasharray="5,2" d="M199.15,-1229.88C220.49,-1225.59 241.99,-1216.89 256,-1200 297.66,-1149.8 281.34,-678.36 292,-614 299.98,-565.81 284.99,-541 321,-508 355.31,-476.56 409.75,-470.96 449,-471.73"/>
<polygon fill="#fb923c" stroke="#fb923c" stroke-width="1.3" points="449.05,-474.53 457.14,-471.98 449.23,-468.93 449.05,-474.53"/>
</g>
<!-- hidden_Welcome -->
<g id="node62" class="node">
<title>hidden_Welcome</title>
<path fill="#431407" stroke="#fb923c" d="M542,-432C542,-432 454,-432 454,-432 448,-432 442,-426 442,-420 442,-420 442,-406 442,-406 442,-400 448,-394 454,-394 454,-394 542,-394 542,-394 548,-394 554,-400 554,-406 554,-406 554,-420 554,-420 554,-426 548,-432 542,-432"/>
<text text-anchor="middle" x="498" y="-416.8" font-family="Segoe UI" font-size="14.00" fill="#e2e8f0">Welcome</text>
<text text-anchor="middle" x="498" y="-401.8" font-family="Segoe UI" font-size="14.00" fill="#e2e8f0">WelcomePage</text>
</g>
<!-- navigation&#45;&gt;hidden_Welcome -->
<g id="edge61" class="edge">
<title>navigation&#45;&gt;hidden_Welcome</title>
<path fill="none" stroke="#fb923c" stroke-width="1.3" stroke-dasharray="5,2" d="M199.16,-1229.89C220.51,-1225.6 242,-1216.89 256,-1200 309.73,-1135.17 261.38,-504.45 321,-445 350.03,-416.05 395.92,-408.45 433.57,-407.88"/>
<polygon fill="#fb923c" stroke="#fb923c" stroke-width="1.3" points="433.96,-410.67 441.96,-407.86 433.95,-405.07 433.96,-410.67"/>
</g>
<!-- hidden_CredentialManagement -->
<g id="node63" class="node">
<title>hidden_CredentialManagement</title>
<path fill="#431407" stroke="#fb923c" d="M591.5,-369C591.5,-369 404.5,-369 404.5,-369 398.5,-369 392.5,-363 392.5,-357 392.5,-357 392.5,-343 392.5,-343 392.5,-337 398.5,-331 404.5,-331 404.5,-331 591.5,-331 591.5,-331 597.5,-331 603.5,-337 603.5,-343 603.5,-343 603.5,-357 603.5,-357 603.5,-363 597.5,-369 591.5,-369"/>
<text text-anchor="middle" x="498" y="-353.8" font-family="Segoe UI" font-size="14.00" fill="#e2e8f0">CredentialManagement</text>
<text text-anchor="middle" x="498" y="-338.8" font-family="Segoe UI" font-size="14.00" fill="#e2e8f0">CredentialManagementPage</text>
</g>
<!-- navigation&#45;&gt;hidden_CredentialManagement -->
<g id="edge62" class="edge">
<title>navigation&#45;&gt;hidden_CredentialManagement</title>
<path fill="none" stroke="#fb923c" stroke-width="1.3" stroke-dasharray="5,2" d="M199.18,-1229.9C220.53,-1225.62 242.02,-1216.91 256,-1200 314.11,-1129.74 257.67,-447.59 321,-382 337.76,-364.64 360.57,-354.87 384.2,-349.68"/>
<polygon fill="#fb923c" stroke="#fb923c" stroke-width="1.3" points="384.94,-352.39 392.24,-348.09 383.85,-346.89 384.94,-352.39"/>
</g>
<!-- hidden_KeyboardShortcuts -->
<g id="node64" class="node">
<title>hidden_KeyboardShortcuts</title>
<path fill="#431407" stroke="#fb923c" d="M576.5,-306C576.5,-306 419.5,-306 419.5,-306 413.5,-306 407.5,-300 407.5,-294 407.5,-294 407.5,-280 407.5,-280 407.5,-274 413.5,-268 419.5,-268 419.5,-268 576.5,-268 576.5,-268 582.5,-268 588.5,-274 588.5,-280 588.5,-280 588.5,-294 588.5,-294 588.5,-300 582.5,-306 576.5,-306"/>
<text text-anchor="middle" x="498" y="-290.8" font-family="Segoe UI" font-size="14.00" fill="#e2e8f0">KeyboardShortcuts</text>
<text text-anchor="middle" x="498" y="-275.8" font-family="Segoe UI" font-size="14.00" fill="#e2e8f0">KeyboardShortcutsPage</text>
</g>
<!-- navigation&#45;&gt;hidden_KeyboardShortcuts -->
<g id="edge63" class="edge">
<title>navigation&#45;&gt;hidden_KeyboardShortcuts</title>
<path fill="none" stroke="#fb923c" stroke-width="1.3" stroke-dasharray="5,2" d="M199.24,-1229.95C220.59,-1225.67 242.06,-1216.95 256,-1200 318.34,-1124.18 252.67,-389.46 321,-319 341.36,-298.01 370.54,-288.13 399.31,-284.03"/>
<polygon fill="#fb923c" stroke="#fb923c" stroke-width="1.3" points="399.82,-286.79 407.41,-283.02 399.12,-281.23 399.82,-286.79"/>
</g>
<!-- hidden_SetupWizard -->
<g id="node65" class="node">
<title>hidden_SetupWizard</title>
<path fill="#431407" stroke="#fb923c" d="M554.5,-243C554.5,-243 441.5,-243 441.5,-243 435.5,-243 429.5,-237 429.5,-231 429.5,-231 429.5,-217 429.5,-217 429.5,-211 435.5,-205 441.5,-205 441.5,-205 554.5,-205 554.5,-205 560.5,-205 566.5,-211 566.5,-217 566.5,-217 566.5,-231 566.5,-231 566.5,-237 560.5,-243 554.5,-243"/>
<text text-anchor="middle" x="498" y="-227.8" font-family="Segoe UI" font-size="14.00" fill="#e2e8f0">SetupWizard</text>
<text text-anchor="middle" x="498" y="-212.8" font-family="Segoe UI" font-size="14.00" fill="#e2e8f0">SetupWizardPage</text>
</g>
<!-- navigation&#45;&gt;hidden_SetupWizard -->
<g id="edge64" class="edge">
<title>navigation&#45;&gt;hidden_SetupWizard</title>
<path fill="none" stroke="#fb923c" stroke-width="1.3" stroke-dasharray="5,2" d="M199.29,-1229.99C220.64,-1225.71 242.11,-1216.98 256,-1200 322.57,-1118.63 247.57,-331.24 321,-256 346.6,-229.76 386.01,-220.92 421.05,-219.01"/>
<polygon fill="#fb923c" stroke="#fb923c" stroke-width="1.3" points="421.51,-221.79 429.39,-218.67 421.28,-216.19 421.51,-221.79"/>
</g>
<!-- hidden_AddProviderWizard -->
<g id="node66" class="node">
<title>hidden_AddProviderWizard</title>
<path fill="#431407" stroke="#fb923c" d="M576.5,-180C576.5,-180 419.5,-180 419.5,-180 413.5,-180 407.5,-174 407.5,-168 407.5,-168 407.5,-154 407.5,-154 407.5,-148 413.5,-142 419.5,-142 419.5,-142 576.5,-142 576.5,-142 582.5,-142 588.5,-148 588.5,-154 588.5,-154 588.5,-168 588.5,-168 588.5,-174 582.5,-180 576.5,-180"/>
<text text-anchor="middle" x="498" y="-164.8" font-family="Segoe UI" font-size="14.00" fill="#e2e8f0">AddProviderWizard</text>
<text text-anchor="middle" x="498" y="-149.8" font-family="Segoe UI" font-size="14.00" fill="#e2e8f0">AddProviderWizardPage</text>
</g>
<!-- navigation&#45;&gt;hidden_AddProviderWizard -->
<g id="edge65" class="edge">
<title>navigation&#45;&gt;hidden_AddProviderWizard</title>
<path fill="none" stroke="#fb923c" stroke-width="1.3" stroke-dasharray="5,2" d="M199.33,-1230.02C220.68,-1225.74 242.14,-1217.01 256,-1200 326.82,-1113.07 242.38,-272.94 321,-193 341.4,-172.26 370.45,-162.41 399.07,-158.26"/>
<polygon fill="#fb923c" stroke="#fb923c" stroke-width="1.3" points="399.54,-161.03 407.13,-157.24 398.84,-155.47 399.54,-161.03"/>
</g>
<!-- hidden_ActivityLog -->
<g id="node67" class="node">
<title>hidden_ActivityLog</title>
<path fill="#431407" stroke="#fb923c" d="M548.5,-117C548.5,-117 447.5,-117 447.5,-117 441.5,-117 435.5,-111 435.5,-105 435.5,-105 435.5,-91 435.5,-91 435.5,-85 441.5,-79 447.5,-79 447.5,-79 548.5,-79 548.5,-79 554.5,-79 560.5,-85 560.5,-91 560.5,-91 560.5,-105 560.5,-105 560.5,-111 554.5,-117 548.5,-117"/>
<text text-anchor="middle" x="498" y="-101.8" font-family="Segoe UI" font-size="14.00" fill="#e2e8f0">ActivityLog</text>
<text text-anchor="middle" x="498" y="-86.8" font-family="Segoe UI" font-size="14.00" fill="#e2e8f0">ActivityLogPage</text>
</g>
<!-- navigation&#45;&gt;hidden_ActivityLog -->
<g id="edge66" class="edge">
<title>navigation&#45;&gt;hidden_ActivityLog</title>
<path fill="none" stroke="#fb923c" stroke-width="1.3" stroke-dasharray="5,2" d="M199.03,-1230.12C220.5,-1225.87 242.1,-1217.12 256,-1200 331.07,-1107.52 237.03,-214.47 321,-130 348.28,-102.56 390.69,-94.25 427.04,-92.95"/>
<polygon fill="#fb923c" stroke="#fb923c" stroke-width="1.3" points="427.24,-95.74 435.17,-92.77 427.11,-90.15 427.24,-95.74"/>
</g>
<!-- hidden_SecurityMaster -->
<g id="node68" class="node">
<title>hidden_SecurityMaster</title>
<path fill="#431407" stroke="#fb923c" d="M563,-54C563,-54 433,-54 433,-54 427,-54 421,-48 421,-42 421,-42 421,-28 421,-28 421,-22 427,-16 433,-16 433,-16 563,-16 563,-16 569,-16 575,-22 575,-28 575,-28 575,-42 575,-42 575,-48 569,-54 563,-54"/>
<text text-anchor="middle" x="498" y="-38.8" font-family="Segoe UI" font-size="14.00" fill="#e2e8f0">SecurityMaster</text>
<text text-anchor="middle" x="498" y="-23.8" font-family="Segoe UI" font-size="14.00" fill="#e2e8f0">SecurityMasterPage</text>
</g>
<!-- navigation&#45;&gt;hidden_SecurityMaster -->
<g id="edge67" class="edge">
<title>navigation&#45;&gt;hidden_SecurityMaster</title>
<path fill="none" stroke="#fb923c" stroke-width="1.3" stroke-dasharray="5,2" d="M199.06,-1230.14C220.53,-1225.89 242.13,-1217.15 256,-1200 335.32,-1101.98 231.5,-155.83 321,-67 344.88,-43.3 380.06,-33.93 412.7,-31"/>
<polygon fill="#fb923c" stroke="#fb923c" stroke-width="1.3" points="413.17,-33.77 420.94,-30.39 412.75,-28.19 413.17,-33.77"/>
</g>
<!-- page_Dashboard -->
<g id="node5" class="node">
<title>page_Dashboard</title>
<path fill="#1e293b" stroke="#475569" d="M1006.5,-2477C1006.5,-2477 809.5,-2477 809.5,-2477 803.5,-2477 797.5,-2471 797.5,-2465 797.5,-2465 797.5,-2451 797.5,-2451 797.5,-2445 803.5,-2439 809.5,-2439 809.5,-2439 1006.5,-2439 1006.5,-2439 1012.5,-2439 1018.5,-2445 1018.5,-2451 1018.5,-2451 1018.5,-2465 1018.5,-2465 1018.5,-2471 1012.5,-2477 1006.5,-2477"/>
<text text-anchor="middle" x="908" y="-2461.8" font-family="Segoe UI" font-size="14.00" fill="#e2e8f0">Dashboard</text>
<text text-anchor="middle" x="908" y="-2446.8" font-family="Segoe UI" font-size="14.00" fill="#e2e8f0">Dashboard → DashboardPage</text>
</g>
<!-- workspace_1&#45;&gt;page_Dashboard -->
<g id="edge3" class="edge">
<title>workspace_1&#45;&gt;page_Dashboard</title>
<path fill="none" stroke="#94a3b8" stroke-width="1.3" d="M498.98,-3162.91C500.03,-3071.07 517.6,-2671.71 740,-2490 754.3,-2478.31 771.59,-2470.43 789.54,-2465.19"/>
<polygon fill="#94a3b8" stroke="#94a3b8" stroke-width="1.3" points="790.28,-2467.89 797.27,-2463.1 788.82,-2462.48 790.28,-2467.89"/>
</g>
<!-- page_LiveData -->
<g id="node6" class="node">
<title>page_LiveData</title>
<path fill="#1e293b" stroke="#475569" d="M1014.5,-2540C1014.5,-2540 801.5,-2540 801.5,-2540 795.5,-2540 789.5,-2534 789.5,-2528 789.5,-2528 789.5,-2514 789.5,-2514 789.5,-2508 795.5,-2502 801.5,-2502 801.5,-2502 1014.5,-2502 1014.5,-2502 1020.5,-2502 1026.5,-2508 1026.5,-2514 1026.5,-2514 1026.5,-2528 1026.5,-2528 1026.5,-2534 1020.5,-2540 1014.5,-2540"/>
<text text-anchor="middle" x="908" y="-2524.8" font-family="Segoe UI" font-size="14.00" fill="#e2e8f0">LiveData</text>
<text text-anchor="middle" x="908" y="-2509.8" font-family="Segoe UI" font-size="14.00" fill="#e2e8f0">LiveData → LiveDataViewerPage</text>
</g>
<!-- workspace_1&#45;&gt;page_LiveData -->
<g id="edge4" class="edge">
<title>workspace_1&#45;&gt;page_LiveData</title>
<path fill="none" stroke="#94a3b8" stroke-width="1.3" d="M499.85,-3162.74C504.77,-3076.01 537.15,-2718.74 740,-2553 752.17,-2543.06 766.49,-2535.87 781.55,-2530.71"/>
<polygon fill="#94a3b8" stroke="#94a3b8" stroke-width="1.3" points="782.71,-2533.29 789.49,-2528.2 781.02,-2527.95 782.71,-2533.29"/>
</g>
<!-- page_Charts -->
<g id="node7" class="node">
<title>page_Charts</title>
<path fill="#1e293b" stroke="#475569" d="M984,-2603C984,-2603 832,-2603 832,-2603 826,-2603 820,-2597 820,-2591 820,-2591 820,-2577 820,-2577 820,-2571 826,-2565 832,-2565 832,-2565 984,-2565 984,-2565 990,-2565 996,-2571 996,-2577 996,-2577 996,-2591 996,-2591 996,-2597 990,-2603 984,-2603"/>
<text text-anchor="middle" x="908" y="-2587.8" font-family="Segoe UI" font-size="14.00" fill="#e2e8f0">Charts</text>
<text text-anchor="middle" x="908" y="-2572.8" font-family="Segoe UI" font-size="14.00" fill="#e2e8f0">Charts → ChartingPage</text>
</g>
<!-- workspace_1&#45;&gt;page_Charts -->
<g id="edge5" class="edge">
<title>workspace_1&#45;&gt;page_Charts</title>
<path fill="none" stroke="#94a3b8" stroke-width="1.3" d="M500.83,-3162.85C509.64,-3081.89 555.25,-2765.03 740,-2616 760.3,-2599.62 786.48,-2590.74 812.07,-2586.13"/>
<polygon fill="#94a3b8" stroke="#94a3b8" stroke-width="1.3" points="812.54,-2588.89 819.98,-2584.83 811.64,-2583.36 812.54,-2588.89"/>
</g>
<!-- page_QuantScript -->
<g id="node8" class="node">
<title>page_QuantScript</title>
<path fill="#1e293b" stroke="#475569" d="M1014.5,-2666C1014.5,-2666 801.5,-2666 801.5,-2666 795.5,-2666 789.5,-2660 789.5,-2654 789.5,-2654 789.5,-2640 789.5,-2640 789.5,-2634 795.5,-2628 801.5,-2628 801.5,-2628 1014.5,-2628 1014.5,-2628 1020.5,-2628 1026.5,-2634 1026.5,-2640 1026.5,-2640 1026.5,-2654 1026.5,-2654 1026.5,-2660 1020.5,-2666 1014.5,-2666"/>
<text text-anchor="middle" x="908" y="-2650.8" font-family="Segoe UI" font-size="14.00" fill="#e2e8f0">QuantScript</text>
<text text-anchor="middle" x="908" y="-2635.8" font-family="Segoe UI" font-size="14.00" fill="#e2e8f0">QuantScript → QuantScriptPage</text>
</g>
<!-- workspace_1&#45;&gt;page_QuantScript -->
<g id="edge6" class="edge">
<title>workspace_1&#45;&gt;page_QuantScript</title>
<path fill="none" stroke="#94a3b8" stroke-width="1.3" d="M501.9,-3162.93C514.43,-3087.69 571.08,-2809.2 740,-2679 752.25,-2669.56 766.47,-2662.65 781.35,-2657.62"/>
<polygon fill="#94a3b8" stroke="#94a3b8" stroke-width="1.3" points="782.39,-2660.22 789.18,-2655.15 780.71,-2654.88 782.39,-2660.22"/>
</g>
<!-- page_RunMat -->
<g id="node9" class="node">
<title>page_RunMat</title>
<path fill="#1e293b" stroke="#475569" d="M984,-2729C984,-2729 832,-2729 832,-2729 826,-2729 820,-2723 820,-2717 820,-2717 820,-2703 820,-2703 820,-2697 826,-2691 832,-2691 832,-2691 984,-2691 984,-2691 990,-2691 996,-2697 996,-2703 996,-2703 996,-2717 996,-2717 996,-2723 990,-2729 984,-2729"/>
<text text-anchor="middle" x="908" y="-2713.8" font-family="Segoe UI" font-size="14.00" fill="#e2e8f0">RunMat</text>
<text text-anchor="middle" x="908" y="-2698.8" font-family="Segoe UI" font-size="14.00" fill="#e2e8f0">RunMat → RunMatPage</text>
</g>
<!-- workspace_1&#45;&gt;page_RunMat -->
<g id="edge7" class="edge">
<title>workspace_1&#45;&gt;page_RunMat</title>
<path fill="none" stroke="#94a3b8" stroke-width="1.3" d="M503.32,-3162.71C519.98,-3093.15 586.88,-2853.53 740,-2742 760.67,-2726.94 786.47,-2718.41 811.57,-2713.72"/>
<polygon fill="#94a3b8" stroke="#94a3b8" stroke-width="1.3" points="812.27,-2716.44 819.68,-2712.32 811.33,-2710.92 812.27,-2716.44"/>
</g>
<!-- page_StrategyRuns -->
<g id="node10" class="node">
<title>page_StrategyRuns</title>
<path fill="#1e293b" stroke="#475569" d="M1025,-2792C1025,-2792 791,-2792 791,-2792 785,-2792 779,-2786 779,-2780 779,-2780 779,-2766 779,-2766 779,-2760 785,-2754 791,-2754 791,-2754 1025,-2754 1025,-2754 1031,-2754 1037,-2760 1037,-2766 1037,-2766 1037,-2780 1037,-2780 1037,-2786 1031,-2792 1025,-2792"/>
<text text-anchor="middle" x="908" y="-2776.8" font-family="Segoe UI" font-size="14.00" fill="#e2e8f0">StrategyRuns</text>
<text text-anchor="middle" x="908" y="-2761.8" font-family="Segoe UI" font-size="14.00" fill="#e2e8f0">StrategyRuns → StrategyRunsPage</text>
</g>
<!-- workspace_1&#45;&gt;page_StrategyRuns -->
<g id="edge8" class="edge">
<title>workspace_1&#45;&gt;page_StrategyRuns</title>
<path fill="none" stroke="#94a3b8" stroke-width="1.3" d="M511.14,-3162.83C545.37,-3117.08 644.1,-3000.09 704,-2889 725.63,-2848.89 705.17,-2822.38 740,-2793 749.35,-2785.12 760.04,-2778.94 771.41,-2774.19"/>
<polygon fill="#94a3b8" stroke="#94a3b8" stroke-width="1.3" points="772.51,-2776.77 778.96,-2771.27 770.49,-2771.54 772.51,-2776.77"/>
</g>
<!-- workspace_1&#45;&gt;page_StrategyRuns -->
<g id="edge12" class="edge">
<title>workspace_1&#45;&gt;page_StrategyRuns</title>
<path fill="none" stroke="#94a3b8" stroke-width="1.3" d="M522.64,-3162.74C563.91,-3119.75 649.83,-3014.46 704,-2914 725.63,-2873.89 705.17,-2847.38 740,-2818 752.51,-2807.45 767.43,-2799.97 783.13,-2794.59"/>
<polygon fill="#94a3b8" stroke="#94a3b8" stroke-width="1.3" points="784.12,-2797.21 790.9,-2792.11 782.42,-2791.88 784.12,-2797.21"/>
</g>
<!-- page_OrderBook -->
<g id="node11" class="node">
<title>page_OrderBook</title>
<path fill="#1e293b" stroke="#475569" d="M1005.5,-2855C1005.5,-2855 810.5,-2855 810.5,-2855 804.5,-2855 798.5,-2849 798.5,-2843 798.5,-2843 798.5,-2829 798.5,-2829 798.5,-2823 804.5,-2817 810.5,-2817 810.5,-2817 1005.5,-2817 1005.5,-2817 1011.5,-2817 1017.5,-2823 1017.5,-2829 1017.5,-2829 1017.5,-2843 1017.5,-2843 1017.5,-2849 1011.5,-2855 1005.5,-2855"/>
<text text-anchor="middle" x="908" y="-2839.8" font-family="Segoe UI" font-size="14.00" fill="#e2e8f0">OrderBook</text>
<text text-anchor="middle" x="908" y="-2824.8" font-family="Segoe UI" font-size="14.00" fill="#e2e8f0">OrderBook → OrderBookPage</text>
</g>
<!-- workspace_1&#45;&gt;page_OrderBook -->
<g id="edge9" class="edge">
<title>workspace_1&#45;&gt;page_OrderBook</title>
<path fill="none" stroke="#94a3b8" stroke-width="1.3" d="M536.38,-3162.83C583.04,-3136.9 661.83,-3086.18 704,-3020 741.31,-2961.45 689.86,-2916.02 740,-2868 753.9,-2854.69 771.55,-2846.08 790.13,-2840.65"/>
<polygon fill="#94a3b8" stroke="#94a3b8" stroke-width="1.3" points="791.14,-2843.28 798.15,-2838.51 789.7,-2837.87 791.14,-2843.28"/>
</g>
<!-- page_Watchlist -->
<g id="node12" class="node">
<title>page_Watchlist</title>
<path fill="#1e293b" stroke="#475569" d="M994.5,-2918C994.5,-2918 821.5,-2918 821.5,-2918 815.5,-2918 809.5,-2912 809.5,-2906 809.5,-2906 809.5,-2892 809.5,-2892 809.5,-2886 815.5,-2880 821.5,-2880 821.5,-2880 994.5,-2880 994.5,-2880 1000.5,-2880 1006.5,-2886 1006.5,-2892 1006.5,-2892 1006.5,-2906 1006.5,-2906 1006.5,-2912 1000.5,-2918 994.5,-2918"/>
<text text-anchor="middle" x="908" y="-2902.8" font-family="Segoe UI" font-size="14.00" fill="#e2e8f0">Watchlist</text>
<text text-anchor="middle" x="908" y="-2887.8" font-family="Segoe UI" font-size="14.00" fill="#e2e8f0">Watchlist → WatchlistPage</text>
</g>
<!-- workspace_1&#45;&gt;page_Watchlist -->
<g id="edge10" class="edge">
<title>workspace_1&#45;&gt;page_Watchlist</title>
<path fill="none" stroke="#94a3b8" stroke-width="1.3" d="M560.01,-3167.79C606.27,-3153.86 667.86,-3127.99 704,-3083 747.48,-3028.87 689.86,-2979.02 740,-2931 756.69,-2915.02 778.78,-2905.82 801.42,-2900.75"/>
<polygon fill="#94a3b8" stroke="#94a3b8" stroke-width="1.3" points="802.15,-2903.45 809.44,-2899.12 801.04,-2897.97 802.15,-2903.45"/>
</g>
<!-- page_Backtest -->
<g id="node13" class="node">
<title>page_Backtest</title>
<path fill="#1e293b" stroke="#475569" d="M991.5,-2981C991.5,-2981 824.5,-2981 824.5,-2981 818.5,-2981 812.5,-2975 812.5,-2969 812.5,-2969 812.5,-2955 812.5,-2955 812.5,-2949 818.5,-2943 824.5,-2943 824.5,-2943 991.5,-2943 991.5,-2943 997.5,-2943 1003.5,-2949 1003.5,-2955 1003.5,-2955 1003.5,-2969 1003.5,-2969 1003.5,-2975 997.5,-2981 991.5,-2981"/>
<text text-anchor="middle" x="908" y="-2965.8" font-family="Segoe UI" font-size="14.00" fill="#e2e8f0">Backtest</text>
<text text-anchor="middle" x="908" y="-2950.8" font-family="Segoe UI" font-size="14.00" fill="#e2e8f0">Backtest → BacktestPage</text>
</g>
<!-- workspace_1&#45;&gt;page_Backtest -->
<g id="edge11" class="edge">
<title>workspace_1&#45;&gt;page_Backtest</title>
<path fill="none" stroke="#94a3b8" stroke-width="1.3" d="M560.33,-3178.05C605.83,-3171.91 666.29,-3156.48 704,-3118 744.17,-3077.02 697.57,-3032.64 740,-2994 757.65,-2977.93 780.81,-2968.81 804.24,-2963.87"/>
<polygon fill="#94a3b8" stroke="#94a3b8" stroke-width="1.3" points="804.85,-2966.6 812.19,-2962.35 803.8,-2961.1 804.85,-2966.6"/>
</g>
<!-- page_LeanIntegration -->
<g id="node14" class="node">
<title>page_LeanIntegration</title>
<path fill="#1e293b" stroke="#475569" d="M1041,-3044C1041,-3044 775,-3044 775,-3044 769,-3044 763,-3038 763,-3032 763,-3032 763,-3018 763,-3018 763,-3012 769,-3006 775,-3006 775,-3006 1041,-3006 1041,-3006 1047,-3006 1053,-3012 1053,-3018 1053,-3018 1053,-3032 1053,-3032 1053,-3038 1047,-3044 1041,-3044"/>
<text text-anchor="middle" x="908" y="-3028.8" font-family="Segoe UI" font-size="14.00" fill="#e2e8f0">LeanIntegration</text>
<text text-anchor="middle" x="908" y="-3013.8" font-family="Segoe UI" font-size="14.00" fill="#e2e8f0">LeanIntegration → LeanIntegrationPage</text>
</g>
<!-- workspace_1&#45;&gt;page_LeanIntegration -->
<g id="edge13" class="edge">
<title>workspace_1&#45;&gt;page_LeanIntegration</title>
<path fill="none" stroke="#94a3b8" stroke-width="1.3" d="M560.43,-3183.4C604.81,-3181.29 663.77,-3171.66 704,-3139 734.9,-3113.91 708.88,-3081.82 740,-3057 744.95,-3053.05 750.24,-3049.54 755.78,-3046.42"/>
<polygon fill="#94a3b8" stroke="#94a3b8" stroke-width="1.3" points="757.15,-3048.87 762.93,-3042.68 754.55,-3043.91 757.15,-3048.87"/>
</g>
<!-- page_PortfolioImport -->
<g id="node15" class="node">
<title>page_PortfolioImport</title>
<path fill="#1e293b" stroke="#475569" d="M1035,-3107C1035,-3107 781,-3107 781,-3107 775,-3107 769,-3101 769,-3095 769,-3095 769,-3081 769,-3081 769,-3075 775,-3069 781,-3069 781,-3069 1035,-3069 1035,-3069 1041,-3069 1047,-3075 1047,-3081 1047,-3081 1047,-3095 1047,-3095 1047,-3101 1041,-3107 1035,-3107"/>
<text text-anchor="middle" x="908" y="-3091.8" font-family="Segoe UI" font-size="14.00" fill="#e2e8f0">PortfolioImport</text>
<text text-anchor="middle" x="908" y="-3076.8" font-family="Segoe UI" font-size="14.00" fill="#e2e8f0">PortfolioImport → PortfolioImportPage</text>
</g>
<!-- workspace_1&#45;&gt;page_PortfolioImport -->
<g id="edge14" class="edge">
<title>workspace_1&#45;&gt;page_PortfolioImport</title>
<path fill="none" stroke="#94a3b8" stroke-width="1.3" d="M560.28,-3181.55C602.41,-3179.17 658.7,-3171.8 704,-3151 723.19,-3142.19 720.99,-3129.19 740,-3120 748.12,-3116.08 756.68,-3112.63 765.46,-3109.61"/>
<polygon fill="#94a3b8" stroke="#94a3b8" stroke-width="1.3" points="766.5,-3112.22 773.23,-3107.06 764.75,-3106.9 766.5,-3112.22"/>
</g>
<!-- page_TradingHours -->
<g id="node16" class="node">
<title>page_TradingHours</title>
<path fill="#1e293b" stroke="#475569" d="M1024.5,-3170C1024.5,-3170 791.5,-3170 791.5,-3170 785.5,-3170 779.5,-3164 779.5,-3158 779.5,-3158 779.5,-3144 779.5,-3144 779.5,-3138 785.5,-3132 791.5,-3132 791.5,-3132 1024.5,-3132 1024.5,-3132 1030.5,-3132 1036.5,-3138 1036.5,-3144 1036.5,-3144 1036.5,-3158 1036.5,-3158 1036.5,-3164 1030.5,-3170 1024.5,-3170"/>
<text text-anchor="middle" x="908" y="-3154.8" font-family="Segoe UI" font-size="14.00" fill="#e2e8f0">TradingHours</text>
<text text-anchor="middle" x="908" y="-3139.8" font-family="Segoe UI" font-size="14.00" fill="#e2e8f0">TradingHours → TradingHoursPage</text>
</g>
<!-- workspace_1&#45;&gt;page_TradingHours -->
<g id="edge15" class="edge">
<title>workspace_1&#45;&gt;page_TradingHours</title>
<path fill="none" stroke="#94a3b8" stroke-width="1.3" d="M560.08,-3177.36C615.63,-3173.14 699.58,-3166.76 770.99,-3161.33"/>
<polygon fill="#94a3b8" stroke="#94a3b8" stroke-width="1.3" points="771.42,-3164.11 779.19,-3160.71 771,-3158.53 771.42,-3164.11"/>
</g>
<!-- page_PositionBlotter -->
<g id="node17" class="node">
<title>page_PositionBlotter</title>
<path fill="#1e293b" stroke="#475569" d="M1032,-3233C1032,-3233 784,-3233 784,-3233 778,-3233 772,-3227 772,-3221 772,-3221 772,-3207 772,-3207 772,-3201 778,-3195 784,-3195 784,-3195 1032,-3195 1032,-3195 1038,-3195 1044,-3201 1044,-3207 1044,-3207 1044,-3221 1044,-3221 1044,-3227 1038,-3233 1032,-3233"/>
<text text-anchor="middle" x="908" y="-3217.8" font-family="Segoe UI" font-size="14.00" fill="#e2e8f0">PositionBlotter</text>
<text text-anchor="middle" x="908" y="-3202.8" font-family="Segoe UI" font-size="14.00" fill="#e2e8f0">PositionBlotter → PositionBlotterPage</text>
</g>
<!-- workspace_1&#45;&gt;page_PositionBlotter -->
<g id="edge16" class="edge">
<title>workspace_1&#45;&gt;page_PositionBlotter</title>
<path fill="none" stroke="#94a3b8" stroke-width="1.3" d="M560.08,-3186.79C613.81,-3191 694.11,-3197.3 763.93,-3202.78"/>
<polygon fill="#94a3b8" stroke="#94a3b8" stroke-width="1.3" points="763.76,-3205.57 771.96,-3203.41 764.2,-3199.99 763.76,-3205.57"/>
</g>
<!-- page_DirectLending -->
<g id="node18" class="node">
<title>page_DirectLending</title>
<path fill="#1e293b" stroke="#475569" d="M1027.5,-3296C1027.5,-3296 788.5,-3296 788.5,-3296 782.5,-3296 776.5,-3290 776.5,-3284 776.5,-3284 776.5,-3270 776.5,-3270 776.5,-3264 782.5,-3258 788.5,-3258 788.5,-3258 1027.5,-3258 1027.5,-3258 1033.5,-3258 1039.5,-3264 1039.5,-3270 1039.5,-3270 1039.5,-3284 1039.5,-3284 1039.5,-3290 1033.5,-3296 1027.5,-3296"/>
<text text-anchor="middle" x="908" y="-3280.8" font-family="Segoe UI" font-size="14.00" fill="#e2e8f0">DirectLending</text>
<text text-anchor="middle" x="908" y="-3265.8" font-family="Segoe UI" font-size="14.00" fill="#e2e8f0">DirectLending → DirectLendingPage</text>
</g>
<!-- workspace_1&#45;&gt;page_DirectLending -->
<g id="edge17" class="edge">
<title>workspace_1&#45;&gt;page_DirectLending</title>
<path fill="none" stroke="#94a3b8" stroke-width="1.3" d="M560.1,-3199.6C608.62,-3213.25 678.34,-3232.11 740,-3246 755.95,-3249.59 772.82,-3253.08 789.46,-3256.35"/>
<polygon fill="#94a3b8" stroke="#94a3b8" stroke-width="1.3" points="789.22,-3259.15 797.61,-3257.93 790.29,-3253.65 789.22,-3259.15"/>
</g>
<!-- page_Provider -->
<g id="node19" class="node">
<title>page_Provider</title>
<path fill="#1e293b" stroke="#475569" d="M988.5,-3359C988.5,-3359 827.5,-3359 827.5,-3359 821.5,-3359 815.5,-3353 815.5,-3347 815.5,-3347 815.5,-3333 815.5,-3333 815.5,-3327 821.5,-3321 827.5,-3321 827.5,-3321 988.5,-3321 988.5,-3321 994.5,-3321 1000.5,-3327 1000.5,-3333 1000.5,-3333 1000.5,-3347 1000.5,-3347 1000.5,-3353 994.5,-3359 988.5,-3359"/>
<text text-anchor="middle" x="908" y="-3343.8" font-family="Segoe UI" font-size="14.00" fill="#e2e8f0">Provider</text>
<text text-anchor="middle" x="908" y="-3328.8" font-family="Segoe UI" font-size="14.00" fill="#e2e8f0">Provider → ProviderPage</text>
</g>
<!-- workspace_1&#45;&gt;page_Provider -->
<g id="edge18" class="edge">
<title>workspace_1&#45;&gt;page_Provider</title>
<path fill="none" stroke="#94a3b8" stroke-width="1.3" d="M528.11,-3201.08C572.14,-3229.06 659.14,-3280.92 740,-3309 761.31,-3316.4 784.79,-3322.14 807.24,-3326.56"/>
<polygon fill="#94a3b8" stroke="#94a3b8" stroke-width="1.3" points="806.75,-3329.32 815.14,-3328.07 807.8,-3323.82 806.75,-3329.32"/>
</g>
<!-- page_Symbols -->
<g id="node20" class="node">
<title>page_Symbols</title>
<path fill="#1e293b" stroke="#475569" d="M990.5,-3422C990.5,-3422 825.5,-3422 825.5,-3422 819.5,-3422 813.5,-3416 813.5,-3410 813.5,-3410 813.5,-3396 813.5,-3396 813.5,-3390 819.5,-3384 825.5,-3384 825.5,-3384 990.5,-3384 990.5,-3384 996.5,-3384 1002.5,-3390 1002.5,-3396 1002.5,-3396 1002.5,-3410 1002.5,-3410 1002.5,-3416 996.5,-3422 990.5,-3422"/>
<text text-anchor="middle" x="908" y="-3406.8" font-family="Segoe UI" font-size="14.00" fill="#e2e8f0">Symbols</text>
<text text-anchor="middle" x="908" y="-3391.8" font-family="Segoe UI" font-size="14.00" fill="#e2e8f0">Symbols → SymbolsPage</text>
</g>
<!-- workspace_1&#45;&gt;page_Symbols -->
<g id="edge19" class="edge">
<title>workspace_1&#45;&gt;page_Symbols</title>
<path fill="none" stroke="#94a3b8" stroke-width="1.3" d="M516.55,-3201.02C553.68,-3239.96 644.64,-3328.78 740,-3372 760.21,-3381.16 782.97,-3387.62 805.04,-3392.16"/>
<polygon fill="#94a3b8" stroke="#94a3b8" stroke-width="1.3" points="804.74,-3394.96 813.13,-3393.75 805.82,-3389.46 804.74,-3394.96"/>
</g>
<!-- page_Backfill -->
<g id="node21" class="node">
<title>page_Backfill</title>
<path fill="#1e293b" stroke="#475569" d="M981.5,-3485C981.5,-3485 834.5,-3485 834.5,-3485 828.5,-3485 822.5,-3479 822.5,-3473 822.5,-3473 822.5,-3459 822.5,-3459 822.5,-3453 828.5,-3447 834.5,-3447 834.5,-3447 981.5,-3447 981.5,-3447 987.5,-3447 993.5,-3453 993.5,-3459 993.5,-3459 993.5,-3473 993.5,-3473 993.5,-3479 987.5,-3485 981.5,-3485"/>
<text text-anchor="middle" x="908" y="-3469.8" font-family="Segoe UI" font-size="14.00" fill="#e2e8f0">Backfill</text>
<text text-anchor="middle" x="908" y="-3454.8" font-family="Segoe UI" font-size="14.00" fill="#e2e8f0">Backfill → BackfillPage</text>
</g>
<!-- workspace_1&#45;&gt;page_Backfill -->
<g id="edge20" class="edge">
<title>workspace_1&#45;&gt;page_Backfill</title>
<path fill="none" stroke="#94a3b8" stroke-width="1.3" d="M510.87,-3201.07C541.9,-3249.16 630.66,-3375.75 740,-3435 762.58,-3447.23 789.11,-3454.73 814.31,-3459.3"/>
<polygon fill="#94a3b8" stroke="#94a3b8" stroke-width="1.3" points="814.08,-3462.1 822.43,-3460.68 815.02,-3456.58 814.08,-3462.1"/>
</g>
<!-- page_Storage -->
<g id="node22" class="node">
<title>page_Storage</title>
<path fill="#1e293b" stroke="#475569" d="M985.5,-3548C985.5,-3548 830.5,-3548 830.5,-3548 824.5,-3548 818.5,-3542 818.5,-3536 818.5,-3536 818.5,-3522 818.5,-3522 818.5,-3516 824.5,-3510 830.5,-3510 830.5,-3510 985.5,-3510 985.5,-3510 991.5,-3510 997.5,-3516 997.5,-3522 997.5,-3522 997.5,-3536 997.5,-3536 997.5,-3542 991.5,-3548 985.5,-3548"/>
<text text-anchor="middle" x="908" y="-3532.8" font-family="Segoe UI" font-size="14.00" fill="#e2e8f0">Storage</text>
<text text-anchor="middle" x="908" y="-3517.8" font-family="Segoe UI" font-size="14.00" fill="#e2e8f0">Storage → StoragePage</text>
</g>
<!-- workspace_1&#45;&gt;page_Storage -->
<g id="edge21" class="edge">
<title>workspace_1&#45;&gt;page_Storage</title>
<path fill="none" stroke="#94a3b8" stroke-width="1.3" d="M507.41,-3201.19C533.08,-3257.3 616.29,-3421.92 740,-3498 760.87,-3510.84 785.8,-3518.61 809.94,-3523.25"/>
<polygon fill="#94a3b8" stroke="#94a3b8" stroke-width="1.3" points="809.72,-3526.05 818.09,-3524.7 810.7,-3520.54 809.72,-3526.05"/>
</g>
<!-- page_DataExport -->
<g id="node23" class="node">
<title>page_DataExport</title>
<path fill="#1e293b" stroke="#475569" d="M1009.5,-3611C1009.5,-3611 806.5,-3611 806.5,-3611 800.5,-3611 794.5,-3605 794.5,-3599 794.5,-3599 794.5,-3585 794.5,-3585 794.5,-3579 800.5,-3573 806.5,-3573 806.5,-3573 1009.5,-3573 1009.5,-3573 1015.5,-3573 1021.5,-3579 1021.5,-3585 1021.5,-3585 1021.5,-3599 1021.5,-3599 1021.5,-3605 1015.5,-3611 1009.5,-3611"/>
<text text-anchor="middle" x="908" y="-3595.8" font-family="Segoe UI" font-size="14.00" fill="#e2e8f0">DataExport</text>
<text text-anchor="middle" x="908" y="-3580.8" font-family="Segoe UI" font-size="14.00" fill="#e2e8f0">DataExport → DataExportPage</text>
</g>
<!-- workspace_1&#45;&gt;page_DataExport -->
<g id="edge22" class="edge">
<title>workspace_1&#45;&gt;page_DataExport</title>
<path fill="none" stroke="#94a3b8" stroke-width="1.3" d="M505.02,-3201.27C525.86,-3264.57 601.39,-3467.39 740,-3561 753.86,-3570.36 769.78,-3577.09 786.16,-3581.91"/>
<polygon fill="#94a3b8" stroke="#94a3b8" stroke-width="1.3" points="785.77,-3584.71 794.23,-3584.12 787.25,-3579.3 785.77,-3584.71"/>
</g>
<!-- page_PackageManager -->
<g id="node24" class="node">
<title>page_PackageManager</title>
<path fill="#1e293b" stroke="#475569" d="M1048.5,-3674C1048.5,-3674 767.5,-3674 767.5,-3674 761.5,-3674 755.5,-3668 755.5,-3662 755.5,-3662 755.5,-3648 755.5,-3648 755.5,-3642 761.5,-3636 767.5,-3636 767.5,-3636 1048.5,-3636 1048.5,-3636 1054.5,-3636 1060.5,-3642 1060.5,-3648 1060.5,-3648 1060.5,-3662 1060.5,-3662 1060.5,-3668 1054.5,-3674 1048.5,-3674"/>
<text text-anchor="middle" x="908" y="-3658.8" font-family="Segoe UI" font-size="14.00" fill="#e2e8f0">PackageManager</text>
<text text-anchor="middle" x="908" y="-3643.8" font-family="Segoe UI" font-size="14.00" fill="#e2e8f0">PackageManager → PackageManagerPage</text>
</g>
<!-- workspace_1&#45;&gt;page_PackageManager -->
<g id="edge23" class="edge">
<title>workspace_1&#45;&gt;page_PackageManager</title>
<path fill="none" stroke="#94a3b8" stroke-width="1.3" d="M503.27,-3201.41C519.75,-3271.37 586.12,-3512.38 740,-3624 744.15,-3627.01 748.51,-3629.76 753.03,-3632.26"/>
<polygon fill="#94a3b8" stroke="#94a3b8" stroke-width="1.3" points="751.86,-3634.8 760.25,-3635.99 754.43,-3629.83 751.86,-3634.8"/>
</g>
<!-- page_DataQuality -->
<g id="node25" class="node">
<title>page_DataQuality</title>
<path fill="#1e293b" stroke="#475569" d="M1013,-3737C1013,-3737 803,-3737 803,-3737 797,-3737 791,-3731 791,-3725 791,-3725 791,-3711 791,-3711 791,-3705 797,-3699 803,-3699 803,-3699 1013,-3699 1013,-3699 1019,-3699 1025,-3705 1025,-3711 1025,-3711 1025,-3725 1025,-3725 1025,-3731 1019,-3737 1013,-3737"/>
<text text-anchor="middle" x="908" y="-3721.8" font-family="Segoe UI" font-size="14.00" fill="#e2e8f0">DataQuality</text>
<text text-anchor="middle" x="908" y="-3706.8" font-family="Segoe UI" font-size="14.00" fill="#e2e8f0">DataQuality → DataQualityPage</text>
</g>
<!-- workspace_1&#45;&gt;page_DataQuality -->
<g id="edge24" class="edge">
<title>workspace_1&#45;&gt;page_DataQuality</title>
<path fill="none" stroke="#94a3b8" stroke-width="1.3" d="M501.86,-3201.17C514.2,-3276.82 570.26,-3556.74 740,-3687 752.77,-3696.8 767.68,-3703.83 783.24,-3708.82"/>
<polygon fill="#94a3b8" stroke="#94a3b8" stroke-width="1.3" points="782.46,-3711.51 790.93,-3711.11 784.06,-3706.14 782.46,-3711.51"/>
</g>
<!-- page_ProviderHealth -->
<g id="node26" class="node">
<title>page_ProviderHealth</title>
<path fill="#1e293b" stroke="#475569" d="M1033.5,-3800C1033.5,-3800 782.5,-3800 782.5,-3800 776.5,-3800 770.5,-3794 770.5,-3788 770.5,-3788 770.5,-3774 770.5,-3774 770.5,-3768 776.5,-3762 782.5,-3762 782.5,-3762 1033.5,-3762 1033.5,-3762 1039.5,-3762 1045.5,-3768 1045.5,-3774 1045.5,-3774 1045.5,-3788 1045.5,-3788 1045.5,-3794 1039.5,-3800 1033.5,-3800"/>
<text text-anchor="middle" x="908" y="-3784.8" font-family="Segoe UI" font-size="14.00" fill="#e2e8f0">ProviderHealth</text>
<text text-anchor="middle" x="908" y="-3769.8" font-family="Segoe UI" font-size="14.00" fill="#e2e8f0">ProviderHealth → ProviderHealthPage</text>
</g>
<!-- workspace_1&#45;&gt;page_ProviderHealth -->
<g id="edge25" class="edge">
<title>workspace_1&#45;&gt;page_ProviderHealth</title>
<path fill="none" stroke="#94a3b8" stroke-width="1.3" d="M500.78,-3201.24C509.41,-3282.59 554.36,-3600.94 740,-3750 746.95,-3755.58 754.6,-3760.28 762.66,-3764.22"/>
<polygon fill="#94a3b8" stroke="#94a3b8" stroke-width="1.3" points="761.75,-3766.88 770.19,-3767.63 764.06,-3761.78 761.75,-3766.88"/>
</g>
<!-- page_SystemHealth -->
<g id="node27" class="node">
<title>page_SystemHealth</title>
<path fill="#1e293b" stroke="#475569" d="M1028,-3863C1028,-3863 788,-3863 788,-3863 782,-3863 776,-3857 776,-3851 776,-3851 776,-3837 776,-3837 776,-3831 782,-3825 788,-3825 788,-3825 1028,-3825 1028,-3825 1034,-3825 1040,-3831 1040,-3837 1040,-3837 1040,-3851 1040,-3851 1040,-3857 1034,-3863 1028,-3863"/>
<text text-anchor="middle" x="908" y="-3847.8" font-family="Segoe UI" font-size="14.00" fill="#e2e8f0">SystemHealth</text>
<text text-anchor="middle" x="908" y="-3832.8" font-family="Segoe UI" font-size="14.00" fill="#e2e8f0">SystemHealth → SystemHealthPage</text>
</g>
<!-- workspace_1&#45;&gt;page_SystemHealth -->
<g id="edge26" class="edge">
<title>workspace_1&#45;&gt;page_SystemHealth</title>
<path fill="none" stroke="#94a3b8" stroke-width="1.3" d="M499.78,-3201.06C504.44,-3287.69 535.88,-3647.21 740,-3813 748.56,-3819.96 758.19,-3825.54 768.39,-3830.01"/>
<polygon fill="#94a3b8" stroke="#94a3b8" stroke-width="1.3" points="767.45,-3832.65 775.91,-3833.07 769.56,-3827.46 767.45,-3832.65"/>
</g>
<!-- page_Diagnostics -->
<g id="node28" class="node">
<title>page_Diagnostics</title>
<path fill="#1e293b" stroke="#475569" d="M1011.5,-3926C1011.5,-3926 804.5,-3926 804.5,-3926 798.5,-3926 792.5,-3920 792.5,-3914 792.5,-3914 792.5,-3900 792.5,-3900 792.5,-3894 798.5,-3888 804.5,-3888 804.5,-3888 1011.5,-3888 1011.5,-3888 1017.5,-3888 1023.5,-3894 1023.5,-3900 1023.5,-3900 1023.5,-3914 1023.5,-3914 1023.5,-3920 1017.5,-3926 1011.5,-3926"/>
<text text-anchor="middle" x="908" y="-3910.8" font-family="Segoe UI" font-size="14.00" fill="#e2e8f0">Diagnostics</text>
<text text-anchor="middle" x="908" y="-3895.8" font-family="Segoe UI" font-size="14.00" fill="#e2e8f0">Diagnostics → DiagnosticsPage</text>
</g>
<!-- workspace_1&#45;&gt;page_Diagnostics -->
<g id="edge27" class="edge">
<title>workspace_1&#45;&gt;page_Diagnostics</title>
<path fill="none" stroke="#94a3b8" stroke-width="1.3" d="M498.94,-3201.18C499.77,-3293.42 516.5,-3694.47 740,-3876 752.88,-3886.46 768.18,-3893.83 784.19,-3898.94"/>
<polygon fill="#94a3b8" stroke="#94a3b8" stroke-width="1.3" points="783.64,-3901.7 792.11,-3901.28 785.23,-3896.33 783.64,-3901.7"/>
</g>
<!-- page_Settings -->
<g id="node29" class="node">
<title>page_Settings</title>
<path fill="#1e293b" stroke="#475569" d="M988.5,-3989C988.5,-3989 827.5,-3989 827.5,-3989 821.5,-3989 815.5,-3983 815.5,-3977 815.5,-3977 815.5,-3963 815.5,-3963 815.5,-3957 821.5,-3951 827.5,-3951 827.5,-3951 988.5,-3951 988.5,-3951 994.5,-3951 1000.5,-3957 1000.5,-3963 1000.5,-3963 1000.5,-3977 1000.5,-3977 1000.5,-3983 994.5,-3989 988.5,-3989"/>
<text text-anchor="middle" x="908" y="-3973.8" font-family="Segoe UI" font-size="14.00" fill="#e2e8f0">Settings</text>
<text text-anchor="middle" x="908" y="-3958.8" font-family="Segoe UI" font-size="14.00" fill="#e2e8f0">Settings → SettingsPage</text>
</g>
<!-- workspace_1&#45;&gt;page_Settings -->
<g id="edge28" class="edge">
<title>workspace_1&#45;&gt;page_Settings</title>
<path fill="none" stroke="#94a3b8" stroke-width="1.3" d="M502.2,-3201.1C520.63,-3308.85 616.82,-3839.35 740,-3939 758.95,-3954.33 783.07,-3962.99 807.05,-3967.69"/>
<polygon fill="#94a3b8" stroke="#94a3b8" stroke-width="1.3" points="806.8,-3970.49 815.17,-3969.14 807.79,-3964.98 806.8,-3970.49"/>
</g>
<!-- page_AdminMaintenance -->
<g id="node30" class="node">
<title>page_AdminMaintenance</title>
<path fill="#1e293b" stroke="#475569" d="M1064,-4052C1064,-4052 752,-4052 752,-4052 746,-4052 740,-4046 740,-4040 740,-4040 740,-4026 740,-4026 740,-4020 746,-4014 752,-4014 752,-4014 1064,-4014 1064,-4014 1070,-4014 1076,-4020 1076,-4026 1076,-4026 1076,-4040 1076,-4040 1076,-4046 1070,-4052 1064,-4052"/>
<text text-anchor="middle" x="908" y="-4036.8" font-family="Segoe UI" font-size="14.00" fill="#e2e8f0">AdminMaintenance</text>
<text text-anchor="middle" x="908" y="-4021.8" font-family="Segoe UI" font-size="14.00" fill="#e2e8f0">AdminMaintenance → AdminMaintenancePage</text>
</g>
<!-- workspace_1&#45;&gt;page_AdminMaintenance -->
<g id="edge29" class="edge">
<title>workspace_1&#45;&gt;page_AdminMaintenance</title>
<path fill="none" stroke="#94a3b8" stroke-width="1.3" d="M501.74,-3201.15C518.33,-3314.07 608.88,-3891.93 740,-4002 743.3,-4004.77 746.77,-4007.33 750.38,-4009.69"/>
<polygon fill="#94a3b8" stroke="#94a3b8" stroke-width="1.3" points="749.19,-4012.24 757.48,-4013.98 752.08,-4007.44 749.19,-4012.24"/>
</g>
</g>
</svg>
