<?xml version="1.0" encoding="UTF-8" standalone="no"?>
<!DOCTYPE svg PUBLIC "-//W3C//DTD SVG 1.1//EN"
 "http://www.w3.org/Graphics/SVG/1.1/DTD/svg11.dtd">
<!-- Generated by graphviz version 2.43.0 (0)
 -->
<!-- Title: UiNavigationMap Pages: 1 -->
<svg width="1246pt" height="5090pt"
 viewBox="0.00 0.00 1245.60 5089.60" xmlns="http://www.w3.org/2000/svg" xmlns:xlink="http://www.w3.org/1999/xlink">
<g id="graph0" class="graph" transform="scale(1 1) rotate(0) translate(28.8 5060.8)">
<title>UiNavigationMap</title>
<polygon fill="#0f172a" stroke="transparent" points="-28.8,28.8 -28.8,-5060.8 1216.8,-5060.8 1216.8,28.8 -28.8,28.8"/>
<text text-anchor="middle" x="594" y="-5012" font-family="Segoe UI" font-size="20.00">Meridian WPF UI navigation map</text>
<text text-anchor="middle" x="594" y="-4990" font-family="Segoe UI" font-size="20.00">(auto&#45;generated from MainPage.xaml + NavigationService.cs)</text>
<g id="clust1" class="cluster">
<title>cluster_workspace_1</title>
<path fill="#0f172a" stroke="#334155" d="M440.5,-2683C440.5,-2683 1168,-2683 1168,-2683 1174,-2683 1180,-2689 1180,-2695 1180,-2695 1180,-4960 1180,-4960 1180,-4966 1174,-4972 1168,-4972 1168,-4972 440.5,-4972 440.5,-4972 434.5,-4972 428.5,-4966 428.5,-4960 428.5,-4960 428.5,-2695 428.5,-2695 428.5,-2689 434.5,-2683 440.5,-2683"/>
<text text-anchor="middle" x="804.25" y="-4952" font-family="Segoe UI" font-size="20.00">Shell workspace</text>
</g>
<g id="clust2" class="cluster">
<title>cluster_hidden_pages</title>
<path fill="#0f172a" stroke="#7c2d12" stroke-dasharray="5,2" d="M334,-8C334,-8 664,-8 664,-8 670,-8 676,-14 676,-20 676,-20 676,-2663 676,-2663 676,-2669 670,-2675 664,-2675 664,-2675 334,-2675 334,-2675 328,-2675 322,-2669 322,-2663 322,-2663 322,-20 322,-20 322,-14 328,-8 334,-8"/>
<text text-anchor="middle" x="499" y="-2655" font-family="Segoe UI" font-size="20.00">Registered but not in sidebar shell</text>
</g>
<!-- generated -->
<g id="node1" class="node">
<title>generated</title>
<polygon fill="#1d4ed8" stroke="#60a5fa" points="251,-1313.5 0,-1313.5 0,-1260.5 257,-1260.5 257,-1307.5 251,-1313.5"/>
<polyline fill="none" stroke="#60a5fa" points="251,-1313.5 251,-1307.5 "/>
<polyline fill="none" stroke="#60a5fa" points="257,-1307.5 251,-1307.5 "/>
<text text-anchor="middle" x="128.5" y="-1298.3" font-family="Segoe UI" font-size="14.00" fill="#e2e8f0">Source fingerprint: eed5520255e6</text>
<text text-anchor="middle" x="128.5" y="-1283.3" font-family="Segoe UI" font-size="14.00" fill="#e2e8f0">Shell entries: 37</text>
<text text-anchor="middle" x="128.5" y="-1268.3" font-family="Segoe UI" font-size="14.00" fill="#e2e8f0">Registered pages: 78</text>
</g>
<!-- shell -->
<g id="node2" class="node">
<title>shell</title>
<polygon fill="#0f766e" stroke="#2dd4bf" points="193,-2325 64,-2325 64,-2321 60,-2321 60,-2317 64,-2317 64,-2295 60,-2295 60,-2291 64,-2291 64,-2287 193,-2287 193,-2325"/>
<polyline fill="none" stroke="#2dd4bf" points="64,-2321 68,-2321 68,-2317 64,-2317 "/>
<polyline fill="none" stroke="#2dd4bf" points="64,-2295 68,-2295 68,-2291 64,-2291 "/>
<text text-anchor="middle" x="128.5" y="-2309.8" font-family="Segoe UI" font-size="14.00" fill="#e2e8f0">MainPage.xaml</text>
<text text-anchor="middle" x="128.5" y="-2294.8" font-family="Segoe UI" font-size="14.00" fill="#e2e8f0">Workspace shell</text>
</g>
<!-- navigation -->
<g id="node3" class="node">
<title>navigation</title>
<polygon fill="#7c3aed" stroke="#c4b5fd" points="199.5,-1377 57.5,-1377 57.5,-1373 53.5,-1373 53.5,-1369 57.5,-1369 57.5,-1347 53.5,-1347 53.5,-1343 57.5,-1343 57.5,-1339 199.5,-1339 199.5,-1377"/>
<polyline fill="none" stroke="#c4b5fd" points="57.5,-1373 61.5,-1373 61.5,-1369 57.5,-1369 "/>
<polyline fill="none" stroke="#c4b5fd" points="57.5,-1347 61.5,-1347 61.5,-1343 57.5,-1343 "/>
<text text-anchor="middle" x="128.5" y="-1361.8" font-family="Segoe UI" font-size="14.00" fill="#e2e8f0">NavigationService</text>
<text text-anchor="middle" x="128.5" y="-1346.8" font-family="Segoe UI" font-size="14.00" fill="#e2e8f0">RegisterAllPages()</text>
</g>
<!-- shell&#45;&gt;navigation -->
<g id="edge1" class="edge">
<title>shell&#45;&gt;navigation</title>
<path fill="none" stroke="#38bdf8" stroke-width="1.3" d="M128.5,-2286.66C128.5,-2166.9 128.5,-1526.76 128.5,-1385.57"/>
<polygon fill="#38bdf8" stroke="#38bdf8" stroke-width="1.3" points="131.3,-1385.37 128.5,-1377.37 125.7,-1385.37 131.3,-1385.37"/>
<text text-anchor="middle" x="118" y="-1828.3" font-family="Segoe UI" font-size="14.00">navigate via tags</text>
</g>
<!-- workspace_1 -->
<g id="node4" class="node">
<title>workspace_1</title>
<polygon fill="#1d4ed8" stroke="#93c5fd" points="560.5,-3768 557.5,-3772 536.5,-3772 533.5,-3768 436.5,-3768 436.5,-3730 560.5,-3730 560.5,-3768"/>
<text text-anchor="middle" x="498.5" y="-3752.8" font-family="Segoe UI" font-size="14.00" fill="#e2e8f0">Shell</text>
<text text-anchor="middle" x="498.5" y="-3737.8" font-family="Segoe UI" font-size="14.00" fill="#e2e8f0">37 shell entries</text>
</g>
<!-- shell&#45;&gt;workspace_1 -->
<g id="edge2" class="edge">
<title>shell&#45;&gt;workspace_1</title>
<path fill="none" stroke="#22d3ee" stroke-width="1.3" d="M134.36,-2325.04C173.97,-2480.38 443.8,-3538.42 490.59,-3721.91"/>
<polygon fill="#22d3ee" stroke="#22d3ee" stroke-width="1.3" points="487.9,-3722.68 492.59,-3729.74 493.32,-3721.3 487.9,-3722.68"/>
</g>
<!-- hidden_Dashboard -->
<g id="node41" class="node">
<title>hidden_Dashboard</title>
<path fill="#431407" stroke="#fb923c" d="M549,-2637C549,-2637 448,-2637 448,-2637 442,-2637 436,-2631 436,-2625 436,-2625 436,-2611 436,-2611 436,-2605 442,-2599 448,-2599 448,-2599 549,-2599 549,-2599 555,-2599 561,-2605 561,-2611 561,-2611 561,-2625 561,-2625 561,-2631 555,-2637 549,-2637"/>
<text text-anchor="middle" x="498.5" y="-2621.8" font-family="Segoe UI" font-size="14.00" fill="#e2e8f0">Dashboard</text>
<text text-anchor="middle" x="498.5" y="-2606.8" font-family="Segoe UI" font-size="14.00" fill="#e2e8f0">DashboardPage</text>
</g>
<!-- navigation&#45;&gt;hidden_Dashboard -->
<g id="edge40" class="edge">
<title>navigation&#45;&gt;hidden_Dashboard</title>
<path fill="none" stroke="#fb923c" stroke-width="1.3" stroke-dasharray="5,2" d="M132.21,-1377.42C153.92,-1532.53 299.12,-2564.69 322,-2587 349.49,-2613.81 391.58,-2621.91 427.65,-2623.14"/>
<polygon fill="#fb923c" stroke="#fb923c" stroke-width="1.3" points="427.66,-2625.94 435.72,-2623.31 427.78,-2620.34 427.66,-2625.94"/>
</g>
<!-- hidden_DataSources -->
<g id="node42" class="node">
<title>hidden_DataSources</title>
<path fill="#431407" stroke="#fb923c" d="M555,-2574C555,-2574 442,-2574 442,-2574 436,-2574 430,-2568 430,-2562 430,-2562 430,-2548 430,-2548 430,-2542 436,-2536 442,-2536 442,-2536 555,-2536 555,-2536 561,-2536 567,-2542 567,-2548 567,-2548 567,-2562 567,-2562 567,-2568 561,-2574 555,-2574"/>
<text text-anchor="middle" x="498.5" y="-2558.8" font-family="Segoe UI" font-size="14.00" fill="#e2e8f0">DataSources</text>
<text text-anchor="middle" x="498.5" y="-2543.8" font-family="Segoe UI" font-size="14.00" fill="#e2e8f0">DataSourcesPage</text>
</g>
<!-- navigation&#45;&gt;hidden_DataSources -->
<g id="edge41" class="edge">
<title>navigation&#45;&gt;hidden_DataSources</title>
<path fill="none" stroke="#fb923c" stroke-width="1.3" stroke-dasharray="5,2" d="M131.49,-1377.1C142.68,-1482.68 200.59,-2005.31 293,-2424 302.97,-2469.19 287.57,-2493.08 322,-2524 348.75,-2548.02 387.37,-2556.62 421.57,-2558.85"/>
<polygon fill="#fb923c" stroke="#fb923c" stroke-width="1.3" points="421.57,-2561.66 429.7,-2559.27 421.86,-2556.06 421.57,-2561.66"/>
</g>
<!-- hidden_DataBrowser -->
<g id="node43" class="node">
<title>hidden_DataBrowser</title>
<path fill="#431407" stroke="#fb923c" d="M555.5,-2511C555.5,-2511 441.5,-2511 441.5,-2511 435.5,-2511 429.5,-2505 429.5,-2499 429.5,-2499 429.5,-2485 429.5,-2485 429.5,-2479 435.5,-2473 441.5,-2473 441.5,-2473 555.5,-2473 555.5,-2473 561.5,-2473 567.5,-2479 567.5,-2485 567.5,-2485 567.5,-2499 567.5,-2499 567.5,-2505 561.5,-2511 555.5,-2511"/>
<text text-anchor="middle" x="498.5" y="-2495.8" font-family="Segoe UI" font-size="14.00" fill="#e2e8f0">DataBrowser</text>
<text text-anchor="middle" x="498.5" y="-2480.8" font-family="Segoe UI" font-size="14.00" fill="#e2e8f0">DataBrowserPage</text>
</g>
<!-- navigation&#45;&gt;hidden_DataBrowser -->
<g id="edge42" class="edge">
<title>navigation&#45;&gt;hidden_DataBrowser</title>
<path fill="none" stroke="#fb923c" stroke-width="1.3" stroke-dasharray="5,2" d="M131.45,-1377.02C145.97,-1516.83 238.9,-2382.48 322,-2461 348.13,-2485.69 386.69,-2494.35 421.02,-2496.45"/>
<polygon fill="#fb923c" stroke="#fb923c" stroke-width="1.3" points="421.06,-2499.26 429.18,-2496.84 421.32,-2493.66 421.06,-2499.26"/>
</g>
<!-- hidden_SymbolMapping -->
<g id="node44" class="node">
<title>hidden_SymbolMapping</title>
<path fill="#431407" stroke="#fb923c" d="M567,-2448C567,-2448 430,-2448 430,-2448 424,-2448 418,-2442 418,-2436 418,-2436 418,-2422 418,-2422 418,-2416 424,-2410 430,-2410 430,-2410 567,-2410 567,-2410 573,-2410 579,-2416 579,-2422 579,-2422 579,-2436 579,-2436 579,-2442 573,-2448 567,-2448"/>
<text text-anchor="middle" x="498.5" y="-2432.8" font-family="Segoe UI" font-size="14.00" fill="#e2e8f0">SymbolMapping</text>
<text text-anchor="middle" x="498.5" y="-2417.8" font-family="Segoe UI" font-size="14.00" fill="#e2e8f0">SymbolMappingPage</text>
</g>
<!-- navigation&#45;&gt;hidden_SymbolMapping -->
<g id="edge43" class="edge">
<title>navigation&#45;&gt;hidden_SymbolMapping</title>
<path fill="none" stroke="#fb923c" stroke-width="1.3" stroke-dasharray="5,2" d="M131.48,-1377.22C142.01,-1477.05 194.78,-1946.13 293,-2318 302.66,-2354.57 293.05,-2373.67 322,-2398 346.13,-2418.28 378.86,-2427.33 409.51,-2430.88"/>
<polygon fill="#fb923c" stroke="#fb923c" stroke-width="1.3" points="409.43,-2433.68 417.68,-2431.7 410,-2428.11 409.43,-2433.68"/>
</g>
<!-- hidden_SymbolStorage -->
<g id="node45" class="node">
<title>hidden_SymbolStorage</title>
<path fill="#431407" stroke="#fb923c" d="M564,-2385C564,-2385 433,-2385 433,-2385 427,-2385 421,-2379 421,-2373 421,-2373 421,-2359 421,-2359 421,-2353 427,-2347 433,-2347 433,-2347 564,-2347 564,-2347 570,-2347 576,-2353 576,-2359 576,-2359 576,-2373 576,-2373 576,-2379 570,-2385 564,-2385"/>
<text text-anchor="middle" x="498.5" y="-2369.8" font-family="Segoe UI" font-size="14.00" fill="#e2e8f0">SymbolStorage</text>
<text text-anchor="middle" x="498.5" y="-2354.8" font-family="Segoe UI" font-size="14.00" fill="#e2e8f0">SymbolStoragePage</text>
</g>
<!-- navigation&#45;&gt;hidden_SymbolStorage -->
<g id="edge44" class="edge">
<title>navigation&#45;&gt;hidden_SymbolStorage</title>
<path fill="none" stroke="#fb923c" stroke-width="1.3" stroke-dasharray="5,2" d="M130.35,-1377.3C136.25,-1502.38 175.38,-2197.24 322,-2335 346.11,-2357.66 380.7,-2366.79 412.81,-2369.75"/>
<polygon fill="#fb923c" stroke="#fb923c" stroke-width="1.3" points="412.72,-2372.55 420.91,-2370.38 413.15,-2366.97 412.72,-2372.55"/>
</g>
<!-- hidden_PortfolioImport -->
<g id="node46" class="node">
<title>hidden_PortfolioImport</title>
<path fill="#431407" stroke="#fb923c" d="M563,-2322C563,-2322 434,-2322 434,-2322 428,-2322 422,-2316 422,-2310 422,-2310 422,-2296 422,-2296 422,-2290 428,-2284 434,-2284 434,-2284 563,-2284 563,-2284 569,-2284 575,-2290 575,-2296 575,-2296 575,-2310 575,-2310 575,-2316 569,-2322 563,-2322"/>
<text text-anchor="middle" x="498.5" y="-2306.8" font-family="Segoe UI" font-size="14.00" fill="#e2e8f0">PortfolioImport</text>
<text text-anchor="middle" x="498.5" y="-2291.8" font-family="Segoe UI" font-size="14.00" fill="#e2e8f0">PortfolioImportPage</text>
</g>
<!-- navigation&#45;&gt;hidden_PortfolioImport -->
<g id="edge45" class="edge">
<title>navigation&#45;&gt;hidden_PortfolioImport</title>
<path fill="none" stroke="#fb923c" stroke-width="1.3" stroke-dasharray="5,2" d="M132.03,-1377.13C144.42,-1469.03 201.84,-1873.81 293,-2195 302.98,-2230.18 293.86,-2248.65 322,-2272 347.35,-2293.04 381.97,-2301.94 413.77,-2305.16"/>
<polygon fill="#fb923c" stroke="#fb923c" stroke-width="1.3" points="413.57,-2307.95 421.79,-2305.86 414.06,-2302.37 413.57,-2307.95"/>
</g>
<!-- hidden_IndexSubscription -->
<g id="node47" class="node">
<title>hidden_IndexSubscription</title>
<path fill="#431407" stroke="#fb923c" d="M574.5,-2259C574.5,-2259 422.5,-2259 422.5,-2259 416.5,-2259 410.5,-2253 410.5,-2247 410.5,-2247 410.5,-2233 410.5,-2233 410.5,-2227 416.5,-2221 422.5,-2221 422.5,-2221 574.5,-2221 574.5,-2221 580.5,-2221 586.5,-2227 586.5,-2233 586.5,-2233 586.5,-2247 586.5,-2247 586.5,-2253 580.5,-2259 574.5,-2259"/>
<text text-anchor="middle" x="498.5" y="-2243.8" font-family="Segoe UI" font-size="14.00" fill="#e2e8f0">IndexSubscription</text>
<text text-anchor="middle" x="498.5" y="-2228.8" font-family="Segoe UI" font-size="14.00" fill="#e2e8f0">IndexSubscriptionPage</text>
</g>
<!-- navigation&#45;&gt;hidden_IndexSubscription -->
<g id="edge46" class="edge">
<title>navigation&#45;&gt;hidden_IndexSubscription</title>
<path fill="none" stroke="#fb923c" stroke-width="1.3" stroke-dasharray="5,2" d="M130.78,-1377.18C138.91,-1492.91 187.46,-2096.86 322,-2209 344.27,-2227.56 373.74,-2236.69 402.17,-2240.8"/>
<polygon fill="#fb923c" stroke="#fb923c" stroke-width="1.3" points="401.86,-2243.58 410.15,-2241.83 402.58,-2238.03 401.86,-2243.58"/>
</g>
<!-- hidden_Options -->
<g id="node48" class="node">
<title>hidden_Options</title>
<path fill="#431407" stroke="#fb923c" d="M538.5,-2196C538.5,-2196 458.5,-2196 458.5,-2196 452.5,-2196 446.5,-2190 446.5,-2184 446.5,-2184 446.5,-2170 446.5,-2170 446.5,-2164 452.5,-2158 458.5,-2158 458.5,-2158 538.5,-2158 538.5,-2158 544.5,-2158 550.5,-2164 550.5,-2170 550.5,-2170 550.5,-2184 550.5,-2184 550.5,-2190 544.5,-2196 538.5,-2196"/>
<text text-anchor="middle" x="498.5" y="-2180.8" font-family="Segoe UI" font-size="14.00" fill="#e2e8f0">Options</text>
<text text-anchor="middle" x="498.5" y="-2165.8" font-family="Segoe UI" font-size="14.00" fill="#e2e8f0">OptionsPage</text>
</g>
<!-- navigation&#45;&gt;hidden_Options -->
<g id="edge47" class="edge">
<title>navigation&#45;&gt;hidden_Options</title>
<path fill="none" stroke="#fb923c" stroke-width="1.3" stroke-dasharray="5,2" d="M131.17,-1377.16C141.22,-1487.67 197.46,-2042.2 322,-2146 353.93,-2172.61 400.68,-2179.83 437.9,-2180.68"/>
<polygon fill="#fb923c" stroke="#fb923c" stroke-width="1.3" points="438.14,-2183.48 446.17,-2180.77 438.2,-2177.88 438.14,-2183.48"/>
</g>
<!-- hidden_RunDetail -->
<g id="node49" class="node">
<title>hidden_RunDetail</title>
<path fill="#431407" stroke="#fb923c" d="M544.5,-2133C544.5,-2133 452.5,-2133 452.5,-2133 446.5,-2133 440.5,-2127 440.5,-2121 440.5,-2121 440.5,-2107 440.5,-2107 440.5,-2101 446.5,-2095 452.5,-2095 452.5,-2095 544.5,-2095 544.5,-2095 550.5,-2095 556.5,-2101 556.5,-2107 556.5,-2107 556.5,-2121 556.5,-2121 556.5,-2127 550.5,-2133 544.5,-2133"/>
<text text-anchor="middle" x="498.5" y="-2117.8" font-family="Segoe UI" font-size="14.00" fill="#e2e8f0">RunDetail</text>
<text text-anchor="middle" x="498.5" y="-2102.8" font-family="Segoe UI" font-size="14.00" fill="#e2e8f0">RunDetailPage</text>
</g>
<!-- navigation&#45;&gt;hidden_RunDetail -->
<g id="edge48" class="edge">
<title>navigation&#45;&gt;hidden_RunDetail</title>
<path fill="none" stroke="#fb923c" stroke-width="1.3" stroke-dasharray="5,2" d="M131.64,-1377.31C143.76,-1482.78 207.26,-1987.77 322,-2083 352.32,-2108.17 395.92,-2115.97 432.07,-2117.45"/>
<polygon fill="#fb923c" stroke="#fb923c" stroke-width="1.3" points="432.06,-2120.25 440.13,-2117.68 432.22,-2114.65 432.06,-2120.25"/>
</g>
<!-- hidden_RunPortfolio -->
<g id="node50" class="node">
<title>hidden_RunPortfolio</title>
<path fill="#431407" stroke="#fb923c" d="M553.5,-2070C553.5,-2070 443.5,-2070 443.5,-2070 437.5,-2070 431.5,-2064 431.5,-2058 431.5,-2058 431.5,-2044 431.5,-2044 431.5,-2038 437.5,-2032 443.5,-2032 443.5,-2032 553.5,-2032 553.5,-2032 559.5,-2032 565.5,-2038 565.5,-2044 565.5,-2044 565.5,-2058 565.5,-2058 565.5,-2064 559.5,-2070 553.5,-2070"/>
<text text-anchor="middle" x="498.5" y="-2054.8" font-family="Segoe UI" font-size="14.00" fill="#e2e8f0">RunPortfolio</text>
<text text-anchor="middle" x="498.5" y="-2039.8" font-family="Segoe UI" font-size="14.00" fill="#e2e8f0">RunPortfolioPage</text>
</g>
<!-- navigation&#45;&gt;hidden_RunPortfolio -->
<g id="edge49" class="edge">
<title>navigation&#45;&gt;hidden_RunPortfolio</title>
<path fill="none" stroke="#fb923c" stroke-width="1.3" stroke-dasharray="5,2" d="M132.13,-1377.29C146.18,-1477.21 215.71,-1934.68 322,-2020 350.14,-2042.59 389.08,-2051.03 423.13,-2053.53"/>
<polygon fill="#fb923c" stroke="#fb923c" stroke-width="1.3" points="423.06,-2056.33 431.21,-2054.02 423.4,-2050.74 423.06,-2056.33"/>
</g>
<!-- hidden_RunLedger -->
<g id="node51" class="node">
<title>hidden_RunLedger</title>
<path fill="#431407" stroke="#fb923c" d="M549,-2007C549,-2007 448,-2007 448,-2007 442,-2007 436,-2001 436,-1995 436,-1995 436,-1981 436,-1981 436,-1975 442,-1969 448,-1969 448,-1969 549,-1969 549,-1969 555,-1969 561,-1975 561,-1981 561,-1981 561,-1995 561,-1995 561,-2001 555,-2007 549,-2007"/>
<text text-anchor="middle" x="498.5" y="-1991.8" font-family="Segoe UI" font-size="14.00" fill="#e2e8f0">RunLedger</text>
<text text-anchor="middle" x="498.5" y="-1976.8" font-family="Segoe UI" font-size="14.00" fill="#e2e8f0">RunLedgerPage</text>
</g>
<!-- navigation&#45;&gt;hidden_RunLedger -->
<g id="edge50" class="edge">
<title>navigation&#45;&gt;hidden_RunLedger</title>
<path fill="none" stroke="#fb923c" stroke-width="1.3" stroke-dasharray="5,2" d="M128.81,-1377.12C126.94,-1461.63 131.62,-1804.17 322,-1957 351.37,-1980.58 392.5,-1988.74 427.56,-1990.82"/>
<polygon fill="#fb923c" stroke="#fb923c" stroke-width="1.3" points="427.74,-1993.63 435.86,-1991.21 428,-1988.04 427.74,-1993.63"/>
</g>
<!-- hidden_FundBanking -->
<g id="node52" class="node">
<title>hidden_FundBanking</title>
<path fill="#431407" stroke="#fb923c" d="M552.5,-1944C552.5,-1944 444.5,-1944 444.5,-1944 438.5,-1944 432.5,-1938 432.5,-1932 432.5,-1932 432.5,-1918 432.5,-1918 432.5,-1912 438.5,-1906 444.5,-1906 444.5,-1906 552.5,-1906 552.5,-1906 558.5,-1906 564.5,-1912 564.5,-1918 564.5,-1918 564.5,-1932 564.5,-1932 564.5,-1938 558.5,-1944 552.5,-1944"/>
<text text-anchor="middle" x="498.5" y="-1928.8" font-family="Segoe UI" font-size="14.00" fill="#e2e8f0">FundBanking</text>
<text text-anchor="middle" x="498.5" y="-1913.8" font-family="Segoe UI" font-size="14.00" fill="#e2e8f0">FundLedgerPage</text>
</g>
<!-- navigation&#45;&gt;hidden_FundBanking -->
<g id="edge51" class="edge">
<title>navigation&#45;&gt;hidden_FundBanking</title>
<path fill="none" stroke="#fb923c" stroke-width="1.3" stroke-dasharray="5,2" d="M129.74,-1377.11C131.86,-1455.78 151.22,-1756.9 322,-1894 350.48,-1916.86 390.01,-1925.23 424.34,-1927.61"/>
<polygon fill="#fb923c" stroke="#fb923c" stroke-width="1.3" points="424.34,-1930.42 432.49,-1928.08 424.66,-1924.83 424.34,-1930.42"/>
</g>
<!-- hidden_FundPortfolio -->
<g id="node53" class="node">
<title>hidden_FundPortfolio</title>
<path fill="#431407" stroke="#fb923c" d="M552.5,-1881C552.5,-1881 444.5,-1881 444.5,-1881 438.5,-1881 432.5,-1875 432.5,-1869 432.5,-1869 432.5,-1855 432.5,-1855 432.5,-1849 438.5,-1843 444.5,-1843 444.5,-1843 552.5,-1843 552.5,-1843 558.5,-1843 564.5,-1849 564.5,-1855 564.5,-1855 564.5,-1869 564.5,-1869 564.5,-1875 558.5,-1881 552.5,-1881"/>
<text text-anchor="middle" x="498.5" y="-1865.8" font-family="Segoe UI" font-size="14.00" fill="#e2e8f0">FundPortfolio</text>
<text text-anchor="middle" x="498.5" y="-1850.8" font-family="Segoe UI" font-size="14.00" fill="#e2e8f0">FundLedgerPage</text>
</g>
<!-- navigation&#45;&gt;hidden_FundPortfolio -->
<g id="edge52" class="edge">
<title>navigation&#45;&gt;hidden_FundPortfolio</title>
<path fill="none" stroke="#fb923c" stroke-width="1.3" stroke-dasharray="5,2" d="M130.89,-1377.19C137.27,-1449.82 170.28,-1709.84 322,-1831 350.43,-1853.7 389.76,-1862.09 423.99,-1864.52"/>
<polygon fill="#fb923c" stroke="#fb923c" stroke-width="1.3" points="423.96,-1867.33 432.11,-1865 424.29,-1861.74 423.96,-1867.33"/>
</g>
<!-- hidden_FundCashFinancing -->
<g id="node54" class="node">
<title>hidden_FundCashFinancing</title>
<path fill="#431407" stroke="#fb923c" d="M562.5,-1818C562.5,-1818 434.5,-1818 434.5,-1818 428.5,-1818 422.5,-1812 422.5,-1806 422.5,-1806 422.5,-1792 422.5,-1792 422.5,-1786 428.5,-1780 434.5,-1780 434.5,-1780 562.5,-1780 562.5,-1780 568.5,-1780 574.5,-1786 574.5,-1792 574.5,-1792 574.5,-1806 574.5,-1806 574.5,-1812 568.5,-1818 562.5,-1818"/>
<text text-anchor="middle" x="498.5" y="-1802.8" font-family="Segoe UI" font-size="14.00" fill="#e2e8f0">FundCashFinancing</text>
<text text-anchor="middle" x="498.5" y="-1787.8" font-family="Segoe UI" font-size="14.00" fill="#e2e8f0">FundLedgerPage</text>
</g>
<!-- navigation&#45;&gt;hidden_FundCashFinancing -->
<g id="edge53" class="edge">
<title>navigation&#45;&gt;hidden_FundCashFinancing</title>
<path fill="none" stroke="#fb923c" stroke-width="1.3" stroke-dasharray="5,2" d="M132.25,-1377.34C142.81,-1443.85 187.13,-1664.76 322,-1768 347.94,-1787.85 382.33,-1796.6 413.79,-1800.03"/>
<polygon fill="#fb923c" stroke="#fb923c" stroke-width="1.3" points="413.91,-1802.86 422.14,-1800.83 414.44,-1797.28 413.91,-1802.86"/>
</g>
<!-- hidden_FundAuditTrail -->
<g id="node55" class="node">
<title>hidden_FundAuditTrail</title>
<path fill="#431407" stroke="#fb923c" d="M552.5,-1755C552.5,-1755 444.5,-1755 444.5,-1755 438.5,-1755 432.5,-1749 432.5,-1743 432.5,-1743 432.5,-1729 432.5,-1729 432.5,-1723 438.5,-1717 444.5,-1717 444.5,-1717 552.5,-1717 552.5,-1717 558.5,-1717 564.5,-1723 564.5,-1729 564.5,-1729 564.5,-1743 564.5,-1743 564.5,-1749 558.5,-1755 552.5,-1755"/>
<text text-anchor="middle" x="498.5" y="-1739.8" font-family="Segoe UI" font-size="14.00" fill="#e2e8f0">FundAuditTrail</text>
<text text-anchor="middle" x="498.5" y="-1724.8" font-family="Segoe UI" font-size="14.00" fill="#e2e8f0">FundLedgerPage</text>
</g>
<!-- navigation&#45;&gt;hidden_FundAuditTrail -->
<g id="edge54" class="edge">
<title>navigation&#45;&gt;hidden_FundAuditTrail</title>
<path fill="none" stroke="#fb923c" stroke-width="1.3" stroke-dasharray="5,2" d="M133.96,-1377.29C148.86,-1437.02 202.82,-1619.99 322,-1705 351.38,-1725.96 390.43,-1734.25 424.23,-1737.07"/>
<polygon fill="#fb923c" stroke="#fb923c" stroke-width="1.3" points="424.07,-1739.87 432.25,-1737.65 424.47,-1734.28 424.07,-1739.87"/>
</g>
<!-- hidden_RunCashFlow -->
<g id="node56" class="node">
<title>hidden_RunCashFlow</title>
<path fill="#431407" stroke="#fb923c" d="M558,-1692C558,-1692 439,-1692 439,-1692 433,-1692 427,-1686 427,-1680 427,-1680 427,-1666 427,-1666 427,-1660 433,-1654 439,-1654 439,-1654 558,-1654 558,-1654 564,-1654 570,-1660 570,-1666 570,-1666 570,-1680 570,-1680 570,-1686 564,-1692 558,-1692"/>
<text text-anchor="middle" x="498.5" y="-1676.8" font-family="Segoe UI" font-size="14.00" fill="#e2e8f0">RunCashFlow</text>
<text text-anchor="middle" x="498.5" y="-1661.8" font-family="Segoe UI" font-size="14.00" fill="#e2e8f0">RunCashFlowPage</text>
</g>
<!-- navigation&#45;&gt;hidden_RunCashFlow -->
<g id="edge55" class="edge">
<title>navigation&#45;&gt;hidden_RunCashFlow</title>
<path fill="none" stroke="#fb923c" stroke-width="1.3" stroke-dasharray="5,2" d="M136.3,-1377.1C155.93,-1429.25 218.03,-1574.62 322,-1642 350.37,-1660.38 386.48,-1668.72 418.56,-1672.24"/>
<polygon fill="#fb923c" stroke="#fb923c" stroke-width="1.3" points="418.39,-1675.04 426.63,-1673.03 418.94,-1669.46 418.39,-1675.04"/>
</g>
<!-- hidden_AccountPortfolio -->
<g id="node57" class="node">
<title>hidden_AccountPortfolio</title>
<path fill="#431407" stroke="#fb923c" d="M567.5,-1629C567.5,-1629 429.5,-1629 429.5,-1629 423.5,-1629 417.5,-1623 417.5,-1617 417.5,-1617 417.5,-1603 417.5,-1603 417.5,-1597 423.5,-1591 429.5,-1591 429.5,-1591 567.5,-1591 567.5,-1591 573.5,-1591 579.5,-1597 579.5,-1603 579.5,-1603 579.5,-1617 579.5,-1617 579.5,-1623 573.5,-1629 567.5,-1629"/>
<text text-anchor="middle" x="498.5" y="-1613.8" font-family="Segoe UI" font-size="14.00" fill="#e2e8f0">AccountPortfolio</text>
<text text-anchor="middle" x="498.5" y="-1598.8" font-family="Segoe UI" font-size="14.00" fill="#e2e8f0">AccountPortfolioPage</text>
</g>
<!-- navigation&#45;&gt;hidden_AccountPortfolio -->
<g id="edge56" class="edge">
<title>navigation&#45;&gt;hidden_AccountPortfolio</title>
<path fill="none" stroke="#fb923c" stroke-width="1.3" stroke-dasharray="5,2" d="M140.01,-1377.25C165.07,-1421.13 232.97,-1528.67 322,-1579 348.22,-1593.82 379.88,-1601.85 409.04,-1606.12"/>
<polygon fill="#fb923c" stroke="#fb923c" stroke-width="1.3" points="408.89,-1608.92 417.2,-1607.22 409.65,-1603.37 408.89,-1608.92"/>
</g>
<!-- hidden_AggregatePortfolio -->
<g id="node58" class="node">
<title>hidden_AggregatePortfolio</title>
<path fill="#431407" stroke="#fb923c" d="M576,-1566C576,-1566 421,-1566 421,-1566 415,-1566 409,-1560 409,-1554 409,-1554 409,-1540 409,-1540 409,-1534 415,-1528 421,-1528 421,-1528 576,-1528 576,-1528 582,-1528 588,-1534 588,-1540 588,-1540 588,-1554 588,-1554 588,-1560 582,-1566 576,-1566"/>
<text text-anchor="middle" x="498.5" y="-1550.8" font-family="Segoe UI" font-size="14.00" fill="#e2e8f0">AggregatePortfolio</text>
<text text-anchor="middle" x="498.5" y="-1535.8" font-family="Segoe UI" font-size="14.00" fill="#e2e8f0">AggregatePortfolioPage</text>
</g>
<!-- navigation&#45;&gt;hidden_AggregatePortfolio -->
<g id="edge57" class="edge">
<title>navigation&#45;&gt;hidden_AggregatePortfolio</title>
<path fill="none" stroke="#fb923c" stroke-width="1.3" stroke-dasharray="5,2" d="M146.41,-1377.25C177.48,-1411.27 247.37,-1481.68 322,-1516 346.33,-1527.19 374.27,-1534.36 400.59,-1538.94"/>
<polygon fill="#fb923c" stroke="#fb923c" stroke-width="1.3" points="400.35,-1541.74 408.7,-1540.28 401.27,-1536.21 400.35,-1541.74"/>
</g>
<!-- hidden_ArchiveHealth -->
<g id="node59" class="node">
<title>hidden_ArchiveHealth</title>
<path fill="#431407" stroke="#fb923c" d="M559.5,-1503C559.5,-1503 437.5,-1503 437.5,-1503 431.5,-1503 425.5,-1497 425.5,-1491 425.5,-1491 425.5,-1477 425.5,-1477 425.5,-1471 431.5,-1465 437.5,-1465 437.5,-1465 559.5,-1465 559.5,-1465 565.5,-1465 571.5,-1471 571.5,-1477 571.5,-1477 571.5,-1491 571.5,-1491 571.5,-1497 565.5,-1503 559.5,-1503"/>
<text text-anchor="middle" x="498.5" y="-1487.8" font-family="Segoe UI" font-size="14.00" fill="#e2e8f0">ArchiveHealth</text>
<text text-anchor="middle" x="498.5" y="-1472.8" font-family="Segoe UI" font-size="14.00" fill="#e2e8f0">ArchiveHealthPage</text>
</g>
<!-- navigation&#45;&gt;hidden_ArchiveHealth -->
<g id="edge58" class="edge">
<title>navigation&#45;&gt;hidden_ArchiveHealth</title>
<path fill="none" stroke="#fb923c" stroke-width="1.3" stroke-dasharray="5,2" d="M161.01,-1377.05C198.19,-1398.68 262.5,-1433.5 322,-1453 352.5,-1462.99 387.1,-1469.98 417.46,-1474.75"/>
<polygon fill="#fb923c" stroke="#fb923c" stroke-width="1.3" points="417.17,-1477.54 425.5,-1475.98 418.01,-1472 417.17,-1477.54"/>
</g>
<!-- hidden_ServiceManager -->
<g id="node60" class="node">
<title>hidden_ServiceManager</title>
<path fill="#431407" stroke="#fb923c" d="M567,-1440C567,-1440 430,-1440 430,-1440 424,-1440 418,-1434 418,-1428 418,-1428 418,-1414 418,-1414 418,-1408 424,-1402 430,-1402 430,-1402 567,-1402 567,-1402 573,-1402 579,-1408 579,-1414 579,-1414 579,-1428 579,-1428 579,-1434 573,-1440 567,-1440"/>
<text text-anchor="middle" x="498.5" y="-1424.8" font-family="Segoe UI" font-size="14.00" fill="#e2e8f0">ServiceManager</text>
<text text-anchor="middle" x="498.5" y="-1409.8" font-family="Segoe UI" font-size="14.00" fill="#e2e8f0">ServiceManagerPage</text>
</g>
<!-- navigation&#45;&gt;hidden_ServiceManager -->
<g id="edge59" class="edge">
<title>navigation&#45;&gt;hidden_ServiceManager</title>
<path fill="none" stroke="#fb923c" stroke-width="1.3" stroke-dasharray="5,2" d="M199.58,-1370C259.28,-1380.22 345.35,-1394.95 409.64,-1405.96"/>
<polygon fill="#fb923c" stroke="#fb923c" stroke-width="1.3" points="409.41,-1408.76 417.77,-1407.35 410.35,-1403.24 409.41,-1408.76"/>
</g>
<!-- hidden_DataSampling -->
<g id="node61" class="node">
<title>hidden_DataSampling</title>
<path fill="#431407" stroke="#fb923c" d="M560,-1377C560,-1377 437,-1377 437,-1377 431,-1377 425,-1371 425,-1365 425,-1365 425,-1351 425,-1351 425,-1345 431,-1339 437,-1339 437,-1339 560,-1339 560,-1339 566,-1339 572,-1345 572,-1351 572,-1351 572,-1365 572,-1365 572,-1371 566,-1377 560,-1377"/>
<text text-anchor="middle" x="498.5" y="-1361.8" font-family="Segoe UI" font-size="14.00" fill="#e2e8f0">DataSampling</text>
<text text-anchor="middle" x="498.5" y="-1346.8" font-family="Segoe UI" font-size="14.00" fill="#e2e8f0">DataSamplingPage</text>
</g>
<!-- navigation&#45;&gt;hidden_DataSampling -->
<g id="edge60" class="edge">
<title>navigation&#45;&gt;hidden_DataSampling</title>
<path fill="none" stroke="#fb923c" stroke-width="1.3" stroke-dasharray="5,2" d="M199.58,-1358C261.48,-1358 351.73,-1358 416.66,-1358"/>
<polygon fill="#fb923c" stroke="#fb923c" stroke-width="1.3" points="416.85,-1360.8 424.85,-1358 416.85,-1355.2 416.85,-1360.8"/>
</g>
<!-- hidden_TimeSeriesAlignment -->
<g id="node62" class="node">
<title>hidden_TimeSeriesAlignment</title>
<path fill="#431407" stroke="#fb923c" d="M585,-1314C585,-1314 412,-1314 412,-1314 406,-1314 400,-1308 400,-1302 400,-1302 400,-1288 400,-1288 400,-1282 406,-1276 412,-1276 412,-1276 585,-1276 585,-1276 591,-1276 597,-1282 597,-1288 597,-1288 597,-1302 597,-1302 597,-1308 591,-1314 585,-1314"/>
<text text-anchor="middle" x="498.5" y="-1298.8" font-family="Segoe UI" font-size="14.00" fill="#e2e8f0">TimeSeriesAlignment</text>
<text text-anchor="middle" x="498.5" y="-1283.8" font-family="Segoe UI" font-size="14.00" fill="#e2e8f0">TimeSeriesAlignmentPage</text>
</g>
<!-- navigation&#45;&gt;hidden_TimeSeriesAlignment -->
<g id="edge61" class="edge">
<title>navigation&#45;&gt;hidden_TimeSeriesAlignment</title>
<path fill="none" stroke="#fb923c" stroke-width="1.3" stroke-dasharray="5,2" d="M199.58,-1346C253.87,-1336.71 329.96,-1323.68 391.66,-1313.12"/>
<polygon fill="#fb923c" stroke="#fb923c" stroke-width="1.3" points="392.47,-1315.82 399.88,-1311.71 391.52,-1310.3 392.47,-1315.82"/>
</g>
<!-- hidden_ExportPresets -->
<g id="node63" class="node">
<title>hidden_ExportPresets</title>
<path fill="#431407" stroke="#fb923c" d="M559.5,-1251C559.5,-1251 437.5,-1251 437.5,-1251 431.5,-1251 425.5,-1245 425.5,-1239 425.5,-1239 425.5,-1225 425.5,-1225 425.5,-1219 431.5,-1213 437.5,-1213 437.5,-1213 559.5,-1213 559.5,-1213 565.5,-1213 571.5,-1219 571.5,-1225 571.5,-1225 571.5,-1239 571.5,-1239 571.5,-1245 565.5,-1251 559.5,-1251"/>
<text text-anchor="middle" x="498.5" y="-1235.8" font-family="Segoe UI" font-size="14.00" fill="#e2e8f0">ExportPresets</text>
<text text-anchor="middle" x="498.5" y="-1220.8" font-family="Segoe UI" font-size="14.00" fill="#e2e8f0">ExportPresetsPage</text>
</g>
<!-- navigation&#45;&gt;hidden_ExportPresets -->
<g id="edge62" class="edge">
<title>navigation&#45;&gt;hidden_ExportPresets</title>
<path fill="none" stroke="#fb923c" stroke-width="1.3" stroke-dasharray="5,2" d="M199.77,-1347.19C219.08,-1342.43 239.51,-1335.64 257,-1326 291.96,-1306.73 286.42,-1282.12 322,-1264 351.13,-1249.16 386.08,-1241.12 417.1,-1236.79"/>
<polygon fill="#fb923c" stroke="#fb923c" stroke-width="1.3" points="417.74,-1239.53 425.31,-1235.72 417.02,-1233.98 417.74,-1239.53"/>
</g>
<!-- hidden_AnalysisExport -->
<g id="node64" class="node">
<title>hidden_AnalysisExport</title>
<path fill="#431407" stroke="#fb923c" d="M563,-1188C563,-1188 434,-1188 434,-1188 428,-1188 422,-1182 422,-1176 422,-1176 422,-1162 422,-1162 422,-1156 428,-1150 434,-1150 434,-1150 563,-1150 563,-1150 569,-1150 575,-1156 575,-1162 575,-1162 575,-1176 575,-1176 575,-1182 569,-1188 563,-1188"/>
<text text-anchor="middle" x="498.5" y="-1172.8" font-family="Segoe UI" font-size="14.00" fill="#e2e8f0">AnalysisExport</text>
<text text-anchor="middle" x="498.5" y="-1157.8" font-family="Segoe UI" font-size="14.00" fill="#e2e8f0">AnalysisExportPage</text>
</g>
<!-- navigation&#45;&gt;hidden_AnalysisExport -->
<g id="edge63" class="edge">
<title>navigation&#45;&gt;hidden_AnalysisExport</title>
<path fill="none" stroke="#fb923c" stroke-width="1.3" stroke-dasharray="5,2" d="M199.81,-1351.3C219.88,-1346.64 240.7,-1338.87 257,-1326 306.14,-1287.18 271.62,-1238.18 322,-1201 348.08,-1181.75 382.16,-1172.89 413.35,-1169.15"/>
<polygon fill="#fb923c" stroke="#fb923c" stroke-width="1.3" points="413.98,-1171.9 421.63,-1168.26 413.38,-1166.33 413.98,-1171.9"/>
</g>
<!-- hidden_AnalysisExportWizard -->
<g id="node65" class="node">
<title>hidden_AnalysisExportWizard</title>
<path fill="#431407" stroke="#fb923c" d="M586.5,-1125C586.5,-1125 410.5,-1125 410.5,-1125 404.5,-1125 398.5,-1119 398.5,-1113 398.5,-1113 398.5,-1099 398.5,-1099 398.5,-1093 404.5,-1087 410.5,-1087 410.5,-1087 586.5,-1087 586.5,-1087 592.5,-1087 598.5,-1093 598.5,-1099 598.5,-1099 598.5,-1113 598.5,-1113 598.5,-1119 592.5,-1125 586.5,-1125"/>
<text text-anchor="middle" x="498.5" y="-1109.8" font-family="Segoe UI" font-size="14.00" fill="#e2e8f0">AnalysisExportWizard</text>
<text text-anchor="middle" x="498.5" y="-1094.8" font-family="Segoe UI" font-size="14.00" fill="#e2e8f0">AnalysisExportWizardPage</text>
</g>
<!-- navigation&#45;&gt;hidden_AnalysisExportWizard -->
<g id="edge64" class="edge">
<title>navigation&#45;&gt;hidden_AnalysisExportWizard</title>
<path fill="none" stroke="#fb923c" stroke-width="1.3" stroke-dasharray="5,2" d="M199.72,-1353.04C220.25,-1348.49 241.35,-1340.34 257,-1326 322.17,-1266.26 254.9,-1195.57 322,-1138 340.98,-1121.71 365.45,-1112.52 390.06,-1107.56"/>
<polygon fill="#fb923c" stroke="#fb923c" stroke-width="1.3" points="390.69,-1110.29 398.05,-1106.1 389.68,-1104.78 390.69,-1110.29"/>
</g>
<!-- hidden_AdvancedAnalytics -->
<g id="node66" class="node">
<title>hidden_AdvancedAnalytics</title>
<path fill="#431407" stroke="#fb923c" d="M577,-1062C577,-1062 420,-1062 420,-1062 414,-1062 408,-1056 408,-1050 408,-1050 408,-1036 408,-1036 408,-1030 414,-1024 420,-1024 420,-1024 577,-1024 577,-1024 583,-1024 589,-1030 589,-1036 589,-1036 589,-1050 589,-1050 589,-1056 583,-1062 577,-1062"/>
<text text-anchor="middle" x="498.5" y="-1046.8" font-family="Segoe UI" font-size="14.00" fill="#e2e8f0">AdvancedAnalytics</text>
<text text-anchor="middle" x="498.5" y="-1031.8" font-family="Segoe UI" font-size="14.00" fill="#e2e8f0">AdvancedAnalyticsPage</text>
</g>
<!-- navigation&#45;&gt;hidden_AdvancedAnalytics -->
<g id="edge65" class="edge">
<title>navigation&#45;&gt;hidden_AdvancedAnalytics</title>
<path fill="none" stroke="#fb923c" stroke-width="1.3" stroke-dasharray="5,2" d="M199.61,-1354.18C220.5,-1349.72 241.84,-1341.34 257,-1326 338,-1244.03 236.47,-1152.23 322,-1075 343.13,-1055.92 371.72,-1046.42 399.68,-1042.07"/>
<polygon fill="#fb923c" stroke="#fb923c" stroke-width="1.3" points="400.39,-1044.8 407.93,-1040.93 399.62,-1039.25 400.39,-1044.8"/>
</g>
<!-- hidden_ScatterAnalysis -->
<g id="node67" class="node">
<title>hidden_ScatterAnalysis</title>
<path fill="#431407" stroke="#fb923c" d="M565,-999C565,-999 432,-999 432,-999 426,-999 420,-993 420,-987 420,-987 420,-973 420,-973 420,-967 426,-961 432,-961 432,-961 565,-961 565,-961 571,-961 577,-967 577,-973 577,-973 577,-987 577,-987 577,-993 571,-999 565,-999"/>
<text text-anchor="middle" x="498.5" y="-983.8" font-family="Segoe UI" font-size="14.00" fill="#e2e8f0">ScatterAnalysis</text>
<text text-anchor="middle" x="498.5" y="-968.8" font-family="Segoe UI" font-size="14.00" fill="#e2e8f0">ScatterAnalysisPage</text>
</g>
<!-- navigation&#45;&gt;hidden_ScatterAnalysis -->
<g id="edge66" class="edge">
<title>navigation&#45;&gt;hidden_ScatterAnalysis</title>
<path fill="none" stroke="#fb923c" stroke-width="1.3" stroke-dasharray="5,2" d="M199.6,-1354.95C220.75,-1350.56 242.24,-1342.04 257,-1326 305.25,-1273.57 268.78,-1059.38 322,-1012 346.21,-990.45 379.95,-981.17 411.39,-977.73"/>
<polygon fill="#fb923c" stroke="#fb923c" stroke-width="1.3" points="412.05,-980.48 419.75,-976.94 411.52,-974.91 412.05,-980.48"/>
</g>
<!-- hidden_DataCalendar -->
<g id="node68" class="node">
<title>hidden_DataCalendar</title>
<path fill="#431407" stroke="#fb923c" d="M558.5,-936C558.5,-936 438.5,-936 438.5,-936 432.5,-936 426.5,-930 426.5,-924 426.5,-924 426.5,-910 426.5,-910 426.5,-904 432.5,-898 438.5,-898 438.5,-898 558.5,-898 558.5,-898 564.5,-898 570.5,-904 570.5,-910 570.5,-910 570.5,-924 570.5,-924 570.5,-930 564.5,-936 558.5,-936"/>
<text text-anchor="middle" x="498.5" y="-920.8" font-family="Segoe UI" font-size="14.00" fill="#e2e8f0">DataCalendar</text>
<text text-anchor="middle" x="498.5" y="-905.8" font-family="Segoe UI" font-size="14.00" fill="#e2e8f0">DataCalendarPage</text>
</g>
<!-- navigation&#45;&gt;hidden_DataCalendar -->
<g id="edge67" class="edge">
<title>navigation&#45;&gt;hidden_DataCalendar</title>
<path fill="none" stroke="#fb923c" stroke-width="1.3" stroke-dasharray="5,2" d="M199.75,-1355.08C220.9,-1350.7 242.36,-1342.15 257,-1326 314.09,-1263.01 260.95,-1008.17 322,-949 347.22,-924.55 384.54,-915.49 418.28,-912.97"/>
<polygon fill="#fb923c" stroke="#fb923c" stroke-width="1.3" points="418.51,-915.76 426.32,-912.49 418.17,-910.17 418.51,-915.76"/>
</g>
<!-- hidden_StorageOptimization -->
<g id="node69" class="node">
<title>hidden_StorageOptimization</title>
<path fill="#431407" stroke="#fb923c" d="M582.5,-873C582.5,-873 414.5,-873 414.5,-873 408.5,-873 402.5,-867 402.5,-861 402.5,-861 402.5,-847 402.5,-847 402.5,-841 408.5,-835 414.5,-835 414.5,-835 582.5,-835 582.5,-835 588.5,-835 594.5,-841 594.5,-847 594.5,-847 594.5,-861 594.5,-861 594.5,-867 588.5,-873 582.5,-873"/>
<text text-anchor="middle" x="498.5" y="-857.8" font-family="Segoe UI" font-size="14.00" fill="#e2e8f0">StorageOptimization</text>
<text text-anchor="middle" x="498.5" y="-842.8" font-family="Segoe UI" font-size="14.00" fill="#e2e8f0">StorageOptimizationPage</text>
</g>
<!-- navigation&#45;&gt;hidden_StorageOptimization -->
<g id="edge68" class="edge">
<title>navigation&#45;&gt;hidden_StorageOptimization</title>
<path fill="none" stroke="#fb923c" stroke-width="1.3" stroke-dasharray="5,2" d="M199.7,-1355.4C220.98,-1351.06 242.53,-1342.45 257,-1326 322.28,-1251.78 251.08,-954.84 322,-886 341.23,-867.33 367.52,-857.63 393.89,-852.96"/>
<polygon fill="#fb923c" stroke="#fb923c" stroke-width="1.3" points="394.61,-855.68 402.07,-851.67 393.74,-850.15 394.61,-855.68"/>
</g>
<!-- hidden_RetentionAssurance -->
<g id="node70" class="node">
<title>hidden_RetentionAssurance</title>
<path fill="#431407" stroke="#fb923c" d="M580.5,-810C580.5,-810 416.5,-810 416.5,-810 410.5,-810 404.5,-804 404.5,-798 404.5,-798 404.5,-784 404.5,-784 404.5,-778 410.5,-772 416.5,-772 416.5,-772 580.5,-772 580.5,-772 586.5,-772 592.5,-778 592.5,-784 592.5,-784 592.5,-798 592.5,-798 592.5,-804 586.5,-810 580.5,-810"/>
<text text-anchor="middle" x="498.5" y="-794.8" font-family="Segoe UI" font-size="14.00" fill="#e2e8f0">RetentionAssurance</text>
<text text-anchor="middle" x="498.5" y="-779.8" font-family="Segoe UI" font-size="14.00" fill="#e2e8f0">RetentionAssurancePage</text>
</g>
<!-- navigation&#45;&gt;hidden_RetentionAssurance -->
<g id="edge69" class="edge">
<title>navigation&#45;&gt;hidden_RetentionAssurance</title>
<path fill="none" stroke="#fb923c" stroke-width="1.3" stroke-dasharray="5,2" d="M199.59,-1355.66C220.99,-1351.36 242.64,-1342.7 257,-1326 330.47,-1240.53 240.5,-900.85 322,-823 341.87,-804.02 369.06,-794.35 396.1,-789.82"/>
<polygon fill="#fb923c" stroke="#fb923c" stroke-width="1.3" points="396.59,-792.58 404.09,-788.62 395.77,-787.04 396.59,-792.58"/>
</g>
<!-- hidden_AdminMaintenance -->
<g id="node71" class="node">
<title>hidden_AdminMaintenance</title>
<path fill="#431407" stroke="#fb923c" d="M577.5,-747C577.5,-747 419.5,-747 419.5,-747 413.5,-747 407.5,-741 407.5,-735 407.5,-735 407.5,-721 407.5,-721 407.5,-715 413.5,-709 419.5,-709 419.5,-709 577.5,-709 577.5,-709 583.5,-709 589.5,-715 589.5,-721 589.5,-721 589.5,-735 589.5,-735 589.5,-741 583.5,-747 577.5,-747"/>
<text text-anchor="middle" x="498.5" y="-731.8" font-family="Segoe UI" font-size="14.00" fill="#e2e8f0">AdminMaintenance</text>
<text text-anchor="middle" x="498.5" y="-716.8" font-family="Segoe UI" font-size="14.00" fill="#e2e8f0">AdminMaintenancePage</text>
</g>
<!-- navigation&#45;&gt;hidden_AdminMaintenance -->
<g id="edge70" class="edge">
<title>navigation&#45;&gt;hidden_AdminMaintenance</title>
<path fill="none" stroke="#fb923c" stroke-width="1.3" stroke-dasharray="5,2" d="M199.74,-1355.79C221.15,-1351.49 242.77,-1342.81 257,-1326 338.79,-1229.36 229.63,-846.58 322,-760 342.77,-740.53 371.25,-730.92 399.23,-726.59"/>
<polygon fill="#fb923c" stroke="#fb923c" stroke-width="1.3" points="399.95,-729.32 407.5,-725.46 399.19,-723.77 399.95,-729.32"/>
</g>
<!-- hidden_MessagingHub -->
<g id="node72" class="node">
<title>hidden_MessagingHub</title>
<path fill="#431407" stroke="#fb923c" d="M562.5,-684C562.5,-684 434.5,-684 434.5,-684 428.5,-684 422.5,-678 422.5,-672 422.5,-672 422.5,-658 422.5,-658 422.5,-652 428.5,-646 434.5,-646 434.5,-646 562.5,-646 562.5,-646 568.5,-646 574.5,-652 574.5,-658 574.5,-658 574.5,-672 574.5,-672 574.5,-678 568.5,-684 562.5,-684"/>
<text text-anchor="middle" x="498.5" y="-668.8" font-family="Segoe UI" font-size="14.00" fill="#e2e8f0">MessagingHub</text>
<text text-anchor="middle" x="498.5" y="-653.8" font-family="Segoe UI" font-size="14.00" fill="#e2e8f0">MessagingHubPage</text>
</g>
<!-- navigation&#45;&gt;hidden_MessagingHub -->
<g id="edge71" class="edge">
<title>navigation&#45;&gt;hidden_MessagingHub</title>
<path fill="none" stroke="#fb923c" stroke-width="1.3" stroke-dasharray="5,2" d="M199.51,-1355.94C221.04,-1351.68 242.79,-1342.97 257,-1326 347.2,-1218.25 218.76,-792.33 322,-697 346.65,-674.24 381.86,-665.01 414.28,-661.94"/>
<polygon fill="#fb923c" stroke="#fb923c" stroke-width="1.3" points="414.7,-664.72 422.45,-661.29 414.26,-659.13 414.7,-664.72"/>
</g>
<!-- hidden_Workspaces -->
<g id="node73" class="node">
<title>hidden_Workspaces</title>
<path fill="#431407" stroke="#fb923c" d="M549,-621C549,-621 448,-621 448,-621 442,-621 436,-615 436,-609 436,-609 436,-595 436,-595 436,-589 442,-583 448,-583 448,-583 549,-583 549,-583 555,-583 561,-589 561,-595 561,-595 561,-609 561,-609 561,-615 555,-621 549,-621"/>
<text text-anchor="middle" x="498.5" y="-605.8" font-family="Segoe UI" font-size="14.00" fill="#e2e8f0">Workspaces</text>
<text text-anchor="middle" x="498.5" y="-590.8" font-family="Segoe UI" font-size="14.00" fill="#e2e8f0">WorkspacePage</text>
</g>
<!-- navigation&#45;&gt;hidden_Workspaces -->
<g id="edge72" class="edge">
<title>navigation&#45;&gt;hidden_Workspaces</title>
<path fill="none" stroke="#fb923c" stroke-width="1.3" stroke-dasharray="5,2" d="M199.59,-1356.01C221.12,-1351.75 242.86,-1343.03 257,-1326 298.68,-1275.82 282.34,-804.36 293,-740 300.98,-691.81 286,-667.01 322,-634 350.23,-608.12 392.13,-599.77 427.91,-598.06"/>
<polygon fill="#fb923c" stroke="#fb923c" stroke-width="1.3" points="428.02,-600.86 435.92,-597.78 427.82,-595.26 428.02,-600.86"/>
</g>
<!-- hidden_Welcome -->
<g id="node74" class="node">
<title>hidden_Welcome</title>
<path fill="#431407" stroke="#fb923c" d="M542.5,-558C542.5,-558 454.5,-558 454.5,-558 448.5,-558 442.5,-552 442.5,-546 442.5,-546 442.5,-532 442.5,-532 442.5,-526 448.5,-520 454.5,-520 454.5,-520 542.5,-520 542.5,-520 548.5,-520 554.5,-526 554.5,-532 554.5,-532 554.5,-546 554.5,-546 554.5,-552 548.5,-558 542.5,-558"/>
<text text-anchor="middle" x="498.5" y="-542.8" font-family="Segoe UI" font-size="14.00" fill="#e2e8f0">Welcome</text>
<text text-anchor="middle" x="498.5" y="-527.8" font-family="Segoe UI" font-size="14.00" fill="#e2e8f0">WelcomePage</text>
</g>
<!-- navigation&#45;&gt;hidden_Welcome -->
<g id="edge73" class="edge">
<title>navigation&#45;&gt;hidden_Welcome</title>
<path fill="none" stroke="#fb923c" stroke-width="1.3" stroke-dasharray="5,2" d="M199.6,-1356.02C221.14,-1351.76 242.87,-1343.04 257,-1326 310.76,-1261.2 262.39,-630.47 322,-571 350.84,-542.22 396.39,-534.57 433.85,-533.93"/>
<polygon fill="#fb923c" stroke="#fb923c" stroke-width="1.3" points="434.21,-536.73 442.2,-533.9 434.19,-531.13 434.21,-536.73"/>
</g>
<!-- hidden_CredentialManagement -->
<g id="node75" class="node">
<title>hidden_CredentialManagement</title>
<path fill="#431407" stroke="#fb923c" d="M592,-495C592,-495 405,-495 405,-495 399,-495 393,-489 393,-483 393,-483 393,-469 393,-469 393,-463 399,-457 405,-457 405,-457 592,-457 592,-457 598,-457 604,-463 604,-469 604,-469 604,-483 604,-483 604,-489 598,-495 592,-495"/>
<text text-anchor="middle" x="498.5" y="-479.8" font-family="Segoe UI" font-size="14.00" fill="#e2e8f0">CredentialManagement</text>
<text text-anchor="middle" x="498.5" y="-464.8" font-family="Segoe UI" font-size="14.00" fill="#e2e8f0">CredentialManagementPage</text>
</g>
<!-- navigation&#45;&gt;hidden_CredentialManagement -->
<g id="edge74" class="edge">
<title>navigation&#45;&gt;hidden_CredentialManagement</title>
<path fill="none" stroke="#fb923c" stroke-width="1.3" stroke-dasharray="5,2" d="M199.62,-1356.04C221.16,-1351.78 242.88,-1343.05 257,-1326 315.14,-1255.77 258.69,-573.61 322,-508 338.62,-490.78 361.19,-481.04 384.61,-475.83"/>
<polygon fill="#fb923c" stroke="#fb923c" stroke-width="1.3" points="385.28,-478.55 392.58,-474.24 384.18,-473.06 385.28,-478.55"/>
</g>
<!-- hidden_KeyboardShortcuts -->
<g id="node76" class="node">
<title>hidden_KeyboardShortcuts</title>
<path fill="#431407" stroke="#fb923c" d="M577,-432C577,-432 420,-432 420,-432 414,-432 408,-426 408,-420 408,-420 408,-406 408,-406 408,-400 414,-394 420,-394 420,-394 577,-394 577,-394 583,-394 589,-400 589,-406 589,-406 589,-420 589,-420 589,-426 583,-432 577,-432"/>
<text text-anchor="middle" x="498.5" y="-416.8" font-family="Segoe UI" font-size="14.00" fill="#e2e8f0">KeyboardShortcuts</text>
<text text-anchor="middle" x="498.5" y="-401.8" font-family="Segoe UI" font-size="14.00" fill="#e2e8f0">KeyboardShortcutsPage</text>
</g>
<!-- navigation&#45;&gt;hidden_KeyboardShortcuts -->
<g id="edge75" class="edge">
<title>navigation&#45;&gt;hidden_KeyboardShortcuts</title>
<path fill="none" stroke="#fb923c" stroke-width="1.3" stroke-dasharray="5,2" d="M199.68,-1356.08C221.22,-1351.83 242.93,-1343.09 257,-1326 319.37,-1250.21 253.69,-515.48 322,-445 342.2,-424.16 371.12,-414.29 399.67,-410.15"/>
<polygon fill="#fb923c" stroke="#fb923c" stroke-width="1.3" points="400.12,-412.92 407.71,-409.13 399.42,-407.36 400.12,-412.92"/>
</g>
<!-- hidden_SetupWizard -->
<g id="node77" class="node">
<title>hidden_SetupWizard</title>
<path fill="#431407" stroke="#fb923c" d="M555,-369C555,-369 442,-369 442,-369 436,-369 430,-363 430,-357 430,-357 430,-343 430,-343 430,-337 436,-331 442,-331 442,-331 555,-331 555,-331 561,-331 567,-337 567,-343 567,-343 567,-357 567,-357 567,-363 561,-369 555,-369"/>
<text text-anchor="middle" x="498.5" y="-353.8" font-family="Segoe UI" font-size="14.00" fill="#e2e8f0">SetupWizard</text>
<text text-anchor="middle" x="498.5" y="-338.8" font-family="Segoe UI" font-size="14.00" fill="#e2e8f0">SetupWizardPage</text>
</g>
<!-- navigation&#45;&gt;hidden_SetupWizard -->
<g id="edge76" class="edge">
<title>navigation&#45;&gt;hidden_SetupWizard</title>
<path fill="none" stroke="#fb923c" stroke-width="1.3" stroke-dasharray="5,2" d="M199.73,-1356.12C221.27,-1351.87 242.97,-1343.13 257,-1326 323.61,-1244.66 248.59,-457.26 322,-382 347.43,-355.93 386.52,-347.06 421.36,-345.09"/>
<polygon fill="#fb923c" stroke="#fb923c" stroke-width="1.3" points="421.77,-347.87 429.64,-344.74 421.53,-342.28 421.77,-347.87"/>
</g>
<!-- hidden_AddProviderWizard -->
<g id="node78" class="node">
<title>hidden_AddProviderWizard</title>
<path fill="#431407" stroke="#fb923c" d="M577,-306C577,-306 420,-306 420,-306 414,-306 408,-300 408,-294 408,-294 408,-280 408,-280 408,-274 414,-268 420,-268 420,-268 577,-268 577,-268 583,-268 589,-274 589,-280 589,-280 589,-294 589,-294 589,-300 583,-306 577,-306"/>
<text text-anchor="middle" x="498.5" y="-290.8" font-family="Segoe UI" font-size="14.00" fill="#e2e8f0">AddProviderWizard</text>
<text text-anchor="middle" x="498.5" y="-275.8" font-family="Segoe UI" font-size="14.00" fill="#e2e8f0">AddProviderWizardPage</text>
</g>
<!-- navigation&#45;&gt;hidden_AddProviderWizard -->
<g id="edge77" class="edge">
<title>navigation&#45;&gt;hidden_AddProviderWizard</title>
<path fill="none" stroke="#fb923c" stroke-width="1.3" stroke-dasharray="5,2" d="M199.77,-1356.16C221.32,-1351.91 243.01,-1343.16 257,-1326 327.86,-1239.11 243.4,-398.96 322,-319 342.34,-298.31 371.3,-288.48 399.85,-284.33"/>
<polygon fill="#fb923c" stroke="#fb923c" stroke-width="1.3" points="400.3,-287.09 407.88,-283.3 399.59,-281.54 400.3,-287.09"/>
</g>
<!-- hidden_DashboardWeb -->
<g id="node79" class="node">
<title>hidden_DashboardWeb</title>
<path fill="#431407" stroke="#fb923c" d="M564,-243C564,-243 433,-243 433,-243 427,-243 421,-237 421,-231 421,-231 421,-217 421,-217 421,-211 427,-205 433,-205 433,-205 564,-205 564,-205 570,-205 576,-211 576,-217 576,-217 576,-231 576,-231 576,-237 570,-243 564,-243"/>
<text text-anchor="middle" x="498.5" y="-227.8" font-family="Segoe UI" font-size="14.00" fill="#e2e8f0">DashboardWeb</text>
<text text-anchor="middle" x="498.5" y="-212.8" font-family="Segoe UI" font-size="14.00" fill="#e2e8f0">DashboardWebPage</text>
</g>
<!-- navigation&#45;&gt;hidden_DashboardWeb -->
<g id="edge78" class="edge">
<title>navigation&#45;&gt;hidden_DashboardWeb</title>
<path fill="none" stroke="#fb923c" stroke-width="1.3" stroke-dasharray="5,2" d="M199.8,-1356.18C221.35,-1351.94 243.04,-1343.18 257,-1326 332.11,-1233.56 238.05,-340.49 322,-256 345.45,-232.41 380.11,-222.98 412.45,-219.98"/>
<polygon fill="#fb923c" stroke="#fb923c" stroke-width="1.3" points="412.85,-222.76 420.61,-219.35 412.42,-217.17 412.85,-222.76"/>
</g>
<!-- hidden_ActivityLog -->
<g id="node80" class="node">
<title>hidden_ActivityLog</title>
<path fill="#431407" stroke="#fb923c" d="M549,-180C549,-180 448,-180 448,-180 442,-180 436,-174 436,-168 436,-168 436,-154 436,-154 436,-148 442,-142 448,-142 448,-142 549,-142 549,-142 555,-142 561,-148 561,-154 561,-154 561,-168 561,-168 561,-174 555,-180 549,-180"/>
<text text-anchor="middle" x="498.5" y="-164.8" font-family="Segoe UI" font-size="14.00" fill="#e2e8f0">ActivityLog</text>
<text text-anchor="middle" x="498.5" y="-149.8" font-family="Segoe UI" font-size="14.00" fill="#e2e8f0">ActivityLogPage</text>
</g>
<!-- navigation&#45;&gt;hidden_ActivityLog -->
<g id="edge79" class="edge">
<title>navigation&#45;&gt;hidden_ActivityLog</title>
<path fill="none" stroke="#fb923c" stroke-width="1.3" stroke-dasharray="5,2" d="M199.83,-1356.21C221.39,-1351.96 243.07,-1343.2 257,-1326 336.37,-1228.02 232.53,-281.85 322,-193 349.38,-165.81 391.67,-157.51 427.88,-156.15"/>
<polygon fill="#fb923c" stroke="#fb923c" stroke-width="1.3" points="428.05,-158.94 435.98,-155.95 427.91,-153.34 428.05,-158.94"/>
</g>
<!-- hidden_SecurityMaster -->
<g id="node81" class="node">
<title>hidden_SecurityMaster</title>
<path fill="#431407" stroke="#fb923c" d="M563.5,-117C563.5,-117 433.5,-117 433.5,-117 427.5,-117 421.5,-111 421.5,-105 421.5,-105 421.5,-91 421.5,-91 421.5,-85 427.5,-79 433.5,-79 433.5,-79 563.5,-79 563.5,-79 569.5,-79 575.5,-85 575.5,-91 575.5,-91 575.5,-105 575.5,-105 575.5,-111 569.5,-117 563.5,-117"/>
<text text-anchor="middle" x="498.5" y="-101.8" font-family="Segoe UI" font-size="14.00" fill="#e2e8f0">SecurityMaster</text>
<text text-anchor="middle" x="498.5" y="-86.8" font-family="Segoe UI" font-size="14.00" fill="#e2e8f0">SecurityMasterPage</text>
</g>
<!-- navigation&#45;&gt;hidden_SecurityMaster -->
<g id="edge80" class="edge">
<title>navigation&#45;&gt;hidden_SecurityMaster</title>
<path fill="none" stroke="#fb923c" stroke-width="1.3" stroke-dasharray="5,2" d="M199.52,-1356.29C221.19,-1352.07 243.01,-1343.31 257,-1326 340.64,-1222.49 227.34,-223.55 322,-130 345.76,-106.52 380.65,-97.14 413.08,-94.16"/>
<polygon fill="#fb923c" stroke="#fb923c" stroke-width="1.3" points="413.5,-96.93 421.26,-93.53 413.07,-91.35 413.5,-96.93"/>
</g>
<!-- hidden_DirectLending -->
<g id="node82" class="node">
<title>hidden_DirectLending</title>
<path fill="#431407" stroke="#fb923c" d="M559.5,-54C559.5,-54 437.5,-54 437.5,-54 431.5,-54 425.5,-48 425.5,-42 425.5,-42 425.5,-28 425.5,-28 425.5,-22 431.5,-16 437.5,-16 437.5,-16 559.5,-16 559.5,-16 565.5,-16 571.5,-22 571.5,-28 571.5,-28 571.5,-42 571.5,-42 571.5,-48 565.5,-54 559.5,-54"/>
<text text-anchor="middle" x="498.5" y="-38.8" font-family="Segoe UI" font-size="14.00" fill="#e2e8f0">DirectLending</text>
<text text-anchor="middle" x="498.5" y="-23.8" font-family="Segoe UI" font-size="14.00" fill="#e2e8f0">DirectLendingPage</text>
</g>
<!-- navigation&#45;&gt;hidden_DirectLending -->
<g id="edge81" class="edge">
<title>navigation&#45;&gt;hidden_DirectLending</title>
<path fill="none" stroke="#fb923c" stroke-width="1.3" stroke-dasharray="5,2" d="M199.54,-1356.31C221.21,-1352.09 243.03,-1343.32 257,-1326 295.9,-1277.75 285.86,-272.56 293,-211 300.52,-146.15 275.41,-112.74 322,-67 346.86,-42.59 383.75,-33.46 417.31,-30.88"/>
<polygon fill="#fb923c" stroke="#fb923c" stroke-width="1.3" points="417.5,-33.68 425.31,-30.39 417.15,-28.09 417.5,-33.68"/>
</g>
<!-- page_ResearchShell -->
<g id="node5" class="node">
<title>page_ResearchShell</title>
<path fill="#1e293b" stroke="#475569" d="M1114.5,-2729C1114.5,-2729 798.5,-2729 798.5,-2729 792.5,-2729 786.5,-2723 786.5,-2717 786.5,-2717 786.5,-2703 786.5,-2703 786.5,-2697 792.5,-2691 798.5,-2691 798.5,-2691 1114.5,-2691 1114.5,-2691 1120.5,-2691 1126.5,-2697 1126.5,-2703 1126.5,-2703 1126.5,-2717 1126.5,-2717 1126.5,-2723 1120.5,-2729 1114.5,-2729"/>
<text text-anchor="middle" x="956.5" y="-2713.8" font-family="Segoe UI" font-size="14.00" fill="#e2e8f0">ResearchShell</text>
<text text-anchor="middle" x="956.5" y="-2698.8" font-family="Segoe UI" font-size="14.00" fill="#e2e8f0">ResearchShell → ResearchWorkspaceShellPage</text>
</g>
<!-- workspace_1&#45;&gt;page_ResearchShell -->
<g id="edge3" class="edge">
<title>workspace_1&#45;&gt;page_ResearchShell</title>
<path fill="none" stroke="#94a3b8" stroke-width="1.3" d="M501.02,-3729.67C511.51,-3601.38 577.82,-2873.67 741,-2742 752.37,-2732.82 765.23,-2725.69 778.85,-2720.2"/>
<polygon fill="#94a3b8" stroke="#94a3b8" stroke-width="1.3" points="780,-2722.76 786.5,-2717.32 778.03,-2717.52 780,-2722.76"/>
</g>
<!-- page_Backtest -->
<g id="node6" class="node">
<title>page_Backtest</title>
<path fill="#1e293b" stroke="#475569" d="M1040,-2792C1040,-2792 873,-2792 873,-2792 867,-2792 861,-2786 861,-2780 861,-2780 861,-2766 861,-2766 861,-2760 867,-2754 873,-2754 873,-2754 1040,-2754 1040,-2754 1046,-2754 1052,-2760 1052,-2766 1052,-2766 1052,-2780 1052,-2780 1052,-2786 1046,-2792 1040,-2792"/>
<text text-anchor="middle" x="956.5" y="-2776.8" font-family="Segoe UI" font-size="14.00" fill="#e2e8f0">Backtest</text>
<text text-anchor="middle" x="956.5" y="-2761.8" font-family="Segoe UI" font-size="14.00" fill="#e2e8f0">Backtest → BacktestPage</text>
</g>
<!-- workspace_1&#45;&gt;page_Backtest -->
<g id="edge4" class="edge">
<title>workspace_1&#45;&gt;page_Backtest</title>
<path fill="none" stroke="#94a3b8" stroke-width="1.3" d="M501.36,-3729.72C513.7,-3606.32 587.95,-2928.49 741,-2805 771.98,-2780 813.96,-2770.19 852.57,-2767.29"/>
<polygon fill="#94a3b8" stroke="#94a3b8" stroke-width="1.3" points="852.94,-2770.07 860.75,-2766.78 852.59,-2764.49 852.94,-2770.07"/>
</g>
<!-- page_StrategyRuns -->
<g id="node7" class="node">
<title>page_StrategyRuns</title>
<path fill="#1e293b" stroke="#475569" d="M1073.5,-2855C1073.5,-2855 839.5,-2855 839.5,-2855 833.5,-2855 827.5,-2849 827.5,-2843 827.5,-2843 827.5,-2829 827.5,-2829 827.5,-2823 833.5,-2817 839.5,-2817 839.5,-2817 1073.5,-2817 1073.5,-2817 1079.5,-2817 1085.5,-2823 1085.5,-2829 1085.5,-2829 1085.5,-2843 1085.5,-2843 1085.5,-2849 1079.5,-2855 1073.5,-2855"/>
<text text-anchor="middle" x="956.5" y="-2839.8" font-family="Segoe UI" font-size="14.00" fill="#e2e8f0">StrategyRuns</text>
<text text-anchor="middle" x="956.5" y="-2824.8" font-family="Segoe UI" font-size="14.00" fill="#e2e8f0">StrategyRuns → StrategyRunsPage</text>
</g>
<!-- workspace_1&#45;&gt;page_StrategyRuns -->
<g id="edge5" class="edge">
<title>workspace_1&#45;&gt;page_StrategyRuns</title>
<path fill="none" stroke="#94a3b8" stroke-width="1.3" d="M501.74,-3729.89C515.99,-3611.86 597.98,-2983.4 741,-2868 763.23,-2850.06 791.12,-2839.95 819.37,-2834.59"/>
<polygon fill="#94a3b8" stroke="#94a3b8" stroke-width="1.3" points="819.94,-2837.33 827.34,-2833.2 818.98,-2831.82 819.94,-2837.33"/>
</g>
<!-- page_QuantScript -->
<g id="node8" class="node">
<title>page_QuantScript</title>
<path fill="#1e293b" stroke="#475569" d="M1063,-2918C1063,-2918 850,-2918 850,-2918 844,-2918 838,-2912 838,-2906 838,-2906 838,-2892 838,-2892 838,-2886 844,-2880 850,-2880 850,-2880 1063,-2880 1063,-2880 1069,-2880 1075,-2886 1075,-2892 1075,-2892 1075,-2906 1075,-2906 1075,-2912 1069,-2918 1063,-2918"/>
<text text-anchor="middle" x="956.5" y="-2902.8" font-family="Segoe UI" font-size="14.00" fill="#e2e8f0">QuantScript</text>
<text text-anchor="middle" x="956.5" y="-2887.8" font-family="Segoe UI" font-size="14.00" fill="#e2e8f0">QuantScript → QuantScriptPage</text>
</g>
<!-- workspace_1&#45;&gt;page_QuantScript -->
<g id="edge6" class="edge">
<title>workspace_1&#45;&gt;page_QuantScript</title>
<path fill="none" stroke="#94a3b8" stroke-width="1.3" d="M502.17,-3729.78C518.3,-3616.43 606.71,-3036.6 741,-2931 766.1,-2911.26 798.11,-2901.09 829.7,-2896.31"/>
<polygon fill="#94a3b8" stroke="#94a3b8" stroke-width="1.3" points="830.18,-2899.07 837.72,-2895.21 829.42,-2893.52 830.18,-2899.07"/>
</g>
<!-- page_RunMat -->
<g id="node9" class="node">
<title>page_RunMat</title>
<path fill="#1e293b" stroke="#475569" d="M1032.5,-2981C1032.5,-2981 880.5,-2981 880.5,-2981 874.5,-2981 868.5,-2975 868.5,-2969 868.5,-2969 868.5,-2955 868.5,-2955 868.5,-2949 874.5,-2943 880.5,-2943 880.5,-2943 1032.5,-2943 1032.5,-2943 1038.5,-2943 1044.5,-2949 1044.5,-2955 1044.5,-2955 1044.5,-2969 1044.5,-2969 1044.5,-2975 1038.5,-2981 1032.5,-2981"/>
<text text-anchor="middle" x="956.5" y="-2965.8" font-family="Segoe UI" font-size="14.00" fill="#e2e8f0">RunMat</text>
<text text-anchor="middle" x="956.5" y="-2950.8" font-family="Segoe UI" font-size="14.00" fill="#e2e8f0">RunMat → RunMatPage</text>
</g>
<!-- workspace_1&#45;&gt;page_RunMat -->
<g id="edge7" class="edge">
<title>workspace_1&#45;&gt;page_RunMat</title>
<path fill="none" stroke="#94a3b8" stroke-width="1.3" d="M498.93,-3729.92C497.2,-3633.48 503.01,-3196.36 741,-2994 773.54,-2966.33 819.36,-2956.9 860.3,-2954.98"/>
<polygon fill="#94a3b8" stroke="#94a3b8" stroke-width="1.3" points="860.52,-2957.77 868.42,-2954.69 860.32,-2952.18 860.52,-2957.77"/>
</g>
<!-- page_Charts -->
<g id="node10" class="node">
<title>page_Charts</title>
<path fill="#1e293b" stroke="#475569" d="M1032.5,-3044C1032.5,-3044 880.5,-3044 880.5,-3044 874.5,-3044 868.5,-3038 868.5,-3032 868.5,-3032 868.5,-3018 868.5,-3018 868.5,-3012 874.5,-3006 880.5,-3006 880.5,-3006 1032.5,-3006 1032.5,-3006 1038.5,-3006 1044.5,-3012 1044.5,-3018 1044.5,-3018 1044.5,-3032 1044.5,-3032 1044.5,-3038 1038.5,-3044 1032.5,-3044"/>
<text text-anchor="middle" x="956.5" y="-3028.8" font-family="Segoe UI" font-size="14.00" fill="#e2e8f0">Charts</text>
<text text-anchor="middle" x="956.5" y="-3013.8" font-family="Segoe UI" font-size="14.00" fill="#e2e8f0">Charts → ChartingPage</text>
</g>
<!-- workspace_1&#45;&gt;page_Charts -->
<g id="edge8" class="edge">
<title>workspace_1&#45;&gt;page_Charts</title>
<path fill="none" stroke="#94a3b8" stroke-width="1.3" d="M510.5,-3729.69C545.1,-3668.07 652.5,-3469.7 705,-3292 719.97,-3241.33 703.57,-3094.28 741,-3057 771.76,-3026.36 818.34,-3016.83 860.23,-3015.61"/>
<polygon fill="#94a3b8" stroke="#94a3b8" stroke-width="1.3" points="860.32,-3018.41 868.27,-3015.47 860.22,-3012.81 860.32,-3018.41"/>
</g>
<!-- page_Watchlist -->
<g id="node11" class="node">
<title>page_Watchlist</title>
<path fill="#1e293b" stroke="#475569" d="M1043,-3107C1043,-3107 870,-3107 870,-3107 864,-3107 858,-3101 858,-3095 858,-3095 858,-3081 858,-3081 858,-3075 864,-3069 870,-3069 870,-3069 1043,-3069 1043,-3069 1049,-3069 1055,-3075 1055,-3081 1055,-3081 1055,-3095 1055,-3095 1055,-3101 1049,-3107 1043,-3107"/>
<text text-anchor="middle" x="956.5" y="-3091.8" font-family="Segoe UI" font-size="14.00" fill="#e2e8f0">Watchlist</text>
<text text-anchor="middle" x="956.5" y="-3076.8" font-family="Segoe UI" font-size="14.00" fill="#e2e8f0">Watchlist → WatchlistPage</text>
</g>
<!-- workspace_1&#45;&gt;page_Watchlist -->
<g id="edge9" class="edge">
<title>workspace_1&#45;&gt;page_Watchlist</title>
<path fill="none" stroke="#94a3b8" stroke-width="1.3" d="M520.44,-3729.97C563.72,-3689.21 662.5,-3588.4 705,-3481 734.66,-3406.03 685.4,-3178.38 741,-3120 768.58,-3091.05 810.19,-3080.61 849.44,-3078.31"/>
<polygon fill="#94a3b8" stroke="#94a3b8" stroke-width="1.3" points="849.91,-3081.09 857.77,-3077.93 849.66,-3075.49 849.91,-3081.09"/>
</g>
<!-- page_EventReplay -->
<g id="node12" class="node">
<title>page_EventReplay</title>
<path fill="#1e293b" stroke="#475569" d="M1066,-3170C1066,-3170 847,-3170 847,-3170 841,-3170 835,-3164 835,-3158 835,-3158 835,-3144 835,-3144 835,-3138 841,-3132 847,-3132 847,-3132 1066,-3132 1066,-3132 1072,-3132 1078,-3138 1078,-3144 1078,-3144 1078,-3158 1078,-3158 1078,-3164 1072,-3170 1066,-3170"/>
<text text-anchor="middle" x="956.5" y="-3154.8" font-family="Segoe UI" font-size="14.00" fill="#e2e8f0">EventReplay</text>
<text text-anchor="middle" x="956.5" y="-3139.8" font-family="Segoe UI" font-size="14.00" fill="#e2e8f0">EventReplay → EventReplayPage</text>
</g>
<!-- workspace_1&#45;&gt;page_EventReplay -->
<g id="edge10" class="edge">
<title>workspace_1&#45;&gt;page_EventReplay</title>
<path fill="none" stroke="#94a3b8" stroke-width="1.3" d="M537.68,-3729.78C585.99,-3703.19 667.43,-3650.27 705,-3579 746.21,-3500.83 680.34,-3247.25 741,-3183 763.22,-3159.47 794.71,-3148.13 826.73,-3143.45"/>
<polygon fill="#94a3b8" stroke="#94a3b8" stroke-width="1.3" points="827.3,-3146.2 834.87,-3142.4 826.58,-3140.65 827.3,-3146.2"/>
</g>
<!-- page_LeanIntegration -->
<g id="node13" class="node">
<title>page_LeanIntegration</title>
<path fill="#1e293b" stroke="#475569" d="M1089.5,-3233C1089.5,-3233 823.5,-3233 823.5,-3233 817.5,-3233 811.5,-3227 811.5,-3221 811.5,-3221 811.5,-3207 811.5,-3207 811.5,-3201 817.5,-3195 823.5,-3195 823.5,-3195 1089.5,-3195 1089.5,-3195 1095.5,-3195 1101.5,-3201 1101.5,-3207 1101.5,-3207 1101.5,-3221 1101.5,-3221 1101.5,-3227 1095.5,-3233 1089.5,-3233"/>
<text text-anchor="middle" x="956.5" y="-3217.8" font-family="Segoe UI" font-size="14.00" fill="#e2e8f0">LeanIntegration</text>
<text text-anchor="middle" x="956.5" y="-3202.8" font-family="Segoe UI" font-size="14.00" fill="#e2e8f0">LeanIntegration → LeanIntegrationPage</text>
</g>
<!-- workspace_1&#45;&gt;page_LeanIntegration -->
<g id="edge11" class="edge">
<title>workspace_1&#45;&gt;page_LeanIntegration</title>
<path fill="none" stroke="#94a3b8" stroke-width="1.3" d="M560.78,-3731.06C608.53,-3713.65 672.07,-3682.22 705,-3631 751.47,-3558.72 681.93,-3308.4 741,-3246 757.74,-3228.31 779.72,-3217.52 803.22,-3211.27"/>
<polygon fill="#94a3b8" stroke="#94a3b8" stroke-width="1.3" points="804.13,-3213.93 811.24,-3209.32 802.81,-3208.49 804.13,-3213.93"/>
</g>
<!-- page_TradingShell -->
<g id="node14" class="node">
<title>page_TradingShell</title>
<path fill="#1e293b" stroke="#475569" d="M1103,-3296C1103,-3296 810,-3296 810,-3296 804,-3296 798,-3290 798,-3284 798,-3284 798,-3270 798,-3270 798,-3264 804,-3258 810,-3258 810,-3258 1103,-3258 1103,-3258 1109,-3258 1115,-3264 1115,-3270 1115,-3270 1115,-3284 1115,-3284 1115,-3290 1109,-3296 1103,-3296"/>
<text text-anchor="middle" x="956.5" y="-3280.8" font-family="Segoe UI" font-size="14.00" fill="#e2e8f0">TradingShell</text>
<text text-anchor="middle" x="956.5" y="-3265.8" font-family="Segoe UI" font-size="14.00" fill="#e2e8f0">TradingShell → TradingWorkspaceShellPage</text>
</g>
<!-- workspace_1&#45;&gt;page_TradingShell -->
<g id="edge12" class="edge">
<title>workspace_1&#45;&gt;page_TradingShell</title>
<path fill="none" stroke="#94a3b8" stroke-width="1.3" d="M560.68,-3739.83C608.03,-3729.31 671.09,-3707.12 705,-3661 751.58,-3597.65 686.7,-3365.87 741,-3309 754.59,-3294.76 771.58,-3285.01 790.01,-3278.49"/>
<polygon fill="#94a3b8" stroke="#94a3b8" stroke-width="1.3" points="791.25,-3281.04 797.99,-3275.9 789.52,-3275.71 791.25,-3281.04"/>
</g>
<!-- page_LiveData -->
<g id="node15" class="node">
<title>page_LiveData</title>
<path fill="#1e293b" stroke="#475569" d="M1063,-3359C1063,-3359 850,-3359 850,-3359 844,-3359 838,-3353 838,-3347 838,-3347 838,-3333 838,-3333 838,-3327 844,-3321 850,-3321 850,-3321 1063,-3321 1063,-3321 1069,-3321 1075,-3327 1075,-3333 1075,-3333 1075,-3347 1075,-3347 1075,-3353 1069,-3359 1063,-3359"/>
<text text-anchor="middle" x="956.5" y="-3343.8" font-family="Segoe UI" font-size="14.00" fill="#e2e8f0">LiveData</text>
<text text-anchor="middle" x="956.5" y="-3328.8" font-family="Segoe UI" font-size="14.00" fill="#e2e8f0">LiveData → LiveDataViewerPage</text>
</g>
<!-- workspace_1&#45;&gt;page_LiveData -->
<g id="edge13" class="edge">
<title>workspace_1&#45;&gt;page_LiveData</title>
<path fill="none" stroke="#94a3b8" stroke-width="1.3" d="M560.6,-3745.17C607.59,-3738.78 670.18,-3722.09 705,-3679 791.34,-3572.14 645.39,-3470.65 741,-3372 764.07,-3348.2 796.64,-3336.98 829.45,-3332.51"/>
<polygon fill="#94a3b8" stroke="#94a3b8" stroke-width="1.3" points="830.18,-3335.24 837.79,-3331.51 829.51,-3329.68 830.18,-3335.24"/>
</g>
<!-- page_PositionBlotter -->
<g id="node16" class="node">
<title>page_PositionBlotter</title>
<path fill="#1e293b" stroke="#475569" d="M1080.5,-3422C1080.5,-3422 832.5,-3422 832.5,-3422 826.5,-3422 820.5,-3416 820.5,-3410 820.5,-3410 820.5,-3396 820.5,-3396 820.5,-3390 826.5,-3384 832.5,-3384 832.5,-3384 1080.5,-3384 1080.5,-3384 1086.5,-3384 1092.5,-3390 1092.5,-3396 1092.5,-3396 1092.5,-3410 1092.5,-3410 1092.5,-3416 1086.5,-3422 1080.5,-3422"/>
<text text-anchor="middle" x="956.5" y="-3406.8" font-family="Segoe UI" font-size="14.00" fill="#e2e8f0">PositionBlotter</text>
<text text-anchor="middle" x="956.5" y="-3391.8" font-family="Segoe UI" font-size="14.00" fill="#e2e8f0">PositionBlotter → PositionBlotterPage</text>
</g>
<!-- workspace_1&#45;&gt;page_PositionBlotter -->
<g id="edge14" class="edge">
<title>workspace_1&#45;&gt;page_PositionBlotter</title>
<path fill="none" stroke="#94a3b8" stroke-width="1.3" d="M560.54,-3748.37C607.18,-3744.43 669.32,-3731.03 705,-3690 780.1,-3603.63 660.38,-3516.25 741,-3435 760.19,-3415.66 785.67,-3404.7 812.34,-3398.92"/>
<polygon fill="#94a3b8" stroke="#94a3b8" stroke-width="1.3" points="812.97,-3401.65 820.28,-3397.36 811.89,-3396.16 812.97,-3401.65"/>
</g>
<!-- page_OrderBook -->
<g id="node17" class="node">
<title>page_OrderBook</title>
<path fill="#1e293b" stroke="#475569" d="M1054,-3485C1054,-3485 859,-3485 859,-3485 853,-3485 847,-3479 847,-3473 847,-3473 847,-3459 847,-3459 847,-3453 853,-3447 859,-3447 859,-3447 1054,-3447 1054,-3447 1060,-3447 1066,-3453 1066,-3459 1066,-3459 1066,-3473 1066,-3473 1066,-3479 1060,-3485 1054,-3485"/>
<text text-anchor="middle" x="956.5" y="-3469.8" font-family="Segoe UI" font-size="14.00" fill="#e2e8f0">OrderBook</text>
<text text-anchor="middle" x="956.5" y="-3454.8" font-family="Segoe UI" font-size="14.00" fill="#e2e8f0">OrderBook → OrderBookPage</text>
</g>
<!-- workspace_1&#45;&gt;page_OrderBook -->
<g id="edge15" class="edge">
<title>workspace_1&#45;&gt;page_OrderBook</title>
<path fill="none" stroke="#94a3b8" stroke-width="1.3" d="M560.87,-3750.51C607.05,-3748.17 668.43,-3737.03 705,-3698 766.75,-3632.09 676.19,-3560.9 741,-3498 766.81,-3472.95 803.23,-3462.14 838.74,-3458.43"/>
<polygon fill="#94a3b8" stroke="#94a3b8" stroke-width="1.3" points="839.06,-3461.21 846.77,-3457.71 838.56,-3455.64 839.06,-3461.21"/>
</g>
<!-- page_RunRisk -->
<g id="node18" class="node">
<title>page_RunRisk</title>
<path fill="#1e293b" stroke="#475569" d="M1036,-3548C1036,-3548 877,-3548 877,-3548 871,-3548 865,-3542 865,-3536 865,-3536 865,-3522 865,-3522 865,-3516 871,-3510 877,-3510 877,-3510 1036,-3510 1036,-3510 1042,-3510 1048,-3516 1048,-3522 1048,-3522 1048,-3536 1048,-3536 1048,-3542 1042,-3548 1036,-3548"/>
<text text-anchor="middle" x="956.5" y="-3532.8" font-family="Segoe UI" font-size="14.00" fill="#e2e8f0">RunRisk</text>
<text text-anchor="middle" x="956.5" y="-3517.8" font-family="Segoe UI" font-size="14.00" fill="#e2e8f0">RunRisk → RunRiskPage</text>
</g>
<!-- workspace_1&#45;&gt;page_RunRisk -->
<g id="edge16" class="edge">
<title>workspace_1&#45;&gt;page_RunRisk</title>
<path fill="none" stroke="#94a3b8" stroke-width="1.3" d="M560.91,-3752.43C606.49,-3751.54 667.07,-3742.55 705,-3706 752.82,-3659.93 691.87,-3605.66 741,-3561 771.95,-3532.86 816.44,-3523.12 856.88,-3521.11"/>
<polygon fill="#94a3b8" stroke="#94a3b8" stroke-width="1.3" points="857.02,-3523.9 864.91,-3520.8 856.81,-3518.31 857.02,-3523.9"/>
</g>
<!-- page_NotificationCenter -->
<g id="node19" class="node">
<title>page_NotificationCenter</title>
<path fill="#1e293b" stroke="#475569" d="M1105,-3611C1105,-3611 808,-3611 808,-3611 802,-3611 796,-3605 796,-3599 796,-3599 796,-3585 796,-3585 796,-3579 802,-3573 808,-3573 808,-3573 1105,-3573 1105,-3573 1111,-3573 1117,-3579 1117,-3585 1117,-3585 1117,-3599 1117,-3599 1117,-3605 1111,-3611 1105,-3611"/>
<text text-anchor="middle" x="956.5" y="-3595.8" font-family="Segoe UI" font-size="14.00" fill="#e2e8f0">NotificationCenter</text>
<text text-anchor="middle" x="956.5" y="-3580.8" font-family="Segoe UI" font-size="14.00" fill="#e2e8f0">NotificationCenter → NotificationCenterPage</text>
</g>
<!-- workspace_1&#45;&gt;page_NotificationCenter -->
<g id="edge17" class="edge">
<title>workspace_1&#45;&gt;page_NotificationCenter</title>
<path fill="none" stroke="#94a3b8" stroke-width="1.3" d="M560.73,-3743.28C605.32,-3740.98 664.72,-3733.57 705,-3701 738.18,-3674.17 707.48,-3638.4 741,-3612 754.98,-3600.99 771.11,-3592.95 788.11,-3587.24"/>
<polygon fill="#94a3b8" stroke="#94a3b8" stroke-width="1.3" points="789.19,-3589.84 795.98,-3584.78 787.51,-3584.5 789.19,-3589.84"/>
</g>
<!-- workspace_1&#45;&gt;page_NotificationCenter -->
<g id="edge34" class="edge">
<title>workspace_1&#45;&gt;page_NotificationCenter</title>
<path fill="none" stroke="#94a3b8" stroke-width="1.3" d="M560.73,-3763.92C605.32,-3765.98 664.72,-3758.57 705,-3726 738.18,-3699.17 707.48,-3663.4 741,-3637 754.98,-3625.99 771.11,-3617.95 788.11,-3612.08"/>
<polygon fill="#94a3b8" stroke="#94a3b8" stroke-width="1.3" points="789.23,-3614.67 795.98,-3609.54 787.51,-3609.34 789.23,-3614.67"/>
</g>
<!-- page_TradingHours -->
<g id="node20" class="node">
<title>page_TradingHours</title>
<path fill="#1e293b" stroke="#475569" d="M1073,-3674C1073,-3674 840,-3674 840,-3674 834,-3674 828,-3668 828,-3662 828,-3662 828,-3648 828,-3648 828,-3642 834,-3636 840,-3636 840,-3636 1073,-3636 1073,-3636 1079,-3636 1085,-3642 1085,-3648 1085,-3648 1085,-3662 1085,-3662 1085,-3668 1079,-3674 1073,-3674"/>
<text text-anchor="middle" x="956.5" y="-3658.8" font-family="Segoe UI" font-size="14.00" fill="#e2e8f0">TradingHours</text>
<text text-anchor="middle" x="956.5" y="-3643.8" font-family="Segoe UI" font-size="14.00" fill="#e2e8f0">TradingHours → TradingHoursPage</text>
</g>
<!-- workspace_1&#45;&gt;page_TradingHours -->
<g id="edge18" class="edge">
<title>workspace_1&#45;&gt;page_TradingHours</title>
<path fill="none" stroke="#94a3b8" stroke-width="1.3" d="M560.66,-3749.76C603.02,-3748.09 659.71,-3741.38 705,-3720 724.63,-3710.73 721.41,-3696.34 741,-3687 765.36,-3675.38 792.89,-3667.76 819.91,-3662.81"/>
<polygon fill="#94a3b8" stroke="#94a3b8" stroke-width="1.3" points="820.49,-3665.55 827.9,-3661.42 819.53,-3660.04 820.49,-3665.55"/>
</g>
<!-- page_DataOperationsShell -->
<g id="node21" class="node">
<title>page_DataOperationsShell</title>
<path fill="#1e293b" stroke="#475569" d="M1160,-3737C1160,-3737 753,-3737 753,-3737 747,-3737 741,-3731 741,-3725 741,-3725 741,-3711 741,-3711 741,-3705 747,-3699 753,-3699 753,-3699 1160,-3699 1160,-3699 1166,-3699 1172,-3705 1172,-3711 1172,-3711 1172,-3725 1172,-3725 1172,-3731 1166,-3737 1160,-3737"/>
<text text-anchor="middle" x="956.5" y="-3721.8" font-family="Segoe UI" font-size="14.00" fill="#e2e8f0">DataOperationsShell</text>
<text text-anchor="middle" x="956.5" y="-3706.8" font-family="Segoe UI" font-size="14.00" fill="#e2e8f0">DataOperationsShell → DataOperationsWorkspaceShellPage</text>
</g>
<!-- workspace_1&#45;&gt;page_DataOperationsShell -->
<g id="edge19" class="edge">
<title>workspace_1&#45;&gt;page_DataOperationsShell</title>
<path fill="none" stroke="#94a3b8" stroke-width="1.3" d="M560.53,-3744.85C605.38,-3741.8 669.33,-3737.45 732.74,-3733.14"/>
<polygon fill="#94a3b8" stroke="#94a3b8" stroke-width="1.3" points="733.08,-3735.93 740.87,-3732.59 732.7,-3730.34 733.08,-3735.93"/>
</g>
<!-- page_Provider -->
<g id="node22" class="node">
<title>page_Provider</title>
<path fill="#1e293b" stroke="#475569" d="M1037,-3800C1037,-3800 876,-3800 876,-3800 870,-3800 864,-3794 864,-3788 864,-3788 864,-3774 864,-3774 864,-3768 870,-3762 876,-3762 876,-3762 1037,-3762 1037,-3762 1043,-3762 1049,-3768 1049,-3774 1049,-3774 1049,-3788 1049,-3788 1049,-3794 1043,-3800 1037,-3800"/>
<text text-anchor="middle" x="956.5" y="-3784.8" font-family="Segoe UI" font-size="14.00" fill="#e2e8f0">Provider</text>
<text text-anchor="middle" x="956.5" y="-3769.8" font-family="Segoe UI" font-size="14.00" fill="#e2e8f0">Provider → ProviderPage</text>
</g>
<!-- workspace_1&#45;&gt;page_Provider -->
<g id="edge20" class="edge">
<title>workspace_1&#45;&gt;page_Provider</title>
<path fill="none" stroke="#94a3b8" stroke-width="1.3" d="M560.53,-3753.28C636.03,-3758.58 765.61,-3767.67 855.67,-3773.99"/>
<polygon fill="#94a3b8" stroke="#94a3b8" stroke-width="1.3" points="855.54,-3776.79 863.71,-3774.56 855.93,-3771.21 855.54,-3776.79"/>
</g>
<!-- page_Backfill -->
<g id="node23" class="node">
<title>page_Backfill</title>
<path fill="#1e293b" stroke="#475569" d="M1030,-3863C1030,-3863 883,-3863 883,-3863 877,-3863 871,-3857 871,-3851 871,-3851 871,-3837 871,-3837 871,-3831 877,-3825 883,-3825 883,-3825 1030,-3825 1030,-3825 1036,-3825 1042,-3831 1042,-3837 1042,-3837 1042,-3851 1042,-3851 1042,-3857 1036,-3863 1030,-3863"/>
<text text-anchor="middle" x="956.5" y="-3847.8" font-family="Segoe UI" font-size="14.00" fill="#e2e8f0">Backfill</text>
<text text-anchor="middle" x="956.5" y="-3832.8" font-family="Segoe UI" font-size="14.00" fill="#e2e8f0">Backfill → BackfillPage</text>
</g>
<!-- workspace_1&#45;&gt;page_Backfill -->
<g id="edge21" class="edge">
<title>workspace_1&#45;&gt;page_Backfill</title>
<path fill="none" stroke="#94a3b8" stroke-width="1.3" d="M560.58,-3767.28C609.13,-3781.3 678.95,-3800.34 741,-3813 780.67,-3821.09 824.88,-3827.86 862.81,-3832.99"/>
<polygon fill="#94a3b8" stroke="#94a3b8" stroke-width="1.3" points="862.51,-3835.77 870.81,-3834.05 863.25,-3830.22 862.51,-3835.77"/>
</g>
<!-- page_Symbols -->
<g id="node24" class="node">
<title>page_Symbols</title>
<path fill="#1e293b" stroke="#475569" d="M1039,-3926C1039,-3926 874,-3926 874,-3926 868,-3926 862,-3920 862,-3914 862,-3914 862,-3900 862,-3900 862,-3894 868,-3888 874,-3888 874,-3888 1039,-3888 1039,-3888 1045,-3888 1051,-3894 1051,-3900 1051,-3900 1051,-3914 1051,-3914 1051,-3920 1045,-3926 1039,-3926"/>
<text text-anchor="middle" x="956.5" y="-3910.8" font-family="Segoe UI" font-size="14.00" fill="#e2e8f0">Symbols</text>
<text text-anchor="middle" x="956.5" y="-3895.8" font-family="Segoe UI" font-size="14.00" fill="#e2e8f0">Symbols → SymbolsPage</text>
</g>
<!-- workspace_1&#45;&gt;page_Symbols -->
<g id="edge22" class="edge">
<title>workspace_1&#45;&gt;page_Symbols</title>
<path fill="none" stroke="#94a3b8" stroke-width="1.3" d="M527.81,-3768.03C571.53,-3796.42 659,-3849.38 741,-3876 776.85,-3887.64 817.49,-3894.91 853.68,-3899.46"/>
<polygon fill="#94a3b8" stroke="#94a3b8" stroke-width="1.3" points="853.53,-3902.26 861.81,-3900.44 854.2,-3896.7 853.53,-3902.26"/>
</g>
<!-- page_Storage -->
<g id="node25" class="node">
<title>page_Storage</title>
<path fill="#1e293b" stroke="#475569" d="M1034,-3989C1034,-3989 879,-3989 879,-3989 873,-3989 867,-3983 867,-3977 867,-3977 867,-3963 867,-3963 867,-3957 873,-3951 879,-3951 879,-3951 1034,-3951 1034,-3951 1040,-3951 1046,-3957 1046,-3963 1046,-3963 1046,-3977 1046,-3977 1046,-3983 1040,-3989 1034,-3989"/>
<text text-anchor="middle" x="956.5" y="-3973.8" font-family="Segoe UI" font-size="14.00" fill="#e2e8f0">Storage</text>
<text text-anchor="middle" x="956.5" y="-3958.8" font-family="Segoe UI" font-size="14.00" fill="#e2e8f0">Storage → StoragePage</text>
</g>
<!-- workspace_1&#45;&gt;page_Storage -->
<g id="edge23" class="edge">
<title>workspace_1&#45;&gt;page_Storage</title>
<path fill="none" stroke="#94a3b8" stroke-width="1.3" d="M516.68,-3768.02C553.47,-3807.4 644.41,-3897.58 741,-3939 777.72,-3954.75 820.89,-3962.76 858.84,-3966.75"/>
<polygon fill="#94a3b8" stroke="#94a3b8" stroke-width="1.3" points="858.61,-3969.55 866.85,-3967.55 859.17,-3963.97 858.61,-3969.55"/>
</g>
<!-- page_CollectionSessions -->
<g id="node26" class="node">
<title>page_CollectionSessions</title>
<path fill="#1e293b" stroke="#475569" d="M1104.5,-4052C1104.5,-4052 808.5,-4052 808.5,-4052 802.5,-4052 796.5,-4046 796.5,-4040 796.5,-4040 796.5,-4026 796.5,-4026 796.5,-4020 802.5,-4014 808.5,-4014 808.5,-4014 1104.5,-4014 1104.5,-4014 1110.5,-4014 1116.5,-4020 1116.5,-4026 1116.5,-4026 1116.5,-4040 1116.5,-4040 1116.5,-4046 1110.5,-4052 1104.5,-4052"/>
<text text-anchor="middle" x="956.5" y="-4036.8" font-family="Segoe UI" font-size="14.00" fill="#e2e8f0">CollectionSessions</text>
<text text-anchor="middle" x="956.5" y="-4021.8" font-family="Segoe UI" font-size="14.00" fill="#e2e8f0">CollectionSessions → CollectionSessionPage</text>
</g>
<!-- workspace_1&#45;&gt;page_CollectionSessions -->
<g id="edge24" class="edge">
<title>workspace_1&#45;&gt;page_CollectionSessions</title>
<path fill="none" stroke="#94a3b8" stroke-width="1.3" d="M511.26,-3768.33C542.06,-3817.03 630.36,-3944.95 741,-4002 755.73,-4009.59 771.74,-4015.49 788.15,-4020.06"/>
<polygon fill="#94a3b8" stroke="#94a3b8" stroke-width="1.3" points="787.79,-4022.86 796.24,-4022.19 789.22,-4017.44 787.79,-4022.86"/>
</g>
<!-- page_PackageManager -->
<g id="node27" class="node">
<title>page_PackageManager</title>
<path fill="#1e293b" stroke="#475569" d="M1097,-4115C1097,-4115 816,-4115 816,-4115 810,-4115 804,-4109 804,-4103 804,-4103 804,-4089 804,-4089 804,-4083 810,-4077 816,-4077 816,-4077 1097,-4077 1097,-4077 1103,-4077 1109,-4083 1109,-4089 1109,-4089 1109,-4103 1109,-4103 1109,-4109 1103,-4115 1097,-4115"/>
<text text-anchor="middle" x="956.5" y="-4099.8" font-family="Segoe UI" font-size="14.00" fill="#e2e8f0">PackageManager</text>
<text text-anchor="middle" x="956.5" y="-4084.8" font-family="Segoe UI" font-size="14.00" fill="#e2e8f0">PackageManager → PackageManagerPage</text>
</g>
<!-- workspace_1&#45;&gt;page_PackageManager -->
<g id="edge25" class="edge">
<title>workspace_1&#45;&gt;page_PackageManager</title>
<path fill="none" stroke="#94a3b8" stroke-width="1.3" d="M507.62,-3768.02C532.77,-3824.4 615.36,-3991.24 741,-4065 757.83,-4074.88 776.64,-4082.03 795.94,-4087.15"/>
<polygon fill="#94a3b8" stroke="#94a3b8" stroke-width="1.3" points="795.5,-4089.92 803.94,-4089.15 796.86,-4084.49 795.5,-4089.92"/>
</g>
<!-- page_DataExport -->
<g id="node28" class="node">
<title>page_DataExport</title>
<path fill="#1e293b" stroke="#475569" d="M1058,-4178C1058,-4178 855,-4178 855,-4178 849,-4178 843,-4172 843,-4166 843,-4166 843,-4152 843,-4152 843,-4146 849,-4140 855,-4140 855,-4140 1058,-4140 1058,-4140 1064,-4140 1070,-4146 1070,-4152 1070,-4152 1070,-4166 1070,-4166 1070,-4172 1064,-4178 1058,-4178"/>
<text text-anchor="middle" x="956.5" y="-4162.8" font-family="Segoe UI" font-size="14.00" fill="#e2e8f0">DataExport</text>
<text text-anchor="middle" x="956.5" y="-4147.8" font-family="Segoe UI" font-size="14.00" fill="#e2e8f0">DataExport → DataExportPage</text>
</g>
<!-- workspace_1&#45;&gt;page_DataExport -->
<g id="edge26" class="edge">
<title>workspace_1&#45;&gt;page_DataExport</title>
<path fill="none" stroke="#94a3b8" stroke-width="1.3" d="M505.26,-3768.05C525.53,-3831.52 600.09,-4036.99 741,-4128 768.53,-4145.79 802.17,-4155.06 834.56,-4159.55"/>
<polygon fill="#94a3b8" stroke="#94a3b8" stroke-width="1.3" points="834.48,-4162.36 842.77,-4160.59 835.18,-4156.8 834.48,-4162.36"/>
</g>
<!-- page_Schedules -->
<g id="node29" class="node">
<title>page_Schedules</title>
<path fill="#1e293b" stroke="#475569" d="M1077.5,-4241C1077.5,-4241 835.5,-4241 835.5,-4241 829.5,-4241 823.5,-4235 823.5,-4229 823.5,-4229 823.5,-4215 823.5,-4215 823.5,-4209 829.5,-4203 835.5,-4203 835.5,-4203 1077.5,-4203 1077.5,-4203 1083.5,-4203 1089.5,-4209 1089.5,-4215 1089.5,-4215 1089.5,-4229 1089.5,-4229 1089.5,-4235 1083.5,-4241 1077.5,-4241"/>
<text text-anchor="middle" x="956.5" y="-4225.8" font-family="Segoe UI" font-size="14.00" fill="#e2e8f0">Schedules</text>
<text text-anchor="middle" x="956.5" y="-4210.8" font-family="Segoe UI" font-size="14.00" fill="#e2e8f0">Schedules → ScheduleManagerPage</text>
</g>
<!-- workspace_1&#45;&gt;page_Schedules -->
<g id="edge27" class="edge">
<title>workspace_1&#45;&gt;page_Schedules</title>
<path fill="none" stroke="#94a3b8" stroke-width="1.3" d="M503.53,-3768.14C519.4,-3838.19 584.44,-4082.24 741,-4191 762.77,-4206.13 788.81,-4215.27 815.12,-4220.59"/>
<polygon fill="#94a3b8" stroke="#94a3b8" stroke-width="1.3" points="814.91,-4223.4 823.28,-4222.12 815.94,-4217.89 814.91,-4223.4"/>
</g>
<!-- page_GovernanceShell -->
<g id="node30" class="node">
<title>page_GovernanceShell</title>
<path fill="#1e293b" stroke="#475569" d="M1134,-4304C1134,-4304 779,-4304 779,-4304 773,-4304 767,-4298 767,-4292 767,-4292 767,-4278 767,-4278 767,-4272 773,-4266 779,-4266 779,-4266 1134,-4266 1134,-4266 1140,-4266 1146,-4272 1146,-4278 1146,-4278 1146,-4292 1146,-4292 1146,-4298 1140,-4304 1134,-4304"/>
<text text-anchor="middle" x="956.5" y="-4288.8" font-family="Segoe UI" font-size="14.00" fill="#e2e8f0">GovernanceShell</text>
<text text-anchor="middle" x="956.5" y="-4273.8" font-family="Segoe UI" font-size="14.00" fill="#e2e8f0">GovernanceShell → GovernanceWorkspaceShellPage</text>
</g>
<!-- workspace_1&#45;&gt;page_GovernanceShell -->
<g id="edge28" class="edge">
<title>workspace_1&#45;&gt;page_GovernanceShell</title>
<path fill="none" stroke="#94a3b8" stroke-width="1.3" d="M502.19,-3768.12C513.96,-3844.14 568.37,-4127.04 741,-4254 746.77,-4258.25 752.88,-4262.03 759.22,-4265.4"/>
<polygon fill="#94a3b8" stroke="#94a3b8" stroke-width="1.3" points="758.38,-4268.11 766.79,-4269.17 760.88,-4263.1 758.38,-4268.11"/>
</g>
<!-- page_FundLedger -->
<g id="node31" class="node">
<title>page_FundLedger</title>
<path fill="#1e293b" stroke="#475569" d="M1062.5,-4367C1062.5,-4367 850.5,-4367 850.5,-4367 844.5,-4367 838.5,-4361 838.5,-4355 838.5,-4355 838.5,-4341 838.5,-4341 838.5,-4335 844.5,-4329 850.5,-4329 850.5,-4329 1062.5,-4329 1062.5,-4329 1068.5,-4329 1074.5,-4335 1074.5,-4341 1074.5,-4341 1074.5,-4355 1074.5,-4355 1074.5,-4361 1068.5,-4367 1062.5,-4367"/>
<text text-anchor="middle" x="956.5" y="-4351.8" font-family="Segoe UI" font-size="14.00" fill="#e2e8f0">FundLedger</text>
<text text-anchor="middle" x="956.5" y="-4336.8" font-family="Segoe UI" font-size="14.00" fill="#e2e8f0">FundLedger → FundLedgerPage</text>
</g>
<!-- workspace_1&#45;&gt;page_FundLedger -->
<g id="edge29" class="edge">
<title>workspace_1&#45;&gt;page_FundLedger</title>
<path fill="none" stroke="#94a3b8" stroke-width="1.3" d="M501.12,-3768.16C509.13,-3849.86 552.08,-4171.56 741,-4317 766.35,-4336.52 798.54,-4346.49 830.21,-4351.11"/>
<polygon fill="#94a3b8" stroke="#94a3b8" stroke-width="1.3" points="829.95,-4353.9 838.25,-4352.17 830.68,-4348.34 829.95,-4353.9"/>
</g>
<!-- page_FundAccounts -->
<g id="node32" class="node">
<title>page_FundAccounts</title>
<path fill="#1e293b" stroke="#475569" d="M1077.5,-4430C1077.5,-4430 835.5,-4430 835.5,-4430 829.5,-4430 823.5,-4424 823.5,-4418 823.5,-4418 823.5,-4404 823.5,-4404 823.5,-4398 829.5,-4392 835.5,-4392 835.5,-4392 1077.5,-4392 1077.5,-4392 1083.5,-4392 1089.5,-4398 1089.5,-4404 1089.5,-4404 1089.5,-4418 1089.5,-4418 1089.5,-4424 1083.5,-4430 1077.5,-4430"/>
<text text-anchor="middle" x="956.5" y="-4414.8" font-family="Segoe UI" font-size="14.00" fill="#e2e8f0">FundAccounts</text>
<text text-anchor="middle" x="956.5" y="-4399.8" font-family="Segoe UI" font-size="14.00" fill="#e2e8f0">FundAccounts → FundAccountsPage</text>
</g>
<!-- workspace_1&#45;&gt;page_FundAccounts -->
<g id="edge30" class="edge">
<title>workspace_1&#45;&gt;page_FundAccounts</title>
<path fill="none" stroke="#94a3b8" stroke-width="1.3" d="M500.12,-3768.29C504.07,-3855.9 532.9,-4219.11 741,-4380 762.4,-4396.55 788.7,-4406.25 815.46,-4411.64"/>
<polygon fill="#94a3b8" stroke="#94a3b8" stroke-width="1.3" points="815.02,-4414.4 823.4,-4413.11 816.04,-4408.9 815.02,-4414.4"/>
</g>
<!-- page_FundReconciliation -->
<g id="node33" class="node">
<title>page_FundReconciliation</title>
<path fill="#1e293b" stroke="#475569" d="M1086,-4493C1086,-4493 827,-4493 827,-4493 821,-4493 815,-4487 815,-4481 815,-4481 815,-4467 815,-4467 815,-4461 821,-4455 827,-4455 827,-4455 1086,-4455 1086,-4455 1092,-4455 1098,-4461 1098,-4467 1098,-4467 1098,-4481 1098,-4481 1098,-4487 1092,-4493 1086,-4493"/>
<text text-anchor="middle" x="956.5" y="-4477.8" font-family="Segoe UI" font-size="14.00" fill="#e2e8f0">FundReconciliation</text>
<text text-anchor="middle" x="956.5" y="-4462.8" font-family="Segoe UI" font-size="14.00" fill="#e2e8f0">FundReconciliation → FundLedgerPage</text>
</g>
<!-- workspace_1&#45;&gt;page_FundReconciliation -->
<g id="edge31" class="edge">
<title>workspace_1&#45;&gt;page_FundReconciliation</title>
<path fill="none" stroke="#94a3b8" stroke-width="1.3" d="M499.28,-3768.09C499.33,-3860.79 512.91,-4266.65 741,-4443 760.06,-4457.73 782.99,-4467.04 806.68,-4472.7"/>
<polygon fill="#94a3b8" stroke="#94a3b8" stroke-width="1.3" points="806.32,-4475.49 814.74,-4474.49 807.53,-4470.02 806.32,-4475.49"/>
</g>
<!-- page_DataQuality -->
<g id="node34" class="node">
<title>page_DataQuality</title>
<path fill="#1e293b" stroke="#475569" d="M1061.5,-4556C1061.5,-4556 851.5,-4556 851.5,-4556 845.5,-4556 839.5,-4550 839.5,-4544 839.5,-4544 839.5,-4530 839.5,-4530 839.5,-4524 845.5,-4518 851.5,-4518 851.5,-4518 1061.5,-4518 1061.5,-4518 1067.5,-4518 1073.5,-4524 1073.5,-4530 1073.5,-4530 1073.5,-4544 1073.5,-4544 1073.5,-4550 1067.5,-4556 1061.5,-4556"/>
<text text-anchor="middle" x="956.5" y="-4540.8" font-family="Segoe UI" font-size="14.00" fill="#e2e8f0">DataQuality</text>
<text text-anchor="middle" x="956.5" y="-4525.8" font-family="Segoe UI" font-size="14.00" fill="#e2e8f0">DataQuality → DataQualityPage</text>
</g>
<!-- workspace_1&#45;&gt;page_DataQuality -->
<g id="edge32" class="edge">
<title>workspace_1&#45;&gt;page_DataQuality</title>
<path fill="none" stroke="#94a3b8" stroke-width="1.3" d="M502.65,-3768.18C520.82,-3876.36 615.83,-4408.82 741,-4506 766.55,-4525.84 799.13,-4535.85 831.13,-4540.39"/>
<polygon fill="#94a3b8" stroke="#94a3b8" stroke-width="1.3" points="830.96,-4543.19 839.25,-4541.43 831.67,-4537.64 830.96,-4543.19"/>
</g>
<!-- page_Diagnostics -->
<g id="node35" class="node">
<title>page_Diagnostics</title>
<path fill="#1e293b" stroke="#475569" d="M1060,-4619C1060,-4619 853,-4619 853,-4619 847,-4619 841,-4613 841,-4607 841,-4607 841,-4593 841,-4593 841,-4587 847,-4581 853,-4581 853,-4581 1060,-4581 1060,-4581 1066,-4581 1072,-4587 1072,-4593 1072,-4593 1072,-4607 1072,-4607 1072,-4613 1066,-4619 1060,-4619"/>
<text text-anchor="middle" x="956.5" y="-4603.8" font-family="Segoe UI" font-size="14.00" fill="#e2e8f0">Diagnostics</text>
<text text-anchor="middle" x="956.5" y="-4588.8" font-family="Segoe UI" font-size="14.00" fill="#e2e8f0">Diagnostics → DiagnosticsPage</text>
</g>
<!-- workspace_1&#45;&gt;page_Diagnostics -->
<g id="edge33" class="edge">
<title>workspace_1&#45;&gt;page_Diagnostics</title>
<path fill="none" stroke="#94a3b8" stroke-width="1.3" d="M502.19,-3768.23C518.46,-3881.63 607.5,-4461.78 741,-4569 766.69,-4589.63 799.91,-4599.78 832.5,-4604.2"/>
<polygon fill="#94a3b8" stroke="#94a3b8" stroke-width="1.3" points="832.48,-4607.01 840.76,-4605.2 833.16,-4601.46 832.48,-4607.01"/>
</g>
<!-- page_FundTrialBalance -->
<g id="node36" class="node">
<title>page_FundTrialBalance</title>
<path fill="#1e293b" stroke="#475569" d="M1080,-4682C1080,-4682 833,-4682 833,-4682 827,-4682 821,-4676 821,-4670 821,-4670 821,-4656 821,-4656 821,-4650 827,-4644 833,-4644 833,-4644 1080,-4644 1080,-4644 1086,-4644 1092,-4650 1092,-4656 1092,-4656 1092,-4670 1092,-4670 1092,-4676 1086,-4682 1080,-4682"/>
<text text-anchor="middle" x="956.5" y="-4666.8" font-family="Segoe UI" font-size="14.00" fill="#e2e8f0">FundTrialBalance</text>
<text text-anchor="middle" x="956.5" y="-4651.8" font-family="Segoe UI" font-size="14.00" fill="#e2e8f0">FundTrialBalance → FundLedgerPage</text>
</g>
<!-- workspace_1&#45;&gt;page_FundTrialBalance -->
<g id="edge35" class="edge">
<title>workspace_1&#45;&gt;page_FundTrialBalance</title>
<path fill="none" stroke="#94a3b8" stroke-width="1.3" d="M501.73,-3768.16C515.92,-3886.47 597.61,-4516.44 741,-4632 761.51,-4648.53 786.84,-4658.34 812.83,-4663.86"/>
<polygon fill="#94a3b8" stroke="#94a3b8" stroke-width="1.3" points="812.52,-4666.65 820.91,-4665.44 813.6,-4661.16 812.52,-4666.65"/>
</g>
<!-- page_ProviderHealth -->
<g id="node37" class="node">
<title>page_ProviderHealth</title>
<path fill="#1e293b" stroke="#475569" d="M1082,-4745C1082,-4745 831,-4745 831,-4745 825,-4745 819,-4739 819,-4733 819,-4733 819,-4719 819,-4719 819,-4713 825,-4707 831,-4707 831,-4707 1082,-4707 1082,-4707 1088,-4707 1094,-4713 1094,-4719 1094,-4719 1094,-4733 1094,-4733 1094,-4739 1088,-4745 1082,-4745"/>
<text text-anchor="middle" x="956.5" y="-4729.8" font-family="Segoe UI" font-size="14.00" fill="#e2e8f0">ProviderHealth</text>
<text text-anchor="middle" x="956.5" y="-4714.8" font-family="Segoe UI" font-size="14.00" fill="#e2e8f0">ProviderHealth → ProviderHealthPage</text>
</g>
<!-- workspace_1&#45;&gt;page_ProviderHealth -->
<g id="edge36" class="edge">
<title>workspace_1&#45;&gt;page_ProviderHealth</title>
<path fill="none" stroke="#94a3b8" stroke-width="1.3" d="M501.35,-3768.33C513.6,-3892.05 587.37,-4571.61 741,-4695 761.07,-4711.12 785.74,-4720.84 811.11,-4726.43"/>
<polygon fill="#94a3b8" stroke="#94a3b8" stroke-width="1.3" points="810.6,-4729.18 819,-4728.03 811.72,-4723.69 810.6,-4729.18"/>
</g>
<!-- page_SystemHealth -->
<g id="node38" class="node">
<title>page_SystemHealth</title>
<path fill="#1e293b" stroke="#475569" d="M1076.5,-4808C1076.5,-4808 836.5,-4808 836.5,-4808 830.5,-4808 824.5,-4802 824.5,-4796 824.5,-4796 824.5,-4782 824.5,-4782 824.5,-4776 830.5,-4770 836.5,-4770 836.5,-4770 1076.5,-4770 1076.5,-4770 1082.5,-4770 1088.5,-4776 1088.5,-4782 1088.5,-4782 1088.5,-4796 1088.5,-4796 1088.5,-4802 1082.5,-4808 1076.5,-4808"/>
<text text-anchor="middle" x="956.5" y="-4792.8" font-family="Segoe UI" font-size="14.00" fill="#e2e8f0">SystemHealth</text>
<text text-anchor="middle" x="956.5" y="-4777.8" font-family="Segoe UI" font-size="14.00" fill="#e2e8f0">SystemHealth → SystemHealthPage</text>
</g>
<!-- workspace_1&#45;&gt;page_SystemHealth -->
<g id="edge37" class="edge">
<title>workspace_1&#45;&gt;page_SystemHealth</title>
<path fill="none" stroke="#94a3b8" stroke-width="1.3" d="M501,-3768.37C511.41,-3896.99 577.22,-4626.46 741,-4758 762.43,-4775.21 789.09,-4785.12 816.25,-4790.5"/>
<polygon fill="#94a3b8" stroke="#94a3b8" stroke-width="1.3" points="815.94,-4793.29 824.31,-4791.96 816.94,-4787.78 815.94,-4793.29"/>
</g>
<!-- page_Settings -->
<g id="node39" class="node">
<title>page_Settings</title>
<path fill="#1e293b" stroke="#475569" d="M1037,-4871C1037,-4871 876,-4871 876,-4871 870,-4871 864,-4865 864,-4859 864,-4859 864,-4845 864,-4845 864,-4839 870,-4833 876,-4833 876,-4833 1037,-4833 1037,-4833 1043,-4833 1049,-4839 1049,-4845 1049,-4845 1049,-4859 1049,-4859 1049,-4865 1043,-4871 1037,-4871"/>
<text text-anchor="middle" x="956.5" y="-4855.8" font-family="Segoe UI" font-size="14.00" fill="#e2e8f0">Settings</text>
<text text-anchor="middle" x="956.5" y="-4840.8" font-family="Segoe UI" font-size="14.00" fill="#e2e8f0">Settings → SettingsPage</text>
</g>
<!-- workspace_1&#45;&gt;page_Settings -->
<g id="edge38" class="edge">
<title>workspace_1&#45;&gt;page_Settings</title>
<path fill="none" stroke="#94a3b8" stroke-width="1.3" d="M500.68,-3768.3C509.27,-3901.36 566.73,-4681.53 741,-4821 772.81,-4846.46 816.1,-4855.93 855.45,-4858.38"/>
<polygon fill="#94a3b8" stroke="#94a3b8" stroke-width="1.3" points="855.66,-4861.19 863.79,-4858.8 855.94,-4855.6 855.66,-4861.19"/>
</g>
<!-- page_Help -->
<g id="node40" class="node">
<title>page_Help</title>
<path fill="#1e293b" stroke="#475569" d="M1011.5,-4934C1011.5,-4934 901.5,-4934 901.5,-4934 895.5,-4934 889.5,-4928 889.5,-4922 889.5,-4922 889.5,-4908 889.5,-4908 889.5,-4902 895.5,-4896 901.5,-4896 901.5,-4896 1011.5,-4896 1011.5,-4896 1017.5,-4896 1023.5,-4902 1023.5,-4908 1023.5,-4908 1023.5,-4922 1023.5,-4922 1023.5,-4928 1017.5,-4934 1011.5,-4934"/>
<text text-anchor="middle" x="956.5" y="-4918.8" font-family="Segoe UI" font-size="14.00" fill="#e2e8f0">Help</text>
<text text-anchor="middle" x="956.5" y="-4903.8" font-family="Segoe UI" font-size="14.00" fill="#e2e8f0">Help → HelpPage</text>
</g>
<!-- workspace_1&#45;&gt;page_Help -->
<g id="edge39" class="edge">
<title>workspace_1&#45;&gt;page_Help</title>
<path fill="none" stroke="#94a3b8" stroke-width="1.3" d="M502.02,-3768.05C516.05,-3872.24 588.11,-4383.15 704,-4787 716.73,-4831.35 704.98,-4855.17 741,-4884 779.86,-4915.1 835.82,-4922.34 880.84,-4922.07"/>
<polygon fill="#94a3b8" stroke="#94a3b8" stroke-width="1.3" points="881.16,-4924.86 889.11,-4921.94 881.07,-4919.27 881.16,-4924.86"/>
</g>
</g>
</svg>
