<?xml version="1.0" encoding="UTF-8" standalone="no"?>
<!DOCTYPE svg PUBLIC "-//W3C//DTD SVG 1.1//EN"
 "http://www.w3.org/Graphics/SVG/1.1/DTD/svg11.dtd">
<!-- Generated by graphviz version 2.43.0 (0)
 -->
<!-- Title: UiNavigationMap Pages: 1 -->
<svg width="1151pt" height="4397pt"
 viewBox="0.00 0.00 1150.60 4396.60" xmlns="http://www.w3.org/2000/svg" xmlns:xlink="http://www.w3.org/1999/xlink">
<g id="graph0" class="graph" transform="scale(1 1) rotate(0) translate(28.8 4367.8)">
<title>UiNavigationMap</title>
<polygon fill="#0f172a" stroke="transparent" points="-28.8,28.8 -28.8,-4367.8 1121.8,-4367.8 1121.8,28.8 -28.8,28.8"/>
<text text-anchor="middle" x="546.5" y="-4319" font-family="Segoe UI" font-size="20.00">Meridian WPF UI navigation map</text>
<text text-anchor="middle" x="546.5" y="-4297" font-family="Segoe UI" font-size="20.00">(auto&#45;generated from MainPage.xaml + NavigationService.cs)</text>
<g id="clust1" class="cluster">
<title>cluster_workspace_1</title>
<path fill="#0f172a" stroke="#334155" d="M441,-2557C441,-2557 1073,-2557 1073,-2557 1079,-2557 1085,-2563 1085,-2569 1085,-2569 1085,-4267 1085,-4267 1085,-4273 1079,-4279 1073,-4279 1073,-4279 441,-4279 441,-4279 435,-4279 429,-4273 429,-4267 429,-4267 429,-2569 429,-2569 429,-2563 435,-2557 441,-2557"/>
<text text-anchor="middle" x="757" y="-4259" font-family="Segoe UI" font-size="20.00">Shell workspace</text>
</g>
<g id="clust2" class="cluster">
<title>cluster_hidden_pages</title>
<path fill="#0f172a" stroke="#7c2d12" stroke-dasharray="5,2" d="M334,-8C334,-8 664,-8 664,-8 670,-8 676,-14 676,-20 676,-20 676,-2537 676,-2537 676,-2543 670,-2549 664,-2549 664,-2549 334,-2549 334,-2549 328,-2549 322,-2543 322,-2537 322,-2537 322,-20 322,-20 322,-14 328,-8 334,-8"/>
<text text-anchor="middle" x="499" y="-2529" font-family="Segoe UI" font-size="20.00">Registered but not in sidebar shell</text>
</g>
<!-- generated -->
<g id="node1" class="node">
<title>generated</title>
<polygon fill="#1d4ed8" stroke="#60a5fa" points="251,-1250.5 0,-1250.5 0,-1197.5 257,-1197.5 257,-1244.5 251,-1250.5"/>
<polyline fill="none" stroke="#60a5fa" points="251,-1250.5 251,-1244.5 "/>
<polyline fill="none" stroke="#60a5fa" points="257,-1244.5 251,-1244.5 "/>
<text text-anchor="middle" x="128.5" y="-1235.3" font-family="Segoe UI" font-size="14.00" fill="#e2e8f0">Source fingerprint: acb073960015</text>
<text text-anchor="middle" x="128.5" y="-1220.3" font-family="Segoe UI" font-size="14.00" fill="#e2e8f0">Shell entries: 28</text>
<text text-anchor="middle" x="128.5" y="-1205.3" font-family="Segoe UI" font-size="14.00" fill="#e2e8f0">Registered pages: 67</text>
</g>
<!-- shell -->
<g id="node2" class="node">
<title>shell</title>
<polygon fill="#0f766e" stroke="#2dd4bf" points="193,-2168 64,-2168 64,-2164 60,-2164 60,-2160 64,-2160 64,-2138 60,-2138 60,-2134 64,-2134 64,-2130 193,-2130 193,-2168"/>
<polyline fill="none" stroke="#2dd4bf" points="64,-2164 68,-2164 68,-2160 64,-2160 "/>
<polyline fill="none" stroke="#2dd4bf" points="64,-2138 68,-2138 68,-2134 64,-2134 "/>
<text text-anchor="middle" x="128.5" y="-2152.8" font-family="Segoe UI" font-size="14.00" fill="#e2e8f0">MainPage.xaml</text>
<text text-anchor="middle" x="128.5" y="-2137.8" font-family="Segoe UI" font-size="14.00" fill="#e2e8f0">Workspace shell</text>
</g>
<!-- navigation -->
<g id="node3" class="node">
<title>navigation</title>
<polygon fill="#7c3aed" stroke="#c4b5fd" points="199.5,-1314 57.5,-1314 57.5,-1310 53.5,-1310 53.5,-1306 57.5,-1306 57.5,-1284 53.5,-1284 53.5,-1280 57.5,-1280 57.5,-1276 199.5,-1276 199.5,-1314"/>
<polyline fill="none" stroke="#c4b5fd" points="57.5,-1310 61.5,-1310 61.5,-1306 57.5,-1306 "/>
<polyline fill="none" stroke="#c4b5fd" points="57.5,-1284 61.5,-1284 61.5,-1280 57.5,-1280 "/>
<text text-anchor="middle" x="128.5" y="-1298.8" font-family="Segoe UI" font-size="14.00" fill="#e2e8f0">NavigationService</text>
<text text-anchor="middle" x="128.5" y="-1283.8" font-family="Segoe UI" font-size="14.00" fill="#e2e8f0">RegisterAllPages()</text>
</g>
<!-- shell&#45;&gt;navigation -->
<g id="edge1" class="edge">
<title>shell&#45;&gt;navigation</title>
<path fill="none" stroke="#38bdf8" stroke-width="1.3" d="M128.5,-2129.92C128.5,-2018.65 128.5,-1453.93 128.5,-1322.4"/>
<polygon fill="#38bdf8" stroke="#38bdf8" stroke-width="1.3" points="131.3,-1322.03 128.5,-1314.03 125.7,-1322.03 131.3,-1322.03"/>
<text text-anchor="middle" x="118" y="-1718.3" font-family="Segoe UI" font-size="14.00">navigate via tags</text>
</g>
<!-- workspace_1 -->
<g id="node4" class="node">
<title>workspace_1</title>
<polygon fill="#1d4ed8" stroke="#93c5fd" points="561,-3359 558,-3363 537,-3363 534,-3359 437,-3359 437,-3321 561,-3321 561,-3359"/>
<text text-anchor="middle" x="499" y="-3343.8" font-family="Segoe UI" font-size="14.00" fill="#e2e8f0">Shell</text>
<text text-anchor="middle" x="499" y="-3328.8" font-family="Segoe UI" font-size="14.00" fill="#e2e8f0">28 shell entries</text>
</g>
<!-- shell&#45;&gt;workspace_1 -->
<g id="edge2" class="edge">
<title>shell&#45;&gt;workspace_1</title>
<path fill="none" stroke="#22d3ee" stroke-width="1.3" d="M135.44,-2168.19C178.23,-2306.49 439.26,-3150.14 489.6,-3312.85"/>
<polygon fill="#22d3ee" stroke="#22d3ee" stroke-width="1.3" points="487.06,-3314.11 492.1,-3320.93 492.41,-3312.46 487.06,-3314.11"/>
</g>
<!-- hidden_DataSources -->
<g id="node32" class="node">
<title>hidden_DataSources</title>
<path fill="#431407" stroke="#fb923c" d="M555.5,-2511C555.5,-2511 442.5,-2511 442.5,-2511 436.5,-2511 430.5,-2505 430.5,-2499 430.5,-2499 430.5,-2485 430.5,-2485 430.5,-2479 436.5,-2473 442.5,-2473 442.5,-2473 555.5,-2473 555.5,-2473 561.5,-2473 567.5,-2479 567.5,-2485 567.5,-2485 567.5,-2499 567.5,-2499 567.5,-2505 561.5,-2511 555.5,-2511"/>
<text text-anchor="middle" x="499" y="-2495.8" font-family="Segoe UI" font-size="14.00" fill="#e2e8f0">DataSources</text>
<text text-anchor="middle" x="499" y="-2480.8" font-family="Segoe UI" font-size="14.00" fill="#e2e8f0">DataSourcesPage</text>
</g>
<!-- navigation&#45;&gt;hidden_DataSources -->
<g id="edge31" class="edge">
<title>navigation&#45;&gt;hidden_DataSources</title>
<path fill="none" stroke="#fb923c" stroke-width="1.3" stroke-dasharray="5,2" d="M132.49,-1314.08C156.08,-1464.23 311.29,-2450.26 322,-2461 347.76,-2486.83 386.99,-2495.47 421.87,-2497.26"/>
<polygon fill="#fb923c" stroke="#fb923c" stroke-width="1.3" points="422.07,-2500.07 430.17,-2497.57 422.28,-2494.48 422.07,-2500.07"/>
</g>
<!-- hidden_DataBrowser -->
<g id="node33" class="node">
<title>hidden_DataBrowser</title>
<path fill="#431407" stroke="#fb923c" d="M556,-2448C556,-2448 442,-2448 442,-2448 436,-2448 430,-2442 430,-2436 430,-2436 430,-2422 430,-2422 430,-2416 436,-2410 442,-2410 442,-2410 556,-2410 556,-2410 562,-2410 568,-2416 568,-2422 568,-2422 568,-2436 568,-2436 568,-2442 562,-2448 556,-2448"/>
<text text-anchor="middle" x="499" y="-2432.8" font-family="Segoe UI" font-size="14.00" fill="#e2e8f0">DataBrowser</text>
<text text-anchor="middle" x="499" y="-2417.8" font-family="Segoe UI" font-size="14.00" fill="#e2e8f0">DataBrowserPage</text>
</g>
<!-- navigation&#45;&gt;hidden_DataBrowser -->
<g id="edge32" class="edge">
<title>navigation&#45;&gt;hidden_DataBrowser</title>
<path fill="none" stroke="#fb923c" stroke-width="1.3" stroke-dasharray="5,2" d="M132.53,-1314.24C155.47,-1459.47 301.28,-2378.23 322,-2398 348.18,-2422.99 387.05,-2431.64 421.6,-2433.65"/>
<polygon fill="#fb923c" stroke="#fb923c" stroke-width="1.3" points="421.7,-2436.46 429.82,-2434.02 421.95,-2430.87 421.7,-2436.46"/>
</g>
<!-- hidden_SymbolMapping -->
<g id="node34" class="node">
<title>hidden_SymbolMapping</title>
<path fill="#431407" stroke="#fb923c" d="M567.5,-2385C567.5,-2385 430.5,-2385 430.5,-2385 424.5,-2385 418.5,-2379 418.5,-2373 418.5,-2373 418.5,-2359 418.5,-2359 418.5,-2353 424.5,-2347 430.5,-2347 430.5,-2347 567.5,-2347 567.5,-2347 573.5,-2347 579.5,-2353 579.5,-2359 579.5,-2359 579.5,-2373 579.5,-2373 579.5,-2379 573.5,-2385 567.5,-2385"/>
<text text-anchor="middle" x="499" y="-2369.8" font-family="Segoe UI" font-size="14.00" fill="#e2e8f0">SymbolMapping</text>
<text text-anchor="middle" x="499" y="-2354.8" font-family="Segoe UI" font-size="14.00" fill="#e2e8f0">SymbolMappingPage</text>
</g>
<!-- navigation&#45;&gt;hidden_SymbolMapping -->
<g id="edge33" class="edge">
<title>navigation&#45;&gt;hidden_SymbolMapping</title>
<path fill="none" stroke="#fb923c" stroke-width="1.3" stroke-dasharray="5,2" d="M132.36,-1314.12C153.21,-1452.71 281.91,-2298.92 322,-2335 345.71,-2356.34 378.76,-2365.54 409.83,-2368.91"/>
<polygon fill="#fb923c" stroke="#fb923c" stroke-width="1.3" points="409.88,-2371.72 418.1,-2369.67 410.4,-2366.15 409.88,-2371.72"/>
</g>
<!-- hidden_SymbolStorage -->
<g id="node35" class="node">
<title>hidden_SymbolStorage</title>
<path fill="#431407" stroke="#fb923c" d="M564.5,-2322C564.5,-2322 433.5,-2322 433.5,-2322 427.5,-2322 421.5,-2316 421.5,-2310 421.5,-2310 421.5,-2296 421.5,-2296 421.5,-2290 427.5,-2284 433.5,-2284 433.5,-2284 564.5,-2284 564.5,-2284 570.5,-2284 576.5,-2290 576.5,-2296 576.5,-2296 576.5,-2310 576.5,-2310 576.5,-2316 570.5,-2322 564.5,-2322"/>
<text text-anchor="middle" x="499" y="-2306.8" font-family="Segoe UI" font-size="14.00" fill="#e2e8f0">SymbolStorage</text>
<text text-anchor="middle" x="499" y="-2291.8" font-family="Segoe UI" font-size="14.00" fill="#e2e8f0">SymbolStoragePage</text>
</g>
<!-- navigation&#45;&gt;hidden_SymbolStorage -->
<g id="edge34" class="edge">
<title>navigation&#45;&gt;hidden_SymbolStorage</title>
<path fill="none" stroke="#fb923c" stroke-width="1.3" stroke-dasharray="5,2" d="M131.94,-1314.29C148.71,-1445.43 248.36,-2202.84 322,-2272 346.19,-2294.71 380.88,-2303.86 413.08,-2306.81"/>
<polygon fill="#fb923c" stroke="#fb923c" stroke-width="1.3" points="413.01,-2309.61 421.2,-2307.43 413.44,-2304.03 413.01,-2309.61"/>
</g>
<!-- hidden_IndexSubscription -->
<g id="node36" class="node">
<title>hidden_IndexSubscription</title>
<path fill="#431407" stroke="#fb923c" d="M575,-2259C575,-2259 423,-2259 423,-2259 417,-2259 411,-2253 411,-2247 411,-2247 411,-2233 411,-2233 411,-2227 417,-2221 423,-2221 423,-2221 575,-2221 575,-2221 581,-2221 587,-2227 587,-2233 587,-2233 587,-2247 587,-2247 587,-2253 581,-2259 575,-2259"/>
<text text-anchor="middle" x="499" y="-2243.8" font-family="Segoe UI" font-size="14.00" fill="#e2e8f0">IndexSubscription</text>
<text text-anchor="middle" x="499" y="-2228.8" font-family="Segoe UI" font-size="14.00" fill="#e2e8f0">IndexSubscriptionPage</text>
</g>
<!-- navigation&#45;&gt;hidden_IndexSubscription -->
<g id="edge35" class="edge">
<title>navigation&#45;&gt;hidden_IndexSubscription</title>
<path fill="none" stroke="#fb923c" stroke-width="1.3" stroke-dasharray="5,2" d="M132.03,-1314.13C144.42,-1406.03 201.84,-1810.81 293,-2132 302.98,-2167.18 293.85,-2185.65 322,-2209 344.48,-2227.65 374.23,-2236.77 402.86,-2240.86"/>
<polygon fill="#fb923c" stroke="#fb923c" stroke-width="1.3" points="402.61,-2243.65 410.9,-2241.88 403.32,-2238.09 402.61,-2243.65"/>
</g>
<!-- hidden_Options -->
<g id="node37" class="node">
<title>hidden_Options</title>
<path fill="#431407" stroke="#fb923c" d="M539,-2196C539,-2196 459,-2196 459,-2196 453,-2196 447,-2190 447,-2184 447,-2184 447,-2170 447,-2170 447,-2164 453,-2158 459,-2158 459,-2158 539,-2158 539,-2158 545,-2158 551,-2164 551,-2170 551,-2170 551,-2184 551,-2184 551,-2190 545,-2196 539,-2196"/>
<text text-anchor="middle" x="499" y="-2180.8" font-family="Segoe UI" font-size="14.00" fill="#e2e8f0">Options</text>
<text text-anchor="middle" x="499" y="-2165.8" font-family="Segoe UI" font-size="14.00" fill="#e2e8f0">OptionsPage</text>
</g>
<!-- navigation&#45;&gt;hidden_Options -->
<g id="edge36" class="edge">
<title>navigation&#45;&gt;hidden_Options</title>
<path fill="none" stroke="#fb923c" stroke-width="1.3" stroke-dasharray="5,2" d="M130.78,-1314.18C138.9,-1429.92 187.43,-2033.9 322,-2146 354.13,-2172.77 401.23,-2179.94 438.62,-2180.73"/>
<polygon fill="#fb923c" stroke="#fb923c" stroke-width="1.3" points="438.9,-2183.54 446.92,-2180.81 438.95,-2177.94 438.9,-2183.54"/>
</g>
<!-- hidden_Schedules -->
<g id="node38" class="node">
<title>hidden_Schedules</title>
<path fill="#431407" stroke="#fb923c" d="M574,-2133C574,-2133 424,-2133 424,-2133 418,-2133 412,-2127 412,-2121 412,-2121 412,-2107 412,-2107 412,-2101 418,-2095 424,-2095 424,-2095 574,-2095 574,-2095 580,-2095 586,-2101 586,-2107 586,-2107 586,-2121 586,-2121 586,-2127 580,-2133 574,-2133"/>
<text text-anchor="middle" x="499" y="-2117.8" font-family="Segoe UI" font-size="14.00" fill="#e2e8f0">Schedules</text>
<text text-anchor="middle" x="499" y="-2102.8" font-family="Segoe UI" font-size="14.00" fill="#e2e8f0">ScheduleManagerPage</text>
</g>
<!-- navigation&#45;&gt;hidden_Schedules -->
<g id="edge37" class="edge">
<title>navigation&#45;&gt;hidden_Schedules</title>
<path fill="none" stroke="#fb923c" stroke-width="1.3" stroke-dasharray="5,2" d="M131.17,-1314.16C141.22,-1424.67 197.43,-1979.23 322,-2083 344.66,-2101.88 374.76,-2111.01 403.65,-2115.03"/>
<polygon fill="#fb923c" stroke="#fb923c" stroke-width="1.3" points="403.48,-2117.83 411.76,-2116.03 404.16,-2112.27 403.48,-2117.83"/>
</g>
<!-- hidden_RunDetail -->
<g id="node39" class="node">
<title>hidden_RunDetail</title>
<path fill="#431407" stroke="#fb923c" d="M545,-2070C545,-2070 453,-2070 453,-2070 447,-2070 441,-2064 441,-2058 441,-2058 441,-2044 441,-2044 441,-2038 447,-2032 453,-2032 453,-2032 545,-2032 545,-2032 551,-2032 557,-2038 557,-2044 557,-2044 557,-2058 557,-2058 557,-2064 551,-2070 545,-2070"/>
<text text-anchor="middle" x="499" y="-2054.8" font-family="Segoe UI" font-size="14.00" fill="#e2e8f0">RunDetail</text>
<text text-anchor="middle" x="499" y="-2039.8" font-family="Segoe UI" font-size="14.00" fill="#e2e8f0">RunDetailPage</text>
</g>
<!-- navigation&#45;&gt;hidden_RunDetail -->
<g id="edge38" class="edge">
<title>navigation&#45;&gt;hidden_RunDetail</title>
<path fill="none" stroke="#fb923c" stroke-width="1.3" stroke-dasharray="5,2" d="M131.64,-1314.32C143.76,-1419.78 207.23,-1924.8 322,-2020 352.53,-2045.32 396.45,-2053.08 432.78,-2054.51"/>
<polygon fill="#fb923c" stroke="#fb923c" stroke-width="1.3" points="432.81,-2057.31 440.89,-2054.73 432.96,-2051.71 432.81,-2057.31"/>
</g>
<!-- hidden_RunPortfolio -->
<g id="node40" class="node">
<title>hidden_RunPortfolio</title>
<path fill="#431407" stroke="#fb923c" d="M554,-2007C554,-2007 444,-2007 444,-2007 438,-2007 432,-2001 432,-1995 432,-1995 432,-1981 432,-1981 432,-1975 438,-1969 444,-1969 444,-1969 554,-1969 554,-1969 560,-1969 566,-1975 566,-1981 566,-1981 566,-1995 566,-1995 566,-2001 560,-2007 554,-2007"/>
<text text-anchor="middle" x="499" y="-1991.8" font-family="Segoe UI" font-size="14.00" fill="#e2e8f0">RunPortfolio</text>
<text text-anchor="middle" x="499" y="-1976.8" font-family="Segoe UI" font-size="14.00" fill="#e2e8f0">RunPortfolioPage</text>
</g>
<!-- navigation&#45;&gt;hidden_RunPortfolio -->
<g id="edge39" class="edge">
<title>navigation&#45;&gt;hidden_RunPortfolio</title>
<path fill="none" stroke="#fb923c" stroke-width="1.3" stroke-dasharray="5,2" d="M132.13,-1314.29C146.18,-1414.22 215.69,-1871.7 322,-1957 350.34,-1979.74 389.58,-1988.16 423.82,-1990.61"/>
<polygon fill="#fb923c" stroke="#fb923c" stroke-width="1.3" points="423.8,-1993.41 431.95,-1991.08 424.13,-1987.82 423.8,-1993.41"/>
</g>
<!-- hidden_RunLedger -->
<g id="node41" class="node">
<title>hidden_RunLedger</title>
<path fill="#431407" stroke="#fb923c" d="M549.5,-1944C549.5,-1944 448.5,-1944 448.5,-1944 442.5,-1944 436.5,-1938 436.5,-1932 436.5,-1932 436.5,-1918 436.5,-1918 436.5,-1912 442.5,-1906 448.5,-1906 448.5,-1906 549.5,-1906 549.5,-1906 555.5,-1906 561.5,-1912 561.5,-1918 561.5,-1918 561.5,-1932 561.5,-1932 561.5,-1938 555.5,-1944 549.5,-1944"/>
<text text-anchor="middle" x="499" y="-1928.8" font-family="Segoe UI" font-size="14.00" fill="#e2e8f0">RunLedger</text>
<text text-anchor="middle" x="499" y="-1913.8" font-family="Segoe UI" font-size="14.00" fill="#e2e8f0">RunLedgerPage</text>
</g>
<!-- navigation&#45;&gt;hidden_RunLedger -->
<g id="edge40" class="edge">
<title>navigation&#45;&gt;hidden_RunLedger</title>
<path fill="none" stroke="#fb923c" stroke-width="1.3" stroke-dasharray="5,2" d="M128.81,-1314.12C126.93,-1398.64 131.59,-1741.22 322,-1894 351.46,-1917.64 392.7,-1925.8 427.86,-1927.87"/>
<polygon fill="#fb923c" stroke="#fb923c" stroke-width="1.3" points="428.07,-1930.68 436.19,-1928.25 428.32,-1925.09 428.07,-1930.68"/>
</g>
<!-- hidden_RunCashFlow -->
<g id="node42" class="node">
<title>hidden_RunCashFlow</title>
<path fill="#431407" stroke="#fb923c" d="M558.5,-1881C558.5,-1881 439.5,-1881 439.5,-1881 433.5,-1881 427.5,-1875 427.5,-1869 427.5,-1869 427.5,-1855 427.5,-1855 427.5,-1849 433.5,-1843 439.5,-1843 439.5,-1843 558.5,-1843 558.5,-1843 564.5,-1843 570.5,-1849 570.5,-1855 570.5,-1855 570.5,-1869 570.5,-1869 570.5,-1875 564.5,-1881 558.5,-1881"/>
<text text-anchor="middle" x="499" y="-1865.8" font-family="Segoe UI" font-size="14.00" fill="#e2e8f0">RunCashFlow</text>
<text text-anchor="middle" x="499" y="-1850.8" font-family="Segoe UI" font-size="14.00" fill="#e2e8f0">RunCashFlowPage</text>
</g>
<!-- navigation&#45;&gt;hidden_RunCashFlow -->
<g id="edge41" class="edge">
<title>navigation&#45;&gt;hidden_RunCashFlow</title>
<path fill="none" stroke="#fb923c" stroke-width="1.3" stroke-dasharray="5,2" d="M129.74,-1314.11C131.85,-1392.79 151.18,-1693.94 322,-1831 348.99,-1852.66 385.88,-1861.33 418.91,-1864.22"/>
<polygon fill="#fb923c" stroke="#fb923c" stroke-width="1.3" points="419.03,-1867.03 427.22,-1864.83 419.44,-1861.45 419.03,-1867.03"/>
</g>
<!-- hidden_RunRisk -->
<g id="node43" class="node">
<title>hidden_RunRisk</title>
<path fill="#431407" stroke="#fb923c" d="M540,-1818C540,-1818 458,-1818 458,-1818 452,-1818 446,-1812 446,-1806 446,-1806 446,-1792 446,-1792 446,-1786 452,-1780 458,-1780 458,-1780 540,-1780 540,-1780 546,-1780 552,-1786 552,-1792 552,-1792 552,-1806 552,-1806 552,-1812 546,-1818 540,-1818"/>
<text text-anchor="middle" x="499" y="-1802.8" font-family="Segoe UI" font-size="14.00" fill="#e2e8f0">RunRisk</text>
<text text-anchor="middle" x="499" y="-1787.8" font-family="Segoe UI" font-size="14.00" fill="#e2e8f0">RunRiskPage</text>
</g>
<!-- navigation&#45;&gt;hidden_RunRisk -->
<g id="edge42" class="edge">
<title>navigation&#45;&gt;hidden_RunRisk</title>
<path fill="none" stroke="#fb923c" stroke-width="1.3" stroke-dasharray="5,2" d="M130.89,-1314.2C137.26,-1386.83 170.25,-1646.88 322,-1768 354.24,-1793.73 400.46,-1801.1 437.44,-1802.23"/>
<polygon fill="#fb923c" stroke="#fb923c" stroke-width="1.3" points="437.61,-1805.04 445.67,-1802.39 437.72,-1799.44 437.61,-1805.04"/>
</g>
<!-- hidden_AccountPortfolio -->
<g id="node44" class="node">
<title>hidden_AccountPortfolio</title>
<path fill="#431407" stroke="#fb923c" d="M568,-1755C568,-1755 430,-1755 430,-1755 424,-1755 418,-1749 418,-1743 418,-1743 418,-1729 418,-1729 418,-1723 424,-1717 430,-1717 430,-1717 568,-1717 568,-1717 574,-1717 580,-1723 580,-1729 580,-1729 580,-1743 580,-1743 580,-1749 574,-1755 568,-1755"/>
<text text-anchor="middle" x="499" y="-1739.8" font-family="Segoe UI" font-size="14.00" fill="#e2e8f0">AccountPortfolio</text>
<text text-anchor="middle" x="499" y="-1724.8" font-family="Segoe UI" font-size="14.00" fill="#e2e8f0">AccountPortfolioPage</text>
</g>
<!-- navigation&#45;&gt;hidden_AccountPortfolio -->
<g id="edge43" class="edge">
<title>navigation&#45;&gt;hidden_AccountPortfolio</title>
<path fill="none" stroke="#fb923c" stroke-width="1.3" stroke-dasharray="5,2" d="M132.25,-1314.34C142.8,-1380.86 187.1,-1601.79 322,-1705 346.77,-1723.95 379.22,-1732.8 409.5,-1736.56"/>
<polygon fill="#fb923c" stroke="#fb923c" stroke-width="1.3" points="409.3,-1739.35 417.56,-1737.44 409.92,-1733.78 409.3,-1739.35"/>
</g>
<!-- hidden_AggregatePortfolio -->
<g id="node45" class="node">
<title>hidden_AggregatePortfolio</title>
<path fill="#431407" stroke="#fb923c" d="M576.5,-1692C576.5,-1692 421.5,-1692 421.5,-1692 415.5,-1692 409.5,-1686 409.5,-1680 409.5,-1680 409.5,-1666 409.5,-1666 409.5,-1660 415.5,-1654 421.5,-1654 421.5,-1654 576.5,-1654 576.5,-1654 582.5,-1654 588.5,-1660 588.5,-1666 588.5,-1666 588.5,-1680 588.5,-1680 588.5,-1686 582.5,-1692 576.5,-1692"/>
<text text-anchor="middle" x="499" y="-1676.8" font-family="Segoe UI" font-size="14.00" fill="#e2e8f0">AggregatePortfolio</text>
<text text-anchor="middle" x="499" y="-1661.8" font-family="Segoe UI" font-size="14.00" fill="#e2e8f0">AggregatePortfolioPage</text>
</g>
<!-- navigation&#45;&gt;hidden_AggregatePortfolio -->
<g id="edge44" class="edge">
<title>navigation&#45;&gt;hidden_AggregatePortfolio</title>
<path fill="none" stroke="#fb923c" stroke-width="1.3" stroke-dasharray="5,2" d="M133.96,-1314.29C148.85,-1374.03 202.79,-1557.02 322,-1642 344.88,-1658.31 373.6,-1666.96 401.16,-1671.33"/>
<polygon fill="#fb923c" stroke="#fb923c" stroke-width="1.3" points="400.96,-1674.13 409.28,-1672.5 401.76,-1668.59 400.96,-1674.13"/>
</g>
<!-- hidden_CollectionSessions -->
<g id="node46" class="node">
<title>hidden_CollectionSessions</title>
<path fill="#431407" stroke="#fb923c" d="M572,-1629C572,-1629 426,-1629 426,-1629 420,-1629 414,-1623 414,-1617 414,-1617 414,-1603 414,-1603 414,-1597 420,-1591 426,-1591 426,-1591 572,-1591 572,-1591 578,-1591 584,-1597 584,-1603 584,-1603 584,-1617 584,-1617 584,-1623 578,-1629 572,-1629"/>
<text text-anchor="middle" x="499" y="-1613.8" font-family="Segoe UI" font-size="14.00" fill="#e2e8f0">CollectionSessions</text>
<text text-anchor="middle" x="499" y="-1598.8" font-family="Segoe UI" font-size="14.00" fill="#e2e8f0">CollectionSessionPage</text>
</g>
<!-- navigation&#45;&gt;hidden_CollectionSessions -->
<g id="edge45" class="edge">
<title>navigation&#45;&gt;hidden_CollectionSessions</title>
<path fill="none" stroke="#fb923c" stroke-width="1.3" stroke-dasharray="5,2" d="M136.3,-1314.11C155.92,-1366.26 218.01,-1511.65 322,-1579 346.64,-1594.96 377.1,-1603.35 405.72,-1607.6"/>
<polygon fill="#fb923c" stroke="#fb923c" stroke-width="1.3" points="405.43,-1610.38 413.74,-1608.69 406.19,-1604.84 405.43,-1610.38"/>
</g>
<!-- hidden_ArchiveHealth -->
<g id="node47" class="node">
<title>hidden_ArchiveHealth</title>
<path fill="#431407" stroke="#fb923c" d="M560,-1566C560,-1566 438,-1566 438,-1566 432,-1566 426,-1560 426,-1554 426,-1554 426,-1540 426,-1540 426,-1534 432,-1528 438,-1528 438,-1528 560,-1528 560,-1528 566,-1528 572,-1534 572,-1540 572,-1540 572,-1554 572,-1554 572,-1560 566,-1566 560,-1566"/>
<text text-anchor="middle" x="499" y="-1550.8" font-family="Segoe UI" font-size="14.00" fill="#e2e8f0">ArchiveHealth</text>
<text text-anchor="middle" x="499" y="-1535.8" font-family="Segoe UI" font-size="14.00" fill="#e2e8f0">ArchiveHealthPage</text>
</g>
<!-- navigation&#45;&gt;hidden_ArchiveHealth -->
<g id="edge46" class="edge">
<title>navigation&#45;&gt;hidden_ArchiveHealth</title>
<path fill="none" stroke="#fb923c" stroke-width="1.3" stroke-dasharray="5,2" d="M140.01,-1314.25C165.07,-1358.14 232.96,-1465.69 322,-1516 350.76,-1532.25 386.05,-1540.35 417.46,-1544.26"/>
<polygon fill="#fb923c" stroke="#fb923c" stroke-width="1.3" points="417.51,-1547.08 425.78,-1545.21 418.15,-1541.52 417.51,-1547.08"/>
</g>
<!-- hidden_ServiceManager -->
<g id="node48" class="node">
<title>hidden_ServiceManager</title>
<path fill="#431407" stroke="#fb923c" d="M567.5,-1503C567.5,-1503 430.5,-1503 430.5,-1503 424.5,-1503 418.5,-1497 418.5,-1491 418.5,-1491 418.5,-1477 418.5,-1477 418.5,-1471 424.5,-1465 430.5,-1465 430.5,-1465 567.5,-1465 567.5,-1465 573.5,-1465 579.5,-1471 579.5,-1477 579.5,-1477 579.5,-1491 579.5,-1491 579.5,-1497 573.5,-1503 567.5,-1503"/>
<text text-anchor="middle" x="499" y="-1487.8" font-family="Segoe UI" font-size="14.00" fill="#e2e8f0">ServiceManager</text>
<text text-anchor="middle" x="499" y="-1472.8" font-family="Segoe UI" font-size="14.00" fill="#e2e8f0">ServiceManagerPage</text>
</g>
<!-- navigation&#45;&gt;hidden_ServiceManager -->
<g id="edge47" class="edge">
<title>navigation&#45;&gt;hidden_ServiceManager</title>
<path fill="none" stroke="#fb923c" stroke-width="1.3" stroke-dasharray="5,2" d="M146.4,-1314.25C177.48,-1348.28 247.36,-1418.69 322,-1453 349.31,-1465.55 381.16,-1473.05 410.2,-1477.51"/>
<polygon fill="#fb923c" stroke="#fb923c" stroke-width="1.3" points="409.99,-1480.31 418.31,-1478.69 410.8,-1474.77 409.99,-1480.31"/>
</g>
<!-- hidden_DataSampling -->
<g id="node49" class="node">
<title>hidden_DataSampling</title>
<path fill="#431407" stroke="#fb923c" d="M560.5,-1440C560.5,-1440 437.5,-1440 437.5,-1440 431.5,-1440 425.5,-1434 425.5,-1428 425.5,-1428 425.5,-1414 425.5,-1414 425.5,-1408 431.5,-1402 437.5,-1402 437.5,-1402 560.5,-1402 560.5,-1402 566.5,-1402 572.5,-1408 572.5,-1414 572.5,-1414 572.5,-1428 572.5,-1428 572.5,-1434 566.5,-1440 560.5,-1440"/>
<text text-anchor="middle" x="499" y="-1424.8" font-family="Segoe UI" font-size="14.00" fill="#e2e8f0">DataSampling</text>
<text text-anchor="middle" x="499" y="-1409.8" font-family="Segoe UI" font-size="14.00" fill="#e2e8f0">DataSamplingPage</text>
</g>
<!-- navigation&#45;&gt;hidden_DataSampling -->
<g id="edge48" class="edge">
<title>navigation&#45;&gt;hidden_DataSampling</title>
<path fill="none" stroke="#fb923c" stroke-width="1.3" stroke-dasharray="5,2" d="M161.01,-1314.05C198.19,-1335.69 262.5,-1370.52 322,-1390 352.45,-1399.97 386.97,-1406.94 417.33,-1411.71"/>
<polygon fill="#fb923c" stroke="#fb923c" stroke-width="1.3" points="417.03,-1414.5 425.36,-1412.94 417.88,-1408.96 417.03,-1414.5"/>
</g>
<!-- hidden_TimeSeriesAlignment -->
<g id="node50" class="node">
<title>hidden_TimeSeriesAlignment</title>
<path fill="#431407" stroke="#fb923c" d="M585.5,-1377C585.5,-1377 412.5,-1377 412.5,-1377 406.5,-1377 400.5,-1371 400.5,-1365 400.5,-1365 400.5,-1351 400.5,-1351 400.5,-1345 406.5,-1339 412.5,-1339 412.5,-1339 585.5,-1339 585.5,-1339 591.5,-1339 597.5,-1345 597.5,-1351 597.5,-1351 597.5,-1365 597.5,-1365 597.5,-1371 591.5,-1377 585.5,-1377"/>
<text text-anchor="middle" x="499" y="-1361.8" font-family="Segoe UI" font-size="14.00" fill="#e2e8f0">TimeSeriesAlignment</text>
<text text-anchor="middle" x="499" y="-1346.8" font-family="Segoe UI" font-size="14.00" fill="#e2e8f0">TimeSeriesAlignmentPage</text>
</g>
<!-- navigation&#45;&gt;hidden_TimeSeriesAlignment -->
<g id="edge49" class="edge">
<title>navigation&#45;&gt;hidden_TimeSeriesAlignment</title>
<path fill="none" stroke="#fb923c" stroke-width="1.3" stroke-dasharray="5,2" d="M199.68,-1307C254.04,-1316.29 330.24,-1329.32 392.02,-1339.88"/>
<polygon fill="#fb923c" stroke="#fb923c" stroke-width="1.3" points="391.89,-1342.7 400.25,-1341.29 392.83,-1337.18 391.89,-1342.7"/>
</g>
<!-- hidden_ExportPresets -->
<g id="node51" class="node">
<title>hidden_ExportPresets</title>
<path fill="#431407" stroke="#fb923c" d="M560,-1314C560,-1314 438,-1314 438,-1314 432,-1314 426,-1308 426,-1302 426,-1302 426,-1288 426,-1288 426,-1282 432,-1276 438,-1276 438,-1276 560,-1276 560,-1276 566,-1276 572,-1282 572,-1288 572,-1288 572,-1302 572,-1302 572,-1308 566,-1314 560,-1314"/>
<text text-anchor="middle" x="499" y="-1298.8" font-family="Segoe UI" font-size="14.00" fill="#e2e8f0">ExportPresets</text>
<text text-anchor="middle" x="499" y="-1283.8" font-family="Segoe UI" font-size="14.00" fill="#e2e8f0">ExportPresetsPage</text>
</g>
<!-- navigation&#45;&gt;hidden_ExportPresets -->
<g id="edge50" class="edge">
<title>navigation&#45;&gt;hidden_ExportPresets</title>
<path fill="none" stroke="#fb923c" stroke-width="1.3" stroke-dasharray="5,2" d="M199.68,-1295C261.86,-1295 352.61,-1295 417.68,-1295"/>
<polygon fill="#fb923c" stroke="#fb923c" stroke-width="1.3" points="417.88,-1297.8 425.88,-1295 417.88,-1292.2 417.88,-1297.8"/>
</g>
<!-- hidden_AnalysisExport -->
<g id="node52" class="node">
<title>hidden_AnalysisExport</title>
<path fill="#431407" stroke="#fb923c" d="M563.5,-1251C563.5,-1251 434.5,-1251 434.5,-1251 428.5,-1251 422.5,-1245 422.5,-1239 422.5,-1239 422.5,-1225 422.5,-1225 422.5,-1219 428.5,-1213 434.5,-1213 434.5,-1213 563.5,-1213 563.5,-1213 569.5,-1213 575.5,-1219 575.5,-1225 575.5,-1225 575.5,-1239 575.5,-1239 575.5,-1245 569.5,-1251 563.5,-1251"/>
<text text-anchor="middle" x="499" y="-1235.8" font-family="Segoe UI" font-size="14.00" fill="#e2e8f0">AnalysisExport</text>
<text text-anchor="middle" x="499" y="-1220.8" font-family="Segoe UI" font-size="14.00" fill="#e2e8f0">AnalysisExportPage</text>
</g>
<!-- navigation&#45;&gt;hidden_AnalysisExport -->
<g id="edge51" class="edge">
<title>navigation&#45;&gt;hidden_AnalysisExport</title>
<path fill="none" stroke="#fb923c" stroke-width="1.3" stroke-dasharray="5,2" d="M199.68,-1283C260.76,-1272.56 349.41,-1257.4 414.2,-1246.33"/>
<polygon fill="#fb923c" stroke="#fb923c" stroke-width="1.3" points="414.96,-1249.04 422.37,-1244.93 414.02,-1243.52 414.96,-1249.04"/>
</g>
<!-- hidden_AnalysisExportWizard -->
<g id="node53" class="node">
<title>hidden_AnalysisExportWizard</title>
<path fill="#431407" stroke="#fb923c" d="M587,-1188C587,-1188 411,-1188 411,-1188 405,-1188 399,-1182 399,-1176 399,-1176 399,-1162 399,-1162 399,-1156 405,-1150 411,-1150 411,-1150 587,-1150 587,-1150 593,-1150 599,-1156 599,-1162 599,-1162 599,-1176 599,-1176 599,-1182 593,-1188 587,-1188"/>
<text text-anchor="middle" x="499" y="-1172.8" font-family="Segoe UI" font-size="14.00" fill="#e2e8f0">AnalysisExportWizard</text>
<text text-anchor="middle" x="499" y="-1157.8" font-family="Segoe UI" font-size="14.00" fill="#e2e8f0">AnalysisExportWizardPage</text>
</g>
<!-- navigation&#45;&gt;hidden_AnalysisExportWizard -->
<g id="edge52" class="edge">
<title>navigation&#45;&gt;hidden_AnalysisExportWizard</title>
<path fill="none" stroke="#fb923c" stroke-width="1.3" stroke-dasharray="5,2" d="M199.77,-1284.19C219.08,-1279.43 239.51,-1272.64 257,-1263 291.96,-1243.73 286.42,-1219.11 322,-1201 343.14,-1190.24 367.32,-1183.05 390.86,-1178.26"/>
<polygon fill="#fb923c" stroke="#fb923c" stroke-width="1.3" points="391.49,-1181 398.81,-1176.73 390.43,-1175.5 391.49,-1181"/>
</g>
<!-- hidden_EventReplay -->
<g id="node54" class="node">
<title>hidden_EventReplay</title>
<path fill="#431407" stroke="#fb923c" d="M555,-1125C555,-1125 443,-1125 443,-1125 437,-1125 431,-1119 431,-1113 431,-1113 431,-1099 431,-1099 431,-1093 437,-1087 443,-1087 443,-1087 555,-1087 555,-1087 561,-1087 567,-1093 567,-1099 567,-1099 567,-1113 567,-1113 567,-1119 561,-1125 555,-1125"/>
<text text-anchor="middle" x="499" y="-1109.8" font-family="Segoe UI" font-size="14.00" fill="#e2e8f0">EventReplay</text>
<text text-anchor="middle" x="499" y="-1094.8" font-family="Segoe UI" font-size="14.00" fill="#e2e8f0">EventReplayPage</text>
</g>
<!-- navigation&#45;&gt;hidden_EventReplay -->
<g id="edge53" class="edge">
<title>navigation&#45;&gt;hidden_EventReplay</title>
<path fill="none" stroke="#fb923c" stroke-width="1.3" stroke-dasharray="5,2" d="M199.81,-1288.3C219.88,-1283.64 240.7,-1275.87 257,-1263 306.14,-1224.18 271.61,-1175.17 322,-1138 350.69,-1116.84 389.04,-1108.22 422.62,-1105.15"/>
<polygon fill="#fb923c" stroke="#fb923c" stroke-width="1.3" points="422.84,-1107.94 430.59,-1104.52 422.4,-1102.36 422.84,-1107.94"/>
</g>
<!-- hidden_AdvancedAnalytics -->
<g id="node55" class="node">
<title>hidden_AdvancedAnalytics</title>
<path fill="#431407" stroke="#fb923c" d="M577.5,-1062C577.5,-1062 420.5,-1062 420.5,-1062 414.5,-1062 408.5,-1056 408.5,-1050 408.5,-1050 408.5,-1036 408.5,-1036 408.5,-1030 414.5,-1024 420.5,-1024 420.5,-1024 577.5,-1024 577.5,-1024 583.5,-1024 589.5,-1030 589.5,-1036 589.5,-1036 589.5,-1050 589.5,-1050 589.5,-1056 583.5,-1062 577.5,-1062"/>
<text text-anchor="middle" x="499" y="-1046.8" font-family="Segoe UI" font-size="14.00" fill="#e2e8f0">AdvancedAnalytics</text>
<text text-anchor="middle" x="499" y="-1031.8" font-family="Segoe UI" font-size="14.00" fill="#e2e8f0">AdvancedAnalyticsPage</text>
</g>
<!-- navigation&#45;&gt;hidden_AdvancedAnalytics -->
<g id="edge54" class="edge">
<title>navigation&#45;&gt;hidden_AdvancedAnalytics</title>
<path fill="none" stroke="#fb923c" stroke-width="1.3" stroke-dasharray="5,2" d="M199.72,-1290.04C220.25,-1285.49 241.35,-1277.34 257,-1263 322.17,-1203.26 254.89,-1132.55 322,-1075 343.56,-1056.51 372.19,-1047.14 400.07,-1042.75"/>
<polygon fill="#fb923c" stroke="#fb923c" stroke-width="1.3" points="400.77,-1045.48 408.3,-1041.59 399.99,-1039.93 400.77,-1045.48"/>
</g>
<!-- hidden_DataCalendar -->
<g id="node56" class="node">
<title>hidden_DataCalendar</title>
<path fill="#431407" stroke="#fb923c" d="M559,-999C559,-999 439,-999 439,-999 433,-999 427,-993 427,-987 427,-987 427,-973 427,-973 427,-967 433,-961 439,-961 439,-961 559,-961 559,-961 565,-961 571,-967 571,-973 571,-973 571,-987 571,-987 571,-993 565,-999 559,-999"/>
<text text-anchor="middle" x="499" y="-983.8" font-family="Segoe UI" font-size="14.00" fill="#e2e8f0">DataCalendar</text>
<text text-anchor="middle" x="499" y="-968.8" font-family="Segoe UI" font-size="14.00" fill="#e2e8f0">DataCalendarPage</text>
</g>
<!-- navigation&#45;&gt;hidden_DataCalendar -->
<g id="edge55" class="edge">
<title>navigation&#45;&gt;hidden_DataCalendar</title>
<path fill="none" stroke="#fb923c" stroke-width="1.3" stroke-dasharray="5,2" d="M199.61,-1291.18C220.5,-1286.72 241.84,-1278.34 257,-1263 338,-1181.03 236.45,-1089.21 322,-1012 348.04,-988.5 385.36,-979.51 418.94,-976.79"/>
<polygon fill="#fb923c" stroke="#fb923c" stroke-width="1.3" points="419.14,-979.59 426.94,-976.26 418.77,-974 419.14,-979.59"/>
</g>
<!-- hidden_StorageOptimization -->
<g id="node57" class="node">
<title>hidden_StorageOptimization</title>
<path fill="#431407" stroke="#fb923c" d="M583,-936C583,-936 415,-936 415,-936 409,-936 403,-930 403,-924 403,-924 403,-910 403,-910 403,-904 409,-898 415,-898 415,-898 583,-898 583,-898 589,-898 595,-904 595,-910 595,-910 595,-924 595,-924 595,-930 589,-936 583,-936"/>
<text text-anchor="middle" x="499" y="-920.8" font-family="Segoe UI" font-size="14.00" fill="#e2e8f0">StorageOptimization</text>
<text text-anchor="middle" x="499" y="-905.8" font-family="Segoe UI" font-size="14.00" fill="#e2e8f0">StorageOptimizationPage</text>
</g>
<!-- navigation&#45;&gt;hidden_StorageOptimization -->
<g id="edge56" class="edge">
<title>navigation&#45;&gt;hidden_StorageOptimization</title>
<path fill="none" stroke="#fb923c" stroke-width="1.3" stroke-dasharray="5,2" d="M199.6,-1291.95C220.75,-1287.56 242.24,-1279.04 257,-1263 305.25,-1210.57 268.77,-996.37 322,-949 341.97,-931.23 368.42,-921.79 394.72,-917.09"/>
<polygon fill="#fb923c" stroke="#fb923c" stroke-width="1.3" points="395.42,-919.81 402.88,-915.78 394.53,-914.28 395.42,-919.81"/>
</g>
<!-- hidden_RetentionAssurance -->
<g id="node58" class="node">
<title>hidden_RetentionAssurance</title>
<path fill="#431407" stroke="#fb923c" d="M581,-873C581,-873 417,-873 417,-873 411,-873 405,-867 405,-861 405,-861 405,-847 405,-847 405,-841 411,-835 417,-835 417,-835 581,-835 581,-835 587,-835 593,-841 593,-847 593,-847 593,-861 593,-861 593,-867 587,-873 581,-873"/>
<text text-anchor="middle" x="499" y="-857.8" font-family="Segoe UI" font-size="14.00" fill="#e2e8f0">RetentionAssurance</text>
<text text-anchor="middle" x="499" y="-842.8" font-family="Segoe UI" font-size="14.00" fill="#e2e8f0">RetentionAssurancePage</text>
</g>
<!-- navigation&#45;&gt;hidden_RetentionAssurance -->
<g id="edge57" class="edge">
<title>navigation&#45;&gt;hidden_RetentionAssurance</title>
<path fill="none" stroke="#fb923c" stroke-width="1.3" stroke-dasharray="5,2" d="M199.75,-1292.08C220.9,-1287.7 242.36,-1279.15 257,-1263 314.09,-1200.01 260.94,-945.15 322,-886 341.9,-866.73 369.29,-857 396.55,-852.5"/>
<polygon fill="#fb923c" stroke="#fb923c" stroke-width="1.3" points="397.1,-855.25 404.61,-851.32 396.29,-849.71 397.1,-855.25"/>
</g>
<!-- hidden_MessagingHub -->
<g id="node59" class="node">
<title>hidden_MessagingHub</title>
<path fill="#431407" stroke="#fb923c" d="M563,-810C563,-810 435,-810 435,-810 429,-810 423,-804 423,-798 423,-798 423,-784 423,-784 423,-778 429,-772 435,-772 435,-772 563,-772 563,-772 569,-772 575,-778 575,-784 575,-784 575,-798 575,-798 575,-804 569,-810 563,-810"/>
<text text-anchor="middle" x="499" y="-794.8" font-family="Segoe UI" font-size="14.00" fill="#e2e8f0">MessagingHub</text>
<text text-anchor="middle" x="499" y="-779.8" font-family="Segoe UI" font-size="14.00" fill="#e2e8f0">MessagingHubPage</text>
</g>
<!-- navigation&#45;&gt;hidden_MessagingHub -->
<g id="edge58" class="edge">
<title>navigation&#45;&gt;hidden_MessagingHub</title>
<path fill="none" stroke="#fb923c" stroke-width="1.3" stroke-dasharray="5,2" d="M199.7,-1292.4C220.98,-1288.06 242.53,-1279.45 257,-1263 322.28,-1188.78 251.06,-891.83 322,-823 346.25,-799.48 381.67,-790.17 414.39,-787.24"/>
<polygon fill="#fb923c" stroke="#fb923c" stroke-width="1.3" points="414.87,-790.01 422.64,-786.63 414.45,-784.42 414.87,-790.01"/>
</g>
<!-- hidden_ResearchShell -->
<g id="node60" class="node">
<title>hidden_ResearchShell</title>
<path fill="#431407" stroke="#fb923c" d="M598,-747C598,-747 400,-747 400,-747 394,-747 388,-741 388,-735 388,-735 388,-721 388,-721 388,-715 394,-709 400,-709 400,-709 598,-709 598,-709 604,-709 610,-715 610,-721 610,-721 610,-735 610,-735 610,-741 604,-747 598,-747"/>
<text text-anchor="middle" x="499" y="-731.8" font-family="Segoe UI" font-size="14.00" fill="#e2e8f0">ResearchShell</text>
<text text-anchor="middle" x="499" y="-716.8" font-family="Segoe UI" font-size="14.00" fill="#e2e8f0">ResearchWorkspaceShellPage</text>
</g>
<!-- navigation&#45;&gt;hidden_ResearchShell -->
<g id="edge59" class="edge">
<title>navigation&#45;&gt;hidden_ResearchShell</title>
<path fill="none" stroke="#fb923c" stroke-width="1.3" stroke-dasharray="5,2" d="M199.59,-1292.66C220.99,-1288.36 242.64,-1279.7 257,-1263 330.47,-1177.53 240.48,-837.83 322,-760 337.91,-744.82 358.48,-735.58 379.91,-730.17"/>
<polygon fill="#fb923c" stroke="#fb923c" stroke-width="1.3" points="380.68,-732.87 387.84,-728.35 379.42,-727.41 380.68,-732.87"/>
</g>
<!-- hidden_TradingShell -->
<g id="node61" class="node">
<title>hidden_TradingShell</title>
<path fill="#431407" stroke="#fb923c" d="M592.5,-684C592.5,-684 405.5,-684 405.5,-684 399.5,-684 393.5,-678 393.5,-672 393.5,-672 393.5,-658 393.5,-658 393.5,-652 399.5,-646 405.5,-646 405.5,-646 592.5,-646 592.5,-646 598.5,-646 604.5,-652 604.5,-658 604.5,-658 604.5,-672 604.5,-672 604.5,-678 598.5,-684 592.5,-684"/>
<text text-anchor="middle" x="499" y="-668.8" font-family="Segoe UI" font-size="14.00" fill="#e2e8f0">TradingShell</text>
<text text-anchor="middle" x="499" y="-653.8" font-family="Segoe UI" font-size="14.00" fill="#e2e8f0">TradingWorkspaceShellPage</text>
</g>
<!-- navigation&#45;&gt;hidden_TradingShell -->
<g id="edge60" class="edge">
<title>navigation&#45;&gt;hidden_TradingShell</title>
<path fill="none" stroke="#fb923c" stroke-width="1.3" stroke-dasharray="5,2" d="M199.74,-1292.79C221.15,-1288.49 242.77,-1279.81 257,-1263 338.79,-1166.36 229.61,-783.56 322,-697 339.31,-680.78 361.95,-671.4 385.21,-666.2"/>
<polygon fill="#fb923c" stroke="#fb923c" stroke-width="1.3" points="385.83,-668.94 393.11,-664.6 384.71,-663.45 385.83,-668.94"/>
</g>
<!-- hidden_Workspaces -->
<g id="node62" class="node">
<title>hidden_Workspaces</title>
<path fill="#431407" stroke="#fb923c" d="M549.5,-621C549.5,-621 448.5,-621 448.5,-621 442.5,-621 436.5,-615 436.5,-609 436.5,-609 436.5,-595 436.5,-595 436.5,-589 442.5,-583 448.5,-583 448.5,-583 549.5,-583 549.5,-583 555.5,-583 561.5,-589 561.5,-595 561.5,-595 561.5,-609 561.5,-609 561.5,-615 555.5,-621 549.5,-621"/>
<text text-anchor="middle" x="499" y="-605.8" font-family="Segoe UI" font-size="14.00" fill="#e2e8f0">Workspaces</text>
<text text-anchor="middle" x="499" y="-590.8" font-family="Segoe UI" font-size="14.00" fill="#e2e8f0">WorkspacePage</text>
</g>
<!-- navigation&#45;&gt;hidden_Workspaces -->
<g id="edge61" class="edge">
<title>navigation&#45;&gt;hidden_Workspaces</title>
<path fill="none" stroke="#fb923c" stroke-width="1.3" stroke-dasharray="5,2" d="M199.51,-1292.94C221.04,-1288.68 242.79,-1279.97 257,-1263 347.2,-1155.25 218.73,-729.3 322,-634 350.22,-607.96 392.24,-599.61 428.14,-597.93"/>
<polygon fill="#fb923c" stroke="#fb923c" stroke-width="1.3" points="428.27,-600.73 436.18,-597.66 428.09,-595.13 428.27,-600.73"/>
</g>
<!-- hidden_NotificationCenter -->
<g id="node63" class="node">
<title>hidden_NotificationCenter</title>
<path fill="#431407" stroke="#fb923c" d="M574.5,-558C574.5,-558 423.5,-558 423.5,-558 417.5,-558 411.5,-552 411.5,-546 411.5,-546 411.5,-532 411.5,-532 411.5,-526 417.5,-520 423.5,-520 423.5,-520 574.5,-520 574.5,-520 580.5,-520 586.5,-526 586.5,-532 586.5,-532 586.5,-546 586.5,-546 586.5,-552 580.5,-558 574.5,-558"/>
<text text-anchor="middle" x="499" y="-542.8" font-family="Segoe UI" font-size="14.00" fill="#e2e8f0">NotificationCenter</text>
<text text-anchor="middle" x="499" y="-527.8" font-family="Segoe UI" font-size="14.00" fill="#e2e8f0">NotificationCenterPage</text>
</g>
<!-- navigation&#45;&gt;hidden_NotificationCenter -->
<g id="edge62" class="edge">
<title>navigation&#45;&gt;hidden_NotificationCenter</title>
<path fill="none" stroke="#fb923c" stroke-width="1.3" stroke-dasharray="5,2" d="M199.59,-1293.01C221.12,-1288.75 242.86,-1280.03 257,-1263 298.68,-1212.82 282.34,-741.36 293,-677 300.98,-628.81 285.99,-604 322,-571 343.87,-550.96 373.92,-541.42 403.01,-537.33"/>
<polygon fill="#fb923c" stroke="#fb923c" stroke-width="1.3" points="403.58,-540.08 411.18,-536.32 402.89,-534.52 403.58,-540.08"/>
</g>
<!-- hidden_Help -->
<g id="node64" class="node">
<title>hidden_Help</title>
<path fill="#431407" stroke="#fb923c" d="M527.5,-495C527.5,-495 470.5,-495 470.5,-495 464.5,-495 458.5,-489 458.5,-483 458.5,-483 458.5,-469 458.5,-469 458.5,-463 464.5,-457 470.5,-457 470.5,-457 527.5,-457 527.5,-457 533.5,-457 539.5,-463 539.5,-469 539.5,-469 539.5,-483 539.5,-483 539.5,-489 533.5,-495 527.5,-495"/>
<text text-anchor="middle" x="499" y="-479.8" font-family="Segoe UI" font-size="14.00" fill="#e2e8f0">Help</text>
<text text-anchor="middle" x="499" y="-464.8" font-family="Segoe UI" font-size="14.00" fill="#e2e8f0">HelpPage</text>
</g>
<!-- navigation&#45;&gt;hidden_Help -->
<g id="edge63" class="edge">
<title>navigation&#45;&gt;hidden_Help</title>
<path fill="none" stroke="#fb923c" stroke-width="1.3" stroke-dasharray="5,2" d="M199.6,-1293.02C221.14,-1288.76 242.87,-1280.04 257,-1263 310.76,-1198.2 262.38,-567.45 322,-508 355.16,-474.94 410.31,-469.72 450.04,-471.02"/>
<polygon fill="#fb923c" stroke="#fb923c" stroke-width="1.3" points="450.16,-473.82 458.28,-471.38 450.41,-468.23 450.16,-473.82"/>
</g>
<!-- hidden_Welcome -->
<g id="node65" class="node">
<title>hidden_Welcome</title>
<path fill="#431407" stroke="#fb923c" d="M543,-432C543,-432 455,-432 455,-432 449,-432 443,-426 443,-420 443,-420 443,-406 443,-406 443,-400 449,-394 455,-394 455,-394 543,-394 543,-394 549,-394 555,-400 555,-406 555,-406 555,-420 555,-420 555,-426 549,-432 543,-432"/>
<text text-anchor="middle" x="499" y="-416.8" font-family="Segoe UI" font-size="14.00" fill="#e2e8f0">Welcome</text>
<text text-anchor="middle" x="499" y="-401.8" font-family="Segoe UI" font-size="14.00" fill="#e2e8f0">WelcomePage</text>
</g>
<!-- navigation&#45;&gt;hidden_Welcome -->
<g id="edge64" class="edge">
<title>navigation&#45;&gt;hidden_Welcome</title>
<path fill="none" stroke="#fb923c" stroke-width="1.3" stroke-dasharray="5,2" d="M199.62,-1293.04C221.16,-1288.78 242.88,-1280.05 257,-1263 315.14,-1192.77 258.67,-510.59 322,-445 350.48,-415.5 396.39,-407.92 434.18,-407.49"/>
<polygon fill="#fb923c" stroke="#fb923c" stroke-width="1.3" points="434.6,-410.29 442.6,-407.51 434.61,-404.69 434.6,-410.29"/>
</g>
<!-- hidden_CredentialManagement -->
<g id="node66" class="node">
<title>hidden_CredentialManagement</title>
<path fill="#431407" stroke="#fb923c" d="M592.5,-369C592.5,-369 405.5,-369 405.5,-369 399.5,-369 393.5,-363 393.5,-357 393.5,-357 393.5,-343 393.5,-343 393.5,-337 399.5,-331 405.5,-331 405.5,-331 592.5,-331 592.5,-331 598.5,-331 604.5,-337 604.5,-343 604.5,-343 604.5,-357 604.5,-357 604.5,-363 598.5,-369 592.5,-369"/>
<text text-anchor="middle" x="499" y="-353.8" font-family="Segoe UI" font-size="14.00" fill="#e2e8f0">CredentialManagement</text>
<text text-anchor="middle" x="499" y="-338.8" font-family="Segoe UI" font-size="14.00" fill="#e2e8f0">CredentialManagementPage</text>
</g>
<!-- navigation&#45;&gt;hidden_CredentialManagement -->
<g id="edge65" class="edge">
<title>navigation&#45;&gt;hidden_CredentialManagement</title>
<path fill="none" stroke="#fb923c" stroke-width="1.3" stroke-dasharray="5,2" d="M199.68,-1293.08C221.22,-1288.83 242.93,-1280.09 257,-1263 319.37,-1187.21 253.67,-452.46 322,-382 338.8,-364.67 361.62,-354.92 385.26,-349.73"/>
<polygon fill="#fb923c" stroke="#fb923c" stroke-width="1.3" points="385.99,-352.44 393.3,-348.15 384.91,-346.95 385.99,-352.44"/>
</g>
<!-- hidden_KeyboardShortcuts -->
<g id="node67" class="node">
<title>hidden_KeyboardShortcuts</title>
<path fill="#431407" stroke="#fb923c" d="M577.5,-306C577.5,-306 420.5,-306 420.5,-306 414.5,-306 408.5,-300 408.5,-294 408.5,-294 408.5,-280 408.5,-280 408.5,-274 414.5,-268 420.5,-268 420.5,-268 577.5,-268 577.5,-268 583.5,-268 589.5,-274 589.5,-280 589.5,-280 589.5,-294 589.5,-294 589.5,-300 583.5,-306 577.5,-306"/>
<text text-anchor="middle" x="499" y="-290.8" font-family="Segoe UI" font-size="14.00" fill="#e2e8f0">KeyboardShortcuts</text>
<text text-anchor="middle" x="499" y="-275.8" font-family="Segoe UI" font-size="14.00" fill="#e2e8f0">KeyboardShortcutsPage</text>
</g>
<!-- navigation&#45;&gt;hidden_KeyboardShortcuts -->
<g id="edge66" class="edge">
<title>navigation&#45;&gt;hidden_KeyboardShortcuts</title>
<path fill="none" stroke="#fb923c" stroke-width="1.3" stroke-dasharray="5,2" d="M199.73,-1293.12C221.27,-1288.87 242.97,-1280.13 257,-1263 323.61,-1181.66 248.57,-394.24 322,-319 342.42,-298.07 371.63,-288.21 400.39,-284.11"/>
<polygon fill="#fb923c" stroke="#fb923c" stroke-width="1.3" points="400.9,-286.87 408.49,-283.1 400.2,-281.31 400.9,-286.87"/>
</g>
<!-- hidden_SetupWizard -->
<g id="node68" class="node">
<title>hidden_SetupWizard</title>
<path fill="#431407" stroke="#fb923c" d="M555.5,-243C555.5,-243 442.5,-243 442.5,-243 436.5,-243 430.5,-237 430.5,-231 430.5,-231 430.5,-217 430.5,-217 430.5,-211 436.5,-205 442.5,-205 442.5,-205 555.5,-205 555.5,-205 561.5,-205 567.5,-211 567.5,-217 567.5,-217 567.5,-231 567.5,-231 567.5,-237 561.5,-243 555.5,-243"/>
<text text-anchor="middle" x="499" y="-227.8" font-family="Segoe UI" font-size="14.00" fill="#e2e8f0">SetupWizard</text>
<text text-anchor="middle" x="499" y="-212.8" font-family="Segoe UI" font-size="14.00" fill="#e2e8f0">SetupWizardPage</text>
</g>
<!-- navigation&#45;&gt;hidden_SetupWizard -->
<g id="edge67" class="edge">
<title>navigation&#45;&gt;hidden_SetupWizard</title>
<path fill="none" stroke="#fb923c" stroke-width="1.3" stroke-dasharray="5,2" d="M199.77,-1293.16C221.32,-1288.91 243.01,-1280.16 257,-1263 327.86,-1176.11 243.38,-335.94 322,-256 347.71,-229.87 387.12,-221.03 422.14,-219.09"/>
<polygon fill="#fb923c" stroke="#fb923c" stroke-width="1.3" points="422.59,-221.88 430.47,-218.76 422.37,-216.28 422.59,-221.88"/>
</g>
<!-- hidden_AddProviderWizard -->
<g id="node69" class="node">
<title>hidden_AddProviderWizard</title>
<path fill="#431407" stroke="#fb923c" d="M577.5,-180C577.5,-180 420.5,-180 420.5,-180 414.5,-180 408.5,-174 408.5,-168 408.5,-168 408.5,-154 408.5,-154 408.5,-148 414.5,-142 420.5,-142 420.5,-142 577.5,-142 577.5,-142 583.5,-142 589.5,-148 589.5,-154 589.5,-154 589.5,-168 589.5,-168 589.5,-174 583.5,-180 577.5,-180"/>
<text text-anchor="middle" x="499" y="-164.8" font-family="Segoe UI" font-size="14.00" fill="#e2e8f0">AddProviderWizard</text>
<text text-anchor="middle" x="499" y="-149.8" font-family="Segoe UI" font-size="14.00" fill="#e2e8f0">AddProviderWizardPage</text>
</g>
<!-- navigation&#45;&gt;hidden_AddProviderWizard -->
<g id="edge68" class="edge">
<title>navigation&#45;&gt;hidden_AddProviderWizard</title>
<path fill="none" stroke="#fb923c" stroke-width="1.3" stroke-dasharray="5,2" d="M199.8,-1293.18C221.35,-1288.94 243.04,-1280.18 257,-1263 332.11,-1170.56 238.03,-277.47 322,-193 342.51,-172.36 371.59,-162.55 400.21,-158.39"/>
<polygon fill="#fb923c" stroke="#fb923c" stroke-width="1.3" points="400.68,-161.16 408.26,-157.37 399.97,-155.6 400.68,-161.16"/>
</g>
<!-- hidden_ActivityLog -->
<g id="node70" class="node">
<title>hidden_ActivityLog</title>
<path fill="#431407" stroke="#fb923c" d="M549.5,-117C549.5,-117 448.5,-117 448.5,-117 442.5,-117 436.5,-111 436.5,-105 436.5,-105 436.5,-91 436.5,-91 436.5,-85 442.5,-79 448.5,-79 448.5,-79 549.5,-79 549.5,-79 555.5,-79 561.5,-85 561.5,-91 561.5,-91 561.5,-105 561.5,-105 561.5,-111 555.5,-117 549.5,-117"/>
<text text-anchor="middle" x="499" y="-101.8" font-family="Segoe UI" font-size="14.00" fill="#e2e8f0">ActivityLog</text>
<text text-anchor="middle" x="499" y="-86.8" font-family="Segoe UI" font-size="14.00" fill="#e2e8f0">ActivityLogPage</text>
</g>
<!-- navigation&#45;&gt;hidden_ActivityLog -->
<g id="edge69" class="edge">
<title>navigation&#45;&gt;hidden_ActivityLog</title>
<path fill="none" stroke="#fb923c" stroke-width="1.3" stroke-dasharray="5,2" d="M199.83,-1293.21C221.39,-1288.96 243.07,-1280.2 257,-1263 336.37,-1165.02 232.5,-218.83 322,-130 349.46,-102.74 391.87,-94.44 428.18,-93.09"/>
<polygon fill="#fb923c" stroke="#fb923c" stroke-width="1.3" points="428.38,-95.89 436.31,-92.9 428.24,-90.29 428.38,-95.89"/>
</g>
<!-- hidden_SecurityMaster -->
<g id="node71" class="node">
<title>hidden_SecurityMaster</title>
<path fill="#431407" stroke="#fb923c" d="M564,-54C564,-54 434,-54 434,-54 428,-54 422,-48 422,-42 422,-42 422,-28 422,-28 422,-22 428,-16 434,-16 434,-16 564,-16 564,-16 570,-16 576,-22 576,-28 576,-28 576,-42 576,-42 576,-48 570,-54 564,-54"/>
<text text-anchor="middle" x="499" y="-38.8" font-family="Segoe UI" font-size="14.00" fill="#e2e8f0">SecurityMaster</text>
<text text-anchor="middle" x="499" y="-23.8" font-family="Segoe UI" font-size="14.00" fill="#e2e8f0">SecurityMasterPage</text>
</g>
<!-- navigation&#45;&gt;hidden_SecurityMaster -->
<g id="edge70" class="edge">
<title>navigation&#45;&gt;hidden_SecurityMaster</title>
<path fill="none" stroke="#fb923c" stroke-width="1.3" stroke-dasharray="5,2" d="M199.52,-1293.29C221.19,-1289.07 243.01,-1280.31 257,-1263 340.64,-1159.49 227.31,-160.52 322,-67 345.93,-43.36 381.12,-34 413.76,-31.06"/>
<polygon fill="#fb923c" stroke="#fb923c" stroke-width="1.3" points="414.22,-33.83 421.99,-30.45 413.81,-28.25 414.22,-33.83"/>
</g>
<!-- page_Dashboard -->
<g id="node5" class="node">
<title>page_Dashboard</title>
<path fill="#1e293b" stroke="#475569" d="M1007.5,-2603C1007.5,-2603 810.5,-2603 810.5,-2603 804.5,-2603 798.5,-2597 798.5,-2591 798.5,-2591 798.5,-2577 798.5,-2577 798.5,-2571 804.5,-2565 810.5,-2565 810.5,-2565 1007.5,-2565 1007.5,-2565 1013.5,-2565 1019.5,-2571 1019.5,-2577 1019.5,-2577 1019.5,-2591 1019.5,-2591 1019.5,-2597 1013.5,-2603 1007.5,-2603"/>
<text text-anchor="middle" x="909" y="-2587.8" font-family="Segoe UI" font-size="14.00" fill="#e2e8f0">Dashboard</text>
<text text-anchor="middle" x="909" y="-2572.8" font-family="Segoe UI" font-size="14.00" fill="#e2e8f0">Dashboard → DashboardPage</text>
</g>
<!-- workspace_1&#45;&gt;page_Dashboard -->
<g id="edge3" class="edge">
<title>workspace_1&#45;&gt;page_Dashboard</title>
<path fill="none" stroke="#94a3b8" stroke-width="1.3" d="M499.61,-3320.94C498.79,-3226.51 508.64,-2805.85 741,-2616 755.3,-2604.31 772.59,-2596.43 790.54,-2591.19"/>
<polygon fill="#94a3b8" stroke="#94a3b8" stroke-width="1.3" points="791.28,-2593.89 798.27,-2589.1 789.82,-2588.48 791.28,-2593.89"/>
</g>
<!-- page_LiveData -->
<g id="node6" class="node">
<title>page_LiveData</title>
<path fill="#1e293b" stroke="#475569" d="M1015.5,-2666C1015.5,-2666 802.5,-2666 802.5,-2666 796.5,-2666 790.5,-2660 790.5,-2654 790.5,-2654 790.5,-2640 790.5,-2640 790.5,-2634 796.5,-2628 802.5,-2628 802.5,-2628 1015.5,-2628 1015.5,-2628 1021.5,-2628 1027.5,-2634 1027.5,-2640 1027.5,-2640 1027.5,-2654 1027.5,-2654 1027.5,-2660 1021.5,-2666 1015.5,-2666"/>
<text text-anchor="middle" x="909" y="-2650.8" font-family="Segoe UI" font-size="14.00" fill="#e2e8f0">LiveData</text>
<text text-anchor="middle" x="909" y="-2635.8" font-family="Segoe UI" font-size="14.00" fill="#e2e8f0">LiveData → LiveDataViewerPage</text>
</g>
<!-- workspace_1&#45;&gt;page_LiveData -->
<g id="edge4" class="edge">
<title>workspace_1&#45;&gt;page_LiveData</title>
<path fill="none" stroke="#94a3b8" stroke-width="1.3" d="M500.38,-3320.92C503.29,-3231.72 528.17,-2852.88 741,-2679 753.17,-2669.06 767.49,-2661.87 782.55,-2656.71"/>
<polygon fill="#94a3b8" stroke="#94a3b8" stroke-width="1.3" points="783.71,-2659.29 790.49,-2654.2 782.02,-2653.95 783.71,-2659.29"/>
</g>
<!-- page_Charts -->
<g id="node7" class="node">
<title>page_Charts</title>
<path fill="#1e293b" stroke="#475569" d="M985,-2729C985,-2729 833,-2729 833,-2729 827,-2729 821,-2723 821,-2717 821,-2717 821,-2703 821,-2703 821,-2697 827,-2691 833,-2691 833,-2691 985,-2691 985,-2691 991,-2691 997,-2697 997,-2703 997,-2703 997,-2717 997,-2717 997,-2723 991,-2729 985,-2729"/>
<text text-anchor="middle" x="909" y="-2713.8" font-family="Segoe UI" font-size="14.00" fill="#e2e8f0">Charts</text>
<text text-anchor="middle" x="909" y="-2698.8" font-family="Segoe UI" font-size="14.00" fill="#e2e8f0">Charts → ChartingPage</text>
</g>
<!-- workspace_1&#45;&gt;page_Charts -->
<g id="edge5" class="edge">
<title>workspace_1&#45;&gt;page_Charts</title>
<path fill="none" stroke="#94a3b8" stroke-width="1.3" d="M501.31,-3320.89C508.13,-3237.14 547.17,-2899.72 741,-2742 761.23,-2725.54 787.39,-2716.63 812.98,-2712.02"/>
<polygon fill="#94a3b8" stroke="#94a3b8" stroke-width="1.3" points="813.45,-2714.78 820.89,-2710.72 812.55,-2709.25 813.45,-2714.78"/>
</g>
<!-- page_QuantScript -->
<g id="node8" class="node">
<title>page_QuantScript</title>
<path fill="#1e293b" stroke="#475569" d="M1015.5,-2792C1015.5,-2792 802.5,-2792 802.5,-2792 796.5,-2792 790.5,-2786 790.5,-2780 790.5,-2780 790.5,-2766 790.5,-2766 790.5,-2760 796.5,-2754 802.5,-2754 802.5,-2754 1015.5,-2754 1015.5,-2754 1021.5,-2754 1027.5,-2760 1027.5,-2766 1027.5,-2766 1027.5,-2780 1027.5,-2780 1027.5,-2786 1021.5,-2792 1015.5,-2792"/>
<text text-anchor="middle" x="909" y="-2776.8" font-family="Segoe UI" font-size="14.00" fill="#e2e8f0">QuantScript</text>
<text text-anchor="middle" x="909" y="-2761.8" font-family="Segoe UI" font-size="14.00" fill="#e2e8f0">QuantScript → QuantScriptPage</text>
</g>
<!-- workspace_1&#45;&gt;page_QuantScript -->
<g id="edge6" class="edge">
<title>workspace_1&#45;&gt;page_QuantScript</title>
<path fill="none" stroke="#94a3b8" stroke-width="1.3" d="M502.34,-3320.82C512.97,-3242.54 564.12,-2944.69 741,-2805 753.23,-2795.34 767.52,-2788.3 782.5,-2783.22"/>
<polygon fill="#94a3b8" stroke="#94a3b8" stroke-width="1.3" points="783.6,-2785.81 790.39,-2780.74 781.92,-2780.47 783.6,-2785.81"/>
</g>
<!-- page_RunMat -->
<g id="node9" class="node">
<title>page_RunMat</title>
<path fill="#1e293b" stroke="#475569" d="M985,-2855C985,-2855 833,-2855 833,-2855 827,-2855 821,-2849 821,-2843 821,-2843 821,-2829 821,-2829 821,-2823 827,-2817 833,-2817 833,-2817 985,-2817 985,-2817 991,-2817 997,-2823 997,-2829 997,-2829 997,-2843 997,-2843 997,-2849 991,-2855 985,-2855"/>
<text text-anchor="middle" x="909" y="-2839.8" font-family="Segoe UI" font-size="14.00" fill="#e2e8f0">RunMat</text>
<text text-anchor="middle" x="909" y="-2824.8" font-family="Segoe UI" font-size="14.00" fill="#e2e8f0">RunMat → RunMatPage</text>
</g>
<!-- workspace_1&#45;&gt;page_RunMat -->
<g id="edge7" class="edge">
<title>workspace_1&#45;&gt;page_RunMat</title>
<path fill="none" stroke="#94a3b8" stroke-width="1.3" d="M503.55,-3320.85C518.05,-3248.39 579.86,-2988.98 741,-2868 761.56,-2852.57 787.45,-2843.93 812.67,-2839.25"/>
<polygon fill="#94a3b8" stroke="#94a3b8" stroke-width="1.3" points="813.41,-2841.97 820.83,-2837.87 812.47,-2836.45 813.41,-2841.97"/>
</g>
<!-- page_StrategyRuns -->
<g id="node10" class="node">
<title>page_StrategyRuns</title>
<path fill="#1e293b" stroke="#475569" d="M1026,-2918C1026,-2918 792,-2918 792,-2918 786,-2918 780,-2912 780,-2906 780,-2906 780,-2892 780,-2892 780,-2886 786,-2880 792,-2880 792,-2880 1026,-2880 1026,-2880 1032,-2880 1038,-2886 1038,-2892 1038,-2892 1038,-2906 1038,-2906 1038,-2912 1032,-2918 1026,-2918"/>
<text text-anchor="middle" x="909" y="-2902.8" font-family="Segoe UI" font-size="14.00" fill="#e2e8f0">StrategyRuns</text>
<text text-anchor="middle" x="909" y="-2887.8" font-family="Segoe UI" font-size="14.00" fill="#e2e8f0">StrategyRuns → StrategyRunsPage</text>
</g>
<!-- workspace_1&#45;&gt;page_StrategyRuns -->
<g id="edge8" class="edge">
<title>workspace_1&#45;&gt;page_StrategyRuns</title>
<path fill="none" stroke="#94a3b8" stroke-width="1.3" d="M511.55,-3320.89C545.47,-3273.15 646.14,-3147.03 705,-3028 727.61,-2982.27 702.66,-2952.66 741,-2919 750.19,-2910.93 760.78,-2904.64 772.07,-2899.8"/>
<polygon fill="#94a3b8" stroke="#94a3b8" stroke-width="1.3" points="773.18,-2902.38 779.59,-2896.83 771.12,-2897.17 773.18,-2902.38"/>
</g>
<!-- workspace_1&#45;&gt;page_StrategyRuns -->
<g id="edge12" class="edge">
<title>workspace_1&#45;&gt;page_StrategyRuns</title>
<path fill="none" stroke="#94a3b8" stroke-width="1.3" d="M521.97,-3321C562.84,-3276.03 651.31,-3161.57 705,-3053 727.61,-3007.27 702.66,-2977.66 741,-2944 752.9,-2933.55 767.15,-2926.08 782.23,-2920.67"/>
<polygon fill="#94a3b8" stroke="#94a3b8" stroke-width="1.3" points="783.48,-2923.2 790.19,-2918.02 781.72,-2917.89 783.48,-2923.2"/>
</g>
<!-- page_OrderBook -->
<g id="node11" class="node">
<title>page_OrderBook</title>
<path fill="#1e293b" stroke="#475569" d="M1006.5,-2981C1006.5,-2981 811.5,-2981 811.5,-2981 805.5,-2981 799.5,-2975 799.5,-2969 799.5,-2969 799.5,-2955 799.5,-2955 799.5,-2949 805.5,-2943 811.5,-2943 811.5,-2943 1006.5,-2943 1006.5,-2943 1012.5,-2943 1018.5,-2949 1018.5,-2955 1018.5,-2955 1018.5,-2969 1018.5,-2969 1018.5,-2975 1012.5,-2981 1006.5,-2981"/>
<text text-anchor="middle" x="909" y="-2965.8" font-family="Segoe UI" font-size="14.00" fill="#e2e8f0">OrderBook</text>
<text text-anchor="middle" x="909" y="-2950.8" font-family="Segoe UI" font-size="14.00" fill="#e2e8f0">OrderBook → OrderBookPage</text>
</g>
<!-- workspace_1&#45;&gt;page_OrderBook -->
<g id="edge9" class="edge">
<title>workspace_1&#45;&gt;page_OrderBook</title>
<path fill="none" stroke="#94a3b8" stroke-width="1.3" d="M536.52,-3320.85C583.4,-3294.27 663.62,-3241.59 705,-3173 746.92,-3103.52 683.36,-3051.12 741,-2994 754.82,-2980.3 772.6,-2971.54 791.38,-2966.07"/>
<polygon fill="#94a3b8" stroke="#94a3b8" stroke-width="1.3" points="792.18,-2968.76 799.19,-2964 790.74,-2963.35 792.18,-2968.76"/>
</g>
<!-- page_Watchlist -->
<g id="node12" class="node">
<title>page_Watchlist</title>
<path fill="#1e293b" stroke="#475569" d="M995.5,-3044C995.5,-3044 822.5,-3044 822.5,-3044 816.5,-3044 810.5,-3038 810.5,-3032 810.5,-3032 810.5,-3018 810.5,-3018 810.5,-3012 816.5,-3006 822.5,-3006 822.5,-3006 995.5,-3006 995.5,-3006 1001.5,-3006 1007.5,-3012 1007.5,-3018 1007.5,-3018 1007.5,-3032 1007.5,-3032 1007.5,-3038 1001.5,-3044 995.5,-3044"/>
<text text-anchor="middle" x="909" y="-3028.8" font-family="Segoe UI" font-size="14.00" fill="#e2e8f0">Watchlist</text>
<text text-anchor="middle" x="909" y="-3013.8" font-family="Segoe UI" font-size="14.00" fill="#e2e8f0">Watchlist → WatchlistPage</text>
</g>
<!-- workspace_1&#45;&gt;page_Watchlist -->
<g id="edge10" class="edge">
<title>workspace_1&#45;&gt;page_Watchlist</title>
<path fill="none" stroke="#94a3b8" stroke-width="1.3" d="M561.02,-3326.95C607.61,-3313.75 669.63,-3288.57 705,-3243 756.63,-3176.48 681.41,-3116.48 741,-3057 757.45,-3040.58 779.57,-3031.24 802.32,-3026.17"/>
<polygon fill="#94a3b8" stroke="#94a3b8" stroke-width="1.3" points="803.1,-3028.87 810.39,-3024.55 801.99,-3023.38 803.1,-3028.87"/>
</g>
<!-- page_Backtest -->
<g id="node13" class="node">
<title>page_Backtest</title>
<path fill="#1e293b" stroke="#475569" d="M992.5,-3107C992.5,-3107 825.5,-3107 825.5,-3107 819.5,-3107 813.5,-3101 813.5,-3095 813.5,-3095 813.5,-3081 813.5,-3081 813.5,-3075 819.5,-3069 825.5,-3069 825.5,-3069 992.5,-3069 992.5,-3069 998.5,-3069 1004.5,-3075 1004.5,-3081 1004.5,-3081 1004.5,-3095 1004.5,-3095 1004.5,-3101 998.5,-3107 992.5,-3107"/>
<text text-anchor="middle" x="909" y="-3091.8" font-family="Segoe UI" font-size="14.00" fill="#e2e8f0">Backtest</text>
<text text-anchor="middle" x="909" y="-3076.8" font-family="Segoe UI" font-size="14.00" fill="#e2e8f0">Backtest → BacktestPage</text>
</g>
<!-- workspace_1&#45;&gt;page_Backtest -->
<g id="edge11" class="edge">
<title>workspace_1&#45;&gt;page_Backtest</title>
<path fill="none" stroke="#94a3b8" stroke-width="1.3" d="M561.44,-3338.39C607.31,-3333.83 668.19,-3320.1 705,-3281 755.26,-3227.62 688.36,-3171.05 741,-3120 758.33,-3103.2 781.62,-3093.86 805.3,-3088.94"/>
<polygon fill="#94a3b8" stroke="#94a3b8" stroke-width="1.3" points="805.99,-3091.66 813.34,-3087.44 804.96,-3086.16 805.99,-3091.66"/>
</g>
<!-- page_LeanIntegration -->
<g id="node14" class="node">
<title>page_LeanIntegration</title>
<path fill="#1e293b" stroke="#475569" d="M1042,-3170C1042,-3170 776,-3170 776,-3170 770,-3170 764,-3164 764,-3158 764,-3158 764,-3144 764,-3144 764,-3138 770,-3132 776,-3132 776,-3132 1042,-3132 1042,-3132 1048,-3132 1054,-3138 1054,-3144 1054,-3144 1054,-3158 1054,-3158 1054,-3164 1048,-3170 1042,-3170"/>
<text text-anchor="middle" x="909" y="-3154.8" font-family="Segoe UI" font-size="14.00" fill="#e2e8f0">LeanIntegration</text>
<text text-anchor="middle" x="909" y="-3139.8" font-family="Segoe UI" font-size="14.00" fill="#e2e8f0">LeanIntegration → LeanIntegrationPage</text>
</g>
<!-- workspace_1&#45;&gt;page_LeanIntegration -->
<g id="edge13" class="edge">
<title>workspace_1&#45;&gt;page_LeanIntegration</title>
<path fill="none" stroke="#94a3b8" stroke-width="1.3" d="M561.07,-3345.23C606.14,-3345.68 666.15,-3338.61 705,-3304 746.89,-3266.68 699.4,-3220.64 741,-3183 745.85,-3178.61 751.11,-3174.75 756.67,-3171.34"/>
<polygon fill="#94a3b8" stroke="#94a3b8" stroke-width="1.3" points="758.28,-3173.65 763.87,-3167.27 755.53,-3168.77 758.28,-3173.65"/>
</g>
<!-- page_PortfolioImport -->
<g id="node15" class="node">
<title>page_PortfolioImport</title>
<path fill="#1e293b" stroke="#475569" d="M1036,-3233C1036,-3233 782,-3233 782,-3233 776,-3233 770,-3227 770,-3221 770,-3221 770,-3207 770,-3207 770,-3201 776,-3195 782,-3195 782,-3195 1036,-3195 1036,-3195 1042,-3195 1048,-3201 1048,-3207 1048,-3207 1048,-3221 1048,-3221 1048,-3227 1042,-3233 1036,-3233"/>
<text text-anchor="middle" x="909" y="-3217.8" font-family="Segoe UI" font-size="14.00" fill="#e2e8f0">PortfolioImport</text>
<text text-anchor="middle" x="909" y="-3202.8" font-family="Segoe UI" font-size="14.00" fill="#e2e8f0">PortfolioImport → PortfolioImportPage</text>
</g>
<!-- workspace_1&#45;&gt;page_PortfolioImport -->
<g id="edge14" class="edge">
<title>workspace_1&#45;&gt;page_PortfolioImport</title>
<path fill="none" stroke="#94a3b8" stroke-width="1.3" d="M561.38,-3348.07C605.16,-3350.57 663.4,-3346.89 705,-3318 734.39,-3297.59 712.48,-3267.6 741,-3246 747.62,-3240.99 754.8,-3236.69 762.34,-3233.01"/>
<polygon fill="#94a3b8" stroke="#94a3b8" stroke-width="1.3" points="763.86,-3235.39 769.99,-3229.53 761.54,-3230.29 763.86,-3235.39"/>
</g>
<!-- page_TradingHours -->
<g id="node16" class="node">
<title>page_TradingHours</title>
<path fill="#1e293b" stroke="#475569" d="M1025.5,-3296C1025.5,-3296 792.5,-3296 792.5,-3296 786.5,-3296 780.5,-3290 780.5,-3284 780.5,-3284 780.5,-3270 780.5,-3270 780.5,-3264 786.5,-3258 792.5,-3258 792.5,-3258 1025.5,-3258 1025.5,-3258 1031.5,-3258 1037.5,-3264 1037.5,-3270 1037.5,-3270 1037.5,-3284 1037.5,-3284 1037.5,-3290 1031.5,-3296 1025.5,-3296"/>
<text text-anchor="middle" x="909" y="-3280.8" font-family="Segoe UI" font-size="14.00" fill="#e2e8f0">TradingHours</text>
<text text-anchor="middle" x="909" y="-3265.8" font-family="Segoe UI" font-size="14.00" fill="#e2e8f0">TradingHours → TradingHoursPage</text>
</g>
<!-- workspace_1&#45;&gt;page_TradingHours -->
<g id="edge15" class="edge">
<title>workspace_1&#45;&gt;page_TradingHours</title>
<path fill="none" stroke="#94a3b8" stroke-width="1.3" d="M561.13,-3342.43C602.44,-3342.55 657.83,-3339.72 705,-3327 722.27,-3322.34 724.06,-3314.74 741,-3309 753.16,-3304.88 766,-3301.24 778.95,-3298.03"/>
<polygon fill="#94a3b8" stroke="#94a3b8" stroke-width="1.3" points="779.9,-3300.69 787.02,-3296.09 778.58,-3295.24 779.9,-3300.69"/>
</g>
<!-- page_PositionBlotter -->
<g id="node17" class="node">
<title>page_PositionBlotter</title>
<path fill="#1e293b" stroke="#475569" d="M1033,-3359C1033,-3359 785,-3359 785,-3359 779,-3359 773,-3353 773,-3347 773,-3347 773,-3333 773,-3333 773,-3327 779,-3321 785,-3321 785,-3321 1033,-3321 1033,-3321 1039,-3321 1045,-3327 1045,-3333 1045,-3333 1045,-3347 1045,-3347 1045,-3353 1039,-3359 1033,-3359"/>
<text text-anchor="middle" x="909" y="-3343.8" font-family="Segoe UI" font-size="14.00" fill="#e2e8f0">PositionBlotter</text>
<text text-anchor="middle" x="909" y="-3328.8" font-family="Segoe UI" font-size="14.00" fill="#e2e8f0">PositionBlotter → PositionBlotterPage</text>
</g>
<!-- workspace_1&#45;&gt;page_PositionBlotter -->
<g id="edge16" class="edge">
<title>workspace_1&#45;&gt;page_PositionBlotter</title>
<path fill="none" stroke="#94a3b8" stroke-width="1.3" d="M561.08,-3340C614.81,-3340 695.11,-3340 764.93,-3340"/>
<polygon fill="#94a3b8" stroke="#94a3b8" stroke-width="1.3" points="764.96,-3342.8 772.96,-3340 764.96,-3337.2 764.96,-3342.8"/>
</g>
<!-- page_DirectLending -->
<g id="node18" class="node">
<title>page_DirectLending</title>
<path fill="#1e293b" stroke="#475569" d="M1028.5,-3422C1028.5,-3422 789.5,-3422 789.5,-3422 783.5,-3422 777.5,-3416 777.5,-3410 777.5,-3410 777.5,-3396 777.5,-3396 777.5,-3390 783.5,-3384 789.5,-3384 789.5,-3384 1028.5,-3384 1028.5,-3384 1034.5,-3384 1040.5,-3390 1040.5,-3396 1040.5,-3396 1040.5,-3410 1040.5,-3410 1040.5,-3416 1034.5,-3422 1028.5,-3422"/>
<text text-anchor="middle" x="909" y="-3406.8" font-family="Segoe UI" font-size="14.00" fill="#e2e8f0">DirectLending</text>
<text text-anchor="middle" x="909" y="-3391.8" font-family="Segoe UI" font-size="14.00" fill="#e2e8f0">DirectLending → DirectLendingPage</text>
</g>
<!-- workspace_1&#45;&gt;page_DirectLending -->
<g id="edge17" class="edge">
<title>workspace_1&#45;&gt;page_DirectLending</title>
<path fill="none" stroke="#94a3b8" stroke-width="1.3" d="M561.08,-3349.43C617.81,-3358.19 704.16,-3371.52 776.51,-3382.7"/>
<polygon fill="#94a3b8" stroke="#94a3b8" stroke-width="1.3" points="776.48,-3385.53 784.81,-3383.98 777.34,-3379.99 776.48,-3385.53"/>
</g>
<!-- page_Provider -->
<g id="node19" class="node">
<title>page_Provider</title>
<path fill="#1e293b" stroke="#475569" d="M989.5,-3485C989.5,-3485 828.5,-3485 828.5,-3485 822.5,-3485 816.5,-3479 816.5,-3473 816.5,-3473 816.5,-3459 816.5,-3459 816.5,-3453 822.5,-3447 828.5,-3447 828.5,-3447 989.5,-3447 989.5,-3447 995.5,-3447 1001.5,-3453 1001.5,-3459 1001.5,-3459 1001.5,-3473 1001.5,-3473 1001.5,-3479 995.5,-3485 989.5,-3485"/>
<text text-anchor="middle" x="909" y="-3469.8" font-family="Segoe UI" font-size="14.00" fill="#e2e8f0">Provider</text>
<text text-anchor="middle" x="909" y="-3454.8" font-family="Segoe UI" font-size="14.00" fill="#e2e8f0">Provider → ProviderPage</text>
</g>
<!-- workspace_1&#45;&gt;page_Provider -->
<g id="edge18" class="edge">
<title>workspace_1&#45;&gt;page_Provider</title>
<path fill="none" stroke="#94a3b8" stroke-width="1.3" d="M541.38,-3359.14C588.73,-3380.37 669.03,-3414.34 741,-3435 762.46,-3441.16 785.83,-3446.39 808.1,-3450.69"/>
<polygon fill="#94a3b8" stroke="#94a3b8" stroke-width="1.3" points="807.87,-3453.5 816.26,-3452.24 808.92,-3448 807.87,-3453.5"/>
</g>
<!-- page_Symbols -->
<g id="node20" class="node">
<title>page_Symbols</title>
<path fill="#1e293b" stroke="#475569" d="M991.5,-3548C991.5,-3548 826.5,-3548 826.5,-3548 820.5,-3548 814.5,-3542 814.5,-3536 814.5,-3536 814.5,-3522 814.5,-3522 814.5,-3516 820.5,-3510 826.5,-3510 826.5,-3510 991.5,-3510 991.5,-3510 997.5,-3510 1003.5,-3516 1003.5,-3522 1003.5,-3522 1003.5,-3536 1003.5,-3536 1003.5,-3542 997.5,-3548 991.5,-3548"/>
<text text-anchor="middle" x="909" y="-3532.8" font-family="Segoe UI" font-size="14.00" fill="#e2e8f0">Symbols</text>
<text text-anchor="middle" x="909" y="-3517.8" font-family="Segoe UI" font-size="14.00" fill="#e2e8f0">Symbols → SymbolsPage</text>
</g>
<!-- workspace_1&#45;&gt;page_Symbols -->
<g id="edge19" class="edge">
<title>workspace_1&#45;&gt;page_Symbols</title>
<path fill="none" stroke="#94a3b8" stroke-width="1.3" d="M522.21,-3359.03C562.76,-3392.7 652.79,-3462.57 741,-3498 761.47,-3506.22 784.24,-3512.29 806.21,-3516.75"/>
<polygon fill="#94a3b8" stroke="#94a3b8" stroke-width="1.3" points="805.88,-3519.54 814.27,-3518.32 806.95,-3514.04 805.88,-3519.54"/>
</g>
<!-- page_Backfill -->
<g id="node21" class="node">
<title>page_Backfill</title>
<path fill="#1e293b" stroke="#475569" d="M982.5,-3611C982.5,-3611 835.5,-3611 835.5,-3611 829.5,-3611 823.5,-3605 823.5,-3599 823.5,-3599 823.5,-3585 823.5,-3585 823.5,-3579 829.5,-3573 835.5,-3573 835.5,-3573 982.5,-3573 982.5,-3573 988.5,-3573 994.5,-3579 994.5,-3585 994.5,-3585 994.5,-3599 994.5,-3599 994.5,-3605 988.5,-3611 982.5,-3611"/>
<text text-anchor="middle" x="909" y="-3595.8" font-family="Segoe UI" font-size="14.00" fill="#e2e8f0">Backfill</text>
<text text-anchor="middle" x="909" y="-3580.8" font-family="Segoe UI" font-size="14.00" fill="#e2e8f0">Backfill → BackfillPage</text>
</g>
<!-- workspace_1&#45;&gt;page_Backfill -->
<g id="edge20" class="edge">
<title>workspace_1&#45;&gt;page_Backfill</title>
<path fill="none" stroke="#94a3b8" stroke-width="1.3" d="M514.45,-3359.16C548.56,-3402.87 638.9,-3510.05 741,-3561 763.74,-3572.35 790.09,-3579.57 815.05,-3584.15"/>
<polygon fill="#94a3b8" stroke="#94a3b8" stroke-width="1.3" points="814.73,-3586.94 823.1,-3585.55 815.69,-3581.42 814.73,-3586.94"/>
</g>
<!-- page_Storage -->
<g id="node22" class="node">
<title>page_Storage</title>
<path fill="#1e293b" stroke="#475569" d="M986.5,-3674C986.5,-3674 831.5,-3674 831.5,-3674 825.5,-3674 819.5,-3668 819.5,-3662 819.5,-3662 819.5,-3648 819.5,-3648 819.5,-3642 825.5,-3636 831.5,-3636 831.5,-3636 986.5,-3636 986.5,-3636 992.5,-3636 998.5,-3642 998.5,-3648 998.5,-3648 998.5,-3662 998.5,-3662 998.5,-3668 992.5,-3674 986.5,-3674"/>
<text text-anchor="middle" x="909" y="-3658.8" font-family="Segoe UI" font-size="14.00" fill="#e2e8f0">Storage</text>
<text text-anchor="middle" x="909" y="-3643.8" font-family="Segoe UI" font-size="14.00" fill="#e2e8f0">Storage → StoragePage</text>
</g>
<!-- workspace_1&#45;&gt;page_Storage -->
<g id="edge21" class="edge">
<title>workspace_1&#45;&gt;page_Storage</title>
<path fill="none" stroke="#94a3b8" stroke-width="1.3" d="M509.97,-3359.09C538.26,-3411.22 624.63,-3556.55 741,-3624 762.09,-3636.22 786.97,-3643.79 810.99,-3648.42"/>
<polygon fill="#94a3b8" stroke="#94a3b8" stroke-width="1.3" points="810.73,-3651.22 819.1,-3649.88 811.72,-3645.71 810.73,-3651.22"/>
</g>
<!-- page_DataExport -->
<g id="node23" class="node">
<title>page_DataExport</title>
<path fill="#1e293b" stroke="#475569" d="M1010.5,-3737C1010.5,-3737 807.5,-3737 807.5,-3737 801.5,-3737 795.5,-3731 795.5,-3725 795.5,-3725 795.5,-3711 795.5,-3711 795.5,-3705 801.5,-3699 807.5,-3699 807.5,-3699 1010.5,-3699 1010.5,-3699 1016.5,-3699 1022.5,-3705 1022.5,-3711 1022.5,-3711 1022.5,-3725 1022.5,-3725 1022.5,-3731 1016.5,-3737 1010.5,-3737"/>
<text text-anchor="middle" x="909" y="-3721.8" font-family="Segoe UI" font-size="14.00" fill="#e2e8f0">DataExport</text>
<text text-anchor="middle" x="909" y="-3706.8" font-family="Segoe UI" font-size="14.00" fill="#e2e8f0">DataExport → DataExportPage</text>
</g>
<!-- workspace_1&#45;&gt;page_DataExport -->
<g id="edge22" class="edge">
<title>workspace_1&#45;&gt;page_DataExport</title>
<path fill="none" stroke="#94a3b8" stroke-width="1.3" d="M507.17,-3359.33C530.45,-3419.16 610.09,-3602.41 741,-3687 754.94,-3696.01 770.83,-3702.55 787.13,-3707.28"/>
<polygon fill="#94a3b8" stroke="#94a3b8" stroke-width="1.3" points="786.7,-3710.07 795.15,-3709.46 788.17,-3704.67 786.7,-3710.07"/>
</g>
<!-- page_PackageManager -->
<g id="node24" class="node">
<title>page_PackageManager</title>
<path fill="#1e293b" stroke="#475569" d="M1049.5,-3800C1049.5,-3800 768.5,-3800 768.5,-3800 762.5,-3800 756.5,-3794 756.5,-3788 756.5,-3788 756.5,-3774 756.5,-3774 756.5,-3768 762.5,-3762 768.5,-3762 768.5,-3762 1049.5,-3762 1049.5,-3762 1055.5,-3762 1061.5,-3768 1061.5,-3774 1061.5,-3774 1061.5,-3788 1061.5,-3788 1061.5,-3794 1055.5,-3800 1049.5,-3800"/>
<text text-anchor="middle" x="909" y="-3784.8" font-family="Segoe UI" font-size="14.00" fill="#e2e8f0">PackageManager</text>
<text text-anchor="middle" x="909" y="-3769.8" font-family="Segoe UI" font-size="14.00" fill="#e2e8f0">PackageManager → PackageManagerPage</text>
</g>
<!-- workspace_1&#45;&gt;page_PackageManager -->
<g id="edge23" class="edge">
<title>workspace_1&#45;&gt;page_PackageManager</title>
<path fill="none" stroke="#94a3b8" stroke-width="1.3" d="M505.12,-3359.4C523.79,-3426.12 594.97,-3647.62 741,-3750 745.28,-3753 749.76,-3755.73 754.41,-3758.22"/>
<polygon fill="#94a3b8" stroke="#94a3b8" stroke-width="1.3" points="753.42,-3760.86 761.83,-3761.93 755.93,-3755.85 753.42,-3760.86"/>
</g>
<!-- page_DataQuality -->
<g id="node25" class="node">
<title>page_DataQuality</title>
<path fill="#1e293b" stroke="#475569" d="M1014,-3863C1014,-3863 804,-3863 804,-3863 798,-3863 792,-3857 792,-3851 792,-3851 792,-3837 792,-3837 792,-3831 798,-3825 804,-3825 804,-3825 1014,-3825 1014,-3825 1020,-3825 1026,-3831 1026,-3837 1026,-3837 1026,-3851 1026,-3851 1026,-3857 1020,-3863 1014,-3863"/>
<text text-anchor="middle" x="909" y="-3847.8" font-family="Segoe UI" font-size="14.00" fill="#e2e8f0">DataQuality</text>
<text text-anchor="middle" x="909" y="-3832.8" font-family="Segoe UI" font-size="14.00" fill="#e2e8f0">DataQuality → DataQualityPage</text>
</g>
<!-- workspace_1&#45;&gt;page_DataQuality -->
<g id="edge24" class="edge">
<title>workspace_1&#45;&gt;page_DataQuality</title>
<path fill="none" stroke="#94a3b8" stroke-width="1.3" d="M503.51,-3359.22C517.89,-3431.93 579.3,-3692.21 741,-3813 753.67,-3822.47 768.37,-3829.33 783.69,-3834.26"/>
<polygon fill="#94a3b8" stroke="#94a3b8" stroke-width="1.3" points="783.28,-3837.06 791.74,-3836.67 784.88,-3831.69 783.28,-3837.06"/>
</g>
<!-- page_ProviderHealth -->
<g id="node26" class="node">
<title>page_ProviderHealth</title>
<path fill="#1e293b" stroke="#475569" d="M1034.5,-3926C1034.5,-3926 783.5,-3926 783.5,-3926 777.5,-3926 771.5,-3920 771.5,-3914 771.5,-3914 771.5,-3900 771.5,-3900 771.5,-3894 777.5,-3888 783.5,-3888 783.5,-3888 1034.5,-3888 1034.5,-3888 1040.5,-3888 1046.5,-3894 1046.5,-3900 1046.5,-3900 1046.5,-3914 1046.5,-3914 1046.5,-3920 1040.5,-3926 1034.5,-3926"/>
<text text-anchor="middle" x="909" y="-3910.8" font-family="Segoe UI" font-size="14.00" fill="#e2e8f0">ProviderHealth</text>
<text text-anchor="middle" x="909" y="-3895.8" font-family="Segoe UI" font-size="14.00" fill="#e2e8f0">ProviderHealth → ProviderHealthPage</text>
</g>
<!-- workspace_1&#45;&gt;page_ProviderHealth -->
<g id="edge25" class="edge">
<title>workspace_1&#45;&gt;page_ProviderHealth</title>
<path fill="none" stroke="#94a3b8" stroke-width="1.3" d="M502.3,-3359.24C512.8,-3437.78 563.49,-3736.55 741,-3876 748.01,-3881.51 755.7,-3886.15 763.8,-3890.05"/>
<polygon fill="#94a3b8" stroke="#94a3b8" stroke-width="1.3" points="762.91,-3892.72 771.35,-3893.43 765.19,-3887.6 762.91,-3892.72"/>
</g>
<!-- page_SystemHealth -->
<g id="node27" class="node">
<title>page_SystemHealth</title>
<path fill="#1e293b" stroke="#475569" d="M1029,-3989C1029,-3989 789,-3989 789,-3989 783,-3989 777,-3983 777,-3977 777,-3977 777,-3963 777,-3963 777,-3957 783,-3951 789,-3951 789,-3951 1029,-3951 1029,-3951 1035,-3951 1041,-3957 1041,-3963 1041,-3963 1041,-3977 1041,-3977 1041,-3983 1035,-3989 1029,-3989"/>
<text text-anchor="middle" x="909" y="-3973.8" font-family="Segoe UI" font-size="14.00" fill="#e2e8f0">SystemHealth</text>
<text text-anchor="middle" x="909" y="-3958.8" font-family="Segoe UI" font-size="14.00" fill="#e2e8f0">SystemHealth → SystemHealthPage</text>
</g>
<!-- workspace_1&#45;&gt;page_SystemHealth -->
<g id="edge26" class="edge">
<title>workspace_1&#45;&gt;page_SystemHealth</title>
<path fill="none" stroke="#94a3b8" stroke-width="1.3" d="M501.27,-3359.17C507.94,-3443.19 546.44,-3781.61 741,-3939 749.58,-3945.94 759.22,-3951.51 769.42,-3955.97"/>
<polygon fill="#94a3b8" stroke="#94a3b8" stroke-width="1.3" points="768.48,-3958.61 776.95,-3959.02 770.59,-3953.42 768.48,-3958.61"/>
</g>
<!-- page_Diagnostics -->
<g id="node28" class="node">
<title>page_Diagnostics</title>
<path fill="#1e293b" stroke="#475569" d="M1012.5,-4052C1012.5,-4052 805.5,-4052 805.5,-4052 799.5,-4052 793.5,-4046 793.5,-4040 793.5,-4040 793.5,-4026 793.5,-4026 793.5,-4020 799.5,-4014 805.5,-4014 805.5,-4014 1012.5,-4014 1012.5,-4014 1018.5,-4014 1024.5,-4020 1024.5,-4026 1024.5,-4026 1024.5,-4040 1024.5,-4040 1024.5,-4046 1018.5,-4052 1012.5,-4052"/>
<text text-anchor="middle" x="909" y="-4036.8" font-family="Segoe UI" font-size="14.00" fill="#e2e8f0">Diagnostics</text>
<text text-anchor="middle" x="909" y="-4021.8" font-family="Segoe UI" font-size="14.00" fill="#e2e8f0">Diagnostics → DiagnosticsPage</text>
</g>
<!-- workspace_1&#45;&gt;page_Diagnostics -->
<g id="edge27" class="edge">
<title>workspace_1&#45;&gt;page_Diagnostics</title>
<path fill="none" stroke="#94a3b8" stroke-width="1.3" d="M500.35,-3359.14C503.1,-3448.6 527.39,-3828.5 741,-4002 753.88,-4012.46 769.18,-4019.83 785.19,-4024.94"/>
<polygon fill="#94a3b8" stroke="#94a3b8" stroke-width="1.3" points="784.64,-4027.7 793.11,-4027.28 786.23,-4022.33 784.64,-4027.7"/>
</g>
<!-- page_DashboardWeb -->
<g id="node29" class="node">
<title>page_DashboardWeb</title>
<path fill="#1e293b" stroke="#475569" d="M1037.5,-4115C1037.5,-4115 780.5,-4115 780.5,-4115 774.5,-4115 768.5,-4109 768.5,-4103 768.5,-4103 768.5,-4089 768.5,-4089 768.5,-4083 774.5,-4077 780.5,-4077 780.5,-4077 1037.5,-4077 1037.5,-4077 1043.5,-4077 1049.5,-4083 1049.5,-4089 1049.5,-4089 1049.5,-4103 1049.5,-4103 1049.5,-4109 1043.5,-4115 1037.5,-4115"/>
<text text-anchor="middle" x="909" y="-4099.8" font-family="Segoe UI" font-size="14.00" fill="#e2e8f0">DashboardWeb</text>
<text text-anchor="middle" x="909" y="-4084.8" font-family="Segoe UI" font-size="14.00" fill="#e2e8f0">DashboardWeb → DashboardWebPage</text>
</g>
<!-- workspace_1&#45;&gt;page_DashboardWeb -->
<g id="edge28" class="edge">
<title>workspace_1&#45;&gt;page_DashboardWeb</title>
<path fill="none" stroke="#94a3b8" stroke-width="1.3" d="M499.57,-3359.12C498.6,-3453.81 507.8,-3875.59 741,-4065 747.18,-4070.02 753.91,-4074.33 761.02,-4078.01"/>
<polygon fill="#94a3b8" stroke="#94a3b8" stroke-width="1.3" points="759.81,-4080.54 768.24,-4081.5 762.25,-4075.5 759.81,-4080.54"/>
</g>
<!-- page_Settings -->
<g id="node30" class="node">
<title>page_Settings</title>
<path fill="#1e293b" stroke="#475569" d="M989.5,-4178C989.5,-4178 828.5,-4178 828.5,-4178 822.5,-4178 816.5,-4172 816.5,-4166 816.5,-4166 816.5,-4152 816.5,-4152 816.5,-4146 822.5,-4140 828.5,-4140 828.5,-4140 989.5,-4140 989.5,-4140 995.5,-4140 1001.5,-4146 1001.5,-4152 1001.5,-4152 1001.5,-4166 1001.5,-4166 1001.5,-4172 995.5,-4178 989.5,-4178"/>
<text text-anchor="middle" x="909" y="-4162.8" font-family="Segoe UI" font-size="14.00" fill="#e2e8f0">Settings</text>
<text text-anchor="middle" x="909" y="-4147.8" font-family="Segoe UI" font-size="14.00" fill="#e2e8f0">Settings → SettingsPage</text>
</g>
<!-- workspace_1&#45;&gt;page_Settings -->
<g id="edge29" class="edge">
<title>workspace_1&#45;&gt;page_Settings</title>
<path fill="none" stroke="#94a3b8" stroke-width="1.3" d="M502.94,-3359.16C520.33,-3469.66 613.16,-4024.16 741,-4128 759.92,-4143.37 784.03,-4152.04 808.01,-4156.75"/>
<polygon fill="#94a3b8" stroke="#94a3b8" stroke-width="1.3" points="807.76,-4159.54 816.13,-4158.19 808.74,-4154.03 807.76,-4159.54"/>
</g>
<!-- page_AdminMaintenance -->
<g id="node31" class="node">
<title>page_AdminMaintenance</title>
<path fill="#1e293b" stroke="#475569" d="M1065,-4241C1065,-4241 753,-4241 753,-4241 747,-4241 741,-4235 741,-4229 741,-4229 741,-4215 741,-4215 741,-4209 747,-4203 753,-4203 753,-4203 1065,-4203 1065,-4203 1071,-4203 1077,-4209 1077,-4215 1077,-4215 1077,-4229 1077,-4229 1077,-4235 1071,-4241 1065,-4241"/>
<text text-anchor="middle" x="909" y="-4225.8" font-family="Segoe UI" font-size="14.00" fill="#e2e8f0">AdminMaintenance</text>
<text text-anchor="middle" x="909" y="-4210.8" font-family="Segoe UI" font-size="14.00" fill="#e2e8f0">AdminMaintenance → AdminMaintenancePage</text>
</g>
<!-- workspace_1&#45;&gt;page_AdminMaintenance -->
<g id="edge30" class="edge">
<title>workspace_1&#45;&gt;page_AdminMaintenance</title>
<path fill="none" stroke="#94a3b8" stroke-width="1.3" d="M502.51,-3359.12C518.05,-3474.52 605.02,-4076.85 741,-4191 744.3,-4193.77 747.77,-4196.33 751.38,-4198.69"/>
<polygon fill="#94a3b8" stroke="#94a3b8" stroke-width="1.3" points="750.19,-4201.24 758.48,-4202.98 753.08,-4196.44 750.19,-4201.24"/>
</g>
</g>
</svg>
