<?xml version="1.0" encoding="UTF-8" standalone="no"?>
<!DOCTYPE svg PUBLIC "-//W3C//DTD SVG 1.1//EN"
 "http://www.w3.org/Graphics/SVG/1.1/DTD/svg11.dtd">
<!-- Generated by graphviz version 2.43.0 (0)
 -->
<!-- Title: UiNavigationMap Pages: 1 -->
<svg width="1243pt" height="5027pt"
 viewBox="0.00 0.00 1242.60 5026.60" xmlns="http://www.w3.org/2000/svg" xmlns:xlink="http://www.w3.org/1999/xlink">
<g id="graph0" class="graph" transform="scale(1 1) rotate(0) translate(28.8 4997.8)">
<title>UiNavigationMap</title>
<polygon fill="#0f172a" stroke="transparent" points="-28.8,28.8 -28.8,-4997.8 1213.8,-4997.8 1213.8,28.8 -28.8,28.8"/>
<text text-anchor="middle" x="592.5" y="-4949" font-family="Segoe UI" font-size="20.00">Meridian WPF UI navigation map</text>
<text text-anchor="middle" x="592.5" y="-4927" font-family="Segoe UI" font-size="20.00">(auto&#45;generated from MainPage.xaml + NavigationService.cs)</text>
<g id="clust1" class="cluster">
<title>cluster_workspace_1</title>
<path fill="#0f172a" stroke="#334155" d="M437.5,-3061C437.5,-3061 1165,-3061 1165,-3061 1171,-3061 1177,-3067 1177,-3073 1177,-3073 1177,-4897 1177,-4897 1177,-4903 1171,-4909 1165,-4909 1165,-4909 437.5,-4909 437.5,-4909 431.5,-4909 425.5,-4903 425.5,-4897 425.5,-4897 425.5,-3073 425.5,-3073 425.5,-3067 431.5,-3061 437.5,-3061"/>
<text text-anchor="middle" x="801.25" y="-4889" font-family="Segoe UI" font-size="20.00">Shell workspace</text>
</g>
<g id="clust2" class="cluster">
<title>cluster_hidden_pages</title>
<path fill="#0f172a" stroke="#7c2d12" stroke-dasharray="5,2" d="M331,-8C331,-8 661,-8 661,-8 667,-8 673,-14 673,-20 673,-20 673,-3041 673,-3041 673,-3047 667,-3053 661,-3053 661,-3053 331,-3053 331,-3053 325,-3053 319,-3047 319,-3041 319,-3041 319,-20 319,-20 319,-14 325,-8 331,-8"/>
<text text-anchor="middle" x="496" y="-3033" font-family="Segoe UI" font-size="20.00">Registered but not in sidebar shell</text>
</g>
<!-- generated -->
<g id="node1" class="node">
<title>generated</title>
<polygon fill="#1d4ed8" stroke="#60a5fa" points="248,-1502.5 0,-1502.5 0,-1449.5 254,-1449.5 254,-1496.5 248,-1502.5"/>
<polyline fill="none" stroke="#60a5fa" points="248,-1502.5 248,-1496.5 "/>
<polyline fill="none" stroke="#60a5fa" points="254,-1496.5 248,-1496.5 "/>
<text text-anchor="middle" x="127" y="-1487.3" font-family="Segoe UI" font-size="14.00" fill="#e2e8f0">Source fingerprint: adba27d592f6</text>
<text text-anchor="middle" x="127" y="-1472.3" font-family="Segoe UI" font-size="14.00" fill="#e2e8f0">Shell entries: 31</text>
<text text-anchor="middle" x="127" y="-1457.3" font-family="Segoe UI" font-size="14.00" fill="#e2e8f0">Registered pages: 77</text>
</g>
<!-- shell -->
<g id="node2" class="node">
<title>shell</title>
<polygon fill="#0f766e" stroke="#2dd4bf" points="191.5,-2562 62.5,-2562 62.5,-2558 58.5,-2558 58.5,-2554 62.5,-2554 62.5,-2532 58.5,-2532 58.5,-2528 62.5,-2528 62.5,-2524 191.5,-2524 191.5,-2562"/>
<polyline fill="none" stroke="#2dd4bf" points="62.5,-2558 66.5,-2558 66.5,-2554 62.5,-2554 "/>
<polyline fill="none" stroke="#2dd4bf" points="62.5,-2532 66.5,-2532 66.5,-2528 62.5,-2528 "/>
<text text-anchor="middle" x="127" y="-2546.8" font-family="Segoe UI" font-size="14.00" fill="#e2e8f0">MainPage.xaml</text>
<text text-anchor="middle" x="127" y="-2531.8" font-family="Segoe UI" font-size="14.00" fill="#e2e8f0">Workspace shell</text>
</g>
<!-- navigation -->
<g id="node3" class="node">
<title>navigation</title>
<polygon fill="#7c3aed" stroke="#c4b5fd" points="198,-1566 56,-1566 56,-1562 52,-1562 52,-1558 56,-1558 56,-1536 52,-1536 52,-1532 56,-1532 56,-1528 198,-1528 198,-1566"/>
<polyline fill="none" stroke="#c4b5fd" points="56,-1562 60,-1562 60,-1558 56,-1558 "/>
<polyline fill="none" stroke="#c4b5fd" points="56,-1536 60,-1536 60,-1532 56,-1532 "/>
<text text-anchor="middle" x="127" y="-1550.8" font-family="Segoe UI" font-size="14.00" fill="#e2e8f0">NavigationService</text>
<text text-anchor="middle" x="127" y="-1535.8" font-family="Segoe UI" font-size="14.00" fill="#e2e8f0">RegisterAllPages()</text>
</g>
<!-- shell&#45;&gt;navigation -->
<g id="edge1" class="edge">
<title>shell&#45;&gt;navigation</title>
<path fill="none" stroke="#38bdf8" stroke-width="1.3" d="M127,-2523.79C127,-2400.44 127,-1720.07 127,-1574.44"/>
<polygon fill="#38bdf8" stroke="#38bdf8" stroke-width="1.3" points="129.8,-1574.01 127,-1566.01 124.2,-1574.01 129.8,-1574.01"/>
<text text-anchor="middle" x="116.5" y="-2041.3" font-family="Segoe UI" font-size="14.00">navigate via tags</text>
</g>
<!-- workspace_1 -->
<g id="node4" class="node">
<title>workspace_1</title>
<polygon fill="#1d4ed8" stroke="#93c5fd" points="557.5,-3926 554.5,-3930 533.5,-3930 530.5,-3926 433.5,-3926 433.5,-3888 557.5,-3888 557.5,-3926"/>
<text text-anchor="middle" x="495.5" y="-3910.8" font-family="Segoe UI" font-size="14.00" fill="#e2e8f0">Shell</text>
<text text-anchor="middle" x="495.5" y="-3895.8" font-family="Segoe UI" font-size="14.00" fill="#e2e8f0">31 shell entries</text>
</g>
<!-- shell&#45;&gt;workspace_1 -->
<g id="edge2" class="edge">
<title>shell&#45;&gt;workspace_1</title>
<path fill="none" stroke="#22d3ee" stroke-width="1.3" d="M133.11,-2562.02C173.42,-2712.06 439.84,-3703.57 487.28,-3880.13"/>
<polygon fill="#22d3ee" stroke="#22d3ee" stroke-width="1.3" points="484.59,-3880.91 489.37,-3887.91 490,-3879.46 484.59,-3880.91"/>
</g>
<!-- hidden_Dashboard -->
<g id="node34" class="node">
<title>hidden_Dashboard</title>
<path fill="#431407" stroke="#fb923c" d="M546,-3015C546,-3015 445,-3015 445,-3015 439,-3015 433,-3009 433,-3003 433,-3003 433,-2989 433,-2989 433,-2983 439,-2977 445,-2977 445,-2977 546,-2977 546,-2977 552,-2977 558,-2983 558,-2989 558,-2989 558,-3003 558,-3003 558,-3009 552,-3015 546,-3015"/>
<text text-anchor="middle" x="495.5" y="-2999.8" font-family="Segoe UI" font-size="14.00" fill="#e2e8f0">Dashboard</text>
<text text-anchor="middle" x="495.5" y="-2984.8" font-family="Segoe UI" font-size="14.00" fill="#e2e8f0">DashboardPage</text>
</g>
<!-- navigation&#45;&gt;hidden_Dashboard -->
<g id="edge34" class="edge">
<title>navigation&#45;&gt;hidden_Dashboard</title>
<path fill="none" stroke="#fb923c" stroke-width="1.3" stroke-dasharray="5,2" d="M130.5,-1566.14C152.51,-1734.61 312.59,-2958.33 319,-2965 345.8,-2992.9 388.29,-3000.94 424.75,-3001.87"/>
<polygon fill="#fb923c" stroke="#fb923c" stroke-width="1.3" points="424.88,-3004.67 432.91,-3001.96 424.94,-2999.07 424.88,-3004.67"/>
</g>
<!-- hidden_DataSources -->
<g id="node35" class="node">
<title>hidden_DataSources</title>
<path fill="#431407" stroke="#fb923c" d="M552,-2952C552,-2952 439,-2952 439,-2952 433,-2952 427,-2946 427,-2940 427,-2940 427,-2926 427,-2926 427,-2920 433,-2914 439,-2914 439,-2914 552,-2914 552,-2914 558,-2914 564,-2920 564,-2926 564,-2926 564,-2940 564,-2940 564,-2946 558,-2952 552,-2952"/>
<text text-anchor="middle" x="495.5" y="-2936.8" font-family="Segoe UI" font-size="14.00" fill="#e2e8f0">DataSources</text>
<text text-anchor="middle" x="495.5" y="-2921.8" font-family="Segoe UI" font-size="14.00" fill="#e2e8f0">DataSourcesPage</text>
</g>
<!-- navigation&#45;&gt;hidden_DataSources -->
<g id="edge35" class="edge">
<title>navigation&#45;&gt;hidden_DataSources</title>
<path fill="none" stroke="#fb923c" stroke-width="1.3" stroke-dasharray="5,2" d="M130.55,-1566.23C152.34,-1730.29 306.62,-2889.41 319,-2902 344.51,-2927.94 383.6,-2936.59 418.43,-2938.36"/>
<polygon fill="#fb923c" stroke="#fb923c" stroke-width="1.3" points="418.61,-2941.17 426.71,-2938.66 418.82,-2935.57 418.61,-2941.17"/>
</g>
<!-- hidden_DataBrowser -->
<g id="node36" class="node">
<title>hidden_DataBrowser</title>
<path fill="#431407" stroke="#fb923c" d="M552.5,-2889C552.5,-2889 438.5,-2889 438.5,-2889 432.5,-2889 426.5,-2883 426.5,-2877 426.5,-2877 426.5,-2863 426.5,-2863 426.5,-2857 432.5,-2851 438.5,-2851 438.5,-2851 552.5,-2851 552.5,-2851 558.5,-2851 564.5,-2857 564.5,-2863 564.5,-2863 564.5,-2877 564.5,-2877 564.5,-2883 558.5,-2889 552.5,-2889"/>
<text text-anchor="middle" x="495.5" y="-2873.8" font-family="Segoe UI" font-size="14.00" fill="#e2e8f0">DataBrowser</text>
<text text-anchor="middle" x="495.5" y="-2858.8" font-family="Segoe UI" font-size="14.00" fill="#e2e8f0">DataBrowserPage</text>
</g>
<!-- navigation&#45;&gt;hidden_DataBrowser -->
<g id="edge36" class="edge">
<title>navigation&#45;&gt;hidden_DataBrowser</title>
<path fill="none" stroke="#fb923c" stroke-width="1.3" stroke-dasharray="5,2" d="M130.5,-1566.15C151.27,-1724.75 294.87,-2815.57 319,-2839 344.89,-2864.14 383.63,-2872.81 418.12,-2874.79"/>
<polygon fill="#fb923c" stroke="#fb923c" stroke-width="1.3" points="418.22,-2877.6 426.33,-2875.15 418.46,-2872 418.22,-2877.6"/>
</g>
<!-- hidden_SymbolMapping -->
<g id="node37" class="node">
<title>hidden_SymbolMapping</title>
<path fill="#431407" stroke="#fb923c" d="M564,-2826C564,-2826 427,-2826 427,-2826 421,-2826 415,-2820 415,-2814 415,-2814 415,-2800 415,-2800 415,-2794 421,-2788 427,-2788 427,-2788 564,-2788 564,-2788 570,-2788 576,-2794 576,-2800 576,-2800 576,-2814 576,-2814 576,-2820 570,-2826 564,-2826"/>
<text text-anchor="middle" x="495.5" y="-2810.8" font-family="Segoe UI" font-size="14.00" fill="#e2e8f0">SymbolMapping</text>
<text text-anchor="middle" x="495.5" y="-2795.8" font-family="Segoe UI" font-size="14.00" fill="#e2e8f0">SymbolMappingPage</text>
</g>
<!-- navigation&#45;&gt;hidden_SymbolMapping -->
<g id="edge37" class="edge">
<title>navigation&#45;&gt;hidden_SymbolMapping</title>
<path fill="none" stroke="#fb923c" stroke-width="1.3" stroke-dasharray="5,2" d="M130.3,-1566.05C148.76,-1718.17 273.25,-2731.39 319,-2776 341.98,-2798.41 375.15,-2807.74 406.48,-2810.93"/>
<polygon fill="#fb923c" stroke="#fb923c" stroke-width="1.3" points="406.62,-2813.75 414.83,-2811.64 407.09,-2808.17 406.62,-2813.75"/>
</g>
<!-- hidden_SymbolStorage -->
<g id="node38" class="node">
<title>hidden_SymbolStorage</title>
<path fill="#431407" stroke="#fb923c" d="M561,-2763C561,-2763 430,-2763 430,-2763 424,-2763 418,-2757 418,-2751 418,-2751 418,-2737 418,-2737 418,-2731 424,-2725 430,-2725 430,-2725 561,-2725 561,-2725 567,-2725 573,-2731 573,-2737 573,-2737 573,-2751 573,-2751 573,-2757 567,-2763 561,-2763"/>
<text text-anchor="middle" x="495.5" y="-2747.8" font-family="Segoe UI" font-size="14.00" fill="#e2e8f0">SymbolStorage</text>
<text text-anchor="middle" x="495.5" y="-2732.8" font-family="Segoe UI" font-size="14.00" fill="#e2e8f0">SymbolStoragePage</text>
</g>
<!-- navigation&#45;&gt;hidden_SymbolStorage -->
<g id="edge38" class="edge">
<title>navigation&#45;&gt;hidden_SymbolStorage</title>
<path fill="none" stroke="#fb923c" stroke-width="1.3" stroke-dasharray="5,2" d="M129.95,-1566.1C140.94,-1671.69 197.9,-2194.34 290,-2613 299.94,-2658.19 284.57,-2682.08 319,-2713 343.51,-2735.01 377.99,-2744.07 409.91,-2747.15"/>
<polygon fill="#fb923c" stroke="#fb923c" stroke-width="1.3" points="409.76,-2749.95 417.96,-2747.81 410.22,-2744.37 409.76,-2749.95"/>
</g>
<!-- hidden_PortfolioImport -->
<g id="node39" class="node">
<title>hidden_PortfolioImport</title>
<path fill="#431407" stroke="#fb923c" d="M560,-2700C560,-2700 431,-2700 431,-2700 425,-2700 419,-2694 419,-2688 419,-2688 419,-2674 419,-2674 419,-2668 425,-2662 431,-2662 431,-2662 560,-2662 560,-2662 566,-2662 572,-2668 572,-2674 572,-2674 572,-2688 572,-2688 572,-2694 566,-2700 560,-2700"/>
<text text-anchor="middle" x="495.5" y="-2684.8" font-family="Segoe UI" font-size="14.00" fill="#e2e8f0">PortfolioImport</text>
<text text-anchor="middle" x="495.5" y="-2669.8" font-family="Segoe UI" font-size="14.00" fill="#e2e8f0">PortfolioImportPage</text>
</g>
<!-- navigation&#45;&gt;hidden_PortfolioImport -->
<g id="edge39" class="edge">
<title>navigation&#45;&gt;hidden_PortfolioImport</title>
<path fill="none" stroke="#fb923c" stroke-width="1.3" stroke-dasharray="5,2" d="M129.92,-1566.02C144.24,-1705.83 235.92,-2571.5 319,-2650 343.26,-2672.92 378.23,-2682.03 410.58,-2684.9"/>
<polygon fill="#fb923c" stroke="#fb923c" stroke-width="1.3" points="410.56,-2687.7 418.74,-2685.5 410.97,-2682.12 410.56,-2687.7"/>
</g>
<!-- hidden_IndexSubscription -->
<g id="node40" class="node">
<title>hidden_IndexSubscription</title>
<path fill="#431407" stroke="#fb923c" d="M571.5,-2637C571.5,-2637 419.5,-2637 419.5,-2637 413.5,-2637 407.5,-2631 407.5,-2625 407.5,-2625 407.5,-2611 407.5,-2611 407.5,-2605 413.5,-2599 419.5,-2599 419.5,-2599 571.5,-2599 571.5,-2599 577.5,-2599 583.5,-2605 583.5,-2611 583.5,-2611 583.5,-2625 583.5,-2625 583.5,-2631 577.5,-2637 571.5,-2637"/>
<text text-anchor="middle" x="495.5" y="-2621.8" font-family="Segoe UI" font-size="14.00" fill="#e2e8f0">IndexSubscription</text>
<text text-anchor="middle" x="495.5" y="-2606.8" font-family="Segoe UI" font-size="14.00" fill="#e2e8f0">IndexSubscriptionPage</text>
</g>
<!-- navigation&#45;&gt;hidden_IndexSubscription -->
<g id="edge40" class="edge">
<title>navigation&#45;&gt;hidden_IndexSubscription</title>
<path fill="none" stroke="#fb923c" stroke-width="1.3" stroke-dasharray="5,2" d="M129.94,-1566.22C140.26,-1666.06 192.09,-2135.15 290,-2507 299.63,-2543.57 290.05,-2562.67 319,-2587 341.19,-2605.65 370.65,-2614.8 399.08,-2618.91"/>
<polygon fill="#fb923c" stroke="#fb923c" stroke-width="1.3" points="398.77,-2621.69 407.06,-2619.94 399.48,-2616.14 398.77,-2621.69"/>
</g>
<!-- hidden_Options -->
<g id="node41" class="node">
<title>hidden_Options</title>
<path fill="#431407" stroke="#fb923c" d="M535.5,-2574C535.5,-2574 455.5,-2574 455.5,-2574 449.5,-2574 443.5,-2568 443.5,-2562 443.5,-2562 443.5,-2548 443.5,-2548 443.5,-2542 449.5,-2536 455.5,-2536 455.5,-2536 535.5,-2536 535.5,-2536 541.5,-2536 547.5,-2542 547.5,-2548 547.5,-2548 547.5,-2562 547.5,-2562 547.5,-2568 541.5,-2574 535.5,-2574"/>
<text text-anchor="middle" x="495.5" y="-2558.8" font-family="Segoe UI" font-size="14.00" fill="#e2e8f0">Options</text>
<text text-anchor="middle" x="495.5" y="-2543.8" font-family="Segoe UI" font-size="14.00" fill="#e2e8f0">OptionsPage</text>
</g>
<!-- navigation&#45;&gt;hidden_Options -->
<g id="edge41" class="edge">
<title>navigation&#45;&gt;hidden_Options</title>
<path fill="none" stroke="#fb923c" stroke-width="1.3" stroke-dasharray="5,2" d="M128.81,-1566.3C134.49,-1691.39 172.42,-2386.28 319,-2524 349.61,-2552.76 397.09,-2559.73 434.96,-2559.94"/>
<polygon fill="#fb923c" stroke="#fb923c" stroke-width="1.3" points="435.39,-2562.74 443.37,-2559.88 435.35,-2557.14 435.39,-2562.74"/>
</g>
<!-- hidden_Schedules -->
<g id="node42" class="node">
<title>hidden_Schedules</title>
<path fill="#431407" stroke="#fb923c" d="M570.5,-2511C570.5,-2511 420.5,-2511 420.5,-2511 414.5,-2511 408.5,-2505 408.5,-2499 408.5,-2499 408.5,-2485 408.5,-2485 408.5,-2479 414.5,-2473 420.5,-2473 420.5,-2473 570.5,-2473 570.5,-2473 576.5,-2473 582.5,-2479 582.5,-2485 582.5,-2485 582.5,-2499 582.5,-2499 582.5,-2505 576.5,-2511 570.5,-2511"/>
<text text-anchor="middle" x="495.5" y="-2495.8" font-family="Segoe UI" font-size="14.00" fill="#e2e8f0">Schedules</text>
<text text-anchor="middle" x="495.5" y="-2480.8" font-family="Segoe UI" font-size="14.00" fill="#e2e8f0">ScheduleManagerPage</text>
</g>
<!-- navigation&#45;&gt;hidden_Schedules -->
<g id="edge42" class="edge">
<title>navigation&#45;&gt;hidden_Schedules</title>
<path fill="none" stroke="#fb923c" stroke-width="1.3" stroke-dasharray="5,2" d="M130.48,-1566.14C142.65,-1658.03 199.15,-2062.84 290,-2384 299.95,-2419.19 290.86,-2437.65 319,-2461 341.52,-2479.69 371.37,-2488.8 400.05,-2492.86"/>
<polygon fill="#fb923c" stroke="#fb923c" stroke-width="1.3" points="399.81,-2495.65 408.1,-2493.88 400.51,-2490.1 399.81,-2495.65"/>
</g>
<!-- hidden_RunDetail -->
<g id="node43" class="node">
<title>hidden_RunDetail</title>
<path fill="#431407" stroke="#fb923c" d="M541.5,-2448C541.5,-2448 449.5,-2448 449.5,-2448 443.5,-2448 437.5,-2442 437.5,-2436 437.5,-2436 437.5,-2422 437.5,-2422 437.5,-2416 443.5,-2410 449.5,-2410 449.5,-2410 541.5,-2410 541.5,-2410 547.5,-2410 553.5,-2416 553.5,-2422 553.5,-2422 553.5,-2436 553.5,-2436 553.5,-2442 547.5,-2448 541.5,-2448"/>
<text text-anchor="middle" x="495.5" y="-2432.8" font-family="Segoe UI" font-size="14.00" fill="#e2e8f0">RunDetail</text>
<text text-anchor="middle" x="495.5" y="-2417.8" font-family="Segoe UI" font-size="14.00" fill="#e2e8f0">RunDetailPage</text>
</g>
<!-- navigation&#45;&gt;hidden_RunDetail -->
<g id="edge43" class="edge">
<title>navigation&#45;&gt;hidden_RunDetail</title>
<path fill="none" stroke="#fb923c" stroke-width="1.3" stroke-dasharray="5,2" d="M129.24,-1566.18C137.14,-1681.92 184.51,-2285.9 319,-2398 349.27,-2423.23 392.86,-2431.03 429.03,-2432.5"/>
<polygon fill="#fb923c" stroke="#fb923c" stroke-width="1.3" points="429.02,-2435.3 437.1,-2432.73 429.18,-2429.7 429.02,-2435.3"/>
</g>
<!-- hidden_RunLedger -->
<g id="node44" class="node">
<title>hidden_RunLedger</title>
<path fill="#431407" stroke="#fb923c" d="M546,-2385C546,-2385 445,-2385 445,-2385 439,-2385 433,-2379 433,-2373 433,-2373 433,-2359 433,-2359 433,-2353 439,-2347 445,-2347 445,-2347 546,-2347 546,-2347 552,-2347 558,-2353 558,-2359 558,-2359 558,-2373 558,-2373 558,-2379 552,-2385 546,-2385"/>
<text text-anchor="middle" x="495.5" y="-2369.8" font-family="Segoe UI" font-size="14.00" fill="#e2e8f0">RunLedger</text>
<text text-anchor="middle" x="495.5" y="-2354.8" font-family="Segoe UI" font-size="14.00" fill="#e2e8f0">RunLedgerPage</text>
</g>
<!-- navigation&#45;&gt;hidden_RunLedger -->
<g id="edge44" class="edge">
<title>navigation&#45;&gt;hidden_RunLedger</title>
<path fill="none" stroke="#fb923c" stroke-width="1.3" stroke-dasharray="5,2" d="M129.63,-1566.16C139.45,-1676.68 194.51,-2231.24 319,-2335 348.04,-2359.21 389.35,-2367.37 424.59,-2369.29"/>
<polygon fill="#fb923c" stroke="#fb923c" stroke-width="1.3" points="424.83,-2372.1 432.94,-2369.63 425.07,-2366.5 424.83,-2372.1"/>
</g>
<!-- hidden_FundAccounts -->
<g id="node45" class="node">
<title>hidden_FundAccounts</title>
<path fill="#431407" stroke="#fb923c" d="M549.5,-2322C549.5,-2322 441.5,-2322 441.5,-2322 435.5,-2322 429.5,-2316 429.5,-2310 429.5,-2310 429.5,-2296 429.5,-2296 429.5,-2290 435.5,-2284 441.5,-2284 441.5,-2284 549.5,-2284 549.5,-2284 555.5,-2284 561.5,-2290 561.5,-2296 561.5,-2296 561.5,-2310 561.5,-2310 561.5,-2316 555.5,-2322 549.5,-2322"/>
<text text-anchor="middle" x="495.5" y="-2306.8" font-family="Segoe UI" font-size="14.00" fill="#e2e8f0">FundAccounts</text>
<text text-anchor="middle" x="495.5" y="-2291.8" font-family="Segoe UI" font-size="14.00" fill="#e2e8f0">FundLedgerPage</text>
</g>
<!-- navigation&#45;&gt;hidden_FundAccounts -->
<g id="edge45" class="edge">
<title>navigation&#45;&gt;hidden_FundAccounts</title>
<path fill="none" stroke="#fb923c" stroke-width="1.3" stroke-dasharray="5,2" d="M130.11,-1566.31C142.02,-1671.74 204.52,-2176.58 319,-2272 347.05,-2295.38 386.55,-2303.79 420.97,-2306.07"/>
<polygon fill="#fb923c" stroke="#fb923c" stroke-width="1.3" points="421,-2308.87 429.14,-2306.5 421.3,-2303.28 421,-2308.87"/>
</g>
<!-- hidden_FundBanking -->
<g id="node46" class="node">
<title>hidden_FundBanking</title>
<path fill="#431407" stroke="#fb923c" d="M549.5,-2259C549.5,-2259 441.5,-2259 441.5,-2259 435.5,-2259 429.5,-2253 429.5,-2247 429.5,-2247 429.5,-2233 429.5,-2233 429.5,-2227 435.5,-2221 441.5,-2221 441.5,-2221 549.5,-2221 549.5,-2221 555.5,-2221 561.5,-2227 561.5,-2233 561.5,-2233 561.5,-2247 561.5,-2247 561.5,-2253 555.5,-2259 549.5,-2259"/>
<text text-anchor="middle" x="495.5" y="-2243.8" font-family="Segoe UI" font-size="14.00" fill="#e2e8f0">FundBanking</text>
<text text-anchor="middle" x="495.5" y="-2228.8" font-family="Segoe UI" font-size="14.00" fill="#e2e8f0">FundLedgerPage</text>
</g>
<!-- navigation&#45;&gt;hidden_FundBanking -->
<g id="edge46" class="edge">
<title>navigation&#45;&gt;hidden_FundBanking</title>
<path fill="none" stroke="#fb923c" stroke-width="1.3" stroke-dasharray="5,2" d="M130.64,-1566.22C144.74,-1665.8 214.36,-2121.79 319,-2209 347.05,-2232.38 386.55,-2240.79 420.97,-2243.07"/>
<polygon fill="#fb923c" stroke="#fb923c" stroke-width="1.3" points="421,-2245.87 429.14,-2243.5 421.3,-2240.28 421,-2245.87"/>
</g>
<!-- hidden_FundPortfolio -->
<g id="node47" class="node">
<title>hidden_FundPortfolio</title>
<path fill="#431407" stroke="#fb923c" d="M549.5,-2196C549.5,-2196 441.5,-2196 441.5,-2196 435.5,-2196 429.5,-2190 429.5,-2184 429.5,-2184 429.5,-2170 429.5,-2170 429.5,-2164 435.5,-2158 441.5,-2158 441.5,-2158 549.5,-2158 549.5,-2158 555.5,-2158 561.5,-2164 561.5,-2170 561.5,-2170 561.5,-2184 561.5,-2184 561.5,-2190 555.5,-2196 549.5,-2196"/>
<text text-anchor="middle" x="495.5" y="-2180.8" font-family="Segoe UI" font-size="14.00" fill="#e2e8f0">FundPortfolio</text>
<text text-anchor="middle" x="495.5" y="-2165.8" font-family="Segoe UI" font-size="14.00" fill="#e2e8f0">FundLedgerPage</text>
</g>
<!-- navigation&#45;&gt;hidden_FundPortfolio -->
<g id="edge47" class="edge">
<title>navigation&#45;&gt;hidden_FundPortfolio</title>
<path fill="none" stroke="#fb923c" stroke-width="1.3" stroke-dasharray="5,2" d="M131.24,-1566.26C147.43,-1660.17 222.71,-2068.7 319,-2146 347.48,-2168.86 387.01,-2177.23 421.34,-2179.61"/>
<polygon fill="#fb923c" stroke="#fb923c" stroke-width="1.3" points="421.34,-2182.42 429.49,-2180.08 421.66,-2176.83 421.34,-2182.42"/>
</g>
<!-- hidden_FundCashFinancing -->
<g id="node48" class="node">
<title>hidden_FundCashFinancing</title>
<path fill="#431407" stroke="#fb923c" d="M559.5,-2133C559.5,-2133 431.5,-2133 431.5,-2133 425.5,-2133 419.5,-2127 419.5,-2121 419.5,-2121 419.5,-2107 419.5,-2107 419.5,-2101 425.5,-2095 431.5,-2095 431.5,-2095 559.5,-2095 559.5,-2095 565.5,-2095 571.5,-2101 571.5,-2107 571.5,-2107 571.5,-2121 571.5,-2121 571.5,-2127 565.5,-2133 559.5,-2133"/>
<text text-anchor="middle" x="495.5" y="-2117.8" font-family="Segoe UI" font-size="14.00" fill="#e2e8f0">FundCashFinancing</text>
<text text-anchor="middle" x="495.5" y="-2102.8" font-family="Segoe UI" font-size="14.00" fill="#e2e8f0">FundLedgerPage</text>
</g>
<!-- navigation&#45;&gt;hidden_FundCashFinancing -->
<g id="edge48" class="edge">
<title>navigation&#45;&gt;hidden_FundCashFinancing</title>
<path fill="none" stroke="#fb923c" stroke-width="1.3" stroke-dasharray="5,2" d="M128.19,-1566.09C130.11,-1644.7 148.71,-1945.59 319,-2083 344.64,-2103.69 379.31,-2112.53 411.07,-2115.8"/>
<polygon fill="#fb923c" stroke="#fb923c" stroke-width="1.3" points="410.85,-2118.59 419.07,-2116.52 411.35,-2113.01 410.85,-2118.59"/>
</g>
<!-- hidden_FundTrialBalance -->
<g id="node49" class="node">
<title>hidden_FundTrialBalance</title>
<path fill="#431407" stroke="#fb923c" d="M550.5,-2070C550.5,-2070 440.5,-2070 440.5,-2070 434.5,-2070 428.5,-2064 428.5,-2058 428.5,-2058 428.5,-2044 428.5,-2044 428.5,-2038 434.5,-2032 440.5,-2032 440.5,-2032 550.5,-2032 550.5,-2032 556.5,-2032 562.5,-2038 562.5,-2044 562.5,-2044 562.5,-2058 562.5,-2058 562.5,-2064 556.5,-2070 550.5,-2070"/>
<text text-anchor="middle" x="495.5" y="-2054.8" font-family="Segoe UI" font-size="14.00" fill="#e2e8f0">FundTrialBalance</text>
<text text-anchor="middle" x="495.5" y="-2039.8" font-family="Segoe UI" font-size="14.00" fill="#e2e8f0">FundLedgerPage</text>
</g>
<!-- navigation&#45;&gt;hidden_FundTrialBalance -->
<g id="edge49" class="edge">
<title>navigation&#45;&gt;hidden_FundTrialBalance</title>
<path fill="none" stroke="#fb923c" stroke-width="1.3" stroke-dasharray="5,2" d="M129.32,-1566.2C135.41,-1638.86 167.45,-1898.97 319,-2020 347.2,-2042.52 386.14,-2050.96 420.18,-2053.46"/>
<polygon fill="#fb923c" stroke="#fb923c" stroke-width="1.3" points="420.1,-2056.26 428.26,-2053.96 420.45,-2050.67 420.1,-2056.26"/>
</g>
<!-- hidden_FundReconciliation -->
<g id="node50" class="node">
<title>hidden_FundReconciliation</title>
<path fill="#431407" stroke="#fb923c" d="M556.5,-2007C556.5,-2007 434.5,-2007 434.5,-2007 428.5,-2007 422.5,-2001 422.5,-1995 422.5,-1995 422.5,-1981 422.5,-1981 422.5,-1975 428.5,-1969 434.5,-1969 434.5,-1969 556.5,-1969 556.5,-1969 562.5,-1969 568.5,-1975 568.5,-1981 568.5,-1981 568.5,-1995 568.5,-1995 568.5,-2001 562.5,-2007 556.5,-2007"/>
<text text-anchor="middle" x="495.5" y="-1991.8" font-family="Segoe UI" font-size="14.00" fill="#e2e8f0">FundReconciliation</text>
<text text-anchor="middle" x="495.5" y="-1976.8" font-family="Segoe UI" font-size="14.00" fill="#e2e8f0">FundLedgerPage</text>
</g>
<!-- navigation&#45;&gt;hidden_FundReconciliation -->
<g id="edge50" class="edge">
<title>navigation&#45;&gt;hidden_FundReconciliation</title>
<path fill="none" stroke="#fb923c" stroke-width="1.3" stroke-dasharray="5,2" d="M130.68,-1566.34C140.98,-1632.83 184.47,-1853.7 319,-1957 345.81,-1977.59 381.69,-1986.25 414.03,-1989.41"/>
<polygon fill="#fb923c" stroke="#fb923c" stroke-width="1.3" points="413.96,-1992.22 422.17,-1990.1 414.43,-1986.64 413.96,-1992.22"/>
</g>
<!-- hidden_FundAuditTrail -->
<g id="node51" class="node">
<title>hidden_FundAuditTrail</title>
<path fill="#431407" stroke="#fb923c" d="M549.5,-1944C549.5,-1944 441.5,-1944 441.5,-1944 435.5,-1944 429.5,-1938 429.5,-1932 429.5,-1932 429.5,-1918 429.5,-1918 429.5,-1912 435.5,-1906 441.5,-1906 441.5,-1906 549.5,-1906 549.5,-1906 555.5,-1906 561.5,-1912 561.5,-1918 561.5,-1918 561.5,-1932 561.5,-1932 561.5,-1938 555.5,-1944 549.5,-1944"/>
<text text-anchor="middle" x="495.5" y="-1928.8" font-family="Segoe UI" font-size="14.00" fill="#e2e8f0">FundAuditTrail</text>
<text text-anchor="middle" x="495.5" y="-1913.8" font-family="Segoe UI" font-size="14.00" fill="#e2e8f0">FundLedgerPage</text>
</g>
<!-- navigation&#45;&gt;hidden_FundAuditTrail -->
<g id="edge51" class="edge">
<title>navigation&#45;&gt;hidden_FundAuditTrail</title>
<path fill="none" stroke="#fb923c" stroke-width="1.3" stroke-dasharray="5,2" d="M132.38,-1566.29C147.01,-1626 200.17,-1808.95 319,-1894 348.35,-1915.01 387.39,-1923.31 421.2,-1926.12"/>
<polygon fill="#fb923c" stroke="#fb923c" stroke-width="1.3" points="421.04,-1928.91 429.22,-1926.69 421.44,-1923.33 421.04,-1928.91"/>
</g>
<!-- hidden_RunCashFlow -->
<g id="node52" class="node">
<title>hidden_RunCashFlow</title>
<path fill="#431407" stroke="#fb923c" d="M555,-1881C555,-1881 436,-1881 436,-1881 430,-1881 424,-1875 424,-1869 424,-1869 424,-1855 424,-1855 424,-1849 430,-1843 436,-1843 436,-1843 555,-1843 555,-1843 561,-1843 567,-1849 567,-1855 567,-1855 567,-1869 567,-1869 567,-1875 561,-1881 555,-1881"/>
<text text-anchor="middle" x="495.5" y="-1865.8" font-family="Segoe UI" font-size="14.00" fill="#e2e8f0">RunCashFlow</text>
<text text-anchor="middle" x="495.5" y="-1850.8" font-family="Segoe UI" font-size="14.00" fill="#e2e8f0">RunCashFlowPage</text>
</g>
<!-- navigation&#45;&gt;hidden_RunCashFlow -->
<g id="edge52" class="edge">
<title>navigation&#45;&gt;hidden_RunCashFlow</title>
<path fill="none" stroke="#fb923c" stroke-width="1.3" stroke-dasharray="5,2" d="M134.7,-1566.1C154.06,-1618.24 215.4,-1763.6 319,-1831 347.33,-1849.43 383.44,-1857.78 415.53,-1861.29"/>
<polygon fill="#fb923c" stroke="#fb923c" stroke-width="1.3" points="415.36,-1864.09 423.6,-1862.08 415.91,-1858.51 415.36,-1864.09"/>
</g>
<!-- hidden_RunRisk -->
<g id="node53" class="node">
<title>hidden_RunRisk</title>
<path fill="#431407" stroke="#fb923c" d="M536.5,-1818C536.5,-1818 454.5,-1818 454.5,-1818 448.5,-1818 442.5,-1812 442.5,-1806 442.5,-1806 442.5,-1792 442.5,-1792 442.5,-1786 448.5,-1780 454.5,-1780 454.5,-1780 536.5,-1780 536.5,-1780 542.5,-1780 548.5,-1786 548.5,-1792 548.5,-1792 548.5,-1806 548.5,-1806 548.5,-1812 542.5,-1818 536.5,-1818"/>
<text text-anchor="middle" x="495.5" y="-1802.8" font-family="Segoe UI" font-size="14.00" fill="#e2e8f0">RunRisk</text>
<text text-anchor="middle" x="495.5" y="-1787.8" font-family="Segoe UI" font-size="14.00" fill="#e2e8f0">RunRiskPage</text>
</g>
<!-- navigation&#45;&gt;hidden_RunRisk -->
<g id="edge53" class="edge">
<title>navigation&#45;&gt;hidden_RunRisk</title>
<path fill="none" stroke="#fb923c" stroke-width="1.3" stroke-dasharray="5,2" d="M138.39,-1566.25C163.17,-1610.13 230.36,-1717.67 319,-1768 353.87,-1787.8 398.42,-1795.5 433.9,-1798.27"/>
<polygon fill="#fb923c" stroke="#fb923c" stroke-width="1.3" points="434.08,-1801.09 442.26,-1798.85 434.47,-1795.51 434.08,-1801.09"/>
</g>
<!-- hidden_AccountPortfolio -->
<g id="node54" class="node">
<title>hidden_AccountPortfolio</title>
<path fill="#431407" stroke="#fb923c" d="M564.5,-1755C564.5,-1755 426.5,-1755 426.5,-1755 420.5,-1755 414.5,-1749 414.5,-1743 414.5,-1743 414.5,-1729 414.5,-1729 414.5,-1723 420.5,-1717 426.5,-1717 426.5,-1717 564.5,-1717 564.5,-1717 570.5,-1717 576.5,-1723 576.5,-1729 576.5,-1729 576.5,-1743 576.5,-1743 576.5,-1749 570.5,-1755 564.5,-1755"/>
<text text-anchor="middle" x="495.5" y="-1739.8" font-family="Segoe UI" font-size="14.00" fill="#e2e8f0">AccountPortfolio</text>
<text text-anchor="middle" x="495.5" y="-1724.8" font-family="Segoe UI" font-size="14.00" fill="#e2e8f0">AccountPortfolioPage</text>
</g>
<!-- navigation&#45;&gt;hidden_AccountPortfolio -->
<g id="edge54" class="edge">
<title>navigation&#45;&gt;hidden_AccountPortfolio</title>
<path fill="none" stroke="#fb923c" stroke-width="1.3" stroke-dasharray="5,2" d="M144.74,-1566.25C175.52,-1600.28 244.78,-1670.69 319,-1705 345.96,-1717.46 377.37,-1724.93 406.1,-1729.41"/>
<polygon fill="#fb923c" stroke="#fb923c" stroke-width="1.3" points="405.81,-1732.2 414.13,-1730.59 406.63,-1726.66 405.81,-1732.2"/>
</g>
<!-- hidden_AggregatePortfolio -->
<g id="node55" class="node">
<title>hidden_AggregatePortfolio</title>
<path fill="#431407" stroke="#fb923c" d="M573,-1692C573,-1692 418,-1692 418,-1692 412,-1692 406,-1686 406,-1680 406,-1680 406,-1666 406,-1666 406,-1660 412,-1654 418,-1654 418,-1654 573,-1654 573,-1654 579,-1654 585,-1660 585,-1666 585,-1666 585,-1680 585,-1680 585,-1686 579,-1692 573,-1692"/>
<text text-anchor="middle" x="495.5" y="-1676.8" font-family="Segoe UI" font-size="14.00" fill="#e2e8f0">AggregatePortfolio</text>
<text text-anchor="middle" x="495.5" y="-1661.8" font-family="Segoe UI" font-size="14.00" fill="#e2e8f0">AggregatePortfolioPage</text>
</g>
<!-- navigation&#45;&gt;hidden_AggregatePortfolio -->
<g id="edge55" class="edge">
<title>navigation&#45;&gt;hidden_AggregatePortfolio</title>
<path fill="none" stroke="#fb923c" stroke-width="1.3" stroke-dasharray="5,2" d="M159.24,-1566.06C196.12,-1587.7 259.9,-1622.53 319,-1642 344.03,-1650.25 371.84,-1656.44 397.8,-1661.03"/>
<polygon fill="#fb923c" stroke="#fb923c" stroke-width="1.3" points="397.44,-1663.8 405.8,-1662.4 398.39,-1658.29 397.44,-1663.8"/>
</g>
<!-- hidden_ArchiveHealth -->
<g id="node56" class="node">
<title>hidden_ArchiveHealth</title>
<path fill="#431407" stroke="#fb923c" d="M556.5,-1629C556.5,-1629 434.5,-1629 434.5,-1629 428.5,-1629 422.5,-1623 422.5,-1617 422.5,-1617 422.5,-1603 422.5,-1603 422.5,-1597 428.5,-1591 434.5,-1591 434.5,-1591 556.5,-1591 556.5,-1591 562.5,-1591 568.5,-1597 568.5,-1603 568.5,-1603 568.5,-1617 568.5,-1617 568.5,-1623 562.5,-1629 556.5,-1629"/>
<text text-anchor="middle" x="495.5" y="-1613.8" font-family="Segoe UI" font-size="14.00" fill="#e2e8f0">ArchiveHealth</text>
<text text-anchor="middle" x="495.5" y="-1598.8" font-family="Segoe UI" font-size="14.00" fill="#e2e8f0">ArchiveHealthPage</text>
</g>
<!-- navigation&#45;&gt;hidden_ArchiveHealth -->
<g id="edge56" class="edge">
<title>navigation&#45;&gt;hidden_ArchiveHealth</title>
<path fill="none" stroke="#fb923c" stroke-width="1.3" stroke-dasharray="5,2" d="M198.23,-1559.07C259.92,-1569.68 349.65,-1585.1 414.18,-1596.19"/>
<polygon fill="#fb923c" stroke="#fb923c" stroke-width="1.3" points="413.96,-1599 422.31,-1597.59 414.9,-1593.48 413.96,-1599"/>
</g>
<!-- hidden_ServiceManager -->
<g id="node57" class="node">
<title>hidden_ServiceManager</title>
<path fill="#431407" stroke="#fb923c" d="M564,-1566C564,-1566 427,-1566 427,-1566 421,-1566 415,-1560 415,-1554 415,-1554 415,-1540 415,-1540 415,-1534 421,-1528 427,-1528 427,-1528 564,-1528 564,-1528 570,-1528 576,-1534 576,-1540 576,-1540 576,-1554 576,-1554 576,-1560 570,-1566 564,-1566"/>
<text text-anchor="middle" x="495.5" y="-1550.8" font-family="Segoe UI" font-size="14.00" fill="#e2e8f0">ServiceManager</text>
<text text-anchor="middle" x="495.5" y="-1535.8" font-family="Segoe UI" font-size="14.00" fill="#e2e8f0">ServiceManagerPage</text>
</g>
<!-- navigation&#45;&gt;hidden_ServiceManager -->
<g id="edge57" class="edge">
<title>navigation&#45;&gt;hidden_ServiceManager</title>
<path fill="none" stroke="#fb923c" stroke-width="1.3" stroke-dasharray="5,2" d="M198.23,-1547C257.63,-1547 343.02,-1547 406.88,-1547"/>
<polygon fill="#fb923c" stroke="#fb923c" stroke-width="1.3" points="406.96,-1549.8 414.96,-1547 406.96,-1544.2 406.96,-1549.8"/>
</g>
<!-- hidden_DataExport -->
<g id="node58" class="node">
<title>hidden_DataExport</title>
<path fill="#431407" stroke="#fb923c" d="M547.5,-1503C547.5,-1503 443.5,-1503 443.5,-1503 437.5,-1503 431.5,-1497 431.5,-1491 431.5,-1491 431.5,-1477 431.5,-1477 431.5,-1471 437.5,-1465 443.5,-1465 443.5,-1465 547.5,-1465 547.5,-1465 553.5,-1465 559.5,-1471 559.5,-1477 559.5,-1477 559.5,-1491 559.5,-1491 559.5,-1497 553.5,-1503 547.5,-1503"/>
<text text-anchor="middle" x="495.5" y="-1487.8" font-family="Segoe UI" font-size="14.00" fill="#e2e8f0">DataExport</text>
<text text-anchor="middle" x="495.5" y="-1472.8" font-family="Segoe UI" font-size="14.00" fill="#e2e8f0">DataExportPage</text>
</g>
<!-- navigation&#45;&gt;hidden_DataExport -->
<g id="edge58" class="edge">
<title>navigation&#45;&gt;hidden_DataExport</title>
<path fill="none" stroke="#fb923c" stroke-width="1.3" stroke-dasharray="5,2" d="M198.23,-1534.93C262.81,-1523.83 358.12,-1507.44 423.08,-1496.28"/>
<polygon fill="#fb923c" stroke="#fb923c" stroke-width="1.3" points="423.83,-1498.99 431.24,-1494.87 422.88,-1493.47 423.83,-1498.99"/>
</g>
<!-- hidden_DataSampling -->
<g id="node59" class="node">
<title>hidden_DataSampling</title>
<path fill="#431407" stroke="#fb923c" d="M557,-1440C557,-1440 434,-1440 434,-1440 428,-1440 422,-1434 422,-1428 422,-1428 422,-1414 422,-1414 422,-1408 428,-1402 434,-1402 434,-1402 557,-1402 557,-1402 563,-1402 569,-1408 569,-1414 569,-1414 569,-1428 569,-1428 569,-1434 563,-1440 557,-1440"/>
<text text-anchor="middle" x="495.5" y="-1424.8" font-family="Segoe UI" font-size="14.00" fill="#e2e8f0">DataSampling</text>
<text text-anchor="middle" x="495.5" y="-1409.8" font-family="Segoe UI" font-size="14.00" fill="#e2e8f0">DataSamplingPage</text>
</g>
<!-- navigation&#45;&gt;hidden_DataSampling -->
<g id="edge59" class="edge">
<title>navigation&#45;&gt;hidden_DataSampling</title>
<path fill="none" stroke="#fb923c" stroke-width="1.3" stroke-dasharray="5,2" d="M198.1,-1535.92C216.99,-1531.17 236.92,-1524.45 254,-1515 288.94,-1495.68 283.42,-1471.12 319,-1453 348.01,-1438.23 382.78,-1430.19 413.69,-1425.85"/>
<polygon fill="#fb923c" stroke="#fb923c" stroke-width="1.3" points="414.32,-1428.59 421.88,-1424.77 413.58,-1423.04 414.32,-1428.59"/>
</g>
<!-- hidden_TimeSeriesAlignment -->
<g id="node60" class="node">
<title>hidden_TimeSeriesAlignment</title>
<path fill="#431407" stroke="#fb923c" d="M582,-1377C582,-1377 409,-1377 409,-1377 403,-1377 397,-1371 397,-1365 397,-1365 397,-1351 397,-1351 397,-1345 403,-1339 409,-1339 409,-1339 582,-1339 582,-1339 588,-1339 594,-1345 594,-1351 594,-1351 594,-1365 594,-1365 594,-1371 588,-1377 582,-1377"/>
<text text-anchor="middle" x="495.5" y="-1361.8" font-family="Segoe UI" font-size="14.00" fill="#e2e8f0">TimeSeriesAlignment</text>
<text text-anchor="middle" x="495.5" y="-1346.8" font-family="Segoe UI" font-size="14.00" fill="#e2e8f0">TimeSeriesAlignmentPage</text>
</g>
<!-- navigation&#45;&gt;hidden_TimeSeriesAlignment -->
<g id="edge60" class="edge">
<title>navigation&#45;&gt;hidden_TimeSeriesAlignment</title>
<path fill="none" stroke="#fb923c" stroke-width="1.3" stroke-dasharray="5,2" d="M198.15,-1540C217.78,-1535.31 238.08,-1527.61 254,-1515 303.08,-1476.12 268.62,-1427.18 319,-1390 339.12,-1375.15 364.02,-1366.48 388.67,-1361.58"/>
<polygon fill="#fb923c" stroke="#fb923c" stroke-width="1.3" points="389.29,-1364.31 396.66,-1360.11 388.28,-1358.8 389.29,-1364.31"/>
</g>
<!-- hidden_ExportPresets -->
<g id="node61" class="node">
<title>hidden_ExportPresets</title>
<path fill="#431407" stroke="#fb923c" d="M556.5,-1314C556.5,-1314 434.5,-1314 434.5,-1314 428.5,-1314 422.5,-1308 422.5,-1302 422.5,-1302 422.5,-1288 422.5,-1288 422.5,-1282 428.5,-1276 434.5,-1276 434.5,-1276 556.5,-1276 556.5,-1276 562.5,-1276 568.5,-1282 568.5,-1288 568.5,-1288 568.5,-1302 568.5,-1302 568.5,-1308 562.5,-1314 556.5,-1314"/>
<text text-anchor="middle" x="495.5" y="-1298.8" font-family="Segoe UI" font-size="14.00" fill="#e2e8f0">ExportPresets</text>
<text text-anchor="middle" x="495.5" y="-1283.8" font-family="Segoe UI" font-size="14.00" fill="#e2e8f0">ExportPresetsPage</text>
</g>
<!-- navigation&#45;&gt;hidden_ExportPresets -->
<g id="edge61" class="edge">
<title>navigation&#45;&gt;hidden_ExportPresets</title>
<path fill="none" stroke="#fb923c" stroke-width="1.3" stroke-dasharray="5,2" d="M198.06,-1541.73C218.14,-1537.14 238.71,-1529.05 254,-1515 319.09,-1455.17 251.9,-1384.57 319,-1327 345,-1304.69 381.3,-1295.69 414.15,-1292.65"/>
<polygon fill="#fb923c" stroke="#fb923c" stroke-width="1.3" points="414.66,-1295.42 422.42,-1292.01 414.22,-1289.84 414.66,-1295.42"/>
</g>
<!-- hidden_AnalysisExport -->
<g id="node62" class="node">
<title>hidden_AnalysisExport</title>
<path fill="#431407" stroke="#fb923c" d="M560,-1251C560,-1251 431,-1251 431,-1251 425,-1251 419,-1245 419,-1239 419,-1239 419,-1225 419,-1225 419,-1219 425,-1213 431,-1213 431,-1213 560,-1213 560,-1213 566,-1213 572,-1219 572,-1225 572,-1225 572,-1239 572,-1239 572,-1245 566,-1251 560,-1251"/>
<text text-anchor="middle" x="495.5" y="-1235.8" font-family="Segoe UI" font-size="14.00" fill="#e2e8f0">AnalysisExport</text>
<text text-anchor="middle" x="495.5" y="-1220.8" font-family="Segoe UI" font-size="14.00" fill="#e2e8f0">AnalysisExportPage</text>
</g>
<!-- navigation&#45;&gt;hidden_AnalysisExport -->
<g id="edge62" class="edge">
<title>navigation&#45;&gt;hidden_AnalysisExport</title>
<path fill="none" stroke="#fb923c" stroke-width="1.3" stroke-dasharray="5,2" d="M198.28,-1542.78C218.61,-1538.26 239.27,-1529.95 254,-1515 334.88,-1432.92 233.47,-1341.23 319,-1264 343.69,-1241.71 378.55,-1232.49 410.7,-1229.3"/>
<polygon fill="#fb923c" stroke="#fb923c" stroke-width="1.3" points="411.08,-1232.07 418.81,-1228.61 410.6,-1226.49 411.08,-1232.07"/>
</g>
<!-- hidden_AnalysisExportWizard -->
<g id="node63" class="node">
<title>hidden_AnalysisExportWizard</title>
<path fill="#431407" stroke="#fb923c" d="M583.5,-1188C583.5,-1188 407.5,-1188 407.5,-1188 401.5,-1188 395.5,-1182 395.5,-1176 395.5,-1176 395.5,-1162 395.5,-1162 395.5,-1156 401.5,-1150 407.5,-1150 407.5,-1150 583.5,-1150 583.5,-1150 589.5,-1150 595.5,-1156 595.5,-1162 595.5,-1162 595.5,-1176 595.5,-1176 595.5,-1182 589.5,-1188 583.5,-1188"/>
<text text-anchor="middle" x="495.5" y="-1172.8" font-family="Segoe UI" font-size="14.00" fill="#e2e8f0">AnalysisExportWizard</text>
<text text-anchor="middle" x="495.5" y="-1157.8" font-family="Segoe UI" font-size="14.00" fill="#e2e8f0">AnalysisExportWizardPage</text>
</g>
<!-- navigation&#45;&gt;hidden_AnalysisExportWizard -->
<g id="edge63" class="edge">
<title>navigation&#45;&gt;hidden_AnalysisExportWizard</title>
<path fill="none" stroke="#fb923c" stroke-width="1.3" stroke-dasharray="5,2" d="M198.28,-1543.55C218.86,-1539.1 239.66,-1530.63 254,-1515 302.18,-1462.5 265.78,-1248.38 319,-1201 337.79,-1184.28 362.31,-1174.94 387.05,-1169.99"/>
<polygon fill="#fb923c" stroke="#fb923c" stroke-width="1.3" points="387.71,-1172.72 395.08,-1168.54 386.71,-1167.21 387.71,-1172.72"/>
</g>
<!-- hidden_AdvancedAnalytics -->
<g id="node64" class="node">
<title>hidden_AdvancedAnalytics</title>
<path fill="#431407" stroke="#fb923c" d="M574,-1125C574,-1125 417,-1125 417,-1125 411,-1125 405,-1119 405,-1113 405,-1113 405,-1099 405,-1099 405,-1093 411,-1087 417,-1087 417,-1087 574,-1087 574,-1087 580,-1087 586,-1093 586,-1099 586,-1099 586,-1113 586,-1113 586,-1119 580,-1125 574,-1125"/>
<text text-anchor="middle" x="495.5" y="-1109.8" font-family="Segoe UI" font-size="14.00" fill="#e2e8f0">AdvancedAnalytics</text>
<text text-anchor="middle" x="495.5" y="-1094.8" font-family="Segoe UI" font-size="14.00" fill="#e2e8f0">AdvancedAnalyticsPage</text>
</g>
<!-- navigation&#45;&gt;hidden_AdvancedAnalytics -->
<g id="edge64" class="edge">
<title>navigation&#45;&gt;hidden_AdvancedAnalytics</title>
<path fill="none" stroke="#fb923c" stroke-width="1.3" stroke-dasharray="5,2" d="M198.09,-1543.75C218.79,-1539.33 239.7,-1530.82 254,-1515 311,-1451.93 257.95,-1197.17 319,-1138 339.63,-1118 368.36,-1108.3 396.61,-1104.05"/>
<polygon fill="#fb923c" stroke="#fb923c" stroke-width="1.3" points="396.99,-1106.82 404.55,-1102.99 396.25,-1101.27 396.99,-1106.82"/>
</g>
<!-- hidden_OrderBook -->
<g id="node65" class="node">
<title>hidden_OrderBook</title>
<path fill="#431407" stroke="#fb923c" d="M545.5,-1062C545.5,-1062 445.5,-1062 445.5,-1062 439.5,-1062 433.5,-1056 433.5,-1050 433.5,-1050 433.5,-1036 433.5,-1036 433.5,-1030 439.5,-1024 445.5,-1024 445.5,-1024 545.5,-1024 545.5,-1024 551.5,-1024 557.5,-1030 557.5,-1036 557.5,-1036 557.5,-1050 557.5,-1050 557.5,-1056 551.5,-1062 545.5,-1062"/>
<text text-anchor="middle" x="495.5" y="-1046.8" font-family="Segoe UI" font-size="14.00" fill="#e2e8f0">OrderBook</text>
<text text-anchor="middle" x="495.5" y="-1031.8" font-family="Segoe UI" font-size="14.00" fill="#e2e8f0">OrderBookPage</text>
</g>
<!-- navigation&#45;&gt;hidden_OrderBook -->
<g id="edge65" class="edge">
<title>navigation&#45;&gt;hidden_OrderBook</title>
<path fill="none" stroke="#fb923c" stroke-width="1.3" stroke-dasharray="5,2" d="M198.05,-1544.08C218.87,-1539.68 239.86,-1531.12 254,-1515 319.17,-1440.69 248.08,-1143.84 319,-1075 346.69,-1048.13 388.99,-1039.83 425.12,-1038.39"/>
<polygon fill="#fb923c" stroke="#fb923c" stroke-width="1.3" points="425.28,-1041.19 433.2,-1038.18 425.13,-1035.59 425.28,-1041.19"/>
</g>
<!-- hidden_DataCalendar -->
<g id="node66" class="node">
<title>hidden_DataCalendar</title>
<path fill="#431407" stroke="#fb923c" d="M555.5,-999C555.5,-999 435.5,-999 435.5,-999 429.5,-999 423.5,-993 423.5,-987 423.5,-987 423.5,-973 423.5,-973 423.5,-967 429.5,-961 435.5,-961 435.5,-961 555.5,-961 555.5,-961 561.5,-961 567.5,-967 567.5,-973 567.5,-973 567.5,-987 567.5,-987 567.5,-993 561.5,-999 555.5,-999"/>
<text text-anchor="middle" x="495.5" y="-983.8" font-family="Segoe UI" font-size="14.00" fill="#e2e8f0">DataCalendar</text>
<text text-anchor="middle" x="495.5" y="-968.8" font-family="Segoe UI" font-size="14.00" fill="#e2e8f0">DataCalendarPage</text>
</g>
<!-- navigation&#45;&gt;hidden_DataCalendar -->
<g id="edge66" class="edge">
<title>navigation&#45;&gt;hidden_DataCalendar</title>
<path fill="none" stroke="#fb923c" stroke-width="1.3" stroke-dasharray="5,2" d="M198.27,-1544.27C219.1,-1539.88 240.05,-1531.28 254,-1515 327.35,-1429.43 237.5,-1089.85 319,-1012 344.4,-987.74 381.74,-978.69 415.45,-976.14"/>
<polygon fill="#fb923c" stroke="#fb923c" stroke-width="1.3" points="415.67,-978.94 423.48,-975.65 415.32,-973.35 415.67,-978.94"/>
</g>
<!-- hidden_StorageOptimization -->
<g id="node67" class="node">
<title>hidden_StorageOptimization</title>
<path fill="#431407" stroke="#fb923c" d="M579.5,-936C579.5,-936 411.5,-936 411.5,-936 405.5,-936 399.5,-930 399.5,-924 399.5,-924 399.5,-910 399.5,-910 399.5,-904 405.5,-898 411.5,-898 411.5,-898 579.5,-898 579.5,-898 585.5,-898 591.5,-904 591.5,-910 591.5,-910 591.5,-924 591.5,-924 591.5,-930 585.5,-936 579.5,-936"/>
<text text-anchor="middle" x="495.5" y="-920.8" font-family="Segoe UI" font-size="14.00" fill="#e2e8f0">StorageOptimization</text>
<text text-anchor="middle" x="495.5" y="-905.8" font-family="Segoe UI" font-size="14.00" fill="#e2e8f0">StorageOptimizationPage</text>
</g>
<!-- navigation&#45;&gt;hidden_StorageOptimization -->
<g id="edge67" class="edge">
<title>navigation&#45;&gt;hidden_StorageOptimization</title>
<path fill="none" stroke="#fb923c" stroke-width="1.3" stroke-dasharray="5,2" d="M198.09,-1544.46C219.03,-1540.11 240.1,-1531.47 254,-1515 335.65,-1418.25 226.63,-1035.58 319,-949 338.56,-930.67 364.95,-921.07 391.32,-916.41"/>
<polygon fill="#fb923c" stroke="#fb923c" stroke-width="1.3" points="392.03,-919.13 399.49,-915.11 391.15,-913.6 392.03,-919.13"/>
</g>
<!-- hidden_RetentionAssurance -->
<g id="node68" class="node">
<title>hidden_RetentionAssurance</title>
<path fill="#431407" stroke="#fb923c" d="M577.5,-873C577.5,-873 413.5,-873 413.5,-873 407.5,-873 401.5,-867 401.5,-861 401.5,-861 401.5,-847 401.5,-847 401.5,-841 407.5,-835 413.5,-835 413.5,-835 577.5,-835 577.5,-835 583.5,-835 589.5,-841 589.5,-847 589.5,-847 589.5,-861 589.5,-861 589.5,-867 583.5,-873 577.5,-873"/>
<text text-anchor="middle" x="495.5" y="-857.8" font-family="Segoe UI" font-size="14.00" fill="#e2e8f0">RetentionAssurance</text>
<text text-anchor="middle" x="495.5" y="-842.8" font-family="Segoe UI" font-size="14.00" fill="#e2e8f0">RetentionAssurancePage</text>
</g>
<!-- navigation&#45;&gt;hidden_RetentionAssurance -->
<g id="edge68" class="edge">
<title>navigation&#45;&gt;hidden_RetentionAssurance</title>
<path fill="none" stroke="#fb923c" stroke-width="1.3" stroke-dasharray="5,2" d="M198.19,-1544.55C219.15,-1540.2 240.19,-1531.55 254,-1515 344.05,-1407.13 215.76,-981.33 319,-886 339.19,-867.36 366.47,-857.79 393.5,-853.25"/>
<polygon fill="#fb923c" stroke="#fb923c" stroke-width="1.3" points="394,-856.01 401.49,-852.05 393.17,-850.47 394,-856.01"/>
</g>
<!-- hidden_AdminMaintenance -->
<g id="node69" class="node">
<title>hidden_AdminMaintenance</title>
<path fill="#431407" stroke="#fb923c" d="M574.5,-810C574.5,-810 416.5,-810 416.5,-810 410.5,-810 404.5,-804 404.5,-798 404.5,-798 404.5,-784 404.5,-784 404.5,-778 410.5,-772 416.5,-772 416.5,-772 574.5,-772 574.5,-772 580.5,-772 586.5,-778 586.5,-784 586.5,-784 586.5,-798 586.5,-798 586.5,-804 580.5,-810 574.5,-810"/>
<text text-anchor="middle" x="495.5" y="-794.8" font-family="Segoe UI" font-size="14.00" fill="#e2e8f0">AdminMaintenance</text>
<text text-anchor="middle" x="495.5" y="-779.8" font-family="Segoe UI" font-size="14.00" fill="#e2e8f0">AdminMaintenancePage</text>
</g>
<!-- navigation&#45;&gt;hidden_AdminMaintenance -->
<g id="edge69" class="edge">
<title>navigation&#45;&gt;hidden_AdminMaintenance</title>
<path fill="none" stroke="#fb923c" stroke-width="1.3" stroke-dasharray="5,2" d="M198.27,-1544.61C219.23,-1540.27 240.25,-1531.6 254,-1515 295.61,-1464.76 279.34,-993.36 290,-929 297.98,-880.81 283,-856.01 319,-823 339.88,-803.85 368.25,-794.31 396.08,-789.94"/>
<polygon fill="#fb923c" stroke="#fb923c" stroke-width="1.3" points="396.76,-792.67 404.3,-788.79 395.99,-787.13 396.76,-792.67"/>
</g>
<!-- hidden_LeanIntegration -->
<g id="node70" class="node">
<title>hidden_LeanIntegration</title>
<path fill="#431407" stroke="#fb923c" d="M563,-747C563,-747 428,-747 428,-747 422,-747 416,-741 416,-735 416,-735 416,-721 416,-721 416,-715 422,-709 428,-709 428,-709 563,-709 563,-709 569,-709 575,-715 575,-721 575,-721 575,-735 575,-735 575,-741 569,-747 563,-747"/>
<text text-anchor="middle" x="495.5" y="-731.8" font-family="Segoe UI" font-size="14.00" fill="#e2e8f0">LeanIntegration</text>
<text text-anchor="middle" x="495.5" y="-716.8" font-family="Segoe UI" font-size="14.00" fill="#e2e8f0">LeanIntegrationPage</text>
</g>
<!-- navigation&#45;&gt;hidden_LeanIntegration -->
<g id="edge70" class="edge">
<title>navigation&#45;&gt;hidden_LeanIntegration</title>
<path fill="none" stroke="#fb923c" stroke-width="1.3" stroke-dasharray="5,2" d="M198.28,-1544.62C219.24,-1540.28 240.26,-1531.61 254,-1515 307.67,-1450.12 259.39,-819.47 319,-760 342.14,-736.91 376.04,-727.42 407.88,-724.24"/>
<polygon fill="#fb923c" stroke="#fb923c" stroke-width="1.3" points="408.19,-727.03 415.93,-723.57 407.72,-721.45 408.19,-727.03"/>
</g>
<!-- hidden_MessagingHub -->
<g id="node71" class="node">
<title>hidden_MessagingHub</title>
<path fill="#431407" stroke="#fb923c" d="M559.5,-684C559.5,-684 431.5,-684 431.5,-684 425.5,-684 419.5,-678 419.5,-672 419.5,-672 419.5,-658 419.5,-658 419.5,-652 425.5,-646 431.5,-646 431.5,-646 559.5,-646 559.5,-646 565.5,-646 571.5,-652 571.5,-658 571.5,-658 571.5,-672 571.5,-672 571.5,-678 565.5,-684 559.5,-684"/>
<text text-anchor="middle" x="495.5" y="-668.8" font-family="Segoe UI" font-size="14.00" fill="#e2e8f0">MessagingHub</text>
<text text-anchor="middle" x="495.5" y="-653.8" font-family="Segoe UI" font-size="14.00" fill="#e2e8f0">MessagingHubPage</text>
</g>
<!-- navigation&#45;&gt;hidden_MessagingHub -->
<g id="edge71" class="edge">
<title>navigation&#45;&gt;hidden_MessagingHub</title>
<path fill="none" stroke="#fb923c" stroke-width="1.3" stroke-dasharray="5,2" d="M198.3,-1544.64C219.26,-1540.3 240.28,-1531.62 254,-1515 312.04,-1444.69 255.69,-762.61 319,-697 342.59,-672.55 378.19,-663.18 411.18,-660.45"/>
<polygon fill="#fb923c" stroke="#fb923c" stroke-width="1.3" points="411.7,-663.22 419.5,-659.9 411.33,-657.64 411.7,-663.22"/>
</g>
<!-- hidden_Workspaces -->
<g id="node72" class="node">
<title>hidden_Workspaces</title>
<path fill="#431407" stroke="#fb923c" d="M546,-621C546,-621 445,-621 445,-621 439,-621 433,-615 433,-609 433,-609 433,-595 433,-595 433,-589 439,-583 445,-583 445,-583 546,-583 546,-583 552,-583 558,-589 558,-595 558,-595 558,-609 558,-609 558,-615 552,-621 546,-621"/>
<text text-anchor="middle" x="495.5" y="-605.8" font-family="Segoe UI" font-size="14.00" fill="#e2e8f0">Workspaces</text>
<text text-anchor="middle" x="495.5" y="-590.8" font-family="Segoe UI" font-size="14.00" fill="#e2e8f0">WorkspacePage</text>
</g>
<!-- navigation&#45;&gt;hidden_Workspaces -->
<g id="edge72" class="edge">
<title>navigation&#45;&gt;hidden_Workspaces</title>
<path fill="none" stroke="#fb923c" stroke-width="1.3" stroke-dasharray="5,2" d="M198.03,-1544.75C219.1,-1540.44 240.26,-1531.75 254,-1515 316.27,-1439.12 250.69,-704.48 319,-634 345.85,-606.3 388.13,-597.98 424.46,-596.74"/>
<polygon fill="#fb923c" stroke="#fb923c" stroke-width="1.3" points="424.65,-599.53 432.6,-596.57 424.54,-593.93 424.65,-599.53"/>
</g>
<!-- hidden_Welcome -->
<g id="node73" class="node">
<title>hidden_Welcome</title>
<path fill="#431407" stroke="#fb923c" d="M539.5,-558C539.5,-558 451.5,-558 451.5,-558 445.5,-558 439.5,-552 439.5,-546 439.5,-546 439.5,-532 439.5,-532 439.5,-526 445.5,-520 451.5,-520 451.5,-520 539.5,-520 539.5,-520 545.5,-520 551.5,-526 551.5,-532 551.5,-532 551.5,-546 551.5,-546 551.5,-552 545.5,-558 539.5,-558"/>
<text text-anchor="middle" x="495.5" y="-542.8" font-family="Segoe UI" font-size="14.00" fill="#e2e8f0">Welcome</text>
<text text-anchor="middle" x="495.5" y="-527.8" font-family="Segoe UI" font-size="14.00" fill="#e2e8f0">WelcomePage</text>
</g>
<!-- navigation&#45;&gt;hidden_Welcome -->
<g id="edge73" class="edge">
<title>navigation&#45;&gt;hidden_Welcome</title>
<path fill="none" stroke="#fb923c" stroke-width="1.3" stroke-dasharray="5,2" d="M198.07,-1544.79C219.15,-1540.48 240.3,-1531.78 254,-1515 320.5,-1433.56 245.59,-646.26 319,-571 347.55,-541.73 393.33,-534.14 430.97,-533.65"/>
<polygon fill="#fb923c" stroke="#fb923c" stroke-width="1.3" points="431.36,-536.45 439.36,-533.66 431.36,-530.85 431.36,-536.45"/>
</g>
<!-- hidden_CredentialManagement -->
<g id="node74" class="node">
<title>hidden_CredentialManagement</title>
<path fill="#431407" stroke="#fb923c" d="M589,-495C589,-495 402,-495 402,-495 396,-495 390,-489 390,-483 390,-483 390,-469 390,-469 390,-463 396,-457 402,-457 402,-457 589,-457 589,-457 595,-457 601,-463 601,-469 601,-469 601,-483 601,-483 601,-489 595,-495 589,-495"/>
<text text-anchor="middle" x="495.5" y="-479.8" font-family="Segoe UI" font-size="14.00" fill="#e2e8f0">CredentialManagement</text>
<text text-anchor="middle" x="495.5" y="-464.8" font-family="Segoe UI" font-size="14.00" fill="#e2e8f0">CredentialManagementPage</text>
</g>
<!-- navigation&#45;&gt;hidden_CredentialManagement -->
<g id="edge74" class="edge">
<title>navigation&#45;&gt;hidden_CredentialManagement</title>
<path fill="none" stroke="#fb923c" stroke-width="1.3" stroke-dasharray="5,2" d="M198.11,-1544.83C219.19,-1540.51 240.33,-1531.81 254,-1515 324.74,-1428.01 240.4,-587.96 319,-508 335.78,-490.94 358.41,-481.26 381.84,-476.06"/>
<polygon fill="#fb923c" stroke="#fb923c" stroke-width="1.3" points="382.52,-478.78 389.81,-474.46 381.42,-473.29 382.52,-478.78"/>
</g>
<!-- hidden_KeyboardShortcuts -->
<g id="node75" class="node">
<title>hidden_KeyboardShortcuts</title>
<path fill="#431407" stroke="#fb923c" d="M574,-432C574,-432 417,-432 417,-432 411,-432 405,-426 405,-420 405,-420 405,-406 405,-406 405,-400 411,-394 417,-394 417,-394 574,-394 574,-394 580,-394 586,-400 586,-406 586,-406 586,-420 586,-420 586,-426 580,-432 574,-432"/>
<text text-anchor="middle" x="495.5" y="-416.8" font-family="Segoe UI" font-size="14.00" fill="#e2e8f0">KeyboardShortcuts</text>
<text text-anchor="middle" x="495.5" y="-401.8" font-family="Segoe UI" font-size="14.00" fill="#e2e8f0">KeyboardShortcutsPage</text>
</g>
<!-- navigation&#45;&gt;hidden_KeyboardShortcuts -->
<g id="edge75" class="edge">
<title>navigation&#45;&gt;hidden_KeyboardShortcuts</title>
<path fill="none" stroke="#fb923c" stroke-width="1.3" stroke-dasharray="5,2" d="M198.15,-1544.85C219.23,-1540.54 240.36,-1531.83 254,-1515 328.98,-1422.45 235.05,-529.49 319,-445 339.35,-424.52 368.16,-414.71 396.56,-410.52"/>
<polygon fill="#fb923c" stroke="#fb923c" stroke-width="1.3" points="396.98,-413.29 404.55,-409.48 396.26,-407.73 396.98,-413.29"/>
</g>
<!-- hidden_SetupWizard -->
<g id="node76" class="node">
<title>hidden_SetupWizard</title>
<path fill="#431407" stroke="#fb923c" d="M552,-369C552,-369 439,-369 439,-369 433,-369 427,-363 427,-357 427,-357 427,-343 427,-343 427,-337 433,-331 439,-331 439,-331 552,-331 552,-331 558,-331 564,-337 564,-343 564,-343 564,-357 564,-357 564,-363 558,-369 552,-369"/>
<text text-anchor="middle" x="495.5" y="-353.8" font-family="Segoe UI" font-size="14.00" fill="#e2e8f0">SetupWizard</text>
<text text-anchor="middle" x="495.5" y="-338.8" font-family="Segoe UI" font-size="14.00" fill="#e2e8f0">SetupWizardPage</text>
</g>
<!-- navigation&#45;&gt;hidden_SetupWizard -->
<g id="edge76" class="edge">
<title>navigation&#45;&gt;hidden_SetupWizard</title>
<path fill="none" stroke="#fb923c" stroke-width="1.3" stroke-dasharray="5,2" d="M198.18,-1544.88C219.26,-1540.57 240.39,-1531.86 254,-1515 333.23,-1416.9 229.53,-470.85 319,-382 344.84,-356.34 383.96,-347.5 418.72,-345.44"/>
<polygon fill="#fb923c" stroke="#fb923c" stroke-width="1.3" points="419.12,-348.23 426.98,-345.07 418.87,-342.63 419.12,-348.23"/>
</g>
<!-- hidden_AddProviderWizard -->
<g id="node77" class="node">
<title>hidden_AddProviderWizard</title>
<path fill="#431407" stroke="#fb923c" d="M574,-306C574,-306 417,-306 417,-306 411,-306 405,-300 405,-294 405,-294 405,-280 405,-280 405,-274 411,-268 417,-268 417,-268 574,-268 574,-268 580,-268 586,-274 586,-280 586,-280 586,-294 586,-294 586,-300 580,-306 574,-306"/>
<text text-anchor="middle" x="495.5" y="-290.8" font-family="Segoe UI" font-size="14.00" fill="#e2e8f0">AddProviderWizard</text>
<text text-anchor="middle" x="495.5" y="-275.8" font-family="Segoe UI" font-size="14.00" fill="#e2e8f0">AddProviderWizardPage</text>
</g>
<!-- navigation&#45;&gt;hidden_AddProviderWizard -->
<g id="edge77" class="edge">
<title>navigation&#45;&gt;hidden_AddProviderWizard</title>
<path fill="none" stroke="#fb923c" stroke-width="1.3" stroke-dasharray="5,2" d="M198.2,-1544.9C219.29,-1540.59 240.41,-1531.87 254,-1515 337.5,-1411.37 224.34,-412.55 319,-319 339.54,-298.7 368.4,-288.95 396.79,-284.74"/>
<polygon fill="#fb923c" stroke="#fb923c" stroke-width="1.3" points="397.21,-287.51 404.78,-283.7 396.48,-281.96 397.21,-287.51"/>
</g>
<!-- hidden_DashboardWeb -->
<g id="node78" class="node">
<title>hidden_DashboardWeb</title>
<path fill="#431407" stroke="#fb923c" d="M561,-243C561,-243 430,-243 430,-243 424,-243 418,-237 418,-231 418,-231 418,-217 418,-217 418,-211 424,-205 430,-205 430,-205 561,-205 561,-205 567,-205 573,-211 573,-217 573,-217 573,-231 573,-231 573,-237 567,-243 561,-243"/>
<text text-anchor="middle" x="495.5" y="-227.8" font-family="Segoe UI" font-size="14.00" fill="#e2e8f0">DashboardWeb</text>
<text text-anchor="middle" x="495.5" y="-212.8" font-family="Segoe UI" font-size="14.00" fill="#e2e8f0">DashboardWebPage</text>
</g>
<!-- navigation&#45;&gt;hidden_DashboardWeb -->
<g id="edge78" class="edge">
<title>navigation&#45;&gt;hidden_DashboardWeb</title>
<path fill="none" stroke="#fb923c" stroke-width="1.3" stroke-dasharray="5,2" d="M198.22,-1544.91C219.31,-1540.61 240.42,-1531.89 254,-1515 292.83,-1466.7 282.86,-461.56 290,-400 297.52,-335.15 272.41,-301.74 319,-256 342.74,-232.7 377.44,-223.31 409.74,-220.27"/>
<polygon fill="#fb923c" stroke="#fb923c" stroke-width="1.3" points="410.14,-223.05 417.89,-219.63 409.7,-217.47 410.14,-223.05"/>
</g>
<!-- hidden_ActivityLog -->
<g id="node79" class="node">
<title>hidden_ActivityLog</title>
<path fill="#431407" stroke="#fb923c" d="M546,-180C546,-180 445,-180 445,-180 439,-180 433,-174 433,-168 433,-168 433,-154 433,-154 433,-148 439,-142 445,-142 445,-142 546,-142 546,-142 552,-142 558,-148 558,-154 558,-154 558,-168 558,-168 558,-174 552,-180 546,-180"/>
<text text-anchor="middle" x="495.5" y="-164.8" font-family="Segoe UI" font-size="14.00" fill="#e2e8f0">ActivityLog</text>
<text text-anchor="middle" x="495.5" y="-149.8" font-family="Segoe UI" font-size="14.00" fill="#e2e8f0">ActivityLogPage</text>
</g>
<!-- navigation&#45;&gt;hidden_ActivityLog -->
<g id="edge79" class="edge">
<title>navigation&#45;&gt;hidden_ActivityLog</title>
<path fill="none" stroke="#fb923c" stroke-width="1.3" stroke-dasharray="5,2" d="M198.25,-1544.93C219.34,-1540.63 240.45,-1531.9 254,-1515 296.21,-1462.36 280.18,-367.76 290,-301 297.23,-251.83 282.45,-226.67 319,-193 347.17,-167.05 389.07,-158.71 424.86,-157.01"/>
<polygon fill="#fb923c" stroke="#fb923c" stroke-width="1.3" points="424.97,-159.81 432.87,-156.73 424.78,-154.21 424.97,-159.81"/>
</g>
<!-- hidden_SecurityMaster -->
<g id="node80" class="node">
<title>hidden_SecurityMaster</title>
<path fill="#431407" stroke="#fb923c" d="M560.5,-117C560.5,-117 430.5,-117 430.5,-117 424.5,-117 418.5,-111 418.5,-105 418.5,-105 418.5,-91 418.5,-91 418.5,-85 424.5,-79 430.5,-79 430.5,-79 560.5,-79 560.5,-79 566.5,-79 572.5,-85 572.5,-91 572.5,-91 572.5,-105 572.5,-105 572.5,-111 566.5,-117 560.5,-117"/>
<text text-anchor="middle" x="495.5" y="-101.8" font-family="Segoe UI" font-size="14.00" fill="#e2e8f0">SecurityMaster</text>
<text text-anchor="middle" x="495.5" y="-86.8" font-family="Segoe UI" font-size="14.00" fill="#e2e8f0">SecurityMasterPage</text>
</g>
<!-- navigation&#45;&gt;hidden_SecurityMaster -->
<g id="edge80" class="edge">
<title>navigation&#45;&gt;hidden_SecurityMaster</title>
<path fill="none" stroke="#fb923c" stroke-width="1.3" stroke-dasharray="5,2" d="M198.25,-1544.94C219.34,-1540.63 240.45,-1531.91 254,-1515 296.62,-1461.83 282.87,-356.77 290,-289 297.52,-217.56 268.21,-180.79 319,-130 342.62,-106.38 377.49,-96.98 409.94,-94.02"/>
<polygon fill="#fb923c" stroke="#fb923c" stroke-width="1.3" points="410.36,-96.79 418.13,-93.4 409.94,-91.21 410.36,-96.79"/>
</g>
<!-- hidden_DirectLending -->
<g id="node81" class="node">
<title>hidden_DirectLending</title>
<path fill="#431407" stroke="#fb923c" d="M556.5,-54C556.5,-54 434.5,-54 434.5,-54 428.5,-54 422.5,-48 422.5,-42 422.5,-42 422.5,-28 422.5,-28 422.5,-22 428.5,-16 434.5,-16 434.5,-16 556.5,-16 556.5,-16 562.5,-16 568.5,-22 568.5,-28 568.5,-28 568.5,-42 568.5,-42 568.5,-48 562.5,-54 556.5,-54"/>
<text text-anchor="middle" x="495.5" y="-38.8" font-family="Segoe UI" font-size="14.00" fill="#e2e8f0">DirectLending</text>
<text text-anchor="middle" x="495.5" y="-23.8" font-family="Segoe UI" font-size="14.00" fill="#e2e8f0">DirectLendingPage</text>
</g>
<!-- navigation&#45;&gt;hidden_DirectLending -->
<g id="edge81" class="edge">
<title>navigation&#45;&gt;hidden_DirectLending</title>
<path fill="none" stroke="#fb923c" stroke-width="1.3" stroke-dasharray="5,2" d="M198.28,-1544.96C219.37,-1540.65 240.47,-1531.92 254,-1515 300.61,-1456.7 278.98,-245.82 290,-172 297.15,-124.12 283.28,-99.67 319,-67 344.39,-43.78 380.79,-34.69 413.86,-31.83"/>
<polygon fill="#fb923c" stroke="#fb923c" stroke-width="1.3" points="414.41,-34.6 422.19,-31.24 414.01,-29.01 414.41,-34.6"/>
</g>
<!-- page_ResearchShell -->
<g id="node5" class="node">
<title>page_ResearchShell</title>
<path fill="#1e293b" stroke="#475569" d="M1111.5,-3107C1111.5,-3107 795.5,-3107 795.5,-3107 789.5,-3107 783.5,-3101 783.5,-3095 783.5,-3095 783.5,-3081 783.5,-3081 783.5,-3075 789.5,-3069 795.5,-3069 795.5,-3069 1111.5,-3069 1111.5,-3069 1117.5,-3069 1123.5,-3075 1123.5,-3081 1123.5,-3081 1123.5,-3095 1123.5,-3095 1123.5,-3101 1117.5,-3107 1111.5,-3107"/>
<text text-anchor="middle" x="953.5" y="-3091.8" font-family="Segoe UI" font-size="14.00" fill="#e2e8f0">ResearchShell</text>
<text text-anchor="middle" x="953.5" y="-3076.8" font-family="Segoe UI" font-size="14.00" fill="#e2e8f0">ResearchShell → ResearchWorkspaceShellPage</text>
</g>
<!-- workspace_1&#45;&gt;page_ResearchShell -->
<g id="edge3" class="edge">
<title>workspace_1&#45;&gt;page_ResearchShell</title>
<path fill="none" stroke="#94a3b8" stroke-width="1.3" d="M499.39,-3887.78C516.5,-3776.95 608.06,-3220.94 738,-3120 749.42,-3111.13 762.23,-3104.21 775.77,-3098.84"/>
<polygon fill="#94a3b8" stroke="#94a3b8" stroke-width="1.3" points="776.84,-3101.42 783.36,-3096.01 774.89,-3096.18 776.84,-3101.42"/>
</g>
<!-- page_Backtest -->
<g id="node6" class="node">
<title>page_Backtest</title>
<path fill="#1e293b" stroke="#475569" d="M1037,-3170C1037,-3170 870,-3170 870,-3170 864,-3170 858,-3164 858,-3158 858,-3158 858,-3144 858,-3144 858,-3138 864,-3132 870,-3132 870,-3132 1037,-3132 1037,-3132 1043,-3132 1049,-3138 1049,-3144 1049,-3144 1049,-3158 1049,-3158 1049,-3164 1043,-3170 1037,-3170"/>
<text text-anchor="middle" x="953.5" y="-3154.8" font-family="Segoe UI" font-size="14.00" fill="#e2e8f0">Backtest</text>
<text text-anchor="middle" x="953.5" y="-3139.8" font-family="Segoe UI" font-size="14.00" fill="#e2e8f0">Backtest → BacktestPage</text>
</g>
<!-- workspace_1&#45;&gt;page_Backtest -->
<g id="edge4" class="edge">
<title>workspace_1&#45;&gt;page_Backtest</title>
<path fill="none" stroke="#94a3b8" stroke-width="1.3" d="M495.95,-3887.73C494.41,-3792.3 501.36,-3367.59 738,-3183 769.32,-3158.57 811.25,-3148.84 849.73,-3145.84"/>
<polygon fill="#94a3b8" stroke="#94a3b8" stroke-width="1.3" points="850.09,-3148.63 857.89,-3145.3 849.72,-3143.04 850.09,-3148.63"/>
</g>
<!-- page_Charts -->
<g id="node7" class="node">
<title>page_Charts</title>
<path fill="#1e293b" stroke="#475569" d="M1029.5,-3233C1029.5,-3233 877.5,-3233 877.5,-3233 871.5,-3233 865.5,-3227 865.5,-3221 865.5,-3221 865.5,-3207 865.5,-3207 865.5,-3201 871.5,-3195 877.5,-3195 877.5,-3195 1029.5,-3195 1029.5,-3195 1035.5,-3195 1041.5,-3201 1041.5,-3207 1041.5,-3207 1041.5,-3221 1041.5,-3221 1041.5,-3227 1035.5,-3233 1029.5,-3233"/>
<text text-anchor="middle" x="953.5" y="-3217.8" font-family="Segoe UI" font-size="14.00" fill="#e2e8f0">Charts</text>
<text text-anchor="middle" x="953.5" y="-3202.8" font-family="Segoe UI" font-size="14.00" fill="#e2e8f0">Charts → ChartingPage</text>
</g>
<!-- workspace_1&#45;&gt;page_Charts -->
<g id="edge5" class="edge">
<title>workspace_1&#45;&gt;page_Charts</title>
<path fill="none" stroke="#94a3b8" stroke-width="1.3" d="M496.73,-3887.71C498.95,-3797.55 521.25,-3415.07 738,-3246 771.4,-3219.95 816.87,-3210.61 857.35,-3208.33"/>
<polygon fill="#94a3b8" stroke="#94a3b8" stroke-width="1.3" points="857.51,-3211.13 865.37,-3207.97 857.25,-3205.54 857.51,-3211.13"/>
</g>
<!-- page_QuantScript -->
<g id="node8" class="node">
<title>page_QuantScript</title>
<path fill="#1e293b" stroke="#475569" d="M1060,-3296C1060,-3296 847,-3296 847,-3296 841,-3296 835,-3290 835,-3284 835,-3284 835,-3270 835,-3270 835,-3264 841,-3258 847,-3258 847,-3258 1060,-3258 1060,-3258 1066,-3258 1072,-3264 1072,-3270 1072,-3270 1072,-3284 1072,-3284 1072,-3290 1066,-3296 1060,-3296"/>
<text text-anchor="middle" x="953.5" y="-3280.8" font-family="Segoe UI" font-size="14.00" fill="#e2e8f0">QuantScript</text>
<text text-anchor="middle" x="953.5" y="-3265.8" font-family="Segoe UI" font-size="14.00" fill="#e2e8f0">QuantScript → QuantScriptPage</text>
</g>
<!-- workspace_1&#45;&gt;page_QuantScript -->
<g id="edge6" class="edge">
<title>workspace_1&#45;&gt;page_QuantScript</title>
<path fill="none" stroke="#94a3b8" stroke-width="1.3" d="M497.63,-3887.96C503.75,-3803.78 540.38,-3462.52 738,-3309 763.22,-3289.41 795.27,-3279.29 826.86,-3274.51"/>
<polygon fill="#94a3b8" stroke="#94a3b8" stroke-width="1.3" points="827.33,-3277.27 834.88,-3273.41 826.57,-3271.72 827.33,-3277.27"/>
</g>
<!-- page_RunMat -->
<g id="node9" class="node">
<title>page_RunMat</title>
<path fill="#1e293b" stroke="#475569" d="M1029.5,-3359C1029.5,-3359 877.5,-3359 877.5,-3359 871.5,-3359 865.5,-3353 865.5,-3347 865.5,-3347 865.5,-3333 865.5,-3333 865.5,-3327 871.5,-3321 877.5,-3321 877.5,-3321 1029.5,-3321 1029.5,-3321 1035.5,-3321 1041.5,-3327 1041.5,-3333 1041.5,-3333 1041.5,-3347 1041.5,-3347 1041.5,-3353 1035.5,-3359 1029.5,-3359"/>
<text text-anchor="middle" x="953.5" y="-3343.8" font-family="Segoe UI" font-size="14.00" fill="#e2e8f0">RunMat</text>
<text text-anchor="middle" x="953.5" y="-3328.8" font-family="Segoe UI" font-size="14.00" fill="#e2e8f0">RunMat → RunMatPage</text>
</g>
<!-- workspace_1&#45;&gt;page_RunMat -->
<g id="edge7" class="edge">
<title>workspace_1&#45;&gt;page_RunMat</title>
<path fill="none" stroke="#94a3b8" stroke-width="1.3" d="M498.67,-3887.89C508.68,-3809.21 557.96,-3508.14 738,-3372 771.72,-3346.51 817.11,-3337.22 857.46,-3334.82"/>
<polygon fill="#94a3b8" stroke="#94a3b8" stroke-width="1.3" points="857.6,-3337.62 865.46,-3334.44 857.33,-3332.03 857.6,-3337.62"/>
</g>
<!-- page_EventReplay -->
<g id="node10" class="node">
<title>page_EventReplay</title>
<path fill="#1e293b" stroke="#475569" d="M1063,-3422C1063,-3422 844,-3422 844,-3422 838,-3422 832,-3416 832,-3410 832,-3410 832,-3396 832,-3396 832,-3390 838,-3384 844,-3384 844,-3384 1063,-3384 1063,-3384 1069,-3384 1075,-3390 1075,-3396 1075,-3396 1075,-3410 1075,-3410 1075,-3416 1069,-3422 1063,-3422"/>
<text text-anchor="middle" x="953.5" y="-3406.8" font-family="Segoe UI" font-size="14.00" fill="#e2e8f0">EventReplay</text>
<text text-anchor="middle" x="953.5" y="-3391.8" font-family="Segoe UI" font-size="14.00" fill="#e2e8f0">EventReplay → EventReplayPage</text>
</g>
<!-- workspace_1&#45;&gt;page_EventReplay -->
<g id="edge8" class="edge">
<title>workspace_1&#45;&gt;page_EventReplay</title>
<path fill="none" stroke="#94a3b8" stroke-width="1.3" d="M511.18,-3887.73C548.34,-3838.07 647.07,-3700.63 702,-3572 726.72,-3514.1 691.13,-3477.03 738,-3435 761.52,-3413.91 792.66,-3403.21 823.89,-3398.35"/>
<polygon fill="#94a3b8" stroke="#94a3b8" stroke-width="1.3" points="824.3,-3401.12 831.83,-3397.24 823.52,-3395.58 824.3,-3401.12"/>
</g>
<!-- page_StrategyRuns -->
<g id="node11" class="node">
<title>page_StrategyRuns</title>
<path fill="#1e293b" stroke="#475569" d="M1070.5,-3485C1070.5,-3485 836.5,-3485 836.5,-3485 830.5,-3485 824.5,-3479 824.5,-3473 824.5,-3473 824.5,-3459 824.5,-3459 824.5,-3453 830.5,-3447 836.5,-3447 836.5,-3447 1070.5,-3447 1070.5,-3447 1076.5,-3447 1082.5,-3453 1082.5,-3459 1082.5,-3459 1082.5,-3473 1082.5,-3473 1082.5,-3479 1076.5,-3485 1070.5,-3485"/>
<text text-anchor="middle" x="953.5" y="-3469.8" font-family="Segoe UI" font-size="14.00" fill="#e2e8f0">StrategyRuns</text>
<text text-anchor="middle" x="953.5" y="-3454.8" font-family="Segoe UI" font-size="14.00" fill="#e2e8f0">StrategyRuns → StrategyRunsPage</text>
</g>
<!-- workspace_1&#45;&gt;page_StrategyRuns -->
<g id="edge9" class="edge">
<title>workspace_1&#45;&gt;page_StrategyRuns</title>
<path fill="none" stroke="#94a3b8" stroke-width="1.3" d="M517.65,-3887.98C560.41,-3856.28 656.92,-3790.37 702,-3707 749.33,-3619.46 667.16,-3555.9 738,-3486 773.59,-3450.89 829.96,-3443.59 875.99,-3446.37"/>
<polygon fill="#94a3b8" stroke="#94a3b8" stroke-width="1.3" points="875.97,-3449.18 884.16,-3446.98 876.39,-3443.6 875.97,-3449.18"/>
</g>
<!-- workspace_1&#45;&gt;page_StrategyRuns -->
<g id="edge13" class="edge">
<title>workspace_1&#45;&gt;page_StrategyRuns</title>
<path fill="none" stroke="#94a3b8" stroke-width="1.3" d="M542.87,-3887.96C591,-3858.94 664.4,-3801.55 702,-3732 749.33,-3644.46 667.16,-3580.9 738,-3511 758.95,-3490.33 787.09,-3479.3 816.09,-3473.58"/>
<polygon fill="#94a3b8" stroke="#94a3b8" stroke-width="1.3" points="816.91,-3476.28 824.29,-3472.1 815.92,-3470.77 816.91,-3476.28"/>
</g>
<!-- page_Watchlist -->
<g id="node12" class="node">
<title>page_Watchlist</title>
<path fill="#1e293b" stroke="#475569" d="M1040,-3548C1040,-3548 867,-3548 867,-3548 861,-3548 855,-3542 855,-3536 855,-3536 855,-3522 855,-3522 855,-3516 861,-3510 867,-3510 867,-3510 1040,-3510 1040,-3510 1046,-3510 1052,-3516 1052,-3522 1052,-3522 1052,-3536 1052,-3536 1052,-3542 1046,-3548 1040,-3548"/>
<text text-anchor="middle" x="953.5" y="-3532.8" font-family="Segoe UI" font-size="14.00" fill="#e2e8f0">Watchlist</text>
<text text-anchor="middle" x="953.5" y="-3517.8" font-family="Segoe UI" font-size="14.00" fill="#e2e8f0">Watchlist → WatchlistPage</text>
</g>
<!-- workspace_1&#45;&gt;page_Watchlist -->
<g id="edge10" class="edge">
<title>workspace_1&#45;&gt;page_Watchlist</title>
<path fill="none" stroke="#94a3b8" stroke-width="1.3" d="M557.87,-3890.27C605.01,-3874.09 667.67,-3844.73 702,-3796 762.86,-3709.62 663.14,-3635.57 738,-3561 766.2,-3532.91 807.7,-3522.56 846.7,-3520.09"/>
<polygon fill="#94a3b8" stroke="#94a3b8" stroke-width="1.3" points="847.12,-3522.88 854.97,-3519.68 846.85,-3517.28 847.12,-3522.88"/>
</g>
<!-- page_TradingShell -->
<g id="node13" class="node">
<title>page_TradingShell</title>
<path fill="#1e293b" stroke="#475569" d="M1100,-3611C1100,-3611 807,-3611 807,-3611 801,-3611 795,-3605 795,-3599 795,-3599 795,-3585 795,-3585 795,-3579 801,-3573 807,-3573 807,-3573 1100,-3573 1100,-3573 1106,-3573 1112,-3579 1112,-3585 1112,-3585 1112,-3599 1112,-3599 1112,-3605 1106,-3611 1100,-3611"/>
<text text-anchor="middle" x="953.5" y="-3595.8" font-family="Segoe UI" font-size="14.00" fill="#e2e8f0">TradingShell</text>
<text text-anchor="middle" x="953.5" y="-3580.8" font-family="Segoe UI" font-size="14.00" fill="#e2e8f0">TradingShell → TradingWorkspaceShellPage</text>
</g>
<!-- workspace_1&#45;&gt;page_TradingShell -->
<g id="edge11" class="edge">
<title>workspace_1&#45;&gt;page_TradingShell</title>
<path fill="none" stroke="#94a3b8" stroke-width="1.3" d="M557.96,-3902.87C604.5,-3896.35 666.32,-3879.79 702,-3838 764.63,-3764.65 669.17,-3691.56 738,-3624 751.81,-3610.44 768.73,-3601.04 786.94,-3594.67"/>
<polygon fill="#94a3b8" stroke="#94a3b8" stroke-width="1.3" points="788.07,-3597.24 794.82,-3592.12 786.35,-3591.92 788.07,-3597.24"/>
</g>
<!-- page_LiveData -->
<g id="node14" class="node">
<title>page_LiveData</title>
<path fill="#1e293b" stroke="#475569" d="M1060,-3674C1060,-3674 847,-3674 847,-3674 841,-3674 835,-3668 835,-3662 835,-3662 835,-3648 835,-3648 835,-3642 841,-3636 847,-3636 847,-3636 1060,-3636 1060,-3636 1066,-3636 1072,-3642 1072,-3648 1072,-3648 1072,-3662 1072,-3662 1072,-3668 1066,-3674 1060,-3674"/>
<text text-anchor="middle" x="953.5" y="-3658.8" font-family="Segoe UI" font-size="14.00" fill="#e2e8f0">LiveData</text>
<text text-anchor="middle" x="953.5" y="-3643.8" font-family="Segoe UI" font-size="14.00" fill="#e2e8f0">LiveData → LiveDataViewerPage</text>
</g>
<!-- workspace_1&#45;&gt;page_LiveData -->
<g id="edge12" class="edge">
<title>workspace_1&#45;&gt;page_LiveData</title>
<path fill="none" stroke="#94a3b8" stroke-width="1.3" d="M557.91,-3910.21C603.81,-3909.12 664.79,-3899.68 702,-3862 757.79,-3805.5 680.33,-3741.59 738,-3687 761.82,-3664.45 794.27,-3653.54 826.71,-3648.96"/>
<polygon fill="#94a3b8" stroke="#94a3b8" stroke-width="1.3" points="827.37,-3651.7 834.96,-3647.93 826.67,-3646.15 827.37,-3651.7"/>
</g>
<!-- page_RunPortfolio -->
<g id="node15" class="node">
<title>page_RunPortfolio</title>
<path fill="#1e293b" stroke="#475569" d="M1061,-3737C1061,-3737 846,-3737 846,-3737 840,-3737 834,-3731 834,-3725 834,-3725 834,-3711 834,-3711 834,-3705 840,-3699 846,-3699 846,-3699 1061,-3699 1061,-3699 1067,-3699 1073,-3705 1073,-3711 1073,-3711 1073,-3725 1073,-3725 1073,-3731 1067,-3737 1061,-3737"/>
<text text-anchor="middle" x="953.5" y="-3721.8" font-family="Segoe UI" font-size="14.00" fill="#e2e8f0">RunPortfolio</text>
<text text-anchor="middle" x="953.5" y="-3706.8" font-family="Segoe UI" font-size="14.00" fill="#e2e8f0">RunPortfolio → RunPortfolioPage</text>
</g>
<!-- workspace_1&#45;&gt;page_RunPortfolio -->
<g id="edge14" class="edge">
<title>workspace_1&#45;&gt;page_RunPortfolio</title>
<path fill="none" stroke="#94a3b8" stroke-width="1.3" d="M557.67,-3914.45C602.82,-3916.44 662.96,-3911.23 702,-3877 746.12,-3838.33 693.94,-3788.74 738,-3750 762.11,-3728.8 793.96,-3718.17 825.71,-3713.42"/>
<polygon fill="#94a3b8" stroke="#94a3b8" stroke-width="1.3" points="826.22,-3716.18 833.78,-3712.34 825.48,-3710.63 826.22,-3716.18"/>
</g>
<!-- page_TradingHours -->
<g id="node16" class="node">
<title>page_TradingHours</title>
<path fill="#1e293b" stroke="#475569" d="M1070,-3800C1070,-3800 837,-3800 837,-3800 831,-3800 825,-3794 825,-3788 825,-3788 825,-3774 825,-3774 825,-3768 831,-3762 837,-3762 837,-3762 1070,-3762 1070,-3762 1076,-3762 1082,-3768 1082,-3774 1082,-3774 1082,-3788 1082,-3788 1082,-3794 1076,-3800 1070,-3800"/>
<text text-anchor="middle" x="953.5" y="-3784.8" font-family="Segoe UI" font-size="14.00" fill="#e2e8f0">TradingHours</text>
<text text-anchor="middle" x="953.5" y="-3769.8" font-family="Segoe UI" font-size="14.00" fill="#e2e8f0">TradingHours → TradingHoursPage</text>
</g>
<!-- workspace_1&#45;&gt;page_TradingHours -->
<g id="edge15" class="edge">
<title>workspace_1&#45;&gt;page_TradingHours</title>
<path fill="none" stroke="#94a3b8" stroke-width="1.3" d="M557.58,-3915.5C601.53,-3918.34 660.18,-3915.06 702,-3886 731.71,-3865.36 708.78,-3834.32 738,-3813 760.87,-3796.31 788.8,-3786.67 816.86,-3781.37"/>
<polygon fill="#94a3b8" stroke="#94a3b8" stroke-width="1.3" points="817.37,-3784.12 824.77,-3779.99 816.41,-3778.61 817.37,-3784.12"/>
</g>
<!-- page_PositionBlotter -->
<g id="node17" class="node">
<title>page_PositionBlotter</title>
<path fill="#1e293b" stroke="#475569" d="M1077.5,-3863C1077.5,-3863 829.5,-3863 829.5,-3863 823.5,-3863 817.5,-3857 817.5,-3851 817.5,-3851 817.5,-3837 817.5,-3837 817.5,-3831 823.5,-3825 829.5,-3825 829.5,-3825 1077.5,-3825 1077.5,-3825 1083.5,-3825 1089.5,-3831 1089.5,-3837 1089.5,-3837 1089.5,-3851 1089.5,-3851 1089.5,-3857 1083.5,-3863 1077.5,-3863"/>
<text text-anchor="middle" x="953.5" y="-3847.8" font-family="Segoe UI" font-size="14.00" fill="#e2e8f0">PositionBlotter</text>
<text text-anchor="middle" x="953.5" y="-3832.8" font-family="Segoe UI" font-size="14.00" fill="#e2e8f0">PositionBlotter → PositionBlotterPage</text>
</g>
<!-- workspace_1&#45;&gt;page_PositionBlotter -->
<g id="edge16" class="edge">
<title>workspace_1&#45;&gt;page_PositionBlotter</title>
<path fill="none" stroke="#94a3b8" stroke-width="1.3" d="M557.78,-3909.45C599.19,-3909.58 654.71,-3906.75 702,-3894 719.27,-3889.34 720.94,-3881.39 738,-3876 760.66,-3868.84 785.19,-3863.27 809.28,-3858.94"/>
<polygon fill="#94a3b8" stroke="#94a3b8" stroke-width="1.3" points="810.03,-3861.65 817.43,-3857.51 809.07,-3856.13 810.03,-3861.65"/>
</g>
<!-- page_NotificationCenter -->
<g id="node18" class="node">
<title>page_NotificationCenter</title>
<path fill="#1e293b" stroke="#475569" d="M1102,-3926C1102,-3926 805,-3926 805,-3926 799,-3926 793,-3920 793,-3914 793,-3914 793,-3900 793,-3900 793,-3894 799,-3888 805,-3888 805,-3888 1102,-3888 1102,-3888 1108,-3888 1114,-3894 1114,-3900 1114,-3900 1114,-3914 1114,-3914 1114,-3920 1108,-3926 1102,-3926"/>
<text text-anchor="middle" x="953.5" y="-3910.8" font-family="Segoe UI" font-size="14.00" fill="#e2e8f0">NotificationCenter</text>
<text text-anchor="middle" x="953.5" y="-3895.8" font-family="Segoe UI" font-size="14.00" fill="#e2e8f0">NotificationCenter → NotificationCenterPage</text>
</g>
<!-- workspace_1&#45;&gt;page_NotificationCenter -->
<g id="edge17" class="edge">
<title>workspace_1&#45;&gt;page_NotificationCenter</title>
<path fill="none" stroke="#94a3b8" stroke-width="1.3" d="M557.53,-3900.63C615.48,-3898.3 705.29,-3897.52 784.64,-3898.28"/>
<polygon fill="#94a3b8" stroke="#94a3b8" stroke-width="1.3" points="784.75,-3901.09 792.78,-3898.37 784.81,-3895.49 784.75,-3901.09"/>
</g>
<!-- workspace_1&#45;&gt;page_NotificationCenter -->
<g id="edge30" class="edge">
<title>workspace_1&#45;&gt;page_NotificationCenter</title>
<path fill="none" stroke="#94a3b8" stroke-width="1.3" d="M557.53,-3913.9C615.48,-3916.42 705.29,-3917.27 784.64,-3916.44"/>
<polygon fill="#94a3b8" stroke="#94a3b8" stroke-width="1.3" points="784.81,-3919.24 792.78,-3916.35 784.75,-3913.64 784.81,-3919.24"/>
</g>
<!-- page_DataOperationsShell -->
<g id="node19" class="node">
<title>page_DataOperationsShell</title>
<path fill="#1e293b" stroke="#475569" d="M1157,-3989C1157,-3989 750,-3989 750,-3989 744,-3989 738,-3983 738,-3977 738,-3977 738,-3963 738,-3963 738,-3957 744,-3951 750,-3951 750,-3951 1157,-3951 1157,-3951 1163,-3951 1169,-3957 1169,-3963 1169,-3963 1169,-3977 1169,-3977 1169,-3983 1163,-3989 1157,-3989"/>
<text text-anchor="middle" x="953.5" y="-3973.8" font-family="Segoe UI" font-size="14.00" fill="#e2e8f0">DataOperationsShell</text>
<text text-anchor="middle" x="953.5" y="-3958.8" font-family="Segoe UI" font-size="14.00" fill="#e2e8f0">DataOperationsShell → DataOperationsWorkspaceShellPage</text>
</g>
<!-- workspace_1&#45;&gt;page_DataOperationsShell -->
<g id="edge18" class="edge">
<title>workspace_1&#45;&gt;page_DataOperationsShell</title>
<path fill="none" stroke="#94a3b8" stroke-width="1.3" d="M557.53,-3915.43C620.89,-3924.18 722.33,-3938.2 806.54,-3949.83"/>
<polygon fill="#94a3b8" stroke="#94a3b8" stroke-width="1.3" points="806.33,-3952.63 814.64,-3950.95 807.09,-3947.08 806.33,-3952.63"/>
</g>
<!-- page_Provider -->
<g id="node20" class="node">
<title>page_Provider</title>
<path fill="#1e293b" stroke="#475569" d="M1034,-4052C1034,-4052 873,-4052 873,-4052 867,-4052 861,-4046 861,-4040 861,-4040 861,-4026 861,-4026 861,-4020 867,-4014 873,-4014 873,-4014 1034,-4014 1034,-4014 1040,-4014 1046,-4020 1046,-4026 1046,-4026 1046,-4040 1046,-4040 1046,-4046 1040,-4052 1034,-4052"/>
<text text-anchor="middle" x="953.5" y="-4036.8" font-family="Segoe UI" font-size="14.00" fill="#e2e8f0">Provider</text>
<text text-anchor="middle" x="953.5" y="-4021.8" font-family="Segoe UI" font-size="14.00" fill="#e2e8f0">Provider → ProviderPage</text>
</g>
<!-- workspace_1&#45;&gt;page_Provider -->
<g id="edge19" class="edge">
<title>workspace_1&#45;&gt;page_Provider</title>
<path fill="none" stroke="#94a3b8" stroke-width="1.3" d="M536.55,-3926.08C583.69,-3947.75 664.84,-3982.6 738,-4002 774.86,-4011.77 816.14,-4018.66 852.58,-4023.43"/>
<polygon fill="#94a3b8" stroke="#94a3b8" stroke-width="1.3" points="852.47,-4026.23 860.76,-4024.47 853.18,-4020.68 852.47,-4026.23"/>
</g>
<!-- page_Symbols -->
<g id="node21" class="node">
<title>page_Symbols</title>
<path fill="#1e293b" stroke="#475569" d="M1036,-4115C1036,-4115 871,-4115 871,-4115 865,-4115 859,-4109 859,-4103 859,-4103 859,-4089 859,-4089 859,-4083 865,-4077 871,-4077 871,-4077 1036,-4077 1036,-4077 1042,-4077 1048,-4083 1048,-4089 1048,-4089 1048,-4103 1048,-4103 1048,-4109 1042,-4115 1036,-4115"/>
<text text-anchor="middle" x="953.5" y="-4099.8" font-family="Segoe UI" font-size="14.00" fill="#e2e8f0">Symbols</text>
<text text-anchor="middle" x="953.5" y="-4084.8" font-family="Segoe UI" font-size="14.00" fill="#e2e8f0">Symbols → SymbolsPage</text>
</g>
<!-- workspace_1&#45;&gt;page_Symbols -->
<g id="edge20" class="edge">
<title>workspace_1&#45;&gt;page_Symbols</title>
<path fill="none" stroke="#94a3b8" stroke-width="1.3" d="M518.3,-3926.11C558.58,-3960.24 648.72,-4031.25 738,-4065 773.5,-4078.42 814.33,-4086.08 850.77,-4090.43"/>
<polygon fill="#94a3b8" stroke="#94a3b8" stroke-width="1.3" points="850.7,-4093.24 858.96,-4091.36 851.33,-4087.68 850.7,-4093.24"/>
</g>
<!-- page_Backfill -->
<g id="node22" class="node">
<title>page_Backfill</title>
<path fill="#1e293b" stroke="#475569" d="M1027,-4178C1027,-4178 880,-4178 880,-4178 874,-4178 868,-4172 868,-4166 868,-4166 868,-4152 868,-4152 868,-4146 874,-4140 880,-4140 880,-4140 1027,-4140 1027,-4140 1033,-4140 1039,-4146 1039,-4152 1039,-4152 1039,-4166 1039,-4166 1039,-4172 1033,-4178 1027,-4178"/>
<text text-anchor="middle" x="953.5" y="-4162.8" font-family="Segoe UI" font-size="14.00" fill="#e2e8f0">Backfill</text>
<text text-anchor="middle" x="953.5" y="-4147.8" font-family="Segoe UI" font-size="14.00" fill="#e2e8f0">Backfill → BackfillPage</text>
</g>
<!-- workspace_1&#45;&gt;page_Backfill -->
<g id="edge21" class="edge">
<title>workspace_1&#45;&gt;page_Backfill</title>
<path fill="none" stroke="#94a3b8" stroke-width="1.3" d="M510.6,-3926.12C544.31,-3970.21 634.5,-4078.98 738,-4128 775.54,-4145.78 820.59,-4153.99 859.7,-4157.58"/>
<polygon fill="#94a3b8" stroke="#94a3b8" stroke-width="1.3" points="859.74,-4160.39 867.95,-4158.27 860.21,-4154.81 859.74,-4160.39"/>
</g>
<!-- page_Storage -->
<g id="node23" class="node">
<title>page_Storage</title>
<path fill="#1e293b" stroke="#475569" d="M1031,-4241C1031,-4241 876,-4241 876,-4241 870,-4241 864,-4235 864,-4229 864,-4229 864,-4215 864,-4215 864,-4209 870,-4203 876,-4203 876,-4203 1031,-4203 1031,-4203 1037,-4203 1043,-4209 1043,-4215 1043,-4215 1043,-4229 1043,-4229 1043,-4235 1037,-4241 1031,-4241"/>
<text text-anchor="middle" x="953.5" y="-4225.8" font-family="Segoe UI" font-size="14.00" fill="#e2e8f0">Storage</text>
<text text-anchor="middle" x="953.5" y="-4210.8" font-family="Segoe UI" font-size="14.00" fill="#e2e8f0">Storage → StoragePage</text>
</g>
<!-- workspace_1&#45;&gt;page_Storage -->
<g id="edge22" class="edge">
<title>workspace_1&#45;&gt;page_Storage</title>
<path fill="none" stroke="#94a3b8" stroke-width="1.3" d="M506.36,-3926.34C534.39,-3979.1 620.17,-4125.89 738,-4191 773.51,-4210.62 817.16,-4219.21 855.8,-4222.59"/>
<polygon fill="#94a3b8" stroke="#94a3b8" stroke-width="1.3" points="855.77,-4225.39 863.96,-4223.23 856.21,-4219.81 855.77,-4225.39"/>
</g>
<!-- page_CollectionSessions -->
<g id="node24" class="node">
<title>page_CollectionSessions</title>
<path fill="#1e293b" stroke="#475569" d="M1101.5,-4304C1101.5,-4304 805.5,-4304 805.5,-4304 799.5,-4304 793.5,-4298 793.5,-4292 793.5,-4292 793.5,-4278 793.5,-4278 793.5,-4272 799.5,-4266 805.5,-4266 805.5,-4266 1101.5,-4266 1101.5,-4266 1107.5,-4266 1113.5,-4272 1113.5,-4278 1113.5,-4278 1113.5,-4292 1113.5,-4292 1113.5,-4298 1107.5,-4304 1101.5,-4304"/>
<text text-anchor="middle" x="953.5" y="-4288.8" font-family="Segoe UI" font-size="14.00" fill="#e2e8f0">CollectionSessions</text>
<text text-anchor="middle" x="953.5" y="-4273.8" font-family="Segoe UI" font-size="14.00" fill="#e2e8f0">CollectionSessions → CollectionSessionPage</text>
</g>
<!-- workspace_1&#45;&gt;page_CollectionSessions -->
<g id="edge23" class="edge">
<title>workspace_1&#45;&gt;page_CollectionSessions</title>
<path fill="none" stroke="#94a3b8" stroke-width="1.3" d="M503.39,-3926.13C526.13,-3986.19 604.98,-4171.87 738,-4254 752.58,-4263 768.75,-4269.78 785.5,-4274.84"/>
<polygon fill="#94a3b8" stroke="#94a3b8" stroke-width="1.3" points="784.77,-4277.55 793.23,-4277.05 786.3,-4272.16 784.77,-4277.55"/>
</g>
<!-- page_PackageManager -->
<g id="node25" class="node">
<title>page_PackageManager</title>
<path fill="#1e293b" stroke="#475569" d="M1094,-4367C1094,-4367 813,-4367 813,-4367 807,-4367 801,-4361 801,-4355 801,-4355 801,-4341 801,-4341 801,-4335 807,-4329 813,-4329 813,-4329 1094,-4329 1094,-4329 1100,-4329 1106,-4335 1106,-4341 1106,-4341 1106,-4355 1106,-4355 1106,-4361 1100,-4367 1094,-4367"/>
<text text-anchor="middle" x="953.5" y="-4351.8" font-family="Segoe UI" font-size="14.00" fill="#e2e8f0">PackageManager</text>
<text text-anchor="middle" x="953.5" y="-4336.8" font-family="Segoe UI" font-size="14.00" fill="#e2e8f0">PackageManager → PackageManagerPage</text>
</g>
<!-- workspace_1&#45;&gt;page_PackageManager -->
<g id="edge24" class="edge">
<title>workspace_1&#45;&gt;page_PackageManager</title>
<path fill="none" stroke="#94a3b8" stroke-width="1.3" d="M501.37,-3926.15C519.44,-3993.01 589.48,-4217.34 738,-4317 754.55,-4328.11 773.43,-4335.94 792.98,-4341.39"/>
<polygon fill="#94a3b8" stroke="#94a3b8" stroke-width="1.3" points="792.34,-4344.12 800.79,-4343.43 793.76,-4338.7 792.34,-4344.12"/>
</g>
<!-- page_GovernanceShell -->
<g id="node26" class="node">
<title>page_GovernanceShell</title>
<path fill="#1e293b" stroke="#475569" d="M1131,-4430C1131,-4430 776,-4430 776,-4430 770,-4430 764,-4424 764,-4418 764,-4418 764,-4404 764,-4404 764,-4398 770,-4392 776,-4392 776,-4392 1131,-4392 1131,-4392 1137,-4392 1143,-4398 1143,-4404 1143,-4404 1143,-4418 1143,-4418 1143,-4424 1137,-4430 1131,-4430"/>
<text text-anchor="middle" x="953.5" y="-4414.8" font-family="Segoe UI" font-size="14.00" fill="#e2e8f0">GovernanceShell</text>
<text text-anchor="middle" x="953.5" y="-4399.8" font-family="Segoe UI" font-size="14.00" fill="#e2e8f0">GovernanceShell → GovernanceWorkspaceShellPage</text>
</g>
<!-- workspace_1&#45;&gt;page_GovernanceShell -->
<g id="edge25" class="edge">
<title>workspace_1&#45;&gt;page_GovernanceShell</title>
<path fill="none" stroke="#94a3b8" stroke-width="1.3" d="M499.84,-3926.17C513.66,-3999.28 573.6,-4262.36 738,-4380 743.83,-4384.17 749.98,-4387.89 756.36,-4391.21"/>
<polygon fill="#94a3b8" stroke="#94a3b8" stroke-width="1.3" points="755.55,-4393.93 763.97,-4394.92 758.01,-4388.89 755.55,-4393.93"/>
</g>
<!-- page_DataQuality -->
<g id="node27" class="node">
<title>page_DataQuality</title>
<path fill="#1e293b" stroke="#475569" d="M1058.5,-4493C1058.5,-4493 848.5,-4493 848.5,-4493 842.5,-4493 836.5,-4487 836.5,-4481 836.5,-4481 836.5,-4467 836.5,-4467 836.5,-4461 842.5,-4455 848.5,-4455 848.5,-4455 1058.5,-4455 1058.5,-4455 1064.5,-4455 1070.5,-4461 1070.5,-4467 1070.5,-4467 1070.5,-4481 1070.5,-4481 1070.5,-4487 1064.5,-4493 1058.5,-4493"/>
<text text-anchor="middle" x="953.5" y="-4477.8" font-family="Segoe UI" font-size="14.00" fill="#e2e8f0">DataQuality</text>
<text text-anchor="middle" x="953.5" y="-4462.8" font-family="Segoe UI" font-size="14.00" fill="#e2e8f0">DataQuality → DataQualityPage</text>
</g>
<!-- workspace_1&#45;&gt;page_DataQuality -->
<g id="edge26" class="edge">
<title>workspace_1&#45;&gt;page_DataQuality</title>
<path fill="none" stroke="#94a3b8" stroke-width="1.3" d="M498.64,-3926.17C508.53,-4005.08 557.41,-4306.99 738,-4443 763.77,-4462.41 796.33,-4472.29 828.26,-4476.86"/>
<polygon fill="#94a3b8" stroke="#94a3b8" stroke-width="1.3" points="828.06,-4479.65 836.35,-4477.9 828.78,-4474.1 828.06,-4479.65"/>
</g>
<!-- page_ProviderHealth -->
<g id="node28" class="node">
<title>page_ProviderHealth</title>
<path fill="#1e293b" stroke="#475569" d="M1079,-4556C1079,-4556 828,-4556 828,-4556 822,-4556 816,-4550 816,-4544 816,-4544 816,-4530 816,-4530 816,-4524 822,-4518 828,-4518 828,-4518 1079,-4518 1079,-4518 1085,-4518 1091,-4524 1091,-4530 1091,-4530 1091,-4544 1091,-4544 1091,-4550 1085,-4556 1079,-4556"/>
<text text-anchor="middle" x="953.5" y="-4540.8" font-family="Segoe UI" font-size="14.00" fill="#e2e8f0">ProviderHealth</text>
<text text-anchor="middle" x="953.5" y="-4525.8" font-family="Segoe UI" font-size="14.00" fill="#e2e8f0">ProviderHealth → ProviderHealthPage</text>
</g>
<!-- workspace_1&#45;&gt;page_ProviderHealth -->
<g id="edge27" class="edge">
<title>workspace_1&#45;&gt;page_ProviderHealth</title>
<path fill="none" stroke="#94a3b8" stroke-width="1.3" d="M497.6,-3926.1C503.59,-4010.52 539.74,-4352.72 738,-4506 758.23,-4521.64 782.84,-4531.16 808.08,-4536.71"/>
<polygon fill="#94a3b8" stroke="#94a3b8" stroke-width="1.3" points="807.53,-4539.46 815.93,-4538.31 808.64,-4533.97 807.53,-4539.46"/>
</g>
<!-- page_SystemHealth -->
<g id="node29" class="node">
<title>page_SystemHealth</title>
<path fill="#1e293b" stroke="#475569" d="M1073.5,-4619C1073.5,-4619 833.5,-4619 833.5,-4619 827.5,-4619 821.5,-4613 821.5,-4607 821.5,-4607 821.5,-4593 821.5,-4593 821.5,-4587 827.5,-4581 833.5,-4581 833.5,-4581 1073.5,-4581 1073.5,-4581 1079.5,-4581 1085.5,-4587 1085.5,-4593 1085.5,-4593 1085.5,-4607 1085.5,-4607 1085.5,-4613 1079.5,-4619 1073.5,-4619"/>
<text text-anchor="middle" x="953.5" y="-4603.8" font-family="Segoe UI" font-size="14.00" fill="#e2e8f0">SystemHealth</text>
<text text-anchor="middle" x="953.5" y="-4588.8" font-family="Segoe UI" font-size="14.00" fill="#e2e8f0">SystemHealth → SystemHealthPage</text>
</g>
<!-- workspace_1&#45;&gt;page_SystemHealth -->
<g id="edge28" class="edge">
<title>workspace_1&#45;&gt;page_SystemHealth</title>
<path fill="none" stroke="#94a3b8" stroke-width="1.3" d="M496.68,-3926.06C498.66,-4015.99 519.99,-4400.45 738,-4569 759.61,-4585.71 786.2,-4595.43 813.23,-4600.79"/>
<polygon fill="#94a3b8" stroke="#94a3b8" stroke-width="1.3" points="812.86,-4603.57 821.24,-4602.25 813.87,-4598.06 812.86,-4603.57"/>
</g>
<!-- page_Diagnostics -->
<g id="node30" class="node">
<title>page_Diagnostics</title>
<path fill="#1e293b" stroke="#475569" d="M1057,-4682C1057,-4682 850,-4682 850,-4682 844,-4682 838,-4676 838,-4670 838,-4670 838,-4656 838,-4656 838,-4650 844,-4644 850,-4644 850,-4644 1057,-4644 1057,-4644 1063,-4644 1069,-4650 1069,-4656 1069,-4656 1069,-4670 1069,-4670 1069,-4676 1063,-4682 1057,-4682"/>
<text text-anchor="middle" x="953.5" y="-4666.8" font-family="Segoe UI" font-size="14.00" fill="#e2e8f0">Diagnostics</text>
<text text-anchor="middle" x="953.5" y="-4651.8" font-family="Segoe UI" font-size="14.00" fill="#e2e8f0">Diagnostics → DiagnosticsPage</text>
</g>
<!-- workspace_1&#45;&gt;page_Diagnostics -->
<g id="edge29" class="edge">
<title>workspace_1&#45;&gt;page_Diagnostics</title>
<path fill="none" stroke="#94a3b8" stroke-width="1.3" d="M495.93,-3926.01C494.23,-4021.05 500.38,-4447.52 738,-4632 763.96,-4652.15 797.18,-4662.17 829.68,-4666.61"/>
<polygon fill="#94a3b8" stroke="#94a3b8" stroke-width="1.3" points="829.64,-4669.42 837.92,-4667.62 830.32,-4663.86 829.64,-4669.42"/>
</g>
<!-- page_Settings -->
<g id="node31" class="node">
<title>page_Settings</title>
<path fill="#1e293b" stroke="#475569" d="M1034,-4745C1034,-4745 873,-4745 873,-4745 867,-4745 861,-4739 861,-4733 861,-4733 861,-4719 861,-4719 861,-4713 867,-4707 873,-4707 873,-4707 1034,-4707 1034,-4707 1040,-4707 1046,-4713 1046,-4719 1046,-4719 1046,-4733 1046,-4733 1046,-4739 1040,-4745 1034,-4745"/>
<text text-anchor="middle" x="953.5" y="-4729.8" font-family="Segoe UI" font-size="14.00" fill="#e2e8f0">Settings</text>
<text text-anchor="middle" x="953.5" y="-4714.8" font-family="Segoe UI" font-size="14.00" fill="#e2e8f0">Settings → SettingsPage</text>
</g>
<!-- workspace_1&#45;&gt;page_Settings -->
<g id="edge31" class="edge">
<title>workspace_1&#45;&gt;page_Settings</title>
<path fill="none" stroke="#94a3b8" stroke-width="1.3" d="M499.38,-3926.26C516.42,-4037.28 607.68,-4594.24 738,-4695 770.17,-4719.87 813.4,-4729.27 852.62,-4731.82"/>
<polygon fill="#94a3b8" stroke="#94a3b8" stroke-width="1.3" points="852.79,-4734.64 860.93,-4732.27 853.09,-4729.04 852.79,-4734.64"/>
</g>
<!-- page_FundLedger -->
<g id="node32" class="node">
<title>page_FundLedger</title>
<path fill="#1e293b" stroke="#475569" d="M1059.5,-4808C1059.5,-4808 847.5,-4808 847.5,-4808 841.5,-4808 835.5,-4802 835.5,-4796 835.5,-4796 835.5,-4782 835.5,-4782 835.5,-4776 841.5,-4770 847.5,-4770 847.5,-4770 1059.5,-4770 1059.5,-4770 1065.5,-4770 1071.5,-4776 1071.5,-4782 1071.5,-4782 1071.5,-4796 1071.5,-4796 1071.5,-4802 1065.5,-4808 1059.5,-4808"/>
<text text-anchor="middle" x="953.5" y="-4792.8" font-family="Segoe UI" font-size="14.00" fill="#e2e8f0">FundLedger</text>
<text text-anchor="middle" x="953.5" y="-4777.8" font-family="Segoe UI" font-size="14.00" fill="#e2e8f0">FundLedger → FundLedgerPage</text>
</g>
<!-- workspace_1&#45;&gt;page_FundLedger -->
<g id="edge32" class="edge">
<title>workspace_1&#45;&gt;page_FundLedger</title>
<path fill="none" stroke="#94a3b8" stroke-width="1.3" d="M498.95,-3926.21C514.17,-4042.09 599.55,-4646.8 738,-4758 763.08,-4778.15 795.34,-4788.29 827.18,-4792.87"/>
<polygon fill="#94a3b8" stroke="#94a3b8" stroke-width="1.3" points="826.97,-4795.67 835.26,-4793.92 827.69,-4790.11 826.97,-4795.67"/>
</g>
<!-- page_Help -->
<g id="node33" class="node">
<title>page_Help</title>
<path fill="#1e293b" stroke="#475569" d="M1008.5,-4871C1008.5,-4871 898.5,-4871 898.5,-4871 892.5,-4871 886.5,-4865 886.5,-4859 886.5,-4859 886.5,-4845 886.5,-4845 886.5,-4839 892.5,-4833 898.5,-4833 898.5,-4833 1008.5,-4833 1008.5,-4833 1014.5,-4833 1020.5,-4839 1020.5,-4845 1020.5,-4845 1020.5,-4859 1020.5,-4859 1020.5,-4865 1014.5,-4871 1008.5,-4871"/>
<text text-anchor="middle" x="953.5" y="-4855.8" font-family="Segoe UI" font-size="14.00" fill="#e2e8f0">Help</text>
<text text-anchor="middle" x="953.5" y="-4840.8" font-family="Segoe UI" font-size="14.00" fill="#e2e8f0">Help → HelpPage</text>
</g>
<!-- workspace_1&#45;&gt;page_Help -->
<g id="edge33" class="edge">
<title>workspace_1&#45;&gt;page_Help</title>
<path fill="none" stroke="#94a3b8" stroke-width="1.3" d="M498.52,-3926.05C511.7,-4046.53 589.6,-4701.4 738,-4821 776.75,-4852.23 832.72,-4859.46 877.77,-4859.16"/>
<polygon fill="#94a3b8" stroke="#94a3b8" stroke-width="1.3" points="878.1,-4861.96 886.05,-4859.02 878,-4856.36 878.1,-4861.96"/>
</g>
</g>
</svg>
