<?xml version="1.0" encoding="UTF-8" standalone="no"?>
<!DOCTYPE svg PUBLIC "-//W3C//DTD SVG 1.1//EN"
 "http://www.w3.org/Graphics/SVG/1.1/DTD/svg11.dtd">
<!-- Generated by graphviz version 2.43.0 (0)
 -->
<!-- Title: UiNavigationMap Pages: 1 -->
<svg width="1237pt" height="5027pt"
 viewBox="0.00 0.00 1236.60 5026.60" xmlns="http://www.w3.org/2000/svg" xmlns:xlink="http://www.w3.org/1999/xlink">
<g id="graph0" class="graph" transform="scale(1 1) rotate(0) translate(28.8 4997.8)">
<title>UiNavigationMap</title>
<polygon fill="#0f172a" stroke="transparent" points="-28.8,28.8 -28.8,-4997.8 1207.8,-4997.8 1207.8,28.8 -28.8,28.8"/>
<text text-anchor="middle" x="589.5" y="-4949" font-family="Segoe UI" font-size="20.00">Meridian WPF UI navigation map</text>
<text text-anchor="middle" x="589.5" y="-4927" font-family="Segoe UI" font-size="20.00">(auto&#45;generated from MainPage.xaml + NavigationService.cs)</text>
<g id="clust1" class="cluster">
<title>cluster_workspace_1</title>
<path fill="#0f172a" stroke="#334155" d="M431.5,-3061C431.5,-3061 1159,-3061 1159,-3061 1165,-3061 1171,-3067 1171,-3073 1171,-3073 1171,-4897 1171,-4897 1171,-4903 1165,-4909 1159,-4909 1159,-4909 431.5,-4909 431.5,-4909 425.5,-4909 419.5,-4903 419.5,-4897 419.5,-4897 419.5,-3073 419.5,-3073 419.5,-3067 425.5,-3061 431.5,-3061"/>
<text text-anchor="middle" x="795.25" y="-4889" font-family="Segoe UI" font-size="20.00">Shell workspace</text>
</g>
<g id="clust2" class="cluster">
<title>cluster_hidden_pages</title>
<path fill="#0f172a" stroke="#7c2d12" stroke-dasharray="5,2" d="M325,-8C325,-8 655,-8 655,-8 661,-8 667,-14 667,-20 667,-20 667,-3041 667,-3041 667,-3047 661,-3053 655,-3053 655,-3053 325,-3053 325,-3053 319,-3053 313,-3047 313,-3041 313,-3041 313,-20 313,-20 313,-14 319,-8 325,-8"/>
<text text-anchor="middle" x="490" y="-3033" font-family="Segoe UI" font-size="20.00">Registered but not in sidebar shell</text>
</g>
<!-- generated -->
<g id="node1" class="node">
<title>generated</title>
<polygon fill="#1d4ed8" stroke="#60a5fa" points="242,-1502.5 0,-1502.5 0,-1449.5 248,-1449.5 248,-1496.5 242,-1502.5"/>
<polyline fill="none" stroke="#60a5fa" points="242,-1502.5 242,-1496.5 "/>
<polyline fill="none" stroke="#60a5fa" points="248,-1496.5 242,-1496.5 "/>
<text text-anchor="middle" x="124" y="-1487.3" font-family="Segoe UI" font-size="14.00" fill="#e2e8f0">Source fingerprint: 395fce2b0cf5</text>
<text text-anchor="middle" x="124" y="-1472.3" font-family="Segoe UI" font-size="14.00" fill="#e2e8f0">Shell entries: 31</text>
<text text-anchor="middle" x="124" y="-1457.3" font-family="Segoe UI" font-size="14.00" fill="#e2e8f0">Registered pages: 77</text>
</g>
<!-- shell -->
<g id="node2" class="node">
<title>shell</title>
<polygon fill="#0f766e" stroke="#2dd4bf" points="188.5,-2562 59.5,-2562 59.5,-2558 55.5,-2558 55.5,-2554 59.5,-2554 59.5,-2532 55.5,-2532 55.5,-2528 59.5,-2528 59.5,-2524 188.5,-2524 188.5,-2562"/>
<polyline fill="none" stroke="#2dd4bf" points="59.5,-2558 63.5,-2558 63.5,-2554 59.5,-2554 "/>
<polyline fill="none" stroke="#2dd4bf" points="59.5,-2532 63.5,-2532 63.5,-2528 59.5,-2528 "/>
<text text-anchor="middle" x="124" y="-2546.8" font-family="Segoe UI" font-size="14.00" fill="#e2e8f0">MainPage.xaml</text>
<text text-anchor="middle" x="124" y="-2531.8" font-family="Segoe UI" font-size="14.00" fill="#e2e8f0">Workspace shell</text>
</g>
<!-- navigation -->
<g id="node3" class="node">
<title>navigation</title>
<polygon fill="#7c3aed" stroke="#c4b5fd" points="195,-1566 53,-1566 53,-1562 49,-1562 49,-1558 53,-1558 53,-1536 49,-1536 49,-1532 53,-1532 53,-1528 195,-1528 195,-1566"/>
<polyline fill="none" stroke="#c4b5fd" points="53,-1562 57,-1562 57,-1558 53,-1558 "/>
<polyline fill="none" stroke="#c4b5fd" points="53,-1536 57,-1536 57,-1532 53,-1532 "/>
<text text-anchor="middle" x="124" y="-1550.8" font-family="Segoe UI" font-size="14.00" fill="#e2e8f0">NavigationService</text>
<text text-anchor="middle" x="124" y="-1535.8" font-family="Segoe UI" font-size="14.00" fill="#e2e8f0">RegisterAllPages()</text>
</g>
<!-- shell&#45;&gt;navigation -->
<g id="edge1" class="edge">
<title>shell&#45;&gt;navigation</title>
<path fill="none" stroke="#38bdf8" stroke-width="1.3" d="M124,-2523.79C124,-2400.44 124,-1720.07 124,-1574.44"/>
<polygon fill="#38bdf8" stroke="#38bdf8" stroke-width="1.3" points="126.8,-1574.01 124,-1566.01 121.2,-1574.01 126.8,-1574.01"/>
<text text-anchor="middle" x="113.5" y="-2041.3" font-family="Segoe UI" font-size="14.00">navigate via tags</text>
</g>
<!-- workspace_1 -->
<g id="node4" class="node">
<title>workspace_1</title>
<polygon fill="#1d4ed8" stroke="#93c5fd" points="551.5,-3926 548.5,-3930 527.5,-3930 524.5,-3926 427.5,-3926 427.5,-3888 551.5,-3888 551.5,-3926"/>
<text text-anchor="middle" x="489.5" y="-3910.8" font-family="Segoe UI" font-size="14.00" fill="#e2e8f0">Shell</text>
<text text-anchor="middle" x="489.5" y="-3895.8" font-family="Segoe UI" font-size="14.00" fill="#e2e8f0">31 shell entries</text>
</g>
<!-- shell&#45;&gt;workspace_1 -->
<g id="edge2" class="edge">
<title>shell&#45;&gt;workspace_1</title>
<path fill="none" stroke="#22d3ee" stroke-width="1.3" d="M130.07,-2562.02C170.05,-2712.06 434.29,-3703.57 481.34,-3880.13"/>
<polygon fill="#22d3ee" stroke="#22d3ee" stroke-width="1.3" points="478.65,-3880.91 483.41,-3887.91 484.06,-3879.46 478.65,-3880.91"/>
</g>
<!-- hidden_Dashboard -->
<g id="node34" class="node">
<title>hidden_Dashboard</title>
<path fill="#431407" stroke="#fb923c" d="M540,-3015C540,-3015 439,-3015 439,-3015 433,-3015 427,-3009 427,-3003 427,-3003 427,-2989 427,-2989 427,-2983 433,-2977 439,-2977 439,-2977 540,-2977 540,-2977 546,-2977 552,-2983 552,-2989 552,-2989 552,-3003 552,-3003 552,-3009 546,-3015 540,-3015"/>
<text text-anchor="middle" x="489.5" y="-2999.8" font-family="Segoe UI" font-size="14.00" fill="#e2e8f0">Dashboard</text>
<text text-anchor="middle" x="489.5" y="-2984.8" font-family="Segoe UI" font-size="14.00" fill="#e2e8f0">DashboardPage</text>
</g>
<!-- navigation&#45;&gt;hidden_Dashboard -->
<g id="edge34" class="edge">
<title>navigation&#45;&gt;hidden_Dashboard</title>
<path fill="none" stroke="#fb923c" stroke-width="1.3" stroke-dasharray="5,2" d="M127.43,-1566.26C144.65,-1702.81 248.69,-2526.23 284,-2776 295.9,-2860.15 253.59,-2904.23 313,-2965 339.95,-2992.56 382.23,-3000.64 418.54,-3001.67"/>
<polygon fill="#fb923c" stroke="#fb923c" stroke-width="1.3" points="418.62,-3004.47 426.66,-3001.79 418.7,-2998.87 418.62,-3004.47"/>
</g>
<!-- hidden_DataSources -->
<g id="node35" class="node">
<title>hidden_DataSources</title>
<path fill="#431407" stroke="#fb923c" d="M546,-2952C546,-2952 433,-2952 433,-2952 427,-2952 421,-2946 421,-2940 421,-2940 421,-2926 421,-2926 421,-2920 427,-2914 433,-2914 433,-2914 546,-2914 546,-2914 552,-2914 558,-2920 558,-2926 558,-2926 558,-2940 558,-2940 558,-2946 552,-2952 546,-2952"/>
<text text-anchor="middle" x="489.5" y="-2936.8" font-family="Segoe UI" font-size="14.00" fill="#e2e8f0">DataSources</text>
<text text-anchor="middle" x="489.5" y="-2921.8" font-family="Segoe UI" font-size="14.00" fill="#e2e8f0">DataSourcesPage</text>
</g>
<!-- navigation&#45;&gt;hidden_DataSources -->
<g id="edge35" class="edge">
<title>navigation&#45;&gt;hidden_DataSources</title>
<path fill="none" stroke="#fb923c" stroke-width="1.3" stroke-dasharray="5,2" d="M127.32,-1566.04C147.17,-1728.51 288.25,-2876.81 313,-2902 338.49,-2927.95 377.59,-2936.6 412.42,-2938.37"/>
<polygon fill="#fb923c" stroke="#fb923c" stroke-width="1.3" points="412.6,-2941.18 420.7,-2938.67 412.81,-2935.58 412.6,-2941.18"/>
</g>
<!-- hidden_DataBrowser -->
<g id="node36" class="node">
<title>hidden_DataBrowser</title>
<path fill="#431407" stroke="#fb923c" d="M546.5,-2889C546.5,-2889 432.5,-2889 432.5,-2889 426.5,-2889 420.5,-2883 420.5,-2877 420.5,-2877 420.5,-2863 420.5,-2863 420.5,-2857 426.5,-2851 432.5,-2851 432.5,-2851 546.5,-2851 546.5,-2851 552.5,-2851 558.5,-2857 558.5,-2863 558.5,-2863 558.5,-2877 558.5,-2877 558.5,-2883 552.5,-2889 546.5,-2889"/>
<text text-anchor="middle" x="489.5" y="-2873.8" font-family="Segoe UI" font-size="14.00" fill="#e2e8f0">DataBrowser</text>
<text text-anchor="middle" x="489.5" y="-2858.8" font-family="Segoe UI" font-size="14.00" fill="#e2e8f0">DataBrowserPage</text>
</g>
<!-- navigation&#45;&gt;hidden_DataBrowser -->
<g id="edge36" class="edge">
<title>navigation&#45;&gt;hidden_DataBrowser</title>
<path fill="none" stroke="#fb923c" stroke-width="1.3" stroke-dasharray="5,2" d="M127.15,-1566.07C139.63,-1676.16 205.12,-2241.39 284,-2699 294.79,-2761.62 267.41,-2794.73 313,-2839 338.89,-2864.14 377.63,-2872.81 412.12,-2874.79"/>
<polygon fill="#fb923c" stroke="#fb923c" stroke-width="1.3" points="412.22,-2877.6 420.33,-2875.15 412.46,-2872 412.22,-2877.6"/>
</g>
<!-- hidden_SymbolMapping -->
<g id="node37" class="node">
<title>hidden_SymbolMapping</title>
<path fill="#431407" stroke="#fb923c" d="M558,-2826C558,-2826 421,-2826 421,-2826 415,-2826 409,-2820 409,-2814 409,-2814 409,-2800 409,-2800 409,-2794 415,-2788 421,-2788 421,-2788 558,-2788 558,-2788 564,-2788 570,-2794 570,-2800 570,-2800 570,-2814 570,-2814 570,-2820 564,-2826 558,-2826"/>
<text text-anchor="middle" x="489.5" y="-2810.8" font-family="Segoe UI" font-size="14.00" fill="#e2e8f0">SymbolMapping</text>
<text text-anchor="middle" x="489.5" y="-2795.8" font-family="Segoe UI" font-size="14.00" fill="#e2e8f0">SymbolMappingPage</text>
</g>
<!-- navigation&#45;&gt;hidden_SymbolMapping -->
<g id="edge37" class="edge">
<title>navigation&#45;&gt;hidden_SymbolMapping</title>
<path fill="none" stroke="#fb923c" stroke-width="1.3" stroke-dasharray="5,2" d="M127.25,-1566.05C145.33,-1718.17 267.26,-2731.41 313,-2776 335.98,-2798.41 369.15,-2807.74 400.48,-2810.93"/>
<polygon fill="#fb923c" stroke="#fb923c" stroke-width="1.3" points="400.62,-2813.75 408.83,-2811.64 401.09,-2808.17 400.62,-2813.75"/>
</g>
<!-- hidden_SymbolStorage -->
<g id="node38" class="node">
<title>hidden_SymbolStorage</title>
<path fill="#431407" stroke="#fb923c" d="M555,-2763C555,-2763 424,-2763 424,-2763 418,-2763 412,-2757 412,-2751 412,-2751 412,-2737 412,-2737 412,-2731 418,-2725 424,-2725 424,-2725 555,-2725 555,-2725 561,-2725 567,-2731 567,-2737 567,-2737 567,-2751 567,-2751 567,-2757 561,-2763 555,-2763"/>
<text text-anchor="middle" x="489.5" y="-2747.8" font-family="Segoe UI" font-size="14.00" fill="#e2e8f0">SymbolStorage</text>
<text text-anchor="middle" x="489.5" y="-2732.8" font-family="Segoe UI" font-size="14.00" fill="#e2e8f0">SymbolStoragePage</text>
</g>
<!-- navigation&#45;&gt;hidden_SymbolStorage -->
<g id="edge38" class="edge">
<title>navigation&#45;&gt;hidden_SymbolStorage</title>
<path fill="none" stroke="#fb923c" stroke-width="1.3" stroke-dasharray="5,2" d="M126.88,-1566.1C137.47,-1671.7 192.51,-2194.38 284,-2613 293.88,-2658.21 278.57,-2682.08 313,-2713 337.51,-2735.01 371.99,-2744.07 403.91,-2747.15"/>
<polygon fill="#fb923c" stroke="#fb923c" stroke-width="1.3" points="403.76,-2749.95 411.96,-2747.81 404.22,-2744.37 403.76,-2749.95"/>
</g>
<!-- hidden_PortfolioImport -->
<g id="node39" class="node">
<title>hidden_PortfolioImport</title>
<path fill="#431407" stroke="#fb923c" d="M554,-2700C554,-2700 425,-2700 425,-2700 419,-2700 413,-2694 413,-2688 413,-2688 413,-2674 413,-2674 413,-2668 419,-2662 425,-2662 425,-2662 554,-2662 554,-2662 560,-2662 566,-2668 566,-2674 566,-2674 566,-2688 566,-2688 566,-2694 560,-2700 554,-2700"/>
<text text-anchor="middle" x="489.5" y="-2684.8" font-family="Segoe UI" font-size="14.00" fill="#e2e8f0">PortfolioImport</text>
<text text-anchor="middle" x="489.5" y="-2669.8" font-family="Segoe UI" font-size="14.00" fill="#e2e8f0">PortfolioImportPage</text>
</g>
<!-- navigation&#45;&gt;hidden_PortfolioImport -->
<g id="edge39" class="edge">
<title>navigation&#45;&gt;hidden_PortfolioImport</title>
<path fill="none" stroke="#fb923c" stroke-width="1.3" stroke-dasharray="5,2" d="M126.87,-1566.02C140.78,-1705.84 229.96,-2571.54 313,-2650 337.26,-2672.92 372.23,-2682.03 404.58,-2684.9"/>
<polygon fill="#fb923c" stroke="#fb923c" stroke-width="1.3" points="404.56,-2687.7 412.74,-2685.5 404.97,-2682.12 404.56,-2687.7"/>
</g>
<!-- hidden_IndexSubscription -->
<g id="node40" class="node">
<title>hidden_IndexSubscription</title>
<path fill="#431407" stroke="#fb923c" d="M565.5,-2637C565.5,-2637 413.5,-2637 413.5,-2637 407.5,-2637 401.5,-2631 401.5,-2625 401.5,-2625 401.5,-2611 401.5,-2611 401.5,-2605 407.5,-2599 413.5,-2599 413.5,-2599 565.5,-2599 565.5,-2599 571.5,-2599 577.5,-2605 577.5,-2611 577.5,-2611 577.5,-2625 577.5,-2625 577.5,-2631 571.5,-2637 565.5,-2637"/>
<text text-anchor="middle" x="489.5" y="-2621.8" font-family="Segoe UI" font-size="14.00" fill="#e2e8f0">IndexSubscription</text>
<text text-anchor="middle" x="489.5" y="-2606.8" font-family="Segoe UI" font-size="14.00" fill="#e2e8f0">IndexSubscriptionPage</text>
</g>
<!-- navigation&#45;&gt;hidden_IndexSubscription -->
<g id="edge40" class="edge">
<title>navigation&#45;&gt;hidden_IndexSubscription</title>
<path fill="none" stroke="#fb923c" stroke-width="1.3" stroke-dasharray="5,2" d="M126.86,-1566.22C136.77,-1666.07 186.7,-2135.19 284,-2507 293.57,-2543.59 284.05,-2562.67 313,-2587 335.19,-2605.65 364.65,-2614.8 393.08,-2618.91"/>
<polygon fill="#fb923c" stroke="#fb923c" stroke-width="1.3" points="392.77,-2621.69 401.06,-2619.94 393.48,-2616.14 392.77,-2621.69"/>
</g>
<!-- hidden_Options -->
<g id="node41" class="node">
<title>hidden_Options</title>
<path fill="#431407" stroke="#fb923c" d="M529.5,-2574C529.5,-2574 449.5,-2574 449.5,-2574 443.5,-2574 437.5,-2568 437.5,-2562 437.5,-2562 437.5,-2548 437.5,-2548 437.5,-2542 443.5,-2536 449.5,-2536 449.5,-2536 529.5,-2536 529.5,-2536 535.5,-2536 541.5,-2542 541.5,-2548 541.5,-2548 541.5,-2562 541.5,-2562 541.5,-2568 535.5,-2574 529.5,-2574"/>
<text text-anchor="middle" x="489.5" y="-2558.8" font-family="Segoe UI" font-size="14.00" fill="#e2e8f0">Options</text>
<text text-anchor="middle" x="489.5" y="-2543.8" font-family="Segoe UI" font-size="14.00" fill="#e2e8f0">OptionsPage</text>
</g>
<!-- navigation&#45;&gt;hidden_Options -->
<g id="edge41" class="edge">
<title>navigation&#45;&gt;hidden_Options</title>
<path fill="none" stroke="#fb923c" stroke-width="1.3" stroke-dasharray="5,2" d="M125.75,-1566.31C130.99,-1691.4 166.5,-2386.36 313,-2524 343.61,-2552.76 391.09,-2559.73 428.96,-2559.94"/>
<polygon fill="#fb923c" stroke="#fb923c" stroke-width="1.3" points="429.39,-2562.74 437.37,-2559.88 429.35,-2557.14 429.39,-2562.74"/>
</g>
<!-- hidden_Schedules -->
<g id="node42" class="node">
<title>hidden_Schedules</title>
<path fill="#431407" stroke="#fb923c" d="M564.5,-2511C564.5,-2511 414.5,-2511 414.5,-2511 408.5,-2511 402.5,-2505 402.5,-2499 402.5,-2499 402.5,-2485 402.5,-2485 402.5,-2479 408.5,-2473 414.5,-2473 414.5,-2473 564.5,-2473 564.5,-2473 570.5,-2473 576.5,-2479 576.5,-2485 576.5,-2485 576.5,-2499 576.5,-2499 576.5,-2505 570.5,-2511 564.5,-2511"/>
<text text-anchor="middle" x="489.5" y="-2495.8" font-family="Segoe UI" font-size="14.00" fill="#e2e8f0">Schedules</text>
<text text-anchor="middle" x="489.5" y="-2480.8" font-family="Segoe UI" font-size="14.00" fill="#e2e8f0">ScheduleManagerPage</text>
</g>
<!-- navigation&#45;&gt;hidden_Schedules -->
<g id="edge42" class="edge">
<title>navigation&#45;&gt;hidden_Schedules</title>
<path fill="none" stroke="#fb923c" stroke-width="1.3" stroke-dasharray="5,2" d="M127.39,-1566.14C139.13,-1658.05 193.76,-2062.9 284,-2384 293.89,-2419.21 284.86,-2437.65 313,-2461 335.52,-2479.69 365.37,-2488.8 394.05,-2492.86"/>
<polygon fill="#fb923c" stroke="#fb923c" stroke-width="1.3" points="393.81,-2495.65 402.1,-2493.88 394.51,-2490.1 393.81,-2495.65"/>
</g>
<!-- hidden_RunDetail -->
<g id="node43" class="node">
<title>hidden_RunDetail</title>
<path fill="#431407" stroke="#fb923c" d="M535.5,-2448C535.5,-2448 443.5,-2448 443.5,-2448 437.5,-2448 431.5,-2442 431.5,-2436 431.5,-2436 431.5,-2422 431.5,-2422 431.5,-2416 437.5,-2410 443.5,-2410 443.5,-2410 535.5,-2410 535.5,-2410 541.5,-2410 547.5,-2416 547.5,-2422 547.5,-2422 547.5,-2436 547.5,-2436 547.5,-2442 541.5,-2448 535.5,-2448"/>
<text text-anchor="middle" x="489.5" y="-2432.8" font-family="Segoe UI" font-size="14.00" fill="#e2e8f0">RunDetail</text>
<text text-anchor="middle" x="489.5" y="-2417.8" font-family="Segoe UI" font-size="14.00" fill="#e2e8f0">RunDetailPage</text>
</g>
<!-- navigation&#45;&gt;hidden_RunDetail -->
<g id="edge43" class="edge">
<title>navigation&#45;&gt;hidden_RunDetail</title>
<path fill="none" stroke="#fb923c" stroke-width="1.3" stroke-dasharray="5,2" d="M126.16,-1566.18C133.61,-1681.94 178.61,-2285.99 313,-2398 343.27,-2423.23 386.86,-2431.03 423.03,-2432.5"/>
<polygon fill="#fb923c" stroke="#fb923c" stroke-width="1.3" points="423.02,-2435.3 431.1,-2432.73 423.18,-2429.7 423.02,-2435.3"/>
</g>
<!-- hidden_RunLedger -->
<g id="node44" class="node">
<title>hidden_RunLedger</title>
<path fill="#431407" stroke="#fb923c" d="M540,-2385C540,-2385 439,-2385 439,-2385 433,-2385 427,-2379 427,-2373 427,-2373 427,-2359 427,-2359 427,-2353 433,-2347 439,-2347 439,-2347 540,-2347 540,-2347 546,-2347 552,-2353 552,-2359 552,-2359 552,-2373 552,-2373 552,-2379 546,-2385 540,-2385"/>
<text text-anchor="middle" x="489.5" y="-2369.8" font-family="Segoe UI" font-size="14.00" fill="#e2e8f0">RunLedger</text>
<text text-anchor="middle" x="489.5" y="-2354.8" font-family="Segoe UI" font-size="14.00" fill="#e2e8f0">RunLedgerPage</text>
</g>
<!-- navigation&#45;&gt;hidden_RunLedger -->
<g id="edge44" class="edge">
<title>navigation&#45;&gt;hidden_RunLedger</title>
<path fill="none" stroke="#fb923c" stroke-width="1.3" stroke-dasharray="5,2" d="M126.55,-1566.17C135.9,-1676.7 188.62,-2231.33 313,-2335 342.04,-2359.21 383.35,-2367.37 418.59,-2369.29"/>
<polygon fill="#fb923c" stroke="#fb923c" stroke-width="1.3" points="418.83,-2372.1 426.94,-2369.63 419.07,-2366.5 418.83,-2372.1"/>
</g>
<!-- hidden_FundAccounts -->
<g id="node45" class="node">
<title>hidden_FundAccounts</title>
<path fill="#431407" stroke="#fb923c" d="M551,-2322C551,-2322 428,-2322 428,-2322 422,-2322 416,-2316 416,-2310 416,-2310 416,-2296 416,-2296 416,-2290 422,-2284 428,-2284 428,-2284 551,-2284 551,-2284 557,-2284 563,-2290 563,-2296 563,-2296 563,-2310 563,-2310 563,-2316 557,-2322 551,-2322"/>
<text text-anchor="middle" x="489.5" y="-2306.8" font-family="Segoe UI" font-size="14.00" fill="#e2e8f0">FundAccounts</text>
<text text-anchor="middle" x="489.5" y="-2291.8" font-family="Segoe UI" font-size="14.00" fill="#e2e8f0">FundAccountsPage</text>
</g>
<!-- navigation&#45;&gt;hidden_FundAccounts -->
<g id="edge45" class="edge">
<title>navigation&#45;&gt;hidden_FundAccounts</title>
<path fill="none" stroke="#fb923c" stroke-width="1.3" stroke-dasharray="5,2" d="M127.02,-1566.3C138.48,-1671.71 198.83,-2176.44 313,-2272 339.03,-2293.79 374.98,-2302.59 407.56,-2305.54"/>
<polygon fill="#fb923c" stroke="#fb923c" stroke-width="1.3" points="407.58,-2308.35 415.77,-2306.17 408.01,-2302.77 407.58,-2308.35"/>
</g>
<!-- hidden_FundBanking -->
<g id="node46" class="node">
<title>hidden_FundBanking</title>
<path fill="#431407" stroke="#fb923c" d="M543.5,-2259C543.5,-2259 435.5,-2259 435.5,-2259 429.5,-2259 423.5,-2253 423.5,-2247 423.5,-2247 423.5,-2233 423.5,-2233 423.5,-2227 429.5,-2221 435.5,-2221 435.5,-2221 543.5,-2221 543.5,-2221 549.5,-2221 555.5,-2227 555.5,-2233 555.5,-2233 555.5,-2247 555.5,-2247 555.5,-2253 549.5,-2259 543.5,-2259"/>
<text text-anchor="middle" x="489.5" y="-2243.8" font-family="Segoe UI" font-size="14.00" fill="#e2e8f0">FundBanking</text>
<text text-anchor="middle" x="489.5" y="-2228.8" font-family="Segoe UI" font-size="14.00" fill="#e2e8f0">FundLedgerPage</text>
</g>
<!-- navigation&#45;&gt;hidden_FundBanking -->
<g id="edge46" class="edge">
<title>navigation&#45;&gt;hidden_FundBanking</title>
<path fill="none" stroke="#fb923c" stroke-width="1.3" stroke-dasharray="5,2" d="M127.54,-1566.22C141.14,-1665.82 208.49,-2121.89 313,-2209 341.05,-2232.38 380.55,-2240.79 414.97,-2243.07"/>
<polygon fill="#fb923c" stroke="#fb923c" stroke-width="1.3" points="415,-2245.87 423.14,-2243.5 415.3,-2240.28 415,-2245.87"/>
</g>
<!-- hidden_FundPortfolio -->
<g id="node47" class="node">
<title>hidden_FundPortfolio</title>
<path fill="#431407" stroke="#fb923c" d="M543.5,-2196C543.5,-2196 435.5,-2196 435.5,-2196 429.5,-2196 423.5,-2190 423.5,-2184 423.5,-2184 423.5,-2170 423.5,-2170 423.5,-2164 429.5,-2158 435.5,-2158 435.5,-2158 543.5,-2158 543.5,-2158 549.5,-2158 555.5,-2164 555.5,-2170 555.5,-2170 555.5,-2184 555.5,-2184 555.5,-2190 549.5,-2196 543.5,-2196"/>
<text text-anchor="middle" x="489.5" y="-2180.8" font-family="Segoe UI" font-size="14.00" fill="#e2e8f0">FundPortfolio</text>
<text text-anchor="middle" x="489.5" y="-2165.8" font-family="Segoe UI" font-size="14.00" fill="#e2e8f0">FundLedgerPage</text>
</g>
<!-- navigation&#45;&gt;hidden_FundPortfolio -->
<g id="edge47" class="edge">
<title>navigation&#45;&gt;hidden_FundPortfolio</title>
<path fill="none" stroke="#fb923c" stroke-width="1.3" stroke-dasharray="5,2" d="M128.14,-1566.25C143.85,-1660.14 217.04,-2068.57 313,-2146 341.42,-2168.93 380.95,-2177.31 415.29,-2179.68"/>
<polygon fill="#fb923c" stroke="#fb923c" stroke-width="1.3" points="415.3,-2182.48 423.44,-2180.13 415.61,-2176.89 415.3,-2182.48"/>
</g>
<!-- hidden_FundCashFinancing -->
<g id="node48" class="node">
<title>hidden_FundCashFinancing</title>
<path fill="#431407" stroke="#fb923c" d="M553.5,-2133C553.5,-2133 425.5,-2133 425.5,-2133 419.5,-2133 413.5,-2127 413.5,-2121 413.5,-2121 413.5,-2107 413.5,-2107 413.5,-2101 419.5,-2095 425.5,-2095 425.5,-2095 553.5,-2095 553.5,-2095 559.5,-2095 565.5,-2101 565.5,-2107 565.5,-2107 565.5,-2121 565.5,-2121 565.5,-2127 559.5,-2133 553.5,-2133"/>
<text text-anchor="middle" x="489.5" y="-2117.8" font-family="Segoe UI" font-size="14.00" fill="#e2e8f0">FundCashFinancing</text>
<text text-anchor="middle" x="489.5" y="-2102.8" font-family="Segoe UI" font-size="14.00" fill="#e2e8f0">FundLedgerPage</text>
</g>
<!-- navigation&#45;&gt;hidden_FundCashFinancing -->
<g id="edge48" class="edge">
<title>navigation&#45;&gt;hidden_FundCashFinancing</title>
<path fill="none" stroke="#fb923c" stroke-width="1.3" stroke-dasharray="5,2" d="M125.06,-1566.11C126.44,-1644.76 143.01,-1945.84 313,-2083 338.64,-2103.69 373.31,-2112.53 405.07,-2115.8"/>
<polygon fill="#fb923c" stroke="#fb923c" stroke-width="1.3" points="404.85,-2118.59 413.07,-2116.52 405.35,-2113.01 404.85,-2118.59"/>
</g>
<!-- hidden_FundTrialBalance -->
<g id="node49" class="node">
<title>hidden_FundTrialBalance</title>
<path fill="#431407" stroke="#fb923c" d="M544.5,-2070C544.5,-2070 434.5,-2070 434.5,-2070 428.5,-2070 422.5,-2064 422.5,-2058 422.5,-2058 422.5,-2044 422.5,-2044 422.5,-2038 428.5,-2032 434.5,-2032 434.5,-2032 544.5,-2032 544.5,-2032 550.5,-2032 556.5,-2038 556.5,-2044 556.5,-2044 556.5,-2058 556.5,-2058 556.5,-2064 550.5,-2070 544.5,-2070"/>
<text text-anchor="middle" x="489.5" y="-2054.8" font-family="Segoe UI" font-size="14.00" fill="#e2e8f0">FundTrialBalance</text>
<text text-anchor="middle" x="489.5" y="-2039.8" font-family="Segoe UI" font-size="14.00" fill="#e2e8f0">FundLedgerPage</text>
</g>
<!-- navigation&#45;&gt;hidden_FundTrialBalance -->
<g id="edge49" class="edge">
<title>navigation&#45;&gt;hidden_FundTrialBalance</title>
<path fill="none" stroke="#fb923c" stroke-width="1.3" stroke-dasharray="5,2" d="M126.17,-1566.22C131.7,-1638.94 161.78,-1899.24 313,-2020 341.2,-2042.52 380.14,-2050.96 414.18,-2053.46"/>
<polygon fill="#fb923c" stroke="#fb923c" stroke-width="1.3" points="414.1,-2056.26 422.26,-2053.96 414.45,-2050.67 414.1,-2056.26"/>
</g>
<!-- hidden_FundReconciliation -->
<g id="node50" class="node">
<title>hidden_FundReconciliation</title>
<path fill="#431407" stroke="#fb923c" d="M550.5,-2007C550.5,-2007 428.5,-2007 428.5,-2007 422.5,-2007 416.5,-2001 416.5,-1995 416.5,-1995 416.5,-1981 416.5,-1981 416.5,-1975 422.5,-1969 428.5,-1969 428.5,-1969 550.5,-1969 550.5,-1969 556.5,-1969 562.5,-1975 562.5,-1981 562.5,-1981 562.5,-1995 562.5,-1995 562.5,-2001 556.5,-2007 550.5,-2007"/>
<text text-anchor="middle" x="489.5" y="-1991.8" font-family="Segoe UI" font-size="14.00" fill="#e2e8f0">FundReconciliation</text>
<text text-anchor="middle" x="489.5" y="-1976.8" font-family="Segoe UI" font-size="14.00" fill="#e2e8f0">FundLedgerPage</text>
</g>
<!-- navigation&#45;&gt;hidden_FundReconciliation -->
<g id="edge50" class="edge">
<title>navigation&#45;&gt;hidden_FundReconciliation</title>
<path fill="none" stroke="#fb923c" stroke-width="1.3" stroke-dasharray="5,2" d="M127.53,-1566.33C137.33,-1632.8 179.16,-1853.58 313,-1957 339.75,-1977.67 375.62,-1986.34 407.97,-1989.49"/>
<polygon fill="#fb923c" stroke="#fb923c" stroke-width="1.3" points="407.9,-1992.3 416.11,-1990.18 408.37,-1986.72 407.9,-1992.3"/>
</g>
<!-- hidden_FundAuditTrail -->
<g id="node51" class="node">
<title>hidden_FundAuditTrail</title>
<path fill="#431407" stroke="#fb923c" d="M543.5,-1944C543.5,-1944 435.5,-1944 435.5,-1944 429.5,-1944 423.5,-1938 423.5,-1932 423.5,-1932 423.5,-1918 423.5,-1918 423.5,-1912 429.5,-1906 435.5,-1906 435.5,-1906 543.5,-1906 543.5,-1906 549.5,-1906 555.5,-1912 555.5,-1918 555.5,-1918 555.5,-1932 555.5,-1932 555.5,-1938 549.5,-1944 543.5,-1944"/>
<text text-anchor="middle" x="489.5" y="-1928.8" font-family="Segoe UI" font-size="14.00" fill="#e2e8f0">FundAuditTrail</text>
<text text-anchor="middle" x="489.5" y="-1913.8" font-family="Segoe UI" font-size="14.00" fill="#e2e8f0">FundLedgerPage</text>
</g>
<!-- navigation&#45;&gt;hidden_FundAuditTrail -->
<g id="edge51" class="edge">
<title>navigation&#45;&gt;hidden_FundAuditTrail</title>
<path fill="none" stroke="#fb923c" stroke-width="1.3" stroke-dasharray="5,2" d="M129.21,-1566.28C143.32,-1625.97 194.89,-1808.86 313,-1894 342.28,-1915.1 381.31,-1923.41 415.13,-1926.2"/>
<polygon fill="#fb923c" stroke="#fb923c" stroke-width="1.3" points="414.98,-1929 423.16,-1926.77 415.38,-1923.41 414.98,-1929"/>
</g>
<!-- hidden_RunCashFlow -->
<g id="node52" class="node">
<title>hidden_RunCashFlow</title>
<path fill="#431407" stroke="#fb923c" d="M549,-1881C549,-1881 430,-1881 430,-1881 424,-1881 418,-1875 418,-1869 418,-1869 418,-1855 418,-1855 418,-1849 424,-1843 430,-1843 430,-1843 549,-1843 549,-1843 555,-1843 561,-1849 561,-1855 561,-1855 561,-1869 561,-1869 561,-1875 555,-1881 549,-1881"/>
<text text-anchor="middle" x="489.5" y="-1865.8" font-family="Segoe UI" font-size="14.00" fill="#e2e8f0">RunCashFlow</text>
<text text-anchor="middle" x="489.5" y="-1850.8" font-family="Segoe UI" font-size="14.00" fill="#e2e8f0">RunCashFlowPage</text>
</g>
<!-- navigation&#45;&gt;hidden_RunCashFlow -->
<g id="edge52" class="edge">
<title>navigation&#45;&gt;hidden_RunCashFlow</title>
<path fill="none" stroke="#fb923c" stroke-width="1.3" stroke-dasharray="5,2" d="M131.5,-1566.1C150.32,-1618.22 210.15,-1763.55 313,-1831 341.38,-1849.61 377.67,-1857.97 409.87,-1861.44"/>
<polygon fill="#fb923c" stroke="#fb923c" stroke-width="1.3" points="409.73,-1864.24 417.96,-1862.22 410.27,-1858.66 409.73,-1864.24"/>
</g>
<!-- hidden_RunRisk -->
<g id="node53" class="node">
<title>hidden_RunRisk</title>
<path fill="#431407" stroke="#fb923c" d="M530.5,-1818C530.5,-1818 448.5,-1818 448.5,-1818 442.5,-1818 436.5,-1812 436.5,-1806 436.5,-1806 436.5,-1792 436.5,-1792 436.5,-1786 442.5,-1780 448.5,-1780 448.5,-1780 530.5,-1780 530.5,-1780 536.5,-1780 542.5,-1786 542.5,-1792 542.5,-1792 542.5,-1806 542.5,-1806 542.5,-1812 536.5,-1818 530.5,-1818"/>
<text text-anchor="middle" x="489.5" y="-1802.8" font-family="Segoe UI" font-size="14.00" fill="#e2e8f0">RunRisk</text>
<text text-anchor="middle" x="489.5" y="-1787.8" font-family="Segoe UI" font-size="14.00" fill="#e2e8f0">RunRiskPage</text>
</g>
<!-- navigation&#45;&gt;hidden_RunRisk -->
<g id="edge53" class="edge">
<title>navigation&#45;&gt;hidden_RunRisk</title>
<path fill="none" stroke="#fb923c" stroke-width="1.3" stroke-dasharray="5,2" d="M135.14,-1566.25C159.36,-1610.13 225.15,-1717.66 313,-1768 347.79,-1787.94 392.34,-1795.63 427.85,-1798.37"/>
<polygon fill="#fb923c" stroke="#fb923c" stroke-width="1.3" points="428.03,-1801.19 436.2,-1798.94 428.41,-1795.6 428.03,-1801.19"/>
</g>
<!-- hidden_AccountPortfolio -->
<g id="node54" class="node">
<title>hidden_AccountPortfolio</title>
<path fill="#431407" stroke="#fb923c" d="M558.5,-1755C558.5,-1755 420.5,-1755 420.5,-1755 414.5,-1755 408.5,-1749 408.5,-1743 408.5,-1743 408.5,-1729 408.5,-1729 408.5,-1723 414.5,-1717 420.5,-1717 420.5,-1717 558.5,-1717 558.5,-1717 564.5,-1717 570.5,-1723 570.5,-1729 570.5,-1729 570.5,-1743 570.5,-1743 570.5,-1749 564.5,-1755 558.5,-1755"/>
<text text-anchor="middle" x="489.5" y="-1739.8" font-family="Segoe UI" font-size="14.00" fill="#e2e8f0">AccountPortfolio</text>
<text text-anchor="middle" x="489.5" y="-1724.8" font-family="Segoe UI" font-size="14.00" fill="#e2e8f0">AccountPortfolioPage</text>
</g>
<!-- navigation&#45;&gt;hidden_AccountPortfolio -->
<g id="edge54" class="edge">
<title>navigation&#45;&gt;hidden_AccountPortfolio</title>
<path fill="none" stroke="#fb923c" stroke-width="1.3" stroke-dasharray="5,2" d="M141.41,-1566.26C171.6,-1600.29 239.6,-1670.73 313,-1705 339.91,-1717.56 371.31,-1725.07 400.05,-1729.53"/>
<polygon fill="#fb923c" stroke="#fb923c" stroke-width="1.3" points="399.75,-1732.32 408.08,-1730.71 400.57,-1726.78 399.75,-1732.32"/>
</g>
<!-- hidden_AggregatePortfolio -->
<g id="node55" class="node">
<title>hidden_AggregatePortfolio</title>
<path fill="#431407" stroke="#fb923c" d="M567,-1692C567,-1692 412,-1692 412,-1692 406,-1692 400,-1686 400,-1680 400,-1680 400,-1666 400,-1666 400,-1660 406,-1654 412,-1654 412,-1654 567,-1654 567,-1654 573,-1654 579,-1660 579,-1666 579,-1666 579,-1680 579,-1680 579,-1686 573,-1692 567,-1692"/>
<text text-anchor="middle" x="489.5" y="-1676.8" font-family="Segoe UI" font-size="14.00" fill="#e2e8f0">AggregatePortfolio</text>
<text text-anchor="middle" x="489.5" y="-1661.8" font-family="Segoe UI" font-size="14.00" fill="#e2e8f0">AggregatePortfolioPage</text>
</g>
<!-- navigation&#45;&gt;hidden_AggregatePortfolio -->
<g id="edge55" class="edge">
<title>navigation&#45;&gt;hidden_AggregatePortfolio</title>
<path fill="none" stroke="#fb923c" stroke-width="1.3" stroke-dasharray="5,2" d="M155.71,-1566.08C191.96,-1587.75 254.71,-1622.59 313,-1642 338.01,-1650.33 365.81,-1656.54 391.77,-1661.13"/>
<polygon fill="#fb923c" stroke="#fb923c" stroke-width="1.3" points="391.4,-1663.91 399.76,-1662.51 392.35,-1658.39 391.4,-1663.91"/>
</g>
<!-- hidden_ArchiveHealth -->
<g id="node56" class="node">
<title>hidden_ArchiveHealth</title>
<path fill="#431407" stroke="#fb923c" d="M550.5,-1629C550.5,-1629 428.5,-1629 428.5,-1629 422.5,-1629 416.5,-1623 416.5,-1617 416.5,-1617 416.5,-1603 416.5,-1603 416.5,-1597 422.5,-1591 428.5,-1591 428.5,-1591 550.5,-1591 550.5,-1591 556.5,-1591 562.5,-1597 562.5,-1603 562.5,-1603 562.5,-1617 562.5,-1617 562.5,-1623 556.5,-1629 550.5,-1629"/>
<text text-anchor="middle" x="489.5" y="-1613.8" font-family="Segoe UI" font-size="14.00" fill="#e2e8f0">ArchiveHealth</text>
<text text-anchor="middle" x="489.5" y="-1598.8" font-family="Segoe UI" font-size="14.00" fill="#e2e8f0">ArchiveHealthPage</text>
</g>
<!-- navigation&#45;&gt;hidden_ArchiveHealth -->
<g id="edge56" class="edge">
<title>navigation&#45;&gt;hidden_ArchiveHealth</title>
<path fill="none" stroke="#fb923c" stroke-width="1.3" stroke-dasharray="5,2" d="M195.09,-1559.15C256.12,-1569.73 344.59,-1585.06 408.4,-1596.12"/>
<polygon fill="#fb923c" stroke="#fb923c" stroke-width="1.3" points="408.09,-1598.91 416.45,-1597.51 409.05,-1593.39 408.09,-1598.91"/>
</g>
<!-- hidden_ServiceManager -->
<g id="node57" class="node">
<title>hidden_ServiceManager</title>
<path fill="#431407" stroke="#fb923c" d="M558,-1566C558,-1566 421,-1566 421,-1566 415,-1566 409,-1560 409,-1554 409,-1554 409,-1540 409,-1540 409,-1534 415,-1528 421,-1528 421,-1528 558,-1528 558,-1528 564,-1528 570,-1534 570,-1540 570,-1540 570,-1554 570,-1554 570,-1560 564,-1566 558,-1566"/>
<text text-anchor="middle" x="489.5" y="-1550.8" font-family="Segoe UI" font-size="14.00" fill="#e2e8f0">ServiceManager</text>
<text text-anchor="middle" x="489.5" y="-1535.8" font-family="Segoe UI" font-size="14.00" fill="#e2e8f0">ServiceManagerPage</text>
</g>
<!-- navigation&#45;&gt;hidden_ServiceManager -->
<g id="edge57" class="edge">
<title>navigation&#45;&gt;hidden_ServiceManager</title>
<path fill="none" stroke="#fb923c" stroke-width="1.3" stroke-dasharray="5,2" d="M195.09,-1547C253.63,-1547 337.4,-1547 400.46,-1547"/>
<polygon fill="#fb923c" stroke="#fb923c" stroke-width="1.3" points="400.83,-1549.8 408.83,-1547 400.83,-1544.2 400.83,-1549.8"/>
</g>
<!-- hidden_DataExport -->
<g id="node58" class="node">
<title>hidden_DataExport</title>
<path fill="#431407" stroke="#fb923c" d="M541.5,-1503C541.5,-1503 437.5,-1503 437.5,-1503 431.5,-1503 425.5,-1497 425.5,-1491 425.5,-1491 425.5,-1477 425.5,-1477 425.5,-1471 431.5,-1465 437.5,-1465 437.5,-1465 541.5,-1465 541.5,-1465 547.5,-1465 553.5,-1471 553.5,-1477 553.5,-1477 553.5,-1491 553.5,-1491 553.5,-1497 547.5,-1503 541.5,-1503"/>
<text text-anchor="middle" x="489.5" y="-1487.8" font-family="Segoe UI" font-size="14.00" fill="#e2e8f0">DataExport</text>
<text text-anchor="middle" x="489.5" y="-1472.8" font-family="Segoe UI" font-size="14.00" fill="#e2e8f0">DataExportPage</text>
</g>
<!-- navigation&#45;&gt;hidden_DataExport -->
<g id="edge58" class="edge">
<title>navigation&#45;&gt;hidden_DataExport</title>
<path fill="none" stroke="#fb923c" stroke-width="1.3" stroke-dasharray="5,2" d="M195.09,-1534.85C258.99,-1523.78 352.96,-1507.49 417.23,-1496.35"/>
<polygon fill="#fb923c" stroke="#fb923c" stroke-width="1.3" points="417.91,-1499.08 425.31,-1494.95 416.95,-1493.56 417.91,-1499.08"/>
</g>
<!-- hidden_DataSampling -->
<g id="node59" class="node">
<title>hidden_DataSampling</title>
<path fill="#431407" stroke="#fb923c" d="M551,-1440C551,-1440 428,-1440 428,-1440 422,-1440 416,-1434 416,-1428 416,-1428 416,-1414 416,-1414 416,-1408 422,-1402 428,-1402 428,-1402 551,-1402 551,-1402 557,-1402 563,-1408 563,-1414 563,-1414 563,-1428 563,-1428 563,-1434 557,-1440 551,-1440"/>
<text text-anchor="middle" x="489.5" y="-1424.8" font-family="Segoe UI" font-size="14.00" fill="#e2e8f0">DataSampling</text>
<text text-anchor="middle" x="489.5" y="-1409.8" font-family="Segoe UI" font-size="14.00" fill="#e2e8f0">DataSamplingPage</text>
</g>
<!-- navigation&#45;&gt;hidden_DataSampling -->
<g id="edge59" class="edge">
<title>navigation&#45;&gt;hidden_DataSampling</title>
<path fill="none" stroke="#fb923c" stroke-width="1.3" stroke-dasharray="5,2" d="M195.03,-1535.29C213,-1530.56 231.81,-1524.02 248,-1515 282.88,-1495.57 277.42,-1471.12 313,-1453 342.01,-1438.23 376.78,-1430.19 407.69,-1425.85"/>
<polygon fill="#fb923c" stroke="#fb923c" stroke-width="1.3" points="408.32,-1428.59 415.88,-1424.77 407.58,-1423.04 408.32,-1428.59"/>
</g>
<!-- hidden_TimeSeriesAlignment -->
<g id="node60" class="node">
<title>hidden_TimeSeriesAlignment</title>
<path fill="#431407" stroke="#fb923c" d="M576,-1377C576,-1377 403,-1377 403,-1377 397,-1377 391,-1371 391,-1365 391,-1365 391,-1351 391,-1351 391,-1345 397,-1339 403,-1339 403,-1339 576,-1339 576,-1339 582,-1339 588,-1345 588,-1351 588,-1351 588,-1365 588,-1365 588,-1371 582,-1377 576,-1377"/>
<text text-anchor="middle" x="489.5" y="-1361.8" font-family="Segoe UI" font-size="14.00" fill="#e2e8f0">TimeSeriesAlignment</text>
<text text-anchor="middle" x="489.5" y="-1346.8" font-family="Segoe UI" font-size="14.00" fill="#e2e8f0">TimeSeriesAlignmentPage</text>
</g>
<!-- navigation&#45;&gt;hidden_TimeSeriesAlignment -->
<g id="edge60" class="edge">
<title>navigation&#45;&gt;hidden_TimeSeriesAlignment</title>
<path fill="none" stroke="#fb923c" stroke-width="1.3" stroke-dasharray="5,2" d="M195.09,-1539.3C213.75,-1534.58 232.9,-1527.03 248,-1515 296.97,-1475.97 262.62,-1427.18 313,-1390 333.12,-1375.15 358.02,-1366.48 382.67,-1361.58"/>
<polygon fill="#fb923c" stroke="#fb923c" stroke-width="1.3" points="383.29,-1364.31 390.66,-1360.11 382.28,-1358.8 383.29,-1364.31"/>
</g>
<!-- hidden_ExportPresets -->
<g id="node61" class="node">
<title>hidden_ExportPresets</title>
<path fill="#431407" stroke="#fb923c" d="M550.5,-1314C550.5,-1314 428.5,-1314 428.5,-1314 422.5,-1314 416.5,-1308 416.5,-1302 416.5,-1302 416.5,-1288 416.5,-1288 416.5,-1282 422.5,-1276 428.5,-1276 428.5,-1276 550.5,-1276 550.5,-1276 556.5,-1276 562.5,-1282 562.5,-1288 562.5,-1288 562.5,-1302 562.5,-1302 562.5,-1308 556.5,-1314 550.5,-1314"/>
<text text-anchor="middle" x="489.5" y="-1298.8" font-family="Segoe UI" font-size="14.00" fill="#e2e8f0">ExportPresets</text>
<text text-anchor="middle" x="489.5" y="-1283.8" font-family="Segoe UI" font-size="14.00" fill="#e2e8f0">ExportPresetsPage</text>
</g>
<!-- navigation&#45;&gt;hidden_ExportPresets -->
<g id="edge61" class="edge">
<title>navigation&#45;&gt;hidden_ExportPresets</title>
<path fill="none" stroke="#fb923c" stroke-width="1.3" stroke-dasharray="5,2" d="M195.01,-1541.01C214.1,-1536.35 233.5,-1528.41 248,-1515 312.92,-1454.98 245.9,-1384.57 313,-1327 339,-1304.69 375.3,-1295.69 408.15,-1292.65"/>
<polygon fill="#fb923c" stroke="#fb923c" stroke-width="1.3" points="408.66,-1295.42 416.42,-1292.01 408.22,-1289.84 408.66,-1295.42"/>
</g>
<!-- hidden_AnalysisExport -->
<g id="node62" class="node">
<title>hidden_AnalysisExport</title>
<path fill="#431407" stroke="#fb923c" d="M554,-1251C554,-1251 425,-1251 425,-1251 419,-1251 413,-1245 413,-1239 413,-1239 413,-1225 413,-1225 413,-1219 419,-1213 425,-1213 425,-1213 554,-1213 554,-1213 560,-1213 566,-1219 566,-1225 566,-1225 566,-1239 566,-1239 566,-1245 560,-1251 554,-1251"/>
<text text-anchor="middle" x="489.5" y="-1235.8" font-family="Segoe UI" font-size="14.00" fill="#e2e8f0">AnalysisExport</text>
<text text-anchor="middle" x="489.5" y="-1220.8" font-family="Segoe UI" font-size="14.00" fill="#e2e8f0">AnalysisExportPage</text>
</g>
<!-- navigation&#45;&gt;hidden_AnalysisExport -->
<g id="edge62" class="edge">
<title>navigation&#45;&gt;hidden_AnalysisExport</title>
<path fill="none" stroke="#fb923c" stroke-width="1.3" stroke-dasharray="5,2" d="M195.23,-1542.05C214.56,-1537.44 234.03,-1529.26 248,-1515 328.65,-1432.69 227.47,-1341.23 313,-1264 337.69,-1241.71 372.55,-1232.49 404.7,-1229.3"/>
<polygon fill="#fb923c" stroke="#fb923c" stroke-width="1.3" points="405.08,-1232.07 412.81,-1228.61 404.6,-1226.49 405.08,-1232.07"/>
</g>
<!-- hidden_AnalysisExportWizard -->
<g id="node63" class="node">
<title>hidden_AnalysisExportWizard</title>
<path fill="#431407" stroke="#fb923c" d="M577.5,-1188C577.5,-1188 401.5,-1188 401.5,-1188 395.5,-1188 389.5,-1182 389.5,-1176 389.5,-1176 389.5,-1162 389.5,-1162 389.5,-1156 395.5,-1150 401.5,-1150 401.5,-1150 577.5,-1150 577.5,-1150 583.5,-1150 589.5,-1156 589.5,-1162 589.5,-1162 589.5,-1176 589.5,-1176 589.5,-1182 583.5,-1188 577.5,-1188"/>
<text text-anchor="middle" x="489.5" y="-1172.8" font-family="Segoe UI" font-size="14.00" fill="#e2e8f0">AnalysisExportWizard</text>
<text text-anchor="middle" x="489.5" y="-1157.8" font-family="Segoe UI" font-size="14.00" fill="#e2e8f0">AnalysisExportWizardPage</text>
</g>
<!-- navigation&#45;&gt;hidden_AnalysisExportWizard -->
<g id="edge63" class="edge">
<title>navigation&#45;&gt;hidden_AnalysisExportWizard</title>
<path fill="none" stroke="#fb923c" stroke-width="1.3" stroke-dasharray="5,2" d="M195.24,-1542.82C214.8,-1538.26 234.39,-1529.91 248,-1515 296.03,-1462.36 259.78,-1248.38 313,-1201 331.79,-1184.28 356.31,-1174.94 381.05,-1169.99"/>
<polygon fill="#fb923c" stroke="#fb923c" stroke-width="1.3" points="381.71,-1172.72 389.08,-1168.54 380.71,-1167.21 381.71,-1172.72"/>
</g>
<!-- hidden_AdvancedAnalytics -->
<g id="node64" class="node">
<title>hidden_AdvancedAnalytics</title>
<path fill="#431407" stroke="#fb923c" d="M568,-1125C568,-1125 411,-1125 411,-1125 405,-1125 399,-1119 399,-1113 399,-1113 399,-1099 399,-1099 399,-1093 405,-1087 411,-1087 411,-1087 568,-1087 568,-1087 574,-1087 580,-1093 580,-1099 580,-1099 580,-1113 580,-1113 580,-1119 574,-1125 568,-1125"/>
<text text-anchor="middle" x="489.5" y="-1109.8" font-family="Segoe UI" font-size="14.00" fill="#e2e8f0">AdvancedAnalytics</text>
<text text-anchor="middle" x="489.5" y="-1094.8" font-family="Segoe UI" font-size="14.00" fill="#e2e8f0">AdvancedAnalyticsPage</text>
</g>
<!-- navigation&#45;&gt;hidden_AdvancedAnalytics -->
<g id="edge64" class="edge">
<title>navigation&#45;&gt;hidden_AdvancedAnalytics</title>
<path fill="none" stroke="#fb923c" stroke-width="1.3" stroke-dasharray="5,2" d="M195.06,-1543.02C214.73,-1538.48 234.43,-1530.1 248,-1515 304.82,-1451.76 251.95,-1197.17 313,-1138 333.63,-1118 362.36,-1108.3 390.61,-1104.05"/>
<polygon fill="#fb923c" stroke="#fb923c" stroke-width="1.3" points="390.99,-1106.82 398.55,-1102.99 390.25,-1101.27 390.99,-1106.82"/>
</g>
<!-- hidden_OrderBook -->
<g id="node65" class="node">
<title>hidden_OrderBook</title>
<path fill="#431407" stroke="#fb923c" d="M539.5,-1062C539.5,-1062 439.5,-1062 439.5,-1062 433.5,-1062 427.5,-1056 427.5,-1050 427.5,-1050 427.5,-1036 427.5,-1036 427.5,-1030 433.5,-1024 439.5,-1024 439.5,-1024 539.5,-1024 539.5,-1024 545.5,-1024 551.5,-1030 551.5,-1036 551.5,-1036 551.5,-1050 551.5,-1050 551.5,-1056 545.5,-1062 539.5,-1062"/>
<text text-anchor="middle" x="489.5" y="-1046.8" font-family="Segoe UI" font-size="14.00" fill="#e2e8f0">OrderBook</text>
<text text-anchor="middle" x="489.5" y="-1031.8" font-family="Segoe UI" font-size="14.00" fill="#e2e8f0">OrderBookPage</text>
</g>
<!-- navigation&#45;&gt;hidden_OrderBook -->
<g id="edge65" class="edge">
<title>navigation&#45;&gt;hidden_OrderBook</title>
<path fill="none" stroke="#fb923c" stroke-width="1.3" stroke-dasharray="5,2" d="M195.02,-1543.34C214.81,-1538.83 234.59,-1530.39 248,-1515 312.94,-1440.49 242.03,-1143.79 313,-1075 340.71,-1048.15 383.01,-1039.85 419.14,-1038.41"/>
<polygon fill="#fb923c" stroke="#fb923c" stroke-width="1.3" points="419.3,-1041.21 427.22,-1038.2 419.15,-1035.61 419.3,-1041.21"/>
</g>
<!-- hidden_DataCalendar -->
<g id="node66" class="node">
<title>hidden_DataCalendar</title>
<path fill="#431407" stroke="#fb923c" d="M549.5,-999C549.5,-999 429.5,-999 429.5,-999 423.5,-999 417.5,-993 417.5,-987 417.5,-987 417.5,-973 417.5,-973 417.5,-967 423.5,-961 429.5,-961 429.5,-961 549.5,-961 549.5,-961 555.5,-961 561.5,-967 561.5,-973 561.5,-973 561.5,-987 561.5,-987 561.5,-993 555.5,-999 549.5,-999"/>
<text text-anchor="middle" x="489.5" y="-983.8" font-family="Segoe UI" font-size="14.00" fill="#e2e8f0">DataCalendar</text>
<text text-anchor="middle" x="489.5" y="-968.8" font-family="Segoe UI" font-size="14.00" fill="#e2e8f0">DataCalendarPage</text>
</g>
<!-- navigation&#45;&gt;hidden_DataCalendar -->
<g id="edge66" class="edge">
<title>navigation&#45;&gt;hidden_DataCalendar</title>
<path fill="none" stroke="#fb923c" stroke-width="1.3" stroke-dasharray="5,2" d="M195.23,-1543.52C215.03,-1539.02 234.76,-1530.53 248,-1515 321.1,-1429.21 231.5,-1089.85 313,-1012 338.4,-987.74 375.74,-978.69 409.45,-976.14"/>
<polygon fill="#fb923c" stroke="#fb923c" stroke-width="1.3" points="409.67,-978.94 417.48,-975.65 409.32,-973.35 409.67,-978.94"/>
</g>
<!-- hidden_StorageOptimization -->
<g id="node67" class="node">
<title>hidden_StorageOptimization</title>
<path fill="#431407" stroke="#fb923c" d="M573.5,-936C573.5,-936 405.5,-936 405.5,-936 399.5,-936 393.5,-930 393.5,-924 393.5,-924 393.5,-910 393.5,-910 393.5,-904 399.5,-898 405.5,-898 405.5,-898 573.5,-898 573.5,-898 579.5,-898 585.5,-904 585.5,-910 585.5,-910 585.5,-924 585.5,-924 585.5,-930 579.5,-936 573.5,-936"/>
<text text-anchor="middle" x="489.5" y="-920.8" font-family="Segoe UI" font-size="14.00" fill="#e2e8f0">StorageOptimization</text>
<text text-anchor="middle" x="489.5" y="-905.8" font-family="Segoe UI" font-size="14.00" fill="#e2e8f0">StorageOptimizationPage</text>
</g>
<!-- navigation&#45;&gt;hidden_StorageOptimization -->
<g id="edge67" class="edge">
<title>navigation&#45;&gt;hidden_StorageOptimization</title>
<path fill="none" stroke="#fb923c" stroke-width="1.3" stroke-dasharray="5,2" d="M195.05,-1543.72C214.97,-1539.24 234.81,-1530.72 248,-1515 329.37,-1418.01 220.63,-1035.58 313,-949 332.56,-930.67 358.95,-921.07 385.32,-916.41"/>
<polygon fill="#fb923c" stroke="#fb923c" stroke-width="1.3" points="386.03,-919.13 393.49,-915.11 385.15,-913.6 386.03,-919.13"/>
</g>
<!-- hidden_RetentionAssurance -->
<g id="node68" class="node">
<title>hidden_RetentionAssurance</title>
<path fill="#431407" stroke="#fb923c" d="M571.5,-873C571.5,-873 407.5,-873 407.5,-873 401.5,-873 395.5,-867 395.5,-861 395.5,-861 395.5,-847 395.5,-847 395.5,-841 401.5,-835 407.5,-835 407.5,-835 571.5,-835 571.5,-835 577.5,-835 583.5,-841 583.5,-847 583.5,-847 583.5,-861 583.5,-861 583.5,-867 577.5,-873 571.5,-873"/>
<text text-anchor="middle" x="489.5" y="-857.8" font-family="Segoe UI" font-size="14.00" fill="#e2e8f0">RetentionAssurance</text>
<text text-anchor="middle" x="489.5" y="-842.8" font-family="Segoe UI" font-size="14.00" fill="#e2e8f0">RetentionAssurancePage</text>
</g>
<!-- navigation&#45;&gt;hidden_RetentionAssurance -->
<g id="edge68" class="edge">
<title>navigation&#45;&gt;hidden_RetentionAssurance</title>
<path fill="none" stroke="#fb923c" stroke-width="1.3" stroke-dasharray="5,2" d="M195.16,-1543.81C215.08,-1539.33 234.9,-1530.79 248,-1515 337.74,-1406.86 209.76,-981.33 313,-886 333.19,-867.36 360.47,-857.79 387.5,-853.25"/>
<polygon fill="#fb923c" stroke="#fb923c" stroke-width="1.3" points="388,-856.01 395.49,-852.05 387.17,-850.47 388,-856.01"/>
</g>
<!-- hidden_AdminMaintenance -->
<g id="node69" class="node">
<title>hidden_AdminMaintenance</title>
<path fill="#431407" stroke="#fb923c" d="M568.5,-810C568.5,-810 410.5,-810 410.5,-810 404.5,-810 398.5,-804 398.5,-798 398.5,-798 398.5,-784 398.5,-784 398.5,-778 404.5,-772 410.5,-772 410.5,-772 568.5,-772 568.5,-772 574.5,-772 580.5,-778 580.5,-784 580.5,-784 580.5,-798 580.5,-798 580.5,-804 574.5,-810 568.5,-810"/>
<text text-anchor="middle" x="489.5" y="-794.8" font-family="Segoe UI" font-size="14.00" fill="#e2e8f0">AdminMaintenance</text>
<text text-anchor="middle" x="489.5" y="-779.8" font-family="Segoe UI" font-size="14.00" fill="#e2e8f0">AdminMaintenancePage</text>
</g>
<!-- navigation&#45;&gt;hidden_AdminMaintenance -->
<g id="edge69" class="edge">
<title>navigation&#45;&gt;hidden_AdminMaintenance</title>
<path fill="none" stroke="#fb923c" stroke-width="1.3" stroke-dasharray="5,2" d="M195.23,-1543.87C215.16,-1539.4 234.96,-1530.84 248,-1515 346.18,-1395.76 199.15,-927.38 313,-823 333.88,-803.85 362.25,-794.31 390.08,-789.94"/>
<polygon fill="#fb923c" stroke="#fb923c" stroke-width="1.3" points="390.76,-792.67 398.3,-788.79 389.99,-787.13 390.76,-792.67"/>
</g>
<!-- hidden_LeanIntegration -->
<g id="node70" class="node">
<title>hidden_LeanIntegration</title>
<path fill="#431407" stroke="#fb923c" d="M557,-747C557,-747 422,-747 422,-747 416,-747 410,-741 410,-735 410,-735 410,-721 410,-721 410,-715 416,-709 422,-709 422,-709 557,-709 557,-709 563,-709 569,-715 569,-721 569,-721 569,-735 569,-735 569,-741 563,-747 557,-747"/>
<text text-anchor="middle" x="489.5" y="-731.8" font-family="Segoe UI" font-size="14.00" fill="#e2e8f0">LeanIntegration</text>
<text text-anchor="middle" x="489.5" y="-716.8" font-family="Segoe UI" font-size="14.00" fill="#e2e8f0">LeanIntegrationPage</text>
</g>
<!-- navigation&#45;&gt;hidden_LeanIntegration -->
<g id="edge70" class="edge">
<title>navigation&#45;&gt;hidden_LeanIntegration</title>
<path fill="none" stroke="#fb923c" stroke-width="1.3" stroke-dasharray="5,2" d="M195.29,-1543.92C215.22,-1539.45 235.01,-1530.88 248,-1515 293.94,-1458.85 272.1,-934.57 284,-863 291.8,-816.09 277.83,-792.01 313,-760 336.76,-738.38 370.08,-729.02 401.31,-725.55"/>
<polygon fill="#fb923c" stroke="#fb923c" stroke-width="1.3" points="401.93,-728.3 409.62,-724.75 401.39,-722.72 401.93,-728.3"/>
</g>
<!-- hidden_MessagingHub -->
<g id="node71" class="node">
<title>hidden_MessagingHub</title>
<path fill="#431407" stroke="#fb923c" d="M553.5,-684C553.5,-684 425.5,-684 425.5,-684 419.5,-684 413.5,-678 413.5,-672 413.5,-672 413.5,-658 413.5,-658 413.5,-652 419.5,-646 425.5,-646 425.5,-646 553.5,-646 553.5,-646 559.5,-646 565.5,-652 565.5,-658 565.5,-658 565.5,-672 565.5,-672 565.5,-678 559.5,-684 553.5,-684"/>
<text text-anchor="middle" x="489.5" y="-668.8" font-family="Segoe UI" font-size="14.00" fill="#e2e8f0">MessagingHub</text>
<text text-anchor="middle" x="489.5" y="-653.8" font-family="Segoe UI" font-size="14.00" fill="#e2e8f0">MessagingHubPage</text>
</g>
<!-- navigation&#45;&gt;hidden_MessagingHub -->
<g id="edge71" class="edge">
<title>navigation&#45;&gt;hidden_MessagingHub</title>
<path fill="none" stroke="#fb923c" stroke-width="1.3" stroke-dasharray="5,2" d="M195.3,-1543.93C215.23,-1539.46 235.01,-1530.89 248,-1515 305.7,-1444.4 248.34,-761.28 313,-697 336.89,-673.25 372.17,-663.9 404.84,-661.01"/>
<polygon fill="#fb923c" stroke="#fb923c" stroke-width="1.3" points="405.31,-663.78 413.08,-660.41 404.9,-658.2 405.31,-663.78"/>
</g>
<!-- hidden_Workspaces -->
<g id="node72" class="node">
<title>hidden_Workspaces</title>
<path fill="#431407" stroke="#fb923c" d="M540,-621C540,-621 439,-621 439,-621 433,-621 427,-615 427,-609 427,-609 427,-595 427,-595 427,-589 433,-583 439,-583 439,-583 540,-583 540,-583 546,-583 552,-589 552,-595 552,-595 552,-609 552,-609 552,-615 546,-621 540,-621"/>
<text text-anchor="middle" x="489.5" y="-605.8" font-family="Segoe UI" font-size="14.00" fill="#e2e8f0">Workspaces</text>
<text text-anchor="middle" x="489.5" y="-590.8" font-family="Segoe UI" font-size="14.00" fill="#e2e8f0">WorkspacePage</text>
</g>
<!-- navigation&#45;&gt;hidden_Workspaces -->
<g id="edge72" class="edge">
<title>navigation&#45;&gt;hidden_Workspaces</title>
<path fill="none" stroke="#fb923c" stroke-width="1.3" stroke-dasharray="5,2" d="M195.32,-1543.94C215.25,-1539.47 235.03,-1530.9 248,-1515 310.05,-1438.94 244.69,-704.48 313,-634 339.85,-606.3 382.13,-597.98 418.46,-596.74"/>
<polygon fill="#fb923c" stroke="#fb923c" stroke-width="1.3" points="418.65,-599.53 426.6,-596.57 418.54,-593.93 418.65,-599.53"/>
</g>
<!-- hidden_Welcome -->
<g id="node73" class="node">
<title>hidden_Welcome</title>
<path fill="#431407" stroke="#fb923c" d="M533.5,-558C533.5,-558 445.5,-558 445.5,-558 439.5,-558 433.5,-552 433.5,-546 433.5,-546 433.5,-532 433.5,-532 433.5,-526 439.5,-520 445.5,-520 445.5,-520 533.5,-520 533.5,-520 539.5,-520 545.5,-526 545.5,-532 545.5,-532 545.5,-546 545.5,-546 545.5,-552 539.5,-558 533.5,-558"/>
<text text-anchor="middle" x="489.5" y="-542.8" font-family="Segoe UI" font-size="14.00" fill="#e2e8f0">Welcome</text>
<text text-anchor="middle" x="489.5" y="-527.8" font-family="Segoe UI" font-size="14.00" fill="#e2e8f0">WelcomePage</text>
</g>
<!-- navigation&#45;&gt;hidden_Welcome -->
<g id="edge73" class="edge">
<title>navigation&#45;&gt;hidden_Welcome</title>
<path fill="none" stroke="#fb923c" stroke-width="1.3" stroke-dasharray="5,2" d="M195.05,-1544.05C215.09,-1539.6 235,-1531.02 248,-1515 314.26,-1433.37 239.59,-646.26 313,-571 341.55,-541.73 387.33,-534.14 424.97,-533.65"/>
<polygon fill="#fb923c" stroke="#fb923c" stroke-width="1.3" points="425.36,-536.45 433.36,-533.66 425.36,-530.85 425.36,-536.45"/>
</g>
<!-- hidden_CredentialManagement -->
<g id="node74" class="node">
<title>hidden_CredentialManagement</title>
<path fill="#431407" stroke="#fb923c" d="M583,-495C583,-495 396,-495 396,-495 390,-495 384,-489 384,-483 384,-483 384,-469 384,-469 384,-463 390,-457 396,-457 396,-457 583,-457 583,-457 589,-457 595,-463 595,-469 595,-469 595,-483 595,-483 595,-489 589,-495 583,-495"/>
<text text-anchor="middle" x="489.5" y="-479.8" font-family="Segoe UI" font-size="14.00" fill="#e2e8f0">CredentialManagement</text>
<text text-anchor="middle" x="489.5" y="-464.8" font-family="Segoe UI" font-size="14.00" fill="#e2e8f0">CredentialManagementPage</text>
</g>
<!-- navigation&#45;&gt;hidden_CredentialManagement -->
<g id="edge74" class="edge">
<title>navigation&#45;&gt;hidden_CredentialManagement</title>
<path fill="none" stroke="#fb923c" stroke-width="1.3" stroke-dasharray="5,2" d="M195.09,-1544.08C215.13,-1539.64 235.03,-1531.04 248,-1515 318.48,-1427.8 234.4,-587.96 313,-508 329.78,-490.94 352.41,-481.26 375.84,-476.06"/>
<polygon fill="#fb923c" stroke="#fb923c" stroke-width="1.3" points="376.52,-478.78 383.81,-474.46 375.42,-473.29 376.52,-478.78"/>
</g>
<!-- hidden_KeyboardShortcuts -->
<g id="node75" class="node">
<title>hidden_KeyboardShortcuts</title>
<path fill="#431407" stroke="#fb923c" d="M568,-432C568,-432 411,-432 411,-432 405,-432 399,-426 399,-420 399,-420 399,-406 399,-406 399,-400 405,-394 411,-394 411,-394 568,-394 568,-394 574,-394 580,-400 580,-406 580,-406 580,-420 580,-420 580,-426 574,-432 568,-432"/>
<text text-anchor="middle" x="489.5" y="-416.8" font-family="Segoe UI" font-size="14.00" fill="#e2e8f0">KeyboardShortcuts</text>
<text text-anchor="middle" x="489.5" y="-401.8" font-family="Segoe UI" font-size="14.00" fill="#e2e8f0">KeyboardShortcutsPage</text>
</g>
<!-- navigation&#45;&gt;hidden_KeyboardShortcuts -->
<g id="edge75" class="edge">
<title>navigation&#45;&gt;hidden_KeyboardShortcuts</title>
<path fill="none" stroke="#fb923c" stroke-width="1.3" stroke-dasharray="5,2" d="M195.12,-1544.11C215.16,-1539.67 235.06,-1531.07 248,-1515 322.71,-1422.24 229.05,-529.49 313,-445 333.35,-424.52 362.16,-414.71 390.56,-410.52"/>
<polygon fill="#fb923c" stroke="#fb923c" stroke-width="1.3" points="390.98,-413.29 398.55,-409.48 390.26,-407.73 390.98,-413.29"/>
</g>
<!-- hidden_SetupWizard -->
<g id="node76" class="node">
<title>hidden_SetupWizard</title>
<path fill="#431407" stroke="#fb923c" d="M546,-369C546,-369 433,-369 433,-369 427,-369 421,-363 421,-357 421,-357 421,-343 421,-343 421,-337 427,-331 433,-331 433,-331 546,-331 546,-331 552,-331 558,-337 558,-343 558,-343 558,-357 558,-357 558,-363 552,-369 546,-369"/>
<text text-anchor="middle" x="489.5" y="-353.8" font-family="Segoe UI" font-size="14.00" fill="#e2e8f0">SetupWizard</text>
<text text-anchor="middle" x="489.5" y="-338.8" font-family="Segoe UI" font-size="14.00" fill="#e2e8f0">SetupWizardPage</text>
</g>
<!-- navigation&#45;&gt;hidden_SetupWizard -->
<g id="edge76" class="edge">
<title>navigation&#45;&gt;hidden_SetupWizard</title>
<path fill="none" stroke="#fb923c" stroke-width="1.3" stroke-dasharray="5,2" d="M195.15,-1544.13C215.19,-1539.69 235.08,-1531.09 248,-1515 326.94,-1416.67 223.53,-470.85 313,-382 338.84,-356.34 377.96,-347.5 412.72,-345.44"/>
<polygon fill="#fb923c" stroke="#fb923c" stroke-width="1.3" points="413.12,-348.23 420.98,-345.07 412.87,-342.63 413.12,-348.23"/>
</g>
<!-- hidden_AddProviderWizard -->
<g id="node77" class="node">
<title>hidden_AddProviderWizard</title>
<path fill="#431407" stroke="#fb923c" d="M568,-306C568,-306 411,-306 411,-306 405,-306 399,-300 399,-294 399,-294 399,-280 399,-280 399,-274 405,-268 411,-268 411,-268 568,-268 568,-268 574,-268 580,-274 580,-280 580,-280 580,-294 580,-294 580,-300 574,-306 568,-306"/>
<text text-anchor="middle" x="489.5" y="-290.8" font-family="Segoe UI" font-size="14.00" fill="#e2e8f0">AddProviderWizard</text>
<text text-anchor="middle" x="489.5" y="-275.8" font-family="Segoe UI" font-size="14.00" fill="#e2e8f0">AddProviderWizardPage</text>
</g>
<!-- navigation&#45;&gt;hidden_AddProviderWizard -->
<g id="edge77" class="edge">
<title>navigation&#45;&gt;hidden_AddProviderWizard</title>
<path fill="none" stroke="#fb923c" stroke-width="1.3" stroke-dasharray="5,2" d="M195.17,-1544.15C215.22,-1539.71 235.1,-1531.1 248,-1515 331.2,-1411.13 218.34,-412.55 313,-319 333.54,-298.7 362.4,-288.95 390.79,-284.74"/>
<polygon fill="#fb923c" stroke="#fb923c" stroke-width="1.3" points="391.21,-287.51 398.78,-283.7 390.48,-281.96 391.21,-287.51"/>
</g>
<!-- hidden_DashboardWeb -->
<g id="node78" class="node">
<title>hidden_DashboardWeb</title>
<path fill="#431407" stroke="#fb923c" d="M555,-243C555,-243 424,-243 424,-243 418,-243 412,-237 412,-231 412,-231 412,-217 412,-217 412,-211 418,-205 424,-205 424,-205 555,-205 555,-205 561,-205 567,-211 567,-217 567,-217 567,-231 567,-231 567,-237 561,-243 555,-243"/>
<text text-anchor="middle" x="489.5" y="-227.8" font-family="Segoe UI" font-size="14.00" fill="#e2e8f0">DashboardWeb</text>
<text text-anchor="middle" x="489.5" y="-212.8" font-family="Segoe UI" font-size="14.00" fill="#e2e8f0">DashboardWebPage</text>
</g>
<!-- navigation&#45;&gt;hidden_DashboardWeb -->
<g id="edge78" class="edge">
<title>navigation&#45;&gt;hidden_DashboardWeb</title>
<path fill="none" stroke="#fb923c" stroke-width="1.3" stroke-dasharray="5,2" d="M195.19,-1544.17C215.24,-1539.73 235.12,-1531.12 248,-1515 286.69,-1466.59 276.86,-461.56 284,-400 291.52,-335.15 266.41,-301.74 313,-256 336.74,-232.7 371.44,-223.31 403.74,-220.27"/>
<polygon fill="#fb923c" stroke="#fb923c" stroke-width="1.3" points="404.14,-223.05 411.89,-219.63 403.7,-217.47 404.14,-223.05"/>
</g>
<!-- hidden_ActivityLog -->
<g id="node79" class="node">
<title>hidden_ActivityLog</title>
<path fill="#431407" stroke="#fb923c" d="M540,-180C540,-180 439,-180 439,-180 433,-180 427,-174 427,-168 427,-168 427,-154 427,-154 427,-148 433,-142 439,-142 439,-142 540,-142 540,-142 546,-142 552,-148 552,-154 552,-154 552,-168 552,-168 552,-174 546,-180 540,-180"/>
<text text-anchor="middle" x="489.5" y="-164.8" font-family="Segoe UI" font-size="14.00" fill="#e2e8f0">ActivityLog</text>
<text text-anchor="middle" x="489.5" y="-149.8" font-family="Segoe UI" font-size="14.00" fill="#e2e8f0">ActivityLogPage</text>
</g>
<!-- navigation&#45;&gt;hidden_ActivityLog -->
<g id="edge79" class="edge">
<title>navigation&#45;&gt;hidden_ActivityLog</title>
<path fill="none" stroke="#fb923c" stroke-width="1.3" stroke-dasharray="5,2" d="M195.22,-1544.19C215.27,-1539.75 235.14,-1531.13 248,-1515 290.06,-1462.24 274.18,-367.76 284,-301 291.23,-251.83 276.45,-226.67 313,-193 341.17,-167.05 383.07,-158.71 418.86,-157.01"/>
<polygon fill="#fb923c" stroke="#fb923c" stroke-width="1.3" points="418.97,-159.81 426.87,-156.73 418.78,-154.21 418.97,-159.81"/>
</g>
<!-- hidden_SecurityMaster -->
<g id="node80" class="node">
<title>hidden_SecurityMaster</title>
<path fill="#431407" stroke="#fb923c" d="M554.5,-117C554.5,-117 424.5,-117 424.5,-117 418.5,-117 412.5,-111 412.5,-105 412.5,-105 412.5,-91 412.5,-91 412.5,-85 418.5,-79 424.5,-79 424.5,-79 554.5,-79 554.5,-79 560.5,-79 566.5,-85 566.5,-91 566.5,-91 566.5,-105 566.5,-105 566.5,-111 560.5,-117 554.5,-117"/>
<text text-anchor="middle" x="489.5" y="-101.8" font-family="Segoe UI" font-size="14.00" fill="#e2e8f0">SecurityMaster</text>
<text text-anchor="middle" x="489.5" y="-86.8" font-family="Segoe UI" font-size="14.00" fill="#e2e8f0">SecurityMasterPage</text>
</g>
<!-- navigation&#45;&gt;hidden_SecurityMaster -->
<g id="edge80" class="edge">
<title>navigation&#45;&gt;hidden_SecurityMaster</title>
<path fill="none" stroke="#fb923c" stroke-width="1.3" stroke-dasharray="5,2" d="M195.22,-1544.19C215.27,-1539.75 235.14,-1531.13 248,-1515 290.46,-1461.71 276.87,-356.77 284,-289 291.52,-217.56 262.21,-180.79 313,-130 336.62,-106.38 371.49,-96.98 403.94,-94.02"/>
<polygon fill="#fb923c" stroke="#fb923c" stroke-width="1.3" points="404.36,-96.79 412.13,-93.4 403.94,-91.21 404.36,-96.79"/>
</g>
<!-- hidden_DirectLending -->
<g id="node81" class="node">
<title>hidden_DirectLending</title>
<path fill="#431407" stroke="#fb923c" d="M550.5,-54C550.5,-54 428.5,-54 428.5,-54 422.5,-54 416.5,-48 416.5,-42 416.5,-42 416.5,-28 416.5,-28 416.5,-22 422.5,-16 428.5,-16 428.5,-16 550.5,-16 550.5,-16 556.5,-16 562.5,-22 562.5,-28 562.5,-28 562.5,-42 562.5,-42 562.5,-48 556.5,-54 550.5,-54"/>
<text text-anchor="middle" x="489.5" y="-38.8" font-family="Segoe UI" font-size="14.00" fill="#e2e8f0">DirectLending</text>
<text text-anchor="middle" x="489.5" y="-23.8" font-family="Segoe UI" font-size="14.00" fill="#e2e8f0">DirectLendingPage</text>
</g>
<!-- navigation&#45;&gt;hidden_DirectLending -->
<g id="edge81" class="edge">
<title>navigation&#45;&gt;hidden_DirectLending</title>
<path fill="none" stroke="#fb923c" stroke-width="1.3" stroke-dasharray="5,2" d="M195.25,-1544.21C215.3,-1539.77 235.16,-1531.15 248,-1515 294.44,-1456.57 272.98,-245.82 284,-172 291.15,-124.12 277.28,-99.67 313,-67 338.39,-43.78 374.79,-34.69 407.86,-31.83"/>
<polygon fill="#fb923c" stroke="#fb923c" stroke-width="1.3" points="408.41,-34.6 416.19,-31.24 408.01,-29.01 408.41,-34.6"/>
</g>
<!-- page_ResearchShell -->
<g id="node5" class="node">
<title>page_ResearchShell</title>
<path fill="#1e293b" stroke="#475569" d="M1105.5,-3107C1105.5,-3107 789.5,-3107 789.5,-3107 783.5,-3107 777.5,-3101 777.5,-3095 777.5,-3095 777.5,-3081 777.5,-3081 777.5,-3075 783.5,-3069 789.5,-3069 789.5,-3069 1105.5,-3069 1105.5,-3069 1111.5,-3069 1117.5,-3075 1117.5,-3081 1117.5,-3081 1117.5,-3095 1117.5,-3095 1117.5,-3101 1111.5,-3107 1105.5,-3107"/>
<text text-anchor="middle" x="947.5" y="-3091.8" font-family="Segoe UI" font-size="14.00" fill="#e2e8f0">ResearchShell</text>
<text text-anchor="middle" x="947.5" y="-3076.8" font-family="Segoe UI" font-size="14.00" fill="#e2e8f0">ResearchShell → ResearchWorkspaceShellPage</text>
</g>
<!-- workspace_1&#45;&gt;page_ResearchShell -->
<g id="edge3" class="edge">
<title>workspace_1&#45;&gt;page_ResearchShell</title>
<path fill="none" stroke="#94a3b8" stroke-width="1.3" d="M493.39,-3887.78C510.5,-3776.95 602.06,-3220.94 732,-3120 743.42,-3111.13 756.23,-3104.21 769.77,-3098.84"/>
<polygon fill="#94a3b8" stroke="#94a3b8" stroke-width="1.3" points="770.84,-3101.42 777.36,-3096.01 768.89,-3096.18 770.84,-3101.42"/>
</g>
<!-- page_Backtest -->
<g id="node6" class="node">
<title>page_Backtest</title>
<path fill="#1e293b" stroke="#475569" d="M1031,-3170C1031,-3170 864,-3170 864,-3170 858,-3170 852,-3164 852,-3158 852,-3158 852,-3144 852,-3144 852,-3138 858,-3132 864,-3132 864,-3132 1031,-3132 1031,-3132 1037,-3132 1043,-3138 1043,-3144 1043,-3144 1043,-3158 1043,-3158 1043,-3164 1037,-3170 1031,-3170"/>
<text text-anchor="middle" x="947.5" y="-3154.8" font-family="Segoe UI" font-size="14.00" fill="#e2e8f0">Backtest</text>
<text text-anchor="middle" x="947.5" y="-3139.8" font-family="Segoe UI" font-size="14.00" fill="#e2e8f0">Backtest → BacktestPage</text>
</g>
<!-- workspace_1&#45;&gt;page_Backtest -->
<g id="edge4" class="edge">
<title>workspace_1&#45;&gt;page_Backtest</title>
<path fill="none" stroke="#94a3b8" stroke-width="1.3" d="M489.95,-3887.73C488.41,-3792.3 495.36,-3367.59 732,-3183 763.32,-3158.57 805.25,-3148.84 843.73,-3145.84"/>
<polygon fill="#94a3b8" stroke="#94a3b8" stroke-width="1.3" points="844.09,-3148.63 851.89,-3145.3 843.72,-3143.04 844.09,-3148.63"/>
</g>
<!-- page_Charts -->
<g id="node7" class="node">
<title>page_Charts</title>
<path fill="#1e293b" stroke="#475569" d="M1023.5,-3233C1023.5,-3233 871.5,-3233 871.5,-3233 865.5,-3233 859.5,-3227 859.5,-3221 859.5,-3221 859.5,-3207 859.5,-3207 859.5,-3201 865.5,-3195 871.5,-3195 871.5,-3195 1023.5,-3195 1023.5,-3195 1029.5,-3195 1035.5,-3201 1035.5,-3207 1035.5,-3207 1035.5,-3221 1035.5,-3221 1035.5,-3227 1029.5,-3233 1023.5,-3233"/>
<text text-anchor="middle" x="947.5" y="-3217.8" font-family="Segoe UI" font-size="14.00" fill="#e2e8f0">Charts</text>
<text text-anchor="middle" x="947.5" y="-3202.8" font-family="Segoe UI" font-size="14.00" fill="#e2e8f0">Charts → ChartingPage</text>
</g>
<!-- workspace_1&#45;&gt;page_Charts -->
<g id="edge5" class="edge">
<title>workspace_1&#45;&gt;page_Charts</title>
<path fill="none" stroke="#94a3b8" stroke-width="1.3" d="M490.73,-3887.71C492.95,-3797.55 515.25,-3415.07 732,-3246 765.4,-3219.95 810.87,-3210.61 851.35,-3208.33"/>
<polygon fill="#94a3b8" stroke="#94a3b8" stroke-width="1.3" points="851.51,-3211.13 859.37,-3207.97 851.25,-3205.54 851.51,-3211.13"/>
</g>
<!-- page_QuantScript -->
<g id="node8" class="node">
<title>page_QuantScript</title>
<path fill="#1e293b" stroke="#475569" d="M1054,-3296C1054,-3296 841,-3296 841,-3296 835,-3296 829,-3290 829,-3284 829,-3284 829,-3270 829,-3270 829,-3264 835,-3258 841,-3258 841,-3258 1054,-3258 1054,-3258 1060,-3258 1066,-3264 1066,-3270 1066,-3270 1066,-3284 1066,-3284 1066,-3290 1060,-3296 1054,-3296"/>
<text text-anchor="middle" x="947.5" y="-3280.8" font-family="Segoe UI" font-size="14.00" fill="#e2e8f0">QuantScript</text>
<text text-anchor="middle" x="947.5" y="-3265.8" font-family="Segoe UI" font-size="14.00" fill="#e2e8f0">QuantScript → QuantScriptPage</text>
</g>
<!-- workspace_1&#45;&gt;page_QuantScript -->
<g id="edge6" class="edge">
<title>workspace_1&#45;&gt;page_QuantScript</title>
<path fill="none" stroke="#94a3b8" stroke-width="1.3" d="M491.63,-3887.96C497.75,-3803.78 534.38,-3462.52 732,-3309 757.22,-3289.41 789.27,-3279.29 820.86,-3274.51"/>
<polygon fill="#94a3b8" stroke="#94a3b8" stroke-width="1.3" points="821.33,-3277.27 828.88,-3273.41 820.57,-3271.72 821.33,-3277.27"/>
</g>
<!-- page_RunMat -->
<g id="node9" class="node">
<title>page_RunMat</title>
<path fill="#1e293b" stroke="#475569" d="M1023.5,-3359C1023.5,-3359 871.5,-3359 871.5,-3359 865.5,-3359 859.5,-3353 859.5,-3347 859.5,-3347 859.5,-3333 859.5,-3333 859.5,-3327 865.5,-3321 871.5,-3321 871.5,-3321 1023.5,-3321 1023.5,-3321 1029.5,-3321 1035.5,-3327 1035.5,-3333 1035.5,-3333 1035.5,-3347 1035.5,-3347 1035.5,-3353 1029.5,-3359 1023.5,-3359"/>
<text text-anchor="middle" x="947.5" y="-3343.8" font-family="Segoe UI" font-size="14.00" fill="#e2e8f0">RunMat</text>
<text text-anchor="middle" x="947.5" y="-3328.8" font-family="Segoe UI" font-size="14.00" fill="#e2e8f0">RunMat → RunMatPage</text>
</g>
<!-- workspace_1&#45;&gt;page_RunMat -->
<g id="edge7" class="edge">
<title>workspace_1&#45;&gt;page_RunMat</title>
<path fill="none" stroke="#94a3b8" stroke-width="1.3" d="M492.67,-3887.89C502.68,-3809.21 551.96,-3508.14 732,-3372 765.72,-3346.51 811.11,-3337.22 851.46,-3334.82"/>
<polygon fill="#94a3b8" stroke="#94a3b8" stroke-width="1.3" points="851.6,-3337.62 859.46,-3334.44 851.33,-3332.03 851.6,-3337.62"/>
</g>
<!-- page_EventReplay -->
<g id="node10" class="node">
<title>page_EventReplay</title>
<path fill="#1e293b" stroke="#475569" d="M1057,-3422C1057,-3422 838,-3422 838,-3422 832,-3422 826,-3416 826,-3410 826,-3410 826,-3396 826,-3396 826,-3390 832,-3384 838,-3384 838,-3384 1057,-3384 1057,-3384 1063,-3384 1069,-3390 1069,-3396 1069,-3396 1069,-3410 1069,-3410 1069,-3416 1063,-3422 1057,-3422"/>
<text text-anchor="middle" x="947.5" y="-3406.8" font-family="Segoe UI" font-size="14.00" fill="#e2e8f0">EventReplay</text>
<text text-anchor="middle" x="947.5" y="-3391.8" font-family="Segoe UI" font-size="14.00" fill="#e2e8f0">EventReplay → EventReplayPage</text>
</g>
<!-- workspace_1&#45;&gt;page_EventReplay -->
<g id="edge8" class="edge">
<title>workspace_1&#45;&gt;page_EventReplay</title>
<path fill="none" stroke="#94a3b8" stroke-width="1.3" d="M505.18,-3887.73C542.34,-3838.07 641.07,-3700.63 696,-3572 720.72,-3514.1 685.13,-3477.03 732,-3435 755.52,-3413.91 786.66,-3403.21 817.89,-3398.35"/>
<polygon fill="#94a3b8" stroke="#94a3b8" stroke-width="1.3" points="818.3,-3401.12 825.83,-3397.24 817.52,-3395.58 818.3,-3401.12"/>
</g>
<!-- page_StrategyRuns -->
<g id="node11" class="node">
<title>page_StrategyRuns</title>
<path fill="#1e293b" stroke="#475569" d="M1064.5,-3485C1064.5,-3485 830.5,-3485 830.5,-3485 824.5,-3485 818.5,-3479 818.5,-3473 818.5,-3473 818.5,-3459 818.5,-3459 818.5,-3453 824.5,-3447 830.5,-3447 830.5,-3447 1064.5,-3447 1064.5,-3447 1070.5,-3447 1076.5,-3453 1076.5,-3459 1076.5,-3459 1076.5,-3473 1076.5,-3473 1076.5,-3479 1070.5,-3485 1064.5,-3485"/>
<text text-anchor="middle" x="947.5" y="-3469.8" font-family="Segoe UI" font-size="14.00" fill="#e2e8f0">StrategyRuns</text>
<text text-anchor="middle" x="947.5" y="-3454.8" font-family="Segoe UI" font-size="14.00" fill="#e2e8f0">StrategyRuns → StrategyRunsPage</text>
</g>
<!-- workspace_1&#45;&gt;page_StrategyRuns -->
<g id="edge9" class="edge">
<title>workspace_1&#45;&gt;page_StrategyRuns</title>
<path fill="none" stroke="#94a3b8" stroke-width="1.3" d="M511.65,-3887.98C554.41,-3856.28 650.92,-3790.37 696,-3707 743.33,-3619.46 661.16,-3555.9 732,-3486 767.59,-3450.89 823.96,-3443.59 869.99,-3446.37"/>
<polygon fill="#94a3b8" stroke="#94a3b8" stroke-width="1.3" points="869.97,-3449.18 878.16,-3446.98 870.39,-3443.6 869.97,-3449.18"/>
</g>
<!-- workspace_1&#45;&gt;page_StrategyRuns -->
<g id="edge13" class="edge">
<title>workspace_1&#45;&gt;page_StrategyRuns</title>
<path fill="none" stroke="#94a3b8" stroke-width="1.3" d="M536.87,-3887.96C585,-3858.94 658.4,-3801.55 696,-3732 743.33,-3644.46 661.16,-3580.9 732,-3511 752.95,-3490.33 781.09,-3479.3 810.09,-3473.58"/>
<polygon fill="#94a3b8" stroke="#94a3b8" stroke-width="1.3" points="810.91,-3476.28 818.29,-3472.1 809.92,-3470.77 810.91,-3476.28"/>
</g>
<!-- page_Watchlist -->
<g id="node12" class="node">
<title>page_Watchlist</title>
<path fill="#1e293b" stroke="#475569" d="M1034,-3548C1034,-3548 861,-3548 861,-3548 855,-3548 849,-3542 849,-3536 849,-3536 849,-3522 849,-3522 849,-3516 855,-3510 861,-3510 861,-3510 1034,-3510 1034,-3510 1040,-3510 1046,-3516 1046,-3522 1046,-3522 1046,-3536 1046,-3536 1046,-3542 1040,-3548 1034,-3548"/>
<text text-anchor="middle" x="947.5" y="-3532.8" font-family="Segoe UI" font-size="14.00" fill="#e2e8f0">Watchlist</text>
<text text-anchor="middle" x="947.5" y="-3517.8" font-family="Segoe UI" font-size="14.00" fill="#e2e8f0">Watchlist → WatchlistPage</text>
</g>
<!-- workspace_1&#45;&gt;page_Watchlist -->
<g id="edge10" class="edge">
<title>workspace_1&#45;&gt;page_Watchlist</title>
<path fill="none" stroke="#94a3b8" stroke-width="1.3" d="M551.87,-3890.27C599.01,-3874.09 661.67,-3844.73 696,-3796 756.86,-3709.62 657.14,-3635.57 732,-3561 760.2,-3532.91 801.7,-3522.56 840.7,-3520.09"/>
<polygon fill="#94a3b8" stroke="#94a3b8" stroke-width="1.3" points="841.12,-3522.88 848.97,-3519.68 840.85,-3517.28 841.12,-3522.88"/>
</g>
<!-- page_TradingShell -->
<g id="node13" class="node">
<title>page_TradingShell</title>
<path fill="#1e293b" stroke="#475569" d="M1094,-3611C1094,-3611 801,-3611 801,-3611 795,-3611 789,-3605 789,-3599 789,-3599 789,-3585 789,-3585 789,-3579 795,-3573 801,-3573 801,-3573 1094,-3573 1094,-3573 1100,-3573 1106,-3579 1106,-3585 1106,-3585 1106,-3599 1106,-3599 1106,-3605 1100,-3611 1094,-3611"/>
<text text-anchor="middle" x="947.5" y="-3595.8" font-family="Segoe UI" font-size="14.00" fill="#e2e8f0">TradingShell</text>
<text text-anchor="middle" x="947.5" y="-3580.8" font-family="Segoe UI" font-size="14.00" fill="#e2e8f0">TradingShell → TradingWorkspaceShellPage</text>
</g>
<!-- workspace_1&#45;&gt;page_TradingShell -->
<g id="edge11" class="edge">
<title>workspace_1&#45;&gt;page_TradingShell</title>
<path fill="none" stroke="#94a3b8" stroke-width="1.3" d="M551.96,-3902.87C598.5,-3896.35 660.32,-3879.79 696,-3838 758.63,-3764.65 663.17,-3691.56 732,-3624 745.81,-3610.44 762.73,-3601.04 780.94,-3594.67"/>
<polygon fill="#94a3b8" stroke="#94a3b8" stroke-width="1.3" points="782.07,-3597.24 788.82,-3592.12 780.35,-3591.92 782.07,-3597.24"/>
</g>
<!-- page_LiveData -->
<g id="node14" class="node">
<title>page_LiveData</title>
<path fill="#1e293b" stroke="#475569" d="M1054,-3674C1054,-3674 841,-3674 841,-3674 835,-3674 829,-3668 829,-3662 829,-3662 829,-3648 829,-3648 829,-3642 835,-3636 841,-3636 841,-3636 1054,-3636 1054,-3636 1060,-3636 1066,-3642 1066,-3648 1066,-3648 1066,-3662 1066,-3662 1066,-3668 1060,-3674 1054,-3674"/>
<text text-anchor="middle" x="947.5" y="-3658.8" font-family="Segoe UI" font-size="14.00" fill="#e2e8f0">LiveData</text>
<text text-anchor="middle" x="947.5" y="-3643.8" font-family="Segoe UI" font-size="14.00" fill="#e2e8f0">LiveData → LiveDataViewerPage</text>
</g>
<!-- workspace_1&#45;&gt;page_LiveData -->
<g id="edge12" class="edge">
<title>workspace_1&#45;&gt;page_LiveData</title>
<path fill="none" stroke="#94a3b8" stroke-width="1.3" d="M551.91,-3910.21C597.81,-3909.12 658.79,-3899.68 696,-3862 751.79,-3805.5 674.33,-3741.59 732,-3687 755.82,-3664.45 788.27,-3653.54 820.71,-3648.96"/>
<polygon fill="#94a3b8" stroke="#94a3b8" stroke-width="1.3" points="821.37,-3651.7 828.96,-3647.93 820.67,-3646.15 821.37,-3651.7"/>
</g>
<!-- page_RunPortfolio -->
<g id="node15" class="node">
<title>page_RunPortfolio</title>
<path fill="#1e293b" stroke="#475569" d="M1055,-3737C1055,-3737 840,-3737 840,-3737 834,-3737 828,-3731 828,-3725 828,-3725 828,-3711 828,-3711 828,-3705 834,-3699 840,-3699 840,-3699 1055,-3699 1055,-3699 1061,-3699 1067,-3705 1067,-3711 1067,-3711 1067,-3725 1067,-3725 1067,-3731 1061,-3737 1055,-3737"/>
<text text-anchor="middle" x="947.5" y="-3721.8" font-family="Segoe UI" font-size="14.00" fill="#e2e8f0">RunPortfolio</text>
<text text-anchor="middle" x="947.5" y="-3706.8" font-family="Segoe UI" font-size="14.00" fill="#e2e8f0">RunPortfolio → RunPortfolioPage</text>
</g>
<!-- workspace_1&#45;&gt;page_RunPortfolio -->
<g id="edge14" class="edge">
<title>workspace_1&#45;&gt;page_RunPortfolio</title>
<path fill="none" stroke="#94a3b8" stroke-width="1.3" d="M551.67,-3914.45C596.82,-3916.44 656.96,-3911.23 696,-3877 740.12,-3838.33 687.94,-3788.74 732,-3750 756.11,-3728.8 787.96,-3718.17 819.71,-3713.42"/>
<polygon fill="#94a3b8" stroke="#94a3b8" stroke-width="1.3" points="820.22,-3716.18 827.78,-3712.34 819.48,-3710.63 820.22,-3716.18"/>
</g>
<!-- page_TradingHours -->
<g id="node16" class="node">
<title>page_TradingHours</title>
<path fill="#1e293b" stroke="#475569" d="M1064,-3800C1064,-3800 831,-3800 831,-3800 825,-3800 819,-3794 819,-3788 819,-3788 819,-3774 819,-3774 819,-3768 825,-3762 831,-3762 831,-3762 1064,-3762 1064,-3762 1070,-3762 1076,-3768 1076,-3774 1076,-3774 1076,-3788 1076,-3788 1076,-3794 1070,-3800 1064,-3800"/>
<text text-anchor="middle" x="947.5" y="-3784.8" font-family="Segoe UI" font-size="14.00" fill="#e2e8f0">TradingHours</text>
<text text-anchor="middle" x="947.5" y="-3769.8" font-family="Segoe UI" font-size="14.00" fill="#e2e8f0">TradingHours → TradingHoursPage</text>
</g>
<!-- workspace_1&#45;&gt;page_TradingHours -->
<g id="edge15" class="edge">
<title>workspace_1&#45;&gt;page_TradingHours</title>
<path fill="none" stroke="#94a3b8" stroke-width="1.3" d="M551.58,-3915.5C595.53,-3918.34 654.18,-3915.06 696,-3886 725.71,-3865.36 702.78,-3834.32 732,-3813 754.87,-3796.31 782.8,-3786.67 810.86,-3781.37"/>
<polygon fill="#94a3b8" stroke="#94a3b8" stroke-width="1.3" points="811.37,-3784.12 818.77,-3779.99 810.41,-3778.61 811.37,-3784.12"/>
</g>
<!-- page_PositionBlotter -->
<g id="node17" class="node">
<title>page_PositionBlotter</title>
<path fill="#1e293b" stroke="#475569" d="M1071.5,-3863C1071.5,-3863 823.5,-3863 823.5,-3863 817.5,-3863 811.5,-3857 811.5,-3851 811.5,-3851 811.5,-3837 811.5,-3837 811.5,-3831 817.5,-3825 823.5,-3825 823.5,-3825 1071.5,-3825 1071.5,-3825 1077.5,-3825 1083.5,-3831 1083.5,-3837 1083.5,-3837 1083.5,-3851 1083.5,-3851 1083.5,-3857 1077.5,-3863 1071.5,-3863"/>
<text text-anchor="middle" x="947.5" y="-3847.8" font-family="Segoe UI" font-size="14.00" fill="#e2e8f0">PositionBlotter</text>
<text text-anchor="middle" x="947.5" y="-3832.8" font-family="Segoe UI" font-size="14.00" fill="#e2e8f0">PositionBlotter → PositionBlotterPage</text>
</g>
<!-- workspace_1&#45;&gt;page_PositionBlotter -->
<g id="edge16" class="edge">
<title>workspace_1&#45;&gt;page_PositionBlotter</title>
<path fill="none" stroke="#94a3b8" stroke-width="1.3" d="M551.78,-3909.45C593.19,-3909.58 648.71,-3906.75 696,-3894 713.27,-3889.34 714.94,-3881.39 732,-3876 754.66,-3868.84 779.19,-3863.27 803.28,-3858.94"/>
<polygon fill="#94a3b8" stroke="#94a3b8" stroke-width="1.3" points="804.03,-3861.65 811.43,-3857.51 803.07,-3856.13 804.03,-3861.65"/>
</g>
<!-- page_NotificationCenter -->
<g id="node18" class="node">
<title>page_NotificationCenter</title>
<path fill="#1e293b" stroke="#475569" d="M1096,-3926C1096,-3926 799,-3926 799,-3926 793,-3926 787,-3920 787,-3914 787,-3914 787,-3900 787,-3900 787,-3894 793,-3888 799,-3888 799,-3888 1096,-3888 1096,-3888 1102,-3888 1108,-3894 1108,-3900 1108,-3900 1108,-3914 1108,-3914 1108,-3920 1102,-3926 1096,-3926"/>
<text text-anchor="middle" x="947.5" y="-3910.8" font-family="Segoe UI" font-size="14.00" fill="#e2e8f0">NotificationCenter</text>
<text text-anchor="middle" x="947.5" y="-3895.8" font-family="Segoe UI" font-size="14.00" fill="#e2e8f0">NotificationCenter → NotificationCenterPage</text>
</g>
<!-- workspace_1&#45;&gt;page_NotificationCenter -->
<g id="edge17" class="edge">
<title>workspace_1&#45;&gt;page_NotificationCenter</title>
<path fill="none" stroke="#94a3b8" stroke-width="1.3" d="M551.53,-3900.63C609.48,-3898.3 699.29,-3897.52 778.64,-3898.28"/>
<polygon fill="#94a3b8" stroke="#94a3b8" stroke-width="1.3" points="778.75,-3901.09 786.78,-3898.37 778.81,-3895.49 778.75,-3901.09"/>
</g>
<!-- workspace_1&#45;&gt;page_NotificationCenter -->
<g id="edge30" class="edge">
<title>workspace_1&#45;&gt;page_NotificationCenter</title>
<path fill="none" stroke="#94a3b8" stroke-width="1.3" d="M551.53,-3913.9C609.48,-3916.42 699.29,-3917.27 778.64,-3916.44"/>
<polygon fill="#94a3b8" stroke="#94a3b8" stroke-width="1.3" points="778.81,-3919.24 786.78,-3916.35 778.75,-3913.64 778.81,-3919.24"/>
</g>
<!-- page_DataOperationsShell -->
<g id="node19" class="node">
<title>page_DataOperationsShell</title>
<path fill="#1e293b" stroke="#475569" d="M1151,-3989C1151,-3989 744,-3989 744,-3989 738,-3989 732,-3983 732,-3977 732,-3977 732,-3963 732,-3963 732,-3957 738,-3951 744,-3951 744,-3951 1151,-3951 1151,-3951 1157,-3951 1163,-3957 1163,-3963 1163,-3963 1163,-3977 1163,-3977 1163,-3983 1157,-3989 1151,-3989"/>
<text text-anchor="middle" x="947.5" y="-3973.8" font-family="Segoe UI" font-size="14.00" fill="#e2e8f0">DataOperationsShell</text>
<text text-anchor="middle" x="947.5" y="-3958.8" font-family="Segoe UI" font-size="14.00" fill="#e2e8f0">DataOperationsShell → DataOperationsWorkspaceShellPage</text>
</g>
<!-- workspace_1&#45;&gt;page_DataOperationsShell -->
<g id="edge18" class="edge">
<title>workspace_1&#45;&gt;page_DataOperationsShell</title>
<path fill="none" stroke="#94a3b8" stroke-width="1.3" d="M551.53,-3915.43C614.89,-3924.18 716.33,-3938.2 800.54,-3949.83"/>
<polygon fill="#94a3b8" stroke="#94a3b8" stroke-width="1.3" points="800.33,-3952.63 808.64,-3950.95 801.09,-3947.08 800.33,-3952.63"/>
</g>
<!-- page_Provider -->
<g id="node20" class="node">
<title>page_Provider</title>
<path fill="#1e293b" stroke="#475569" d="M1028,-4052C1028,-4052 867,-4052 867,-4052 861,-4052 855,-4046 855,-4040 855,-4040 855,-4026 855,-4026 855,-4020 861,-4014 867,-4014 867,-4014 1028,-4014 1028,-4014 1034,-4014 1040,-4020 1040,-4026 1040,-4026 1040,-4040 1040,-4040 1040,-4046 1034,-4052 1028,-4052"/>
<text text-anchor="middle" x="947.5" y="-4036.8" font-family="Segoe UI" font-size="14.00" fill="#e2e8f0">Provider</text>
<text text-anchor="middle" x="947.5" y="-4021.8" font-family="Segoe UI" font-size="14.00" fill="#e2e8f0">Provider → ProviderPage</text>
</g>
<!-- workspace_1&#45;&gt;page_Provider -->
<g id="edge19" class="edge">
<title>workspace_1&#45;&gt;page_Provider</title>
<path fill="none" stroke="#94a3b8" stroke-width="1.3" d="M530.55,-3926.08C577.69,-3947.75 658.84,-3982.6 732,-4002 768.86,-4011.77 810.14,-4018.66 846.58,-4023.43"/>
<polygon fill="#94a3b8" stroke="#94a3b8" stroke-width="1.3" points="846.47,-4026.23 854.76,-4024.47 847.18,-4020.68 846.47,-4026.23"/>
</g>
<!-- page_Symbols -->
<g id="node21" class="node">
<title>page_Symbols</title>
<path fill="#1e293b" stroke="#475569" d="M1030,-4115C1030,-4115 865,-4115 865,-4115 859,-4115 853,-4109 853,-4103 853,-4103 853,-4089 853,-4089 853,-4083 859,-4077 865,-4077 865,-4077 1030,-4077 1030,-4077 1036,-4077 1042,-4083 1042,-4089 1042,-4089 1042,-4103 1042,-4103 1042,-4109 1036,-4115 1030,-4115"/>
<text text-anchor="middle" x="947.5" y="-4099.8" font-family="Segoe UI" font-size="14.00" fill="#e2e8f0">Symbols</text>
<text text-anchor="middle" x="947.5" y="-4084.8" font-family="Segoe UI" font-size="14.00" fill="#e2e8f0">Symbols → SymbolsPage</text>
</g>
<!-- workspace_1&#45;&gt;page_Symbols -->
<g id="edge20" class="edge">
<title>workspace_1&#45;&gt;page_Symbols</title>
<path fill="none" stroke="#94a3b8" stroke-width="1.3" d="M512.3,-3926.11C552.58,-3960.24 642.72,-4031.25 732,-4065 767.5,-4078.42 808.33,-4086.08 844.77,-4090.43"/>
<polygon fill="#94a3b8" stroke="#94a3b8" stroke-width="1.3" points="844.7,-4093.24 852.96,-4091.36 845.33,-4087.68 844.7,-4093.24"/>
</g>
<!-- page_Backfill -->
<g id="node22" class="node">
<title>page_Backfill</title>
<path fill="#1e293b" stroke="#475569" d="M1021,-4178C1021,-4178 874,-4178 874,-4178 868,-4178 862,-4172 862,-4166 862,-4166 862,-4152 862,-4152 862,-4146 868,-4140 874,-4140 874,-4140 1021,-4140 1021,-4140 1027,-4140 1033,-4146 1033,-4152 1033,-4152 1033,-4166 1033,-4166 1033,-4172 1027,-4178 1021,-4178"/>
<text text-anchor="middle" x="947.5" y="-4162.8" font-family="Segoe UI" font-size="14.00" fill="#e2e8f0">Backfill</text>
<text text-anchor="middle" x="947.5" y="-4147.8" font-family="Segoe UI" font-size="14.00" fill="#e2e8f0">Backfill → BackfillPage</text>
</g>
<!-- workspace_1&#45;&gt;page_Backfill -->
<g id="edge21" class="edge">
<title>workspace_1&#45;&gt;page_Backfill</title>
<path fill="none" stroke="#94a3b8" stroke-width="1.3" d="M504.6,-3926.12C538.31,-3970.21 628.5,-4078.98 732,-4128 769.54,-4145.78 814.59,-4153.99 853.7,-4157.58"/>
<polygon fill="#94a3b8" stroke="#94a3b8" stroke-width="1.3" points="853.74,-4160.39 861.95,-4158.27 854.21,-4154.81 853.74,-4160.39"/>
</g>
<!-- page_Storage -->
<g id="node23" class="node">
<title>page_Storage</title>
<path fill="#1e293b" stroke="#475569" d="M1025,-4241C1025,-4241 870,-4241 870,-4241 864,-4241 858,-4235 858,-4229 858,-4229 858,-4215 858,-4215 858,-4209 864,-4203 870,-4203 870,-4203 1025,-4203 1025,-4203 1031,-4203 1037,-4209 1037,-4215 1037,-4215 1037,-4229 1037,-4229 1037,-4235 1031,-4241 1025,-4241"/>
<text text-anchor="middle" x="947.5" y="-4225.8" font-family="Segoe UI" font-size="14.00" fill="#e2e8f0">Storage</text>
<text text-anchor="middle" x="947.5" y="-4210.8" font-family="Segoe UI" font-size="14.00" fill="#e2e8f0">Storage → StoragePage</text>
</g>
<!-- workspace_1&#45;&gt;page_Storage -->
<g id="edge22" class="edge">
<title>workspace_1&#45;&gt;page_Storage</title>
<path fill="none" stroke="#94a3b8" stroke-width="1.3" d="M500.36,-3926.34C528.39,-3979.1 614.17,-4125.89 732,-4191 767.51,-4210.62 811.16,-4219.21 849.8,-4222.59"/>
<polygon fill="#94a3b8" stroke="#94a3b8" stroke-width="1.3" points="849.77,-4225.39 857.96,-4223.23 850.21,-4219.81 849.77,-4225.39"/>
</g>
<!-- page_CollectionSessions -->
<g id="node24" class="node">
<title>page_CollectionSessions</title>
<path fill="#1e293b" stroke="#475569" d="M1095.5,-4304C1095.5,-4304 799.5,-4304 799.5,-4304 793.5,-4304 787.5,-4298 787.5,-4292 787.5,-4292 787.5,-4278 787.5,-4278 787.5,-4272 793.5,-4266 799.5,-4266 799.5,-4266 1095.5,-4266 1095.5,-4266 1101.5,-4266 1107.5,-4272 1107.5,-4278 1107.5,-4278 1107.5,-4292 1107.5,-4292 1107.5,-4298 1101.5,-4304 1095.5,-4304"/>
<text text-anchor="middle" x="947.5" y="-4288.8" font-family="Segoe UI" font-size="14.00" fill="#e2e8f0">CollectionSessions</text>
<text text-anchor="middle" x="947.5" y="-4273.8" font-family="Segoe UI" font-size="14.00" fill="#e2e8f0">CollectionSessions → CollectionSessionPage</text>
</g>
<!-- workspace_1&#45;&gt;page_CollectionSessions -->
<g id="edge23" class="edge">
<title>workspace_1&#45;&gt;page_CollectionSessions</title>
<path fill="none" stroke="#94a3b8" stroke-width="1.3" d="M497.39,-3926.13C520.13,-3986.19 598.98,-4171.87 732,-4254 746.58,-4263 762.75,-4269.78 779.5,-4274.84"/>
<polygon fill="#94a3b8" stroke="#94a3b8" stroke-width="1.3" points="778.77,-4277.55 787.23,-4277.05 780.3,-4272.16 778.77,-4277.55"/>
</g>
<!-- page_PackageManager -->
<g id="node25" class="node">
<title>page_PackageManager</title>
<path fill="#1e293b" stroke="#475569" d="M1088,-4367C1088,-4367 807,-4367 807,-4367 801,-4367 795,-4361 795,-4355 795,-4355 795,-4341 795,-4341 795,-4335 801,-4329 807,-4329 807,-4329 1088,-4329 1088,-4329 1094,-4329 1100,-4335 1100,-4341 1100,-4341 1100,-4355 1100,-4355 1100,-4361 1094,-4367 1088,-4367"/>
<text text-anchor="middle" x="947.5" y="-4351.8" font-family="Segoe UI" font-size="14.00" fill="#e2e8f0">PackageManager</text>
<text text-anchor="middle" x="947.5" y="-4336.8" font-family="Segoe UI" font-size="14.00" fill="#e2e8f0">PackageManager → PackageManagerPage</text>
</g>
<!-- workspace_1&#45;&gt;page_PackageManager -->
<g id="edge24" class="edge">
<title>workspace_1&#45;&gt;page_PackageManager</title>
<path fill="none" stroke="#94a3b8" stroke-width="1.3" d="M495.37,-3926.15C513.44,-3993.01 583.48,-4217.34 732,-4317 748.55,-4328.11 767.43,-4335.94 786.98,-4341.39"/>
<polygon fill="#94a3b8" stroke="#94a3b8" stroke-width="1.3" points="786.34,-4344.12 794.79,-4343.43 787.76,-4338.7 786.34,-4344.12"/>
</g>
<!-- page_GovernanceShell -->
<g id="node26" class="node">
<title>page_GovernanceShell</title>
<path fill="#1e293b" stroke="#475569" d="M1125,-4430C1125,-4430 770,-4430 770,-4430 764,-4430 758,-4424 758,-4418 758,-4418 758,-4404 758,-4404 758,-4398 764,-4392 770,-4392 770,-4392 1125,-4392 1125,-4392 1131,-4392 1137,-4398 1137,-4404 1137,-4404 1137,-4418 1137,-4418 1137,-4424 1131,-4430 1125,-4430"/>
<text text-anchor="middle" x="947.5" y="-4414.8" font-family="Segoe UI" font-size="14.00" fill="#e2e8f0">GovernanceShell</text>
<text text-anchor="middle" x="947.5" y="-4399.8" font-family="Segoe UI" font-size="14.00" fill="#e2e8f0">GovernanceShell → GovernanceWorkspaceShellPage</text>
</g>
<!-- workspace_1&#45;&gt;page_GovernanceShell -->
<g id="edge25" class="edge">
<title>workspace_1&#45;&gt;page_GovernanceShell</title>
<path fill="none" stroke="#94a3b8" stroke-width="1.3" d="M493.84,-3926.17C507.66,-3999.28 567.6,-4262.36 732,-4380 737.83,-4384.17 743.98,-4387.89 750.36,-4391.21"/>
<polygon fill="#94a3b8" stroke="#94a3b8" stroke-width="1.3" points="749.55,-4393.93 757.97,-4394.92 752.01,-4388.89 749.55,-4393.93"/>
</g>
<!-- page_DataQuality -->
<g id="node27" class="node">
<title>page_DataQuality</title>
<path fill="#1e293b" stroke="#475569" d="M1052.5,-4493C1052.5,-4493 842.5,-4493 842.5,-4493 836.5,-4493 830.5,-4487 830.5,-4481 830.5,-4481 830.5,-4467 830.5,-4467 830.5,-4461 836.5,-4455 842.5,-4455 842.5,-4455 1052.5,-4455 1052.5,-4455 1058.5,-4455 1064.5,-4461 1064.5,-4467 1064.5,-4467 1064.5,-4481 1064.5,-4481 1064.5,-4487 1058.5,-4493 1052.5,-4493"/>
<text text-anchor="middle" x="947.5" y="-4477.8" font-family="Segoe UI" font-size="14.00" fill="#e2e8f0">DataQuality</text>
<text text-anchor="middle" x="947.5" y="-4462.8" font-family="Segoe UI" font-size="14.00" fill="#e2e8f0">DataQuality → DataQualityPage</text>
</g>
<!-- workspace_1&#45;&gt;page_DataQuality -->
<g id="edge26" class="edge">
<title>workspace_1&#45;&gt;page_DataQuality</title>
<path fill="none" stroke="#94a3b8" stroke-width="1.3" d="M492.64,-3926.17C502.53,-4005.08 551.41,-4306.99 732,-4443 757.77,-4462.41 790.33,-4472.29 822.26,-4476.86"/>
<polygon fill="#94a3b8" stroke="#94a3b8" stroke-width="1.3" points="822.06,-4479.65 830.35,-4477.9 822.78,-4474.1 822.06,-4479.65"/>
</g>
<!-- page_ProviderHealth -->
<g id="node28" class="node">
<title>page_ProviderHealth</title>
<path fill="#1e293b" stroke="#475569" d="M1073,-4556C1073,-4556 822,-4556 822,-4556 816,-4556 810,-4550 810,-4544 810,-4544 810,-4530 810,-4530 810,-4524 816,-4518 822,-4518 822,-4518 1073,-4518 1073,-4518 1079,-4518 1085,-4524 1085,-4530 1085,-4530 1085,-4544 1085,-4544 1085,-4550 1079,-4556 1073,-4556"/>
<text text-anchor="middle" x="947.5" y="-4540.8" font-family="Segoe UI" font-size="14.00" fill="#e2e8f0">ProviderHealth</text>
<text text-anchor="middle" x="947.5" y="-4525.8" font-family="Segoe UI" font-size="14.00" fill="#e2e8f0">ProviderHealth → ProviderHealthPage</text>
</g>
<!-- workspace_1&#45;&gt;page_ProviderHealth -->
<g id="edge27" class="edge">
<title>workspace_1&#45;&gt;page_ProviderHealth</title>
<path fill="none" stroke="#94a3b8" stroke-width="1.3" d="M491.6,-3926.1C497.59,-4010.52 533.74,-4352.72 732,-4506 752.23,-4521.64 776.84,-4531.16 802.08,-4536.71"/>
<polygon fill="#94a3b8" stroke="#94a3b8" stroke-width="1.3" points="801.53,-4539.46 809.93,-4538.31 802.64,-4533.97 801.53,-4539.46"/>
</g>
<!-- page_SystemHealth -->
<g id="node29" class="node">
<title>page_SystemHealth</title>
<path fill="#1e293b" stroke="#475569" d="M1067.5,-4619C1067.5,-4619 827.5,-4619 827.5,-4619 821.5,-4619 815.5,-4613 815.5,-4607 815.5,-4607 815.5,-4593 815.5,-4593 815.5,-4587 821.5,-4581 827.5,-4581 827.5,-4581 1067.5,-4581 1067.5,-4581 1073.5,-4581 1079.5,-4587 1079.5,-4593 1079.5,-4593 1079.5,-4607 1079.5,-4607 1079.5,-4613 1073.5,-4619 1067.5,-4619"/>
<text text-anchor="middle" x="947.5" y="-4603.8" font-family="Segoe UI" font-size="14.00" fill="#e2e8f0">SystemHealth</text>
<text text-anchor="middle" x="947.5" y="-4588.8" font-family="Segoe UI" font-size="14.00" fill="#e2e8f0">SystemHealth → SystemHealthPage</text>
</g>
<!-- workspace_1&#45;&gt;page_SystemHealth -->
<g id="edge28" class="edge">
<title>workspace_1&#45;&gt;page_SystemHealth</title>
<path fill="none" stroke="#94a3b8" stroke-width="1.3" d="M490.68,-3926.06C492.66,-4015.99 513.99,-4400.45 732,-4569 753.61,-4585.71 780.2,-4595.43 807.23,-4600.79"/>
<polygon fill="#94a3b8" stroke="#94a3b8" stroke-width="1.3" points="806.86,-4603.57 815.24,-4602.25 807.87,-4598.06 806.86,-4603.57"/>
</g>
<!-- page_Diagnostics -->
<g id="node30" class="node">
<title>page_Diagnostics</title>
<path fill="#1e293b" stroke="#475569" d="M1051,-4682C1051,-4682 844,-4682 844,-4682 838,-4682 832,-4676 832,-4670 832,-4670 832,-4656 832,-4656 832,-4650 838,-4644 844,-4644 844,-4644 1051,-4644 1051,-4644 1057,-4644 1063,-4650 1063,-4656 1063,-4656 1063,-4670 1063,-4670 1063,-4676 1057,-4682 1051,-4682"/>
<text text-anchor="middle" x="947.5" y="-4666.8" font-family="Segoe UI" font-size="14.00" fill="#e2e8f0">Diagnostics</text>
<text text-anchor="middle" x="947.5" y="-4651.8" font-family="Segoe UI" font-size="14.00" fill="#e2e8f0">Diagnostics → DiagnosticsPage</text>
</g>
<!-- workspace_1&#45;&gt;page_Diagnostics -->
<g id="edge29" class="edge">
<title>workspace_1&#45;&gt;page_Diagnostics</title>
<path fill="none" stroke="#94a3b8" stroke-width="1.3" d="M489.93,-3926.01C488.23,-4021.05 494.38,-4447.52 732,-4632 757.96,-4652.15 791.18,-4662.17 823.68,-4666.61"/>
<polygon fill="#94a3b8" stroke="#94a3b8" stroke-width="1.3" points="823.64,-4669.42 831.92,-4667.62 824.32,-4663.86 823.64,-4669.42"/>
</g>
<!-- page_Settings -->
<g id="node31" class="node">
<title>page_Settings</title>
<path fill="#1e293b" stroke="#475569" d="M1028,-4745C1028,-4745 867,-4745 867,-4745 861,-4745 855,-4739 855,-4733 855,-4733 855,-4719 855,-4719 855,-4713 861,-4707 867,-4707 867,-4707 1028,-4707 1028,-4707 1034,-4707 1040,-4713 1040,-4719 1040,-4719 1040,-4733 1040,-4733 1040,-4739 1034,-4745 1028,-4745"/>
<text text-anchor="middle" x="947.5" y="-4729.8" font-family="Segoe UI" font-size="14.00" fill="#e2e8f0">Settings</text>
<text text-anchor="middle" x="947.5" y="-4714.8" font-family="Segoe UI" font-size="14.00" fill="#e2e8f0">Settings → SettingsPage</text>
</g>
<!-- workspace_1&#45;&gt;page_Settings -->
<g id="edge31" class="edge">
<title>workspace_1&#45;&gt;page_Settings</title>
<path fill="none" stroke="#94a3b8" stroke-width="1.3" d="M493.38,-3926.26C510.42,-4037.28 601.68,-4594.24 732,-4695 764.17,-4719.87 807.4,-4729.27 846.62,-4731.82"/>
<polygon fill="#94a3b8" stroke="#94a3b8" stroke-width="1.3" points="846.79,-4734.64 854.93,-4732.27 847.09,-4729.04 846.79,-4734.64"/>
</g>
<!-- page_FundLedger -->
<g id="node32" class="node">
<title>page_FundLedger</title>
<path fill="#1e293b" stroke="#475569" d="M1053.5,-4808C1053.5,-4808 841.5,-4808 841.5,-4808 835.5,-4808 829.5,-4802 829.5,-4796 829.5,-4796 829.5,-4782 829.5,-4782 829.5,-4776 835.5,-4770 841.5,-4770 841.5,-4770 1053.5,-4770 1053.5,-4770 1059.5,-4770 1065.5,-4776 1065.5,-4782 1065.5,-4782 1065.5,-4796 1065.5,-4796 1065.5,-4802 1059.5,-4808 1053.5,-4808"/>
<text text-anchor="middle" x="947.5" y="-4792.8" font-family="Segoe UI" font-size="14.00" fill="#e2e8f0">FundLedger</text>
<text text-anchor="middle" x="947.5" y="-4777.8" font-family="Segoe UI" font-size="14.00" fill="#e2e8f0">FundLedger → FundLedgerPage</text>
</g>
<!-- workspace_1&#45;&gt;page_FundLedger -->
<g id="edge32" class="edge">
<title>workspace_1&#45;&gt;page_FundLedger</title>
<path fill="none" stroke="#94a3b8" stroke-width="1.3" d="M492.95,-3926.21C508.17,-4042.09 593.55,-4646.8 732,-4758 757.08,-4778.15 789.34,-4788.29 821.18,-4792.87"/>
<polygon fill="#94a3b8" stroke="#94a3b8" stroke-width="1.3" points="820.97,-4795.67 829.26,-4793.92 821.69,-4790.11 820.97,-4795.67"/>
</g>
<!-- page_Help -->
<g id="node33" class="node">
<title>page_Help</title>
<path fill="#1e293b" stroke="#475569" d="M1002.5,-4871C1002.5,-4871 892.5,-4871 892.5,-4871 886.5,-4871 880.5,-4865 880.5,-4859 880.5,-4859 880.5,-4845 880.5,-4845 880.5,-4839 886.5,-4833 892.5,-4833 892.5,-4833 1002.5,-4833 1002.5,-4833 1008.5,-4833 1014.5,-4839 1014.5,-4845 1014.5,-4845 1014.5,-4859 1014.5,-4859 1014.5,-4865 1008.5,-4871 1002.5,-4871"/>
<text text-anchor="middle" x="947.5" y="-4855.8" font-family="Segoe UI" font-size="14.00" fill="#e2e8f0">Help</text>
<text text-anchor="middle" x="947.5" y="-4840.8" font-family="Segoe UI" font-size="14.00" fill="#e2e8f0">Help → HelpPage</text>
</g>
<!-- workspace_1&#45;&gt;page_Help -->
<g id="edge33" class="edge">
<title>workspace_1&#45;&gt;page_Help</title>
<path fill="none" stroke="#94a3b8" stroke-width="1.3" d="M492.52,-3926.05C505.7,-4046.53 583.6,-4701.4 732,-4821 770.75,-4852.23 826.72,-4859.46 871.77,-4859.16"/>
<polygon fill="#94a3b8" stroke="#94a3b8" stroke-width="1.3" points="872.1,-4861.96 880.05,-4859.02 872,-4856.36 872.1,-4861.96"/>
</g>
</g>
</svg>
