<?xml version="1.0" encoding="UTF-8" standalone="no"?>
<!DOCTYPE svg PUBLIC "-//W3C//DTD SVG 1.1//EN"
 "http://www.w3.org/Graphics/SVG/1.1/DTD/svg11.dtd">
<!-- Generated by graphviz version 14.1.3 (20260303.0454)
 -->
<!-- Title: UiNavigationMap Pages: 1 -->
<svg width="922pt" height="3869pt"
 viewBox="0.00 0.00 922.00 3869.00" xmlns="http://www.w3.org/2000/svg" xmlns:xlink="http://www.w3.org/1999/xlink">
<g id="graph0" class="graph" transform="scale(1 1) rotate(0) translate(28.8 3839.8)">
<title>UiNavigationMap</title>
<polygon fill="#0f172a" stroke="none" points="-28.8,28.8 -28.8,-3839.8 892.88,-3839.8 892.88,28.8 -28.8,28.8"/>
<text xml:space="preserve" text-anchor="middle" x="432.04" y="-3789" font-family="Segoe UI" font-size="20.00">Meridian WPF UI navigation map</text>
<text xml:space="preserve" text-anchor="middle" x="432.04" y="-3765" font-family="Segoe UI" font-size="20.00">(auto&#45;generated from MainPage.xaml + NavigationService.cs)</text>
<g id="clust1" class="cluster">
<title>cluster_workspace_1</title>
<path fill="#0f172a" stroke="#334155" d="M113.69,-2183C113.69,-2183 844.08,-2183 844.08,-2183 850.08,-2183 856.08,-2189 856.08,-2195 856.08,-2195 856.08,-3735 856.08,-3735 856.08,-3741 850.08,-3747 844.08,-3747 844.08,-3747 113.69,-3747 113.69,-3747 107.69,-3747 101.69,-3741 101.69,-3735 101.69,-3735 101.69,-2195 101.69,-2195 101.69,-2189 107.69,-2183 113.69,-2183"/>
<text xml:space="preserve" text-anchor="middle" x="478.89" y="-3725" font-family="Segoe UI" font-size="20.00">Shell workspace</text>
</g>
<g id="clust2" class="cluster">
<title>cluster_hidden_pages</title>
<path fill="#0f172a" stroke="#7c2d12" stroke-dasharray="5,2" d="M442.73,-8C442.73,-8 788.29,-8 788.29,-8 794.29,-8 800.29,-14 800.29,-20 800.29,-20 800.29,-2163 800.29,-2163 800.29,-2169 794.29,-2175 788.29,-2175 788.29,-2175 442.73,-2175 442.73,-2175 436.73,-2175 430.73,-2169 430.73,-2163 430.73,-2163 430.73,-20 430.73,-20 430.73,-14 436.73,-8 442.73,-8"/>
<text xml:space="preserve" text-anchor="middle" x="615.51" y="-2153" font-family="Segoe UI" font-size="20.00">Registered but not in sidebar shell</text>
</g>
<!-- generated -->
<g id="node1" class="node">
<title>generated</title>
<polygon fill="#1d4ed8" stroke="#60a5fa" points="197.39,-2167.2 0,-2167.2 0,-2108.8 203.39,-2108.8 203.39,-2161.2 197.39,-2167.2"/>
<polyline fill="none" stroke="#60a5fa" points="197.39,-2167.2 197.39,-2161.2"/>
<polyline fill="none" stroke="#60a5fa" points="203.39,-2161.2 197.39,-2161.2"/>
<text xml:space="preserve" text-anchor="middle" x="101.69" y="-2150.6" font-family="Segoe UI" font-size="14.00" fill="#e2e8f0">Source fingerprint: db5c462f38fe</text>
<text xml:space="preserve" text-anchor="middle" x="101.69" y="-2133.8" font-family="Segoe UI" font-size="14.00" fill="#e2e8f0">Shell entries: 24</text>
<text xml:space="preserve" text-anchor="middle" x="101.69" y="-2117" font-family="Segoe UI" font-size="14.00" fill="#e2e8f0">Registered pages: 55</text>
</g>
<!-- shell -->
<g id="node2" class="node">
<title>shell</title>
<polygon fill="#0f766e" stroke="#2dd4bf" points="156.15,-2233.8 47.24,-2233.8 47.24,-2229.8 43.24,-2229.8 43.24,-2225.8 47.24,-2225.8 47.24,-2200.2 43.24,-2200.2 43.24,-2196.2 47.24,-2196.2 47.24,-2192.2 156.15,-2192.2 156.15,-2233.8"/>
<polyline fill="none" stroke="#2dd4bf" points="47.24,-2229.8 51.24,-2229.8 51.24,-2225.8 47.24,-2225.8"/>
<polyline fill="none" stroke="#2dd4bf" points="47.24,-2200.2 51.24,-2200.2 51.24,-2196.2 47.24,-2196.2"/>
<text xml:space="preserve" text-anchor="middle" x="101.69" y="-2217.2" font-family="Segoe UI" font-size="14.00" fill="#e2e8f0">MainPage.xaml</text>
<text xml:space="preserve" text-anchor="middle" x="101.69" y="-2200.4" font-family="Segoe UI" font-size="14.00" fill="#e2e8f0">Workspace shell</text>
</g>
<!-- navigation -->
<g id="node3" class="node">
<title>navigation</title>
<polygon fill="#7c3aed" stroke="#c4b5fd" points="491.99,-1129.8 369.46,-1129.8 369.46,-1125.8 365.46,-1125.8 365.46,-1121.8 369.46,-1121.8 369.46,-1096.2 365.46,-1096.2 365.46,-1092.2 369.46,-1092.2 369.46,-1088.2 491.99,-1088.2 491.99,-1129.8"/>
<polyline fill="none" stroke="#c4b5fd" points="369.46,-1125.8 373.46,-1125.8 373.46,-1121.8 369.46,-1121.8"/>
<polyline fill="none" stroke="#c4b5fd" points="369.46,-1096.2 373.46,-1096.2 373.46,-1092.2 369.46,-1092.2"/>
<text xml:space="preserve" text-anchor="middle" x="430.73" y="-1113.2" font-family="Segoe UI" font-size="14.00" fill="#e2e8f0">NavigationService</text>
<text xml:space="preserve" text-anchor="middle" x="430.73" y="-1096.4" font-family="Segoe UI" font-size="14.00" fill="#e2e8f0">RegisterAllPages()</text>
</g>
<!-- shell&#45;&gt;navigation -->
<g id="edge1" class="edge">
<title>shell&#45;&gt;navigation</title>
<path fill="none" stroke="#38bdf8" stroke-width="1.3" d="M156.4,-2206.21C173.59,-2201.48 191.29,-2193.49 203.39,-2180 347.74,-2019.08 414.28,-1298.33 427.31,-1139.87"/>
<polygon fill="#38bdf8" stroke="#38bdf8" stroke-width="1.3" points="430.07,-1140.42 427.93,-1132.22 424.49,-1139.97 430.07,-1140.42"/>
<text xml:space="preserve" text-anchor="middle" x="286.42" y="-2127.95" font-family="Segoe UI" font-size="14.00">navigate via tags</text>
</g>
<!-- workspace_1 -->
<g id="node4" class="node">
<title>workspace_1</title>
<polygon fill="#1d4ed8" stroke="#93c5fd" points="481.11,-2902.8 478.11,-2906.8 457.11,-2906.8 454.11,-2902.8 380.35,-2902.8 380.35,-2861.2 481.11,-2861.2 481.11,-2902.8"/>
<text xml:space="preserve" text-anchor="middle" x="430.73" y="-2886.2" font-family="Segoe UI" font-size="14.00" fill="#e2e8f0">Shell</text>
<text xml:space="preserve" text-anchor="middle" x="430.73" y="-2869.4" font-family="Segoe UI" font-size="14.00" fill="#e2e8f0">24 shell entries</text>
</g>
<!-- shell&#45;&gt;workspace_1 -->
<g id="edge2" class="edge">
<title>shell&#45;&gt;workspace_1</title>
<path fill="none" stroke="#22d3ee" stroke-width="1.3" d="M113.02,-2234.13C160.65,-2331.56 359.15,-2737.61 415.03,-2851.93"/>
<polygon fill="#22d3ee" stroke="#22d3ee" stroke-width="1.3" points="412.51,-2853.14 418.53,-2859.1 417.54,-2850.68 412.51,-2853.14"/>
</g>
<!-- hidden_DataSources -->
<g id="node28" class="node">
<title>hidden_DataSources</title>
<path fill="#431407" stroke="#fb923c" d="M751.52,-2000.8C751.52,-2000.8 661.55,-2000.8 661.55,-2000.8 655.55,-2000.8 649.55,-1994.8 649.55,-1988.8 649.55,-1988.8 649.55,-1971.2 649.55,-1971.2 649.55,-1965.2 655.55,-1959.2 661.55,-1959.2 661.55,-1959.2 751.52,-1959.2 751.52,-1959.2 757.52,-1959.2 763.52,-1965.2 763.52,-1971.2 763.52,-1971.2 763.52,-1988.8 763.52,-1988.8 763.52,-1994.8 757.52,-2000.8 751.52,-2000.8"/>
<text xml:space="preserve" text-anchor="middle" x="706.54" y="-1984.2" font-family="Segoe UI" font-size="14.00" fill="#e2e8f0">DataSources</text>
<text xml:space="preserve" text-anchor="middle" x="706.54" y="-1967.4" font-family="Segoe UI" font-size="14.00" fill="#e2e8f0">DataSourcesPage</text>
</g>
<!-- navigation&#45;&gt;hidden_DataSources -->
<g id="edge27" class="edge">
<title>navigation&#45;&gt;hidden_DataSources</title>
<path fill="none" stroke="#fb923c" stroke-width="1.3" stroke-dasharray="5,2" d="M431.87,-1130.22C433.1,-1248.67 445.24,-1826.97 564.99,-1946 584.58,-1965.47 613.28,-1974.48 639.65,-1978.43"/>
<polygon fill="#fb923c" stroke="#fb923c" stroke-width="1.3" points="638.99,-1981.17 647.28,-1979.42 639.71,-1975.62 638.99,-1981.17"/>
</g>
<!-- hidden_DataBrowser -->
<g id="node29" class="node">
<title>hidden_DataBrowser</title>
<path fill="#431407" stroke="#fb923c" d="M753.08,-1933.8C753.08,-1933.8 660,-1933.8 660,-1933.8 654,-1933.8 648,-1927.8 648,-1921.8 648,-1921.8 648,-1904.2 648,-1904.2 648,-1898.2 654,-1892.2 660,-1892.2 660,-1892.2 753.08,-1892.2 753.08,-1892.2 759.08,-1892.2 765.08,-1898.2 765.08,-1904.2 765.08,-1904.2 765.08,-1921.8 765.08,-1921.8 765.08,-1927.8 759.08,-1933.8 753.08,-1933.8"/>
<text xml:space="preserve" text-anchor="middle" x="706.54" y="-1917.2" font-family="Segoe UI" font-size="14.00" fill="#e2e8f0">DataBrowser</text>
<text xml:space="preserve" text-anchor="middle" x="706.54" y="-1900.4" font-family="Segoe UI" font-size="14.00" fill="#e2e8f0">DataBrowserPage</text>
</g>
<!-- navigation&#45;&gt;hidden_DataBrowser -->
<g id="edge28" class="edge">
<title>navigation&#45;&gt;hidden_DataBrowser</title>
<path fill="none" stroke="#fb923c" stroke-width="1.3" stroke-dasharray="5,2" d="M433.19,-1130.08C439.28,-1213.34 465.33,-1526.96 527.99,-1777 539.72,-1823.78 529.06,-1846.84 564.99,-1879 584.9,-1896.82 612.54,-1905.69 638.04,-1909.99"/>
<polygon fill="#fb923c" stroke="#fb923c" stroke-width="1.3" points="637.42,-1912.73 645.74,-1911.13 638.24,-1907.19 637.42,-1912.73"/>
</g>
<!-- hidden_SymbolMapping -->
<g id="node30" class="node">
<title>hidden_SymbolMapping</title>
<path fill="#431407" stroke="#fb923c" d="M763.2,-1866.8C763.2,-1866.8 649.87,-1866.8 649.87,-1866.8 643.87,-1866.8 637.87,-1860.8 637.87,-1854.8 637.87,-1854.8 637.87,-1837.2 637.87,-1837.2 637.87,-1831.2 643.87,-1825.2 649.87,-1825.2 649.87,-1825.2 763.2,-1825.2 763.2,-1825.2 769.2,-1825.2 775.2,-1831.2 775.2,-1837.2 775.2,-1837.2 775.2,-1854.8 775.2,-1854.8 775.2,-1860.8 769.2,-1866.8 763.2,-1866.8"/>
<text xml:space="preserve" text-anchor="middle" x="706.54" y="-1850.2" font-family="Segoe UI" font-size="14.00" fill="#e2e8f0">SymbolMapping</text>
<text xml:space="preserve" text-anchor="middle" x="706.54" y="-1833.4" font-family="Segoe UI" font-size="14.00" fill="#e2e8f0">SymbolMappingPage</text>
</g>
<!-- navigation&#45;&gt;hidden_SymbolMapping -->
<g id="edge29" class="edge">
<title>navigation&#45;&gt;hidden_SymbolMapping</title>
<path fill="none" stroke="#fb923c" stroke-width="1.3" stroke-dasharray="5,2" d="M432.42,-1130.04C436.39,-1236.85 459.97,-1717.7 564.99,-1812 582.32,-1827.56 605.54,-1836.3 628.11,-1841.13"/>
<polygon fill="#fb923c" stroke="#fb923c" stroke-width="1.3" points="627.4,-1843.85 635.79,-1842.6 628.46,-1838.35 627.4,-1843.85"/>
</g>
<!-- hidden_SymbolStorage -->
<g id="node31" class="node">
<title>hidden_SymbolStorage</title>
<path fill="#431407" stroke="#fb923c" d="M759.31,-1799.8C759.31,-1799.8 653.77,-1799.8 653.77,-1799.8 647.77,-1799.8 641.77,-1793.8 641.77,-1787.8 641.77,-1787.8 641.77,-1770.2 641.77,-1770.2 641.77,-1764.2 647.77,-1758.2 653.77,-1758.2 653.77,-1758.2 759.31,-1758.2 759.31,-1758.2 765.31,-1758.2 771.31,-1764.2 771.31,-1770.2 771.31,-1770.2 771.31,-1787.8 771.31,-1787.8 771.31,-1793.8 765.31,-1799.8 759.31,-1799.8"/>
<text xml:space="preserve" text-anchor="middle" x="706.54" y="-1783.2" font-family="Segoe UI" font-size="14.00" fill="#e2e8f0">SymbolStorage</text>
<text xml:space="preserve" text-anchor="middle" x="706.54" y="-1766.4" font-family="Segoe UI" font-size="14.00" fill="#e2e8f0">SymbolStoragePage</text>
</g>
<!-- navigation&#45;&gt;hidden_SymbolStorage -->
<g id="edge30" class="edge">
<title>navigation&#45;&gt;hidden_SymbolStorage</title>
<path fill="none" stroke="#fb923c" stroke-width="1.3" stroke-dasharray="5,2" d="M432.91,-1129.97C439,-1230.28 470.37,-1659.78 564.99,-1745 583.19,-1761.39 607.93,-1770.23 631.58,-1774.88"/>
<polygon fill="#fb923c" stroke="#fb923c" stroke-width="1.3" points="630.98,-1777.62 639.34,-1776.24 631.94,-1772.1 630.98,-1777.62"/>
</g>
<!-- hidden_IndexSubscription -->
<g id="node32" class="node">
<title>hidden_IndexSubscription</title>
<path fill="#431407" stroke="#fb923c" d="M767.47,-1732.8C767.47,-1732.8 645.6,-1732.8 645.6,-1732.8 639.6,-1732.8 633.6,-1726.8 633.6,-1720.8 633.6,-1720.8 633.6,-1703.2 633.6,-1703.2 633.6,-1697.2 639.6,-1691.2 645.6,-1691.2 645.6,-1691.2 767.47,-1691.2 767.47,-1691.2 773.47,-1691.2 779.47,-1697.2 779.47,-1703.2 779.47,-1703.2 779.47,-1720.8 779.47,-1720.8 779.47,-1726.8 773.47,-1732.8 767.47,-1732.8"/>
<text xml:space="preserve" text-anchor="middle" x="706.54" y="-1716.2" font-family="Segoe UI" font-size="14.00" fill="#e2e8f0">IndexSubscription</text>
<text xml:space="preserve" text-anchor="middle" x="706.54" y="-1699.4" font-family="Segoe UI" font-size="14.00" fill="#e2e8f0">IndexSubscriptionPage</text>
</g>
<!-- navigation&#45;&gt;hidden_IndexSubscription -->
<g id="edge31" class="edge">
<title>navigation&#45;&gt;hidden_IndexSubscription</title>
<path fill="none" stroke="#fb923c" stroke-width="1.3" stroke-dasharray="5,2" d="M433.52,-1130.2C441.91,-1224.22 480.54,-1602.17 564.99,-1678 581.19,-1692.54 602.54,-1701.14 623.7,-1706.14"/>
<polygon fill="#fb923c" stroke="#fb923c" stroke-width="1.3" points="623.05,-1708.87 631.46,-1707.79 624.22,-1703.39 623.05,-1708.87"/>
</g>
<!-- hidden_Options -->
<g id="node33" class="node">
<title>hidden_Options</title>
<path fill="#431407" stroke="#fb923c" d="M738.31,-1665.8C738.31,-1665.8 674.76,-1665.8 674.76,-1665.8 668.76,-1665.8 662.76,-1659.8 662.76,-1653.8 662.76,-1653.8 662.76,-1636.2 662.76,-1636.2 662.76,-1630.2 668.76,-1624.2 674.76,-1624.2 674.76,-1624.2 738.31,-1624.2 738.31,-1624.2 744.31,-1624.2 750.31,-1630.2 750.31,-1636.2 750.31,-1636.2 750.31,-1653.8 750.31,-1653.8 750.31,-1659.8 744.31,-1665.8 738.31,-1665.8"/>
<text xml:space="preserve" text-anchor="middle" x="706.54" y="-1649.2" font-family="Segoe UI" font-size="14.00" fill="#e2e8f0">Options</text>
<text xml:space="preserve" text-anchor="middle" x="706.54" y="-1632.4" font-family="Segoe UI" font-size="14.00" fill="#e2e8f0">OptionsPage</text>
</g>
<!-- navigation&#45;&gt;hidden_Options -->
<g id="edge32" class="edge">
<title>navigation&#45;&gt;hidden_Options</title>
<path fill="none" stroke="#fb923c" stroke-width="1.3" stroke-dasharray="5,2" d="M434.14,-1130.09C444.56,-1217.09 488.59,-1546.52 564.99,-1611 589.19,-1631.42 623.66,-1639.97 652.41,-1643.39"/>
<polygon fill="#fb923c" stroke="#fb923c" stroke-width="1.3" points="652.11,-1646.18 660.35,-1644.2 652.68,-1640.61 652.11,-1646.18"/>
</g>
<!-- hidden_Schedules -->
<g id="node34" class="node">
<title>hidden_Schedules</title>
<path fill="#431407" stroke="#fb923c" d="M766.68,-1598.8C766.68,-1598.8 646.4,-1598.8 646.4,-1598.8 640.4,-1598.8 634.4,-1592.8 634.4,-1586.8 634.4,-1586.8 634.4,-1569.2 634.4,-1569.2 634.4,-1563.2 640.4,-1557.2 646.4,-1557.2 646.4,-1557.2 766.68,-1557.2 766.68,-1557.2 772.68,-1557.2 778.68,-1563.2 778.68,-1569.2 778.68,-1569.2 778.68,-1586.8 778.68,-1586.8 778.68,-1592.8 772.68,-1598.8 766.68,-1598.8"/>
<text xml:space="preserve" text-anchor="middle" x="706.54" y="-1582.2" font-family="Segoe UI" font-size="14.00" fill="#e2e8f0">Schedules</text>
<text xml:space="preserve" text-anchor="middle" x="706.54" y="-1565.4" font-family="Segoe UI" font-size="14.00" fill="#e2e8f0">ScheduleManagerPage</text>
</g>
<!-- navigation&#45;&gt;hidden_Schedules -->
<g id="edge33" class="edge">
<title>navigation&#45;&gt;hidden_Schedules</title>
<path fill="none" stroke="#fb923c" stroke-width="1.3" stroke-dasharray="5,2" d="M430.91,-1129.97C429.4,-1201.02 434.91,-1434.22 564.99,-1544 581.63,-1558.04 603.12,-1566.47 624.27,-1571.48"/>
<polygon fill="#fb923c" stroke="#fb923c" stroke-width="1.3" points="623.62,-1574.2 632.02,-1573.14 624.79,-1568.72 623.62,-1574.2"/>
</g>
<!-- hidden_RunDetail -->
<g id="node35" class="node">
<title>hidden_RunDetail</title>
<path fill="#431407" stroke="#fb923c" d="M744.92,-1531.8C744.92,-1531.8 668.16,-1531.8 668.16,-1531.8 662.16,-1531.8 656.16,-1525.8 656.16,-1519.8 656.16,-1519.8 656.16,-1502.2 656.16,-1502.2 656.16,-1496.2 662.16,-1490.2 668.16,-1490.2 668.16,-1490.2 744.92,-1490.2 744.92,-1490.2 750.92,-1490.2 756.92,-1496.2 756.92,-1502.2 756.92,-1502.2 756.92,-1519.8 756.92,-1519.8 756.92,-1525.8 750.92,-1531.8 744.92,-1531.8"/>
<text xml:space="preserve" text-anchor="middle" x="706.54" y="-1515.2" font-family="Segoe UI" font-size="14.00" fill="#e2e8f0">RunDetail</text>
<text xml:space="preserve" text-anchor="middle" x="706.54" y="-1498.4" font-family="Segoe UI" font-size="14.00" fill="#e2e8f0">RunDetailPage</text>
</g>
<!-- navigation&#45;&gt;hidden_RunDetail -->
<g id="edge34" class="edge">
<title>navigation&#45;&gt;hidden_RunDetail</title>
<path fill="none" stroke="#fb923c" stroke-width="1.3" stroke-dasharray="5,2" d="M432.45,-1130.09C435.85,-1193.6 455.16,-1384.32 564.99,-1477 587.38,-1495.89 618.55,-1504.62 645.85,-1508.53"/>
<polygon fill="#fb923c" stroke="#fb923c" stroke-width="1.3" points="645.47,-1511.31 653.76,-1509.52 646.17,-1505.75 645.47,-1511.31"/>
</g>
<!-- hidden_RunPortfolio -->
<g id="node36" class="node">
<title>hidden_RunPortfolio</title>
<path fill="#431407" stroke="#fb923c" d="M752.7,-1464.8C752.7,-1464.8 660.37,-1464.8 660.37,-1464.8 654.37,-1464.8 648.37,-1458.8 648.37,-1452.8 648.37,-1452.8 648.37,-1435.2 648.37,-1435.2 648.37,-1429.2 654.37,-1423.2 660.37,-1423.2 660.37,-1423.2 752.7,-1423.2 752.7,-1423.2 758.7,-1423.2 764.7,-1429.2 764.7,-1435.2 764.7,-1435.2 764.7,-1452.8 764.7,-1452.8 764.7,-1458.8 758.7,-1464.8 752.7,-1464.8"/>
<text xml:space="preserve" text-anchor="middle" x="706.54" y="-1448.2" font-family="Segoe UI" font-size="14.00" fill="#e2e8f0">RunPortfolio</text>
<text xml:space="preserve" text-anchor="middle" x="706.54" y="-1431.4" font-family="Segoe UI" font-size="14.00" fill="#e2e8f0">RunPortfolioPage</text>
</g>
<!-- navigation&#45;&gt;hidden_RunPortfolio -->
<g id="edge35" class="edge">
<title>navigation&#45;&gt;hidden_RunPortfolio</title>
<path fill="none" stroke="#fb923c" stroke-width="1.3" stroke-dasharray="5,2" d="M434.58,-1129.94C443.21,-1184.94 474.31,-1334.48 564.99,-1410 585.43,-1427.02 613.03,-1435.78 638.36,-1440.19"/>
<polygon fill="#fb923c" stroke="#fb923c" stroke-width="1.3" points="637.66,-1442.92 645.99,-1441.38 638.52,-1437.39 637.66,-1442.92"/>
</g>
<!-- hidden_RunLedger -->
<g id="node37" class="node">
<title>hidden_RunLedger</title>
<path fill="#431407" stroke="#fb923c" d="M747.63,-1397.8C747.63,-1397.8 665.44,-1397.8 665.44,-1397.8 659.44,-1397.8 653.44,-1391.8 653.44,-1385.8 653.44,-1385.8 653.44,-1368.2 653.44,-1368.2 653.44,-1362.2 659.44,-1356.2 665.44,-1356.2 665.44,-1356.2 747.63,-1356.2 747.63,-1356.2 753.63,-1356.2 759.63,-1362.2 759.63,-1368.2 759.63,-1368.2 759.63,-1385.8 759.63,-1385.8 759.63,-1391.8 753.63,-1397.8 747.63,-1397.8"/>
<text xml:space="preserve" text-anchor="middle" x="706.54" y="-1381.2" font-family="Segoe UI" font-size="14.00" fill="#e2e8f0">RunLedger</text>
<text xml:space="preserve" text-anchor="middle" x="706.54" y="-1364.4" font-family="Segoe UI" font-size="14.00" fill="#e2e8f0">RunLedgerPage</text>
</g>
<!-- navigation&#45;&gt;hidden_RunLedger -->
<g id="edge36" class="edge">
<title>navigation&#45;&gt;hidden_RunLedger</title>
<path fill="none" stroke="#fb923c" stroke-width="1.3" stroke-dasharray="5,2" d="M437.45,-1129.97C451.17,-1176.13 490.48,-1286.91 564.99,-1343 587.5,-1359.94 617.28,-1368.56 643.64,-1372.9"/>
<polygon fill="#fb923c" stroke="#fb923c" stroke-width="1.3" points="642.9,-1375.63 651.22,-1374.03 643.72,-1370.09 642.9,-1375.63"/>
</g>
<!-- hidden_CollectionSessions -->
<g id="node38" class="node">
<title>hidden_CollectionSessions</title>
<path fill="#431407" stroke="#fb923c" d="M766.7,-1330.8C766.7,-1330.8 646.38,-1330.8 646.38,-1330.8 640.38,-1330.8 634.38,-1324.8 634.38,-1318.8 634.38,-1318.8 634.38,-1301.2 634.38,-1301.2 634.38,-1295.2 640.38,-1289.2 646.38,-1289.2 646.38,-1289.2 766.7,-1289.2 766.7,-1289.2 772.7,-1289.2 778.7,-1295.2 778.7,-1301.2 778.7,-1301.2 778.7,-1318.8 778.7,-1318.8 778.7,-1324.8 772.7,-1330.8 766.7,-1330.8"/>
<text xml:space="preserve" text-anchor="middle" x="706.54" y="-1314.2" font-family="Segoe UI" font-size="14.00" fill="#e2e8f0">CollectionSessions</text>
<text xml:space="preserve" text-anchor="middle" x="706.54" y="-1297.4" font-family="Segoe UI" font-size="14.00" fill="#e2e8f0">CollectionSessionPage</text>
</g>
<!-- navigation&#45;&gt;hidden_CollectionSessions -->
<g id="edge37" class="edge">
<title>navigation&#45;&gt;hidden_CollectionSessions</title>
<path fill="none" stroke="#fb923c" stroke-width="1.3" stroke-dasharray="5,2" d="M442.49,-1130.16C461.88,-1166.03 506.18,-1238.53 564.99,-1276 582.72,-1287.3 603.89,-1294.84 624.35,-1299.88"/>
<polygon fill="#fb923c" stroke="#fb923c" stroke-width="1.3" points="623.66,-1302.59 632.08,-1301.65 624.91,-1297.13 623.66,-1302.59"/>
</g>
<!-- hidden_ArchiveHealth -->
<g id="node39" class="node">
<title>hidden_ArchiveHealth</title>
<path fill="#431407" stroke="#fb923c" d="M757.35,-1263.8C757.35,-1263.8 655.73,-1263.8 655.73,-1263.8 649.73,-1263.8 643.73,-1257.8 643.73,-1251.8 643.73,-1251.8 643.73,-1234.2 643.73,-1234.2 643.73,-1228.2 649.73,-1222.2 655.73,-1222.2 655.73,-1222.2 757.35,-1222.2 757.35,-1222.2 763.35,-1222.2 769.35,-1228.2 769.35,-1234.2 769.35,-1234.2 769.35,-1251.8 769.35,-1251.8 769.35,-1257.8 763.35,-1263.8 757.35,-1263.8"/>
<text xml:space="preserve" text-anchor="middle" x="706.54" y="-1247.2" font-family="Segoe UI" font-size="14.00" fill="#e2e8f0">ArchiveHealth</text>
<text xml:space="preserve" text-anchor="middle" x="706.54" y="-1230.4" font-family="Segoe UI" font-size="14.00" fill="#e2e8f0">ArchiveHealthPage</text>
</g>
<!-- navigation&#45;&gt;hidden_ArchiveHealth -->
<g id="edge38" class="edge">
<title>navigation&#45;&gt;hidden_ArchiveHealth</title>
<path fill="none" stroke="#fb923c" stroke-width="1.3" stroke-dasharray="5,2" d="M453.91,-1130.21C478.94,-1152.99 521.82,-1188.65 564.99,-1209 586.45,-1219.12 611.22,-1226.4 633.93,-1231.56"/>
<polygon fill="#fb923c" stroke="#fb923c" stroke-width="1.3" points="633.18,-1234.26 641.6,-1233.22 634.37,-1228.79 633.18,-1234.26"/>
</g>
<!-- hidden_ServiceManager -->
<g id="node40" class="node">
<title>hidden_ServiceManager</title>
<path fill="#431407" stroke="#fb923c" d="M762.01,-1196.8C762.01,-1196.8 651.06,-1196.8 651.06,-1196.8 645.06,-1196.8 639.06,-1190.8 639.06,-1184.8 639.06,-1184.8 639.06,-1167.2 639.06,-1167.2 639.06,-1161.2 645.06,-1155.2 651.06,-1155.2 651.06,-1155.2 762.01,-1155.2 762.01,-1155.2 768.01,-1155.2 774.01,-1161.2 774.01,-1167.2 774.01,-1167.2 774.01,-1184.8 774.01,-1184.8 774.01,-1190.8 768.01,-1196.8 762.01,-1196.8"/>
<text xml:space="preserve" text-anchor="middle" x="706.54" y="-1180.2" font-family="Segoe UI" font-size="14.00" fill="#e2e8f0">ServiceManager</text>
<text xml:space="preserve" text-anchor="middle" x="706.54" y="-1163.4" font-family="Segoe UI" font-size="14.00" fill="#e2e8f0">ServiceManagerPage</text>
</g>
<!-- navigation&#45;&gt;hidden_ServiceManager -->
<g id="edge39" class="edge">
<title>navigation&#45;&gt;hidden_ServiceManager</title>
<path fill="none" stroke="#fb923c" stroke-width="1.3" stroke-dasharray="5,2" d="M492.41,-1124.1C515.17,-1129.74 541.26,-1136.19 564.99,-1142 585.82,-1147.1 608.4,-1152.58 629.24,-1157.62"/>
<polygon fill="#fb923c" stroke="#fb923c" stroke-width="1.3" points="628.33,-1160.28 636.76,-1159.44 629.65,-1154.84 628.33,-1160.28"/>
</g>
<!-- hidden_DataSampling -->
<g id="node41" class="node">
<title>hidden_DataSampling</title>
<path fill="#431407" stroke="#fb923c" d="M756.19,-1129.8C756.19,-1129.8 656.88,-1129.8 656.88,-1129.8 650.88,-1129.8 644.88,-1123.8 644.88,-1117.8 644.88,-1117.8 644.88,-1100.2 644.88,-1100.2 644.88,-1094.2 650.88,-1088.2 656.88,-1088.2 656.88,-1088.2 756.19,-1088.2 756.19,-1088.2 762.19,-1088.2 768.19,-1094.2 768.19,-1100.2 768.19,-1100.2 768.19,-1117.8 768.19,-1117.8 768.19,-1123.8 762.19,-1129.8 756.19,-1129.8"/>
<text xml:space="preserve" text-anchor="middle" x="706.54" y="-1113.2" font-family="Segoe UI" font-size="14.00" fill="#e2e8f0">DataSampling</text>
<text xml:space="preserve" text-anchor="middle" x="706.54" y="-1096.4" font-family="Segoe UI" font-size="14.00" fill="#e2e8f0">DataSamplingPage</text>
</g>
<!-- navigation&#45;&gt;hidden_DataSampling -->
<g id="edge40" class="edge">
<title>navigation&#45;&gt;hidden_DataSampling</title>
<path fill="none" stroke="#fb923c" stroke-width="1.3" stroke-dasharray="5,2" d="M492.16,-1109C534.32,-1109 590.74,-1109 634.98,-1109"/>
<polygon fill="#fb923c" stroke="#fb923c" stroke-width="1.3" points="634.82,-1111.8 642.82,-1109 634.82,-1106.2 634.82,-1111.8"/>
</g>
<!-- hidden_TimeSeriesAlignment -->
<g id="node42" class="node">
<title>hidden_TimeSeriesAlignment</title>
<path fill="#431407" stroke="#fb923c" d="M777.97,-1062.8C777.97,-1062.8 635.11,-1062.8 635.11,-1062.8 629.11,-1062.8 623.11,-1056.8 623.11,-1050.8 623.11,-1050.8 623.11,-1033.2 623.11,-1033.2 623.11,-1027.2 629.11,-1021.2 635.11,-1021.2 635.11,-1021.2 777.97,-1021.2 777.97,-1021.2 783.97,-1021.2 789.97,-1027.2 789.97,-1033.2 789.97,-1033.2 789.97,-1050.8 789.97,-1050.8 789.97,-1056.8 783.97,-1062.8 777.97,-1062.8"/>
<text xml:space="preserve" text-anchor="middle" x="706.54" y="-1046.2" font-family="Segoe UI" font-size="14.00" fill="#e2e8f0">TimeSeriesAlignment</text>
<text xml:space="preserve" text-anchor="middle" x="706.54" y="-1029.4" font-family="Segoe UI" font-size="14.00" fill="#e2e8f0">TimeSeriesAlignmentPage</text>
</g>
<!-- navigation&#45;&gt;hidden_TimeSeriesAlignment -->
<g id="edge41" class="edge">
<title>navigation&#45;&gt;hidden_TimeSeriesAlignment</title>
<path fill="none" stroke="#fb923c" stroke-width="1.3" stroke-dasharray="5,2" d="M492.41,-1093.9C515.17,-1088.26 541.26,-1081.81 564.99,-1076 580.59,-1072.18 597.16,-1068.15 613.25,-1064.25"/>
<polygon fill="#fb923c" stroke="#fb923c" stroke-width="1.3" points="613.63,-1067.04 620.74,-1062.44 612.31,-1061.6 613.63,-1067.04"/>
</g>
<!-- hidden_ExportPresets -->
<g id="node43" class="node">
<title>hidden_ExportPresets</title>
<path fill="#431407" stroke="#fb923c" d="M755.03,-995.8C755.03,-995.8 658.05,-995.8 658.05,-995.8 652.05,-995.8 646.05,-989.8 646.05,-983.8 646.05,-983.8 646.05,-966.2 646.05,-966.2 646.05,-960.2 652.05,-954.2 658.05,-954.2 658.05,-954.2 755.03,-954.2 755.03,-954.2 761.03,-954.2 767.03,-960.2 767.03,-966.2 767.03,-966.2 767.03,-983.8 767.03,-983.8 767.03,-989.8 761.03,-995.8 755.03,-995.8"/>
<text xml:space="preserve" text-anchor="middle" x="706.54" y="-979.2" font-family="Segoe UI" font-size="14.00" fill="#e2e8f0">ExportPresets</text>
<text xml:space="preserve" text-anchor="middle" x="706.54" y="-962.4" font-family="Segoe UI" font-size="14.00" fill="#e2e8f0">ExportPresetsPage</text>
</g>
<!-- navigation&#45;&gt;hidden_ExportPresets -->
<g id="edge42" class="edge">
<title>navigation&#45;&gt;hidden_ExportPresets</title>
<path fill="none" stroke="#fb923c" stroke-width="1.3" stroke-dasharray="5,2" d="M453.91,-1087.79C478.94,-1065.01 521.82,-1029.35 564.99,-1009 587.15,-998.56 612.83,-991.13 636.13,-985.95"/>
<polygon fill="#fb923c" stroke="#fb923c" stroke-width="1.3" points="636.44,-988.74 643.68,-984.34 635.27,-983.27 636.44,-988.74"/>
</g>
<!-- hidden_AnalysisExport -->
<g id="node44" class="node">
<title>hidden_AnalysisExport</title>
<path fill="#431407" stroke="#fb923c" d="M759.7,-928.8C759.7,-928.8 653.38,-928.8 653.38,-928.8 647.38,-928.8 641.38,-922.8 641.38,-916.8 641.38,-916.8 641.38,-899.2 641.38,-899.2 641.38,-893.2 647.38,-887.2 653.38,-887.2 653.38,-887.2 759.7,-887.2 759.7,-887.2 765.7,-887.2 771.7,-893.2 771.7,-899.2 771.7,-899.2 771.7,-916.8 771.7,-916.8 771.7,-922.8 765.7,-928.8 759.7,-928.8"/>
<text xml:space="preserve" text-anchor="middle" x="706.54" y="-912.2" font-family="Segoe UI" font-size="14.00" fill="#e2e8f0">AnalysisExport</text>
<text xml:space="preserve" text-anchor="middle" x="706.54" y="-895.4" font-family="Segoe UI" font-size="14.00" fill="#e2e8f0">AnalysisExportPage</text>
</g>
<!-- navigation&#45;&gt;hidden_AnalysisExport -->
<g id="edge43" class="edge">
<title>navigation&#45;&gt;hidden_AnalysisExport</title>
<path fill="none" stroke="#fb923c" stroke-width="1.3" stroke-dasharray="5,2" d="M442.49,-1087.84C461.88,-1051.97 506.18,-979.47 564.99,-942 584.82,-929.37 608.94,-921.43 631.56,-916.44"/>
<polygon fill="#fb923c" stroke="#fb923c" stroke-width="1.3" points="631.95,-919.22 639.22,-914.87 630.82,-913.73 631.95,-919.22"/>
</g>
<!-- hidden_AnalysisExportWizard -->
<g id="node45" class="node">
<title>hidden_AnalysisExportWizard</title>
<path fill="#431407" stroke="#fb923c" d="M780.29,-861.8C780.29,-861.8 632.78,-861.8 632.78,-861.8 626.78,-861.8 620.78,-855.8 620.78,-849.8 620.78,-849.8 620.78,-832.2 620.78,-832.2 620.78,-826.2 626.78,-820.2 632.78,-820.2 632.78,-820.2 780.29,-820.2 780.29,-820.2 786.29,-820.2 792.29,-826.2 792.29,-832.2 792.29,-832.2 792.29,-849.8 792.29,-849.8 792.29,-855.8 786.29,-861.8 780.29,-861.8"/>
<text xml:space="preserve" text-anchor="middle" x="706.54" y="-845.2" font-family="Segoe UI" font-size="14.00" fill="#e2e8f0">AnalysisExportWizard</text>
<text xml:space="preserve" text-anchor="middle" x="706.54" y="-828.4" font-family="Segoe UI" font-size="14.00" fill="#e2e8f0">AnalysisExportWizardPage</text>
</g>
<!-- navigation&#45;&gt;hidden_AnalysisExportWizard -->
<g id="edge44" class="edge">
<title>navigation&#45;&gt;hidden_AnalysisExportWizard</title>
<path fill="none" stroke="#fb923c" stroke-width="1.3" stroke-dasharray="5,2" d="M437.45,-1088.03C451.17,-1041.87 490.48,-931.09 564.99,-875 578.53,-864.81 594.7,-857.63 611.18,-852.58"/>
<polygon fill="#fb923c" stroke="#fb923c" stroke-width="1.3" points="611.51,-855.39 618.45,-850.52 609.99,-850.01 611.51,-855.39"/>
</g>
<!-- hidden_EventReplay -->
<g id="node46" class="node">
<title>hidden_EventReplay</title>
<path fill="#431407" stroke="#fb923c" d="M752.3,-794.8C752.3,-794.8 660.78,-794.8 660.78,-794.8 654.78,-794.8 648.78,-788.8 648.78,-782.8 648.78,-782.8 648.78,-765.2 648.78,-765.2 648.78,-759.2 654.78,-753.2 660.78,-753.2 660.78,-753.2 752.3,-753.2 752.3,-753.2 758.3,-753.2 764.3,-759.2 764.3,-765.2 764.3,-765.2 764.3,-782.8 764.3,-782.8 764.3,-788.8 758.3,-794.8 752.3,-794.8"/>
<text xml:space="preserve" text-anchor="middle" x="706.54" y="-778.2" font-family="Segoe UI" font-size="14.00" fill="#e2e8f0">EventReplay</text>
<text xml:space="preserve" text-anchor="middle" x="706.54" y="-761.4" font-family="Segoe UI" font-size="14.00" fill="#e2e8f0">EventReplayPage</text>
</g>
<!-- navigation&#45;&gt;hidden_EventReplay -->
<g id="edge45" class="edge">
<title>navigation&#45;&gt;hidden_EventReplay</title>
<path fill="none" stroke="#fb923c" stroke-width="1.3" stroke-dasharray="5,2" d="M434.59,-1088.07C443.25,-1033.1 474.4,-883.64 564.99,-808 585.58,-790.81 613.47,-782.05 638.97,-777.67"/>
<polygon fill="#fb923c" stroke="#fb923c" stroke-width="1.3" points="639.18,-780.47 646.67,-776.49 638.34,-774.93 639.18,-780.47"/>
</g>
<!-- hidden_AdvancedAnalytics -->
<g id="node47" class="node">
<title>hidden_AdvancedAnalytics</title>
<path fill="#431407" stroke="#fb923c" d="M771.35,-727.8C771.35,-727.8 641.73,-727.8 641.73,-727.8 635.73,-727.8 629.73,-721.8 629.73,-715.8 629.73,-715.8 629.73,-698.2 629.73,-698.2 629.73,-692.2 635.73,-686.2 641.73,-686.2 641.73,-686.2 771.35,-686.2 771.35,-686.2 777.35,-686.2 783.35,-692.2 783.35,-698.2 783.35,-698.2 783.35,-715.8 783.35,-715.8 783.35,-721.8 777.35,-727.8 771.35,-727.8"/>
<text xml:space="preserve" text-anchor="middle" x="706.54" y="-711.2" font-family="Segoe UI" font-size="14.00" fill="#e2e8f0">AdvancedAnalytics</text>
<text xml:space="preserve" text-anchor="middle" x="706.54" y="-694.4" font-family="Segoe UI" font-size="14.00" fill="#e2e8f0">AdvancedAnalyticsPage</text>
</g>
<!-- navigation&#45;&gt;hidden_AdvancedAnalytics -->
<g id="edge46" class="edge">
<title>navigation&#45;&gt;hidden_AdvancedAnalytics</title>
<path fill="none" stroke="#fb923c" stroke-width="1.3" stroke-dasharray="5,2" d="M432.69,-1087.7C436.74,-1024.43 457.7,-836.1 564.99,-741 580.32,-727.42 600.15,-719.04 620.06,-713.92"/>
<polygon fill="#fb923c" stroke="#fb923c" stroke-width="1.3" points="620.43,-716.71 627.59,-712.18 619.16,-711.26 620.43,-716.71"/>
</g>
<!-- hidden_DataCalendar -->
<g id="node48" class="node">
<title>hidden_DataCalendar</title>
<path fill="#431407" stroke="#fb923c" d="M754.62,-660.8C754.62,-660.8 658.45,-660.8 658.45,-660.8 652.45,-660.8 646.45,-654.8 646.45,-648.8 646.45,-648.8 646.45,-631.2 646.45,-631.2 646.45,-625.2 652.45,-619.2 658.45,-619.2 658.45,-619.2 754.62,-619.2 754.62,-619.2 760.62,-619.2 766.62,-625.2 766.62,-631.2 766.62,-631.2 766.62,-648.8 766.62,-648.8 766.62,-654.8 760.62,-660.8 754.62,-660.8"/>
<text xml:space="preserve" text-anchor="middle" x="706.54" y="-644.2" font-family="Segoe UI" font-size="14.00" fill="#e2e8f0">DataCalendar</text>
<text xml:space="preserve" text-anchor="middle" x="706.54" y="-627.4" font-family="Segoe UI" font-size="14.00" fill="#e2e8f0">DataCalendarPage</text>
</g>
<!-- navigation&#45;&gt;hidden_DataCalendar -->
<g id="edge47" class="edge">
<title>navigation&#45;&gt;hidden_DataCalendar</title>
<path fill="none" stroke="#fb923c" stroke-width="1.3" stroke-dasharray="5,2" d="M431.14,-1087.8C430.41,-1017.04 438.28,-787.06 564.99,-674 584.42,-656.66 611.18,-647.79 636.14,-643.38"/>
<polygon fill="#fb923c" stroke="#fb923c" stroke-width="1.3" points="636.55,-646.15 644.02,-642.15 635.69,-640.61 636.55,-646.15"/>
</g>
<!-- hidden_StorageOptimization -->
<g id="node49" class="node">
<title>hidden_StorageOptimization</title>
<path fill="#431407" stroke="#fb923c" d="M774.47,-593.8C774.47,-593.8 638.61,-593.8 638.61,-593.8 632.61,-593.8 626.61,-587.8 626.61,-581.8 626.61,-581.8 626.61,-564.2 626.61,-564.2 626.61,-558.2 632.61,-552.2 638.61,-552.2 638.61,-552.2 774.47,-552.2 774.47,-552.2 780.47,-552.2 786.47,-558.2 786.47,-564.2 786.47,-564.2 786.47,-581.8 786.47,-581.8 786.47,-587.8 780.47,-593.8 774.47,-593.8"/>
<text xml:space="preserve" text-anchor="middle" x="706.54" y="-577.2" font-family="Segoe UI" font-size="14.00" fill="#e2e8f0">StorageOptimization</text>
<text xml:space="preserve" text-anchor="middle" x="706.54" y="-560.4" font-family="Segoe UI" font-size="14.00" fill="#e2e8f0">StorageOptimizationPage</text>
</g>
<!-- navigation&#45;&gt;hidden_StorageOptimization -->
<g id="edge48" class="edge">
<title>navigation&#45;&gt;hidden_StorageOptimization</title>
<path fill="none" stroke="#fb923c" stroke-width="1.3" stroke-dasharray="5,2" d="M434.28,-1087.73C445.14,-1000.73 490.48,-673.49 564.99,-607 579.42,-594.13 597.88,-585.93 616.64,-580.75"/>
<polygon fill="#fb923c" stroke="#fb923c" stroke-width="1.3" points="617.16,-583.5 624.25,-578.85 615.81,-578.07 617.16,-583.5"/>
</g>
<!-- hidden_RetentionAssurance -->
<g id="node50" class="node">
<title>hidden_RetentionAssurance</title>
<path fill="#431407" stroke="#fb923c" d="M772.52,-526.8C772.52,-526.8 640.56,-526.8 640.56,-526.8 634.56,-526.8 628.56,-520.8 628.56,-514.8 628.56,-514.8 628.56,-497.2 628.56,-497.2 628.56,-491.2 634.56,-485.2 640.56,-485.2 640.56,-485.2 772.52,-485.2 772.52,-485.2 778.52,-485.2 784.52,-491.2 784.52,-497.2 784.52,-497.2 784.52,-514.8 784.52,-514.8 784.52,-520.8 778.52,-526.8 772.52,-526.8"/>
<text xml:space="preserve" text-anchor="middle" x="706.54" y="-510.2" font-family="Segoe UI" font-size="14.00" fill="#e2e8f0">RetentionAssurance</text>
<text xml:space="preserve" text-anchor="middle" x="706.54" y="-493.4" font-family="Segoe UI" font-size="14.00" fill="#e2e8f0">RetentionAssurancePage</text>
</g>
<!-- navigation&#45;&gt;hidden_RetentionAssurance -->
<g id="edge49" class="edge">
<title>navigation&#45;&gt;hidden_RetentionAssurance</title>
<path fill="none" stroke="#fb923c" stroke-width="1.3" stroke-dasharray="5,2" d="M433.59,-1087.87C442.26,-994.16 481.92,-617.34 564.99,-540 579.76,-526.25 599.1,-517.79 618.69,-512.64"/>
<polygon fill="#fb923c" stroke="#fb923c" stroke-width="1.3" points="619.25,-515.39 626.39,-510.82 617.96,-509.94 619.25,-515.39"/>
</g>
<!-- hidden_MessagingHub -->
<g id="node51" class="node">
<title>hidden_MessagingHub</title>
<path fill="#431407" stroke="#fb923c" d="M758.53,-459.8C758.53,-459.8 654.54,-459.8 654.54,-459.8 648.54,-459.8 642.54,-453.8 642.54,-447.8 642.54,-447.8 642.54,-430.2 642.54,-430.2 642.54,-424.2 648.54,-418.2 654.54,-418.2 654.54,-418.2 758.53,-418.2 758.53,-418.2 764.53,-418.2 770.53,-424.2 770.53,-430.2 770.53,-430.2 770.53,-447.8 770.53,-447.8 770.53,-453.8 764.53,-459.8 758.53,-459.8"/>
<text xml:space="preserve" text-anchor="middle" x="706.54" y="-443.2" font-family="Segoe UI" font-size="14.00" fill="#e2e8f0">MessagingHub</text>
<text xml:space="preserve" text-anchor="middle" x="706.54" y="-426.4" font-family="Segoe UI" font-size="14.00" fill="#e2e8f0">MessagingHubPage</text>
</g>
<!-- navigation&#45;&gt;hidden_MessagingHub -->
<g id="edge50" class="edge">
<title>navigation&#45;&gt;hidden_MessagingHub</title>
<path fill="none" stroke="#fb923c" stroke-width="1.3" stroke-dasharray="5,2" d="M433,-1087.77C439.48,-987.21 472.22,-560.01 564.99,-473 583.26,-455.87 608.63,-446.93 632.8,-442.39"/>
<polygon fill="#fb923c" stroke="#fb923c" stroke-width="1.3" points="632.96,-445.2 640.4,-441.13 632.05,-439.68 632.96,-445.2"/>
</g>
<!-- hidden_Workspaces -->
<g id="node52" class="node">
<title>hidden_Workspaces</title>
<path fill="#431407" stroke="#fb923c" d="M747.63,-392.8C747.63,-392.8 665.45,-392.8 665.45,-392.8 659.45,-392.8 653.45,-386.8 653.45,-380.8 653.45,-380.8 653.45,-363.2 653.45,-363.2 653.45,-357.2 659.45,-351.2 665.45,-351.2 665.45,-351.2 747.63,-351.2 747.63,-351.2 753.63,-351.2 759.63,-357.2 759.63,-363.2 759.63,-363.2 759.63,-380.8 759.63,-380.8 759.63,-386.8 753.63,-392.8 747.63,-392.8"/>
<text xml:space="preserve" text-anchor="middle" x="706.54" y="-376.2" font-family="Segoe UI" font-size="14.00" fill="#e2e8f0">Workspaces</text>
<text xml:space="preserve" text-anchor="middle" x="706.54" y="-359.4" font-family="Segoe UI" font-size="14.00" fill="#e2e8f0">WorkspacePage</text>
</g>
<!-- navigation&#45;&gt;hidden_Workspaces -->
<g id="edge51" class="edge">
<title>navigation&#45;&gt;hidden_Workspaces</title>
<path fill="none" stroke="#fb923c" stroke-width="1.3" stroke-dasharray="5,2" d="M432.49,-1088.04C436.83,-981.63 461.93,-502.43 564.99,-406 585.97,-386.37 616.28,-377.5 643.39,-373.69"/>
<polygon fill="#fb923c" stroke="#fb923c" stroke-width="1.3" points="643.65,-376.47 651.25,-372.74 642.98,-370.92 643.65,-376.47"/>
</g>
<!-- hidden_NotificationCenter -->
<g id="node53" class="node">
<title>hidden_NotificationCenter</title>
<path fill="#431407" stroke="#fb923c" d="M768.63,-325.8C768.63,-325.8 644.45,-325.8 644.45,-325.8 638.45,-325.8 632.45,-319.8 632.45,-313.8 632.45,-313.8 632.45,-296.2 632.45,-296.2 632.45,-290.2 638.45,-284.2 644.45,-284.2 644.45,-284.2 768.63,-284.2 768.63,-284.2 774.63,-284.2 780.63,-290.2 780.63,-296.2 780.63,-296.2 780.63,-313.8 780.63,-313.8 780.63,-319.8 774.63,-325.8 768.63,-325.8"/>
<text xml:space="preserve" text-anchor="middle" x="706.54" y="-309.2" font-family="Segoe UI" font-size="14.00" fill="#e2e8f0">NotificationCenter</text>
<text xml:space="preserve" text-anchor="middle" x="706.54" y="-292.4" font-family="Segoe UI" font-size="14.00" fill="#e2e8f0">NotificationCenterPage</text>
</g>
<!-- navigation&#45;&gt;hidden_NotificationCenter -->
<g id="edge52" class="edge">
<title>navigation&#45;&gt;hidden_NotificationCenter</title>
<path fill="none" stroke="#fb923c" stroke-width="1.3" stroke-dasharray="5,2" d="M432.08,-1087.91C434.45,-975.15 451.55,-444.62 564.99,-339 580.69,-324.39 601.56,-315.74 622.4,-310.71"/>
<polygon fill="#fb923c" stroke="#fb923c" stroke-width="1.3" points="622.8,-313.48 630.03,-309.06 621.62,-308.01 622.8,-313.48"/>
</g>
<!-- hidden_Help -->
<g id="node54" class="node">
<title>hidden_Help</title>
<path fill="#431407" stroke="#fb923c" d="M729.75,-258.8C729.75,-258.8 683.32,-258.8 683.32,-258.8 677.32,-258.8 671.32,-252.8 671.32,-246.8 671.32,-246.8 671.32,-229.2 671.32,-229.2 671.32,-223.2 677.32,-217.2 683.32,-217.2 683.32,-217.2 729.75,-217.2 729.75,-217.2 735.75,-217.2 741.75,-223.2 741.75,-229.2 741.75,-229.2 741.75,-246.8 741.75,-246.8 741.75,-252.8 735.75,-258.8 729.75,-258.8"/>
<text xml:space="preserve" text-anchor="middle" x="706.54" y="-242.2" font-family="Segoe UI" font-size="14.00" fill="#e2e8f0">Help</text>
<text xml:space="preserve" text-anchor="middle" x="706.54" y="-225.4" font-family="Segoe UI" font-size="14.00" fill="#e2e8f0">HelpPage</text>
</g>
<!-- navigation&#45;&gt;hidden_Help -->
<g id="edge53" class="edge">
<title>navigation&#45;&gt;hidden_Help</title>
<path fill="none" stroke="#fb923c" stroke-width="1.3" stroke-dasharray="5,2" d="M433.16,-1087.79C439.37,-1000.39 466.41,-659.92 527.99,-387 539.81,-334.63 525.65,-308.54 564.99,-272 590.89,-247.95 630.8,-240.07 661.48,-237.85"/>
<polygon fill="#fb923c" stroke="#fb923c" stroke-width="1.3" points="661.3,-240.66 669.13,-237.42 660.98,-235.07 661.3,-240.66"/>
</g>
<!-- hidden_Welcome -->
<g id="node55" class="node">
<title>hidden_Welcome</title>
<path fill="#431407" stroke="#fb923c" d="M742.96,-191.8C742.96,-191.8 670.11,-191.8 670.11,-191.8 664.11,-191.8 658.11,-185.8 658.11,-179.8 658.11,-179.8 658.11,-162.2 658.11,-162.2 658.11,-156.2 664.11,-150.2 670.11,-150.2 670.11,-150.2 742.96,-150.2 742.96,-150.2 748.96,-150.2 754.96,-156.2 754.96,-162.2 754.96,-162.2 754.96,-179.8 754.96,-179.8 754.96,-185.8 748.96,-191.8 742.96,-191.8"/>
<text xml:space="preserve" text-anchor="middle" x="706.54" y="-175.2" font-family="Segoe UI" font-size="14.00" fill="#e2e8f0">Welcome</text>
<text xml:space="preserve" text-anchor="middle" x="706.54" y="-158.4" font-family="Segoe UI" font-size="14.00" fill="#e2e8f0">WelcomePage</text>
</g>
<!-- navigation&#45;&gt;hidden_Welcome -->
<g id="edge54" class="edge">
<title>navigation&#45;&gt;hidden_Welcome</title>
<path fill="none" stroke="#fb923c" stroke-width="1.3" stroke-dasharray="5,2" d="M431.64,-1087.78C431.55,-963.97 437.45,-335.99 564.99,-205 586.38,-183.04 619.34,-174.29 647.96,-171.15"/>
<polygon fill="#fb923c" stroke="#fb923c" stroke-width="1.3" points="648.2,-173.94 655.92,-170.44 647.7,-168.36 648.2,-173.94"/>
</g>
<!-- hidden_KeyboardShortcuts -->
<g id="node56" class="node">
<title>hidden_KeyboardShortcuts</title>
<path fill="#431407" stroke="#fb923c" d="M770.19,-124.8C770.19,-124.8 642.89,-124.8 642.89,-124.8 636.89,-124.8 630.89,-118.8 630.89,-112.8 630.89,-112.8 630.89,-95.2 630.89,-95.2 630.89,-89.2 636.89,-83.2 642.89,-83.2 642.89,-83.2 770.19,-83.2 770.19,-83.2 776.19,-83.2 782.19,-89.2 782.19,-95.2 782.19,-95.2 782.19,-112.8 782.19,-112.8 782.19,-118.8 776.19,-124.8 770.19,-124.8"/>
<text xml:space="preserve" text-anchor="middle" x="706.54" y="-108.2" font-family="Segoe UI" font-size="14.00" fill="#e2e8f0">KeyboardShortcuts</text>
<text xml:space="preserve" text-anchor="middle" x="706.54" y="-91.4" font-family="Segoe UI" font-size="14.00" fill="#e2e8f0">KeyboardShortcutsPage</text>
</g>
<!-- navigation&#45;&gt;hidden_KeyboardShortcuts -->
<g id="edge55" class="edge">
<title>navigation&#45;&gt;hidden_KeyboardShortcuts</title>
<path fill="none" stroke="#fb923c" stroke-width="1.3" stroke-dasharray="5,2" d="M432.62,-1087.98C437,-991.65 458.94,-582.99 527.99,-256 539.35,-202.22 524.86,-175.55 564.99,-138 580.27,-123.71 600.48,-115.12 620.8,-110.04"/>
<polygon fill="#fb923c" stroke="#fb923c" stroke-width="1.3" points="621.34,-112.79 628.53,-108.3 620.11,-107.32 621.34,-112.79"/>
</g>
<!-- hidden_SetupWizard -->
<g id="node57" class="node">
<title>hidden_SetupWizard</title>
<path fill="#431407" stroke="#fb923c" d="M752.69,-57.8C752.69,-57.8 660.39,-57.8 660.39,-57.8 654.39,-57.8 648.39,-51.8 648.39,-45.8 648.39,-45.8 648.39,-28.2 648.39,-28.2 648.39,-22.2 654.39,-16.2 660.39,-16.2 660.39,-16.2 752.69,-16.2 752.69,-16.2 758.69,-16.2 764.69,-22.2 764.69,-28.2 764.69,-28.2 764.69,-45.8 764.69,-45.8 764.69,-51.8 758.69,-57.8 752.69,-57.8"/>
<text xml:space="preserve" text-anchor="middle" x="706.54" y="-41.2" font-family="Segoe UI" font-size="14.00" fill="#e2e8f0">SetupWizard</text>
<text xml:space="preserve" text-anchor="middle" x="706.54" y="-24.4" font-family="Segoe UI" font-size="14.00" fill="#e2e8f0">SetupWizardPage</text>
</g>
<!-- navigation&#45;&gt;hidden_SetupWizard -->
<g id="edge56" class="edge">
<title>navigation&#45;&gt;hidden_SetupWizard</title>
<path fill="none" stroke="#fb923c" stroke-width="1.3" stroke-dasharray="5,2" d="M432.92,-1088.12C441.14,-947.94 491.14,-147.12 564.99,-71 584.07,-51.34 612.41,-42.27 638.66,-38.32"/>
<polygon fill="#fb923c" stroke="#fb923c" stroke-width="1.3" points="638.68,-41.14 646.26,-37.34 637.97,-35.59 638.68,-41.14"/>
</g>
<!-- hidden_AddProviderWizard -->
<g id="node58" class="node">
<title>hidden_AddProviderWizard</title>
<path fill="#431407" stroke="#fb923c" d="M772.9,-2134.8C772.9,-2134.8 640.17,-2134.8 640.17,-2134.8 634.17,-2134.8 628.17,-2128.8 628.17,-2122.8 628.17,-2122.8 628.17,-2105.2 628.17,-2105.2 628.17,-2099.2 634.17,-2093.2 640.17,-2093.2 640.17,-2093.2 772.9,-2093.2 772.9,-2093.2 778.9,-2093.2 784.9,-2099.2 784.9,-2105.2 784.9,-2105.2 784.9,-2122.8 784.9,-2122.8 784.9,-2128.8 778.9,-2134.8 772.9,-2134.8"/>
<text xml:space="preserve" text-anchor="middle" x="706.54" y="-2118.2" font-family="Segoe UI" font-size="14.00" fill="#e2e8f0">AddProviderWizard</text>
<text xml:space="preserve" text-anchor="middle" x="706.54" y="-2101.4" font-family="Segoe UI" font-size="14.00" fill="#e2e8f0">AddProviderWizardPage</text>
</g>
<!-- navigation&#45;&gt;hidden_AddProviderWizard -->
<g id="edge57" class="edge">
<title>navigation&#45;&gt;hidden_AddProviderWizard</title>
<path fill="none" stroke="#fb923c" stroke-width="1.3" stroke-dasharray="5,2" d="M433.24,-1130.05C440.17,-1223.94 471.09,-1613.73 527.99,-1929 540.27,-1997 516.06,-2031.21 564.99,-2080 579.35,-2094.32 598.65,-2102.99 618.33,-2108.14"/>
<polygon fill="#fb923c" stroke="#fb923c" stroke-width="1.3" points="617.66,-2110.86 626.08,-2109.95 618.93,-2105.41 617.66,-2110.86"/>
</g>
<!-- hidden_ActivityLog -->
<g id="node59" class="node">
<title>hidden_ActivityLog</title>
<path fill="#431407" stroke="#fb923c" d="M750.36,-2067.8C750.36,-2067.8 662.71,-2067.8 662.71,-2067.8 656.71,-2067.8 650.71,-2061.8 650.71,-2055.8 650.71,-2055.8 650.71,-2038.2 650.71,-2038.2 650.71,-2032.2 656.71,-2026.2 662.71,-2026.2 662.71,-2026.2 750.36,-2026.2 750.36,-2026.2 756.36,-2026.2 762.36,-2032.2 762.36,-2038.2 762.36,-2038.2 762.36,-2055.8 762.36,-2055.8 762.36,-2061.8 756.36,-2067.8 750.36,-2067.8"/>
<text xml:space="preserve" text-anchor="middle" x="706.54" y="-2051.2" font-family="Segoe UI" font-size="14.00" fill="#e2e8f0">ActivityLog</text>
<text xml:space="preserve" text-anchor="middle" x="706.54" y="-2034.4" font-family="Segoe UI" font-size="14.00" fill="#e2e8f0">ActivityLogPage</text>
</g>
<!-- navigation&#45;&gt;hidden_ActivityLog -->
<g id="edge58" class="edge">
<title>navigation&#45;&gt;hidden_ActivityLog</title>
<path fill="none" stroke="#fb923c" stroke-width="1.3" stroke-dasharray="5,2" d="M432.54,-1130C436.51,-1222.81 456.56,-1604.97 527.99,-1909 539.22,-1956.76 528.54,-1980.17 564.99,-2013 585.59,-2031.55 614.58,-2040.43 640.87,-2044.52"/>
<polygon fill="#fb923c" stroke="#fb923c" stroke-width="1.3" points="640.17,-2047.25 648.47,-2045.55 640.92,-2041.7 640.17,-2047.25"/>
</g>
<!-- page_Dashboard -->
<g id="node5" class="node">
<title>page_Dashboard</title>
<path fill="#1e293b" stroke="#475569" d="M785.54,-2232.8C785.54,-2232.8 627.53,-2232.8 627.53,-2232.8 621.53,-2232.8 615.53,-2226.8 615.53,-2220.8 615.53,-2220.8 615.53,-2203.2 615.53,-2203.2 615.53,-2197.2 621.53,-2191.2 627.53,-2191.2 627.53,-2191.2 785.54,-2191.2 785.54,-2191.2 791.54,-2191.2 797.54,-2197.2 797.54,-2203.2 797.54,-2203.2 797.54,-2220.8 797.54,-2220.8 797.54,-2226.8 791.54,-2232.8 785.54,-2232.8"/>
<text xml:space="preserve" text-anchor="middle" x="706.54" y="-2216.2" font-family="Segoe UI" font-size="14.00" fill="#e2e8f0">Dashboard</text>
<text xml:space="preserve" text-anchor="middle" x="706.54" y="-2199.4" font-family="Segoe UI" font-size="14.00" fill="#e2e8f0">Dashboard → DashboardPage</text>
</g>
<!-- workspace_1&#45;&gt;page_Dashboard -->
<g id="edge3" class="edge">
<title>workspace_1&#45;&gt;page_Dashboard</title>
<path fill="none" stroke="#94a3b8" stroke-width="1.3" d="M433,-2860.77C439.48,-2760.21 472.22,-2333.01 564.99,-2246 576.44,-2235.26 590.68,-2227.74 605.67,-2222.51"/>
<polygon fill="#94a3b8" stroke="#94a3b8" stroke-width="1.3" points="606.41,-2225.21 613.2,-2220.13 604.73,-2219.87 606.41,-2225.21"/>
</g>
<!-- page_LiveData -->
<g id="node6" class="node">
<title>page_LiveData</title>
<path fill="#1e293b" stroke="#475569" d="M797.58,-2299.8C797.58,-2299.8 615.5,-2299.8 615.5,-2299.8 609.5,-2299.8 603.5,-2293.8 603.5,-2287.8 603.5,-2287.8 603.5,-2270.2 603.5,-2270.2 603.5,-2264.2 609.5,-2258.2 615.5,-2258.2 615.5,-2258.2 797.58,-2258.2 797.58,-2258.2 803.58,-2258.2 809.58,-2264.2 809.58,-2270.2 809.58,-2270.2 809.58,-2287.8 809.58,-2287.8 809.58,-2293.8 803.58,-2299.8 797.58,-2299.8"/>
<text xml:space="preserve" text-anchor="middle" x="706.54" y="-2283.2" font-family="Segoe UI" font-size="14.00" fill="#e2e8f0">Live Data</text>
<text xml:space="preserve" text-anchor="middle" x="706.54" y="-2266.4" font-family="Segoe UI" font-size="14.00" fill="#e2e8f0">LiveData → LiveDataViewerPage</text>
</g>
<!-- workspace_1&#45;&gt;page_LiveData -->
<g id="edge4" class="edge">
<title>workspace_1&#45;&gt;page_LiveData</title>
<path fill="none" stroke="#94a3b8" stroke-width="1.3" d="M433.59,-2860.87C442.26,-2767.16 481.92,-2390.34 564.99,-2313 573.46,-2305.12 583.44,-2298.97 594.1,-2294.19"/>
<polygon fill="#94a3b8" stroke="#94a3b8" stroke-width="1.3" points="595.03,-2296.83 601.38,-2291.23 592.92,-2291.65 595.03,-2296.83"/>
</g>
<!-- page_Charts -->
<g id="node7" class="node">
<title>page_Charts</title>
<path fill="#1e293b" stroke="#475569" d="M767.67,-2366.8C767.67,-2366.8 645.41,-2366.8 645.41,-2366.8 639.41,-2366.8 633.41,-2360.8 633.41,-2354.8 633.41,-2354.8 633.41,-2337.2 633.41,-2337.2 633.41,-2331.2 639.41,-2325.2 645.41,-2325.2 645.41,-2325.2 767.67,-2325.2 767.67,-2325.2 773.67,-2325.2 779.67,-2331.2 779.67,-2337.2 779.67,-2337.2 779.67,-2354.8 779.67,-2354.8 779.67,-2360.8 773.67,-2366.8 767.67,-2366.8"/>
<text xml:space="preserve" text-anchor="middle" x="706.54" y="-2350.2" font-family="Segoe UI" font-size="14.00" fill="#e2e8f0">Charts</text>
<text xml:space="preserve" text-anchor="middle" x="706.54" y="-2333.4" font-family="Segoe UI" font-size="14.00" fill="#e2e8f0">Charts → ChartingPage</text>
</g>
<!-- workspace_1&#45;&gt;page_Charts -->
<g id="edge5" class="edge">
<title>workspace_1&#45;&gt;page_Charts</title>
<path fill="none" stroke="#94a3b8" stroke-width="1.3" d="M434.28,-2860.73C445.14,-2773.73 490.48,-2446.49 564.99,-2380 581.16,-2365.58 602.39,-2357.02 623.44,-2352"/>
<polygon fill="#94a3b8" stroke="#94a3b8" stroke-width="1.3" points="623.92,-2354.76 631.16,-2350.35 622.75,-2349.29 623.92,-2354.76"/>
</g>
<!-- page_RunMat -->
<g id="node8" class="node">
<title>page_RunMat</title>
<path fill="#1e293b" stroke="#475569" d="M770.78,-2433.8C770.78,-2433.8 642.29,-2433.8 642.29,-2433.8 636.29,-2433.8 630.29,-2427.8 630.29,-2421.8 630.29,-2421.8 630.29,-2404.2 630.29,-2404.2 630.29,-2398.2 636.29,-2392.2 642.29,-2392.2 642.29,-2392.2 770.78,-2392.2 770.78,-2392.2 776.78,-2392.2 782.78,-2398.2 782.78,-2404.2 782.78,-2404.2 782.78,-2421.8 782.78,-2421.8 782.78,-2427.8 776.78,-2433.8 770.78,-2433.8"/>
<text xml:space="preserve" text-anchor="middle" x="706.54" y="-2417.2" font-family="Segoe UI" font-size="14.00" fill="#e2e8f0">RunMat Lab</text>
<text xml:space="preserve" text-anchor="middle" x="706.54" y="-2400.4" font-family="Segoe UI" font-size="14.00" fill="#e2e8f0">RunMat → RunMatPage</text>
</g>
<!-- workspace_1&#45;&gt;page_RunMat -->
<g id="edge6" class="edge">
<title>workspace_1&#45;&gt;page_RunMat</title>
<path fill="none" stroke="#94a3b8" stroke-width="1.3" d="M431.15,-2860.82C430.47,-2790.1 438.46,-2560.26 564.99,-2447 580.42,-2433.2 600.48,-2424.76 620.6,-2419.66"/>
<polygon fill="#94a3b8" stroke="#94a3b8" stroke-width="1.3" points="621.05,-2422.43 628.22,-2417.92 619.8,-2416.97 621.05,-2422.43"/>
</g>
<!-- page_StrategyRuns -->
<g id="node9" class="node">
<title>page_StrategyRuns</title>
<path fill="#1e293b" stroke="#475569" d="M800.34,-2500.8C800.34,-2500.8 612.74,-2500.8 612.74,-2500.8 606.74,-2500.8 600.74,-2494.8 600.74,-2488.8 600.74,-2488.8 600.74,-2471.2 600.74,-2471.2 600.74,-2465.2 606.74,-2459.2 612.74,-2459.2 612.74,-2459.2 800.34,-2459.2 800.34,-2459.2 806.34,-2459.2 812.34,-2465.2 812.34,-2471.2 812.34,-2471.2 812.34,-2488.8 812.34,-2488.8 812.34,-2494.8 806.34,-2500.8 800.34,-2500.8"/>
<text xml:space="preserve" text-anchor="middle" x="706.54" y="-2484.2" font-family="Segoe UI" font-size="14.00" fill="#e2e8f0">Strategy Runs</text>
<text xml:space="preserve" text-anchor="middle" x="706.54" y="-2467.4" font-family="Segoe UI" font-size="14.00" fill="#e2e8f0">StrategyRuns → StrategyRunsPage</text>
</g>
<!-- workspace_1&#45;&gt;page_StrategyRuns -->
<g id="edge7" class="edge">
<title>workspace_1&#45;&gt;page_StrategyRuns</title>
<path fill="none" stroke="#94a3b8" stroke-width="1.3" d="M432.42,-2860.94C435.77,-2795.89 455.15,-2599.87 564.99,-2501.5 572.8,-2494.51 581.79,-2488.9 591.38,-2484.45"/>
<polygon fill="#94a3b8" stroke="#94a3b8" stroke-width="1.3" points="592.23,-2487.13 598.52,-2481.45 590.06,-2481.97 592.23,-2487.13"/>
</g>
<!-- workspace_1&#45;&gt;page_StrategyRuns -->
<g id="edge11" class="edge">
<title>workspace_1&#45;&gt;page_StrategyRuns</title>
<path fill="none" stroke="#94a3b8" stroke-width="1.3" d="M433.13,-2861.15C438.19,-2799.51 461.23,-2619.43 564.99,-2526.5 575.89,-2516.75 589.1,-2509.67 603.01,-2504.41"/>
<polygon fill="#94a3b8" stroke="#94a3b8" stroke-width="1.3" points="603.73,-2507.12 610.37,-2501.85 601.9,-2501.83 603.73,-2507.12"/>
</g>
<!-- page_OrderBook -->
<g id="node10" class="node">
<title>page_OrderBook</title>
<path fill="#1e293b" stroke="#475569" d="M787.88,-2567.8C787.88,-2567.8 625.19,-2567.8 625.19,-2567.8 619.19,-2567.8 613.19,-2561.8 613.19,-2555.8 613.19,-2555.8 613.19,-2538.2 613.19,-2538.2 613.19,-2532.2 619.19,-2526.2 625.19,-2526.2 625.19,-2526.2 787.88,-2526.2 787.88,-2526.2 793.88,-2526.2 799.88,-2532.2 799.88,-2538.2 799.88,-2538.2 799.88,-2555.8 799.88,-2555.8 799.88,-2561.8 793.88,-2567.8 787.88,-2567.8"/>
<text xml:space="preserve" text-anchor="middle" x="706.54" y="-2551.2" font-family="Segoe UI" font-size="14.00" fill="#e2e8f0">Order Book</text>
<text xml:space="preserve" text-anchor="middle" x="706.54" y="-2534.4" font-family="Segoe UI" font-size="14.00" fill="#e2e8f0">OrderBook → OrderBookPage</text>
</g>
<!-- workspace_1&#45;&gt;page_OrderBook -->
<g id="edge8" class="edge">
<title>workspace_1&#45;&gt;page_OrderBook</title>
<path fill="none" stroke="#94a3b8" stroke-width="1.3" d="M439.77,-2861.03C464.89,-2795.93 541.63,-2600.5 564.99,-2581 576.22,-2571.63 589.61,-2564.76 603.6,-2559.75"/>
<polygon fill="#94a3b8" stroke="#94a3b8" stroke-width="1.3" points="604.27,-2562.47 610.99,-2557.32 602.52,-2557.15 604.27,-2562.47"/>
</g>
<!-- page_Watchlist -->
<g id="node11" class="node">
<title>page_Watchlist</title>
<path fill="#1e293b" stroke="#475569" d="M778.54,-2634.8C778.54,-2634.8 634.53,-2634.8 634.53,-2634.8 628.53,-2634.8 622.53,-2628.8 622.53,-2622.8 622.53,-2622.8 622.53,-2605.2 622.53,-2605.2 622.53,-2599.2 628.53,-2593.2 634.53,-2593.2 634.53,-2593.2 778.54,-2593.2 778.54,-2593.2 784.54,-2593.2 790.54,-2599.2 790.54,-2605.2 790.54,-2605.2 790.54,-2622.8 790.54,-2622.8 790.54,-2628.8 784.54,-2634.8 778.54,-2634.8"/>
<text xml:space="preserve" text-anchor="middle" x="706.54" y="-2618.2" font-family="Segoe UI" font-size="14.00" fill="#e2e8f0">Watchlist</text>
<text xml:space="preserve" text-anchor="middle" x="706.54" y="-2601.4" font-family="Segoe UI" font-size="14.00" fill="#e2e8f0">Watchlist → WatchlistPage</text>
</g>
<!-- workspace_1&#45;&gt;page_Watchlist -->
<g id="edge9" class="edge">
<title>workspace_1&#45;&gt;page_Watchlist</title>
<path fill="none" stroke="#94a3b8" stroke-width="1.3" d="M450.86,-2861.07C472.33,-2836.66 507.02,-2794.37 528.99,-2753 552.13,-2709.43 528.53,-2681.23 564.99,-2648 578.43,-2635.76 595.5,-2627.73 613.08,-2622.5"/>
<polygon fill="#94a3b8" stroke="#94a3b8" stroke-width="1.3" points="613.41,-2625.31 620.4,-2620.52 611.95,-2619.9 613.41,-2625.31"/>
</g>
<!-- page_Backtest -->
<g id="node12" class="node">
<title>page_Backtest</title>
<path fill="#1e293b" stroke="#475569" d="M773.1,-2701.8C773.1,-2701.8 639.97,-2701.8 639.97,-2701.8 633.97,-2701.8 627.97,-2695.8 627.97,-2689.8 627.97,-2689.8 627.97,-2672.2 627.97,-2672.2 627.97,-2666.2 633.97,-2660.2 639.97,-2660.2 639.97,-2660.2 773.1,-2660.2 773.1,-2660.2 779.1,-2660.2 785.1,-2666.2 785.1,-2672.2 785.1,-2672.2 785.1,-2689.8 785.1,-2689.8 785.1,-2695.8 779.1,-2701.8 773.1,-2701.8"/>
<text xml:space="preserve" text-anchor="middle" x="706.54" y="-2685.2" font-family="Segoe UI" font-size="14.00" fill="#e2e8f0">Backtest</text>
<text xml:space="preserve" text-anchor="middle" x="706.54" y="-2668.4" font-family="Segoe UI" font-size="14.00" fill="#e2e8f0">Backtest → BacktestPage</text>
</g>
<!-- workspace_1&#45;&gt;page_Backtest -->
<g id="edge10" class="edge">
<title>workspace_1&#45;&gt;page_Backtest</title>
<path fill="none" stroke="#94a3b8" stroke-width="1.3" d="M471.62,-2860.84C491.17,-2848.76 513.74,-2832.02 528.99,-2812 556.87,-2775.43 530.62,-2745.54 564.99,-2715 579.83,-2701.82 598.91,-2693.53 618.19,-2688.38"/>
<polygon fill="#94a3b8" stroke="#94a3b8" stroke-width="1.3" points="618.63,-2691.16 625.75,-2686.56 617.31,-2685.71 618.63,-2691.16"/>
</g>
<!-- page_LeanIntegration -->
<g id="node13" class="node">
<title>page_LeanIntegration</title>
<path fill="#1e293b" stroke="#475569" d="M814.29,-2768.8C814.29,-2768.8 598.78,-2768.8 598.78,-2768.8 592.78,-2768.8 586.78,-2762.8 586.78,-2756.8 586.78,-2756.8 586.78,-2739.2 586.78,-2739.2 586.78,-2733.2 592.78,-2727.2 598.78,-2727.2 598.78,-2727.2 814.29,-2727.2 814.29,-2727.2 820.29,-2727.2 826.29,-2733.2 826.29,-2739.2 826.29,-2739.2 826.29,-2756.8 826.29,-2756.8 826.29,-2762.8 820.29,-2768.8 814.29,-2768.8"/>
<text xml:space="preserve" text-anchor="middle" x="706.54" y="-2752.2" font-family="Segoe UI" font-size="14.00" fill="#e2e8f0">Lean Engine</text>
<text xml:space="preserve" text-anchor="middle" x="706.54" y="-2735.4" font-family="Segoe UI" font-size="14.00" fill="#e2e8f0">LeanIntegration → LeanIntegrationPage</text>
</g>
<!-- workspace_1&#45;&gt;page_LeanIntegration -->
<g id="edge12" class="edge">
<title>workspace_1&#45;&gt;page_LeanIntegration</title>
<path fill="none" stroke="#94a3b8" stroke-width="1.3" d="M481.52,-2870.35C497.95,-2864.71 515.47,-2856.57 528.99,-2845 553.5,-2824.04 539.21,-2801.38 564.99,-2782 569.03,-2778.97 573.3,-2776.2 577.74,-2773.68"/>
<polygon fill="#94a3b8" stroke="#94a3b8" stroke-width="1.3" points="578.93,-2776.21 584.73,-2770.03 576.34,-2771.25 578.93,-2776.21"/>
</g>
<!-- page_PortfolioImport -->
<g id="node14" class="node">
<title>page_PortfolioImport</title>
<path fill="#1e293b" stroke="#475569" d="M812.78,-2835.8C812.78,-2835.8 600.3,-2835.8 600.3,-2835.8 594.3,-2835.8 588.3,-2829.8 588.3,-2823.8 588.3,-2823.8 588.3,-2806.2 588.3,-2806.2 588.3,-2800.2 594.3,-2794.2 600.3,-2794.2 600.3,-2794.2 812.78,-2794.2 812.78,-2794.2 818.78,-2794.2 824.78,-2800.2 824.78,-2806.2 824.78,-2806.2 824.78,-2823.8 824.78,-2823.8 824.78,-2829.8 818.78,-2835.8 812.78,-2835.8"/>
<text xml:space="preserve" text-anchor="middle" x="706.54" y="-2819.2" font-family="Segoe UI" font-size="14.00" fill="#e2e8f0">Portfolio Import</text>
<text xml:space="preserve" text-anchor="middle" x="706.54" y="-2802.4" font-family="Segoe UI" font-size="14.00" fill="#e2e8f0">PortfolioImport → PortfolioImportPage</text>
</g>
<!-- workspace_1&#45;&gt;page_PortfolioImport -->
<g id="edge13" class="edge">
<title>workspace_1&#45;&gt;page_PortfolioImport</title>
<path fill="none" stroke="#94a3b8" stroke-width="1.3" d="M481.26,-2875.75C496.74,-2873.16 513.74,-2869.64 528.99,-2865 545.74,-2859.9 548.42,-2854.64 564.99,-2849 575.67,-2845.37 586.93,-2841.97 598.23,-2838.82"/>
<polygon fill="#94a3b8" stroke="#94a3b8" stroke-width="1.3" points="598.84,-2841.56 605.83,-2836.76 597.38,-2836.15 598.84,-2841.56"/>
</g>
<!-- page_TradingHours -->
<g id="node15" class="node">
<title>page_TradingHours</title>
<path fill="#1e293b" stroke="#475569" d="M803.43,-2902.8C803.43,-2902.8 609.64,-2902.8 609.64,-2902.8 603.64,-2902.8 597.64,-2896.8 597.64,-2890.8 597.64,-2890.8 597.64,-2873.2 597.64,-2873.2 597.64,-2867.2 603.64,-2861.2 609.64,-2861.2 609.64,-2861.2 803.43,-2861.2 803.43,-2861.2 809.43,-2861.2 815.43,-2867.2 815.43,-2873.2 815.43,-2873.2 815.43,-2890.8 815.43,-2890.8 815.43,-2896.8 809.43,-2902.8 803.43,-2902.8"/>
<text xml:space="preserve" text-anchor="middle" x="706.54" y="-2886.2" font-family="Segoe UI" font-size="14.00" fill="#e2e8f0">Trading Hours</text>
<text xml:space="preserve" text-anchor="middle" x="706.54" y="-2869.4" font-family="Segoe UI" font-size="14.00" fill="#e2e8f0">TradingHours → TradingHoursPage</text>
</g>
<!-- workspace_1&#45;&gt;page_TradingHours -->
<g id="edge14" class="edge">
<title>workspace_1&#45;&gt;page_TradingHours</title>
<path fill="none" stroke="#94a3b8" stroke-width="1.3" d="M481.31,-2882C511.02,-2882 550.14,-2882 587.38,-2882"/>
<polygon fill="#94a3b8" stroke="#94a3b8" stroke-width="1.3" points="587.34,-2884.8 595.34,-2882 587.34,-2879.2 587.34,-2884.8"/>
</g>
<!-- page_Provider -->
<g id="node16" class="node">
<title>page_Provider</title>
<path fill="#1e293b" stroke="#475569" d="M773.11,-2969.8C773.11,-2969.8 639.97,-2969.8 639.97,-2969.8 633.97,-2969.8 627.97,-2963.8 627.97,-2957.8 627.97,-2957.8 627.97,-2940.2 627.97,-2940.2 627.97,-2934.2 633.97,-2928.2 639.97,-2928.2 639.97,-2928.2 773.11,-2928.2 773.11,-2928.2 779.11,-2928.2 785.11,-2934.2 785.11,-2940.2 785.11,-2940.2 785.11,-2957.8 785.11,-2957.8 785.11,-2963.8 779.11,-2969.8 773.11,-2969.8"/>
<text xml:space="preserve" text-anchor="middle" x="706.54" y="-2953.2" font-family="Segoe UI" font-size="14.00" fill="#e2e8f0">Provider</text>
<text xml:space="preserve" text-anchor="middle" x="706.54" y="-2936.4" font-family="Segoe UI" font-size="14.00" fill="#e2e8f0">Provider → ProviderPage</text>
</g>
<!-- workspace_1&#45;&gt;page_Provider -->
<g id="edge15" class="edge">
<title>workspace_1&#45;&gt;page_Provider</title>
<path fill="none" stroke="#94a3b8" stroke-width="1.3" d="M481.39,-2894.37C506.45,-2900.59 537.33,-2908.23 564.99,-2915 582.17,-2919.2 600.54,-2923.67 618.14,-2927.93"/>
<polygon fill="#94a3b8" stroke="#94a3b8" stroke-width="1.3" points="617.48,-2930.66 625.92,-2929.82 618.8,-2925.21 617.48,-2930.66"/>
</g>
<!-- page_Symbols -->
<g id="node17" class="node">
<title>page_Symbols</title>
<path fill="#1e293b" stroke="#475569" d="M773.91,-3036.8C773.91,-3036.8 639.17,-3036.8 639.17,-3036.8 633.17,-3036.8 627.17,-3030.8 627.17,-3024.8 627.17,-3024.8 627.17,-3007.2 627.17,-3007.2 627.17,-3001.2 633.17,-2995.2 639.17,-2995.2 639.17,-2995.2 773.91,-2995.2 773.91,-2995.2 779.91,-2995.2 785.91,-3001.2 785.91,-3007.2 785.91,-3007.2 785.91,-3024.8 785.91,-3024.8 785.91,-3030.8 779.91,-3036.8 773.91,-3036.8"/>
<text xml:space="preserve" text-anchor="middle" x="706.54" y="-3020.2" font-family="Segoe UI" font-size="14.00" fill="#e2e8f0">Symbols</text>
<text xml:space="preserve" text-anchor="middle" x="706.54" y="-3003.4" font-family="Segoe UI" font-size="14.00" fill="#e2e8f0">Symbols → SymbolsPage</text>
</g>
<!-- workspace_1&#45;&gt;page_Symbols -->
<g id="edge16" class="edge">
<title>workspace_1&#45;&gt;page_Symbols</title>
<path fill="none" stroke="#94a3b8" stroke-width="1.3" d="M453.91,-2903.21C478.94,-2925.99 521.82,-2961.65 564.99,-2982 581.43,-2989.75 599.81,-2995.83 617.71,-3000.58"/>
<polygon fill="#94a3b8" stroke="#94a3b8" stroke-width="1.3" points="616.67,-3003.2 625.12,-3002.45 618.05,-2997.77 616.67,-3003.2"/>
</g>
<!-- page_Backfill -->
<g id="node18" class="node">
<title>page_Backfill</title>
<path fill="#1e293b" stroke="#475569" d="M769.99,-3103.8C769.99,-3103.8 643.08,-3103.8 643.08,-3103.8 637.08,-3103.8 631.08,-3097.8 631.08,-3091.8 631.08,-3091.8 631.08,-3074.2 631.08,-3074.2 631.08,-3068.2 637.08,-3062.2 643.08,-3062.2 643.08,-3062.2 769.99,-3062.2 769.99,-3062.2 775.99,-3062.2 781.99,-3068.2 781.99,-3074.2 781.99,-3074.2 781.99,-3091.8 781.99,-3091.8 781.99,-3097.8 775.99,-3103.8 769.99,-3103.8"/>
<text xml:space="preserve" text-anchor="middle" x="706.54" y="-3087.2" font-family="Segoe UI" font-size="14.00" fill="#e2e8f0">Backfill</text>
<text xml:space="preserve" text-anchor="middle" x="706.54" y="-3070.4" font-family="Segoe UI" font-size="14.00" fill="#e2e8f0">Backfill → BackfillPage</text>
</g>
<!-- workspace_1&#45;&gt;page_Backfill -->
<g id="edge17" class="edge">
<title>workspace_1&#45;&gt;page_Backfill</title>
<path fill="none" stroke="#94a3b8" stroke-width="1.3" d="M442.49,-2903.16C461.88,-2939.03 506.18,-3011.53 564.99,-3049 581.82,-3059.72 601.75,-3067.07 621.23,-3072.09"/>
<polygon fill="#94a3b8" stroke="#94a3b8" stroke-width="1.3" points="620.4,-3074.77 628.83,-3073.92 621.71,-3069.33 620.4,-3074.77"/>
</g>
<!-- page_Storage -->
<g id="node19" class="node">
<title>page_Storage</title>
<path fill="#1e293b" stroke="#475569" d="M767.66,-3170.8C767.66,-3170.8 645.42,-3170.8 645.42,-3170.8 639.42,-3170.8 633.42,-3164.8 633.42,-3158.8 633.42,-3158.8 633.42,-3141.2 633.42,-3141.2 633.42,-3135.2 639.42,-3129.2 645.42,-3129.2 645.42,-3129.2 767.66,-3129.2 767.66,-3129.2 773.66,-3129.2 779.66,-3135.2 779.66,-3141.2 779.66,-3141.2 779.66,-3158.8 779.66,-3158.8 779.66,-3164.8 773.66,-3170.8 767.66,-3170.8"/>
<text xml:space="preserve" text-anchor="middle" x="706.54" y="-3154.2" font-family="Segoe UI" font-size="14.00" fill="#e2e8f0">Storage</text>
<text xml:space="preserve" text-anchor="middle" x="706.54" y="-3137.4" font-family="Segoe UI" font-size="14.00" fill="#e2e8f0">Storage → StoragePage</text>
</g>
<!-- workspace_1&#45;&gt;page_Storage -->
<g id="edge18" class="edge">
<title>workspace_1&#45;&gt;page_Storage</title>
<path fill="none" stroke="#94a3b8" stroke-width="1.3" d="M437.45,-2902.97C451.17,-2949.13 490.48,-3059.91 564.99,-3116 581.88,-3128.71 602.85,-3136.73 623.4,-3141.78"/>
<polygon fill="#94a3b8" stroke="#94a3b8" stroke-width="1.3" points="622.77,-3144.51 631.19,-3143.53 624,-3139.05 622.77,-3144.51"/>
</g>
<!-- page_DataExport -->
<g id="node20" class="node">
<title>page_DataExport</title>
<path fill="#1e293b" stroke="#475569" d="M789.43,-3237.8C789.43,-3237.8 623.65,-3237.8 623.65,-3237.8 617.65,-3237.8 611.65,-3231.8 611.65,-3225.8 611.65,-3225.8 611.65,-3208.2 611.65,-3208.2 611.65,-3202.2 617.65,-3196.2 623.65,-3196.2 623.65,-3196.2 789.43,-3196.2 789.43,-3196.2 795.43,-3196.2 801.43,-3202.2 801.43,-3208.2 801.43,-3208.2 801.43,-3225.8 801.43,-3225.8 801.43,-3231.8 795.43,-3237.8 789.43,-3237.8"/>
<text xml:space="preserve" text-anchor="middle" x="706.54" y="-3221.2" font-family="Segoe UI" font-size="14.00" fill="#e2e8f0">Export</text>
<text xml:space="preserve" text-anchor="middle" x="706.54" y="-3204.4" font-family="Segoe UI" font-size="14.00" fill="#e2e8f0">DataExport → DataExportPage</text>
</g>
<!-- workspace_1&#45;&gt;page_DataExport -->
<g id="edge19" class="edge">
<title>workspace_1&#45;&gt;page_DataExport</title>
<path fill="none" stroke="#94a3b8" stroke-width="1.3" d="M434.59,-2902.93C443.25,-2957.9 474.4,-3107.36 564.99,-3183 575.8,-3192.02 588.61,-3198.72 602.03,-3203.68"/>
<polygon fill="#94a3b8" stroke="#94a3b8" stroke-width="1.3" points="601.07,-3206.31 609.54,-3206.22 602.86,-3201.01 601.07,-3206.31"/>
</g>
<!-- page_PackageManager -->
<g id="node21" class="node">
<title>page_PackageManager</title>
<path fill="#1e293b" stroke="#475569" d="M821.29,-3304.8C821.29,-3304.8 591.79,-3304.8 591.79,-3304.8 585.79,-3304.8 579.79,-3298.8 579.79,-3292.8 579.79,-3292.8 579.79,-3275.2 579.79,-3275.2 579.79,-3269.2 585.79,-3263.2 591.79,-3263.2 591.79,-3263.2 821.29,-3263.2 821.29,-3263.2 827.29,-3263.2 833.29,-3269.2 833.29,-3275.2 833.29,-3275.2 833.29,-3292.8 833.29,-3292.8 833.29,-3298.8 827.29,-3304.8 821.29,-3304.8"/>
<text xml:space="preserve" text-anchor="middle" x="706.54" y="-3288.2" font-family="Segoe UI" font-size="14.00" fill="#e2e8f0">Packages</text>
<text xml:space="preserve" text-anchor="middle" x="706.54" y="-3271.4" font-family="Segoe UI" font-size="14.00" fill="#e2e8f0">PackageManager → PackageManagerPage</text>
</g>
<!-- workspace_1&#45;&gt;page_PackageManager -->
<g id="edge20" class="edge">
<title>workspace_1&#45;&gt;page_PackageManager</title>
<path fill="none" stroke="#94a3b8" stroke-width="1.3" d="M432.65,-2902.87C436.59,-2965.74 457.29,-3154.85 564.99,-3250 568.12,-3252.76 571.42,-3255.3 574.88,-3257.65"/>
<polygon fill="#94a3b8" stroke="#94a3b8" stroke-width="1.3" points="573.24,-3259.92 581.52,-3261.73 576.18,-3255.16 573.24,-3259.92"/>
</g>
<!-- page_DataQuality -->
<g id="node22" class="node">
<title>page_DataQuality</title>
<path fill="#1e293b" stroke="#475569" d="M793.32,-3371.8C793.32,-3371.8 619.76,-3371.8 619.76,-3371.8 613.76,-3371.8 607.76,-3365.8 607.76,-3359.8 607.76,-3359.8 607.76,-3342.2 607.76,-3342.2 607.76,-3336.2 613.76,-3330.2 619.76,-3330.2 619.76,-3330.2 793.32,-3330.2 793.32,-3330.2 799.32,-3330.2 805.32,-3336.2 805.32,-3342.2 805.32,-3342.2 805.32,-3359.8 805.32,-3359.8 805.32,-3365.8 799.32,-3371.8 793.32,-3371.8"/>
<text xml:space="preserve" text-anchor="middle" x="706.54" y="-3355.2" font-family="Segoe UI" font-size="14.00" fill="#e2e8f0">Data Quality</text>
<text xml:space="preserve" text-anchor="middle" x="706.54" y="-3338.4" font-family="Segoe UI" font-size="14.00" fill="#e2e8f0">DataQuality → DataQualityPage</text>
</g>
<!-- workspace_1&#45;&gt;page_DataQuality -->
<g id="edge21" class="edge">
<title>workspace_1&#45;&gt;page_DataQuality</title>
<path fill="none" stroke="#94a3b8" stroke-width="1.3" d="M431.12,-2903.22C430.35,-2974.03 438.1,-3204.15 564.99,-3317 574.73,-3325.66 586.3,-3332.2 598.55,-3337.14"/>
<polygon fill="#94a3b8" stroke="#94a3b8" stroke-width="1.3" points="597.25,-3339.64 605.73,-3339.77 599.18,-3334.39 597.25,-3339.64"/>
</g>
<!-- page_ProviderHealth -->
<g id="node23" class="node">
<title>page_ProviderHealth</title>
<path fill="#1e293b" stroke="#475569" d="M810.43,-3438.8C810.43,-3438.8 602.65,-3438.8 602.65,-3438.8 596.65,-3438.8 590.65,-3432.8 590.65,-3426.8 590.65,-3426.8 590.65,-3409.2 590.65,-3409.2 590.65,-3403.2 596.65,-3397.2 602.65,-3397.2 602.65,-3397.2 810.43,-3397.2 810.43,-3397.2 816.43,-3397.2 822.43,-3403.2 822.43,-3409.2 822.43,-3409.2 822.43,-3426.8 822.43,-3426.8 822.43,-3432.8 816.43,-3438.8 810.43,-3438.8"/>
<text xml:space="preserve" text-anchor="middle" x="706.54" y="-3422.2" font-family="Segoe UI" font-size="14.00" fill="#e2e8f0">Provider Health</text>
<text xml:space="preserve" text-anchor="middle" x="706.54" y="-3405.4" font-family="Segoe UI" font-size="14.00" fill="#e2e8f0">ProviderHealth → ProviderHealthPage</text>
</g>
<!-- workspace_1&#45;&gt;page_ProviderHealth -->
<g id="edge22" class="edge">
<title>workspace_1&#45;&gt;page_ProviderHealth</title>
<path fill="none" stroke="#94a3b8" stroke-width="1.3" d="M434.27,-2903.28C445.11,-2990.3 490.37,-3317.64 564.99,-3384 570.15,-3388.59 575.82,-3392.58 581.84,-3396.06"/>
<polygon fill="#94a3b8" stroke="#94a3b8" stroke-width="1.3" points="580.12,-3398.31 588.5,-3399.57 582.73,-3393.36 580.12,-3398.31"/>
</g>
<!-- page_SystemHealth -->
<g id="node24" class="node">
<title>page_SystemHealth</title>
<path fill="#1e293b" stroke="#475569" d="M803.44,-3505.8C803.44,-3505.8 609.64,-3505.8 609.64,-3505.8 603.64,-3505.8 597.64,-3499.8 597.64,-3493.8 597.64,-3493.8 597.64,-3476.2 597.64,-3476.2 597.64,-3470.2 603.64,-3464.2 609.64,-3464.2 609.64,-3464.2 803.44,-3464.2 803.44,-3464.2 809.44,-3464.2 815.44,-3470.2 815.44,-3476.2 815.44,-3476.2 815.44,-3493.8 815.44,-3493.8 815.44,-3499.8 809.44,-3505.8 803.44,-3505.8"/>
<text xml:space="preserve" text-anchor="middle" x="706.54" y="-3489.2" font-family="Segoe UI" font-size="14.00" fill="#e2e8f0">System Health</text>
<text xml:space="preserve" text-anchor="middle" x="706.54" y="-3472.4" font-family="Segoe UI" font-size="14.00" fill="#e2e8f0">SystemHealth → SystemHealthPage</text>
</g>
<!-- workspace_1&#45;&gt;page_SystemHealth -->
<g id="edge23" class="edge">
<title>workspace_1&#45;&gt;page_SystemHealth</title>
<path fill="none" stroke="#94a3b8" stroke-width="1.3" d="M433.58,-2903.14C442.23,-2996.87 481.82,-3373.76 564.99,-3451 571.89,-3457.4 579.78,-3462.66 588.22,-3466.97"/>
<polygon fill="#94a3b8" stroke="#94a3b8" stroke-width="1.3" points="586.98,-3469.48 595.42,-3470.3 589.33,-3464.4 586.98,-3469.48"/>
</g>
<!-- page_Diagnostics -->
<g id="node25" class="node">
<title>page_Diagnostics</title>
<path fill="#1e293b" stroke="#475569" d="M791,-3572.8C791,-3572.8 622.08,-3572.8 622.08,-3572.8 616.08,-3572.8 610.08,-3566.8 610.08,-3560.8 610.08,-3560.8 610.08,-3543.2 610.08,-3543.2 610.08,-3537.2 616.08,-3531.2 622.08,-3531.2 622.08,-3531.2 791,-3531.2 791,-3531.2 797,-3531.2 803,-3537.2 803,-3543.2 803,-3543.2 803,-3560.8 803,-3560.8 803,-3566.8 797,-3572.8 791,-3572.8"/>
<text xml:space="preserve" text-anchor="middle" x="706.54" y="-3556.2" font-family="Segoe UI" font-size="14.00" fill="#e2e8f0">Diagnostics</text>
<text xml:space="preserve" text-anchor="middle" x="706.54" y="-3539.4" font-family="Segoe UI" font-size="14.00" fill="#e2e8f0">Diagnostics → DiagnosticsPage</text>
</g>
<!-- workspace_1&#45;&gt;page_Diagnostics -->
<g id="edge24" class="edge">
<title>workspace_1&#45;&gt;page_Diagnostics</title>
<path fill="none" stroke="#94a3b8" stroke-width="1.3" d="M433,-2903.23C439.46,-3003.81 472.11,-3431.1 564.99,-3518 575.12,-3527.48 587.42,-3534.45 600.49,-3539.55"/>
<polygon fill="#94a3b8" stroke="#94a3b8" stroke-width="1.3" points="599.31,-3542.1 607.79,-3542.13 601.18,-3536.82 599.31,-3542.1"/>
</g>
<!-- page_Settings -->
<g id="node26" class="node">
<title>page_Settings</title>
<path fill="#1e293b" stroke="#475569" d="M770.01,-3639.8C770.01,-3639.8 643.06,-3639.8 643.06,-3639.8 637.06,-3639.8 631.06,-3633.8 631.06,-3627.8 631.06,-3627.8 631.06,-3610.2 631.06,-3610.2 631.06,-3604.2 637.06,-3598.2 643.06,-3598.2 643.06,-3598.2 770.01,-3598.2 770.01,-3598.2 776.01,-3598.2 782.01,-3604.2 782.01,-3610.2 782.01,-3610.2 782.01,-3627.8 782.01,-3627.8 782.01,-3633.8 776.01,-3639.8 770.01,-3639.8"/>
<text xml:space="preserve" text-anchor="middle" x="706.54" y="-3623.2" font-family="Segoe UI" font-size="14.00" fill="#e2e8f0">Settings</text>
<text xml:space="preserve" text-anchor="middle" x="706.54" y="-3606.4" font-family="Segoe UI" font-size="14.00" fill="#e2e8f0">Settings → SettingsPage</text>
</g>
<!-- workspace_1&#45;&gt;page_Settings -->
<g id="edge25" class="edge">
<title>workspace_1&#45;&gt;page_Settings</title>
<path fill="none" stroke="#94a3b8" stroke-width="1.3" d="M432.48,-2902.97C436.78,-3009.43 461.69,-3488.82 564.99,-3585 580.38,-3599.32 600.74,-3607.92 621.17,-3612.99"/>
<polygon fill="#94a3b8" stroke="#94a3b8" stroke-width="1.3" points="620.52,-3615.72 628.94,-3614.72 621.74,-3610.25 620.52,-3615.72"/>
</g>
<!-- page_AdminMaintenance -->
<g id="node27" class="node">
<title>page_AdminMaintenance</title>
<path fill="#1e293b" stroke="#475569" d="M836.08,-3706.8C836.08,-3706.8 576.99,-3706.8 576.99,-3706.8 570.99,-3706.8 564.99,-3700.8 564.99,-3694.8 564.99,-3694.8 564.99,-3677.2 564.99,-3677.2 564.99,-3671.2 570.99,-3665.2 576.99,-3665.2 576.99,-3665.2 836.08,-3665.2 836.08,-3665.2 842.08,-3665.2 848.08,-3671.2 848.08,-3677.2 848.08,-3677.2 848.08,-3694.8 848.08,-3694.8 848.08,-3700.8 842.08,-3706.8 836.08,-3706.8"/>
<text xml:space="preserve" text-anchor="middle" x="706.54" y="-3690.2" font-family="Segoe UI" font-size="14.00" fill="#e2e8f0">Admin</text>
<text xml:space="preserve" text-anchor="middle" x="706.54" y="-3673.4" font-family="Segoe UI" font-size="14.00" fill="#e2e8f0">AdminMaintenance → AdminMaintenancePage</text>
</g>
<!-- workspace_1&#45;&gt;page_AdminMaintenance -->
<g id="edge26" class="edge">
<title>workspace_1&#45;&gt;page_AdminMaintenance</title>
<path fill="none" stroke="#94a3b8" stroke-width="1.3" d="M432.08,-2903.1C434.42,-3015.88 451.42,-3546.52 564.99,-3652 567.86,-3654.66 570.9,-3657.13 574.08,-3659.41"/>
<polygon fill="#94a3b8" stroke="#94a3b8" stroke-width="1.3" points="572.37,-3661.63 580.6,-3663.64 575.41,-3656.93 572.37,-3661.63"/>
</g>
</g>
</svg>
