<?xml version="1.0" encoding="UTF-8" standalone="no"?>
<!DOCTYPE svg PUBLIC "-//W3C//DTD SVG 1.1//EN"
 "http://www.w3.org/Graphics/SVG/1.1/DTD/svg11.dtd">
<!-- Generated by graphviz version 2.43.0 (0)
 -->
<!-- Title: UiNavigationMap Pages: 1 -->
<svg width="1143pt" height="3893pt"
 viewBox="0.00 0.00 1142.60 3892.60" xmlns="http://www.w3.org/2000/svg" xmlns:xlink="http://www.w3.org/1999/xlink">
<g id="graph0" class="graph" transform="scale(1 1) rotate(0) translate(28.8 3863.8)">
<title>UiNavigationMap</title>
<polygon fill="#0f172a" stroke="transparent" points="-28.8,28.8 -28.8,-3863.8 1113.8,-3863.8 1113.8,28.8 -28.8,28.8"/>
<text text-anchor="middle" x="542.5" y="-3815" font-family="Segoe UI" font-size="20.00">Meridian WPF UI navigation map</text>
<text text-anchor="middle" x="542.5" y="-3793" font-family="Segoe UI" font-size="20.00">(auto&#45;generated from MainPage.xaml + NavigationService.cs)</text>
<g id="clust1" class="cluster">
<title>cluster_workspace_1</title>
<path fill="#0f172a" stroke="#334155" d="M433,-2242C433,-2242 1065,-2242 1065,-2242 1071,-2242 1077,-2248 1077,-2254 1077,-2254 1077,-3763 1077,-3763 1077,-3769 1071,-3775 1065,-3775 1065,-3775 433,-3775 433,-3775 427,-3775 421,-3769 421,-3763 421,-3763 421,-2254 421,-2254 421,-2248 427,-2242 433,-2242"/>
<text text-anchor="middle" x="749" y="-3755" font-family="Segoe UI" font-size="20.00">Shell workspace</text>
</g>
<g id="clust2" class="cluster">
<title>cluster_hidden_pages</title>
<path fill="#0f172a" stroke="#7c2d12" stroke-dasharray="5,2" d="M326,-8C326,-8 656,-8 656,-8 662,-8 668,-14 668,-20 668,-20 668,-2222 668,-2222 668,-2228 662,-2234 656,-2234 656,-2234 326,-2234 326,-2234 320,-2234 314,-2228 314,-2222 314,-2222 314,-20 314,-20 314,-14 320,-8 326,-8"/>
<text text-anchor="middle" x="491" y="-2214" font-family="Segoe UI" font-size="20.00">Registered but not in sidebar shell</text>
</g>
<!-- generated -->
<g id="node1" class="node">
<title>generated</title>
<polygon fill="#1d4ed8" stroke="#60a5fa" points="243,-1092.5 0,-1092.5 0,-1039.5 249,-1039.5 249,-1086.5 243,-1092.5"/>
<polyline fill="none" stroke="#60a5fa" points="243,-1092.5 243,-1086.5 "/>
<polyline fill="none" stroke="#60a5fa" points="249,-1086.5 243,-1086.5 "/>
<text text-anchor="middle" x="124.5" y="-1077.3" font-family="Segoe UI" font-size="14.00" fill="#e2e8f0">Source fingerprint: af36ca8331f0</text>
<text text-anchor="middle" x="124.5" y="-1062.3" font-family="Segoe UI" font-size="14.00" fill="#e2e8f0">Shell entries: 25</text>
<text text-anchor="middle" x="124.5" y="-1047.3" font-family="Segoe UI" font-size="14.00" fill="#e2e8f0">Registered pages: 59</text>
</g>
<!-- shell -->
<g id="node2" class="node">
<title>shell</title>
<polygon fill="#0f766e" stroke="#2dd4bf" points="189,-1915 60,-1915 60,-1911 56,-1911 56,-1907 60,-1907 60,-1885 56,-1885 56,-1881 60,-1881 60,-1877 189,-1877 189,-1915"/>
<polyline fill="none" stroke="#2dd4bf" points="60,-1911 64,-1911 64,-1907 60,-1907 "/>
<polyline fill="none" stroke="#2dd4bf" points="60,-1885 64,-1885 64,-1881 60,-1881 "/>
<text text-anchor="middle" x="124.5" y="-1899.8" font-family="Segoe UI" font-size="14.00" fill="#e2e8f0">MainPage.xaml</text>
<text text-anchor="middle" x="124.5" y="-1884.8" font-family="Segoe UI" font-size="14.00" fill="#e2e8f0">Workspace shell</text>
</g>
<!-- navigation -->
<g id="node3" class="node">
<title>navigation</title>
<polygon fill="#7c3aed" stroke="#c4b5fd" points="195.5,-1156 53.5,-1156 53.5,-1152 49.5,-1152 49.5,-1148 53.5,-1148 53.5,-1126 49.5,-1126 49.5,-1122 53.5,-1122 53.5,-1118 195.5,-1118 195.5,-1156"/>
<polyline fill="none" stroke="#c4b5fd" points="53.5,-1152 57.5,-1152 57.5,-1148 53.5,-1148 "/>
<polyline fill="none" stroke="#c4b5fd" points="53.5,-1126 57.5,-1126 57.5,-1122 53.5,-1122 "/>
<text text-anchor="middle" x="124.5" y="-1140.8" font-family="Segoe UI" font-size="14.00" fill="#e2e8f0">NavigationService</text>
<text text-anchor="middle" x="124.5" y="-1125.8" font-family="Segoe UI" font-size="14.00" fill="#e2e8f0">RegisterAllPages()</text>
</g>
<!-- shell&#45;&gt;navigation -->
<g id="edge1" class="edge">
<title>shell&#45;&gt;navigation</title>
<path fill="none" stroke="#38bdf8" stroke-width="1.3" d="M124.5,-1876.91C124.5,-1773.98 124.5,-1285.35 124.5,-1164.22"/>
<polygon fill="#38bdf8" stroke="#38bdf8" stroke-width="1.3" points="127.3,-1164.14 124.5,-1156.14 121.7,-1164.14 127.3,-1164.14"/>
<text text-anchor="middle" x="114" y="-1512.8" font-family="Segoe UI" font-size="14.00">navigate via tags</text>
</g>
<!-- workspace_1 -->
<g id="node4" class="node">
<title>workspace_1</title>
<polygon fill="#1d4ed8" stroke="#93c5fd" points="553,-2949 550,-2953 529,-2953 526,-2949 429,-2949 429,-2911 553,-2911 553,-2949"/>
<text text-anchor="middle" x="491" y="-2933.8" font-family="Segoe UI" font-size="14.00" fill="#e2e8f0">Shell</text>
<text text-anchor="middle" x="491" y="-2918.8" font-family="Segoe UI" font-size="14.00" fill="#e2e8f0">25 shell entries</text>
</g>
<!-- shell&#45;&gt;workspace_1 -->
<g id="edge2" class="edge">
<title>shell&#45;&gt;workspace_1</title>
<path fill="none" stroke="#22d3ee" stroke-width="1.3" d="M132.3,-1915.28C176.96,-2041.99 428.31,-2755 480.51,-2903.07"/>
<polygon fill="#22d3ee" stroke="#22d3ee" stroke-width="1.3" points="477.95,-2904.24 483.25,-2910.85 483.23,-2902.38 477.95,-2904.24"/>
</g>
<!-- hidden_DataSources -->
<g id="node29" class="node">
<title>hidden_DataSources</title>
<path fill="#431407" stroke="#fb923c" d="M547.5,-2196C547.5,-2196 434.5,-2196 434.5,-2196 428.5,-2196 422.5,-2190 422.5,-2184 422.5,-2184 422.5,-2170 422.5,-2170 422.5,-2164 428.5,-2158 434.5,-2158 434.5,-2158 547.5,-2158 547.5,-2158 553.5,-2158 559.5,-2164 559.5,-2170 559.5,-2170 559.5,-2184 559.5,-2184 559.5,-2190 553.5,-2196 547.5,-2196"/>
<text text-anchor="middle" x="491" y="-2180.8" font-family="Segoe UI" font-size="14.00" fill="#e2e8f0">DataSources</text>
<text text-anchor="middle" x="491" y="-2165.8" font-family="Segoe UI" font-size="14.00" fill="#e2e8f0">DataSourcesPage</text>
</g>
<!-- navigation&#45;&gt;hidden_DataSources -->
<g id="edge28" class="edge">
<title>navigation&#45;&gt;hidden_DataSources</title>
<path fill="none" stroke="#fb923c" stroke-width="1.3" stroke-dasharray="5,2" d="M128.79,-1156.33C152.36,-1294.56 295.1,-2127.93 314,-2146 340.27,-2171.11 379.33,-2179.73 413.99,-2181.7"/>
<polygon fill="#fb923c" stroke="#fb923c" stroke-width="1.3" points="414.12,-2184.5 422.23,-2182.05 414.36,-2178.91 414.12,-2184.5"/>
</g>
<!-- hidden_DataBrowser -->
<g id="node30" class="node">
<title>hidden_DataBrowser</title>
<path fill="#431407" stroke="#fb923c" d="M548,-2133C548,-2133 434,-2133 434,-2133 428,-2133 422,-2127 422,-2121 422,-2121 422,-2107 422,-2107 422,-2101 428,-2095 434,-2095 434,-2095 548,-2095 548,-2095 554,-2095 560,-2101 560,-2107 560,-2107 560,-2121 560,-2121 560,-2127 554,-2133 548,-2133"/>
<text text-anchor="middle" x="491" y="-2117.8" font-family="Segoe UI" font-size="14.00" fill="#e2e8f0">DataBrowser</text>
<text text-anchor="middle" x="491" y="-2102.8" font-family="Segoe UI" font-size="14.00" fill="#e2e8f0">DataBrowserPage</text>
</g>
<!-- navigation&#45;&gt;hidden_DataBrowser -->
<g id="edge29" class="edge">
<title>navigation&#45;&gt;hidden_DataBrowser</title>
<path fill="none" stroke="#fb923c" stroke-width="1.3" stroke-dasharray="5,2" d="M128.63,-1156.04C150.22,-1287.01 277.41,-2050.43 314,-2083 340.82,-2106.87 379.36,-2115.5 413.54,-2117.78"/>
<polygon fill="#fb923c" stroke="#fb923c" stroke-width="1.3" points="413.53,-2120.58 421.66,-2118.21 413.82,-2114.99 413.53,-2120.58"/>
</g>
<!-- hidden_SymbolMapping -->
<g id="node31" class="node">
<title>hidden_SymbolMapping</title>
<path fill="#431407" stroke="#fb923c" d="M559.5,-2070C559.5,-2070 422.5,-2070 422.5,-2070 416.5,-2070 410.5,-2064 410.5,-2058 410.5,-2058 410.5,-2044 410.5,-2044 410.5,-2038 416.5,-2032 422.5,-2032 422.5,-2032 559.5,-2032 559.5,-2032 565.5,-2032 571.5,-2038 571.5,-2044 571.5,-2044 571.5,-2058 571.5,-2058 571.5,-2064 565.5,-2070 559.5,-2070"/>
<text text-anchor="middle" x="491" y="-2054.8" font-family="Segoe UI" font-size="14.00" fill="#e2e8f0">SymbolMapping</text>
<text text-anchor="middle" x="491" y="-2039.8" font-family="Segoe UI" font-size="14.00" fill="#e2e8f0">SymbolMappingPage</text>
</g>
<!-- navigation&#45;&gt;hidden_SymbolMapping -->
<g id="edge30" class="edge">
<title>navigation&#45;&gt;hidden_SymbolMapping</title>
<path fill="none" stroke="#fb923c" stroke-width="1.3" stroke-dasharray="5,2" d="M128.15,-1156.08C145.46,-1279.5 243.92,-1961.62 314,-2020 338.4,-2040.33 371.42,-2049.35 402.27,-2052.87"/>
<polygon fill="#fb923c" stroke="#fb923c" stroke-width="1.3" points="402.25,-2055.68 410.48,-2053.68 402.8,-2050.11 402.25,-2055.68"/>
</g>
<!-- hidden_SymbolStorage -->
<g id="node32" class="node">
<title>hidden_SymbolStorage</title>
<path fill="#431407" stroke="#fb923c" d="M556.5,-2007C556.5,-2007 425.5,-2007 425.5,-2007 419.5,-2007 413.5,-2001 413.5,-1995 413.5,-1995 413.5,-1981 413.5,-1981 413.5,-1975 419.5,-1969 425.5,-1969 425.5,-1969 556.5,-1969 556.5,-1969 562.5,-1969 568.5,-1975 568.5,-1981 568.5,-1981 568.5,-1995 568.5,-1995 568.5,-2001 562.5,-2007 556.5,-2007"/>
<text text-anchor="middle" x="491" y="-1991.8" font-family="Segoe UI" font-size="14.00" fill="#e2e8f0">SymbolStorage</text>
<text text-anchor="middle" x="491" y="-1976.8" font-family="Segoe UI" font-size="14.00" fill="#e2e8f0">SymbolStoragePage</text>
</g>
<!-- navigation&#45;&gt;hidden_SymbolStorage -->
<g id="edge31" class="edge">
<title>navigation&#45;&gt;hidden_SymbolStorage</title>
<path fill="none" stroke="#fb923c" stroke-width="1.3" stroke-dasharray="5,2" d="M126.86,-1156.21C135.31,-1269.5 184.51,-1849.13 314,-1957 339.16,-1977.96 373.5,-1986.91 405.16,-1990.18"/>
<polygon fill="#fb923c" stroke="#fb923c" stroke-width="1.3" points="404.93,-1992.97 413.15,-1990.9 405.43,-1987.4 404.93,-1992.97"/>
</g>
<!-- hidden_IndexSubscription -->
<g id="node33" class="node">
<title>hidden_IndexSubscription</title>
<path fill="#431407" stroke="#fb923c" d="M567,-1944C567,-1944 415,-1944 415,-1944 409,-1944 403,-1938 403,-1932 403,-1932 403,-1918 403,-1918 403,-1912 409,-1906 415,-1906 415,-1906 567,-1906 567,-1906 573,-1906 579,-1912 579,-1918 579,-1918 579,-1932 579,-1932 579,-1938 573,-1944 567,-1944"/>
<text text-anchor="middle" x="491" y="-1928.8" font-family="Segoe UI" font-size="14.00" fill="#e2e8f0">IndexSubscription</text>
<text text-anchor="middle" x="491" y="-1913.8" font-family="Segoe UI" font-size="14.00" fill="#e2e8f0">IndexSubscriptionPage</text>
</g>
<!-- navigation&#45;&gt;hidden_IndexSubscription -->
<g id="edge32" class="edge">
<title>navigation&#45;&gt;hidden_IndexSubscription</title>
<path fill="none" stroke="#fb923c" stroke-width="1.3" stroke-dasharray="5,2" d="M127.27,-1156.1C137.66,-1263.86 194.46,-1794.42 314,-1894 336.44,-1912.7 366.18,-1921.83 394.82,-1925.91"/>
<polygon fill="#fb923c" stroke="#fb923c" stroke-width="1.3" points="394.57,-1928.71 402.86,-1926.94 395.27,-1923.15 394.57,-1928.71"/>
</g>
<!-- hidden_Options -->
<g id="node34" class="node">
<title>hidden_Options</title>
<path fill="#431407" stroke="#fb923c" d="M531,-1881C531,-1881 451,-1881 451,-1881 445,-1881 439,-1875 439,-1869 439,-1869 439,-1855 439,-1855 439,-1849 445,-1843 451,-1843 451,-1843 531,-1843 531,-1843 537,-1843 543,-1849 543,-1855 543,-1855 543,-1869 543,-1869 543,-1875 537,-1881 531,-1881"/>
<text text-anchor="middle" x="491" y="-1865.8" font-family="Segoe UI" font-size="14.00" fill="#e2e8f0">Options</text>
<text text-anchor="middle" x="491" y="-1850.8" font-family="Segoe UI" font-size="14.00" fill="#e2e8f0">OptionsPage</text>
</g>
<!-- navigation&#45;&gt;hidden_Options -->
<g id="edge33" class="edge">
<title>navigation&#45;&gt;hidden_Options</title>
<path fill="none" stroke="#fb923c" stroke-width="1.3" stroke-dasharray="5,2" d="M127.76,-1156.15C140.24,-1258.53 204.21,-1739.93 314,-1831 346.19,-1857.7 393.28,-1864.88 430.66,-1865.69"/>
<polygon fill="#fb923c" stroke="#fb923c" stroke-width="1.3" points="430.93,-1868.49 438.96,-1865.77 430.98,-1862.89 430.93,-1868.49"/>
</g>
<!-- hidden_Schedules -->
<g id="node35" class="node">
<title>hidden_Schedules</title>
<path fill="#431407" stroke="#fb923c" d="M566,-1818C566,-1818 416,-1818 416,-1818 410,-1818 404,-1812 404,-1806 404,-1806 404,-1792 404,-1792 404,-1786 410,-1780 416,-1780 416,-1780 566,-1780 566,-1780 572,-1780 578,-1786 578,-1792 578,-1792 578,-1806 578,-1806 578,-1812 572,-1818 566,-1818"/>
<text text-anchor="middle" x="491" y="-1802.8" font-family="Segoe UI" font-size="14.00" fill="#e2e8f0">Schedules</text>
<text text-anchor="middle" x="491" y="-1787.8" font-family="Segoe UI" font-size="14.00" fill="#e2e8f0">ScheduleManagerPage</text>
</g>
<!-- navigation&#45;&gt;hidden_Schedules -->
<g id="edge34" class="edge">
<title>navigation&#45;&gt;hidden_Schedules</title>
<path fill="none" stroke="#fb923c" stroke-width="1.3" stroke-dasharray="5,2" d="M128.26,-1156.01C142.7,-1252.51 212.68,-1686.7 314,-1768 336.89,-1786.37 366.9,-1795.4 395.64,-1799.48"/>
<polygon fill="#fb923c" stroke="#fb923c" stroke-width="1.3" points="395.42,-1802.27 403.71,-1800.5 396.12,-1796.71 395.42,-1802.27"/>
</g>
<!-- hidden_RunDetail -->
<g id="node36" class="node">
<title>hidden_RunDetail</title>
<path fill="#431407" stroke="#fb923c" d="M537,-1755C537,-1755 445,-1755 445,-1755 439,-1755 433,-1749 433,-1743 433,-1743 433,-1729 433,-1729 433,-1723 439,-1717 445,-1717 445,-1717 537,-1717 537,-1717 543,-1717 549,-1723 549,-1729 549,-1729 549,-1743 549,-1743 549,-1749 543,-1755 537,-1755"/>
<text text-anchor="middle" x="491" y="-1739.8" font-family="Segoe UI" font-size="14.00" fill="#e2e8f0">RunDetail</text>
<text text-anchor="middle" x="491" y="-1724.8" font-family="Segoe UI" font-size="14.00" fill="#e2e8f0">RunDetailPage</text>
</g>
<!-- navigation&#45;&gt;hidden_RunDetail -->
<g id="edge35" class="edge">
<title>navigation&#45;&gt;hidden_RunDetail</title>
<path fill="none" stroke="#fb923c" stroke-width="1.3" stroke-dasharray="5,2" d="M125.08,-1156.2C124.42,-1238.07 133.69,-1560.32 314,-1705 344.82,-1729.73 388.54,-1737.53 424.69,-1739.12"/>
<polygon fill="#fb923c" stroke="#fb923c" stroke-width="1.3" points="424.67,-1741.92 432.76,-1739.38 424.85,-1736.32 424.67,-1741.92"/>
</g>
<!-- hidden_RunPortfolio -->
<g id="node37" class="node">
<title>hidden_RunPortfolio</title>
<path fill="#431407" stroke="#fb923c" d="M546,-1692C546,-1692 436,-1692 436,-1692 430,-1692 424,-1686 424,-1680 424,-1680 424,-1666 424,-1666 424,-1660 430,-1654 436,-1654 436,-1654 546,-1654 546,-1654 552,-1654 558,-1660 558,-1666 558,-1666 558,-1680 558,-1680 558,-1686 552,-1692 546,-1692"/>
<text text-anchor="middle" x="491" y="-1676.8" font-family="Segoe UI" font-size="14.00" fill="#e2e8f0">RunPortfolio</text>
<text text-anchor="middle" x="491" y="-1661.8" font-family="Segoe UI" font-size="14.00" fill="#e2e8f0">RunPortfolioPage</text>
</g>
<!-- navigation&#45;&gt;hidden_RunPortfolio -->
<g id="edge36" class="edge">
<title>navigation&#45;&gt;hidden_RunPortfolio</title>
<path fill="none" stroke="#fb923c" stroke-width="1.3" stroke-dasharray="5,2" d="M126.1,-1156.25C129.57,-1232.17 153.24,-1513.01 314,-1642 342.34,-1664.74 381.58,-1673.16 415.82,-1675.61"/>
<polygon fill="#fb923c" stroke="#fb923c" stroke-width="1.3" points="415.8,-1678.41 423.95,-1676.08 416.13,-1672.82 415.8,-1678.41"/>
</g>
<!-- hidden_RunLedger -->
<g id="node38" class="node">
<title>hidden_RunLedger</title>
<path fill="#431407" stroke="#fb923c" d="M541.5,-1629C541.5,-1629 440.5,-1629 440.5,-1629 434.5,-1629 428.5,-1623 428.5,-1617 428.5,-1617 428.5,-1603 428.5,-1603 428.5,-1597 434.5,-1591 440.5,-1591 440.5,-1591 541.5,-1591 541.5,-1591 547.5,-1591 553.5,-1597 553.5,-1603 553.5,-1603 553.5,-1617 553.5,-1617 553.5,-1623 547.5,-1629 541.5,-1629"/>
<text text-anchor="middle" x="491" y="-1613.8" font-family="Segoe UI" font-size="14.00" fill="#e2e8f0">RunLedger</text>
<text text-anchor="middle" x="491" y="-1598.8" font-family="Segoe UI" font-size="14.00" fill="#e2e8f0">RunLedgerPage</text>
</g>
<!-- navigation&#45;&gt;hidden_RunLedger -->
<g id="edge37" class="edge">
<title>navigation&#45;&gt;hidden_RunLedger</title>
<path fill="none" stroke="#fb923c" stroke-width="1.3" stroke-dasharray="5,2" d="M127.37,-1156.33C135.19,-1226.01 171.89,-1466.18 314,-1579 343.58,-1602.49 384.83,-1610.64 419.96,-1612.74"/>
<polygon fill="#fb923c" stroke="#fb923c" stroke-width="1.3" points="420.16,-1615.56 428.28,-1613.14 420.42,-1609.96 420.16,-1615.56"/>
</g>
<!-- hidden_CollectionSessions -->
<g id="node39" class="node">
<title>hidden_CollectionSessions</title>
<path fill="#431407" stroke="#fb923c" d="M564,-1566C564,-1566 418,-1566 418,-1566 412,-1566 406,-1560 406,-1554 406,-1554 406,-1540 406,-1540 406,-1534 412,-1528 418,-1528 418,-1528 564,-1528 564,-1528 570,-1528 576,-1534 576,-1540 576,-1540 576,-1554 576,-1554 576,-1560 570,-1566 564,-1566"/>
<text text-anchor="middle" x="491" y="-1550.8" font-family="Segoe UI" font-size="14.00" fill="#e2e8f0">CollectionSessions</text>
<text text-anchor="middle" x="491" y="-1535.8" font-family="Segoe UI" font-size="14.00" fill="#e2e8f0">CollectionSessionPage</text>
</g>
<!-- navigation&#45;&gt;hidden_CollectionSessions -->
<g id="edge38" class="edge">
<title>navigation&#45;&gt;hidden_CollectionSessions</title>
<path fill="none" stroke="#fb923c" stroke-width="1.3" stroke-dasharray="5,2" d="M128.8,-1156.21C140.72,-1219.32 187.74,-1421.64 314,-1516 337.85,-1533.83 368.56,-1542.64 397.63,-1546.7"/>
<polygon fill="#fb923c" stroke="#fb923c" stroke-width="1.3" points="397.49,-1549.51 405.77,-1547.72 398.18,-1543.95 397.49,-1549.51"/>
</g>
<!-- hidden_ArchiveHealth -->
<g id="node40" class="node">
<title>hidden_ArchiveHealth</title>
<path fill="#431407" stroke="#fb923c" d="M552,-1503C552,-1503 430,-1503 430,-1503 424,-1503 418,-1497 418,-1491 418,-1491 418,-1477 418,-1477 418,-1471 424,-1465 430,-1465 430,-1465 552,-1465 552,-1465 558,-1465 564,-1471 564,-1477 564,-1477 564,-1491 564,-1491 564,-1497 558,-1503 552,-1503"/>
<text text-anchor="middle" x="491" y="-1487.8" font-family="Segoe UI" font-size="14.00" fill="#e2e8f0">ArchiveHealth</text>
<text text-anchor="middle" x="491" y="-1472.8" font-family="Segoe UI" font-size="14.00" fill="#e2e8f0">ArchiveHealthPage</text>
</g>
<!-- navigation&#45;&gt;hidden_ArchiveHealth -->
<g id="edge39" class="edge">
<title>navigation&#45;&gt;hidden_ArchiveHealth</title>
<path fill="none" stroke="#fb923c" stroke-width="1.3" stroke-dasharray="5,2" d="M130.76,-1156.16C147.2,-1212.21 203.3,-1376.67 314,-1453 341.79,-1472.16 377.74,-1480.63 409.9,-1484.04"/>
<polygon fill="#fb923c" stroke="#fb923c" stroke-width="1.3" points="409.76,-1486.84 417.98,-1484.8 410.28,-1481.27 409.76,-1486.84"/>
</g>
<!-- hidden_ServiceManager -->
<g id="node41" class="node">
<title>hidden_ServiceManager</title>
<path fill="#431407" stroke="#fb923c" d="M559.5,-1440C559.5,-1440 422.5,-1440 422.5,-1440 416.5,-1440 410.5,-1434 410.5,-1428 410.5,-1428 410.5,-1414 410.5,-1414 410.5,-1408 416.5,-1402 422.5,-1402 422.5,-1402 559.5,-1402 559.5,-1402 565.5,-1402 571.5,-1408 571.5,-1414 571.5,-1414 571.5,-1428 571.5,-1428 571.5,-1434 565.5,-1440 559.5,-1440"/>
<text text-anchor="middle" x="491" y="-1424.8" font-family="Segoe UI" font-size="14.00" fill="#e2e8f0">ServiceManager</text>
<text text-anchor="middle" x="491" y="-1409.8" font-family="Segoe UI" font-size="14.00" fill="#e2e8f0">ServiceManagerPage</text>
</g>
<!-- navigation&#45;&gt;hidden_ServiceManager -->
<g id="edge40" class="edge">
<title>navigation&#45;&gt;hidden_ServiceManager</title>
<path fill="none" stroke="#fb923c" stroke-width="1.3" stroke-dasharray="5,2" d="M133.58,-1156.11C155.04,-1204.29 218.41,-1331.08 314,-1390 340.07,-1406.07 372.21,-1414.36 401.86,-1418.47"/>
<polygon fill="#fb923c" stroke="#fb923c" stroke-width="1.3" points="401.85,-1421.3 410.14,-1419.53 402.56,-1415.74 401.85,-1421.3"/>
</g>
<!-- hidden_DataSampling -->
<g id="node42" class="node">
<title>hidden_DataSampling</title>
<path fill="#431407" stroke="#fb923c" d="M552.5,-1377C552.5,-1377 429.5,-1377 429.5,-1377 423.5,-1377 417.5,-1371 417.5,-1365 417.5,-1365 417.5,-1351 417.5,-1351 417.5,-1345 423.5,-1339 429.5,-1339 429.5,-1339 552.5,-1339 552.5,-1339 558.5,-1339 564.5,-1345 564.5,-1351 564.5,-1351 564.5,-1365 564.5,-1365 564.5,-1371 558.5,-1377 552.5,-1377"/>
<text text-anchor="middle" x="491" y="-1361.8" font-family="Segoe UI" font-size="14.00" fill="#e2e8f0">DataSampling</text>
<text text-anchor="middle" x="491" y="-1346.8" font-family="Segoe UI" font-size="14.00" fill="#e2e8f0">DataSamplingPage</text>
</g>
<!-- navigation&#45;&gt;hidden_DataSampling -->
<g id="edge41" class="edge">
<title>navigation&#45;&gt;hidden_DataSampling</title>
<path fill="none" stroke="#fb923c" stroke-width="1.3" stroke-dasharray="5,2" d="M138.2,-1156.16C165.33,-1195.39 233.09,-1284.69 314,-1327 343.02,-1342.18 378.04,-1350.11 409.17,-1354.19"/>
<polygon fill="#fb923c" stroke="#fb923c" stroke-width="1.3" points="409.13,-1357.01 417.41,-1355.19 409.81,-1351.45 409.13,-1357.01"/>
</g>
<!-- hidden_TimeSeriesAlignment -->
<g id="node43" class="node">
<title>hidden_TimeSeriesAlignment</title>
<path fill="#431407" stroke="#fb923c" d="M577.5,-1314C577.5,-1314 404.5,-1314 404.5,-1314 398.5,-1314 392.5,-1308 392.5,-1302 392.5,-1302 392.5,-1288 392.5,-1288 392.5,-1282 398.5,-1276 404.5,-1276 404.5,-1276 577.5,-1276 577.5,-1276 583.5,-1276 589.5,-1282 589.5,-1288 589.5,-1288 589.5,-1302 589.5,-1302 589.5,-1308 583.5,-1314 577.5,-1314"/>
<text text-anchor="middle" x="491" y="-1298.8" font-family="Segoe UI" font-size="14.00" fill="#e2e8f0">TimeSeriesAlignment</text>
<text text-anchor="middle" x="491" y="-1283.8" font-family="Segoe UI" font-size="14.00" fill="#e2e8f0">TimeSeriesAlignmentPage</text>
</g>
<!-- navigation&#45;&gt;hidden_TimeSeriesAlignment -->
<g id="edge42" class="edge">
<title>navigation&#45;&gt;hidden_TimeSeriesAlignment</title>
<path fill="none" stroke="#fb923c" stroke-width="1.3" stroke-dasharray="5,2" d="M147.23,-1156.2C180.59,-1184.56 247.59,-1237.19 314,-1264 335.97,-1272.87 360.5,-1279.2 384.1,-1283.73"/>
<polygon fill="#fb923c" stroke="#fb923c" stroke-width="1.3" points="383.68,-1286.5 392.06,-1285.2 384.7,-1280.99 383.68,-1286.5"/>
</g>
<!-- hidden_ExportPresets -->
<g id="node44" class="node">
<title>hidden_ExportPresets</title>
<path fill="#431407" stroke="#fb923c" d="M552,-1251C552,-1251 430,-1251 430,-1251 424,-1251 418,-1245 418,-1239 418,-1239 418,-1225 418,-1225 418,-1219 424,-1213 430,-1213 430,-1213 552,-1213 552,-1213 558,-1213 564,-1219 564,-1225 564,-1225 564,-1239 564,-1239 564,-1245 558,-1251 552,-1251"/>
<text text-anchor="middle" x="491" y="-1235.8" font-family="Segoe UI" font-size="14.00" fill="#e2e8f0">ExportPresets</text>
<text text-anchor="middle" x="491" y="-1220.8" font-family="Segoe UI" font-size="14.00" fill="#e2e8f0">ExportPresetsPage</text>
</g>
<!-- navigation&#45;&gt;hidden_ExportPresets -->
<g id="edge43" class="edge">
<title>navigation&#45;&gt;hidden_ExportPresets</title>
<path fill="none" stroke="#fb923c" stroke-width="1.3" stroke-dasharray="5,2" d="M174.88,-1156.08C212.55,-1170.07 265.96,-1188.69 314,-1201 345.04,-1208.95 379.68,-1215.53 409.96,-1220.56"/>
<polygon fill="#fb923c" stroke="#fb923c" stroke-width="1.3" points="409.62,-1223.34 417.97,-1221.86 410.52,-1217.81 409.62,-1223.34"/>
</g>
<!-- hidden_AnalysisExport -->
<g id="node45" class="node">
<title>hidden_AnalysisExport</title>
<path fill="#431407" stroke="#fb923c" d="M555.5,-1188C555.5,-1188 426.5,-1188 426.5,-1188 420.5,-1188 414.5,-1182 414.5,-1176 414.5,-1176 414.5,-1162 414.5,-1162 414.5,-1156 420.5,-1150 426.5,-1150 426.5,-1150 555.5,-1150 555.5,-1150 561.5,-1150 567.5,-1156 567.5,-1162 567.5,-1162 567.5,-1176 567.5,-1176 567.5,-1182 561.5,-1188 555.5,-1188"/>
<text text-anchor="middle" x="491" y="-1172.8" font-family="Segoe UI" font-size="14.00" fill="#e2e8f0">AnalysisExport</text>
<text text-anchor="middle" x="491" y="-1157.8" font-family="Segoe UI" font-size="14.00" fill="#e2e8f0">AnalysisExportPage</text>
</g>
<!-- navigation&#45;&gt;hidden_AnalysisExport -->
<g id="edge44" class="edge">
<title>navigation&#45;&gt;hidden_AnalysisExport</title>
<path fill="none" stroke="#fb923c" stroke-width="1.3" stroke-dasharray="5,2" d="M195.78,-1143.17C255.89,-1148.45 342.54,-1156.05 406.24,-1161.65"/>
<polygon fill="#fb923c" stroke="#fb923c" stroke-width="1.3" points="406.07,-1164.44 414.28,-1162.35 406.56,-1158.86 406.07,-1164.44"/>
</g>
<!-- hidden_AnalysisExportWizard -->
<g id="node46" class="node">
<title>hidden_AnalysisExportWizard</title>
<path fill="#431407" stroke="#fb923c" d="M579,-1125C579,-1125 403,-1125 403,-1125 397,-1125 391,-1119 391,-1113 391,-1113 391,-1099 391,-1099 391,-1093 397,-1087 403,-1087 403,-1087 579,-1087 579,-1087 585,-1087 591,-1093 591,-1099 591,-1099 591,-1113 591,-1113 591,-1119 585,-1125 579,-1125"/>
<text text-anchor="middle" x="491" y="-1109.8" font-family="Segoe UI" font-size="14.00" fill="#e2e8f0">AnalysisExportWizard</text>
<text text-anchor="middle" x="491" y="-1094.8" font-family="Segoe UI" font-size="14.00" fill="#e2e8f0">AnalysisExportWizardPage</text>
</g>
<!-- navigation&#45;&gt;hidden_AnalysisExportWizard -->
<g id="edge45" class="edge">
<title>navigation&#45;&gt;hidden_AnalysisExportWizard</title>
<path fill="none" stroke="#fb923c" stroke-width="1.3" stroke-dasharray="5,2" d="M195.78,-1131.02C248.74,-1126.52 322.3,-1120.26 382.61,-1115.13"/>
<polygon fill="#fb923c" stroke="#fb923c" stroke-width="1.3" points="382.92,-1117.92 390.65,-1114.45 382.45,-1112.34 382.92,-1117.92"/>
</g>
<!-- hidden_EventReplay -->
<g id="node47" class="node">
<title>hidden_EventReplay</title>
<path fill="#431407" stroke="#fb923c" d="M547,-1062C547,-1062 435,-1062 435,-1062 429,-1062 423,-1056 423,-1050 423,-1050 423,-1036 423,-1036 423,-1030 429,-1024 435,-1024 435,-1024 547,-1024 547,-1024 553,-1024 559,-1030 559,-1036 559,-1036 559,-1050 559,-1050 559,-1056 553,-1062 547,-1062"/>
<text text-anchor="middle" x="491" y="-1046.8" font-family="Segoe UI" font-size="14.00" fill="#e2e8f0">EventReplay</text>
<text text-anchor="middle" x="491" y="-1031.8" font-family="Segoe UI" font-size="14.00" fill="#e2e8f0">EventReplayPage</text>
</g>
<!-- navigation&#45;&gt;hidden_EventReplay -->
<g id="edge46" class="edge">
<title>navigation&#45;&gt;hidden_EventReplay</title>
<path fill="none" stroke="#fb923c" stroke-width="1.3" stroke-dasharray="5,2" d="M195.72,-1121.13C213.31,-1116.52 232,-1111.07 249,-1105 278.96,-1094.3 283.66,-1084.59 314,-1075 346.21,-1064.82 382.83,-1057.51 414.29,-1052.48"/>
<polygon fill="#fb923c" stroke="#fb923c" stroke-width="1.3" points="415.12,-1055.18 422.59,-1051.18 414.25,-1049.65 415.12,-1055.18"/>
</g>
<!-- hidden_AdvancedAnalytics -->
<g id="node48" class="node">
<title>hidden_AdvancedAnalytics</title>
<path fill="#431407" stroke="#fb923c" d="M569.5,-999C569.5,-999 412.5,-999 412.5,-999 406.5,-999 400.5,-993 400.5,-987 400.5,-987 400.5,-973 400.5,-973 400.5,-967 406.5,-961 412.5,-961 412.5,-961 569.5,-961 569.5,-961 575.5,-961 581.5,-967 581.5,-973 581.5,-973 581.5,-987 581.5,-987 581.5,-993 575.5,-999 569.5,-999"/>
<text text-anchor="middle" x="491" y="-983.8" font-family="Segoe UI" font-size="14.00" fill="#e2e8f0">AdvancedAnalytics</text>
<text text-anchor="middle" x="491" y="-968.8" font-family="Segoe UI" font-size="14.00" fill="#e2e8f0">AdvancedAnalyticsPage</text>
</g>
<!-- navigation&#45;&gt;hidden_AdvancedAnalytics -->
<g id="edge47" class="edge">
<title>navigation&#45;&gt;hidden_AdvancedAnalytics</title>
<path fill="none" stroke="#fb923c" stroke-width="1.3" stroke-dasharray="5,2" d="M195.53,-1127.87C214.06,-1123.13 233.27,-1115.93 249,-1105 290.42,-1076.23 271.55,-1039.23 314,-1012 337.2,-997.12 365.46,-988.71 392.49,-984.08"/>
<polygon fill="#fb923c" stroke="#fb923c" stroke-width="1.3" points="392.99,-986.83 400.45,-982.81 392.11,-981.3 392.99,-986.83"/>
</g>
<!-- hidden_DataCalendar -->
<g id="node49" class="node">
<title>hidden_DataCalendar</title>
<path fill="#431407" stroke="#fb923c" d="M551,-936C551,-936 431,-936 431,-936 425,-936 419,-930 419,-924 419,-924 419,-910 419,-910 419,-904 425,-898 431,-898 431,-898 551,-898 551,-898 557,-898 563,-904 563,-910 563,-910 563,-924 563,-924 563,-930 557,-936 551,-936"/>
<text text-anchor="middle" x="491" y="-920.8" font-family="Segoe UI" font-size="14.00" fill="#e2e8f0">DataCalendar</text>
<text text-anchor="middle" x="491" y="-905.8" font-family="Segoe UI" font-size="14.00" fill="#e2e8f0">DataCalendarPage</text>
</g>
<!-- navigation&#45;&gt;hidden_DataCalendar -->
<g id="edge48" class="edge">
<title>navigation&#45;&gt;hidden_DataCalendar</title>
<path fill="none" stroke="#fb923c" stroke-width="1.3" stroke-dasharray="5,2" d="M195.59,-1130.41C214.65,-1125.72 234.11,-1117.92 249,-1105 305.73,-1055.77 255.5,-996.11 314,-949 340.87,-927.36 377.56,-918.48 410.49,-915.35"/>
<polygon fill="#fb923c" stroke="#fb923c" stroke-width="1.3" points="411.03,-918.12 418.77,-914.68 410.57,-912.54 411.03,-918.12"/>
</g>
<!-- hidden_StorageOptimization -->
<g id="node50" class="node">
<title>hidden_StorageOptimization</title>
<path fill="#431407" stroke="#fb923c" d="M575,-873C575,-873 407,-873 407,-873 401,-873 395,-867 395,-861 395,-861 395,-847 395,-847 395,-841 401,-835 407,-835 407,-835 575,-835 575,-835 581,-835 587,-841 587,-847 587,-847 587,-861 587,-861 587,-867 581,-873 575,-873"/>
<text text-anchor="middle" x="491" y="-857.8" font-family="Segoe UI" font-size="14.00" fill="#e2e8f0">StorageOptimization</text>
<text text-anchor="middle" x="491" y="-842.8" font-family="Segoe UI" font-size="14.00" fill="#e2e8f0">StorageOptimizationPage</text>
</g>
<!-- navigation&#45;&gt;hidden_StorageOptimization -->
<g id="edge49" class="edge">
<title>navigation&#45;&gt;hidden_StorageOptimization</title>
<path fill="none" stroke="#fb923c" stroke-width="1.3" stroke-dasharray="5,2" d="M195.53,-1131.63C214.92,-1127 234.58,-1118.92 249,-1105 322.04,-1034.47 238.41,-953.79 314,-886 333.91,-868.15 360.33,-858.68 386.63,-853.99"/>
<polygon fill="#fb923c" stroke="#fb923c" stroke-width="1.3" points="387.33,-856.71 394.79,-852.68 386.44,-851.18 387.33,-856.71"/>
</g>
<!-- hidden_RetentionAssurance -->
<g id="node51" class="node">
<title>hidden_RetentionAssurance</title>
<path fill="#431407" stroke="#fb923c" d="M573,-810C573,-810 409,-810 409,-810 403,-810 397,-804 397,-798 397,-798 397,-784 397,-784 397,-778 403,-772 409,-772 409,-772 573,-772 573,-772 579,-772 585,-778 585,-784 585,-784 585,-798 585,-798 585,-804 579,-810 573,-810"/>
<text text-anchor="middle" x="491" y="-794.8" font-family="Segoe UI" font-size="14.00" fill="#e2e8f0">RetentionAssurance</text>
<text text-anchor="middle" x="491" y="-779.8" font-family="Segoe UI" font-size="14.00" fill="#e2e8f0">RetentionAssurancePage</text>
</g>
<!-- navigation&#45;&gt;hidden_RetentionAssurance -->
<g id="edge50" class="edge">
<title>navigation&#45;&gt;hidden_RetentionAssurance</title>
<path fill="none" stroke="#fb923c" stroke-width="1.3" stroke-dasharray="5,2" d="M195.73,-1132.61C215.36,-1128.04 235.1,-1119.75 249,-1105 337.21,-1011.4 218.4,-909.04 314,-823 334.38,-804.66 361.63,-795.16 388.6,-790.59"/>
<polygon fill="#fb923c" stroke="#fb923c" stroke-width="1.3" points="389.08,-793.35 396.57,-789.38 388.24,-787.81 389.08,-793.35"/>
</g>
<!-- hidden_MessagingHub -->
<g id="node52" class="node">
<title>hidden_MessagingHub</title>
<path fill="#431407" stroke="#fb923c" d="M555,-747C555,-747 427,-747 427,-747 421,-747 415,-741 415,-735 415,-735 415,-721 415,-721 415,-715 421,-709 427,-709 427,-709 555,-709 555,-709 561,-709 567,-715 567,-721 567,-721 567,-735 567,-735 567,-741 561,-747 555,-747"/>
<text text-anchor="middle" x="491" y="-731.8" font-family="Segoe UI" font-size="14.00" fill="#e2e8f0">MessagingHub</text>
<text text-anchor="middle" x="491" y="-716.8" font-family="Segoe UI" font-size="14.00" fill="#e2e8f0">MessagingHubPage</text>
</g>
<!-- navigation&#45;&gt;hidden_MessagingHub -->
<g id="edge51" class="edge">
<title>navigation&#45;&gt;hidden_MessagingHub</title>
<path fill="none" stroke="#fb923c" stroke-width="1.3" stroke-dasharray="5,2" d="M195.56,-1133.2C215.43,-1128.68 235.34,-1120.27 249,-1105 301.02,-1046.86 255.64,-811.78 314,-760 339.06,-737.77 374.24,-728.59 406.57,-725.41"/>
<polygon fill="#fb923c" stroke="#fb923c" stroke-width="1.3" points="406.99,-728.19 414.72,-724.73 406.52,-722.61 406.99,-728.19"/>
</g>
<!-- hidden_ResearchShell -->
<g id="node53" class="node">
<title>hidden_ResearchShell</title>
<path fill="#431407" stroke="#fb923c" d="M590,-684C590,-684 392,-684 392,-684 386,-684 380,-678 380,-672 380,-672 380,-658 380,-658 380,-652 386,-646 392,-646 392,-646 590,-646 590,-646 596,-646 602,-652 602,-658 602,-658 602,-672 602,-672 602,-678 596,-684 590,-684"/>
<text text-anchor="middle" x="491" y="-668.8" font-family="Segoe UI" font-size="14.00" fill="#e2e8f0">ResearchShell</text>
<text text-anchor="middle" x="491" y="-653.8" font-family="Segoe UI" font-size="14.00" fill="#e2e8f0">ResearchWorkspaceShellPage</text>
</g>
<!-- navigation&#45;&gt;hidden_ResearchShell -->
<g id="edge52" class="edge">
<title>navigation&#45;&gt;hidden_ResearchShell</title>
<path fill="none" stroke="#fb923c" stroke-width="1.3" stroke-dasharray="5,2" d="M195.7,-1133.32C215.57,-1128.81 235.45,-1120.37 249,-1105 309.72,-1036.13 247.7,-760.51 314,-697 329.88,-681.79 350.44,-672.54 371.87,-667.13"/>
<polygon fill="#fb923c" stroke="#fb923c" stroke-width="1.3" points="372.64,-669.83 379.8,-665.3 371.38,-664.37 372.64,-669.83"/>
</g>
<!-- hidden_TradingShell -->
<g id="node54" class="node">
<title>hidden_TradingShell</title>
<path fill="#431407" stroke="#fb923c" d="M584.5,-621C584.5,-621 397.5,-621 397.5,-621 391.5,-621 385.5,-615 385.5,-609 385.5,-609 385.5,-595 385.5,-595 385.5,-589 391.5,-583 397.5,-583 397.5,-583 584.5,-583 584.5,-583 590.5,-583 596.5,-589 596.5,-595 596.5,-595 596.5,-609 596.5,-609 596.5,-615 590.5,-621 584.5,-621"/>
<text text-anchor="middle" x="491" y="-605.8" font-family="Segoe UI" font-size="14.00" fill="#e2e8f0">TradingShell</text>
<text text-anchor="middle" x="491" y="-590.8" font-family="Segoe UI" font-size="14.00" fill="#e2e8f0">TradingWorkspaceShellPage</text>
</g>
<!-- navigation&#45;&gt;hidden_TradingShell -->
<g id="edge53" class="edge">
<title>navigation&#45;&gt;hidden_TradingShell</title>
<path fill="none" stroke="#fb923c" stroke-width="1.3" stroke-dasharray="5,2" d="M195.6,-1133.58C215.58,-1129.1 235.56,-1120.61 249,-1105 317.96,-1024.95 237.76,-707.15 314,-634 331.21,-617.48 353.94,-608 377.33,-602.81"/>
<polygon fill="#fb923c" stroke="#fb923c" stroke-width="1.3" points="377.99,-605.53 385.28,-601.21 376.88,-600.04 377.99,-605.53"/>
</g>
<!-- hidden_Workspaces -->
<g id="node55" class="node">
<title>hidden_Workspaces</title>
<path fill="#431407" stroke="#fb923c" d="M541.5,-558C541.5,-558 440.5,-558 440.5,-558 434.5,-558 428.5,-552 428.5,-546 428.5,-546 428.5,-532 428.5,-532 428.5,-526 434.5,-520 440.5,-520 440.5,-520 541.5,-520 541.5,-520 547.5,-520 553.5,-526 553.5,-532 553.5,-532 553.5,-546 553.5,-546 553.5,-552 547.5,-558 541.5,-558"/>
<text text-anchor="middle" x="491" y="-542.8" font-family="Segoe UI" font-size="14.00" fill="#e2e8f0">Workspaces</text>
<text text-anchor="middle" x="491" y="-527.8" font-family="Segoe UI" font-size="14.00" fill="#e2e8f0">WorkspacePage</text>
</g>
<!-- navigation&#45;&gt;hidden_Workspaces -->
<g id="edge54" class="edge">
<title>navigation&#45;&gt;hidden_Workspaces</title>
<path fill="none" stroke="#fb923c" stroke-width="1.3" stroke-dasharray="5,2" d="M195.77,-1133.73C215.76,-1129.25 235.7,-1120.73 249,-1105 326.2,-1013.73 227.16,-653.16 314,-571 342,-544.51 384.22,-536.18 420.29,-534.64"/>
<polygon fill="#fb923c" stroke="#fb923c" stroke-width="1.3" points="420.44,-537.43 428.36,-534.4 420.28,-531.83 420.44,-537.43"/>
</g>
<!-- hidden_NotificationCenter -->
<g id="node56" class="node">
<title>hidden_NotificationCenter</title>
<path fill="#431407" stroke="#fb923c" d="M566.5,-495C566.5,-495 415.5,-495 415.5,-495 409.5,-495 403.5,-489 403.5,-483 403.5,-483 403.5,-469 403.5,-469 403.5,-463 409.5,-457 415.5,-457 415.5,-457 566.5,-457 566.5,-457 572.5,-457 578.5,-463 578.5,-469 578.5,-469 578.5,-483 578.5,-483 578.5,-489 572.5,-495 566.5,-495"/>
<text text-anchor="middle" x="491" y="-479.8" font-family="Segoe UI" font-size="14.00" fill="#e2e8f0">NotificationCenter</text>
<text text-anchor="middle" x="491" y="-464.8" font-family="Segoe UI" font-size="14.00" fill="#e2e8f0">NotificationCenterPage</text>
</g>
<!-- navigation&#45;&gt;hidden_NotificationCenter -->
<g id="edge55" class="edge">
<title>navigation&#45;&gt;hidden_NotificationCenter</title>
<path fill="none" stroke="#fb923c" stroke-width="1.3" stroke-dasharray="5,2" d="M195.56,-1133.9C215.67,-1129.45 235.72,-1120.89 249,-1105 334.55,-1002.58 216.52,-599.14 314,-508 335.77,-487.64 365.96,-478.05 395.19,-474.02"/>
<polygon fill="#fb923c" stroke="#fb923c" stroke-width="1.3" points="395.79,-476.76 403.4,-473.02 395.12,-471.2 395.79,-476.76"/>
</g>
<!-- hidden_Help -->
<g id="node57" class="node">
<title>hidden_Help</title>
<path fill="#431407" stroke="#fb923c" d="M519.5,-432C519.5,-432 462.5,-432 462.5,-432 456.5,-432 450.5,-426 450.5,-420 450.5,-420 450.5,-406 450.5,-406 450.5,-400 456.5,-394 462.5,-394 462.5,-394 519.5,-394 519.5,-394 525.5,-394 531.5,-400 531.5,-406 531.5,-406 531.5,-420 531.5,-420 531.5,-426 525.5,-432 519.5,-432"/>
<text text-anchor="middle" x="491" y="-416.8" font-family="Segoe UI" font-size="14.00" fill="#e2e8f0">Help</text>
<text text-anchor="middle" x="491" y="-401.8" font-family="Segoe UI" font-size="14.00" fill="#e2e8f0">HelpPage</text>
</g>
<!-- navigation&#45;&gt;hidden_Help -->
<g id="edge56" class="edge">
<title>navigation&#45;&gt;hidden_Help</title>
<path fill="none" stroke="#fb923c" stroke-width="1.3" stroke-dasharray="5,2" d="M195.65,-1133.98C215.77,-1129.53 235.8,-1120.96 249,-1105 342.94,-991.44 205.46,-544.7 314,-445 348.38,-413.42 403.06,-407.89 442.35,-408.71"/>
<polygon fill="#fb923c" stroke="#fb923c" stroke-width="1.3" points="442.4,-411.51 450.49,-408.98 442.59,-405.92 442.4,-411.51"/>
</g>
<!-- hidden_Welcome -->
<g id="node58" class="node">
<title>hidden_Welcome</title>
<path fill="#431407" stroke="#fb923c" d="M535,-369C535,-369 447,-369 447,-369 441,-369 435,-363 435,-357 435,-357 435,-343 435,-343 435,-337 441,-331 447,-331 447,-331 535,-331 535,-331 541,-331 547,-337 547,-343 547,-343 547,-357 547,-357 547,-363 541,-369 535,-369"/>
<text text-anchor="middle" x="491" y="-353.8" font-family="Segoe UI" font-size="14.00" fill="#e2e8f0">Welcome</text>
<text text-anchor="middle" x="491" y="-338.8" font-family="Segoe UI" font-size="14.00" fill="#e2e8f0">WelcomePage</text>
</g>
<!-- navigation&#45;&gt;hidden_Welcome -->
<g id="edge57" class="edge">
<title>navigation&#45;&gt;hidden_Welcome</title>
<path fill="none" stroke="#fb923c" stroke-width="1.3" stroke-dasharray="5,2" d="M195.72,-1134.03C215.84,-1129.58 235.85,-1121 249,-1105 292.73,-1051.76 273.68,-553.96 285,-486 292.88,-438.67 278.54,-414.33 314,-382 344.08,-354.57 389.5,-346.84 426.67,-345.83"/>
<polygon fill="#fb923c" stroke="#fb923c" stroke-width="1.3" points="426.99,-348.62 434.95,-345.71 426.91,-343.02 426.99,-348.62"/>
</g>
<!-- hidden_KeyboardShortcuts -->
<g id="node59" class="node">
<title>hidden_KeyboardShortcuts</title>
<path fill="#431407" stroke="#fb923c" d="M569.5,-306C569.5,-306 412.5,-306 412.5,-306 406.5,-306 400.5,-300 400.5,-294 400.5,-294 400.5,-280 400.5,-280 400.5,-274 406.5,-268 412.5,-268 412.5,-268 569.5,-268 569.5,-268 575.5,-268 581.5,-274 581.5,-280 581.5,-280 581.5,-294 581.5,-294 581.5,-300 575.5,-306 569.5,-306"/>
<text text-anchor="middle" x="491" y="-290.8" font-family="Segoe UI" font-size="14.00" fill="#e2e8f0">KeyboardShortcuts</text>
<text text-anchor="middle" x="491" y="-275.8" font-family="Segoe UI" font-size="14.00" fill="#e2e8f0">KeyboardShortcutsPage</text>
</g>
<!-- navigation&#45;&gt;hidden_KeyboardShortcuts -->
<g id="edge58" class="edge">
<title>navigation&#45;&gt;hidden_KeyboardShortcuts</title>
<path fill="none" stroke="#fb923c" stroke-width="1.3" stroke-dasharray="5,2" d="M195.73,-1134.04C215.85,-1129.59 235.86,-1121.01 249,-1105 304.59,-1037.25 251.88,-380.81 314,-319 334.63,-298.48 363.73,-288.69 392.34,-284.53"/>
<polygon fill="#fb923c" stroke="#fb923c" stroke-width="1.3" points="392.81,-287.29 400.39,-283.5 392.1,-281.74 392.81,-287.29"/>
</g>
<!-- hidden_SetupWizard -->
<g id="node60" class="node">
<title>hidden_SetupWizard</title>
<path fill="#431407" stroke="#fb923c" d="M547.5,-243C547.5,-243 434.5,-243 434.5,-243 428.5,-243 422.5,-237 422.5,-231 422.5,-231 422.5,-217 422.5,-217 422.5,-211 428.5,-205 434.5,-205 434.5,-205 547.5,-205 547.5,-205 553.5,-205 559.5,-211 559.5,-217 559.5,-217 559.5,-231 559.5,-231 559.5,-237 553.5,-243 547.5,-243"/>
<text text-anchor="middle" x="491" y="-227.8" font-family="Segoe UI" font-size="14.00" fill="#e2e8f0">SetupWizard</text>
<text text-anchor="middle" x="491" y="-212.8" font-family="Segoe UI" font-size="14.00" fill="#e2e8f0">SetupWizardPage</text>
</g>
<!-- navigation&#45;&gt;hidden_SetupWizard -->
<g id="edge59" class="edge">
<title>navigation&#45;&gt;hidden_SetupWizard</title>
<path fill="none" stroke="#fb923c" stroke-width="1.3" stroke-dasharray="5,2" d="M195.75,-1134.06C215.87,-1129.61 235.88,-1121.02 249,-1105 308.94,-1031.8 248.21,-323.99 314,-256 339.49,-229.66 378.89,-220.8 413.96,-218.91"/>
<polygon fill="#fb923c" stroke="#fb923c" stroke-width="1.3" points="414.41,-221.69 422.3,-218.58 414.19,-216.1 414.41,-221.69"/>
</g>
<!-- hidden_AddProviderWizard -->
<g id="node61" class="node">
<title>hidden_AddProviderWizard</title>
<path fill="#431407" stroke="#fb923c" d="M569.5,-180C569.5,-180 412.5,-180 412.5,-180 406.5,-180 400.5,-174 400.5,-168 400.5,-168 400.5,-154 400.5,-154 400.5,-148 406.5,-142 412.5,-142 412.5,-142 569.5,-142 569.5,-142 575.5,-142 581.5,-148 581.5,-154 581.5,-154 581.5,-168 581.5,-168 581.5,-174 575.5,-180 569.5,-180"/>
<text text-anchor="middle" x="491" y="-164.8" font-family="Segoe UI" font-size="14.00" fill="#e2e8f0">AddProviderWizard</text>
<text text-anchor="middle" x="491" y="-149.8" font-family="Segoe UI" font-size="14.00" fill="#e2e8f0">AddProviderWizardPage</text>
</g>
<!-- navigation&#45;&gt;hidden_AddProviderWizard -->
<g id="edge60" class="edge">
<title>navigation&#45;&gt;hidden_AddProviderWizard</title>
<path fill="none" stroke="#fb923c" stroke-width="1.3" stroke-dasharray="5,2" d="M195.8,-1134.09C215.92,-1129.65 235.92,-1121.05 249,-1105 313.18,-1026.25 243.41,-266.06 314,-193 334.32,-171.97 363.49,-162.08 392.27,-157.98"/>
<polygon fill="#fb923c" stroke="#fb923c" stroke-width="1.3" points="392.77,-160.74 400.36,-156.98 392.08,-155.19 392.77,-160.74"/>
</g>
<!-- hidden_ActivityLog -->
<g id="node62" class="node">
<title>hidden_ActivityLog</title>
<path fill="#431407" stroke="#fb923c" d="M541.5,-117C541.5,-117 440.5,-117 440.5,-117 434.5,-117 428.5,-111 428.5,-105 428.5,-105 428.5,-91 428.5,-91 428.5,-85 434.5,-79 440.5,-79 440.5,-79 541.5,-79 541.5,-79 547.5,-79 553.5,-85 553.5,-91 553.5,-91 553.5,-105 553.5,-105 553.5,-111 547.5,-117 541.5,-117"/>
<text text-anchor="middle" x="491" y="-101.8" font-family="Segoe UI" font-size="14.00" fill="#e2e8f0">ActivityLog</text>
<text text-anchor="middle" x="491" y="-86.8" font-family="Segoe UI" font-size="14.00" fill="#e2e8f0">ActivityLogPage</text>
</g>
<!-- navigation&#45;&gt;hidden_ActivityLog -->
<g id="edge61" class="edge">
<title>navigation&#45;&gt;hidden_ActivityLog</title>
<path fill="none" stroke="#fb923c" stroke-width="1.3" stroke-dasharray="5,2" d="M195.52,-1134.2C215.75,-1129.78 235.89,-1121.17 249,-1105 317.38,-1020.66 238.04,-207.57 314,-130 341.17,-102.25 383.79,-93.98 420.28,-92.77"/>
<polygon fill="#fb923c" stroke="#fb923c" stroke-width="1.3" points="420.5,-95.57 428.45,-92.61 420.39,-89.97 420.5,-95.57"/>
</g>
<!-- hidden_SecurityMaster -->
<g id="node63" class="node">
<title>hidden_SecurityMaster</title>
<path fill="#431407" stroke="#fb923c" d="M556,-54C556,-54 426,-54 426,-54 420,-54 414,-48 414,-42 414,-42 414,-28 414,-28 414,-22 420,-16 426,-16 426,-16 556,-16 556,-16 562,-16 568,-22 568,-28 568,-28 568,-42 568,-42 568,-48 562,-54 556,-54"/>
<text text-anchor="middle" x="491" y="-38.8" font-family="Segoe UI" font-size="14.00" fill="#e2e8f0">SecurityMaster</text>
<text text-anchor="middle" x="491" y="-23.8" font-family="Segoe UI" font-size="14.00" fill="#e2e8f0">SecurityMasterPage</text>
</g>
<!-- navigation&#45;&gt;hidden_SecurityMaster -->
<g id="edge62" class="edge">
<title>navigation&#45;&gt;hidden_SecurityMaster</title>
<path fill="none" stroke="#fb923c" stroke-width="1.3" stroke-dasharray="5,2" d="M195.56,-1134.23C215.79,-1129.81 235.92,-1121.2 249,-1105 321.61,-1015.1 232.73,-149.16 314,-67 337.66,-43.08 372.81,-33.68 405.48,-30.78"/>
<polygon fill="#fb923c" stroke="#fb923c" stroke-width="1.3" points="405.95,-33.56 413.73,-30.18 405.55,-27.97 405.95,-33.56"/>
</g>
<!-- page_Dashboard -->
<g id="node5" class="node">
<title>page_Dashboard</title>
<path fill="#1e293b" stroke="#475569" d="M999.5,-2288C999.5,-2288 802.5,-2288 802.5,-2288 796.5,-2288 790.5,-2282 790.5,-2276 790.5,-2276 790.5,-2262 790.5,-2262 790.5,-2256 796.5,-2250 802.5,-2250 802.5,-2250 999.5,-2250 999.5,-2250 1005.5,-2250 1011.5,-2256 1011.5,-2262 1011.5,-2262 1011.5,-2276 1011.5,-2276 1011.5,-2282 1005.5,-2288 999.5,-2288"/>
<text text-anchor="middle" x="901" y="-2272.8" font-family="Segoe UI" font-size="14.00" fill="#e2e8f0">Dashboard</text>
<text text-anchor="middle" x="901" y="-2257.8" font-family="Segoe UI" font-size="14.00" fill="#e2e8f0">Dashboard → DashboardPage</text>
</g>
<!-- workspace_1&#45;&gt;page_Dashboard -->
<g id="edge3" class="edge">
<title>workspace_1&#45;&gt;page_Dashboard</title>
<path fill="none" stroke="#94a3b8" stroke-width="1.3" d="M492.85,-2910.74C497.77,-2824.01 530.15,-2466.74 733,-2301 747.3,-2289.31 764.59,-2281.43 782.54,-2276.19"/>
<polygon fill="#94a3b8" stroke="#94a3b8" stroke-width="1.3" points="783.28,-2278.89 790.27,-2274.1 781.82,-2273.48 783.28,-2278.89"/>
</g>
<!-- page_LiveData -->
<g id="node6" class="node">
<title>page_LiveData</title>
<path fill="#1e293b" stroke="#475569" d="M1007.5,-2351C1007.5,-2351 794.5,-2351 794.5,-2351 788.5,-2351 782.5,-2345 782.5,-2339 782.5,-2339 782.5,-2325 782.5,-2325 782.5,-2319 788.5,-2313 794.5,-2313 794.5,-2313 1007.5,-2313 1007.5,-2313 1013.5,-2313 1019.5,-2319 1019.5,-2325 1019.5,-2325 1019.5,-2339 1019.5,-2339 1019.5,-2345 1013.5,-2351 1007.5,-2351"/>
<text text-anchor="middle" x="901" y="-2335.8" font-family="Segoe UI" font-size="14.00" fill="#e2e8f0">LiveData</text>
<text text-anchor="middle" x="901" y="-2320.8" font-family="Segoe UI" font-size="14.00" fill="#e2e8f0">LiveData → LiveDataViewerPage</text>
</g>
<!-- workspace_1&#45;&gt;page_LiveData -->
<g id="edge4" class="edge">
<title>workspace_1&#45;&gt;page_LiveData</title>
<path fill="none" stroke="#94a3b8" stroke-width="1.3" d="M493.83,-2910.85C502.64,-2829.89 548.25,-2513.03 733,-2364 745.13,-2354.21 759.36,-2347.1 774.31,-2341.98"/>
<polygon fill="#94a3b8" stroke="#94a3b8" stroke-width="1.3" points="775.41,-2344.57 782.18,-2339.48 773.71,-2339.23 775.41,-2344.57"/>
</g>
<!-- page_Charts -->
<g id="node7" class="node">
<title>page_Charts</title>
<path fill="#1e293b" stroke="#475569" d="M977,-2414C977,-2414 825,-2414 825,-2414 819,-2414 813,-2408 813,-2402 813,-2402 813,-2388 813,-2388 813,-2382 819,-2376 825,-2376 825,-2376 977,-2376 977,-2376 983,-2376 989,-2382 989,-2388 989,-2388 989,-2402 989,-2402 989,-2408 983,-2414 977,-2414"/>
<text text-anchor="middle" x="901" y="-2398.8" font-family="Segoe UI" font-size="14.00" fill="#e2e8f0">Charts</text>
<text text-anchor="middle" x="901" y="-2383.8" font-family="Segoe UI" font-size="14.00" fill="#e2e8f0">Charts → ChartingPage</text>
</g>
<!-- workspace_1&#45;&gt;page_Charts -->
<g id="edge5" class="edge">
<title>workspace_1&#45;&gt;page_Charts</title>
<path fill="none" stroke="#94a3b8" stroke-width="1.3" d="M494.9,-2910.93C507.43,-2835.69 564.08,-2557.2 733,-2427 753.36,-2411.31 779.19,-2402.59 804.41,-2397.91"/>
<polygon fill="#94a3b8" stroke="#94a3b8" stroke-width="1.3" points="805.15,-2400.63 812.58,-2396.53 804.22,-2395.11 805.15,-2400.63"/>
</g>
<!-- page_RunMat -->
<g id="node8" class="node">
<title>page_RunMat</title>
<path fill="#1e293b" stroke="#475569" d="M977,-2477C977,-2477 825,-2477 825,-2477 819,-2477 813,-2471 813,-2465 813,-2465 813,-2451 813,-2451 813,-2445 819,-2439 825,-2439 825,-2439 977,-2439 977,-2439 983,-2439 989,-2445 989,-2451 989,-2451 989,-2465 989,-2465 989,-2471 983,-2477 977,-2477"/>
<text text-anchor="middle" x="901" y="-2461.8" font-family="Segoe UI" font-size="14.00" fill="#e2e8f0">RunMat</text>
<text text-anchor="middle" x="901" y="-2446.8" font-family="Segoe UI" font-size="14.00" fill="#e2e8f0">RunMat → RunMatPage</text>
</g>
<!-- workspace_1&#45;&gt;page_RunMat -->
<g id="edge6" class="edge">
<title>workspace_1&#45;&gt;page_RunMat</title>
<path fill="none" stroke="#94a3b8" stroke-width="1.3" d="M496.32,-2910.71C512.98,-2841.15 579.88,-2601.53 733,-2490 753.67,-2474.94 779.47,-2466.41 804.57,-2461.72"/>
<polygon fill="#94a3b8" stroke="#94a3b8" stroke-width="1.3" points="805.27,-2464.44 812.68,-2460.32 804.33,-2458.92 805.27,-2464.44"/>
</g>
<!-- page_StrategyRuns -->
<g id="node9" class="node">
<title>page_StrategyRuns</title>
<path fill="#1e293b" stroke="#475569" d="M1018,-2540C1018,-2540 784,-2540 784,-2540 778,-2540 772,-2534 772,-2528 772,-2528 772,-2514 772,-2514 772,-2508 778,-2502 784,-2502 784,-2502 1018,-2502 1018,-2502 1024,-2502 1030,-2508 1030,-2514 1030,-2514 1030,-2528 1030,-2528 1030,-2534 1024,-2540 1018,-2540"/>
<text text-anchor="middle" x="901" y="-2524.8" font-family="Segoe UI" font-size="14.00" fill="#e2e8f0">StrategyRuns</text>
<text text-anchor="middle" x="901" y="-2509.8" font-family="Segoe UI" font-size="14.00" fill="#e2e8f0">StrategyRuns → StrategyRunsPage</text>
</g>
<!-- workspace_1&#45;&gt;page_StrategyRuns -->
<g id="edge7" class="edge">
<title>workspace_1&#45;&gt;page_StrategyRuns</title>
<path fill="none" stroke="#94a3b8" stroke-width="1.3" d="M496.69,-2910.59C515.57,-2845.44 591.85,-2636.67 733,-2541 742.53,-2534.54 753.03,-2529.31 763.99,-2525.12"/>
<polygon fill="#94a3b8" stroke="#94a3b8" stroke-width="1.3" points="765.05,-2527.71 771.64,-2522.38 763.17,-2522.44 765.05,-2527.71"/>
</g>
<!-- workspace_1&#45;&gt;page_StrategyRuns -->
<g id="edge11" class="edge">
<title>workspace_1&#45;&gt;page_StrategyRuns</title>
<path fill="none" stroke="#94a3b8" stroke-width="1.3" d="M500.13,-2910.8C523.75,-2848.87 599.25,-2656.66 733,-2566 749.5,-2554.81 768.92,-2547.3 788.57,-2542.07"/>
<polygon fill="#94a3b8" stroke="#94a3b8" stroke-width="1.3" points="789.32,-2544.77 796.4,-2540.1 787.96,-2539.33 789.32,-2544.77"/>
</g>
<!-- page_OrderBook -->
<g id="node10" class="node">
<title>page_OrderBook</title>
<path fill="#1e293b" stroke="#475569" d="M998.5,-2603C998.5,-2603 803.5,-2603 803.5,-2603 797.5,-2603 791.5,-2597 791.5,-2591 791.5,-2591 791.5,-2577 791.5,-2577 791.5,-2571 797.5,-2565 803.5,-2565 803.5,-2565 998.5,-2565 998.5,-2565 1004.5,-2565 1010.5,-2571 1010.5,-2577 1010.5,-2577 1010.5,-2591 1010.5,-2591 1010.5,-2597 1004.5,-2603 998.5,-2603"/>
<text text-anchor="middle" x="901" y="-2587.8" font-family="Segoe UI" font-size="14.00" fill="#e2e8f0">OrderBook</text>
<text text-anchor="middle" x="901" y="-2572.8" font-family="Segoe UI" font-size="14.00" fill="#e2e8f0">OrderBook → OrderBookPage</text>
</g>
<!-- workspace_1&#45;&gt;page_OrderBook -->
<g id="edge8" class="edge">
<title>workspace_1&#45;&gt;page_OrderBook</title>
<path fill="none" stroke="#94a3b8" stroke-width="1.3" d="M510.61,-2910.95C548.68,-2871.35 636.95,-2776.3 697,-2686 716.37,-2656.87 704.99,-2636.96 733,-2616 747.79,-2604.93 765.32,-2597.36 783.37,-2592.24"/>
<polygon fill="#94a3b8" stroke="#94a3b8" stroke-width="1.3" points="784.11,-2594.94 791.14,-2590.2 782.69,-2589.53 784.11,-2594.94"/>
</g>
<!-- page_Watchlist -->
<g id="node11" class="node">
<title>page_Watchlist</title>
<path fill="#1e293b" stroke="#475569" d="M987.5,-2666C987.5,-2666 814.5,-2666 814.5,-2666 808.5,-2666 802.5,-2660 802.5,-2654 802.5,-2654 802.5,-2640 802.5,-2640 802.5,-2634 808.5,-2628 814.5,-2628 814.5,-2628 987.5,-2628 987.5,-2628 993.5,-2628 999.5,-2634 999.5,-2640 999.5,-2640 999.5,-2654 999.5,-2654 999.5,-2660 993.5,-2666 987.5,-2666"/>
<text text-anchor="middle" x="901" y="-2650.8" font-family="Segoe UI" font-size="14.00" fill="#e2e8f0">Watchlist</text>
<text text-anchor="middle" x="901" y="-2635.8" font-family="Segoe UI" font-size="14.00" fill="#e2e8f0">Watchlist → WatchlistPage</text>
</g>
<!-- workspace_1&#45;&gt;page_Watchlist -->
<g id="edge9" class="edge">
<title>workspace_1&#45;&gt;page_Watchlist</title>
<path fill="none" stroke="#94a3b8" stroke-width="1.3" d="M536.02,-2910.91C582.48,-2888.61 654.72,-2847.44 697,-2791 728.35,-2749.15 693.85,-2713.66 733,-2679 750.1,-2663.86 772.13,-2654.95 794.53,-2649.88"/>
<polygon fill="#94a3b8" stroke="#94a3b8" stroke-width="1.3" points="795.19,-2652.61 802.46,-2648.25 794.06,-2647.12 795.19,-2652.61"/>
</g>
<!-- page_Backtest -->
<g id="node12" class="node">
<title>page_Backtest</title>
<path fill="#1e293b" stroke="#475569" d="M984.5,-2729C984.5,-2729 817.5,-2729 817.5,-2729 811.5,-2729 805.5,-2723 805.5,-2717 805.5,-2717 805.5,-2703 805.5,-2703 805.5,-2697 811.5,-2691 817.5,-2691 817.5,-2691 984.5,-2691 984.5,-2691 990.5,-2691 996.5,-2697 996.5,-2703 996.5,-2703 996.5,-2717 996.5,-2717 996.5,-2723 990.5,-2729 984.5,-2729"/>
<text text-anchor="middle" x="901" y="-2713.8" font-family="Segoe UI" font-size="14.00" fill="#e2e8f0">Backtest</text>
<text text-anchor="middle" x="901" y="-2698.8" font-family="Segoe UI" font-size="14.00" fill="#e2e8f0">Backtest → BacktestPage</text>
</g>
<!-- workspace_1&#45;&gt;page_Backtest -->
<g id="edge10" class="edge">
<title>workspace_1&#45;&gt;page_Backtest</title>
<path fill="none" stroke="#94a3b8" stroke-width="1.3" d="M553.08,-2919.41C598.45,-2908.54 658.85,-2887.29 697,-2847 730.92,-2811.18 695.75,-2774.34 733,-2742 750.93,-2726.44 774.07,-2717.5 797.38,-2712.55"/>
<polygon fill="#94a3b8" stroke="#94a3b8" stroke-width="1.3" points="797.96,-2715.29 805.28,-2711.02 796.9,-2709.79 797.96,-2715.29"/>
</g>
<!-- page_LeanIntegration -->
<g id="node13" class="node">
<title>page_LeanIntegration</title>
<path fill="#1e293b" stroke="#475569" d="M1034,-2792C1034,-2792 768,-2792 768,-2792 762,-2792 756,-2786 756,-2780 756,-2780 756,-2766 756,-2766 756,-2760 762,-2754 768,-2754 768,-2754 1034,-2754 1034,-2754 1040,-2754 1046,-2760 1046,-2766 1046,-2766 1046,-2780 1046,-2780 1046,-2786 1040,-2792 1034,-2792"/>
<text text-anchor="middle" x="901" y="-2776.8" font-family="Segoe UI" font-size="14.00" fill="#e2e8f0">LeanIntegration</text>
<text text-anchor="middle" x="901" y="-2761.8" font-family="Segoe UI" font-size="14.00" fill="#e2e8f0">LeanIntegration → LeanIntegrationPage</text>
</g>
<!-- workspace_1&#45;&gt;page_LeanIntegration -->
<g id="edge12" class="edge">
<title>workspace_1&#45;&gt;page_LeanIntegration</title>
<path fill="none" stroke="#94a3b8" stroke-width="1.3" d="M553.18,-2927.81C597.42,-2923.3 656.33,-2910.92 697,-2878 725.12,-2855.24 704.22,-2826.92 733,-2805 737.84,-2801.31 742.99,-2798.01 748.36,-2795.05"/>
<polygon fill="#94a3b8" stroke="#94a3b8" stroke-width="1.3" points="749.97,-2797.38 755.81,-2791.24 747.42,-2792.39 749.97,-2797.38"/>
</g>
<!-- page_PortfolioImport -->
<g id="node14" class="node">
<title>page_PortfolioImport</title>
<path fill="#1e293b" stroke="#475569" d="M1028,-2855C1028,-2855 774,-2855 774,-2855 768,-2855 762,-2849 762,-2843 762,-2843 762,-2829 762,-2829 762,-2823 768,-2817 774,-2817 774,-2817 1028,-2817 1028,-2817 1034,-2817 1040,-2823 1040,-2829 1040,-2829 1040,-2843 1040,-2843 1040,-2849 1034,-2855 1028,-2855"/>
<text text-anchor="middle" x="901" y="-2839.8" font-family="Segoe UI" font-size="14.00" fill="#e2e8f0">PortfolioImport</text>
<text text-anchor="middle" x="901" y="-2824.8" font-family="Segoe UI" font-size="14.00" fill="#e2e8f0">PortfolioImport → PortfolioImportPage</text>
</g>
<!-- workspace_1&#45;&gt;page_PortfolioImport -->
<g id="edge13" class="edge">
<title>workspace_1&#45;&gt;page_PortfolioImport</title>
<path fill="none" stroke="#94a3b8" stroke-width="1.3" d="M553.09,-2928.36C595.13,-2925.3 651.39,-2917.31 697,-2897 715.77,-2888.64 714.36,-2876.63 733,-2868 741.58,-2864.03 750.63,-2860.55 759.89,-2857.5"/>
<polygon fill="#94a3b8" stroke="#94a3b8" stroke-width="1.3" points="760.93,-2860.11 767.72,-2855.04 759.25,-2854.77 760.93,-2860.11"/>
</g>
<!-- page_TradingHours -->
<g id="node15" class="node">
<title>page_TradingHours</title>
<path fill="#1e293b" stroke="#475569" d="M1017.5,-2918C1017.5,-2918 784.5,-2918 784.5,-2918 778.5,-2918 772.5,-2912 772.5,-2906 772.5,-2906 772.5,-2892 772.5,-2892 772.5,-2886 778.5,-2880 784.5,-2880 784.5,-2880 1017.5,-2880 1017.5,-2880 1023.5,-2880 1029.5,-2886 1029.5,-2892 1029.5,-2892 1029.5,-2906 1029.5,-2906 1029.5,-2912 1023.5,-2918 1017.5,-2918"/>
<text text-anchor="middle" x="901" y="-2902.8" font-family="Segoe UI" font-size="14.00" fill="#e2e8f0">TradingHours</text>
<text text-anchor="middle" x="901" y="-2887.8" font-family="Segoe UI" font-size="14.00" fill="#e2e8f0">TradingHours → TradingHoursPage</text>
</g>
<!-- workspace_1&#45;&gt;page_TradingHours -->
<g id="edge14" class="edge">
<title>workspace_1&#45;&gt;page_TradingHours</title>
<path fill="none" stroke="#94a3b8" stroke-width="1.3" d="M553.08,-2925.36C608.63,-2921.14 692.58,-2914.76 763.99,-2909.33"/>
<polygon fill="#94a3b8" stroke="#94a3b8" stroke-width="1.3" points="764.42,-2912.11 772.19,-2908.71 764,-2906.53 764.42,-2912.11"/>
</g>
<!-- page_DirectLending -->
<g id="node16" class="node">
<title>page_DirectLending</title>
<path fill="#1e293b" stroke="#475569" d="M1020.5,-2981C1020.5,-2981 781.5,-2981 781.5,-2981 775.5,-2981 769.5,-2975 769.5,-2969 769.5,-2969 769.5,-2955 769.5,-2955 769.5,-2949 775.5,-2943 781.5,-2943 781.5,-2943 1020.5,-2943 1020.5,-2943 1026.5,-2943 1032.5,-2949 1032.5,-2955 1032.5,-2955 1032.5,-2969 1032.5,-2969 1032.5,-2975 1026.5,-2981 1020.5,-2981"/>
<text text-anchor="middle" x="901" y="-2965.8" font-family="Segoe UI" font-size="14.00" fill="#e2e8f0">DirectLending</text>
<text text-anchor="middle" x="901" y="-2950.8" font-family="Segoe UI" font-size="14.00" fill="#e2e8f0">DirectLending → DirectLendingPage</text>
</g>
<!-- workspace_1&#45;&gt;page_DirectLending -->
<g id="edge15" class="edge">
<title>workspace_1&#45;&gt;page_DirectLending</title>
<path fill="none" stroke="#94a3b8" stroke-width="1.3" d="M553.08,-2934.79C607.88,-2939.09 690.32,-2945.55 761.09,-2951.11"/>
<polygon fill="#94a3b8" stroke="#94a3b8" stroke-width="1.3" points="761.03,-2953.91 769.22,-2951.74 761.47,-2948.33 761.03,-2953.91"/>
</g>
<!-- page_Provider -->
<g id="node17" class="node">
<title>page_Provider</title>
<path fill="#1e293b" stroke="#475569" d="M981.5,-3044C981.5,-3044 820.5,-3044 820.5,-3044 814.5,-3044 808.5,-3038 808.5,-3032 808.5,-3032 808.5,-3018 808.5,-3018 808.5,-3012 814.5,-3006 820.5,-3006 820.5,-3006 981.5,-3006 981.5,-3006 987.5,-3006 993.5,-3012 993.5,-3018 993.5,-3018 993.5,-3032 993.5,-3032 993.5,-3038 987.5,-3044 981.5,-3044"/>
<text text-anchor="middle" x="901" y="-3028.8" font-family="Segoe UI" font-size="14.00" fill="#e2e8f0">Provider</text>
<text text-anchor="middle" x="901" y="-3013.8" font-family="Segoe UI" font-size="14.00" fill="#e2e8f0">Provider → ProviderPage</text>
</g>
<!-- workspace_1&#45;&gt;page_Provider -->
<g id="edge16" class="edge">
<title>workspace_1&#45;&gt;page_Provider</title>
<path fill="none" stroke="#94a3b8" stroke-width="1.3" d="M553.1,-2947.6C601.62,-2961.25 671.34,-2980.11 733,-2994 754.65,-2998.88 778,-3003.57 800.19,-3007.75"/>
<polygon fill="#94a3b8" stroke="#94a3b8" stroke-width="1.3" points="799.92,-3010.55 808.3,-3009.28 800.95,-3005.05 799.92,-3010.55"/>
</g>
<!-- page_Symbols -->
<g id="node18" class="node">
<title>page_Symbols</title>
<path fill="#1e293b" stroke="#475569" d="M983.5,-3107C983.5,-3107 818.5,-3107 818.5,-3107 812.5,-3107 806.5,-3101 806.5,-3095 806.5,-3095 806.5,-3081 806.5,-3081 806.5,-3075 812.5,-3069 818.5,-3069 818.5,-3069 983.5,-3069 983.5,-3069 989.5,-3069 995.5,-3075 995.5,-3081 995.5,-3081 995.5,-3095 995.5,-3095 995.5,-3101 989.5,-3107 983.5,-3107"/>
<text text-anchor="middle" x="901" y="-3091.8" font-family="Segoe UI" font-size="14.00" fill="#e2e8f0">Symbols</text>
<text text-anchor="middle" x="901" y="-3076.8" font-family="Segoe UI" font-size="14.00" fill="#e2e8f0">Symbols → SymbolsPage</text>
</g>
<!-- workspace_1&#45;&gt;page_Symbols -->
<g id="edge17" class="edge">
<title>workspace_1&#45;&gt;page_Symbols</title>
<path fill="none" stroke="#94a3b8" stroke-width="1.3" d="M521.11,-2949.08C565.14,-2977.06 652.14,-3028.92 733,-3057 753.72,-3064.19 776.49,-3069.83 798.38,-3074.19"/>
<polygon fill="#94a3b8" stroke="#94a3b8" stroke-width="1.3" points="798.01,-3076.97 806.39,-3075.75 799.07,-3071.48 798.01,-3076.97"/>
</g>
<!-- page_Backfill -->
<g id="node19" class="node">
<title>page_Backfill</title>
<path fill="#1e293b" stroke="#475569" d="M974.5,-3170C974.5,-3170 827.5,-3170 827.5,-3170 821.5,-3170 815.5,-3164 815.5,-3158 815.5,-3158 815.5,-3144 815.5,-3144 815.5,-3138 821.5,-3132 827.5,-3132 827.5,-3132 974.5,-3132 974.5,-3132 980.5,-3132 986.5,-3138 986.5,-3144 986.5,-3144 986.5,-3158 986.5,-3158 986.5,-3164 980.5,-3170 974.5,-3170"/>
<text text-anchor="middle" x="901" y="-3154.8" font-family="Segoe UI" font-size="14.00" fill="#e2e8f0">Backfill</text>
<text text-anchor="middle" x="901" y="-3139.8" font-family="Segoe UI" font-size="14.00" fill="#e2e8f0">Backfill → BackfillPage</text>
</g>
<!-- workspace_1&#45;&gt;page_Backfill -->
<g id="edge18" class="edge">
<title>workspace_1&#45;&gt;page_Backfill</title>
<path fill="none" stroke="#94a3b8" stroke-width="1.3" d="M509.55,-2949.02C546.68,-2987.96 637.64,-3076.78 733,-3120 756.02,-3130.44 782.35,-3137.36 807.19,-3141.95"/>
<polygon fill="#94a3b8" stroke="#94a3b8" stroke-width="1.3" points="806.84,-3144.73 815.2,-3143.36 807.81,-3139.22 806.84,-3144.73"/>
</g>
<!-- page_Storage -->
<g id="node20" class="node">
<title>page_Storage</title>
<path fill="#1e293b" stroke="#475569" d="M978.5,-3233C978.5,-3233 823.5,-3233 823.5,-3233 817.5,-3233 811.5,-3227 811.5,-3221 811.5,-3221 811.5,-3207 811.5,-3207 811.5,-3201 817.5,-3195 823.5,-3195 823.5,-3195 978.5,-3195 978.5,-3195 984.5,-3195 990.5,-3201 990.5,-3207 990.5,-3207 990.5,-3221 990.5,-3221 990.5,-3227 984.5,-3233 978.5,-3233"/>
<text text-anchor="middle" x="901" y="-3217.8" font-family="Segoe UI" font-size="14.00" fill="#e2e8f0">Storage</text>
<text text-anchor="middle" x="901" y="-3202.8" font-family="Segoe UI" font-size="14.00" fill="#e2e8f0">Storage → StoragePage</text>
</g>
<!-- workspace_1&#45;&gt;page_Storage -->
<g id="edge19" class="edge">
<title>workspace_1&#45;&gt;page_Storage</title>
<path fill="none" stroke="#94a3b8" stroke-width="1.3" d="M503.87,-2949.07C534.9,-2997.16 623.66,-3123.75 733,-3183 754.31,-3194.55 779.16,-3201.88 803.07,-3206.51"/>
<polygon fill="#94a3b8" stroke="#94a3b8" stroke-width="1.3" points="802.77,-3209.3 811.14,-3207.97 803.77,-3203.79 802.77,-3209.3"/>
</g>
<!-- page_DataExport -->
<g id="node21" class="node">
<title>page_DataExport</title>
<path fill="#1e293b" stroke="#475569" d="M1002.5,-3296C1002.5,-3296 799.5,-3296 799.5,-3296 793.5,-3296 787.5,-3290 787.5,-3284 787.5,-3284 787.5,-3270 787.5,-3270 787.5,-3264 793.5,-3258 799.5,-3258 799.5,-3258 1002.5,-3258 1002.5,-3258 1008.5,-3258 1014.5,-3264 1014.5,-3270 1014.5,-3270 1014.5,-3284 1014.5,-3284 1014.5,-3290 1008.5,-3296 1002.5,-3296"/>
<text text-anchor="middle" x="901" y="-3280.8" font-family="Segoe UI" font-size="14.00" fill="#e2e8f0">DataExport</text>
<text text-anchor="middle" x="901" y="-3265.8" font-family="Segoe UI" font-size="14.00" fill="#e2e8f0">DataExport → DataExportPage</text>
</g>
<!-- workspace_1&#45;&gt;page_DataExport -->
<g id="edge20" class="edge">
<title>workspace_1&#45;&gt;page_DataExport</title>
<path fill="none" stroke="#94a3b8" stroke-width="1.3" d="M500.41,-2949.19C526.08,-3005.3 609.29,-3169.92 733,-3246 747.03,-3254.63 762.89,-3260.97 779.11,-3265.61"/>
<polygon fill="#94a3b8" stroke="#94a3b8" stroke-width="1.3" points="778.64,-3268.38 787.1,-3267.75 780.1,-3262.97 778.64,-3268.38"/>
</g>
<!-- page_PackageManager -->
<g id="node22" class="node">
<title>page_PackageManager</title>
<path fill="#1e293b" stroke="#475569" d="M1041.5,-3359C1041.5,-3359 760.5,-3359 760.5,-3359 754.5,-3359 748.5,-3353 748.5,-3347 748.5,-3347 748.5,-3333 748.5,-3333 748.5,-3327 754.5,-3321 760.5,-3321 760.5,-3321 1041.5,-3321 1041.5,-3321 1047.5,-3321 1053.5,-3327 1053.5,-3333 1053.5,-3333 1053.5,-3347 1053.5,-3347 1053.5,-3353 1047.5,-3359 1041.5,-3359"/>
<text text-anchor="middle" x="901" y="-3343.8" font-family="Segoe UI" font-size="14.00" fill="#e2e8f0">PackageManager</text>
<text text-anchor="middle" x="901" y="-3328.8" font-family="Segoe UI" font-size="14.00" fill="#e2e8f0">PackageManager → PackageManagerPage</text>
</g>
<!-- workspace_1&#45;&gt;page_PackageManager -->
<g id="edge21" class="edge">
<title>workspace_1&#45;&gt;page_PackageManager</title>
<path fill="none" stroke="#94a3b8" stroke-width="1.3" d="M498.02,-2949.27C518.86,-3012.57 594.39,-3215.39 733,-3309 737.52,-3312.05 742.25,-3314.82 747.15,-3317.34"/>
<polygon fill="#94a3b8" stroke="#94a3b8" stroke-width="1.3" points="746.01,-3319.9 754.43,-3320.84 748.44,-3314.85 746.01,-3319.9"/>
</g>
<!-- page_DataQuality -->
<g id="node23" class="node">
<title>page_DataQuality</title>
<path fill="#1e293b" stroke="#475569" d="M1006,-3422C1006,-3422 796,-3422 796,-3422 790,-3422 784,-3416 784,-3410 784,-3410 784,-3396 784,-3396 784,-3390 790,-3384 796,-3384 796,-3384 1006,-3384 1006,-3384 1012,-3384 1018,-3390 1018,-3396 1018,-3396 1018,-3410 1018,-3410 1018,-3416 1012,-3422 1006,-3422"/>
<text text-anchor="middle" x="901" y="-3406.8" font-family="Segoe UI" font-size="14.00" fill="#e2e8f0">DataQuality</text>
<text text-anchor="middle" x="901" y="-3391.8" font-family="Segoe UI" font-size="14.00" fill="#e2e8f0">DataQuality → DataQualityPage</text>
</g>
<!-- workspace_1&#45;&gt;page_DataQuality -->
<g id="edge22" class="edge">
<title>workspace_1&#45;&gt;page_DataQuality</title>
<path fill="none" stroke="#94a3b8" stroke-width="1.3" d="M496.27,-2949.41C512.75,-3019.37 579.12,-3260.38 733,-3372 745.7,-3381.22 760.34,-3387.94 775.57,-3392.81"/>
<polygon fill="#94a3b8" stroke="#94a3b8" stroke-width="1.3" points="775.11,-3395.59 783.57,-3395.19 776.7,-3390.23 775.11,-3395.59"/>
</g>
<!-- page_ProviderHealth -->
<g id="node24" class="node">
<title>page_ProviderHealth</title>
<path fill="#1e293b" stroke="#475569" d="M1026.5,-3485C1026.5,-3485 775.5,-3485 775.5,-3485 769.5,-3485 763.5,-3479 763.5,-3473 763.5,-3473 763.5,-3459 763.5,-3459 763.5,-3453 769.5,-3447 775.5,-3447 775.5,-3447 1026.5,-3447 1026.5,-3447 1032.5,-3447 1038.5,-3453 1038.5,-3459 1038.5,-3459 1038.5,-3473 1038.5,-3473 1038.5,-3479 1032.5,-3485 1026.5,-3485"/>
<text text-anchor="middle" x="901" y="-3469.8" font-family="Segoe UI" font-size="14.00" fill="#e2e8f0">ProviderHealth</text>
<text text-anchor="middle" x="901" y="-3454.8" font-family="Segoe UI" font-size="14.00" fill="#e2e8f0">ProviderHealth → ProviderHealthPage</text>
</g>
<!-- workspace_1&#45;&gt;page_ProviderHealth -->
<g id="edge23" class="edge">
<title>workspace_1&#45;&gt;page_ProviderHealth</title>
<path fill="none" stroke="#94a3b8" stroke-width="1.3" d="M494.86,-2949.17C507.2,-3024.82 563.26,-3304.74 733,-3435 739.99,-3440.36 747.61,-3444.89 755.64,-3448.72"/>
<polygon fill="#94a3b8" stroke="#94a3b8" stroke-width="1.3" points="754.67,-3451.35 763.11,-3452.03 756.94,-3446.23 754.67,-3451.35"/>
</g>
<!-- page_SystemHealth -->
<g id="node25" class="node">
<title>page_SystemHealth</title>
<path fill="#1e293b" stroke="#475569" d="M1021,-3548C1021,-3548 781,-3548 781,-3548 775,-3548 769,-3542 769,-3536 769,-3536 769,-3522 769,-3522 769,-3516 775,-3510 781,-3510 781,-3510 1021,-3510 1021,-3510 1027,-3510 1033,-3516 1033,-3522 1033,-3522 1033,-3536 1033,-3536 1033,-3542 1027,-3548 1021,-3548"/>
<text text-anchor="middle" x="901" y="-3532.8" font-family="Segoe UI" font-size="14.00" fill="#e2e8f0">SystemHealth</text>
<text text-anchor="middle" x="901" y="-3517.8" font-family="Segoe UI" font-size="14.00" fill="#e2e8f0">SystemHealth → SystemHealthPage</text>
</g>
<!-- workspace_1&#45;&gt;page_SystemHealth -->
<g id="edge24" class="edge">
<title>workspace_1&#45;&gt;page_SystemHealth</title>
<path fill="none" stroke="#94a3b8" stroke-width="1.3" d="M493.78,-2949.24C502.41,-3030.59 547.36,-3348.94 733,-3498 741.51,-3504.83 751.05,-3510.34 761.15,-3514.76"/>
<polygon fill="#94a3b8" stroke="#94a3b8" stroke-width="1.3" points="760.13,-3517.37 768.59,-3517.79 762.24,-3512.18 760.13,-3517.37"/>
</g>
<!-- page_Diagnostics -->
<g id="node26" class="node">
<title>page_Diagnostics</title>
<path fill="#1e293b" stroke="#475569" d="M1004.5,-3611C1004.5,-3611 797.5,-3611 797.5,-3611 791.5,-3611 785.5,-3605 785.5,-3599 785.5,-3599 785.5,-3585 785.5,-3585 785.5,-3579 791.5,-3573 797.5,-3573 797.5,-3573 1004.5,-3573 1004.5,-3573 1010.5,-3573 1016.5,-3579 1016.5,-3585 1016.5,-3585 1016.5,-3599 1016.5,-3599 1016.5,-3605 1010.5,-3611 1004.5,-3611"/>
<text text-anchor="middle" x="901" y="-3595.8" font-family="Segoe UI" font-size="14.00" fill="#e2e8f0">Diagnostics</text>
<text text-anchor="middle" x="901" y="-3580.8" font-family="Segoe UI" font-size="14.00" fill="#e2e8f0">Diagnostics → DiagnosticsPage</text>
</g>
<!-- workspace_1&#45;&gt;page_Diagnostics -->
<g id="edge25" class="edge">
<title>workspace_1&#45;&gt;page_Diagnostics</title>
<path fill="none" stroke="#94a3b8" stroke-width="1.3" d="M492.78,-2949.06C497.44,-3035.69 528.88,-3395.21 733,-3561 745.88,-3571.46 761.18,-3578.83 777.19,-3583.94"/>
<polygon fill="#94a3b8" stroke="#94a3b8" stroke-width="1.3" points="776.64,-3586.7 785.11,-3586.28 778.23,-3581.33 776.64,-3586.7"/>
</g>
<!-- page_Settings -->
<g id="node27" class="node">
<title>page_Settings</title>
<path fill="#1e293b" stroke="#475569" d="M981.5,-3674C981.5,-3674 820.5,-3674 820.5,-3674 814.5,-3674 808.5,-3668 808.5,-3662 808.5,-3662 808.5,-3648 808.5,-3648 808.5,-3642 814.5,-3636 820.5,-3636 820.5,-3636 981.5,-3636 981.5,-3636 987.5,-3636 993.5,-3642 993.5,-3648 993.5,-3648 993.5,-3662 993.5,-3662 993.5,-3668 987.5,-3674 981.5,-3674"/>
<text text-anchor="middle" x="901" y="-3658.8" font-family="Segoe UI" font-size="14.00" fill="#e2e8f0">Settings</text>
<text text-anchor="middle" x="901" y="-3643.8" font-family="Segoe UI" font-size="14.00" fill="#e2e8f0">Settings → SettingsPage</text>
</g>
<!-- workspace_1&#45;&gt;page_Settings -->
<g id="edge26" class="edge">
<title>workspace_1&#45;&gt;page_Settings</title>
<path fill="none" stroke="#94a3b8" stroke-width="1.3" d="M491.94,-2949.18C492.77,-3041.42 509.5,-3442.47 733,-3624 751.92,-3639.37 776.03,-3648.04 800.01,-3652.75"/>
<polygon fill="#94a3b8" stroke="#94a3b8" stroke-width="1.3" points="799.76,-3655.54 808.13,-3654.19 800.74,-3650.03 799.76,-3655.54"/>
</g>
<!-- page_AdminMaintenance -->
<g id="node28" class="node">
<title>page_AdminMaintenance</title>
<path fill="#1e293b" stroke="#475569" d="M1057,-3737C1057,-3737 745,-3737 745,-3737 739,-3737 733,-3731 733,-3725 733,-3725 733,-3711 733,-3711 733,-3705 739,-3699 745,-3699 745,-3699 1057,-3699 1057,-3699 1063,-3699 1069,-3705 1069,-3711 1069,-3711 1069,-3725 1069,-3725 1069,-3731 1063,-3737 1057,-3737"/>
<text text-anchor="middle" x="901" y="-3721.8" font-family="Segoe UI" font-size="14.00" fill="#e2e8f0">AdminMaintenance</text>
<text text-anchor="middle" x="901" y="-3706.8" font-family="Segoe UI" font-size="14.00" fill="#e2e8f0">AdminMaintenance → AdminMaintenancePage</text>
</g>
<!-- workspace_1&#45;&gt;page_AdminMaintenance -->
<g id="edge27" class="edge">
<title>workspace_1&#45;&gt;page_AdminMaintenance</title>
<path fill="none" stroke="#94a3b8" stroke-width="1.3" d="M495.2,-2949.1C513.63,-3056.85 609.82,-3587.35 733,-3687 736.51,-3689.84 740.2,-3692.45 744.03,-3694.85"/>
<polygon fill="#94a3b8" stroke="#94a3b8" stroke-width="1.3" points="742.75,-3697.35 751.08,-3698.94 745.57,-3692.5 742.75,-3697.35"/>
</g>
</g>
</svg>
