<?xml version="1.0" encoding="UTF-8" standalone="no"?>
<!DOCTYPE svg PUBLIC "-//W3C//DTD SVG 1.1//EN"
 "http://www.w3.org/Graphics/SVG/1.1/DTD/svg11.dtd">
<!-- Generated by graphviz version 2.43.0 (0)
 -->
<!-- Title: UiNavigationMap Pages: 1 -->
<svg width="1149pt" height="3956pt"
 viewBox="0.00 0.00 1148.60 3955.60" xmlns="http://www.w3.org/2000/svg" xmlns:xlink="http://www.w3.org/1999/xlink">
<g id="graph0" class="graph" transform="scale(1 1) rotate(0) translate(28.8 3926.8)">
<title>UiNavigationMap</title>
<polygon fill="#0f172a" stroke="transparent" points="-28.8,28.8 -28.8,-3926.8 1119.8,-3926.8 1119.8,28.8 -28.8,28.8"/>
<text text-anchor="middle" x="545.5" y="-3878" font-family="Segoe UI" font-size="20.00">Meridian WPF UI navigation map</text>
<text text-anchor="middle" x="545.5" y="-3856" font-family="Segoe UI" font-size="20.00">(auto&#45;generated from MainPage.xaml + NavigationService.cs)</text>
<g id="clust1" class="cluster">
<title>cluster_workspace_1</title>
<path fill="#0f172a" stroke="#334155" d="M439,-2305C439,-2305 1071,-2305 1071,-2305 1077,-2305 1083,-2311 1083,-2317 1083,-2317 1083,-3826 1083,-3826 1083,-3832 1077,-3838 1071,-3838 1071,-3838 439,-3838 439,-3838 433,-3838 427,-3832 427,-3826 427,-3826 427,-2317 427,-2317 427,-2311 433,-2305 439,-2305"/>
<text text-anchor="middle" x="755" y="-3818" font-family="Segoe UI" font-size="20.00">Shell workspace</text>
</g>
<g id="clust2" class="cluster">
<title>cluster_hidden_pages</title>
<path fill="#0f172a" stroke="#7c2d12" stroke-dasharray="5,2" d="M332,-8C332,-8 662,-8 662,-8 668,-8 674,-14 674,-20 674,-20 674,-2285 674,-2285 674,-2291 668,-2297 662,-2297 662,-2297 332,-2297 332,-2297 326,-2297 320,-2291 320,-2285 320,-2285 320,-20 320,-20 320,-14 326,-8 332,-8"/>
<text text-anchor="middle" x="497" y="-2277" font-family="Segoe UI" font-size="20.00">Registered but not in sidebar shell</text>
</g>
<!-- generated -->
<g id="node1" class="node">
<title>generated</title>
<polygon fill="#1d4ed8" stroke="#60a5fa" points="249,-1124.5 0,-1124.5 0,-1071.5 255,-1071.5 255,-1118.5 249,-1124.5"/>
<polyline fill="none" stroke="#60a5fa" points="249,-1124.5 249,-1118.5 "/>
<polyline fill="none" stroke="#60a5fa" points="255,-1118.5 249,-1118.5 "/>
<text text-anchor="middle" x="127.5" y="-1109.3" font-family="Segoe UI" font-size="14.00" fill="#e2e8f0">Source fingerprint: 7d94f034712e</text>
<text text-anchor="middle" x="127.5" y="-1094.3" font-family="Segoe UI" font-size="14.00" fill="#e2e8f0">Shell entries: 25</text>
<text text-anchor="middle" x="127.5" y="-1079.3" font-family="Segoe UI" font-size="14.00" fill="#e2e8f0">Registered pages: 60</text>
</g>
<!-- shell -->
<g id="node2" class="node">
<title>shell</title>
<polygon fill="#0f766e" stroke="#2dd4bf" points="192,-1947 63,-1947 63,-1943 59,-1943 59,-1939 63,-1939 63,-1917 59,-1917 59,-1913 63,-1913 63,-1909 192,-1909 192,-1947"/>
<polyline fill="none" stroke="#2dd4bf" points="63,-1943 67,-1943 67,-1939 63,-1939 "/>
<polyline fill="none" stroke="#2dd4bf" points="63,-1917 67,-1917 67,-1913 63,-1913 "/>
<text text-anchor="middle" x="127.5" y="-1931.8" font-family="Segoe UI" font-size="14.00" fill="#e2e8f0">MainPage.xaml</text>
<text text-anchor="middle" x="127.5" y="-1916.8" font-family="Segoe UI" font-size="14.00" fill="#e2e8f0">Workspace shell</text>
</g>
<!-- navigation -->
<g id="node3" class="node">
<title>navigation</title>
<polygon fill="#7c3aed" stroke="#c4b5fd" points="198.5,-1188 56.5,-1188 56.5,-1184 52.5,-1184 52.5,-1180 56.5,-1180 56.5,-1158 52.5,-1158 52.5,-1154 56.5,-1154 56.5,-1150 198.5,-1150 198.5,-1188"/>
<polyline fill="none" stroke="#c4b5fd" points="56.5,-1184 60.5,-1184 60.5,-1180 56.5,-1180 "/>
<polyline fill="none" stroke="#c4b5fd" points="56.5,-1158 60.5,-1158 60.5,-1154 56.5,-1154 "/>
<text text-anchor="middle" x="127.5" y="-1172.8" font-family="Segoe UI" font-size="14.00" fill="#e2e8f0">NavigationService</text>
<text text-anchor="middle" x="127.5" y="-1157.8" font-family="Segoe UI" font-size="14.00" fill="#e2e8f0">RegisterAllPages()</text>
</g>
<!-- shell&#45;&gt;navigation -->
<g id="edge1" class="edge">
<title>shell&#45;&gt;navigation</title>
<path fill="none" stroke="#38bdf8" stroke-width="1.3" d="M127.5,-1908.91C127.5,-1805.98 127.5,-1317.35 127.5,-1196.22"/>
<polygon fill="#38bdf8" stroke="#38bdf8" stroke-width="1.3" points="130.3,-1196.14 127.5,-1188.14 124.7,-1196.14 130.3,-1196.14"/>
<text text-anchor="middle" x="117" y="-1544.8" font-family="Segoe UI" font-size="14.00">navigate via tags</text>
</g>
<!-- workspace_1 -->
<g id="node4" class="node">
<title>workspace_1</title>
<polygon fill="#1d4ed8" stroke="#93c5fd" points="559,-3012 556,-3016 535,-3016 532,-3012 435,-3012 435,-2974 559,-2974 559,-3012"/>
<text text-anchor="middle" x="497" y="-2996.8" font-family="Segoe UI" font-size="14.00" fill="#e2e8f0">Shell</text>
<text text-anchor="middle" x="497" y="-2981.8" font-family="Segoe UI" font-size="14.00" fill="#e2e8f0">25 shell entries</text>
</g>
<!-- shell&#45;&gt;workspace_1 -->
<g id="edge2" class="edge">
<title>shell&#45;&gt;workspace_1</title>
<path fill="none" stroke="#22d3ee" stroke-width="1.3" d="M135.19,-1947.39C179.83,-2076.75 434.22,-2813.96 486.58,-2965.69"/>
<polygon fill="#22d3ee" stroke="#22d3ee" stroke-width="1.3" points="484.07,-2967.02 489.33,-2973.66 489.36,-2965.19 484.07,-2967.02"/>
</g>
<!-- hidden_DataSources -->
<g id="node29" class="node">
<title>hidden_DataSources</title>
<path fill="#431407" stroke="#fb923c" d="M553.5,-2259C553.5,-2259 440.5,-2259 440.5,-2259 434.5,-2259 428.5,-2253 428.5,-2247 428.5,-2247 428.5,-2233 428.5,-2233 428.5,-2227 434.5,-2221 440.5,-2221 440.5,-2221 553.5,-2221 553.5,-2221 559.5,-2221 565.5,-2227 565.5,-2233 565.5,-2233 565.5,-2247 565.5,-2247 565.5,-2253 559.5,-2259 553.5,-2259"/>
<text text-anchor="middle" x="497" y="-2243.8" font-family="Segoe UI" font-size="14.00" fill="#e2e8f0">DataSources</text>
<text text-anchor="middle" x="497" y="-2228.8" font-family="Segoe UI" font-size="14.00" fill="#e2e8f0">DataSourcesPage</text>
</g>
<!-- navigation&#45;&gt;hidden_DataSources -->
<g id="edge28" class="edge">
<title>navigation&#45;&gt;hidden_DataSources</title>
<path fill="none" stroke="#fb923c" stroke-width="1.3" stroke-dasharray="5,2" d="M131.67,-1188.2C147.53,-1284.08 220.44,-1720.6 291,-2076 302.78,-2135.34 276.37,-2167.09 320,-2209 346.21,-2234.17 385.27,-2242.8 419.94,-2244.75"/>
<polygon fill="#fb923c" stroke="#fb923c" stroke-width="1.3" points="420.07,-2247.56 428.18,-2245.1 420.31,-2241.97 420.07,-2247.56"/>
</g>
<!-- hidden_DataBrowser -->
<g id="node30" class="node">
<title>hidden_DataBrowser</title>
<path fill="#431407" stroke="#fb923c" d="M554,-2196C554,-2196 440,-2196 440,-2196 434,-2196 428,-2190 428,-2184 428,-2184 428,-2170 428,-2170 428,-2164 434,-2158 440,-2158 440,-2158 554,-2158 554,-2158 560,-2158 566,-2164 566,-2170 566,-2170 566,-2184 566,-2184 566,-2190 560,-2196 554,-2196"/>
<text text-anchor="middle" x="497" y="-2180.8" font-family="Segoe UI" font-size="14.00" fill="#e2e8f0">DataBrowser</text>
<text text-anchor="middle" x="497" y="-2165.8" font-family="Segoe UI" font-size="14.00" fill="#e2e8f0">DataBrowserPage</text>
</g>
<!-- navigation&#45;&gt;hidden_DataBrowser -->
<g id="edge29" class="edge">
<title>navigation&#45;&gt;hidden_DataBrowser</title>
<path fill="none" stroke="#fb923c" stroke-width="1.3" stroke-dasharray="5,2" d="M131.62,-1188.2C153.43,-1322.03 283.33,-2111.12 320,-2146 346.22,-2170.94 385.09,-2179.59 419.64,-2181.61"/>
<polygon fill="#fb923c" stroke="#fb923c" stroke-width="1.3" points="419.74,-2184.42 427.85,-2181.98 419.98,-2178.83 419.74,-2184.42"/>
</g>
<!-- hidden_SymbolMapping -->
<g id="node31" class="node">
<title>hidden_SymbolMapping</title>
<path fill="#431407" stroke="#fb923c" d="M565.5,-2133C565.5,-2133 428.5,-2133 428.5,-2133 422.5,-2133 416.5,-2127 416.5,-2121 416.5,-2121 416.5,-2107 416.5,-2107 416.5,-2101 422.5,-2095 428.5,-2095 428.5,-2095 565.5,-2095 565.5,-2095 571.5,-2095 577.5,-2101 577.5,-2107 577.5,-2107 577.5,-2121 577.5,-2121 577.5,-2127 571.5,-2133 565.5,-2133"/>
<text text-anchor="middle" x="497" y="-2117.8" font-family="Segoe UI" font-size="14.00" fill="#e2e8f0">SymbolMapping</text>
<text text-anchor="middle" x="497" y="-2102.8" font-family="Segoe UI" font-size="14.00" fill="#e2e8f0">SymbolMappingPage</text>
</g>
<!-- navigation&#45;&gt;hidden_SymbolMapping -->
<g id="edge30" class="edge">
<title>navigation&#45;&gt;hidden_SymbolMapping</title>
<path fill="none" stroke="#fb923c" stroke-width="1.3" stroke-dasharray="5,2" d="M131.86,-1188.21C154.46,-1317.08 284.61,-2051.59 320,-2083 343.86,-2104.17 376.94,-2113.34 407.99,-2116.73"/>
<polygon fill="#fb923c" stroke="#fb923c" stroke-width="1.3" points="408.03,-2119.55 416.26,-2117.5 408.55,-2113.97 408.03,-2119.55"/>
</g>
<!-- hidden_SymbolStorage -->
<g id="node32" class="node">
<title>hidden_SymbolStorage</title>
<path fill="#431407" stroke="#fb923c" d="M562.5,-2070C562.5,-2070 431.5,-2070 431.5,-2070 425.5,-2070 419.5,-2064 419.5,-2058 419.5,-2058 419.5,-2044 419.5,-2044 419.5,-2038 425.5,-2032 431.5,-2032 431.5,-2032 562.5,-2032 562.5,-2032 568.5,-2032 574.5,-2038 574.5,-2044 574.5,-2044 574.5,-2058 574.5,-2058 574.5,-2064 568.5,-2070 562.5,-2070"/>
<text text-anchor="middle" x="497" y="-2054.8" font-family="Segoe UI" font-size="14.00" fill="#e2e8f0">SymbolStorage</text>
<text text-anchor="middle" x="497" y="-2039.8" font-family="Segoe UI" font-size="14.00" fill="#e2e8f0">SymbolStoragePage</text>
</g>
<!-- navigation&#45;&gt;hidden_SymbolStorage -->
<g id="edge31" class="edge">
<title>navigation&#45;&gt;hidden_SymbolStorage</title>
<path fill="none" stroke="#fb923c" stroke-width="1.3" stroke-dasharray="5,2" d="M131.39,-1188.16C149.85,-1309.13 252.44,-1963.72 320,-2020 345.16,-2040.96 379.5,-2049.91 411.16,-2053.18"/>
<polygon fill="#fb923c" stroke="#fb923c" stroke-width="1.3" points="410.93,-2055.97 419.15,-2053.9 411.43,-2050.4 410.93,-2055.97"/>
</g>
<!-- hidden_IndexSubscription -->
<g id="node33" class="node">
<title>hidden_IndexSubscription</title>
<path fill="#431407" stroke="#fb923c" d="M573,-2007C573,-2007 421,-2007 421,-2007 415,-2007 409,-2001 409,-1995 409,-1995 409,-1981 409,-1981 409,-1975 415,-1969 421,-1969 421,-1969 573,-1969 573,-1969 579,-1969 585,-1975 585,-1981 585,-1981 585,-1995 585,-1995 585,-2001 579,-2007 573,-2007"/>
<text text-anchor="middle" x="497" y="-1991.8" font-family="Segoe UI" font-size="14.00" fill="#e2e8f0">IndexSubscription</text>
<text text-anchor="middle" x="497" y="-1976.8" font-family="Segoe UI" font-size="14.00" fill="#e2e8f0">IndexSubscriptionPage</text>
</g>
<!-- navigation&#45;&gt;hidden_IndexSubscription -->
<g id="edge32" class="edge">
<title>navigation&#45;&gt;hidden_IndexSubscription</title>
<path fill="none" stroke="#fb923c" stroke-width="1.3" stroke-dasharray="5,2" d="M130.14,-1188.17C140.04,-1298.68 195.47,-1853.26 320,-1957 342.44,-1975.7 372.18,-1984.83 400.82,-1988.91"/>
<polygon fill="#fb923c" stroke="#fb923c" stroke-width="1.3" points="400.57,-1991.71 408.86,-1989.94 401.27,-1986.15 400.57,-1991.71"/>
</g>
<!-- hidden_Options -->
<g id="node34" class="node">
<title>hidden_Options</title>
<path fill="#431407" stroke="#fb923c" d="M537,-1944C537,-1944 457,-1944 457,-1944 451,-1944 445,-1938 445,-1932 445,-1932 445,-1918 445,-1918 445,-1912 451,-1906 457,-1906 457,-1906 537,-1906 537,-1906 543,-1906 549,-1912 549,-1918 549,-1918 549,-1932 549,-1932 549,-1938 543,-1944 537,-1944"/>
<text text-anchor="middle" x="497" y="-1928.8" font-family="Segoe UI" font-size="14.00" fill="#e2e8f0">Options</text>
<text text-anchor="middle" x="497" y="-1913.8" font-family="Segoe UI" font-size="14.00" fill="#e2e8f0">OptionsPage</text>
</g>
<!-- navigation&#45;&gt;hidden_Options -->
<g id="edge33" class="edge">
<title>navigation&#45;&gt;hidden_Options</title>
<path fill="none" stroke="#fb923c" stroke-width="1.3" stroke-dasharray="5,2" d="M130.62,-1188.31C142.61,-1293.74 205.47,-1798.59 320,-1894 352.13,-1920.77 399.23,-1927.94 436.62,-1928.73"/>
<polygon fill="#fb923c" stroke="#fb923c" stroke-width="1.3" points="436.9,-1931.54 444.92,-1928.81 436.95,-1925.94 436.9,-1931.54"/>
</g>
<!-- hidden_Schedules -->
<g id="node35" class="node">
<title>hidden_Schedules</title>
<path fill="#431407" stroke="#fb923c" d="M572,-1881C572,-1881 422,-1881 422,-1881 416,-1881 410,-1875 410,-1869 410,-1869 410,-1855 410,-1855 410,-1849 416,-1843 422,-1843 422,-1843 572,-1843 572,-1843 578,-1843 584,-1849 584,-1855 584,-1855 584,-1869 584,-1869 584,-1875 578,-1881 572,-1881"/>
<text text-anchor="middle" x="497" y="-1865.8" font-family="Segoe UI" font-size="14.00" fill="#e2e8f0">Schedules</text>
<text text-anchor="middle" x="497" y="-1850.8" font-family="Segoe UI" font-size="14.00" fill="#e2e8f0">ScheduleManagerPage</text>
</g>
<!-- navigation&#45;&gt;hidden_Schedules -->
<g id="edge34" class="edge">
<title>navigation&#45;&gt;hidden_Schedules</title>
<path fill="none" stroke="#fb923c" stroke-width="1.3" stroke-dasharray="5,2" d="M131.16,-1188.22C145.33,-1287.8 215.32,-1743.79 320,-1831 342.66,-1849.88 372.76,-1859.01 401.65,-1863.03"/>
<polygon fill="#fb923c" stroke="#fb923c" stroke-width="1.3" points="401.48,-1865.83 409.76,-1864.03 402.16,-1860.27 401.48,-1865.83"/>
</g>
<!-- hidden_RunDetail -->
<g id="node36" class="node">
<title>hidden_RunDetail</title>
<path fill="#431407" stroke="#fb923c" d="M543,-1818C543,-1818 451,-1818 451,-1818 445,-1818 439,-1812 439,-1806 439,-1806 439,-1792 439,-1792 439,-1786 445,-1780 451,-1780 451,-1780 543,-1780 543,-1780 549,-1780 555,-1786 555,-1792 555,-1792 555,-1806 555,-1806 555,-1812 549,-1818 543,-1818"/>
<text text-anchor="middle" x="497" y="-1802.8" font-family="Segoe UI" font-size="14.00" fill="#e2e8f0">RunDetail</text>
<text text-anchor="middle" x="497" y="-1787.8" font-family="Segoe UI" font-size="14.00" fill="#e2e8f0">RunDetailPage</text>
</g>
<!-- navigation&#45;&gt;hidden_RunDetail -->
<g id="edge35" class="edge">
<title>navigation&#45;&gt;hidden_RunDetail</title>
<path fill="none" stroke="#fb923c" stroke-width="1.3" stroke-dasharray="5,2" d="M131.75,-1188.26C148.03,-1282.17 223.67,-1690.71 320,-1768 350.82,-1792.73 394.54,-1800.53 430.69,-1802.12"/>
<polygon fill="#fb923c" stroke="#fb923c" stroke-width="1.3" points="430.67,-1804.92 438.76,-1802.38 430.85,-1799.32 430.67,-1804.92"/>
</g>
<!-- hidden_RunPortfolio -->
<g id="node37" class="node">
<title>hidden_RunPortfolio</title>
<path fill="#431407" stroke="#fb923c" d="M552,-1755C552,-1755 442,-1755 442,-1755 436,-1755 430,-1749 430,-1743 430,-1743 430,-1729 430,-1729 430,-1723 436,-1717 442,-1717 442,-1717 552,-1717 552,-1717 558,-1717 564,-1723 564,-1729 564,-1729 564,-1743 564,-1743 564,-1749 558,-1755 552,-1755"/>
<text text-anchor="middle" x="497" y="-1739.8" font-family="Segoe UI" font-size="14.00" fill="#e2e8f0">RunPortfolio</text>
<text text-anchor="middle" x="497" y="-1724.8" font-family="Segoe UI" font-size="14.00" fill="#e2e8f0">RunPortfolioPage</text>
</g>
<!-- navigation&#45;&gt;hidden_RunPortfolio -->
<g id="edge36" class="edge">
<title>navigation&#45;&gt;hidden_RunPortfolio</title>
<path fill="none" stroke="#fb923c" stroke-width="1.3" stroke-dasharray="5,2" d="M128.71,-1188.09C130.72,-1266.7 149.63,-1567.59 320,-1705 348.28,-1727.81 387.52,-1736.24 421.77,-1738.67"/>
<polygon fill="#fb923c" stroke="#fb923c" stroke-width="1.3" points="421.76,-1741.47 429.91,-1739.14 422.08,-1735.88 421.76,-1741.47"/>
</g>
<!-- hidden_RunLedger -->
<g id="node38" class="node">
<title>hidden_RunLedger</title>
<path fill="#431407" stroke="#fb923c" d="M547.5,-1692C547.5,-1692 446.5,-1692 446.5,-1692 440.5,-1692 434.5,-1686 434.5,-1680 434.5,-1680 434.5,-1666 434.5,-1666 434.5,-1660 440.5,-1654 446.5,-1654 446.5,-1654 547.5,-1654 547.5,-1654 553.5,-1654 559.5,-1660 559.5,-1666 559.5,-1666 559.5,-1680 559.5,-1680 559.5,-1686 553.5,-1692 547.5,-1692"/>
<text text-anchor="middle" x="497" y="-1676.8" font-family="Segoe UI" font-size="14.00" fill="#e2e8f0">RunLedger</text>
<text text-anchor="middle" x="497" y="-1661.8" font-family="Segoe UI" font-size="14.00" fill="#e2e8f0">RunLedgerPage</text>
</g>
<!-- navigation&#45;&gt;hidden_RunLedger -->
<g id="edge37" class="edge">
<title>navigation&#45;&gt;hidden_RunLedger</title>
<path fill="none" stroke="#fb923c" stroke-width="1.3" stroke-dasharray="5,2" d="M129.84,-1188.2C136.02,-1260.86 168.36,-1520.97 320,-1642 349.52,-1665.56 390.77,-1673.73 425.91,-1675.81"/>
<polygon fill="#fb923c" stroke="#fb923c" stroke-width="1.3" points="426.11,-1678.62 434.23,-1676.19 426.37,-1673.03 426.11,-1678.62"/>
</g>
<!-- hidden_CollectionSessions -->
<g id="node39" class="node">
<title>hidden_CollectionSessions</title>
<path fill="#431407" stroke="#fb923c" d="M570,-1629C570,-1629 424,-1629 424,-1629 418,-1629 412,-1623 412,-1617 412,-1617 412,-1603 412,-1603 412,-1597 418,-1591 424,-1591 424,-1591 570,-1591 570,-1591 576,-1591 582,-1597 582,-1603 582,-1603 582,-1617 582,-1617 582,-1623 576,-1629 570,-1629"/>
<text text-anchor="middle" x="497" y="-1613.8" font-family="Segoe UI" font-size="14.00" fill="#e2e8f0">CollectionSessions</text>
<text text-anchor="middle" x="497" y="-1598.8" font-family="Segoe UI" font-size="14.00" fill="#e2e8f0">CollectionSessionPage</text>
</g>
<!-- navigation&#45;&gt;hidden_CollectionSessions -->
<g id="edge38" class="edge">
<title>navigation&#45;&gt;hidden_CollectionSessions</title>
<path fill="none" stroke="#fb923c" stroke-width="1.3" stroke-dasharray="5,2" d="M131.2,-1188.34C141.58,-1254.85 185.33,-1475.75 320,-1579 343.74,-1597.2 374.57,-1606.09 403.78,-1610.1"/>
<polygon fill="#fb923c" stroke="#fb923c" stroke-width="1.3" points="403.69,-1612.91 411.97,-1611.1 404.37,-1607.35 403.69,-1612.91"/>
</g>
<!-- hidden_ArchiveHealth -->
<g id="node40" class="node">
<title>hidden_ArchiveHealth</title>
<path fill="#431407" stroke="#fb923c" d="M558,-1566C558,-1566 436,-1566 436,-1566 430,-1566 424,-1560 424,-1554 424,-1554 424,-1540 424,-1540 424,-1534 430,-1528 436,-1528 436,-1528 558,-1528 558,-1528 564,-1528 570,-1534 570,-1540 570,-1540 570,-1554 570,-1554 570,-1560 564,-1566 558,-1566"/>
<text text-anchor="middle" x="497" y="-1550.8" font-family="Segoe UI" font-size="14.00" fill="#e2e8f0">ArchiveHealth</text>
<text text-anchor="middle" x="497" y="-1535.8" font-family="Segoe UI" font-size="14.00" fill="#e2e8f0">ArchiveHealthPage</text>
</g>
<!-- navigation&#45;&gt;hidden_ArchiveHealth -->
<g id="edge39" class="edge">
<title>navigation&#45;&gt;hidden_ArchiveHealth</title>
<path fill="none" stroke="#fb923c" stroke-width="1.3" stroke-dasharray="5,2" d="M132.9,-1188.29C147.62,-1248.02 201.03,-1430.99 320,-1516 347.46,-1535.62 383.36,-1544.17 415.57,-1547.5"/>
<polygon fill="#fb923c" stroke="#fb923c" stroke-width="1.3" points="415.45,-1550.3 423.68,-1548.24 415.96,-1544.73 415.45,-1550.3"/>
</g>
<!-- hidden_ServiceManager -->
<g id="node41" class="node">
<title>hidden_ServiceManager</title>
<path fill="#431407" stroke="#fb923c" d="M565.5,-1503C565.5,-1503 428.5,-1503 428.5,-1503 422.5,-1503 416.5,-1497 416.5,-1491 416.5,-1491 416.5,-1477 416.5,-1477 416.5,-1471 422.5,-1465 428.5,-1465 428.5,-1465 565.5,-1465 565.5,-1465 571.5,-1465 577.5,-1471 577.5,-1477 577.5,-1477 577.5,-1491 577.5,-1491 577.5,-1497 571.5,-1503 565.5,-1503"/>
<text text-anchor="middle" x="497" y="-1487.8" font-family="Segoe UI" font-size="14.00" fill="#e2e8f0">ServiceManager</text>
<text text-anchor="middle" x="497" y="-1472.8" font-family="Segoe UI" font-size="14.00" fill="#e2e8f0">ServiceManagerPage</text>
</g>
<!-- navigation&#45;&gt;hidden_ServiceManager -->
<g id="edge40" class="edge">
<title>navigation&#45;&gt;hidden_ServiceManager</title>
<path fill="none" stroke="#fb923c" stroke-width="1.3" stroke-dasharray="5,2" d="M135.23,-1188.1C154.68,-1240.25 216.26,-1385.63 320,-1453 345.92,-1469.83 378.31,-1478.26 408.21,-1482.27"/>
<polygon fill="#fb923c" stroke="#fb923c" stroke-width="1.3" points="407.88,-1485.05 416.16,-1483.24 408.56,-1479.49 407.88,-1485.05"/>
</g>
<!-- hidden_DataSampling -->
<g id="node42" class="node">
<title>hidden_DataSampling</title>
<path fill="#431407" stroke="#fb923c" d="M558.5,-1440C558.5,-1440 435.5,-1440 435.5,-1440 429.5,-1440 423.5,-1434 423.5,-1428 423.5,-1428 423.5,-1414 423.5,-1414 423.5,-1408 429.5,-1402 435.5,-1402 435.5,-1402 558.5,-1402 558.5,-1402 564.5,-1402 570.5,-1408 570.5,-1414 570.5,-1414 570.5,-1428 570.5,-1428 570.5,-1434 564.5,-1440 558.5,-1440"/>
<text text-anchor="middle" x="497" y="-1424.8" font-family="Segoe UI" font-size="14.00" fill="#e2e8f0">DataSampling</text>
<text text-anchor="middle" x="497" y="-1409.8" font-family="Segoe UI" font-size="14.00" fill="#e2e8f0">DataSamplingPage</text>
</g>
<!-- navigation&#45;&gt;hidden_DataSampling -->
<g id="edge41" class="edge">
<title>navigation&#45;&gt;hidden_DataSampling</title>
<path fill="none" stroke="#fb923c" stroke-width="1.3" stroke-dasharray="5,2" d="M138.93,-1188.25C163.8,-1232.14 231.22,-1339.69 320,-1390 348.62,-1406.22 383.72,-1414.32 415.03,-1418.25"/>
<polygon fill="#fb923c" stroke="#fb923c" stroke-width="1.3" points="415.05,-1421.07 423.32,-1419.2 415.7,-1415.5 415.05,-1421.07"/>
</g>
<!-- hidden_TimeSeriesAlignment -->
<g id="node43" class="node">
<title>hidden_TimeSeriesAlignment</title>
<path fill="#431407" stroke="#fb923c" d="M583.5,-1377C583.5,-1377 410.5,-1377 410.5,-1377 404.5,-1377 398.5,-1371 398.5,-1365 398.5,-1365 398.5,-1351 398.5,-1351 398.5,-1345 404.5,-1339 410.5,-1339 410.5,-1339 583.5,-1339 583.5,-1339 589.5,-1339 595.5,-1345 595.5,-1351 595.5,-1351 595.5,-1365 595.5,-1365 595.5,-1371 589.5,-1377 583.5,-1377"/>
<text text-anchor="middle" x="497" y="-1361.8" font-family="Segoe UI" font-size="14.00" fill="#e2e8f0">TimeSeriesAlignment</text>
<text text-anchor="middle" x="497" y="-1346.8" font-family="Segoe UI" font-size="14.00" fill="#e2e8f0">TimeSeriesAlignmentPage</text>
</g>
<!-- navigation&#45;&gt;hidden_TimeSeriesAlignment -->
<g id="edge42" class="edge">
<title>navigation&#45;&gt;hidden_TimeSeriesAlignment</title>
<path fill="none" stroke="#fb923c" stroke-width="1.3" stroke-dasharray="5,2" d="M145.29,-1188.25C176.17,-1222.28 245.63,-1292.71 320,-1327 341.77,-1337.04 366.43,-1343.84 390.25,-1348.45"/>
<polygon fill="#fb923c" stroke="#fb923c" stroke-width="1.3" points="389.92,-1351.23 398.3,-1349.93 390.94,-1345.73 389.92,-1351.23"/>
</g>
<!-- hidden_ExportPresets -->
<g id="node44" class="node">
<title>hidden_ExportPresets</title>
<path fill="#431407" stroke="#fb923c" d="M558,-1314C558,-1314 436,-1314 436,-1314 430,-1314 424,-1308 424,-1302 424,-1302 424,-1288 424,-1288 424,-1282 430,-1276 436,-1276 436,-1276 558,-1276 558,-1276 564,-1276 570,-1282 570,-1288 570,-1288 570,-1302 570,-1302 570,-1308 564,-1314 558,-1314"/>
<text text-anchor="middle" x="497" y="-1298.8" font-family="Segoe UI" font-size="14.00" fill="#e2e8f0">ExportPresets</text>
<text text-anchor="middle" x="497" y="-1283.8" font-family="Segoe UI" font-size="14.00" fill="#e2e8f0">ExportPresetsPage</text>
</g>
<!-- navigation&#45;&gt;hidden_ExportPresets -->
<g id="edge43" class="edge">
<title>navigation&#45;&gt;hidden_ExportPresets</title>
<path fill="none" stroke="#fb923c" stroke-width="1.3" stroke-dasharray="5,2" d="M159.83,-1188.06C196.8,-1209.71 260.77,-1244.54 320,-1264 350.58,-1274.05 385.27,-1281.04 415.72,-1285.81"/>
<polygon fill="#fb923c" stroke="#fb923c" stroke-width="1.3" points="415.45,-1288.6 423.78,-1287.03 416.29,-1283.06 415.45,-1288.6"/>
</g>
<!-- hidden_AnalysisExport -->
<g id="node45" class="node">
<title>hidden_AnalysisExport</title>
<path fill="#431407" stroke="#fb923c" d="M561.5,-1251C561.5,-1251 432.5,-1251 432.5,-1251 426.5,-1251 420.5,-1245 420.5,-1239 420.5,-1239 420.5,-1225 420.5,-1225 420.5,-1219 426.5,-1213 432.5,-1213 432.5,-1213 561.5,-1213 561.5,-1213 567.5,-1213 573.5,-1219 573.5,-1225 573.5,-1225 573.5,-1239 573.5,-1239 573.5,-1245 567.5,-1251 561.5,-1251"/>
<text text-anchor="middle" x="497" y="-1235.8" font-family="Segoe UI" font-size="14.00" fill="#e2e8f0">AnalysisExport</text>
<text text-anchor="middle" x="497" y="-1220.8" font-family="Segoe UI" font-size="14.00" fill="#e2e8f0">AnalysisExportPage</text>
</g>
<!-- navigation&#45;&gt;hidden_AnalysisExport -->
<g id="edge44" class="edge">
<title>navigation&#45;&gt;hidden_AnalysisExport</title>
<path fill="none" stroke="#fb923c" stroke-width="1.3" stroke-dasharray="5,2" d="M198.92,-1181.07C259.78,-1191.51 347.86,-1206.6 412.3,-1217.65"/>
<polygon fill="#fb923c" stroke="#fb923c" stroke-width="1.3" points="412.08,-1220.45 420.44,-1219.05 413.03,-1214.94 412.08,-1220.45"/>
</g>
<!-- hidden_AnalysisExportWizard -->
<g id="node46" class="node">
<title>hidden_AnalysisExportWizard</title>
<path fill="#431407" stroke="#fb923c" d="M585,-1188C585,-1188 409,-1188 409,-1188 403,-1188 397,-1182 397,-1176 397,-1176 397,-1162 397,-1162 397,-1156 403,-1150 409,-1150 409,-1150 585,-1150 585,-1150 591,-1150 597,-1156 597,-1162 597,-1162 597,-1176 597,-1176 597,-1182 591,-1188 585,-1188"/>
<text text-anchor="middle" x="497" y="-1172.8" font-family="Segoe UI" font-size="14.00" fill="#e2e8f0">AnalysisExportWizard</text>
<text text-anchor="middle" x="497" y="-1157.8" font-family="Segoe UI" font-size="14.00" fill="#e2e8f0">AnalysisExportWizardPage</text>
</g>
<!-- navigation&#45;&gt;hidden_AnalysisExportWizard -->
<g id="edge45" class="edge">
<title>navigation&#45;&gt;hidden_AnalysisExportWizard</title>
<path fill="none" stroke="#fb923c" stroke-width="1.3" stroke-dasharray="5,2" d="M198.92,-1169C252.58,-1169 327.38,-1169 388.51,-1169"/>
<polygon fill="#fb923c" stroke="#fb923c" stroke-width="1.3" points="388.65,-1171.8 396.65,-1169 388.65,-1166.2 388.65,-1171.8"/>
</g>
<!-- hidden_EventReplay -->
<g id="node47" class="node">
<title>hidden_EventReplay</title>
<path fill="#431407" stroke="#fb923c" d="M553,-1125C553,-1125 441,-1125 441,-1125 435,-1125 429,-1119 429,-1113 429,-1113 429,-1099 429,-1099 429,-1093 435,-1087 441,-1087 441,-1087 553,-1087 553,-1087 559,-1087 565,-1093 565,-1099 565,-1099 565,-1113 565,-1113 565,-1119 559,-1125 553,-1125"/>
<text text-anchor="middle" x="497" y="-1109.8" font-family="Segoe UI" font-size="14.00" fill="#e2e8f0">EventReplay</text>
<text text-anchor="middle" x="497" y="-1094.8" font-family="Segoe UI" font-size="14.00" fill="#e2e8f0">EventReplayPage</text>
</g>
<!-- navigation&#45;&gt;hidden_EventReplay -->
<g id="edge46" class="edge">
<title>navigation&#45;&gt;hidden_EventReplay</title>
<path fill="none" stroke="#fb923c" stroke-width="1.3" stroke-dasharray="5,2" d="M198.92,-1156.93C262.48,-1146.03 355.72,-1130.05 420.73,-1118.9"/>
<polygon fill="#fb923c" stroke="#fb923c" stroke-width="1.3" points="421.5,-1121.61 428.91,-1117.5 420.56,-1116.09 421.5,-1121.61"/>
</g>
<!-- hidden_AdvancedAnalytics -->
<g id="node48" class="node">
<title>hidden_AdvancedAnalytics</title>
<path fill="#431407" stroke="#fb923c" d="M575.5,-1062C575.5,-1062 418.5,-1062 418.5,-1062 412.5,-1062 406.5,-1056 406.5,-1050 406.5,-1050 406.5,-1036 406.5,-1036 406.5,-1030 412.5,-1024 418.5,-1024 418.5,-1024 575.5,-1024 575.5,-1024 581.5,-1024 587.5,-1030 587.5,-1036 587.5,-1036 587.5,-1050 587.5,-1050 587.5,-1056 581.5,-1062 575.5,-1062"/>
<text text-anchor="middle" x="497" y="-1046.8" font-family="Segoe UI" font-size="14.00" fill="#e2e8f0">AdvancedAnalytics</text>
<text text-anchor="middle" x="497" y="-1031.8" font-family="Segoe UI" font-size="14.00" fill="#e2e8f0">AdvancedAnalyticsPage</text>
</g>
<!-- navigation&#45;&gt;hidden_AdvancedAnalytics -->
<g id="edge47" class="edge">
<title>navigation&#45;&gt;hidden_AdvancedAnalytics</title>
<path fill="none" stroke="#fb923c" stroke-width="1.3" stroke-dasharray="5,2" d="M198.55,-1158.04C217.61,-1153.28 237.75,-1146.53 255,-1137 289.94,-1117.69 284.42,-1093.11 320,-1075 343.95,-1062.81 371.83,-1055.2 398.23,-1050.47"/>
<polygon fill="#fb923c" stroke="#fb923c" stroke-width="1.3" points="398.95,-1053.19 406.37,-1049.1 398.02,-1047.67 398.95,-1053.19"/>
</g>
<!-- hidden_DataCalendar -->
<g id="node49" class="node">
<title>hidden_DataCalendar</title>
<path fill="#431407" stroke="#fb923c" d="M557,-999C557,-999 437,-999 437,-999 431,-999 425,-993 425,-987 425,-987 425,-973 425,-973 425,-967 431,-961 437,-961 437,-961 557,-961 557,-961 563,-961 569,-967 569,-973 569,-973 569,-987 569,-987 569,-993 563,-999 557,-999"/>
<text text-anchor="middle" x="497" y="-983.8" font-family="Segoe UI" font-size="14.00" fill="#e2e8f0">DataCalendar</text>
<text text-anchor="middle" x="497" y="-968.8" font-family="Segoe UI" font-size="14.00" fill="#e2e8f0">DataCalendarPage</text>
</g>
<!-- navigation&#45;&gt;hidden_DataCalendar -->
<g id="edge48" class="edge">
<title>navigation&#45;&gt;hidden_DataCalendar</title>
<path fill="none" stroke="#fb923c" stroke-width="1.3" stroke-dasharray="5,2" d="M198.59,-1162.12C218.41,-1157.45 238.92,-1149.72 255,-1137 304.1,-1098.14 269.61,-1049.17 320,-1012 347.53,-991.69 383.96,-982.93 416.53,-979.55"/>
<polygon fill="#fb923c" stroke="#fb923c" stroke-width="1.3" points="417.01,-982.32 424.72,-978.8 416.5,-976.74 417.01,-982.32"/>
</g>
<!-- hidden_StorageOptimization -->
<g id="node50" class="node">
<title>hidden_StorageOptimization</title>
<path fill="#431407" stroke="#fb923c" d="M581,-936C581,-936 413,-936 413,-936 407,-936 401,-930 401,-924 401,-924 401,-910 401,-910 401,-904 407,-898 413,-898 413,-898 581,-898 581,-898 587,-898 593,-904 593,-910 593,-910 593,-924 593,-924 593,-930 587,-936 581,-936"/>
<text text-anchor="middle" x="497" y="-920.8" font-family="Segoe UI" font-size="14.00" fill="#e2e8f0">StorageOptimization</text>
<text text-anchor="middle" x="497" y="-905.8" font-family="Segoe UI" font-size="14.00" fill="#e2e8f0">StorageOptimizationPage</text>
</g>
<!-- navigation&#45;&gt;hidden_StorageOptimization -->
<g id="edge49" class="edge">
<title>navigation&#45;&gt;hidden_StorageOptimization</title>
<path fill="none" stroke="#fb923c" stroke-width="1.3" stroke-dasharray="5,2" d="M198.5,-1163.86C218.77,-1159.28 239.57,-1151.17 255,-1137 320.12,-1077.2 252.89,-1006.55 320,-949 340.19,-931.69 366.57,-922.37 392.73,-917.65"/>
<polygon fill="#fb923c" stroke="#fb923c" stroke-width="1.3" points="393.4,-920.38 400.84,-916.33 392.49,-914.85 393.4,-920.38"/>
</g>
<!-- hidden_RetentionAssurance -->
<g id="node51" class="node">
<title>hidden_RetentionAssurance</title>
<path fill="#431407" stroke="#fb923c" d="M579,-873C579,-873 415,-873 415,-873 409,-873 403,-867 403,-861 403,-861 403,-847 403,-847 403,-841 409,-835 415,-835 415,-835 579,-835 579,-835 585,-835 591,-841 591,-847 591,-847 591,-861 591,-861 591,-867 585,-873 579,-873"/>
<text text-anchor="middle" x="497" y="-857.8" font-family="Segoe UI" font-size="14.00" fill="#e2e8f0">RetentionAssurance</text>
<text text-anchor="middle" x="497" y="-842.8" font-family="Segoe UI" font-size="14.00" fill="#e2e8f0">RetentionAssurancePage</text>
</g>
<!-- navigation&#45;&gt;hidden_RetentionAssurance -->
<g id="edge50" class="edge">
<title>navigation&#45;&gt;hidden_RetentionAssurance</title>
<path fill="none" stroke="#fb923c" stroke-width="1.3" stroke-dasharray="5,2" d="M198.72,-1164.92C219.24,-1160.41 240.13,-1152.08 255,-1137 335.92,-1054.96 234.45,-963.21 320,-886 340.46,-867.54 367.88,-858.03 394.98,-853.48"/>
<polygon fill="#fb923c" stroke="#fb923c" stroke-width="1.3" points="395.5,-856.24 402.99,-852.28 394.67,-850.7 395.5,-856.24"/>
</g>
<!-- hidden_MessagingHub -->
<g id="node52" class="node">
<title>hidden_MessagingHub</title>
<path fill="#431407" stroke="#fb923c" d="M561,-810C561,-810 433,-810 433,-810 427,-810 421,-804 421,-798 421,-798 421,-784 421,-784 421,-778 427,-772 433,-772 433,-772 561,-772 561,-772 567,-772 573,-778 573,-784 573,-784 573,-798 573,-798 573,-804 567,-810 561,-810"/>
<text text-anchor="middle" x="497" y="-794.8" font-family="Segoe UI" font-size="14.00" fill="#e2e8f0">MessagingHub</text>
<text text-anchor="middle" x="497" y="-779.8" font-family="Segoe UI" font-size="14.00" fill="#e2e8f0">MessagingHubPage</text>
</g>
<!-- navigation&#45;&gt;hidden_MessagingHub -->
<g id="edge51" class="edge">
<title>navigation&#45;&gt;hidden_MessagingHub</title>
<path fill="none" stroke="#fb923c" stroke-width="1.3" stroke-dasharray="5,2" d="M198.72,-1165.69C219.49,-1161.25 240.52,-1152.77 255,-1137 303.2,-1084.52 266.77,-870.37 320,-823 345.02,-800.73 380.2,-791.55 412.54,-788.37"/>
<polygon fill="#fb923c" stroke="#fb923c" stroke-width="1.3" points="412.95,-791.15 420.69,-787.69 412.49,-785.57 412.95,-791.15"/>
</g>
<!-- hidden_ResearchShell -->
<g id="node53" class="node">
<title>hidden_ResearchShell</title>
<path fill="#431407" stroke="#fb923c" d="M596,-747C596,-747 398,-747 398,-747 392,-747 386,-741 386,-735 386,-735 386,-721 386,-721 386,-715 392,-709 398,-709 398,-709 596,-709 596,-709 602,-709 608,-715 608,-721 608,-721 608,-735 608,-735 608,-741 602,-747 596,-747"/>
<text text-anchor="middle" x="497" y="-731.8" font-family="Segoe UI" font-size="14.00" fill="#e2e8f0">ResearchShell</text>
<text text-anchor="middle" x="497" y="-716.8" font-family="Segoe UI" font-size="14.00" fill="#e2e8f0">ResearchWorkspaceShellPage</text>
</g>
<!-- navigation&#45;&gt;hidden_ResearchShell -->
<g id="edge52" class="edge">
<title>navigation&#45;&gt;hidden_ResearchShell</title>
<path fill="none" stroke="#fb923c" stroke-width="1.3" stroke-dasharray="5,2" d="M198.54,-1165.89C219.42,-1161.48 240.56,-1152.96 255,-1137 312.03,-1073.95 258.94,-819.15 320,-760 335.79,-744.7 356.31,-735.42 377.74,-729.99"/>
<polygon fill="#fb923c" stroke="#fb923c" stroke-width="1.3" points="378.5,-732.69 385.67,-728.16 377.24,-727.23 378.5,-732.69"/>
</g>
<!-- hidden_TradingShell -->
<g id="node54" class="node">
<title>hidden_TradingShell</title>
<path fill="#431407" stroke="#fb923c" d="M590.5,-684C590.5,-684 403.5,-684 403.5,-684 397.5,-684 391.5,-678 391.5,-672 391.5,-672 391.5,-658 391.5,-658 391.5,-652 397.5,-646 403.5,-646 403.5,-646 590.5,-646 590.5,-646 596.5,-646 602.5,-652 602.5,-658 602.5,-658 602.5,-672 602.5,-672 602.5,-678 596.5,-684 590.5,-684"/>
<text text-anchor="middle" x="497" y="-668.8" font-family="Segoe UI" font-size="14.00" fill="#e2e8f0">TradingShell</text>
<text text-anchor="middle" x="497" y="-653.8" font-family="Segoe UI" font-size="14.00" fill="#e2e8f0">TradingWorkspaceShellPage</text>
</g>
<!-- navigation&#45;&gt;hidden_TradingShell -->
<g id="edge53" class="edge">
<title>navigation&#45;&gt;hidden_TradingShell</title>
<path fill="none" stroke="#fb923c" stroke-width="1.3" stroke-dasharray="5,2" d="M198.82,-1166.14C219.72,-1161.75 240.8,-1153.17 255,-1137 320.21,-1062.72 249.06,-765.83 320,-697 337.12,-680.39 359.82,-670.86 383.2,-665.67"/>
<polygon fill="#fb923c" stroke="#fb923c" stroke-width="1.3" points="383.85,-668.39 391.14,-664.07 382.75,-662.9 383.85,-668.39"/>
</g>
<!-- hidden_Workspaces -->
<g id="node55" class="node">
<title>hidden_Workspaces</title>
<path fill="#431407" stroke="#fb923c" d="M547.5,-621C547.5,-621 446.5,-621 446.5,-621 440.5,-621 434.5,-615 434.5,-609 434.5,-609 434.5,-595 434.5,-595 434.5,-589 440.5,-583 446.5,-583 446.5,-583 547.5,-583 547.5,-583 553.5,-583 559.5,-589 559.5,-595 559.5,-595 559.5,-609 559.5,-609 559.5,-615 553.5,-621 547.5,-621"/>
<text text-anchor="middle" x="497" y="-605.8" font-family="Segoe UI" font-size="14.00" fill="#e2e8f0">Workspaces</text>
<text text-anchor="middle" x="497" y="-590.8" font-family="Segoe UI" font-size="14.00" fill="#e2e8f0">WorkspacePage</text>
</g>
<!-- navigation&#45;&gt;hidden_Workspaces -->
<g id="edge54" class="edge">
<title>navigation&#45;&gt;hidden_Workspaces</title>
<path fill="none" stroke="#fb923c" stroke-width="1.3" stroke-dasharray="5,2" d="M198.71,-1166.4C219.73,-1162.04 240.91,-1153.42 255,-1137 328.39,-1051.46 238.48,-711.83 320,-634 347.88,-607.38 390.1,-599.05 426.19,-597.54"/>
<polygon fill="#fb923c" stroke="#fb923c" stroke-width="1.3" points="426.35,-600.33 434.27,-597.3 426.19,-594.73 426.35,-600.33"/>
</g>
<!-- hidden_NotificationCenter -->
<g id="node56" class="node">
<title>hidden_NotificationCenter</title>
<path fill="#431407" stroke="#fb923c" d="M572.5,-558C572.5,-558 421.5,-558 421.5,-558 415.5,-558 409.5,-552 409.5,-546 409.5,-546 409.5,-532 409.5,-532 409.5,-526 415.5,-520 421.5,-520 421.5,-520 572.5,-520 572.5,-520 578.5,-520 584.5,-526 584.5,-532 584.5,-532 584.5,-546 584.5,-546 584.5,-552 578.5,-558 572.5,-558"/>
<text text-anchor="middle" x="497" y="-542.8" font-family="Segoe UI" font-size="14.00" fill="#e2e8f0">NotificationCenter</text>
<text text-anchor="middle" x="497" y="-527.8" font-family="Segoe UI" font-size="14.00" fill="#e2e8f0">NotificationCenterPage</text>
</g>
<!-- navigation&#45;&gt;hidden_NotificationCenter -->
<g id="edge55" class="edge">
<title>navigation&#45;&gt;hidden_NotificationCenter</title>
<path fill="none" stroke="#fb923c" stroke-width="1.3" stroke-dasharray="5,2" d="M198.53,-1166.59C219.67,-1162.27 240.97,-1153.61 255,-1137 336.7,-1040.28 227.61,-657.56 320,-571 341.75,-550.62 371.93,-541.02 401.16,-536.99"/>
<polygon fill="#fb923c" stroke="#fb923c" stroke-width="1.3" points="401.77,-539.74 409.37,-536 401.1,-534.18 401.77,-539.74"/>
</g>
<!-- hidden_Help -->
<g id="node57" class="node">
<title>hidden_Help</title>
<path fill="#431407" stroke="#fb923c" d="M525.5,-495C525.5,-495 468.5,-495 468.5,-495 462.5,-495 456.5,-489 456.5,-483 456.5,-483 456.5,-469 456.5,-469 456.5,-463 462.5,-457 468.5,-457 468.5,-457 525.5,-457 525.5,-457 531.5,-457 537.5,-463 537.5,-469 537.5,-469 537.5,-483 537.5,-483 537.5,-489 531.5,-495 525.5,-495"/>
<text text-anchor="middle" x="497" y="-479.8" font-family="Segoe UI" font-size="14.00" fill="#e2e8f0">Help</text>
<text text-anchor="middle" x="497" y="-464.8" font-family="Segoe UI" font-size="14.00" fill="#e2e8f0">HelpPage</text>
</g>
<!-- navigation&#45;&gt;hidden_Help -->
<g id="edge56" class="edge">
<title>navigation&#45;&gt;hidden_Help</title>
<path fill="none" stroke="#fb923c" stroke-width="1.3" stroke-dasharray="5,2" d="M198.63,-1166.68C219.78,-1162.36 241.06,-1153.69 255,-1137 345.1,-1029.17 216.73,-603.3 320,-508 354.3,-476.34 409,-470.83 448.31,-471.67"/>
<polygon fill="#fb923c" stroke="#fb923c" stroke-width="1.3" points="448.37,-474.47 456.46,-471.94 448.55,-468.88 448.37,-474.47"/>
</g>
<!-- hidden_Welcome -->
<g id="node58" class="node">
<title>hidden_Welcome</title>
<path fill="#431407" stroke="#fb923c" d="M541,-432C541,-432 453,-432 453,-432 447,-432 441,-426 441,-420 441,-420 441,-406 441,-406 441,-400 447,-394 453,-394 453,-394 541,-394 541,-394 547,-394 553,-400 553,-406 553,-406 553,-420 553,-420 553,-426 547,-432 541,-432"/>
<text text-anchor="middle" x="497" y="-416.8" font-family="Segoe UI" font-size="14.00" fill="#e2e8f0">Welcome</text>
<text text-anchor="middle" x="497" y="-401.8" font-family="Segoe UI" font-size="14.00" fill="#e2e8f0">WelcomePage</text>
</g>
<!-- navigation&#45;&gt;hidden_Welcome -->
<g id="edge57" class="edge">
<title>navigation&#45;&gt;hidden_Welcome</title>
<path fill="none" stroke="#fb923c" stroke-width="1.3" stroke-dasharray="5,2" d="M198.71,-1166.74C219.86,-1162.43 241.12,-1153.74 255,-1137 296.63,-1086.78 280.34,-615.36 291,-551 298.98,-502.81 283.99,-478 320,-445 350.01,-417.5 395.44,-409.77 432.62,-408.78"/>
<polygon fill="#fb923c" stroke="#fb923c" stroke-width="1.3" points="432.94,-411.57 440.9,-408.66 432.87,-405.97 432.94,-411.57"/>
</g>
<!-- hidden_CredentialManagement -->
<g id="node59" class="node">
<title>hidden_CredentialManagement</title>
<path fill="#431407" stroke="#fb923c" d="M590.5,-369C590.5,-369 403.5,-369 403.5,-369 397.5,-369 391.5,-363 391.5,-357 391.5,-357 391.5,-343 391.5,-343 391.5,-337 397.5,-331 403.5,-331 403.5,-331 590.5,-331 590.5,-331 596.5,-331 602.5,-337 602.5,-343 602.5,-343 602.5,-357 602.5,-357 602.5,-363 596.5,-369 590.5,-369"/>
<text text-anchor="middle" x="497" y="-353.8" font-family="Segoe UI" font-size="14.00" fill="#e2e8f0">CredentialManagement</text>
<text text-anchor="middle" x="497" y="-338.8" font-family="Segoe UI" font-size="14.00" fill="#e2e8f0">CredentialManagementPage</text>
</g>
<!-- navigation&#45;&gt;hidden_CredentialManagement -->
<g id="edge58" class="edge">
<title>navigation&#45;&gt;hidden_CredentialManagement</title>
<path fill="none" stroke="#fb923c" stroke-width="1.3" stroke-dasharray="5,2" d="M198.72,-1166.75C219.87,-1162.44 241.13,-1153.75 255,-1137 308.7,-1072.15 260.38,-441.45 320,-382 336.99,-365.06 359.76,-355.43 383.27,-350.24"/>
<polygon fill="#fb923c" stroke="#fb923c" stroke-width="1.3" points="383.96,-352.95 391.26,-348.64 382.87,-347.46 383.96,-352.95"/>
</g>
<!-- hidden_KeyboardShortcuts -->
<g id="node60" class="node">
<title>hidden_KeyboardShortcuts</title>
<path fill="#431407" stroke="#fb923c" d="M575.5,-306C575.5,-306 418.5,-306 418.5,-306 412.5,-306 406.5,-300 406.5,-294 406.5,-294 406.5,-280 406.5,-280 406.5,-274 412.5,-268 418.5,-268 418.5,-268 575.5,-268 575.5,-268 581.5,-268 587.5,-274 587.5,-280 587.5,-280 587.5,-294 587.5,-294 587.5,-300 581.5,-306 575.5,-306"/>
<text text-anchor="middle" x="497" y="-290.8" font-family="Segoe UI" font-size="14.00" fill="#e2e8f0">KeyboardShortcuts</text>
<text text-anchor="middle" x="497" y="-275.8" font-family="Segoe UI" font-size="14.00" fill="#e2e8f0">KeyboardShortcutsPage</text>
</g>
<!-- navigation&#45;&gt;hidden_KeyboardShortcuts -->
<g id="edge59" class="edge">
<title>navigation&#45;&gt;hidden_KeyboardShortcuts</title>
<path fill="none" stroke="#fb923c" stroke-width="1.3" stroke-dasharray="5,2" d="M198.74,-1166.77C219.9,-1162.46 241.15,-1153.76 255,-1137 313.08,-1066.71 256.67,-384.59 320,-319 340.31,-297.96 369.48,-288.07 398.26,-283.97"/>
<polygon fill="#fb923c" stroke="#fb923c" stroke-width="1.3" points="398.76,-286.73 406.36,-282.97 398.07,-281.18 398.76,-286.73"/>
</g>
<!-- hidden_SetupWizard -->
<g id="node61" class="node">
<title>hidden_SetupWizard</title>
<path fill="#431407" stroke="#fb923c" d="M553.5,-243C553.5,-243 440.5,-243 440.5,-243 434.5,-243 428.5,-237 428.5,-231 428.5,-231 428.5,-217 428.5,-217 428.5,-211 434.5,-205 440.5,-205 440.5,-205 553.5,-205 553.5,-205 559.5,-205 565.5,-211 565.5,-217 565.5,-217 565.5,-231 565.5,-231 565.5,-237 559.5,-243 553.5,-243"/>
<text text-anchor="middle" x="497" y="-227.8" font-family="Segoe UI" font-size="14.00" fill="#e2e8f0">SetupWizard</text>
<text text-anchor="middle" x="497" y="-212.8" font-family="Segoe UI" font-size="14.00" fill="#e2e8f0">SetupWizardPage</text>
</g>
<!-- navigation&#45;&gt;hidden_SetupWizard -->
<g id="edge60" class="edge">
<title>navigation&#45;&gt;hidden_SetupWizard</title>
<path fill="none" stroke="#fb923c" stroke-width="1.3" stroke-dasharray="5,2" d="M198.8,-1166.82C219.96,-1162.51 241.2,-1153.81 255,-1137 317.3,-1061.15 251.67,-326.46 320,-256 345.52,-229.68 384.92,-220.83 419.98,-218.94"/>
<polygon fill="#fb923c" stroke="#fb923c" stroke-width="1.3" points="420.44,-221.72 428.32,-218.61 420.22,-216.12 420.44,-221.72"/>
</g>
<!-- hidden_AddProviderWizard -->
<g id="node62" class="node">
<title>hidden_AddProviderWizard</title>
<path fill="#431407" stroke="#fb923c" d="M575.5,-180C575.5,-180 418.5,-180 418.5,-180 412.5,-180 406.5,-174 406.5,-168 406.5,-168 406.5,-154 406.5,-154 406.5,-148 412.5,-142 418.5,-142 418.5,-142 575.5,-142 575.5,-142 581.5,-142 587.5,-148 587.5,-154 587.5,-154 587.5,-168 587.5,-168 587.5,-174 581.5,-180 575.5,-180"/>
<text text-anchor="middle" x="497" y="-164.8" font-family="Segoe UI" font-size="14.00" fill="#e2e8f0">AddProviderWizard</text>
<text text-anchor="middle" x="497" y="-149.8" font-family="Segoe UI" font-size="14.00" fill="#e2e8f0">AddProviderWizardPage</text>
</g>
<!-- navigation&#45;&gt;hidden_AddProviderWizard -->
<g id="edge61" class="edge">
<title>navigation&#45;&gt;hidden_AddProviderWizard</title>
<path fill="none" stroke="#fb923c" stroke-width="1.3" stroke-dasharray="5,2" d="M198.52,-1166.92C219.79,-1162.64 241.17,-1153.93 255,-1137 321.53,-1055.59 246.57,-268.24 320,-193 340.42,-172.07 369.63,-162.21 398.39,-158.11"/>
<polygon fill="#fb923c" stroke="#fb923c" stroke-width="1.3" points="398.9,-160.87 406.49,-157.1 398.2,-155.31 398.9,-160.87"/>
</g>
<!-- hidden_ActivityLog -->
<g id="node63" class="node">
<title>hidden_ActivityLog</title>
<path fill="#431407" stroke="#fb923c" d="M547.5,-117C547.5,-117 446.5,-117 446.5,-117 440.5,-117 434.5,-111 434.5,-105 434.5,-105 434.5,-91 434.5,-91 434.5,-85 440.5,-79 446.5,-79 446.5,-79 547.5,-79 547.5,-79 553.5,-79 559.5,-85 559.5,-91 559.5,-91 559.5,-105 559.5,-105 559.5,-111 553.5,-117 547.5,-117"/>
<text text-anchor="middle" x="497" y="-101.8" font-family="Segoe UI" font-size="14.00" fill="#e2e8f0">ActivityLog</text>
<text text-anchor="middle" x="497" y="-86.8" font-family="Segoe UI" font-size="14.00" fill="#e2e8f0">ActivityLogPage</text>
</g>
<!-- navigation&#45;&gt;hidden_ActivityLog -->
<g id="edge62" class="edge">
<title>navigation&#45;&gt;hidden_ActivityLog</title>
<path fill="none" stroke="#fb923c" stroke-width="1.3" stroke-dasharray="5,2" d="M198.56,-1166.96C219.83,-1162.67 241.2,-1153.95 255,-1137 325.78,-1050.04 241.38,-209.94 320,-130 347.23,-102.31 389.85,-94.04 426.33,-92.82"/>
<polygon fill="#fb923c" stroke="#fb923c" stroke-width="1.3" points="426.55,-95.62 434.49,-92.66 426.44,-90.02 426.55,-95.62"/>
</g>
<!-- hidden_SecurityMaster -->
<g id="node64" class="node">
<title>hidden_SecurityMaster</title>
<path fill="#431407" stroke="#fb923c" d="M562,-54C562,-54 432,-54 432,-54 426,-54 420,-48 420,-42 420,-42 420,-28 420,-28 420,-22 426,-16 432,-16 432,-16 562,-16 562,-16 568,-16 574,-22 574,-28 574,-28 574,-42 574,-42 574,-48 568,-54 562,-54"/>
<text text-anchor="middle" x="497" y="-38.8" font-family="Segoe UI" font-size="14.00" fill="#e2e8f0">SecurityMaster</text>
<text text-anchor="middle" x="497" y="-23.8" font-family="Segoe UI" font-size="14.00" fill="#e2e8f0">SecurityMasterPage</text>
</g>
<!-- navigation&#45;&gt;hidden_SecurityMaster -->
<g id="edge63" class="edge">
<title>navigation&#45;&gt;hidden_SecurityMaster</title>
<path fill="none" stroke="#fb923c" stroke-width="1.3" stroke-dasharray="5,2" d="M198.59,-1166.99C219.87,-1162.7 241.23,-1153.98 255,-1137 330.02,-1044.49 236.03,-151.47 320,-67 343.72,-43.14 378.87,-33.75 411.54,-30.84"/>
<polygon fill="#fb923c" stroke="#fb923c" stroke-width="1.3" points="412.01,-33.62 419.79,-30.24 411.6,-28.03 412.01,-33.62"/>
</g>
<!-- page_Dashboard -->
<g id="node5" class="node">
<title>page_Dashboard</title>
<path fill="#1e293b" stroke="#475569" d="M1005.5,-2351C1005.5,-2351 808.5,-2351 808.5,-2351 802.5,-2351 796.5,-2345 796.5,-2339 796.5,-2339 796.5,-2325 796.5,-2325 796.5,-2319 802.5,-2313 808.5,-2313 808.5,-2313 1005.5,-2313 1005.5,-2313 1011.5,-2313 1017.5,-2319 1017.5,-2325 1017.5,-2325 1017.5,-2339 1017.5,-2339 1017.5,-2345 1011.5,-2351 1005.5,-2351"/>
<text text-anchor="middle" x="907" y="-2335.8" font-family="Segoe UI" font-size="14.00" fill="#e2e8f0">Dashboard</text>
<text text-anchor="middle" x="907" y="-2320.8" font-family="Segoe UI" font-size="14.00" fill="#e2e8f0">Dashboard → DashboardPage</text>
</g>
<!-- workspace_1&#45;&gt;page_Dashboard -->
<g id="edge3" class="edge">
<title>workspace_1&#45;&gt;page_Dashboard</title>
<path fill="none" stroke="#94a3b8" stroke-width="1.3" d="M498.85,-2973.74C503.77,-2887.01 536.15,-2529.74 739,-2364 753.3,-2352.31 770.59,-2344.43 788.54,-2339.19"/>
<polygon fill="#94a3b8" stroke="#94a3b8" stroke-width="1.3" points="789.28,-2341.89 796.27,-2337.1 787.82,-2336.48 789.28,-2341.89"/>
</g>
<!-- page_LiveData -->
<g id="node6" class="node">
<title>page_LiveData</title>
<path fill="#1e293b" stroke="#475569" d="M1013.5,-2414C1013.5,-2414 800.5,-2414 800.5,-2414 794.5,-2414 788.5,-2408 788.5,-2402 788.5,-2402 788.5,-2388 788.5,-2388 788.5,-2382 794.5,-2376 800.5,-2376 800.5,-2376 1013.5,-2376 1013.5,-2376 1019.5,-2376 1025.5,-2382 1025.5,-2388 1025.5,-2388 1025.5,-2402 1025.5,-2402 1025.5,-2408 1019.5,-2414 1013.5,-2414"/>
<text text-anchor="middle" x="907" y="-2398.8" font-family="Segoe UI" font-size="14.00" fill="#e2e8f0">LiveData</text>
<text text-anchor="middle" x="907" y="-2383.8" font-family="Segoe UI" font-size="14.00" fill="#e2e8f0">LiveData → LiveDataViewerPage</text>
</g>
<!-- workspace_1&#45;&gt;page_LiveData -->
<g id="edge4" class="edge">
<title>workspace_1&#45;&gt;page_LiveData</title>
<path fill="none" stroke="#94a3b8" stroke-width="1.3" d="M499.83,-2973.85C508.64,-2892.89 554.25,-2576.03 739,-2427 751.13,-2417.21 765.36,-2410.1 780.31,-2404.98"/>
<polygon fill="#94a3b8" stroke="#94a3b8" stroke-width="1.3" points="781.41,-2407.57 788.18,-2402.48 779.71,-2402.23 781.41,-2407.57"/>
</g>
<!-- page_Charts -->
<g id="node7" class="node">
<title>page_Charts</title>
<path fill="#1e293b" stroke="#475569" d="M983,-2477C983,-2477 831,-2477 831,-2477 825,-2477 819,-2471 819,-2465 819,-2465 819,-2451 819,-2451 819,-2445 825,-2439 831,-2439 831,-2439 983,-2439 983,-2439 989,-2439 995,-2445 995,-2451 995,-2451 995,-2465 995,-2465 995,-2471 989,-2477 983,-2477"/>
<text text-anchor="middle" x="907" y="-2461.8" font-family="Segoe UI" font-size="14.00" fill="#e2e8f0">Charts</text>
<text text-anchor="middle" x="907" y="-2446.8" font-family="Segoe UI" font-size="14.00" fill="#e2e8f0">Charts → ChartingPage</text>
</g>
<!-- workspace_1&#45;&gt;page_Charts -->
<g id="edge5" class="edge">
<title>workspace_1&#45;&gt;page_Charts</title>
<path fill="none" stroke="#94a3b8" stroke-width="1.3" d="M500.9,-2973.93C513.43,-2898.69 570.08,-2620.2 739,-2490 759.36,-2474.31 785.19,-2465.59 810.41,-2460.91"/>
<polygon fill="#94a3b8" stroke="#94a3b8" stroke-width="1.3" points="811.15,-2463.63 818.58,-2459.53 810.22,-2458.11 811.15,-2463.63"/>
</g>
<!-- page_RunMat -->
<g id="node8" class="node">
<title>page_RunMat</title>
<path fill="#1e293b" stroke="#475569" d="M983,-2540C983,-2540 831,-2540 831,-2540 825,-2540 819,-2534 819,-2528 819,-2528 819,-2514 819,-2514 819,-2508 825,-2502 831,-2502 831,-2502 983,-2502 983,-2502 989,-2502 995,-2508 995,-2514 995,-2514 995,-2528 995,-2528 995,-2534 989,-2540 983,-2540"/>
<text text-anchor="middle" x="907" y="-2524.8" font-family="Segoe UI" font-size="14.00" fill="#e2e8f0">RunMat</text>
<text text-anchor="middle" x="907" y="-2509.8" font-family="Segoe UI" font-size="14.00" fill="#e2e8f0">RunMat → RunMatPage</text>
</g>
<!-- workspace_1&#45;&gt;page_RunMat -->
<g id="edge6" class="edge">
<title>workspace_1&#45;&gt;page_RunMat</title>
<path fill="none" stroke="#94a3b8" stroke-width="1.3" d="M502.32,-2973.71C518.98,-2904.15 585.88,-2664.53 739,-2553 759.67,-2537.94 785.47,-2529.41 810.57,-2524.72"/>
<polygon fill="#94a3b8" stroke="#94a3b8" stroke-width="1.3" points="811.27,-2527.44 818.68,-2523.32 810.33,-2521.92 811.27,-2527.44"/>
</g>
<!-- page_StrategyRuns -->
<g id="node9" class="node">
<title>page_StrategyRuns</title>
<path fill="#1e293b" stroke="#475569" d="M1024,-2603C1024,-2603 790,-2603 790,-2603 784,-2603 778,-2597 778,-2591 778,-2591 778,-2577 778,-2577 778,-2571 784,-2565 790,-2565 790,-2565 1024,-2565 1024,-2565 1030,-2565 1036,-2571 1036,-2577 1036,-2577 1036,-2591 1036,-2591 1036,-2597 1030,-2603 1024,-2603"/>
<text text-anchor="middle" x="907" y="-2587.8" font-family="Segoe UI" font-size="14.00" fill="#e2e8f0">StrategyRuns</text>
<text text-anchor="middle" x="907" y="-2572.8" font-family="Segoe UI" font-size="14.00" fill="#e2e8f0">StrategyRuns → StrategyRunsPage</text>
</g>
<!-- workspace_1&#45;&gt;page_StrategyRuns -->
<g id="edge7" class="edge">
<title>workspace_1&#45;&gt;page_StrategyRuns</title>
<path fill="none" stroke="#94a3b8" stroke-width="1.3" d="M502.69,-2973.59C521.57,-2908.44 597.85,-2699.67 739,-2604 748.53,-2597.54 759.03,-2592.31 769.99,-2588.12"/>
<polygon fill="#94a3b8" stroke="#94a3b8" stroke-width="1.3" points="771.05,-2590.71 777.64,-2585.38 769.17,-2585.44 771.05,-2590.71"/>
</g>
<!-- workspace_1&#45;&gt;page_StrategyRuns -->
<g id="edge11" class="edge">
<title>workspace_1&#45;&gt;page_StrategyRuns</title>
<path fill="none" stroke="#94a3b8" stroke-width="1.3" d="M506.13,-2973.8C529.75,-2911.87 605.25,-2719.66 739,-2629 755.5,-2617.81 774.92,-2610.3 794.57,-2605.07"/>
<polygon fill="#94a3b8" stroke="#94a3b8" stroke-width="1.3" points="795.32,-2607.77 802.4,-2603.1 793.96,-2602.33 795.32,-2607.77"/>
</g>
<!-- page_OrderBook -->
<g id="node10" class="node">
<title>page_OrderBook</title>
<path fill="#1e293b" stroke="#475569" d="M1004.5,-2666C1004.5,-2666 809.5,-2666 809.5,-2666 803.5,-2666 797.5,-2660 797.5,-2654 797.5,-2654 797.5,-2640 797.5,-2640 797.5,-2634 803.5,-2628 809.5,-2628 809.5,-2628 1004.5,-2628 1004.5,-2628 1010.5,-2628 1016.5,-2634 1016.5,-2640 1016.5,-2640 1016.5,-2654 1016.5,-2654 1016.5,-2660 1010.5,-2666 1004.5,-2666"/>
<text text-anchor="middle" x="907" y="-2650.8" font-family="Segoe UI" font-size="14.00" fill="#e2e8f0">OrderBook</text>
<text text-anchor="middle" x="907" y="-2635.8" font-family="Segoe UI" font-size="14.00" fill="#e2e8f0">OrderBook → OrderBookPage</text>
</g>
<!-- workspace_1&#45;&gt;page_OrderBook -->
<g id="edge8" class="edge">
<title>workspace_1&#45;&gt;page_OrderBook</title>
<path fill="none" stroke="#94a3b8" stroke-width="1.3" d="M516.61,-2973.95C554.68,-2934.35 642.95,-2839.3 703,-2749 722.37,-2719.87 710.99,-2699.96 739,-2679 753.79,-2667.93 771.32,-2660.36 789.37,-2655.24"/>
<polygon fill="#94a3b8" stroke="#94a3b8" stroke-width="1.3" points="790.11,-2657.94 797.14,-2653.2 788.69,-2652.53 790.11,-2657.94"/>
</g>
<!-- page_Watchlist -->
<g id="node11" class="node">
<title>page_Watchlist</title>
<path fill="#1e293b" stroke="#475569" d="M993.5,-2729C993.5,-2729 820.5,-2729 820.5,-2729 814.5,-2729 808.5,-2723 808.5,-2717 808.5,-2717 808.5,-2703 808.5,-2703 808.5,-2697 814.5,-2691 820.5,-2691 820.5,-2691 993.5,-2691 993.5,-2691 999.5,-2691 1005.5,-2697 1005.5,-2703 1005.5,-2703 1005.5,-2717 1005.5,-2717 1005.5,-2723 999.5,-2729 993.5,-2729"/>
<text text-anchor="middle" x="907" y="-2713.8" font-family="Segoe UI" font-size="14.00" fill="#e2e8f0">Watchlist</text>
<text text-anchor="middle" x="907" y="-2698.8" font-family="Segoe UI" font-size="14.00" fill="#e2e8f0">Watchlist → WatchlistPage</text>
</g>
<!-- workspace_1&#45;&gt;page_Watchlist -->
<g id="edge9" class="edge">
<title>workspace_1&#45;&gt;page_Watchlist</title>
<path fill="none" stroke="#94a3b8" stroke-width="1.3" d="M542.02,-2973.91C588.48,-2951.61 660.72,-2910.44 703,-2854 734.35,-2812.15 699.85,-2776.66 739,-2742 756.1,-2726.86 778.13,-2717.95 800.53,-2712.88"/>
<polygon fill="#94a3b8" stroke="#94a3b8" stroke-width="1.3" points="801.19,-2715.61 808.46,-2711.25 800.06,-2710.12 801.19,-2715.61"/>
</g>
<!-- page_Backtest -->
<g id="node12" class="node">
<title>page_Backtest</title>
<path fill="#1e293b" stroke="#475569" d="M990.5,-2792C990.5,-2792 823.5,-2792 823.5,-2792 817.5,-2792 811.5,-2786 811.5,-2780 811.5,-2780 811.5,-2766 811.5,-2766 811.5,-2760 817.5,-2754 823.5,-2754 823.5,-2754 990.5,-2754 990.5,-2754 996.5,-2754 1002.5,-2760 1002.5,-2766 1002.5,-2766 1002.5,-2780 1002.5,-2780 1002.5,-2786 996.5,-2792 990.5,-2792"/>
<text text-anchor="middle" x="907" y="-2776.8" font-family="Segoe UI" font-size="14.00" fill="#e2e8f0">Backtest</text>
<text text-anchor="middle" x="907" y="-2761.8" font-family="Segoe UI" font-size="14.00" fill="#e2e8f0">Backtest → BacktestPage</text>
</g>
<!-- workspace_1&#45;&gt;page_Backtest -->
<g id="edge10" class="edge">
<title>workspace_1&#45;&gt;page_Backtest</title>
<path fill="none" stroke="#94a3b8" stroke-width="1.3" d="M559.08,-2982.41C604.45,-2971.54 664.85,-2950.29 703,-2910 736.92,-2874.18 701.75,-2837.34 739,-2805 756.93,-2789.44 780.07,-2780.5 803.38,-2775.55"/>
<polygon fill="#94a3b8" stroke="#94a3b8" stroke-width="1.3" points="803.96,-2778.29 811.28,-2774.02 802.9,-2772.79 803.96,-2778.29"/>
</g>
<!-- page_LeanIntegration -->
<g id="node13" class="node">
<title>page_LeanIntegration</title>
<path fill="#1e293b" stroke="#475569" d="M1040,-2855C1040,-2855 774,-2855 774,-2855 768,-2855 762,-2849 762,-2843 762,-2843 762,-2829 762,-2829 762,-2823 768,-2817 774,-2817 774,-2817 1040,-2817 1040,-2817 1046,-2817 1052,-2823 1052,-2829 1052,-2829 1052,-2843 1052,-2843 1052,-2849 1046,-2855 1040,-2855"/>
<text text-anchor="middle" x="907" y="-2839.8" font-family="Segoe UI" font-size="14.00" fill="#e2e8f0">LeanIntegration</text>
<text text-anchor="middle" x="907" y="-2824.8" font-family="Segoe UI" font-size="14.00" fill="#e2e8f0">LeanIntegration → LeanIntegrationPage</text>
</g>
<!-- workspace_1&#45;&gt;page_LeanIntegration -->
<g id="edge12" class="edge">
<title>workspace_1&#45;&gt;page_LeanIntegration</title>
<path fill="none" stroke="#94a3b8" stroke-width="1.3" d="M559.18,-2990.81C603.42,-2986.3 662.33,-2973.92 703,-2941 731.12,-2918.24 710.22,-2889.92 739,-2868 743.84,-2864.31 748.99,-2861.01 754.36,-2858.05"/>
<polygon fill="#94a3b8" stroke="#94a3b8" stroke-width="1.3" points="755.97,-2860.38 761.81,-2854.24 753.42,-2855.39 755.97,-2860.38"/>
</g>
<!-- page_PortfolioImport -->
<g id="node14" class="node">
<title>page_PortfolioImport</title>
<path fill="#1e293b" stroke="#475569" d="M1034,-2918C1034,-2918 780,-2918 780,-2918 774,-2918 768,-2912 768,-2906 768,-2906 768,-2892 768,-2892 768,-2886 774,-2880 780,-2880 780,-2880 1034,-2880 1034,-2880 1040,-2880 1046,-2886 1046,-2892 1046,-2892 1046,-2906 1046,-2906 1046,-2912 1040,-2918 1034,-2918"/>
<text text-anchor="middle" x="907" y="-2902.8" font-family="Segoe UI" font-size="14.00" fill="#e2e8f0">PortfolioImport</text>
<text text-anchor="middle" x="907" y="-2887.8" font-family="Segoe UI" font-size="14.00" fill="#e2e8f0">PortfolioImport → PortfolioImportPage</text>
</g>
<!-- workspace_1&#45;&gt;page_PortfolioImport -->
<g id="edge13" class="edge">
<title>workspace_1&#45;&gt;page_PortfolioImport</title>
<path fill="none" stroke="#94a3b8" stroke-width="1.3" d="M559.09,-2991.36C601.13,-2988.3 657.39,-2980.31 703,-2960 721.77,-2951.64 720.36,-2939.63 739,-2931 747.58,-2927.03 756.63,-2923.55 765.89,-2920.5"/>
<polygon fill="#94a3b8" stroke="#94a3b8" stroke-width="1.3" points="766.93,-2923.11 773.72,-2918.04 765.25,-2917.77 766.93,-2923.11"/>
</g>
<!-- page_TradingHours -->
<g id="node15" class="node">
<title>page_TradingHours</title>
<path fill="#1e293b" stroke="#475569" d="M1023.5,-2981C1023.5,-2981 790.5,-2981 790.5,-2981 784.5,-2981 778.5,-2975 778.5,-2969 778.5,-2969 778.5,-2955 778.5,-2955 778.5,-2949 784.5,-2943 790.5,-2943 790.5,-2943 1023.5,-2943 1023.5,-2943 1029.5,-2943 1035.5,-2949 1035.5,-2955 1035.5,-2955 1035.5,-2969 1035.5,-2969 1035.5,-2975 1029.5,-2981 1023.5,-2981"/>
<text text-anchor="middle" x="907" y="-2965.8" font-family="Segoe UI" font-size="14.00" fill="#e2e8f0">TradingHours</text>
<text text-anchor="middle" x="907" y="-2950.8" font-family="Segoe UI" font-size="14.00" fill="#e2e8f0">TradingHours → TradingHoursPage</text>
</g>
<!-- workspace_1&#45;&gt;page_TradingHours -->
<g id="edge14" class="edge">
<title>workspace_1&#45;&gt;page_TradingHours</title>
<path fill="none" stroke="#94a3b8" stroke-width="1.3" d="M559.08,-2988.36C614.63,-2984.14 698.58,-2977.76 769.99,-2972.33"/>
<polygon fill="#94a3b8" stroke="#94a3b8" stroke-width="1.3" points="770.42,-2975.11 778.19,-2971.71 770,-2969.53 770.42,-2975.11"/>
</g>
<!-- page_DirectLending -->
<g id="node16" class="node">
<title>page_DirectLending</title>
<path fill="#1e293b" stroke="#475569" d="M1026.5,-3044C1026.5,-3044 787.5,-3044 787.5,-3044 781.5,-3044 775.5,-3038 775.5,-3032 775.5,-3032 775.5,-3018 775.5,-3018 775.5,-3012 781.5,-3006 787.5,-3006 787.5,-3006 1026.5,-3006 1026.5,-3006 1032.5,-3006 1038.5,-3012 1038.5,-3018 1038.5,-3018 1038.5,-3032 1038.5,-3032 1038.5,-3038 1032.5,-3044 1026.5,-3044"/>
<text text-anchor="middle" x="907" y="-3028.8" font-family="Segoe UI" font-size="14.00" fill="#e2e8f0">DirectLending</text>
<text text-anchor="middle" x="907" y="-3013.8" font-family="Segoe UI" font-size="14.00" fill="#e2e8f0">DirectLending → DirectLendingPage</text>
</g>
<!-- workspace_1&#45;&gt;page_DirectLending -->
<g id="edge15" class="edge">
<title>workspace_1&#45;&gt;page_DirectLending</title>
<path fill="none" stroke="#94a3b8" stroke-width="1.3" d="M559.08,-2997.79C613.88,-3002.09 696.32,-3008.55 767.09,-3014.11"/>
<polygon fill="#94a3b8" stroke="#94a3b8" stroke-width="1.3" points="767.03,-3016.91 775.22,-3014.74 767.47,-3011.33 767.03,-3016.91"/>
</g>
<!-- page_Provider -->
<g id="node17" class="node">
<title>page_Provider</title>
<path fill="#1e293b" stroke="#475569" d="M987.5,-3107C987.5,-3107 826.5,-3107 826.5,-3107 820.5,-3107 814.5,-3101 814.5,-3095 814.5,-3095 814.5,-3081 814.5,-3081 814.5,-3075 820.5,-3069 826.5,-3069 826.5,-3069 987.5,-3069 987.5,-3069 993.5,-3069 999.5,-3075 999.5,-3081 999.5,-3081 999.5,-3095 999.5,-3095 999.5,-3101 993.5,-3107 987.5,-3107"/>
<text text-anchor="middle" x="907" y="-3091.8" font-family="Segoe UI" font-size="14.00" fill="#e2e8f0">Provider</text>
<text text-anchor="middle" x="907" y="-3076.8" font-family="Segoe UI" font-size="14.00" fill="#e2e8f0">Provider → ProviderPage</text>
</g>
<!-- workspace_1&#45;&gt;page_Provider -->
<g id="edge16" class="edge">
<title>workspace_1&#45;&gt;page_Provider</title>
<path fill="none" stroke="#94a3b8" stroke-width="1.3" d="M559.1,-3010.6C607.62,-3024.25 677.34,-3043.11 739,-3057 760.65,-3061.88 784,-3066.57 806.19,-3070.75"/>
<polygon fill="#94a3b8" stroke="#94a3b8" stroke-width="1.3" points="805.92,-3073.55 814.3,-3072.28 806.95,-3068.05 805.92,-3073.55"/>
</g>
<!-- page_Symbols -->
<g id="node18" class="node">
<title>page_Symbols</title>
<path fill="#1e293b" stroke="#475569" d="M989.5,-3170C989.5,-3170 824.5,-3170 824.5,-3170 818.5,-3170 812.5,-3164 812.5,-3158 812.5,-3158 812.5,-3144 812.5,-3144 812.5,-3138 818.5,-3132 824.5,-3132 824.5,-3132 989.5,-3132 989.5,-3132 995.5,-3132 1001.5,-3138 1001.5,-3144 1001.5,-3144 1001.5,-3158 1001.5,-3158 1001.5,-3164 995.5,-3170 989.5,-3170"/>
<text text-anchor="middle" x="907" y="-3154.8" font-family="Segoe UI" font-size="14.00" fill="#e2e8f0">Symbols</text>
<text text-anchor="middle" x="907" y="-3139.8" font-family="Segoe UI" font-size="14.00" fill="#e2e8f0">Symbols → SymbolsPage</text>
</g>
<!-- workspace_1&#45;&gt;page_Symbols -->
<g id="edge17" class="edge">
<title>workspace_1&#45;&gt;page_Symbols</title>
<path fill="none" stroke="#94a3b8" stroke-width="1.3" d="M527.11,-3012.08C571.14,-3040.06 658.14,-3091.92 739,-3120 759.72,-3127.19 782.49,-3132.83 804.38,-3137.19"/>
<polygon fill="#94a3b8" stroke="#94a3b8" stroke-width="1.3" points="804.01,-3139.97 812.39,-3138.75 805.07,-3134.48 804.01,-3139.97"/>
</g>
<!-- page_Backfill -->
<g id="node19" class="node">
<title>page_Backfill</title>
<path fill="#1e293b" stroke="#475569" d="M980.5,-3233C980.5,-3233 833.5,-3233 833.5,-3233 827.5,-3233 821.5,-3227 821.5,-3221 821.5,-3221 821.5,-3207 821.5,-3207 821.5,-3201 827.5,-3195 833.5,-3195 833.5,-3195 980.5,-3195 980.5,-3195 986.5,-3195 992.5,-3201 992.5,-3207 992.5,-3207 992.5,-3221 992.5,-3221 992.5,-3227 986.5,-3233 980.5,-3233"/>
<text text-anchor="middle" x="907" y="-3217.8" font-family="Segoe UI" font-size="14.00" fill="#e2e8f0">Backfill</text>
<text text-anchor="middle" x="907" y="-3202.8" font-family="Segoe UI" font-size="14.00" fill="#e2e8f0">Backfill → BackfillPage</text>
</g>
<!-- workspace_1&#45;&gt;page_Backfill -->
<g id="edge18" class="edge">
<title>workspace_1&#45;&gt;page_Backfill</title>
<path fill="none" stroke="#94a3b8" stroke-width="1.3" d="M515.55,-3012.02C552.68,-3050.96 643.64,-3139.78 739,-3183 762.02,-3193.44 788.35,-3200.36 813.19,-3204.95"/>
<polygon fill="#94a3b8" stroke="#94a3b8" stroke-width="1.3" points="812.84,-3207.73 821.2,-3206.36 813.81,-3202.22 812.84,-3207.73"/>
</g>
<!-- page_Storage -->
<g id="node20" class="node">
<title>page_Storage</title>
<path fill="#1e293b" stroke="#475569" d="M984.5,-3296C984.5,-3296 829.5,-3296 829.5,-3296 823.5,-3296 817.5,-3290 817.5,-3284 817.5,-3284 817.5,-3270 817.5,-3270 817.5,-3264 823.5,-3258 829.5,-3258 829.5,-3258 984.5,-3258 984.5,-3258 990.5,-3258 996.5,-3264 996.5,-3270 996.5,-3270 996.5,-3284 996.5,-3284 996.5,-3290 990.5,-3296 984.5,-3296"/>
<text text-anchor="middle" x="907" y="-3280.8" font-family="Segoe UI" font-size="14.00" fill="#e2e8f0">Storage</text>
<text text-anchor="middle" x="907" y="-3265.8" font-family="Segoe UI" font-size="14.00" fill="#e2e8f0">Storage → StoragePage</text>
</g>
<!-- workspace_1&#45;&gt;page_Storage -->
<g id="edge19" class="edge">
<title>workspace_1&#45;&gt;page_Storage</title>
<path fill="none" stroke="#94a3b8" stroke-width="1.3" d="M509.87,-3012.07C540.9,-3060.16 629.66,-3186.75 739,-3246 760.31,-3257.55 785.16,-3264.88 809.07,-3269.51"/>
<polygon fill="#94a3b8" stroke="#94a3b8" stroke-width="1.3" points="808.77,-3272.3 817.14,-3270.97 809.77,-3266.79 808.77,-3272.3"/>
</g>
<!-- page_DataExport -->
<g id="node21" class="node">
<title>page_DataExport</title>
<path fill="#1e293b" stroke="#475569" d="M1008.5,-3359C1008.5,-3359 805.5,-3359 805.5,-3359 799.5,-3359 793.5,-3353 793.5,-3347 793.5,-3347 793.5,-3333 793.5,-3333 793.5,-3327 799.5,-3321 805.5,-3321 805.5,-3321 1008.5,-3321 1008.5,-3321 1014.5,-3321 1020.5,-3327 1020.5,-3333 1020.5,-3333 1020.5,-3347 1020.5,-3347 1020.5,-3353 1014.5,-3359 1008.5,-3359"/>
<text text-anchor="middle" x="907" y="-3343.8" font-family="Segoe UI" font-size="14.00" fill="#e2e8f0">DataExport</text>
<text text-anchor="middle" x="907" y="-3328.8" font-family="Segoe UI" font-size="14.00" fill="#e2e8f0">DataExport → DataExportPage</text>
</g>
<!-- workspace_1&#45;&gt;page_DataExport -->
<g id="edge20" class="edge">
<title>workspace_1&#45;&gt;page_DataExport</title>
<path fill="none" stroke="#94a3b8" stroke-width="1.3" d="M506.41,-3012.19C532.08,-3068.3 615.29,-3232.92 739,-3309 753.03,-3317.63 768.89,-3323.97 785.11,-3328.61"/>
<polygon fill="#94a3b8" stroke="#94a3b8" stroke-width="1.3" points="784.64,-3331.38 793.1,-3330.75 786.1,-3325.97 784.64,-3331.38"/>
</g>
<!-- page_PackageManager -->
<g id="node22" class="node">
<title>page_PackageManager</title>
<path fill="#1e293b" stroke="#475569" d="M1047.5,-3422C1047.5,-3422 766.5,-3422 766.5,-3422 760.5,-3422 754.5,-3416 754.5,-3410 754.5,-3410 754.5,-3396 754.5,-3396 754.5,-3390 760.5,-3384 766.5,-3384 766.5,-3384 1047.5,-3384 1047.5,-3384 1053.5,-3384 1059.5,-3390 1059.5,-3396 1059.5,-3396 1059.5,-3410 1059.5,-3410 1059.5,-3416 1053.5,-3422 1047.5,-3422"/>
<text text-anchor="middle" x="907" y="-3406.8" font-family="Segoe UI" font-size="14.00" fill="#e2e8f0">PackageManager</text>
<text text-anchor="middle" x="907" y="-3391.8" font-family="Segoe UI" font-size="14.00" fill="#e2e8f0">PackageManager → PackageManagerPage</text>
</g>
<!-- workspace_1&#45;&gt;page_PackageManager -->
<g id="edge21" class="edge">
<title>workspace_1&#45;&gt;page_PackageManager</title>
<path fill="none" stroke="#94a3b8" stroke-width="1.3" d="M504.02,-3012.27C524.86,-3075.57 600.39,-3278.39 739,-3372 743.52,-3375.05 748.25,-3377.82 753.15,-3380.34"/>
<polygon fill="#94a3b8" stroke="#94a3b8" stroke-width="1.3" points="752.01,-3382.9 760.43,-3383.84 754.44,-3377.85 752.01,-3382.9"/>
</g>
<!-- page_DataQuality -->
<g id="node23" class="node">
<title>page_DataQuality</title>
<path fill="#1e293b" stroke="#475569" d="M1012,-3485C1012,-3485 802,-3485 802,-3485 796,-3485 790,-3479 790,-3473 790,-3473 790,-3459 790,-3459 790,-3453 796,-3447 802,-3447 802,-3447 1012,-3447 1012,-3447 1018,-3447 1024,-3453 1024,-3459 1024,-3459 1024,-3473 1024,-3473 1024,-3479 1018,-3485 1012,-3485"/>
<text text-anchor="middle" x="907" y="-3469.8" font-family="Segoe UI" font-size="14.00" fill="#e2e8f0">DataQuality</text>
<text text-anchor="middle" x="907" y="-3454.8" font-family="Segoe UI" font-size="14.00" fill="#e2e8f0">DataQuality → DataQualityPage</text>
</g>
<!-- workspace_1&#45;&gt;page_DataQuality -->
<g id="edge22" class="edge">
<title>workspace_1&#45;&gt;page_DataQuality</title>
<path fill="none" stroke="#94a3b8" stroke-width="1.3" d="M502.27,-3012.41C518.75,-3082.37 585.12,-3323.38 739,-3435 751.7,-3444.22 766.34,-3450.94 781.57,-3455.81"/>
<polygon fill="#94a3b8" stroke="#94a3b8" stroke-width="1.3" points="781.11,-3458.59 789.57,-3458.19 782.7,-3453.23 781.11,-3458.59"/>
</g>
<!-- page_ProviderHealth -->
<g id="node24" class="node">
<title>page_ProviderHealth</title>
<path fill="#1e293b" stroke="#475569" d="M1032.5,-3548C1032.5,-3548 781.5,-3548 781.5,-3548 775.5,-3548 769.5,-3542 769.5,-3536 769.5,-3536 769.5,-3522 769.5,-3522 769.5,-3516 775.5,-3510 781.5,-3510 781.5,-3510 1032.5,-3510 1032.5,-3510 1038.5,-3510 1044.5,-3516 1044.5,-3522 1044.5,-3522 1044.5,-3536 1044.5,-3536 1044.5,-3542 1038.5,-3548 1032.5,-3548"/>
<text text-anchor="middle" x="907" y="-3532.8" font-family="Segoe UI" font-size="14.00" fill="#e2e8f0">ProviderHealth</text>
<text text-anchor="middle" x="907" y="-3517.8" font-family="Segoe UI" font-size="14.00" fill="#e2e8f0">ProviderHealth → ProviderHealthPage</text>
</g>
<!-- workspace_1&#45;&gt;page_ProviderHealth -->
<g id="edge23" class="edge">
<title>workspace_1&#45;&gt;page_ProviderHealth</title>
<path fill="none" stroke="#94a3b8" stroke-width="1.3" d="M500.86,-3012.17C513.2,-3087.82 569.26,-3367.74 739,-3498 745.99,-3503.36 753.61,-3507.89 761.64,-3511.72"/>
<polygon fill="#94a3b8" stroke="#94a3b8" stroke-width="1.3" points="760.67,-3514.35 769.11,-3515.03 762.94,-3509.23 760.67,-3514.35"/>
</g>
<!-- page_SystemHealth -->
<g id="node25" class="node">
<title>page_SystemHealth</title>
<path fill="#1e293b" stroke="#475569" d="M1027,-3611C1027,-3611 787,-3611 787,-3611 781,-3611 775,-3605 775,-3599 775,-3599 775,-3585 775,-3585 775,-3579 781,-3573 787,-3573 787,-3573 1027,-3573 1027,-3573 1033,-3573 1039,-3579 1039,-3585 1039,-3585 1039,-3599 1039,-3599 1039,-3605 1033,-3611 1027,-3611"/>
<text text-anchor="middle" x="907" y="-3595.8" font-family="Segoe UI" font-size="14.00" fill="#e2e8f0">SystemHealth</text>
<text text-anchor="middle" x="907" y="-3580.8" font-family="Segoe UI" font-size="14.00" fill="#e2e8f0">SystemHealth → SystemHealthPage</text>
</g>
<!-- workspace_1&#45;&gt;page_SystemHealth -->
<g id="edge24" class="edge">
<title>workspace_1&#45;&gt;page_SystemHealth</title>
<path fill="none" stroke="#94a3b8" stroke-width="1.3" d="M499.78,-3012.24C508.41,-3093.59 553.36,-3411.94 739,-3561 747.51,-3567.83 757.05,-3573.34 767.15,-3577.76"/>
<polygon fill="#94a3b8" stroke="#94a3b8" stroke-width="1.3" points="766.13,-3580.37 774.59,-3580.79 768.24,-3575.18 766.13,-3580.37"/>
</g>
<!-- page_Diagnostics -->
<g id="node26" class="node">
<title>page_Diagnostics</title>
<path fill="#1e293b" stroke="#475569" d="M1010.5,-3674C1010.5,-3674 803.5,-3674 803.5,-3674 797.5,-3674 791.5,-3668 791.5,-3662 791.5,-3662 791.5,-3648 791.5,-3648 791.5,-3642 797.5,-3636 803.5,-3636 803.5,-3636 1010.5,-3636 1010.5,-3636 1016.5,-3636 1022.5,-3642 1022.5,-3648 1022.5,-3648 1022.5,-3662 1022.5,-3662 1022.5,-3668 1016.5,-3674 1010.5,-3674"/>
<text text-anchor="middle" x="907" y="-3658.8" font-family="Segoe UI" font-size="14.00" fill="#e2e8f0">Diagnostics</text>
<text text-anchor="middle" x="907" y="-3643.8" font-family="Segoe UI" font-size="14.00" fill="#e2e8f0">Diagnostics → DiagnosticsPage</text>
</g>
<!-- workspace_1&#45;&gt;page_Diagnostics -->
<g id="edge25" class="edge">
<title>workspace_1&#45;&gt;page_Diagnostics</title>
<path fill="none" stroke="#94a3b8" stroke-width="1.3" d="M498.78,-3012.06C503.44,-3098.69 534.88,-3458.21 739,-3624 751.88,-3634.46 767.18,-3641.83 783.19,-3646.94"/>
<polygon fill="#94a3b8" stroke="#94a3b8" stroke-width="1.3" points="782.64,-3649.7 791.11,-3649.28 784.23,-3644.33 782.64,-3649.7"/>
</g>
<!-- page_Settings -->
<g id="node27" class="node">
<title>page_Settings</title>
<path fill="#1e293b" stroke="#475569" d="M987.5,-3737C987.5,-3737 826.5,-3737 826.5,-3737 820.5,-3737 814.5,-3731 814.5,-3725 814.5,-3725 814.5,-3711 814.5,-3711 814.5,-3705 820.5,-3699 826.5,-3699 826.5,-3699 987.5,-3699 987.5,-3699 993.5,-3699 999.5,-3705 999.5,-3711 999.5,-3711 999.5,-3725 999.5,-3725 999.5,-3731 993.5,-3737 987.5,-3737"/>
<text text-anchor="middle" x="907" y="-3721.8" font-family="Segoe UI" font-size="14.00" fill="#e2e8f0">Settings</text>
<text text-anchor="middle" x="907" y="-3706.8" font-family="Segoe UI" font-size="14.00" fill="#e2e8f0">Settings → SettingsPage</text>
</g>
<!-- workspace_1&#45;&gt;page_Settings -->
<g id="edge26" class="edge">
<title>workspace_1&#45;&gt;page_Settings</title>
<path fill="none" stroke="#94a3b8" stroke-width="1.3" d="M497.94,-3012.18C498.77,-3104.42 515.5,-3505.47 739,-3687 757.92,-3702.37 782.03,-3711.04 806.01,-3715.75"/>
<polygon fill="#94a3b8" stroke="#94a3b8" stroke-width="1.3" points="805.76,-3718.54 814.13,-3717.19 806.74,-3713.03 805.76,-3718.54"/>
</g>
<!-- page_AdminMaintenance -->
<g id="node28" class="node">
<title>page_AdminMaintenance</title>
<path fill="#1e293b" stroke="#475569" d="M1063,-3800C1063,-3800 751,-3800 751,-3800 745,-3800 739,-3794 739,-3788 739,-3788 739,-3774 739,-3774 739,-3768 745,-3762 751,-3762 751,-3762 1063,-3762 1063,-3762 1069,-3762 1075,-3768 1075,-3774 1075,-3774 1075,-3788 1075,-3788 1075,-3794 1069,-3800 1063,-3800"/>
<text text-anchor="middle" x="907" y="-3784.8" font-family="Segoe UI" font-size="14.00" fill="#e2e8f0">AdminMaintenance</text>
<text text-anchor="middle" x="907" y="-3769.8" font-family="Segoe UI" font-size="14.00" fill="#e2e8f0">AdminMaintenance → AdminMaintenancePage</text>
</g>
<!-- workspace_1&#45;&gt;page_AdminMaintenance -->
<g id="edge27" class="edge">
<title>workspace_1&#45;&gt;page_AdminMaintenance</title>
<path fill="none" stroke="#94a3b8" stroke-width="1.3" d="M501.2,-3012.1C519.63,-3119.85 615.82,-3650.35 739,-3750 742.51,-3752.84 746.2,-3755.45 750.03,-3757.85"/>
<polygon fill="#94a3b8" stroke="#94a3b8" stroke-width="1.3" points="748.75,-3760.35 757.08,-3761.94 751.57,-3755.5 748.75,-3760.35"/>
</g>
</g>
</svg>
