<?xml version="1.0" encoding="UTF-8" standalone="no"?>
<!DOCTYPE svg PUBLIC "-//W3C//DTD SVG 1.1//EN"
 "http://www.w3.org/Graphics/SVG/1.1/DTD/svg11.dtd">
<!-- Generated by graphviz version 2.43.0 (0)
 -->
<!-- Title: UiNavigationMap Pages: 1 -->
<svg width="1153pt" height="4397pt"
 viewBox="0.00 0.00 1152.60 4396.60" xmlns="http://www.w3.org/2000/svg" xmlns:xlink="http://www.w3.org/1999/xlink">
<g id="graph0" class="graph" transform="scale(1 1) rotate(0) translate(28.8 4367.8)">
<title>UiNavigationMap</title>
<polygon fill="#0f172a" stroke="transparent" points="-28.8,28.8 -28.8,-4367.8 1123.8,-4367.8 1123.8,28.8 -28.8,28.8"/>
<text text-anchor="middle" x="547.5" y="-4319" font-family="Segoe UI" font-size="20.00">Meridian WPF UI navigation map</text>
<text text-anchor="middle" x="547.5" y="-4297" font-family="Segoe UI" font-size="20.00">(auto&#45;generated from MainPage.xaml + NavigationService.cs)</text>
<g id="clust1" class="cluster">
<title>cluster_workspace_1</title>
<path fill="#0f172a" stroke="#334155" d="M443,-2557C443,-2557 1075,-2557 1075,-2557 1081,-2557 1087,-2563 1087,-2569 1087,-2569 1087,-4267 1087,-4267 1087,-4273 1081,-4279 1075,-4279 1075,-4279 443,-4279 443,-4279 437,-4279 431,-4273 431,-4267 431,-4267 431,-2569 431,-2569 431,-2563 437,-2557 443,-2557"/>
<text text-anchor="middle" x="759" y="-4259" font-family="Segoe UI" font-size="20.00">Shell workspace</text>
</g>
<g id="clust2" class="cluster">
<title>cluster_hidden_pages</title>
<path fill="#0f172a" stroke="#7c2d12" stroke-dasharray="5,2" d="M336,-8C336,-8 666,-8 666,-8 672,-8 678,-14 678,-20 678,-20 678,-2537 678,-2537 678,-2543 672,-2549 666,-2549 666,-2549 336,-2549 336,-2549 330,-2549 324,-2543 324,-2537 324,-2537 324,-20 324,-20 324,-14 330,-8 336,-8"/>
<text text-anchor="middle" x="501" y="-2529" font-family="Segoe UI" font-size="20.00">Registered but not in sidebar shell</text>
</g>
<!-- generated -->
<g id="node1" class="node">
<title>generated</title>
<polygon fill="#1d4ed8" stroke="#60a5fa" points="253,-1250.5 0,-1250.5 0,-1197.5 259,-1197.5 259,-1244.5 253,-1250.5"/>
<polyline fill="none" stroke="#60a5fa" points="253,-1250.5 253,-1244.5 "/>
<polyline fill="none" stroke="#60a5fa" points="259,-1244.5 253,-1244.5 "/>
<text text-anchor="middle" x="129.5" y="-1235.3" font-family="Segoe UI" font-size="14.00" fill="#e2e8f0">Source fingerprint: b8426e858368</text>
<text text-anchor="middle" x="129.5" y="-1220.3" font-family="Segoe UI" font-size="14.00" fill="#e2e8f0">Shell entries: 28</text>
<text text-anchor="middle" x="129.5" y="-1205.3" font-family="Segoe UI" font-size="14.00" fill="#e2e8f0">Registered pages: 67</text>
</g>
<!-- shell -->
<g id="node2" class="node">
<title>shell</title>
<polygon fill="#0f766e" stroke="#2dd4bf" points="194,-2168 65,-2168 65,-2164 61,-2164 61,-2160 65,-2160 65,-2138 61,-2138 61,-2134 65,-2134 65,-2130 194,-2130 194,-2168"/>
<polyline fill="none" stroke="#2dd4bf" points="65,-2164 69,-2164 69,-2160 65,-2160 "/>
<polyline fill="none" stroke="#2dd4bf" points="65,-2138 69,-2138 69,-2134 65,-2134 "/>
<text text-anchor="middle" x="129.5" y="-2152.8" font-family="Segoe UI" font-size="14.00" fill="#e2e8f0">MainPage.xaml</text>
<text text-anchor="middle" x="129.5" y="-2137.8" font-family="Segoe UI" font-size="14.00" fill="#e2e8f0">Workspace shell</text>
</g>
<!-- navigation -->
<g id="node3" class="node">
<title>navigation</title>
<polygon fill="#7c3aed" stroke="#c4b5fd" points="200.5,-1314 58.5,-1314 58.5,-1310 54.5,-1310 54.5,-1306 58.5,-1306 58.5,-1284 54.5,-1284 54.5,-1280 58.5,-1280 58.5,-1276 200.5,-1276 200.5,-1314"/>
<polyline fill="none" stroke="#c4b5fd" points="58.5,-1310 62.5,-1310 62.5,-1306 58.5,-1306 "/>
<polyline fill="none" stroke="#c4b5fd" points="58.5,-1284 62.5,-1284 62.5,-1280 58.5,-1280 "/>
<text text-anchor="middle" x="129.5" y="-1298.8" font-family="Segoe UI" font-size="14.00" fill="#e2e8f0">NavigationService</text>
<text text-anchor="middle" x="129.5" y="-1283.8" font-family="Segoe UI" font-size="14.00" fill="#e2e8f0">RegisterAllPages()</text>
</g>
<!-- shell&#45;&gt;navigation -->
<g id="edge1" class="edge">
<title>shell&#45;&gt;navigation</title>
<path fill="none" stroke="#38bdf8" stroke-width="1.3" d="M129.5,-2129.92C129.5,-2018.65 129.5,-1453.93 129.5,-1322.4"/>
<polygon fill="#38bdf8" stroke="#38bdf8" stroke-width="1.3" points="132.3,-1322.03 129.5,-1314.03 126.7,-1322.03 132.3,-1322.03"/>
<text text-anchor="middle" x="119" y="-1718.3" font-family="Segoe UI" font-size="14.00">navigate via tags</text>
</g>
<!-- workspace_1 -->
<g id="node4" class="node">
<title>workspace_1</title>
<polygon fill="#1d4ed8" stroke="#93c5fd" points="563,-3359 560,-3363 539,-3363 536,-3359 439,-3359 439,-3321 563,-3321 563,-3359"/>
<text text-anchor="middle" x="501" y="-3343.8" font-family="Segoe UI" font-size="14.00" fill="#e2e8f0">Shell</text>
<text text-anchor="middle" x="501" y="-3328.8" font-family="Segoe UI" font-size="14.00" fill="#e2e8f0">28 shell entries</text>
</g>
<!-- shell&#45;&gt;workspace_1 -->
<g id="edge2" class="edge">
<title>shell&#45;&gt;workspace_1</title>
<path fill="none" stroke="#22d3ee" stroke-width="1.3" d="M136.45,-2168.19C179.36,-2306.49 441.1,-3150.14 491.58,-3312.85"/>
<polygon fill="#22d3ee" stroke="#22d3ee" stroke-width="1.3" points="489.04,-3314.12 494.08,-3320.93 494.39,-3312.46 489.04,-3314.12"/>
</g>
<!-- hidden_DataSources -->
<g id="node32" class="node">
<title>hidden_DataSources</title>
<path fill="#431407" stroke="#fb923c" d="M557.5,-2511C557.5,-2511 444.5,-2511 444.5,-2511 438.5,-2511 432.5,-2505 432.5,-2499 432.5,-2499 432.5,-2485 432.5,-2485 432.5,-2479 438.5,-2473 444.5,-2473 444.5,-2473 557.5,-2473 557.5,-2473 563.5,-2473 569.5,-2479 569.5,-2485 569.5,-2485 569.5,-2499 569.5,-2499 569.5,-2505 563.5,-2511 557.5,-2511"/>
<text text-anchor="middle" x="501" y="-2495.8" font-family="Segoe UI" font-size="14.00" fill="#e2e8f0">DataSources</text>
<text text-anchor="middle" x="501" y="-2480.8" font-family="Segoe UI" font-size="14.00" fill="#e2e8f0">DataSourcesPage</text>
</g>
<!-- navigation&#45;&gt;hidden_DataSources -->
<g id="edge31" class="edge">
<title>navigation&#45;&gt;hidden_DataSources</title>
<path fill="none" stroke="#fb923c" stroke-width="1.3" stroke-dasharray="5,2" d="M133.51,-1314.08C157.22,-1464.23 313.29,-2450.26 324,-2461 349.76,-2486.83 388.99,-2495.47 423.87,-2497.26"/>
<polygon fill="#fb923c" stroke="#fb923c" stroke-width="1.3" points="424.07,-2500.07 432.17,-2497.57 424.28,-2494.48 424.07,-2500.07"/>
</g>
<!-- hidden_DataBrowser -->
<g id="node33" class="node">
<title>hidden_DataBrowser</title>
<path fill="#431407" stroke="#fb923c" d="M558,-2448C558,-2448 444,-2448 444,-2448 438,-2448 432,-2442 432,-2436 432,-2436 432,-2422 432,-2422 432,-2416 438,-2410 444,-2410 444,-2410 558,-2410 558,-2410 564,-2410 570,-2416 570,-2422 570,-2422 570,-2436 570,-2436 570,-2442 564,-2448 558,-2448"/>
<text text-anchor="middle" x="501" y="-2432.8" font-family="Segoe UI" font-size="14.00" fill="#e2e8f0">DataBrowser</text>
<text text-anchor="middle" x="501" y="-2417.8" font-family="Segoe UI" font-size="14.00" fill="#e2e8f0">DataBrowserPage</text>
</g>
<!-- navigation&#45;&gt;hidden_DataBrowser -->
<g id="edge32" class="edge">
<title>navigation&#45;&gt;hidden_DataBrowser</title>
<path fill="none" stroke="#fb923c" stroke-width="1.3" stroke-dasharray="5,2" d="M133.55,-1314.24C156.62,-1459.47 303.28,-2378.22 324,-2398 350.18,-2422.99 389.05,-2431.64 423.6,-2433.65"/>
<polygon fill="#fb923c" stroke="#fb923c" stroke-width="1.3" points="423.7,-2436.46 431.82,-2434.02 423.95,-2430.87 423.7,-2436.46"/>
</g>
<!-- hidden_SymbolMapping -->
<g id="node34" class="node">
<title>hidden_SymbolMapping</title>
<path fill="#431407" stroke="#fb923c" d="M569.5,-2385C569.5,-2385 432.5,-2385 432.5,-2385 426.5,-2385 420.5,-2379 420.5,-2373 420.5,-2373 420.5,-2359 420.5,-2359 420.5,-2353 426.5,-2347 432.5,-2347 432.5,-2347 569.5,-2347 569.5,-2347 575.5,-2347 581.5,-2353 581.5,-2359 581.5,-2359 581.5,-2373 581.5,-2373 581.5,-2379 575.5,-2385 569.5,-2385"/>
<text text-anchor="middle" x="501" y="-2369.8" font-family="Segoe UI" font-size="14.00" fill="#e2e8f0">SymbolMapping</text>
<text text-anchor="middle" x="501" y="-2354.8" font-family="Segoe UI" font-size="14.00" fill="#e2e8f0">SymbolMappingPage</text>
</g>
<!-- navigation&#45;&gt;hidden_SymbolMapping -->
<g id="edge33" class="edge">
<title>navigation&#45;&gt;hidden_SymbolMapping</title>
<path fill="none" stroke="#fb923c" stroke-width="1.3" stroke-dasharray="5,2" d="M133.38,-1314.12C154.36,-1452.71 283.9,-2298.91 324,-2335 347.71,-2356.34 380.76,-2365.54 411.83,-2368.91"/>
<polygon fill="#fb923c" stroke="#fb923c" stroke-width="1.3" points="411.88,-2371.72 420.1,-2369.67 412.4,-2366.15 411.88,-2371.72"/>
</g>
<!-- hidden_SymbolStorage -->
<g id="node35" class="node">
<title>hidden_SymbolStorage</title>
<path fill="#431407" stroke="#fb923c" d="M566.5,-2322C566.5,-2322 435.5,-2322 435.5,-2322 429.5,-2322 423.5,-2316 423.5,-2310 423.5,-2310 423.5,-2296 423.5,-2296 423.5,-2290 429.5,-2284 435.5,-2284 435.5,-2284 566.5,-2284 566.5,-2284 572.5,-2284 578.5,-2290 578.5,-2296 578.5,-2296 578.5,-2310 578.5,-2310 578.5,-2316 572.5,-2322 566.5,-2322"/>
<text text-anchor="middle" x="501" y="-2306.8" font-family="Segoe UI" font-size="14.00" fill="#e2e8f0">SymbolStorage</text>
<text text-anchor="middle" x="501" y="-2291.8" font-family="Segoe UI" font-size="14.00" fill="#e2e8f0">SymbolStoragePage</text>
</g>
<!-- navigation&#45;&gt;hidden_SymbolStorage -->
<g id="edge34" class="edge">
<title>navigation&#45;&gt;hidden_SymbolStorage</title>
<path fill="none" stroke="#fb923c" stroke-width="1.3" stroke-dasharray="5,2" d="M132.96,-1314.29C149.87,-1445.43 250.34,-2202.83 324,-2272 348.19,-2294.71 382.88,-2303.86 415.08,-2306.81"/>
<polygon fill="#fb923c" stroke="#fb923c" stroke-width="1.3" points="415.01,-2309.61 423.2,-2307.43 415.44,-2304.03 415.01,-2309.61"/>
</g>
<!-- hidden_IndexSubscription -->
<g id="node36" class="node">
<title>hidden_IndexSubscription</title>
<path fill="#431407" stroke="#fb923c" d="M577,-2259C577,-2259 425,-2259 425,-2259 419,-2259 413,-2253 413,-2247 413,-2247 413,-2233 413,-2233 413,-2227 419,-2221 425,-2221 425,-2221 577,-2221 577,-2221 583,-2221 589,-2227 589,-2233 589,-2233 589,-2247 589,-2247 589,-2253 583,-2259 577,-2259"/>
<text text-anchor="middle" x="501" y="-2243.8" font-family="Segoe UI" font-size="14.00" fill="#e2e8f0">IndexSubscription</text>
<text text-anchor="middle" x="501" y="-2228.8" font-family="Segoe UI" font-size="14.00" fill="#e2e8f0">IndexSubscriptionPage</text>
</g>
<!-- navigation&#45;&gt;hidden_IndexSubscription -->
<g id="edge35" class="edge">
<title>navigation&#45;&gt;hidden_IndexSubscription</title>
<path fill="none" stroke="#fb923c" stroke-width="1.3" stroke-dasharray="5,2" d="M133.06,-1314.13C145.59,-1406.02 203.63,-1810.79 295,-2132 305.01,-2167.17 295.85,-2185.65 324,-2209 346.48,-2227.65 376.23,-2236.77 404.86,-2240.86"/>
<polygon fill="#fb923c" stroke="#fb923c" stroke-width="1.3" points="404.61,-2243.65 412.9,-2241.88 405.32,-2238.09 404.61,-2243.65"/>
</g>
<!-- hidden_Options -->
<g id="node37" class="node">
<title>hidden_Options</title>
<path fill="#431407" stroke="#fb923c" d="M541,-2196C541,-2196 461,-2196 461,-2196 455,-2196 449,-2190 449,-2184 449,-2184 449,-2170 449,-2170 449,-2164 455,-2158 461,-2158 461,-2158 541,-2158 541,-2158 547,-2158 553,-2164 553,-2170 553,-2170 553,-2184 553,-2184 553,-2190 547,-2196 541,-2196"/>
<text text-anchor="middle" x="501" y="-2180.8" font-family="Segoe UI" font-size="14.00" fill="#e2e8f0">Options</text>
<text text-anchor="middle" x="501" y="-2165.8" font-family="Segoe UI" font-size="14.00" fill="#e2e8f0">OptionsPage</text>
</g>
<!-- navigation&#45;&gt;hidden_Options -->
<g id="edge36" class="edge">
<title>navigation&#45;&gt;hidden_Options</title>
<path fill="none" stroke="#fb923c" stroke-width="1.3" stroke-dasharray="5,2" d="M131.8,-1314.18C140.08,-1429.91 189.4,-2033.87 324,-2146 356.13,-2172.77 403.23,-2179.94 440.62,-2180.73"/>
<polygon fill="#fb923c" stroke="#fb923c" stroke-width="1.3" points="440.9,-2183.54 448.92,-2180.81 440.95,-2177.94 440.9,-2183.54"/>
</g>
<!-- hidden_Schedules -->
<g id="node38" class="node">
<title>hidden_Schedules</title>
<path fill="#431407" stroke="#fb923c" d="M576,-2133C576,-2133 426,-2133 426,-2133 420,-2133 414,-2127 414,-2121 414,-2121 414,-2107 414,-2107 414,-2101 420,-2095 426,-2095 426,-2095 576,-2095 576,-2095 582,-2095 588,-2101 588,-2107 588,-2107 588,-2121 588,-2121 588,-2127 582,-2133 576,-2133"/>
<text text-anchor="middle" x="501" y="-2117.8" font-family="Segoe UI" font-size="14.00" fill="#e2e8f0">Schedules</text>
<text text-anchor="middle" x="501" y="-2102.8" font-family="Segoe UI" font-size="14.00" fill="#e2e8f0">ScheduleManagerPage</text>
</g>
<!-- navigation&#45;&gt;hidden_Schedules -->
<g id="edge37" class="edge">
<title>navigation&#45;&gt;hidden_Schedules</title>
<path fill="none" stroke="#fb923c" stroke-width="1.3" stroke-dasharray="5,2" d="M132.2,-1314.16C142.4,-1424.67 199.4,-1979.2 324,-2083 346.66,-2101.88 376.76,-2111.01 405.65,-2115.03"/>
<polygon fill="#fb923c" stroke="#fb923c" stroke-width="1.3" points="405.48,-2117.83 413.76,-2116.03 406.16,-2112.27 405.48,-2117.83"/>
</g>
<!-- hidden_RunDetail -->
<g id="node39" class="node">
<title>hidden_RunDetail</title>
<path fill="#431407" stroke="#fb923c" d="M547,-2070C547,-2070 455,-2070 455,-2070 449,-2070 443,-2064 443,-2058 443,-2058 443,-2044 443,-2044 443,-2038 449,-2032 455,-2032 455,-2032 547,-2032 547,-2032 553,-2032 559,-2038 559,-2044 559,-2044 559,-2058 559,-2058 559,-2064 553,-2070 547,-2070"/>
<text text-anchor="middle" x="501" y="-2054.8" font-family="Segoe UI" font-size="14.00" fill="#e2e8f0">RunDetail</text>
<text text-anchor="middle" x="501" y="-2039.8" font-family="Segoe UI" font-size="14.00" fill="#e2e8f0">RunDetailPage</text>
</g>
<!-- navigation&#45;&gt;hidden_RunDetail -->
<g id="edge38" class="edge">
<title>navigation&#45;&gt;hidden_RunDetail</title>
<path fill="none" stroke="#fb923c" stroke-width="1.3" stroke-dasharray="5,2" d="M132.67,-1314.31C144.95,-1419.78 209.19,-1924.77 324,-2020 354.53,-2045.32 398.45,-2053.08 434.78,-2054.51"/>
<polygon fill="#fb923c" stroke="#fb923c" stroke-width="1.3" points="434.81,-2057.31 442.89,-2054.73 434.96,-2051.71 434.81,-2057.31"/>
</g>
<!-- hidden_RunPortfolio -->
<g id="node40" class="node">
<title>hidden_RunPortfolio</title>
<path fill="#431407" stroke="#fb923c" d="M556,-2007C556,-2007 446,-2007 446,-2007 440,-2007 434,-2001 434,-1995 434,-1995 434,-1981 434,-1981 434,-1975 440,-1969 446,-1969 446,-1969 556,-1969 556,-1969 562,-1969 568,-1975 568,-1981 568,-1981 568,-1995 568,-1995 568,-2001 562,-2007 556,-2007"/>
<text text-anchor="middle" x="501" y="-1991.8" font-family="Segoe UI" font-size="14.00" fill="#e2e8f0">RunPortfolio</text>
<text text-anchor="middle" x="501" y="-1976.8" font-family="Segoe UI" font-size="14.00" fill="#e2e8f0">RunPortfolioPage</text>
</g>
<!-- navigation&#45;&gt;hidden_RunPortfolio -->
<g id="edge39" class="edge">
<title>navigation&#45;&gt;hidden_RunPortfolio</title>
<path fill="none" stroke="#fb923c" stroke-width="1.3" stroke-dasharray="5,2" d="M133.16,-1314.29C147.38,-1414.21 217.65,-1871.67 324,-1957 352.34,-1979.74 391.58,-1988.16 425.82,-1990.61"/>
<polygon fill="#fb923c" stroke="#fb923c" stroke-width="1.3" points="425.8,-1993.41 433.95,-1991.08 426.13,-1987.82 425.8,-1993.41"/>
</g>
<!-- hidden_RunLedger -->
<g id="node41" class="node">
<title>hidden_RunLedger</title>
<path fill="#431407" stroke="#fb923c" d="M551.5,-1944C551.5,-1944 450.5,-1944 450.5,-1944 444.5,-1944 438.5,-1938 438.5,-1932 438.5,-1932 438.5,-1918 438.5,-1918 438.5,-1912 444.5,-1906 450.5,-1906 450.5,-1906 551.5,-1906 551.5,-1906 557.5,-1906 563.5,-1912 563.5,-1918 563.5,-1918 563.5,-1932 563.5,-1932 563.5,-1938 557.5,-1944 551.5,-1944"/>
<text text-anchor="middle" x="501" y="-1928.8" font-family="Segoe UI" font-size="14.00" fill="#e2e8f0">RunLedger</text>
<text text-anchor="middle" x="501" y="-1913.8" font-family="Segoe UI" font-size="14.00" fill="#e2e8f0">RunLedgerPage</text>
</g>
<!-- navigation&#45;&gt;hidden_RunLedger -->
<g id="edge40" class="edge">
<title>navigation&#45;&gt;hidden_RunLedger</title>
<path fill="none" stroke="#fb923c" stroke-width="1.3" stroke-dasharray="5,2" d="M129.85,-1314.12C128.14,-1398.62 133.49,-1741.14 324,-1894 353.46,-1917.64 394.7,-1925.8 429.86,-1927.87"/>
<polygon fill="#fb923c" stroke="#fb923c" stroke-width="1.3" points="430.07,-1930.68 438.19,-1928.25 430.32,-1925.09 430.07,-1930.68"/>
</g>
<!-- hidden_RunCashFlow -->
<g id="node42" class="node">
<title>hidden_RunCashFlow</title>
<path fill="#431407" stroke="#fb923c" d="M560.5,-1881C560.5,-1881 441.5,-1881 441.5,-1881 435.5,-1881 429.5,-1875 429.5,-1869 429.5,-1869 429.5,-1855 429.5,-1855 429.5,-1849 435.5,-1843 441.5,-1843 441.5,-1843 560.5,-1843 560.5,-1843 566.5,-1843 572.5,-1849 572.5,-1855 572.5,-1855 572.5,-1869 572.5,-1869 572.5,-1875 566.5,-1881 560.5,-1881"/>
<text text-anchor="middle" x="501" y="-1865.8" font-family="Segoe UI" font-size="14.00" fill="#e2e8f0">RunCashFlow</text>
<text text-anchor="middle" x="501" y="-1850.8" font-family="Segoe UI" font-size="14.00" fill="#e2e8f0">RunCashFlowPage</text>
</g>
<!-- navigation&#45;&gt;hidden_RunCashFlow -->
<g id="edge41" class="edge">
<title>navigation&#45;&gt;hidden_RunCashFlow</title>
<path fill="none" stroke="#fb923c" stroke-width="1.3" stroke-dasharray="5,2" d="M130.78,-1314.11C133.07,-1392.77 153.08,-1693.86 324,-1831 350.99,-1852.66 387.88,-1861.33 420.91,-1864.22"/>
<polygon fill="#fb923c" stroke="#fb923c" stroke-width="1.3" points="421.03,-1867.03 429.22,-1864.83 421.44,-1861.45 421.03,-1867.03"/>
</g>
<!-- hidden_RunRisk -->
<g id="node43" class="node">
<title>hidden_RunRisk</title>
<path fill="#431407" stroke="#fb923c" d="M542,-1818C542,-1818 460,-1818 460,-1818 454,-1818 448,-1812 448,-1806 448,-1806 448,-1792 448,-1792 448,-1786 454,-1780 460,-1780 460,-1780 542,-1780 542,-1780 548,-1780 554,-1786 554,-1792 554,-1792 554,-1806 554,-1806 554,-1812 548,-1818 542,-1818"/>
<text text-anchor="middle" x="501" y="-1802.8" font-family="Segoe UI" font-size="14.00" fill="#e2e8f0">RunRisk</text>
<text text-anchor="middle" x="501" y="-1787.8" font-family="Segoe UI" font-size="14.00" fill="#e2e8f0">RunRiskPage</text>
</g>
<!-- navigation&#45;&gt;hidden_RunRisk -->
<g id="edge42" class="edge">
<title>navigation&#45;&gt;hidden_RunRisk</title>
<path fill="none" stroke="#fb923c" stroke-width="1.3" stroke-dasharray="5,2" d="M131.94,-1314.19C138.49,-1386.81 172.14,-1646.79 324,-1768 356.24,-1793.73 402.46,-1801.1 439.44,-1802.23"/>
<polygon fill="#fb923c" stroke="#fb923c" stroke-width="1.3" points="439.61,-1805.04 447.67,-1802.39 439.72,-1799.44 439.61,-1805.04"/>
</g>
<!-- hidden_AccountPortfolio -->
<g id="node44" class="node">
<title>hidden_AccountPortfolio</title>
<path fill="#431407" stroke="#fb923c" d="M570,-1755C570,-1755 432,-1755 432,-1755 426,-1755 420,-1749 420,-1743 420,-1743 420,-1729 420,-1729 420,-1723 426,-1717 432,-1717 432,-1717 570,-1717 570,-1717 576,-1717 582,-1723 582,-1729 582,-1729 582,-1743 582,-1743 582,-1749 576,-1755 570,-1755"/>
<text text-anchor="middle" x="501" y="-1739.8" font-family="Segoe UI" font-size="14.00" fill="#e2e8f0">AccountPortfolio</text>
<text text-anchor="middle" x="501" y="-1724.8" font-family="Segoe UI" font-size="14.00" fill="#e2e8f0">AccountPortfolioPage</text>
</g>
<!-- navigation&#45;&gt;hidden_AccountPortfolio -->
<g id="edge43" class="edge">
<title>navigation&#45;&gt;hidden_AccountPortfolio</title>
<path fill="none" stroke="#fb923c" stroke-width="1.3" stroke-dasharray="5,2" d="M133.3,-1314.34C144.02,-1380.87 188.87,-1601.83 324,-1705 348.79,-1723.93 381.24,-1732.77 411.52,-1736.53"/>
<polygon fill="#fb923c" stroke="#fb923c" stroke-width="1.3" points="411.32,-1739.32 419.58,-1737.42 411.94,-1733.76 411.32,-1739.32"/>
</g>
<!-- hidden_AggregatePortfolio -->
<g id="node45" class="node">
<title>hidden_AggregatePortfolio</title>
<path fill="#431407" stroke="#fb923c" d="M578.5,-1692C578.5,-1692 423.5,-1692 423.5,-1692 417.5,-1692 411.5,-1686 411.5,-1680 411.5,-1680 411.5,-1666 411.5,-1666 411.5,-1660 417.5,-1654 423.5,-1654 423.5,-1654 578.5,-1654 578.5,-1654 584.5,-1654 590.5,-1660 590.5,-1666 590.5,-1666 590.5,-1680 590.5,-1680 590.5,-1686 584.5,-1692 578.5,-1692"/>
<text text-anchor="middle" x="501" y="-1676.8" font-family="Segoe UI" font-size="14.00" fill="#e2e8f0">AggregatePortfolio</text>
<text text-anchor="middle" x="501" y="-1661.8" font-family="Segoe UI" font-size="14.00" fill="#e2e8f0">AggregatePortfolioPage</text>
</g>
<!-- navigation&#45;&gt;hidden_AggregatePortfolio -->
<g id="edge44" class="edge">
<title>navigation&#45;&gt;hidden_AggregatePortfolio</title>
<path fill="none" stroke="#fb923c" stroke-width="1.3" stroke-dasharray="5,2" d="M135.02,-1314.29C150.08,-1374.04 204.55,-1557.05 324,-1642 346.9,-1658.28 375.62,-1666.93 403.18,-1671.3"/>
<polygon fill="#fb923c" stroke="#fb923c" stroke-width="1.3" points="402.98,-1674.1 411.3,-1672.47 403.78,-1668.55 402.98,-1674.1"/>
</g>
<!-- hidden_CollectionSessions -->
<g id="node46" class="node">
<title>hidden_CollectionSessions</title>
<path fill="#431407" stroke="#fb923c" d="M574,-1629C574,-1629 428,-1629 428,-1629 422,-1629 416,-1623 416,-1617 416,-1617 416,-1603 416,-1603 416,-1597 422,-1591 428,-1591 428,-1591 574,-1591 574,-1591 580,-1591 586,-1597 586,-1603 586,-1603 586,-1617 586,-1617 586,-1623 580,-1629 574,-1629"/>
<text text-anchor="middle" x="501" y="-1613.8" font-family="Segoe UI" font-size="14.00" fill="#e2e8f0">CollectionSessions</text>
<text text-anchor="middle" x="501" y="-1598.8" font-family="Segoe UI" font-size="14.00" fill="#e2e8f0">CollectionSessionPage</text>
</g>
<!-- navigation&#45;&gt;hidden_CollectionSessions -->
<g id="edge45" class="edge">
<title>navigation&#45;&gt;hidden_CollectionSessions</title>
<path fill="none" stroke="#fb923c" stroke-width="1.3" stroke-dasharray="5,2" d="M137.36,-1314.11C157.17,-1366.27 219.76,-1511.67 324,-1579 348.66,-1594.93 379.12,-1603.32 407.74,-1607.56"/>
<polygon fill="#fb923c" stroke="#fb923c" stroke-width="1.3" points="407.45,-1610.35 415.76,-1608.65 408.21,-1604.8 407.45,-1610.35"/>
</g>
<!-- hidden_ArchiveHealth -->
<g id="node47" class="node">
<title>hidden_ArchiveHealth</title>
<path fill="#431407" stroke="#fb923c" d="M562,-1566C562,-1566 440,-1566 440,-1566 434,-1566 428,-1560 428,-1554 428,-1554 428,-1540 428,-1540 428,-1534 434,-1528 440,-1528 440,-1528 562,-1528 562,-1528 568,-1528 574,-1534 574,-1540 574,-1540 574,-1554 574,-1554 574,-1560 568,-1566 562,-1566"/>
<text text-anchor="middle" x="501" y="-1550.8" font-family="Segoe UI" font-size="14.00" fill="#e2e8f0">ArchiveHealth</text>
<text text-anchor="middle" x="501" y="-1535.8" font-family="Segoe UI" font-size="14.00" fill="#e2e8f0">ArchiveHealthPage</text>
</g>
<!-- navigation&#45;&gt;hidden_ArchiveHealth -->
<g id="edge46" class="edge">
<title>navigation&#45;&gt;hidden_ArchiveHealth</title>
<path fill="none" stroke="#fb923c" stroke-width="1.3" stroke-dasharray="5,2" d="M141.09,-1314.25C166.34,-1358.14 234.69,-1465.69 324,-1516 352.79,-1532.21 388.07,-1540.3 419.48,-1544.22"/>
<polygon fill="#fb923c" stroke="#fb923c" stroke-width="1.3" points="419.53,-1547.05 427.8,-1545.17 420.17,-1541.48 419.53,-1547.05"/>
</g>
<!-- hidden_ServiceManager -->
<g id="node48" class="node">
<title>hidden_ServiceManager</title>
<path fill="#431407" stroke="#fb923c" d="M569.5,-1503C569.5,-1503 432.5,-1503 432.5,-1503 426.5,-1503 420.5,-1497 420.5,-1491 420.5,-1491 420.5,-1477 420.5,-1477 420.5,-1471 426.5,-1465 432.5,-1465 432.5,-1465 569.5,-1465 569.5,-1465 575.5,-1465 581.5,-1471 581.5,-1477 581.5,-1477 581.5,-1491 581.5,-1491 581.5,-1497 575.5,-1503 569.5,-1503"/>
<text text-anchor="middle" x="501" y="-1487.8" font-family="Segoe UI" font-size="14.00" fill="#e2e8f0">ServiceManager</text>
<text text-anchor="middle" x="501" y="-1472.8" font-family="Segoe UI" font-size="14.00" fill="#e2e8f0">ServiceManagerPage</text>
</g>
<!-- navigation&#45;&gt;hidden_ServiceManager -->
<g id="edge47" class="edge">
<title>navigation&#45;&gt;hidden_ServiceManager</title>
<path fill="none" stroke="#fb923c" stroke-width="1.3" stroke-dasharray="5,2" d="M147.51,-1314.25C178.78,-1348.27 249.08,-1418.68 324,-1453 351.33,-1465.52 383.18,-1473 412.22,-1477.47"/>
<polygon fill="#fb923c" stroke="#fb923c" stroke-width="1.3" points="412.01,-1480.27 420.33,-1478.65 412.82,-1474.73 412.01,-1480.27"/>
</g>
<!-- hidden_DataSampling -->
<g id="node49" class="node">
<title>hidden_DataSampling</title>
<path fill="#431407" stroke="#fb923c" d="M562.5,-1440C562.5,-1440 439.5,-1440 439.5,-1440 433.5,-1440 427.5,-1434 427.5,-1428 427.5,-1428 427.5,-1414 427.5,-1414 427.5,-1408 433.5,-1402 439.5,-1402 439.5,-1402 562.5,-1402 562.5,-1402 568.5,-1402 574.5,-1408 574.5,-1414 574.5,-1414 574.5,-1428 574.5,-1428 574.5,-1434 568.5,-1440 562.5,-1440"/>
<text text-anchor="middle" x="501" y="-1424.8" font-family="Segoe UI" font-size="14.00" fill="#e2e8f0">DataSampling</text>
<text text-anchor="middle" x="501" y="-1409.8" font-family="Segoe UI" font-size="14.00" fill="#e2e8f0">DataSamplingPage</text>
</g>
<!-- navigation&#45;&gt;hidden_DataSampling -->
<g id="edge48" class="edge">
<title>navigation&#45;&gt;hidden_DataSampling</title>
<path fill="none" stroke="#fb923c" stroke-width="1.3" stroke-dasharray="5,2" d="M162.19,-1314.05C199.57,-1335.68 264.23,-1370.5 324,-1390 354.46,-1399.94 388.99,-1406.9 419.34,-1411.68"/>
<polygon fill="#fb923c" stroke="#fb923c" stroke-width="1.3" points="419.04,-1414.46 427.37,-1412.9 419.89,-1408.93 419.04,-1414.46"/>
</g>
<!-- hidden_TimeSeriesAlignment -->
<g id="node50" class="node">
<title>hidden_TimeSeriesAlignment</title>
<path fill="#431407" stroke="#fb923c" d="M587.5,-1377C587.5,-1377 414.5,-1377 414.5,-1377 408.5,-1377 402.5,-1371 402.5,-1365 402.5,-1365 402.5,-1351 402.5,-1351 402.5,-1345 408.5,-1339 414.5,-1339 414.5,-1339 587.5,-1339 587.5,-1339 593.5,-1339 599.5,-1345 599.5,-1351 599.5,-1351 599.5,-1365 599.5,-1365 599.5,-1371 593.5,-1377 587.5,-1377"/>
<text text-anchor="middle" x="501" y="-1361.8" font-family="Segoe UI" font-size="14.00" fill="#e2e8f0">TimeSeriesAlignment</text>
<text text-anchor="middle" x="501" y="-1346.8" font-family="Segoe UI" font-size="14.00" fill="#e2e8f0">TimeSeriesAlignmentPage</text>
</g>
<!-- navigation&#45;&gt;hidden_TimeSeriesAlignment -->
<g id="edge49" class="edge">
<title>navigation&#45;&gt;hidden_TimeSeriesAlignment</title>
<path fill="none" stroke="#fb923c" stroke-width="1.3" stroke-dasharray="5,2" d="M200.87,-1307C255.48,-1316.31 332.06,-1329.37 394.07,-1339.94"/>
<polygon fill="#fb923c" stroke="#fb923c" stroke-width="1.3" points="393.97,-1342.76 402.33,-1341.35 394.91,-1337.24 393.97,-1342.76"/>
</g>
<!-- hidden_ExportPresets -->
<g id="node51" class="node">
<title>hidden_ExportPresets</title>
<path fill="#431407" stroke="#fb923c" d="M562,-1314C562,-1314 440,-1314 440,-1314 434,-1314 428,-1308 428,-1302 428,-1302 428,-1288 428,-1288 428,-1282 434,-1276 440,-1276 440,-1276 562,-1276 562,-1276 568,-1276 574,-1282 574,-1288 574,-1288 574,-1302 574,-1302 574,-1308 568,-1314 562,-1314"/>
<text text-anchor="middle" x="501" y="-1298.8" font-family="Segoe UI" font-size="14.00" fill="#e2e8f0">ExportPresets</text>
<text text-anchor="middle" x="501" y="-1283.8" font-family="Segoe UI" font-size="14.00" fill="#e2e8f0">ExportPresetsPage</text>
</g>
<!-- navigation&#45;&gt;hidden_ExportPresets -->
<g id="edge50" class="edge">
<title>navigation&#45;&gt;hidden_ExportPresets</title>
<path fill="none" stroke="#fb923c" stroke-width="1.3" stroke-dasharray="5,2" d="M200.87,-1295C263.22,-1295 354.22,-1295 419.46,-1295"/>
<polygon fill="#fb923c" stroke="#fb923c" stroke-width="1.3" points="419.68,-1297.8 427.68,-1295 419.68,-1292.2 419.68,-1297.8"/>
</g>
<!-- hidden_AnalysisExport -->
<g id="node52" class="node">
<title>hidden_AnalysisExport</title>
<path fill="#431407" stroke="#fb923c" d="M565.5,-1251C565.5,-1251 436.5,-1251 436.5,-1251 430.5,-1251 424.5,-1245 424.5,-1239 424.5,-1239 424.5,-1225 424.5,-1225 424.5,-1219 430.5,-1213 436.5,-1213 436.5,-1213 565.5,-1213 565.5,-1213 571.5,-1213 577.5,-1219 577.5,-1225 577.5,-1225 577.5,-1239 577.5,-1239 577.5,-1245 571.5,-1251 565.5,-1251"/>
<text text-anchor="middle" x="501" y="-1235.8" font-family="Segoe UI" font-size="14.00" fill="#e2e8f0">AnalysisExport</text>
<text text-anchor="middle" x="501" y="-1220.8" font-family="Segoe UI" font-size="14.00" fill="#e2e8f0">AnalysisExportPage</text>
</g>
<!-- navigation&#45;&gt;hidden_AnalysisExport -->
<g id="edge51" class="edge">
<title>navigation&#45;&gt;hidden_AnalysisExport</title>
<path fill="none" stroke="#fb923c" stroke-width="1.3" stroke-dasharray="5,2" d="M200.87,-1283C262.21,-1272.54 351.3,-1257.35 416.29,-1246.27"/>
<polygon fill="#fb923c" stroke="#fb923c" stroke-width="1.3" points="417.08,-1248.98 424.49,-1244.87 416.13,-1243.46 417.08,-1248.98"/>
</g>
<!-- hidden_AnalysisExportWizard -->
<g id="node53" class="node">
<title>hidden_AnalysisExportWizard</title>
<path fill="#431407" stroke="#fb923c" d="M589,-1188C589,-1188 413,-1188 413,-1188 407,-1188 401,-1182 401,-1176 401,-1176 401,-1162 401,-1162 401,-1156 407,-1150 413,-1150 413,-1150 589,-1150 589,-1150 595,-1150 601,-1156 601,-1162 601,-1162 601,-1176 601,-1176 601,-1182 595,-1188 589,-1188"/>
<text text-anchor="middle" x="501" y="-1172.8" font-family="Segoe UI" font-size="14.00" fill="#e2e8f0">AnalysisExportWizard</text>
<text text-anchor="middle" x="501" y="-1157.8" font-family="Segoe UI" font-size="14.00" fill="#e2e8f0">AnalysisExportWizardPage</text>
</g>
<!-- navigation&#45;&gt;hidden_AnalysisExportWizard -->
<g id="edge52" class="edge">
<title>navigation&#45;&gt;hidden_AnalysisExportWizard</title>
<path fill="none" stroke="#fb923c" stroke-width="1.3" stroke-dasharray="5,2" d="M200.65,-1284.42C220.31,-1279.66 241.17,-1272.81 259,-1263 293.98,-1243.76 288.42,-1219.11 324,-1201 345.14,-1190.24 369.32,-1183.05 392.86,-1178.26"/>
<polygon fill="#fb923c" stroke="#fb923c" stroke-width="1.3" points="393.49,-1181 400.81,-1176.73 392.43,-1175.5 393.49,-1181"/>
</g>
<!-- hidden_EventReplay -->
<g id="node54" class="node">
<title>hidden_EventReplay</title>
<path fill="#431407" stroke="#fb923c" d="M557,-1125C557,-1125 445,-1125 445,-1125 439,-1125 433,-1119 433,-1113 433,-1113 433,-1099 433,-1099 433,-1093 439,-1087 445,-1087 445,-1087 557,-1087 557,-1087 563,-1087 569,-1093 569,-1099 569,-1099 569,-1113 569,-1113 569,-1119 563,-1125 557,-1125"/>
<text text-anchor="middle" x="501" y="-1109.8" font-family="Segoe UI" font-size="14.00" fill="#e2e8f0">EventReplay</text>
<text text-anchor="middle" x="501" y="-1094.8" font-family="Segoe UI" font-size="14.00" fill="#e2e8f0">EventReplayPage</text>
</g>
<!-- navigation&#45;&gt;hidden_EventReplay -->
<g id="edge53" class="edge">
<title>navigation&#45;&gt;hidden_EventReplay</title>
<path fill="none" stroke="#fb923c" stroke-width="1.3" stroke-dasharray="5,2" d="M200.69,-1288.55C221.12,-1283.91 242.39,-1276.1 259,-1263 308.17,-1224.23 273.61,-1175.17 324,-1138 352.69,-1116.84 391.04,-1108.22 424.62,-1105.15"/>
<polygon fill="#fb923c" stroke="#fb923c" stroke-width="1.3" points="424.84,-1107.94 432.59,-1104.52 424.4,-1102.36 424.84,-1107.94"/>
</g>
<!-- hidden_AdvancedAnalytics -->
<g id="node55" class="node">
<title>hidden_AdvancedAnalytics</title>
<path fill="#431407" stroke="#fb923c" d="M579.5,-1062C579.5,-1062 422.5,-1062 422.5,-1062 416.5,-1062 410.5,-1056 410.5,-1050 410.5,-1050 410.5,-1036 410.5,-1036 410.5,-1030 416.5,-1024 422.5,-1024 422.5,-1024 579.5,-1024 579.5,-1024 585.5,-1024 591.5,-1030 591.5,-1036 591.5,-1036 591.5,-1050 591.5,-1050 591.5,-1056 585.5,-1062 579.5,-1062"/>
<text text-anchor="middle" x="501" y="-1046.8" font-family="Segoe UI" font-size="14.00" fill="#e2e8f0">AdvancedAnalytics</text>
<text text-anchor="middle" x="501" y="-1031.8" font-family="Segoe UI" font-size="14.00" fill="#e2e8f0">AdvancedAnalyticsPage</text>
</g>
<!-- navigation&#45;&gt;hidden_AdvancedAnalytics -->
<g id="edge54" class="edge">
<title>navigation&#45;&gt;hidden_AdvancedAnalytics</title>
<path fill="none" stroke="#fb923c" stroke-width="1.3" stroke-dasharray="5,2" d="M200.59,-1290.3C221.49,-1285.78 243.06,-1277.59 259,-1263 324.23,-1203.32 256.89,-1132.55 324,-1075 345.56,-1056.51 374.19,-1047.14 402.07,-1042.75"/>
<polygon fill="#fb923c" stroke="#fb923c" stroke-width="1.3" points="402.77,-1045.48 410.3,-1041.59 401.99,-1039.93 402.77,-1045.48"/>
</g>
<!-- hidden_DataCalendar -->
<g id="node56" class="node">
<title>hidden_DataCalendar</title>
<path fill="#431407" stroke="#fb923c" d="M561,-999C561,-999 441,-999 441,-999 435,-999 429,-993 429,-987 429,-987 429,-973 429,-973 429,-967 435,-961 441,-961 441,-961 561,-961 561,-961 567,-961 573,-967 573,-973 573,-973 573,-987 573,-987 573,-993 567,-999 561,-999"/>
<text text-anchor="middle" x="501" y="-983.8" font-family="Segoe UI" font-size="14.00" fill="#e2e8f0">DataCalendar</text>
<text text-anchor="middle" x="501" y="-968.8" font-family="Segoe UI" font-size="14.00" fill="#e2e8f0">DataCalendarPage</text>
</g>
<!-- navigation&#45;&gt;hidden_DataCalendar -->
<g id="edge55" class="edge">
<title>navigation&#45;&gt;hidden_DataCalendar</title>
<path fill="none" stroke="#fb923c" stroke-width="1.3" stroke-dasharray="5,2" d="M200.81,-1291.37C221.98,-1286.93 243.63,-1278.52 259,-1263 340.07,-1181.11 238.45,-1089.21 324,-1012 350.04,-988.5 387.36,-979.51 420.94,-976.79"/>
<polygon fill="#fb923c" stroke="#fb923c" stroke-width="1.3" points="421.14,-979.59 428.94,-976.26 420.77,-974 421.14,-979.59"/>
</g>
<!-- hidden_StorageOptimization -->
<g id="node57" class="node">
<title>hidden_StorageOptimization</title>
<path fill="#431407" stroke="#fb923c" d="M585,-936C585,-936 417,-936 417,-936 411,-936 405,-930 405,-924 405,-924 405,-910 405,-910 405,-904 411,-898 417,-898 417,-898 585,-898 585,-898 591,-898 597,-904 597,-910 597,-910 597,-924 597,-924 597,-930 591,-936 585,-936"/>
<text text-anchor="middle" x="501" y="-920.8" font-family="Segoe UI" font-size="14.00" fill="#e2e8f0">StorageOptimization</text>
<text text-anchor="middle" x="501" y="-905.8" font-family="Segoe UI" font-size="14.00" fill="#e2e8f0">StorageOptimizationPage</text>
</g>
<!-- navigation&#45;&gt;hidden_StorageOptimization -->
<g id="edge56" class="edge">
<title>navigation&#45;&gt;hidden_StorageOptimization</title>
<path fill="none" stroke="#fb923c" stroke-width="1.3" stroke-dasharray="5,2" d="M200.81,-1292.14C222.23,-1287.78 244.04,-1279.23 259,-1263 307.3,-1210.61 270.77,-996.37 324,-949 343.97,-931.23 370.42,-921.79 396.72,-917.09"/>
<polygon fill="#fb923c" stroke="#fb923c" stroke-width="1.3" points="397.42,-919.81 404.88,-915.78 396.53,-914.28 397.42,-919.81"/>
</g>
<!-- hidden_RetentionAssurance -->
<g id="node58" class="node">
<title>hidden_RetentionAssurance</title>
<path fill="#431407" stroke="#fb923c" d="M583,-873C583,-873 419,-873 419,-873 413,-873 407,-867 407,-861 407,-861 407,-847 407,-847 407,-841 413,-835 419,-835 419,-835 583,-835 583,-835 589,-835 595,-841 595,-847 595,-847 595,-861 595,-861 595,-867 589,-873 583,-873"/>
<text text-anchor="middle" x="501" y="-857.8" font-family="Segoe UI" font-size="14.00" fill="#e2e8f0">RetentionAssurance</text>
<text text-anchor="middle" x="501" y="-842.8" font-family="Segoe UI" font-size="14.00" fill="#e2e8f0">RetentionAssurancePage</text>
</g>
<!-- navigation&#45;&gt;hidden_RetentionAssurance -->
<g id="edge57" class="edge">
<title>navigation&#45;&gt;hidden_RetentionAssurance</title>
<path fill="none" stroke="#fb923c" stroke-width="1.3" stroke-dasharray="5,2" d="M200.62,-1292.34C222.16,-1288.01 244.09,-1279.43 259,-1263 316.15,-1200.06 262.94,-945.15 324,-886 343.9,-866.73 371.29,-857 398.55,-852.5"/>
<polygon fill="#fb923c" stroke="#fb923c" stroke-width="1.3" points="399.1,-855.25 406.61,-851.32 398.29,-849.71 399.1,-855.25"/>
</g>
<!-- hidden_MessagingHub -->
<g id="node59" class="node">
<title>hidden_MessagingHub</title>
<path fill="#431407" stroke="#fb923c" d="M565,-810C565,-810 437,-810 437,-810 431,-810 425,-804 425,-798 425,-798 425,-784 425,-784 425,-778 431,-772 437,-772 437,-772 565,-772 565,-772 571,-772 577,-778 577,-784 577,-784 577,-798 577,-798 577,-804 571,-810 565,-810"/>
<text text-anchor="middle" x="501" y="-794.8" font-family="Segoe UI" font-size="14.00" fill="#e2e8f0">MessagingHub</text>
<text text-anchor="middle" x="501" y="-779.8" font-family="Segoe UI" font-size="14.00" fill="#e2e8f0">MessagingHubPage</text>
</g>
<!-- navigation&#45;&gt;hidden_MessagingHub -->
<g id="edge58" class="edge">
<title>navigation&#45;&gt;hidden_MessagingHub</title>
<path fill="none" stroke="#fb923c" stroke-width="1.3" stroke-dasharray="5,2" d="M200.57,-1292.66C222.24,-1288.38 244.26,-1279.73 259,-1263 324.34,-1188.84 253.06,-891.83 324,-823 348.25,-799.48 383.67,-790.17 416.39,-787.24"/>
<polygon fill="#fb923c" stroke="#fb923c" stroke-width="1.3" points="416.87,-790.01 424.64,-786.63 416.45,-784.42 416.87,-790.01"/>
</g>
<!-- hidden_ResearchShell -->
<g id="node60" class="node">
<title>hidden_ResearchShell</title>
<path fill="#431407" stroke="#fb923c" d="M600,-747C600,-747 402,-747 402,-747 396,-747 390,-741 390,-735 390,-735 390,-721 390,-721 390,-715 396,-709 402,-709 402,-709 600,-709 600,-709 606,-709 612,-715 612,-721 612,-721 612,-735 612,-735 612,-741 606,-747 600,-747"/>
<text text-anchor="middle" x="501" y="-731.8" font-family="Segoe UI" font-size="14.00" fill="#e2e8f0">ResearchShell</text>
<text text-anchor="middle" x="501" y="-716.8" font-family="Segoe UI" font-size="14.00" fill="#e2e8f0">ResearchWorkspaceShellPage</text>
</g>
<!-- navigation&#45;&gt;hidden_ResearchShell -->
<g id="edge59" class="edge">
<title>navigation&#45;&gt;hidden_ResearchShell</title>
<path fill="none" stroke="#fb923c" stroke-width="1.3" stroke-dasharray="5,2" d="M200.79,-1292.86C222.47,-1288.58 244.45,-1279.9 259,-1263 332.55,-1177.6 242.48,-837.83 324,-760 339.91,-744.82 360.48,-735.58 381.91,-730.17"/>
<polygon fill="#fb923c" stroke="#fb923c" stroke-width="1.3" points="382.68,-732.87 389.84,-728.35 381.42,-727.41 382.68,-732.87"/>
</g>
<!-- hidden_TradingShell -->
<g id="node61" class="node">
<title>hidden_TradingShell</title>
<path fill="#431407" stroke="#fb923c" d="M594.5,-684C594.5,-684 407.5,-684 407.5,-684 401.5,-684 395.5,-678 395.5,-672 395.5,-672 395.5,-658 395.5,-658 395.5,-652 401.5,-646 407.5,-646 407.5,-646 594.5,-646 594.5,-646 600.5,-646 606.5,-652 606.5,-658 606.5,-658 606.5,-672 606.5,-672 606.5,-678 600.5,-684 594.5,-684"/>
<text text-anchor="middle" x="501" y="-668.8" font-family="Segoe UI" font-size="14.00" fill="#e2e8f0">TradingShell</text>
<text text-anchor="middle" x="501" y="-653.8" font-family="Segoe UI" font-size="14.00" fill="#e2e8f0">TradingWorkspaceShellPage</text>
</g>
<!-- navigation&#45;&gt;hidden_TradingShell -->
<g id="edge60" class="edge">
<title>navigation&#45;&gt;hidden_TradingShell</title>
<path fill="none" stroke="#fb923c" stroke-width="1.3" stroke-dasharray="5,2" d="M200.61,-1293.05C222.41,-1288.81 244.5,-1280.1 259,-1263 340.88,-1166.44 231.61,-783.56 324,-697 341.31,-680.78 363.95,-671.4 387.21,-666.2"/>
<polygon fill="#fb923c" stroke="#fb923c" stroke-width="1.3" points="387.83,-668.94 395.11,-664.6 386.71,-663.45 387.83,-668.94"/>
</g>
<!-- hidden_Workspaces -->
<g id="node62" class="node">
<title>hidden_Workspaces</title>
<path fill="#431407" stroke="#fb923c" d="M551.5,-621C551.5,-621 450.5,-621 450.5,-621 444.5,-621 438.5,-615 438.5,-609 438.5,-609 438.5,-595 438.5,-595 438.5,-589 444.5,-583 450.5,-583 450.5,-583 551.5,-583 551.5,-583 557.5,-583 563.5,-589 563.5,-595 563.5,-595 563.5,-609 563.5,-609 563.5,-615 557.5,-621 551.5,-621"/>
<text text-anchor="middle" x="501" y="-605.8" font-family="Segoe UI" font-size="14.00" fill="#e2e8f0">Workspaces</text>
<text text-anchor="middle" x="501" y="-590.8" font-family="Segoe UI" font-size="14.00" fill="#e2e8f0">WorkspacePage</text>
</g>
<!-- navigation&#45;&gt;hidden_Workspaces -->
<g id="edge61" class="edge">
<title>navigation&#45;&gt;hidden_Workspaces</title>
<path fill="none" stroke="#fb923c" stroke-width="1.3" stroke-dasharray="5,2" d="M200.71,-1293.14C222.52,-1288.91 244.6,-1280.17 259,-1263 349.3,-1155.34 220.73,-729.3 324,-634 352.22,-607.96 394.24,-599.61 430.14,-597.93"/>
<polygon fill="#fb923c" stroke="#fb923c" stroke-width="1.3" points="430.27,-600.73 438.18,-597.66 430.09,-595.13 430.27,-600.73"/>
</g>
<!-- hidden_NotificationCenter -->
<g id="node63" class="node">
<title>hidden_NotificationCenter</title>
<path fill="#431407" stroke="#fb923c" d="M576.5,-558C576.5,-558 425.5,-558 425.5,-558 419.5,-558 413.5,-552 413.5,-546 413.5,-546 413.5,-532 413.5,-532 413.5,-526 419.5,-520 425.5,-520 425.5,-520 576.5,-520 576.5,-520 582.5,-520 588.5,-526 588.5,-532 588.5,-532 588.5,-546 588.5,-546 588.5,-552 582.5,-558 576.5,-558"/>
<text text-anchor="middle" x="501" y="-542.8" font-family="Segoe UI" font-size="14.00" fill="#e2e8f0">NotificationCenter</text>
<text text-anchor="middle" x="501" y="-527.8" font-family="Segoe UI" font-size="14.00" fill="#e2e8f0">NotificationCenterPage</text>
</g>
<!-- navigation&#45;&gt;hidden_NotificationCenter -->
<g id="edge62" class="edge">
<title>navigation&#45;&gt;hidden_NotificationCenter</title>
<path fill="none" stroke="#fb923c" stroke-width="1.3" stroke-dasharray="5,2" d="M200.79,-1293.2C222.61,-1288.98 244.66,-1280.23 259,-1263 300.73,-1212.86 284.34,-741.36 295,-677 302.98,-628.81 287.99,-604 324,-571 345.87,-550.96 375.92,-541.42 405.01,-537.33"/>
<polygon fill="#fb923c" stroke="#fb923c" stroke-width="1.3" points="405.58,-540.08 413.18,-536.32 404.89,-534.52 405.58,-540.08"/>
</g>
<!-- hidden_Help -->
<g id="node64" class="node">
<title>hidden_Help</title>
<path fill="#431407" stroke="#fb923c" d="M529.5,-495C529.5,-495 472.5,-495 472.5,-495 466.5,-495 460.5,-489 460.5,-483 460.5,-483 460.5,-469 460.5,-469 460.5,-463 466.5,-457 472.5,-457 472.5,-457 529.5,-457 529.5,-457 535.5,-457 541.5,-463 541.5,-469 541.5,-469 541.5,-483 541.5,-483 541.5,-489 535.5,-495 529.5,-495"/>
<text text-anchor="middle" x="501" y="-479.8" font-family="Segoe UI" font-size="14.00" fill="#e2e8f0">Help</text>
<text text-anchor="middle" x="501" y="-464.8" font-family="Segoe UI" font-size="14.00" fill="#e2e8f0">HelpPage</text>
</g>
<!-- navigation&#45;&gt;hidden_Help -->
<g id="edge63" class="edge">
<title>navigation&#45;&gt;hidden_Help</title>
<path fill="none" stroke="#fb923c" stroke-width="1.3" stroke-dasharray="5,2" d="M200.8,-1293.21C222.62,-1288.99 244.67,-1280.24 259,-1263 312.82,-1198.25 264.38,-567.45 324,-508 357.16,-474.94 412.31,-469.72 452.04,-471.02"/>
<polygon fill="#fb923c" stroke="#fb923c" stroke-width="1.3" points="452.16,-473.82 460.28,-471.38 452.41,-468.23 452.16,-473.82"/>
</g>
<!-- hidden_Welcome -->
<g id="node65" class="node">
<title>hidden_Welcome</title>
<path fill="#431407" stroke="#fb923c" d="M545,-432C545,-432 457,-432 457,-432 451,-432 445,-426 445,-420 445,-420 445,-406 445,-406 445,-400 451,-394 457,-394 457,-394 545,-394 545,-394 551,-394 557,-400 557,-406 557,-406 557,-420 557,-420 557,-426 551,-432 545,-432"/>
<text text-anchor="middle" x="501" y="-416.8" font-family="Segoe UI" font-size="14.00" fill="#e2e8f0">Welcome</text>
<text text-anchor="middle" x="501" y="-401.8" font-family="Segoe UI" font-size="14.00" fill="#e2e8f0">WelcomePage</text>
</g>
<!-- navigation&#45;&gt;hidden_Welcome -->
<g id="edge64" class="edge">
<title>navigation&#45;&gt;hidden_Welcome</title>
<path fill="none" stroke="#fb923c" stroke-width="1.3" stroke-dasharray="5,2" d="M200.82,-1293.23C222.64,-1289.01 244.69,-1280.25 259,-1263 317.21,-1192.82 260.67,-510.59 324,-445 352.48,-415.5 398.39,-407.92 436.18,-407.49"/>
<polygon fill="#fb923c" stroke="#fb923c" stroke-width="1.3" points="436.6,-410.29 444.6,-407.51 436.61,-404.69 436.6,-410.29"/>
</g>
<!-- hidden_CredentialManagement -->
<g id="node66" class="node">
<title>hidden_CredentialManagement</title>
<path fill="#431407" stroke="#fb923c" d="M594.5,-369C594.5,-369 407.5,-369 407.5,-369 401.5,-369 395.5,-363 395.5,-357 395.5,-357 395.5,-343 395.5,-343 395.5,-337 401.5,-331 407.5,-331 407.5,-331 594.5,-331 594.5,-331 600.5,-331 606.5,-337 606.5,-343 606.5,-343 606.5,-357 606.5,-357 606.5,-363 600.5,-369 594.5,-369"/>
<text text-anchor="middle" x="501" y="-353.8" font-family="Segoe UI" font-size="14.00" fill="#e2e8f0">CredentialManagement</text>
<text text-anchor="middle" x="501" y="-338.8" font-family="Segoe UI" font-size="14.00" fill="#e2e8f0">CredentialManagementPage</text>
</g>
<!-- navigation&#45;&gt;hidden_CredentialManagement -->
<g id="edge65" class="edge">
<title>navigation&#45;&gt;hidden_CredentialManagement</title>
<path fill="none" stroke="#fb923c" stroke-width="1.3" stroke-dasharray="5,2" d="M200.55,-1293.34C222.48,-1289.15 244.67,-1280.38 259,-1263 321.44,-1187.27 255.67,-452.46 324,-382 340.8,-364.67 363.62,-354.92 387.26,-349.73"/>
<polygon fill="#fb923c" stroke="#fb923c" stroke-width="1.3" points="387.99,-352.44 395.3,-348.15 386.91,-346.95 387.99,-352.44"/>
</g>
<!-- hidden_KeyboardShortcuts -->
<g id="node67" class="node">
<title>hidden_KeyboardShortcuts</title>
<path fill="#431407" stroke="#fb923c" d="M579.5,-306C579.5,-306 422.5,-306 422.5,-306 416.5,-306 410.5,-300 410.5,-294 410.5,-294 410.5,-280 410.5,-280 410.5,-274 416.5,-268 422.5,-268 422.5,-268 579.5,-268 579.5,-268 585.5,-268 591.5,-274 591.5,-280 591.5,-280 591.5,-294 591.5,-294 591.5,-300 585.5,-306 579.5,-306"/>
<text text-anchor="middle" x="501" y="-290.8" font-family="Segoe UI" font-size="14.00" fill="#e2e8f0">KeyboardShortcuts</text>
<text text-anchor="middle" x="501" y="-275.8" font-family="Segoe UI" font-size="14.00" fill="#e2e8f0">KeyboardShortcutsPage</text>
</g>
<!-- navigation&#45;&gt;hidden_KeyboardShortcuts -->
<g id="edge66" class="edge">
<title>navigation&#45;&gt;hidden_KeyboardShortcuts</title>
<path fill="none" stroke="#fb923c" stroke-width="1.3" stroke-dasharray="5,2" d="M200.59,-1293.38C222.53,-1289.19 244.71,-1280.42 259,-1263 325.69,-1181.72 250.57,-394.24 324,-319 344.42,-298.07 373.63,-288.21 402.39,-284.11"/>
<polygon fill="#fb923c" stroke="#fb923c" stroke-width="1.3" points="402.9,-286.87 410.49,-283.1 402.2,-281.31 402.9,-286.87"/>
</g>
<!-- hidden_SetupWizard -->
<g id="node68" class="node">
<title>hidden_SetupWizard</title>
<path fill="#431407" stroke="#fb923c" d="M557.5,-243C557.5,-243 444.5,-243 444.5,-243 438.5,-243 432.5,-237 432.5,-231 432.5,-231 432.5,-217 432.5,-217 432.5,-211 438.5,-205 444.5,-205 444.5,-205 557.5,-205 557.5,-205 563.5,-205 569.5,-211 569.5,-217 569.5,-217 569.5,-231 569.5,-231 569.5,-237 563.5,-243 557.5,-243"/>
<text text-anchor="middle" x="501" y="-227.8" font-family="Segoe UI" font-size="14.00" fill="#e2e8f0">SetupWizard</text>
<text text-anchor="middle" x="501" y="-212.8" font-family="Segoe UI" font-size="14.00" fill="#e2e8f0">SetupWizardPage</text>
</g>
<!-- navigation&#45;&gt;hidden_SetupWizard -->
<g id="edge67" class="edge">
<title>navigation&#45;&gt;hidden_SetupWizard</title>
<path fill="none" stroke="#fb923c" stroke-width="1.3" stroke-dasharray="5,2" d="M200.63,-1293.42C222.57,-1289.23 244.75,-1280.45 259,-1263 329.94,-1176.17 245.38,-335.94 324,-256 349.71,-229.87 389.12,-221.03 424.14,-219.09"/>
<polygon fill="#fb923c" stroke="#fb923c" stroke-width="1.3" points="424.59,-221.88 432.47,-218.76 424.37,-216.28 424.59,-221.88"/>
</g>
<!-- hidden_AddProviderWizard -->
<g id="node69" class="node">
<title>hidden_AddProviderWizard</title>
<path fill="#431407" stroke="#fb923c" d="M579.5,-180C579.5,-180 422.5,-180 422.5,-180 416.5,-180 410.5,-174 410.5,-168 410.5,-168 410.5,-154 410.5,-154 410.5,-148 416.5,-142 422.5,-142 422.5,-142 579.5,-142 579.5,-142 585.5,-142 591.5,-148 591.5,-154 591.5,-154 591.5,-168 591.5,-168 591.5,-174 585.5,-180 579.5,-180"/>
<text text-anchor="middle" x="501" y="-164.8" font-family="Segoe UI" font-size="14.00" fill="#e2e8f0">AddProviderWizard</text>
<text text-anchor="middle" x="501" y="-149.8" font-family="Segoe UI" font-size="14.00" fill="#e2e8f0">AddProviderWizardPage</text>
</g>
<!-- navigation&#45;&gt;hidden_AddProviderWizard -->
<g id="edge68" class="edge">
<title>navigation&#45;&gt;hidden_AddProviderWizard</title>
<path fill="none" stroke="#fb923c" stroke-width="1.3" stroke-dasharray="5,2" d="M200.67,-1293.45C222.61,-1289.26 244.78,-1280.47 259,-1263 334.19,-1170.63 240.03,-277.47 324,-193 344.51,-172.36 373.59,-162.55 402.21,-158.39"/>
<polygon fill="#fb923c" stroke="#fb923c" stroke-width="1.3" points="402.68,-161.16 410.26,-157.37 401.97,-155.6 402.68,-161.16"/>
</g>
<!-- hidden_ActivityLog -->
<g id="node70" class="node">
<title>hidden_ActivityLog</title>
<path fill="#431407" stroke="#fb923c" d="M551.5,-117C551.5,-117 450.5,-117 450.5,-117 444.5,-117 438.5,-111 438.5,-105 438.5,-105 438.5,-91 438.5,-91 438.5,-85 444.5,-79 450.5,-79 450.5,-79 551.5,-79 551.5,-79 557.5,-79 563.5,-85 563.5,-91 563.5,-91 563.5,-105 563.5,-105 563.5,-111 557.5,-117 551.5,-117"/>
<text text-anchor="middle" x="501" y="-101.8" font-family="Segoe UI" font-size="14.00" fill="#e2e8f0">ActivityLog</text>
<text text-anchor="middle" x="501" y="-86.8" font-family="Segoe UI" font-size="14.00" fill="#e2e8f0">ActivityLogPage</text>
</g>
<!-- navigation&#45;&gt;hidden_ActivityLog -->
<g id="edge69" class="edge">
<title>navigation&#45;&gt;hidden_ActivityLog</title>
<path fill="none" stroke="#fb923c" stroke-width="1.3" stroke-dasharray="5,2" d="M200.7,-1293.47C222.64,-1289.28 244.8,-1280.49 259,-1263 338.46,-1165.09 234.5,-218.83 324,-130 351.46,-102.74 393.87,-94.44 430.18,-93.09"/>
<polygon fill="#fb923c" stroke="#fb923c" stroke-width="1.3" points="430.38,-95.89 438.31,-92.9 430.24,-90.29 430.38,-95.89"/>
</g>
<!-- hidden_SecurityMaster -->
<g id="node71" class="node">
<title>hidden_SecurityMaster</title>
<path fill="#431407" stroke="#fb923c" d="M566,-54C566,-54 436,-54 436,-54 430,-54 424,-48 424,-42 424,-42 424,-28 424,-28 424,-22 430,-16 436,-16 436,-16 566,-16 566,-16 572,-16 578,-22 578,-28 578,-28 578,-42 578,-42 578,-48 572,-54 566,-54"/>
<text text-anchor="middle" x="501" y="-38.8" font-family="Segoe UI" font-size="14.00" fill="#e2e8f0">SecurityMaster</text>
<text text-anchor="middle" x="501" y="-23.8" font-family="Segoe UI" font-size="14.00" fill="#e2e8f0">SecurityMasterPage</text>
</g>
<!-- navigation&#45;&gt;hidden_SecurityMaster -->
<g id="edge70" class="edge">
<title>navigation&#45;&gt;hidden_SecurityMaster</title>
<path fill="none" stroke="#fb923c" stroke-width="1.3" stroke-dasharray="5,2" d="M200.72,-1293.49C222.67,-1289.3 244.82,-1280.51 259,-1263 342.74,-1159.56 229.31,-160.52 324,-67 347.93,-43.36 383.12,-34 415.76,-31.06"/>
<polygon fill="#fb923c" stroke="#fb923c" stroke-width="1.3" points="416.22,-33.83 423.99,-30.45 415.81,-28.25 416.22,-33.83"/>
</g>
<!-- page_Dashboard -->
<g id="node5" class="node">
<title>page_Dashboard</title>
<path fill="#1e293b" stroke="#475569" d="M1009.5,-2603C1009.5,-2603 812.5,-2603 812.5,-2603 806.5,-2603 800.5,-2597 800.5,-2591 800.5,-2591 800.5,-2577 800.5,-2577 800.5,-2571 806.5,-2565 812.5,-2565 812.5,-2565 1009.5,-2565 1009.5,-2565 1015.5,-2565 1021.5,-2571 1021.5,-2577 1021.5,-2577 1021.5,-2591 1021.5,-2591 1021.5,-2597 1015.5,-2603 1009.5,-2603"/>
<text text-anchor="middle" x="911" y="-2587.8" font-family="Segoe UI" font-size="14.00" fill="#e2e8f0">Dashboard</text>
<text text-anchor="middle" x="911" y="-2572.8" font-family="Segoe UI" font-size="14.00" fill="#e2e8f0">Dashboard → DashboardPage</text>
</g>
<!-- workspace_1&#45;&gt;page_Dashboard -->
<g id="edge3" class="edge">
<title>workspace_1&#45;&gt;page_Dashboard</title>
<path fill="none" stroke="#94a3b8" stroke-width="1.3" d="M501.61,-3320.94C500.79,-3226.51 510.64,-2805.85 743,-2616 757.3,-2604.31 774.59,-2596.43 792.54,-2591.19"/>
<polygon fill="#94a3b8" stroke="#94a3b8" stroke-width="1.3" points="793.28,-2593.89 800.27,-2589.1 791.82,-2588.48 793.28,-2593.89"/>
</g>
<!-- page_LiveData -->
<g id="node6" class="node">
<title>page_LiveData</title>
<path fill="#1e293b" stroke="#475569" d="M1017.5,-2666C1017.5,-2666 804.5,-2666 804.5,-2666 798.5,-2666 792.5,-2660 792.5,-2654 792.5,-2654 792.5,-2640 792.5,-2640 792.5,-2634 798.5,-2628 804.5,-2628 804.5,-2628 1017.5,-2628 1017.5,-2628 1023.5,-2628 1029.5,-2634 1029.5,-2640 1029.5,-2640 1029.5,-2654 1029.5,-2654 1029.5,-2660 1023.5,-2666 1017.5,-2666"/>
<text text-anchor="middle" x="911" y="-2650.8" font-family="Segoe UI" font-size="14.00" fill="#e2e8f0">LiveData</text>
<text text-anchor="middle" x="911" y="-2635.8" font-family="Segoe UI" font-size="14.00" fill="#e2e8f0">LiveData → LiveDataViewerPage</text>
</g>
<!-- workspace_1&#45;&gt;page_LiveData -->
<g id="edge4" class="edge">
<title>workspace_1&#45;&gt;page_LiveData</title>
<path fill="none" stroke="#94a3b8" stroke-width="1.3" d="M502.38,-3320.92C505.29,-3231.72 530.17,-2852.88 743,-2679 755.17,-2669.06 769.49,-2661.87 784.55,-2656.71"/>
<polygon fill="#94a3b8" stroke="#94a3b8" stroke-width="1.3" points="785.71,-2659.29 792.49,-2654.2 784.02,-2653.95 785.71,-2659.29"/>
</g>
<!-- page_Charts -->
<g id="node7" class="node">
<title>page_Charts</title>
<path fill="#1e293b" stroke="#475569" d="M987,-2729C987,-2729 835,-2729 835,-2729 829,-2729 823,-2723 823,-2717 823,-2717 823,-2703 823,-2703 823,-2697 829,-2691 835,-2691 835,-2691 987,-2691 987,-2691 993,-2691 999,-2697 999,-2703 999,-2703 999,-2717 999,-2717 999,-2723 993,-2729 987,-2729"/>
<text text-anchor="middle" x="911" y="-2713.8" font-family="Segoe UI" font-size="14.00" fill="#e2e8f0">Charts</text>
<text text-anchor="middle" x="911" y="-2698.8" font-family="Segoe UI" font-size="14.00" fill="#e2e8f0">Charts → ChartingPage</text>
</g>
<!-- workspace_1&#45;&gt;page_Charts -->
<g id="edge5" class="edge">
<title>workspace_1&#45;&gt;page_Charts</title>
<path fill="none" stroke="#94a3b8" stroke-width="1.3" d="M503.31,-3320.89C510.13,-3237.14 549.17,-2899.72 743,-2742 763.23,-2725.54 789.39,-2716.63 814.98,-2712.02"/>
<polygon fill="#94a3b8" stroke="#94a3b8" stroke-width="1.3" points="815.45,-2714.78 822.89,-2710.72 814.55,-2709.25 815.45,-2714.78"/>
</g>
<!-- page_QuantScript -->
<g id="node8" class="node">
<title>page_QuantScript</title>
<path fill="#1e293b" stroke="#475569" d="M1017.5,-2792C1017.5,-2792 804.5,-2792 804.5,-2792 798.5,-2792 792.5,-2786 792.5,-2780 792.5,-2780 792.5,-2766 792.5,-2766 792.5,-2760 798.5,-2754 804.5,-2754 804.5,-2754 1017.5,-2754 1017.5,-2754 1023.5,-2754 1029.5,-2760 1029.5,-2766 1029.5,-2766 1029.5,-2780 1029.5,-2780 1029.5,-2786 1023.5,-2792 1017.5,-2792"/>
<text text-anchor="middle" x="911" y="-2776.8" font-family="Segoe UI" font-size="14.00" fill="#e2e8f0">QuantScript</text>
<text text-anchor="middle" x="911" y="-2761.8" font-family="Segoe UI" font-size="14.00" fill="#e2e8f0">QuantScript → QuantScriptPage</text>
</g>
<!-- workspace_1&#45;&gt;page_QuantScript -->
<g id="edge6" class="edge">
<title>workspace_1&#45;&gt;page_QuantScript</title>
<path fill="none" stroke="#94a3b8" stroke-width="1.3" d="M504.34,-3320.82C514.97,-3242.54 566.12,-2944.69 743,-2805 755.23,-2795.34 769.52,-2788.3 784.5,-2783.22"/>
<polygon fill="#94a3b8" stroke="#94a3b8" stroke-width="1.3" points="785.6,-2785.81 792.39,-2780.74 783.92,-2780.47 785.6,-2785.81"/>
</g>
<!-- page_RunMat -->
<g id="node9" class="node">
<title>page_RunMat</title>
<path fill="#1e293b" stroke="#475569" d="M987,-2855C987,-2855 835,-2855 835,-2855 829,-2855 823,-2849 823,-2843 823,-2843 823,-2829 823,-2829 823,-2823 829,-2817 835,-2817 835,-2817 987,-2817 987,-2817 993,-2817 999,-2823 999,-2829 999,-2829 999,-2843 999,-2843 999,-2849 993,-2855 987,-2855"/>
<text text-anchor="middle" x="911" y="-2839.8" font-family="Segoe UI" font-size="14.00" fill="#e2e8f0">RunMat</text>
<text text-anchor="middle" x="911" y="-2824.8" font-family="Segoe UI" font-size="14.00" fill="#e2e8f0">RunMat → RunMatPage</text>
</g>
<!-- workspace_1&#45;&gt;page_RunMat -->
<g id="edge7" class="edge">
<title>workspace_1&#45;&gt;page_RunMat</title>
<path fill="none" stroke="#94a3b8" stroke-width="1.3" d="M505.55,-3320.85C520.05,-3248.39 581.86,-2988.98 743,-2868 763.56,-2852.57 789.45,-2843.93 814.67,-2839.25"/>
<polygon fill="#94a3b8" stroke="#94a3b8" stroke-width="1.3" points="815.41,-2841.97 822.83,-2837.87 814.47,-2836.45 815.41,-2841.97"/>
</g>
<!-- page_StrategyRuns -->
<g id="node10" class="node">
<title>page_StrategyRuns</title>
<path fill="#1e293b" stroke="#475569" d="M1028,-2918C1028,-2918 794,-2918 794,-2918 788,-2918 782,-2912 782,-2906 782,-2906 782,-2892 782,-2892 782,-2886 788,-2880 794,-2880 794,-2880 1028,-2880 1028,-2880 1034,-2880 1040,-2886 1040,-2892 1040,-2892 1040,-2906 1040,-2906 1040,-2912 1034,-2918 1028,-2918"/>
<text text-anchor="middle" x="911" y="-2902.8" font-family="Segoe UI" font-size="14.00" fill="#e2e8f0">StrategyRuns</text>
<text text-anchor="middle" x="911" y="-2887.8" font-family="Segoe UI" font-size="14.00" fill="#e2e8f0">StrategyRuns → StrategyRunsPage</text>
</g>
<!-- workspace_1&#45;&gt;page_StrategyRuns -->
<g id="edge8" class="edge">
<title>workspace_1&#45;&gt;page_StrategyRuns</title>
<path fill="none" stroke="#94a3b8" stroke-width="1.3" d="M513.55,-3320.89C547.47,-3273.15 648.14,-3147.03 707,-3028 729.61,-2982.27 704.66,-2952.66 743,-2919 752.19,-2910.93 762.78,-2904.64 774.07,-2899.8"/>
<polygon fill="#94a3b8" stroke="#94a3b8" stroke-width="1.3" points="775.18,-2902.38 781.59,-2896.83 773.12,-2897.17 775.18,-2902.38"/>
</g>
<!-- workspace_1&#45;&gt;page_StrategyRuns -->
<g id="edge12" class="edge">
<title>workspace_1&#45;&gt;page_StrategyRuns</title>
<path fill="none" stroke="#94a3b8" stroke-width="1.3" d="M523.97,-3321C564.84,-3276.03 653.31,-3161.57 707,-3053 729.61,-3007.27 704.66,-2977.66 743,-2944 754.9,-2933.55 769.15,-2926.08 784.23,-2920.67"/>
<polygon fill="#94a3b8" stroke="#94a3b8" stroke-width="1.3" points="785.48,-2923.2 792.19,-2918.02 783.72,-2917.89 785.48,-2923.2"/>
</g>
<!-- page_OrderBook -->
<g id="node11" class="node">
<title>page_OrderBook</title>
<path fill="#1e293b" stroke="#475569" d="M1008.5,-2981C1008.5,-2981 813.5,-2981 813.5,-2981 807.5,-2981 801.5,-2975 801.5,-2969 801.5,-2969 801.5,-2955 801.5,-2955 801.5,-2949 807.5,-2943 813.5,-2943 813.5,-2943 1008.5,-2943 1008.5,-2943 1014.5,-2943 1020.5,-2949 1020.5,-2955 1020.5,-2955 1020.5,-2969 1020.5,-2969 1020.5,-2975 1014.5,-2981 1008.5,-2981"/>
<text text-anchor="middle" x="911" y="-2965.8" font-family="Segoe UI" font-size="14.00" fill="#e2e8f0">OrderBook</text>
<text text-anchor="middle" x="911" y="-2950.8" font-family="Segoe UI" font-size="14.00" fill="#e2e8f0">OrderBook → OrderBookPage</text>
</g>
<!-- workspace_1&#45;&gt;page_OrderBook -->
<g id="edge9" class="edge">
<title>workspace_1&#45;&gt;page_OrderBook</title>
<path fill="none" stroke="#94a3b8" stroke-width="1.3" d="M538.52,-3320.85C585.4,-3294.27 665.62,-3241.59 707,-3173 748.92,-3103.52 685.36,-3051.12 743,-2994 756.82,-2980.3 774.6,-2971.54 793.38,-2966.07"/>
<polygon fill="#94a3b8" stroke="#94a3b8" stroke-width="1.3" points="794.18,-2968.76 801.19,-2964 792.74,-2963.35 794.18,-2968.76"/>
</g>
<!-- page_Watchlist -->
<g id="node12" class="node">
<title>page_Watchlist</title>
<path fill="#1e293b" stroke="#475569" d="M997.5,-3044C997.5,-3044 824.5,-3044 824.5,-3044 818.5,-3044 812.5,-3038 812.5,-3032 812.5,-3032 812.5,-3018 812.5,-3018 812.5,-3012 818.5,-3006 824.5,-3006 824.5,-3006 997.5,-3006 997.5,-3006 1003.5,-3006 1009.5,-3012 1009.5,-3018 1009.5,-3018 1009.5,-3032 1009.5,-3032 1009.5,-3038 1003.5,-3044 997.5,-3044"/>
<text text-anchor="middle" x="911" y="-3028.8" font-family="Segoe UI" font-size="14.00" fill="#e2e8f0">Watchlist</text>
<text text-anchor="middle" x="911" y="-3013.8" font-family="Segoe UI" font-size="14.00" fill="#e2e8f0">Watchlist → WatchlistPage</text>
</g>
<!-- workspace_1&#45;&gt;page_Watchlist -->
<g id="edge10" class="edge">
<title>workspace_1&#45;&gt;page_Watchlist</title>
<path fill="none" stroke="#94a3b8" stroke-width="1.3" d="M563.02,-3326.95C609.61,-3313.75 671.63,-3288.57 707,-3243 758.63,-3176.48 683.41,-3116.48 743,-3057 759.45,-3040.58 781.57,-3031.24 804.32,-3026.17"/>
<polygon fill="#94a3b8" stroke="#94a3b8" stroke-width="1.3" points="805.1,-3028.87 812.39,-3024.55 803.99,-3023.38 805.1,-3028.87"/>
</g>
<!-- page_Backtest -->
<g id="node13" class="node">
<title>page_Backtest</title>
<path fill="#1e293b" stroke="#475569" d="M994.5,-3107C994.5,-3107 827.5,-3107 827.5,-3107 821.5,-3107 815.5,-3101 815.5,-3095 815.5,-3095 815.5,-3081 815.5,-3081 815.5,-3075 821.5,-3069 827.5,-3069 827.5,-3069 994.5,-3069 994.5,-3069 1000.5,-3069 1006.5,-3075 1006.5,-3081 1006.5,-3081 1006.5,-3095 1006.5,-3095 1006.5,-3101 1000.5,-3107 994.5,-3107"/>
<text text-anchor="middle" x="911" y="-3091.8" font-family="Segoe UI" font-size="14.00" fill="#e2e8f0">Backtest</text>
<text text-anchor="middle" x="911" y="-3076.8" font-family="Segoe UI" font-size="14.00" fill="#e2e8f0">Backtest → BacktestPage</text>
</g>
<!-- workspace_1&#45;&gt;page_Backtest -->
<g id="edge11" class="edge">
<title>workspace_1&#45;&gt;page_Backtest</title>
<path fill="none" stroke="#94a3b8" stroke-width="1.3" d="M563.44,-3338.39C609.31,-3333.83 670.19,-3320.1 707,-3281 757.26,-3227.62 690.36,-3171.05 743,-3120 760.33,-3103.2 783.62,-3093.86 807.3,-3088.94"/>
<polygon fill="#94a3b8" stroke="#94a3b8" stroke-width="1.3" points="807.99,-3091.66 815.34,-3087.44 806.96,-3086.16 807.99,-3091.66"/>
</g>
<!-- page_LeanIntegration -->
<g id="node14" class="node">
<title>page_LeanIntegration</title>
<path fill="#1e293b" stroke="#475569" d="M1044,-3170C1044,-3170 778,-3170 778,-3170 772,-3170 766,-3164 766,-3158 766,-3158 766,-3144 766,-3144 766,-3138 772,-3132 778,-3132 778,-3132 1044,-3132 1044,-3132 1050,-3132 1056,-3138 1056,-3144 1056,-3144 1056,-3158 1056,-3158 1056,-3164 1050,-3170 1044,-3170"/>
<text text-anchor="middle" x="911" y="-3154.8" font-family="Segoe UI" font-size="14.00" fill="#e2e8f0">LeanIntegration</text>
<text text-anchor="middle" x="911" y="-3139.8" font-family="Segoe UI" font-size="14.00" fill="#e2e8f0">LeanIntegration → LeanIntegrationPage</text>
</g>
<!-- workspace_1&#45;&gt;page_LeanIntegration -->
<g id="edge13" class="edge">
<title>workspace_1&#45;&gt;page_LeanIntegration</title>
<path fill="none" stroke="#94a3b8" stroke-width="1.3" d="M563.07,-3345.23C608.14,-3345.68 668.15,-3338.61 707,-3304 748.89,-3266.68 701.4,-3220.64 743,-3183 747.85,-3178.61 753.11,-3174.75 758.67,-3171.34"/>
<polygon fill="#94a3b8" stroke="#94a3b8" stroke-width="1.3" points="760.28,-3173.65 765.87,-3167.27 757.53,-3168.77 760.28,-3173.65"/>
</g>
<!-- page_PortfolioImport -->
<g id="node15" class="node">
<title>page_PortfolioImport</title>
<path fill="#1e293b" stroke="#475569" d="M1038,-3233C1038,-3233 784,-3233 784,-3233 778,-3233 772,-3227 772,-3221 772,-3221 772,-3207 772,-3207 772,-3201 778,-3195 784,-3195 784,-3195 1038,-3195 1038,-3195 1044,-3195 1050,-3201 1050,-3207 1050,-3207 1050,-3221 1050,-3221 1050,-3227 1044,-3233 1038,-3233"/>
<text text-anchor="middle" x="911" y="-3217.8" font-family="Segoe UI" font-size="14.00" fill="#e2e8f0">PortfolioImport</text>
<text text-anchor="middle" x="911" y="-3202.8" font-family="Segoe UI" font-size="14.00" fill="#e2e8f0">PortfolioImport → PortfolioImportPage</text>
</g>
<!-- workspace_1&#45;&gt;page_PortfolioImport -->
<g id="edge14" class="edge">
<title>workspace_1&#45;&gt;page_PortfolioImport</title>
<path fill="none" stroke="#94a3b8" stroke-width="1.3" d="M563.38,-3348.07C607.16,-3350.57 665.4,-3346.89 707,-3318 736.39,-3297.59 714.48,-3267.6 743,-3246 749.62,-3240.99 756.8,-3236.69 764.34,-3233.01"/>
<polygon fill="#94a3b8" stroke="#94a3b8" stroke-width="1.3" points="765.86,-3235.39 771.99,-3229.53 763.54,-3230.29 765.86,-3235.39"/>
</g>
<!-- page_TradingHours -->
<g id="node16" class="node">
<title>page_TradingHours</title>
<path fill="#1e293b" stroke="#475569" d="M1027.5,-3296C1027.5,-3296 794.5,-3296 794.5,-3296 788.5,-3296 782.5,-3290 782.5,-3284 782.5,-3284 782.5,-3270 782.5,-3270 782.5,-3264 788.5,-3258 794.5,-3258 794.5,-3258 1027.5,-3258 1027.5,-3258 1033.5,-3258 1039.5,-3264 1039.5,-3270 1039.5,-3270 1039.5,-3284 1039.5,-3284 1039.5,-3290 1033.5,-3296 1027.5,-3296"/>
<text text-anchor="middle" x="911" y="-3280.8" font-family="Segoe UI" font-size="14.00" fill="#e2e8f0">TradingHours</text>
<text text-anchor="middle" x="911" y="-3265.8" font-family="Segoe UI" font-size="14.00" fill="#e2e8f0">TradingHours → TradingHoursPage</text>
</g>
<!-- workspace_1&#45;&gt;page_TradingHours -->
<g id="edge15" class="edge">
<title>workspace_1&#45;&gt;page_TradingHours</title>
<path fill="none" stroke="#94a3b8" stroke-width="1.3" d="M563.13,-3342.43C604.44,-3342.55 659.83,-3339.72 707,-3327 724.27,-3322.34 726.06,-3314.74 743,-3309 755.16,-3304.88 768,-3301.24 780.95,-3298.03"/>
<polygon fill="#94a3b8" stroke="#94a3b8" stroke-width="1.3" points="781.9,-3300.69 789.02,-3296.09 780.58,-3295.24 781.9,-3300.69"/>
</g>
<!-- page_PositionBlotter -->
<g id="node17" class="node">
<title>page_PositionBlotter</title>
<path fill="#1e293b" stroke="#475569" d="M1035,-3359C1035,-3359 787,-3359 787,-3359 781,-3359 775,-3353 775,-3347 775,-3347 775,-3333 775,-3333 775,-3327 781,-3321 787,-3321 787,-3321 1035,-3321 1035,-3321 1041,-3321 1047,-3327 1047,-3333 1047,-3333 1047,-3347 1047,-3347 1047,-3353 1041,-3359 1035,-3359"/>
<text text-anchor="middle" x="911" y="-3343.8" font-family="Segoe UI" font-size="14.00" fill="#e2e8f0">PositionBlotter</text>
<text text-anchor="middle" x="911" y="-3328.8" font-family="Segoe UI" font-size="14.00" fill="#e2e8f0">PositionBlotter → PositionBlotterPage</text>
</g>
<!-- workspace_1&#45;&gt;page_PositionBlotter -->
<g id="edge16" class="edge">
<title>workspace_1&#45;&gt;page_PositionBlotter</title>
<path fill="none" stroke="#94a3b8" stroke-width="1.3" d="M563.08,-3340C616.81,-3340 697.11,-3340 766.93,-3340"/>
<polygon fill="#94a3b8" stroke="#94a3b8" stroke-width="1.3" points="766.96,-3342.8 774.96,-3340 766.96,-3337.2 766.96,-3342.8"/>
</g>
<!-- page_DirectLending -->
<g id="node18" class="node">
<title>page_DirectLending</title>
<path fill="#1e293b" stroke="#475569" d="M1030.5,-3422C1030.5,-3422 791.5,-3422 791.5,-3422 785.5,-3422 779.5,-3416 779.5,-3410 779.5,-3410 779.5,-3396 779.5,-3396 779.5,-3390 785.5,-3384 791.5,-3384 791.5,-3384 1030.5,-3384 1030.5,-3384 1036.5,-3384 1042.5,-3390 1042.5,-3396 1042.5,-3396 1042.5,-3410 1042.5,-3410 1042.5,-3416 1036.5,-3422 1030.5,-3422"/>
<text text-anchor="middle" x="911" y="-3406.8" font-family="Segoe UI" font-size="14.00" fill="#e2e8f0">DirectLending</text>
<text text-anchor="middle" x="911" y="-3391.8" font-family="Segoe UI" font-size="14.00" fill="#e2e8f0">DirectLending → DirectLendingPage</text>
</g>
<!-- workspace_1&#45;&gt;page_DirectLending -->
<g id="edge17" class="edge">
<title>workspace_1&#45;&gt;page_DirectLending</title>
<path fill="none" stroke="#94a3b8" stroke-width="1.3" d="M563.08,-3349.43C619.81,-3358.19 706.16,-3371.52 778.51,-3382.7"/>
<polygon fill="#94a3b8" stroke="#94a3b8" stroke-width="1.3" points="778.48,-3385.53 786.81,-3383.98 779.34,-3379.99 778.48,-3385.53"/>
</g>
<!-- page_Provider -->
<g id="node19" class="node">
<title>page_Provider</title>
<path fill="#1e293b" stroke="#475569" d="M991.5,-3485C991.5,-3485 830.5,-3485 830.5,-3485 824.5,-3485 818.5,-3479 818.5,-3473 818.5,-3473 818.5,-3459 818.5,-3459 818.5,-3453 824.5,-3447 830.5,-3447 830.5,-3447 991.5,-3447 991.5,-3447 997.5,-3447 1003.5,-3453 1003.5,-3459 1003.5,-3459 1003.5,-3473 1003.5,-3473 1003.5,-3479 997.5,-3485 991.5,-3485"/>
<text text-anchor="middle" x="911" y="-3469.8" font-family="Segoe UI" font-size="14.00" fill="#e2e8f0">Provider</text>
<text text-anchor="middle" x="911" y="-3454.8" font-family="Segoe UI" font-size="14.00" fill="#e2e8f0">Provider → ProviderPage</text>
</g>
<!-- workspace_1&#45;&gt;page_Provider -->
<g id="edge18" class="edge">
<title>workspace_1&#45;&gt;page_Provider</title>
<path fill="none" stroke="#94a3b8" stroke-width="1.3" d="M543.38,-3359.14C590.73,-3380.37 671.03,-3414.34 743,-3435 764.46,-3441.16 787.83,-3446.39 810.1,-3450.69"/>
<polygon fill="#94a3b8" stroke="#94a3b8" stroke-width="1.3" points="809.87,-3453.5 818.26,-3452.24 810.92,-3448 809.87,-3453.5"/>
</g>
<!-- page_Symbols -->
<g id="node20" class="node">
<title>page_Symbols</title>
<path fill="#1e293b" stroke="#475569" d="M993.5,-3548C993.5,-3548 828.5,-3548 828.5,-3548 822.5,-3548 816.5,-3542 816.5,-3536 816.5,-3536 816.5,-3522 816.5,-3522 816.5,-3516 822.5,-3510 828.5,-3510 828.5,-3510 993.5,-3510 993.5,-3510 999.5,-3510 1005.5,-3516 1005.5,-3522 1005.5,-3522 1005.5,-3536 1005.5,-3536 1005.5,-3542 999.5,-3548 993.5,-3548"/>
<text text-anchor="middle" x="911" y="-3532.8" font-family="Segoe UI" font-size="14.00" fill="#e2e8f0">Symbols</text>
<text text-anchor="middle" x="911" y="-3517.8" font-family="Segoe UI" font-size="14.00" fill="#e2e8f0">Symbols → SymbolsPage</text>
</g>
<!-- workspace_1&#45;&gt;page_Symbols -->
<g id="edge19" class="edge">
<title>workspace_1&#45;&gt;page_Symbols</title>
<path fill="none" stroke="#94a3b8" stroke-width="1.3" d="M524.21,-3359.03C564.76,-3392.7 654.79,-3462.57 743,-3498 763.47,-3506.22 786.24,-3512.29 808.21,-3516.75"/>
<polygon fill="#94a3b8" stroke="#94a3b8" stroke-width="1.3" points="807.88,-3519.54 816.27,-3518.32 808.95,-3514.04 807.88,-3519.54"/>
</g>
<!-- page_Backfill -->
<g id="node21" class="node">
<title>page_Backfill</title>
<path fill="#1e293b" stroke="#475569" d="M984.5,-3611C984.5,-3611 837.5,-3611 837.5,-3611 831.5,-3611 825.5,-3605 825.5,-3599 825.5,-3599 825.5,-3585 825.5,-3585 825.5,-3579 831.5,-3573 837.5,-3573 837.5,-3573 984.5,-3573 984.5,-3573 990.5,-3573 996.5,-3579 996.5,-3585 996.5,-3585 996.5,-3599 996.5,-3599 996.5,-3605 990.5,-3611 984.5,-3611"/>
<text text-anchor="middle" x="911" y="-3595.8" font-family="Segoe UI" font-size="14.00" fill="#e2e8f0">Backfill</text>
<text text-anchor="middle" x="911" y="-3580.8" font-family="Segoe UI" font-size="14.00" fill="#e2e8f0">Backfill → BackfillPage</text>
</g>
<!-- workspace_1&#45;&gt;page_Backfill -->
<g id="edge20" class="edge">
<title>workspace_1&#45;&gt;page_Backfill</title>
<path fill="none" stroke="#94a3b8" stroke-width="1.3" d="M516.45,-3359.16C550.56,-3402.87 640.9,-3510.05 743,-3561 765.74,-3572.35 792.09,-3579.57 817.05,-3584.15"/>
<polygon fill="#94a3b8" stroke="#94a3b8" stroke-width="1.3" points="816.73,-3586.94 825.1,-3585.55 817.69,-3581.42 816.73,-3586.94"/>
</g>
<!-- page_Storage -->
<g id="node22" class="node">
<title>page_Storage</title>
<path fill="#1e293b" stroke="#475569" d="M988.5,-3674C988.5,-3674 833.5,-3674 833.5,-3674 827.5,-3674 821.5,-3668 821.5,-3662 821.5,-3662 821.5,-3648 821.5,-3648 821.5,-3642 827.5,-3636 833.5,-3636 833.5,-3636 988.5,-3636 988.5,-3636 994.5,-3636 1000.5,-3642 1000.5,-3648 1000.5,-3648 1000.5,-3662 1000.5,-3662 1000.5,-3668 994.5,-3674 988.5,-3674"/>
<text text-anchor="middle" x="911" y="-3658.8" font-family="Segoe UI" font-size="14.00" fill="#e2e8f0">Storage</text>
<text text-anchor="middle" x="911" y="-3643.8" font-family="Segoe UI" font-size="14.00" fill="#e2e8f0">Storage → StoragePage</text>
</g>
<!-- workspace_1&#45;&gt;page_Storage -->
<g id="edge21" class="edge">
<title>workspace_1&#45;&gt;page_Storage</title>
<path fill="none" stroke="#94a3b8" stroke-width="1.3" d="M511.97,-3359.09C540.26,-3411.22 626.63,-3556.55 743,-3624 764.09,-3636.22 788.97,-3643.79 812.99,-3648.42"/>
<polygon fill="#94a3b8" stroke="#94a3b8" stroke-width="1.3" points="812.73,-3651.22 821.1,-3649.88 813.72,-3645.71 812.73,-3651.22"/>
</g>
<!-- page_DataExport -->
<g id="node23" class="node">
<title>page_DataExport</title>
<path fill="#1e293b" stroke="#475569" d="M1012.5,-3737C1012.5,-3737 809.5,-3737 809.5,-3737 803.5,-3737 797.5,-3731 797.5,-3725 797.5,-3725 797.5,-3711 797.5,-3711 797.5,-3705 803.5,-3699 809.5,-3699 809.5,-3699 1012.5,-3699 1012.5,-3699 1018.5,-3699 1024.5,-3705 1024.5,-3711 1024.5,-3711 1024.5,-3725 1024.5,-3725 1024.5,-3731 1018.5,-3737 1012.5,-3737"/>
<text text-anchor="middle" x="911" y="-3721.8" font-family="Segoe UI" font-size="14.00" fill="#e2e8f0">DataExport</text>
<text text-anchor="middle" x="911" y="-3706.8" font-family="Segoe UI" font-size="14.00" fill="#e2e8f0">DataExport → DataExportPage</text>
</g>
<!-- workspace_1&#45;&gt;page_DataExport -->
<g id="edge22" class="edge">
<title>workspace_1&#45;&gt;page_DataExport</title>
<path fill="none" stroke="#94a3b8" stroke-width="1.3" d="M509.17,-3359.33C532.45,-3419.16 612.09,-3602.41 743,-3687 756.94,-3696.01 772.83,-3702.55 789.13,-3707.28"/>
<polygon fill="#94a3b8" stroke="#94a3b8" stroke-width="1.3" points="788.7,-3710.07 797.15,-3709.46 790.17,-3704.67 788.7,-3710.07"/>
</g>
<!-- page_PackageManager -->
<g id="node24" class="node">
<title>page_PackageManager</title>
<path fill="#1e293b" stroke="#475569" d="M1051.5,-3800C1051.5,-3800 770.5,-3800 770.5,-3800 764.5,-3800 758.5,-3794 758.5,-3788 758.5,-3788 758.5,-3774 758.5,-3774 758.5,-3768 764.5,-3762 770.5,-3762 770.5,-3762 1051.5,-3762 1051.5,-3762 1057.5,-3762 1063.5,-3768 1063.5,-3774 1063.5,-3774 1063.5,-3788 1063.5,-3788 1063.5,-3794 1057.5,-3800 1051.5,-3800"/>
<text text-anchor="middle" x="911" y="-3784.8" font-family="Segoe UI" font-size="14.00" fill="#e2e8f0">PackageManager</text>
<text text-anchor="middle" x="911" y="-3769.8" font-family="Segoe UI" font-size="14.00" fill="#e2e8f0">PackageManager → PackageManagerPage</text>
</g>
<!-- workspace_1&#45;&gt;page_PackageManager -->
<g id="edge23" class="edge">
<title>workspace_1&#45;&gt;page_PackageManager</title>
<path fill="none" stroke="#94a3b8" stroke-width="1.3" d="M507.12,-3359.4C525.79,-3426.12 596.97,-3647.62 743,-3750 747.28,-3753 751.76,-3755.73 756.41,-3758.22"/>
<polygon fill="#94a3b8" stroke="#94a3b8" stroke-width="1.3" points="755.42,-3760.86 763.83,-3761.93 757.93,-3755.85 755.42,-3760.86"/>
</g>
<!-- page_DataQuality -->
<g id="node25" class="node">
<title>page_DataQuality</title>
<path fill="#1e293b" stroke="#475569" d="M1016,-3863C1016,-3863 806,-3863 806,-3863 800,-3863 794,-3857 794,-3851 794,-3851 794,-3837 794,-3837 794,-3831 800,-3825 806,-3825 806,-3825 1016,-3825 1016,-3825 1022,-3825 1028,-3831 1028,-3837 1028,-3837 1028,-3851 1028,-3851 1028,-3857 1022,-3863 1016,-3863"/>
<text text-anchor="middle" x="911" y="-3847.8" font-family="Segoe UI" font-size="14.00" fill="#e2e8f0">DataQuality</text>
<text text-anchor="middle" x="911" y="-3832.8" font-family="Segoe UI" font-size="14.00" fill="#e2e8f0">DataQuality → DataQualityPage</text>
</g>
<!-- workspace_1&#45;&gt;page_DataQuality -->
<g id="edge24" class="edge">
<title>workspace_1&#45;&gt;page_DataQuality</title>
<path fill="none" stroke="#94a3b8" stroke-width="1.3" d="M505.51,-3359.22C519.89,-3431.93 581.3,-3692.21 743,-3813 755.67,-3822.47 770.37,-3829.33 785.69,-3834.26"/>
<polygon fill="#94a3b8" stroke="#94a3b8" stroke-width="1.3" points="785.28,-3837.06 793.74,-3836.67 786.88,-3831.69 785.28,-3837.06"/>
</g>
<!-- page_ProviderHealth -->
<g id="node26" class="node">
<title>page_ProviderHealth</title>
<path fill="#1e293b" stroke="#475569" d="M1036.5,-3926C1036.5,-3926 785.5,-3926 785.5,-3926 779.5,-3926 773.5,-3920 773.5,-3914 773.5,-3914 773.5,-3900 773.5,-3900 773.5,-3894 779.5,-3888 785.5,-3888 785.5,-3888 1036.5,-3888 1036.5,-3888 1042.5,-3888 1048.5,-3894 1048.5,-3900 1048.5,-3900 1048.5,-3914 1048.5,-3914 1048.5,-3920 1042.5,-3926 1036.5,-3926"/>
<text text-anchor="middle" x="911" y="-3910.8" font-family="Segoe UI" font-size="14.00" fill="#e2e8f0">ProviderHealth</text>
<text text-anchor="middle" x="911" y="-3895.8" font-family="Segoe UI" font-size="14.00" fill="#e2e8f0">ProviderHealth → ProviderHealthPage</text>
</g>
<!-- workspace_1&#45;&gt;page_ProviderHealth -->
<g id="edge25" class="edge">
<title>workspace_1&#45;&gt;page_ProviderHealth</title>
<path fill="none" stroke="#94a3b8" stroke-width="1.3" d="M504.3,-3359.24C514.8,-3437.78 565.49,-3736.55 743,-3876 750.01,-3881.51 757.7,-3886.15 765.8,-3890.05"/>
<polygon fill="#94a3b8" stroke="#94a3b8" stroke-width="1.3" points="764.91,-3892.72 773.35,-3893.43 767.19,-3887.6 764.91,-3892.72"/>
</g>
<!-- page_SystemHealth -->
<g id="node27" class="node">
<title>page_SystemHealth</title>
<path fill="#1e293b" stroke="#475569" d="M1031,-3989C1031,-3989 791,-3989 791,-3989 785,-3989 779,-3983 779,-3977 779,-3977 779,-3963 779,-3963 779,-3957 785,-3951 791,-3951 791,-3951 1031,-3951 1031,-3951 1037,-3951 1043,-3957 1043,-3963 1043,-3963 1043,-3977 1043,-3977 1043,-3983 1037,-3989 1031,-3989"/>
<text text-anchor="middle" x="911" y="-3973.8" font-family="Segoe UI" font-size="14.00" fill="#e2e8f0">SystemHealth</text>
<text text-anchor="middle" x="911" y="-3958.8" font-family="Segoe UI" font-size="14.00" fill="#e2e8f0">SystemHealth → SystemHealthPage</text>
</g>
<!-- workspace_1&#45;&gt;page_SystemHealth -->
<g id="edge26" class="edge">
<title>workspace_1&#45;&gt;page_SystemHealth</title>
<path fill="none" stroke="#94a3b8" stroke-width="1.3" d="M503.27,-3359.17C509.94,-3443.19 548.44,-3781.61 743,-3939 751.58,-3945.94 761.22,-3951.51 771.42,-3955.97"/>
<polygon fill="#94a3b8" stroke="#94a3b8" stroke-width="1.3" points="770.48,-3958.61 778.95,-3959.02 772.59,-3953.42 770.48,-3958.61"/>
</g>
<!-- page_Diagnostics -->
<g id="node28" class="node">
<title>page_Diagnostics</title>
<path fill="#1e293b" stroke="#475569" d="M1014.5,-4052C1014.5,-4052 807.5,-4052 807.5,-4052 801.5,-4052 795.5,-4046 795.5,-4040 795.5,-4040 795.5,-4026 795.5,-4026 795.5,-4020 801.5,-4014 807.5,-4014 807.5,-4014 1014.5,-4014 1014.5,-4014 1020.5,-4014 1026.5,-4020 1026.5,-4026 1026.5,-4026 1026.5,-4040 1026.5,-4040 1026.5,-4046 1020.5,-4052 1014.5,-4052"/>
<text text-anchor="middle" x="911" y="-4036.8" font-family="Segoe UI" font-size="14.00" fill="#e2e8f0">Diagnostics</text>
<text text-anchor="middle" x="911" y="-4021.8" font-family="Segoe UI" font-size="14.00" fill="#e2e8f0">Diagnostics → DiagnosticsPage</text>
</g>
<!-- workspace_1&#45;&gt;page_Diagnostics -->
<g id="edge27" class="edge">
<title>workspace_1&#45;&gt;page_Diagnostics</title>
<path fill="none" stroke="#94a3b8" stroke-width="1.3" d="M502.35,-3359.14C505.1,-3448.6 529.39,-3828.5 743,-4002 755.88,-4012.46 771.18,-4019.83 787.19,-4024.94"/>
<polygon fill="#94a3b8" stroke="#94a3b8" stroke-width="1.3" points="786.64,-4027.7 795.11,-4027.28 788.23,-4022.33 786.64,-4027.7"/>
</g>
<!-- page_DashboardWeb -->
<g id="node29" class="node">
<title>page_DashboardWeb</title>
<path fill="#1e293b" stroke="#475569" d="M1039.5,-4115C1039.5,-4115 782.5,-4115 782.5,-4115 776.5,-4115 770.5,-4109 770.5,-4103 770.5,-4103 770.5,-4089 770.5,-4089 770.5,-4083 776.5,-4077 782.5,-4077 782.5,-4077 1039.5,-4077 1039.5,-4077 1045.5,-4077 1051.5,-4083 1051.5,-4089 1051.5,-4089 1051.5,-4103 1051.5,-4103 1051.5,-4109 1045.5,-4115 1039.5,-4115"/>
<text text-anchor="middle" x="911" y="-4099.8" font-family="Segoe UI" font-size="14.00" fill="#e2e8f0">DashboardWeb</text>
<text text-anchor="middle" x="911" y="-4084.8" font-family="Segoe UI" font-size="14.00" fill="#e2e8f0">DashboardWeb → DashboardWebPage</text>
</g>
<!-- workspace_1&#45;&gt;page_DashboardWeb -->
<g id="edge28" class="edge">
<title>workspace_1&#45;&gt;page_DashboardWeb</title>
<path fill="none" stroke="#94a3b8" stroke-width="1.3" d="M501.57,-3359.12C500.6,-3453.81 509.8,-3875.59 743,-4065 749.18,-4070.02 755.91,-4074.33 763.02,-4078.01"/>
<polygon fill="#94a3b8" stroke="#94a3b8" stroke-width="1.3" points="761.81,-4080.54 770.24,-4081.5 764.25,-4075.5 761.81,-4080.54"/>
</g>
<!-- page_Settings -->
<g id="node30" class="node">
<title>page_Settings</title>
<path fill="#1e293b" stroke="#475569" d="M991.5,-4178C991.5,-4178 830.5,-4178 830.5,-4178 824.5,-4178 818.5,-4172 818.5,-4166 818.5,-4166 818.5,-4152 818.5,-4152 818.5,-4146 824.5,-4140 830.5,-4140 830.5,-4140 991.5,-4140 991.5,-4140 997.5,-4140 1003.5,-4146 1003.5,-4152 1003.5,-4152 1003.5,-4166 1003.5,-4166 1003.5,-4172 997.5,-4178 991.5,-4178"/>
<text text-anchor="middle" x="911" y="-4162.8" font-family="Segoe UI" font-size="14.00" fill="#e2e8f0">Settings</text>
<text text-anchor="middle" x="911" y="-4147.8" font-family="Segoe UI" font-size="14.00" fill="#e2e8f0">Settings → SettingsPage</text>
</g>
<!-- workspace_1&#45;&gt;page_Settings -->
<g id="edge29" class="edge">
<title>workspace_1&#45;&gt;page_Settings</title>
<path fill="none" stroke="#94a3b8" stroke-width="1.3" d="M504.94,-3359.16C522.33,-3469.66 615.16,-4024.16 743,-4128 761.92,-4143.37 786.03,-4152.04 810.01,-4156.75"/>
<polygon fill="#94a3b8" stroke="#94a3b8" stroke-width="1.3" points="809.76,-4159.54 818.13,-4158.19 810.74,-4154.03 809.76,-4159.54"/>
</g>
<!-- page_AdminMaintenance -->
<g id="node31" class="node">
<title>page_AdminMaintenance</title>
<path fill="#1e293b" stroke="#475569" d="M1067,-4241C1067,-4241 755,-4241 755,-4241 749,-4241 743,-4235 743,-4229 743,-4229 743,-4215 743,-4215 743,-4209 749,-4203 755,-4203 755,-4203 1067,-4203 1067,-4203 1073,-4203 1079,-4209 1079,-4215 1079,-4215 1079,-4229 1079,-4229 1079,-4235 1073,-4241 1067,-4241"/>
<text text-anchor="middle" x="911" y="-4225.8" font-family="Segoe UI" font-size="14.00" fill="#e2e8f0">AdminMaintenance</text>
<text text-anchor="middle" x="911" y="-4210.8" font-family="Segoe UI" font-size="14.00" fill="#e2e8f0">AdminMaintenance → AdminMaintenancePage</text>
</g>
<!-- workspace_1&#45;&gt;page_AdminMaintenance -->
<g id="edge30" class="edge">
<title>workspace_1&#45;&gt;page_AdminMaintenance</title>
<path fill="none" stroke="#94a3b8" stroke-width="1.3" d="M504.51,-3359.12C520.05,-3474.52 607.02,-4076.85 743,-4191 746.3,-4193.77 749.77,-4196.33 753.38,-4198.69"/>
<polygon fill="#94a3b8" stroke="#94a3b8" stroke-width="1.3" points="752.19,-4201.24 760.48,-4202.98 755.08,-4196.44 752.19,-4201.24"/>
</g>
</g>
</svg>
