<?xml version="1.0" encoding="UTF-8" standalone="no"?>
<!DOCTYPE svg PUBLIC "-//W3C//DTD SVG 1.1//EN"
 "http://www.w3.org/Graphics/SVG/1.1/DTD/svg11.dtd">
<!-- Generated by graphviz version 2.43.0 (0)
 -->
<!-- Title: UiNavigationMap Pages: 1 -->
<svg width="1146pt" height="4082pt"
 viewBox="0.00 0.00 1145.60 4081.60" xmlns="http://www.w3.org/2000/svg" xmlns:xlink="http://www.w3.org/1999/xlink">
<g id="graph0" class="graph" transform="scale(1 1) rotate(0) translate(28.8 4052.8)">
<title>UiNavigationMap</title>
<polygon fill="#0f172a" stroke="transparent" points="-28.8,28.8 -28.8,-4052.8 1116.8,-4052.8 1116.8,28.8 -28.8,28.8"/>
<text text-anchor="middle" x="544" y="-4004" font-family="Segoe UI" font-size="20.00">Meridian WPF UI navigation map</text>
<text text-anchor="middle" x="544" y="-3982" font-family="Segoe UI" font-size="20.00">(auto&#45;generated from MainPage.xaml + NavigationService.cs)</text>
<g id="clust1" class="cluster">
<title>cluster_workspace_1</title>
<path fill="#0f172a" stroke="#334155" d="M436,-2368C436,-2368 1068,-2368 1068,-2368 1074,-2368 1080,-2374 1080,-2380 1080,-2380 1080,-3952 1080,-3952 1080,-3958 1074,-3964 1068,-3964 1068,-3964 436,-3964 436,-3964 430,-3964 424,-3958 424,-3952 424,-3952 424,-2380 424,-2380 424,-2374 430,-2368 436,-2368"/>
<text text-anchor="middle" x="752" y="-3944" font-family="Segoe UI" font-size="20.00">Shell workspace</text>
</g>
<g id="clust2" class="cluster">
<title>cluster_hidden_pages</title>
<path fill="#0f172a" stroke="#7c2d12" stroke-dasharray="5,2" d="M329,-8C329,-8 659,-8 659,-8 665,-8 671,-14 671,-20 671,-20 671,-2348 671,-2348 671,-2354 665,-2360 659,-2360 659,-2360 329,-2360 329,-2360 323,-2360 317,-2354 317,-2348 317,-2348 317,-20 317,-20 317,-14 323,-8 329,-8"/>
<text text-anchor="middle" x="494" y="-2340" font-family="Segoe UI" font-size="20.00">Registered but not in sidebar shell</text>
</g>
<!-- generated -->
<g id="node1" class="node">
<title>generated</title>
<polygon fill="#1d4ed8" stroke="#60a5fa" points="246,-1155.5 0,-1155.5 0,-1102.5 252,-1102.5 252,-1149.5 246,-1155.5"/>
<polyline fill="none" stroke="#60a5fa" points="246,-1155.5 246,-1149.5 "/>
<polyline fill="none" stroke="#60a5fa" points="252,-1149.5 246,-1149.5 "/>
<text text-anchor="middle" x="126" y="-1140.3" font-family="Segoe UI" font-size="14.00" fill="#e2e8f0">Source fingerprint: 0667bf6f5171</text>
<text text-anchor="middle" x="126" y="-1125.3" font-family="Segoe UI" font-size="14.00" fill="#e2e8f0">Shell entries: 27</text>
<text text-anchor="middle" x="126" y="-1110.3" font-family="Segoe UI" font-size="14.00" fill="#e2e8f0">Registered pages: 62</text>
</g>
<!-- shell -->
<g id="node2" class="node">
<title>shell</title>
<polygon fill="#0f766e" stroke="#2dd4bf" points="190.5,-2010 61.5,-2010 61.5,-2006 57.5,-2006 57.5,-2002 61.5,-2002 61.5,-1980 57.5,-1980 57.5,-1976 61.5,-1976 61.5,-1972 190.5,-1972 190.5,-2010"/>
<polyline fill="none" stroke="#2dd4bf" points="61.5,-2006 65.5,-2006 65.5,-2002 61.5,-2002 "/>
<polyline fill="none" stroke="#2dd4bf" points="61.5,-1980 65.5,-1980 65.5,-1976 61.5,-1976 "/>
<text text-anchor="middle" x="126" y="-1994.8" font-family="Segoe UI" font-size="14.00" fill="#e2e8f0">MainPage.xaml</text>
<text text-anchor="middle" x="126" y="-1979.8" font-family="Segoe UI" font-size="14.00" fill="#e2e8f0">Workspace shell</text>
</g>
<!-- navigation -->
<g id="node3" class="node">
<title>navigation</title>
<polygon fill="#7c3aed" stroke="#c4b5fd" points="197,-1219 55,-1219 55,-1215 51,-1215 51,-1211 55,-1211 55,-1189 51,-1189 51,-1185 55,-1185 55,-1181 197,-1181 197,-1219"/>
<polyline fill="none" stroke="#c4b5fd" points="55,-1215 59,-1215 59,-1211 55,-1211 "/>
<polyline fill="none" stroke="#c4b5fd" points="55,-1189 59,-1189 59,-1185 55,-1185 "/>
<text text-anchor="middle" x="126" y="-1203.8" font-family="Segoe UI" font-size="14.00" fill="#e2e8f0">NavigationService</text>
<text text-anchor="middle" x="126" y="-1188.8" font-family="Segoe UI" font-size="14.00" fill="#e2e8f0">RegisterAllPages()</text>
</g>
<!-- shell&#45;&gt;navigation -->
<g id="edge1" class="edge">
<title>shell&#45;&gt;navigation</title>
<path fill="none" stroke="#38bdf8" stroke-width="1.3" d="M126,-1971.74C126,-1865.61 126,-1352.44 126,-1227.48"/>
<polygon fill="#38bdf8" stroke="#38bdf8" stroke-width="1.3" points="128.8,-1227.16 126,-1219.16 123.2,-1227.16 128.8,-1227.16"/>
<text text-anchor="middle" x="115.5" y="-1591.8" font-family="Segoe UI" font-size="14.00">navigate via tags</text>
</g>
<!-- workspace_1 -->
<g id="node4" class="node">
<title>workspace_1</title>
<polygon fill="#1d4ed8" stroke="#93c5fd" points="556,-3075 553,-3079 532,-3079 529,-3075 432,-3075 432,-3037 556,-3037 556,-3075"/>
<text text-anchor="middle" x="494" y="-3059.8" font-family="Segoe UI" font-size="14.00" fill="#e2e8f0">Shell</text>
<text text-anchor="middle" x="494" y="-3044.8" font-family="Segoe UI" font-size="14.00" fill="#e2e8f0">27 shell entries</text>
</g>
<!-- shell&#45;&gt;workspace_1 -->
<g id="edge2" class="edge">
<title>shell&#45;&gt;workspace_1</title>
<path fill="none" stroke="#22d3ee" stroke-width="1.3" d="M133.67,-2010.39C178.12,-2139.75 431.47,-2876.96 483.62,-3028.69"/>
<polygon fill="#22d3ee" stroke="#22d3ee" stroke-width="1.3" points="481.11,-3030.01 486.35,-3036.66 486.4,-3028.19 481.11,-3030.01"/>
</g>
<!-- hidden_DataSources -->
<g id="node30" class="node">
<title>hidden_DataSources</title>
<path fill="#431407" stroke="#fb923c" d="M550.5,-2322C550.5,-2322 437.5,-2322 437.5,-2322 431.5,-2322 425.5,-2316 425.5,-2310 425.5,-2310 425.5,-2296 425.5,-2296 425.5,-2290 431.5,-2284 437.5,-2284 437.5,-2284 550.5,-2284 550.5,-2284 556.5,-2284 562.5,-2290 562.5,-2296 562.5,-2296 562.5,-2310 562.5,-2310 562.5,-2316 556.5,-2322 550.5,-2322"/>
<text text-anchor="middle" x="494" y="-2306.8" font-family="Segoe UI" font-size="14.00" fill="#e2e8f0">DataSources</text>
<text text-anchor="middle" x="494" y="-2291.8" font-family="Segoe UI" font-size="14.00" fill="#e2e8f0">DataSourcesPage</text>
</g>
<!-- navigation&#45;&gt;hidden_DataSources -->
<g id="edge30" class="edge">
<title>navigation&#45;&gt;hidden_DataSources</title>
<path fill="none" stroke="#fb923c" stroke-width="1.3" stroke-dasharray="5,2" d="M130.07,-1219.15C152.99,-1361.73 296.9,-2252.76 317,-2272 343.25,-2297.13 382.31,-2305.75 416.97,-2307.72"/>
<polygon fill="#fb923c" stroke="#fb923c" stroke-width="1.3" points="417.11,-2310.52 425.22,-2308.06 417.34,-2304.93 417.11,-2310.52"/>
</g>
<!-- hidden_DataBrowser -->
<g id="node31" class="node">
<title>hidden_DataBrowser</title>
<path fill="#431407" stroke="#fb923c" d="M551,-2259C551,-2259 437,-2259 437,-2259 431,-2259 425,-2253 425,-2247 425,-2247 425,-2233 425,-2233 425,-2227 431,-2221 437,-2221 437,-2221 551,-2221 551,-2221 557,-2221 563,-2227 563,-2233 563,-2233 563,-2247 563,-2247 563,-2253 557,-2259 551,-2259"/>
<text text-anchor="middle" x="494" y="-2243.8" font-family="Segoe UI" font-size="14.00" fill="#e2e8f0">DataBrowser</text>
<text text-anchor="middle" x="494" y="-2228.8" font-family="Segoe UI" font-size="14.00" fill="#e2e8f0">DataBrowserPage</text>
</g>
<!-- navigation&#45;&gt;hidden_DataBrowser -->
<g id="edge31" class="edge">
<title>navigation&#45;&gt;hidden_DataBrowser</title>
<path fill="none" stroke="#fb923c" stroke-width="1.3" stroke-dasharray="5,2" d="M130,-1219.39C151.23,-1356.3 279.23,-2172.9 317,-2209 343.16,-2234.01 382.02,-2242.66 416.58,-2244.67"/>
<polygon fill="#fb923c" stroke="#fb923c" stroke-width="1.3" points="416.68,-2247.48 424.8,-2245.03 416.93,-2241.89 416.68,-2247.48"/>
</g>
<!-- hidden_SymbolMapping -->
<g id="node32" class="node">
<title>hidden_SymbolMapping</title>
<path fill="#431407" stroke="#fb923c" d="M562.5,-2196C562.5,-2196 425.5,-2196 425.5,-2196 419.5,-2196 413.5,-2190 413.5,-2184 413.5,-2184 413.5,-2170 413.5,-2170 413.5,-2164 419.5,-2158 425.5,-2158 425.5,-2158 562.5,-2158 562.5,-2158 568.5,-2158 574.5,-2164 574.5,-2170 574.5,-2170 574.5,-2184 574.5,-2184 574.5,-2190 568.5,-2196 562.5,-2196"/>
<text text-anchor="middle" x="494" y="-2180.8" font-family="Segoe UI" font-size="14.00" fill="#e2e8f0">SymbolMapping</text>
<text text-anchor="middle" x="494" y="-2165.8" font-family="Segoe UI" font-size="14.00" fill="#e2e8f0">SymbolMappingPage</text>
</g>
<!-- navigation&#45;&gt;hidden_SymbolMapping -->
<g id="edge32" class="edge">
<title>navigation&#45;&gt;hidden_SymbolMapping</title>
<path fill="none" stroke="#fb923c" stroke-width="1.3" stroke-dasharray="5,2" d="M130.16,-1219.04C151.95,-1350.02 280.35,-2113.47 317,-2146 340.86,-2167.17 373.94,-2176.34 404.99,-2179.73"/>
<polygon fill="#fb923c" stroke="#fb923c" stroke-width="1.3" points="405.03,-2182.55 413.26,-2180.5 405.55,-2176.97 405.03,-2182.55"/>
</g>
<!-- hidden_SymbolStorage -->
<g id="node33" class="node">
<title>hidden_SymbolStorage</title>
<path fill="#431407" stroke="#fb923c" d="M559.5,-2133C559.5,-2133 428.5,-2133 428.5,-2133 422.5,-2133 416.5,-2127 416.5,-2121 416.5,-2121 416.5,-2107 416.5,-2107 416.5,-2101 422.5,-2095 428.5,-2095 428.5,-2095 559.5,-2095 559.5,-2095 565.5,-2095 571.5,-2101 571.5,-2107 571.5,-2107 571.5,-2121 571.5,-2121 571.5,-2127 565.5,-2133 559.5,-2133"/>
<text text-anchor="middle" x="494" y="-2117.8" font-family="Segoe UI" font-size="14.00" fill="#e2e8f0">SymbolStorage</text>
<text text-anchor="middle" x="494" y="-2102.8" font-family="Segoe UI" font-size="14.00" fill="#e2e8f0">SymbolStoragePage</text>
</g>
<!-- navigation&#45;&gt;hidden_SymbolStorage -->
<g id="edge33" class="edge">
<title>navigation&#45;&gt;hidden_SymbolStorage</title>
<path fill="none" stroke="#fb923c" stroke-width="1.3" stroke-dasharray="5,2" d="M129.68,-1219.08C147.21,-1342.5 246.9,-2024.6 317,-2083 342.16,-2103.96 376.5,-2112.91 408.16,-2116.18"/>
<polygon fill="#fb923c" stroke="#fb923c" stroke-width="1.3" points="407.93,-2118.97 416.15,-2116.9 408.43,-2113.4 407.93,-2118.97"/>
</g>
<!-- hidden_IndexSubscription -->
<g id="node34" class="node">
<title>hidden_IndexSubscription</title>
<path fill="#431407" stroke="#fb923c" d="M570,-2070C570,-2070 418,-2070 418,-2070 412,-2070 406,-2064 406,-2058 406,-2058 406,-2044 406,-2044 406,-2038 412,-2032 418,-2032 418,-2032 570,-2032 570,-2032 576,-2032 582,-2038 582,-2044 582,-2044 582,-2058 582,-2058 582,-2064 576,-2070 570,-2070"/>
<text text-anchor="middle" x="494" y="-2054.8" font-family="Segoe UI" font-size="14.00" fill="#e2e8f0">IndexSubscription</text>
<text text-anchor="middle" x="494" y="-2039.8" font-family="Segoe UI" font-size="14.00" fill="#e2e8f0">IndexSubscriptionPage</text>
</g>
<!-- navigation&#45;&gt;hidden_IndexSubscription -->
<g id="edge34" class="edge">
<title>navigation&#45;&gt;hidden_IndexSubscription</title>
<path fill="none" stroke="#fb923c" stroke-width="1.3" stroke-dasharray="5,2" d="M128.4,-1219.21C137.08,-1332.49 187.46,-1912.08 317,-2020 339.44,-2038.7 369.18,-2047.83 397.82,-2051.91"/>
<polygon fill="#fb923c" stroke="#fb923c" stroke-width="1.3" points="397.57,-2054.71 405.86,-2052.94 398.27,-2049.15 397.57,-2054.71"/>
</g>
<!-- hidden_Options -->
<g id="node35" class="node">
<title>hidden_Options</title>
<path fill="#431407" stroke="#fb923c" d="M534,-2007C534,-2007 454,-2007 454,-2007 448,-2007 442,-2001 442,-1995 442,-1995 442,-1981 442,-1981 442,-1975 448,-1969 454,-1969 454,-1969 534,-1969 534,-1969 540,-1969 546,-1975 546,-1981 546,-1981 546,-1995 546,-1995 546,-2001 540,-2007 534,-2007"/>
<text text-anchor="middle" x="494" y="-1991.8" font-family="Segoe UI" font-size="14.00" fill="#e2e8f0">Options</text>
<text text-anchor="middle" x="494" y="-1976.8" font-family="Segoe UI" font-size="14.00" fill="#e2e8f0">OptionsPage</text>
</g>
<!-- navigation&#45;&gt;hidden_Options -->
<g id="edge35" class="edge">
<title>navigation&#45;&gt;hidden_Options</title>
<path fill="none" stroke="#fb923c" stroke-width="1.3" stroke-dasharray="5,2" d="M128.81,-1219.1C139.44,-1326.85 197.41,-1857.37 317,-1957 349.13,-1983.77 396.23,-1990.94 433.62,-1991.73"/>
<polygon fill="#fb923c" stroke="#fb923c" stroke-width="1.3" points="433.9,-1994.54 441.92,-1991.81 433.95,-1988.94 433.9,-1994.54"/>
</g>
<!-- hidden_Schedules -->
<g id="node36" class="node">
<title>hidden_Schedules</title>
<path fill="#431407" stroke="#fb923c" d="M569,-1944C569,-1944 419,-1944 419,-1944 413,-1944 407,-1938 407,-1932 407,-1932 407,-1918 407,-1918 407,-1912 413,-1906 419,-1906 419,-1906 569,-1906 569,-1906 575,-1906 581,-1912 581,-1918 581,-1918 581,-1932 581,-1932 581,-1938 575,-1944 569,-1944"/>
<text text-anchor="middle" x="494" y="-1928.8" font-family="Segoe UI" font-size="14.00" fill="#e2e8f0">Schedules</text>
<text text-anchor="middle" x="494" y="-1913.8" font-family="Segoe UI" font-size="14.00" fill="#e2e8f0">ScheduleManagerPage</text>
</g>
<!-- navigation&#45;&gt;hidden_Schedules -->
<g id="edge36" class="edge">
<title>navigation&#45;&gt;hidden_Schedules</title>
<path fill="none" stroke="#fb923c" stroke-width="1.3" stroke-dasharray="5,2" d="M129.3,-1219.15C142.03,-1321.52 207.15,-1802.88 317,-1894 339.7,-1912.83 369.81,-1921.95 398.7,-1925.98"/>
<polygon fill="#fb923c" stroke="#fb923c" stroke-width="1.3" points="398.52,-1928.77 406.81,-1926.98 399.21,-1923.22 398.52,-1928.77"/>
</g>
<!-- hidden_RunDetail -->
<g id="node37" class="node">
<title>hidden_RunDetail</title>
<path fill="#431407" stroke="#fb923c" d="M540,-1881C540,-1881 448,-1881 448,-1881 442,-1881 436,-1875 436,-1869 436,-1869 436,-1855 436,-1855 436,-1849 442,-1843 448,-1843 448,-1843 540,-1843 540,-1843 546,-1843 552,-1849 552,-1855 552,-1855 552,-1869 552,-1869 552,-1875 546,-1881 540,-1881"/>
<text text-anchor="middle" x="494" y="-1865.8" font-family="Segoe UI" font-size="14.00" fill="#e2e8f0">RunDetail</text>
<text text-anchor="middle" x="494" y="-1850.8" font-family="Segoe UI" font-size="14.00" fill="#e2e8f0">RunDetailPage</text>
</g>
<!-- navigation&#45;&gt;hidden_RunDetail -->
<g id="edge37" class="edge">
<title>navigation&#45;&gt;hidden_RunDetail</title>
<path fill="none" stroke="#fb923c" stroke-width="1.3" stroke-dasharray="5,2" d="M129.81,-1219.01C144.51,-1315.5 215.61,-1749.65 317,-1831 347.82,-1855.73 391.54,-1863.53 427.69,-1865.12"/>
<polygon fill="#fb923c" stroke="#fb923c" stroke-width="1.3" points="427.67,-1867.92 435.76,-1865.38 427.85,-1862.32 427.67,-1867.92"/>
</g>
<!-- hidden_RunPortfolio -->
<g id="node38" class="node">
<title>hidden_RunPortfolio</title>
<path fill="#431407" stroke="#fb923c" d="M549,-1818C549,-1818 439,-1818 439,-1818 433,-1818 427,-1812 427,-1806 427,-1806 427,-1792 427,-1792 427,-1786 433,-1780 439,-1780 439,-1780 549,-1780 549,-1780 555,-1780 561,-1786 561,-1792 561,-1792 561,-1806 561,-1806 561,-1812 555,-1818 549,-1818"/>
<text text-anchor="middle" x="494" y="-1802.8" font-family="Segoe UI" font-size="14.00" fill="#e2e8f0">RunPortfolio</text>
<text text-anchor="middle" x="494" y="-1787.8" font-family="Segoe UI" font-size="14.00" fill="#e2e8f0">RunPortfolioPage</text>
</g>
<!-- navigation&#45;&gt;hidden_RunPortfolio -->
<g id="edge38" class="edge">
<title>navigation&#45;&gt;hidden_RunPortfolio</title>
<path fill="none" stroke="#fb923c" stroke-width="1.3" stroke-dasharray="5,2" d="M126.64,-1219.2C126.25,-1301.04 136.55,-1623.21 317,-1768 345.34,-1790.74 384.58,-1799.16 418.82,-1801.61"/>
<polygon fill="#fb923c" stroke="#fb923c" stroke-width="1.3" points="418.8,-1804.41 426.95,-1802.08 419.13,-1798.82 418.8,-1804.41"/>
</g>
<!-- hidden_RunLedger -->
<g id="node39" class="node">
<title>hidden_RunLedger</title>
<path fill="#431407" stroke="#fb923c" d="M544.5,-1755C544.5,-1755 443.5,-1755 443.5,-1755 437.5,-1755 431.5,-1749 431.5,-1743 431.5,-1743 431.5,-1729 431.5,-1729 431.5,-1723 437.5,-1717 443.5,-1717 443.5,-1717 544.5,-1717 544.5,-1717 550.5,-1717 556.5,-1723 556.5,-1729 556.5,-1729 556.5,-1743 556.5,-1743 556.5,-1749 550.5,-1755 544.5,-1755"/>
<text text-anchor="middle" x="494" y="-1739.8" font-family="Segoe UI" font-size="14.00" fill="#e2e8f0">RunLedger</text>
<text text-anchor="middle" x="494" y="-1724.8" font-family="Segoe UI" font-size="14.00" fill="#e2e8f0">RunLedgerPage</text>
</g>
<!-- navigation&#45;&gt;hidden_RunLedger -->
<g id="edge39" class="edge">
<title>navigation&#45;&gt;hidden_RunLedger</title>
<path fill="none" stroke="#fb923c" stroke-width="1.3" stroke-dasharray="5,2" d="M127.67,-1219.24C131.42,-1295.13 156.08,-1575.88 317,-1705 346.46,-1728.64 387.7,-1736.8 422.86,-1738.87"/>
<polygon fill="#fb923c" stroke="#fb923c" stroke-width="1.3" points="423.07,-1741.68 431.19,-1739.25 423.32,-1736.09 423.07,-1741.68"/>
</g>
<!-- hidden_RunCashFlow -->
<g id="node40" class="node">
<title>hidden_RunCashFlow</title>
<path fill="#431407" stroke="#fb923c" d="M553.5,-1692C553.5,-1692 434.5,-1692 434.5,-1692 428.5,-1692 422.5,-1686 422.5,-1680 422.5,-1680 422.5,-1666 422.5,-1666 422.5,-1660 428.5,-1654 434.5,-1654 434.5,-1654 553.5,-1654 553.5,-1654 559.5,-1654 565.5,-1660 565.5,-1666 565.5,-1666 565.5,-1680 565.5,-1680 565.5,-1686 559.5,-1692 553.5,-1692"/>
<text text-anchor="middle" x="494" y="-1676.8" font-family="Segoe UI" font-size="14.00" fill="#e2e8f0">RunCashFlow</text>
<text text-anchor="middle" x="494" y="-1661.8" font-family="Segoe UI" font-size="14.00" fill="#e2e8f0">RunCashFlowPage</text>
</g>
<!-- navigation&#45;&gt;hidden_RunCashFlow -->
<g id="edge40" class="edge">
<title>navigation&#45;&gt;hidden_RunCashFlow</title>
<path fill="none" stroke="#fb923c" stroke-width="1.3" stroke-dasharray="5,2" d="M128.93,-1219.33C137.01,-1289.03 174.56,-1529.25 317,-1642 344.14,-1663.48 381.04,-1672.13 414.05,-1675.05"/>
<polygon fill="#fb923c" stroke="#fb923c" stroke-width="1.3" points="414.16,-1677.86 422.35,-1675.67 414.58,-1672.28 414.16,-1677.86"/>
</g>
<!-- hidden_CollectionSessions -->
<g id="node41" class="node">
<title>hidden_CollectionSessions</title>
<path fill="#431407" stroke="#fb923c" d="M567,-1629C567,-1629 421,-1629 421,-1629 415,-1629 409,-1623 409,-1617 409,-1617 409,-1603 409,-1603 409,-1597 415,-1591 421,-1591 421,-1591 567,-1591 567,-1591 573,-1591 579,-1597 579,-1603 579,-1603 579,-1617 579,-1617 579,-1623 573,-1629 567,-1629"/>
<text text-anchor="middle" x="494" y="-1613.8" font-family="Segoe UI" font-size="14.00" fill="#e2e8f0">CollectionSessions</text>
<text text-anchor="middle" x="494" y="-1598.8" font-family="Segoe UI" font-size="14.00" fill="#e2e8f0">CollectionSessionPage</text>
</g>
<!-- navigation&#45;&gt;hidden_CollectionSessions -->
<g id="edge41" class="edge">
<title>navigation&#45;&gt;hidden_CollectionSessions</title>
<path fill="none" stroke="#fb923c" stroke-width="1.3" stroke-dasharray="5,2" d="M130.38,-1219.22C142.56,-1282.34 190.39,-1484.69 317,-1579 340.88,-1596.79 371.59,-1605.6 400.66,-1609.66"/>
<polygon fill="#fb923c" stroke="#fb923c" stroke-width="1.3" points="400.52,-1612.46 408.81,-1610.68 401.22,-1606.9 400.52,-1612.46"/>
</g>
<!-- hidden_ArchiveHealth -->
<g id="node42" class="node">
<title>hidden_ArchiveHealth</title>
<path fill="#431407" stroke="#fb923c" d="M555,-1566C555,-1566 433,-1566 433,-1566 427,-1566 421,-1560 421,-1554 421,-1554 421,-1540 421,-1540 421,-1534 427,-1528 433,-1528 433,-1528 555,-1528 555,-1528 561,-1528 567,-1534 567,-1540 567,-1540 567,-1554 567,-1554 567,-1560 561,-1566 555,-1566"/>
<text text-anchor="middle" x="494" y="-1550.8" font-family="Segoe UI" font-size="14.00" fill="#e2e8f0">ArchiveHealth</text>
<text text-anchor="middle" x="494" y="-1535.8" font-family="Segoe UI" font-size="14.00" fill="#e2e8f0">ArchiveHealthPage</text>
</g>
<!-- navigation&#45;&gt;hidden_ArchiveHealth -->
<g id="edge42" class="edge">
<title>navigation&#45;&gt;hidden_ArchiveHealth</title>
<path fill="none" stroke="#fb923c" stroke-width="1.3" stroke-dasharray="5,2" d="M132.35,-1219.17C149.06,-1275.22 205.93,-1439.7 317,-1516 344.7,-1535.03 380.47,-1543.5 412.52,-1546.95"/>
<polygon fill="#fb923c" stroke="#fb923c" stroke-width="1.3" points="412.35,-1549.75 420.58,-1547.72 412.88,-1544.17 412.35,-1549.75"/>
</g>
<!-- hidden_ServiceManager -->
<g id="node43" class="node">
<title>hidden_ServiceManager</title>
<path fill="#431407" stroke="#fb923c" d="M562.5,-1503C562.5,-1503 425.5,-1503 425.5,-1503 419.5,-1503 413.5,-1497 413.5,-1491 413.5,-1491 413.5,-1477 413.5,-1477 413.5,-1471 419.5,-1465 425.5,-1465 425.5,-1465 562.5,-1465 562.5,-1465 568.5,-1465 574.5,-1471 574.5,-1477 574.5,-1477 574.5,-1491 574.5,-1491 574.5,-1497 568.5,-1503 562.5,-1503"/>
<text text-anchor="middle" x="494" y="-1487.8" font-family="Segoe UI" font-size="14.00" fill="#e2e8f0">ServiceManager</text>
<text text-anchor="middle" x="494" y="-1472.8" font-family="Segoe UI" font-size="14.00" fill="#e2e8f0">ServiceManagerPage</text>
</g>
<!-- navigation&#45;&gt;hidden_ServiceManager -->
<g id="edge43" class="edge">
<title>navigation&#45;&gt;hidden_ServiceManager</title>
<path fill="none" stroke="#fb923c" stroke-width="1.3" stroke-dasharray="5,2" d="M135.19,-1219.11C156.92,-1267.29 221.03,-1394.09 317,-1453 343.1,-1469.02 375.25,-1477.3 404.89,-1481.42"/>
<polygon fill="#fb923c" stroke="#fb923c" stroke-width="1.3" points="404.89,-1484.24 413.18,-1482.47 405.59,-1478.68 404.89,-1484.24"/>
</g>
<!-- hidden_DataSampling -->
<g id="node44" class="node">
<title>hidden_DataSampling</title>
<path fill="#431407" stroke="#fb923c" d="M555.5,-1440C555.5,-1440 432.5,-1440 432.5,-1440 426.5,-1440 420.5,-1434 420.5,-1428 420.5,-1428 420.5,-1414 420.5,-1414 420.5,-1408 426.5,-1402 432.5,-1402 432.5,-1402 555.5,-1402 555.5,-1402 561.5,-1402 567.5,-1408 567.5,-1414 567.5,-1414 567.5,-1428 567.5,-1428 567.5,-1434 561.5,-1440 555.5,-1440"/>
<text text-anchor="middle" x="494" y="-1424.8" font-family="Segoe UI" font-size="14.00" fill="#e2e8f0">DataSampling</text>
<text text-anchor="middle" x="494" y="-1409.8" font-family="Segoe UI" font-size="14.00" fill="#e2e8f0">DataSamplingPage</text>
</g>
<!-- navigation&#45;&gt;hidden_DataSampling -->
<g id="edge44" class="edge">
<title>navigation&#45;&gt;hidden_DataSampling</title>
<path fill="none" stroke="#fb923c" stroke-width="1.3" stroke-dasharray="5,2" d="M139.84,-1219.16C167.26,-1258.38 235.69,-1347.68 317,-1390 346.05,-1405.12 381.07,-1413.04 412.2,-1417.13"/>
<polygon fill="#fb923c" stroke="#fb923c" stroke-width="1.3" points="412.16,-1419.95 420.44,-1418.14 412.84,-1414.39 412.16,-1419.95"/>
</g>
<!-- hidden_TimeSeriesAlignment -->
<g id="node45" class="node">
<title>hidden_TimeSeriesAlignment</title>
<path fill="#431407" stroke="#fb923c" d="M580.5,-1377C580.5,-1377 407.5,-1377 407.5,-1377 401.5,-1377 395.5,-1371 395.5,-1365 395.5,-1365 395.5,-1351 395.5,-1351 395.5,-1345 401.5,-1339 407.5,-1339 407.5,-1339 580.5,-1339 580.5,-1339 586.5,-1339 592.5,-1345 592.5,-1351 592.5,-1351 592.5,-1365 592.5,-1365 592.5,-1371 586.5,-1377 580.5,-1377"/>
<text text-anchor="middle" x="494" y="-1361.8" font-family="Segoe UI" font-size="14.00" fill="#e2e8f0">TimeSeriesAlignment</text>
<text text-anchor="middle" x="494" y="-1346.8" font-family="Segoe UI" font-size="14.00" fill="#e2e8f0">TimeSeriesAlignmentPage</text>
</g>
<!-- navigation&#45;&gt;hidden_TimeSeriesAlignment -->
<g id="edge45" class="edge">
<title>navigation&#45;&gt;hidden_TimeSeriesAlignment</title>
<path fill="none" stroke="#fb923c" stroke-width="1.3" stroke-dasharray="5,2" d="M148.93,-1219.19C182.6,-1247.55 250.17,-1300.17 317,-1327 338.99,-1335.83 363.52,-1342.15 387.12,-1346.67"/>
<polygon fill="#fb923c" stroke="#fb923c" stroke-width="1.3" points="386.71,-1349.44 395.08,-1348.14 387.72,-1343.93 386.71,-1349.44"/>
</g>
<!-- hidden_ExportPresets -->
<g id="node46" class="node">
<title>hidden_ExportPresets</title>
<path fill="#431407" stroke="#fb923c" d="M555,-1314C555,-1314 433,-1314 433,-1314 427,-1314 421,-1308 421,-1302 421,-1302 421,-1288 421,-1288 421,-1282 427,-1276 433,-1276 433,-1276 555,-1276 555,-1276 561,-1276 567,-1282 567,-1288 567,-1288 567,-1302 567,-1302 567,-1308 561,-1314 555,-1314"/>
<text text-anchor="middle" x="494" y="-1298.8" font-family="Segoe UI" font-size="14.00" fill="#e2e8f0">ExportPresets</text>
<text text-anchor="middle" x="494" y="-1283.8" font-family="Segoe UI" font-size="14.00" fill="#e2e8f0">ExportPresetsPage</text>
</g>
<!-- navigation&#45;&gt;hidden_ExportPresets -->
<g id="edge46" class="edge">
<title>navigation&#45;&gt;hidden_ExportPresets</title>
<path fill="none" stroke="#fb923c" stroke-width="1.3" stroke-dasharray="5,2" d="M176.79,-1219.07C214.76,-1233.05 268.6,-1251.66 317,-1264 348.05,-1271.92 382.69,-1278.49 412.97,-1283.52"/>
<polygon fill="#fb923c" stroke="#fb923c" stroke-width="1.3" points="412.63,-1286.3 420.98,-1284.83 413.53,-1280.77 412.63,-1286.3"/>
</g>
<!-- hidden_AnalysisExport -->
<g id="node47" class="node">
<title>hidden_AnalysisExport</title>
<path fill="#431407" stroke="#fb923c" d="M558.5,-1251C558.5,-1251 429.5,-1251 429.5,-1251 423.5,-1251 417.5,-1245 417.5,-1239 417.5,-1239 417.5,-1225 417.5,-1225 417.5,-1219 423.5,-1213 429.5,-1213 429.5,-1213 558.5,-1213 558.5,-1213 564.5,-1213 570.5,-1219 570.5,-1225 570.5,-1225 570.5,-1239 570.5,-1239 570.5,-1245 564.5,-1251 558.5,-1251"/>
<text text-anchor="middle" x="494" y="-1235.8" font-family="Segoe UI" font-size="14.00" fill="#e2e8f0">AnalysisExport</text>
<text text-anchor="middle" x="494" y="-1220.8" font-family="Segoe UI" font-size="14.00" fill="#e2e8f0">AnalysisExportPage</text>
</g>
<!-- navigation&#45;&gt;hidden_AnalysisExport -->
<g id="edge47" class="edge">
<title>navigation&#45;&gt;hidden_AnalysisExport</title>
<path fill="none" stroke="#fb923c" stroke-width="1.3" stroke-dasharray="5,2" d="M197.14,-1206.13C257.65,-1211.42 345.17,-1219.08 409.33,-1224.68"/>
<polygon fill="#fb923c" stroke="#fb923c" stroke-width="1.3" points="409.21,-1227.49 417.43,-1225.39 409.7,-1221.91 409.21,-1227.49"/>
</g>
<!-- hidden_AnalysisExportWizard -->
<g id="node48" class="node">
<title>hidden_AnalysisExportWizard</title>
<path fill="#431407" stroke="#fb923c" d="M582,-1188C582,-1188 406,-1188 406,-1188 400,-1188 394,-1182 394,-1176 394,-1176 394,-1162 394,-1162 394,-1156 400,-1150 406,-1150 406,-1150 582,-1150 582,-1150 588,-1150 594,-1156 594,-1162 594,-1162 594,-1176 594,-1176 594,-1182 588,-1188 582,-1188"/>
<text text-anchor="middle" x="494" y="-1172.8" font-family="Segoe UI" font-size="14.00" fill="#e2e8f0">AnalysisExportWizard</text>
<text text-anchor="middle" x="494" y="-1157.8" font-family="Segoe UI" font-size="14.00" fill="#e2e8f0">AnalysisExportWizardPage</text>
</g>
<!-- navigation&#45;&gt;hidden_AnalysisExportWizard -->
<g id="edge48" class="edge">
<title>navigation&#45;&gt;hidden_AnalysisExportWizard</title>
<path fill="none" stroke="#fb923c" stroke-width="1.3" stroke-dasharray="5,2" d="M197.14,-1194.06C250.47,-1189.54 324.8,-1183.25 385.6,-1178.1"/>
<polygon fill="#fb923c" stroke="#fb923c" stroke-width="1.3" points="385.98,-1180.88 393.71,-1177.41 385.5,-1175.3 385.98,-1180.88"/>
</g>
<!-- hidden_EventReplay -->
<g id="node49" class="node">
<title>hidden_EventReplay</title>
<path fill="#431407" stroke="#fb923c" d="M550,-1125C550,-1125 438,-1125 438,-1125 432,-1125 426,-1119 426,-1113 426,-1113 426,-1099 426,-1099 426,-1093 432,-1087 438,-1087 438,-1087 550,-1087 550,-1087 556,-1087 562,-1093 562,-1099 562,-1099 562,-1113 562,-1113 562,-1119 556,-1125 550,-1125"/>
<text text-anchor="middle" x="494" y="-1109.8" font-family="Segoe UI" font-size="14.00" fill="#e2e8f0">EventReplay</text>
<text text-anchor="middle" x="494" y="-1094.8" font-family="Segoe UI" font-size="14.00" fill="#e2e8f0">EventReplayPage</text>
</g>
<!-- navigation&#45;&gt;hidden_EventReplay -->
<g id="edge49" class="edge">
<title>navigation&#45;&gt;hidden_EventReplay</title>
<path fill="none" stroke="#fb923c" stroke-width="1.3" stroke-dasharray="5,2" d="M197.1,-1184.44C215.18,-1179.78 234.48,-1174.23 252,-1168 281.98,-1157.34 286.66,-1147.59 317,-1138 349.21,-1127.82 385.83,-1120.51 417.29,-1115.48"/>
<polygon fill="#fb923c" stroke="#fb923c" stroke-width="1.3" points="418.12,-1118.18 425.59,-1114.18 417.25,-1112.65 418.12,-1118.18"/>
</g>
<!-- hidden_AdvancedAnalytics -->
<g id="node50" class="node">
<title>hidden_AdvancedAnalytics</title>
<path fill="#431407" stroke="#fb923c" d="M572.5,-1062C572.5,-1062 415.5,-1062 415.5,-1062 409.5,-1062 403.5,-1056 403.5,-1050 403.5,-1050 403.5,-1036 403.5,-1036 403.5,-1030 409.5,-1024 415.5,-1024 415.5,-1024 572.5,-1024 572.5,-1024 578.5,-1024 584.5,-1030 584.5,-1036 584.5,-1036 584.5,-1050 584.5,-1050 584.5,-1056 578.5,-1062 572.5,-1062"/>
<text text-anchor="middle" x="494" y="-1046.8" font-family="Segoe UI" font-size="14.00" fill="#e2e8f0">AdvancedAnalytics</text>
<text text-anchor="middle" x="494" y="-1031.8" font-family="Segoe UI" font-size="14.00" fill="#e2e8f0">AdvancedAnalyticsPage</text>
</g>
<!-- navigation&#45;&gt;hidden_AdvancedAnalytics -->
<g id="edge50" class="edge">
<title>navigation&#45;&gt;hidden_AdvancedAnalytics</title>
<path fill="none" stroke="#fb923c" stroke-width="1.3" stroke-dasharray="5,2" d="M197.23,-1191.16C216.18,-1186.43 235.89,-1179.16 252,-1168 293.46,-1139.29 274.55,-1102.23 317,-1075 340.2,-1060.12 368.46,-1051.71 395.49,-1047.08"/>
<polygon fill="#fb923c" stroke="#fb923c" stroke-width="1.3" points="395.99,-1049.83 403.45,-1045.81 395.11,-1044.3 395.99,-1049.83"/>
</g>
<!-- hidden_DataCalendar -->
<g id="node51" class="node">
<title>hidden_DataCalendar</title>
<path fill="#431407" stroke="#fb923c" d="M554,-999C554,-999 434,-999 434,-999 428,-999 422,-993 422,-987 422,-987 422,-973 422,-973 422,-967 428,-961 434,-961 434,-961 554,-961 554,-961 560,-961 566,-967 566,-973 566,-973 566,-987 566,-987 566,-993 560,-999 554,-999"/>
<text text-anchor="middle" x="494" y="-983.8" font-family="Segoe UI" font-size="14.00" fill="#e2e8f0">DataCalendar</text>
<text text-anchor="middle" x="494" y="-968.8" font-family="Segoe UI" font-size="14.00" fill="#e2e8f0">DataCalendarPage</text>
</g>
<!-- navigation&#45;&gt;hidden_DataCalendar -->
<g id="edge51" class="edge">
<title>navigation&#45;&gt;hidden_DataCalendar</title>
<path fill="none" stroke="#fb923c" stroke-width="1.3" stroke-dasharray="5,2" d="M197.28,-1193.73C216.78,-1189.06 236.75,-1181.19 252,-1168 308.8,-1118.85 258.5,-1059.11 317,-1012 343.87,-990.36 380.56,-981.48 413.49,-978.35"/>
<polygon fill="#fb923c" stroke="#fb923c" stroke-width="1.3" points="414.03,-981.12 421.77,-977.68 413.57,-975.54 414.03,-981.12"/>
</g>
<!-- hidden_StorageOptimization -->
<g id="node52" class="node">
<title>hidden_StorageOptimization</title>
<path fill="#431407" stroke="#fb923c" d="M578,-936C578,-936 410,-936 410,-936 404,-936 398,-930 398,-924 398,-924 398,-910 398,-910 398,-904 404,-898 410,-898 410,-898 578,-898 578,-898 584,-898 590,-904 590,-910 590,-910 590,-924 590,-924 590,-930 584,-936 578,-936"/>
<text text-anchor="middle" x="494" y="-920.8" font-family="Segoe UI" font-size="14.00" fill="#e2e8f0">StorageOptimization</text>
<text text-anchor="middle" x="494" y="-905.8" font-family="Segoe UI" font-size="14.00" fill="#e2e8f0">StorageOptimizationPage</text>
</g>
<!-- navigation&#45;&gt;hidden_StorageOptimization -->
<g id="edge52" class="edge">
<title>navigation&#45;&gt;hidden_StorageOptimization</title>
<path fill="none" stroke="#fb923c" stroke-width="1.3" stroke-dasharray="5,2" d="M197.22,-1194.95C217.05,-1190.36 237.23,-1182.22 252,-1168 325.14,-1097.58 241.41,-1016.79 317,-949 336.91,-931.15 363.33,-921.68 389.63,-916.99"/>
<polygon fill="#fb923c" stroke="#fb923c" stroke-width="1.3" points="390.33,-919.71 397.79,-915.68 389.44,-914.18 390.33,-919.71"/>
</g>
<!-- hidden_RetentionAssurance -->
<g id="node53" class="node">
<title>hidden_RetentionAssurance</title>
<path fill="#431407" stroke="#fb923c" d="M576,-873C576,-873 412,-873 412,-873 406,-873 400,-867 400,-861 400,-861 400,-847 400,-847 400,-841 406,-835 412,-835 412,-835 576,-835 576,-835 582,-835 588,-841 588,-847 588,-847 588,-861 588,-861 588,-867 582,-873 576,-873"/>
<text text-anchor="middle" x="494" y="-857.8" font-family="Segoe UI" font-size="14.00" fill="#e2e8f0">RetentionAssurance</text>
<text text-anchor="middle" x="494" y="-842.8" font-family="Segoe UI" font-size="14.00" fill="#e2e8f0">RetentionAssurancePage</text>
</g>
<!-- navigation&#45;&gt;hidden_RetentionAssurance -->
<g id="edge53" class="edge">
<title>navigation&#45;&gt;hidden_RetentionAssurance</title>
<path fill="none" stroke="#fb923c" stroke-width="1.3" stroke-dasharray="5,2" d="M197.09,-1196.02C217.28,-1191.5 237.69,-1183.14 252,-1168 340.35,-1074.52 221.4,-972.04 317,-886 337.38,-867.66 364.63,-858.16 391.6,-853.59"/>
<polygon fill="#fb923c" stroke="#fb923c" stroke-width="1.3" points="392.08,-856.35 399.57,-852.38 391.24,-850.81 392.08,-856.35"/>
</g>
<!-- hidden_MessagingHub -->
<g id="node54" class="node">
<title>hidden_MessagingHub</title>
<path fill="#431407" stroke="#fb923c" d="M558,-810C558,-810 430,-810 430,-810 424,-810 418,-804 418,-798 418,-798 418,-784 418,-784 418,-778 424,-772 430,-772 430,-772 558,-772 558,-772 564,-772 570,-778 570,-784 570,-784 570,-798 570,-798 570,-804 564,-810 558,-810"/>
<text text-anchor="middle" x="494" y="-794.8" font-family="Segoe UI" font-size="14.00" fill="#e2e8f0">MessagingHub</text>
<text text-anchor="middle" x="494" y="-779.8" font-family="Segoe UI" font-size="14.00" fill="#e2e8f0">MessagingHubPage</text>
</g>
<!-- navigation&#45;&gt;hidden_MessagingHub -->
<g id="edge54" class="edge">
<title>navigation&#45;&gt;hidden_MessagingHub</title>
<path fill="none" stroke="#fb923c" stroke-width="1.3" stroke-dasharray="5,2" d="M197.25,-1196.53C217.57,-1192.06 238.01,-1183.59 252,-1168 304.1,-1109.93 258.64,-874.78 317,-823 342.06,-800.77 377.24,-791.59 409.57,-788.41"/>
<polygon fill="#fb923c" stroke="#fb923c" stroke-width="1.3" points="409.99,-791.19 417.72,-787.73 409.52,-785.61 409.99,-791.19"/>
</g>
<!-- hidden_ResearchShell -->
<g id="node55" class="node">
<title>hidden_ResearchShell</title>
<path fill="#431407" stroke="#fb923c" d="M593,-747C593,-747 395,-747 395,-747 389,-747 383,-741 383,-735 383,-735 383,-721 383,-721 383,-715 389,-709 395,-709 395,-709 593,-709 593,-709 599,-709 605,-715 605,-721 605,-721 605,-735 605,-735 605,-741 599,-747 593,-747"/>
<text text-anchor="middle" x="494" y="-731.8" font-family="Segoe UI" font-size="14.00" fill="#e2e8f0">ResearchShell</text>
<text text-anchor="middle" x="494" y="-716.8" font-family="Segoe UI" font-size="14.00" fill="#e2e8f0">ResearchWorkspaceShellPage</text>
</g>
<!-- navigation&#45;&gt;hidden_ResearchShell -->
<g id="edge55" class="edge">
<title>navigation&#45;&gt;hidden_ResearchShell</title>
<path fill="none" stroke="#fb923c" stroke-width="1.3" stroke-dasharray="5,2" d="M197.06,-1196.73C217.49,-1192.28 238.05,-1183.77 252,-1168 312.82,-1099.22 250.7,-823.51 317,-760 332.88,-744.79 353.44,-735.54 374.87,-730.13"/>
<polygon fill="#fb923c" stroke="#fb923c" stroke-width="1.3" points="375.64,-732.83 382.8,-728.3 374.38,-727.37 375.64,-732.83"/>
</g>
<!-- hidden_TradingShell -->
<g id="node56" class="node">
<title>hidden_TradingShell</title>
<path fill="#431407" stroke="#fb923c" d="M587.5,-684C587.5,-684 400.5,-684 400.5,-684 394.5,-684 388.5,-678 388.5,-672 388.5,-672 388.5,-658 388.5,-658 388.5,-652 394.5,-646 400.5,-646 400.5,-646 587.5,-646 587.5,-646 593.5,-646 599.5,-652 599.5,-658 599.5,-658 599.5,-672 599.5,-672 599.5,-678 593.5,-684 587.5,-684"/>
<text text-anchor="middle" x="494" y="-668.8" font-family="Segoe UI" font-size="14.00" fill="#e2e8f0">TradingShell</text>
<text text-anchor="middle" x="494" y="-653.8" font-family="Segoe UI" font-size="14.00" fill="#e2e8f0">TradingWorkspaceShellPage</text>
</g>
<!-- navigation&#45;&gt;hidden_TradingShell -->
<g id="edge56" class="edge">
<title>navigation&#45;&gt;hidden_TradingShell</title>
<path fill="none" stroke="#fb923c" stroke-width="1.3" stroke-dasharray="5,2" d="M197.28,-1196.92C217.72,-1192.48 238.23,-1183.93 252,-1168 321.07,-1088.05 240.76,-770.15 317,-697 334.21,-680.48 356.94,-671 380.33,-665.81"/>
<polygon fill="#fb923c" stroke="#fb923c" stroke-width="1.3" points="380.99,-668.53 388.28,-664.21 379.88,-663.04 380.99,-668.53"/>
</g>
<!-- hidden_Workspaces -->
<g id="node57" class="node">
<title>hidden_Workspaces</title>
<path fill="#431407" stroke="#fb923c" d="M544.5,-621C544.5,-621 443.5,-621 443.5,-621 437.5,-621 431.5,-615 431.5,-609 431.5,-609 431.5,-595 431.5,-595 431.5,-589 437.5,-583 443.5,-583 443.5,-583 544.5,-583 544.5,-583 550.5,-583 556.5,-589 556.5,-595 556.5,-595 556.5,-609 556.5,-609 556.5,-615 550.5,-621 544.5,-621"/>
<text text-anchor="middle" x="494" y="-605.8" font-family="Segoe UI" font-size="14.00" fill="#e2e8f0">Workspaces</text>
<text text-anchor="middle" x="494" y="-590.8" font-family="Segoe UI" font-size="14.00" fill="#e2e8f0">WorkspacePage</text>
</g>
<!-- navigation&#45;&gt;hidden_Workspaces -->
<g id="edge57" class="edge">
<title>navigation&#45;&gt;hidden_Workspaces</title>
<path fill="none" stroke="#fb923c" stroke-width="1.3" stroke-dasharray="5,2" d="M197.12,-1197.14C217.69,-1192.73 238.3,-1184.14 252,-1168 329.34,-1076.84 230.16,-716.16 317,-634 345,-607.51 387.22,-599.18 423.29,-597.64"/>
<polygon fill="#fb923c" stroke="#fb923c" stroke-width="1.3" points="423.44,-600.43 431.36,-597.4 423.28,-594.83 423.44,-600.43"/>
</g>
<!-- hidden_NotificationCenter -->
<g id="node58" class="node">
<title>hidden_NotificationCenter</title>
<path fill="#431407" stroke="#fb923c" d="M569.5,-558C569.5,-558 418.5,-558 418.5,-558 412.5,-558 406.5,-552 406.5,-546 406.5,-546 406.5,-532 406.5,-532 406.5,-526 412.5,-520 418.5,-520 418.5,-520 569.5,-520 569.5,-520 575.5,-520 581.5,-526 581.5,-532 581.5,-532 581.5,-546 581.5,-546 581.5,-552 575.5,-558 569.5,-558"/>
<text text-anchor="middle" x="494" y="-542.8" font-family="Segoe UI" font-size="14.00" fill="#e2e8f0">NotificationCenter</text>
<text text-anchor="middle" x="494" y="-527.8" font-family="Segoe UI" font-size="14.00" fill="#e2e8f0">NotificationCenterPage</text>
</g>
<!-- navigation&#45;&gt;hidden_NotificationCenter -->
<g id="edge58" class="edge">
<title>navigation&#45;&gt;hidden_NotificationCenter</title>
<path fill="none" stroke="#fb923c" stroke-width="1.3" stroke-dasharray="5,2" d="M197.24,-1197.24C217.81,-1192.83 238.41,-1184.23 252,-1168 337.7,-1065.71 219.52,-662.14 317,-571 338.77,-550.64 368.96,-541.05 398.19,-537.02"/>
<polygon fill="#fb923c" stroke="#fb923c" stroke-width="1.3" points="398.79,-539.76 406.4,-536.02 398.12,-534.2 398.79,-539.76"/>
</g>
<!-- hidden_Help -->
<g id="node59" class="node">
<title>hidden_Help</title>
<path fill="#431407" stroke="#fb923c" d="M522.5,-495C522.5,-495 465.5,-495 465.5,-495 459.5,-495 453.5,-489 453.5,-483 453.5,-483 453.5,-469 453.5,-469 453.5,-463 459.5,-457 465.5,-457 465.5,-457 522.5,-457 522.5,-457 528.5,-457 534.5,-463 534.5,-469 534.5,-469 534.5,-483 534.5,-483 534.5,-489 528.5,-495 522.5,-495"/>
<text text-anchor="middle" x="494" y="-479.8" font-family="Segoe UI" font-size="14.00" fill="#e2e8f0">Help</text>
<text text-anchor="middle" x="494" y="-464.8" font-family="Segoe UI" font-size="14.00" fill="#e2e8f0">HelpPage</text>
</g>
<!-- navigation&#45;&gt;hidden_Help -->
<g id="edge59" class="edge">
<title>navigation&#45;&gt;hidden_Help</title>
<path fill="none" stroke="#fb923c" stroke-width="1.3" stroke-dasharray="5,2" d="M197.01,-1197.38C217.69,-1193.01 238.41,-1184.38 252,-1168 346.1,-1054.58 208.46,-607.7 317,-508 351.38,-476.42 406.06,-470.89 445.35,-471.71"/>
<polygon fill="#fb923c" stroke="#fb923c" stroke-width="1.3" points="445.4,-474.51 453.49,-471.98 445.59,-468.92 445.4,-474.51"/>
</g>
<!-- hidden_Welcome -->
<g id="node60" class="node">
<title>hidden_Welcome</title>
<path fill="#431407" stroke="#fb923c" d="M538,-432C538,-432 450,-432 450,-432 444,-432 438,-426 438,-420 438,-420 438,-406 438,-406 438,-400 444,-394 450,-394 450,-394 538,-394 538,-394 544,-394 550,-400 550,-406 550,-406 550,-420 550,-420 550,-426 544,-432 538,-432"/>
<text text-anchor="middle" x="494" y="-416.8" font-family="Segoe UI" font-size="14.00" fill="#e2e8f0">Welcome</text>
<text text-anchor="middle" x="494" y="-401.8" font-family="Segoe UI" font-size="14.00" fill="#e2e8f0">WelcomePage</text>
</g>
<!-- navigation&#45;&gt;hidden_Welcome -->
<g id="edge60" class="edge">
<title>navigation&#45;&gt;hidden_Welcome</title>
<path fill="none" stroke="#fb923c" stroke-width="1.3" stroke-dasharray="5,2" d="M197.08,-1197.44C217.77,-1193.07 238.47,-1184.42 252,-1168 295.81,-1114.83 276.68,-616.96 288,-549 295.88,-501.67 281.54,-477.33 317,-445 347.08,-417.57 392.5,-409.84 429.67,-408.83"/>
<polygon fill="#fb923c" stroke="#fb923c" stroke-width="1.3" points="429.99,-411.62 437.95,-408.71 429.91,-406.02 429.99,-411.62"/>
</g>
<!-- hidden_CredentialManagement -->
<g id="node61" class="node">
<title>hidden_CredentialManagement</title>
<path fill="#431407" stroke="#fb923c" d="M587.5,-369C587.5,-369 400.5,-369 400.5,-369 394.5,-369 388.5,-363 388.5,-357 388.5,-357 388.5,-343 388.5,-343 388.5,-337 394.5,-331 400.5,-331 400.5,-331 587.5,-331 587.5,-331 593.5,-331 599.5,-337 599.5,-343 599.5,-343 599.5,-357 599.5,-357 599.5,-363 593.5,-369 587.5,-369"/>
<text text-anchor="middle" x="494" y="-353.8" font-family="Segoe UI" font-size="14.00" fill="#e2e8f0">CredentialManagement</text>
<text text-anchor="middle" x="494" y="-338.8" font-family="Segoe UI" font-size="14.00" fill="#e2e8f0">CredentialManagementPage</text>
</g>
<!-- navigation&#45;&gt;hidden_CredentialManagement -->
<g id="edge61" class="edge">
<title>navigation&#45;&gt;hidden_CredentialManagement</title>
<path fill="none" stroke="#fb923c" stroke-width="1.3" stroke-dasharray="5,2" d="M197.09,-1197.45C217.78,-1193.08 238.48,-1184.43 252,-1168 307.68,-1100.34 254.88,-443.81 317,-382 334.01,-365.08 356.79,-355.45 380.3,-350.26"/>
<polygon fill="#fb923c" stroke="#fb923c" stroke-width="1.3" points="380.99,-352.98 388.29,-348.67 379.9,-347.49 380.99,-352.98"/>
</g>
<!-- hidden_KeyboardShortcuts -->
<g id="node62" class="node">
<title>hidden_KeyboardShortcuts</title>
<path fill="#431407" stroke="#fb923c" d="M572.5,-306C572.5,-306 415.5,-306 415.5,-306 409.5,-306 403.5,-300 403.5,-294 403.5,-294 403.5,-280 403.5,-280 403.5,-274 409.5,-268 415.5,-268 415.5,-268 572.5,-268 572.5,-268 578.5,-268 584.5,-274 584.5,-280 584.5,-280 584.5,-294 584.5,-294 584.5,-300 578.5,-306 572.5,-306"/>
<text text-anchor="middle" x="494" y="-290.8" font-family="Segoe UI" font-size="14.00" fill="#e2e8f0">KeyboardShortcuts</text>
<text text-anchor="middle" x="494" y="-275.8" font-family="Segoe UI" font-size="14.00" fill="#e2e8f0">KeyboardShortcutsPage</text>
</g>
<!-- navigation&#45;&gt;hidden_KeyboardShortcuts -->
<g id="edge62" class="edge">
<title>navigation&#45;&gt;hidden_KeyboardShortcuts</title>
<path fill="none" stroke="#fb923c" stroke-width="1.3" stroke-dasharray="5,2" d="M197.11,-1197.46C217.8,-1193.09 238.49,-1184.45 252,-1168 312.05,-1094.89 251.21,-386.99 317,-319 337.33,-297.99 366.51,-288.1 395.29,-284"/>
<polygon fill="#fb923c" stroke="#fb923c" stroke-width="1.3" points="395.79,-286.76 403.38,-282.99 395.1,-281.2 395.79,-286.76"/>
</g>
<!-- hidden_SetupWizard -->
<g id="node63" class="node">
<title>hidden_SetupWizard</title>
<path fill="#431407" stroke="#fb923c" d="M550.5,-243C550.5,-243 437.5,-243 437.5,-243 431.5,-243 425.5,-237 425.5,-231 425.5,-231 425.5,-217 425.5,-217 425.5,-211 431.5,-205 437.5,-205 437.5,-205 550.5,-205 550.5,-205 556.5,-205 562.5,-211 562.5,-217 562.5,-217 562.5,-231 562.5,-231 562.5,-237 556.5,-243 550.5,-243"/>
<text text-anchor="middle" x="494" y="-227.8" font-family="Segoe UI" font-size="14.00" fill="#e2e8f0">SetupWizard</text>
<text text-anchor="middle" x="494" y="-212.8" font-family="Segoe UI" font-size="14.00" fill="#e2e8f0">SetupWizardPage</text>
</g>
<!-- navigation&#45;&gt;hidden_SetupWizard -->
<g id="edge63" class="edge">
<title>navigation&#45;&gt;hidden_SetupWizard</title>
<path fill="none" stroke="#fb923c" stroke-width="1.3" stroke-dasharray="5,2" d="M197.15,-1197.5C217.85,-1193.13 238.53,-1184.48 252,-1168 316.3,-1089.34 246.41,-329.06 317,-256 342.47,-229.64 381.87,-220.78 416.94,-218.89"/>
<polygon fill="#fb923c" stroke="#fb923c" stroke-width="1.3" points="417.4,-221.68 425.28,-218.57 417.18,-216.08 417.4,-221.68"/>
</g>
<!-- hidden_AddProviderWizard -->
<g id="node64" class="node">
<title>hidden_AddProviderWizard</title>
<path fill="#431407" stroke="#fb923c" d="M572.5,-180C572.5,-180 415.5,-180 415.5,-180 409.5,-180 403.5,-174 403.5,-168 403.5,-168 403.5,-154 403.5,-154 403.5,-148 409.5,-142 415.5,-142 415.5,-142 572.5,-142 572.5,-142 578.5,-142 584.5,-148 584.5,-154 584.5,-154 584.5,-168 584.5,-168 584.5,-174 578.5,-180 572.5,-180"/>
<text text-anchor="middle" x="494" y="-164.8" font-family="Segoe UI" font-size="14.00" fill="#e2e8f0">AddProviderWizard</text>
<text text-anchor="middle" x="494" y="-149.8" font-family="Segoe UI" font-size="14.00" fill="#e2e8f0">AddProviderWizardPage</text>
</g>
<!-- navigation&#45;&gt;hidden_AddProviderWizard -->
<g id="edge64" class="edge">
<title>navigation&#45;&gt;hidden_AddProviderWizard</title>
<path fill="none" stroke="#fb923c" stroke-width="1.3" stroke-dasharray="5,2" d="M197.2,-1197.54C217.9,-1193.17 238.57,-1184.51 252,-1168 320.5,-1083.76 241.04,-270.57 317,-193 337.36,-172.21 366.39,-162.35 395.02,-158.21"/>
<polygon fill="#fb923c" stroke="#fb923c" stroke-width="1.3" points="395.49,-160.97 403.07,-157.19 394.78,-155.41 395.49,-160.97"/>
</g>
<!-- hidden_ActivityLog -->
<g id="node65" class="node">
<title>hidden_ActivityLog</title>
<path fill="#431407" stroke="#fb923c" d="M544.5,-117C544.5,-117 443.5,-117 443.5,-117 437.5,-117 431.5,-111 431.5,-105 431.5,-105 431.5,-91 431.5,-91 431.5,-85 437.5,-79 443.5,-79 443.5,-79 544.5,-79 544.5,-79 550.5,-79 556.5,-85 556.5,-91 556.5,-91 556.5,-105 556.5,-105 556.5,-111 550.5,-117 544.5,-117"/>
<text text-anchor="middle" x="494" y="-101.8" font-family="Segoe UI" font-size="14.00" fill="#e2e8f0">ActivityLog</text>
<text text-anchor="middle" x="494" y="-86.8" font-family="Segoe UI" font-size="14.00" fill="#e2e8f0">ActivityLogPage</text>
</g>
<!-- navigation&#45;&gt;hidden_ActivityLog -->
<g id="edge65" class="edge">
<title>navigation&#45;&gt;hidden_ActivityLog</title>
<path fill="none" stroke="#fb923c" stroke-width="1.3" stroke-dasharray="5,2" d="M197.24,-1197.57C217.94,-1193.21 238.61,-1184.54 252,-1168 324.74,-1078.2 235.73,-212.16 317,-130 344.21,-102.49 386.61,-94.18 422.98,-92.89"/>
<polygon fill="#fb923c" stroke="#fb923c" stroke-width="1.3" points="423.19,-95.69 431.12,-92.72 423.06,-90.09 423.19,-95.69"/>
</g>
<!-- hidden_SecurityMaster -->
<g id="node66" class="node">
<title>hidden_SecurityMaster</title>
<path fill="#431407" stroke="#fb923c" d="M559,-54C559,-54 429,-54 429,-54 423,-54 417,-48 417,-42 417,-42 417,-28 417,-28 417,-22 423,-16 429,-16 429,-16 559,-16 559,-16 565,-16 571,-22 571,-28 571,-28 571,-42 571,-42 571,-48 565,-54 559,-54"/>
<text text-anchor="middle" x="494" y="-38.8" font-family="Segoe UI" font-size="14.00" fill="#e2e8f0">SecurityMaster</text>
<text text-anchor="middle" x="494" y="-23.8" font-family="Segoe UI" font-size="14.00" fill="#e2e8f0">SecurityMasterPage</text>
</g>
<!-- navigation&#45;&gt;hidden_SecurityMaster -->
<g id="edge66" class="edge">
<title>navigation&#45;&gt;hidden_SecurityMaster</title>
<path fill="none" stroke="#fb923c" stroke-width="1.3" stroke-dasharray="5,2" d="M197.27,-1197.6C217.97,-1193.23 238.63,-1184.56 252,-1168 328.98,-1072.65 230.32,-153.63 317,-67 340.79,-43.22 375.96,-33.83 408.62,-30.92"/>
<polygon fill="#fb923c" stroke="#fb923c" stroke-width="1.3" points="409.09,-33.69 416.86,-30.31 408.68,-28.11 409.09,-33.69"/>
</g>
<!-- page_Dashboard -->
<g id="node5" class="node">
<title>page_Dashboard</title>
<path fill="#1e293b" stroke="#475569" d="M1002.5,-2414C1002.5,-2414 805.5,-2414 805.5,-2414 799.5,-2414 793.5,-2408 793.5,-2402 793.5,-2402 793.5,-2388 793.5,-2388 793.5,-2382 799.5,-2376 805.5,-2376 805.5,-2376 1002.5,-2376 1002.5,-2376 1008.5,-2376 1014.5,-2382 1014.5,-2388 1014.5,-2388 1014.5,-2402 1014.5,-2402 1014.5,-2408 1008.5,-2414 1002.5,-2414"/>
<text text-anchor="middle" x="904" y="-2398.8" font-family="Segoe UI" font-size="14.00" fill="#e2e8f0">Dashboard</text>
<text text-anchor="middle" x="904" y="-2383.8" font-family="Segoe UI" font-size="14.00" fill="#e2e8f0">Dashboard → DashboardPage</text>
</g>
<!-- workspace_1&#45;&gt;page_Dashboard -->
<g id="edge3" class="edge">
<title>workspace_1&#45;&gt;page_Dashboard</title>
<path fill="none" stroke="#94a3b8" stroke-width="1.3" d="M495.85,-3036.74C500.77,-2950.01 533.15,-2592.74 736,-2427 750.3,-2415.31 767.59,-2407.43 785.54,-2402.19"/>
<polygon fill="#94a3b8" stroke="#94a3b8" stroke-width="1.3" points="786.28,-2404.89 793.27,-2400.1 784.82,-2399.48 786.28,-2404.89"/>
</g>
<!-- page_LiveData -->
<g id="node6" class="node">
<title>page_LiveData</title>
<path fill="#1e293b" stroke="#475569" d="M1010.5,-2477C1010.5,-2477 797.5,-2477 797.5,-2477 791.5,-2477 785.5,-2471 785.5,-2465 785.5,-2465 785.5,-2451 785.5,-2451 785.5,-2445 791.5,-2439 797.5,-2439 797.5,-2439 1010.5,-2439 1010.5,-2439 1016.5,-2439 1022.5,-2445 1022.5,-2451 1022.5,-2451 1022.5,-2465 1022.5,-2465 1022.5,-2471 1016.5,-2477 1010.5,-2477"/>
<text text-anchor="middle" x="904" y="-2461.8" font-family="Segoe UI" font-size="14.00" fill="#e2e8f0">LiveData</text>
<text text-anchor="middle" x="904" y="-2446.8" font-family="Segoe UI" font-size="14.00" fill="#e2e8f0">LiveData → LiveDataViewerPage</text>
</g>
<!-- workspace_1&#45;&gt;page_LiveData -->
<g id="edge4" class="edge">
<title>workspace_1&#45;&gt;page_LiveData</title>
<path fill="none" stroke="#94a3b8" stroke-width="1.3" d="M496.83,-3036.85C505.64,-2955.89 551.25,-2639.03 736,-2490 748.13,-2480.21 762.36,-2473.1 777.31,-2467.98"/>
<polygon fill="#94a3b8" stroke="#94a3b8" stroke-width="1.3" points="778.41,-2470.57 785.18,-2465.48 776.71,-2465.23 778.41,-2470.57"/>
</g>
<!-- page_Charts -->
<g id="node7" class="node">
<title>page_Charts</title>
<path fill="#1e293b" stroke="#475569" d="M980,-2540C980,-2540 828,-2540 828,-2540 822,-2540 816,-2534 816,-2528 816,-2528 816,-2514 816,-2514 816,-2508 822,-2502 828,-2502 828,-2502 980,-2502 980,-2502 986,-2502 992,-2508 992,-2514 992,-2514 992,-2528 992,-2528 992,-2534 986,-2540 980,-2540"/>
<text text-anchor="middle" x="904" y="-2524.8" font-family="Segoe UI" font-size="14.00" fill="#e2e8f0">Charts</text>
<text text-anchor="middle" x="904" y="-2509.8" font-family="Segoe UI" font-size="14.00" fill="#e2e8f0">Charts → ChartingPage</text>
</g>
<!-- workspace_1&#45;&gt;page_Charts -->
<g id="edge5" class="edge">
<title>workspace_1&#45;&gt;page_Charts</title>
<path fill="none" stroke="#94a3b8" stroke-width="1.3" d="M497.9,-3036.93C510.43,-2961.69 567.08,-2683.2 736,-2553 756.36,-2537.31 782.19,-2528.59 807.41,-2523.91"/>
<polygon fill="#94a3b8" stroke="#94a3b8" stroke-width="1.3" points="808.15,-2526.63 815.58,-2522.53 807.22,-2521.11 808.15,-2526.63"/>
</g>
<!-- page_QuantScript -->
<g id="node8" class="node">
<title>page_QuantScript</title>
<path fill="#1e293b" stroke="#475569" d="M1010.5,-2603C1010.5,-2603 797.5,-2603 797.5,-2603 791.5,-2603 785.5,-2597 785.5,-2591 785.5,-2591 785.5,-2577 785.5,-2577 785.5,-2571 791.5,-2565 797.5,-2565 797.5,-2565 1010.5,-2565 1010.5,-2565 1016.5,-2565 1022.5,-2571 1022.5,-2577 1022.5,-2577 1022.5,-2591 1022.5,-2591 1022.5,-2597 1016.5,-2603 1010.5,-2603"/>
<text text-anchor="middle" x="904" y="-2587.8" font-family="Segoe UI" font-size="14.00" fill="#e2e8f0">QuantScript</text>
<text text-anchor="middle" x="904" y="-2572.8" font-family="Segoe UI" font-size="14.00" fill="#e2e8f0">QuantScript → QuantScriptPage</text>
</g>
<!-- workspace_1&#45;&gt;page_QuantScript -->
<g id="edge6" class="edge">
<title>workspace_1&#45;&gt;page_QuantScript</title>
<path fill="none" stroke="#94a3b8" stroke-width="1.3" d="M498.35,-3036.63C513.25,-2965.12 579.71,-2717.84 736,-2604 748.4,-2594.97 762.64,-2588.29 777.46,-2583.47"/>
<polygon fill="#94a3b8" stroke="#94a3b8" stroke-width="1.3" points="778.41,-2586.11 785.26,-2581.12 776.8,-2580.75 778.41,-2586.11"/>
</g>
<!-- workspace_1&#45;&gt;page_QuantScript -->
<g id="edge8" class="edge">
<title>workspace_1&#45;&gt;page_QuantScript</title>
<path fill="none" stroke="#94a3b8" stroke-width="1.3" d="M500.68,-3036.73C519.42,-2968.12 586.75,-2737.71 736,-2629 751.14,-2617.97 769.03,-2610.45 787.38,-2605.17"/>
<polygon fill="#94a3b8" stroke="#94a3b8" stroke-width="1.3" points="788.27,-2607.83 795.26,-2603.04 786.81,-2602.42 788.27,-2607.83"/>
</g>
<!-- page_RunMat -->
<g id="node9" class="node">
<title>page_RunMat</title>
<path fill="#1e293b" stroke="#475569" d="M980,-2666C980,-2666 828,-2666 828,-2666 822,-2666 816,-2660 816,-2654 816,-2654 816,-2640 816,-2640 816,-2634 822,-2628 828,-2628 828,-2628 980,-2628 980,-2628 986,-2628 992,-2634 992,-2640 992,-2640 992,-2654 992,-2654 992,-2660 986,-2666 980,-2666"/>
<text text-anchor="middle" x="904" y="-2650.8" font-family="Segoe UI" font-size="14.00" fill="#e2e8f0">RunMat</text>
<text text-anchor="middle" x="904" y="-2635.8" font-family="Segoe UI" font-size="14.00" fill="#e2e8f0">RunMat → RunMatPage</text>
</g>
<!-- workspace_1&#45;&gt;page_RunMat -->
<g id="edge7" class="edge">
<title>workspace_1&#45;&gt;page_RunMat</title>
<path fill="none" stroke="#94a3b8" stroke-width="1.3" d="M501.07,-3036.86C522.08,-2973.99 598.07,-2772.49 736,-2679 757.06,-2664.73 782.86,-2656.44 807.83,-2651.72"/>
<polygon fill="#94a3b8" stroke="#94a3b8" stroke-width="1.3" points="808.5,-2654.45 815.9,-2650.31 807.54,-2648.93 808.5,-2654.45"/>
</g>
<!-- page_StrategyRuns -->
<g id="node10" class="node">
<title>page_StrategyRuns</title>
<path fill="#1e293b" stroke="#475569" d="M1021,-2729C1021,-2729 787,-2729 787,-2729 781,-2729 775,-2723 775,-2717 775,-2717 775,-2703 775,-2703 775,-2697 781,-2691 787,-2691 787,-2691 1021,-2691 1021,-2691 1027,-2691 1033,-2697 1033,-2703 1033,-2703 1033,-2717 1033,-2717 1033,-2723 1027,-2729 1021,-2729"/>
<text text-anchor="middle" x="904" y="-2713.8" font-family="Segoe UI" font-size="14.00" fill="#e2e8f0">StrategyRuns</text>
<text text-anchor="middle" x="904" y="-2698.8" font-family="Segoe UI" font-size="14.00" fill="#e2e8f0">StrategyRuns → StrategyRunsPage</text>
</g>
<!-- workspace_1&#45;&gt;page_StrategyRuns -->
<g id="edge9" class="edge">
<title>workspace_1&#45;&gt;page_StrategyRuns</title>
<path fill="none" stroke="#94a3b8" stroke-width="1.3" d="M508.18,-3036.83C542.6,-2995.07 636.88,-2894.9 700,-2800 719.37,-2770.87 707.99,-2750.96 736,-2730 745.41,-2722.96 755.93,-2717.33 766.99,-2712.9"/>
<polygon fill="#94a3b8" stroke="#94a3b8" stroke-width="1.3" points="768.21,-2715.43 774.73,-2710.01 766.25,-2710.18 768.21,-2715.43"/>
</g>
<!-- workspace_1&#45;&gt;page_StrategyRuns -->
<g id="edge13" class="edge">
<title>workspace_1&#45;&gt;page_StrategyRuns</title>
<path fill="none" stroke="#94a3b8" stroke-width="1.3" d="M521.49,-3036.93C562.83,-2998.25 643.78,-2909.54 700,-2825 719.37,-2795.87 707.99,-2775.96 736,-2755 750.55,-2744.11 767.76,-2736.6 785.51,-2731.31"/>
<polygon fill="#94a3b8" stroke="#94a3b8" stroke-width="1.3" points="786.75,-2733.87 793.7,-2729.03 785.24,-2728.48 786.75,-2733.87"/>
</g>
<!-- page_OrderBook -->
<g id="node11" class="node">
<title>page_OrderBook</title>
<path fill="#1e293b" stroke="#475569" d="M1001.5,-2792C1001.5,-2792 806.5,-2792 806.5,-2792 800.5,-2792 794.5,-2786 794.5,-2780 794.5,-2780 794.5,-2766 794.5,-2766 794.5,-2760 800.5,-2754 806.5,-2754 806.5,-2754 1001.5,-2754 1001.5,-2754 1007.5,-2754 1013.5,-2760 1013.5,-2766 1013.5,-2766 1013.5,-2780 1013.5,-2780 1013.5,-2786 1007.5,-2792 1001.5,-2792"/>
<text text-anchor="middle" x="904" y="-2776.8" font-family="Segoe UI" font-size="14.00" fill="#e2e8f0">OrderBook</text>
<text text-anchor="middle" x="904" y="-2761.8" font-family="Segoe UI" font-size="14.00" fill="#e2e8f0">OrderBook → OrderBookPage</text>
</g>
<!-- workspace_1&#45;&gt;page_OrderBook -->
<g id="edge10" class="edge">
<title>workspace_1&#45;&gt;page_OrderBook</title>
<path fill="none" stroke="#94a3b8" stroke-width="1.3" d="M539.02,-3036.91C585.48,-3014.61 657.72,-2973.44 700,-2917 731.35,-2875.15 696.85,-2839.66 736,-2805 750.22,-2792.42 767.83,-2784.14 786.24,-2778.79"/>
<polygon fill="#94a3b8" stroke="#94a3b8" stroke-width="1.3" points="787.16,-2781.44 794.16,-2776.67 785.71,-2776.03 787.16,-2781.44"/>
</g>
<!-- page_Watchlist -->
<g id="node12" class="node">
<title>page_Watchlist</title>
<path fill="#1e293b" stroke="#475569" d="M990.5,-2855C990.5,-2855 817.5,-2855 817.5,-2855 811.5,-2855 805.5,-2849 805.5,-2843 805.5,-2843 805.5,-2829 805.5,-2829 805.5,-2823 811.5,-2817 817.5,-2817 817.5,-2817 990.5,-2817 990.5,-2817 996.5,-2817 1002.5,-2823 1002.5,-2829 1002.5,-2829 1002.5,-2843 1002.5,-2843 1002.5,-2849 996.5,-2855 990.5,-2855"/>
<text text-anchor="middle" x="904" y="-2839.8" font-family="Segoe UI" font-size="14.00" fill="#e2e8f0">Watchlist</text>
<text text-anchor="middle" x="904" y="-2824.8" font-family="Segoe UI" font-size="14.00" fill="#e2e8f0">Watchlist → WatchlistPage</text>
</g>
<!-- workspace_1&#45;&gt;page_Watchlist -->
<g id="edge11" class="edge">
<title>workspace_1&#45;&gt;page_Watchlist</title>
<path fill="none" stroke="#94a3b8" stroke-width="1.3" d="M556.08,-3045.41C601.45,-3034.54 661.85,-3013.29 700,-2973 733.92,-2937.18 698.75,-2900.34 736,-2868 753.15,-2853.11 775.07,-2844.28 797.35,-2839.21"/>
<polygon fill="#94a3b8" stroke="#94a3b8" stroke-width="1.3" points="797.98,-2841.94 805.24,-2837.57 796.84,-2836.46 797.98,-2841.94"/>
</g>
<!-- page_Backtest -->
<g id="node13" class="node">
<title>page_Backtest</title>
<path fill="#1e293b" stroke="#475569" d="M987.5,-2918C987.5,-2918 820.5,-2918 820.5,-2918 814.5,-2918 808.5,-2912 808.5,-2906 808.5,-2906 808.5,-2892 808.5,-2892 808.5,-2886 814.5,-2880 820.5,-2880 820.5,-2880 987.5,-2880 987.5,-2880 993.5,-2880 999.5,-2886 999.5,-2892 999.5,-2892 999.5,-2906 999.5,-2906 999.5,-2912 993.5,-2918 987.5,-2918"/>
<text text-anchor="middle" x="904" y="-2902.8" font-family="Segoe UI" font-size="14.00" fill="#e2e8f0">Backtest</text>
<text text-anchor="middle" x="904" y="-2887.8" font-family="Segoe UI" font-size="14.00" fill="#e2e8f0">Backtest → BacktestPage</text>
</g>
<!-- workspace_1&#45;&gt;page_Backtest -->
<g id="edge12" class="edge">
<title>workspace_1&#45;&gt;page_Backtest</title>
<path fill="none" stroke="#94a3b8" stroke-width="1.3" d="M556.18,-3053.81C600.42,-3049.3 659.33,-3036.92 700,-3004 728.12,-2981.24 707.22,-2952.92 736,-2931 754.49,-2916.92 777.39,-2908.47 800.26,-2903.52"/>
<polygon fill="#94a3b8" stroke="#94a3b8" stroke-width="1.3" points="801.03,-2906.22 808.33,-2901.92 799.94,-2900.73 801.03,-2906.22"/>
</g>
<!-- page_LeanIntegration -->
<g id="node14" class="node">
<title>page_LeanIntegration</title>
<path fill="#1e293b" stroke="#475569" d="M1037,-2981C1037,-2981 771,-2981 771,-2981 765,-2981 759,-2975 759,-2969 759,-2969 759,-2955 759,-2955 759,-2949 765,-2943 771,-2943 771,-2943 1037,-2943 1037,-2943 1043,-2943 1049,-2949 1049,-2955 1049,-2955 1049,-2969 1049,-2969 1049,-2975 1043,-2981 1037,-2981"/>
<text text-anchor="middle" x="904" y="-2965.8" font-family="Segoe UI" font-size="14.00" fill="#e2e8f0">LeanIntegration</text>
<text text-anchor="middle" x="904" y="-2950.8" font-family="Segoe UI" font-size="14.00" fill="#e2e8f0">LeanIntegration → LeanIntegrationPage</text>
</g>
<!-- workspace_1&#45;&gt;page_LeanIntegration -->
<g id="edge14" class="edge">
<title>workspace_1&#45;&gt;page_LeanIntegration</title>
<path fill="none" stroke="#94a3b8" stroke-width="1.3" d="M556.09,-3054.36C598.13,-3051.3 654.39,-3043.31 700,-3023 718.77,-3014.64 717.36,-3002.63 736,-2994 744.58,-2990.03 753.63,-2986.55 762.89,-2983.5"/>
<polygon fill="#94a3b8" stroke="#94a3b8" stroke-width="1.3" points="763.93,-2986.11 770.72,-2981.04 762.25,-2980.77 763.93,-2986.11"/>
</g>
<!-- page_PortfolioImport -->
<g id="node15" class="node">
<title>page_PortfolioImport</title>
<path fill="#1e293b" stroke="#475569" d="M1031,-3044C1031,-3044 777,-3044 777,-3044 771,-3044 765,-3038 765,-3032 765,-3032 765,-3018 765,-3018 765,-3012 771,-3006 777,-3006 777,-3006 1031,-3006 1031,-3006 1037,-3006 1043,-3012 1043,-3018 1043,-3018 1043,-3032 1043,-3032 1043,-3038 1037,-3044 1031,-3044"/>
<text text-anchor="middle" x="904" y="-3028.8" font-family="Segoe UI" font-size="14.00" fill="#e2e8f0">PortfolioImport</text>
<text text-anchor="middle" x="904" y="-3013.8" font-family="Segoe UI" font-size="14.00" fill="#e2e8f0">PortfolioImport → PortfolioImportPage</text>
</g>
<!-- workspace_1&#45;&gt;page_PortfolioImport -->
<g id="edge15" class="edge">
<title>workspace_1&#45;&gt;page_PortfolioImport</title>
<path fill="none" stroke="#94a3b8" stroke-width="1.3" d="M556.08,-3051.36C608.95,-3047.34 687.56,-3041.37 756.59,-3036.12"/>
<polygon fill="#94a3b8" stroke="#94a3b8" stroke-width="1.3" points="757.19,-3038.89 764.96,-3035.49 756.77,-3033.3 757.19,-3038.89"/>
</g>
<!-- page_TradingHours -->
<g id="node16" class="node">
<title>page_TradingHours</title>
<path fill="#1e293b" stroke="#475569" d="M1020.5,-3107C1020.5,-3107 787.5,-3107 787.5,-3107 781.5,-3107 775.5,-3101 775.5,-3095 775.5,-3095 775.5,-3081 775.5,-3081 775.5,-3075 781.5,-3069 787.5,-3069 787.5,-3069 1020.5,-3069 1020.5,-3069 1026.5,-3069 1032.5,-3075 1032.5,-3081 1032.5,-3081 1032.5,-3095 1032.5,-3095 1032.5,-3101 1026.5,-3107 1020.5,-3107"/>
<text text-anchor="middle" x="904" y="-3091.8" font-family="Segoe UI" font-size="14.00" fill="#e2e8f0">TradingHours</text>
<text text-anchor="middle" x="904" y="-3076.8" font-family="Segoe UI" font-size="14.00" fill="#e2e8f0">TradingHours → TradingHoursPage</text>
</g>
<!-- workspace_1&#45;&gt;page_TradingHours -->
<g id="edge16" class="edge">
<title>workspace_1&#45;&gt;page_TradingHours</title>
<path fill="none" stroke="#94a3b8" stroke-width="1.3" d="M556.08,-3060.79C611.63,-3065.15 695.58,-3071.73 766.99,-3077.33"/>
<polygon fill="#94a3b8" stroke="#94a3b8" stroke-width="1.3" points="766.99,-3080.14 775.19,-3077.98 767.43,-3074.56 766.99,-3080.14"/>
</g>
<!-- page_DirectLending -->
<g id="node17" class="node">
<title>page_DirectLending</title>
<path fill="#1e293b" stroke="#475569" d="M1023.5,-3170C1023.5,-3170 784.5,-3170 784.5,-3170 778.5,-3170 772.5,-3164 772.5,-3158 772.5,-3158 772.5,-3144 772.5,-3144 772.5,-3138 778.5,-3132 784.5,-3132 784.5,-3132 1023.5,-3132 1023.5,-3132 1029.5,-3132 1035.5,-3138 1035.5,-3144 1035.5,-3144 1035.5,-3158 1035.5,-3158 1035.5,-3164 1029.5,-3170 1023.5,-3170"/>
<text text-anchor="middle" x="904" y="-3154.8" font-family="Segoe UI" font-size="14.00" fill="#e2e8f0">DirectLending</text>
<text text-anchor="middle" x="904" y="-3139.8" font-family="Segoe UI" font-size="14.00" fill="#e2e8f0">DirectLending → DirectLendingPage</text>
</g>
<!-- workspace_1&#45;&gt;page_DirectLending -->
<g id="edge17" class="edge">
<title>workspace_1&#45;&gt;page_DirectLending</title>
<path fill="none" stroke="#94a3b8" stroke-width="1.3" d="M556.1,-3073.6C604.62,-3087.25 674.34,-3106.11 736,-3120 751.95,-3123.59 768.82,-3127.08 785.46,-3130.35"/>
<polygon fill="#94a3b8" stroke="#94a3b8" stroke-width="1.3" points="785.22,-3133.15 793.61,-3131.93 786.29,-3127.65 785.22,-3133.15"/>
</g>
<!-- page_Provider -->
<g id="node18" class="node">
<title>page_Provider</title>
<path fill="#1e293b" stroke="#475569" d="M984.5,-3233C984.5,-3233 823.5,-3233 823.5,-3233 817.5,-3233 811.5,-3227 811.5,-3221 811.5,-3221 811.5,-3207 811.5,-3207 811.5,-3201 817.5,-3195 823.5,-3195 823.5,-3195 984.5,-3195 984.5,-3195 990.5,-3195 996.5,-3201 996.5,-3207 996.5,-3207 996.5,-3221 996.5,-3221 996.5,-3227 990.5,-3233 984.5,-3233"/>
<text text-anchor="middle" x="904" y="-3217.8" font-family="Segoe UI" font-size="14.00" fill="#e2e8f0">Provider</text>
<text text-anchor="middle" x="904" y="-3202.8" font-family="Segoe UI" font-size="14.00" fill="#e2e8f0">Provider → ProviderPage</text>
</g>
<!-- workspace_1&#45;&gt;page_Provider -->
<g id="edge18" class="edge">
<title>workspace_1&#45;&gt;page_Provider</title>
<path fill="none" stroke="#94a3b8" stroke-width="1.3" d="M524.11,-3075.08C568.14,-3103.06 655.14,-3154.92 736,-3183 757.31,-3190.4 780.79,-3196.14 803.24,-3200.56"/>
<polygon fill="#94a3b8" stroke="#94a3b8" stroke-width="1.3" points="802.75,-3203.32 811.14,-3202.07 803.8,-3197.82 802.75,-3203.32"/>
</g>
<!-- page_Symbols -->
<g id="node19" class="node">
<title>page_Symbols</title>
<path fill="#1e293b" stroke="#475569" d="M986.5,-3296C986.5,-3296 821.5,-3296 821.5,-3296 815.5,-3296 809.5,-3290 809.5,-3284 809.5,-3284 809.5,-3270 809.5,-3270 809.5,-3264 815.5,-3258 821.5,-3258 821.5,-3258 986.5,-3258 986.5,-3258 992.5,-3258 998.5,-3264 998.5,-3270 998.5,-3270 998.5,-3284 998.5,-3284 998.5,-3290 992.5,-3296 986.5,-3296"/>
<text text-anchor="middle" x="904" y="-3280.8" font-family="Segoe UI" font-size="14.00" fill="#e2e8f0">Symbols</text>
<text text-anchor="middle" x="904" y="-3265.8" font-family="Segoe UI" font-size="14.00" fill="#e2e8f0">Symbols → SymbolsPage</text>
</g>
<!-- workspace_1&#45;&gt;page_Symbols -->
<g id="edge19" class="edge">
<title>workspace_1&#45;&gt;page_Symbols</title>
<path fill="none" stroke="#94a3b8" stroke-width="1.3" d="M512.55,-3075.02C549.68,-3113.96 640.64,-3202.78 736,-3246 756.21,-3255.16 778.97,-3261.62 801.04,-3266.16"/>
<polygon fill="#94a3b8" stroke="#94a3b8" stroke-width="1.3" points="800.74,-3268.96 809.13,-3267.75 801.82,-3263.46 800.74,-3268.96"/>
</g>
<!-- page_Backfill -->
<g id="node20" class="node">
<title>page_Backfill</title>
<path fill="#1e293b" stroke="#475569" d="M977.5,-3359C977.5,-3359 830.5,-3359 830.5,-3359 824.5,-3359 818.5,-3353 818.5,-3347 818.5,-3347 818.5,-3333 818.5,-3333 818.5,-3327 824.5,-3321 830.5,-3321 830.5,-3321 977.5,-3321 977.5,-3321 983.5,-3321 989.5,-3327 989.5,-3333 989.5,-3333 989.5,-3347 989.5,-3347 989.5,-3353 983.5,-3359 977.5,-3359"/>
<text text-anchor="middle" x="904" y="-3343.8" font-family="Segoe UI" font-size="14.00" fill="#e2e8f0">Backfill</text>
<text text-anchor="middle" x="904" y="-3328.8" font-family="Segoe UI" font-size="14.00" fill="#e2e8f0">Backfill → BackfillPage</text>
</g>
<!-- workspace_1&#45;&gt;page_Backfill -->
<g id="edge20" class="edge">
<title>workspace_1&#45;&gt;page_Backfill</title>
<path fill="none" stroke="#94a3b8" stroke-width="1.3" d="M506.87,-3075.07C537.9,-3123.16 626.66,-3249.75 736,-3309 758.58,-3321.23 785.11,-3328.73 810.31,-3333.3"/>
<polygon fill="#94a3b8" stroke="#94a3b8" stroke-width="1.3" points="810.08,-3336.1 818.43,-3334.68 811.02,-3330.58 810.08,-3336.1"/>
</g>
<!-- page_Storage -->
<g id="node21" class="node">
<title>page_Storage</title>
<path fill="#1e293b" stroke="#475569" d="M981.5,-3422C981.5,-3422 826.5,-3422 826.5,-3422 820.5,-3422 814.5,-3416 814.5,-3410 814.5,-3410 814.5,-3396 814.5,-3396 814.5,-3390 820.5,-3384 826.5,-3384 826.5,-3384 981.5,-3384 981.5,-3384 987.5,-3384 993.5,-3390 993.5,-3396 993.5,-3396 993.5,-3410 993.5,-3410 993.5,-3416 987.5,-3422 981.5,-3422"/>
<text text-anchor="middle" x="904" y="-3406.8" font-family="Segoe UI" font-size="14.00" fill="#e2e8f0">Storage</text>
<text text-anchor="middle" x="904" y="-3391.8" font-family="Segoe UI" font-size="14.00" fill="#e2e8f0">Storage → StoragePage</text>
</g>
<!-- workspace_1&#45;&gt;page_Storage -->
<g id="edge21" class="edge">
<title>workspace_1&#45;&gt;page_Storage</title>
<path fill="none" stroke="#94a3b8" stroke-width="1.3" d="M503.41,-3075.19C529.08,-3131.3 612.29,-3295.92 736,-3372 756.87,-3384.84 781.8,-3392.61 805.94,-3397.25"/>
<polygon fill="#94a3b8" stroke="#94a3b8" stroke-width="1.3" points="805.72,-3400.05 814.09,-3398.7 806.7,-3394.54 805.72,-3400.05"/>
</g>
<!-- page_DataExport -->
<g id="node22" class="node">
<title>page_DataExport</title>
<path fill="#1e293b" stroke="#475569" d="M1005.5,-3485C1005.5,-3485 802.5,-3485 802.5,-3485 796.5,-3485 790.5,-3479 790.5,-3473 790.5,-3473 790.5,-3459 790.5,-3459 790.5,-3453 796.5,-3447 802.5,-3447 802.5,-3447 1005.5,-3447 1005.5,-3447 1011.5,-3447 1017.5,-3453 1017.5,-3459 1017.5,-3459 1017.5,-3473 1017.5,-3473 1017.5,-3479 1011.5,-3485 1005.5,-3485"/>
<text text-anchor="middle" x="904" y="-3469.8" font-family="Segoe UI" font-size="14.00" fill="#e2e8f0">DataExport</text>
<text text-anchor="middle" x="904" y="-3454.8" font-family="Segoe UI" font-size="14.00" fill="#e2e8f0">DataExport → DataExportPage</text>
</g>
<!-- workspace_1&#45;&gt;page_DataExport -->
<g id="edge22" class="edge">
<title>workspace_1&#45;&gt;page_DataExport</title>
<path fill="none" stroke="#94a3b8" stroke-width="1.3" d="M501.02,-3075.27C521.86,-3138.57 597.39,-3341.39 736,-3435 749.86,-3444.36 765.78,-3451.09 782.16,-3455.91"/>
<polygon fill="#94a3b8" stroke="#94a3b8" stroke-width="1.3" points="781.77,-3458.71 790.23,-3458.12 783.25,-3453.3 781.77,-3458.71"/>
</g>
<!-- page_PackageManager -->
<g id="node23" class="node">
<title>page_PackageManager</title>
<path fill="#1e293b" stroke="#475569" d="M1044.5,-3548C1044.5,-3548 763.5,-3548 763.5,-3548 757.5,-3548 751.5,-3542 751.5,-3536 751.5,-3536 751.5,-3522 751.5,-3522 751.5,-3516 757.5,-3510 763.5,-3510 763.5,-3510 1044.5,-3510 1044.5,-3510 1050.5,-3510 1056.5,-3516 1056.5,-3522 1056.5,-3522 1056.5,-3536 1056.5,-3536 1056.5,-3542 1050.5,-3548 1044.5,-3548"/>
<text text-anchor="middle" x="904" y="-3532.8" font-family="Segoe UI" font-size="14.00" fill="#e2e8f0">PackageManager</text>
<text text-anchor="middle" x="904" y="-3517.8" font-family="Segoe UI" font-size="14.00" fill="#e2e8f0">PackageManager → PackageManagerPage</text>
</g>
<!-- workspace_1&#45;&gt;page_PackageManager -->
<g id="edge23" class="edge">
<title>workspace_1&#45;&gt;page_PackageManager</title>
<path fill="none" stroke="#94a3b8" stroke-width="1.3" d="M499.27,-3075.41C515.75,-3145.37 582.12,-3386.38 736,-3498 740.15,-3501.01 744.51,-3503.76 749.03,-3506.26"/>
<polygon fill="#94a3b8" stroke="#94a3b8" stroke-width="1.3" points="747.86,-3508.8 756.25,-3509.99 750.43,-3503.83 747.86,-3508.8"/>
</g>
<!-- page_DataQuality -->
<g id="node24" class="node">
<title>page_DataQuality</title>
<path fill="#1e293b" stroke="#475569" d="M1009,-3611C1009,-3611 799,-3611 799,-3611 793,-3611 787,-3605 787,-3599 787,-3599 787,-3585 787,-3585 787,-3579 793,-3573 799,-3573 799,-3573 1009,-3573 1009,-3573 1015,-3573 1021,-3579 1021,-3585 1021,-3585 1021,-3599 1021,-3599 1021,-3605 1015,-3611 1009,-3611"/>
<text text-anchor="middle" x="904" y="-3595.8" font-family="Segoe UI" font-size="14.00" fill="#e2e8f0">DataQuality</text>
<text text-anchor="middle" x="904" y="-3580.8" font-family="Segoe UI" font-size="14.00" fill="#e2e8f0">DataQuality → DataQualityPage</text>
</g>
<!-- workspace_1&#45;&gt;page_DataQuality -->
<g id="edge24" class="edge">
<title>workspace_1&#45;&gt;page_DataQuality</title>
<path fill="none" stroke="#94a3b8" stroke-width="1.3" d="M497.86,-3075.17C510.2,-3150.82 566.26,-3430.74 736,-3561 748.77,-3570.8 763.68,-3577.83 779.24,-3582.82"/>
<polygon fill="#94a3b8" stroke="#94a3b8" stroke-width="1.3" points="778.46,-3585.51 786.93,-3585.11 780.06,-3580.14 778.46,-3585.51"/>
</g>
<!-- page_ProviderHealth -->
<g id="node25" class="node">
<title>page_ProviderHealth</title>
<path fill="#1e293b" stroke="#475569" d="M1029.5,-3674C1029.5,-3674 778.5,-3674 778.5,-3674 772.5,-3674 766.5,-3668 766.5,-3662 766.5,-3662 766.5,-3648 766.5,-3648 766.5,-3642 772.5,-3636 778.5,-3636 778.5,-3636 1029.5,-3636 1029.5,-3636 1035.5,-3636 1041.5,-3642 1041.5,-3648 1041.5,-3648 1041.5,-3662 1041.5,-3662 1041.5,-3668 1035.5,-3674 1029.5,-3674"/>
<text text-anchor="middle" x="904" y="-3658.8" font-family="Segoe UI" font-size="14.00" fill="#e2e8f0">ProviderHealth</text>
<text text-anchor="middle" x="904" y="-3643.8" font-family="Segoe UI" font-size="14.00" fill="#e2e8f0">ProviderHealth → ProviderHealthPage</text>
</g>
<!-- workspace_1&#45;&gt;page_ProviderHealth -->
<g id="edge25" class="edge">
<title>workspace_1&#45;&gt;page_ProviderHealth</title>
<path fill="none" stroke="#94a3b8" stroke-width="1.3" d="M496.78,-3075.24C505.41,-3156.59 550.36,-3474.94 736,-3624 742.95,-3629.58 750.6,-3634.28 758.66,-3638.22"/>
<polygon fill="#94a3b8" stroke="#94a3b8" stroke-width="1.3" points="757.75,-3640.88 766.19,-3641.63 760.06,-3635.78 757.75,-3640.88"/>
</g>
<!-- page_SystemHealth -->
<g id="node26" class="node">
<title>page_SystemHealth</title>
<path fill="#1e293b" stroke="#475569" d="M1024,-3737C1024,-3737 784,-3737 784,-3737 778,-3737 772,-3731 772,-3725 772,-3725 772,-3711 772,-3711 772,-3705 778,-3699 784,-3699 784,-3699 1024,-3699 1024,-3699 1030,-3699 1036,-3705 1036,-3711 1036,-3711 1036,-3725 1036,-3725 1036,-3731 1030,-3737 1024,-3737"/>
<text text-anchor="middle" x="904" y="-3721.8" font-family="Segoe UI" font-size="14.00" fill="#e2e8f0">SystemHealth</text>
<text text-anchor="middle" x="904" y="-3706.8" font-family="Segoe UI" font-size="14.00" fill="#e2e8f0">SystemHealth → SystemHealthPage</text>
</g>
<!-- workspace_1&#45;&gt;page_SystemHealth -->
<g id="edge26" class="edge">
<title>workspace_1&#45;&gt;page_SystemHealth</title>
<path fill="none" stroke="#94a3b8" stroke-width="1.3" d="M495.78,-3075.06C500.44,-3161.69 531.88,-3521.21 736,-3687 744.56,-3693.96 754.19,-3699.54 764.39,-3704.01"/>
<polygon fill="#94a3b8" stroke="#94a3b8" stroke-width="1.3" points="763.45,-3706.65 771.91,-3707.07 765.56,-3701.46 763.45,-3706.65"/>
</g>
<!-- page_Diagnostics -->
<g id="node27" class="node">
<title>page_Diagnostics</title>
<path fill="#1e293b" stroke="#475569" d="M1007.5,-3800C1007.5,-3800 800.5,-3800 800.5,-3800 794.5,-3800 788.5,-3794 788.5,-3788 788.5,-3788 788.5,-3774 788.5,-3774 788.5,-3768 794.5,-3762 800.5,-3762 800.5,-3762 1007.5,-3762 1007.5,-3762 1013.5,-3762 1019.5,-3768 1019.5,-3774 1019.5,-3774 1019.5,-3788 1019.5,-3788 1019.5,-3794 1013.5,-3800 1007.5,-3800"/>
<text text-anchor="middle" x="904" y="-3784.8" font-family="Segoe UI" font-size="14.00" fill="#e2e8f0">Diagnostics</text>
<text text-anchor="middle" x="904" y="-3769.8" font-family="Segoe UI" font-size="14.00" fill="#e2e8f0">Diagnostics → DiagnosticsPage</text>
</g>
<!-- workspace_1&#45;&gt;page_Diagnostics -->
<g id="edge27" class="edge">
<title>workspace_1&#45;&gt;page_Diagnostics</title>
<path fill="none" stroke="#94a3b8" stroke-width="1.3" d="M494.94,-3075.18C495.77,-3167.42 512.5,-3568.47 736,-3750 748.88,-3760.46 764.18,-3767.83 780.19,-3772.94"/>
<polygon fill="#94a3b8" stroke="#94a3b8" stroke-width="1.3" points="779.64,-3775.7 788.11,-3775.28 781.23,-3770.33 779.64,-3775.7"/>
</g>
<!-- page_Settings -->
<g id="node28" class="node">
<title>page_Settings</title>
<path fill="#1e293b" stroke="#475569" d="M984.5,-3863C984.5,-3863 823.5,-3863 823.5,-3863 817.5,-3863 811.5,-3857 811.5,-3851 811.5,-3851 811.5,-3837 811.5,-3837 811.5,-3831 817.5,-3825 823.5,-3825 823.5,-3825 984.5,-3825 984.5,-3825 990.5,-3825 996.5,-3831 996.5,-3837 996.5,-3837 996.5,-3851 996.5,-3851 996.5,-3857 990.5,-3863 984.5,-3863"/>
<text text-anchor="middle" x="904" y="-3847.8" font-family="Segoe UI" font-size="14.00" fill="#e2e8f0">Settings</text>
<text text-anchor="middle" x="904" y="-3832.8" font-family="Segoe UI" font-size="14.00" fill="#e2e8f0">Settings → SettingsPage</text>
</g>
<!-- workspace_1&#45;&gt;page_Settings -->
<g id="edge28" class="edge">
<title>workspace_1&#45;&gt;page_Settings</title>
<path fill="none" stroke="#94a3b8" stroke-width="1.3" d="M498.2,-3075.1C516.63,-3182.85 612.82,-3713.35 736,-3813 754.95,-3828.33 779.07,-3836.99 803.05,-3841.69"/>
<polygon fill="#94a3b8" stroke="#94a3b8" stroke-width="1.3" points="802.8,-3844.49 811.17,-3843.14 803.79,-3838.98 802.8,-3844.49"/>
</g>
<!-- page_AdminMaintenance -->
<g id="node29" class="node">
<title>page_AdminMaintenance</title>
<path fill="#1e293b" stroke="#475569" d="M1060,-3926C1060,-3926 748,-3926 748,-3926 742,-3926 736,-3920 736,-3914 736,-3914 736,-3900 736,-3900 736,-3894 742,-3888 748,-3888 748,-3888 1060,-3888 1060,-3888 1066,-3888 1072,-3894 1072,-3900 1072,-3900 1072,-3914 1072,-3914 1072,-3920 1066,-3926 1060,-3926"/>
<text text-anchor="middle" x="904" y="-3910.8" font-family="Segoe UI" font-size="14.00" fill="#e2e8f0">AdminMaintenance</text>
<text text-anchor="middle" x="904" y="-3895.8" font-family="Segoe UI" font-size="14.00" fill="#e2e8f0">AdminMaintenance → AdminMaintenancePage</text>
</g>
<!-- workspace_1&#45;&gt;page_AdminMaintenance -->
<g id="edge29" class="edge">
<title>workspace_1&#45;&gt;page_AdminMaintenance</title>
<path fill="none" stroke="#94a3b8" stroke-width="1.3" d="M497.74,-3075.15C514.33,-3188.07 604.88,-3765.93 736,-3876 739.3,-3878.77 742.77,-3881.33 746.38,-3883.69"/>
<polygon fill="#94a3b8" stroke="#94a3b8" stroke-width="1.3" points="745.19,-3886.24 753.48,-3887.98 748.08,-3881.44 745.19,-3886.24"/>
</g>
</g>
</svg>
