<?xml version="1.0" encoding="UTF-8" standalone="no"?>
<!DOCTYPE svg PUBLIC "-//W3C//DTD SVG 1.1//EN"
 "http://www.w3.org/Graphics/SVG/1.1/DTD/svg11.dtd">
<!-- Generated by graphviz version 2.43.0 (0)
 -->
<!-- Title: UiNavigationMap Pages: 1 -->
<svg width="688pt" height="314pt"
 viewBox="0.00 0.00 687.60 314.10" xmlns="http://www.w3.org/2000/svg" xmlns:xlink="http://www.w3.org/1999/xlink">
<g id="graph0" class="graph" transform="scale(1 1) rotate(0) translate(28.8 285.3)">
<title>UiNavigationMap</title>
<polygon fill="#0f172a" stroke="transparent" points="-28.8,28.8 -28.8,-285.3 658.8,-285.3 658.8,28.8 -28.8,28.8"/>
<text text-anchor="middle" x="315" y="-236.5" font-family="Segoe UI" font-size="20.00">Meridian WPF UI navigation map</text>
<text text-anchor="middle" x="315" y="-214.5" font-family="Segoe UI" font-size="20.00">(auto&#45;generated from MainPage.xaml + NavigationService.cs)</text>
<!-- generated -->
<g id="node1" class="node">
<title>generated</title>
<polygon fill="#1d4ed8" stroke="#60a5fa" points="439,-53 185,-53 185,0 445,0 445,-47 439,-53"/>
<polyline fill="none" stroke="#60a5fa" points="439,-53 439,-47 "/>
<polyline fill="none" stroke="#60a5fa" points="445,-47 439,-47 "/>
<text text-anchor="middle" x="315" y="-37.8" font-family="Segoe UI" font-size="14.00" fill="#e2e8f0">Source fingerprint: 805621676869</text>
<text text-anchor="middle" x="315" y="-22.8" font-family="Segoe UI" font-size="14.00" fill="#e2e8f0">Shell entries: 0</text>
<text text-anchor="middle" x="315" y="-7.8" font-family="Segoe UI" font-size="14.00" fill="#e2e8f0">Registered pages: 0</text>
</g>
<!-- shell -->
<g id="node2" class="node">
<title>shell</title>
<polygon fill="#0f766e" stroke="#2dd4bf" points="379.5,-204.5 250.5,-204.5 250.5,-200.5 246.5,-200.5 246.5,-196.5 250.5,-196.5 250.5,-174.5 246.5,-174.5 246.5,-170.5 250.5,-170.5 250.5,-166.5 379.5,-166.5 379.5,-204.5"/>
<polyline fill="none" stroke="#2dd4bf" points="250.5,-200.5 254.5,-200.5 254.5,-196.5 250.5,-196.5 "/>
<polyline fill="none" stroke="#2dd4bf" points="250.5,-174.5 254.5,-174.5 254.5,-170.5 250.5,-170.5 "/>
<text text-anchor="middle" x="315" y="-189.3" font-family="Segoe UI" font-size="14.00" fill="#e2e8f0">MainPage.xaml</text>
<text text-anchor="middle" x="315" y="-174.3" font-family="Segoe UI" font-size="14.00" fill="#e2e8f0">Workspace shell</text>
</g>
<!-- navigation -->
<g id="node3" class="node">
<title>navigation</title>
<polygon fill="#7c3aed" stroke="#c4b5fd" points="386,-116.5 244,-116.5 244,-112.5 240,-112.5 240,-108.5 244,-108.5 244,-86.5 240,-86.5 240,-82.5 244,-82.5 244,-78.5 386,-78.5 386,-116.5"/>
<polyline fill="none" stroke="#c4b5fd" points="244,-112.5 248,-112.5 248,-108.5 244,-108.5 "/>
<polyline fill="none" stroke="#c4b5fd" points="244,-86.5 248,-86.5 248,-82.5 244,-82.5 "/>
<text text-anchor="middle" x="315" y="-101.3" font-family="Segoe UI" font-size="14.00" fill="#e2e8f0">NavigationService</text>
<text text-anchor="middle" x="315" y="-86.3" font-family="Segoe UI" font-size="14.00" fill="#e2e8f0">RegisterAllPages()</text>
</g>
<!-- shell&#45;&gt;navigation -->
<g id="edge1" class="edge">
<title>shell&#45;&gt;navigation</title>
<path fill="none" stroke="#38bdf8" stroke-width="1.3" d="M315,-166.44C315,-154.23 315,-138.18 315,-124.64"/>
<polygon fill="#38bdf8" stroke="#38bdf8" stroke-width="1.3" points="317.8,-124.59 315,-116.59 312.2,-124.59 317.8,-124.59"/>
<text text-anchor="middle" x="304.5" y="-137.8" font-family="Segoe UI" font-size="14.00">navigate via tags</text>
</g>
</g>
</svg>
