<?xml version="1.0" encoding="UTF-8" standalone="no"?>
<!DOCTYPE svg PUBLIC "-//W3C//DTD SVG 1.1//EN"
 "http://www.w3.org/Graphics/SVG/1.1/DTD/svg11.dtd">
<!-- Generated by graphviz version 2.43.0 (0)
 -->
<!-- Title: UiNavigationMap Pages: 1 -->
<svg width="1151pt" height="3326pt"
 viewBox="0.00 0.00 1150.60 3325.60" xmlns="http://www.w3.org/2000/svg" xmlns:xlink="http://www.w3.org/1999/xlink">
<g id="graph0" class="graph" transform="scale(1 1) rotate(0) translate(28.8 3296.8)">
<title>UiNavigationMap</title>
<polygon fill="#0f172a" stroke="transparent" points="-28.8,28.8 -28.8,-3296.8 1121.8,-3296.8 1121.8,28.8 -28.8,28.8"/>
<text text-anchor="middle" x="546.5" y="-3248" font-family="Segoe UI" font-size="20.00">Meridian WPF UI navigation map</text>
<text text-anchor="middle" x="546.5" y="-3226" font-family="Segoe UI" font-size="20.00">(auto&#45;generated from MainPage.xaml + NavigationService.cs)</text>
<g id="clust1" class="cluster">
<title>cluster_workspace_1</title>
<path fill="#0f172a" stroke="#334155" d="M441,-1864C441,-1864 1073,-1864 1073,-1864 1079,-1864 1085,-1870 1085,-1876 1085,-1876 1085,-3196 1085,-3196 1085,-3202 1079,-3208 1073,-3208 1073,-3208 441,-3208 441,-3208 435,-3208 429,-3202 429,-3196 429,-3196 429,-1876 429,-1876 429,-1870 435,-1864 441,-1864"/>
<text text-anchor="middle" x="757" y="-3188" font-family="Segoe UI" font-size="20.00">Shell workspace</text>
</g>
<g id="clust2" class="cluster">
<title>cluster_hidden_pages</title>
<path fill="#0f172a" stroke="#7c2d12" stroke-dasharray="5,2" d="M334,-8C334,-8 664,-8 664,-8 670,-8 676,-14 676,-20 676,-20 676,-1844 676,-1844 676,-1850 670,-1856 664,-1856 664,-1856 334,-1856 334,-1856 328,-1856 322,-1850 322,-1844 322,-1844 322,-20 322,-20 322,-14 328,-8 334,-8"/>
<text text-anchor="middle" x="499" y="-1836" font-family="Segoe UI" font-size="20.00">Registered but not in sidebar shell</text>
</g>
<!-- generated -->
<g id="node1" class="node">
<title>generated</title>
<polygon fill="#1d4ed8" stroke="#60a5fa" points="251,-903.5 0,-903.5 0,-850.5 257,-850.5 257,-897.5 251,-903.5"/>
<polyline fill="none" stroke="#60a5fa" points="251,-903.5 251,-897.5 "/>
<polyline fill="none" stroke="#60a5fa" points="257,-897.5 251,-897.5 "/>
<text text-anchor="middle" x="128.5" y="-888.3" font-family="Segoe UI" font-size="14.00" fill="#e2e8f0">Source fingerprint: 23e55b52ea40</text>
<text text-anchor="middle" x="128.5" y="-873.3" font-family="Segoe UI" font-size="14.00" fill="#e2e8f0">Shell entries: 21</text>
<text text-anchor="middle" x="128.5" y="-858.3" font-family="Segoe UI" font-size="14.00" fill="#e2e8f0">Registered pages: 50</text>
</g>
<!-- shell -->
<g id="node2" class="node">
<title>shell</title>
<polygon fill="#0f766e" stroke="#2dd4bf" points="193,-1616 64,-1616 64,-1612 60,-1612 60,-1608 64,-1608 64,-1586 60,-1586 60,-1582 64,-1582 64,-1578 193,-1578 193,-1616"/>
<polyline fill="none" stroke="#2dd4bf" points="64,-1612 68,-1612 68,-1608 64,-1608 "/>
<polyline fill="none" stroke="#2dd4bf" points="64,-1586 68,-1586 68,-1582 64,-1582 "/>
<text text-anchor="middle" x="128.5" y="-1600.8" font-family="Segoe UI" font-size="14.00" fill="#e2e8f0">MainPage.xaml</text>
<text text-anchor="middle" x="128.5" y="-1585.8" font-family="Segoe UI" font-size="14.00" fill="#e2e8f0">Workspace shell</text>
</g>
<!-- navigation -->
<g id="node3" class="node">
<title>navigation</title>
<polygon fill="#7c3aed" stroke="#c4b5fd" points="199.5,-967 57.5,-967 57.5,-963 53.5,-963 53.5,-959 57.5,-959 57.5,-937 53.5,-937 53.5,-933 57.5,-933 57.5,-929 199.5,-929 199.5,-967"/>
<polyline fill="none" stroke="#c4b5fd" points="57.5,-963 61.5,-963 61.5,-959 57.5,-959 "/>
<polyline fill="none" stroke="#c4b5fd" points="57.5,-937 61.5,-937 61.5,-933 57.5,-933 "/>
<text text-anchor="middle" x="128.5" y="-951.8" font-family="Segoe UI" font-size="14.00" fill="#e2e8f0">NavigationService</text>
<text text-anchor="middle" x="128.5" y="-936.8" font-family="Segoe UI" font-size="14.00" fill="#e2e8f0">RegisterAllPages()</text>
</g>
<!-- shell&#45;&gt;navigation -->
<g id="edge1" class="edge">
<title>shell&#45;&gt;navigation</title>
<path fill="none" stroke="#38bdf8" stroke-width="1.3" d="M128.5,-1577.93C128.5,-1485.48 128.5,-1084 128.5,-975.25"/>
<polygon fill="#38bdf8" stroke="#38bdf8" stroke-width="1.3" points="131.3,-975.07 128.5,-967.07 125.7,-975.07 131.3,-975.07"/>
<text text-anchor="middle" x="118" y="-1268.8" font-family="Segoe UI" font-size="14.00">navigate via tags</text>
</g>
<!-- workspace_1 -->
<g id="node4" class="node">
<title>workspace_1</title>
<polygon fill="#1d4ed8" stroke="#93c5fd" points="561,-2508 558,-2512 537,-2512 534,-2508 437,-2508 437,-2470 561,-2470 561,-2508"/>
<text text-anchor="middle" x="499" y="-2492.8" font-family="Segoe UI" font-size="14.00" fill="#e2e8f0">Shell</text>
<text text-anchor="middle" x="499" y="-2477.8" font-family="Segoe UI" font-size="14.00" fill="#e2e8f0">21 shell entries</text>
</g>
<!-- shell&#45;&gt;workspace_1 -->
<g id="edge2" class="edge">
<title>shell&#45;&gt;workspace_1</title>
<path fill="none" stroke="#22d3ee" stroke-width="1.3" d="M137.37,-1616.04C184.72,-1730.66 431.6,-2328.28 486.97,-2462.31"/>
<polygon fill="#22d3ee" stroke="#22d3ee" stroke-width="1.3" points="484.41,-2463.43 490.05,-2469.76 489.58,-2461.29 484.41,-2463.43"/>
</g>
<!-- hidden_DataSources -->
<g id="node26" class="node">
<title>hidden_DataSources</title>
<path fill="#431407" stroke="#fb923c" d="M555.5,-1818C555.5,-1818 442.5,-1818 442.5,-1818 436.5,-1818 430.5,-1812 430.5,-1806 430.5,-1806 430.5,-1792 430.5,-1792 430.5,-1786 436.5,-1780 442.5,-1780 442.5,-1780 555.5,-1780 555.5,-1780 561.5,-1780 567.5,-1786 567.5,-1792 567.5,-1792 567.5,-1806 567.5,-1806 567.5,-1812 561.5,-1818 555.5,-1818"/>
<text text-anchor="middle" x="499" y="-1802.8" font-family="Segoe UI" font-size="14.00" fill="#e2e8f0">DataSources</text>
<text text-anchor="middle" x="499" y="-1787.8" font-family="Segoe UI" font-size="14.00" fill="#e2e8f0">DataSourcesPage</text>
</g>
<!-- navigation&#45;&gt;hidden_DataSources -->
<g id="edge24" class="edge">
<title>navigation&#45;&gt;hidden_DataSources</title>
<path fill="none" stroke="#fb923c" stroke-width="1.3" stroke-dasharray="5,2" d="M133.34,-967.14C157.67,-1087.86 290.25,-1739.82 322,-1768 348.96,-1791.93 387.7,-1800.52 421.98,-1802.77"/>
<polygon fill="#fb923c" stroke="#fb923c" stroke-width="1.3" points="421.99,-1805.58 430.13,-1803.2 422.28,-1799.98 421.99,-1805.58"/>
</g>
<!-- hidden_DataBrowser -->
<g id="node27" class="node">
<title>hidden_DataBrowser</title>
<path fill="#431407" stroke="#fb923c" d="M556,-1755C556,-1755 442,-1755 442,-1755 436,-1755 430,-1749 430,-1743 430,-1743 430,-1729 430,-1729 430,-1723 436,-1717 442,-1717 442,-1717 556,-1717 556,-1717 562,-1717 568,-1723 568,-1729 568,-1729 568,-1743 568,-1743 568,-1749 562,-1755 556,-1755"/>
<text text-anchor="middle" x="499" y="-1739.8" font-family="Segoe UI" font-size="14.00" fill="#e2e8f0">DataBrowser</text>
<text text-anchor="middle" x="499" y="-1724.8" font-family="Segoe UI" font-size="14.00" fill="#e2e8f0">DataBrowserPage</text>
</g>
<!-- navigation&#45;&gt;hidden_DataBrowser -->
<g id="edge25" class="edge">
<title>navigation&#45;&gt;hidden_DataBrowser</title>
<path fill="none" stroke="#fb923c" stroke-width="1.3" stroke-dasharray="5,2" d="M132.99,-967.18C153.74,-1080.09 261.9,-1654.93 322,-1705 349.48,-1727.89 387.89,-1736.45 421.82,-1738.95"/>
<polygon fill="#fb923c" stroke="#fb923c" stroke-width="1.3" points="421.73,-1741.75 429.88,-1739.44 422.07,-1736.16 421.73,-1741.75"/>
</g>
<!-- hidden_SymbolMapping -->
<g id="node28" class="node">
<title>hidden_SymbolMapping</title>
<path fill="#431407" stroke="#fb923c" d="M567.5,-1692C567.5,-1692 430.5,-1692 430.5,-1692 424.5,-1692 418.5,-1686 418.5,-1680 418.5,-1680 418.5,-1666 418.5,-1666 418.5,-1660 424.5,-1654 430.5,-1654 430.5,-1654 567.5,-1654 567.5,-1654 573.5,-1654 579.5,-1660 579.5,-1666 579.5,-1666 579.5,-1680 579.5,-1680 579.5,-1686 573.5,-1692 567.5,-1692"/>
<text text-anchor="middle" x="499" y="-1676.8" font-family="Segoe UI" font-size="14.00" fill="#e2e8f0">SymbolMapping</text>
<text text-anchor="middle" x="499" y="-1661.8" font-family="Segoe UI" font-size="14.00" fill="#e2e8f0">SymbolMappingPage</text>
</g>
<!-- navigation&#45;&gt;hidden_SymbolMapping -->
<g id="edge26" class="edge">
<title>navigation&#45;&gt;hidden_SymbolMapping</title>
<path fill="none" stroke="#fb923c" stroke-width="1.3" stroke-dasharray="5,2" d="M131.88,-967.15C145.01,-1069.5 212.05,-1550.8 322,-1642 346.33,-1662.18 379.18,-1671.21 409.9,-1674.77"/>
<polygon fill="#fb923c" stroke="#fb923c" stroke-width="1.3" points="409.84,-1677.57 418.08,-1675.59 410.4,-1672 409.84,-1677.57"/>
</g>
<!-- hidden_SymbolStorage -->
<g id="node29" class="node">
<title>hidden_SymbolStorage</title>
<path fill="#431407" stroke="#fb923c" d="M564.5,-1629C564.5,-1629 433.5,-1629 433.5,-1629 427.5,-1629 421.5,-1623 421.5,-1617 421.5,-1617 421.5,-1603 421.5,-1603 421.5,-1597 427.5,-1591 433.5,-1591 433.5,-1591 564.5,-1591 564.5,-1591 570.5,-1591 576.5,-1597 576.5,-1603 576.5,-1603 576.5,-1617 576.5,-1617 576.5,-1623 570.5,-1629 564.5,-1629"/>
<text text-anchor="middle" x="499" y="-1613.8" font-family="Segoe UI" font-size="14.00" fill="#e2e8f0">SymbolStorage</text>
<text text-anchor="middle" x="499" y="-1598.8" font-family="Segoe UI" font-size="14.00" fill="#e2e8f0">SymbolStoragePage</text>
</g>
<!-- navigation&#45;&gt;hidden_SymbolStorage -->
<g id="edge27" class="edge">
<title>navigation&#45;&gt;hidden_SymbolStorage</title>
<path fill="none" stroke="#fb923c" stroke-width="1.3" stroke-dasharray="5,2" d="M132.4,-967.01C147.51,-1063.48 220.5,-1497.56 322,-1579 347.32,-1599.32 381.35,-1608.21 412.74,-1611.61"/>
<polygon fill="#fb923c" stroke="#fb923c" stroke-width="1.3" points="412.86,-1614.44 421.08,-1612.4 413.38,-1608.86 412.86,-1614.44"/>
</g>
<!-- hidden_IndexSubscription -->
<g id="node30" class="node">
<title>hidden_IndexSubscription</title>
<path fill="#431407" stroke="#fb923c" d="M575,-1566C575,-1566 423,-1566 423,-1566 417,-1566 411,-1560 411,-1554 411,-1554 411,-1540 411,-1540 411,-1534 417,-1528 423,-1528 423,-1528 575,-1528 575,-1528 581,-1528 587,-1534 587,-1540 587,-1540 587,-1554 587,-1554 587,-1560 581,-1566 575,-1566"/>
<text text-anchor="middle" x="499" y="-1550.8" font-family="Segoe UI" font-size="14.00" fill="#e2e8f0">IndexSubscription</text>
<text text-anchor="middle" x="499" y="-1535.8" font-family="Segoe UI" font-size="14.00" fill="#e2e8f0">IndexSubscriptionPage</text>
</g>
<!-- navigation&#45;&gt;hidden_IndexSubscription -->
<g id="edge28" class="edge">
<title>navigation&#45;&gt;hidden_IndexSubscription</title>
<path fill="none" stroke="#fb923c" stroke-width="1.3" stroke-dasharray="5,2" d="M129.24,-967.19C129.29,-1048.98 141.31,-1371.02 322,-1516 344.67,-1534.19 374.32,-1543.22 402.81,-1547.36"/>
<polygon fill="#fb923c" stroke="#fb923c" stroke-width="1.3" points="402.51,-1550.14 410.8,-1548.4 403.23,-1544.59 402.51,-1550.14"/>
</g>
<!-- hidden_Options -->
<g id="node31" class="node">
<title>hidden_Options</title>
<path fill="#431407" stroke="#fb923c" d="M539,-1503C539,-1503 459,-1503 459,-1503 453,-1503 447,-1497 447,-1491 447,-1491 447,-1477 447,-1477 447,-1471 453,-1465 459,-1465 459,-1465 539,-1465 539,-1465 545,-1465 551,-1471 551,-1477 551,-1477 551,-1491 551,-1491 551,-1497 545,-1503 539,-1503"/>
<text text-anchor="middle" x="499" y="-1487.8" font-family="Segoe UI" font-size="14.00" fill="#e2e8f0">Options</text>
<text text-anchor="middle" x="499" y="-1472.8" font-family="Segoe UI" font-size="14.00" fill="#e2e8f0">OptionsPage</text>
</g>
<!-- navigation&#45;&gt;hidden_Options -->
<g id="edge29" class="edge">
<title>navigation&#45;&gt;hidden_Options</title>
<path fill="none" stroke="#fb923c" stroke-width="1.3" stroke-dasharray="5,2" d="M130.28,-967.23C134.49,-1043.08 160.82,-1323.67 322,-1453 354.51,-1479.08 401.37,-1486.33 438.56,-1487.32"/>
<polygon fill="#fb923c" stroke="#fb923c" stroke-width="1.3" points="438.78,-1490.13 446.82,-1487.45 438.86,-1484.53 438.78,-1490.13"/>
</g>
<!-- hidden_Schedules -->
<g id="node32" class="node">
<title>hidden_Schedules</title>
<path fill="#431407" stroke="#fb923c" d="M574,-1440C574,-1440 424,-1440 424,-1440 418,-1440 412,-1434 412,-1428 412,-1428 412,-1414 412,-1414 412,-1408 418,-1402 424,-1402 424,-1402 574,-1402 574,-1402 580,-1402 586,-1408 586,-1414 586,-1414 586,-1428 586,-1428 586,-1434 580,-1440 574,-1440"/>
<text text-anchor="middle" x="499" y="-1424.8" font-family="Segoe UI" font-size="14.00" fill="#e2e8f0">Schedules</text>
<text text-anchor="middle" x="499" y="-1409.8" font-family="Segoe UI" font-size="14.00" fill="#e2e8f0">ScheduleManagerPage</text>
</g>
<!-- navigation&#45;&gt;hidden_Schedules -->
<g id="edge30" class="edge">
<title>navigation&#45;&gt;hidden_Schedules</title>
<path fill="none" stroke="#fb923c" stroke-width="1.3" stroke-dasharray="5,2" d="M131.55,-967.34C140.03,-1037.07 178.99,-1277.35 322,-1390 345.06,-1408.16 375.11,-1417.14 403.84,-1421.23"/>
<polygon fill="#fb923c" stroke="#fb923c" stroke-width="1.3" points="403.61,-1424.02 411.9,-1422.26 404.32,-1418.47 403.61,-1424.02"/>
</g>
<!-- hidden_CollectionSessions -->
<g id="node33" class="node">
<title>hidden_CollectionSessions</title>
<path fill="#431407" stroke="#fb923c" d="M572,-1377C572,-1377 426,-1377 426,-1377 420,-1377 414,-1371 414,-1365 414,-1365 414,-1351 414,-1351 414,-1345 420,-1339 426,-1339 426,-1339 572,-1339 572,-1339 578,-1339 584,-1345 584,-1351 584,-1351 584,-1365 584,-1365 584,-1371 578,-1377 572,-1377"/>
<text text-anchor="middle" x="499" y="-1361.8" font-family="Segoe UI" font-size="14.00" fill="#e2e8f0">CollectionSessions</text>
<text text-anchor="middle" x="499" y="-1346.8" font-family="Segoe UI" font-size="14.00" fill="#e2e8f0">CollectionSessionPage</text>
</g>
<!-- navigation&#45;&gt;hidden_CollectionSessions -->
<g id="edge31" class="edge">
<title>navigation&#45;&gt;hidden_CollectionSessions</title>
<path fill="none" stroke="#fb923c" stroke-width="1.3" stroke-dasharray="5,2" d="M133.01,-967.22C145.61,-1030.37 194.8,-1232.77 322,-1327 345.93,-1344.73 376.65,-1353.52 405.71,-1357.58"/>
<polygon fill="#fb923c" stroke="#fb923c" stroke-width="1.3" points="405.57,-1360.39 413.86,-1358.61 406.27,-1354.83 405.57,-1360.39"/>
</g>
<!-- hidden_ArchiveHealth -->
<g id="node34" class="node">
<title>hidden_ArchiveHealth</title>
<path fill="#431407" stroke="#fb923c" d="M560,-1314C560,-1314 438,-1314 438,-1314 432,-1314 426,-1308 426,-1302 426,-1302 426,-1288 426,-1288 426,-1282 432,-1276 438,-1276 438,-1276 560,-1276 560,-1276 566,-1276 572,-1282 572,-1288 572,-1288 572,-1302 572,-1302 572,-1308 566,-1314 560,-1314"/>
<text text-anchor="middle" x="499" y="-1298.8" font-family="Segoe UI" font-size="14.00" fill="#e2e8f0">ArchiveHealth</text>
<text text-anchor="middle" x="499" y="-1283.8" font-family="Segoe UI" font-size="14.00" fill="#e2e8f0">ArchiveHealthPage</text>
</g>
<!-- navigation&#45;&gt;hidden_ArchiveHealth -->
<g id="edge32" class="edge">
<title>navigation&#45;&gt;hidden_ArchiveHealth</title>
<path fill="none" stroke="#fb923c" stroke-width="1.3" stroke-dasharray="5,2" d="M135,-967.17C152.15,-1023.24 210.32,-1187.76 322,-1264 349.76,-1282.95 385.53,-1291.41 417.58,-1294.87"/>
<polygon fill="#fb923c" stroke="#fb923c" stroke-width="1.3" points="417.4,-1297.67 425.63,-1295.65 417.94,-1292.09 417.4,-1297.67"/>
</g>
<!-- hidden_ServiceManager -->
<g id="node35" class="node">
<title>hidden_ServiceManager</title>
<path fill="#431407" stroke="#fb923c" d="M567.5,-1251C567.5,-1251 430.5,-1251 430.5,-1251 424.5,-1251 418.5,-1245 418.5,-1239 418.5,-1239 418.5,-1225 418.5,-1225 418.5,-1219 424.5,-1213 430.5,-1213 430.5,-1213 567.5,-1213 567.5,-1213 573.5,-1213 579.5,-1219 579.5,-1225 579.5,-1225 579.5,-1239 579.5,-1239 579.5,-1245 573.5,-1251 567.5,-1251"/>
<text text-anchor="middle" x="499" y="-1235.8" font-family="Segoe UI" font-size="14.00" fill="#e2e8f0">ServiceManager</text>
<text text-anchor="middle" x="499" y="-1220.8" font-family="Segoe UI" font-size="14.00" fill="#e2e8f0">ServiceManagerPage</text>
</g>
<!-- navigation&#45;&gt;hidden_ServiceManager -->
<g id="edge33" class="edge">
<title>navigation&#45;&gt;hidden_ServiceManager</title>
<path fill="none" stroke="#fb923c" stroke-width="1.3" stroke-dasharray="5,2" d="M137.87,-967.11C160.06,-1015.3 225.39,-1142.12 322,-1201 348.15,-1216.94 380.31,-1225.2 409.95,-1229.32"/>
<polygon fill="#fb923c" stroke="#fb923c" stroke-width="1.3" points="409.94,-1232.15 418.23,-1230.38 410.65,-1226.59 409.94,-1232.15"/>
</g>
<!-- hidden_DataSampling -->
<g id="node36" class="node">
<title>hidden_DataSampling</title>
<path fill="#431407" stroke="#fb923c" d="M560.5,-1188C560.5,-1188 437.5,-1188 437.5,-1188 431.5,-1188 425.5,-1182 425.5,-1176 425.5,-1176 425.5,-1162 425.5,-1162 425.5,-1156 431.5,-1150 437.5,-1150 437.5,-1150 560.5,-1150 560.5,-1150 566.5,-1150 572.5,-1156 572.5,-1162 572.5,-1162 572.5,-1176 572.5,-1176 572.5,-1182 566.5,-1188 560.5,-1188"/>
<text text-anchor="middle" x="499" y="-1172.8" font-family="Segoe UI" font-size="14.00" fill="#e2e8f0">DataSampling</text>
<text text-anchor="middle" x="499" y="-1157.8" font-family="Segoe UI" font-size="14.00" fill="#e2e8f0">DataSamplingPage</text>
</g>
<!-- navigation&#45;&gt;hidden_DataSampling -->
<g id="edge34" class="edge">
<title>navigation&#45;&gt;hidden_DataSampling</title>
<path fill="none" stroke="#fb923c" stroke-width="1.3" stroke-dasharray="5,2" d="M142.58,-967.16C170.47,-1006.38 240.01,-1095.67 322,-1138 351.1,-1153.03 386.13,-1160.93 417.25,-1165.03"/>
<polygon fill="#fb923c" stroke="#fb923c" stroke-width="1.3" points="417.21,-1167.85 425.49,-1166.04 417.89,-1162.29 417.21,-1167.85"/>
</g>
<!-- hidden_TimeSeriesAlignment -->
<g id="node37" class="node">
<title>hidden_TimeSeriesAlignment</title>
<path fill="#431407" stroke="#fb923c" d="M585.5,-1125C585.5,-1125 412.5,-1125 412.5,-1125 406.5,-1125 400.5,-1119 400.5,-1113 400.5,-1113 400.5,-1099 400.5,-1099 400.5,-1093 406.5,-1087 412.5,-1087 412.5,-1087 585.5,-1087 585.5,-1087 591.5,-1087 597.5,-1093 597.5,-1099 597.5,-1099 597.5,-1113 597.5,-1113 597.5,-1119 591.5,-1125 585.5,-1125"/>
<text text-anchor="middle" x="499" y="-1109.8" font-family="Segoe UI" font-size="14.00" fill="#e2e8f0">TimeSeriesAlignment</text>
<text text-anchor="middle" x="499" y="-1094.8" font-family="Segoe UI" font-size="14.00" fill="#e2e8f0">TimeSeriesAlignmentPage</text>
</g>
<!-- navigation&#45;&gt;hidden_TimeSeriesAlignment -->
<g id="edge35" class="edge">
<title>navigation&#45;&gt;hidden_TimeSeriesAlignment</title>
<path fill="none" stroke="#fb923c" stroke-width="1.3" stroke-dasharray="5,2" d="M151.77,-967.18C185.94,-995.52 254.48,-1048.13 322,-1075 344.01,-1083.76 368.56,-1090.05 392.16,-1094.57"/>
<polygon fill="#fb923c" stroke="#fb923c" stroke-width="1.3" points="391.75,-1097.34 400.12,-1096.04 392.76,-1091.84 391.75,-1097.34"/>
</g>
<!-- hidden_ExportPresets -->
<g id="node38" class="node">
<title>hidden_ExportPresets</title>
<path fill="#431407" stroke="#fb923c" d="M560,-1062C560,-1062 438,-1062 438,-1062 432,-1062 426,-1056 426,-1050 426,-1050 426,-1036 426,-1036 426,-1030 432,-1024 438,-1024 438,-1024 560,-1024 560,-1024 566,-1024 572,-1030 572,-1036 572,-1036 572,-1050 572,-1050 572,-1056 566,-1062 560,-1062"/>
<text text-anchor="middle" x="499" y="-1046.8" font-family="Segoe UI" font-size="14.00" fill="#e2e8f0">ExportPresets</text>
<text text-anchor="middle" x="499" y="-1031.8" font-family="Segoe UI" font-size="14.00" fill="#e2e8f0">ExportPresetsPage</text>
</g>
<!-- navigation&#45;&gt;hidden_ExportPresets -->
<g id="edge36" class="edge">
<title>navigation&#45;&gt;hidden_ExportPresets</title>
<path fill="none" stroke="#fb923c" stroke-width="1.3" stroke-dasharray="5,2" d="M179.97,-967.04C218.45,-981 273,-999.61 322,-1012 353.06,-1019.85 387.71,-1026.42 417.98,-1031.45"/>
<polygon fill="#fb923c" stroke="#fb923c" stroke-width="1.3" points="417.64,-1034.23 425.99,-1032.76 418.55,-1028.71 417.64,-1034.23"/>
</g>
<!-- hidden_AnalysisExport -->
<g id="node39" class="node">
<title>hidden_AnalysisExport</title>
<path fill="#431407" stroke="#fb923c" d="M563.5,-999C563.5,-999 434.5,-999 434.5,-999 428.5,-999 422.5,-993 422.5,-987 422.5,-987 422.5,-973 422.5,-973 422.5,-967 428.5,-961 434.5,-961 434.5,-961 563.5,-961 563.5,-961 569.5,-961 575.5,-967 575.5,-973 575.5,-973 575.5,-987 575.5,-987 575.5,-993 569.5,-999 563.5,-999"/>
<text text-anchor="middle" x="499" y="-983.8" font-family="Segoe UI" font-size="14.00" fill="#e2e8f0">AnalysisExport</text>
<text text-anchor="middle" x="499" y="-968.8" font-family="Segoe UI" font-size="14.00" fill="#e2e8f0">AnalysisExportPage</text>
</g>
<!-- navigation&#45;&gt;hidden_AnalysisExport -->
<g id="edge37" class="edge">
<title>navigation&#45;&gt;hidden_AnalysisExport</title>
<path fill="none" stroke="#fb923c" stroke-width="1.3" stroke-dasharray="5,2" d="M199.68,-954.09C260.76,-959.4 349.41,-967.1 414.2,-972.72"/>
<polygon fill="#fb923c" stroke="#fb923c" stroke-width="1.3" points="414.16,-975.53 422.37,-973.43 414.65,-969.95 414.16,-975.53"/>
</g>
<!-- hidden_AnalysisExportWizard -->
<g id="node40" class="node">
<title>hidden_AnalysisExportWizard</title>
<path fill="#431407" stroke="#fb923c" d="M587,-936C587,-936 411,-936 411,-936 405,-936 399,-930 399,-924 399,-924 399,-910 399,-910 399,-904 405,-898 411,-898 411,-898 587,-898 587,-898 593,-898 599,-904 599,-910 599,-910 599,-924 599,-924 599,-930 593,-936 587,-936"/>
<text text-anchor="middle" x="499" y="-920.8" font-family="Segoe UI" font-size="14.00" fill="#e2e8f0">AnalysisExportWizard</text>
<text text-anchor="middle" x="499" y="-905.8" font-family="Segoe UI" font-size="14.00" fill="#e2e8f0">AnalysisExportWizardPage</text>
</g>
<!-- navigation&#45;&gt;hidden_AnalysisExportWizard -->
<g id="edge38" class="edge">
<title>navigation&#45;&gt;hidden_AnalysisExportWizard</title>
<path fill="none" stroke="#fb923c" stroke-width="1.3" stroke-dasharray="5,2" d="M199.68,-942.1C253.64,-937.56 329.12,-931.21 390.65,-926.03"/>
<polygon fill="#fb923c" stroke="#fb923c" stroke-width="1.3" points="391.11,-928.8 398.85,-925.34 390.64,-923.22 391.11,-928.8"/>
</g>
<!-- hidden_EventReplay -->
<g id="node41" class="node">
<title>hidden_EventReplay</title>
<path fill="#431407" stroke="#fb923c" d="M555,-873C555,-873 443,-873 443,-873 437,-873 431,-867 431,-861 431,-861 431,-847 431,-847 431,-841 437,-835 443,-835 443,-835 555,-835 555,-835 561,-835 567,-841 567,-847 567,-847 567,-861 567,-861 567,-867 561,-873 555,-873"/>
<text text-anchor="middle" x="499" y="-857.8" font-family="Segoe UI" font-size="14.00" fill="#e2e8f0">EventReplay</text>
<text text-anchor="middle" x="499" y="-842.8" font-family="Segoe UI" font-size="14.00" fill="#e2e8f0">EventReplayPage</text>
</g>
<!-- navigation&#45;&gt;hidden_EventReplay -->
<g id="edge39" class="edge">
<title>navigation&#45;&gt;hidden_EventReplay</title>
<path fill="none" stroke="#fb923c" stroke-width="1.3" stroke-dasharray="5,2" d="M199.68,-932.88C218.5,-928.15 238.71,-922.45 257,-916 287,-905.41 291.66,-895.59 322,-886 354.21,-875.82 390.83,-868.51 422.29,-863.48"/>
<polygon fill="#fb923c" stroke="#fb923c" stroke-width="1.3" points="423.12,-866.18 430.59,-862.18 422.25,-860.65 423.12,-866.18"/>
</g>
<!-- hidden_AdvancedAnalytics -->
<g id="node42" class="node">
<title>hidden_AdvancedAnalytics</title>
<path fill="#431407" stroke="#fb923c" d="M577.5,-810C577.5,-810 420.5,-810 420.5,-810 414.5,-810 408.5,-804 408.5,-798 408.5,-798 408.5,-784 408.5,-784 408.5,-778 414.5,-772 420.5,-772 420.5,-772 577.5,-772 577.5,-772 583.5,-772 589.5,-778 589.5,-784 589.5,-784 589.5,-798 589.5,-798 589.5,-804 583.5,-810 577.5,-810"/>
<text text-anchor="middle" x="499" y="-794.8" font-family="Segoe UI" font-size="14.00" fill="#e2e8f0">AdvancedAnalytics</text>
<text text-anchor="middle" x="499" y="-779.8" font-family="Segoe UI" font-size="14.00" fill="#e2e8f0">AdvancedAnalyticsPage</text>
</g>
<!-- navigation&#45;&gt;hidden_AdvancedAnalytics -->
<g id="edge40" class="edge">
<title>navigation&#45;&gt;hidden_AdvancedAnalytics</title>
<path fill="none" stroke="#fb923c" stroke-width="1.3" stroke-dasharray="5,2" d="M199.8,-939.71C219.54,-934.99 240.18,-927.59 257,-916 298.52,-887.39 279.55,-850.23 322,-823 345.2,-808.12 373.46,-799.71 400.49,-795.08"/>
<polygon fill="#fb923c" stroke="#fb923c" stroke-width="1.3" points="400.99,-797.83 408.45,-793.81 400.11,-792.3 400.99,-797.83"/>
</g>
<!-- hidden_DataCalendar -->
<g id="node43" class="node">
<title>hidden_DataCalendar</title>
<path fill="#431407" stroke="#fb923c" d="M559,-747C559,-747 439,-747 439,-747 433,-747 427,-741 427,-735 427,-735 427,-721 427,-721 427,-715 433,-709 439,-709 439,-709 559,-709 559,-709 565,-709 571,-715 571,-721 571,-721 571,-735 571,-735 571,-741 565,-747 559,-747"/>
<text text-anchor="middle" x="499" y="-731.8" font-family="Segoe UI" font-size="14.00" fill="#e2e8f0">DataCalendar</text>
<text text-anchor="middle" x="499" y="-716.8" font-family="Segoe UI" font-size="14.00" fill="#e2e8f0">DataCalendarPage</text>
</g>
<!-- navigation&#45;&gt;hidden_DataCalendar -->
<g id="edge41" class="edge">
<title>navigation&#45;&gt;hidden_DataCalendar</title>
<path fill="none" stroke="#fb923c" stroke-width="1.3" stroke-dasharray="5,2" d="M199.52,-942.37C219.92,-937.77 241,-929.78 257,-916 313.91,-866.99 263.5,-807.11 322,-760 348.87,-738.36 385.56,-729.48 418.49,-726.35"/>
<polygon fill="#fb923c" stroke="#fb923c" stroke-width="1.3" points="419.03,-729.12 426.77,-725.68 418.57,-723.54 419.03,-729.12"/>
</g>
<!-- hidden_StorageOptimization -->
<g id="node44" class="node">
<title>hidden_StorageOptimization</title>
<path fill="#431407" stroke="#fb923c" d="M583,-684C583,-684 415,-684 415,-684 409,-684 403,-678 403,-672 403,-672 403,-658 403,-658 403,-652 409,-646 415,-646 415,-646 583,-646 583,-646 589,-646 595,-652 595,-658 595,-658 595,-672 595,-672 595,-678 589,-684 583,-684"/>
<text text-anchor="middle" x="499" y="-668.8" font-family="Segoe UI" font-size="14.00" fill="#e2e8f0">StorageOptimization</text>
<text text-anchor="middle" x="499" y="-653.8" font-family="Segoe UI" font-size="14.00" fill="#e2e8f0">StorageOptimizationPage</text>
</g>
<!-- navigation&#45;&gt;hidden_StorageOptimization -->
<g id="edge42" class="edge">
<title>navigation&#45;&gt;hidden_StorageOptimization</title>
<path fill="none" stroke="#fb923c" stroke-width="1.3" stroke-dasharray="5,2" d="M199.78,-943.53C220.43,-939.01 241.59,-930.76 257,-916 330.31,-845.75 246.41,-764.79 322,-697 341.91,-679.15 368.33,-669.68 394.63,-664.99"/>
<polygon fill="#fb923c" stroke="#fb923c" stroke-width="1.3" points="395.33,-667.71 402.79,-663.68 394.44,-662.18 395.33,-667.71"/>
</g>
<!-- hidden_RetentionAssurance -->
<g id="node45" class="node">
<title>hidden_RetentionAssurance</title>
<path fill="#431407" stroke="#fb923c" d="M581,-621C581,-621 417,-621 417,-621 411,-621 405,-615 405,-609 405,-609 405,-595 405,-595 405,-589 411,-583 417,-583 417,-583 581,-583 581,-583 587,-583 593,-589 593,-595 593,-595 593,-609 593,-609 593,-615 587,-621 581,-621"/>
<text text-anchor="middle" x="499" y="-605.8" font-family="Segoe UI" font-size="14.00" fill="#e2e8f0">RetentionAssurance</text>
<text text-anchor="middle" x="499" y="-590.8" font-family="Segoe UI" font-size="14.00" fill="#e2e8f0">RetentionAssurancePage</text>
</g>
<!-- navigation&#45;&gt;hidden_RetentionAssurance -->
<g id="edge43" class="edge">
<title>navigation&#45;&gt;hidden_RetentionAssurance</title>
<path fill="none" stroke="#fb923c" stroke-width="1.3" stroke-dasharray="5,2" d="M199.64,-944.6C220.66,-940.18 242.07,-931.72 257,-916 345.57,-822.73 226.4,-720.04 322,-634 342.38,-615.66 369.63,-606.16 396.6,-601.59"/>
<polygon fill="#fb923c" stroke="#fb923c" stroke-width="1.3" points="397.08,-604.35 404.57,-600.38 396.24,-598.81 397.08,-604.35"/>
</g>
<!-- hidden_MessagingHub -->
<g id="node46" class="node">
<title>hidden_MessagingHub</title>
<path fill="#431407" stroke="#fb923c" d="M563,-558C563,-558 435,-558 435,-558 429,-558 423,-552 423,-546 423,-546 423,-532 423,-532 423,-526 429,-520 435,-520 435,-520 563,-520 563,-520 569,-520 575,-526 575,-532 575,-532 575,-546 575,-546 575,-552 569,-558 563,-558"/>
<text text-anchor="middle" x="499" y="-542.8" font-family="Segoe UI" font-size="14.00" fill="#e2e8f0">MessagingHub</text>
<text text-anchor="middle" x="499" y="-527.8" font-family="Segoe UI" font-size="14.00" fill="#e2e8f0">MessagingHubPage</text>
</g>
<!-- navigation&#45;&gt;hidden_MessagingHub -->
<g id="edge44" class="edge">
<title>navigation&#45;&gt;hidden_MessagingHub</title>
<path fill="none" stroke="#fb923c" stroke-width="1.3" stroke-dasharray="5,2" d="M199.8,-945.13C220.96,-940.75 242.41,-932.19 257,-916 309.24,-858.06 263.64,-622.78 322,-571 347.06,-548.77 382.24,-539.59 414.57,-536.41"/>
<polygon fill="#fb923c" stroke="#fb923c" stroke-width="1.3" points="414.99,-539.19 422.72,-535.73 414.52,-533.61 414.99,-539.19"/>
</g>
<!-- hidden_Workspaces -->
<g id="node47" class="node">
<title>hidden_Workspaces</title>
<path fill="#431407" stroke="#fb923c" d="M549.5,-495C549.5,-495 448.5,-495 448.5,-495 442.5,-495 436.5,-489 436.5,-483 436.5,-483 436.5,-469 436.5,-469 436.5,-463 442.5,-457 448.5,-457 448.5,-457 549.5,-457 549.5,-457 555.5,-457 561.5,-463 561.5,-469 561.5,-469 561.5,-483 561.5,-483 561.5,-489 555.5,-495 549.5,-495"/>
<text text-anchor="middle" x="499" y="-479.8" font-family="Segoe UI" font-size="14.00" fill="#e2e8f0">Workspaces</text>
<text text-anchor="middle" x="499" y="-464.8" font-family="Segoe UI" font-size="14.00" fill="#e2e8f0">WorkspacePage</text>
</g>
<!-- navigation&#45;&gt;hidden_Workspaces -->
<g id="edge45" class="edge">
<title>navigation&#45;&gt;hidden_Workspaces</title>
<path fill="none" stroke="#fb923c" stroke-width="1.3" stroke-dasharray="5,2" d="M199.59,-945.31C220.87,-940.96 242.44,-932.37 257,-916 318.02,-847.41 255.86,-571.67 322,-508 349.77,-481.27 391.98,-472.93 428.1,-471.44"/>
<polygon fill="#fb923c" stroke="#fb923c" stroke-width="1.3" points="428.27,-474.24 436.19,-471.22 428.11,-468.64 428.27,-474.24"/>
</g>
<!-- hidden_NotificationCenter -->
<g id="node48" class="node">
<title>hidden_NotificationCenter</title>
<path fill="#431407" stroke="#fb923c" d="M574.5,-432C574.5,-432 423.5,-432 423.5,-432 417.5,-432 411.5,-426 411.5,-420 411.5,-420 411.5,-406 411.5,-406 411.5,-400 417.5,-394 423.5,-394 423.5,-394 574.5,-394 574.5,-394 580.5,-394 586.5,-400 586.5,-406 586.5,-406 586.5,-420 586.5,-420 586.5,-426 580.5,-432 574.5,-432"/>
<text text-anchor="middle" x="499" y="-416.8" font-family="Segoe UI" font-size="14.00" fill="#e2e8f0">NotificationCenter</text>
<text text-anchor="middle" x="499" y="-401.8" font-family="Segoe UI" font-size="14.00" fill="#e2e8f0">NotificationCenterPage</text>
</g>
<!-- navigation&#45;&gt;hidden_NotificationCenter -->
<g id="edge46" class="edge">
<title>navigation&#45;&gt;hidden_NotificationCenter</title>
<path fill="none" stroke="#fb923c" stroke-width="1.3" stroke-dasharray="5,2" d="M199.82,-945.5C221.1,-941.17 242.63,-932.54 257,-916 326.31,-836.25 246,-518.4 322,-445 343.54,-424.19 373.83,-414.52 403.22,-410.55"/>
<polygon fill="#fb923c" stroke="#fb923c" stroke-width="1.3" points="403.86,-413.29 411.47,-409.58 403.2,-407.73 403.86,-413.29"/>
</g>
<!-- hidden_Help -->
<g id="node49" class="node">
<title>hidden_Help</title>
<path fill="#431407" stroke="#fb923c" d="M527.5,-369C527.5,-369 470.5,-369 470.5,-369 464.5,-369 458.5,-363 458.5,-357 458.5,-357 458.5,-343 458.5,-343 458.5,-337 464.5,-331 470.5,-331 470.5,-331 527.5,-331 527.5,-331 533.5,-331 539.5,-337 539.5,-343 539.5,-343 539.5,-357 539.5,-357 539.5,-363 533.5,-369 527.5,-369"/>
<text text-anchor="middle" x="499" y="-353.8" font-family="Segoe UI" font-size="14.00" fill="#e2e8f0">Help</text>
<text text-anchor="middle" x="499" y="-338.8" font-family="Segoe UI" font-size="14.00" fill="#e2e8f0">HelpPage</text>
</g>
<!-- navigation&#45;&gt;hidden_Help -->
<g id="edge47" class="edge">
<title>navigation&#45;&gt;hidden_Help</title>
<path fill="none" stroke="#fb923c" stroke-width="1.3" stroke-dasharray="5,2" d="M199.67,-945.73C221.08,-941.43 242.71,-932.76 257,-916 334.56,-825.03 235.24,-464.24 322,-382 355.88,-349.89 410.65,-344.45 450.1,-345.44"/>
<polygon fill="#fb923c" stroke="#fb923c" stroke-width="1.3" points="450.17,-348.24 458.27,-345.74 450.38,-342.65 450.17,-348.24"/>
</g>
<!-- hidden_Welcome -->
<g id="node50" class="node">
<title>hidden_Welcome</title>
<path fill="#431407" stroke="#fb923c" d="M543,-306C543,-306 455,-306 455,-306 449,-306 443,-300 443,-294 443,-294 443,-280 443,-280 443,-274 449,-268 455,-268 455,-268 543,-268 543,-268 549,-268 555,-274 555,-280 555,-280 555,-294 555,-294 555,-300 549,-306 543,-306"/>
<text text-anchor="middle" x="499" y="-290.8" font-family="Segoe UI" font-size="14.00" fill="#e2e8f0">Welcome</text>
<text text-anchor="middle" x="499" y="-275.8" font-family="Segoe UI" font-size="14.00" fill="#e2e8f0">WelcomePage</text>
</g>
<!-- navigation&#45;&gt;hidden_Welcome -->
<g id="edge48" class="edge">
<title>navigation&#45;&gt;hidden_Welcome</title>
<path fill="none" stroke="#fb923c" stroke-width="1.3" stroke-dasharray="5,2" d="M199.79,-945.83C221.21,-941.54 242.82,-932.85 257,-916 342.94,-813.91 224.52,-410.14 322,-319 351.74,-291.2 397.17,-283.48 434.42,-282.56"/>
<polygon fill="#fb923c" stroke="#fb923c" stroke-width="1.3" points="434.76,-285.36 442.72,-282.47 434.69,-279.76 434.76,-285.36"/>
</g>
<!-- hidden_KeyboardShortcuts -->
<g id="node51" class="node">
<title>hidden_KeyboardShortcuts</title>
<path fill="#431407" stroke="#fb923c" d="M577.5,-243C577.5,-243 420.5,-243 420.5,-243 414.5,-243 408.5,-237 408.5,-231 408.5,-231 408.5,-217 408.5,-217 408.5,-211 414.5,-205 420.5,-205 420.5,-205 577.5,-205 577.5,-205 583.5,-205 589.5,-211 589.5,-217 589.5,-217 589.5,-231 589.5,-231 589.5,-237 583.5,-243 577.5,-243"/>
<text text-anchor="middle" x="499" y="-227.8" font-family="Segoe UI" font-size="14.00" fill="#e2e8f0">KeyboardShortcuts</text>
<text text-anchor="middle" x="499" y="-212.8" font-family="Segoe UI" font-size="14.00" fill="#e2e8f0">KeyboardShortcutsPage</text>
</g>
<!-- navigation&#45;&gt;hidden_KeyboardShortcuts -->
<g id="edge49" class="edge">
<title>navigation&#45;&gt;hidden_KeyboardShortcuts</title>
<path fill="none" stroke="#fb923c" stroke-width="1.3" stroke-dasharray="5,2" d="M199.55,-945.98C221.08,-941.71 242.82,-933 257,-916 351.39,-802.81 213.7,-355.95 322,-256 343.17,-236.46 372.12,-226.88 400.42,-222.61"/>
<polygon fill="#fb923c" stroke="#fb923c" stroke-width="1.3" points="400.82,-225.38 408.37,-221.54 400.07,-219.83 400.82,-225.38"/>
</g>
<!-- hidden_SetupWizard -->
<g id="node52" class="node">
<title>hidden_SetupWizard</title>
<path fill="#431407" stroke="#fb923c" d="M555.5,-180C555.5,-180 442.5,-180 442.5,-180 436.5,-180 430.5,-174 430.5,-168 430.5,-168 430.5,-154 430.5,-154 430.5,-148 436.5,-142 442.5,-142 442.5,-142 555.5,-142 555.5,-142 561.5,-142 567.5,-148 567.5,-154 567.5,-154 567.5,-168 567.5,-168 567.5,-174 561.5,-180 555.5,-180"/>
<text text-anchor="middle" x="499" y="-164.8" font-family="Segoe UI" font-size="14.00" fill="#e2e8f0">SetupWizard</text>
<text text-anchor="middle" x="499" y="-149.8" font-family="Segoe UI" font-size="14.00" fill="#e2e8f0">SetupWizardPage</text>
</g>
<!-- navigation&#45;&gt;hidden_SetupWizard -->
<g id="edge50" class="edge">
<title>navigation&#45;&gt;hidden_SetupWizard</title>
<path fill="none" stroke="#fb923c" stroke-width="1.3" stroke-dasharray="5,2" d="M199.62,-946.04C221.16,-941.78 242.88,-933.05 257,-916 300.93,-862.93 281.68,-364.96 293,-297 300.88,-249.67 286.54,-225.33 322,-193 348.77,-168.59 387.68,-159.78 422.12,-157.42"/>
<polygon fill="#fb923c" stroke="#fb923c" stroke-width="1.3" points="422.47,-160.21 430.31,-156.98 422.17,-154.62 422.47,-160.21"/>
</g>
<!-- hidden_AddProviderWizard -->
<g id="node53" class="node">
<title>hidden_AddProviderWizard</title>
<path fill="#431407" stroke="#fb923c" d="M577.5,-117C577.5,-117 420.5,-117 420.5,-117 414.5,-117 408.5,-111 408.5,-105 408.5,-105 408.5,-91 408.5,-91 408.5,-85 414.5,-79 420.5,-79 420.5,-79 577.5,-79 577.5,-79 583.5,-79 589.5,-85 589.5,-91 589.5,-91 589.5,-105 589.5,-105 589.5,-111 583.5,-117 577.5,-117"/>
<text text-anchor="middle" x="499" y="-101.8" font-family="Segoe UI" font-size="14.00" fill="#e2e8f0">AddProviderWizard</text>
<text text-anchor="middle" x="499" y="-86.8" font-family="Segoe UI" font-size="14.00" fill="#e2e8f0">AddProviderWizardPage</text>
</g>
<!-- navigation&#45;&gt;hidden_AddProviderWizard -->
<g id="edge51" class="edge">
<title>navigation&#45;&gt;hidden_AddProviderWizard</title>
<path fill="none" stroke="#fb923c" stroke-width="1.3" stroke-dasharray="5,2" d="M199.63,-946.04C221.17,-941.79 242.89,-933.06 257,-916 312.84,-848.47 259.88,-191.81 322,-130 342.63,-109.48 371.73,-99.69 400.34,-95.53"/>
<polygon fill="#fb923c" stroke="#fb923c" stroke-width="1.3" points="400.81,-98.29 408.39,-94.5 400.1,-92.74 400.81,-98.29"/>
</g>
<!-- hidden_ActivityLog -->
<g id="node54" class="node">
<title>hidden_ActivityLog</title>
<path fill="#431407" stroke="#fb923c" d="M549.5,-54C549.5,-54 448.5,-54 448.5,-54 442.5,-54 436.5,-48 436.5,-42 436.5,-42 436.5,-28 436.5,-28 436.5,-22 442.5,-16 448.5,-16 448.5,-16 549.5,-16 549.5,-16 555.5,-16 561.5,-22 561.5,-28 561.5,-28 561.5,-42 561.5,-42 561.5,-48 555.5,-54 549.5,-54"/>
<text text-anchor="middle" x="499" y="-38.8" font-family="Segoe UI" font-size="14.00" fill="#e2e8f0">ActivityLog</text>
<text text-anchor="middle" x="499" y="-23.8" font-family="Segoe UI" font-size="14.00" fill="#e2e8f0">ActivityLogPage</text>
</g>
<!-- navigation&#45;&gt;hidden_ActivityLog -->
<g id="edge52" class="edge">
<title>navigation&#45;&gt;hidden_ActivityLog</title>
<path fill="none" stroke="#fb923c" stroke-width="1.3" stroke-dasharray="5,2" d="M199.65,-946.06C221.19,-941.8 242.91,-933.07 257,-916 317.22,-843.03 256.21,-134.99 322,-67 349,-39.09 391.62,-30.81 428.15,-29.64"/>
<polygon fill="#fb923c" stroke="#fb923c" stroke-width="1.3" points="428.38,-32.44 436.33,-29.5 428.28,-26.84 428.38,-32.44"/>
</g>
<!-- page_Dashboard -->
<g id="node5" class="node">
<title>page_Dashboard</title>
<path fill="#1e293b" stroke="#475569" d="M1007.5,-1910C1007.5,-1910 810.5,-1910 810.5,-1910 804.5,-1910 798.5,-1904 798.5,-1898 798.5,-1898 798.5,-1884 798.5,-1884 798.5,-1878 804.5,-1872 810.5,-1872 810.5,-1872 1007.5,-1872 1007.5,-1872 1013.5,-1872 1019.5,-1878 1019.5,-1884 1019.5,-1884 1019.5,-1898 1019.5,-1898 1019.5,-1904 1013.5,-1910 1007.5,-1910"/>
<text text-anchor="middle" x="909" y="-1894.8" font-family="Segoe UI" font-size="14.00" fill="#e2e8f0">Dashboard</text>
<text text-anchor="middle" x="909" y="-1879.8" font-family="Segoe UI" font-size="14.00" fill="#e2e8f0">Dashboard → DashboardPage</text>
</g>
<!-- workspace_1&#45;&gt;page_Dashboard -->
<g id="edge3" class="edge">
<title>workspace_1&#45;&gt;page_Dashboard</title>
<path fill="none" stroke="#94a3b8" stroke-width="1.3" d="M501.83,-2469.85C510.64,-2388.89 556.25,-2072.03 741,-1923 755.37,-1911.4 772.7,-1903.57 790.67,-1898.34"/>
<polygon fill="#94a3b8" stroke="#94a3b8" stroke-width="1.3" points="791.41,-1901.04 798.4,-1896.26 789.95,-1895.63 791.41,-1901.04"/>
</g>
<!-- page_LiveData -->
<g id="node6" class="node">
<title>page_LiveData</title>
<path fill="#1e293b" stroke="#475569" d="M1015.5,-1973C1015.5,-1973 802.5,-1973 802.5,-1973 796.5,-1973 790.5,-1967 790.5,-1961 790.5,-1961 790.5,-1947 790.5,-1947 790.5,-1941 796.5,-1935 802.5,-1935 802.5,-1935 1015.5,-1935 1015.5,-1935 1021.5,-1935 1027.5,-1941 1027.5,-1947 1027.5,-1947 1027.5,-1961 1027.5,-1961 1027.5,-1967 1021.5,-1973 1015.5,-1973"/>
<text text-anchor="middle" x="909" y="-1957.8" font-family="Segoe UI" font-size="14.00" fill="#e2e8f0">Live Data</text>
<text text-anchor="middle" x="909" y="-1942.8" font-family="Segoe UI" font-size="14.00" fill="#e2e8f0">LiveData → LiveDataViewerPage</text>
</g>
<!-- workspace_1&#45;&gt;page_LiveData -->
<g id="edge4" class="edge">
<title>workspace_1&#45;&gt;page_LiveData</title>
<path fill="none" stroke="#94a3b8" stroke-width="1.3" d="M502.9,-2469.93C515.43,-2394.69 572.08,-2116.2 741,-1986 753.25,-1976.56 767.47,-1969.65 782.35,-1964.62"/>
<polygon fill="#94a3b8" stroke="#94a3b8" stroke-width="1.3" points="783.39,-1967.22 790.18,-1962.15 781.71,-1961.88 783.39,-1967.22"/>
</g>
<!-- page_Charts -->
<g id="node7" class="node">
<title>page_Charts</title>
<path fill="#1e293b" stroke="#475569" d="M985,-2036C985,-2036 833,-2036 833,-2036 827,-2036 821,-2030 821,-2024 821,-2024 821,-2010 821,-2010 821,-2004 827,-1998 833,-1998 833,-1998 985,-1998 985,-1998 991,-1998 997,-2004 997,-2010 997,-2010 997,-2024 997,-2024 997,-2030 991,-2036 985,-2036"/>
<text text-anchor="middle" x="909" y="-2020.8" font-family="Segoe UI" font-size="14.00" fill="#e2e8f0">Charts</text>
<text text-anchor="middle" x="909" y="-2005.8" font-family="Segoe UI" font-size="14.00" fill="#e2e8f0">Charts → ChartingPage</text>
</g>
<!-- workspace_1&#45;&gt;page_Charts -->
<g id="edge5" class="edge">
<title>workspace_1&#45;&gt;page_Charts</title>
<path fill="none" stroke="#94a3b8" stroke-width="1.3" d="M504.32,-2469.71C520.98,-2400.15 587.88,-2160.53 741,-2049 761.67,-2033.94 787.47,-2025.41 812.57,-2020.72"/>
<polygon fill="#94a3b8" stroke="#94a3b8" stroke-width="1.3" points="813.27,-2023.44 820.68,-2019.32 812.33,-2017.92 813.27,-2023.44"/>
</g>
<!-- page_OrderBook -->
<g id="node8" class="node">
<title>page_OrderBook</title>
<path fill="#1e293b" stroke="#475569" d="M1006.5,-2099C1006.5,-2099 811.5,-2099 811.5,-2099 805.5,-2099 799.5,-2093 799.5,-2087 799.5,-2087 799.5,-2073 799.5,-2073 799.5,-2067 805.5,-2061 811.5,-2061 811.5,-2061 1006.5,-2061 1006.5,-2061 1012.5,-2061 1018.5,-2067 1018.5,-2073 1018.5,-2073 1018.5,-2087 1018.5,-2087 1018.5,-2093 1012.5,-2099 1006.5,-2099"/>
<text text-anchor="middle" x="909" y="-2083.8" font-family="Segoe UI" font-size="14.00" fill="#e2e8f0">Order Book</text>
<text text-anchor="middle" x="909" y="-2068.8" font-family="Segoe UI" font-size="14.00" fill="#e2e8f0">OrderBook → OrderBookPage</text>
</g>
<!-- workspace_1&#45;&gt;page_OrderBook -->
<g id="edge6" class="edge">
<title>workspace_1&#45;&gt;page_OrderBook</title>
<path fill="none" stroke="#94a3b8" stroke-width="1.3" d="M506.07,-2469.86C527.08,-2406.99 603.07,-2205.49 741,-2112 755.94,-2101.87 773.27,-2094.76 790.99,-2089.8"/>
<polygon fill="#94a3b8" stroke="#94a3b8" stroke-width="1.3" points="792.12,-2092.39 799.16,-2087.66 790.71,-2086.98 792.12,-2092.39"/>
</g>
<!-- page_Watchlist -->
<g id="node9" class="node">
<title>page_Watchlist</title>
<path fill="#1e293b" stroke="#475569" d="M995.5,-2162C995.5,-2162 822.5,-2162 822.5,-2162 816.5,-2162 810.5,-2156 810.5,-2150 810.5,-2150 810.5,-2136 810.5,-2136 810.5,-2130 816.5,-2124 822.5,-2124 822.5,-2124 995.5,-2124 995.5,-2124 1001.5,-2124 1007.5,-2130 1007.5,-2136 1007.5,-2136 1007.5,-2150 1007.5,-2150 1007.5,-2156 1001.5,-2162 995.5,-2162"/>
<text text-anchor="middle" x="909" y="-2146.8" font-family="Segoe UI" font-size="14.00" fill="#e2e8f0">Watchlist</text>
<text text-anchor="middle" x="909" y="-2131.8" font-family="Segoe UI" font-size="14.00" fill="#e2e8f0">Watchlist → WatchlistPage</text>
</g>
<!-- workspace_1&#45;&gt;page_Watchlist -->
<g id="edge7" class="edge">
<title>workspace_1&#45;&gt;page_Watchlist</title>
<path fill="none" stroke="#94a3b8" stroke-width="1.3" d="M508.47,-2469.97C534.29,-2414.3 617.89,-2250.95 741,-2175 759.46,-2163.61 781.08,-2156.12 802.53,-2151.24"/>
<polygon fill="#94a3b8" stroke="#94a3b8" stroke-width="1.3" points="803.18,-2153.96 810.41,-2149.55 802.01,-2148.49 803.18,-2153.96"/>
</g>
<!-- page_Backtest -->
<g id="node10" class="node">
<title>page_Backtest</title>
<path fill="#1e293b" stroke="#475569" d="M992.5,-2225C992.5,-2225 825.5,-2225 825.5,-2225 819.5,-2225 813.5,-2219 813.5,-2213 813.5,-2213 813.5,-2199 813.5,-2199 813.5,-2193 819.5,-2187 825.5,-2187 825.5,-2187 992.5,-2187 992.5,-2187 998.5,-2187 1004.5,-2193 1004.5,-2199 1004.5,-2199 1004.5,-2213 1004.5,-2213 1004.5,-2219 998.5,-2225 992.5,-2225"/>
<text text-anchor="middle" x="909" y="-2209.8" font-family="Segoe UI" font-size="14.00" fill="#e2e8f0">Backtest</text>
<text text-anchor="middle" x="909" y="-2194.8" font-family="Segoe UI" font-size="14.00" fill="#e2e8f0">Backtest → BacktestPage</text>
</g>
<!-- workspace_1&#45;&gt;page_Backtest -->
<g id="edge8" class="edge">
<title>workspace_1&#45;&gt;page_Backtest</title>
<path fill="none" stroke="#94a3b8" stroke-width="1.3" d="M520.14,-2469.91C557.63,-2434.1 640.18,-2353.97 705,-2282 721.91,-2263.22 719.29,-2250.93 741,-2238 760.4,-2226.45 783.11,-2218.94 805.43,-2214.09"/>
<polygon fill="#94a3b8" stroke="#94a3b8" stroke-width="1.3" points="806.02,-2216.83 813.3,-2212.49 804.9,-2211.34 806.02,-2216.83"/>
</g>
<!-- page_LeanIntegration -->
<g id="node11" class="node">
<title>page_LeanIntegration</title>
<path fill="#1e293b" stroke="#475569" d="M1042,-2288C1042,-2288 776,-2288 776,-2288 770,-2288 764,-2282 764,-2276 764,-2276 764,-2262 764,-2262 764,-2256 770,-2250 776,-2250 776,-2250 1042,-2250 1042,-2250 1048,-2250 1054,-2256 1054,-2262 1054,-2262 1054,-2276 1054,-2276 1054,-2282 1048,-2288 1042,-2288"/>
<text text-anchor="middle" x="909" y="-2272.8" font-family="Segoe UI" font-size="14.00" fill="#e2e8f0">Lean Engine</text>
<text text-anchor="middle" x="909" y="-2257.8" font-family="Segoe UI" font-size="14.00" fill="#e2e8f0">LeanIntegration → LeanIntegrationPage</text>
</g>
<!-- workspace_1&#45;&gt;page_LeanIntegration -->
<g id="edge9" class="edge">
<title>workspace_1&#45;&gt;page_LeanIntegration</title>
<path fill="none" stroke="#94a3b8" stroke-width="1.3" d="M551.48,-2469.99C596.68,-2451.15 661.77,-2418.51 705,-2373 729.64,-2347.06 712.48,-2322.6 741,-2301 745.85,-2297.32 751.01,-2294.03 756.39,-2291.09"/>
<polygon fill="#94a3b8" stroke="#94a3b8" stroke-width="1.3" points="757.99,-2293.41 763.85,-2287.28 755.45,-2288.42 757.99,-2293.41"/>
</g>
<!-- page_PortfolioImport -->
<g id="node12" class="node">
<title>page_PortfolioImport</title>
<path fill="#1e293b" stroke="#475569" d="M1036,-2351C1036,-2351 782,-2351 782,-2351 776,-2351 770,-2345 770,-2339 770,-2339 770,-2325 770,-2325 770,-2319 776,-2313 782,-2313 782,-2313 1036,-2313 1036,-2313 1042,-2313 1048,-2319 1048,-2325 1048,-2325 1048,-2339 1048,-2339 1048,-2345 1042,-2351 1036,-2351"/>
<text text-anchor="middle" x="909" y="-2335.8" font-family="Segoe UI" font-size="14.00" fill="#e2e8f0">Portfolio Import</text>
<text text-anchor="middle" x="909" y="-2320.8" font-family="Segoe UI" font-size="14.00" fill="#e2e8f0">PortfolioImport → PortfolioImportPage</text>
</g>
<!-- workspace_1&#45;&gt;page_PortfolioImport -->
<g id="edge10" class="edge">
<title>workspace_1&#45;&gt;page_PortfolioImport</title>
<path fill="none" stroke="#94a3b8" stroke-width="1.3" d="M561.33,-2480.42C605.09,-2471.74 663.33,-2454.72 705,-2422 728.86,-2403.26 716,-2381.19 741,-2364 747.66,-2359.42 754.8,-2355.46 762.25,-2352.03"/>
<polygon fill="#94a3b8" stroke="#94a3b8" stroke-width="1.3" points="763.56,-2354.51 769.8,-2348.77 761.34,-2349.37 763.56,-2354.51"/>
</g>
<!-- page_TradingHours -->
<g id="node13" class="node">
<title>page_TradingHours</title>
<path fill="#1e293b" stroke="#475569" d="M1025.5,-2414C1025.5,-2414 792.5,-2414 792.5,-2414 786.5,-2414 780.5,-2408 780.5,-2402 780.5,-2402 780.5,-2388 780.5,-2388 780.5,-2382 786.5,-2376 792.5,-2376 792.5,-2376 1025.5,-2376 1025.5,-2376 1031.5,-2376 1037.5,-2382 1037.5,-2388 1037.5,-2388 1037.5,-2402 1037.5,-2402 1037.5,-2408 1031.5,-2414 1025.5,-2414"/>
<text text-anchor="middle" x="909" y="-2398.8" font-family="Segoe UI" font-size="14.00" fill="#e2e8f0">Trading Hours</text>
<text text-anchor="middle" x="909" y="-2383.8" font-family="Segoe UI" font-size="14.00" fill="#e2e8f0">TradingHours → TradingHoursPage</text>
</g>
<!-- workspace_1&#45;&gt;page_TradingHours -->
<g id="edge11" class="edge">
<title>workspace_1&#45;&gt;page_TradingHours</title>
<path fill="none" stroke="#94a3b8" stroke-width="1.3" d="M561.35,-2483.49C603,-2478.28 658.71,-2468.4 705,-2450 722.64,-2442.99 723.36,-2434.02 741,-2427 751.36,-2422.87 762.3,-2419.27 773.43,-2416.12"/>
<polygon fill="#94a3b8" stroke="#94a3b8" stroke-width="1.3" points="774.17,-2418.82 781.15,-2414.01 772.7,-2413.42 774.17,-2418.82"/>
</g>
<!-- page_Provider -->
<g id="node14" class="node">
<title>page_Provider</title>
<path fill="#1e293b" stroke="#475569" d="M989.5,-2477C989.5,-2477 828.5,-2477 828.5,-2477 822.5,-2477 816.5,-2471 816.5,-2465 816.5,-2465 816.5,-2451 816.5,-2451 816.5,-2445 822.5,-2439 828.5,-2439 828.5,-2439 989.5,-2439 989.5,-2439 995.5,-2439 1001.5,-2445 1001.5,-2451 1001.5,-2451 1001.5,-2465 1001.5,-2465 1001.5,-2471 995.5,-2477 989.5,-2477"/>
<text text-anchor="middle" x="909" y="-2461.8" font-family="Segoe UI" font-size="14.00" fill="#e2e8f0">Provider</text>
<text text-anchor="middle" x="909" y="-2446.8" font-family="Segoe UI" font-size="14.00" fill="#e2e8f0">Provider → ProviderPage</text>
</g>
<!-- workspace_1&#45;&gt;page_Provider -->
<g id="edge12" class="edge">
<title>workspace_1&#45;&gt;page_Provider</title>
<path fill="none" stroke="#94a3b8" stroke-width="1.3" d="M561.08,-2484.36C626.29,-2479.4 730.64,-2471.48 807.88,-2465.61"/>
<polygon fill="#94a3b8" stroke="#94a3b8" stroke-width="1.3" points="808.45,-2468.37 816.21,-2464.97 808.03,-2462.79 808.45,-2468.37"/>
</g>
<!-- page_Symbols -->
<g id="node15" class="node">
<title>page_Symbols</title>
<path fill="#1e293b" stroke="#475569" d="M991.5,-2540C991.5,-2540 826.5,-2540 826.5,-2540 820.5,-2540 814.5,-2534 814.5,-2528 814.5,-2528 814.5,-2514 814.5,-2514 814.5,-2508 820.5,-2502 826.5,-2502 826.5,-2502 991.5,-2502 991.5,-2502 997.5,-2502 1003.5,-2508 1003.5,-2514 1003.5,-2514 1003.5,-2528 1003.5,-2528 1003.5,-2534 997.5,-2540 991.5,-2540"/>
<text text-anchor="middle" x="909" y="-2524.8" font-family="Segoe UI" font-size="14.00" fill="#e2e8f0">Symbols</text>
<text text-anchor="middle" x="909" y="-2509.8" font-family="Segoe UI" font-size="14.00" fill="#e2e8f0">Symbols → SymbolsPage</text>
</g>
<!-- workspace_1&#45;&gt;page_Symbols -->
<g id="edge13" class="edge">
<title>workspace_1&#45;&gt;page_Symbols</title>
<path fill="none" stroke="#94a3b8" stroke-width="1.3" d="M561.08,-2493.79C625.75,-2498.86 728.92,-2506.95 805.97,-2513"/>
<polygon fill="#94a3b8" stroke="#94a3b8" stroke-width="1.3" points="806.09,-2515.82 814.29,-2513.65 806.53,-2510.23 806.09,-2515.82"/>
</g>
<!-- page_Backfill -->
<g id="node16" class="node">
<title>page_Backfill</title>
<path fill="#1e293b" stroke="#475569" d="M982.5,-2603C982.5,-2603 835.5,-2603 835.5,-2603 829.5,-2603 823.5,-2597 823.5,-2591 823.5,-2591 823.5,-2577 823.5,-2577 823.5,-2571 829.5,-2565 835.5,-2565 835.5,-2565 982.5,-2565 982.5,-2565 988.5,-2565 994.5,-2571 994.5,-2577 994.5,-2577 994.5,-2591 994.5,-2591 994.5,-2597 988.5,-2603 982.5,-2603"/>
<text text-anchor="middle" x="909" y="-2587.8" font-family="Segoe UI" font-size="14.00" fill="#e2e8f0">Backfill</text>
<text text-anchor="middle" x="909" y="-2572.8" font-family="Segoe UI" font-size="14.00" fill="#e2e8f0">Backfill → BackfillPage</text>
</g>
<!-- workspace_1&#45;&gt;page_Backfill -->
<g id="edge14" class="edge">
<title>workspace_1&#45;&gt;page_Backfill</title>
<path fill="none" stroke="#94a3b8" stroke-width="1.3" d="M561.1,-2506.6C609.62,-2520.25 679.34,-2539.11 741,-2553 764.91,-2558.39 790.89,-2563.54 815.09,-2568.05"/>
<polygon fill="#94a3b8" stroke="#94a3b8" stroke-width="1.3" points="814.84,-2570.85 823.22,-2569.55 815.86,-2565.34 814.84,-2570.85"/>
</g>
<!-- page_Storage -->
<g id="node17" class="node">
<title>page_Storage</title>
<path fill="#1e293b" stroke="#475569" d="M986.5,-2666C986.5,-2666 831.5,-2666 831.5,-2666 825.5,-2666 819.5,-2660 819.5,-2654 819.5,-2654 819.5,-2640 819.5,-2640 819.5,-2634 825.5,-2628 831.5,-2628 831.5,-2628 986.5,-2628 986.5,-2628 992.5,-2628 998.5,-2634 998.5,-2640 998.5,-2640 998.5,-2654 998.5,-2654 998.5,-2660 992.5,-2666 986.5,-2666"/>
<text text-anchor="middle" x="909" y="-2650.8" font-family="Segoe UI" font-size="14.00" fill="#e2e8f0">Storage</text>
<text text-anchor="middle" x="909" y="-2635.8" font-family="Segoe UI" font-size="14.00" fill="#e2e8f0">Storage → StoragePage</text>
</g>
<!-- workspace_1&#45;&gt;page_Storage -->
<g id="edge15" class="edge">
<title>workspace_1&#45;&gt;page_Storage</title>
<path fill="none" stroke="#94a3b8" stroke-width="1.3" d="M529.11,-2508.08C573.14,-2536.06 660.14,-2587.92 741,-2616 763.27,-2623.74 787.93,-2629.66 811.3,-2634.16"/>
<polygon fill="#94a3b8" stroke="#94a3b8" stroke-width="1.3" points="810.79,-2636.91 819.17,-2635.63 811.82,-2631.41 810.79,-2636.91"/>
</g>
<!-- page_DataExport -->
<g id="node18" class="node">
<title>page_DataExport</title>
<path fill="#1e293b" stroke="#475569" d="M1010.5,-2729C1010.5,-2729 807.5,-2729 807.5,-2729 801.5,-2729 795.5,-2723 795.5,-2717 795.5,-2717 795.5,-2703 795.5,-2703 795.5,-2697 801.5,-2691 807.5,-2691 807.5,-2691 1010.5,-2691 1010.5,-2691 1016.5,-2691 1022.5,-2697 1022.5,-2703 1022.5,-2703 1022.5,-2717 1022.5,-2717 1022.5,-2723 1016.5,-2729 1010.5,-2729"/>
<text text-anchor="middle" x="909" y="-2713.8" font-family="Segoe UI" font-size="14.00" fill="#e2e8f0">Export</text>
<text text-anchor="middle" x="909" y="-2698.8" font-family="Segoe UI" font-size="14.00" fill="#e2e8f0">DataExport → DataExportPage</text>
</g>
<!-- workspace_1&#45;&gt;page_DataExport -->
<g id="edge16" class="edge">
<title>workspace_1&#45;&gt;page_DataExport</title>
<path fill="none" stroke="#94a3b8" stroke-width="1.3" d="M517.55,-2508.02C554.68,-2546.96 645.64,-2635.78 741,-2679 755.54,-2685.59 771.4,-2690.78 787.37,-2694.87"/>
<polygon fill="#94a3b8" stroke="#94a3b8" stroke-width="1.3" points="786.78,-2697.6 795.22,-2696.79 788.11,-2692.17 786.78,-2697.6"/>
</g>
<!-- page_PackageManager -->
<g id="node19" class="node">
<title>page_PackageManager</title>
<path fill="#1e293b" stroke="#475569" d="M1049.5,-2792C1049.5,-2792 768.5,-2792 768.5,-2792 762.5,-2792 756.5,-2786 756.5,-2780 756.5,-2780 756.5,-2766 756.5,-2766 756.5,-2760 762.5,-2754 768.5,-2754 768.5,-2754 1049.5,-2754 1049.5,-2754 1055.5,-2754 1061.5,-2760 1061.5,-2766 1061.5,-2766 1061.5,-2780 1061.5,-2780 1061.5,-2786 1055.5,-2792 1049.5,-2792"/>
<text text-anchor="middle" x="909" y="-2776.8" font-family="Segoe UI" font-size="14.00" fill="#e2e8f0">Packages</text>
<text text-anchor="middle" x="909" y="-2761.8" font-family="Segoe UI" font-size="14.00" fill="#e2e8f0">PackageManager → PackageManagerPage</text>
</g>
<!-- workspace_1&#45;&gt;page_PackageManager -->
<g id="edge17" class="edge">
<title>workspace_1&#45;&gt;page_PackageManager</title>
<path fill="none" stroke="#94a3b8" stroke-width="1.3" d="M511.87,-2508.07C542.9,-2556.16 631.66,-2682.75 741,-2742 747.15,-2745.33 753.59,-2748.31 760.22,-2750.98"/>
<polygon fill="#94a3b8" stroke="#94a3b8" stroke-width="1.3" points="759.61,-2753.74 768.09,-2753.97 761.6,-2748.51 759.61,-2753.74"/>
</g>
<!-- page_DataQuality -->
<g id="node20" class="node">
<title>page_DataQuality</title>
<path fill="#1e293b" stroke="#475569" d="M1014,-2855C1014,-2855 804,-2855 804,-2855 798,-2855 792,-2849 792,-2843 792,-2843 792,-2829 792,-2829 792,-2823 798,-2817 804,-2817 804,-2817 1014,-2817 1014,-2817 1020,-2817 1026,-2823 1026,-2829 1026,-2829 1026,-2843 1026,-2843 1026,-2849 1020,-2855 1014,-2855"/>
<text text-anchor="middle" x="909" y="-2839.8" font-family="Segoe UI" font-size="14.00" fill="#e2e8f0">Data Quality</text>
<text text-anchor="middle" x="909" y="-2824.8" font-family="Segoe UI" font-size="14.00" fill="#e2e8f0">DataQuality → DataQualityPage</text>
</g>
<!-- workspace_1&#45;&gt;page_DataQuality -->
<g id="edge18" class="edge">
<title>workspace_1&#45;&gt;page_DataQuality</title>
<path fill="none" stroke="#94a3b8" stroke-width="1.3" d="M508.41,-2508.19C534.08,-2564.3 617.29,-2728.92 741,-2805 754.05,-2813.02 768.68,-2819.07 783.71,-2823.61"/>
<polygon fill="#94a3b8" stroke="#94a3b8" stroke-width="1.3" points="783.14,-2826.36 791.6,-2825.84 784.66,-2820.97 783.14,-2826.36"/>
</g>
<!-- page_ProviderHealth -->
<g id="node21" class="node">
<title>page_ProviderHealth</title>
<path fill="#1e293b" stroke="#475569" d="M1034.5,-2918C1034.5,-2918 783.5,-2918 783.5,-2918 777.5,-2918 771.5,-2912 771.5,-2906 771.5,-2906 771.5,-2892 771.5,-2892 771.5,-2886 777.5,-2880 783.5,-2880 783.5,-2880 1034.5,-2880 1034.5,-2880 1040.5,-2880 1046.5,-2886 1046.5,-2892 1046.5,-2892 1046.5,-2906 1046.5,-2906 1046.5,-2912 1040.5,-2918 1034.5,-2918"/>
<text text-anchor="middle" x="909" y="-2902.8" font-family="Segoe UI" font-size="14.00" fill="#e2e8f0">Provider Health</text>
<text text-anchor="middle" x="909" y="-2887.8" font-family="Segoe UI" font-size="14.00" fill="#e2e8f0">ProviderHealth → ProviderHealthPage</text>
</g>
<!-- workspace_1&#45;&gt;page_ProviderHealth -->
<g id="edge19" class="edge">
<title>workspace_1&#45;&gt;page_ProviderHealth</title>
<path fill="none" stroke="#94a3b8" stroke-width="1.3" d="M506.02,-2508.27C526.86,-2571.57 602.39,-2774.39 741,-2868 748.11,-2872.8 755.76,-2876.91 763.74,-2880.43"/>
<polygon fill="#94a3b8" stroke="#94a3b8" stroke-width="1.3" points="762.69,-2883.02 771.15,-2883.49 764.82,-2877.85 762.69,-2883.02"/>
</g>
<!-- page_SystemHealth -->
<g id="node22" class="node">
<title>page_SystemHealth</title>
<path fill="#1e293b" stroke="#475569" d="M1029,-2981C1029,-2981 789,-2981 789,-2981 783,-2981 777,-2975 777,-2969 777,-2969 777,-2955 777,-2955 777,-2949 783,-2943 789,-2943 789,-2943 1029,-2943 1029,-2943 1035,-2943 1041,-2949 1041,-2955 1041,-2955 1041,-2969 1041,-2969 1041,-2975 1035,-2981 1029,-2981"/>
<text text-anchor="middle" x="909" y="-2965.8" font-family="Segoe UI" font-size="14.00" fill="#e2e8f0">System Health</text>
<text text-anchor="middle" x="909" y="-2950.8" font-family="Segoe UI" font-size="14.00" fill="#e2e8f0">SystemHealth → SystemHealthPage</text>
</g>
<!-- workspace_1&#45;&gt;page_SystemHealth -->
<g id="edge20" class="edge">
<title>workspace_1&#45;&gt;page_SystemHealth</title>
<path fill="none" stroke="#94a3b8" stroke-width="1.3" d="M504.27,-2508.41C520.75,-2578.37 587.12,-2819.38 741,-2931 749.65,-2937.28 759.21,-2942.4 769.23,-2946.57"/>
<polygon fill="#94a3b8" stroke="#94a3b8" stroke-width="1.3" points="768.51,-2949.29 776.98,-2949.57 770.53,-2944.07 768.51,-2949.29"/>
</g>
<!-- page_Diagnostics -->
<g id="node23" class="node">
<title>page_Diagnostics</title>
<path fill="#1e293b" stroke="#475569" d="M1012.5,-3044C1012.5,-3044 805.5,-3044 805.5,-3044 799.5,-3044 793.5,-3038 793.5,-3032 793.5,-3032 793.5,-3018 793.5,-3018 793.5,-3012 799.5,-3006 805.5,-3006 805.5,-3006 1012.5,-3006 1012.5,-3006 1018.5,-3006 1024.5,-3012 1024.5,-3018 1024.5,-3018 1024.5,-3032 1024.5,-3032 1024.5,-3038 1018.5,-3044 1012.5,-3044"/>
<text text-anchor="middle" x="909" y="-3028.8" font-family="Segoe UI" font-size="14.00" fill="#e2e8f0">Diagnostics</text>
<text text-anchor="middle" x="909" y="-3013.8" font-family="Segoe UI" font-size="14.00" fill="#e2e8f0">Diagnostics → DiagnosticsPage</text>
</g>
<!-- workspace_1&#45;&gt;page_Diagnostics -->
<g id="edge21" class="edge">
<title>workspace_1&#45;&gt;page_Diagnostics</title>
<path fill="none" stroke="#94a3b8" stroke-width="1.3" d="M502.86,-2508.17C515.2,-2583.82 571.26,-2863.74 741,-2994 754.07,-3004.03 769.38,-3011.16 785.34,-3016.17"/>
<polygon fill="#94a3b8" stroke="#94a3b8" stroke-width="1.3" points="784.76,-3018.92 793.23,-3018.47 786.33,-3013.54 784.76,-3018.92"/>
</g>
<!-- page_Settings -->
<g id="node24" class="node">
<title>page_Settings</title>
<path fill="#1e293b" stroke="#475569" d="M989.5,-3107C989.5,-3107 828.5,-3107 828.5,-3107 822.5,-3107 816.5,-3101 816.5,-3095 816.5,-3095 816.5,-3081 816.5,-3081 816.5,-3075 822.5,-3069 828.5,-3069 828.5,-3069 989.5,-3069 989.5,-3069 995.5,-3069 1001.5,-3075 1001.5,-3081 1001.5,-3081 1001.5,-3095 1001.5,-3095 1001.5,-3101 995.5,-3107 989.5,-3107"/>
<text text-anchor="middle" x="909" y="-3091.8" font-family="Segoe UI" font-size="14.00" fill="#e2e8f0">Settings</text>
<text text-anchor="middle" x="909" y="-3076.8" font-family="Segoe UI" font-size="14.00" fill="#e2e8f0">Settings → SettingsPage</text>
</g>
<!-- workspace_1&#45;&gt;page_Settings -->
<g id="edge22" class="edge">
<title>workspace_1&#45;&gt;page_Settings</title>
<path fill="none" stroke="#94a3b8" stroke-width="1.3" d="M501.78,-2508.24C510.41,-2589.59 555.36,-2907.94 741,-3057 760.01,-3072.26 784.15,-3080.9 808.13,-3085.6"/>
<polygon fill="#94a3b8" stroke="#94a3b8" stroke-width="1.3" points="807.88,-3088.4 816.25,-3087.05 808.86,-3082.89 807.88,-3088.4"/>
</g>
<!-- page_AdminMaintenance -->
<g id="node25" class="node">
<title>page_AdminMaintenance</title>
<path fill="#1e293b" stroke="#475569" d="M1065,-3170C1065,-3170 753,-3170 753,-3170 747,-3170 741,-3164 741,-3158 741,-3158 741,-3144 741,-3144 741,-3138 747,-3132 753,-3132 753,-3132 1065,-3132 1065,-3132 1071,-3132 1077,-3138 1077,-3144 1077,-3144 1077,-3158 1077,-3158 1077,-3164 1071,-3170 1065,-3170"/>
<text text-anchor="middle" x="909" y="-3154.8" font-family="Segoe UI" font-size="14.00" fill="#e2e8f0">Admin</text>
<text text-anchor="middle" x="909" y="-3139.8" font-family="Segoe UI" font-size="14.00" fill="#e2e8f0">AdminMaintenance → AdminMaintenancePage</text>
</g>
<!-- workspace_1&#45;&gt;page_AdminMaintenance -->
<g id="edge23" class="edge">
<title>workspace_1&#45;&gt;page_AdminMaintenance</title>
<path fill="none" stroke="#94a3b8" stroke-width="1.3" d="M500.78,-2508.06C505.44,-2594.69 536.88,-2954.21 741,-3120 744.5,-3122.85 748.19,-3125.46 752.02,-3127.87"/>
<polygon fill="#94a3b8" stroke="#94a3b8" stroke-width="1.3" points="750.73,-3130.36 759.05,-3131.97 753.55,-3125.52 750.73,-3130.36"/>
</g>
</g>
</svg>
