<?xml version="1.0" encoding="UTF-8" standalone="no"?>
<!DOCTYPE svg PUBLIC "-//W3C//DTD SVG 1.1//EN"
 "http://www.w3.org/Graphics/SVG/1.1/DTD/svg11.dtd">
<!-- Generated by graphviz version 2.43.0 (0)
 -->
<!-- Title: UiNavigationMap Pages: 1 -->
<svg width="1147pt" height="4208pt"
 viewBox="0.00 0.00 1146.60 4207.60" xmlns="http://www.w3.org/2000/svg" xmlns:xlink="http://www.w3.org/1999/xlink">
<g id="graph0" class="graph" transform="scale(1 1) rotate(0) translate(28.8 4178.8)">
<title>UiNavigationMap</title>
<polygon fill="#0f172a" stroke="transparent" points="-28.8,28.8 -28.8,-4178.8 1117.8,-4178.8 1117.8,28.8 -28.8,28.8"/>
<text text-anchor="middle" x="544.5" y="-4130" font-family="Segoe UI" font-size="20.00">Meridian WPF UI navigation map</text>
<text text-anchor="middle" x="544.5" y="-4108" font-family="Segoe UI" font-size="20.00">(auto&#45;generated from MainPage.xaml + NavigationService.cs)</text>
<g id="clust1" class="cluster">
<title>cluster_workspace_1</title>
<path fill="#0f172a" stroke="#334155" d="M437,-2431C437,-2431 1069,-2431 1069,-2431 1075,-2431 1081,-2437 1081,-2443 1081,-2443 1081,-4078 1081,-4078 1081,-4084 1075,-4090 1069,-4090 1069,-4090 437,-4090 437,-4090 431,-4090 425,-4084 425,-4078 425,-4078 425,-2443 425,-2443 425,-2437 431,-2431 437,-2431"/>
<text text-anchor="middle" x="753" y="-4070" font-family="Segoe UI" font-size="20.00">Shell workspace</text>
</g>
<g id="clust2" class="cluster">
<title>cluster_hidden_pages</title>
<path fill="#0f172a" stroke="#7c2d12" stroke-dasharray="5,2" d="M330,-8C330,-8 660,-8 660,-8 666,-8 672,-14 672,-20 672,-20 672,-2411 672,-2411 672,-2417 666,-2423 660,-2423 660,-2423 330,-2423 330,-2423 324,-2423 318,-2417 318,-2411 318,-2411 318,-20 318,-20 318,-14 324,-8 330,-8"/>
<text text-anchor="middle" x="495" y="-2403" font-family="Segoe UI" font-size="20.00">Registered but not in sidebar shell</text>
</g>
<!-- generated -->
<g id="node1" class="node">
<title>generated</title>
<polygon fill="#1d4ed8" stroke="#60a5fa" points="247,-1187.5 0,-1187.5 0,-1134.5 253,-1134.5 253,-1181.5 247,-1187.5"/>
<polyline fill="none" stroke="#60a5fa" points="247,-1187.5 247,-1181.5 "/>
<polyline fill="none" stroke="#60a5fa" points="253,-1181.5 247,-1181.5 "/>
<text text-anchor="middle" x="126.5" y="-1172.3" font-family="Segoe UI" font-size="14.00" fill="#e2e8f0">Source fingerprint: 1f60e7c452a3</text>
<text text-anchor="middle" x="126.5" y="-1157.3" font-family="Segoe UI" font-size="14.00" fill="#e2e8f0">Shell entries: 27</text>
<text text-anchor="middle" x="126.5" y="-1142.3" font-family="Segoe UI" font-size="14.00" fill="#e2e8f0">Registered pages: 64</text>
</g>
<!-- shell -->
<g id="node2" class="node">
<title>shell</title>
<polygon fill="#0f766e" stroke="#2dd4bf" points="191,-2058 62,-2058 62,-2054 58,-2054 58,-2050 62,-2050 62,-2028 58,-2028 58,-2024 62,-2024 62,-2020 191,-2020 191,-2058"/>
<polyline fill="none" stroke="#2dd4bf" points="62,-2054 66,-2054 66,-2050 62,-2050 "/>
<polyline fill="none" stroke="#2dd4bf" points="62,-2028 66,-2028 66,-2024 62,-2024 "/>
<text text-anchor="middle" x="126.5" y="-2042.8" font-family="Segoe UI" font-size="14.00" fill="#e2e8f0">MainPage.xaml</text>
<text text-anchor="middle" x="126.5" y="-2027.8" font-family="Segoe UI" font-size="14.00" fill="#e2e8f0">Workspace shell</text>
</g>
<!-- navigation -->
<g id="node3" class="node">
<title>navigation</title>
<polygon fill="#7c3aed" stroke="#c4b5fd" points="197.5,-1251 55.5,-1251 55.5,-1247 51.5,-1247 51.5,-1243 55.5,-1243 55.5,-1221 51.5,-1221 51.5,-1217 55.5,-1217 55.5,-1213 197.5,-1213 197.5,-1251"/>
<polyline fill="none" stroke="#c4b5fd" points="55.5,-1247 59.5,-1247 59.5,-1243 55.5,-1243 "/>
<polyline fill="none" stroke="#c4b5fd" points="55.5,-1221 59.5,-1221 59.5,-1217 55.5,-1217 "/>
<text text-anchor="middle" x="126.5" y="-1235.8" font-family="Segoe UI" font-size="14.00" fill="#e2e8f0">NavigationService</text>
<text text-anchor="middle" x="126.5" y="-1220.8" font-family="Segoe UI" font-size="14.00" fill="#e2e8f0">RegisterAllPages()</text>
</g>
<!-- shell&#45;&gt;navigation -->
<g id="edge1" class="edge">
<title>shell&#45;&gt;navigation</title>
<path fill="none" stroke="#38bdf8" stroke-width="1.3" d="M126.5,-2019.67C126.5,-1911.87 126.5,-1385.36 126.5,-1259.2"/>
<polygon fill="#38bdf8" stroke="#38bdf8" stroke-width="1.3" points="129.3,-1259.15 126.5,-1251.15 123.7,-1259.15 129.3,-1259.15"/>
<text text-anchor="middle" x="116" y="-1631.8" font-family="Segoe UI" font-size="14.00">navigate via tags</text>
</g>
<!-- workspace_1 -->
<g id="node4" class="node">
<title>workspace_1</title>
<polygon fill="#1d4ed8" stroke="#93c5fd" points="557,-3201 554,-3205 533,-3205 530,-3201 433,-3201 433,-3163 557,-3163 557,-3201"/>
<text text-anchor="middle" x="495" y="-3185.8" font-family="Segoe UI" font-size="14.00" fill="#e2e8f0">Shell</text>
<text text-anchor="middle" x="495" y="-3170.8" font-family="Segoe UI" font-size="14.00" fill="#e2e8f0">27 shell entries</text>
</g>
<!-- shell&#45;&gt;workspace_1 -->
<g id="edge2" class="edge">
<title>shell&#45;&gt;workspace_1</title>
<path fill="none" stroke="#22d3ee" stroke-width="1.3" d="M133.71,-2058.36C177.09,-2193.67 434.71,-2997.1 485.36,-3155.05"/>
<polygon fill="#22d3ee" stroke="#22d3ee" stroke-width="1.3" points="482.77,-3156.14 487.88,-3162.91 488.1,-3154.43 482.77,-3156.14"/>
</g>
<!-- hidden_DataSources -->
<g id="node31" class="node">
<title>hidden_DataSources</title>
<path fill="#431407" stroke="#fb923c" d="M551.5,-2385C551.5,-2385 438.5,-2385 438.5,-2385 432.5,-2385 426.5,-2379 426.5,-2373 426.5,-2373 426.5,-2359 426.5,-2359 426.5,-2353 432.5,-2347 438.5,-2347 438.5,-2347 551.5,-2347 551.5,-2347 557.5,-2347 563.5,-2353 563.5,-2359 563.5,-2359 563.5,-2373 563.5,-2373 563.5,-2379 557.5,-2385 551.5,-2385"/>
<text text-anchor="middle" x="495" y="-2369.8" font-family="Segoe UI" font-size="14.00" fill="#e2e8f0">DataSources</text>
<text text-anchor="middle" x="495" y="-2354.8" font-family="Segoe UI" font-size="14.00" fill="#e2e8f0">DataSourcesPage</text>
</g>
<!-- navigation&#45;&gt;hidden_DataSources -->
<g id="edge30" class="edge">
<title>navigation&#45;&gt;hidden_DataSources</title>
<path fill="none" stroke="#fb923c" stroke-width="1.3" stroke-dasharray="5,2" d="M130.5,-1251.24C153.18,-1396.46 297.36,-2315.15 318,-2335 344.19,-2360.19 383.25,-2368.82 417.92,-2370.77"/>
<polygon fill="#fb923c" stroke="#fb923c" stroke-width="1.3" points="418.06,-2373.58 426.17,-2371.12 418.29,-2367.98 418.06,-2373.58"/>
</g>
<!-- hidden_DataBrowser -->
<g id="node32" class="node">
<title>hidden_DataBrowser</title>
<path fill="#431407" stroke="#fb923c" d="M552,-2322C552,-2322 438,-2322 438,-2322 432,-2322 426,-2316 426,-2310 426,-2310 426,-2296 426,-2296 426,-2290 432,-2284 438,-2284 438,-2284 552,-2284 552,-2284 558,-2284 564,-2290 564,-2296 564,-2296 564,-2310 564,-2310 564,-2316 558,-2322 552,-2322"/>
<text text-anchor="middle" x="495" y="-2306.8" font-family="Segoe UI" font-size="14.00" fill="#e2e8f0">DataBrowser</text>
<text text-anchor="middle" x="495" y="-2291.8" font-family="Segoe UI" font-size="14.00" fill="#e2e8f0">DataBrowserPage</text>
</g>
<!-- navigation&#45;&gt;hidden_DataBrowser -->
<g id="edge31" class="edge">
<title>navigation&#45;&gt;hidden_DataBrowser</title>
<path fill="none" stroke="#fb923c" stroke-width="1.3" stroke-dasharray="5,2" d="M130.35,-1251.09C151.09,-1389.5 279.11,-2234.65 318,-2272 344.1,-2297.07 382.96,-2305.73 417.53,-2307.73"/>
<polygon fill="#fb923c" stroke="#fb923c" stroke-width="1.3" points="417.64,-2310.54 425.75,-2308.09 417.88,-2304.94 417.64,-2310.54"/>
</g>
<!-- hidden_SymbolMapping -->
<g id="node33" class="node">
<title>hidden_SymbolMapping</title>
<path fill="#431407" stroke="#fb923c" d="M563.5,-2259C563.5,-2259 426.5,-2259 426.5,-2259 420.5,-2259 414.5,-2253 414.5,-2247 414.5,-2247 414.5,-2233 414.5,-2233 414.5,-2227 420.5,-2221 426.5,-2221 426.5,-2221 563.5,-2221 563.5,-2221 569.5,-2221 575.5,-2227 575.5,-2233 575.5,-2233 575.5,-2247 575.5,-2247 575.5,-2253 569.5,-2259 563.5,-2259"/>
<text text-anchor="middle" x="495" y="-2243.8" font-family="Segoe UI" font-size="14.00" fill="#e2e8f0">SymbolMapping</text>
<text text-anchor="middle" x="495" y="-2228.8" font-family="Segoe UI" font-size="14.00" fill="#e2e8f0">SymbolMappingPage</text>
</g>
<!-- navigation&#45;&gt;hidden_SymbolMapping -->
<g id="edge32" class="edge">
<title>navigation&#45;&gt;hidden_SymbolMapping</title>
<path fill="none" stroke="#fb923c" stroke-width="1.3" stroke-dasharray="5,2" d="M130.59,-1251.21C152.23,-1385.08 281.11,-2174.36 318,-2209 341.36,-2230.93 374.51,-2240.22 405.76,-2243.49"/>
<polygon fill="#fb923c" stroke="#fb923c" stroke-width="1.3" points="405.86,-2246.31 414.08,-2244.22 406.36,-2240.73 405.86,-2246.31"/>
</g>
<!-- hidden_SymbolStorage -->
<g id="node34" class="node">
<title>hidden_SymbolStorage</title>
<path fill="#431407" stroke="#fb923c" d="M560.5,-2196C560.5,-2196 429.5,-2196 429.5,-2196 423.5,-2196 417.5,-2190 417.5,-2184 417.5,-2184 417.5,-2170 417.5,-2170 417.5,-2164 423.5,-2158 429.5,-2158 429.5,-2158 560.5,-2158 560.5,-2158 566.5,-2158 572.5,-2164 572.5,-2170 572.5,-2170 572.5,-2184 572.5,-2184 572.5,-2190 566.5,-2196 560.5,-2196"/>
<text text-anchor="middle" x="495" y="-2180.8" font-family="Segoe UI" font-size="14.00" fill="#e2e8f0">SymbolStorage</text>
<text text-anchor="middle" x="495" y="-2165.8" font-family="Segoe UI" font-size="14.00" fill="#e2e8f0">SymbolStoragePage</text>
</g>
<!-- navigation&#45;&gt;hidden_SymbolStorage -->
<g id="edge33" class="edge">
<title>navigation&#45;&gt;hidden_SymbolStorage</title>
<path fill="none" stroke="#fb923c" stroke-width="1.3" stroke-dasharray="5,2" d="M129.97,-1251.14C142.07,-1343.04 198.25,-1747.85 289,-2069 298.94,-2104.19 289.85,-2122.65 318,-2146 343.21,-2166.91 377.55,-2175.85 409.21,-2179.13"/>
<polygon fill="#fb923c" stroke="#fb923c" stroke-width="1.3" points="408.97,-2181.92 417.19,-2179.84 409.47,-2176.34 408.97,-2181.92"/>
</g>
<!-- hidden_IndexSubscription -->
<g id="node35" class="node">
<title>hidden_IndexSubscription</title>
<path fill="#431407" stroke="#fb923c" d="M571,-2133C571,-2133 419,-2133 419,-2133 413,-2133 407,-2127 407,-2121 407,-2121 407,-2107 407,-2107 407,-2101 413,-2095 419,-2095 419,-2095 571,-2095 571,-2095 577,-2095 583,-2101 583,-2107 583,-2107 583,-2121 583,-2121 583,-2127 577,-2133 571,-2133"/>
<text text-anchor="middle" x="495" y="-2117.8" font-family="Segoe UI" font-size="14.00" fill="#e2e8f0">IndexSubscription</text>
<text text-anchor="middle" x="495" y="-2102.8" font-family="Segoe UI" font-size="14.00" fill="#e2e8f0">IndexSubscriptionPage</text>
</g>
<!-- navigation&#45;&gt;hidden_IndexSubscription -->
<g id="edge34" class="edge">
<title>navigation&#45;&gt;hidden_IndexSubscription</title>
<path fill="none" stroke="#fb923c" stroke-width="1.3" stroke-dasharray="5,2" d="M128.73,-1251.18C136.55,-1366.93 183.5,-1970.95 318,-2083 340.44,-2101.7 370.18,-2110.83 398.82,-2114.91"/>
<polygon fill="#fb923c" stroke="#fb923c" stroke-width="1.3" points="398.57,-2117.71 406.86,-2115.94 399.27,-2112.15 398.57,-2117.71"/>
</g>
<!-- hidden_Options -->
<g id="node36" class="node">
<title>hidden_Options</title>
<path fill="#431407" stroke="#fb923c" d="M535,-2070C535,-2070 455,-2070 455,-2070 449,-2070 443,-2064 443,-2058 443,-2058 443,-2044 443,-2044 443,-2038 449,-2032 455,-2032 455,-2032 535,-2032 535,-2032 541,-2032 547,-2038 547,-2044 547,-2044 547,-2058 547,-2058 547,-2064 541,-2070 535,-2070"/>
<text text-anchor="middle" x="495" y="-2054.8" font-family="Segoe UI" font-size="14.00" fill="#e2e8f0">Options</text>
<text text-anchor="middle" x="495" y="-2039.8" font-family="Segoe UI" font-size="14.00" fill="#e2e8f0">OptionsPage</text>
</g>
<!-- navigation&#45;&gt;hidden_Options -->
<g id="edge35" class="edge">
<title>navigation&#45;&gt;hidden_Options</title>
<path fill="none" stroke="#fb923c" stroke-width="1.3" stroke-dasharray="5,2" d="M129.12,-1251.17C138.85,-1361.69 193.51,-1916.29 318,-2020 350.13,-2046.77 397.23,-2053.94 434.62,-2054.73"/>
<polygon fill="#fb923c" stroke="#fb923c" stroke-width="1.3" points="434.9,-2057.54 442.92,-2054.81 434.95,-2051.94 434.9,-2057.54"/>
</g>
<!-- hidden_Schedules -->
<g id="node37" class="node">
<title>hidden_Schedules</title>
<path fill="#431407" stroke="#fb923c" d="M570,-2007C570,-2007 420,-2007 420,-2007 414,-2007 408,-2001 408,-1995 408,-1995 408,-1981 408,-1981 408,-1975 414,-1969 420,-1969 420,-1969 570,-1969 570,-1969 576,-1969 582,-1975 582,-1981 582,-1981 582,-1995 582,-1995 582,-2001 576,-2007 570,-2007"/>
<text text-anchor="middle" x="495" y="-1991.8" font-family="Segoe UI" font-size="14.00" fill="#e2e8f0">Schedules</text>
<text text-anchor="middle" x="495" y="-1976.8" font-family="Segoe UI" font-size="14.00" fill="#e2e8f0">ScheduleManagerPage</text>
</g>
<!-- navigation&#45;&gt;hidden_Schedules -->
<g id="edge36" class="edge">
<title>navigation&#45;&gt;hidden_Schedules</title>
<path fill="none" stroke="#fb923c" stroke-width="1.3" stroke-dasharray="5,2" d="M129.59,-1251.31C141.41,-1356.75 203.51,-1861.62 318,-1957 340.66,-1975.88 370.76,-1985.01 399.65,-1989.03"/>
<polygon fill="#fb923c" stroke="#fb923c" stroke-width="1.3" points="399.48,-1991.83 407.76,-1990.03 400.16,-1986.27 399.48,-1991.83"/>
</g>
<!-- hidden_RunDetail -->
<g id="node38" class="node">
<title>hidden_RunDetail</title>
<path fill="#431407" stroke="#fb923c" d="M541,-1944C541,-1944 449,-1944 449,-1944 443,-1944 437,-1938 437,-1932 437,-1932 437,-1918 437,-1918 437,-1912 443,-1906 449,-1906 449,-1906 541,-1906 541,-1906 547,-1906 553,-1912 553,-1918 553,-1918 553,-1932 553,-1932 553,-1938 547,-1944 541,-1944"/>
<text text-anchor="middle" x="495" y="-1928.8" font-family="Segoe UI" font-size="14.00" fill="#e2e8f0">RunDetail</text>
<text text-anchor="middle" x="495" y="-1913.8" font-family="Segoe UI" font-size="14.00" fill="#e2e8f0">RunDetailPage</text>
</g>
<!-- navigation&#45;&gt;hidden_RunDetail -->
<g id="edge37" class="edge">
<title>navigation&#45;&gt;hidden_RunDetail</title>
<path fill="none" stroke="#fb923c" stroke-width="1.3" stroke-dasharray="5,2" d="M130.12,-1251.22C144.13,-1350.81 213.36,-1806.83 318,-1894 348.47,-1919.39 392.4,-1927.15 428.74,-1928.56"/>
<polygon fill="#fb923c" stroke="#fb923c" stroke-width="1.3" points="428.78,-1931.36 436.85,-1928.77 428.93,-1925.76 428.78,-1931.36"/>
</g>
<!-- hidden_RunPortfolio -->
<g id="node39" class="node">
<title>hidden_RunPortfolio</title>
<path fill="#431407" stroke="#fb923c" d="M550,-1881C550,-1881 440,-1881 440,-1881 434,-1881 428,-1875 428,-1869 428,-1869 428,-1855 428,-1855 428,-1849 434,-1843 440,-1843 440,-1843 550,-1843 550,-1843 556,-1843 562,-1849 562,-1855 562,-1855 562,-1869 562,-1869 562,-1875 556,-1881 550,-1881"/>
<text text-anchor="middle" x="495" y="-1865.8" font-family="Segoe UI" font-size="14.00" fill="#e2e8f0">RunPortfolio</text>
<text text-anchor="middle" x="495" y="-1850.8" font-family="Segoe UI" font-size="14.00" fill="#e2e8f0">RunPortfolioPage</text>
</g>
<!-- navigation&#45;&gt;hidden_RunPortfolio -->
<g id="edge38" class="edge">
<title>navigation&#45;&gt;hidden_RunPortfolio</title>
<path fill="none" stroke="#fb923c" stroke-width="1.3" stroke-dasharray="5,2" d="M130.72,-1251.26C146.82,-1345.17 221.72,-1753.74 318,-1831 346.34,-1853.74 385.58,-1862.16 419.82,-1864.61"/>
<polygon fill="#fb923c" stroke="#fb923c" stroke-width="1.3" points="419.8,-1867.41 427.95,-1865.08 420.13,-1861.82 419.8,-1867.41"/>
</g>
<!-- hidden_RunLedger -->
<g id="node40" class="node">
<title>hidden_RunLedger</title>
<path fill="#431407" stroke="#fb923c" d="M545.5,-1818C545.5,-1818 444.5,-1818 444.5,-1818 438.5,-1818 432.5,-1812 432.5,-1806 432.5,-1806 432.5,-1792 432.5,-1792 432.5,-1786 438.5,-1780 444.5,-1780 444.5,-1780 545.5,-1780 545.5,-1780 551.5,-1780 557.5,-1786 557.5,-1792 557.5,-1792 557.5,-1806 557.5,-1806 557.5,-1812 551.5,-1818 545.5,-1818"/>
<text text-anchor="middle" x="495" y="-1802.8" font-family="Segoe UI" font-size="14.00" fill="#e2e8f0">RunLedger</text>
<text text-anchor="middle" x="495" y="-1787.8" font-family="Segoe UI" font-size="14.00" fill="#e2e8f0">RunLedgerPage</text>
</g>
<!-- navigation&#45;&gt;hidden_RunLedger -->
<g id="edge39" class="edge">
<title>navigation&#45;&gt;hidden_RunLedger</title>
<path fill="none" stroke="#fb923c" stroke-width="1.3" stroke-dasharray="5,2" d="M127.67,-1251.1C129.49,-1329.72 147.73,-1630.68 318,-1768 347.4,-1791.71 388.64,-1799.88 423.81,-1801.93"/>
<polygon fill="#fb923c" stroke="#fb923c" stroke-width="1.3" points="424.02,-1804.74 432.14,-1802.31 424.28,-1799.15 424.02,-1804.74"/>
</g>
<!-- hidden_RunCashFlow -->
<g id="node41" class="node">
<title>hidden_RunCashFlow</title>
<path fill="#431407" stroke="#fb923c" d="M554.5,-1755C554.5,-1755 435.5,-1755 435.5,-1755 429.5,-1755 423.5,-1749 423.5,-1743 423.5,-1743 423.5,-1729 423.5,-1729 423.5,-1723 429.5,-1717 435.5,-1717 435.5,-1717 554.5,-1717 554.5,-1717 560.5,-1717 566.5,-1723 566.5,-1729 566.5,-1729 566.5,-1743 566.5,-1743 566.5,-1749 560.5,-1755 554.5,-1755"/>
<text text-anchor="middle" x="495" y="-1739.8" font-family="Segoe UI" font-size="14.00" fill="#e2e8f0">RunCashFlow</text>
<text text-anchor="middle" x="495" y="-1724.8" font-family="Segoe UI" font-size="14.00" fill="#e2e8f0">RunCashFlowPage</text>
</g>
<!-- navigation&#45;&gt;hidden_RunCashFlow -->
<g id="edge40" class="edge">
<title>navigation&#45;&gt;hidden_RunCashFlow</title>
<path fill="none" stroke="#fb923c" stroke-width="1.3" stroke-dasharray="5,2" d="M128.79,-1251.21C134.79,-1323.88 166.47,-1584.05 318,-1705 345.05,-1726.59 381.94,-1735.25 414.96,-1738.15"/>
<polygon fill="#fb923c" stroke="#fb923c" stroke-width="1.3" points="415.08,-1740.97 423.27,-1738.77 415.5,-1735.38 415.08,-1740.97"/>
</g>
<!-- hidden_RunRisk -->
<g id="node42" class="node">
<title>hidden_RunRisk</title>
<path fill="#431407" stroke="#fb923c" d="M536,-1692C536,-1692 454,-1692 454,-1692 448,-1692 442,-1686 442,-1680 442,-1680 442,-1666 442,-1666 442,-1660 448,-1654 454,-1654 454,-1654 536,-1654 536,-1654 542,-1654 548,-1660 548,-1666 548,-1666 548,-1680 548,-1680 548,-1686 542,-1692 536,-1692"/>
<text text-anchor="middle" x="495" y="-1676.8" font-family="Segoe UI" font-size="14.00" fill="#e2e8f0">RunRisk</text>
<text text-anchor="middle" x="495" y="-1661.8" font-family="Segoe UI" font-size="14.00" fill="#e2e8f0">RunRiskPage</text>
</g>
<!-- navigation&#45;&gt;hidden_RunRisk -->
<g id="edge41" class="edge">
<title>navigation&#45;&gt;hidden_RunRisk</title>
<path fill="none" stroke="#fb923c" stroke-width="1.3" stroke-dasharray="5,2" d="M130.15,-1251.34C140.37,-1317.84 183.56,-1538.71 318,-1642 350.71,-1667.13 396.91,-1674.52 433.77,-1675.82"/>
<polygon fill="#fb923c" stroke="#fb923c" stroke-width="1.3" points="433.9,-1678.62 441.96,-1676.01 434.03,-1673.02 433.9,-1678.62"/>
</g>
<!-- hidden_CollectionSessions -->
<g id="node43" class="node">
<title>hidden_CollectionSessions</title>
<path fill="#431407" stroke="#fb923c" d="M568,-1629C568,-1629 422,-1629 422,-1629 416,-1629 410,-1623 410,-1617 410,-1617 410,-1603 410,-1603 410,-1597 416,-1591 422,-1591 422,-1591 568,-1591 568,-1591 574,-1591 580,-1597 580,-1603 580,-1603 580,-1617 580,-1617 580,-1623 574,-1629 568,-1629"/>
<text text-anchor="middle" x="495" y="-1613.8" font-family="Segoe UI" font-size="14.00" fill="#e2e8f0">CollectionSessions</text>
<text text-anchor="middle" x="495" y="-1598.8" font-family="Segoe UI" font-size="14.00" fill="#e2e8f0">CollectionSessionPage</text>
</g>
<!-- navigation&#45;&gt;hidden_CollectionSessions -->
<g id="edge42" class="edge">
<title>navigation&#45;&gt;hidden_CollectionSessions</title>
<path fill="none" stroke="#fb923c" stroke-width="1.3" stroke-dasharray="5,2" d="M131.85,-1251.29C146.39,-1311.01 199.27,-1493.96 318,-1579 342.09,-1596.26 372.71,-1604.95 401.63,-1609.07"/>
<polygon fill="#fb923c" stroke="#fb923c" stroke-width="1.3" points="401.44,-1611.87 409.73,-1610.11 402.16,-1606.32 401.44,-1611.87"/>
</g>
<!-- hidden_ArchiveHealth -->
<g id="node44" class="node">
<title>hidden_ArchiveHealth</title>
<path fill="#431407" stroke="#fb923c" d="M556,-1566C556,-1566 434,-1566 434,-1566 428,-1566 422,-1560 422,-1554 422,-1554 422,-1540 422,-1540 422,-1534 428,-1528 434,-1528 434,-1528 556,-1528 556,-1528 562,-1528 568,-1534 568,-1540 568,-1540 568,-1554 568,-1554 568,-1560 562,-1566 556,-1566"/>
<text text-anchor="middle" x="495" y="-1550.8" font-family="Segoe UI" font-size="14.00" fill="#e2e8f0">ArchiveHealth</text>
<text text-anchor="middle" x="495" y="-1535.8" font-family="Segoe UI" font-size="14.00" fill="#e2e8f0">ArchiveHealthPage</text>
</g>
<!-- navigation&#45;&gt;hidden_ArchiveHealth -->
<g id="edge43" class="edge">
<title>navigation&#45;&gt;hidden_ArchiveHealth</title>
<path fill="none" stroke="#fb923c" stroke-width="1.3" stroke-dasharray="5,2" d="M134.17,-1251.1C153.43,-1303.25 214.51,-1448.62 318,-1516 346.04,-1534.26 381.7,-1542.64 413.57,-1546.22"/>
<polygon fill="#fb923c" stroke="#fb923c" stroke-width="1.3" points="413.35,-1549.01 421.59,-1547.02 413.91,-1543.43 413.35,-1549.01"/>
</g>
<!-- hidden_ServiceManager -->
<g id="node45" class="node">
<title>hidden_ServiceManager</title>
<path fill="#431407" stroke="#fb923c" d="M563.5,-1503C563.5,-1503 426.5,-1503 426.5,-1503 420.5,-1503 414.5,-1497 414.5,-1491 414.5,-1491 414.5,-1477 414.5,-1477 414.5,-1471 420.5,-1465 426.5,-1465 426.5,-1465 563.5,-1465 563.5,-1465 569.5,-1465 575.5,-1471 575.5,-1477 575.5,-1477 575.5,-1491 575.5,-1491 575.5,-1497 569.5,-1503 563.5,-1503"/>
<text text-anchor="middle" x="495" y="-1487.8" font-family="Segoe UI" font-size="14.00" fill="#e2e8f0">ServiceManager</text>
<text text-anchor="middle" x="495" y="-1472.8" font-family="Segoe UI" font-size="14.00" fill="#e2e8f0">ServiceManagerPage</text>
</g>
<!-- navigation&#45;&gt;hidden_ServiceManager -->
<g id="edge44" class="edge">
<title>navigation&#45;&gt;hidden_ServiceManager</title>
<path fill="none" stroke="#fb923c" stroke-width="1.3" stroke-dasharray="5,2" d="M137.84,-1251.25C162.53,-1295.14 229.48,-1402.69 318,-1453 344.5,-1468.07 376.59,-1476.13 406.07,-1480.35"/>
<polygon fill="#fb923c" stroke="#fb923c" stroke-width="1.3" points="406.01,-1483.17 414.31,-1481.45 406.75,-1477.62 406.01,-1483.17"/>
</g>
<!-- hidden_DataSampling -->
<g id="node46" class="node">
<title>hidden_DataSampling</title>
<path fill="#431407" stroke="#fb923c" d="M556.5,-1440C556.5,-1440 433.5,-1440 433.5,-1440 427.5,-1440 421.5,-1434 421.5,-1428 421.5,-1428 421.5,-1414 421.5,-1414 421.5,-1408 427.5,-1402 433.5,-1402 433.5,-1402 556.5,-1402 556.5,-1402 562.5,-1402 568.5,-1408 568.5,-1414 568.5,-1414 568.5,-1428 568.5,-1428 568.5,-1434 562.5,-1440 556.5,-1440"/>
<text text-anchor="middle" x="495" y="-1424.8" font-family="Segoe UI" font-size="14.00" fill="#e2e8f0">DataSampling</text>
<text text-anchor="middle" x="495" y="-1409.8" font-family="Segoe UI" font-size="14.00" fill="#e2e8f0">DataSamplingPage</text>
</g>
<!-- navigation&#45;&gt;hidden_DataSampling -->
<g id="edge45" class="edge">
<title>navigation&#45;&gt;hidden_DataSampling</title>
<path fill="none" stroke="#fb923c" stroke-width="1.3" stroke-dasharray="5,2" d="M144.18,-1251.25C174.86,-1285.29 243.91,-1355.72 318,-1390 347.47,-1403.63 382.25,-1411.3 413.08,-1415.6"/>
<polygon fill="#fb923c" stroke="#fb923c" stroke-width="1.3" points="412.95,-1418.41 421.25,-1416.68 413.68,-1412.86 412.95,-1418.41"/>
</g>
<!-- hidden_TimeSeriesAlignment -->
<g id="node47" class="node">
<title>hidden_TimeSeriesAlignment</title>
<path fill="#431407" stroke="#fb923c" d="M581.5,-1377C581.5,-1377 408.5,-1377 408.5,-1377 402.5,-1377 396.5,-1371 396.5,-1365 396.5,-1365 396.5,-1351 396.5,-1351 396.5,-1345 402.5,-1339 408.5,-1339 408.5,-1339 581.5,-1339 581.5,-1339 587.5,-1339 593.5,-1345 593.5,-1351 593.5,-1351 593.5,-1365 593.5,-1365 593.5,-1371 587.5,-1377 581.5,-1377"/>
<text text-anchor="middle" x="495" y="-1361.8" font-family="Segoe UI" font-size="14.00" fill="#e2e8f0">TimeSeriesAlignment</text>
<text text-anchor="middle" x="495" y="-1346.8" font-family="Segoe UI" font-size="14.00" fill="#e2e8f0">TimeSeriesAlignmentPage</text>
</g>
<!-- navigation&#45;&gt;hidden_TimeSeriesAlignment -->
<g id="edge46" class="edge">
<title>navigation&#45;&gt;hidden_TimeSeriesAlignment</title>
<path fill="none" stroke="#fb923c" stroke-width="1.3" stroke-dasharray="5,2" d="M158.65,-1251.07C195.42,-1272.72 259.03,-1307.56 318,-1327 340.37,-1334.38 364.95,-1340.1 388.46,-1344.51"/>
<polygon fill="#fb923c" stroke="#fb923c" stroke-width="1.3" points="388.02,-1347.28 396.39,-1345.96 389.02,-1341.77 388.02,-1347.28"/>
</g>
<!-- hidden_ExportPresets -->
<g id="node48" class="node">
<title>hidden_ExportPresets</title>
<path fill="#431407" stroke="#fb923c" d="M556,-1314C556,-1314 434,-1314 434,-1314 428,-1314 422,-1308 422,-1302 422,-1302 422,-1288 422,-1288 422,-1282 428,-1276 434,-1276 434,-1276 556,-1276 556,-1276 562,-1276 568,-1282 568,-1288 568,-1288 568,-1302 568,-1302 568,-1308 562,-1314 556,-1314"/>
<text text-anchor="middle" x="495" y="-1298.8" font-family="Segoe UI" font-size="14.00" fill="#e2e8f0">ExportPresets</text>
<text text-anchor="middle" x="495" y="-1283.8" font-family="Segoe UI" font-size="14.00" fill="#e2e8f0">ExportPresetsPage</text>
</g>
<!-- navigation&#45;&gt;hidden_ExportPresets -->
<g id="edge47" class="edge">
<title>navigation&#45;&gt;hidden_ExportPresets</title>
<path fill="none" stroke="#fb923c" stroke-width="1.3" stroke-dasharray="5,2" d="M197.73,-1244.07C259.42,-1254.68 349.15,-1270.1 413.68,-1281.19"/>
<polygon fill="#fb923c" stroke="#fb923c" stroke-width="1.3" points="413.46,-1284 421.81,-1282.59 414.4,-1278.48 413.46,-1284"/>
</g>
<!-- hidden_AnalysisExport -->
<g id="node49" class="node">
<title>hidden_AnalysisExport</title>
<path fill="#431407" stroke="#fb923c" d="M559.5,-1251C559.5,-1251 430.5,-1251 430.5,-1251 424.5,-1251 418.5,-1245 418.5,-1239 418.5,-1239 418.5,-1225 418.5,-1225 418.5,-1219 424.5,-1213 430.5,-1213 430.5,-1213 559.5,-1213 559.5,-1213 565.5,-1213 571.5,-1219 571.5,-1225 571.5,-1225 571.5,-1239 571.5,-1239 571.5,-1245 565.5,-1251 559.5,-1251"/>
<text text-anchor="middle" x="495" y="-1235.8" font-family="Segoe UI" font-size="14.00" fill="#e2e8f0">AnalysisExport</text>
<text text-anchor="middle" x="495" y="-1220.8" font-family="Segoe UI" font-size="14.00" fill="#e2e8f0">AnalysisExportPage</text>
</g>
<!-- navigation&#45;&gt;hidden_AnalysisExport -->
<g id="edge48" class="edge">
<title>navigation&#45;&gt;hidden_AnalysisExport</title>
<path fill="none" stroke="#fb923c" stroke-width="1.3" stroke-dasharray="5,2" d="M197.73,-1232C258.33,-1232 345.97,-1232 410.21,-1232"/>
<polygon fill="#fb923c" stroke="#fb923c" stroke-width="1.3" points="410.32,-1234.8 418.32,-1232 410.32,-1229.2 410.32,-1234.8"/>
</g>
<!-- hidden_AnalysisExportWizard -->
<g id="node50" class="node">
<title>hidden_AnalysisExportWizard</title>
<path fill="#431407" stroke="#fb923c" d="M583,-1188C583,-1188 407,-1188 407,-1188 401,-1188 395,-1182 395,-1176 395,-1176 395,-1162 395,-1162 395,-1156 401,-1150 407,-1150 407,-1150 583,-1150 583,-1150 589,-1150 595,-1156 595,-1162 595,-1162 595,-1176 595,-1176 595,-1182 589,-1188 583,-1188"/>
<text text-anchor="middle" x="495" y="-1172.8" font-family="Segoe UI" font-size="14.00" fill="#e2e8f0">AnalysisExportWizard</text>
<text text-anchor="middle" x="495" y="-1157.8" font-family="Segoe UI" font-size="14.00" fill="#e2e8f0">AnalysisExportWizardPage</text>
</g>
<!-- navigation&#45;&gt;hidden_AnalysisExportWizard -->
<g id="edge49" class="edge">
<title>navigation&#45;&gt;hidden_AnalysisExportWizard</title>
<path fill="none" stroke="#fb923c" stroke-width="1.3" stroke-dasharray="5,2" d="M197.73,-1219.93C251.24,-1210.73 325.84,-1197.91 386.8,-1187.43"/>
<polygon fill="#fb923c" stroke="#fb923c" stroke-width="1.3" points="387.51,-1190.15 394.92,-1186.03 386.56,-1184.63 387.51,-1190.15"/>
</g>
<!-- hidden_EventReplay -->
<g id="node51" class="node">
<title>hidden_EventReplay</title>
<path fill="#431407" stroke="#fb923c" d="M551,-1125C551,-1125 439,-1125 439,-1125 433,-1125 427,-1119 427,-1113 427,-1113 427,-1099 427,-1099 427,-1093 433,-1087 439,-1087 439,-1087 551,-1087 551,-1087 557,-1087 563,-1093 563,-1099 563,-1099 563,-1113 563,-1113 563,-1119 557,-1125 551,-1125"/>
<text text-anchor="middle" x="495" y="-1109.8" font-family="Segoe UI" font-size="14.00" fill="#e2e8f0">EventReplay</text>
<text text-anchor="middle" x="495" y="-1094.8" font-family="Segoe UI" font-size="14.00" fill="#e2e8f0">EventReplayPage</text>
</g>
<!-- navigation&#45;&gt;hidden_EventReplay -->
<g id="edge50" class="edge">
<title>navigation&#45;&gt;hidden_EventReplay</title>
<path fill="none" stroke="#fb923c" stroke-width="1.3" stroke-dasharray="5,2" d="M197.65,-1220.8C216.37,-1216.05 236.08,-1209.37 253,-1200 287.93,-1180.66 282.42,-1156.11 318,-1138 348.87,-1122.29 386.26,-1114.19 418.62,-1110.06"/>
<polygon fill="#fb923c" stroke="#fb923c" stroke-width="1.3" points="419.12,-1112.82 426.73,-1109.09 418.45,-1107.26 419.12,-1112.82"/>
</g>
<!-- hidden_AdvancedAnalytics -->
<g id="node52" class="node">
<title>hidden_AdvancedAnalytics</title>
<path fill="#431407" stroke="#fb923c" d="M573.5,-1062C573.5,-1062 416.5,-1062 416.5,-1062 410.5,-1062 404.5,-1056 404.5,-1050 404.5,-1050 404.5,-1036 404.5,-1036 404.5,-1030 410.5,-1024 416.5,-1024 416.5,-1024 573.5,-1024 573.5,-1024 579.5,-1024 585.5,-1030 585.5,-1036 585.5,-1036 585.5,-1050 585.5,-1050 585.5,-1056 579.5,-1062 573.5,-1062"/>
<text text-anchor="middle" x="495" y="-1046.8" font-family="Segoe UI" font-size="14.00" fill="#e2e8f0">AdvancedAnalytics</text>
<text text-anchor="middle" x="495" y="-1031.8" font-family="Segoe UI" font-size="14.00" fill="#e2e8f0">AdvancedAnalyticsPage</text>
</g>
<!-- navigation&#45;&gt;hidden_AdvancedAnalytics -->
<g id="edge51" class="edge">
<title>navigation&#45;&gt;hidden_AdvancedAnalytics</title>
<path fill="none" stroke="#fb923c" stroke-width="1.3" stroke-dasharray="5,2" d="M197.7,-1224.87C217.15,-1220.18 237.23,-1212.5 253,-1200 302.06,-1161.09 267.61,-1112.17 318,-1075 340.41,-1058.47 368.7,-1049.6 396.02,-1045.04"/>
<polygon fill="#fb923c" stroke="#fb923c" stroke-width="1.3" points="396.58,-1047.78 404.07,-1043.81 395.74,-1042.25 396.58,-1047.78"/>
</g>
<!-- hidden_DataCalendar -->
<g id="node53" class="node">
<title>hidden_DataCalendar</title>
<path fill="#431407" stroke="#fb923c" d="M555,-999C555,-999 435,-999 435,-999 429,-999 423,-993 423,-987 423,-987 423,-973 423,-973 423,-967 429,-961 435,-961 435,-961 555,-961 555,-961 561,-961 567,-967 567,-973 567,-973 567,-987 567,-987 567,-993 561,-999 555,-999"/>
<text text-anchor="middle" x="495" y="-983.8" font-family="Segoe UI" font-size="14.00" fill="#e2e8f0">DataCalendar</text>
<text text-anchor="middle" x="495" y="-968.8" font-family="Segoe UI" font-size="14.00" fill="#e2e8f0">DataCalendarPage</text>
</g>
<!-- navigation&#45;&gt;hidden_DataCalendar -->
<g id="edge52" class="edge">
<title>navigation&#45;&gt;hidden_DataCalendar</title>
<path fill="none" stroke="#fb923c" stroke-width="1.3" stroke-dasharray="5,2" d="M197.61,-1226.6C217.51,-1221.99 237.86,-1213.93 253,-1200 318.06,-1140.14 250.89,-1069.55 318,-1012 344.3,-989.45 381.09,-980.47 414.24,-977.53"/>
<polygon fill="#fb923c" stroke="#fb923c" stroke-width="1.3" points="414.82,-980.29 422.59,-976.9 414.4,-974.71 414.82,-980.29"/>
</g>
<!-- hidden_StorageOptimization -->
<g id="node54" class="node">
<title>hidden_StorageOptimization</title>
<path fill="#431407" stroke="#fb923c" d="M579,-936C579,-936 411,-936 411,-936 405,-936 399,-930 399,-924 399,-924 399,-910 399,-910 399,-904 405,-898 411,-898 411,-898 579,-898 579,-898 585,-898 591,-904 591,-910 591,-910 591,-924 591,-924 591,-930 585,-936 579,-936"/>
<text text-anchor="middle" x="495" y="-920.8" font-family="Segoe UI" font-size="14.00" fill="#e2e8f0">StorageOptimization</text>
<text text-anchor="middle" x="495" y="-905.8" font-family="Segoe UI" font-size="14.00" fill="#e2e8f0">StorageOptimizationPage</text>
</g>
<!-- navigation&#45;&gt;hidden_StorageOptimization -->
<g id="edge53" class="edge">
<title>navigation&#45;&gt;hidden_StorageOptimization</title>
<path fill="none" stroke="#fb923c" stroke-width="1.3" stroke-dasharray="5,2" d="M197.5,-1227.72C217.76,-1223.2 238.33,-1214.9 253,-1200 333.84,-1117.88 232.45,-1026.21 318,-949 337.85,-931.09 364.25,-921.6 390.56,-916.9"/>
<polygon fill="#fb923c" stroke="#fb923c" stroke-width="1.3" points="391.26,-919.63 398.71,-915.6 390.37,-914.1 391.26,-919.63"/>
</g>
<!-- hidden_RetentionAssurance -->
<g id="node55" class="node">
<title>hidden_RetentionAssurance</title>
<path fill="#431407" stroke="#fb923c" d="M577,-873C577,-873 413,-873 413,-873 407,-873 401,-867 401,-861 401,-861 401,-847 401,-847 401,-841 407,-835 413,-835 413,-835 577,-835 577,-835 583,-835 589,-841 589,-847 589,-847 589,-861 589,-861 589,-867 583,-873 577,-873"/>
<text text-anchor="middle" x="495" y="-857.8" font-family="Segoe UI" font-size="14.00" fill="#e2e8f0">RetentionAssurance</text>
<text text-anchor="middle" x="495" y="-842.8" font-family="Segoe UI" font-size="14.00" fill="#e2e8f0">RetentionAssurancePage</text>
</g>
<!-- navigation&#45;&gt;hidden_RetentionAssurance -->
<g id="edge54" class="edge">
<title>navigation&#45;&gt;hidden_RetentionAssurance</title>
<path fill="none" stroke="#fb923c" stroke-width="1.3" stroke-dasharray="5,2" d="M197.5,-1228.49C218,-1224.03 238.72,-1215.58 253,-1200 301.15,-1147.48 264.77,-933.37 318,-886 338.48,-867.77 365.77,-858.31 392.73,-853.74"/>
<polygon fill="#fb923c" stroke="#fb923c" stroke-width="1.3" points="393.21,-856.5 400.7,-852.52 392.37,-850.96 393.21,-856.5"/>
</g>
<!-- hidden_MessagingHub -->
<g id="node56" class="node">
<title>hidden_MessagingHub</title>
<path fill="#431407" stroke="#fb923c" d="M559,-810C559,-810 431,-810 431,-810 425,-810 419,-804 419,-798 419,-798 419,-784 419,-784 419,-778 425,-772 431,-772 431,-772 559,-772 559,-772 565,-772 571,-778 571,-784 571,-784 571,-798 571,-798 571,-804 565,-810 559,-810"/>
<text text-anchor="middle" x="495" y="-794.8" font-family="Segoe UI" font-size="14.00" fill="#e2e8f0">MessagingHub</text>
<text text-anchor="middle" x="495" y="-779.8" font-family="Segoe UI" font-size="14.00" fill="#e2e8f0">MessagingHubPage</text>
</g>
<!-- navigation&#45;&gt;hidden_MessagingHub -->
<g id="edge55" class="edge">
<title>navigation&#45;&gt;hidden_MessagingHub</title>
<path fill="none" stroke="#fb923c" stroke-width="1.3" stroke-dasharray="5,2" d="M197.65,-1228.62C218.15,-1224.17 238.84,-1215.69 253,-1200 309.97,-1136.9 256.94,-882.15 318,-823 342.26,-799.49 377.69,-790.19 410.4,-787.26"/>
<polygon fill="#fb923c" stroke="#fb923c" stroke-width="1.3" points="410.88,-790.03 418.65,-786.64 410.47,-784.44 410.88,-790.03"/>
</g>
<!-- hidden_ResearchShell -->
<g id="node57" class="node">
<title>hidden_ResearchShell</title>
<path fill="#431407" stroke="#fb923c" d="M594,-747C594,-747 396,-747 396,-747 390,-747 384,-741 384,-735 384,-735 384,-721 384,-721 384,-715 390,-709 396,-709 396,-709 594,-709 594,-709 600,-709 606,-715 606,-721 606,-721 606,-735 606,-735 606,-741 600,-747 594,-747"/>
<text text-anchor="middle" x="495" y="-731.8" font-family="Segoe UI" font-size="14.00" fill="#e2e8f0">ResearchShell</text>
<text text-anchor="middle" x="495" y="-716.8" font-family="Segoe UI" font-size="14.00" fill="#e2e8f0">ResearchWorkspaceShellPage</text>
</g>
<!-- navigation&#45;&gt;hidden_ResearchShell -->
<g id="edge56" class="edge">
<title>navigation&#45;&gt;hidden_ResearchShell</title>
<path fill="none" stroke="#fb923c" stroke-width="1.3" stroke-dasharray="5,2" d="M197.61,-1228.95C218.23,-1224.53 239,-1215.98 253,-1200 318.12,-1125.65 247.01,-828.77 318,-760 333.79,-744.7 354.31,-735.42 375.74,-729.99"/>
<polygon fill="#fb923c" stroke="#fb923c" stroke-width="1.3" points="376.5,-732.69 383.67,-728.16 375.24,-727.23 376.5,-732.69"/>
</g>
<!-- hidden_TradingShell -->
<g id="node58" class="node">
<title>hidden_TradingShell</title>
<path fill="#431407" stroke="#fb923c" d="M588.5,-684C588.5,-684 401.5,-684 401.5,-684 395.5,-684 389.5,-678 389.5,-672 389.5,-672 389.5,-658 389.5,-658 389.5,-652 395.5,-646 401.5,-646 401.5,-646 588.5,-646 588.5,-646 594.5,-646 600.5,-652 600.5,-658 600.5,-658 600.5,-672 600.5,-672 600.5,-678 594.5,-684 588.5,-684"/>
<text text-anchor="middle" x="495" y="-668.8" font-family="Segoe UI" font-size="14.00" fill="#e2e8f0">TradingShell</text>
<text text-anchor="middle" x="495" y="-653.8" font-family="Segoe UI" font-size="14.00" fill="#e2e8f0">TradingWorkspaceShellPage</text>
</g>
<!-- navigation&#45;&gt;hidden_TradingShell -->
<g id="edge57" class="edge">
<title>navigation&#45;&gt;hidden_TradingShell</title>
<path fill="none" stroke="#fb923c" stroke-width="1.3" stroke-dasharray="5,2" d="M197.82,-1229.13C218.46,-1224.72 239.18,-1216.14 253,-1200 326.31,-1114.39 236.48,-774.83 318,-697 335.26,-680.53 358,-671.06 381.39,-665.87"/>
<polygon fill="#fb923c" stroke="#fb923c" stroke-width="1.3" points="382.05,-668.6 389.34,-664.28 380.95,-663.11 382.05,-668.6"/>
</g>
<!-- hidden_Workspaces -->
<g id="node59" class="node">
<title>hidden_Workspaces</title>
<path fill="#431407" stroke="#fb923c" d="M545.5,-621C545.5,-621 444.5,-621 444.5,-621 438.5,-621 432.5,-615 432.5,-609 432.5,-609 432.5,-595 432.5,-595 432.5,-589 438.5,-583 444.5,-583 444.5,-583 545.5,-583 545.5,-583 551.5,-583 557.5,-589 557.5,-595 557.5,-595 557.5,-609 557.5,-609 557.5,-615 551.5,-621 545.5,-621"/>
<text text-anchor="middle" x="495" y="-605.8" font-family="Segoe UI" font-size="14.00" fill="#e2e8f0">Workspaces</text>
<text text-anchor="middle" x="495" y="-590.8" font-family="Segoe UI" font-size="14.00" fill="#e2e8f0">WorkspacePage</text>
</g>
<!-- navigation&#45;&gt;hidden_Workspaces -->
<g id="edge58" class="edge">
<title>navigation&#45;&gt;hidden_Workspaces</title>
<path fill="none" stroke="#fb923c" stroke-width="1.3" stroke-dasharray="5,2" d="M197.64,-1229.33C218.4,-1224.95 239.23,-1216.33 253,-1200 334.61,-1103.21 225.61,-720.56 318,-634 346.13,-607.65 388.35,-599.32 424.39,-597.74"/>
<polygon fill="#fb923c" stroke="#fb923c" stroke-width="1.3" points="424.54,-600.54 432.45,-597.5 424.37,-594.94 424.54,-600.54"/>
</g>
<!-- hidden_NotificationCenter -->
<g id="node60" class="node">
<title>hidden_NotificationCenter</title>
<path fill="#431407" stroke="#fb923c" d="M570.5,-558C570.5,-558 419.5,-558 419.5,-558 413.5,-558 407.5,-552 407.5,-546 407.5,-546 407.5,-532 407.5,-532 407.5,-526 413.5,-520 419.5,-520 419.5,-520 570.5,-520 570.5,-520 576.5,-520 582.5,-526 582.5,-532 582.5,-532 582.5,-546 582.5,-546 582.5,-552 576.5,-558 570.5,-558"/>
<text text-anchor="middle" x="495" y="-542.8" font-family="Segoe UI" font-size="14.00" fill="#e2e8f0">NotificationCenter</text>
<text text-anchor="middle" x="495" y="-527.8" font-family="Segoe UI" font-size="14.00" fill="#e2e8f0">NotificationCenterPage</text>
</g>
<!-- navigation&#45;&gt;hidden_NotificationCenter -->
<g id="edge59" class="edge">
<title>navigation&#45;&gt;hidden_NotificationCenter</title>
<path fill="none" stroke="#fb923c" stroke-width="1.3" stroke-dasharray="5,2" d="M197.75,-1229.41C218.51,-1225.04 239.32,-1216.4 253,-1200 343,-1092.08 214.73,-666.3 318,-571 339.8,-550.88 369.83,-541.32 398.92,-537.24"/>
<polygon fill="#fb923c" stroke="#fb923c" stroke-width="1.3" points="399.5,-539.99 407.1,-536.23 398.81,-534.43 399.5,-539.99"/>
</g>
<!-- hidden_Help -->
<g id="node61" class="node">
<title>hidden_Help</title>
<path fill="#431407" stroke="#fb923c" d="M523.5,-495C523.5,-495 466.5,-495 466.5,-495 460.5,-495 454.5,-489 454.5,-483 454.5,-483 454.5,-469 454.5,-469 454.5,-463 460.5,-457 466.5,-457 466.5,-457 523.5,-457 523.5,-457 529.5,-457 535.5,-463 535.5,-469 535.5,-469 535.5,-483 535.5,-483 535.5,-489 529.5,-495 523.5,-495"/>
<text text-anchor="middle" x="495" y="-479.8" font-family="Segoe UI" font-size="14.00" fill="#e2e8f0">Help</text>
<text text-anchor="middle" x="495" y="-464.8" font-family="Segoe UI" font-size="14.00" fill="#e2e8f0">HelpPage</text>
</g>
<!-- navigation&#45;&gt;hidden_Help -->
<g id="edge60" class="edge">
<title>navigation&#45;&gt;hidden_Help</title>
<path fill="none" stroke="#fb923c" stroke-width="1.3" stroke-dasharray="5,2" d="M197.82,-1229.48C218.59,-1225.11 239.38,-1216.46 253,-1200 294.59,-1149.74 278.34,-678.36 289,-614 296.98,-565.81 281.99,-541 318,-508 352.31,-476.56 406.75,-470.96 446,-471.73"/>
<polygon fill="#fb923c" stroke="#fb923c" stroke-width="1.3" points="446.05,-474.53 454.14,-471.98 446.23,-468.93 446.05,-474.53"/>
</g>
<!-- hidden_Welcome -->
<g id="node62" class="node">
<title>hidden_Welcome</title>
<path fill="#431407" stroke="#fb923c" d="M539,-432C539,-432 451,-432 451,-432 445,-432 439,-426 439,-420 439,-420 439,-406 439,-406 439,-400 445,-394 451,-394 451,-394 539,-394 539,-394 545,-394 551,-400 551,-406 551,-406 551,-420 551,-420 551,-426 545,-432 539,-432"/>
<text text-anchor="middle" x="495" y="-416.8" font-family="Segoe UI" font-size="14.00" fill="#e2e8f0">Welcome</text>
<text text-anchor="middle" x="495" y="-401.8" font-family="Segoe UI" font-size="14.00" fill="#e2e8f0">WelcomePage</text>
</g>
<!-- navigation&#45;&gt;hidden_Welcome -->
<g id="edge61" class="edge">
<title>navigation&#45;&gt;hidden_Welcome</title>
<path fill="none" stroke="#fb923c" stroke-width="1.3" stroke-dasharray="5,2" d="M197.5,-1229.56C218.38,-1225.21 239.32,-1216.55 253,-1200 306.64,-1135.1 258.38,-504.45 318,-445 347.03,-416.05 392.92,-408.45 430.57,-407.88"/>
<polygon fill="#fb923c" stroke="#fb923c" stroke-width="1.3" points="430.96,-410.67 438.96,-407.86 430.95,-405.07 430.96,-410.67"/>
</g>
<!-- hidden_CredentialManagement -->
<g id="node63" class="node">
<title>hidden_CredentialManagement</title>
<path fill="#431407" stroke="#fb923c" d="M588.5,-369C588.5,-369 401.5,-369 401.5,-369 395.5,-369 389.5,-363 389.5,-357 389.5,-357 389.5,-343 389.5,-343 389.5,-337 395.5,-331 401.5,-331 401.5,-331 588.5,-331 588.5,-331 594.5,-331 600.5,-337 600.5,-343 600.5,-343 600.5,-357 600.5,-357 600.5,-363 594.5,-369 588.5,-369"/>
<text text-anchor="middle" x="495" y="-353.8" font-family="Segoe UI" font-size="14.00" fill="#e2e8f0">CredentialManagement</text>
<text text-anchor="middle" x="495" y="-338.8" font-family="Segoe UI" font-size="14.00" fill="#e2e8f0">CredentialManagementPage</text>
</g>
<!-- navigation&#45;&gt;hidden_CredentialManagement -->
<g id="edge62" class="edge">
<title>navigation&#45;&gt;hidden_CredentialManagement</title>
<path fill="none" stroke="#fb923c" stroke-width="1.3" stroke-dasharray="5,2" d="M197.52,-1229.57C218.4,-1225.23 239.34,-1216.57 253,-1200 311.01,-1129.66 254.67,-447.59 318,-382 334.76,-364.64 357.57,-354.87 381.2,-349.68"/>
<polygon fill="#fb923c" stroke="#fb923c" stroke-width="1.3" points="381.94,-352.39 389.24,-348.09 380.85,-346.89 381.94,-352.39"/>
</g>
<!-- hidden_KeyboardShortcuts -->
<g id="node64" class="node">
<title>hidden_KeyboardShortcuts</title>
<path fill="#431407" stroke="#fb923c" d="M573.5,-306C573.5,-306 416.5,-306 416.5,-306 410.5,-306 404.5,-300 404.5,-294 404.5,-294 404.5,-280 404.5,-280 404.5,-274 410.5,-268 416.5,-268 416.5,-268 573.5,-268 573.5,-268 579.5,-268 585.5,-274 585.5,-280 585.5,-280 585.5,-294 585.5,-294 585.5,-300 579.5,-306 573.5,-306"/>
<text text-anchor="middle" x="495" y="-290.8" font-family="Segoe UI" font-size="14.00" fill="#e2e8f0">KeyboardShortcuts</text>
<text text-anchor="middle" x="495" y="-275.8" font-family="Segoe UI" font-size="14.00" fill="#e2e8f0">KeyboardShortcutsPage</text>
</g>
<!-- navigation&#45;&gt;hidden_KeyboardShortcuts -->
<g id="edge63" class="edge">
<title>navigation&#45;&gt;hidden_KeyboardShortcuts</title>
<path fill="none" stroke="#fb923c" stroke-width="1.3" stroke-dasharray="5,2" d="M197.58,-1229.62C218.46,-1225.28 239.39,-1216.61 253,-1200 315.23,-1124.09 249.67,-389.46 318,-319 338.36,-298.01 367.54,-288.13 396.31,-284.03"/>
<polygon fill="#fb923c" stroke="#fb923c" stroke-width="1.3" points="396.82,-286.79 404.41,-283.02 396.12,-281.23 396.82,-286.79"/>
</g>
<!-- hidden_SetupWizard -->
<g id="node65" class="node">
<title>hidden_SetupWizard</title>
<path fill="#431407" stroke="#fb923c" d="M551.5,-243C551.5,-243 438.5,-243 438.5,-243 432.5,-243 426.5,-237 426.5,-231 426.5,-231 426.5,-217 426.5,-217 426.5,-211 432.5,-205 438.5,-205 438.5,-205 551.5,-205 551.5,-205 557.5,-205 563.5,-211 563.5,-217 563.5,-217 563.5,-231 563.5,-231 563.5,-237 557.5,-243 551.5,-243"/>
<text text-anchor="middle" x="495" y="-227.8" font-family="Segoe UI" font-size="14.00" fill="#e2e8f0">SetupWizard</text>
<text text-anchor="middle" x="495" y="-212.8" font-family="Segoe UI" font-size="14.00" fill="#e2e8f0">SetupWizardPage</text>
</g>
<!-- navigation&#45;&gt;hidden_SetupWizard -->
<g id="edge64" class="edge">
<title>navigation&#45;&gt;hidden_SetupWizard</title>
<path fill="none" stroke="#fb923c" stroke-width="1.3" stroke-dasharray="5,2" d="M197.63,-1229.66C218.52,-1225.32 239.43,-1216.64 253,-1200 319.46,-1118.53 244.57,-331.24 318,-256 343.6,-229.76 383.01,-220.92 418.05,-219.01"/>
<polygon fill="#fb923c" stroke="#fb923c" stroke-width="1.3" points="418.51,-221.79 426.39,-218.67 418.28,-216.19 418.51,-221.79"/>
</g>
<!-- hidden_AddProviderWizard -->
<g id="node66" class="node">
<title>hidden_AddProviderWizard</title>
<path fill="#431407" stroke="#fb923c" d="M573.5,-180C573.5,-180 416.5,-180 416.5,-180 410.5,-180 404.5,-174 404.5,-168 404.5,-168 404.5,-154 404.5,-154 404.5,-148 410.5,-142 416.5,-142 416.5,-142 573.5,-142 573.5,-142 579.5,-142 585.5,-148 585.5,-154 585.5,-154 585.5,-168 585.5,-168 585.5,-174 579.5,-180 573.5,-180"/>
<text text-anchor="middle" x="495" y="-164.8" font-family="Segoe UI" font-size="14.00" fill="#e2e8f0">AddProviderWizard</text>
<text text-anchor="middle" x="495" y="-149.8" font-family="Segoe UI" font-size="14.00" fill="#e2e8f0">AddProviderWizardPage</text>
</g>
<!-- navigation&#45;&gt;hidden_AddProviderWizard -->
<g id="edge65" class="edge">
<title>navigation&#45;&gt;hidden_AddProviderWizard</title>
<path fill="none" stroke="#fb923c" stroke-width="1.3" stroke-dasharray="5,2" d="M197.67,-1229.69C218.56,-1225.35 239.46,-1216.67 253,-1200 323.69,-1112.97 239.38,-272.94 318,-193 338.4,-172.26 367.45,-162.41 396.07,-158.26"/>
<polygon fill="#fb923c" stroke="#fb923c" stroke-width="1.3" points="396.54,-161.03 404.13,-157.24 395.84,-155.47 396.54,-161.03"/>
</g>
<!-- hidden_ActivityLog -->
<g id="node67" class="node">
<title>hidden_ActivityLog</title>
<path fill="#431407" stroke="#fb923c" d="M545.5,-117C545.5,-117 444.5,-117 444.5,-117 438.5,-117 432.5,-111 432.5,-105 432.5,-105 432.5,-91 432.5,-91 432.5,-85 438.5,-79 444.5,-79 444.5,-79 545.5,-79 545.5,-79 551.5,-79 557.5,-85 557.5,-91 557.5,-91 557.5,-105 557.5,-105 557.5,-111 551.5,-117 545.5,-117"/>
<text text-anchor="middle" x="495" y="-101.8" font-family="Segoe UI" font-size="14.00" fill="#e2e8f0">ActivityLog</text>
<text text-anchor="middle" x="495" y="-86.8" font-family="Segoe UI" font-size="14.00" fill="#e2e8f0">ActivityLogPage</text>
</g>
<!-- navigation&#45;&gt;hidden_ActivityLog -->
<g id="edge66" class="edge">
<title>navigation&#45;&gt;hidden_ActivityLog</title>
<path fill="none" stroke="#fb923c" stroke-width="1.3" stroke-dasharray="5,2" d="M197.7,-1229.72C218.59,-1225.38 239.49,-1216.69 253,-1200 327.94,-1107.42 234.03,-214.47 318,-130 345.28,-102.56 387.69,-94.25 424.04,-92.95"/>
<polygon fill="#fb923c" stroke="#fb923c" stroke-width="1.3" points="424.24,-95.74 432.17,-92.77 424.11,-90.15 424.24,-95.74"/>
</g>
<!-- hidden_SecurityMaster -->
<g id="node68" class="node">
<title>hidden_SecurityMaster</title>
<path fill="#431407" stroke="#fb923c" d="M560,-54C560,-54 430,-54 430,-54 424,-54 418,-48 418,-42 418,-42 418,-28 418,-28 418,-22 424,-16 430,-16 430,-16 560,-16 560,-16 566,-16 572,-22 572,-28 572,-28 572,-42 572,-42 572,-48 566,-54 560,-54"/>
<text text-anchor="middle" x="495" y="-38.8" font-family="Segoe UI" font-size="14.00" fill="#e2e8f0">SecurityMaster</text>
<text text-anchor="middle" x="495" y="-23.8" font-family="Segoe UI" font-size="14.00" fill="#e2e8f0">SecurityMasterPage</text>
</g>
<!-- navigation&#45;&gt;hidden_SecurityMaster -->
<g id="edge67" class="edge">
<title>navigation&#45;&gt;hidden_SecurityMaster</title>
<path fill="none" stroke="#fb923c" stroke-width="1.3" stroke-dasharray="5,2" d="M197.73,-1229.74C218.63,-1225.41 239.52,-1216.71 253,-1200 332.18,-1101.87 228.5,-155.83 318,-67 341.88,-43.3 377.06,-33.93 409.7,-31"/>
<polygon fill="#fb923c" stroke="#fb923c" stroke-width="1.3" points="410.17,-33.77 417.94,-30.39 409.75,-28.19 410.17,-33.77"/>
</g>
<!-- page_Dashboard -->
<g id="node5" class="node">
<title>page_Dashboard</title>
<path fill="#1e293b" stroke="#475569" d="M1003.5,-2477C1003.5,-2477 806.5,-2477 806.5,-2477 800.5,-2477 794.5,-2471 794.5,-2465 794.5,-2465 794.5,-2451 794.5,-2451 794.5,-2445 800.5,-2439 806.5,-2439 806.5,-2439 1003.5,-2439 1003.5,-2439 1009.5,-2439 1015.5,-2445 1015.5,-2451 1015.5,-2451 1015.5,-2465 1015.5,-2465 1015.5,-2471 1009.5,-2477 1003.5,-2477"/>
<text text-anchor="middle" x="905" y="-2461.8" font-family="Segoe UI" font-size="14.00" fill="#e2e8f0">Dashboard</text>
<text text-anchor="middle" x="905" y="-2446.8" font-family="Segoe UI" font-size="14.00" fill="#e2e8f0">Dashboard → DashboardPage</text>
</g>
<!-- workspace_1&#45;&gt;page_Dashboard -->
<g id="edge3" class="edge">
<title>workspace_1&#45;&gt;page_Dashboard</title>
<path fill="none" stroke="#94a3b8" stroke-width="1.3" d="M495.98,-3162.91C497.03,-3071.07 514.6,-2671.71 737,-2490 751.3,-2478.31 768.59,-2470.43 786.54,-2465.19"/>
<polygon fill="#94a3b8" stroke="#94a3b8" stroke-width="1.3" points="787.28,-2467.89 794.27,-2463.1 785.82,-2462.48 787.28,-2467.89"/>
</g>
<!-- page_LiveData -->
<g id="node6" class="node">
<title>page_LiveData</title>
<path fill="#1e293b" stroke="#475569" d="M1011.5,-2540C1011.5,-2540 798.5,-2540 798.5,-2540 792.5,-2540 786.5,-2534 786.5,-2528 786.5,-2528 786.5,-2514 786.5,-2514 786.5,-2508 792.5,-2502 798.5,-2502 798.5,-2502 1011.5,-2502 1011.5,-2502 1017.5,-2502 1023.5,-2508 1023.5,-2514 1023.5,-2514 1023.5,-2528 1023.5,-2528 1023.5,-2534 1017.5,-2540 1011.5,-2540"/>
<text text-anchor="middle" x="905" y="-2524.8" font-family="Segoe UI" font-size="14.00" fill="#e2e8f0">LiveData</text>
<text text-anchor="middle" x="905" y="-2509.8" font-family="Segoe UI" font-size="14.00" fill="#e2e8f0">LiveData → LiveDataViewerPage</text>
</g>
<!-- workspace_1&#45;&gt;page_LiveData -->
<g id="edge4" class="edge">
<title>workspace_1&#45;&gt;page_LiveData</title>
<path fill="none" stroke="#94a3b8" stroke-width="1.3" d="M496.85,-3162.74C501.77,-3076.01 534.15,-2718.74 737,-2553 749.17,-2543.06 763.49,-2535.87 778.55,-2530.71"/>
<polygon fill="#94a3b8" stroke="#94a3b8" stroke-width="1.3" points="779.71,-2533.29 786.49,-2528.2 778.02,-2527.95 779.71,-2533.29"/>
</g>
<!-- page_Charts -->
<g id="node7" class="node">
<title>page_Charts</title>
<path fill="#1e293b" stroke="#475569" d="M981,-2603C981,-2603 829,-2603 829,-2603 823,-2603 817,-2597 817,-2591 817,-2591 817,-2577 817,-2577 817,-2571 823,-2565 829,-2565 829,-2565 981,-2565 981,-2565 987,-2565 993,-2571 993,-2577 993,-2577 993,-2591 993,-2591 993,-2597 987,-2603 981,-2603"/>
<text text-anchor="middle" x="905" y="-2587.8" font-family="Segoe UI" font-size="14.00" fill="#e2e8f0">Charts</text>
<text text-anchor="middle" x="905" y="-2572.8" font-family="Segoe UI" font-size="14.00" fill="#e2e8f0">Charts → ChartingPage</text>
</g>
<!-- workspace_1&#45;&gt;page_Charts -->
<g id="edge5" class="edge">
<title>workspace_1&#45;&gt;page_Charts</title>
<path fill="none" stroke="#94a3b8" stroke-width="1.3" d="M497.83,-3162.85C506.64,-3081.89 552.25,-2765.03 737,-2616 757.3,-2599.62 783.48,-2590.74 809.07,-2586.13"/>
<polygon fill="#94a3b8" stroke="#94a3b8" stroke-width="1.3" points="809.54,-2588.89 816.98,-2584.83 808.64,-2583.36 809.54,-2588.89"/>
</g>
<!-- page_QuantScript -->
<g id="node8" class="node">
<title>page_QuantScript</title>
<path fill="#1e293b" stroke="#475569" d="M1011.5,-2666C1011.5,-2666 798.5,-2666 798.5,-2666 792.5,-2666 786.5,-2660 786.5,-2654 786.5,-2654 786.5,-2640 786.5,-2640 786.5,-2634 792.5,-2628 798.5,-2628 798.5,-2628 1011.5,-2628 1011.5,-2628 1017.5,-2628 1023.5,-2634 1023.5,-2640 1023.5,-2640 1023.5,-2654 1023.5,-2654 1023.5,-2660 1017.5,-2666 1011.5,-2666"/>
<text text-anchor="middle" x="905" y="-2650.8" font-family="Segoe UI" font-size="14.00" fill="#e2e8f0">QuantScript</text>
<text text-anchor="middle" x="905" y="-2635.8" font-family="Segoe UI" font-size="14.00" fill="#e2e8f0">QuantScript → QuantScriptPage</text>
</g>
<!-- workspace_1&#45;&gt;page_QuantScript -->
<g id="edge6" class="edge">
<title>workspace_1&#45;&gt;page_QuantScript</title>
<path fill="none" stroke="#94a3b8" stroke-width="1.3" d="M498.9,-3162.93C511.43,-3087.69 568.08,-2809.2 737,-2679 749.25,-2669.56 763.47,-2662.65 778.35,-2657.62"/>
<polygon fill="#94a3b8" stroke="#94a3b8" stroke-width="1.3" points="779.39,-2660.22 786.18,-2655.15 777.71,-2654.88 779.39,-2660.22"/>
</g>
<!-- page_RunMat -->
<g id="node9" class="node">
<title>page_RunMat</title>
<path fill="#1e293b" stroke="#475569" d="M981,-2729C981,-2729 829,-2729 829,-2729 823,-2729 817,-2723 817,-2717 817,-2717 817,-2703 817,-2703 817,-2697 823,-2691 829,-2691 829,-2691 981,-2691 981,-2691 987,-2691 993,-2697 993,-2703 993,-2703 993,-2717 993,-2717 993,-2723 987,-2729 981,-2729"/>
<text text-anchor="middle" x="905" y="-2713.8" font-family="Segoe UI" font-size="14.00" fill="#e2e8f0">RunMat</text>
<text text-anchor="middle" x="905" y="-2698.8" font-family="Segoe UI" font-size="14.00" fill="#e2e8f0">RunMat → RunMatPage</text>
</g>
<!-- workspace_1&#45;&gt;page_RunMat -->
<g id="edge7" class="edge">
<title>workspace_1&#45;&gt;page_RunMat</title>
<path fill="none" stroke="#94a3b8" stroke-width="1.3" d="M500.32,-3162.71C516.98,-3093.15 583.88,-2853.53 737,-2742 757.67,-2726.94 783.47,-2718.41 808.57,-2713.72"/>
<polygon fill="#94a3b8" stroke="#94a3b8" stroke-width="1.3" points="809.27,-2716.44 816.68,-2712.32 808.33,-2710.92 809.27,-2716.44"/>
</g>
<!-- page_StrategyRuns -->
<g id="node10" class="node">
<title>page_StrategyRuns</title>
<path fill="#1e293b" stroke="#475569" d="M1022,-2792C1022,-2792 788,-2792 788,-2792 782,-2792 776,-2786 776,-2780 776,-2780 776,-2766 776,-2766 776,-2760 782,-2754 788,-2754 788,-2754 1022,-2754 1022,-2754 1028,-2754 1034,-2760 1034,-2766 1034,-2766 1034,-2780 1034,-2780 1034,-2786 1028,-2792 1022,-2792"/>
<text text-anchor="middle" x="905" y="-2776.8" font-family="Segoe UI" font-size="14.00" fill="#e2e8f0">StrategyRuns</text>
<text text-anchor="middle" x="905" y="-2761.8" font-family="Segoe UI" font-size="14.00" fill="#e2e8f0">StrategyRuns → StrategyRunsPage</text>
</g>
<!-- workspace_1&#45;&gt;page_StrategyRuns -->
<g id="edge8" class="edge">
<title>workspace_1&#45;&gt;page_StrategyRuns</title>
<path fill="none" stroke="#94a3b8" stroke-width="1.3" d="M508.14,-3162.83C542.37,-3117.08 641.1,-3000.09 701,-2889 722.63,-2848.89 702.17,-2822.38 737,-2793 746.35,-2785.12 757.04,-2778.94 768.41,-2774.19"/>
<polygon fill="#94a3b8" stroke="#94a3b8" stroke-width="1.3" points="769.51,-2776.77 775.96,-2771.27 767.49,-2771.54 769.51,-2776.77"/>
</g>
<!-- workspace_1&#45;&gt;page_StrategyRuns -->
<g id="edge12" class="edge">
<title>workspace_1&#45;&gt;page_StrategyRuns</title>
<path fill="none" stroke="#94a3b8" stroke-width="1.3" d="M519.64,-3162.74C560.91,-3119.75 646.83,-3014.46 701,-2914 722.63,-2873.89 702.17,-2847.38 737,-2818 749.51,-2807.45 764.43,-2799.97 780.13,-2794.59"/>
<polygon fill="#94a3b8" stroke="#94a3b8" stroke-width="1.3" points="781.12,-2797.21 787.9,-2792.11 779.42,-2791.88 781.12,-2797.21"/>
</g>
<!-- page_OrderBook -->
<g id="node11" class="node">
<title>page_OrderBook</title>
<path fill="#1e293b" stroke="#475569" d="M1002.5,-2855C1002.5,-2855 807.5,-2855 807.5,-2855 801.5,-2855 795.5,-2849 795.5,-2843 795.5,-2843 795.5,-2829 795.5,-2829 795.5,-2823 801.5,-2817 807.5,-2817 807.5,-2817 1002.5,-2817 1002.5,-2817 1008.5,-2817 1014.5,-2823 1014.5,-2829 1014.5,-2829 1014.5,-2843 1014.5,-2843 1014.5,-2849 1008.5,-2855 1002.5,-2855"/>
<text text-anchor="middle" x="905" y="-2839.8" font-family="Segoe UI" font-size="14.00" fill="#e2e8f0">OrderBook</text>
<text text-anchor="middle" x="905" y="-2824.8" font-family="Segoe UI" font-size="14.00" fill="#e2e8f0">OrderBook → OrderBookPage</text>
</g>
<!-- workspace_1&#45;&gt;page_OrderBook -->
<g id="edge9" class="edge">
<title>workspace_1&#45;&gt;page_OrderBook</title>
<path fill="none" stroke="#94a3b8" stroke-width="1.3" d="M533.38,-3162.83C580.04,-3136.9 658.83,-3086.18 701,-3020 738.31,-2961.45 686.86,-2916.02 737,-2868 750.9,-2854.69 768.55,-2846.08 787.13,-2840.65"/>
<polygon fill="#94a3b8" stroke="#94a3b8" stroke-width="1.3" points="788.14,-2843.28 795.15,-2838.51 786.7,-2837.87 788.14,-2843.28"/>
</g>
<!-- page_Watchlist -->
<g id="node12" class="node">
<title>page_Watchlist</title>
<path fill="#1e293b" stroke="#475569" d="M991.5,-2918C991.5,-2918 818.5,-2918 818.5,-2918 812.5,-2918 806.5,-2912 806.5,-2906 806.5,-2906 806.5,-2892 806.5,-2892 806.5,-2886 812.5,-2880 818.5,-2880 818.5,-2880 991.5,-2880 991.5,-2880 997.5,-2880 1003.5,-2886 1003.5,-2892 1003.5,-2892 1003.5,-2906 1003.5,-2906 1003.5,-2912 997.5,-2918 991.5,-2918"/>
<text text-anchor="middle" x="905" y="-2902.8" font-family="Segoe UI" font-size="14.00" fill="#e2e8f0">Watchlist</text>
<text text-anchor="middle" x="905" y="-2887.8" font-family="Segoe UI" font-size="14.00" fill="#e2e8f0">Watchlist → WatchlistPage</text>
</g>
<!-- workspace_1&#45;&gt;page_Watchlist -->
<g id="edge10" class="edge">
<title>workspace_1&#45;&gt;page_Watchlist</title>
<path fill="none" stroke="#94a3b8" stroke-width="1.3" d="M557.01,-3167.79C603.27,-3153.86 664.86,-3127.99 701,-3083 744.48,-3028.87 686.86,-2979.02 737,-2931 753.69,-2915.02 775.78,-2905.82 798.42,-2900.75"/>
<polygon fill="#94a3b8" stroke="#94a3b8" stroke-width="1.3" points="799.15,-2903.45 806.44,-2899.12 798.04,-2897.97 799.15,-2903.45"/>
</g>
<!-- page_Backtest -->
<g id="node13" class="node">
<title>page_Backtest</title>
<path fill="#1e293b" stroke="#475569" d="M988.5,-2981C988.5,-2981 821.5,-2981 821.5,-2981 815.5,-2981 809.5,-2975 809.5,-2969 809.5,-2969 809.5,-2955 809.5,-2955 809.5,-2949 815.5,-2943 821.5,-2943 821.5,-2943 988.5,-2943 988.5,-2943 994.5,-2943 1000.5,-2949 1000.5,-2955 1000.5,-2955 1000.5,-2969 1000.5,-2969 1000.5,-2975 994.5,-2981 988.5,-2981"/>
<text text-anchor="middle" x="905" y="-2965.8" font-family="Segoe UI" font-size="14.00" fill="#e2e8f0">Backtest</text>
<text text-anchor="middle" x="905" y="-2950.8" font-family="Segoe UI" font-size="14.00" fill="#e2e8f0">Backtest → BacktestPage</text>
</g>
<!-- workspace_1&#45;&gt;page_Backtest -->
<g id="edge11" class="edge">
<title>workspace_1&#45;&gt;page_Backtest</title>
<path fill="none" stroke="#94a3b8" stroke-width="1.3" d="M557.33,-3178.05C602.83,-3171.91 663.29,-3156.48 701,-3118 741.17,-3077.02 694.57,-3032.64 737,-2994 754.65,-2977.93 777.81,-2968.81 801.24,-2963.87"/>
<polygon fill="#94a3b8" stroke="#94a3b8" stroke-width="1.3" points="801.85,-2966.6 809.19,-2962.35 800.8,-2961.1 801.85,-2966.6"/>
</g>
<!-- page_LeanIntegration -->
<g id="node14" class="node">
<title>page_LeanIntegration</title>
<path fill="#1e293b" stroke="#475569" d="M1038,-3044C1038,-3044 772,-3044 772,-3044 766,-3044 760,-3038 760,-3032 760,-3032 760,-3018 760,-3018 760,-3012 766,-3006 772,-3006 772,-3006 1038,-3006 1038,-3006 1044,-3006 1050,-3012 1050,-3018 1050,-3018 1050,-3032 1050,-3032 1050,-3038 1044,-3044 1038,-3044"/>
<text text-anchor="middle" x="905" y="-3028.8" font-family="Segoe UI" font-size="14.00" fill="#e2e8f0">LeanIntegration</text>
<text text-anchor="middle" x="905" y="-3013.8" font-family="Segoe UI" font-size="14.00" fill="#e2e8f0">LeanIntegration → LeanIntegrationPage</text>
</g>
<!-- workspace_1&#45;&gt;page_LeanIntegration -->
<g id="edge13" class="edge">
<title>workspace_1&#45;&gt;page_LeanIntegration</title>
<path fill="none" stroke="#94a3b8" stroke-width="1.3" d="M557.43,-3183.4C601.81,-3181.29 660.77,-3171.66 701,-3139 731.9,-3113.91 705.88,-3081.82 737,-3057 741.95,-3053.05 747.24,-3049.54 752.78,-3046.42"/>
<polygon fill="#94a3b8" stroke="#94a3b8" stroke-width="1.3" points="754.15,-3048.87 759.93,-3042.68 751.55,-3043.91 754.15,-3048.87"/>
</g>
<!-- page_PortfolioImport -->
<g id="node15" class="node">
<title>page_PortfolioImport</title>
<path fill="#1e293b" stroke="#475569" d="M1032,-3107C1032,-3107 778,-3107 778,-3107 772,-3107 766,-3101 766,-3095 766,-3095 766,-3081 766,-3081 766,-3075 772,-3069 778,-3069 778,-3069 1032,-3069 1032,-3069 1038,-3069 1044,-3075 1044,-3081 1044,-3081 1044,-3095 1044,-3095 1044,-3101 1038,-3107 1032,-3107"/>
<text text-anchor="middle" x="905" y="-3091.8" font-family="Segoe UI" font-size="14.00" fill="#e2e8f0">PortfolioImport</text>
<text text-anchor="middle" x="905" y="-3076.8" font-family="Segoe UI" font-size="14.00" fill="#e2e8f0">PortfolioImport → PortfolioImportPage</text>
</g>
<!-- workspace_1&#45;&gt;page_PortfolioImport -->
<g id="edge14" class="edge">
<title>workspace_1&#45;&gt;page_PortfolioImport</title>
<path fill="none" stroke="#94a3b8" stroke-width="1.3" d="M557.28,-3181.55C599.41,-3179.17 655.7,-3171.8 701,-3151 720.19,-3142.19 717.99,-3129.19 737,-3120 745.12,-3116.08 753.68,-3112.63 762.46,-3109.61"/>
<polygon fill="#94a3b8" stroke="#94a3b8" stroke-width="1.3" points="763.5,-3112.22 770.23,-3107.06 761.75,-3106.9 763.5,-3112.22"/>
</g>
<!-- page_TradingHours -->
<g id="node16" class="node">
<title>page_TradingHours</title>
<path fill="#1e293b" stroke="#475569" d="M1021.5,-3170C1021.5,-3170 788.5,-3170 788.5,-3170 782.5,-3170 776.5,-3164 776.5,-3158 776.5,-3158 776.5,-3144 776.5,-3144 776.5,-3138 782.5,-3132 788.5,-3132 788.5,-3132 1021.5,-3132 1021.5,-3132 1027.5,-3132 1033.5,-3138 1033.5,-3144 1033.5,-3144 1033.5,-3158 1033.5,-3158 1033.5,-3164 1027.5,-3170 1021.5,-3170"/>
<text text-anchor="middle" x="905" y="-3154.8" font-family="Segoe UI" font-size="14.00" fill="#e2e8f0">TradingHours</text>
<text text-anchor="middle" x="905" y="-3139.8" font-family="Segoe UI" font-size="14.00" fill="#e2e8f0">TradingHours → TradingHoursPage</text>
</g>
<!-- workspace_1&#45;&gt;page_TradingHours -->
<g id="edge15" class="edge">
<title>workspace_1&#45;&gt;page_TradingHours</title>
<path fill="none" stroke="#94a3b8" stroke-width="1.3" d="M557.08,-3177.36C612.63,-3173.14 696.58,-3166.76 767.99,-3161.33"/>
<polygon fill="#94a3b8" stroke="#94a3b8" stroke-width="1.3" points="768.42,-3164.11 776.19,-3160.71 768,-3158.53 768.42,-3164.11"/>
</g>
<!-- page_PositionBlotter -->
<g id="node17" class="node">
<title>page_PositionBlotter</title>
<path fill="#1e293b" stroke="#475569" d="M1029,-3233C1029,-3233 781,-3233 781,-3233 775,-3233 769,-3227 769,-3221 769,-3221 769,-3207 769,-3207 769,-3201 775,-3195 781,-3195 781,-3195 1029,-3195 1029,-3195 1035,-3195 1041,-3201 1041,-3207 1041,-3207 1041,-3221 1041,-3221 1041,-3227 1035,-3233 1029,-3233"/>
<text text-anchor="middle" x="905" y="-3217.8" font-family="Segoe UI" font-size="14.00" fill="#e2e8f0">PositionBlotter</text>
<text text-anchor="middle" x="905" y="-3202.8" font-family="Segoe UI" font-size="14.00" fill="#e2e8f0">PositionBlotter → PositionBlotterPage</text>
</g>
<!-- workspace_1&#45;&gt;page_PositionBlotter -->
<g id="edge16" class="edge">
<title>workspace_1&#45;&gt;page_PositionBlotter</title>
<path fill="none" stroke="#94a3b8" stroke-width="1.3" d="M557.08,-3186.79C610.81,-3191 691.11,-3197.3 760.93,-3202.78"/>
<polygon fill="#94a3b8" stroke="#94a3b8" stroke-width="1.3" points="760.76,-3205.57 768.96,-3203.41 761.2,-3199.99 760.76,-3205.57"/>
</g>
<!-- page_DirectLending -->
<g id="node18" class="node">
<title>page_DirectLending</title>
<path fill="#1e293b" stroke="#475569" d="M1024.5,-3296C1024.5,-3296 785.5,-3296 785.5,-3296 779.5,-3296 773.5,-3290 773.5,-3284 773.5,-3284 773.5,-3270 773.5,-3270 773.5,-3264 779.5,-3258 785.5,-3258 785.5,-3258 1024.5,-3258 1024.5,-3258 1030.5,-3258 1036.5,-3264 1036.5,-3270 1036.5,-3270 1036.5,-3284 1036.5,-3284 1036.5,-3290 1030.5,-3296 1024.5,-3296"/>
<text text-anchor="middle" x="905" y="-3280.8" font-family="Segoe UI" font-size="14.00" fill="#e2e8f0">DirectLending</text>
<text text-anchor="middle" x="905" y="-3265.8" font-family="Segoe UI" font-size="14.00" fill="#e2e8f0">DirectLending → DirectLendingPage</text>
</g>
<!-- workspace_1&#45;&gt;page_DirectLending -->
<g id="edge17" class="edge">
<title>workspace_1&#45;&gt;page_DirectLending</title>
<path fill="none" stroke="#94a3b8" stroke-width="1.3" d="M557.1,-3199.6C605.62,-3213.25 675.34,-3232.11 737,-3246 752.95,-3249.59 769.82,-3253.08 786.46,-3256.35"/>
<polygon fill="#94a3b8" stroke="#94a3b8" stroke-width="1.3" points="786.22,-3259.15 794.61,-3257.93 787.29,-3253.65 786.22,-3259.15"/>
</g>
<!-- page_Provider -->
<g id="node19" class="node">
<title>page_Provider</title>
<path fill="#1e293b" stroke="#475569" d="M985.5,-3359C985.5,-3359 824.5,-3359 824.5,-3359 818.5,-3359 812.5,-3353 812.5,-3347 812.5,-3347 812.5,-3333 812.5,-3333 812.5,-3327 818.5,-3321 824.5,-3321 824.5,-3321 985.5,-3321 985.5,-3321 991.5,-3321 997.5,-3327 997.5,-3333 997.5,-3333 997.5,-3347 997.5,-3347 997.5,-3353 991.5,-3359 985.5,-3359"/>
<text text-anchor="middle" x="905" y="-3343.8" font-family="Segoe UI" font-size="14.00" fill="#e2e8f0">Provider</text>
<text text-anchor="middle" x="905" y="-3328.8" font-family="Segoe UI" font-size="14.00" fill="#e2e8f0">Provider → ProviderPage</text>
</g>
<!-- workspace_1&#45;&gt;page_Provider -->
<g id="edge18" class="edge">
<title>workspace_1&#45;&gt;page_Provider</title>
<path fill="none" stroke="#94a3b8" stroke-width="1.3" d="M525.11,-3201.08C569.14,-3229.06 656.14,-3280.92 737,-3309 758.31,-3316.4 781.79,-3322.14 804.24,-3326.56"/>
<polygon fill="#94a3b8" stroke="#94a3b8" stroke-width="1.3" points="803.75,-3329.32 812.14,-3328.07 804.8,-3323.82 803.75,-3329.32"/>
</g>
<!-- page_Symbols -->
<g id="node20" class="node">
<title>page_Symbols</title>
<path fill="#1e293b" stroke="#475569" d="M987.5,-3422C987.5,-3422 822.5,-3422 822.5,-3422 816.5,-3422 810.5,-3416 810.5,-3410 810.5,-3410 810.5,-3396 810.5,-3396 810.5,-3390 816.5,-3384 822.5,-3384 822.5,-3384 987.5,-3384 987.5,-3384 993.5,-3384 999.5,-3390 999.5,-3396 999.5,-3396 999.5,-3410 999.5,-3410 999.5,-3416 993.5,-3422 987.5,-3422"/>
<text text-anchor="middle" x="905" y="-3406.8" font-family="Segoe UI" font-size="14.00" fill="#e2e8f0">Symbols</text>
<text text-anchor="middle" x="905" y="-3391.8" font-family="Segoe UI" font-size="14.00" fill="#e2e8f0">Symbols → SymbolsPage</text>
</g>
<!-- workspace_1&#45;&gt;page_Symbols -->
<g id="edge19" class="edge">
<title>workspace_1&#45;&gt;page_Symbols</title>
<path fill="none" stroke="#94a3b8" stroke-width="1.3" d="M513.55,-3201.02C550.68,-3239.96 641.64,-3328.78 737,-3372 757.21,-3381.16 779.97,-3387.62 802.04,-3392.16"/>
<polygon fill="#94a3b8" stroke="#94a3b8" stroke-width="1.3" points="801.74,-3394.96 810.13,-3393.75 802.82,-3389.46 801.74,-3394.96"/>
</g>
<!-- page_Backfill -->
<g id="node21" class="node">
<title>page_Backfill</title>
<path fill="#1e293b" stroke="#475569" d="M978.5,-3485C978.5,-3485 831.5,-3485 831.5,-3485 825.5,-3485 819.5,-3479 819.5,-3473 819.5,-3473 819.5,-3459 819.5,-3459 819.5,-3453 825.5,-3447 831.5,-3447 831.5,-3447 978.5,-3447 978.5,-3447 984.5,-3447 990.5,-3453 990.5,-3459 990.5,-3459 990.5,-3473 990.5,-3473 990.5,-3479 984.5,-3485 978.5,-3485"/>
<text text-anchor="middle" x="905" y="-3469.8" font-family="Segoe UI" font-size="14.00" fill="#e2e8f0">Backfill</text>
<text text-anchor="middle" x="905" y="-3454.8" font-family="Segoe UI" font-size="14.00" fill="#e2e8f0">Backfill → BackfillPage</text>
</g>
<!-- workspace_1&#45;&gt;page_Backfill -->
<g id="edge20" class="edge">
<title>workspace_1&#45;&gt;page_Backfill</title>
<path fill="none" stroke="#94a3b8" stroke-width="1.3" d="M507.87,-3201.07C538.9,-3249.16 627.66,-3375.75 737,-3435 759.58,-3447.23 786.11,-3454.73 811.31,-3459.3"/>
<polygon fill="#94a3b8" stroke="#94a3b8" stroke-width="1.3" points="811.08,-3462.1 819.43,-3460.68 812.02,-3456.58 811.08,-3462.1"/>
</g>
<!-- page_Storage -->
<g id="node22" class="node">
<title>page_Storage</title>
<path fill="#1e293b" stroke="#475569" d="M982.5,-3548C982.5,-3548 827.5,-3548 827.5,-3548 821.5,-3548 815.5,-3542 815.5,-3536 815.5,-3536 815.5,-3522 815.5,-3522 815.5,-3516 821.5,-3510 827.5,-3510 827.5,-3510 982.5,-3510 982.5,-3510 988.5,-3510 994.5,-3516 994.5,-3522 994.5,-3522 994.5,-3536 994.5,-3536 994.5,-3542 988.5,-3548 982.5,-3548"/>
<text text-anchor="middle" x="905" y="-3532.8" font-family="Segoe UI" font-size="14.00" fill="#e2e8f0">Storage</text>
<text text-anchor="middle" x="905" y="-3517.8" font-family="Segoe UI" font-size="14.00" fill="#e2e8f0">Storage → StoragePage</text>
</g>
<!-- workspace_1&#45;&gt;page_Storage -->
<g id="edge21" class="edge">
<title>workspace_1&#45;&gt;page_Storage</title>
<path fill="none" stroke="#94a3b8" stroke-width="1.3" d="M504.41,-3201.19C530.08,-3257.3 613.29,-3421.92 737,-3498 757.87,-3510.84 782.8,-3518.61 806.94,-3523.25"/>
<polygon fill="#94a3b8" stroke="#94a3b8" stroke-width="1.3" points="806.72,-3526.05 815.09,-3524.7 807.7,-3520.54 806.72,-3526.05"/>
</g>
<!-- page_DataExport -->
<g id="node23" class="node">
<title>page_DataExport</title>
<path fill="#1e293b" stroke="#475569" d="M1006.5,-3611C1006.5,-3611 803.5,-3611 803.5,-3611 797.5,-3611 791.5,-3605 791.5,-3599 791.5,-3599 791.5,-3585 791.5,-3585 791.5,-3579 797.5,-3573 803.5,-3573 803.5,-3573 1006.5,-3573 1006.5,-3573 1012.5,-3573 1018.5,-3579 1018.5,-3585 1018.5,-3585 1018.5,-3599 1018.5,-3599 1018.5,-3605 1012.5,-3611 1006.5,-3611"/>
<text text-anchor="middle" x="905" y="-3595.8" font-family="Segoe UI" font-size="14.00" fill="#e2e8f0">DataExport</text>
<text text-anchor="middle" x="905" y="-3580.8" font-family="Segoe UI" font-size="14.00" fill="#e2e8f0">DataExport → DataExportPage</text>
</g>
<!-- workspace_1&#45;&gt;page_DataExport -->
<g id="edge22" class="edge">
<title>workspace_1&#45;&gt;page_DataExport</title>
<path fill="none" stroke="#94a3b8" stroke-width="1.3" d="M502.02,-3201.27C522.86,-3264.57 598.39,-3467.39 737,-3561 750.86,-3570.36 766.78,-3577.09 783.16,-3581.91"/>
<polygon fill="#94a3b8" stroke="#94a3b8" stroke-width="1.3" points="782.77,-3584.71 791.23,-3584.12 784.25,-3579.3 782.77,-3584.71"/>
</g>
<!-- page_PackageManager -->
<g id="node24" class="node">
<title>page_PackageManager</title>
<path fill="#1e293b" stroke="#475569" d="M1045.5,-3674C1045.5,-3674 764.5,-3674 764.5,-3674 758.5,-3674 752.5,-3668 752.5,-3662 752.5,-3662 752.5,-3648 752.5,-3648 752.5,-3642 758.5,-3636 764.5,-3636 764.5,-3636 1045.5,-3636 1045.5,-3636 1051.5,-3636 1057.5,-3642 1057.5,-3648 1057.5,-3648 1057.5,-3662 1057.5,-3662 1057.5,-3668 1051.5,-3674 1045.5,-3674"/>
<text text-anchor="middle" x="905" y="-3658.8" font-family="Segoe UI" font-size="14.00" fill="#e2e8f0">PackageManager</text>
<text text-anchor="middle" x="905" y="-3643.8" font-family="Segoe UI" font-size="14.00" fill="#e2e8f0">PackageManager → PackageManagerPage</text>
</g>
<!-- workspace_1&#45;&gt;page_PackageManager -->
<g id="edge23" class="edge">
<title>workspace_1&#45;&gt;page_PackageManager</title>
<path fill="none" stroke="#94a3b8" stroke-width="1.3" d="M500.27,-3201.41C516.75,-3271.37 583.12,-3512.38 737,-3624 741.15,-3627.01 745.51,-3629.76 750.03,-3632.26"/>
<polygon fill="#94a3b8" stroke="#94a3b8" stroke-width="1.3" points="748.86,-3634.8 757.25,-3635.99 751.43,-3629.83 748.86,-3634.8"/>
</g>
<!-- page_DataQuality -->
<g id="node25" class="node">
<title>page_DataQuality</title>
<path fill="#1e293b" stroke="#475569" d="M1010,-3737C1010,-3737 800,-3737 800,-3737 794,-3737 788,-3731 788,-3725 788,-3725 788,-3711 788,-3711 788,-3705 794,-3699 800,-3699 800,-3699 1010,-3699 1010,-3699 1016,-3699 1022,-3705 1022,-3711 1022,-3711 1022,-3725 1022,-3725 1022,-3731 1016,-3737 1010,-3737"/>
<text text-anchor="middle" x="905" y="-3721.8" font-family="Segoe UI" font-size="14.00" fill="#e2e8f0">DataQuality</text>
<text text-anchor="middle" x="905" y="-3706.8" font-family="Segoe UI" font-size="14.00" fill="#e2e8f0">DataQuality → DataQualityPage</text>
</g>
<!-- workspace_1&#45;&gt;page_DataQuality -->
<g id="edge24" class="edge">
<title>workspace_1&#45;&gt;page_DataQuality</title>
<path fill="none" stroke="#94a3b8" stroke-width="1.3" d="M498.86,-3201.17C511.2,-3276.82 567.26,-3556.74 737,-3687 749.77,-3696.8 764.68,-3703.83 780.24,-3708.82"/>
<polygon fill="#94a3b8" stroke="#94a3b8" stroke-width="1.3" points="779.46,-3711.51 787.93,-3711.11 781.06,-3706.14 779.46,-3711.51"/>
</g>
<!-- page_ProviderHealth -->
<g id="node26" class="node">
<title>page_ProviderHealth</title>
<path fill="#1e293b" stroke="#475569" d="M1030.5,-3800C1030.5,-3800 779.5,-3800 779.5,-3800 773.5,-3800 767.5,-3794 767.5,-3788 767.5,-3788 767.5,-3774 767.5,-3774 767.5,-3768 773.5,-3762 779.5,-3762 779.5,-3762 1030.5,-3762 1030.5,-3762 1036.5,-3762 1042.5,-3768 1042.5,-3774 1042.5,-3774 1042.5,-3788 1042.5,-3788 1042.5,-3794 1036.5,-3800 1030.5,-3800"/>
<text text-anchor="middle" x="905" y="-3784.8" font-family="Segoe UI" font-size="14.00" fill="#e2e8f0">ProviderHealth</text>
<text text-anchor="middle" x="905" y="-3769.8" font-family="Segoe UI" font-size="14.00" fill="#e2e8f0">ProviderHealth → ProviderHealthPage</text>
</g>
<!-- workspace_1&#45;&gt;page_ProviderHealth -->
<g id="edge25" class="edge">
<title>workspace_1&#45;&gt;page_ProviderHealth</title>
<path fill="none" stroke="#94a3b8" stroke-width="1.3" d="M497.78,-3201.24C506.41,-3282.59 551.36,-3600.94 737,-3750 743.95,-3755.58 751.6,-3760.28 759.66,-3764.22"/>
<polygon fill="#94a3b8" stroke="#94a3b8" stroke-width="1.3" points="758.75,-3766.88 767.19,-3767.63 761.06,-3761.78 758.75,-3766.88"/>
</g>
<!-- page_SystemHealth -->
<g id="node27" class="node">
<title>page_SystemHealth</title>
<path fill="#1e293b" stroke="#475569" d="M1025,-3863C1025,-3863 785,-3863 785,-3863 779,-3863 773,-3857 773,-3851 773,-3851 773,-3837 773,-3837 773,-3831 779,-3825 785,-3825 785,-3825 1025,-3825 1025,-3825 1031,-3825 1037,-3831 1037,-3837 1037,-3837 1037,-3851 1037,-3851 1037,-3857 1031,-3863 1025,-3863"/>
<text text-anchor="middle" x="905" y="-3847.8" font-family="Segoe UI" font-size="14.00" fill="#e2e8f0">SystemHealth</text>
<text text-anchor="middle" x="905" y="-3832.8" font-family="Segoe UI" font-size="14.00" fill="#e2e8f0">SystemHealth → SystemHealthPage</text>
</g>
<!-- workspace_1&#45;&gt;page_SystemHealth -->
<g id="edge26" class="edge">
<title>workspace_1&#45;&gt;page_SystemHealth</title>
<path fill="none" stroke="#94a3b8" stroke-width="1.3" d="M496.78,-3201.06C501.44,-3287.69 532.88,-3647.21 737,-3813 745.56,-3819.96 755.19,-3825.54 765.39,-3830.01"/>
<polygon fill="#94a3b8" stroke="#94a3b8" stroke-width="1.3" points="764.45,-3832.65 772.91,-3833.07 766.56,-3827.46 764.45,-3832.65"/>
</g>
<!-- page_Diagnostics -->
<g id="node28" class="node">
<title>page_Diagnostics</title>
<path fill="#1e293b" stroke="#475569" d="M1008.5,-3926C1008.5,-3926 801.5,-3926 801.5,-3926 795.5,-3926 789.5,-3920 789.5,-3914 789.5,-3914 789.5,-3900 789.5,-3900 789.5,-3894 795.5,-3888 801.5,-3888 801.5,-3888 1008.5,-3888 1008.5,-3888 1014.5,-3888 1020.5,-3894 1020.5,-3900 1020.5,-3900 1020.5,-3914 1020.5,-3914 1020.5,-3920 1014.5,-3926 1008.5,-3926"/>
<text text-anchor="middle" x="905" y="-3910.8" font-family="Segoe UI" font-size="14.00" fill="#e2e8f0">Diagnostics</text>
<text text-anchor="middle" x="905" y="-3895.8" font-family="Segoe UI" font-size="14.00" fill="#e2e8f0">Diagnostics → DiagnosticsPage</text>
</g>
<!-- workspace_1&#45;&gt;page_Diagnostics -->
<g id="edge27" class="edge">
<title>workspace_1&#45;&gt;page_Diagnostics</title>
<path fill="none" stroke="#94a3b8" stroke-width="1.3" d="M495.94,-3201.18C496.77,-3293.42 513.5,-3694.47 737,-3876 749.88,-3886.46 765.18,-3893.83 781.19,-3898.94"/>
<polygon fill="#94a3b8" stroke="#94a3b8" stroke-width="1.3" points="780.64,-3901.7 789.11,-3901.28 782.23,-3896.33 780.64,-3901.7"/>
</g>
<!-- page_Settings -->
<g id="node29" class="node">
<title>page_Settings</title>
<path fill="#1e293b" stroke="#475569" d="M985.5,-3989C985.5,-3989 824.5,-3989 824.5,-3989 818.5,-3989 812.5,-3983 812.5,-3977 812.5,-3977 812.5,-3963 812.5,-3963 812.5,-3957 818.5,-3951 824.5,-3951 824.5,-3951 985.5,-3951 985.5,-3951 991.5,-3951 997.5,-3957 997.5,-3963 997.5,-3963 997.5,-3977 997.5,-3977 997.5,-3983 991.5,-3989 985.5,-3989"/>
<text text-anchor="middle" x="905" y="-3973.8" font-family="Segoe UI" font-size="14.00" fill="#e2e8f0">Settings</text>
<text text-anchor="middle" x="905" y="-3958.8" font-family="Segoe UI" font-size="14.00" fill="#e2e8f0">Settings → SettingsPage</text>
</g>
<!-- workspace_1&#45;&gt;page_Settings -->
<g id="edge28" class="edge">
<title>workspace_1&#45;&gt;page_Settings</title>
<path fill="none" stroke="#94a3b8" stroke-width="1.3" d="M499.2,-3201.1C517.63,-3308.85 613.82,-3839.35 737,-3939 755.95,-3954.33 780.07,-3962.99 804.05,-3967.69"/>
<polygon fill="#94a3b8" stroke="#94a3b8" stroke-width="1.3" points="803.8,-3970.49 812.17,-3969.14 804.79,-3964.98 803.8,-3970.49"/>
</g>
<!-- page_AdminMaintenance -->
<g id="node30" class="node">
<title>page_AdminMaintenance</title>
<path fill="#1e293b" stroke="#475569" d="M1061,-4052C1061,-4052 749,-4052 749,-4052 743,-4052 737,-4046 737,-4040 737,-4040 737,-4026 737,-4026 737,-4020 743,-4014 749,-4014 749,-4014 1061,-4014 1061,-4014 1067,-4014 1073,-4020 1073,-4026 1073,-4026 1073,-4040 1073,-4040 1073,-4046 1067,-4052 1061,-4052"/>
<text text-anchor="middle" x="905" y="-4036.8" font-family="Segoe UI" font-size="14.00" fill="#e2e8f0">AdminMaintenance</text>
<text text-anchor="middle" x="905" y="-4021.8" font-family="Segoe UI" font-size="14.00" fill="#e2e8f0">AdminMaintenance → AdminMaintenancePage</text>
</g>
<!-- workspace_1&#45;&gt;page_AdminMaintenance -->
<g id="edge29" class="edge">
<title>workspace_1&#45;&gt;page_AdminMaintenance</title>
<path fill="none" stroke="#94a3b8" stroke-width="1.3" d="M498.74,-3201.15C515.33,-3314.07 605.88,-3891.93 737,-4002 740.3,-4004.77 743.77,-4007.33 747.38,-4009.69"/>
<polygon fill="#94a3b8" stroke="#94a3b8" stroke-width="1.3" points="746.19,-4012.24 754.48,-4013.98 749.08,-4007.44 746.19,-4012.24"/>
</g>
</g>
</svg>
