<?xml version="1.0" encoding="UTF-8" standalone="no"?>
<!DOCTYPE svg PUBLIC "-//W3C//DTD SVG 1.1//EN"
 "http://www.w3.org/Graphics/SVG/1.1/DTD/svg11.dtd">
<!-- Generated by graphviz version 2.43.0 (0)
 -->
<!-- Title: UiNavigationMap Pages: 1 -->
<svg width="1147pt" height="4082pt"
 viewBox="0.00 0.00 1146.60 4081.60" xmlns="http://www.w3.org/2000/svg" xmlns:xlink="http://www.w3.org/1999/xlink">
<g id="graph0" class="graph" transform="scale(1 1) rotate(0) translate(28.8 4052.8)">
<title>UiNavigationMap</title>
<polygon fill="#0f172a" stroke="transparent" points="-28.8,28.8 -28.8,-4052.8 1117.8,-4052.8 1117.8,28.8 -28.8,28.8"/>
<text text-anchor="middle" x="544.5" y="-4004" font-family="Segoe UI" font-size="20.00">Meridian WPF UI navigation map</text>
<text text-anchor="middle" x="544.5" y="-3982" font-family="Segoe UI" font-size="20.00">(auto&#45;generated from MainPage.xaml + NavigationService.cs)</text>
<g id="clust1" class="cluster">
<title>cluster_workspace_1</title>
<path fill="#0f172a" stroke="#334155" d="M437,-2368C437,-2368 1069,-2368 1069,-2368 1075,-2368 1081,-2374 1081,-2380 1081,-2380 1081,-3952 1081,-3952 1081,-3958 1075,-3964 1069,-3964 1069,-3964 437,-3964 437,-3964 431,-3964 425,-3958 425,-3952 425,-3952 425,-2380 425,-2380 425,-2374 431,-2368 437,-2368"/>
<text text-anchor="middle" x="753" y="-3944" font-family="Segoe UI" font-size="20.00">Shell workspace</text>
</g>
<g id="clust2" class="cluster">
<title>cluster_hidden_pages</title>
<path fill="#0f172a" stroke="#7c2d12" stroke-dasharray="5,2" d="M330,-8C330,-8 660,-8 660,-8 666,-8 672,-14 672,-20 672,-20 672,-2348 672,-2348 672,-2354 666,-2360 660,-2360 660,-2360 330,-2360 330,-2360 324,-2360 318,-2354 318,-2348 318,-2348 318,-20 318,-20 318,-14 324,-8 330,-8"/>
<text text-anchor="middle" x="495" y="-2340" font-family="Segoe UI" font-size="20.00">Registered but not in sidebar shell</text>
</g>
<!-- generated -->
<g id="node1" class="node">
<title>generated</title>
<polygon fill="#1d4ed8" stroke="#60a5fa" points="247,-1155.5 0,-1155.5 0,-1102.5 253,-1102.5 253,-1149.5 247,-1155.5"/>
<polyline fill="none" stroke="#60a5fa" points="247,-1155.5 247,-1149.5 "/>
<polyline fill="none" stroke="#60a5fa" points="253,-1149.5 247,-1149.5 "/>
<text text-anchor="middle" x="126.5" y="-1140.3" font-family="Segoe UI" font-size="14.00" fill="#e2e8f0">Source fingerprint: cf3b05c495d7</text>
<text text-anchor="middle" x="126.5" y="-1125.3" font-family="Segoe UI" font-size="14.00" fill="#e2e8f0">Shell entries: 27</text>
<text text-anchor="middle" x="126.5" y="-1110.3" font-family="Segoe UI" font-size="14.00" fill="#e2e8f0">Registered pages: 62</text>
</g>
<!-- shell -->
<g id="node2" class="node">
<title>shell</title>
<polygon fill="#0f766e" stroke="#2dd4bf" points="191,-2010 62,-2010 62,-2006 58,-2006 58,-2002 62,-2002 62,-1980 58,-1980 58,-1976 62,-1976 62,-1972 191,-1972 191,-2010"/>
<polyline fill="none" stroke="#2dd4bf" points="62,-2006 66,-2006 66,-2002 62,-2002 "/>
<polyline fill="none" stroke="#2dd4bf" points="62,-1980 66,-1980 66,-1976 62,-1976 "/>
<text text-anchor="middle" x="126.5" y="-1994.8" font-family="Segoe UI" font-size="14.00" fill="#e2e8f0">MainPage.xaml</text>
<text text-anchor="middle" x="126.5" y="-1979.8" font-family="Segoe UI" font-size="14.00" fill="#e2e8f0">Workspace shell</text>
</g>
<!-- navigation -->
<g id="node3" class="node">
<title>navigation</title>
<polygon fill="#7c3aed" stroke="#c4b5fd" points="197.5,-1219 55.5,-1219 55.5,-1215 51.5,-1215 51.5,-1211 55.5,-1211 55.5,-1189 51.5,-1189 51.5,-1185 55.5,-1185 55.5,-1181 197.5,-1181 197.5,-1219"/>
<polyline fill="none" stroke="#c4b5fd" points="55.5,-1215 59.5,-1215 59.5,-1211 55.5,-1211 "/>
<polyline fill="none" stroke="#c4b5fd" points="55.5,-1189 59.5,-1189 59.5,-1185 55.5,-1185 "/>
<text text-anchor="middle" x="126.5" y="-1203.8" font-family="Segoe UI" font-size="14.00" fill="#e2e8f0">NavigationService</text>
<text text-anchor="middle" x="126.5" y="-1188.8" font-family="Segoe UI" font-size="14.00" fill="#e2e8f0">RegisterAllPages()</text>
</g>
<!-- shell&#45;&gt;navigation -->
<g id="edge1" class="edge">
<title>shell&#45;&gt;navigation</title>
<path fill="none" stroke="#38bdf8" stroke-width="1.3" d="M126.5,-1971.74C126.5,-1865.61 126.5,-1352.44 126.5,-1227.48"/>
<polygon fill="#38bdf8" stroke="#38bdf8" stroke-width="1.3" points="129.3,-1227.16 126.5,-1219.16 123.7,-1227.16 129.3,-1227.16"/>
<text text-anchor="middle" x="116" y="-1591.8" font-family="Segoe UI" font-size="14.00">navigate via tags</text>
</g>
<!-- workspace_1 -->
<g id="node4" class="node">
<title>workspace_1</title>
<polygon fill="#1d4ed8" stroke="#93c5fd" points="557,-3075 554,-3079 533,-3079 530,-3075 433,-3075 433,-3037 557,-3037 557,-3075"/>
<text text-anchor="middle" x="495" y="-3059.8" font-family="Segoe UI" font-size="14.00" fill="#e2e8f0">Shell</text>
<text text-anchor="middle" x="495" y="-3044.8" font-family="Segoe UI" font-size="14.00" fill="#e2e8f0">27 shell entries</text>
</g>
<!-- shell&#45;&gt;workspace_1 -->
<g id="edge2" class="edge">
<title>shell&#45;&gt;workspace_1</title>
<path fill="none" stroke="#22d3ee" stroke-width="1.3" d="M134.17,-2010.39C178.69,-2139.75 432.39,-2876.96 484.6,-3028.69"/>
<polygon fill="#22d3ee" stroke="#22d3ee" stroke-width="1.3" points="482.1,-3030.01 487.35,-3036.66 487.39,-3028.19 482.1,-3030.01"/>
</g>
<!-- hidden_DataSources -->
<g id="node30" class="node">
<title>hidden_DataSources</title>
<path fill="#431407" stroke="#fb923c" d="M551.5,-2322C551.5,-2322 438.5,-2322 438.5,-2322 432.5,-2322 426.5,-2316 426.5,-2310 426.5,-2310 426.5,-2296 426.5,-2296 426.5,-2290 432.5,-2284 438.5,-2284 438.5,-2284 551.5,-2284 551.5,-2284 557.5,-2284 563.5,-2290 563.5,-2296 563.5,-2296 563.5,-2310 563.5,-2310 563.5,-2316 557.5,-2322 551.5,-2322"/>
<text text-anchor="middle" x="495" y="-2306.8" font-family="Segoe UI" font-size="14.00" fill="#e2e8f0">DataSources</text>
<text text-anchor="middle" x="495" y="-2291.8" font-family="Segoe UI" font-size="14.00" fill="#e2e8f0">DataSourcesPage</text>
</g>
<!-- navigation&#45;&gt;hidden_DataSources -->
<g id="edge30" class="edge">
<title>navigation&#45;&gt;hidden_DataSources</title>
<path fill="none" stroke="#fb923c" stroke-width="1.3" stroke-dasharray="5,2" d="M130.58,-1219.15C153.57,-1361.73 297.9,-2252.76 318,-2272 344.25,-2297.13 383.31,-2305.75 417.97,-2307.72"/>
<polygon fill="#fb923c" stroke="#fb923c" stroke-width="1.3" points="418.11,-2310.52 426.22,-2308.06 418.34,-2304.93 418.11,-2310.52"/>
</g>
<!-- hidden_DataBrowser -->
<g id="node31" class="node">
<title>hidden_DataBrowser</title>
<path fill="#431407" stroke="#fb923c" d="M552,-2259C552,-2259 438,-2259 438,-2259 432,-2259 426,-2253 426,-2247 426,-2247 426,-2233 426,-2233 426,-2227 432,-2221 438,-2221 438,-2221 552,-2221 552,-2221 558,-2221 564,-2227 564,-2233 564,-2233 564,-2247 564,-2247 564,-2253 558,-2259 552,-2259"/>
<text text-anchor="middle" x="495" y="-2243.8" font-family="Segoe UI" font-size="14.00" fill="#e2e8f0">DataBrowser</text>
<text text-anchor="middle" x="495" y="-2228.8" font-family="Segoe UI" font-size="14.00" fill="#e2e8f0">DataBrowserPage</text>
</g>
<!-- navigation&#45;&gt;hidden_DataBrowser -->
<g id="edge31" class="edge">
<title>navigation&#45;&gt;hidden_DataBrowser</title>
<path fill="none" stroke="#fb923c" stroke-width="1.3" stroke-dasharray="5,2" d="M130.51,-1219.39C151.81,-1356.3 280.23,-2172.89 318,-2209 344.16,-2234.01 383.02,-2242.66 417.58,-2244.67"/>
<polygon fill="#fb923c" stroke="#fb923c" stroke-width="1.3" points="417.68,-2247.48 425.8,-2245.03 417.93,-2241.89 417.68,-2247.48"/>
</g>
<!-- hidden_SymbolMapping -->
<g id="node32" class="node">
<title>hidden_SymbolMapping</title>
<path fill="#431407" stroke="#fb923c" d="M563.5,-2196C563.5,-2196 426.5,-2196 426.5,-2196 420.5,-2196 414.5,-2190 414.5,-2184 414.5,-2184 414.5,-2170 414.5,-2170 414.5,-2164 420.5,-2158 426.5,-2158 426.5,-2158 563.5,-2158 563.5,-2158 569.5,-2158 575.5,-2164 575.5,-2170 575.5,-2170 575.5,-2184 575.5,-2184 575.5,-2190 569.5,-2196 563.5,-2196"/>
<text text-anchor="middle" x="495" y="-2180.8" font-family="Segoe UI" font-size="14.00" fill="#e2e8f0">SymbolMapping</text>
<text text-anchor="middle" x="495" y="-2165.8" font-family="Segoe UI" font-size="14.00" fill="#e2e8f0">SymbolMappingPage</text>
</g>
<!-- navigation&#45;&gt;hidden_SymbolMapping -->
<g id="edge32" class="edge">
<title>navigation&#45;&gt;hidden_SymbolMapping</title>
<path fill="none" stroke="#fb923c" stroke-width="1.3" stroke-dasharray="5,2" d="M130.67,-1219.04C152.54,-1350.02 281.35,-2113.47 318,-2146 341.86,-2167.17 374.94,-2176.34 405.99,-2179.73"/>
<polygon fill="#fb923c" stroke="#fb923c" stroke-width="1.3" points="406.03,-2182.55 414.26,-2180.5 406.55,-2176.97 406.03,-2182.55"/>
</g>
<!-- hidden_SymbolStorage -->
<g id="node33" class="node">
<title>hidden_SymbolStorage</title>
<path fill="#431407" stroke="#fb923c" d="M560.5,-2133C560.5,-2133 429.5,-2133 429.5,-2133 423.5,-2133 417.5,-2127 417.5,-2121 417.5,-2121 417.5,-2107 417.5,-2107 417.5,-2101 423.5,-2095 429.5,-2095 429.5,-2095 560.5,-2095 560.5,-2095 566.5,-2095 572.5,-2101 572.5,-2107 572.5,-2107 572.5,-2121 572.5,-2121 572.5,-2127 566.5,-2133 560.5,-2133"/>
<text text-anchor="middle" x="495" y="-2117.8" font-family="Segoe UI" font-size="14.00" fill="#e2e8f0">SymbolStorage</text>
<text text-anchor="middle" x="495" y="-2102.8" font-family="Segoe UI" font-size="14.00" fill="#e2e8f0">SymbolStoragePage</text>
</g>
<!-- navigation&#45;&gt;hidden_SymbolStorage -->
<g id="edge33" class="edge">
<title>navigation&#45;&gt;hidden_SymbolStorage</title>
<path fill="none" stroke="#fb923c" stroke-width="1.3" stroke-dasharray="5,2" d="M130.19,-1219.08C147.8,-1342.5 247.89,-2024.59 318,-2083 343.16,-2103.96 377.5,-2112.91 409.16,-2116.18"/>
<polygon fill="#fb923c" stroke="#fb923c" stroke-width="1.3" points="408.93,-2118.97 417.15,-2116.9 409.43,-2113.4 408.93,-2118.97"/>
</g>
<!-- hidden_IndexSubscription -->
<g id="node34" class="node">
<title>hidden_IndexSubscription</title>
<path fill="#431407" stroke="#fb923c" d="M571,-2070C571,-2070 419,-2070 419,-2070 413,-2070 407,-2064 407,-2058 407,-2058 407,-2044 407,-2044 407,-2038 413,-2032 419,-2032 419,-2032 571,-2032 571,-2032 577,-2032 583,-2038 583,-2044 583,-2044 583,-2058 583,-2058 583,-2064 577,-2070 571,-2070"/>
<text text-anchor="middle" x="495" y="-2054.8" font-family="Segoe UI" font-size="14.00" fill="#e2e8f0">IndexSubscription</text>
<text text-anchor="middle" x="495" y="-2039.8" font-family="Segoe UI" font-size="14.00" fill="#e2e8f0">IndexSubscriptionPage</text>
</g>
<!-- navigation&#45;&gt;hidden_IndexSubscription -->
<g id="edge34" class="edge">
<title>navigation&#45;&gt;hidden_IndexSubscription</title>
<path fill="none" stroke="#fb923c" stroke-width="1.3" stroke-dasharray="5,2" d="M128.91,-1219.21C137.67,-1332.49 188.44,-1912.07 318,-2020 340.44,-2038.7 370.18,-2047.83 398.82,-2051.91"/>
<polygon fill="#fb923c" stroke="#fb923c" stroke-width="1.3" points="398.57,-2054.71 406.86,-2052.94 399.27,-2049.15 398.57,-2054.71"/>
</g>
<!-- hidden_Options -->
<g id="node35" class="node">
<title>hidden_Options</title>
<path fill="#431407" stroke="#fb923c" d="M535,-2007C535,-2007 455,-2007 455,-2007 449,-2007 443,-2001 443,-1995 443,-1995 443,-1981 443,-1981 443,-1975 449,-1969 455,-1969 455,-1969 535,-1969 535,-1969 541,-1969 547,-1975 547,-1981 547,-1981 547,-1995 547,-1995 547,-2001 541,-2007 535,-2007"/>
<text text-anchor="middle" x="495" y="-1991.8" font-family="Segoe UI" font-size="14.00" fill="#e2e8f0">Options</text>
<text text-anchor="middle" x="495" y="-1976.8" font-family="Segoe UI" font-size="14.00" fill="#e2e8f0">OptionsPage</text>
</g>
<!-- navigation&#45;&gt;hidden_Options -->
<g id="edge35" class="edge">
<title>navigation&#45;&gt;hidden_Options</title>
<path fill="none" stroke="#fb923c" stroke-width="1.3" stroke-dasharray="5,2" d="M129.33,-1219.1C140.03,-1326.85 198.39,-1857.35 318,-1957 350.13,-1983.77 397.23,-1990.94 434.62,-1991.73"/>
<polygon fill="#fb923c" stroke="#fb923c" stroke-width="1.3" points="434.9,-1994.54 442.92,-1991.81 434.95,-1988.94 434.9,-1994.54"/>
</g>
<!-- hidden_Schedules -->
<g id="node36" class="node">
<title>hidden_Schedules</title>
<path fill="#431407" stroke="#fb923c" d="M570,-1944C570,-1944 420,-1944 420,-1944 414,-1944 408,-1938 408,-1932 408,-1932 408,-1918 408,-1918 408,-1912 414,-1906 420,-1906 420,-1906 570,-1906 570,-1906 576,-1906 582,-1912 582,-1918 582,-1918 582,-1932 582,-1932 582,-1938 576,-1944 570,-1944"/>
<text text-anchor="middle" x="495" y="-1928.8" font-family="Segoe UI" font-size="14.00" fill="#e2e8f0">Schedules</text>
<text text-anchor="middle" x="495" y="-1913.8" font-family="Segoe UI" font-size="14.00" fill="#e2e8f0">ScheduleManagerPage</text>
</g>
<!-- navigation&#45;&gt;hidden_Schedules -->
<g id="edge36" class="edge">
<title>navigation&#45;&gt;hidden_Schedules</title>
<path fill="none" stroke="#fb923c" stroke-width="1.3" stroke-dasharray="5,2" d="M129.82,-1219.15C142.63,-1321.51 208.13,-1802.86 318,-1894 340.7,-1912.83 370.81,-1921.95 399.7,-1925.98"/>
<polygon fill="#fb923c" stroke="#fb923c" stroke-width="1.3" points="399.52,-1928.77 407.81,-1926.98 400.21,-1923.22 399.52,-1928.77"/>
</g>
<!-- hidden_RunDetail -->
<g id="node37" class="node">
<title>hidden_RunDetail</title>
<path fill="#431407" stroke="#fb923c" d="M541,-1881C541,-1881 449,-1881 449,-1881 443,-1881 437,-1875 437,-1869 437,-1869 437,-1855 437,-1855 437,-1849 443,-1843 449,-1843 449,-1843 541,-1843 541,-1843 547,-1843 553,-1849 553,-1855 553,-1855 553,-1869 553,-1869 553,-1875 547,-1881 541,-1881"/>
<text text-anchor="middle" x="495" y="-1865.8" font-family="Segoe UI" font-size="14.00" fill="#e2e8f0">RunDetail</text>
<text text-anchor="middle" x="495" y="-1850.8" font-family="Segoe UI" font-size="14.00" fill="#e2e8f0">RunDetailPage</text>
</g>
<!-- navigation&#45;&gt;hidden_RunDetail -->
<g id="edge37" class="edge">
<title>navigation&#45;&gt;hidden_RunDetail</title>
<path fill="none" stroke="#fb923c" stroke-width="1.3" stroke-dasharray="5,2" d="M130.33,-1219.01C145.11,-1315.49 216.59,-1749.63 318,-1831 348.82,-1855.73 392.54,-1863.53 428.69,-1865.12"/>
<polygon fill="#fb923c" stroke="#fb923c" stroke-width="1.3" points="428.67,-1867.92 436.76,-1865.38 428.85,-1862.32 428.67,-1867.92"/>
</g>
<!-- hidden_RunPortfolio -->
<g id="node38" class="node">
<title>hidden_RunPortfolio</title>
<path fill="#431407" stroke="#fb923c" d="M550,-1818C550,-1818 440,-1818 440,-1818 434,-1818 428,-1812 428,-1806 428,-1806 428,-1792 428,-1792 428,-1786 434,-1780 440,-1780 440,-1780 550,-1780 550,-1780 556,-1780 562,-1786 562,-1792 562,-1792 562,-1806 562,-1806 562,-1812 556,-1818 550,-1818"/>
<text text-anchor="middle" x="495" y="-1802.8" font-family="Segoe UI" font-size="14.00" fill="#e2e8f0">RunPortfolio</text>
<text text-anchor="middle" x="495" y="-1787.8" font-family="Segoe UI" font-size="14.00" fill="#e2e8f0">RunPortfolioPage</text>
</g>
<!-- navigation&#45;&gt;hidden_RunPortfolio -->
<g id="edge38" class="edge">
<title>navigation&#45;&gt;hidden_RunPortfolio</title>
<path fill="none" stroke="#fb923c" stroke-width="1.3" stroke-dasharray="5,2" d="M127.16,-1219.19C126.86,-1301.03 137.5,-1623.17 318,-1768 346.34,-1790.74 385.58,-1799.16 419.82,-1801.61"/>
<polygon fill="#fb923c" stroke="#fb923c" stroke-width="1.3" points="419.8,-1804.41 427.95,-1802.08 420.13,-1798.82 419.8,-1804.41"/>
</g>
<!-- hidden_RunLedger -->
<g id="node39" class="node">
<title>hidden_RunLedger</title>
<path fill="#431407" stroke="#fb923c" d="M545.5,-1755C545.5,-1755 444.5,-1755 444.5,-1755 438.5,-1755 432.5,-1749 432.5,-1743 432.5,-1743 432.5,-1729 432.5,-1729 432.5,-1723 438.5,-1717 444.5,-1717 444.5,-1717 545.5,-1717 545.5,-1717 551.5,-1717 557.5,-1723 557.5,-1729 557.5,-1729 557.5,-1743 557.5,-1743 557.5,-1749 551.5,-1755 545.5,-1755"/>
<text text-anchor="middle" x="495" y="-1739.8" font-family="Segoe UI" font-size="14.00" fill="#e2e8f0">RunLedger</text>
<text text-anchor="middle" x="495" y="-1724.8" font-family="Segoe UI" font-size="14.00" fill="#e2e8f0">RunLedgerPage</text>
</g>
<!-- navigation&#45;&gt;hidden_RunLedger -->
<g id="edge39" class="edge">
<title>navigation&#45;&gt;hidden_RunLedger</title>
<path fill="none" stroke="#fb923c" stroke-width="1.3" stroke-dasharray="5,2" d="M128.19,-1219.24C132.03,-1295.12 157.03,-1575.84 318,-1705 347.46,-1728.64 388.7,-1736.8 423.86,-1738.87"/>
<polygon fill="#fb923c" stroke="#fb923c" stroke-width="1.3" points="424.07,-1741.68 432.19,-1739.25 424.32,-1736.09 424.07,-1741.68"/>
</g>
<!-- hidden_RunCashFlow -->
<g id="node40" class="node">
<title>hidden_RunCashFlow</title>
<path fill="#431407" stroke="#fb923c" d="M554.5,-1692C554.5,-1692 435.5,-1692 435.5,-1692 429.5,-1692 423.5,-1686 423.5,-1680 423.5,-1680 423.5,-1666 423.5,-1666 423.5,-1660 429.5,-1654 435.5,-1654 435.5,-1654 554.5,-1654 554.5,-1654 560.5,-1654 566.5,-1660 566.5,-1666 566.5,-1666 566.5,-1680 566.5,-1680 566.5,-1686 560.5,-1692 554.5,-1692"/>
<text text-anchor="middle" x="495" y="-1676.8" font-family="Segoe UI" font-size="14.00" fill="#e2e8f0">RunCashFlow</text>
<text text-anchor="middle" x="495" y="-1661.8" font-family="Segoe UI" font-size="14.00" fill="#e2e8f0">RunCashFlowPage</text>
</g>
<!-- navigation&#45;&gt;hidden_RunCashFlow -->
<g id="edge40" class="edge">
<title>navigation&#45;&gt;hidden_RunCashFlow</title>
<path fill="none" stroke="#fb923c" stroke-width="1.3" stroke-dasharray="5,2" d="M129.46,-1219.33C137.61,-1289.04 175.45,-1529.27 318,-1642 345.15,-1663.47 382.05,-1672.11 415.06,-1675.03"/>
<polygon fill="#fb923c" stroke="#fb923c" stroke-width="1.3" points="415.17,-1677.85 423.36,-1675.66 415.59,-1672.27 415.17,-1677.85"/>
</g>
<!-- hidden_CollectionSessions -->
<g id="node41" class="node">
<title>hidden_CollectionSessions</title>
<path fill="#431407" stroke="#fb923c" d="M568,-1629C568,-1629 422,-1629 422,-1629 416,-1629 410,-1623 410,-1617 410,-1617 410,-1603 410,-1603 410,-1597 416,-1591 422,-1591 422,-1591 568,-1591 568,-1591 574,-1591 580,-1597 580,-1603 580,-1603 580,-1617 580,-1617 580,-1623 574,-1629 568,-1629"/>
<text text-anchor="middle" x="495" y="-1613.8" font-family="Segoe UI" font-size="14.00" fill="#e2e8f0">CollectionSessions</text>
<text text-anchor="middle" x="495" y="-1598.8" font-family="Segoe UI" font-size="14.00" fill="#e2e8f0">CollectionSessionPage</text>
</g>
<!-- navigation&#45;&gt;hidden_CollectionSessions -->
<g id="edge41" class="edge">
<title>navigation&#45;&gt;hidden_CollectionSessions</title>
<path fill="none" stroke="#fb923c" stroke-width="1.3" stroke-dasharray="5,2" d="M130.9,-1219.22C143.17,-1282.35 191.27,-1484.7 318,-1579 341.89,-1596.78 372.6,-1605.58 401.67,-1609.64"/>
<polygon fill="#fb923c" stroke="#fb923c" stroke-width="1.3" points="401.53,-1612.45 409.82,-1610.66 402.23,-1606.89 401.53,-1612.45"/>
</g>
<!-- hidden_ArchiveHealth -->
<g id="node42" class="node">
<title>hidden_ArchiveHealth</title>
<path fill="#431407" stroke="#fb923c" d="M556,-1566C556,-1566 434,-1566 434,-1566 428,-1566 422,-1560 422,-1554 422,-1554 422,-1540 422,-1540 422,-1534 428,-1528 434,-1528 434,-1528 556,-1528 556,-1528 562,-1528 568,-1534 568,-1540 568,-1540 568,-1554 568,-1554 568,-1560 562,-1566 556,-1566"/>
<text text-anchor="middle" x="495" y="-1550.8" font-family="Segoe UI" font-size="14.00" fill="#e2e8f0">ArchiveHealth</text>
<text text-anchor="middle" x="495" y="-1535.8" font-family="Segoe UI" font-size="14.00" fill="#e2e8f0">ArchiveHealthPage</text>
</g>
<!-- navigation&#45;&gt;hidden_ArchiveHealth -->
<g id="edge42" class="edge">
<title>navigation&#45;&gt;hidden_ArchiveHealth</title>
<path fill="none" stroke="#fb923c" stroke-width="1.3" stroke-dasharray="5,2" d="M132.88,-1219.17C149.67,-1275.23 206.81,-1439.71 318,-1516 345.71,-1535.01 381.48,-1543.49 413.53,-1546.93"/>
<polygon fill="#fb923c" stroke="#fb923c" stroke-width="1.3" points="413.36,-1549.73 421.59,-1547.71 413.9,-1544.16 413.36,-1549.73"/>
</g>
<!-- hidden_ServiceManager -->
<g id="node43" class="node">
<title>hidden_ServiceManager</title>
<path fill="#431407" stroke="#fb923c" d="M563.5,-1503C563.5,-1503 426.5,-1503 426.5,-1503 420.5,-1503 414.5,-1497 414.5,-1491 414.5,-1491 414.5,-1477 414.5,-1477 414.5,-1471 420.5,-1465 426.5,-1465 426.5,-1465 563.5,-1465 563.5,-1465 569.5,-1465 575.5,-1471 575.5,-1477 575.5,-1477 575.5,-1491 575.5,-1491 575.5,-1497 569.5,-1503 563.5,-1503"/>
<text text-anchor="middle" x="495" y="-1487.8" font-family="Segoe UI" font-size="14.00" fill="#e2e8f0">ServiceManager</text>
<text text-anchor="middle" x="495" y="-1472.8" font-family="Segoe UI" font-size="14.00" fill="#e2e8f0">ServiceManagerPage</text>
</g>
<!-- navigation&#45;&gt;hidden_ServiceManager -->
<g id="edge43" class="edge">
<title>navigation&#45;&gt;hidden_ServiceManager</title>
<path fill="none" stroke="#fb923c" stroke-width="1.3" stroke-dasharray="5,2" d="M135.73,-1219.11C157.55,-1267.29 221.9,-1394.1 318,-1453 344.11,-1469.01 376.26,-1477.28 405.9,-1481.4"/>
<polygon fill="#fb923c" stroke="#fb923c" stroke-width="1.3" points="405.9,-1484.22 414.19,-1482.45 406.61,-1478.67 405.9,-1484.22"/>
</g>
<!-- hidden_DataSampling -->
<g id="node44" class="node">
<title>hidden_DataSampling</title>
<path fill="#431407" stroke="#fb923c" d="M556.5,-1440C556.5,-1440 433.5,-1440 433.5,-1440 427.5,-1440 421.5,-1434 421.5,-1428 421.5,-1428 421.5,-1414 421.5,-1414 421.5,-1408 427.5,-1402 433.5,-1402 433.5,-1402 556.5,-1402 556.5,-1402 562.5,-1402 568.5,-1408 568.5,-1414 568.5,-1414 568.5,-1428 568.5,-1428 568.5,-1434 562.5,-1440 556.5,-1440"/>
<text text-anchor="middle" x="495" y="-1424.8" font-family="Segoe UI" font-size="14.00" fill="#e2e8f0">DataSampling</text>
<text text-anchor="middle" x="495" y="-1409.8" font-family="Segoe UI" font-size="14.00" fill="#e2e8f0">DataSamplingPage</text>
</g>
<!-- navigation&#45;&gt;hidden_DataSampling -->
<g id="edge44" class="edge">
<title>navigation&#45;&gt;hidden_DataSampling</title>
<path fill="none" stroke="#fb923c" stroke-width="1.3" stroke-dasharray="5,2" d="M140.39,-1219.16C167.9,-1258.38 236.55,-1347.68 318,-1390 347.06,-1405.1 382.09,-1413.02 413.21,-1417.11"/>
<polygon fill="#fb923c" stroke="#fb923c" stroke-width="1.3" points="413.17,-1419.93 421.45,-1418.12 413.85,-1414.37 413.17,-1419.93"/>
</g>
<!-- hidden_TimeSeriesAlignment -->
<g id="node45" class="node">
<title>hidden_TimeSeriesAlignment</title>
<path fill="#431407" stroke="#fb923c" d="M581.5,-1377C581.5,-1377 408.5,-1377 408.5,-1377 402.5,-1377 396.5,-1371 396.5,-1365 396.5,-1365 396.5,-1351 396.5,-1351 396.5,-1345 402.5,-1339 408.5,-1339 408.5,-1339 581.5,-1339 581.5,-1339 587.5,-1339 593.5,-1345 593.5,-1351 593.5,-1351 593.5,-1365 593.5,-1365 593.5,-1371 587.5,-1377 581.5,-1377"/>
<text text-anchor="middle" x="495" y="-1361.8" font-family="Segoe UI" font-size="14.00" fill="#e2e8f0">TimeSeriesAlignment</text>
<text text-anchor="middle" x="495" y="-1346.8" font-family="Segoe UI" font-size="14.00" fill="#e2e8f0">TimeSeriesAlignmentPage</text>
</g>
<!-- navigation&#45;&gt;hidden_TimeSeriesAlignment -->
<g id="edge45" class="edge">
<title>navigation&#45;&gt;hidden_TimeSeriesAlignment</title>
<path fill="none" stroke="#fb923c" stroke-width="1.3" stroke-dasharray="5,2" d="M149.5,-1219.19C183.27,-1247.54 251.03,-1300.16 318,-1327 339.99,-1335.81 364.53,-1342.13 388.13,-1346.65"/>
<polygon fill="#fb923c" stroke="#fb923c" stroke-width="1.3" points="387.72,-1349.42 396.09,-1348.12 388.73,-1343.91 387.72,-1349.42"/>
</g>
<!-- hidden_ExportPresets -->
<g id="node46" class="node">
<title>hidden_ExportPresets</title>
<path fill="#431407" stroke="#fb923c" d="M556,-1314C556,-1314 434,-1314 434,-1314 428,-1314 422,-1308 422,-1302 422,-1302 422,-1288 422,-1288 422,-1282 428,-1276 434,-1276 434,-1276 556,-1276 556,-1276 562,-1276 568,-1282 568,-1288 568,-1288 568,-1302 568,-1302 568,-1308 562,-1314 556,-1314"/>
<text text-anchor="middle" x="495" y="-1298.8" font-family="Segoe UI" font-size="14.00" fill="#e2e8f0">ExportPresets</text>
<text text-anchor="middle" x="495" y="-1283.8" font-family="Segoe UI" font-size="14.00" fill="#e2e8f0">ExportPresetsPage</text>
</g>
<!-- navigation&#45;&gt;hidden_ExportPresets -->
<g id="edge46" class="edge">
<title>navigation&#45;&gt;hidden_ExportPresets</title>
<path fill="none" stroke="#fb923c" stroke-width="1.3" stroke-dasharray="5,2" d="M177.42,-1219.06C215.5,-1233.04 269.48,-1251.65 318,-1264 349.05,-1271.9 383.69,-1278.47 413.97,-1283.5"/>
<polygon fill="#fb923c" stroke="#fb923c" stroke-width="1.3" points="413.63,-1286.28 421.98,-1284.81 414.54,-1280.76 413.63,-1286.28"/>
</g>
<!-- hidden_AnalysisExport -->
<g id="node47" class="node">
<title>hidden_AnalysisExport</title>
<path fill="#431407" stroke="#fb923c" d="M559.5,-1251C559.5,-1251 430.5,-1251 430.5,-1251 424.5,-1251 418.5,-1245 418.5,-1239 418.5,-1239 418.5,-1225 418.5,-1225 418.5,-1219 424.5,-1213 430.5,-1213 430.5,-1213 559.5,-1213 559.5,-1213 565.5,-1213 571.5,-1219 571.5,-1225 571.5,-1225 571.5,-1239 571.5,-1239 571.5,-1245 565.5,-1251 559.5,-1251"/>
<text text-anchor="middle" x="495" y="-1235.8" font-family="Segoe UI" font-size="14.00" fill="#e2e8f0">AnalysisExport</text>
<text text-anchor="middle" x="495" y="-1220.8" font-family="Segoe UI" font-size="14.00" fill="#e2e8f0">AnalysisExportPage</text>
</g>
<!-- navigation&#45;&gt;hidden_AnalysisExport -->
<g id="edge47" class="edge">
<title>navigation&#45;&gt;hidden_AnalysisExport</title>
<path fill="none" stroke="#fb923c" stroke-width="1.3" stroke-dasharray="5,2" d="M197.73,-1206.13C258.33,-1211.42 345.97,-1219.08 410.21,-1224.68"/>
<polygon fill="#fb923c" stroke="#fb923c" stroke-width="1.3" points="410.11,-1227.49 418.32,-1225.39 410.6,-1221.91 410.11,-1227.49"/>
</g>
<!-- hidden_AnalysisExportWizard -->
<g id="node48" class="node">
<title>hidden_AnalysisExportWizard</title>
<path fill="#431407" stroke="#fb923c" d="M583,-1188C583,-1188 407,-1188 407,-1188 401,-1188 395,-1182 395,-1176 395,-1176 395,-1162 395,-1162 395,-1156 401,-1150 407,-1150 407,-1150 583,-1150 583,-1150 589,-1150 595,-1156 595,-1162 595,-1162 595,-1176 595,-1176 595,-1182 589,-1188 583,-1188"/>
<text text-anchor="middle" x="495" y="-1172.8" font-family="Segoe UI" font-size="14.00" fill="#e2e8f0">AnalysisExportWizard</text>
<text text-anchor="middle" x="495" y="-1157.8" font-family="Segoe UI" font-size="14.00" fill="#e2e8f0">AnalysisExportWizardPage</text>
</g>
<!-- navigation&#45;&gt;hidden_AnalysisExportWizard -->
<g id="edge48" class="edge">
<title>navigation&#45;&gt;hidden_AnalysisExportWizard</title>
<path fill="none" stroke="#fb923c" stroke-width="1.3" stroke-dasharray="5,2" d="M197.73,-1194.06C251.24,-1189.53 325.84,-1183.22 386.8,-1178.07"/>
<polygon fill="#fb923c" stroke="#fb923c" stroke-width="1.3" points="387.19,-1180.84 394.92,-1177.38 386.72,-1175.26 387.19,-1180.84"/>
</g>
<!-- hidden_EventReplay -->
<g id="node49" class="node">
<title>hidden_EventReplay</title>
<path fill="#431407" stroke="#fb923c" d="M551,-1125C551,-1125 439,-1125 439,-1125 433,-1125 427,-1119 427,-1113 427,-1113 427,-1099 427,-1099 427,-1093 433,-1087 439,-1087 439,-1087 551,-1087 551,-1087 557,-1087 563,-1093 563,-1099 563,-1099 563,-1113 563,-1113 563,-1119 557,-1125 551,-1125"/>
<text text-anchor="middle" x="495" y="-1109.8" font-family="Segoe UI" font-size="14.00" fill="#e2e8f0">EventReplay</text>
<text text-anchor="middle" x="495" y="-1094.8" font-family="Segoe UI" font-size="14.00" fill="#e2e8f0">EventReplayPage</text>
</g>
<!-- navigation&#45;&gt;hidden_EventReplay -->
<g id="edge49" class="edge">
<title>navigation&#45;&gt;hidden_EventReplay</title>
<path fill="none" stroke="#fb923c" stroke-width="1.3" stroke-dasharray="5,2" d="M197.55,-1184.55C215.8,-1179.87 235.31,-1174.28 253,-1168 282.98,-1157.36 287.66,-1147.59 318,-1138 350.21,-1127.82 386.83,-1120.51 418.29,-1115.48"/>
<polygon fill="#fb923c" stroke="#fb923c" stroke-width="1.3" points="419.12,-1118.18 426.59,-1114.18 418.25,-1112.65 419.12,-1118.18"/>
</g>
<!-- hidden_AdvancedAnalytics -->
<g id="node50" class="node">
<title>hidden_AdvancedAnalytics</title>
<path fill="#431407" stroke="#fb923c" d="M573.5,-1062C573.5,-1062 416.5,-1062 416.5,-1062 410.5,-1062 404.5,-1056 404.5,-1050 404.5,-1050 404.5,-1036 404.5,-1036 404.5,-1030 410.5,-1024 416.5,-1024 416.5,-1024 573.5,-1024 573.5,-1024 579.5,-1024 585.5,-1030 585.5,-1036 585.5,-1036 585.5,-1050 585.5,-1050 585.5,-1056 579.5,-1062 573.5,-1062"/>
<text text-anchor="middle" x="495" y="-1046.8" font-family="Segoe UI" font-size="14.00" fill="#e2e8f0">AdvancedAnalytics</text>
<text text-anchor="middle" x="495" y="-1031.8" font-family="Segoe UI" font-size="14.00" fill="#e2e8f0">AdvancedAnalyticsPage</text>
</g>
<!-- navigation&#45;&gt;hidden_AdvancedAnalytics -->
<g id="edge50" class="edge">
<title>navigation&#45;&gt;hidden_AdvancedAnalytics</title>
<path fill="none" stroke="#fb923c" stroke-width="1.3" stroke-dasharray="5,2" d="M197.68,-1191.29C216.81,-1186.56 236.73,-1179.26 253,-1168 294.47,-1139.31 275.55,-1102.23 318,-1075 341.2,-1060.12 369.46,-1051.71 396.49,-1047.08"/>
<polygon fill="#fb923c" stroke="#fb923c" stroke-width="1.3" points="396.99,-1049.83 404.45,-1045.81 396.11,-1044.3 396.99,-1049.83"/>
</g>
<!-- hidden_DataCalendar -->
<g id="node51" class="node">
<title>hidden_DataCalendar</title>
<path fill="#431407" stroke="#fb923c" d="M555,-999C555,-999 435,-999 435,-999 429,-999 423,-993 423,-987 423,-987 423,-973 423,-973 423,-967 429,-961 435,-961 435,-961 555,-961 555,-961 561,-961 567,-967 567,-973 567,-973 567,-987 567,-987 567,-993 561,-999 555,-999"/>
<text text-anchor="middle" x="495" y="-983.8" font-family="Segoe UI" font-size="14.00" fill="#e2e8f0">DataCalendar</text>
<text text-anchor="middle" x="495" y="-968.8" font-family="Segoe UI" font-size="14.00" fill="#e2e8f0">DataCalendarPage</text>
</g>
<!-- navigation&#45;&gt;hidden_DataCalendar -->
<g id="edge51" class="edge">
<title>navigation&#45;&gt;hidden_DataCalendar</title>
<path fill="none" stroke="#fb923c" stroke-width="1.3" stroke-dasharray="5,2" d="M197.73,-1193.86C217.41,-1189.21 237.61,-1181.31 253,-1168 309.82,-1118.88 259.5,-1059.11 318,-1012 344.87,-990.36 381.56,-981.48 414.49,-978.35"/>
<polygon fill="#fb923c" stroke="#fb923c" stroke-width="1.3" points="415.03,-981.12 422.77,-977.68 414.57,-975.54 415.03,-981.12"/>
</g>
<!-- hidden_StorageOptimization -->
<g id="node52" class="node">
<title>hidden_StorageOptimization</title>
<path fill="#431407" stroke="#fb923c" d="M579,-936C579,-936 411,-936 411,-936 405,-936 399,-930 399,-924 399,-924 399,-910 399,-910 399,-904 405,-898 411,-898 411,-898 579,-898 579,-898 585,-898 591,-904 591,-910 591,-910 591,-924 591,-924 591,-930 585,-936 579,-936"/>
<text text-anchor="middle" x="495" y="-920.8" font-family="Segoe UI" font-size="14.00" fill="#e2e8f0">StorageOptimization</text>
<text text-anchor="middle" x="495" y="-905.8" font-family="Segoe UI" font-size="14.00" fill="#e2e8f0">StorageOptimizationPage</text>
</g>
<!-- navigation&#45;&gt;hidden_StorageOptimization -->
<g id="edge52" class="edge">
<title>navigation&#45;&gt;hidden_StorageOptimization</title>
<path fill="none" stroke="#fb923c" stroke-width="1.3" stroke-dasharray="5,2" d="M197.67,-1195.08C217.69,-1190.51 238.09,-1182.34 253,-1168 326.17,-1097.62 242.41,-1016.79 318,-949 337.91,-931.15 364.33,-921.68 390.63,-916.99"/>
<polygon fill="#fb923c" stroke="#fb923c" stroke-width="1.3" points="391.33,-919.71 398.79,-915.68 390.44,-914.18 391.33,-919.71"/>
</g>
<!-- hidden_RetentionAssurance -->
<g id="node53" class="node">
<title>hidden_RetentionAssurance</title>
<path fill="#431407" stroke="#fb923c" d="M577,-873C577,-873 413,-873 413,-873 407,-873 401,-867 401,-861 401,-861 401,-847 401,-847 401,-841 407,-835 413,-835 413,-835 577,-835 577,-835 583,-835 589,-841 589,-847 589,-847 589,-861 589,-861 589,-867 583,-873 577,-873"/>
<text text-anchor="middle" x="495" y="-857.8" font-family="Segoe UI" font-size="14.00" fill="#e2e8f0">RetentionAssurance</text>
<text text-anchor="middle" x="495" y="-842.8" font-family="Segoe UI" font-size="14.00" fill="#e2e8f0">RetentionAssurancePage</text>
</g>
<!-- navigation&#45;&gt;hidden_RetentionAssurance -->
<g id="edge53" class="edge">
<title>navigation&#45;&gt;hidden_RetentionAssurance</title>
<path fill="none" stroke="#fb923c" stroke-width="1.3" stroke-dasharray="5,2" d="M197.54,-1196.15C217.92,-1191.66 238.55,-1183.27 253,-1168 341.39,-1074.57 222.4,-972.04 318,-886 338.38,-867.66 365.63,-858.16 392.6,-853.59"/>
<polygon fill="#fb923c" stroke="#fb923c" stroke-width="1.3" points="393.08,-856.35 400.57,-852.38 392.24,-850.81 393.08,-856.35"/>
</g>
<!-- hidden_MessagingHub -->
<g id="node54" class="node">
<title>hidden_MessagingHub</title>
<path fill="#431407" stroke="#fb923c" d="M559,-810C559,-810 431,-810 431,-810 425,-810 419,-804 419,-798 419,-798 419,-784 419,-784 419,-778 425,-772 431,-772 431,-772 559,-772 559,-772 565,-772 571,-778 571,-784 571,-784 571,-798 571,-798 571,-804 565,-810 559,-810"/>
<text text-anchor="middle" x="495" y="-794.8" font-family="Segoe UI" font-size="14.00" fill="#e2e8f0">MessagingHub</text>
<text text-anchor="middle" x="495" y="-779.8" font-family="Segoe UI" font-size="14.00" fill="#e2e8f0">MessagingHubPage</text>
</g>
<!-- navigation&#45;&gt;hidden_MessagingHub -->
<g id="edge54" class="edge">
<title>navigation&#45;&gt;hidden_MessagingHub</title>
<path fill="none" stroke="#fb923c" stroke-width="1.3" stroke-dasharray="5,2" d="M197.7,-1196.67C218.2,-1192.22 238.88,-1183.72 253,-1168 305.13,-1109.96 259.64,-874.78 318,-823 343.06,-800.77 378.24,-791.59 410.57,-788.41"/>
<polygon fill="#fb923c" stroke="#fb923c" stroke-width="1.3" points="410.99,-791.19 418.72,-787.73 410.52,-785.61 410.99,-791.19"/>
</g>
<!-- hidden_ResearchShell -->
<g id="node55" class="node">
<title>hidden_ResearchShell</title>
<path fill="#431407" stroke="#fb923c" d="M594,-747C594,-747 396,-747 396,-747 390,-747 384,-741 384,-735 384,-735 384,-721 384,-721 384,-715 390,-709 396,-709 396,-709 594,-709 594,-709 600,-709 606,-715 606,-721 606,-721 606,-735 606,-735 606,-741 600,-747 594,-747"/>
<text text-anchor="middle" x="495" y="-731.8" font-family="Segoe UI" font-size="14.00" fill="#e2e8f0">ResearchShell</text>
<text text-anchor="middle" x="495" y="-716.8" font-family="Segoe UI" font-size="14.00" fill="#e2e8f0">ResearchWorkspaceShellPage</text>
</g>
<!-- navigation&#45;&gt;hidden_ResearchShell -->
<g id="edge55" class="edge">
<title>navigation&#45;&gt;hidden_ResearchShell</title>
<path fill="none" stroke="#fb923c" stroke-width="1.3" stroke-dasharray="5,2" d="M197.51,-1196.86C218.13,-1192.44 238.92,-1183.91 253,-1168 313.85,-1099.25 251.7,-823.51 318,-760 333.88,-744.79 354.44,-735.54 375.87,-730.13"/>
<polygon fill="#fb923c" stroke="#fb923c" stroke-width="1.3" points="376.64,-732.83 383.8,-728.3 375.38,-727.37 376.64,-732.83"/>
</g>
<!-- hidden_TradingShell -->
<g id="node56" class="node">
<title>hidden_TradingShell</title>
<path fill="#431407" stroke="#fb923c" d="M588.5,-684C588.5,-684 401.5,-684 401.5,-684 395.5,-684 389.5,-678 389.5,-672 389.5,-672 389.5,-658 389.5,-658 389.5,-652 395.5,-646 401.5,-646 401.5,-646 588.5,-646 588.5,-646 594.5,-646 600.5,-652 600.5,-658 600.5,-658 600.5,-672 600.5,-672 600.5,-678 594.5,-684 588.5,-684"/>
<text text-anchor="middle" x="495" y="-668.8" font-family="Segoe UI" font-size="14.00" fill="#e2e8f0">TradingShell</text>
<text text-anchor="middle" x="495" y="-653.8" font-family="Segoe UI" font-size="14.00" fill="#e2e8f0">TradingWorkspaceShellPage</text>
</g>
<!-- navigation&#45;&gt;hidden_TradingShell -->
<g id="edge56" class="edge">
<title>navigation&#45;&gt;hidden_TradingShell</title>
<path fill="none" stroke="#fb923c" stroke-width="1.3" stroke-dasharray="5,2" d="M197.73,-1197.05C218.36,-1192.64 239.1,-1184.07 253,-1168 322.11,-1088.08 241.76,-770.15 318,-697 335.21,-680.48 357.94,-671 381.33,-665.81"/>
<polygon fill="#fb923c" stroke="#fb923c" stroke-width="1.3" points="381.99,-668.53 389.28,-664.21 380.88,-663.04 381.99,-668.53"/>
</g>
<!-- hidden_Workspaces -->
<g id="node57" class="node">
<title>hidden_Workspaces</title>
<path fill="#431407" stroke="#fb923c" d="M545.5,-621C545.5,-621 444.5,-621 444.5,-621 438.5,-621 432.5,-615 432.5,-609 432.5,-609 432.5,-595 432.5,-595 432.5,-589 438.5,-583 444.5,-583 444.5,-583 545.5,-583 545.5,-583 551.5,-583 557.5,-589 557.5,-595 557.5,-595 557.5,-609 557.5,-609 557.5,-615 551.5,-621 545.5,-621"/>
<text text-anchor="middle" x="495" y="-605.8" font-family="Segoe UI" font-size="14.00" fill="#e2e8f0">Workspaces</text>
<text text-anchor="middle" x="495" y="-590.8" font-family="Segoe UI" font-size="14.00" fill="#e2e8f0">WorkspacePage</text>
</g>
<!-- navigation&#45;&gt;hidden_Workspaces -->
<g id="edge57" class="edge">
<title>navigation&#45;&gt;hidden_Workspaces</title>
<path fill="none" stroke="#fb923c" stroke-width="1.3" stroke-dasharray="5,2" d="M197.57,-1197.27C218.33,-1192.89 239.17,-1184.28 253,-1168 330.38,-1076.88 231.16,-716.16 318,-634 346,-607.51 388.22,-599.18 424.29,-597.64"/>
<polygon fill="#fb923c" stroke="#fb923c" stroke-width="1.3" points="424.44,-600.43 432.36,-597.4 424.28,-594.83 424.44,-600.43"/>
</g>
<!-- hidden_NotificationCenter -->
<g id="node58" class="node">
<title>hidden_NotificationCenter</title>
<path fill="#431407" stroke="#fb923c" d="M570.5,-558C570.5,-558 419.5,-558 419.5,-558 413.5,-558 407.5,-552 407.5,-546 407.5,-546 407.5,-532 407.5,-532 407.5,-526 413.5,-520 419.5,-520 419.5,-520 570.5,-520 570.5,-520 576.5,-520 582.5,-526 582.5,-532 582.5,-532 582.5,-546 582.5,-546 582.5,-552 576.5,-558 570.5,-558"/>
<text text-anchor="middle" x="495" y="-542.8" font-family="Segoe UI" font-size="14.00" fill="#e2e8f0">NotificationCenter</text>
<text text-anchor="middle" x="495" y="-527.8" font-family="Segoe UI" font-size="14.00" fill="#e2e8f0">NotificationCenterPage</text>
</g>
<!-- navigation&#45;&gt;hidden_NotificationCenter -->
<g id="edge58" class="edge">
<title>navigation&#45;&gt;hidden_NotificationCenter</title>
<path fill="none" stroke="#fb923c" stroke-width="1.3" stroke-dasharray="5,2" d="M197.69,-1197.37C218.45,-1192.99 239.27,-1184.37 253,-1168 338.75,-1065.75 220.52,-662.14 318,-571 339.77,-550.64 369.96,-541.05 399.19,-537.02"/>
<polygon fill="#fb923c" stroke="#fb923c" stroke-width="1.3" points="399.79,-539.76 407.4,-536.02 399.12,-534.2 399.79,-539.76"/>
</g>
<!-- hidden_Help -->
<g id="node59" class="node">
<title>hidden_Help</title>
<path fill="#431407" stroke="#fb923c" d="M523.5,-495C523.5,-495 466.5,-495 466.5,-495 460.5,-495 454.5,-489 454.5,-483 454.5,-483 454.5,-469 454.5,-469 454.5,-463 460.5,-457 466.5,-457 466.5,-457 523.5,-457 523.5,-457 529.5,-457 535.5,-463 535.5,-469 535.5,-469 535.5,-483 535.5,-483 535.5,-489 529.5,-495 523.5,-495"/>
<text text-anchor="middle" x="495" y="-479.8" font-family="Segoe UI" font-size="14.00" fill="#e2e8f0">Help</text>
<text text-anchor="middle" x="495" y="-464.8" font-family="Segoe UI" font-size="14.00" fill="#e2e8f0">HelpPage</text>
</g>
<!-- navigation&#45;&gt;hidden_Help -->
<g id="edge59" class="edge">
<title>navigation&#45;&gt;hidden_Help</title>
<path fill="none" stroke="#fb923c" stroke-width="1.3" stroke-dasharray="5,2" d="M197.79,-1197.45C218.55,-1193.08 239.35,-1184.43 253,-1168 347.16,-1054.63 209.46,-607.7 318,-508 352.38,-476.42 407.06,-470.89 446.35,-471.71"/>
<polygon fill="#fb923c" stroke="#fb923c" stroke-width="1.3" points="446.4,-474.51 454.49,-471.98 446.59,-468.92 446.4,-474.51"/>
</g>
<!-- hidden_Welcome -->
<g id="node60" class="node">
<title>hidden_Welcome</title>
<path fill="#431407" stroke="#fb923c" d="M539,-432C539,-432 451,-432 451,-432 445,-432 439,-426 439,-420 439,-420 439,-406 439,-406 439,-400 445,-394 451,-394 451,-394 539,-394 539,-394 545,-394 551,-400 551,-406 551,-406 551,-420 551,-420 551,-426 545,-432 539,-432"/>
<text text-anchor="middle" x="495" y="-416.8" font-family="Segoe UI" font-size="14.00" fill="#e2e8f0">Welcome</text>
<text text-anchor="middle" x="495" y="-401.8" font-family="Segoe UI" font-size="14.00" fill="#e2e8f0">WelcomePage</text>
</g>
<!-- navigation&#45;&gt;hidden_Welcome -->
<g id="edge60" class="edge">
<title>navigation&#45;&gt;hidden_Welcome</title>
<path fill="none" stroke="#fb923c" stroke-width="1.3" stroke-dasharray="5,2" d="M197.52,-1197.57C218.4,-1193.23 239.34,-1184.57 253,-1168 296.83,-1114.85 277.68,-616.96 289,-549 296.88,-501.67 282.54,-477.33 318,-445 348.08,-417.57 393.5,-409.84 430.67,-408.83"/>
<polygon fill="#fb923c" stroke="#fb923c" stroke-width="1.3" points="430.99,-411.62 438.95,-408.71 430.91,-406.02 430.99,-411.62"/>
</g>
<!-- hidden_CredentialManagement -->
<g id="node61" class="node">
<title>hidden_CredentialManagement</title>
<path fill="#431407" stroke="#fb923c" d="M588.5,-369C588.5,-369 401.5,-369 401.5,-369 395.5,-369 389.5,-363 389.5,-357 389.5,-357 389.5,-343 389.5,-343 389.5,-337 395.5,-331 401.5,-331 401.5,-331 588.5,-331 588.5,-331 594.5,-331 600.5,-337 600.5,-343 600.5,-343 600.5,-357 600.5,-357 600.5,-363 594.5,-369 588.5,-369"/>
<text text-anchor="middle" x="495" y="-353.8" font-family="Segoe UI" font-size="14.00" fill="#e2e8f0">CredentialManagement</text>
<text text-anchor="middle" x="495" y="-338.8" font-family="Segoe UI" font-size="14.00" fill="#e2e8f0">CredentialManagementPage</text>
</g>
<!-- navigation&#45;&gt;hidden_CredentialManagement -->
<g id="edge61" class="edge">
<title>navigation&#45;&gt;hidden_CredentialManagement</title>
<path fill="none" stroke="#fb923c" stroke-width="1.3" stroke-dasharray="5,2" d="M197.54,-1197.58C218.42,-1193.24 239.35,-1184.57 253,-1168 308.72,-1100.36 255.88,-443.81 318,-382 335.01,-365.08 357.79,-355.45 381.3,-350.26"/>
<polygon fill="#fb923c" stroke="#fb923c" stroke-width="1.3" points="381.99,-352.98 389.29,-348.67 380.9,-347.49 381.99,-352.98"/>
</g>
<!-- hidden_KeyboardShortcuts -->
<g id="node62" class="node">
<title>hidden_KeyboardShortcuts</title>
<path fill="#431407" stroke="#fb923c" d="M573.5,-306C573.5,-306 416.5,-306 416.5,-306 410.5,-306 404.5,-300 404.5,-294 404.5,-294 404.5,-280 404.5,-280 404.5,-274 410.5,-268 416.5,-268 416.5,-268 573.5,-268 573.5,-268 579.5,-268 585.5,-274 585.5,-280 585.5,-280 585.5,-294 585.5,-294 585.5,-300 579.5,-306 573.5,-306"/>
<text text-anchor="middle" x="495" y="-290.8" font-family="Segoe UI" font-size="14.00" fill="#e2e8f0">KeyboardShortcuts</text>
<text text-anchor="middle" x="495" y="-275.8" font-family="Segoe UI" font-size="14.00" fill="#e2e8f0">KeyboardShortcutsPage</text>
</g>
<!-- navigation&#45;&gt;hidden_KeyboardShortcuts -->
<g id="edge62" class="edge">
<title>navigation&#45;&gt;hidden_KeyboardShortcuts</title>
<path fill="none" stroke="#fb923c" stroke-width="1.3" stroke-dasharray="5,2" d="M197.55,-1197.6C218.44,-1193.25 239.36,-1184.59 253,-1168 313.08,-1094.92 252.21,-386.99 318,-319 338.33,-297.99 367.51,-288.1 396.29,-284"/>
<polygon fill="#fb923c" stroke="#fb923c" stroke-width="1.3" points="396.79,-286.76 404.38,-282.99 396.1,-281.2 396.79,-286.76"/>
</g>
<!-- hidden_SetupWizard -->
<g id="node63" class="node">
<title>hidden_SetupWizard</title>
<path fill="#431407" stroke="#fb923c" d="M551.5,-243C551.5,-243 438.5,-243 438.5,-243 432.5,-243 426.5,-237 426.5,-231 426.5,-231 426.5,-217 426.5,-217 426.5,-211 432.5,-205 438.5,-205 438.5,-205 551.5,-205 551.5,-205 557.5,-205 563.5,-211 563.5,-217 563.5,-217 563.5,-231 563.5,-231 563.5,-237 557.5,-243 551.5,-243"/>
<text text-anchor="middle" x="495" y="-227.8" font-family="Segoe UI" font-size="14.00" fill="#e2e8f0">SetupWizard</text>
<text text-anchor="middle" x="495" y="-212.8" font-family="Segoe UI" font-size="14.00" fill="#e2e8f0">SetupWizardPage</text>
</g>
<!-- navigation&#45;&gt;hidden_SetupWizard -->
<g id="edge63" class="edge">
<title>navigation&#45;&gt;hidden_SetupWizard</title>
<path fill="none" stroke="#fb923c" stroke-width="1.3" stroke-dasharray="5,2" d="M197.6,-1197.63C218.48,-1193.29 239.4,-1184.62 253,-1168 317.33,-1089.38 247.41,-329.06 318,-256 343.47,-229.64 382.87,-220.78 417.94,-218.89"/>
<polygon fill="#fb923c" stroke="#fb923c" stroke-width="1.3" points="418.4,-221.68 426.28,-218.57 418.18,-216.08 418.4,-221.68"/>
</g>
<!-- hidden_AddProviderWizard -->
<g id="node64" class="node">
<title>hidden_AddProviderWizard</title>
<path fill="#431407" stroke="#fb923c" d="M573.5,-180C573.5,-180 416.5,-180 416.5,-180 410.5,-180 404.5,-174 404.5,-168 404.5,-168 404.5,-154 404.5,-154 404.5,-148 410.5,-142 416.5,-142 416.5,-142 573.5,-142 573.5,-142 579.5,-142 585.5,-148 585.5,-154 585.5,-154 585.5,-168 585.5,-168 585.5,-174 579.5,-180 573.5,-180"/>
<text text-anchor="middle" x="495" y="-164.8" font-family="Segoe UI" font-size="14.00" fill="#e2e8f0">AddProviderWizard</text>
<text text-anchor="middle" x="495" y="-149.8" font-family="Segoe UI" font-size="14.00" fill="#e2e8f0">AddProviderWizardPage</text>
</g>
<!-- navigation&#45;&gt;hidden_AddProviderWizard -->
<g id="edge64" class="edge">
<title>navigation&#45;&gt;hidden_AddProviderWizard</title>
<path fill="none" stroke="#fb923c" stroke-width="1.3" stroke-dasharray="5,2" d="M197.65,-1197.68C218.54,-1193.34 239.44,-1184.65 253,-1168 321.54,-1083.8 242.04,-270.57 318,-193 338.36,-172.21 367.39,-162.35 396.02,-158.21"/>
<polygon fill="#fb923c" stroke="#fb923c" stroke-width="1.3" points="396.49,-160.97 404.07,-157.19 395.78,-155.41 396.49,-160.97"/>
</g>
<!-- hidden_ActivityLog -->
<g id="node65" class="node">
<title>hidden_ActivityLog</title>
<path fill="#431407" stroke="#fb923c" d="M545.5,-117C545.5,-117 444.5,-117 444.5,-117 438.5,-117 432.5,-111 432.5,-105 432.5,-105 432.5,-91 432.5,-91 432.5,-85 438.5,-79 444.5,-79 444.5,-79 545.5,-79 545.5,-79 551.5,-79 557.5,-85 557.5,-91 557.5,-91 557.5,-105 557.5,-105 557.5,-111 551.5,-117 545.5,-117"/>
<text text-anchor="middle" x="495" y="-101.8" font-family="Segoe UI" font-size="14.00" fill="#e2e8f0">ActivityLog</text>
<text text-anchor="middle" x="495" y="-86.8" font-family="Segoe UI" font-size="14.00" fill="#e2e8f0">ActivityLogPage</text>
</g>
<!-- navigation&#45;&gt;hidden_ActivityLog -->
<g id="edge65" class="edge">
<title>navigation&#45;&gt;hidden_ActivityLog</title>
<path fill="none" stroke="#fb923c" stroke-width="1.3" stroke-dasharray="5,2" d="M197.69,-1197.71C218.58,-1193.37 239.48,-1184.68 253,-1168 325.78,-1078.24 236.73,-212.16 318,-130 345.21,-102.49 387.61,-94.18 423.98,-92.89"/>
<polygon fill="#fb923c" stroke="#fb923c" stroke-width="1.3" points="424.19,-95.69 432.12,-92.72 424.06,-90.09 424.19,-95.69"/>
</g>
<!-- hidden_SecurityMaster -->
<g id="node66" class="node">
<title>hidden_SecurityMaster</title>
<path fill="#431407" stroke="#fb923c" d="M560,-54C560,-54 430,-54 430,-54 424,-54 418,-48 418,-42 418,-42 418,-28 418,-28 418,-22 424,-16 430,-16 430,-16 560,-16 560,-16 566,-16 572,-22 572,-28 572,-28 572,-42 572,-42 572,-48 566,-54 560,-54"/>
<text text-anchor="middle" x="495" y="-38.8" font-family="Segoe UI" font-size="14.00" fill="#e2e8f0">SecurityMaster</text>
<text text-anchor="middle" x="495" y="-23.8" font-family="Segoe UI" font-size="14.00" fill="#e2e8f0">SecurityMasterPage</text>
</g>
<!-- navigation&#45;&gt;hidden_SecurityMaster -->
<g id="edge66" class="edge">
<title>navigation&#45;&gt;hidden_SecurityMaster</title>
<path fill="none" stroke="#fb923c" stroke-width="1.3" stroke-dasharray="5,2" d="M197.72,-1197.73C218.61,-1193.4 239.5,-1184.7 253,-1168 330.02,-1072.69 231.32,-153.63 318,-67 341.79,-43.22 376.96,-33.83 409.62,-30.92"/>
<polygon fill="#fb923c" stroke="#fb923c" stroke-width="1.3" points="410.09,-33.69 417.86,-30.31 409.68,-28.11 410.09,-33.69"/>
</g>
<!-- page_Dashboard -->
<g id="node5" class="node">
<title>page_Dashboard</title>
<path fill="#1e293b" stroke="#475569" d="M1003.5,-2414C1003.5,-2414 806.5,-2414 806.5,-2414 800.5,-2414 794.5,-2408 794.5,-2402 794.5,-2402 794.5,-2388 794.5,-2388 794.5,-2382 800.5,-2376 806.5,-2376 806.5,-2376 1003.5,-2376 1003.5,-2376 1009.5,-2376 1015.5,-2382 1015.5,-2388 1015.5,-2388 1015.5,-2402 1015.5,-2402 1015.5,-2408 1009.5,-2414 1003.5,-2414"/>
<text text-anchor="middle" x="905" y="-2398.8" font-family="Segoe UI" font-size="14.00" fill="#e2e8f0">Dashboard</text>
<text text-anchor="middle" x="905" y="-2383.8" font-family="Segoe UI" font-size="14.00" fill="#e2e8f0">Dashboard → DashboardPage</text>
</g>
<!-- workspace_1&#45;&gt;page_Dashboard -->
<g id="edge3" class="edge">
<title>workspace_1&#45;&gt;page_Dashboard</title>
<path fill="none" stroke="#94a3b8" stroke-width="1.3" d="M496.85,-3036.74C501.77,-2950.01 534.15,-2592.74 737,-2427 751.3,-2415.31 768.59,-2407.43 786.54,-2402.19"/>
<polygon fill="#94a3b8" stroke="#94a3b8" stroke-width="1.3" points="787.28,-2404.89 794.27,-2400.1 785.82,-2399.48 787.28,-2404.89"/>
</g>
<!-- page_LiveData -->
<g id="node6" class="node">
<title>page_LiveData</title>
<path fill="#1e293b" stroke="#475569" d="M1011.5,-2477C1011.5,-2477 798.5,-2477 798.5,-2477 792.5,-2477 786.5,-2471 786.5,-2465 786.5,-2465 786.5,-2451 786.5,-2451 786.5,-2445 792.5,-2439 798.5,-2439 798.5,-2439 1011.5,-2439 1011.5,-2439 1017.5,-2439 1023.5,-2445 1023.5,-2451 1023.5,-2451 1023.5,-2465 1023.5,-2465 1023.5,-2471 1017.5,-2477 1011.5,-2477"/>
<text text-anchor="middle" x="905" y="-2461.8" font-family="Segoe UI" font-size="14.00" fill="#e2e8f0">LiveData</text>
<text text-anchor="middle" x="905" y="-2446.8" font-family="Segoe UI" font-size="14.00" fill="#e2e8f0">LiveData → LiveDataViewerPage</text>
</g>
<!-- workspace_1&#45;&gt;page_LiveData -->
<g id="edge4" class="edge">
<title>workspace_1&#45;&gt;page_LiveData</title>
<path fill="none" stroke="#94a3b8" stroke-width="1.3" d="M497.83,-3036.85C506.64,-2955.89 552.25,-2639.03 737,-2490 749.13,-2480.21 763.36,-2473.1 778.31,-2467.98"/>
<polygon fill="#94a3b8" stroke="#94a3b8" stroke-width="1.3" points="779.41,-2470.57 786.18,-2465.48 777.71,-2465.23 779.41,-2470.57"/>
</g>
<!-- page_Charts -->
<g id="node7" class="node">
<title>page_Charts</title>
<path fill="#1e293b" stroke="#475569" d="M981,-2540C981,-2540 829,-2540 829,-2540 823,-2540 817,-2534 817,-2528 817,-2528 817,-2514 817,-2514 817,-2508 823,-2502 829,-2502 829,-2502 981,-2502 981,-2502 987,-2502 993,-2508 993,-2514 993,-2514 993,-2528 993,-2528 993,-2534 987,-2540 981,-2540"/>
<text text-anchor="middle" x="905" y="-2524.8" font-family="Segoe UI" font-size="14.00" fill="#e2e8f0">Charts</text>
<text text-anchor="middle" x="905" y="-2509.8" font-family="Segoe UI" font-size="14.00" fill="#e2e8f0">Charts → ChartingPage</text>
</g>
<!-- workspace_1&#45;&gt;page_Charts -->
<g id="edge5" class="edge">
<title>workspace_1&#45;&gt;page_Charts</title>
<path fill="none" stroke="#94a3b8" stroke-width="1.3" d="M498.9,-3036.93C511.43,-2961.69 568.08,-2683.2 737,-2553 757.36,-2537.31 783.19,-2528.59 808.41,-2523.91"/>
<polygon fill="#94a3b8" stroke="#94a3b8" stroke-width="1.3" points="809.15,-2526.63 816.58,-2522.53 808.22,-2521.11 809.15,-2526.63"/>
</g>
<!-- page_QuantScript -->
<g id="node8" class="node">
<title>page_QuantScript</title>
<path fill="#1e293b" stroke="#475569" d="M1011.5,-2603C1011.5,-2603 798.5,-2603 798.5,-2603 792.5,-2603 786.5,-2597 786.5,-2591 786.5,-2591 786.5,-2577 786.5,-2577 786.5,-2571 792.5,-2565 798.5,-2565 798.5,-2565 1011.5,-2565 1011.5,-2565 1017.5,-2565 1023.5,-2571 1023.5,-2577 1023.5,-2577 1023.5,-2591 1023.5,-2591 1023.5,-2597 1017.5,-2603 1011.5,-2603"/>
<text text-anchor="middle" x="905" y="-2587.8" font-family="Segoe UI" font-size="14.00" fill="#e2e8f0">QuantScript</text>
<text text-anchor="middle" x="905" y="-2572.8" font-family="Segoe UI" font-size="14.00" fill="#e2e8f0">QuantScript → QuantScriptPage</text>
</g>
<!-- workspace_1&#45;&gt;page_QuantScript -->
<g id="edge6" class="edge">
<title>workspace_1&#45;&gt;page_QuantScript</title>
<path fill="none" stroke="#94a3b8" stroke-width="1.3" d="M499.35,-3036.63C514.25,-2965.12 580.71,-2717.84 737,-2604 749.4,-2594.97 763.64,-2588.29 778.46,-2583.47"/>
<polygon fill="#94a3b8" stroke="#94a3b8" stroke-width="1.3" points="779.41,-2586.11 786.26,-2581.12 777.8,-2580.75 779.41,-2586.11"/>
</g>
<!-- workspace_1&#45;&gt;page_QuantScript -->
<g id="edge8" class="edge">
<title>workspace_1&#45;&gt;page_QuantScript</title>
<path fill="none" stroke="#94a3b8" stroke-width="1.3" d="M501.68,-3036.73C520.42,-2968.12 587.75,-2737.71 737,-2629 752.14,-2617.97 770.03,-2610.45 788.38,-2605.17"/>
<polygon fill="#94a3b8" stroke="#94a3b8" stroke-width="1.3" points="789.27,-2607.83 796.26,-2603.04 787.81,-2602.42 789.27,-2607.83"/>
</g>
<!-- page_RunMat -->
<g id="node9" class="node">
<title>page_RunMat</title>
<path fill="#1e293b" stroke="#475569" d="M981,-2666C981,-2666 829,-2666 829,-2666 823,-2666 817,-2660 817,-2654 817,-2654 817,-2640 817,-2640 817,-2634 823,-2628 829,-2628 829,-2628 981,-2628 981,-2628 987,-2628 993,-2634 993,-2640 993,-2640 993,-2654 993,-2654 993,-2660 987,-2666 981,-2666"/>
<text text-anchor="middle" x="905" y="-2650.8" font-family="Segoe UI" font-size="14.00" fill="#e2e8f0">RunMat</text>
<text text-anchor="middle" x="905" y="-2635.8" font-family="Segoe UI" font-size="14.00" fill="#e2e8f0">RunMat → RunMatPage</text>
</g>
<!-- workspace_1&#45;&gt;page_RunMat -->
<g id="edge7" class="edge">
<title>workspace_1&#45;&gt;page_RunMat</title>
<path fill="none" stroke="#94a3b8" stroke-width="1.3" d="M502.07,-3036.86C523.08,-2973.99 599.07,-2772.49 737,-2679 758.06,-2664.73 783.86,-2656.44 808.83,-2651.72"/>
<polygon fill="#94a3b8" stroke="#94a3b8" stroke-width="1.3" points="809.5,-2654.45 816.9,-2650.31 808.54,-2648.93 809.5,-2654.45"/>
</g>
<!-- page_StrategyRuns -->
<g id="node10" class="node">
<title>page_StrategyRuns</title>
<path fill="#1e293b" stroke="#475569" d="M1022,-2729C1022,-2729 788,-2729 788,-2729 782,-2729 776,-2723 776,-2717 776,-2717 776,-2703 776,-2703 776,-2697 782,-2691 788,-2691 788,-2691 1022,-2691 1022,-2691 1028,-2691 1034,-2697 1034,-2703 1034,-2703 1034,-2717 1034,-2717 1034,-2723 1028,-2729 1022,-2729"/>
<text text-anchor="middle" x="905" y="-2713.8" font-family="Segoe UI" font-size="14.00" fill="#e2e8f0">StrategyRuns</text>
<text text-anchor="middle" x="905" y="-2698.8" font-family="Segoe UI" font-size="14.00" fill="#e2e8f0">StrategyRuns → StrategyRunsPage</text>
</g>
<!-- workspace_1&#45;&gt;page_StrategyRuns -->
<g id="edge9" class="edge">
<title>workspace_1&#45;&gt;page_StrategyRuns</title>
<path fill="none" stroke="#94a3b8" stroke-width="1.3" d="M509.18,-3036.83C543.6,-2995.07 637.88,-2894.9 701,-2800 720.37,-2770.87 708.99,-2750.96 737,-2730 746.41,-2722.96 756.93,-2717.33 767.99,-2712.9"/>
<polygon fill="#94a3b8" stroke="#94a3b8" stroke-width="1.3" points="769.21,-2715.43 775.73,-2710.01 767.25,-2710.18 769.21,-2715.43"/>
</g>
<!-- workspace_1&#45;&gt;page_StrategyRuns -->
<g id="edge13" class="edge">
<title>workspace_1&#45;&gt;page_StrategyRuns</title>
<path fill="none" stroke="#94a3b8" stroke-width="1.3" d="M522.49,-3036.93C563.83,-2998.25 644.78,-2909.54 701,-2825 720.37,-2795.87 708.99,-2775.96 737,-2755 751.55,-2744.11 768.76,-2736.6 786.51,-2731.31"/>
<polygon fill="#94a3b8" stroke="#94a3b8" stroke-width="1.3" points="787.75,-2733.87 794.7,-2729.03 786.24,-2728.48 787.75,-2733.87"/>
</g>
<!-- page_OrderBook -->
<g id="node11" class="node">
<title>page_OrderBook</title>
<path fill="#1e293b" stroke="#475569" d="M1002.5,-2792C1002.5,-2792 807.5,-2792 807.5,-2792 801.5,-2792 795.5,-2786 795.5,-2780 795.5,-2780 795.5,-2766 795.5,-2766 795.5,-2760 801.5,-2754 807.5,-2754 807.5,-2754 1002.5,-2754 1002.5,-2754 1008.5,-2754 1014.5,-2760 1014.5,-2766 1014.5,-2766 1014.5,-2780 1014.5,-2780 1014.5,-2786 1008.5,-2792 1002.5,-2792"/>
<text text-anchor="middle" x="905" y="-2776.8" font-family="Segoe UI" font-size="14.00" fill="#e2e8f0">OrderBook</text>
<text text-anchor="middle" x="905" y="-2761.8" font-family="Segoe UI" font-size="14.00" fill="#e2e8f0">OrderBook → OrderBookPage</text>
</g>
<!-- workspace_1&#45;&gt;page_OrderBook -->
<g id="edge10" class="edge">
<title>workspace_1&#45;&gt;page_OrderBook</title>
<path fill="none" stroke="#94a3b8" stroke-width="1.3" d="M540.02,-3036.91C586.48,-3014.61 658.72,-2973.44 701,-2917 732.35,-2875.15 697.85,-2839.66 737,-2805 751.22,-2792.42 768.83,-2784.14 787.24,-2778.79"/>
<polygon fill="#94a3b8" stroke="#94a3b8" stroke-width="1.3" points="788.16,-2781.44 795.16,-2776.67 786.71,-2776.03 788.16,-2781.44"/>
</g>
<!-- page_Watchlist -->
<g id="node12" class="node">
<title>page_Watchlist</title>
<path fill="#1e293b" stroke="#475569" d="M991.5,-2855C991.5,-2855 818.5,-2855 818.5,-2855 812.5,-2855 806.5,-2849 806.5,-2843 806.5,-2843 806.5,-2829 806.5,-2829 806.5,-2823 812.5,-2817 818.5,-2817 818.5,-2817 991.5,-2817 991.5,-2817 997.5,-2817 1003.5,-2823 1003.5,-2829 1003.5,-2829 1003.5,-2843 1003.5,-2843 1003.5,-2849 997.5,-2855 991.5,-2855"/>
<text text-anchor="middle" x="905" y="-2839.8" font-family="Segoe UI" font-size="14.00" fill="#e2e8f0">Watchlist</text>
<text text-anchor="middle" x="905" y="-2824.8" font-family="Segoe UI" font-size="14.00" fill="#e2e8f0">Watchlist → WatchlistPage</text>
</g>
<!-- workspace_1&#45;&gt;page_Watchlist -->
<g id="edge11" class="edge">
<title>workspace_1&#45;&gt;page_Watchlist</title>
<path fill="none" stroke="#94a3b8" stroke-width="1.3" d="M557.08,-3045.41C602.45,-3034.54 662.85,-3013.29 701,-2973 734.92,-2937.18 699.75,-2900.34 737,-2868 754.15,-2853.11 776.07,-2844.28 798.35,-2839.21"/>
<polygon fill="#94a3b8" stroke="#94a3b8" stroke-width="1.3" points="798.98,-2841.94 806.24,-2837.57 797.84,-2836.46 798.98,-2841.94"/>
</g>
<!-- page_Backtest -->
<g id="node13" class="node">
<title>page_Backtest</title>
<path fill="#1e293b" stroke="#475569" d="M988.5,-2918C988.5,-2918 821.5,-2918 821.5,-2918 815.5,-2918 809.5,-2912 809.5,-2906 809.5,-2906 809.5,-2892 809.5,-2892 809.5,-2886 815.5,-2880 821.5,-2880 821.5,-2880 988.5,-2880 988.5,-2880 994.5,-2880 1000.5,-2886 1000.5,-2892 1000.5,-2892 1000.5,-2906 1000.5,-2906 1000.5,-2912 994.5,-2918 988.5,-2918"/>
<text text-anchor="middle" x="905" y="-2902.8" font-family="Segoe UI" font-size="14.00" fill="#e2e8f0">Backtest</text>
<text text-anchor="middle" x="905" y="-2887.8" font-family="Segoe UI" font-size="14.00" fill="#e2e8f0">Backtest → BacktestPage</text>
</g>
<!-- workspace_1&#45;&gt;page_Backtest -->
<g id="edge12" class="edge">
<title>workspace_1&#45;&gt;page_Backtest</title>
<path fill="none" stroke="#94a3b8" stroke-width="1.3" d="M557.18,-3053.81C601.42,-3049.3 660.33,-3036.92 701,-3004 729.12,-2981.24 708.22,-2952.92 737,-2931 755.49,-2916.92 778.39,-2908.47 801.26,-2903.52"/>
<polygon fill="#94a3b8" stroke="#94a3b8" stroke-width="1.3" points="802.03,-2906.22 809.33,-2901.92 800.94,-2900.73 802.03,-2906.22"/>
</g>
<!-- page_LeanIntegration -->
<g id="node14" class="node">
<title>page_LeanIntegration</title>
<path fill="#1e293b" stroke="#475569" d="M1038,-2981C1038,-2981 772,-2981 772,-2981 766,-2981 760,-2975 760,-2969 760,-2969 760,-2955 760,-2955 760,-2949 766,-2943 772,-2943 772,-2943 1038,-2943 1038,-2943 1044,-2943 1050,-2949 1050,-2955 1050,-2955 1050,-2969 1050,-2969 1050,-2975 1044,-2981 1038,-2981"/>
<text text-anchor="middle" x="905" y="-2965.8" font-family="Segoe UI" font-size="14.00" fill="#e2e8f0">LeanIntegration</text>
<text text-anchor="middle" x="905" y="-2950.8" font-family="Segoe UI" font-size="14.00" fill="#e2e8f0">LeanIntegration → LeanIntegrationPage</text>
</g>
<!-- workspace_1&#45;&gt;page_LeanIntegration -->
<g id="edge14" class="edge">
<title>workspace_1&#45;&gt;page_LeanIntegration</title>
<path fill="none" stroke="#94a3b8" stroke-width="1.3" d="M557.09,-3054.36C599.13,-3051.3 655.39,-3043.31 701,-3023 719.77,-3014.64 718.36,-3002.63 737,-2994 745.58,-2990.03 754.63,-2986.55 763.89,-2983.5"/>
<polygon fill="#94a3b8" stroke="#94a3b8" stroke-width="1.3" points="764.93,-2986.11 771.72,-2981.04 763.25,-2980.77 764.93,-2986.11"/>
</g>
<!-- page_PortfolioImport -->
<g id="node15" class="node">
<title>page_PortfolioImport</title>
<path fill="#1e293b" stroke="#475569" d="M1032,-3044C1032,-3044 778,-3044 778,-3044 772,-3044 766,-3038 766,-3032 766,-3032 766,-3018 766,-3018 766,-3012 772,-3006 778,-3006 778,-3006 1032,-3006 1032,-3006 1038,-3006 1044,-3012 1044,-3018 1044,-3018 1044,-3032 1044,-3032 1044,-3038 1038,-3044 1032,-3044"/>
<text text-anchor="middle" x="905" y="-3028.8" font-family="Segoe UI" font-size="14.00" fill="#e2e8f0">PortfolioImport</text>
<text text-anchor="middle" x="905" y="-3013.8" font-family="Segoe UI" font-size="14.00" fill="#e2e8f0">PortfolioImport → PortfolioImportPage</text>
</g>
<!-- workspace_1&#45;&gt;page_PortfolioImport -->
<g id="edge15" class="edge">
<title>workspace_1&#45;&gt;page_PortfolioImport</title>
<path fill="none" stroke="#94a3b8" stroke-width="1.3" d="M557.08,-3051.36C609.95,-3047.34 688.56,-3041.37 757.59,-3036.12"/>
<polygon fill="#94a3b8" stroke="#94a3b8" stroke-width="1.3" points="758.19,-3038.89 765.96,-3035.49 757.77,-3033.3 758.19,-3038.89"/>
</g>
<!-- page_TradingHours -->
<g id="node16" class="node">
<title>page_TradingHours</title>
<path fill="#1e293b" stroke="#475569" d="M1021.5,-3107C1021.5,-3107 788.5,-3107 788.5,-3107 782.5,-3107 776.5,-3101 776.5,-3095 776.5,-3095 776.5,-3081 776.5,-3081 776.5,-3075 782.5,-3069 788.5,-3069 788.5,-3069 1021.5,-3069 1021.5,-3069 1027.5,-3069 1033.5,-3075 1033.5,-3081 1033.5,-3081 1033.5,-3095 1033.5,-3095 1033.5,-3101 1027.5,-3107 1021.5,-3107"/>
<text text-anchor="middle" x="905" y="-3091.8" font-family="Segoe UI" font-size="14.00" fill="#e2e8f0">TradingHours</text>
<text text-anchor="middle" x="905" y="-3076.8" font-family="Segoe UI" font-size="14.00" fill="#e2e8f0">TradingHours → TradingHoursPage</text>
</g>
<!-- workspace_1&#45;&gt;page_TradingHours -->
<g id="edge16" class="edge">
<title>workspace_1&#45;&gt;page_TradingHours</title>
<path fill="none" stroke="#94a3b8" stroke-width="1.3" d="M557.08,-3060.79C612.63,-3065.15 696.58,-3071.73 767.99,-3077.33"/>
<polygon fill="#94a3b8" stroke="#94a3b8" stroke-width="1.3" points="767.99,-3080.14 776.19,-3077.98 768.43,-3074.56 767.99,-3080.14"/>
</g>
<!-- page_DirectLending -->
<g id="node17" class="node">
<title>page_DirectLending</title>
<path fill="#1e293b" stroke="#475569" d="M1024.5,-3170C1024.5,-3170 785.5,-3170 785.5,-3170 779.5,-3170 773.5,-3164 773.5,-3158 773.5,-3158 773.5,-3144 773.5,-3144 773.5,-3138 779.5,-3132 785.5,-3132 785.5,-3132 1024.5,-3132 1024.5,-3132 1030.5,-3132 1036.5,-3138 1036.5,-3144 1036.5,-3144 1036.5,-3158 1036.5,-3158 1036.5,-3164 1030.5,-3170 1024.5,-3170"/>
<text text-anchor="middle" x="905" y="-3154.8" font-family="Segoe UI" font-size="14.00" fill="#e2e8f0">DirectLending</text>
<text text-anchor="middle" x="905" y="-3139.8" font-family="Segoe UI" font-size="14.00" fill="#e2e8f0">DirectLending → DirectLendingPage</text>
</g>
<!-- workspace_1&#45;&gt;page_DirectLending -->
<g id="edge17" class="edge">
<title>workspace_1&#45;&gt;page_DirectLending</title>
<path fill="none" stroke="#94a3b8" stroke-width="1.3" d="M557.1,-3073.6C605.62,-3087.25 675.34,-3106.11 737,-3120 752.95,-3123.59 769.82,-3127.08 786.46,-3130.35"/>
<polygon fill="#94a3b8" stroke="#94a3b8" stroke-width="1.3" points="786.22,-3133.15 794.61,-3131.93 787.29,-3127.65 786.22,-3133.15"/>
</g>
<!-- page_Provider -->
<g id="node18" class="node">
<title>page_Provider</title>
<path fill="#1e293b" stroke="#475569" d="M985.5,-3233C985.5,-3233 824.5,-3233 824.5,-3233 818.5,-3233 812.5,-3227 812.5,-3221 812.5,-3221 812.5,-3207 812.5,-3207 812.5,-3201 818.5,-3195 824.5,-3195 824.5,-3195 985.5,-3195 985.5,-3195 991.5,-3195 997.5,-3201 997.5,-3207 997.5,-3207 997.5,-3221 997.5,-3221 997.5,-3227 991.5,-3233 985.5,-3233"/>
<text text-anchor="middle" x="905" y="-3217.8" font-family="Segoe UI" font-size="14.00" fill="#e2e8f0">Provider</text>
<text text-anchor="middle" x="905" y="-3202.8" font-family="Segoe UI" font-size="14.00" fill="#e2e8f0">Provider → ProviderPage</text>
</g>
<!-- workspace_1&#45;&gt;page_Provider -->
<g id="edge18" class="edge">
<title>workspace_1&#45;&gt;page_Provider</title>
<path fill="none" stroke="#94a3b8" stroke-width="1.3" d="M525.11,-3075.08C569.14,-3103.06 656.14,-3154.92 737,-3183 758.31,-3190.4 781.79,-3196.14 804.24,-3200.56"/>
<polygon fill="#94a3b8" stroke="#94a3b8" stroke-width="1.3" points="803.75,-3203.32 812.14,-3202.07 804.8,-3197.82 803.75,-3203.32"/>
</g>
<!-- page_Symbols -->
<g id="node19" class="node">
<title>page_Symbols</title>
<path fill="#1e293b" stroke="#475569" d="M987.5,-3296C987.5,-3296 822.5,-3296 822.5,-3296 816.5,-3296 810.5,-3290 810.5,-3284 810.5,-3284 810.5,-3270 810.5,-3270 810.5,-3264 816.5,-3258 822.5,-3258 822.5,-3258 987.5,-3258 987.5,-3258 993.5,-3258 999.5,-3264 999.5,-3270 999.5,-3270 999.5,-3284 999.5,-3284 999.5,-3290 993.5,-3296 987.5,-3296"/>
<text text-anchor="middle" x="905" y="-3280.8" font-family="Segoe UI" font-size="14.00" fill="#e2e8f0">Symbols</text>
<text text-anchor="middle" x="905" y="-3265.8" font-family="Segoe UI" font-size="14.00" fill="#e2e8f0">Symbols → SymbolsPage</text>
</g>
<!-- workspace_1&#45;&gt;page_Symbols -->
<g id="edge19" class="edge">
<title>workspace_1&#45;&gt;page_Symbols</title>
<path fill="none" stroke="#94a3b8" stroke-width="1.3" d="M513.55,-3075.02C550.68,-3113.96 641.64,-3202.78 737,-3246 757.21,-3255.16 779.97,-3261.62 802.04,-3266.16"/>
<polygon fill="#94a3b8" stroke="#94a3b8" stroke-width="1.3" points="801.74,-3268.96 810.13,-3267.75 802.82,-3263.46 801.74,-3268.96"/>
</g>
<!-- page_Backfill -->
<g id="node20" class="node">
<title>page_Backfill</title>
<path fill="#1e293b" stroke="#475569" d="M978.5,-3359C978.5,-3359 831.5,-3359 831.5,-3359 825.5,-3359 819.5,-3353 819.5,-3347 819.5,-3347 819.5,-3333 819.5,-3333 819.5,-3327 825.5,-3321 831.5,-3321 831.5,-3321 978.5,-3321 978.5,-3321 984.5,-3321 990.5,-3327 990.5,-3333 990.5,-3333 990.5,-3347 990.5,-3347 990.5,-3353 984.5,-3359 978.5,-3359"/>
<text text-anchor="middle" x="905" y="-3343.8" font-family="Segoe UI" font-size="14.00" fill="#e2e8f0">Backfill</text>
<text text-anchor="middle" x="905" y="-3328.8" font-family="Segoe UI" font-size="14.00" fill="#e2e8f0">Backfill → BackfillPage</text>
</g>
<!-- workspace_1&#45;&gt;page_Backfill -->
<g id="edge20" class="edge">
<title>workspace_1&#45;&gt;page_Backfill</title>
<path fill="none" stroke="#94a3b8" stroke-width="1.3" d="M507.87,-3075.07C538.9,-3123.16 627.66,-3249.75 737,-3309 759.58,-3321.23 786.11,-3328.73 811.31,-3333.3"/>
<polygon fill="#94a3b8" stroke="#94a3b8" stroke-width="1.3" points="811.08,-3336.1 819.43,-3334.68 812.02,-3330.58 811.08,-3336.1"/>
</g>
<!-- page_Storage -->
<g id="node21" class="node">
<title>page_Storage</title>
<path fill="#1e293b" stroke="#475569" d="M982.5,-3422C982.5,-3422 827.5,-3422 827.5,-3422 821.5,-3422 815.5,-3416 815.5,-3410 815.5,-3410 815.5,-3396 815.5,-3396 815.5,-3390 821.5,-3384 827.5,-3384 827.5,-3384 982.5,-3384 982.5,-3384 988.5,-3384 994.5,-3390 994.5,-3396 994.5,-3396 994.5,-3410 994.5,-3410 994.5,-3416 988.5,-3422 982.5,-3422"/>
<text text-anchor="middle" x="905" y="-3406.8" font-family="Segoe UI" font-size="14.00" fill="#e2e8f0">Storage</text>
<text text-anchor="middle" x="905" y="-3391.8" font-family="Segoe UI" font-size="14.00" fill="#e2e8f0">Storage → StoragePage</text>
</g>
<!-- workspace_1&#45;&gt;page_Storage -->
<g id="edge21" class="edge">
<title>workspace_1&#45;&gt;page_Storage</title>
<path fill="none" stroke="#94a3b8" stroke-width="1.3" d="M504.41,-3075.19C530.08,-3131.3 613.29,-3295.92 737,-3372 757.87,-3384.84 782.8,-3392.61 806.94,-3397.25"/>
<polygon fill="#94a3b8" stroke="#94a3b8" stroke-width="1.3" points="806.72,-3400.05 815.09,-3398.7 807.7,-3394.54 806.72,-3400.05"/>
</g>
<!-- page_DataExport -->
<g id="node22" class="node">
<title>page_DataExport</title>
<path fill="#1e293b" stroke="#475569" d="M1006.5,-3485C1006.5,-3485 803.5,-3485 803.5,-3485 797.5,-3485 791.5,-3479 791.5,-3473 791.5,-3473 791.5,-3459 791.5,-3459 791.5,-3453 797.5,-3447 803.5,-3447 803.5,-3447 1006.5,-3447 1006.5,-3447 1012.5,-3447 1018.5,-3453 1018.5,-3459 1018.5,-3459 1018.5,-3473 1018.5,-3473 1018.5,-3479 1012.5,-3485 1006.5,-3485"/>
<text text-anchor="middle" x="905" y="-3469.8" font-family="Segoe UI" font-size="14.00" fill="#e2e8f0">DataExport</text>
<text text-anchor="middle" x="905" y="-3454.8" font-family="Segoe UI" font-size="14.00" fill="#e2e8f0">DataExport → DataExportPage</text>
</g>
<!-- workspace_1&#45;&gt;page_DataExport -->
<g id="edge22" class="edge">
<title>workspace_1&#45;&gt;page_DataExport</title>
<path fill="none" stroke="#94a3b8" stroke-width="1.3" d="M502.02,-3075.27C522.86,-3138.57 598.39,-3341.39 737,-3435 750.86,-3444.36 766.78,-3451.09 783.16,-3455.91"/>
<polygon fill="#94a3b8" stroke="#94a3b8" stroke-width="1.3" points="782.77,-3458.71 791.23,-3458.12 784.25,-3453.3 782.77,-3458.71"/>
</g>
<!-- page_PackageManager -->
<g id="node23" class="node">
<title>page_PackageManager</title>
<path fill="#1e293b" stroke="#475569" d="M1045.5,-3548C1045.5,-3548 764.5,-3548 764.5,-3548 758.5,-3548 752.5,-3542 752.5,-3536 752.5,-3536 752.5,-3522 752.5,-3522 752.5,-3516 758.5,-3510 764.5,-3510 764.5,-3510 1045.5,-3510 1045.5,-3510 1051.5,-3510 1057.5,-3516 1057.5,-3522 1057.5,-3522 1057.5,-3536 1057.5,-3536 1057.5,-3542 1051.5,-3548 1045.5,-3548"/>
<text text-anchor="middle" x="905" y="-3532.8" font-family="Segoe UI" font-size="14.00" fill="#e2e8f0">PackageManager</text>
<text text-anchor="middle" x="905" y="-3517.8" font-family="Segoe UI" font-size="14.00" fill="#e2e8f0">PackageManager → PackageManagerPage</text>
</g>
<!-- workspace_1&#45;&gt;page_PackageManager -->
<g id="edge23" class="edge">
<title>workspace_1&#45;&gt;page_PackageManager</title>
<path fill="none" stroke="#94a3b8" stroke-width="1.3" d="M500.27,-3075.41C516.75,-3145.37 583.12,-3386.38 737,-3498 741.15,-3501.01 745.51,-3503.76 750.03,-3506.26"/>
<polygon fill="#94a3b8" stroke="#94a3b8" stroke-width="1.3" points="748.86,-3508.8 757.25,-3509.99 751.43,-3503.83 748.86,-3508.8"/>
</g>
<!-- page_DataQuality -->
<g id="node24" class="node">
<title>page_DataQuality</title>
<path fill="#1e293b" stroke="#475569" d="M1010,-3611C1010,-3611 800,-3611 800,-3611 794,-3611 788,-3605 788,-3599 788,-3599 788,-3585 788,-3585 788,-3579 794,-3573 800,-3573 800,-3573 1010,-3573 1010,-3573 1016,-3573 1022,-3579 1022,-3585 1022,-3585 1022,-3599 1022,-3599 1022,-3605 1016,-3611 1010,-3611"/>
<text text-anchor="middle" x="905" y="-3595.8" font-family="Segoe UI" font-size="14.00" fill="#e2e8f0">DataQuality</text>
<text text-anchor="middle" x="905" y="-3580.8" font-family="Segoe UI" font-size="14.00" fill="#e2e8f0">DataQuality → DataQualityPage</text>
</g>
<!-- workspace_1&#45;&gt;page_DataQuality -->
<g id="edge24" class="edge">
<title>workspace_1&#45;&gt;page_DataQuality</title>
<path fill="none" stroke="#94a3b8" stroke-width="1.3" d="M498.86,-3075.17C511.2,-3150.82 567.26,-3430.74 737,-3561 749.77,-3570.8 764.68,-3577.83 780.24,-3582.82"/>
<polygon fill="#94a3b8" stroke="#94a3b8" stroke-width="1.3" points="779.46,-3585.51 787.93,-3585.11 781.06,-3580.14 779.46,-3585.51"/>
</g>
<!-- page_ProviderHealth -->
<g id="node25" class="node">
<title>page_ProviderHealth</title>
<path fill="#1e293b" stroke="#475569" d="M1030.5,-3674C1030.5,-3674 779.5,-3674 779.5,-3674 773.5,-3674 767.5,-3668 767.5,-3662 767.5,-3662 767.5,-3648 767.5,-3648 767.5,-3642 773.5,-3636 779.5,-3636 779.5,-3636 1030.5,-3636 1030.5,-3636 1036.5,-3636 1042.5,-3642 1042.5,-3648 1042.5,-3648 1042.5,-3662 1042.5,-3662 1042.5,-3668 1036.5,-3674 1030.5,-3674"/>
<text text-anchor="middle" x="905" y="-3658.8" font-family="Segoe UI" font-size="14.00" fill="#e2e8f0">ProviderHealth</text>
<text text-anchor="middle" x="905" y="-3643.8" font-family="Segoe UI" font-size="14.00" fill="#e2e8f0">ProviderHealth → ProviderHealthPage</text>
</g>
<!-- workspace_1&#45;&gt;page_ProviderHealth -->
<g id="edge25" class="edge">
<title>workspace_1&#45;&gt;page_ProviderHealth</title>
<path fill="none" stroke="#94a3b8" stroke-width="1.3" d="M497.78,-3075.24C506.41,-3156.59 551.36,-3474.94 737,-3624 743.95,-3629.58 751.6,-3634.28 759.66,-3638.22"/>
<polygon fill="#94a3b8" stroke="#94a3b8" stroke-width="1.3" points="758.75,-3640.88 767.19,-3641.63 761.06,-3635.78 758.75,-3640.88"/>
</g>
<!-- page_SystemHealth -->
<g id="node26" class="node">
<title>page_SystemHealth</title>
<path fill="#1e293b" stroke="#475569" d="M1025,-3737C1025,-3737 785,-3737 785,-3737 779,-3737 773,-3731 773,-3725 773,-3725 773,-3711 773,-3711 773,-3705 779,-3699 785,-3699 785,-3699 1025,-3699 1025,-3699 1031,-3699 1037,-3705 1037,-3711 1037,-3711 1037,-3725 1037,-3725 1037,-3731 1031,-3737 1025,-3737"/>
<text text-anchor="middle" x="905" y="-3721.8" font-family="Segoe UI" font-size="14.00" fill="#e2e8f0">SystemHealth</text>
<text text-anchor="middle" x="905" y="-3706.8" font-family="Segoe UI" font-size="14.00" fill="#e2e8f0">SystemHealth → SystemHealthPage</text>
</g>
<!-- workspace_1&#45;&gt;page_SystemHealth -->
<g id="edge26" class="edge">
<title>workspace_1&#45;&gt;page_SystemHealth</title>
<path fill="none" stroke="#94a3b8" stroke-width="1.3" d="M496.78,-3075.06C501.44,-3161.69 532.88,-3521.21 737,-3687 745.56,-3693.96 755.19,-3699.54 765.39,-3704.01"/>
<polygon fill="#94a3b8" stroke="#94a3b8" stroke-width="1.3" points="764.45,-3706.65 772.91,-3707.07 766.56,-3701.46 764.45,-3706.65"/>
</g>
<!-- page_Diagnostics -->
<g id="node27" class="node">
<title>page_Diagnostics</title>
<path fill="#1e293b" stroke="#475569" d="M1008.5,-3800C1008.5,-3800 801.5,-3800 801.5,-3800 795.5,-3800 789.5,-3794 789.5,-3788 789.5,-3788 789.5,-3774 789.5,-3774 789.5,-3768 795.5,-3762 801.5,-3762 801.5,-3762 1008.5,-3762 1008.5,-3762 1014.5,-3762 1020.5,-3768 1020.5,-3774 1020.5,-3774 1020.5,-3788 1020.5,-3788 1020.5,-3794 1014.5,-3800 1008.5,-3800"/>
<text text-anchor="middle" x="905" y="-3784.8" font-family="Segoe UI" font-size="14.00" fill="#e2e8f0">Diagnostics</text>
<text text-anchor="middle" x="905" y="-3769.8" font-family="Segoe UI" font-size="14.00" fill="#e2e8f0">Diagnostics → DiagnosticsPage</text>
</g>
<!-- workspace_1&#45;&gt;page_Diagnostics -->
<g id="edge27" class="edge">
<title>workspace_1&#45;&gt;page_Diagnostics</title>
<path fill="none" stroke="#94a3b8" stroke-width="1.3" d="M495.94,-3075.18C496.77,-3167.42 513.5,-3568.47 737,-3750 749.88,-3760.46 765.18,-3767.83 781.19,-3772.94"/>
<polygon fill="#94a3b8" stroke="#94a3b8" stroke-width="1.3" points="780.64,-3775.7 789.11,-3775.28 782.23,-3770.33 780.64,-3775.7"/>
</g>
<!-- page_Settings -->
<g id="node28" class="node">
<title>page_Settings</title>
<path fill="#1e293b" stroke="#475569" d="M985.5,-3863C985.5,-3863 824.5,-3863 824.5,-3863 818.5,-3863 812.5,-3857 812.5,-3851 812.5,-3851 812.5,-3837 812.5,-3837 812.5,-3831 818.5,-3825 824.5,-3825 824.5,-3825 985.5,-3825 985.5,-3825 991.5,-3825 997.5,-3831 997.5,-3837 997.5,-3837 997.5,-3851 997.5,-3851 997.5,-3857 991.5,-3863 985.5,-3863"/>
<text text-anchor="middle" x="905" y="-3847.8" font-family="Segoe UI" font-size="14.00" fill="#e2e8f0">Settings</text>
<text text-anchor="middle" x="905" y="-3832.8" font-family="Segoe UI" font-size="14.00" fill="#e2e8f0">Settings → SettingsPage</text>
</g>
<!-- workspace_1&#45;&gt;page_Settings -->
<g id="edge28" class="edge">
<title>workspace_1&#45;&gt;page_Settings</title>
<path fill="none" stroke="#94a3b8" stroke-width="1.3" d="M499.2,-3075.1C517.63,-3182.85 613.82,-3713.35 737,-3813 755.95,-3828.33 780.07,-3836.99 804.05,-3841.69"/>
<polygon fill="#94a3b8" stroke="#94a3b8" stroke-width="1.3" points="803.8,-3844.49 812.17,-3843.14 804.79,-3838.98 803.8,-3844.49"/>
</g>
<!-- page_AdminMaintenance -->
<g id="node29" class="node">
<title>page_AdminMaintenance</title>
<path fill="#1e293b" stroke="#475569" d="M1061,-3926C1061,-3926 749,-3926 749,-3926 743,-3926 737,-3920 737,-3914 737,-3914 737,-3900 737,-3900 737,-3894 743,-3888 749,-3888 749,-3888 1061,-3888 1061,-3888 1067,-3888 1073,-3894 1073,-3900 1073,-3900 1073,-3914 1073,-3914 1073,-3920 1067,-3926 1061,-3926"/>
<text text-anchor="middle" x="905" y="-3910.8" font-family="Segoe UI" font-size="14.00" fill="#e2e8f0">AdminMaintenance</text>
<text text-anchor="middle" x="905" y="-3895.8" font-family="Segoe UI" font-size="14.00" fill="#e2e8f0">AdminMaintenance → AdminMaintenancePage</text>
</g>
<!-- workspace_1&#45;&gt;page_AdminMaintenance -->
<g id="edge29" class="edge">
<title>workspace_1&#45;&gt;page_AdminMaintenance</title>
<path fill="none" stroke="#94a3b8" stroke-width="1.3" d="M498.74,-3075.15C515.33,-3188.07 605.88,-3765.93 737,-3876 740.3,-3878.77 743.77,-3881.33 747.38,-3883.69"/>
<polygon fill="#94a3b8" stroke="#94a3b8" stroke-width="1.3" points="746.19,-3886.24 754.48,-3887.98 749.08,-3881.44 746.19,-3886.24"/>
</g>
</g>
</svg>
