<?xml version="1.0" encoding="UTF-8" standalone="no"?>
<!DOCTYPE svg PUBLIC "-//W3C//DTD SVG 1.1//EN"
 "http://www.w3.org/Graphics/SVG/1.1/DTD/svg11.dtd">
<!-- Generated by graphviz version 2.43.0 (0)
 -->
<!-- Title: UiNavigationMap Pages: 1 -->
<svg width="1153pt" height="4082pt"
 viewBox="0.00 0.00 1152.60 4081.60" xmlns="http://www.w3.org/2000/svg" xmlns:xlink="http://www.w3.org/1999/xlink">
<g id="graph0" class="graph" transform="scale(1 1) rotate(0) translate(28.8 4052.8)">
<title>UiNavigationMap</title>
<polygon fill="#0f172a" stroke="transparent" points="-28.8,28.8 -28.8,-4052.8 1123.8,-4052.8 1123.8,28.8 -28.8,28.8"/>
<text text-anchor="middle" x="547.5" y="-4004" font-family="Segoe UI" font-size="20.00">Meridian WPF UI navigation map</text>
<text text-anchor="middle" x="547.5" y="-3982" font-family="Segoe UI" font-size="20.00">(auto&#45;generated from MainPage.xaml + NavigationService.cs)</text>
<g id="clust1" class="cluster">
<title>cluster_workspace_1</title>
<path fill="#0f172a" stroke="#334155" d="M443,-2368C443,-2368 1075,-2368 1075,-2368 1081,-2368 1087,-2374 1087,-2380 1087,-2380 1087,-3952 1087,-3952 1087,-3958 1081,-3964 1075,-3964 1075,-3964 443,-3964 443,-3964 437,-3964 431,-3958 431,-3952 431,-3952 431,-2380 431,-2380 431,-2374 437,-2368 443,-2368"/>
<text text-anchor="middle" x="759" y="-3944" font-family="Segoe UI" font-size="20.00">Shell workspace</text>
</g>
<g id="clust2" class="cluster">
<title>cluster_hidden_pages</title>
<path fill="#0f172a" stroke="#7c2d12" stroke-dasharray="5,2" d="M336,-8C336,-8 666,-8 666,-8 672,-8 678,-14 678,-20 678,-20 678,-2348 678,-2348 678,-2354 672,-2360 666,-2360 666,-2360 336,-2360 336,-2360 330,-2360 324,-2354 324,-2348 324,-2348 324,-20 324,-20 324,-14 330,-8 336,-8"/>
<text text-anchor="middle" x="501" y="-2340" font-family="Segoe UI" font-size="20.00">Registered but not in sidebar shell</text>
</g>
<!-- generated -->
<g id="node1" class="node">
<title>generated</title>
<polygon fill="#1d4ed8" stroke="#60a5fa" points="253,-1155.5 0,-1155.5 0,-1102.5 259,-1102.5 259,-1149.5 253,-1155.5"/>
<polyline fill="none" stroke="#60a5fa" points="253,-1155.5 253,-1149.5 "/>
<polyline fill="none" stroke="#60a5fa" points="259,-1149.5 253,-1149.5 "/>
<text text-anchor="middle" x="129.5" y="-1140.3" font-family="Segoe UI" font-size="14.00" fill="#e2e8f0">Source fingerprint: 88354a4d9383</text>
<text text-anchor="middle" x="129.5" y="-1125.3" font-family="Segoe UI" font-size="14.00" fill="#e2e8f0">Shell entries: 27</text>
<text text-anchor="middle" x="129.5" y="-1110.3" font-family="Segoe UI" font-size="14.00" fill="#e2e8f0">Registered pages: 62</text>
</g>
<!-- shell -->
<g id="node2" class="node">
<title>shell</title>
<polygon fill="#0f766e" stroke="#2dd4bf" points="194,-2010 65,-2010 65,-2006 61,-2006 61,-2002 65,-2002 65,-1980 61,-1980 61,-1976 65,-1976 65,-1972 194,-1972 194,-2010"/>
<polyline fill="none" stroke="#2dd4bf" points="65,-2006 69,-2006 69,-2002 65,-2002 "/>
<polyline fill="none" stroke="#2dd4bf" points="65,-1980 69,-1980 69,-1976 65,-1976 "/>
<text text-anchor="middle" x="129.5" y="-1994.8" font-family="Segoe UI" font-size="14.00" fill="#e2e8f0">MainPage.xaml</text>
<text text-anchor="middle" x="129.5" y="-1979.8" font-family="Segoe UI" font-size="14.00" fill="#e2e8f0">Workspace shell</text>
</g>
<!-- navigation -->
<g id="node3" class="node">
<title>navigation</title>
<polygon fill="#7c3aed" stroke="#c4b5fd" points="200.5,-1219 58.5,-1219 58.5,-1215 54.5,-1215 54.5,-1211 58.5,-1211 58.5,-1189 54.5,-1189 54.5,-1185 58.5,-1185 58.5,-1181 200.5,-1181 200.5,-1219"/>
<polyline fill="none" stroke="#c4b5fd" points="58.5,-1215 62.5,-1215 62.5,-1211 58.5,-1211 "/>
<polyline fill="none" stroke="#c4b5fd" points="58.5,-1189 62.5,-1189 62.5,-1185 58.5,-1185 "/>
<text text-anchor="middle" x="129.5" y="-1203.8" font-family="Segoe UI" font-size="14.00" fill="#e2e8f0">NavigationService</text>
<text text-anchor="middle" x="129.5" y="-1188.8" font-family="Segoe UI" font-size="14.00" fill="#e2e8f0">RegisterAllPages()</text>
</g>
<!-- shell&#45;&gt;navigation -->
<g id="edge1" class="edge">
<title>shell&#45;&gt;navigation</title>
<path fill="none" stroke="#38bdf8" stroke-width="1.3" d="M129.5,-1971.74C129.5,-1865.61 129.5,-1352.44 129.5,-1227.48"/>
<polygon fill="#38bdf8" stroke="#38bdf8" stroke-width="1.3" points="132.3,-1227.16 129.5,-1219.16 126.7,-1227.16 132.3,-1227.16"/>
<text text-anchor="middle" x="119" y="-1591.8" font-family="Segoe UI" font-size="14.00">navigate via tags</text>
</g>
<!-- workspace_1 -->
<g id="node4" class="node">
<title>workspace_1</title>
<polygon fill="#1d4ed8" stroke="#93c5fd" points="563,-3075 560,-3079 539,-3079 536,-3075 439,-3075 439,-3037 563,-3037 563,-3075"/>
<text text-anchor="middle" x="501" y="-3059.8" font-family="Segoe UI" font-size="14.00" fill="#e2e8f0">Shell</text>
<text text-anchor="middle" x="501" y="-3044.8" font-family="Segoe UI" font-size="14.00" fill="#e2e8f0">27 shell entries</text>
</g>
<!-- shell&#45;&gt;workspace_1 -->
<g id="edge2" class="edge">
<title>shell&#45;&gt;workspace_1</title>
<path fill="none" stroke="#22d3ee" stroke-width="1.3" d="M137.23,-2010.39C182.11,-2139.75 437.88,-2876.96 490.53,-3028.69"/>
<polygon fill="#22d3ee" stroke="#22d3ee" stroke-width="1.3" points="488.02,-3030.02 493.29,-3036.66 493.31,-3028.19 488.02,-3030.02"/>
</g>
<!-- hidden_DataSources -->
<g id="node30" class="node">
<title>hidden_DataSources</title>
<path fill="#431407" stroke="#fb923c" d="M557.5,-2322C557.5,-2322 444.5,-2322 444.5,-2322 438.5,-2322 432.5,-2316 432.5,-2310 432.5,-2310 432.5,-2296 432.5,-2296 432.5,-2290 438.5,-2284 444.5,-2284 444.5,-2284 557.5,-2284 557.5,-2284 563.5,-2284 569.5,-2290 569.5,-2296 569.5,-2296 569.5,-2310 569.5,-2310 569.5,-2316 563.5,-2322 557.5,-2322"/>
<text text-anchor="middle" x="501" y="-2306.8" font-family="Segoe UI" font-size="14.00" fill="#e2e8f0">DataSources</text>
<text text-anchor="middle" x="501" y="-2291.8" font-family="Segoe UI" font-size="14.00" fill="#e2e8f0">DataSourcesPage</text>
</g>
<!-- navigation&#45;&gt;hidden_DataSources -->
<g id="edge30" class="edge">
<title>navigation&#45;&gt;hidden_DataSources</title>
<path fill="none" stroke="#fb923c" stroke-width="1.3" stroke-dasharray="5,2" d="M133.64,-1219.15C157.03,-1361.73 303.89,-2252.75 324,-2272 350.25,-2297.13 389.31,-2305.75 423.97,-2307.72"/>
<polygon fill="#fb923c" stroke="#fb923c" stroke-width="1.3" points="424.11,-2310.52 432.22,-2308.06 424.34,-2304.93 424.11,-2310.52"/>
</g>
<!-- hidden_DataBrowser -->
<g id="node31" class="node">
<title>hidden_DataBrowser</title>
<path fill="#431407" stroke="#fb923c" d="M558,-2259C558,-2259 444,-2259 444,-2259 438,-2259 432,-2253 432,-2247 432,-2247 432,-2233 432,-2233 432,-2227 438,-2221 444,-2221 444,-2221 558,-2221 558,-2221 564,-2221 570,-2227 570,-2233 570,-2233 570,-2247 570,-2247 570,-2253 564,-2259 558,-2259"/>
<text text-anchor="middle" x="501" y="-2243.8" font-family="Segoe UI" font-size="14.00" fill="#e2e8f0">DataBrowser</text>
<text text-anchor="middle" x="501" y="-2228.8" font-family="Segoe UI" font-size="14.00" fill="#e2e8f0">DataBrowserPage</text>
</g>
<!-- navigation&#45;&gt;hidden_DataBrowser -->
<g id="edge31" class="edge">
<title>navigation&#45;&gt;hidden_DataBrowser</title>
<path fill="none" stroke="#fb923c" stroke-width="1.3" stroke-dasharray="5,2" d="M133.57,-1219.39C155.29,-1356.3 286.21,-2172.87 324,-2209 350.16,-2234.01 389.02,-2242.66 423.58,-2244.67"/>
<polygon fill="#fb923c" stroke="#fb923c" stroke-width="1.3" points="423.68,-2247.48 431.8,-2245.03 423.93,-2241.89 423.68,-2247.48"/>
</g>
<!-- hidden_SymbolMapping -->
<g id="node32" class="node">
<title>hidden_SymbolMapping</title>
<path fill="#431407" stroke="#fb923c" d="M569.5,-2196C569.5,-2196 432.5,-2196 432.5,-2196 426.5,-2196 420.5,-2190 420.5,-2184 420.5,-2184 420.5,-2170 420.5,-2170 420.5,-2164 426.5,-2158 432.5,-2158 432.5,-2158 569.5,-2158 569.5,-2158 575.5,-2158 581.5,-2164 581.5,-2170 581.5,-2170 581.5,-2184 581.5,-2184 581.5,-2190 575.5,-2196 569.5,-2196"/>
<text text-anchor="middle" x="501" y="-2180.8" font-family="Segoe UI" font-size="14.00" fill="#e2e8f0">SymbolMapping</text>
<text text-anchor="middle" x="501" y="-2165.8" font-family="Segoe UI" font-size="14.00" fill="#e2e8f0">SymbolMappingPage</text>
</g>
<!-- navigation&#45;&gt;hidden_SymbolMapping -->
<g id="edge32" class="edge">
<title>navigation&#45;&gt;hidden_SymbolMapping</title>
<path fill="none" stroke="#fb923c" stroke-width="1.3" stroke-dasharray="5,2" d="M133.73,-1219.04C156.03,-1350.01 287.33,-2113.45 324,-2146 347.86,-2167.17 380.94,-2176.34 411.99,-2179.73"/>
<polygon fill="#fb923c" stroke="#fb923c" stroke-width="1.3" points="412.03,-2182.55 420.26,-2180.5 412.55,-2176.97 412.03,-2182.55"/>
</g>
<!-- hidden_SymbolStorage -->
<g id="node33" class="node">
<title>hidden_SymbolStorage</title>
<path fill="#431407" stroke="#fb923c" d="M566.5,-2133C566.5,-2133 435.5,-2133 435.5,-2133 429.5,-2133 423.5,-2127 423.5,-2121 423.5,-2121 423.5,-2107 423.5,-2107 423.5,-2101 429.5,-2095 435.5,-2095 435.5,-2095 566.5,-2095 566.5,-2095 572.5,-2095 578.5,-2101 578.5,-2107 578.5,-2107 578.5,-2121 578.5,-2121 578.5,-2127 572.5,-2133 566.5,-2133"/>
<text text-anchor="middle" x="501" y="-2117.8" font-family="Segoe UI" font-size="14.00" fill="#e2e8f0">SymbolStorage</text>
<text text-anchor="middle" x="501" y="-2102.8" font-family="Segoe UI" font-size="14.00" fill="#e2e8f0">SymbolStoragePage</text>
</g>
<!-- navigation&#45;&gt;hidden_SymbolStorage -->
<g id="edge33" class="edge">
<title>navigation&#45;&gt;hidden_SymbolStorage</title>
<path fill="none" stroke="#fb923c" stroke-width="1.3" stroke-dasharray="5,2" d="M133.26,-1219.08C151.31,-1342.49 253.84,-2024.55 324,-2083 349.16,-2103.96 383.5,-2112.91 415.16,-2116.18"/>
<polygon fill="#fb923c" stroke="#fb923c" stroke-width="1.3" points="414.93,-2118.97 423.15,-2116.9 415.43,-2113.4 414.93,-2118.97"/>
</g>
<!-- hidden_IndexSubscription -->
<g id="node34" class="node">
<title>hidden_IndexSubscription</title>
<path fill="#431407" stroke="#fb923c" d="M577,-2070C577,-2070 425,-2070 425,-2070 419,-2070 413,-2064 413,-2058 413,-2058 413,-2044 413,-2044 413,-2038 419,-2032 425,-2032 425,-2032 577,-2032 577,-2032 583,-2032 589,-2038 589,-2044 589,-2044 589,-2058 589,-2058 589,-2064 583,-2070 577,-2070"/>
<text text-anchor="middle" x="501" y="-2054.8" font-family="Segoe UI" font-size="14.00" fill="#e2e8f0">IndexSubscription</text>
<text text-anchor="middle" x="501" y="-2039.8" font-family="Segoe UI" font-size="14.00" fill="#e2e8f0">IndexSubscriptionPage</text>
</g>
<!-- navigation&#45;&gt;hidden_IndexSubscription -->
<g id="edge34" class="edge">
<title>navigation&#45;&gt;hidden_IndexSubscription</title>
<path fill="none" stroke="#fb923c" stroke-width="1.3" stroke-dasharray="5,2" d="M131.99,-1219.21C141.21,-1332.47 194.34,-1911.98 324,-2020 346.44,-2038.7 376.18,-2047.83 404.82,-2051.91"/>
<polygon fill="#fb923c" stroke="#fb923c" stroke-width="1.3" points="404.57,-2054.71 412.86,-2052.94 405.27,-2049.15 404.57,-2054.71"/>
</g>
<!-- hidden_Options -->
<g id="node35" class="node">
<title>hidden_Options</title>
<path fill="#431407" stroke="#fb923c" d="M541,-2007C541,-2007 461,-2007 461,-2007 455,-2007 449,-2001 449,-1995 449,-1995 449,-1981 449,-1981 449,-1975 455,-1969 461,-1969 461,-1969 541,-1969 541,-1969 547,-1969 553,-1975 553,-1981 553,-1981 553,-1995 553,-1995 553,-2001 547,-2007 541,-2007"/>
<text text-anchor="middle" x="501" y="-1991.8" font-family="Segoe UI" font-size="14.00" fill="#e2e8f0">Options</text>
<text text-anchor="middle" x="501" y="-1976.8" font-family="Segoe UI" font-size="14.00" fill="#e2e8f0">OptionsPage</text>
</g>
<!-- navigation&#45;&gt;hidden_Options -->
<g id="edge35" class="edge">
<title>navigation&#45;&gt;hidden_Options</title>
<path fill="none" stroke="#fb923c" stroke-width="1.3" stroke-dasharray="5,2" d="M132.41,-1219.1C143.6,-1326.83 204.28,-1857.26 324,-1957 356.13,-1983.77 403.23,-1990.94 440.62,-1991.73"/>
<polygon fill="#fb923c" stroke="#fb923c" stroke-width="1.3" points="440.9,-1994.54 448.92,-1991.81 440.95,-1988.94 440.9,-1994.54"/>
</g>
<!-- hidden_Schedules -->
<g id="node36" class="node">
<title>hidden_Schedules</title>
<path fill="#431407" stroke="#fb923c" d="M576,-1944C576,-1944 426,-1944 426,-1944 420,-1944 414,-1938 414,-1932 414,-1932 414,-1918 414,-1918 414,-1912 420,-1906 426,-1906 426,-1906 576,-1906 576,-1906 582,-1906 588,-1912 588,-1918 588,-1918 588,-1932 588,-1932 588,-1938 582,-1944 576,-1944"/>
<text text-anchor="middle" x="501" y="-1928.8" font-family="Segoe UI" font-size="14.00" fill="#e2e8f0">Schedules</text>
<text text-anchor="middle" x="501" y="-1913.8" font-family="Segoe UI" font-size="14.00" fill="#e2e8f0">ScheduleManagerPage</text>
</g>
<!-- navigation&#45;&gt;hidden_Schedules -->
<g id="edge36" class="edge">
<title>navigation&#45;&gt;hidden_Schedules</title>
<path fill="none" stroke="#fb923c" stroke-width="1.3" stroke-dasharray="5,2" d="M132.91,-1219.15C146.21,-1321.49 214.01,-1802.76 324,-1894 346.7,-1912.83 376.81,-1921.95 405.7,-1925.98"/>
<polygon fill="#fb923c" stroke="#fb923c" stroke-width="1.3" points="405.52,-1928.77 413.81,-1926.98 406.21,-1923.22 405.52,-1928.77"/>
</g>
<!-- hidden_RunDetail -->
<g id="node37" class="node">
<title>hidden_RunDetail</title>
<path fill="#431407" stroke="#fb923c" d="M547,-1881C547,-1881 455,-1881 455,-1881 449,-1881 443,-1875 443,-1869 443,-1869 443,-1855 443,-1855 443,-1849 449,-1843 455,-1843 455,-1843 547,-1843 547,-1843 553,-1843 559,-1849 559,-1855 559,-1855 559,-1869 559,-1869 559,-1875 553,-1881 547,-1881"/>
<text text-anchor="middle" x="501" y="-1865.8" font-family="Segoe UI" font-size="14.00" fill="#e2e8f0">RunDetail</text>
<text text-anchor="middle" x="501" y="-1850.8" font-family="Segoe UI" font-size="14.00" fill="#e2e8f0">RunDetailPage</text>
</g>
<!-- navigation&#45;&gt;hidden_RunDetail -->
<g id="edge37" class="edge">
<title>navigation&#45;&gt;hidden_RunDetail</title>
<path fill="none" stroke="#fb923c" stroke-width="1.3" stroke-dasharray="5,2" d="M133.43,-1219C148.71,-1315.47 222.45,-1749.52 324,-1831 354.82,-1855.73 398.54,-1863.53 434.69,-1865.12"/>
<polygon fill="#fb923c" stroke="#fb923c" stroke-width="1.3" points="434.67,-1867.92 442.76,-1865.38 434.85,-1862.32 434.67,-1867.92"/>
</g>
<!-- hidden_RunPortfolio -->
<g id="node38" class="node">
<title>hidden_RunPortfolio</title>
<path fill="#431407" stroke="#fb923c" d="M556,-1818C556,-1818 446,-1818 446,-1818 440,-1818 434,-1812 434,-1806 434,-1806 434,-1792 434,-1792 434,-1786 440,-1780 446,-1780 446,-1780 556,-1780 556,-1780 562,-1780 568,-1786 568,-1792 568,-1792 568,-1806 568,-1806 568,-1812 562,-1818 556,-1818"/>
<text text-anchor="middle" x="501" y="-1802.8" font-family="Segoe UI" font-size="14.00" fill="#e2e8f0">RunPortfolio</text>
<text text-anchor="middle" x="501" y="-1787.8" font-family="Segoe UI" font-size="14.00" fill="#e2e8f0">RunPortfolioPage</text>
</g>
<!-- navigation&#45;&gt;hidden_RunPortfolio -->
<g id="edge38" class="edge">
<title>navigation&#45;&gt;hidden_RunPortfolio</title>
<path fill="none" stroke="#fb923c" stroke-width="1.3" stroke-dasharray="5,2" d="M130.29,-1219.18C130.51,-1300.96 143.21,-1622.94 324,-1768 352.34,-1790.74 391.58,-1799.16 425.82,-1801.61"/>
<polygon fill="#fb923c" stroke="#fb923c" stroke-width="1.3" points="425.8,-1804.41 433.95,-1802.08 426.13,-1798.82 425.8,-1804.41"/>
</g>
<!-- hidden_RunLedger -->
<g id="node39" class="node">
<title>hidden_RunLedger</title>
<path fill="#431407" stroke="#fb923c" d="M551.5,-1755C551.5,-1755 450.5,-1755 450.5,-1755 444.5,-1755 438.5,-1749 438.5,-1743 438.5,-1743 438.5,-1729 438.5,-1729 438.5,-1723 444.5,-1717 450.5,-1717 450.5,-1717 551.5,-1717 551.5,-1717 557.5,-1717 563.5,-1723 563.5,-1729 563.5,-1729 563.5,-1743 563.5,-1743 563.5,-1749 557.5,-1755 551.5,-1755"/>
<text text-anchor="middle" x="501" y="-1739.8" font-family="Segoe UI" font-size="14.00" fill="#e2e8f0">RunLedger</text>
<text text-anchor="middle" x="501" y="-1724.8" font-family="Segoe UI" font-size="14.00" fill="#e2e8f0">RunLedgerPage</text>
</g>
<!-- navigation&#45;&gt;hidden_RunLedger -->
<g id="edge39" class="edge">
<title>navigation&#45;&gt;hidden_RunLedger</title>
<path fill="none" stroke="#fb923c" stroke-width="1.3" stroke-dasharray="5,2" d="M131.33,-1219.22C135.72,-1295.05 162.71,-1575.58 324,-1705 353.46,-1728.64 394.7,-1736.8 429.86,-1738.87"/>
<polygon fill="#fb923c" stroke="#fb923c" stroke-width="1.3" points="430.07,-1741.68 438.19,-1739.25 430.32,-1736.09 430.07,-1741.68"/>
</g>
<!-- hidden_RunCashFlow -->
<g id="node40" class="node">
<title>hidden_RunCashFlow</title>
<path fill="#431407" stroke="#fb923c" d="M560.5,-1692C560.5,-1692 441.5,-1692 441.5,-1692 435.5,-1692 429.5,-1686 429.5,-1680 429.5,-1680 429.5,-1666 429.5,-1666 429.5,-1660 435.5,-1654 441.5,-1654 441.5,-1654 560.5,-1654 560.5,-1654 566.5,-1654 572.5,-1660 572.5,-1666 572.5,-1666 572.5,-1680 572.5,-1680 572.5,-1686 566.5,-1692 560.5,-1692"/>
<text text-anchor="middle" x="501" y="-1676.8" font-family="Segoe UI" font-size="14.00" fill="#e2e8f0">RunCashFlow</text>
<text text-anchor="middle" x="501" y="-1661.8" font-family="Segoe UI" font-size="14.00" fill="#e2e8f0">RunCashFlowPage</text>
</g>
<!-- navigation&#45;&gt;hidden_RunCashFlow -->
<g id="edge40" class="edge">
<title>navigation&#45;&gt;hidden_RunCashFlow</title>
<path fill="none" stroke="#fb923c" stroke-width="1.3" stroke-dasharray="5,2" d="M132.59,-1219.34C141.24,-1289.08 180.77,-1529.4 324,-1642 351.21,-1663.39 388.12,-1672.02 421.11,-1674.96"/>
<polygon fill="#fb923c" stroke="#fb923c" stroke-width="1.3" points="421.22,-1677.78 429.41,-1675.59 421.64,-1672.19 421.22,-1677.78"/>
</g>
<!-- hidden_CollectionSessions -->
<g id="node41" class="node">
<title>hidden_CollectionSessions</title>
<path fill="#431407" stroke="#fb923c" d="M574,-1629C574,-1629 428,-1629 428,-1629 422,-1629 416,-1623 416,-1617 416,-1617 416,-1603 416,-1603 416,-1597 422,-1591 428,-1591 428,-1591 574,-1591 574,-1591 580,-1591 586,-1597 586,-1603 586,-1603 586,-1617 586,-1617 586,-1623 580,-1629 574,-1629"/>
<text text-anchor="middle" x="501" y="-1613.8" font-family="Segoe UI" font-size="14.00" fill="#e2e8f0">CollectionSessions</text>
<text text-anchor="middle" x="501" y="-1598.8" font-family="Segoe UI" font-size="14.00" fill="#e2e8f0">CollectionSessionPage</text>
</g>
<!-- navigation&#45;&gt;hidden_CollectionSessions -->
<g id="edge41" class="edge">
<title>navigation&#45;&gt;hidden_CollectionSessions</title>
<path fill="none" stroke="#fb923c" stroke-width="1.3" stroke-dasharray="5,2" d="M134.06,-1219.22C146.83,-1282.38 196.57,-1484.8 324,-1579 347.95,-1596.7 378.67,-1605.49 407.73,-1609.55"/>
<polygon fill="#fb923c" stroke="#fb923c" stroke-width="1.3" points="407.59,-1612.36 415.88,-1610.58 408.29,-1606.8 407.59,-1612.36"/>
</g>
<!-- hidden_ArchiveHealth -->
<g id="node42" class="node">
<title>hidden_ArchiveHealth</title>
<path fill="#431407" stroke="#fb923c" d="M562,-1566C562,-1566 440,-1566 440,-1566 434,-1566 428,-1560 428,-1554 428,-1554 428,-1540 428,-1540 428,-1534 434,-1528 440,-1528 440,-1528 562,-1528 562,-1528 568,-1528 574,-1534 574,-1540 574,-1540 574,-1554 574,-1554 574,-1560 568,-1566 562,-1566"/>
<text text-anchor="middle" x="501" y="-1550.8" font-family="Segoe UI" font-size="14.00" fill="#e2e8f0">ArchiveHealth</text>
<text text-anchor="middle" x="501" y="-1535.8" font-family="Segoe UI" font-size="14.00" fill="#e2e8f0">ArchiveHealthPage</text>
</g>
<!-- navigation&#45;&gt;hidden_ArchiveHealth -->
<g id="edge42" class="edge">
<title>navigation&#45;&gt;hidden_ArchiveHealth</title>
<path fill="none" stroke="#fb923c" stroke-width="1.3" stroke-dasharray="5,2" d="M136.06,-1219.18C153.38,-1275.25 212.07,-1439.78 324,-1516 351.78,-1534.92 387.56,-1543.37 419.6,-1546.84"/>
<polygon fill="#fb923c" stroke="#fb923c" stroke-width="1.3" points="419.42,-1549.63 427.66,-1547.62 419.96,-1544.06 419.42,-1549.63"/>
</g>
<!-- hidden_ServiceManager -->
<g id="node43" class="node">
<title>hidden_ServiceManager</title>
<path fill="#431407" stroke="#fb923c" d="M569.5,-1503C569.5,-1503 432.5,-1503 432.5,-1503 426.5,-1503 420.5,-1497 420.5,-1491 420.5,-1491 420.5,-1477 420.5,-1477 420.5,-1471 426.5,-1465 432.5,-1465 432.5,-1465 569.5,-1465 569.5,-1465 575.5,-1465 581.5,-1471 581.5,-1477 581.5,-1477 581.5,-1491 581.5,-1491 581.5,-1497 575.5,-1503 569.5,-1503"/>
<text text-anchor="middle" x="501" y="-1487.8" font-family="Segoe UI" font-size="14.00" fill="#e2e8f0">ServiceManager</text>
<text text-anchor="middle" x="501" y="-1472.8" font-family="Segoe UI" font-size="14.00" fill="#e2e8f0">ServiceManagerPage</text>
</g>
<!-- navigation&#45;&gt;hidden_ServiceManager -->
<g id="edge43" class="edge">
<title>navigation&#45;&gt;hidden_ServiceManager</title>
<path fill="none" stroke="#fb923c" stroke-width="1.3" stroke-dasharray="5,2" d="M138.95,-1219.11C161.32,-1267.31 227.13,-1394.12 324,-1453 350.17,-1468.91 382.33,-1477.16 411.97,-1481.29"/>
<polygon fill="#fb923c" stroke="#fb923c" stroke-width="1.3" points="411.96,-1484.11 420.25,-1482.35 412.67,-1478.55 411.96,-1484.11"/>
</g>
<!-- hidden_DataSampling -->
<g id="node44" class="node">
<title>hidden_DataSampling</title>
<path fill="#431407" stroke="#fb923c" d="M562.5,-1440C562.5,-1440 439.5,-1440 439.5,-1440 433.5,-1440 427.5,-1434 427.5,-1428 427.5,-1428 427.5,-1414 427.5,-1414 427.5,-1408 433.5,-1402 439.5,-1402 439.5,-1402 562.5,-1402 562.5,-1402 568.5,-1402 574.5,-1408 574.5,-1414 574.5,-1414 574.5,-1428 574.5,-1428 574.5,-1434 568.5,-1440 562.5,-1440"/>
<text text-anchor="middle" x="501" y="-1424.8" font-family="Segoe UI" font-size="14.00" fill="#e2e8f0">DataSampling</text>
<text text-anchor="middle" x="501" y="-1409.8" font-family="Segoe UI" font-size="14.00" fill="#e2e8f0">DataSamplingPage</text>
</g>
<!-- navigation&#45;&gt;hidden_DataSampling -->
<g id="edge44" class="edge">
<title>navigation&#45;&gt;hidden_DataSampling</title>
<path fill="none" stroke="#fb923c" stroke-width="1.3" stroke-dasharray="5,2" d="M143.67,-1219.16C171.76,-1258.38 241.74,-1347.66 324,-1390 353,-1404.92 387.85,-1412.82 418.86,-1416.94"/>
<polygon fill="#fb923c" stroke="#fb923c" stroke-width="1.3" points="418.8,-1419.75 427.08,-1417.96 419.49,-1414.2 418.8,-1419.75"/>
</g>
<!-- hidden_TimeSeriesAlignment -->
<g id="node45" class="node">
<title>hidden_TimeSeriesAlignment</title>
<path fill="#431407" stroke="#fb923c" d="M587.5,-1377C587.5,-1377 414.5,-1377 414.5,-1377 408.5,-1377 402.5,-1371 402.5,-1365 402.5,-1365 402.5,-1351 402.5,-1351 402.5,-1345 408.5,-1339 414.5,-1339 414.5,-1339 587.5,-1339 587.5,-1339 593.5,-1339 599.5,-1345 599.5,-1351 599.5,-1351 599.5,-1365 599.5,-1365 599.5,-1371 593.5,-1377 587.5,-1377"/>
<text text-anchor="middle" x="501" y="-1361.8" font-family="Segoe UI" font-size="14.00" fill="#e2e8f0">TimeSeriesAlignment</text>
<text text-anchor="middle" x="501" y="-1346.8" font-family="Segoe UI" font-size="14.00" fill="#e2e8f0">TimeSeriesAlignmentPage</text>
</g>
<!-- navigation&#45;&gt;hidden_TimeSeriesAlignment -->
<g id="edge45" class="edge">
<title>navigation&#45;&gt;hidden_TimeSeriesAlignment</title>
<path fill="none" stroke="#fb923c" stroke-width="1.3" stroke-dasharray="5,2" d="M152.9,-1219.18C187.28,-1247.51 256.21,-1300.11 324,-1327 346.02,-1335.74 370.57,-1342.02 394.17,-1346.53"/>
<polygon fill="#fb923c" stroke="#fb923c" stroke-width="1.3" points="393.76,-1349.3 402.14,-1348 394.78,-1343.8 393.76,-1349.3"/>
</g>
<!-- hidden_ExportPresets -->
<g id="node46" class="node">
<title>hidden_ExportPresets</title>
<path fill="#431407" stroke="#fb923c" d="M562,-1314C562,-1314 440,-1314 440,-1314 434,-1314 428,-1308 428,-1302 428,-1302 428,-1288 428,-1288 428,-1282 434,-1276 440,-1276 440,-1276 562,-1276 562,-1276 568,-1276 574,-1282 574,-1288 574,-1288 574,-1302 574,-1302 574,-1308 568,-1314 562,-1314"/>
<text text-anchor="middle" x="501" y="-1298.8" font-family="Segoe UI" font-size="14.00" fill="#e2e8f0">ExportPresets</text>
<text text-anchor="middle" x="501" y="-1283.8" font-family="Segoe UI" font-size="14.00" fill="#e2e8f0">ExportPresetsPage</text>
</g>
<!-- navigation&#45;&gt;hidden_ExportPresets -->
<g id="edge46" class="edge">
<title>navigation&#45;&gt;hidden_ExportPresets</title>
<path fill="none" stroke="#fb923c" stroke-width="1.3" stroke-dasharray="5,2" d="M181.24,-1219.03C219.93,-1232.98 274.76,-1251.59 324,-1264 355.07,-1271.83 389.71,-1278.39 419.99,-1283.43"/>
<polygon fill="#fb923c" stroke="#fb923c" stroke-width="1.3" points="419.65,-1286.21 428,-1284.74 420.56,-1280.68 419.65,-1286.21"/>
</g>
<!-- hidden_AnalysisExport -->
<g id="node47" class="node">
<title>hidden_AnalysisExport</title>
<path fill="#431407" stroke="#fb923c" d="M565.5,-1251C565.5,-1251 436.5,-1251 436.5,-1251 430.5,-1251 424.5,-1245 424.5,-1239 424.5,-1239 424.5,-1225 424.5,-1225 424.5,-1219 430.5,-1213 436.5,-1213 436.5,-1213 565.5,-1213 565.5,-1213 571.5,-1213 577.5,-1219 577.5,-1225 577.5,-1225 577.5,-1239 577.5,-1239 577.5,-1245 571.5,-1251 565.5,-1251"/>
<text text-anchor="middle" x="501" y="-1235.8" font-family="Segoe UI" font-size="14.00" fill="#e2e8f0">AnalysisExport</text>
<text text-anchor="middle" x="501" y="-1220.8" font-family="Segoe UI" font-size="14.00" fill="#e2e8f0">AnalysisExportPage</text>
</g>
<!-- navigation&#45;&gt;hidden_AnalysisExport -->
<g id="edge47" class="edge">
<title>navigation&#45;&gt;hidden_AnalysisExport</title>
<path fill="none" stroke="#fb923c" stroke-width="1.3" stroke-dasharray="5,2" d="M200.87,-1206.09C262.21,-1211.41 351.3,-1219.12 416.29,-1224.75"/>
<polygon fill="#fb923c" stroke="#fb923c" stroke-width="1.3" points="416.28,-1227.56 424.49,-1225.46 416.76,-1221.98 416.28,-1227.56"/>
</g>
<!-- hidden_AnalysisExportWizard -->
<g id="node48" class="node">
<title>hidden_AnalysisExportWizard</title>
<path fill="#431407" stroke="#fb923c" d="M589,-1188C589,-1188 413,-1188 413,-1188 407,-1188 401,-1182 401,-1176 401,-1176 401,-1162 401,-1162 401,-1156 407,-1150 413,-1150 413,-1150 589,-1150 589,-1150 595,-1150 601,-1156 601,-1162 601,-1162 601,-1176 601,-1176 601,-1182 595,-1188 589,-1188"/>
<text text-anchor="middle" x="501" y="-1172.8" font-family="Segoe UI" font-size="14.00" fill="#e2e8f0">AnalysisExportWizard</text>
<text text-anchor="middle" x="501" y="-1157.8" font-family="Segoe UI" font-size="14.00" fill="#e2e8f0">AnalysisExportWizardPage</text>
</g>
<!-- navigation&#45;&gt;hidden_AnalysisExportWizard -->
<g id="edge48" class="edge">
<title>navigation&#45;&gt;hidden_AnalysisExportWizard</title>
<path fill="none" stroke="#fb923c" stroke-width="1.3" stroke-dasharray="5,2" d="M200.87,-1194.1C255.08,-1189.55 330.94,-1183.18 392.7,-1178"/>
<polygon fill="#fb923c" stroke="#fb923c" stroke-width="1.3" points="393.19,-1180.77 400.93,-1177.31 392.73,-1175.19 393.19,-1180.77"/>
</g>
<!-- hidden_EventReplay -->
<g id="node49" class="node">
<title>hidden_EventReplay</title>
<path fill="#431407" stroke="#fb923c" d="M557,-1125C557,-1125 445,-1125 445,-1125 439,-1125 433,-1119 433,-1113 433,-1113 433,-1099 433,-1099 433,-1093 439,-1087 445,-1087 445,-1087 557,-1087 557,-1087 563,-1087 569,-1093 569,-1099 569,-1099 569,-1113 569,-1113 569,-1119 563,-1125 557,-1125"/>
<text text-anchor="middle" x="501" y="-1109.8" font-family="Segoe UI" font-size="14.00" fill="#e2e8f0">EventReplay</text>
<text text-anchor="middle" x="501" y="-1094.8" font-family="Segoe UI" font-size="14.00" fill="#e2e8f0">EventReplayPage</text>
</g>
<!-- navigation&#45;&gt;hidden_EventReplay -->
<g id="edge49" class="edge">
<title>navigation&#45;&gt;hidden_EventReplay</title>
<path fill="none" stroke="#fb923c" stroke-width="1.3" stroke-dasharray="5,2" d="M200.56,-1185.09C219.73,-1180.32 240.35,-1174.56 259,-1168 289.01,-1157.44 293.66,-1147.59 324,-1138 356.21,-1127.82 392.83,-1120.51 424.29,-1115.48"/>
<polygon fill="#fb923c" stroke="#fb923c" stroke-width="1.3" points="425.12,-1118.18 432.59,-1114.18 424.25,-1112.65 425.12,-1118.18"/>
</g>
<!-- hidden_AdvancedAnalytics -->
<g id="node50" class="node">
<title>hidden_AdvancedAnalytics</title>
<path fill="#431407" stroke="#fb923c" d="M579.5,-1062C579.5,-1062 422.5,-1062 422.5,-1062 416.5,-1062 410.5,-1056 410.5,-1050 410.5,-1050 410.5,-1036 410.5,-1036 410.5,-1030 416.5,-1024 422.5,-1024 422.5,-1024 579.5,-1024 579.5,-1024 585.5,-1024 591.5,-1030 591.5,-1036 591.5,-1036 591.5,-1050 591.5,-1050 591.5,-1056 585.5,-1062 579.5,-1062"/>
<text text-anchor="middle" x="501" y="-1046.8" font-family="Segoe UI" font-size="14.00" fill="#e2e8f0">AdvancedAnalytics</text>
<text text-anchor="middle" x="501" y="-1031.8" font-family="Segoe UI" font-size="14.00" fill="#e2e8f0">AdvancedAnalyticsPage</text>
</g>
<!-- navigation&#45;&gt;hidden_AdvancedAnalytics -->
<g id="edge50" class="edge">
<title>navigation&#45;&gt;hidden_AdvancedAnalytics</title>
<path fill="none" stroke="#fb923c" stroke-width="1.3" stroke-dasharray="5,2" d="M200.68,-1191.95C220.77,-1187.24 241.86,-1179.79 259,-1168 300.55,-1139.43 281.55,-1102.23 324,-1075 347.2,-1060.12 375.46,-1051.71 402.49,-1047.08"/>
<polygon fill="#fb923c" stroke="#fb923c" stroke-width="1.3" points="402.99,-1049.83 410.45,-1045.81 402.11,-1044.3 402.99,-1049.83"/>
</g>
<!-- hidden_DataCalendar -->
<g id="node51" class="node">
<title>hidden_DataCalendar</title>
<path fill="#431407" stroke="#fb923c" d="M561,-999C561,-999 441,-999 441,-999 435,-999 429,-993 429,-987 429,-987 429,-973 429,-973 429,-967 435,-961 441,-961 441,-961 561,-961 561,-961 567,-961 573,-967 573,-973 573,-973 573,-987 573,-987 573,-993 567,-999 561,-999"/>
<text text-anchor="middle" x="501" y="-983.8" font-family="Segoe UI" font-size="14.00" fill="#e2e8f0">DataCalendar</text>
<text text-anchor="middle" x="501" y="-968.8" font-family="Segoe UI" font-size="14.00" fill="#e2e8f0">DataCalendarPage</text>
</g>
<!-- navigation&#45;&gt;hidden_DataCalendar -->
<g id="edge51" class="edge">
<title>navigation&#45;&gt;hidden_DataCalendar</title>
<path fill="none" stroke="#fb923c" stroke-width="1.3" stroke-dasharray="5,2" d="M200.73,-1194.55C221.39,-1189.97 242.79,-1181.94 259,-1168 315.96,-1119.04 265.5,-1059.11 324,-1012 350.87,-990.36 387.56,-981.48 420.49,-978.35"/>
<polygon fill="#fb923c" stroke="#fb923c" stroke-width="1.3" points="421.03,-981.12 428.77,-977.68 420.57,-975.54 421.03,-981.12"/>
</g>
<!-- hidden_StorageOptimization -->
<g id="node52" class="node">
<title>hidden_StorageOptimization</title>
<path fill="#431407" stroke="#fb923c" d="M585,-936C585,-936 417,-936 417,-936 411,-936 405,-930 405,-924 405,-924 405,-910 405,-910 405,-904 411,-898 417,-898 417,-898 585,-898 585,-898 591,-898 597,-904 597,-910 597,-910 597,-924 597,-924 597,-930 591,-936 585,-936"/>
<text text-anchor="middle" x="501" y="-920.8" font-family="Segoe UI" font-size="14.00" fill="#e2e8f0">StorageOptimization</text>
<text text-anchor="middle" x="501" y="-905.8" font-family="Segoe UI" font-size="14.00" fill="#e2e8f0">StorageOptimizationPage</text>
</g>
<!-- navigation&#45;&gt;hidden_StorageOptimization -->
<g id="edge52" class="edge">
<title>navigation&#45;&gt;hidden_StorageOptimization</title>
<path fill="none" stroke="#fb923c" stroke-width="1.3" stroke-dasharray="5,2" d="M200.65,-1195.79C221.68,-1191.31 243.3,-1183.02 259,-1168 332.37,-1097.82 248.41,-1016.79 324,-949 343.91,-931.15 370.33,-921.68 396.63,-916.99"/>
<polygon fill="#fb923c" stroke="#fb923c" stroke-width="1.3" points="397.33,-919.71 404.79,-915.68 396.44,-914.18 397.33,-919.71"/>
</g>
<!-- hidden_RetentionAssurance -->
<g id="node53" class="node">
<title>hidden_RetentionAssurance</title>
<path fill="#431407" stroke="#fb923c" d="M583,-873C583,-873 419,-873 419,-873 413,-873 407,-867 407,-861 407,-861 407,-847 407,-847 407,-841 413,-835 419,-835 419,-835 583,-835 583,-835 589,-835 595,-841 595,-847 595,-847 595,-861 595,-861 595,-867 589,-873 583,-873"/>
<text text-anchor="middle" x="501" y="-857.8" font-family="Segoe UI" font-size="14.00" fill="#e2e8f0">RetentionAssurance</text>
<text text-anchor="middle" x="501" y="-842.8" font-family="Segoe UI" font-size="14.00" fill="#e2e8f0">RetentionAssurancePage</text>
</g>
<!-- navigation&#45;&gt;hidden_RetentionAssurance -->
<g id="edge53" class="edge">
<title>navigation&#45;&gt;hidden_RetentionAssurance</title>
<path fill="none" stroke="#fb923c" stroke-width="1.3" stroke-dasharray="5,2" d="M200.51,-1196.86C221.91,-1192.49 243.79,-1183.99 259,-1168 347.65,-1074.82 228.4,-972.04 324,-886 344.38,-867.66 371.63,-858.16 398.6,-853.59"/>
<polygon fill="#fb923c" stroke="#fb923c" stroke-width="1.3" points="399.08,-856.35 406.57,-852.38 398.24,-850.81 399.08,-856.35"/>
</g>
<!-- hidden_MessagingHub -->
<g id="node54" class="node">
<title>hidden_MessagingHub</title>
<path fill="#431407" stroke="#fb923c" d="M565,-810C565,-810 437,-810 437,-810 431,-810 425,-804 425,-798 425,-798 425,-784 425,-784 425,-778 431,-772 437,-772 437,-772 565,-772 565,-772 571,-772 577,-778 577,-784 577,-784 577,-798 577,-798 577,-804 571,-810 565,-810"/>
<text text-anchor="middle" x="501" y="-794.8" font-family="Segoe UI" font-size="14.00" fill="#e2e8f0">MessagingHub</text>
<text text-anchor="middle" x="501" y="-779.8" font-family="Segoe UI" font-size="14.00" fill="#e2e8f0">MessagingHubPage</text>
</g>
<!-- navigation&#45;&gt;hidden_MessagingHub -->
<g id="edge54" class="edge">
<title>navigation&#45;&gt;hidden_MessagingHub</title>
<path fill="none" stroke="#fb923c" stroke-width="1.3" stroke-dasharray="5,2" d="M200.67,-1197.39C222.21,-1193.06 244.13,-1184.46 259,-1168 311.29,-1110.1 265.64,-874.78 324,-823 349.06,-800.77 384.24,-791.59 416.57,-788.41"/>
<polygon fill="#fb923c" stroke="#fb923c" stroke-width="1.3" points="416.99,-791.19 424.72,-787.73 416.52,-785.61 416.99,-791.19"/>
</g>
<!-- hidden_ResearchShell -->
<g id="node55" class="node">
<title>hidden_ResearchShell</title>
<path fill="#431407" stroke="#fb923c" d="M600,-747C600,-747 402,-747 402,-747 396,-747 390,-741 390,-735 390,-735 390,-721 390,-721 390,-715 396,-709 402,-709 402,-709 600,-709 600,-709 606,-709 612,-715 612,-721 612,-721 612,-735 612,-735 612,-741 606,-747 600,-747"/>
<text text-anchor="middle" x="501" y="-731.8" font-family="Segoe UI" font-size="14.00" fill="#e2e8f0">ResearchShell</text>
<text text-anchor="middle" x="501" y="-716.8" font-family="Segoe UI" font-size="14.00" fill="#e2e8f0">ResearchWorkspaceShellPage</text>
</g>
<!-- navigation&#45;&gt;hidden_ResearchShell -->
<g id="edge55" class="edge">
<title>navigation&#45;&gt;hidden_ResearchShell</title>
<path fill="none" stroke="#fb923c" stroke-width="1.3" stroke-dasharray="5,2" d="M200.78,-1197.48C222.33,-1193.17 244.22,-1184.55 259,-1168 320.15,-1099.52 258.06,-823.88 324,-760 339.79,-744.7 360.31,-735.42 381.74,-729.99"/>
<polygon fill="#fb923c" stroke="#fb923c" stroke-width="1.3" points="382.5,-732.69 389.67,-728.16 381.24,-727.23 382.5,-732.69"/>
</g>
<!-- hidden_TradingShell -->
<g id="node56" class="node">
<title>hidden_TradingShell</title>
<path fill="#431407" stroke="#fb923c" d="M594.5,-684C594.5,-684 407.5,-684 407.5,-684 401.5,-684 395.5,-678 395.5,-672 395.5,-672 395.5,-658 395.5,-658 395.5,-652 401.5,-646 407.5,-646 407.5,-646 594.5,-646 594.5,-646 600.5,-646 606.5,-652 606.5,-658 606.5,-658 606.5,-672 606.5,-672 606.5,-678 600.5,-684 594.5,-684"/>
<text text-anchor="middle" x="501" y="-668.8" font-family="Segoe UI" font-size="14.00" fill="#e2e8f0">TradingShell</text>
<text text-anchor="middle" x="501" y="-653.8" font-family="Segoe UI" font-size="14.00" fill="#e2e8f0">TradingWorkspaceShellPage</text>
</g>
<!-- navigation&#45;&gt;hidden_TradingShell -->
<g id="edge56" class="edge">
<title>navigation&#45;&gt;hidden_TradingShell</title>
<path fill="none" stroke="#fb923c" stroke-width="1.3" stroke-dasharray="5,2" d="M200.69,-1197.76C222.36,-1193.49 244.36,-1184.82 259,-1168 328.38,-1088.32 248,-770.4 324,-697 341.16,-680.43 363.87,-670.92 387.25,-665.73"/>
<polygon fill="#fb923c" stroke="#fb923c" stroke-width="1.3" points="387.91,-668.45 395.2,-664.13 386.8,-662.96 387.91,-668.45"/>
</g>
<!-- hidden_Workspaces -->
<g id="node57" class="node">
<title>hidden_Workspaces</title>
<path fill="#431407" stroke="#fb923c" d="M551.5,-621C551.5,-621 450.5,-621 450.5,-621 444.5,-621 438.5,-615 438.5,-609 438.5,-609 438.5,-595 438.5,-595 438.5,-589 444.5,-583 450.5,-583 450.5,-583 551.5,-583 551.5,-583 557.5,-583 563.5,-589 563.5,-595 563.5,-595 563.5,-609 563.5,-609 563.5,-615 557.5,-621 551.5,-621"/>
<text text-anchor="middle" x="501" y="-605.8" font-family="Segoe UI" font-size="14.00" fill="#e2e8f0">Workspaces</text>
<text text-anchor="middle" x="501" y="-590.8" font-family="Segoe UI" font-size="14.00" fill="#e2e8f0">WorkspacePage</text>
</g>
<!-- navigation&#45;&gt;hidden_Workspaces -->
<g id="edge57" class="edge">
<title>navigation&#45;&gt;hidden_Workspaces</title>
<path fill="none" stroke="#fb923c" stroke-width="1.3" stroke-dasharray="5,2" d="M200.54,-1197.99C222.33,-1193.75 244.44,-1185.04 259,-1168 336.64,-1077.11 237.24,-716.24 324,-634 351.98,-607.48 394.19,-599.16 430.27,-597.62"/>
<polygon fill="#fb923c" stroke="#fb923c" stroke-width="1.3" points="430.42,-600.41 438.34,-597.38 430.26,-594.81 430.42,-600.41"/>
</g>
<!-- hidden_NotificationCenter -->
<g id="node58" class="node">
<title>hidden_NotificationCenter</title>
<path fill="#431407" stroke="#fb923c" d="M576.5,-558C576.5,-558 425.5,-558 425.5,-558 419.5,-558 413.5,-552 413.5,-546 413.5,-546 413.5,-532 413.5,-532 413.5,-526 419.5,-520 425.5,-520 425.5,-520 576.5,-520 576.5,-520 582.5,-520 588.5,-526 588.5,-532 588.5,-532 588.5,-546 588.5,-546 588.5,-552 582.5,-558 576.5,-558"/>
<text text-anchor="middle" x="501" y="-542.8" font-family="Segoe UI" font-size="14.00" fill="#e2e8f0">NotificationCenter</text>
<text text-anchor="middle" x="501" y="-527.8" font-family="Segoe UI" font-size="14.00" fill="#e2e8f0">NotificationCenterPage</text>
</g>
<!-- navigation&#45;&gt;hidden_NotificationCenter -->
<g id="edge58" class="edge">
<title>navigation&#45;&gt;hidden_NotificationCenter</title>
<path fill="none" stroke="#fb923c" stroke-width="1.3" stroke-dasharray="5,2" d="M200.66,-1198.09C222.47,-1193.86 244.55,-1185.14 259,-1168 345.04,-1065.99 226.52,-662.14 324,-571 345.77,-550.64 375.96,-541.05 405.19,-537.02"/>
<polygon fill="#fb923c" stroke="#fb923c" stroke-width="1.3" points="405.79,-539.76 413.4,-536.02 405.12,-534.2 405.79,-539.76"/>
</g>
<!-- hidden_Help -->
<g id="node59" class="node">
<title>hidden_Help</title>
<path fill="#431407" stroke="#fb923c" d="M529.5,-495C529.5,-495 472.5,-495 472.5,-495 466.5,-495 460.5,-489 460.5,-483 460.5,-483 460.5,-469 460.5,-469 460.5,-463 466.5,-457 472.5,-457 472.5,-457 529.5,-457 529.5,-457 535.5,-457 541.5,-463 541.5,-469 541.5,-469 541.5,-483 541.5,-483 541.5,-489 535.5,-495 529.5,-495"/>
<text text-anchor="middle" x="501" y="-479.8" font-family="Segoe UI" font-size="14.00" fill="#e2e8f0">Help</text>
<text text-anchor="middle" x="501" y="-464.8" font-family="Segoe UI" font-size="14.00" fill="#e2e8f0">HelpPage</text>
</g>
<!-- navigation&#45;&gt;hidden_Help -->
<g id="edge59" class="edge">
<title>navigation&#45;&gt;hidden_Help</title>
<path fill="none" stroke="#fb923c" stroke-width="1.3" stroke-dasharray="5,2" d="M200.75,-1198.17C222.56,-1193.94 244.63,-1185.2 259,-1168 353.49,-1054.9 215.7,-607.95 324,-508 358.3,-476.34 413,-470.83 452.31,-471.67"/>
<polygon fill="#fb923c" stroke="#fb923c" stroke-width="1.3" points="452.37,-474.47 460.46,-471.94 452.55,-468.88 452.37,-474.47"/>
</g>
<!-- hidden_Welcome -->
<g id="node60" class="node">
<title>hidden_Welcome</title>
<path fill="#431407" stroke="#fb923c" d="M545,-432C545,-432 457,-432 457,-432 451,-432 445,-426 445,-420 445,-420 445,-406 445,-406 445,-400 451,-394 457,-394 457,-394 545,-394 545,-394 551,-394 557,-400 557,-406 557,-406 557,-420 557,-420 557,-426 551,-432 545,-432"/>
<text text-anchor="middle" x="501" y="-416.8" font-family="Segoe UI" font-size="14.00" fill="#e2e8f0">Welcome</text>
<text text-anchor="middle" x="501" y="-401.8" font-family="Segoe UI" font-size="14.00" fill="#e2e8f0">WelcomePage</text>
</g>
<!-- navigation&#45;&gt;hidden_Welcome -->
<g id="edge60" class="edge">
<title>navigation&#45;&gt;hidden_Welcome</title>
<path fill="none" stroke="#fb923c" stroke-width="1.3" stroke-dasharray="5,2" d="M200.82,-1198.23C222.64,-1194.01 244.69,-1185.25 259,-1168 302.98,-1114.97 283.68,-616.96 295,-549 302.88,-501.67 288.54,-477.33 324,-445 354.08,-417.57 399.5,-409.84 436.67,-408.83"/>
<polygon fill="#fb923c" stroke="#fb923c" stroke-width="1.3" points="436.99,-411.62 444.95,-408.71 436.91,-406.02 436.99,-411.62"/>
</g>
<!-- hidden_CredentialManagement -->
<g id="node61" class="node">
<title>hidden_CredentialManagement</title>
<path fill="#431407" stroke="#fb923c" d="M594.5,-369C594.5,-369 407.5,-369 407.5,-369 401.5,-369 395.5,-363 395.5,-357 395.5,-357 395.5,-343 395.5,-343 395.5,-337 401.5,-331 407.5,-331 407.5,-331 594.5,-331 594.5,-331 600.5,-331 606.5,-337 606.5,-343 606.5,-343 606.5,-357 606.5,-357 606.5,-363 600.5,-369 594.5,-369"/>
<text text-anchor="middle" x="501" y="-353.8" font-family="Segoe UI" font-size="14.00" fill="#e2e8f0">CredentialManagement</text>
<text text-anchor="middle" x="501" y="-338.8" font-family="Segoe UI" font-size="14.00" fill="#e2e8f0">CredentialManagementPage</text>
</g>
<!-- navigation&#45;&gt;hidden_CredentialManagement -->
<g id="edge61" class="edge">
<title>navigation&#45;&gt;hidden_CredentialManagement</title>
<path fill="none" stroke="#fb923c" stroke-width="1.3" stroke-dasharray="5,2" d="M200.83,-1198.24C222.65,-1194.02 244.7,-1185.26 259,-1168 314.91,-1100.52 261.88,-443.81 324,-382 341.01,-365.08 363.79,-355.45 387.3,-350.26"/>
<polygon fill="#fb923c" stroke="#fb923c" stroke-width="1.3" points="387.99,-352.98 395.29,-348.67 386.9,-347.49 387.99,-352.98"/>
</g>
<!-- hidden_KeyboardShortcuts -->
<g id="node62" class="node">
<title>hidden_KeyboardShortcuts</title>
<path fill="#431407" stroke="#fb923c" d="M579.5,-306C579.5,-306 422.5,-306 422.5,-306 416.5,-306 410.5,-300 410.5,-294 410.5,-294 410.5,-280 410.5,-280 410.5,-274 416.5,-268 422.5,-268 422.5,-268 579.5,-268 579.5,-268 585.5,-268 591.5,-274 591.5,-280 591.5,-280 591.5,-294 591.5,-294 591.5,-300 585.5,-306 579.5,-306"/>
<text text-anchor="middle" x="501" y="-290.8" font-family="Segoe UI" font-size="14.00" fill="#e2e8f0">KeyboardShortcuts</text>
<text text-anchor="middle" x="501" y="-275.8" font-family="Segoe UI" font-size="14.00" fill="#e2e8f0">KeyboardShortcutsPage</text>
</g>
<!-- navigation&#45;&gt;hidden_KeyboardShortcuts -->
<g id="edge62" class="edge">
<title>navigation&#45;&gt;hidden_KeyboardShortcuts</title>
<path fill="none" stroke="#fb923c" stroke-width="1.3" stroke-dasharray="5,2" d="M200.52,-1198.32C222.45,-1194.12 244.64,-1185.36 259,-1168 319.29,-1095.09 258.21,-386.99 324,-319 344.33,-297.99 373.51,-288.1 402.29,-284"/>
<polygon fill="#fb923c" stroke="#fb923c" stroke-width="1.3" points="402.79,-286.76 410.38,-282.99 402.1,-281.2 402.79,-286.76"/>
</g>
<!-- hidden_SetupWizard -->
<g id="node63" class="node">
<title>hidden_SetupWizard</title>
<path fill="#431407" stroke="#fb923c" d="M557.5,-243C557.5,-243 444.5,-243 444.5,-243 438.5,-243 432.5,-237 432.5,-231 432.5,-231 432.5,-217 432.5,-217 432.5,-211 438.5,-205 444.5,-205 444.5,-205 557.5,-205 557.5,-205 563.5,-205 569.5,-211 569.5,-217 569.5,-217 569.5,-231 569.5,-231 569.5,-237 563.5,-243 557.5,-243"/>
<text text-anchor="middle" x="501" y="-227.8" font-family="Segoe UI" font-size="14.00" fill="#e2e8f0">SetupWizard</text>
<text text-anchor="middle" x="501" y="-212.8" font-family="Segoe UI" font-size="14.00" fill="#e2e8f0">SetupWizardPage</text>
</g>
<!-- navigation&#45;&gt;hidden_SetupWizard -->
<g id="edge63" class="edge">
<title>navigation&#45;&gt;hidden_SetupWizard</title>
<path fill="none" stroke="#fb923c" stroke-width="1.3" stroke-dasharray="5,2" d="M200.56,-1198.36C222.5,-1194.16 244.68,-1185.4 259,-1168 323.55,-1089.56 253.41,-329.06 324,-256 349.47,-229.64 388.87,-220.78 423.94,-218.89"/>
<polygon fill="#fb923c" stroke="#fb923c" stroke-width="1.3" points="424.4,-221.68 432.28,-218.57 424.18,-216.08 424.4,-221.68"/>
</g>
<!-- hidden_AddProviderWizard -->
<g id="node64" class="node">
<title>hidden_AddProviderWizard</title>
<path fill="#431407" stroke="#fb923c" d="M579.5,-180C579.5,-180 422.5,-180 422.5,-180 416.5,-180 410.5,-174 410.5,-168 410.5,-168 410.5,-154 410.5,-154 410.5,-148 416.5,-142 422.5,-142 422.5,-142 579.5,-142 579.5,-142 585.5,-142 591.5,-148 591.5,-154 591.5,-154 591.5,-168 591.5,-168 591.5,-174 585.5,-180 579.5,-180"/>
<text text-anchor="middle" x="501" y="-164.8" font-family="Segoe UI" font-size="14.00" fill="#e2e8f0">AddProviderWizard</text>
<text text-anchor="middle" x="501" y="-149.8" font-family="Segoe UI" font-size="14.00" fill="#e2e8f0">AddProviderWizardPage</text>
</g>
<!-- navigation&#45;&gt;hidden_AddProviderWizard -->
<g id="edge64" class="edge">
<title>navigation&#45;&gt;hidden_AddProviderWizard</title>
<path fill="none" stroke="#fb923c" stroke-width="1.3" stroke-dasharray="5,2" d="M200.61,-1198.4C222.55,-1194.21 244.73,-1185.43 259,-1168 327.78,-1083.99 248.04,-270.57 324,-193 344.36,-172.21 373.39,-162.35 402.02,-158.21"/>
<polygon fill="#fb923c" stroke="#fb923c" stroke-width="1.3" points="402.49,-160.97 410.07,-157.19 401.78,-155.41 402.49,-160.97"/>
</g>
<!-- hidden_ActivityLog -->
<g id="node65" class="node">
<title>hidden_ActivityLog</title>
<path fill="#431407" stroke="#fb923c" d="M551.5,-117C551.5,-117 450.5,-117 450.5,-117 444.5,-117 438.5,-111 438.5,-105 438.5,-105 438.5,-91 438.5,-91 438.5,-85 444.5,-79 450.5,-79 450.5,-79 551.5,-79 551.5,-79 557.5,-79 563.5,-85 563.5,-91 563.5,-91 563.5,-105 563.5,-105 563.5,-111 557.5,-117 551.5,-117"/>
<text text-anchor="middle" x="501" y="-101.8" font-family="Segoe UI" font-size="14.00" fill="#e2e8f0">ActivityLog</text>
<text text-anchor="middle" x="501" y="-86.8" font-family="Segoe UI" font-size="14.00" fill="#e2e8f0">ActivityLogPage</text>
</g>
<!-- navigation&#45;&gt;hidden_ActivityLog -->
<g id="edge65" class="edge">
<title>navigation&#45;&gt;hidden_ActivityLog</title>
<path fill="none" stroke="#fb923c" stroke-width="1.3" stroke-dasharray="5,2" d="M200.65,-1198.43C222.59,-1194.24 244.76,-1185.46 259,-1168 332.03,-1078.44 242.73,-212.16 324,-130 351.21,-102.49 393.61,-94.18 429.98,-92.89"/>
<polygon fill="#fb923c" stroke="#fb923c" stroke-width="1.3" points="430.19,-95.69 438.12,-92.72 430.06,-90.09 430.19,-95.69"/>
</g>
<!-- hidden_SecurityMaster -->
<g id="node66" class="node">
<title>hidden_SecurityMaster</title>
<path fill="#431407" stroke="#fb923c" d="M566,-54C566,-54 436,-54 436,-54 430,-54 424,-48 424,-42 424,-42 424,-28 424,-28 424,-22 430,-16 436,-16 436,-16 566,-16 566,-16 572,-16 578,-22 578,-28 578,-28 578,-42 578,-42 578,-48 572,-54 566,-54"/>
<text text-anchor="middle" x="501" y="-38.8" font-family="Segoe UI" font-size="14.00" fill="#e2e8f0">SecurityMaster</text>
<text text-anchor="middle" x="501" y="-23.8" font-family="Segoe UI" font-size="14.00" fill="#e2e8f0">SecurityMasterPage</text>
</g>
<!-- navigation&#45;&gt;hidden_SecurityMaster -->
<g id="edge66" class="edge">
<title>navigation&#45;&gt;hidden_SecurityMaster</title>
<path fill="none" stroke="#fb923c" stroke-width="1.3" stroke-dasharray="5,2" d="M200.69,-1198.46C222.63,-1194.27 244.79,-1185.48 259,-1168 336.29,-1072.9 237.32,-153.63 324,-67 347.79,-43.22 382.96,-33.83 415.62,-30.92"/>
<polygon fill="#fb923c" stroke="#fb923c" stroke-width="1.3" points="416.09,-33.69 423.86,-30.31 415.68,-28.11 416.09,-33.69"/>
</g>
<!-- page_Dashboard -->
<g id="node5" class="node">
<title>page_Dashboard</title>
<path fill="#1e293b" stroke="#475569" d="M1009.5,-2414C1009.5,-2414 812.5,-2414 812.5,-2414 806.5,-2414 800.5,-2408 800.5,-2402 800.5,-2402 800.5,-2388 800.5,-2388 800.5,-2382 806.5,-2376 812.5,-2376 812.5,-2376 1009.5,-2376 1009.5,-2376 1015.5,-2376 1021.5,-2382 1021.5,-2388 1021.5,-2388 1021.5,-2402 1021.5,-2402 1021.5,-2408 1015.5,-2414 1009.5,-2414"/>
<text text-anchor="middle" x="911" y="-2398.8" font-family="Segoe UI" font-size="14.00" fill="#e2e8f0">Dashboard</text>
<text text-anchor="middle" x="911" y="-2383.8" font-family="Segoe UI" font-size="14.00" fill="#e2e8f0">Dashboard → DashboardPage</text>
</g>
<!-- workspace_1&#45;&gt;page_Dashboard -->
<g id="edge3" class="edge">
<title>workspace_1&#45;&gt;page_Dashboard</title>
<path fill="none" stroke="#94a3b8" stroke-width="1.3" d="M502.85,-3036.74C507.77,-2950.01 540.15,-2592.74 743,-2427 757.3,-2415.31 774.59,-2407.43 792.54,-2402.19"/>
<polygon fill="#94a3b8" stroke="#94a3b8" stroke-width="1.3" points="793.28,-2404.89 800.27,-2400.1 791.82,-2399.48 793.28,-2404.89"/>
</g>
<!-- page_LiveData -->
<g id="node6" class="node">
<title>page_LiveData</title>
<path fill="#1e293b" stroke="#475569" d="M1017.5,-2477C1017.5,-2477 804.5,-2477 804.5,-2477 798.5,-2477 792.5,-2471 792.5,-2465 792.5,-2465 792.5,-2451 792.5,-2451 792.5,-2445 798.5,-2439 804.5,-2439 804.5,-2439 1017.5,-2439 1017.5,-2439 1023.5,-2439 1029.5,-2445 1029.5,-2451 1029.5,-2451 1029.5,-2465 1029.5,-2465 1029.5,-2471 1023.5,-2477 1017.5,-2477"/>
<text text-anchor="middle" x="911" y="-2461.8" font-family="Segoe UI" font-size="14.00" fill="#e2e8f0">LiveData</text>
<text text-anchor="middle" x="911" y="-2446.8" font-family="Segoe UI" font-size="14.00" fill="#e2e8f0">LiveData → LiveDataViewerPage</text>
</g>
<!-- workspace_1&#45;&gt;page_LiveData -->
<g id="edge4" class="edge">
<title>workspace_1&#45;&gt;page_LiveData</title>
<path fill="none" stroke="#94a3b8" stroke-width="1.3" d="M503.83,-3036.85C512.64,-2955.89 558.25,-2639.03 743,-2490 755.13,-2480.21 769.36,-2473.1 784.31,-2467.98"/>
<polygon fill="#94a3b8" stroke="#94a3b8" stroke-width="1.3" points="785.41,-2470.57 792.18,-2465.48 783.71,-2465.23 785.41,-2470.57"/>
</g>
<!-- page_Charts -->
<g id="node7" class="node">
<title>page_Charts</title>
<path fill="#1e293b" stroke="#475569" d="M987,-2540C987,-2540 835,-2540 835,-2540 829,-2540 823,-2534 823,-2528 823,-2528 823,-2514 823,-2514 823,-2508 829,-2502 835,-2502 835,-2502 987,-2502 987,-2502 993,-2502 999,-2508 999,-2514 999,-2514 999,-2528 999,-2528 999,-2534 993,-2540 987,-2540"/>
<text text-anchor="middle" x="911" y="-2524.8" font-family="Segoe UI" font-size="14.00" fill="#e2e8f0">Charts</text>
<text text-anchor="middle" x="911" y="-2509.8" font-family="Segoe UI" font-size="14.00" fill="#e2e8f0">Charts → ChartingPage</text>
</g>
<!-- workspace_1&#45;&gt;page_Charts -->
<g id="edge5" class="edge">
<title>workspace_1&#45;&gt;page_Charts</title>
<path fill="none" stroke="#94a3b8" stroke-width="1.3" d="M504.9,-3036.93C517.43,-2961.69 574.08,-2683.2 743,-2553 763.36,-2537.31 789.19,-2528.59 814.41,-2523.91"/>
<polygon fill="#94a3b8" stroke="#94a3b8" stroke-width="1.3" points="815.15,-2526.63 822.58,-2522.53 814.22,-2521.11 815.15,-2526.63"/>
</g>
<!-- page_QuantScript -->
<g id="node8" class="node">
<title>page_QuantScript</title>
<path fill="#1e293b" stroke="#475569" d="M1017.5,-2603C1017.5,-2603 804.5,-2603 804.5,-2603 798.5,-2603 792.5,-2597 792.5,-2591 792.5,-2591 792.5,-2577 792.5,-2577 792.5,-2571 798.5,-2565 804.5,-2565 804.5,-2565 1017.5,-2565 1017.5,-2565 1023.5,-2565 1029.5,-2571 1029.5,-2577 1029.5,-2577 1029.5,-2591 1029.5,-2591 1029.5,-2597 1023.5,-2603 1017.5,-2603"/>
<text text-anchor="middle" x="911" y="-2587.8" font-family="Segoe UI" font-size="14.00" fill="#e2e8f0">QuantScript</text>
<text text-anchor="middle" x="911" y="-2572.8" font-family="Segoe UI" font-size="14.00" fill="#e2e8f0">QuantScript → QuantScriptPage</text>
</g>
<!-- workspace_1&#45;&gt;page_QuantScript -->
<g id="edge6" class="edge">
<title>workspace_1&#45;&gt;page_QuantScript</title>
<path fill="none" stroke="#94a3b8" stroke-width="1.3" d="M505.35,-3036.63C520.25,-2965.12 586.71,-2717.84 743,-2604 755.4,-2594.97 769.64,-2588.29 784.46,-2583.47"/>
<polygon fill="#94a3b8" stroke="#94a3b8" stroke-width="1.3" points="785.41,-2586.11 792.26,-2581.12 783.8,-2580.75 785.41,-2586.11"/>
</g>
<!-- workspace_1&#45;&gt;page_QuantScript -->
<g id="edge8" class="edge">
<title>workspace_1&#45;&gt;page_QuantScript</title>
<path fill="none" stroke="#94a3b8" stroke-width="1.3" d="M507.68,-3036.73C526.42,-2968.12 593.75,-2737.71 743,-2629 758.14,-2617.97 776.03,-2610.45 794.38,-2605.17"/>
<polygon fill="#94a3b8" stroke="#94a3b8" stroke-width="1.3" points="795.27,-2607.83 802.26,-2603.04 793.81,-2602.42 795.27,-2607.83"/>
</g>
<!-- page_RunMat -->
<g id="node9" class="node">
<title>page_RunMat</title>
<path fill="#1e293b" stroke="#475569" d="M987,-2666C987,-2666 835,-2666 835,-2666 829,-2666 823,-2660 823,-2654 823,-2654 823,-2640 823,-2640 823,-2634 829,-2628 835,-2628 835,-2628 987,-2628 987,-2628 993,-2628 999,-2634 999,-2640 999,-2640 999,-2654 999,-2654 999,-2660 993,-2666 987,-2666"/>
<text text-anchor="middle" x="911" y="-2650.8" font-family="Segoe UI" font-size="14.00" fill="#e2e8f0">RunMat</text>
<text text-anchor="middle" x="911" y="-2635.8" font-family="Segoe UI" font-size="14.00" fill="#e2e8f0">RunMat → RunMatPage</text>
</g>
<!-- workspace_1&#45;&gt;page_RunMat -->
<g id="edge7" class="edge">
<title>workspace_1&#45;&gt;page_RunMat</title>
<path fill="none" stroke="#94a3b8" stroke-width="1.3" d="M508.07,-3036.86C529.08,-2973.99 605.07,-2772.49 743,-2679 764.06,-2664.73 789.86,-2656.44 814.83,-2651.72"/>
<polygon fill="#94a3b8" stroke="#94a3b8" stroke-width="1.3" points="815.5,-2654.45 822.9,-2650.31 814.54,-2648.93 815.5,-2654.45"/>
</g>
<!-- page_StrategyRuns -->
<g id="node10" class="node">
<title>page_StrategyRuns</title>
<path fill="#1e293b" stroke="#475569" d="M1028,-2729C1028,-2729 794,-2729 794,-2729 788,-2729 782,-2723 782,-2717 782,-2717 782,-2703 782,-2703 782,-2697 788,-2691 794,-2691 794,-2691 1028,-2691 1028,-2691 1034,-2691 1040,-2697 1040,-2703 1040,-2703 1040,-2717 1040,-2717 1040,-2723 1034,-2729 1028,-2729"/>
<text text-anchor="middle" x="911" y="-2713.8" font-family="Segoe UI" font-size="14.00" fill="#e2e8f0">StrategyRuns</text>
<text text-anchor="middle" x="911" y="-2698.8" font-family="Segoe UI" font-size="14.00" fill="#e2e8f0">StrategyRuns → StrategyRunsPage</text>
</g>
<!-- workspace_1&#45;&gt;page_StrategyRuns -->
<g id="edge9" class="edge">
<title>workspace_1&#45;&gt;page_StrategyRuns</title>
<path fill="none" stroke="#94a3b8" stroke-width="1.3" d="M515.18,-3036.83C549.6,-2995.07 643.88,-2894.9 707,-2800 726.37,-2770.87 714.99,-2750.96 743,-2730 752.41,-2722.96 762.93,-2717.33 773.99,-2712.9"/>
<polygon fill="#94a3b8" stroke="#94a3b8" stroke-width="1.3" points="775.21,-2715.43 781.73,-2710.01 773.25,-2710.18 775.21,-2715.43"/>
</g>
<!-- workspace_1&#45;&gt;page_StrategyRuns -->
<g id="edge13" class="edge">
<title>workspace_1&#45;&gt;page_StrategyRuns</title>
<path fill="none" stroke="#94a3b8" stroke-width="1.3" d="M528.49,-3036.93C569.83,-2998.25 650.78,-2909.54 707,-2825 726.37,-2795.87 714.99,-2775.96 743,-2755 757.55,-2744.11 774.76,-2736.6 792.51,-2731.31"/>
<polygon fill="#94a3b8" stroke="#94a3b8" stroke-width="1.3" points="793.75,-2733.87 800.7,-2729.03 792.24,-2728.48 793.75,-2733.87"/>
</g>
<!-- page_OrderBook -->
<g id="node11" class="node">
<title>page_OrderBook</title>
<path fill="#1e293b" stroke="#475569" d="M1008.5,-2792C1008.5,-2792 813.5,-2792 813.5,-2792 807.5,-2792 801.5,-2786 801.5,-2780 801.5,-2780 801.5,-2766 801.5,-2766 801.5,-2760 807.5,-2754 813.5,-2754 813.5,-2754 1008.5,-2754 1008.5,-2754 1014.5,-2754 1020.5,-2760 1020.5,-2766 1020.5,-2766 1020.5,-2780 1020.5,-2780 1020.5,-2786 1014.5,-2792 1008.5,-2792"/>
<text text-anchor="middle" x="911" y="-2776.8" font-family="Segoe UI" font-size="14.00" fill="#e2e8f0">OrderBook</text>
<text text-anchor="middle" x="911" y="-2761.8" font-family="Segoe UI" font-size="14.00" fill="#e2e8f0">OrderBook → OrderBookPage</text>
</g>
<!-- workspace_1&#45;&gt;page_OrderBook -->
<g id="edge10" class="edge">
<title>workspace_1&#45;&gt;page_OrderBook</title>
<path fill="none" stroke="#94a3b8" stroke-width="1.3" d="M546.02,-3036.91C592.48,-3014.61 664.72,-2973.44 707,-2917 738.35,-2875.15 703.85,-2839.66 743,-2805 757.22,-2792.42 774.83,-2784.14 793.24,-2778.79"/>
<polygon fill="#94a3b8" stroke="#94a3b8" stroke-width="1.3" points="794.16,-2781.44 801.16,-2776.67 792.71,-2776.03 794.16,-2781.44"/>
</g>
<!-- page_Watchlist -->
<g id="node12" class="node">
<title>page_Watchlist</title>
<path fill="#1e293b" stroke="#475569" d="M997.5,-2855C997.5,-2855 824.5,-2855 824.5,-2855 818.5,-2855 812.5,-2849 812.5,-2843 812.5,-2843 812.5,-2829 812.5,-2829 812.5,-2823 818.5,-2817 824.5,-2817 824.5,-2817 997.5,-2817 997.5,-2817 1003.5,-2817 1009.5,-2823 1009.5,-2829 1009.5,-2829 1009.5,-2843 1009.5,-2843 1009.5,-2849 1003.5,-2855 997.5,-2855"/>
<text text-anchor="middle" x="911" y="-2839.8" font-family="Segoe UI" font-size="14.00" fill="#e2e8f0">Watchlist</text>
<text text-anchor="middle" x="911" y="-2824.8" font-family="Segoe UI" font-size="14.00" fill="#e2e8f0">Watchlist → WatchlistPage</text>
</g>
<!-- workspace_1&#45;&gt;page_Watchlist -->
<g id="edge11" class="edge">
<title>workspace_1&#45;&gt;page_Watchlist</title>
<path fill="none" stroke="#94a3b8" stroke-width="1.3" d="M563.08,-3045.41C608.45,-3034.54 668.85,-3013.29 707,-2973 740.92,-2937.18 705.75,-2900.34 743,-2868 760.15,-2853.11 782.07,-2844.28 804.35,-2839.21"/>
<polygon fill="#94a3b8" stroke="#94a3b8" stroke-width="1.3" points="804.98,-2841.94 812.24,-2837.57 803.84,-2836.46 804.98,-2841.94"/>
</g>
<!-- page_Backtest -->
<g id="node13" class="node">
<title>page_Backtest</title>
<path fill="#1e293b" stroke="#475569" d="M994.5,-2918C994.5,-2918 827.5,-2918 827.5,-2918 821.5,-2918 815.5,-2912 815.5,-2906 815.5,-2906 815.5,-2892 815.5,-2892 815.5,-2886 821.5,-2880 827.5,-2880 827.5,-2880 994.5,-2880 994.5,-2880 1000.5,-2880 1006.5,-2886 1006.5,-2892 1006.5,-2892 1006.5,-2906 1006.5,-2906 1006.5,-2912 1000.5,-2918 994.5,-2918"/>
<text text-anchor="middle" x="911" y="-2902.8" font-family="Segoe UI" font-size="14.00" fill="#e2e8f0">Backtest</text>
<text text-anchor="middle" x="911" y="-2887.8" font-family="Segoe UI" font-size="14.00" fill="#e2e8f0">Backtest → BacktestPage</text>
</g>
<!-- workspace_1&#45;&gt;page_Backtest -->
<g id="edge12" class="edge">
<title>workspace_1&#45;&gt;page_Backtest</title>
<path fill="none" stroke="#94a3b8" stroke-width="1.3" d="M563.18,-3053.81C607.42,-3049.3 666.33,-3036.92 707,-3004 735.12,-2981.24 714.22,-2952.92 743,-2931 761.49,-2916.92 784.39,-2908.47 807.26,-2903.52"/>
<polygon fill="#94a3b8" stroke="#94a3b8" stroke-width="1.3" points="808.03,-2906.22 815.33,-2901.92 806.94,-2900.73 808.03,-2906.22"/>
</g>
<!-- page_LeanIntegration -->
<g id="node14" class="node">
<title>page_LeanIntegration</title>
<path fill="#1e293b" stroke="#475569" d="M1044,-2981C1044,-2981 778,-2981 778,-2981 772,-2981 766,-2975 766,-2969 766,-2969 766,-2955 766,-2955 766,-2949 772,-2943 778,-2943 778,-2943 1044,-2943 1044,-2943 1050,-2943 1056,-2949 1056,-2955 1056,-2955 1056,-2969 1056,-2969 1056,-2975 1050,-2981 1044,-2981"/>
<text text-anchor="middle" x="911" y="-2965.8" font-family="Segoe UI" font-size="14.00" fill="#e2e8f0">LeanIntegration</text>
<text text-anchor="middle" x="911" y="-2950.8" font-family="Segoe UI" font-size="14.00" fill="#e2e8f0">LeanIntegration → LeanIntegrationPage</text>
</g>
<!-- workspace_1&#45;&gt;page_LeanIntegration -->
<g id="edge14" class="edge">
<title>workspace_1&#45;&gt;page_LeanIntegration</title>
<path fill="none" stroke="#94a3b8" stroke-width="1.3" d="M563.09,-3054.36C605.13,-3051.3 661.39,-3043.31 707,-3023 725.77,-3014.64 724.36,-3002.63 743,-2994 751.58,-2990.03 760.63,-2986.55 769.89,-2983.5"/>
<polygon fill="#94a3b8" stroke="#94a3b8" stroke-width="1.3" points="770.93,-2986.11 777.72,-2981.04 769.25,-2980.77 770.93,-2986.11"/>
</g>
<!-- page_PortfolioImport -->
<g id="node15" class="node">
<title>page_PortfolioImport</title>
<path fill="#1e293b" stroke="#475569" d="M1038,-3044C1038,-3044 784,-3044 784,-3044 778,-3044 772,-3038 772,-3032 772,-3032 772,-3018 772,-3018 772,-3012 778,-3006 784,-3006 784,-3006 1038,-3006 1038,-3006 1044,-3006 1050,-3012 1050,-3018 1050,-3018 1050,-3032 1050,-3032 1050,-3038 1044,-3044 1038,-3044"/>
<text text-anchor="middle" x="911" y="-3028.8" font-family="Segoe UI" font-size="14.00" fill="#e2e8f0">PortfolioImport</text>
<text text-anchor="middle" x="911" y="-3013.8" font-family="Segoe UI" font-size="14.00" fill="#e2e8f0">PortfolioImport → PortfolioImportPage</text>
</g>
<!-- workspace_1&#45;&gt;page_PortfolioImport -->
<g id="edge15" class="edge">
<title>workspace_1&#45;&gt;page_PortfolioImport</title>
<path fill="none" stroke="#94a3b8" stroke-width="1.3" d="M563.08,-3051.36C615.95,-3047.34 694.56,-3041.37 763.59,-3036.12"/>
<polygon fill="#94a3b8" stroke="#94a3b8" stroke-width="1.3" points="764.19,-3038.89 771.96,-3035.49 763.77,-3033.3 764.19,-3038.89"/>
</g>
<!-- page_TradingHours -->
<g id="node16" class="node">
<title>page_TradingHours</title>
<path fill="#1e293b" stroke="#475569" d="M1027.5,-3107C1027.5,-3107 794.5,-3107 794.5,-3107 788.5,-3107 782.5,-3101 782.5,-3095 782.5,-3095 782.5,-3081 782.5,-3081 782.5,-3075 788.5,-3069 794.5,-3069 794.5,-3069 1027.5,-3069 1027.5,-3069 1033.5,-3069 1039.5,-3075 1039.5,-3081 1039.5,-3081 1039.5,-3095 1039.5,-3095 1039.5,-3101 1033.5,-3107 1027.5,-3107"/>
<text text-anchor="middle" x="911" y="-3091.8" font-family="Segoe UI" font-size="14.00" fill="#e2e8f0">TradingHours</text>
<text text-anchor="middle" x="911" y="-3076.8" font-family="Segoe UI" font-size="14.00" fill="#e2e8f0">TradingHours → TradingHoursPage</text>
</g>
<!-- workspace_1&#45;&gt;page_TradingHours -->
<g id="edge16" class="edge">
<title>workspace_1&#45;&gt;page_TradingHours</title>
<path fill="none" stroke="#94a3b8" stroke-width="1.3" d="M563.08,-3060.79C618.63,-3065.15 702.58,-3071.73 773.99,-3077.33"/>
<polygon fill="#94a3b8" stroke="#94a3b8" stroke-width="1.3" points="773.99,-3080.14 782.19,-3077.98 774.43,-3074.56 773.99,-3080.14"/>
</g>
<!-- page_DirectLending -->
<g id="node17" class="node">
<title>page_DirectLending</title>
<path fill="#1e293b" stroke="#475569" d="M1030.5,-3170C1030.5,-3170 791.5,-3170 791.5,-3170 785.5,-3170 779.5,-3164 779.5,-3158 779.5,-3158 779.5,-3144 779.5,-3144 779.5,-3138 785.5,-3132 791.5,-3132 791.5,-3132 1030.5,-3132 1030.5,-3132 1036.5,-3132 1042.5,-3138 1042.5,-3144 1042.5,-3144 1042.5,-3158 1042.5,-3158 1042.5,-3164 1036.5,-3170 1030.5,-3170"/>
<text text-anchor="middle" x="911" y="-3154.8" font-family="Segoe UI" font-size="14.00" fill="#e2e8f0">DirectLending</text>
<text text-anchor="middle" x="911" y="-3139.8" font-family="Segoe UI" font-size="14.00" fill="#e2e8f0">DirectLending → DirectLendingPage</text>
</g>
<!-- workspace_1&#45;&gt;page_DirectLending -->
<g id="edge17" class="edge">
<title>workspace_1&#45;&gt;page_DirectLending</title>
<path fill="none" stroke="#94a3b8" stroke-width="1.3" d="M563.1,-3073.6C611.62,-3087.25 681.34,-3106.11 743,-3120 758.95,-3123.59 775.82,-3127.08 792.46,-3130.35"/>
<polygon fill="#94a3b8" stroke="#94a3b8" stroke-width="1.3" points="792.22,-3133.15 800.61,-3131.93 793.29,-3127.65 792.22,-3133.15"/>
</g>
<!-- page_Provider -->
<g id="node18" class="node">
<title>page_Provider</title>
<path fill="#1e293b" stroke="#475569" d="M991.5,-3233C991.5,-3233 830.5,-3233 830.5,-3233 824.5,-3233 818.5,-3227 818.5,-3221 818.5,-3221 818.5,-3207 818.5,-3207 818.5,-3201 824.5,-3195 830.5,-3195 830.5,-3195 991.5,-3195 991.5,-3195 997.5,-3195 1003.5,-3201 1003.5,-3207 1003.5,-3207 1003.5,-3221 1003.5,-3221 1003.5,-3227 997.5,-3233 991.5,-3233"/>
<text text-anchor="middle" x="911" y="-3217.8" font-family="Segoe UI" font-size="14.00" fill="#e2e8f0">Provider</text>
<text text-anchor="middle" x="911" y="-3202.8" font-family="Segoe UI" font-size="14.00" fill="#e2e8f0">Provider → ProviderPage</text>
</g>
<!-- workspace_1&#45;&gt;page_Provider -->
<g id="edge18" class="edge">
<title>workspace_1&#45;&gt;page_Provider</title>
<path fill="none" stroke="#94a3b8" stroke-width="1.3" d="M531.11,-3075.08C575.14,-3103.06 662.14,-3154.92 743,-3183 764.31,-3190.4 787.79,-3196.14 810.24,-3200.56"/>
<polygon fill="#94a3b8" stroke="#94a3b8" stroke-width="1.3" points="809.75,-3203.32 818.14,-3202.07 810.8,-3197.82 809.75,-3203.32"/>
</g>
<!-- page_Symbols -->
<g id="node19" class="node">
<title>page_Symbols</title>
<path fill="#1e293b" stroke="#475569" d="M993.5,-3296C993.5,-3296 828.5,-3296 828.5,-3296 822.5,-3296 816.5,-3290 816.5,-3284 816.5,-3284 816.5,-3270 816.5,-3270 816.5,-3264 822.5,-3258 828.5,-3258 828.5,-3258 993.5,-3258 993.5,-3258 999.5,-3258 1005.5,-3264 1005.5,-3270 1005.5,-3270 1005.5,-3284 1005.5,-3284 1005.5,-3290 999.5,-3296 993.5,-3296"/>
<text text-anchor="middle" x="911" y="-3280.8" font-family="Segoe UI" font-size="14.00" fill="#e2e8f0">Symbols</text>
<text text-anchor="middle" x="911" y="-3265.8" font-family="Segoe UI" font-size="14.00" fill="#e2e8f0">Symbols → SymbolsPage</text>
</g>
<!-- workspace_1&#45;&gt;page_Symbols -->
<g id="edge19" class="edge">
<title>workspace_1&#45;&gt;page_Symbols</title>
<path fill="none" stroke="#94a3b8" stroke-width="1.3" d="M519.55,-3075.02C556.68,-3113.96 647.64,-3202.78 743,-3246 763.21,-3255.16 785.97,-3261.62 808.04,-3266.16"/>
<polygon fill="#94a3b8" stroke="#94a3b8" stroke-width="1.3" points="807.74,-3268.96 816.13,-3267.75 808.82,-3263.46 807.74,-3268.96"/>
</g>
<!-- page_Backfill -->
<g id="node20" class="node">
<title>page_Backfill</title>
<path fill="#1e293b" stroke="#475569" d="M984.5,-3359C984.5,-3359 837.5,-3359 837.5,-3359 831.5,-3359 825.5,-3353 825.5,-3347 825.5,-3347 825.5,-3333 825.5,-3333 825.5,-3327 831.5,-3321 837.5,-3321 837.5,-3321 984.5,-3321 984.5,-3321 990.5,-3321 996.5,-3327 996.5,-3333 996.5,-3333 996.5,-3347 996.5,-3347 996.5,-3353 990.5,-3359 984.5,-3359"/>
<text text-anchor="middle" x="911" y="-3343.8" font-family="Segoe UI" font-size="14.00" fill="#e2e8f0">Backfill</text>
<text text-anchor="middle" x="911" y="-3328.8" font-family="Segoe UI" font-size="14.00" fill="#e2e8f0">Backfill → BackfillPage</text>
</g>
<!-- workspace_1&#45;&gt;page_Backfill -->
<g id="edge20" class="edge">
<title>workspace_1&#45;&gt;page_Backfill</title>
<path fill="none" stroke="#94a3b8" stroke-width="1.3" d="M513.87,-3075.07C544.9,-3123.16 633.66,-3249.75 743,-3309 765.58,-3321.23 792.11,-3328.73 817.31,-3333.3"/>
<polygon fill="#94a3b8" stroke="#94a3b8" stroke-width="1.3" points="817.08,-3336.1 825.43,-3334.68 818.02,-3330.58 817.08,-3336.1"/>
</g>
<!-- page_Storage -->
<g id="node21" class="node">
<title>page_Storage</title>
<path fill="#1e293b" stroke="#475569" d="M988.5,-3422C988.5,-3422 833.5,-3422 833.5,-3422 827.5,-3422 821.5,-3416 821.5,-3410 821.5,-3410 821.5,-3396 821.5,-3396 821.5,-3390 827.5,-3384 833.5,-3384 833.5,-3384 988.5,-3384 988.5,-3384 994.5,-3384 1000.5,-3390 1000.5,-3396 1000.5,-3396 1000.5,-3410 1000.5,-3410 1000.5,-3416 994.5,-3422 988.5,-3422"/>
<text text-anchor="middle" x="911" y="-3406.8" font-family="Segoe UI" font-size="14.00" fill="#e2e8f0">Storage</text>
<text text-anchor="middle" x="911" y="-3391.8" font-family="Segoe UI" font-size="14.00" fill="#e2e8f0">Storage → StoragePage</text>
</g>
<!-- workspace_1&#45;&gt;page_Storage -->
<g id="edge21" class="edge">
<title>workspace_1&#45;&gt;page_Storage</title>
<path fill="none" stroke="#94a3b8" stroke-width="1.3" d="M510.41,-3075.19C536.08,-3131.3 619.29,-3295.92 743,-3372 763.87,-3384.84 788.8,-3392.61 812.94,-3397.25"/>
<polygon fill="#94a3b8" stroke="#94a3b8" stroke-width="1.3" points="812.72,-3400.05 821.09,-3398.7 813.7,-3394.54 812.72,-3400.05"/>
</g>
<!-- page_DataExport -->
<g id="node22" class="node">
<title>page_DataExport</title>
<path fill="#1e293b" stroke="#475569" d="M1012.5,-3485C1012.5,-3485 809.5,-3485 809.5,-3485 803.5,-3485 797.5,-3479 797.5,-3473 797.5,-3473 797.5,-3459 797.5,-3459 797.5,-3453 803.5,-3447 809.5,-3447 809.5,-3447 1012.5,-3447 1012.5,-3447 1018.5,-3447 1024.5,-3453 1024.5,-3459 1024.5,-3459 1024.5,-3473 1024.5,-3473 1024.5,-3479 1018.5,-3485 1012.5,-3485"/>
<text text-anchor="middle" x="911" y="-3469.8" font-family="Segoe UI" font-size="14.00" fill="#e2e8f0">DataExport</text>
<text text-anchor="middle" x="911" y="-3454.8" font-family="Segoe UI" font-size="14.00" fill="#e2e8f0">DataExport → DataExportPage</text>
</g>
<!-- workspace_1&#45;&gt;page_DataExport -->
<g id="edge22" class="edge">
<title>workspace_1&#45;&gt;page_DataExport</title>
<path fill="none" stroke="#94a3b8" stroke-width="1.3" d="M508.02,-3075.27C528.86,-3138.57 604.39,-3341.39 743,-3435 756.86,-3444.36 772.78,-3451.09 789.16,-3455.91"/>
<polygon fill="#94a3b8" stroke="#94a3b8" stroke-width="1.3" points="788.77,-3458.71 797.23,-3458.12 790.25,-3453.3 788.77,-3458.71"/>
</g>
<!-- page_PackageManager -->
<g id="node23" class="node">
<title>page_PackageManager</title>
<path fill="#1e293b" stroke="#475569" d="M1051.5,-3548C1051.5,-3548 770.5,-3548 770.5,-3548 764.5,-3548 758.5,-3542 758.5,-3536 758.5,-3536 758.5,-3522 758.5,-3522 758.5,-3516 764.5,-3510 770.5,-3510 770.5,-3510 1051.5,-3510 1051.5,-3510 1057.5,-3510 1063.5,-3516 1063.5,-3522 1063.5,-3522 1063.5,-3536 1063.5,-3536 1063.5,-3542 1057.5,-3548 1051.5,-3548"/>
<text text-anchor="middle" x="911" y="-3532.8" font-family="Segoe UI" font-size="14.00" fill="#e2e8f0">PackageManager</text>
<text text-anchor="middle" x="911" y="-3517.8" font-family="Segoe UI" font-size="14.00" fill="#e2e8f0">PackageManager → PackageManagerPage</text>
</g>
<!-- workspace_1&#45;&gt;page_PackageManager -->
<g id="edge23" class="edge">
<title>workspace_1&#45;&gt;page_PackageManager</title>
<path fill="none" stroke="#94a3b8" stroke-width="1.3" d="M506.27,-3075.41C522.75,-3145.37 589.12,-3386.38 743,-3498 747.15,-3501.01 751.51,-3503.76 756.03,-3506.26"/>
<polygon fill="#94a3b8" stroke="#94a3b8" stroke-width="1.3" points="754.86,-3508.8 763.25,-3509.99 757.43,-3503.83 754.86,-3508.8"/>
</g>
<!-- page_DataQuality -->
<g id="node24" class="node">
<title>page_DataQuality</title>
<path fill="#1e293b" stroke="#475569" d="M1016,-3611C1016,-3611 806,-3611 806,-3611 800,-3611 794,-3605 794,-3599 794,-3599 794,-3585 794,-3585 794,-3579 800,-3573 806,-3573 806,-3573 1016,-3573 1016,-3573 1022,-3573 1028,-3579 1028,-3585 1028,-3585 1028,-3599 1028,-3599 1028,-3605 1022,-3611 1016,-3611"/>
<text text-anchor="middle" x="911" y="-3595.8" font-family="Segoe UI" font-size="14.00" fill="#e2e8f0">DataQuality</text>
<text text-anchor="middle" x="911" y="-3580.8" font-family="Segoe UI" font-size="14.00" fill="#e2e8f0">DataQuality → DataQualityPage</text>
</g>
<!-- workspace_1&#45;&gt;page_DataQuality -->
<g id="edge24" class="edge">
<title>workspace_1&#45;&gt;page_DataQuality</title>
<path fill="none" stroke="#94a3b8" stroke-width="1.3" d="M504.86,-3075.17C517.2,-3150.82 573.26,-3430.74 743,-3561 755.77,-3570.8 770.68,-3577.83 786.24,-3582.82"/>
<polygon fill="#94a3b8" stroke="#94a3b8" stroke-width="1.3" points="785.46,-3585.51 793.93,-3585.11 787.06,-3580.14 785.46,-3585.51"/>
</g>
<!-- page_ProviderHealth -->
<g id="node25" class="node">
<title>page_ProviderHealth</title>
<path fill="#1e293b" stroke="#475569" d="M1036.5,-3674C1036.5,-3674 785.5,-3674 785.5,-3674 779.5,-3674 773.5,-3668 773.5,-3662 773.5,-3662 773.5,-3648 773.5,-3648 773.5,-3642 779.5,-3636 785.5,-3636 785.5,-3636 1036.5,-3636 1036.5,-3636 1042.5,-3636 1048.5,-3642 1048.5,-3648 1048.5,-3648 1048.5,-3662 1048.5,-3662 1048.5,-3668 1042.5,-3674 1036.5,-3674"/>
<text text-anchor="middle" x="911" y="-3658.8" font-family="Segoe UI" font-size="14.00" fill="#e2e8f0">ProviderHealth</text>
<text text-anchor="middle" x="911" y="-3643.8" font-family="Segoe UI" font-size="14.00" fill="#e2e8f0">ProviderHealth → ProviderHealthPage</text>
</g>
<!-- workspace_1&#45;&gt;page_ProviderHealth -->
<g id="edge25" class="edge">
<title>workspace_1&#45;&gt;page_ProviderHealth</title>
<path fill="none" stroke="#94a3b8" stroke-width="1.3" d="M503.78,-3075.24C512.41,-3156.59 557.36,-3474.94 743,-3624 749.95,-3629.58 757.6,-3634.28 765.66,-3638.22"/>
<polygon fill="#94a3b8" stroke="#94a3b8" stroke-width="1.3" points="764.75,-3640.88 773.19,-3641.63 767.06,-3635.78 764.75,-3640.88"/>
</g>
<!-- page_SystemHealth -->
<g id="node26" class="node">
<title>page_SystemHealth</title>
<path fill="#1e293b" stroke="#475569" d="M1031,-3737C1031,-3737 791,-3737 791,-3737 785,-3737 779,-3731 779,-3725 779,-3725 779,-3711 779,-3711 779,-3705 785,-3699 791,-3699 791,-3699 1031,-3699 1031,-3699 1037,-3699 1043,-3705 1043,-3711 1043,-3711 1043,-3725 1043,-3725 1043,-3731 1037,-3737 1031,-3737"/>
<text text-anchor="middle" x="911" y="-3721.8" font-family="Segoe UI" font-size="14.00" fill="#e2e8f0">SystemHealth</text>
<text text-anchor="middle" x="911" y="-3706.8" font-family="Segoe UI" font-size="14.00" fill="#e2e8f0">SystemHealth → SystemHealthPage</text>
</g>
<!-- workspace_1&#45;&gt;page_SystemHealth -->
<g id="edge26" class="edge">
<title>workspace_1&#45;&gt;page_SystemHealth</title>
<path fill="none" stroke="#94a3b8" stroke-width="1.3" d="M502.78,-3075.06C507.44,-3161.69 538.88,-3521.21 743,-3687 751.56,-3693.96 761.19,-3699.54 771.39,-3704.01"/>
<polygon fill="#94a3b8" stroke="#94a3b8" stroke-width="1.3" points="770.45,-3706.65 778.91,-3707.07 772.56,-3701.46 770.45,-3706.65"/>
</g>
<!-- page_Diagnostics -->
<g id="node27" class="node">
<title>page_Diagnostics</title>
<path fill="#1e293b" stroke="#475569" d="M1014.5,-3800C1014.5,-3800 807.5,-3800 807.5,-3800 801.5,-3800 795.5,-3794 795.5,-3788 795.5,-3788 795.5,-3774 795.5,-3774 795.5,-3768 801.5,-3762 807.5,-3762 807.5,-3762 1014.5,-3762 1014.5,-3762 1020.5,-3762 1026.5,-3768 1026.5,-3774 1026.5,-3774 1026.5,-3788 1026.5,-3788 1026.5,-3794 1020.5,-3800 1014.5,-3800"/>
<text text-anchor="middle" x="911" y="-3784.8" font-family="Segoe UI" font-size="14.00" fill="#e2e8f0">Diagnostics</text>
<text text-anchor="middle" x="911" y="-3769.8" font-family="Segoe UI" font-size="14.00" fill="#e2e8f0">Diagnostics → DiagnosticsPage</text>
</g>
<!-- workspace_1&#45;&gt;page_Diagnostics -->
<g id="edge27" class="edge">
<title>workspace_1&#45;&gt;page_Diagnostics</title>
<path fill="none" stroke="#94a3b8" stroke-width="1.3" d="M501.94,-3075.18C502.77,-3167.42 519.5,-3568.47 743,-3750 755.88,-3760.46 771.18,-3767.83 787.19,-3772.94"/>
<polygon fill="#94a3b8" stroke="#94a3b8" stroke-width="1.3" points="786.64,-3775.7 795.11,-3775.28 788.23,-3770.33 786.64,-3775.7"/>
</g>
<!-- page_Settings -->
<g id="node28" class="node">
<title>page_Settings</title>
<path fill="#1e293b" stroke="#475569" d="M991.5,-3863C991.5,-3863 830.5,-3863 830.5,-3863 824.5,-3863 818.5,-3857 818.5,-3851 818.5,-3851 818.5,-3837 818.5,-3837 818.5,-3831 824.5,-3825 830.5,-3825 830.5,-3825 991.5,-3825 991.5,-3825 997.5,-3825 1003.5,-3831 1003.5,-3837 1003.5,-3837 1003.5,-3851 1003.5,-3851 1003.5,-3857 997.5,-3863 991.5,-3863"/>
<text text-anchor="middle" x="911" y="-3847.8" font-family="Segoe UI" font-size="14.00" fill="#e2e8f0">Settings</text>
<text text-anchor="middle" x="911" y="-3832.8" font-family="Segoe UI" font-size="14.00" fill="#e2e8f0">Settings → SettingsPage</text>
</g>
<!-- workspace_1&#45;&gt;page_Settings -->
<g id="edge28" class="edge">
<title>workspace_1&#45;&gt;page_Settings</title>
<path fill="none" stroke="#94a3b8" stroke-width="1.3" d="M505.2,-3075.1C523.63,-3182.85 619.82,-3713.35 743,-3813 761.95,-3828.33 786.07,-3836.99 810.05,-3841.69"/>
<polygon fill="#94a3b8" stroke="#94a3b8" stroke-width="1.3" points="809.8,-3844.49 818.17,-3843.14 810.79,-3838.98 809.8,-3844.49"/>
</g>
<!-- page_AdminMaintenance -->
<g id="node29" class="node">
<title>page_AdminMaintenance</title>
<path fill="#1e293b" stroke="#475569" d="M1067,-3926C1067,-3926 755,-3926 755,-3926 749,-3926 743,-3920 743,-3914 743,-3914 743,-3900 743,-3900 743,-3894 749,-3888 755,-3888 755,-3888 1067,-3888 1067,-3888 1073,-3888 1079,-3894 1079,-3900 1079,-3900 1079,-3914 1079,-3914 1079,-3920 1073,-3926 1067,-3926"/>
<text text-anchor="middle" x="911" y="-3910.8" font-family="Segoe UI" font-size="14.00" fill="#e2e8f0">AdminMaintenance</text>
<text text-anchor="middle" x="911" y="-3895.8" font-family="Segoe UI" font-size="14.00" fill="#e2e8f0">AdminMaintenance → AdminMaintenancePage</text>
</g>
<!-- workspace_1&#45;&gt;page_AdminMaintenance -->
<g id="edge29" class="edge">
<title>workspace_1&#45;&gt;page_AdminMaintenance</title>
<path fill="none" stroke="#94a3b8" stroke-width="1.3" d="M504.74,-3075.15C521.33,-3188.07 611.88,-3765.93 743,-3876 746.3,-3878.77 749.77,-3881.33 753.38,-3883.69"/>
<polygon fill="#94a3b8" stroke="#94a3b8" stroke-width="1.3" points="752.19,-3886.24 760.48,-3887.98 755.08,-3881.44 752.19,-3886.24"/>
</g>
</g>
</svg>
