<?xml version="1.0" encoding="UTF-8" standalone="no"?>
<!DOCTYPE svg PUBLIC "-//W3C//DTD SVG 1.1//EN"
 "http://www.w3.org/Graphics/SVG/1.1/DTD/svg11.dtd">
<!-- Generated by graphviz version 2.43.0 (0)
 -->
<!-- Title: UiNavigationMap Pages: 1 -->
<svg width="1154pt" height="4019pt"
 viewBox="0.00 0.00 1153.60 4018.60" xmlns="http://www.w3.org/2000/svg" xmlns:xlink="http://www.w3.org/1999/xlink">
<g id="graph0" class="graph" transform="scale(1 1) rotate(0) translate(28.8 3989.8)">
<title>UiNavigationMap</title>
<polygon fill="#0f172a" stroke="transparent" points="-28.8,28.8 -28.8,-3989.8 1124.8,-3989.8 1124.8,28.8 -28.8,28.8"/>
<text text-anchor="middle" x="548" y="-3941" font-family="Segoe UI" font-size="20.00">Meridian WPF UI navigation map</text>
<text text-anchor="middle" x="548" y="-3919" font-family="Segoe UI" font-size="20.00">(auto&#45;generated from MainPage.xaml + NavigationService.cs)</text>
<g id="clust1" class="cluster">
<title>cluster_workspace_1</title>
<path fill="#0f172a" stroke="#334155" d="M444,-2305C444,-2305 1076,-2305 1076,-2305 1082,-2305 1088,-2311 1088,-2317 1088,-2317 1088,-3889 1088,-3889 1088,-3895 1082,-3901 1076,-3901 1076,-3901 444,-3901 444,-3901 438,-3901 432,-3895 432,-3889 432,-3889 432,-2317 432,-2317 432,-2311 438,-2305 444,-2305"/>
<text text-anchor="middle" x="760" y="-3881" font-family="Segoe UI" font-size="20.00">Shell workspace</text>
</g>
<g id="clust2" class="cluster">
<title>cluster_hidden_pages</title>
<path fill="#0f172a" stroke="#7c2d12" stroke-dasharray="5,2" d="M337,-8C337,-8 667,-8 667,-8 673,-8 679,-14 679,-20 679,-20 679,-2285 679,-2285 679,-2291 673,-2297 667,-2297 667,-2297 337,-2297 337,-2297 331,-2297 325,-2291 325,-2285 325,-2285 325,-20 325,-20 325,-14 331,-8 337,-8"/>
<text text-anchor="middle" x="502" y="-2277" font-family="Segoe UI" font-size="20.00">Registered but not in sidebar shell</text>
</g>
<!-- generated -->
<g id="node1" class="node">
<title>generated</title>
<polygon fill="#1d4ed8" stroke="#60a5fa" points="254,-1124.5 0,-1124.5 0,-1071.5 260,-1071.5 260,-1118.5 254,-1124.5"/>
<polyline fill="none" stroke="#60a5fa" points="254,-1124.5 254,-1118.5 "/>
<polyline fill="none" stroke="#60a5fa" points="260,-1118.5 254,-1118.5 "/>
<text text-anchor="middle" x="130" y="-1109.3" font-family="Segoe UI" font-size="14.00" fill="#e2e8f0">Source fingerprint: 382225523881</text>
<text text-anchor="middle" x="130" y="-1094.3" font-family="Segoe UI" font-size="14.00" fill="#e2e8f0">Shell entries: 27</text>
<text text-anchor="middle" x="130" y="-1079.3" font-family="Segoe UI" font-size="14.00" fill="#e2e8f0">Registered pages: 61</text>
</g>
<!-- shell -->
<g id="node2" class="node">
<title>shell</title>
<polygon fill="#0f766e" stroke="#2dd4bf" points="194.5,-1947 65.5,-1947 65.5,-1943 61.5,-1943 61.5,-1939 65.5,-1939 65.5,-1917 61.5,-1917 61.5,-1913 65.5,-1913 65.5,-1909 194.5,-1909 194.5,-1947"/>
<polyline fill="none" stroke="#2dd4bf" points="65.5,-1943 69.5,-1943 69.5,-1939 65.5,-1939 "/>
<polyline fill="none" stroke="#2dd4bf" points="65.5,-1917 69.5,-1917 69.5,-1913 65.5,-1913 "/>
<text text-anchor="middle" x="130" y="-1931.8" font-family="Segoe UI" font-size="14.00" fill="#e2e8f0">MainPage.xaml</text>
<text text-anchor="middle" x="130" y="-1916.8" font-family="Segoe UI" font-size="14.00" fill="#e2e8f0">Workspace shell</text>
</g>
<!-- navigation -->
<g id="node3" class="node">
<title>navigation</title>
<polygon fill="#7c3aed" stroke="#c4b5fd" points="201,-1188 59,-1188 59,-1184 55,-1184 55,-1180 59,-1180 59,-1158 55,-1158 55,-1154 59,-1154 59,-1150 201,-1150 201,-1188"/>
<polyline fill="none" stroke="#c4b5fd" points="59,-1184 63,-1184 63,-1180 59,-1180 "/>
<polyline fill="none" stroke="#c4b5fd" points="59,-1158 63,-1158 63,-1154 59,-1154 "/>
<text text-anchor="middle" x="130" y="-1172.8" font-family="Segoe UI" font-size="14.00" fill="#e2e8f0">NavigationService</text>
<text text-anchor="middle" x="130" y="-1157.8" font-family="Segoe UI" font-size="14.00" fill="#e2e8f0">RegisterAllPages()</text>
</g>
<!-- shell&#45;&gt;navigation -->
<g id="edge1" class="edge">
<title>shell&#45;&gt;navigation</title>
<path fill="none" stroke="#38bdf8" stroke-width="1.3" d="M130,-1908.91C130,-1805.98 130,-1317.35 130,-1196.22"/>
<polygon fill="#38bdf8" stroke="#38bdf8" stroke-width="1.3" points="132.8,-1196.14 130,-1188.14 127.2,-1196.14 132.8,-1196.14"/>
<text text-anchor="middle" x="119.5" y="-1544.8" font-family="Segoe UI" font-size="14.00">navigate via tags</text>
</g>
<!-- workspace_1 -->
<g id="node4" class="node">
<title>workspace_1</title>
<polygon fill="#1d4ed8" stroke="#93c5fd" points="564,-3012 561,-3016 540,-3016 537,-3012 440,-3012 440,-2974 564,-2974 564,-3012"/>
<text text-anchor="middle" x="502" y="-2996.8" font-family="Segoe UI" font-size="14.00" fill="#e2e8f0">Shell</text>
<text text-anchor="middle" x="502" y="-2981.8" font-family="Segoe UI" font-size="14.00" fill="#e2e8f0">27 shell entries</text>
</g>
<!-- shell&#45;&gt;workspace_1 -->
<g id="edge2" class="edge">
<title>shell&#45;&gt;workspace_1</title>
<path fill="none" stroke="#22d3ee" stroke-width="1.3" d="M137.74,-1947.39C182.68,-2076.75 438.8,-2813.96 491.51,-2965.69"/>
<polygon fill="#22d3ee" stroke="#22d3ee" stroke-width="1.3" points="489.01,-2967.03 494.28,-2973.66 494.3,-2965.19 489.01,-2967.03"/>
</g>
<!-- hidden_DataSources -->
<g id="node30" class="node">
<title>hidden_DataSources</title>
<path fill="#431407" stroke="#fb923c" d="M558.5,-2259C558.5,-2259 445.5,-2259 445.5,-2259 439.5,-2259 433.5,-2253 433.5,-2247 433.5,-2247 433.5,-2233 433.5,-2233 433.5,-2227 439.5,-2221 445.5,-2221 445.5,-2221 558.5,-2221 558.5,-2221 564.5,-2221 570.5,-2227 570.5,-2233 570.5,-2233 570.5,-2247 570.5,-2247 570.5,-2253 564.5,-2259 558.5,-2259"/>
<text text-anchor="middle" x="502" y="-2243.8" font-family="Segoe UI" font-size="14.00" fill="#e2e8f0">DataSources</text>
<text text-anchor="middle" x="502" y="-2228.8" font-family="Segoe UI" font-size="14.00" fill="#e2e8f0">DataSourcesPage</text>
</g>
<!-- navigation&#45;&gt;hidden_DataSources -->
<g id="edge30" class="edge">
<title>navigation&#45;&gt;hidden_DataSources</title>
<path fill="none" stroke="#fb923c" stroke-width="1.3" stroke-dasharray="5,2" d="M134.21,-1188.24C150.31,-1284.35 224.28,-1721.86 296,-2078 307.77,-2136.46 281.93,-2167.76 325,-2209 351.25,-2234.13 390.31,-2242.75 424.97,-2244.72"/>
<polygon fill="#fb923c" stroke="#fb923c" stroke-width="1.3" points="425.11,-2247.52 433.22,-2245.06 425.34,-2241.93 425.11,-2247.52"/>
</g>
<!-- hidden_DataBrowser -->
<g id="node31" class="node">
<title>hidden_DataBrowser</title>
<path fill="#431407" stroke="#fb923c" d="M559,-2196C559,-2196 445,-2196 445,-2196 439,-2196 433,-2190 433,-2184 433,-2184 433,-2170 433,-2170 433,-2164 439,-2158 445,-2158 445,-2158 559,-2158 559,-2158 565,-2158 571,-2164 571,-2170 571,-2170 571,-2184 571,-2184 571,-2190 565,-2196 559,-2196"/>
<text text-anchor="middle" x="502" y="-2180.8" font-family="Segoe UI" font-size="14.00" fill="#e2e8f0">DataBrowser</text>
<text text-anchor="middle" x="502" y="-2165.8" font-family="Segoe UI" font-size="14.00" fill="#e2e8f0">DataBrowserPage</text>
</g>
<!-- navigation&#45;&gt;hidden_DataBrowser -->
<g id="edge31" class="edge">
<title>navigation&#45;&gt;hidden_DataBrowser</title>
<path fill="none" stroke="#fb923c" stroke-width="1.3" stroke-dasharray="5,2" d="M134.17,-1188.2C156.33,-1322.03 288.31,-2111.1 325,-2146 351.22,-2170.94 390.09,-2179.59 424.64,-2181.61"/>
<polygon fill="#fb923c" stroke="#fb923c" stroke-width="1.3" points="424.74,-2184.42 432.85,-2181.98 424.98,-2178.83 424.74,-2184.42"/>
</g>
<!-- hidden_SymbolMapping -->
<g id="node32" class="node">
<title>hidden_SymbolMapping</title>
<path fill="#431407" stroke="#fb923c" d="M570.5,-2133C570.5,-2133 433.5,-2133 433.5,-2133 427.5,-2133 421.5,-2127 421.5,-2121 421.5,-2121 421.5,-2107 421.5,-2107 421.5,-2101 427.5,-2095 433.5,-2095 433.5,-2095 570.5,-2095 570.5,-2095 576.5,-2095 582.5,-2101 582.5,-2107 582.5,-2107 582.5,-2121 582.5,-2121 582.5,-2127 576.5,-2133 570.5,-2133"/>
<text text-anchor="middle" x="502" y="-2117.8" font-family="Segoe UI" font-size="14.00" fill="#e2e8f0">SymbolMapping</text>
<text text-anchor="middle" x="502" y="-2102.8" font-family="Segoe UI" font-size="14.00" fill="#e2e8f0">SymbolMappingPage</text>
</g>
<!-- navigation&#45;&gt;hidden_SymbolMapping -->
<g id="edge32" class="edge">
<title>navigation&#45;&gt;hidden_SymbolMapping</title>
<path fill="none" stroke="#fb923c" stroke-width="1.3" stroke-dasharray="5,2" d="M134.41,-1188.21C157.38,-1317.08 289.59,-2051.57 325,-2083 348.86,-2104.17 381.94,-2113.34 412.99,-2116.73"/>
<polygon fill="#fb923c" stroke="#fb923c" stroke-width="1.3" points="413.03,-2119.55 421.26,-2117.5 413.55,-2113.97 413.03,-2119.55"/>
</g>
<!-- hidden_SymbolStorage -->
<g id="node33" class="node">
<title>hidden_SymbolStorage</title>
<path fill="#431407" stroke="#fb923c" d="M567.5,-2070C567.5,-2070 436.5,-2070 436.5,-2070 430.5,-2070 424.5,-2064 424.5,-2058 424.5,-2058 424.5,-2044 424.5,-2044 424.5,-2038 430.5,-2032 436.5,-2032 436.5,-2032 567.5,-2032 567.5,-2032 573.5,-2032 579.5,-2038 579.5,-2044 579.5,-2044 579.5,-2058 579.5,-2058 579.5,-2064 573.5,-2070 567.5,-2070"/>
<text text-anchor="middle" x="502" y="-2054.8" font-family="Segoe UI" font-size="14.00" fill="#e2e8f0">SymbolStorage</text>
<text text-anchor="middle" x="502" y="-2039.8" font-family="Segoe UI" font-size="14.00" fill="#e2e8f0">SymbolStoragePage</text>
</g>
<!-- navigation&#45;&gt;hidden_SymbolStorage -->
<g id="edge33" class="edge">
<title>navigation&#45;&gt;hidden_SymbolStorage</title>
<path fill="none" stroke="#fb923c" stroke-width="1.3" stroke-dasharray="5,2" d="M133.95,-1188.16C152.78,-1309.13 257.4,-1963.68 325,-2020 350.16,-2040.96 384.5,-2049.91 416.16,-2053.18"/>
<polygon fill="#fb923c" stroke="#fb923c" stroke-width="1.3" points="415.93,-2055.97 424.15,-2053.9 416.43,-2050.4 415.93,-2055.97"/>
</g>
<!-- hidden_IndexSubscription -->
<g id="node34" class="node">
<title>hidden_IndexSubscription</title>
<path fill="#431407" stroke="#fb923c" d="M578,-2007C578,-2007 426,-2007 426,-2007 420,-2007 414,-2001 414,-1995 414,-1995 414,-1981 414,-1981 414,-1975 420,-1969 426,-1969 426,-1969 578,-1969 578,-1969 584,-1969 590,-1975 590,-1981 590,-1981 590,-1995 590,-1995 590,-2001 584,-2007 578,-2007"/>
<text text-anchor="middle" x="502" y="-1991.8" font-family="Segoe UI" font-size="14.00" fill="#e2e8f0">IndexSubscription</text>
<text text-anchor="middle" x="502" y="-1976.8" font-family="Segoe UI" font-size="14.00" fill="#e2e8f0">IndexSubscriptionPage</text>
</g>
<!-- navigation&#45;&gt;hidden_IndexSubscription -->
<g id="edge34" class="edge">
<title>navigation&#45;&gt;hidden_IndexSubscription</title>
<path fill="none" stroke="#fb923c" stroke-width="1.3" stroke-dasharray="5,2" d="M132.71,-1188.16C142.99,-1298.67 200.38,-1853.18 325,-1957 347.44,-1975.7 377.18,-1984.83 405.82,-1988.91"/>
<polygon fill="#fb923c" stroke="#fb923c" stroke-width="1.3" points="405.57,-1991.71 413.86,-1989.94 406.27,-1986.15 405.57,-1991.71"/>
</g>
<!-- hidden_Options -->
<g id="node35" class="node">
<title>hidden_Options</title>
<path fill="#431407" stroke="#fb923c" d="M542,-1944C542,-1944 462,-1944 462,-1944 456,-1944 450,-1938 450,-1932 450,-1932 450,-1918 450,-1918 450,-1912 456,-1906 462,-1906 462,-1906 542,-1906 542,-1906 548,-1906 554,-1912 554,-1918 554,-1918 554,-1932 554,-1932 554,-1938 548,-1944 542,-1944"/>
<text text-anchor="middle" x="502" y="-1928.8" font-family="Segoe UI" font-size="14.00" fill="#e2e8f0">Options</text>
<text text-anchor="middle" x="502" y="-1913.8" font-family="Segoe UI" font-size="14.00" fill="#e2e8f0">OptionsPage</text>
</g>
<!-- navigation&#45;&gt;hidden_Options -->
<g id="edge35" class="edge">
<title>navigation&#45;&gt;hidden_Options</title>
<path fill="none" stroke="#fb923c" stroke-width="1.3" stroke-dasharray="5,2" d="M133.19,-1188.31C145.54,-1293.77 210.17,-1798.75 325,-1894 357.19,-1920.7 404.28,-1927.88 441.66,-1928.69"/>
<polygon fill="#fb923c" stroke="#fb923c" stroke-width="1.3" points="441.93,-1931.49 449.96,-1928.77 441.98,-1925.89 441.93,-1931.49"/>
</g>
<!-- hidden_Schedules -->
<g id="node36" class="node">
<title>hidden_Schedules</title>
<path fill="#431407" stroke="#fb923c" d="M577,-1881C577,-1881 427,-1881 427,-1881 421,-1881 415,-1875 415,-1869 415,-1869 415,-1855 415,-1855 415,-1849 421,-1843 427,-1843 427,-1843 577,-1843 577,-1843 583,-1843 589,-1849 589,-1855 589,-1855 589,-1869 589,-1869 589,-1875 583,-1881 577,-1881"/>
<text text-anchor="middle" x="502" y="-1865.8" font-family="Segoe UI" font-size="14.00" fill="#e2e8f0">Schedules</text>
<text text-anchor="middle" x="502" y="-1850.8" font-family="Segoe UI" font-size="14.00" fill="#e2e8f0">ScheduleManagerPage</text>
</g>
<!-- navigation&#45;&gt;hidden_Schedules -->
<g id="edge36" class="edge">
<title>navigation&#45;&gt;hidden_Schedules</title>
<path fill="none" stroke="#fb923c" stroke-width="1.3" stroke-dasharray="5,2" d="M133.68,-1188.29C147.98,-1288.21 218.63,-1745.65 325,-1831 347.89,-1849.37 377.9,-1858.4 406.64,-1862.48"/>
<polygon fill="#fb923c" stroke="#fb923c" stroke-width="1.3" points="406.42,-1865.27 414.71,-1863.5 407.12,-1859.71 406.42,-1865.27"/>
</g>
<!-- hidden_RunDetail -->
<g id="node37" class="node">
<title>hidden_RunDetail</title>
<path fill="#431407" stroke="#fb923c" d="M548,-1818C548,-1818 456,-1818 456,-1818 450,-1818 444,-1812 444,-1806 444,-1806 444,-1792 444,-1792 444,-1786 450,-1780 456,-1780 456,-1780 548,-1780 548,-1780 554,-1780 560,-1786 560,-1792 560,-1792 560,-1806 560,-1806 560,-1812 554,-1818 548,-1818"/>
<text text-anchor="middle" x="502" y="-1802.8" font-family="Segoe UI" font-size="14.00" fill="#e2e8f0">RunDetail</text>
<text text-anchor="middle" x="502" y="-1787.8" font-family="Segoe UI" font-size="14.00" fill="#e2e8f0">RunDetailPage</text>
</g>
<!-- navigation&#45;&gt;hidden_RunDetail -->
<g id="edge37" class="edge">
<title>navigation&#45;&gt;hidden_RunDetail</title>
<path fill="none" stroke="#fb923c" stroke-width="1.3" stroke-dasharray="5,2" d="M130.37,-1188.12C128.75,-1272.61 134.45,-1615.1 325,-1768 355.82,-1792.73 399.54,-1800.53 435.69,-1802.12"/>
<polygon fill="#fb923c" stroke="#fb923c" stroke-width="1.3" points="435.67,-1804.92 443.76,-1802.38 435.85,-1799.32 435.67,-1804.92"/>
</g>
<!-- hidden_RunPortfolio -->
<g id="node38" class="node">
<title>hidden_RunPortfolio</title>
<path fill="#431407" stroke="#fb923c" d="M557,-1755C557,-1755 447,-1755 447,-1755 441,-1755 435,-1749 435,-1743 435,-1743 435,-1729 435,-1729 435,-1723 441,-1717 447,-1717 447,-1717 557,-1717 557,-1717 563,-1717 569,-1723 569,-1729 569,-1729 569,-1743 569,-1743 569,-1749 563,-1755 557,-1755"/>
<text text-anchor="middle" x="502" y="-1739.8" font-family="Segoe UI" font-size="14.00" fill="#e2e8f0">RunPortfolio</text>
<text text-anchor="middle" x="502" y="-1724.8" font-family="Segoe UI" font-size="14.00" fill="#e2e8f0">RunPortfolioPage</text>
</g>
<!-- navigation&#45;&gt;hidden_RunPortfolio -->
<g id="edge38" class="edge">
<title>navigation&#45;&gt;hidden_RunPortfolio</title>
<path fill="none" stroke="#fb923c" stroke-width="1.3" stroke-dasharray="5,2" d="M131.31,-1188.11C133.68,-1266.76 154.03,-1567.82 325,-1705 353.34,-1727.74 392.58,-1736.16 426.82,-1738.61"/>
<polygon fill="#fb923c" stroke="#fb923c" stroke-width="1.3" points="426.8,-1741.41 434.95,-1739.08 427.13,-1735.82 426.8,-1741.41"/>
</g>
<!-- hidden_RunLedger -->
<g id="node39" class="node">
<title>hidden_RunLedger</title>
<path fill="#431407" stroke="#fb923c" d="M552.5,-1692C552.5,-1692 451.5,-1692 451.5,-1692 445.5,-1692 439.5,-1686 439.5,-1680 439.5,-1680 439.5,-1666 439.5,-1666 439.5,-1660 445.5,-1654 451.5,-1654 451.5,-1654 552.5,-1654 552.5,-1654 558.5,-1654 564.5,-1660 564.5,-1666 564.5,-1666 564.5,-1680 564.5,-1680 564.5,-1686 558.5,-1692 552.5,-1692"/>
<text text-anchor="middle" x="502" y="-1676.8" font-family="Segoe UI" font-size="14.00" fill="#e2e8f0">RunLedger</text>
<text text-anchor="middle" x="502" y="-1661.8" font-family="Segoe UI" font-size="14.00" fill="#e2e8f0">RunLedgerPage</text>
</g>
<!-- navigation&#45;&gt;hidden_RunLedger -->
<g id="edge39" class="edge">
<title>navigation&#45;&gt;hidden_RunLedger</title>
<path fill="none" stroke="#fb923c" stroke-width="1.3" stroke-dasharray="5,2" d="M132.47,-1188.19C139.11,-1260.79 173.08,-1520.74 325,-1642 354.52,-1665.56 395.77,-1673.73 430.91,-1675.81"/>
<polygon fill="#fb923c" stroke="#fb923c" stroke-width="1.3" points="431.11,-1678.62 439.23,-1676.19 431.37,-1673.03 431.11,-1678.62"/>
</g>
<!-- hidden_CollectionSessions -->
<g id="node40" class="node">
<title>hidden_CollectionSessions</title>
<path fill="#431407" stroke="#fb923c" d="M575,-1629C575,-1629 429,-1629 429,-1629 423,-1629 417,-1623 417,-1617 417,-1617 417,-1603 417,-1603 417,-1597 423,-1591 429,-1591 429,-1591 575,-1591 575,-1591 581,-1591 587,-1597 587,-1603 587,-1603 587,-1617 587,-1617 587,-1623 581,-1629 575,-1629"/>
<text text-anchor="middle" x="502" y="-1613.8" font-family="Segoe UI" font-size="14.00" fill="#e2e8f0">CollectionSessions</text>
<text text-anchor="middle" x="502" y="-1598.8" font-family="Segoe UI" font-size="14.00" fill="#e2e8f0">CollectionSessionPage</text>
</g>
<!-- navigation&#45;&gt;hidden_CollectionSessions -->
<g id="edge40" class="edge">
<title>navigation&#45;&gt;hidden_CollectionSessions</title>
<path fill="none" stroke="#fb923c" stroke-width="1.3" stroke-dasharray="5,2" d="M133.82,-1188.35C144.62,-1254.88 189.76,-1475.85 325,-1579 348.68,-1597.06 379.34,-1605.93 408.42,-1609.97"/>
<polygon fill="#fb923c" stroke="#fb923c" stroke-width="1.3" points="408.29,-1612.78 416.57,-1610.99 408.98,-1607.22 408.29,-1612.78"/>
</g>
<!-- hidden_ArchiveHealth -->
<g id="node41" class="node">
<title>hidden_ArchiveHealth</title>
<path fill="#431407" stroke="#fb923c" d="M563,-1566C563,-1566 441,-1566 441,-1566 435,-1566 429,-1560 429,-1554 429,-1554 429,-1540 429,-1540 429,-1534 435,-1528 441,-1528 441,-1528 563,-1528 563,-1528 569,-1528 575,-1534 575,-1540 575,-1540 575,-1554 575,-1554 575,-1560 569,-1566 563,-1566"/>
<text text-anchor="middle" x="502" y="-1550.8" font-family="Segoe UI" font-size="14.00" fill="#e2e8f0">ArchiveHealth</text>
<text text-anchor="middle" x="502" y="-1535.8" font-family="Segoe UI" font-size="14.00" fill="#e2e8f0">ArchiveHealthPage</text>
</g>
<!-- navigation&#45;&gt;hidden_ArchiveHealth -->
<g id="edge41" class="edge">
<title>navigation&#45;&gt;hidden_ArchiveHealth</title>
<path fill="none" stroke="#fb923c" stroke-width="1.3" stroke-dasharray="5,2" d="M135.54,-1188.29C150.69,-1248.04 205.43,-1431.06 325,-1516 352.51,-1535.55 388.42,-1544.08 420.63,-1547.43"/>
<polygon fill="#fb923c" stroke="#fb923c" stroke-width="1.3" points="420.5,-1550.23 428.73,-1548.17 421.02,-1544.65 420.5,-1550.23"/>
</g>
<!-- hidden_ServiceManager -->
<g id="node42" class="node">
<title>hidden_ServiceManager</title>
<path fill="#431407" stroke="#fb923c" d="M570.5,-1503C570.5,-1503 433.5,-1503 433.5,-1503 427.5,-1503 421.5,-1497 421.5,-1491 421.5,-1491 421.5,-1477 421.5,-1477 421.5,-1471 427.5,-1465 433.5,-1465 433.5,-1465 570.5,-1465 570.5,-1465 576.5,-1465 582.5,-1471 582.5,-1477 582.5,-1477 582.5,-1491 582.5,-1491 582.5,-1497 576.5,-1503 570.5,-1503"/>
<text text-anchor="middle" x="502" y="-1487.8" font-family="Segoe UI" font-size="14.00" fill="#e2e8f0">ServiceManager</text>
<text text-anchor="middle" x="502" y="-1472.8" font-family="Segoe UI" font-size="14.00" fill="#e2e8f0">ServiceManagerPage</text>
</g>
<!-- navigation&#45;&gt;hidden_ServiceManager -->
<g id="edge42" class="edge">
<title>navigation&#45;&gt;hidden_ServiceManager</title>
<path fill="none" stroke="#fb923c" stroke-width="1.3" stroke-dasharray="5,2" d="M137.9,-1188.11C157.79,-1240.27 220.63,-1385.67 325,-1453 350.97,-1469.75 383.37,-1478.16 413.27,-1482.18"/>
<polygon fill="#fb923c" stroke="#fb923c" stroke-width="1.3" points="412.94,-1484.96 421.22,-1483.16 413.62,-1479.41 412.94,-1484.96"/>
</g>
<!-- hidden_DataSampling -->
<g id="node43" class="node">
<title>hidden_DataSampling</title>
<path fill="#431407" stroke="#fb923c" d="M563.5,-1440C563.5,-1440 440.5,-1440 440.5,-1440 434.5,-1440 428.5,-1434 428.5,-1428 428.5,-1428 428.5,-1414 428.5,-1414 428.5,-1408 434.5,-1402 440.5,-1402 440.5,-1402 563.5,-1402 563.5,-1402 569.5,-1402 575.5,-1408 575.5,-1414 575.5,-1414 575.5,-1428 575.5,-1428 575.5,-1434 569.5,-1440 563.5,-1440"/>
<text text-anchor="middle" x="502" y="-1424.8" font-family="Segoe UI" font-size="14.00" fill="#e2e8f0">DataSampling</text>
<text text-anchor="middle" x="502" y="-1409.8" font-family="Segoe UI" font-size="14.00" fill="#e2e8f0">DataSamplingPage</text>
</g>
<!-- navigation&#45;&gt;hidden_DataSampling -->
<g id="edge43" class="edge">
<title>navigation&#45;&gt;hidden_DataSampling</title>
<path fill="none" stroke="#fb923c" stroke-width="1.3" stroke-dasharray="5,2" d="M141.63,-1188.25C166.97,-1232.14 235.56,-1339.69 325,-1390 353.67,-1406.13 388.78,-1414.21 420.08,-1418.15"/>
<polygon fill="#fb923c" stroke="#fb923c" stroke-width="1.3" points="420.11,-1420.97 428.37,-1419.11 420.75,-1415.41 420.11,-1420.97"/>
</g>
<!-- hidden_TimeSeriesAlignment -->
<g id="node44" class="node">
<title>hidden_TimeSeriesAlignment</title>
<path fill="#431407" stroke="#fb923c" d="M588.5,-1377C588.5,-1377 415.5,-1377 415.5,-1377 409.5,-1377 403.5,-1371 403.5,-1365 403.5,-1365 403.5,-1351 403.5,-1351 403.5,-1345 409.5,-1339 415.5,-1339 415.5,-1339 588.5,-1339 588.5,-1339 594.5,-1339 600.5,-1345 600.5,-1351 600.5,-1351 600.5,-1365 600.5,-1365 600.5,-1371 594.5,-1377 588.5,-1377"/>
<text text-anchor="middle" x="502" y="-1361.8" font-family="Segoe UI" font-size="14.00" fill="#e2e8f0">TimeSeriesAlignment</text>
<text text-anchor="middle" x="502" y="-1346.8" font-family="Segoe UI" font-size="14.00" fill="#e2e8f0">TimeSeriesAlignmentPage</text>
</g>
<!-- navigation&#45;&gt;hidden_TimeSeriesAlignment -->
<g id="edge44" class="edge">
<title>navigation&#45;&gt;hidden_TimeSeriesAlignment</title>
<path fill="none" stroke="#fb923c" stroke-width="1.3" stroke-dasharray="5,2" d="M148.07,-1188.25C179.44,-1222.27 249.94,-1292.68 325,-1327 346.8,-1336.97 371.47,-1343.75 395.3,-1348.35"/>
<polygon fill="#fb923c" stroke="#fb923c" stroke-width="1.3" points="394.97,-1351.13 403.34,-1349.83 395.98,-1345.62 394.97,-1351.13"/>
</g>
<!-- hidden_ExportPresets -->
<g id="node45" class="node">
<title>hidden_ExportPresets</title>
<path fill="#431407" stroke="#fb923c" d="M563,-1314C563,-1314 441,-1314 441,-1314 435,-1314 429,-1308 429,-1302 429,-1302 429,-1288 429,-1288 429,-1282 435,-1276 441,-1276 441,-1276 563,-1276 563,-1276 569,-1276 575,-1282 575,-1288 575,-1288 575,-1302 575,-1302 575,-1308 569,-1314 563,-1314"/>
<text text-anchor="middle" x="502" y="-1298.8" font-family="Segoe UI" font-size="14.00" fill="#e2e8f0">ExportPresets</text>
<text text-anchor="middle" x="502" y="-1283.8" font-family="Segoe UI" font-size="14.00" fill="#e2e8f0">ExportPresetsPage</text>
</g>
<!-- navigation&#45;&gt;hidden_ExportPresets -->
<g id="edge45" class="edge">
<title>navigation&#45;&gt;hidden_ExportPresets</title>
<path fill="none" stroke="#fb923c" stroke-width="1.3" stroke-dasharray="5,2" d="M162.78,-1188.04C200.27,-1209.67 265.09,-1244.49 325,-1264 355.6,-1273.97 390.3,-1280.95 420.75,-1285.72"/>
<polygon fill="#fb923c" stroke="#fb923c" stroke-width="1.3" points="420.48,-1288.51 428.81,-1286.95 421.32,-1282.98 420.48,-1288.51"/>
</g>
<!-- hidden_AnalysisExport -->
<g id="node46" class="node">
<title>hidden_AnalysisExport</title>
<path fill="#431407" stroke="#fb923c" d="M566.5,-1251C566.5,-1251 437.5,-1251 437.5,-1251 431.5,-1251 425.5,-1245 425.5,-1239 425.5,-1239 425.5,-1225 425.5,-1225 425.5,-1219 431.5,-1213 437.5,-1213 437.5,-1213 566.5,-1213 566.5,-1213 572.5,-1213 578.5,-1219 578.5,-1225 578.5,-1225 578.5,-1239 578.5,-1239 578.5,-1245 572.5,-1251 566.5,-1251"/>
<text text-anchor="middle" x="502" y="-1235.8" font-family="Segoe UI" font-size="14.00" fill="#e2e8f0">AnalysisExport</text>
<text text-anchor="middle" x="502" y="-1220.8" font-family="Segoe UI" font-size="14.00" fill="#e2e8f0">AnalysisExportPage</text>
</g>
<!-- navigation&#45;&gt;hidden_AnalysisExport -->
<g id="edge46" class="edge">
<title>navigation&#45;&gt;hidden_AnalysisExport</title>
<path fill="none" stroke="#fb923c" stroke-width="1.3" stroke-dasharray="5,2" d="M201.03,-1180.92C262.41,-1191.37 351.76,-1206.59 416.98,-1217.69"/>
<polygon fill="#fb923c" stroke="#fb923c" stroke-width="1.3" points="416.85,-1220.51 425.21,-1219.09 417.79,-1214.99 416.85,-1220.51"/>
</g>
<!-- hidden_AnalysisExportWizard -->
<g id="node47" class="node">
<title>hidden_AnalysisExportWizard</title>
<path fill="#431407" stroke="#fb923c" d="M590,-1188C590,-1188 414,-1188 414,-1188 408,-1188 402,-1182 402,-1176 402,-1176 402,-1162 402,-1162 402,-1156 408,-1150 414,-1150 414,-1150 590,-1150 590,-1150 596,-1150 602,-1156 602,-1162 602,-1162 602,-1176 602,-1176 602,-1182 596,-1188 590,-1188"/>
<text text-anchor="middle" x="502" y="-1172.8" font-family="Segoe UI" font-size="14.00" fill="#e2e8f0">AnalysisExportWizard</text>
<text text-anchor="middle" x="502" y="-1157.8" font-family="Segoe UI" font-size="14.00" fill="#e2e8f0">AnalysisExportWizardPage</text>
</g>
<!-- navigation&#45;&gt;hidden_AnalysisExportWizard -->
<g id="edge47" class="edge">
<title>navigation&#45;&gt;hidden_AnalysisExportWizard</title>
<path fill="none" stroke="#fb923c" stroke-width="1.3" stroke-dasharray="5,2" d="M201.03,-1169C255.37,-1169 331.62,-1169 393.65,-1169"/>
<polygon fill="#fb923c" stroke="#fb923c" stroke-width="1.3" points="393.92,-1171.8 401.92,-1169 393.92,-1166.2 393.92,-1171.8"/>
</g>
<!-- hidden_EventReplay -->
<g id="node48" class="node">
<title>hidden_EventReplay</title>
<path fill="#431407" stroke="#fb923c" d="M558,-1125C558,-1125 446,-1125 446,-1125 440,-1125 434,-1119 434,-1113 434,-1113 434,-1099 434,-1099 434,-1093 440,-1087 446,-1087 446,-1087 558,-1087 558,-1087 564,-1087 570,-1093 570,-1099 570,-1099 570,-1113 570,-1113 570,-1119 564,-1125 558,-1125"/>
<text text-anchor="middle" x="502" y="-1109.8" font-family="Segoe UI" font-size="14.00" fill="#e2e8f0">EventReplay</text>
<text text-anchor="middle" x="502" y="-1094.8" font-family="Segoe UI" font-size="14.00" fill="#e2e8f0">EventReplayPage</text>
</g>
<!-- navigation&#45;&gt;hidden_EventReplay -->
<g id="edge48" class="edge">
<title>navigation&#45;&gt;hidden_EventReplay</title>
<path fill="none" stroke="#fb923c" stroke-width="1.3" stroke-dasharray="5,2" d="M201.03,-1157.08C265.12,-1146.16 359.71,-1130.06 425.48,-1118.86"/>
<polygon fill="#fb923c" stroke="#fb923c" stroke-width="1.3" points="426.34,-1121.55 433.75,-1117.45 425.4,-1116.03 426.34,-1121.55"/>
</g>
<!-- hidden_AdvancedAnalytics -->
<g id="node49" class="node">
<title>hidden_AdvancedAnalytics</title>
<path fill="#431407" stroke="#fb923c" d="M580.5,-1062C580.5,-1062 423.5,-1062 423.5,-1062 417.5,-1062 411.5,-1056 411.5,-1050 411.5,-1050 411.5,-1036 411.5,-1036 411.5,-1030 417.5,-1024 423.5,-1024 423.5,-1024 580.5,-1024 580.5,-1024 586.5,-1024 592.5,-1030 592.5,-1036 592.5,-1036 592.5,-1050 592.5,-1050 592.5,-1056 586.5,-1062 580.5,-1062"/>
<text text-anchor="middle" x="502" y="-1046.8" font-family="Segoe UI" font-size="14.00" fill="#e2e8f0">AdvancedAnalytics</text>
<text text-anchor="middle" x="502" y="-1031.8" font-family="Segoe UI" font-size="14.00" fill="#e2e8f0">AdvancedAnalyticsPage</text>
</g>
<!-- navigation&#45;&gt;hidden_AdvancedAnalytics -->
<g id="edge49" class="edge">
<title>navigation&#45;&gt;hidden_AdvancedAnalytics</title>
<path fill="none" stroke="#fb923c" stroke-width="1.3" stroke-dasharray="5,2" d="M201.09,-1158.54C220.93,-1153.77 242,-1146.89 260,-1137 294.99,-1117.77 289.42,-1093.11 325,-1075 348.95,-1062.81 376.83,-1055.2 403.23,-1050.47"/>
<polygon fill="#fb923c" stroke="#fb923c" stroke-width="1.3" points="403.95,-1053.19 411.37,-1049.1 403.02,-1047.67 403.95,-1053.19"/>
</g>
<!-- hidden_DataCalendar -->
<g id="node50" class="node">
<title>hidden_DataCalendar</title>
<path fill="#431407" stroke="#fb923c" d="M562,-999C562,-999 442,-999 442,-999 436,-999 430,-993 430,-987 430,-987 430,-973 430,-973 430,-967 436,-961 442,-961 442,-961 562,-961 562,-961 568,-961 574,-967 574,-973 574,-973 574,-987 574,-987 574,-993 568,-999 562,-999"/>
<text text-anchor="middle" x="502" y="-983.8" font-family="Segoe UI" font-size="14.00" fill="#e2e8f0">DataCalendar</text>
<text text-anchor="middle" x="502" y="-968.8" font-family="Segoe UI" font-size="14.00" fill="#e2e8f0">DataCalendarPage</text>
</g>
<!-- navigation&#45;&gt;hidden_DataCalendar -->
<g id="edge50" class="edge">
<title>navigation&#45;&gt;hidden_DataCalendar</title>
<path fill="none" stroke="#fb923c" stroke-width="1.3" stroke-dasharray="5,2" d="M201.13,-1162.68C221.74,-1158.05 243.23,-1150.21 260,-1137 309.19,-1098.25 274.61,-1049.17 325,-1012 352.53,-991.69 388.96,-982.93 421.53,-979.55"/>
<polygon fill="#fb923c" stroke="#fb923c" stroke-width="1.3" points="422.01,-982.32 429.72,-978.8 421.5,-976.74 422.01,-982.32"/>
</g>
<!-- hidden_StorageOptimization -->
<g id="node51" class="node">
<title>hidden_StorageOptimization</title>
<path fill="#431407" stroke="#fb923c" d="M586,-936C586,-936 418,-936 418,-936 412,-936 406,-930 406,-924 406,-924 406,-910 406,-910 406,-904 412,-898 418,-898 418,-898 586,-898 586,-898 592,-898 598,-904 598,-910 598,-910 598,-924 598,-924 598,-930 592,-936 586,-936"/>
<text text-anchor="middle" x="502" y="-920.8" font-family="Segoe UI" font-size="14.00" fill="#e2e8f0">StorageOptimization</text>
<text text-anchor="middle" x="502" y="-905.8" font-family="Segoe UI" font-size="14.00" fill="#e2e8f0">StorageOptimizationPage</text>
</g>
<!-- navigation&#45;&gt;hidden_StorageOptimization -->
<g id="edge51" class="edge">
<title>navigation&#45;&gt;hidden_StorageOptimization</title>
<path fill="none" stroke="#fb923c" stroke-width="1.3" stroke-dasharray="5,2" d="M201.03,-1164.43C222.11,-1159.92 243.91,-1151.71 260,-1137 325.26,-1077.35 257.89,-1006.55 325,-949 345.19,-931.69 371.57,-922.37 397.73,-917.65"/>
<polygon fill="#fb923c" stroke="#fb923c" stroke-width="1.3" points="398.4,-920.38 405.84,-916.33 397.49,-914.85 398.4,-920.38"/>
</g>
<!-- hidden_RetentionAssurance -->
<g id="node52" class="node">
<title>hidden_RetentionAssurance</title>
<path fill="#431407" stroke="#fb923c" d="M584,-873C584,-873 420,-873 420,-873 414,-873 408,-867 408,-861 408,-861 408,-847 408,-847 408,-841 414,-835 420,-835 420,-835 584,-835 584,-835 590,-835 596,-841 596,-847 596,-847 596,-861 596,-861 596,-867 590,-873 584,-873"/>
<text text-anchor="middle" x="502" y="-857.8" font-family="Segoe UI" font-size="14.00" fill="#e2e8f0">RetentionAssurance</text>
<text text-anchor="middle" x="502" y="-842.8" font-family="Segoe UI" font-size="14.00" fill="#e2e8f0">RetentionAssurancePage</text>
</g>
<!-- navigation&#45;&gt;hidden_RetentionAssurance -->
<g id="edge52" class="edge">
<title>navigation&#45;&gt;hidden_RetentionAssurance</title>
<path fill="none" stroke="#fb923c" stroke-width="1.3" stroke-dasharray="5,2" d="M201.25,-1165.5C222.6,-1161.08 244.49,-1152.65 260,-1137 341.11,-1055.15 239.45,-963.21 325,-886 345.46,-867.54 372.88,-858.03 399.98,-853.48"/>
<polygon fill="#fb923c" stroke="#fb923c" stroke-width="1.3" points="400.5,-856.24 407.99,-852.28 399.67,-850.7 400.5,-856.24"/>
</g>
<!-- hidden_MessagingHub -->
<g id="node53" class="node">
<title>hidden_MessagingHub</title>
<path fill="#431407" stroke="#fb923c" d="M566,-810C566,-810 438,-810 438,-810 432,-810 426,-804 426,-798 426,-798 426,-784 426,-784 426,-778 432,-772 438,-772 438,-772 566,-772 566,-772 572,-772 578,-778 578,-784 578,-784 578,-798 578,-798 578,-804 572,-810 566,-810"/>
<text text-anchor="middle" x="502" y="-794.8" font-family="Segoe UI" font-size="14.00" fill="#e2e8f0">MessagingHub</text>
<text text-anchor="middle" x="502" y="-779.8" font-family="Segoe UI" font-size="14.00" fill="#e2e8f0">MessagingHubPage</text>
</g>
<!-- navigation&#45;&gt;hidden_MessagingHub -->
<g id="edge53" class="edge">
<title>navigation&#45;&gt;hidden_MessagingHub</title>
<path fill="none" stroke="#fb923c" stroke-width="1.3" stroke-dasharray="5,2" d="M201.24,-1166.27C222.85,-1161.94 244.9,-1153.36 260,-1137 308.33,-1084.63 271.77,-870.37 325,-823 350.02,-800.73 385.2,-791.55 417.54,-788.37"/>
<polygon fill="#fb923c" stroke="#fb923c" stroke-width="1.3" points="417.95,-791.15 425.69,-787.69 417.49,-785.57 417.95,-791.15"/>
</g>
<!-- hidden_ResearchShell -->
<g id="node54" class="node">
<title>hidden_ResearchShell</title>
<path fill="#431407" stroke="#fb923c" d="M601,-747C601,-747 403,-747 403,-747 397,-747 391,-741 391,-735 391,-735 391,-721 391,-721 391,-715 397,-709 403,-709 403,-709 601,-709 601,-709 607,-709 613,-715 613,-721 613,-721 613,-735 613,-735 613,-741 607,-747 601,-747"/>
<text text-anchor="middle" x="502" y="-731.8" font-family="Segoe UI" font-size="14.00" fill="#e2e8f0">ResearchShell</text>
<text text-anchor="middle" x="502" y="-716.8" font-family="Segoe UI" font-size="14.00" fill="#e2e8f0">ResearchWorkspaceShellPage</text>
</g>
<!-- navigation&#45;&gt;hidden_ResearchShell -->
<g id="edge54" class="edge">
<title>navigation&#45;&gt;hidden_ResearchShell</title>
<path fill="none" stroke="#fb923c" stroke-width="1.3" stroke-dasharray="5,2" d="M201.05,-1166.47C222.78,-1162.17 244.95,-1153.56 260,-1137 317.18,-1074.09 263.94,-819.15 325,-760 340.79,-744.7 361.31,-735.42 382.74,-729.99"/>
<polygon fill="#fb923c" stroke="#fb923c" stroke-width="1.3" points="383.5,-732.69 390.67,-728.16 382.24,-727.23 383.5,-732.69"/>
</g>
<!-- hidden_TradingShell -->
<g id="node55" class="node">
<title>hidden_TradingShell</title>
<path fill="#431407" stroke="#fb923c" d="M595.5,-684C595.5,-684 408.5,-684 408.5,-684 402.5,-684 396.5,-678 396.5,-672 396.5,-672 396.5,-658 396.5,-658 396.5,-652 402.5,-646 408.5,-646 408.5,-646 595.5,-646 595.5,-646 601.5,-646 607.5,-652 607.5,-658 607.5,-658 607.5,-672 607.5,-672 607.5,-678 601.5,-684 595.5,-684"/>
<text text-anchor="middle" x="502" y="-668.8" font-family="Segoe UI" font-size="14.00" fill="#e2e8f0">TradingShell</text>
<text text-anchor="middle" x="502" y="-653.8" font-family="Segoe UI" font-size="14.00" fill="#e2e8f0">TradingWorkspaceShellPage</text>
</g>
<!-- navigation&#45;&gt;hidden_TradingShell -->
<g id="edge55" class="edge">
<title>navigation&#45;&gt;hidden_TradingShell</title>
<path fill="none" stroke="#fb923c" stroke-width="1.3" stroke-dasharray="5,2" d="M201,-1166.79C222.86,-1162.54 245.12,-1153.87 260,-1137 325.38,-1062.87 254.06,-765.83 325,-697 342.12,-680.39 364.82,-670.86 388.2,-665.67"/>
<polygon fill="#fb923c" stroke="#fb923c" stroke-width="1.3" points="388.85,-668.39 396.14,-664.07 387.75,-662.9 388.85,-668.39"/>
</g>
<!-- hidden_Workspaces -->
<g id="node56" class="node">
<title>hidden_Workspaces</title>
<path fill="#431407" stroke="#fb923c" d="M552.5,-621C552.5,-621 451.5,-621 451.5,-621 445.5,-621 439.5,-615 439.5,-609 439.5,-609 439.5,-595 439.5,-595 439.5,-589 445.5,-583 451.5,-583 451.5,-583 552.5,-583 552.5,-583 558.5,-583 564.5,-589 564.5,-595 564.5,-595 564.5,-609 564.5,-609 564.5,-615 558.5,-621 552.5,-621"/>
<text text-anchor="middle" x="502" y="-605.8" font-family="Segoe UI" font-size="14.00" fill="#e2e8f0">Workspaces</text>
<text text-anchor="middle" x="502" y="-590.8" font-family="Segoe UI" font-size="14.00" fill="#e2e8f0">WorkspacePage</text>
</g>
<!-- navigation&#45;&gt;hidden_Workspaces -->
<g id="edge56" class="edge">
<title>navigation&#45;&gt;hidden_Workspaces</title>
<path fill="none" stroke="#fb923c" stroke-width="1.3" stroke-dasharray="5,2" d="M201.22,-1166.99C223.1,-1162.74 245.31,-1154.04 260,-1137 333.59,-1051.63 243.48,-711.83 325,-634 352.88,-607.38 395.1,-599.05 431.19,-597.54"/>
<polygon fill="#fb923c" stroke="#fb923c" stroke-width="1.3" points="431.35,-600.33 439.27,-597.3 431.19,-594.73 431.35,-600.33"/>
</g>
<!-- hidden_NotificationCenter -->
<g id="node57" class="node">
<title>hidden_NotificationCenter</title>
<path fill="#431407" stroke="#fb923c" d="M577.5,-558C577.5,-558 426.5,-558 426.5,-558 420.5,-558 414.5,-552 414.5,-546 414.5,-546 414.5,-532 414.5,-532 414.5,-526 420.5,-520 426.5,-520 426.5,-520 577.5,-520 577.5,-520 583.5,-520 589.5,-526 589.5,-532 589.5,-532 589.5,-546 589.5,-546 589.5,-552 583.5,-558 577.5,-558"/>
<text text-anchor="middle" x="502" y="-542.8" font-family="Segoe UI" font-size="14.00" fill="#e2e8f0">NotificationCenter</text>
<text text-anchor="middle" x="502" y="-527.8" font-family="Segoe UI" font-size="14.00" fill="#e2e8f0">NotificationCenterPage</text>
</g>
<!-- navigation&#45;&gt;hidden_NotificationCenter -->
<g id="edge57" class="edge">
<title>navigation&#45;&gt;hidden_NotificationCenter</title>
<path fill="none" stroke="#fb923c" stroke-width="1.3" stroke-dasharray="5,2" d="M201.04,-1167.18C223.03,-1162.97 245.37,-1154.24 260,-1137 341.92,-1040.47 232.61,-657.56 325,-571 346.75,-550.62 376.93,-541.02 406.16,-536.99"/>
<polygon fill="#fb923c" stroke="#fb923c" stroke-width="1.3" points="406.77,-539.74 414.37,-536 406.1,-534.18 406.77,-539.74"/>
</g>
<!-- hidden_Help -->
<g id="node58" class="node">
<title>hidden_Help</title>
<path fill="#431407" stroke="#fb923c" d="M530.5,-495C530.5,-495 473.5,-495 473.5,-495 467.5,-495 461.5,-489 461.5,-483 461.5,-483 461.5,-469 461.5,-469 461.5,-463 467.5,-457 473.5,-457 473.5,-457 530.5,-457 530.5,-457 536.5,-457 542.5,-463 542.5,-469 542.5,-469 542.5,-483 542.5,-483 542.5,-489 536.5,-495 530.5,-495"/>
<text text-anchor="middle" x="502" y="-479.8" font-family="Segoe UI" font-size="14.00" fill="#e2e8f0">Help</text>
<text text-anchor="middle" x="502" y="-464.8" font-family="Segoe UI" font-size="14.00" fill="#e2e8f0">HelpPage</text>
</g>
<!-- navigation&#45;&gt;hidden_Help -->
<g id="edge58" class="edge">
<title>navigation&#45;&gt;hidden_Help</title>
<path fill="none" stroke="#fb923c" stroke-width="1.3" stroke-dasharray="5,2" d="M201.15,-1167.27C223.15,-1163.07 245.46,-1154.32 260,-1137 350.35,-1029.38 221.73,-603.3 325,-508 359.3,-476.34 414,-470.83 453.31,-471.67"/>
<polygon fill="#fb923c" stroke="#fb923c" stroke-width="1.3" points="453.37,-474.47 461.46,-471.94 453.55,-468.88 453.37,-474.47"/>
</g>
<!-- hidden_Welcome -->
<g id="node59" class="node">
<title>hidden_Welcome</title>
<path fill="#431407" stroke="#fb923c" d="M546,-432C546,-432 458,-432 458,-432 452,-432 446,-426 446,-420 446,-420 446,-406 446,-406 446,-400 452,-394 458,-394 458,-394 546,-394 546,-394 552,-394 558,-400 558,-406 558,-406 558,-420 558,-420 558,-426 552,-432 546,-432"/>
<text text-anchor="middle" x="502" y="-416.8" font-family="Segoe UI" font-size="14.00" fill="#e2e8f0">Welcome</text>
<text text-anchor="middle" x="502" y="-401.8" font-family="Segoe UI" font-size="14.00" fill="#e2e8f0">WelcomePage</text>
</g>
<!-- navigation&#45;&gt;hidden_Welcome -->
<g id="edge59" class="edge">
<title>navigation&#45;&gt;hidden_Welcome</title>
<path fill="none" stroke="#fb923c" stroke-width="1.3" stroke-dasharray="5,2" d="M201.22,-1167.33C223.23,-1163.14 245.53,-1154.38 260,-1137 301.75,-1086.88 285.34,-615.36 296,-551 303.98,-502.81 288.99,-478 325,-445 355.01,-417.5 400.44,-409.77 437.62,-408.78"/>
<polygon fill="#fb923c" stroke="#fb923c" stroke-width="1.3" points="437.94,-411.57 445.9,-408.66 437.87,-405.97 437.94,-411.57"/>
</g>
<!-- hidden_CredentialManagement -->
<g id="node60" class="node">
<title>hidden_CredentialManagement</title>
<path fill="#431407" stroke="#fb923c" d="M595.5,-369C595.5,-369 408.5,-369 408.5,-369 402.5,-369 396.5,-363 396.5,-357 396.5,-357 396.5,-343 396.5,-343 396.5,-337 402.5,-331 408.5,-331 408.5,-331 595.5,-331 595.5,-331 601.5,-331 607.5,-337 607.5,-343 607.5,-343 607.5,-357 607.5,-357 607.5,-363 601.5,-369 595.5,-369"/>
<text text-anchor="middle" x="502" y="-353.8" font-family="Segoe UI" font-size="14.00" fill="#e2e8f0">CredentialManagement</text>
<text text-anchor="middle" x="502" y="-338.8" font-family="Segoe UI" font-size="14.00" fill="#e2e8f0">CredentialManagementPage</text>
</g>
<!-- navigation&#45;&gt;hidden_CredentialManagement -->
<g id="edge60" class="edge">
<title>navigation&#45;&gt;hidden_CredentialManagement</title>
<path fill="none" stroke="#fb923c" stroke-width="1.3" stroke-dasharray="5,2" d="M201.23,-1167.34C223.24,-1163.15 245.54,-1154.38 260,-1137 313.85,-1072.27 265.38,-441.45 325,-382 341.99,-365.06 364.76,-355.43 388.27,-350.24"/>
<polygon fill="#fb923c" stroke="#fb923c" stroke-width="1.3" points="388.96,-352.95 396.26,-348.64 387.87,-347.46 388.96,-352.95"/>
</g>
<!-- hidden_KeyboardShortcuts -->
<g id="node61" class="node">
<title>hidden_KeyboardShortcuts</title>
<path fill="#431407" stroke="#fb923c" d="M580.5,-306C580.5,-306 423.5,-306 423.5,-306 417.5,-306 411.5,-300 411.5,-294 411.5,-294 411.5,-280 411.5,-280 411.5,-274 417.5,-268 423.5,-268 423.5,-268 580.5,-268 580.5,-268 586.5,-268 592.5,-274 592.5,-280 592.5,-280 592.5,-294 592.5,-294 592.5,-300 586.5,-306 580.5,-306"/>
<text text-anchor="middle" x="502" y="-290.8" font-family="Segoe UI" font-size="14.00" fill="#e2e8f0">KeyboardShortcuts</text>
<text text-anchor="middle" x="502" y="-275.8" font-family="Segoe UI" font-size="14.00" fill="#e2e8f0">KeyboardShortcutsPage</text>
</g>
<!-- navigation&#45;&gt;hidden_KeyboardShortcuts -->
<g id="edge61" class="edge">
<title>navigation&#45;&gt;hidden_KeyboardShortcuts</title>
<path fill="none" stroke="#fb923c" stroke-width="1.3" stroke-dasharray="5,2" d="M201.25,-1167.36C223.27,-1163.17 245.56,-1154.4 260,-1137 318.24,-1066.85 261.67,-384.59 325,-319 345.31,-297.96 374.48,-288.07 403.26,-283.97"/>
<polygon fill="#fb923c" stroke="#fb923c" stroke-width="1.3" points="403.76,-286.73 411.36,-282.97 403.07,-281.18 403.76,-286.73"/>
</g>
<!-- hidden_SetupWizard -->
<g id="node62" class="node">
<title>hidden_SetupWizard</title>
<path fill="#431407" stroke="#fb923c" d="M558.5,-243C558.5,-243 445.5,-243 445.5,-243 439.5,-243 433.5,-237 433.5,-231 433.5,-231 433.5,-217 433.5,-217 433.5,-211 439.5,-205 445.5,-205 445.5,-205 558.5,-205 558.5,-205 564.5,-205 570.5,-211 570.5,-217 570.5,-217 570.5,-231 570.5,-231 570.5,-237 564.5,-243 558.5,-243"/>
<text text-anchor="middle" x="502" y="-227.8" font-family="Segoe UI" font-size="14.00" fill="#e2e8f0">SetupWizard</text>
<text text-anchor="middle" x="502" y="-212.8" font-family="Segoe UI" font-size="14.00" fill="#e2e8f0">SetupWizardPage</text>
</g>
<!-- navigation&#45;&gt;hidden_SetupWizard -->
<g id="edge62" class="edge">
<title>navigation&#45;&gt;hidden_SetupWizard</title>
<path fill="none" stroke="#fb923c" stroke-width="1.3" stroke-dasharray="5,2" d="M201.31,-1167.41C223.33,-1163.22 245.61,-1154.44 260,-1137 322.48,-1061.3 256.67,-326.46 325,-256 350.52,-229.68 389.92,-220.83 424.98,-218.94"/>
<polygon fill="#fb923c" stroke="#fb923c" stroke-width="1.3" points="425.44,-221.72 433.32,-218.61 425.22,-216.12 425.44,-221.72"/>
</g>
<!-- hidden_AddProviderWizard -->
<g id="node63" class="node">
<title>hidden_AddProviderWizard</title>
<path fill="#431407" stroke="#fb923c" d="M580.5,-180C580.5,-180 423.5,-180 423.5,-180 417.5,-180 411.5,-174 411.5,-168 411.5,-168 411.5,-154 411.5,-154 411.5,-148 417.5,-142 423.5,-142 423.5,-142 580.5,-142 580.5,-142 586.5,-142 592.5,-148 592.5,-154 592.5,-154 592.5,-168 592.5,-168 592.5,-174 586.5,-180 580.5,-180"/>
<text text-anchor="middle" x="502" y="-164.8" font-family="Segoe UI" font-size="14.00" fill="#e2e8f0">AddProviderWizard</text>
<text text-anchor="middle" x="502" y="-149.8" font-family="Segoe UI" font-size="14.00" fill="#e2e8f0">AddProviderWizardPage</text>
</g>
<!-- navigation&#45;&gt;hidden_AddProviderWizard -->
<g id="edge63" class="edge">
<title>navigation&#45;&gt;hidden_AddProviderWizard</title>
<path fill="none" stroke="#fb923c" stroke-width="1.3" stroke-dasharray="5,2" d="M201.02,-1167.51C223.15,-1163.35 245.58,-1154.57 260,-1137 326.72,-1055.75 251.57,-268.24 325,-193 345.42,-172.07 374.63,-162.21 403.39,-158.11"/>
<polygon fill="#fb923c" stroke="#fb923c" stroke-width="1.3" points="403.9,-160.87 411.49,-157.1 403.2,-155.31 403.9,-160.87"/>
</g>
<!-- hidden_ActivityLog -->
<g id="node64" class="node">
<title>hidden_ActivityLog</title>
<path fill="#431407" stroke="#fb923c" d="M552.5,-117C552.5,-117 451.5,-117 451.5,-117 445.5,-117 439.5,-111 439.5,-105 439.5,-105 439.5,-91 439.5,-91 439.5,-85 445.5,-79 451.5,-79 451.5,-79 552.5,-79 552.5,-79 558.5,-79 564.5,-85 564.5,-91 564.5,-91 564.5,-105 564.5,-105 564.5,-111 558.5,-117 552.5,-117"/>
<text text-anchor="middle" x="502" y="-101.8" font-family="Segoe UI" font-size="14.00" fill="#e2e8f0">ActivityLog</text>
<text text-anchor="middle" x="502" y="-86.8" font-family="Segoe UI" font-size="14.00" fill="#e2e8f0">ActivityLogPage</text>
</g>
<!-- navigation&#45;&gt;hidden_ActivityLog -->
<g id="edge64" class="edge">
<title>navigation&#45;&gt;hidden_ActivityLog</title>
<path fill="none" stroke="#fb923c" stroke-width="1.3" stroke-dasharray="5,2" d="M201.06,-1167.55C223.2,-1163.39 245.61,-1154.59 260,-1137 330.98,-1050.2 246.38,-209.94 325,-130 352.23,-102.31 394.85,-94.04 431.33,-92.82"/>
<polygon fill="#fb923c" stroke="#fb923c" stroke-width="1.3" points="431.55,-95.62 439.49,-92.66 431.44,-90.02 431.55,-95.62"/>
</g>
<!-- hidden_SecurityMaster -->
<g id="node65" class="node">
<title>hidden_SecurityMaster</title>
<path fill="#431407" stroke="#fb923c" d="M567,-54C567,-54 437,-54 437,-54 431,-54 425,-48 425,-42 425,-42 425,-28 425,-28 425,-22 431,-16 437,-16 437,-16 567,-16 567,-16 573,-16 579,-22 579,-28 579,-28 579,-42 579,-42 579,-48 573,-54 567,-54"/>
<text text-anchor="middle" x="502" y="-38.8" font-family="Segoe UI" font-size="14.00" fill="#e2e8f0">SecurityMaster</text>
<text text-anchor="middle" x="502" y="-23.8" font-family="Segoe UI" font-size="14.00" fill="#e2e8f0">SecurityMasterPage</text>
</g>
<!-- navigation&#45;&gt;hidden_SecurityMaster -->
<g id="edge65" class="edge">
<title>navigation&#45;&gt;hidden_SecurityMaster</title>
<path fill="none" stroke="#fb923c" stroke-width="1.3" stroke-dasharray="5,2" d="M201.1,-1167.57C223.24,-1163.42 245.64,-1154.62 260,-1137 335.24,-1044.66 241.03,-151.47 325,-67 348.72,-43.14 383.87,-33.75 416.54,-30.84"/>
<polygon fill="#fb923c" stroke="#fb923c" stroke-width="1.3" points="417.01,-33.62 424.79,-30.24 416.6,-28.03 417.01,-33.62"/>
</g>
<!-- page_Dashboard -->
<g id="node5" class="node">
<title>page_Dashboard</title>
<path fill="#1e293b" stroke="#475569" d="M1010.5,-2351C1010.5,-2351 813.5,-2351 813.5,-2351 807.5,-2351 801.5,-2345 801.5,-2339 801.5,-2339 801.5,-2325 801.5,-2325 801.5,-2319 807.5,-2313 813.5,-2313 813.5,-2313 1010.5,-2313 1010.5,-2313 1016.5,-2313 1022.5,-2319 1022.5,-2325 1022.5,-2325 1022.5,-2339 1022.5,-2339 1022.5,-2345 1016.5,-2351 1010.5,-2351"/>
<text text-anchor="middle" x="912" y="-2335.8" font-family="Segoe UI" font-size="14.00" fill="#e2e8f0">Dashboard</text>
<text text-anchor="middle" x="912" y="-2320.8" font-family="Segoe UI" font-size="14.00" fill="#e2e8f0">Dashboard → DashboardPage</text>
</g>
<!-- workspace_1&#45;&gt;page_Dashboard -->
<g id="edge3" class="edge">
<title>workspace_1&#45;&gt;page_Dashboard</title>
<path fill="none" stroke="#94a3b8" stroke-width="1.3" d="M503.85,-2973.74C508.77,-2887.01 541.15,-2529.74 744,-2364 758.3,-2352.31 775.59,-2344.43 793.54,-2339.19"/>
<polygon fill="#94a3b8" stroke="#94a3b8" stroke-width="1.3" points="794.28,-2341.89 801.27,-2337.1 792.82,-2336.48 794.28,-2341.89"/>
</g>
<!-- page_LiveData -->
<g id="node6" class="node">
<title>page_LiveData</title>
<path fill="#1e293b" stroke="#475569" d="M1018.5,-2414C1018.5,-2414 805.5,-2414 805.5,-2414 799.5,-2414 793.5,-2408 793.5,-2402 793.5,-2402 793.5,-2388 793.5,-2388 793.5,-2382 799.5,-2376 805.5,-2376 805.5,-2376 1018.5,-2376 1018.5,-2376 1024.5,-2376 1030.5,-2382 1030.5,-2388 1030.5,-2388 1030.5,-2402 1030.5,-2402 1030.5,-2408 1024.5,-2414 1018.5,-2414"/>
<text text-anchor="middle" x="912" y="-2398.8" font-family="Segoe UI" font-size="14.00" fill="#e2e8f0">LiveData</text>
<text text-anchor="middle" x="912" y="-2383.8" font-family="Segoe UI" font-size="14.00" fill="#e2e8f0">LiveData → LiveDataViewerPage</text>
</g>
<!-- workspace_1&#45;&gt;page_LiveData -->
<g id="edge4" class="edge">
<title>workspace_1&#45;&gt;page_LiveData</title>
<path fill="none" stroke="#94a3b8" stroke-width="1.3" d="M504.83,-2973.85C513.64,-2892.89 559.25,-2576.03 744,-2427 756.13,-2417.21 770.36,-2410.1 785.31,-2404.98"/>
<polygon fill="#94a3b8" stroke="#94a3b8" stroke-width="1.3" points="786.41,-2407.57 793.18,-2402.48 784.71,-2402.23 786.41,-2407.57"/>
</g>
<!-- page_Charts -->
<g id="node7" class="node">
<title>page_Charts</title>
<path fill="#1e293b" stroke="#475569" d="M988,-2477C988,-2477 836,-2477 836,-2477 830,-2477 824,-2471 824,-2465 824,-2465 824,-2451 824,-2451 824,-2445 830,-2439 836,-2439 836,-2439 988,-2439 988,-2439 994,-2439 1000,-2445 1000,-2451 1000,-2451 1000,-2465 1000,-2465 1000,-2471 994,-2477 988,-2477"/>
<text text-anchor="middle" x="912" y="-2461.8" font-family="Segoe UI" font-size="14.00" fill="#e2e8f0">Charts</text>
<text text-anchor="middle" x="912" y="-2446.8" font-family="Segoe UI" font-size="14.00" fill="#e2e8f0">Charts → ChartingPage</text>
</g>
<!-- workspace_1&#45;&gt;page_Charts -->
<g id="edge5" class="edge">
<title>workspace_1&#45;&gt;page_Charts</title>
<path fill="none" stroke="#94a3b8" stroke-width="1.3" d="M505.9,-2973.93C518.43,-2898.69 575.08,-2620.2 744,-2490 764.36,-2474.31 790.19,-2465.59 815.41,-2460.91"/>
<polygon fill="#94a3b8" stroke="#94a3b8" stroke-width="1.3" points="816.15,-2463.63 823.58,-2459.53 815.22,-2458.11 816.15,-2463.63"/>
</g>
<!-- page_QuantScript -->
<g id="node8" class="node">
<title>page_QuantScript</title>
<path fill="#1e293b" stroke="#475569" d="M1018.5,-2540C1018.5,-2540 805.5,-2540 805.5,-2540 799.5,-2540 793.5,-2534 793.5,-2528 793.5,-2528 793.5,-2514 793.5,-2514 793.5,-2508 799.5,-2502 805.5,-2502 805.5,-2502 1018.5,-2502 1018.5,-2502 1024.5,-2502 1030.5,-2508 1030.5,-2514 1030.5,-2514 1030.5,-2528 1030.5,-2528 1030.5,-2534 1024.5,-2540 1018.5,-2540"/>
<text text-anchor="middle" x="912" y="-2524.8" font-family="Segoe UI" font-size="14.00" fill="#e2e8f0">QuantScript</text>
<text text-anchor="middle" x="912" y="-2509.8" font-family="Segoe UI" font-size="14.00" fill="#e2e8f0">QuantScript → QuantScriptPage</text>
</g>
<!-- workspace_1&#45;&gt;page_QuantScript -->
<g id="edge6" class="edge">
<title>workspace_1&#45;&gt;page_QuantScript</title>
<path fill="none" stroke="#94a3b8" stroke-width="1.3" d="M506.35,-2973.63C521.25,-2902.12 587.71,-2654.84 744,-2541 756.4,-2531.97 770.64,-2525.29 785.46,-2520.47"/>
<polygon fill="#94a3b8" stroke="#94a3b8" stroke-width="1.3" points="786.41,-2523.11 793.26,-2518.12 784.8,-2517.75 786.41,-2523.11"/>
</g>
<!-- workspace_1&#45;&gt;page_QuantScript -->
<g id="edge8" class="edge">
<title>workspace_1&#45;&gt;page_QuantScript</title>
<path fill="none" stroke="#94a3b8" stroke-width="1.3" d="M508.68,-2973.73C527.42,-2905.12 594.75,-2674.71 744,-2566 759.14,-2554.97 777.03,-2547.45 795.38,-2542.17"/>
<polygon fill="#94a3b8" stroke="#94a3b8" stroke-width="1.3" points="796.27,-2544.83 803.26,-2540.04 794.81,-2539.42 796.27,-2544.83"/>
</g>
<!-- page_RunMat -->
<g id="node9" class="node">
<title>page_RunMat</title>
<path fill="#1e293b" stroke="#475569" d="M988,-2603C988,-2603 836,-2603 836,-2603 830,-2603 824,-2597 824,-2591 824,-2591 824,-2577 824,-2577 824,-2571 830,-2565 836,-2565 836,-2565 988,-2565 988,-2565 994,-2565 1000,-2571 1000,-2577 1000,-2577 1000,-2591 1000,-2591 1000,-2597 994,-2603 988,-2603"/>
<text text-anchor="middle" x="912" y="-2587.8" font-family="Segoe UI" font-size="14.00" fill="#e2e8f0">RunMat</text>
<text text-anchor="middle" x="912" y="-2572.8" font-family="Segoe UI" font-size="14.00" fill="#e2e8f0">RunMat → RunMatPage</text>
</g>
<!-- workspace_1&#45;&gt;page_RunMat -->
<g id="edge7" class="edge">
<title>workspace_1&#45;&gt;page_RunMat</title>
<path fill="none" stroke="#94a3b8" stroke-width="1.3" d="M509.07,-2973.86C530.08,-2910.99 606.07,-2709.49 744,-2616 765.06,-2601.73 790.86,-2593.44 815.83,-2588.72"/>
<polygon fill="#94a3b8" stroke="#94a3b8" stroke-width="1.3" points="816.5,-2591.45 823.9,-2587.31 815.54,-2585.93 816.5,-2591.45"/>
</g>
<!-- page_StrategyRuns -->
<g id="node10" class="node">
<title>page_StrategyRuns</title>
<path fill="#1e293b" stroke="#475569" d="M1029,-2666C1029,-2666 795,-2666 795,-2666 789,-2666 783,-2660 783,-2654 783,-2654 783,-2640 783,-2640 783,-2634 789,-2628 795,-2628 795,-2628 1029,-2628 1029,-2628 1035,-2628 1041,-2634 1041,-2640 1041,-2640 1041,-2654 1041,-2654 1041,-2660 1035,-2666 1029,-2666"/>
<text text-anchor="middle" x="912" y="-2650.8" font-family="Segoe UI" font-size="14.00" fill="#e2e8f0">StrategyRuns</text>
<text text-anchor="middle" x="912" y="-2635.8" font-family="Segoe UI" font-size="14.00" fill="#e2e8f0">StrategyRuns → StrategyRunsPage</text>
</g>
<!-- workspace_1&#45;&gt;page_StrategyRuns -->
<g id="edge9" class="edge">
<title>workspace_1&#45;&gt;page_StrategyRuns</title>
<path fill="none" stroke="#94a3b8" stroke-width="1.3" d="M516.18,-2973.83C550.6,-2932.07 644.88,-2831.9 708,-2737 727.37,-2707.87 715.99,-2687.96 744,-2667 753.41,-2659.96 763.93,-2654.33 774.99,-2649.9"/>
<polygon fill="#94a3b8" stroke="#94a3b8" stroke-width="1.3" points="776.21,-2652.43 782.73,-2647.01 774.25,-2647.18 776.21,-2652.43"/>
</g>
<!-- workspace_1&#45;&gt;page_StrategyRuns -->
<g id="edge13" class="edge">
<title>workspace_1&#45;&gt;page_StrategyRuns</title>
<path fill="none" stroke="#94a3b8" stroke-width="1.3" d="M529.49,-2973.93C570.83,-2935.25 651.78,-2846.54 708,-2762 727.37,-2732.87 715.99,-2712.96 744,-2692 758.55,-2681.11 775.76,-2673.6 793.51,-2668.31"/>
<polygon fill="#94a3b8" stroke="#94a3b8" stroke-width="1.3" points="794.75,-2670.87 801.7,-2666.03 793.24,-2665.48 794.75,-2670.87"/>
</g>
<!-- page_OrderBook -->
<g id="node11" class="node">
<title>page_OrderBook</title>
<path fill="#1e293b" stroke="#475569" d="M1009.5,-2729C1009.5,-2729 814.5,-2729 814.5,-2729 808.5,-2729 802.5,-2723 802.5,-2717 802.5,-2717 802.5,-2703 802.5,-2703 802.5,-2697 808.5,-2691 814.5,-2691 814.5,-2691 1009.5,-2691 1009.5,-2691 1015.5,-2691 1021.5,-2697 1021.5,-2703 1021.5,-2703 1021.5,-2717 1021.5,-2717 1021.5,-2723 1015.5,-2729 1009.5,-2729"/>
<text text-anchor="middle" x="912" y="-2713.8" font-family="Segoe UI" font-size="14.00" fill="#e2e8f0">OrderBook</text>
<text text-anchor="middle" x="912" y="-2698.8" font-family="Segoe UI" font-size="14.00" fill="#e2e8f0">OrderBook → OrderBookPage</text>
</g>
<!-- workspace_1&#45;&gt;page_OrderBook -->
<g id="edge10" class="edge">
<title>workspace_1&#45;&gt;page_OrderBook</title>
<path fill="none" stroke="#94a3b8" stroke-width="1.3" d="M547.02,-2973.91C593.48,-2951.61 665.72,-2910.44 708,-2854 739.35,-2812.15 704.85,-2776.66 744,-2742 758.22,-2729.42 775.83,-2721.14 794.24,-2715.79"/>
<polygon fill="#94a3b8" stroke="#94a3b8" stroke-width="1.3" points="795.16,-2718.44 802.16,-2713.67 793.71,-2713.03 795.16,-2718.44"/>
</g>
<!-- page_Watchlist -->
<g id="node12" class="node">
<title>page_Watchlist</title>
<path fill="#1e293b" stroke="#475569" d="M998.5,-2792C998.5,-2792 825.5,-2792 825.5,-2792 819.5,-2792 813.5,-2786 813.5,-2780 813.5,-2780 813.5,-2766 813.5,-2766 813.5,-2760 819.5,-2754 825.5,-2754 825.5,-2754 998.5,-2754 998.5,-2754 1004.5,-2754 1010.5,-2760 1010.5,-2766 1010.5,-2766 1010.5,-2780 1010.5,-2780 1010.5,-2786 1004.5,-2792 998.5,-2792"/>
<text text-anchor="middle" x="912" y="-2776.8" font-family="Segoe UI" font-size="14.00" fill="#e2e8f0">Watchlist</text>
<text text-anchor="middle" x="912" y="-2761.8" font-family="Segoe UI" font-size="14.00" fill="#e2e8f0">Watchlist → WatchlistPage</text>
</g>
<!-- workspace_1&#45;&gt;page_Watchlist -->
<g id="edge11" class="edge">
<title>workspace_1&#45;&gt;page_Watchlist</title>
<path fill="none" stroke="#94a3b8" stroke-width="1.3" d="M564.08,-2982.41C609.45,-2971.54 669.85,-2950.29 708,-2910 741.92,-2874.18 706.75,-2837.34 744,-2805 761.15,-2790.11 783.07,-2781.28 805.35,-2776.21"/>
<polygon fill="#94a3b8" stroke="#94a3b8" stroke-width="1.3" points="805.98,-2778.94 813.24,-2774.57 804.84,-2773.46 805.98,-2778.94"/>
</g>
<!-- page_Backtest -->
<g id="node13" class="node">
<title>page_Backtest</title>
<path fill="#1e293b" stroke="#475569" d="M995.5,-2855C995.5,-2855 828.5,-2855 828.5,-2855 822.5,-2855 816.5,-2849 816.5,-2843 816.5,-2843 816.5,-2829 816.5,-2829 816.5,-2823 822.5,-2817 828.5,-2817 828.5,-2817 995.5,-2817 995.5,-2817 1001.5,-2817 1007.5,-2823 1007.5,-2829 1007.5,-2829 1007.5,-2843 1007.5,-2843 1007.5,-2849 1001.5,-2855 995.5,-2855"/>
<text text-anchor="middle" x="912" y="-2839.8" font-family="Segoe UI" font-size="14.00" fill="#e2e8f0">Backtest</text>
<text text-anchor="middle" x="912" y="-2824.8" font-family="Segoe UI" font-size="14.00" fill="#e2e8f0">Backtest → BacktestPage</text>
</g>
<!-- workspace_1&#45;&gt;page_Backtest -->
<g id="edge12" class="edge">
<title>workspace_1&#45;&gt;page_Backtest</title>
<path fill="none" stroke="#94a3b8" stroke-width="1.3" d="M564.18,-2990.81C608.42,-2986.3 667.33,-2973.92 708,-2941 736.12,-2918.24 715.22,-2889.92 744,-2868 762.49,-2853.92 785.39,-2845.47 808.26,-2840.52"/>
<polygon fill="#94a3b8" stroke="#94a3b8" stroke-width="1.3" points="809.03,-2843.22 816.33,-2838.92 807.94,-2837.73 809.03,-2843.22"/>
</g>
<!-- page_LeanIntegration -->
<g id="node14" class="node">
<title>page_LeanIntegration</title>
<path fill="#1e293b" stroke="#475569" d="M1045,-2918C1045,-2918 779,-2918 779,-2918 773,-2918 767,-2912 767,-2906 767,-2906 767,-2892 767,-2892 767,-2886 773,-2880 779,-2880 779,-2880 1045,-2880 1045,-2880 1051,-2880 1057,-2886 1057,-2892 1057,-2892 1057,-2906 1057,-2906 1057,-2912 1051,-2918 1045,-2918"/>
<text text-anchor="middle" x="912" y="-2902.8" font-family="Segoe UI" font-size="14.00" fill="#e2e8f0">LeanIntegration</text>
<text text-anchor="middle" x="912" y="-2887.8" font-family="Segoe UI" font-size="14.00" fill="#e2e8f0">LeanIntegration → LeanIntegrationPage</text>
</g>
<!-- workspace_1&#45;&gt;page_LeanIntegration -->
<g id="edge14" class="edge">
<title>workspace_1&#45;&gt;page_LeanIntegration</title>
<path fill="none" stroke="#94a3b8" stroke-width="1.3" d="M564.09,-2991.36C606.13,-2988.3 662.39,-2980.31 708,-2960 726.77,-2951.64 725.36,-2939.63 744,-2931 752.58,-2927.03 761.63,-2923.55 770.89,-2920.5"/>
<polygon fill="#94a3b8" stroke="#94a3b8" stroke-width="1.3" points="771.93,-2923.11 778.72,-2918.04 770.25,-2917.77 771.93,-2923.11"/>
</g>
<!-- page_PortfolioImport -->
<g id="node15" class="node">
<title>page_PortfolioImport</title>
<path fill="#1e293b" stroke="#475569" d="M1039,-2981C1039,-2981 785,-2981 785,-2981 779,-2981 773,-2975 773,-2969 773,-2969 773,-2955 773,-2955 773,-2949 779,-2943 785,-2943 785,-2943 1039,-2943 1039,-2943 1045,-2943 1051,-2949 1051,-2955 1051,-2955 1051,-2969 1051,-2969 1051,-2975 1045,-2981 1039,-2981"/>
<text text-anchor="middle" x="912" y="-2965.8" font-family="Segoe UI" font-size="14.00" fill="#e2e8f0">PortfolioImport</text>
<text text-anchor="middle" x="912" y="-2950.8" font-family="Segoe UI" font-size="14.00" fill="#e2e8f0">PortfolioImport → PortfolioImportPage</text>
</g>
<!-- workspace_1&#45;&gt;page_PortfolioImport -->
<g id="edge15" class="edge">
<title>workspace_1&#45;&gt;page_PortfolioImport</title>
<path fill="none" stroke="#94a3b8" stroke-width="1.3" d="M564.08,-2988.36C616.95,-2984.34 695.56,-2978.37 764.59,-2973.12"/>
<polygon fill="#94a3b8" stroke="#94a3b8" stroke-width="1.3" points="765.19,-2975.89 772.96,-2972.49 764.77,-2970.3 765.19,-2975.89"/>
</g>
<!-- page_TradingHours -->
<g id="node16" class="node">
<title>page_TradingHours</title>
<path fill="#1e293b" stroke="#475569" d="M1028.5,-3044C1028.5,-3044 795.5,-3044 795.5,-3044 789.5,-3044 783.5,-3038 783.5,-3032 783.5,-3032 783.5,-3018 783.5,-3018 783.5,-3012 789.5,-3006 795.5,-3006 795.5,-3006 1028.5,-3006 1028.5,-3006 1034.5,-3006 1040.5,-3012 1040.5,-3018 1040.5,-3018 1040.5,-3032 1040.5,-3032 1040.5,-3038 1034.5,-3044 1028.5,-3044"/>
<text text-anchor="middle" x="912" y="-3028.8" font-family="Segoe UI" font-size="14.00" fill="#e2e8f0">TradingHours</text>
<text text-anchor="middle" x="912" y="-3013.8" font-family="Segoe UI" font-size="14.00" fill="#e2e8f0">TradingHours → TradingHoursPage</text>
</g>
<!-- workspace_1&#45;&gt;page_TradingHours -->
<g id="edge16" class="edge">
<title>workspace_1&#45;&gt;page_TradingHours</title>
<path fill="none" stroke="#94a3b8" stroke-width="1.3" d="M564.08,-2997.79C619.63,-3002.15 703.58,-3008.73 774.99,-3014.33"/>
<polygon fill="#94a3b8" stroke="#94a3b8" stroke-width="1.3" points="774.99,-3017.14 783.19,-3014.98 775.43,-3011.56 774.99,-3017.14"/>
</g>
<!-- page_DirectLending -->
<g id="node17" class="node">
<title>page_DirectLending</title>
<path fill="#1e293b" stroke="#475569" d="M1031.5,-3107C1031.5,-3107 792.5,-3107 792.5,-3107 786.5,-3107 780.5,-3101 780.5,-3095 780.5,-3095 780.5,-3081 780.5,-3081 780.5,-3075 786.5,-3069 792.5,-3069 792.5,-3069 1031.5,-3069 1031.5,-3069 1037.5,-3069 1043.5,-3075 1043.5,-3081 1043.5,-3081 1043.5,-3095 1043.5,-3095 1043.5,-3101 1037.5,-3107 1031.5,-3107"/>
<text text-anchor="middle" x="912" y="-3091.8" font-family="Segoe UI" font-size="14.00" fill="#e2e8f0">DirectLending</text>
<text text-anchor="middle" x="912" y="-3076.8" font-family="Segoe UI" font-size="14.00" fill="#e2e8f0">DirectLending → DirectLendingPage</text>
</g>
<!-- workspace_1&#45;&gt;page_DirectLending -->
<g id="edge17" class="edge">
<title>workspace_1&#45;&gt;page_DirectLending</title>
<path fill="none" stroke="#94a3b8" stroke-width="1.3" d="M564.1,-3010.6C612.62,-3024.25 682.34,-3043.11 744,-3057 759.95,-3060.59 776.82,-3064.08 793.46,-3067.35"/>
<polygon fill="#94a3b8" stroke="#94a3b8" stroke-width="1.3" points="793.22,-3070.15 801.61,-3068.93 794.29,-3064.65 793.22,-3070.15"/>
</g>
<!-- page_Provider -->
<g id="node18" class="node">
<title>page_Provider</title>
<path fill="#1e293b" stroke="#475569" d="M992.5,-3170C992.5,-3170 831.5,-3170 831.5,-3170 825.5,-3170 819.5,-3164 819.5,-3158 819.5,-3158 819.5,-3144 819.5,-3144 819.5,-3138 825.5,-3132 831.5,-3132 831.5,-3132 992.5,-3132 992.5,-3132 998.5,-3132 1004.5,-3138 1004.5,-3144 1004.5,-3144 1004.5,-3158 1004.5,-3158 1004.5,-3164 998.5,-3170 992.5,-3170"/>
<text text-anchor="middle" x="912" y="-3154.8" font-family="Segoe UI" font-size="14.00" fill="#e2e8f0">Provider</text>
<text text-anchor="middle" x="912" y="-3139.8" font-family="Segoe UI" font-size="14.00" fill="#e2e8f0">Provider → ProviderPage</text>
</g>
<!-- workspace_1&#45;&gt;page_Provider -->
<g id="edge18" class="edge">
<title>workspace_1&#45;&gt;page_Provider</title>
<path fill="none" stroke="#94a3b8" stroke-width="1.3" d="M532.11,-3012.08C576.14,-3040.06 663.14,-3091.92 744,-3120 765.31,-3127.4 788.79,-3133.14 811.24,-3137.56"/>
<polygon fill="#94a3b8" stroke="#94a3b8" stroke-width="1.3" points="810.75,-3140.32 819.14,-3139.07 811.8,-3134.82 810.75,-3140.32"/>
</g>
<!-- page_Symbols -->
<g id="node19" class="node">
<title>page_Symbols</title>
<path fill="#1e293b" stroke="#475569" d="M994.5,-3233C994.5,-3233 829.5,-3233 829.5,-3233 823.5,-3233 817.5,-3227 817.5,-3221 817.5,-3221 817.5,-3207 817.5,-3207 817.5,-3201 823.5,-3195 829.5,-3195 829.5,-3195 994.5,-3195 994.5,-3195 1000.5,-3195 1006.5,-3201 1006.5,-3207 1006.5,-3207 1006.5,-3221 1006.5,-3221 1006.5,-3227 1000.5,-3233 994.5,-3233"/>
<text text-anchor="middle" x="912" y="-3217.8" font-family="Segoe UI" font-size="14.00" fill="#e2e8f0">Symbols</text>
<text text-anchor="middle" x="912" y="-3202.8" font-family="Segoe UI" font-size="14.00" fill="#e2e8f0">Symbols → SymbolsPage</text>
</g>
<!-- workspace_1&#45;&gt;page_Symbols -->
<g id="edge19" class="edge">
<title>workspace_1&#45;&gt;page_Symbols</title>
<path fill="none" stroke="#94a3b8" stroke-width="1.3" d="M520.55,-3012.02C557.68,-3050.96 648.64,-3139.78 744,-3183 764.21,-3192.16 786.97,-3198.62 809.04,-3203.16"/>
<polygon fill="#94a3b8" stroke="#94a3b8" stroke-width="1.3" points="808.74,-3205.96 817.13,-3204.75 809.82,-3200.46 808.74,-3205.96"/>
</g>
<!-- page_Backfill -->
<g id="node20" class="node">
<title>page_Backfill</title>
<path fill="#1e293b" stroke="#475569" d="M985.5,-3296C985.5,-3296 838.5,-3296 838.5,-3296 832.5,-3296 826.5,-3290 826.5,-3284 826.5,-3284 826.5,-3270 826.5,-3270 826.5,-3264 832.5,-3258 838.5,-3258 838.5,-3258 985.5,-3258 985.5,-3258 991.5,-3258 997.5,-3264 997.5,-3270 997.5,-3270 997.5,-3284 997.5,-3284 997.5,-3290 991.5,-3296 985.5,-3296"/>
<text text-anchor="middle" x="912" y="-3280.8" font-family="Segoe UI" font-size="14.00" fill="#e2e8f0">Backfill</text>
<text text-anchor="middle" x="912" y="-3265.8" font-family="Segoe UI" font-size="14.00" fill="#e2e8f0">Backfill → BackfillPage</text>
</g>
<!-- workspace_1&#45;&gt;page_Backfill -->
<g id="edge20" class="edge">
<title>workspace_1&#45;&gt;page_Backfill</title>
<path fill="none" stroke="#94a3b8" stroke-width="1.3" d="M514.87,-3012.07C545.9,-3060.16 634.66,-3186.75 744,-3246 766.58,-3258.23 793.11,-3265.73 818.31,-3270.3"/>
<polygon fill="#94a3b8" stroke="#94a3b8" stroke-width="1.3" points="818.08,-3273.1 826.43,-3271.68 819.02,-3267.58 818.08,-3273.1"/>
</g>
<!-- page_Storage -->
<g id="node21" class="node">
<title>page_Storage</title>
<path fill="#1e293b" stroke="#475569" d="M989.5,-3359C989.5,-3359 834.5,-3359 834.5,-3359 828.5,-3359 822.5,-3353 822.5,-3347 822.5,-3347 822.5,-3333 822.5,-3333 822.5,-3327 828.5,-3321 834.5,-3321 834.5,-3321 989.5,-3321 989.5,-3321 995.5,-3321 1001.5,-3327 1001.5,-3333 1001.5,-3333 1001.5,-3347 1001.5,-3347 1001.5,-3353 995.5,-3359 989.5,-3359"/>
<text text-anchor="middle" x="912" y="-3343.8" font-family="Segoe UI" font-size="14.00" fill="#e2e8f0">Storage</text>
<text text-anchor="middle" x="912" y="-3328.8" font-family="Segoe UI" font-size="14.00" fill="#e2e8f0">Storage → StoragePage</text>
</g>
<!-- workspace_1&#45;&gt;page_Storage -->
<g id="edge21" class="edge">
<title>workspace_1&#45;&gt;page_Storage</title>
<path fill="none" stroke="#94a3b8" stroke-width="1.3" d="M511.41,-3012.19C537.08,-3068.3 620.29,-3232.92 744,-3309 764.87,-3321.84 789.8,-3329.61 813.94,-3334.25"/>
<polygon fill="#94a3b8" stroke="#94a3b8" stroke-width="1.3" points="813.72,-3337.05 822.09,-3335.7 814.7,-3331.54 813.72,-3337.05"/>
</g>
<!-- page_DataExport -->
<g id="node22" class="node">
<title>page_DataExport</title>
<path fill="#1e293b" stroke="#475569" d="M1013.5,-3422C1013.5,-3422 810.5,-3422 810.5,-3422 804.5,-3422 798.5,-3416 798.5,-3410 798.5,-3410 798.5,-3396 798.5,-3396 798.5,-3390 804.5,-3384 810.5,-3384 810.5,-3384 1013.5,-3384 1013.5,-3384 1019.5,-3384 1025.5,-3390 1025.5,-3396 1025.5,-3396 1025.5,-3410 1025.5,-3410 1025.5,-3416 1019.5,-3422 1013.5,-3422"/>
<text text-anchor="middle" x="912" y="-3406.8" font-family="Segoe UI" font-size="14.00" fill="#e2e8f0">DataExport</text>
<text text-anchor="middle" x="912" y="-3391.8" font-family="Segoe UI" font-size="14.00" fill="#e2e8f0">DataExport → DataExportPage</text>
</g>
<!-- workspace_1&#45;&gt;page_DataExport -->
<g id="edge22" class="edge">
<title>workspace_1&#45;&gt;page_DataExport</title>
<path fill="none" stroke="#94a3b8" stroke-width="1.3" d="M509.02,-3012.27C529.86,-3075.57 605.39,-3278.39 744,-3372 757.86,-3381.36 773.78,-3388.09 790.16,-3392.91"/>
<polygon fill="#94a3b8" stroke="#94a3b8" stroke-width="1.3" points="789.77,-3395.71 798.23,-3395.12 791.25,-3390.3 789.77,-3395.71"/>
</g>
<!-- page_PackageManager -->
<g id="node23" class="node">
<title>page_PackageManager</title>
<path fill="#1e293b" stroke="#475569" d="M1052.5,-3485C1052.5,-3485 771.5,-3485 771.5,-3485 765.5,-3485 759.5,-3479 759.5,-3473 759.5,-3473 759.5,-3459 759.5,-3459 759.5,-3453 765.5,-3447 771.5,-3447 771.5,-3447 1052.5,-3447 1052.5,-3447 1058.5,-3447 1064.5,-3453 1064.5,-3459 1064.5,-3459 1064.5,-3473 1064.5,-3473 1064.5,-3479 1058.5,-3485 1052.5,-3485"/>
<text text-anchor="middle" x="912" y="-3469.8" font-family="Segoe UI" font-size="14.00" fill="#e2e8f0">PackageManager</text>
<text text-anchor="middle" x="912" y="-3454.8" font-family="Segoe UI" font-size="14.00" fill="#e2e8f0">PackageManager → PackageManagerPage</text>
</g>
<!-- workspace_1&#45;&gt;page_PackageManager -->
<g id="edge23" class="edge">
<title>workspace_1&#45;&gt;page_PackageManager</title>
<path fill="none" stroke="#94a3b8" stroke-width="1.3" d="M507.27,-3012.41C523.75,-3082.37 590.12,-3323.38 744,-3435 748.15,-3438.01 752.51,-3440.76 757.03,-3443.26"/>
<polygon fill="#94a3b8" stroke="#94a3b8" stroke-width="1.3" points="755.86,-3445.8 764.25,-3446.99 758.43,-3440.83 755.86,-3445.8"/>
</g>
<!-- page_DataQuality -->
<g id="node24" class="node">
<title>page_DataQuality</title>
<path fill="#1e293b" stroke="#475569" d="M1017,-3548C1017,-3548 807,-3548 807,-3548 801,-3548 795,-3542 795,-3536 795,-3536 795,-3522 795,-3522 795,-3516 801,-3510 807,-3510 807,-3510 1017,-3510 1017,-3510 1023,-3510 1029,-3516 1029,-3522 1029,-3522 1029,-3536 1029,-3536 1029,-3542 1023,-3548 1017,-3548"/>
<text text-anchor="middle" x="912" y="-3532.8" font-family="Segoe UI" font-size="14.00" fill="#e2e8f0">DataQuality</text>
<text text-anchor="middle" x="912" y="-3517.8" font-family="Segoe UI" font-size="14.00" fill="#e2e8f0">DataQuality → DataQualityPage</text>
</g>
<!-- workspace_1&#45;&gt;page_DataQuality -->
<g id="edge24" class="edge">
<title>workspace_1&#45;&gt;page_DataQuality</title>
<path fill="none" stroke="#94a3b8" stroke-width="1.3" d="M505.86,-3012.17C518.2,-3087.82 574.26,-3367.74 744,-3498 756.77,-3507.8 771.68,-3514.83 787.24,-3519.82"/>
<polygon fill="#94a3b8" stroke="#94a3b8" stroke-width="1.3" points="786.46,-3522.51 794.93,-3522.11 788.06,-3517.14 786.46,-3522.51"/>
</g>
<!-- page_ProviderHealth -->
<g id="node25" class="node">
<title>page_ProviderHealth</title>
<path fill="#1e293b" stroke="#475569" d="M1037.5,-3611C1037.5,-3611 786.5,-3611 786.5,-3611 780.5,-3611 774.5,-3605 774.5,-3599 774.5,-3599 774.5,-3585 774.5,-3585 774.5,-3579 780.5,-3573 786.5,-3573 786.5,-3573 1037.5,-3573 1037.5,-3573 1043.5,-3573 1049.5,-3579 1049.5,-3585 1049.5,-3585 1049.5,-3599 1049.5,-3599 1049.5,-3605 1043.5,-3611 1037.5,-3611"/>
<text text-anchor="middle" x="912" y="-3595.8" font-family="Segoe UI" font-size="14.00" fill="#e2e8f0">ProviderHealth</text>
<text text-anchor="middle" x="912" y="-3580.8" font-family="Segoe UI" font-size="14.00" fill="#e2e8f0">ProviderHealth → ProviderHealthPage</text>
</g>
<!-- workspace_1&#45;&gt;page_ProviderHealth -->
<g id="edge25" class="edge">
<title>workspace_1&#45;&gt;page_ProviderHealth</title>
<path fill="none" stroke="#94a3b8" stroke-width="1.3" d="M504.78,-3012.24C513.41,-3093.59 558.36,-3411.94 744,-3561 750.95,-3566.58 758.6,-3571.28 766.66,-3575.22"/>
<polygon fill="#94a3b8" stroke="#94a3b8" stroke-width="1.3" points="765.75,-3577.88 774.19,-3578.63 768.06,-3572.78 765.75,-3577.88"/>
</g>
<!-- page_SystemHealth -->
<g id="node26" class="node">
<title>page_SystemHealth</title>
<path fill="#1e293b" stroke="#475569" d="M1032,-3674C1032,-3674 792,-3674 792,-3674 786,-3674 780,-3668 780,-3662 780,-3662 780,-3648 780,-3648 780,-3642 786,-3636 792,-3636 792,-3636 1032,-3636 1032,-3636 1038,-3636 1044,-3642 1044,-3648 1044,-3648 1044,-3662 1044,-3662 1044,-3668 1038,-3674 1032,-3674"/>
<text text-anchor="middle" x="912" y="-3658.8" font-family="Segoe UI" font-size="14.00" fill="#e2e8f0">SystemHealth</text>
<text text-anchor="middle" x="912" y="-3643.8" font-family="Segoe UI" font-size="14.00" fill="#e2e8f0">SystemHealth → SystemHealthPage</text>
</g>
<!-- workspace_1&#45;&gt;page_SystemHealth -->
<g id="edge26" class="edge">
<title>workspace_1&#45;&gt;page_SystemHealth</title>
<path fill="none" stroke="#94a3b8" stroke-width="1.3" d="M503.78,-3012.06C508.44,-3098.69 539.88,-3458.21 744,-3624 752.56,-3630.96 762.19,-3636.54 772.39,-3641.01"/>
<polygon fill="#94a3b8" stroke="#94a3b8" stroke-width="1.3" points="771.45,-3643.65 779.91,-3644.07 773.56,-3638.46 771.45,-3643.65"/>
</g>
<!-- page_Diagnostics -->
<g id="node27" class="node">
<title>page_Diagnostics</title>
<path fill="#1e293b" stroke="#475569" d="M1015.5,-3737C1015.5,-3737 808.5,-3737 808.5,-3737 802.5,-3737 796.5,-3731 796.5,-3725 796.5,-3725 796.5,-3711 796.5,-3711 796.5,-3705 802.5,-3699 808.5,-3699 808.5,-3699 1015.5,-3699 1015.5,-3699 1021.5,-3699 1027.5,-3705 1027.5,-3711 1027.5,-3711 1027.5,-3725 1027.5,-3725 1027.5,-3731 1021.5,-3737 1015.5,-3737"/>
<text text-anchor="middle" x="912" y="-3721.8" font-family="Segoe UI" font-size="14.00" fill="#e2e8f0">Diagnostics</text>
<text text-anchor="middle" x="912" y="-3706.8" font-family="Segoe UI" font-size="14.00" fill="#e2e8f0">Diagnostics → DiagnosticsPage</text>
</g>
<!-- workspace_1&#45;&gt;page_Diagnostics -->
<g id="edge27" class="edge">
<title>workspace_1&#45;&gt;page_Diagnostics</title>
<path fill="none" stroke="#94a3b8" stroke-width="1.3" d="M502.94,-3012.18C503.77,-3104.42 520.5,-3505.47 744,-3687 756.88,-3697.46 772.18,-3704.83 788.19,-3709.94"/>
<polygon fill="#94a3b8" stroke="#94a3b8" stroke-width="1.3" points="787.64,-3712.7 796.11,-3712.28 789.23,-3707.33 787.64,-3712.7"/>
</g>
<!-- page_Settings -->
<g id="node28" class="node">
<title>page_Settings</title>
<path fill="#1e293b" stroke="#475569" d="M992.5,-3800C992.5,-3800 831.5,-3800 831.5,-3800 825.5,-3800 819.5,-3794 819.5,-3788 819.5,-3788 819.5,-3774 819.5,-3774 819.5,-3768 825.5,-3762 831.5,-3762 831.5,-3762 992.5,-3762 992.5,-3762 998.5,-3762 1004.5,-3768 1004.5,-3774 1004.5,-3774 1004.5,-3788 1004.5,-3788 1004.5,-3794 998.5,-3800 992.5,-3800"/>
<text text-anchor="middle" x="912" y="-3784.8" font-family="Segoe UI" font-size="14.00" fill="#e2e8f0">Settings</text>
<text text-anchor="middle" x="912" y="-3769.8" font-family="Segoe UI" font-size="14.00" fill="#e2e8f0">Settings → SettingsPage</text>
</g>
<!-- workspace_1&#45;&gt;page_Settings -->
<g id="edge28" class="edge">
<title>workspace_1&#45;&gt;page_Settings</title>
<path fill="none" stroke="#94a3b8" stroke-width="1.3" d="M506.2,-3012.1C524.63,-3119.85 620.82,-3650.35 744,-3750 762.95,-3765.33 787.07,-3773.99 811.05,-3778.69"/>
<polygon fill="#94a3b8" stroke="#94a3b8" stroke-width="1.3" points="810.8,-3781.49 819.17,-3780.14 811.79,-3775.98 810.8,-3781.49"/>
</g>
<!-- page_AdminMaintenance -->
<g id="node29" class="node">
<title>page_AdminMaintenance</title>
<path fill="#1e293b" stroke="#475569" d="M1068,-3863C1068,-3863 756,-3863 756,-3863 750,-3863 744,-3857 744,-3851 744,-3851 744,-3837 744,-3837 744,-3831 750,-3825 756,-3825 756,-3825 1068,-3825 1068,-3825 1074,-3825 1080,-3831 1080,-3837 1080,-3837 1080,-3851 1080,-3851 1080,-3857 1074,-3863 1068,-3863"/>
<text text-anchor="middle" x="912" y="-3847.8" font-family="Segoe UI" font-size="14.00" fill="#e2e8f0">AdminMaintenance</text>
<text text-anchor="middle" x="912" y="-3832.8" font-family="Segoe UI" font-size="14.00" fill="#e2e8f0">AdminMaintenance → AdminMaintenancePage</text>
</g>
<!-- workspace_1&#45;&gt;page_AdminMaintenance -->
<g id="edge29" class="edge">
<title>workspace_1&#45;&gt;page_AdminMaintenance</title>
<path fill="none" stroke="#94a3b8" stroke-width="1.3" d="M505.74,-3012.15C522.33,-3125.07 612.88,-3702.93 744,-3813 747.3,-3815.77 750.77,-3818.33 754.38,-3820.69"/>
<polygon fill="#94a3b8" stroke="#94a3b8" stroke-width="1.3" points="753.19,-3823.24 761.48,-3824.98 756.08,-3818.44 753.19,-3823.24"/>
</g>
</g>
</svg>
