<?xml version="1.0" encoding="UTF-8" standalone="no"?>
<!DOCTYPE svg PUBLIC "-//W3C//DTD SVG 1.1//EN"
 "http://www.w3.org/Graphics/SVG/1.1/DTD/svg11.dtd">
<!-- Generated by graphviz version 15.1.1 (20260805.0921)
 -->
<!-- Title: WpfReportingScreens Pages: 1 -->
<svg width="1162pt" height="1076pt"
 viewBox="0.00 0.00 1162.00 1076.00" xmlns="http://www.w3.org/2000/svg" xmlns:xlink="http://www.w3.org/1999/xlink">
<g id="graph0" class="graph" transform="scale(1 1) rotate(0) translate(28.8 1046.8)">
<title>WpfReportingScreens</title>
<polygon fill="#0f172a" stroke="none" points="-28.8,28.8 -28.8,-1046.8 1132.91,-1046.8 1132.91,28.8 -28.8,28.8"/>
<text xml:space="preserve" text-anchor="middle" x="552.05" y="-996" font-family="Segoe UI" font-size="20.00">Meridian WPF Reporting screens</text>
<text xml:space="preserve" text-anchor="middle" x="552.05" y="-972" font-family="Segoe UI" font-size="20.00">(auto&#45;generated from live shell registry)</text>
<g id="clust1" class="cluster">
<title>cluster_section_1</title>
<path fill="#0f172a" stroke="#334155" d="M395.11,-848C395.11,-848 1040.59,-848 1040.59,-848 1046.59,-848 1052.59,-854 1052.59,-860 1052.59,-860 1052.59,-942 1052.59,-942 1052.59,-948 1046.59,-954 1040.59,-954 1040.59,-954 395.11,-954 395.11,-954 389.11,-954 383.11,-948 383.11,-942 383.11,-942 383.11,-860 383.11,-860 383.11,-854 389.11,-848 395.11,-848"/>
<text xml:space="preserve" text-anchor="middle" x="717.85" y="-932" font-family="Segoe UI" font-size="20.00">Launchpad</text>
</g>
<g id="clust2" class="cluster">
<title>cluster_section_2</title>
<path fill="#0f172a" stroke="#334155" d="M560.58,-402C560.58,-402 1084.11,-402 1084.11,-402 1090.11,-402 1096.11,-408 1096.11,-414 1096.11,-414 1096.11,-828 1096.11,-828 1096.11,-834 1090.11,-840 1084.11,-840 1084.11,-840 560.58,-840 560.58,-840 554.58,-840 548.58,-834 548.58,-828 548.58,-828 548.58,-414 548.58,-414 548.58,-408 554.58,-402 560.58,-402"/>
<text xml:space="preserve" text-anchor="middle" x="822.34" y="-818" font-family="Segoe UI" font-size="20.00">Report Packs</text>
</g>
<g id="clust3" class="cluster">
<title>cluster_section_3</title>
<path fill="#0f172a" stroke="#334155" d="M567.39,-288C567.39,-288 984.98,-288 984.98,-288 990.98,-288 996.98,-294 996.98,-300 996.98,-300 996.98,-382 996.98,-382 996.98,-388 990.98,-394 984.98,-394 984.98,-394 567.39,-394 567.39,-394 561.39,-394 555.39,-388 555.39,-382 555.39,-382 555.39,-300 555.39,-300 555.39,-294 561.39,-288 567.39,-288"/>
<text xml:space="preserve" text-anchor="middle" x="776.19" y="-372" font-family="Segoe UI" font-size="20.00">Dashboard</text>
</g>
<g id="clust4" class="cluster">
<title>cluster_section_4</title>
<path fill="#0f172a" stroke="#334155" d="M571.86,-8C571.86,-8 1052.63,-8 1052.63,-8 1058.63,-8 1064.63,-14 1064.63,-20 1064.63,-20 1064.63,-268 1064.63,-268 1064.63,-274 1058.63,-280 1052.63,-280 1052.63,-280 571.86,-280 571.86,-280 565.86,-280 559.86,-274 559.86,-268 559.86,-268 559.86,-20 559.86,-20 559.86,-14 565.86,-8 571.86,-8"/>
<text xml:space="preserve" text-anchor="middle" x="812.25" y="-258" font-family="Segoe UI" font-size="20.00">Exports</text>
</g>
<!-- generated -->
<g id="node1" class="node">
<title>generated</title>
<polygon fill="#1d4ed8" stroke="#60a5fa" points="203.63,-456.2 0,-456.2 0,-397.8 209.63,-397.8 209.63,-450.2 203.63,-456.2"/>
<polyline fill="none" stroke="#60a5fa" points="203.63,-456.2 203.63,-450.2"/>
<polyline fill="none" stroke="#60a5fa" points="209.63,-450.2 203.63,-450.2"/>
<text xml:space="preserve" text-anchor="middle" x="104.82" y="-439.6" font-family="Segoe UI" font-size="14.00" fill="#e2e8f0">Source fingerprint: 94659b745975</text>
<text xml:space="preserve" text-anchor="middle" x="104.82" y="-422.8" font-family="Segoe UI" font-size="14.00" fill="#e2e8f0">Reporting screens: 10</text>
<text xml:space="preserve" text-anchor="middle" x="104.82" y="-406" font-family="Segoe UI" font-size="14.00" fill="#e2e8f0">Sections: 4</text>
</g>
<!-- workspace -->
<g id="node2" class="node">
<title>workspace</title>
<polygon fill="#0f766e" stroke="#2dd4bf" points="495.58,-447.8 492.58,-451.8 471.58,-451.8 468.58,-447.8 270.63,-447.8 270.63,-406.2 495.58,-406.2 495.58,-447.8"/>
<text xml:space="preserve" text-anchor="middle" x="383.11" y="-431.2" font-family="Segoe UI" font-size="14.00" fill="#e2e8f0">Reporting workspace</text>
<text xml:space="preserve" text-anchor="middle" x="383.11" y="-414.4" font-family="Segoe UI" font-size="14.00" fill="#e2e8f0">Primary 7 | Secondary 3 | Overflow 0</text>
</g>
<!-- generated&#45;&gt;workspace -->
<g id="edge1" class="edge">
<title>generated&#45;&gt;workspace</title>
<path fill="none" stroke="#38bdf8" stroke-width="1.2" d="M209.88,-427C226.68,-427 244.2,-427 261.36,-427"/>
<polygon fill="#38bdf8" stroke="#38bdf8" stroke-width="1.2" points="260.98,-429.63 268.48,-427 260.98,-424.38 260.98,-429.63"/>
</g>
<!-- section_1 -->
<g id="node3" class="node">
<title>section_1</title>
<polygon fill="#172554" stroke="#93c5fd" points="640.81,-901.8 637.81,-905.8 616.81,-905.8 613.81,-901.8 562.62,-901.8 562.62,-860.2 640.81,-860.2 640.81,-901.8"/>
<text xml:space="preserve" text-anchor="middle" x="601.71" y="-885.2" font-family="Segoe UI" font-size="14.00" fill="#e2e8f0">Launchpad</text>
<text xml:space="preserve" text-anchor="middle" x="601.71" y="-868.4" font-family="Segoe UI" font-size="14.00" fill="#e2e8f0">1 screens</text>
</g>
<!-- workspace&#45;&gt;section_1 -->
<g id="edge2" class="edge">
<title>workspace&#45;&gt;section_1</title>
<path fill="none" stroke="#94a3b8" stroke-width="1.2" d="M387.73,-447.97C399.91,-513.3 444.58,-716.54 548.58,-846 550.89,-848.87 553.49,-851.59 556.27,-854.15"/>
<polygon fill="#94a3b8" stroke="#94a3b8" stroke-width="1.2" points="554.21,-855.85 561.64,-858.67 557.59,-851.83 554.21,-855.85"/>
</g>
<!-- section_2 -->
<g id="node5" class="node">
<title>section_2</title>
<polygon fill="#172554" stroke="#93c5fd" points="646.85,-583.8 643.85,-587.8 622.85,-587.8 619.85,-583.8 556.58,-583.8 556.58,-542.2 646.85,-542.2 646.85,-583.8"/>
<text xml:space="preserve" text-anchor="middle" x="601.71" y="-567.2" font-family="Segoe UI" font-size="14.00" fill="#e2e8f0">Report Packs</text>
<text xml:space="preserve" text-anchor="middle" x="601.71" y="-550.4" font-family="Segoe UI" font-size="14.00" fill="#e2e8f0">5 screens</text>
</g>
<!-- workspace&#45;&gt;section_2 -->
<g id="edge4" class="edge">
<title>workspace&#45;&gt;section_2</title>
<path fill="none" stroke="#94a3b8" stroke-width="1.2" d="M417.95,-448.25C456.18,-472.25 518.4,-511.32 559.45,-537.09"/>
<polygon fill="#94a3b8" stroke="#94a3b8" stroke-width="1.2" points="557.82,-539.17 565.57,-540.93 560.61,-534.72 557.82,-539.17"/>
</g>
<!-- section_3 -->
<g id="node11" class="node">
<title>section_3</title>
<polygon fill="#172554" stroke="#93c5fd" points="640.04,-349.8 637.04,-353.8 616.04,-353.8 613.04,-349.8 563.39,-349.8 563.39,-308.2 640.04,-308.2 640.04,-349.8"/>
<text xml:space="preserve" text-anchor="middle" x="601.71" y="-333.2" font-family="Segoe UI" font-size="14.00" fill="#e2e8f0">Dashboard</text>
<text xml:space="preserve" text-anchor="middle" x="601.71" y="-316.4" font-family="Segoe UI" font-size="14.00" fill="#e2e8f0">1 screens</text>
</g>
<!-- workspace&#45;&gt;section_3 -->
<g id="edge10" class="edge">
<title>workspace&#45;&gt;section_3</title>
<path fill="none" stroke="#94a3b8" stroke-width="1.2" d="M431.11,-405.74C467.74,-389.16 518.32,-366.28 554.7,-349.82"/>
<polygon fill="#94a3b8" stroke="#94a3b8" stroke-width="1.2" points="555.75,-352.22 561.5,-346.74 553.59,-347.44 555.75,-352.22"/>
</g>
<!-- section_4 -->
<g id="node13" class="node">
<title>section_4</title>
<polygon fill="#172554" stroke="#93c5fd" points="635.56,-189.8 632.56,-193.8 611.56,-193.8 608.56,-189.8 567.86,-189.8 567.86,-148.2 635.56,-148.2 635.56,-189.8"/>
<text xml:space="preserve" text-anchor="middle" x="601.71" y="-173.2" font-family="Segoe UI" font-size="14.00" fill="#e2e8f0">Exports</text>
<text xml:space="preserve" text-anchor="middle" x="601.71" y="-156.4" font-family="Segoe UI" font-size="14.00" fill="#e2e8f0">3 screens</text>
</g>
<!-- workspace&#45;&gt;section_4 -->
<g id="edge12" class="edge">
<title>workspace&#45;&gt;section_4</title>
<path fill="none" stroke="#94a3b8" stroke-width="1.2" d="M401.83,-405.89C440.72,-359.57 533.54,-249.02 577.22,-196.98"/>
<polygon fill="#94a3b8" stroke="#94a3b8" stroke-width="1.2" points="579.07,-198.87 581.88,-191.43 575.05,-195.49 579.07,-198.87"/>
</g>
<!-- screen_ReportingShell -->
<g id="node4" class="node">
<title>screen_ReportingShell</title>
<path fill="#1e293b" stroke="#475569" d="M1032.59,-914.2C1032.59,-914.2 763.37,-914.2 763.37,-914.2 757.37,-914.2 751.37,-908.2 751.37,-902.2 751.37,-902.2 751.37,-867.8 751.37,-867.8 751.37,-861.8 757.37,-855.8 763.37,-855.8 763.37,-855.8 1032.59,-855.8 1032.59,-855.8 1038.59,-855.8 1044.59,-861.8 1044.59,-867.8 1044.59,-867.8 1044.59,-902.2 1044.59,-902.2 1044.59,-908.2 1038.59,-914.2 1032.59,-914.2"/>
<text xml:space="preserve" text-anchor="middle" x="897.98" y="-897.6" font-family="Segoe UI" font-size="14.00" fill="#e2e8f0">Reporting Workspace</text>
<text xml:space="preserve" text-anchor="middle" x="897.98" y="-880.8" font-family="Segoe UI" font-size="14.00" fill="#e2e8f0">ReportingShell → ReportingWorkspaceShellPage</text>
<text xml:space="preserve" text-anchor="middle" x="897.98" y="-864" font-family="Segoe UI" font-size="14.00" fill="#e2e8f0">Primary | order 0</text>
</g>
<!-- section_1&#45;&gt;screen_ReportingShell -->
<g id="edge3" class="edge">
<title>section_1&#45;&gt;screen_ReportingShell</title>
<path fill="none" stroke="#94a3b8" stroke-width="1.2" d="M641.18,-881.52C667.58,-881.88 704.51,-882.38 742.12,-882.89"/>
<polygon fill="#94a3b8" stroke="#94a3b8" stroke-width="1.2" points="741.82,-885.52 749.36,-882.99 741.89,-880.27 741.82,-885.52"/>
</g>
<!-- screen_FundReportPack -->
<g id="node6" class="node">
<title>screen_FundReportPack</title>
<path fill="#1e293b" stroke="#475569" d="M997.6,-468.2C997.6,-468.2 798.35,-468.2 798.35,-468.2 792.35,-468.2 786.35,-462.2 786.35,-456.2 786.35,-456.2 786.35,-421.8 786.35,-421.8 786.35,-415.8 792.35,-409.8 798.35,-409.8 798.35,-409.8 997.6,-409.8 997.6,-409.8 1003.6,-409.8 1009.6,-415.8 1009.6,-421.8 1009.6,-421.8 1009.6,-456.2 1009.6,-456.2 1009.6,-462.2 1003.6,-468.2 997.6,-468.2"/>
<text xml:space="preserve" text-anchor="middle" x="897.98" y="-451.6" font-family="Segoe UI" font-size="14.00" fill="#e2e8f0">Fund report pack</text>
<text xml:space="preserve" text-anchor="middle" x="897.98" y="-434.8" font-family="Segoe UI" font-size="14.00" fill="#e2e8f0">FundReportPack → FundLedgerPage</text>
<text xml:space="preserve" text-anchor="middle" x="897.98" y="-418" font-family="Segoe UI" font-size="14.00" fill="#e2e8f0">Primary | order 10</text>
</g>
<!-- section_2&#45;&gt;screen_FundReportPack -->
<g id="edge5" class="edge">
<title>section_2&#45;&gt;screen_FundReportPack</title>
<path fill="none" stroke="#94a3b8" stroke-width="1.2" d="M623.29,-541.99C643.18,-522.92 675.04,-495.48 707.85,-480 729.4,-469.83 753.53,-462.15 777.16,-456.36"/>
<polygon fill="#94a3b8" stroke="#94a3b8" stroke-width="1.2" points="777.72,-458.92 784.41,-454.64 776.51,-453.81 777.72,-458.92"/>
</g>
<!-- screen_ReportRunStatus -->
<g id="node7" class="node">
<title>screen_ReportRunStatus</title>
<path fill="#1e293b" stroke="#475569" d="M994.49,-551.2C994.49,-551.2 801.46,-551.2 801.46,-551.2 795.46,-551.2 789.46,-545.2 789.46,-539.2 789.46,-539.2 789.46,-504.8 789.46,-504.8 789.46,-498.8 795.46,-492.8 801.46,-492.8 801.46,-492.8 994.49,-492.8 994.49,-492.8 1000.49,-492.8 1006.49,-498.8 1006.49,-504.8 1006.49,-504.8 1006.49,-539.2 1006.49,-539.2 1006.49,-545.2 1000.49,-551.2 994.49,-551.2"/>
<text xml:space="preserve" text-anchor="middle" x="897.98" y="-534.6" font-family="Segoe UI" font-size="14.00" fill="#e2e8f0">Report run status</text>
<text xml:space="preserve" text-anchor="middle" x="897.98" y="-517.8" font-family="Segoe UI" font-size="14.00" fill="#e2e8f0">ReportRunStatus → DashboardPage</text>
<text xml:space="preserve" text-anchor="middle" x="897.98" y="-501" font-family="Segoe UI" font-size="14.00" fill="#e2e8f0">Primary | order 15</text>
</g>
<!-- section_2&#45;&gt;screen_ReportRunStatus -->
<g id="edge6" class="edge">
<title>section_2&#45;&gt;screen_ReportRunStatus</title>
<path fill="none" stroke="#94a3b8" stroke-width="1.2" d="M647.09,-556.82C682.38,-551.9 733.44,-544.79 780.21,-538.27"/>
<polygon fill="#94a3b8" stroke="#94a3b8" stroke-width="1.2" points="780.33,-540.9 787.4,-537.27 779.61,-535.7 780.33,-540.9"/>
</g>
<!-- screen_EvidenceWorkbench -->
<g id="node8" class="node">
<title>screen_EvidenceWorkbench</title>
<path fill="#1e293b" stroke="#475569" d="M1033.72,-634.2C1033.72,-634.2 762.23,-634.2 762.23,-634.2 756.23,-634.2 750.23,-628.2 750.23,-622.2 750.23,-622.2 750.23,-587.8 750.23,-587.8 750.23,-581.8 756.23,-575.8 762.23,-575.8 762.23,-575.8 1033.72,-575.8 1033.72,-575.8 1039.72,-575.8 1045.72,-581.8 1045.72,-587.8 1045.72,-587.8 1045.72,-622.2 1045.72,-622.2 1045.72,-628.2 1039.72,-634.2 1033.72,-634.2"/>
<text xml:space="preserve" text-anchor="middle" x="897.98" y="-617.6" font-family="Segoe UI" font-size="14.00" fill="#e2e8f0">Evidence packets</text>
<text xml:space="preserve" text-anchor="middle" x="897.98" y="-600.8" font-family="Segoe UI" font-size="14.00" fill="#e2e8f0">EvidenceWorkbench → EvidenceWorkbenchPage</text>
<text xml:space="preserve" text-anchor="middle" x="897.98" y="-584" font-family="Segoe UI" font-size="14.00" fill="#e2e8f0">Primary | order 16</text>
</g>
<!-- section_2&#45;&gt;screen_EvidenceWorkbench -->
<g id="edge7" class="edge">
<title>section_2&#45;&gt;screen_EvidenceWorkbench</title>
<path fill="none" stroke="#94a3b8" stroke-width="1.2" d="M647.09,-569.33C672.69,-572.99 706.59,-577.83 741.14,-582.76"/>
<polygon fill="#94a3b8" stroke="#94a3b8" stroke-width="1.2" points="740.33,-585.29 748.13,-583.76 741.08,-580.1 740.33,-585.29"/>
</g>
<!-- screen_OperationsRecordRelease -->
<g id="node9" class="node">
<title>screen_OperationsRecordRelease</title>
<path fill="#1e293b" stroke="#475569" d="M1061.72,-717.2C1061.72,-717.2 734.23,-717.2 734.23,-717.2 728.23,-717.2 722.23,-711.2 722.23,-705.2 722.23,-705.2 722.23,-670.8 722.23,-670.8 722.23,-664.8 728.23,-658.8 734.23,-658.8 734.23,-658.8 1061.72,-658.8 1061.72,-658.8 1067.72,-658.8 1073.72,-664.8 1073.72,-670.8 1073.72,-670.8 1073.72,-705.2 1073.72,-705.2 1073.72,-711.2 1067.72,-717.2 1061.72,-717.2"/>
<text xml:space="preserve" text-anchor="middle" x="897.98" y="-700.6" font-family="Segoe UI" font-size="14.00" fill="#e2e8f0">Operations record release</text>
<text xml:space="preserve" text-anchor="middle" x="897.98" y="-683.8" font-family="Segoe UI" font-size="14.00" fill="#e2e8f0">OperationsRecordRelease → OperationsRecordReleasePage</text>
<text xml:space="preserve" text-anchor="middle" x="897.98" y="-667" font-family="Segoe UI" font-size="14.00" fill="#e2e8f0">Primary | order 17</text>
</g>
<!-- section_2&#45;&gt;screen_OperationsRecordRelease -->
<g id="edge8" class="edge">
<title>section_2&#45;&gt;screen_OperationsRecordRelease</title>
<path fill="none" stroke="#94a3b8" stroke-width="1.2" d="M623.24,-584.28C643.09,-603.58 674.93,-631.35 707.85,-647 714.03,-649.94 720.44,-652.67 726.98,-655.21"/>
<polygon fill="#94a3b8" stroke="#94a3b8" stroke-width="1.2" points="725.69,-657.53 733.63,-657.69 727.52,-652.61 725.69,-657.53"/>
</g>
<!-- screen_ReportLineProvenanceExplorer -->
<g id="node10" class="node">
<title>screen_ReportLineProvenanceExplorer</title>
<path fill="#312e81" stroke="#475569" d="M1076.11,-800.2C1076.11,-800.2 719.85,-800.2 719.85,-800.2 713.85,-800.2 707.85,-794.2 707.85,-788.2 707.85,-788.2 707.85,-753.8 707.85,-753.8 707.85,-747.8 713.85,-741.8 719.85,-741.8 719.85,-741.8 1076.11,-741.8 1076.11,-741.8 1082.11,-741.8 1088.11,-747.8 1088.11,-753.8 1088.11,-753.8 1088.11,-788.2 1088.11,-788.2 1088.11,-794.2 1082.11,-800.2 1076.11,-800.2"/>
<text xml:space="preserve" text-anchor="middle" x="897.98" y="-783.6" font-family="Segoe UI" font-size="14.00" fill="#e2e8f0">Report&#45;line provenance</text>
<text xml:space="preserve" text-anchor="middle" x="897.98" y="-766.8" font-family="Segoe UI" font-size="14.00" fill="#e2e8f0">ReportLineProvenanceExplorer → FinancialRecordExplorerPage</text>
<text xml:space="preserve" text-anchor="middle" x="897.98" y="-750" font-family="Segoe UI" font-size="14.00" fill="#e2e8f0">Secondary | order 18</text>
</g>
<!-- section_2&#45;&gt;screen_ReportLineProvenanceExplorer -->
<g id="edge9" class="edge">
<title>section_2&#45;&gt;screen_ReportLineProvenanceExplorer</title>
<path fill="none" stroke="#94a3b8" stroke-width="1.2" d="M609.86,-584.27C623.13,-620.3 655.1,-693.04 707.85,-730 711.44,-732.52 715.16,-734.89 718.98,-737.11"/>
<polygon fill="#94a3b8" stroke="#94a3b8" stroke-width="1.2" points="717.54,-739.31 725.38,-740.62 720.06,-734.71 717.54,-739.31"/>
</g>
<!-- screen_Dashboard -->
<g id="node12" class="node">
<title>screen_Dashboard</title>
<path fill="#1e293b" stroke="#475569" d="M976.98,-354.2C976.98,-354.2 818.97,-354.2 818.97,-354.2 812.97,-354.2 806.97,-348.2 806.97,-342.2 806.97,-342.2 806.97,-307.8 806.97,-307.8 806.97,-301.8 812.97,-295.8 818.97,-295.8 818.97,-295.8 976.98,-295.8 976.98,-295.8 982.98,-295.8 988.98,-301.8 988.98,-307.8 988.98,-307.8 988.98,-342.2 988.98,-342.2 988.98,-348.2 982.98,-354.2 976.98,-354.2"/>
<text xml:space="preserve" text-anchor="middle" x="897.98" y="-337.6" font-family="Segoe UI" font-size="14.00" fill="#e2e8f0">Reporting dashboard</text>
<text xml:space="preserve" text-anchor="middle" x="897.98" y="-320.8" font-family="Segoe UI" font-size="14.00" fill="#e2e8f0">Dashboard → DashboardPage</text>
<text xml:space="preserve" text-anchor="middle" x="897.98" y="-304" font-family="Segoe UI" font-size="14.00" fill="#e2e8f0">Primary | order 20</text>
</g>
<!-- section_3&#45;&gt;screen_Dashboard -->
<g id="edge11" class="edge">
<title>section_3&#45;&gt;screen_Dashboard</title>
<path fill="none" stroke="#94a3b8" stroke-width="1.2" d="M640.28,-328.49C679.68,-327.95 743.26,-327.09 797.29,-326.36"/>
<polygon fill="#94a3b8" stroke="#94a3b8" stroke-width="1.2" points="797.28,-328.98 804.75,-326.25 797.21,-323.73 797.28,-328.98"/>
</g>
<!-- screen_AnalysisExport -->
<g id="node14" class="node">
<title>screen_AnalysisExport</title>
<path fill="#1e293b" stroke="#475569" d="M1003.44,-74.2C1003.44,-74.2 792.52,-74.2 792.52,-74.2 786.52,-74.2 780.52,-68.2 780.52,-62.2 780.52,-62.2 780.52,-27.8 780.52,-27.8 780.52,-21.8 786.52,-15.8 792.52,-15.8 792.52,-15.8 1003.44,-15.8 1003.44,-15.8 1009.44,-15.8 1015.44,-21.8 1015.44,-27.8 1015.44,-27.8 1015.44,-62.2 1015.44,-62.2 1015.44,-68.2 1009.44,-74.2 1003.44,-74.2"/>
<text xml:space="preserve" text-anchor="middle" x="897.98" y="-57.6" font-family="Segoe UI" font-size="14.00" fill="#e2e8f0">Analysis export</text>
<text xml:space="preserve" text-anchor="middle" x="897.98" y="-40.8" font-family="Segoe UI" font-size="14.00" fill="#e2e8f0">AnalysisExport → AnalysisExportPage</text>
<text xml:space="preserve" text-anchor="middle" x="897.98" y="-24" font-family="Segoe UI" font-size="14.00" fill="#e2e8f0">Primary | order 30</text>
</g>
<!-- section_4&#45;&gt;screen_AnalysisExport -->
<g id="edge13" class="edge">
<title>section_4&#45;&gt;screen_AnalysisExport</title>
<path fill="none" stroke="#94a3b8" stroke-width="1.2" d="M623.29,-147.99C643.18,-128.92 675.04,-101.48 707.85,-86 727.61,-76.68 749.54,-69.44 771.26,-63.84"/>
<polygon fill="#94a3b8" stroke="#94a3b8" stroke-width="1.2" points="771.81,-66.41 778.45,-62.05 770.54,-61.31 771.81,-66.41"/>
</g>
<!-- screen_AnalysisExportWizard -->
<g id="node15" class="node">
<title>screen_AnalysisExportWizard</title>
<path fill="#312e81" stroke="#475569" d="M1044.63,-157.2C1044.63,-157.2 751.32,-157.2 751.32,-157.2 745.32,-157.2 739.32,-151.2 739.32,-145.2 739.32,-145.2 739.32,-110.8 739.32,-110.8 739.32,-104.8 745.32,-98.8 751.32,-98.8 751.32,-98.8 1044.63,-98.8 1044.63,-98.8 1050.63,-98.8 1056.63,-104.8 1056.63,-110.8 1056.63,-110.8 1056.63,-145.2 1056.63,-145.2 1056.63,-151.2 1050.63,-157.2 1044.63,-157.2"/>
<text xml:space="preserve" text-anchor="middle" x="897.98" y="-140.6" font-family="Segoe UI" font-size="14.00" fill="#e2e8f0">Analysis export wizard</text>
<text xml:space="preserve" text-anchor="middle" x="897.98" y="-123.8" font-family="Segoe UI" font-size="14.00" fill="#e2e8f0">AnalysisExportWizard → AnalysisExportWizardPage</text>
<text xml:space="preserve" text-anchor="middle" x="897.98" y="-107" font-family="Segoe UI" font-size="14.00" fill="#e2e8f0">Secondary | order 40</text>
</g>
<!-- section_4&#45;&gt;screen_AnalysisExportWizard -->
<g id="edge14" class="edge">
<title>section_4&#45;&gt;screen_AnalysisExportWizard</title>
<path fill="none" stroke="#94a3b8" stroke-width="1.2" d="M635.9,-164.38C659.8,-161.05 694.04,-156.28 729.89,-151.28"/>
<polygon fill="#94a3b8" stroke="#94a3b8" stroke-width="1.2" points="730.17,-153.89 737.24,-150.26 729.45,-148.69 730.17,-153.89"/>
</g>
<!-- screen_ExportPresets -->
<g id="node16" class="node">
<title>screen_ExportPresets</title>
<path fill="#312e81" stroke="#475569" d="M994.1,-240.2C994.1,-240.2 801.85,-240.2 801.85,-240.2 795.85,-240.2 789.85,-234.2 789.85,-228.2 789.85,-228.2 789.85,-193.8 789.85,-193.8 789.85,-187.8 795.85,-181.8 801.85,-181.8 801.85,-181.8 994.1,-181.8 994.1,-181.8 1000.1,-181.8 1006.1,-187.8 1006.1,-193.8 1006.1,-193.8 1006.1,-228.2 1006.1,-228.2 1006.1,-234.2 1000.1,-240.2 994.1,-240.2"/>
<text xml:space="preserve" text-anchor="middle" x="897.98" y="-223.6" font-family="Segoe UI" font-size="14.00" fill="#e2e8f0">Export presets</text>
<text xml:space="preserve" text-anchor="middle" x="897.98" y="-206.8" font-family="Segoe UI" font-size="14.00" fill="#e2e8f0">ExportPresets → ExportPresetsPage</text>
<text xml:space="preserve" text-anchor="middle" x="897.98" y="-190" font-family="Segoe UI" font-size="14.00" fill="#e2e8f0">Secondary | order 50</text>
</g>
<!-- section_4&#45;&gt;screen_ExportPresets -->
<g id="edge15" class="edge">
<title>section_4&#45;&gt;screen_ExportPresets</title>
<path fill="none" stroke="#94a3b8" stroke-width="1.2" d="M635.9,-173.74C670.99,-178.75 728.38,-186.94 780.42,-194.36"/>
<polygon fill="#94a3b8" stroke="#94a3b8" stroke-width="1.2" points="779.8,-196.93 787.6,-195.39 780.54,-191.73 779.8,-196.93"/>
</g>
</g>
</svg>
