<?xml version="1.0" encoding="UTF-8" standalone="no"?>
<!DOCTYPE svg PUBLIC "-//W3C//DTD SVG 1.1//EN"
 "http://www.w3.org/Graphics/SVG/1.1/DTD/svg11.dtd">
<!-- Generated by graphviz version 15.1.1 (20260805.0921)
 -->
<!-- Title: WpfAccountingScreens Pages: 1 -->
<svg width="1143pt" height="1543pt"
 viewBox="0.00 0.00 1143.00 1543.00" xmlns="http://www.w3.org/2000/svg" xmlns:xlink="http://www.w3.org/1999/xlink">
<g id="graph0" class="graph" transform="scale(1 1) rotate(0) translate(28.8 1513.8)">
<title>WpfAccountingScreens</title>
<polygon fill="#0f172a" stroke="none" points="-28.8,28.8 -28.8,-1513.8 1114.23,-1513.8 1114.23,28.8 -28.8,28.8"/>
<text xml:space="preserve" text-anchor="middle" x="542.72" y="-1463" font-family="Segoe UI" font-size="20.00">Meridian WPF Accounting screens</text>
<text xml:space="preserve" text-anchor="middle" x="542.72" y="-1439" font-family="Segoe UI" font-size="20.00">(auto&#45;generated from live shell registry)</text>
<g id="clust1" class="cluster">
<title>cluster_section_1</title>
<path fill="#0f172a" stroke="#334155" d="M388.07,-1315C388.07,-1315 1042.11,-1315 1042.11,-1315 1048.11,-1315 1054.11,-1321 1054.11,-1327 1054.11,-1327 1054.11,-1409 1054.11,-1409 1054.11,-1415 1048.11,-1421 1042.11,-1421 1042.11,-1421 388.07,-1421 388.07,-1421 382.07,-1421 376.07,-1415 376.07,-1409 376.07,-1409 376.07,-1327 376.07,-1327 376.07,-1321 382.07,-1315 388.07,-1315"/>
<text xml:space="preserve" text-anchor="middle" x="715.09" y="-1399" font-family="Segoe UI" font-size="20.00">Launchpad</text>
</g>
<g id="clust2" class="cluster">
<title>cluster_section_2</title>
<path fill="#0f172a" stroke="#334155" d="M566.39,-205C566.39,-205 1065.43,-205 1065.43,-205 1071.43,-205 1077.43,-211 1077.43,-217 1077.43,-217 1077.43,-1295 1077.43,-1295 1077.43,-1301 1071.43,-1307 1065.43,-1307 1065.43,-1307 566.39,-1307 566.39,-1307 560.39,-1307 554.39,-1301 554.39,-1295 554.39,-1295 554.39,-217 554.39,-217 554.39,-211 560.39,-205 566.39,-205"/>
<text xml:space="preserve" text-anchor="middle" x="815.91" y="-1285" font-family="Segoe UI" font-size="20.00">Fund Ops</text>
</g>
<g id="clust3" class="cluster">
<title>cluster_section_3</title>
<path fill="#0f172a" stroke="#334155" d="M553.55,-8C553.55,-8 996.66,-8 996.66,-8 1002.66,-8 1008.66,-14 1008.66,-20 1008.66,-20 1008.66,-185 1008.66,-185 1008.66,-191 1002.66,-197 996.66,-197 996.66,-197 553.55,-197 553.55,-197 547.55,-197 541.55,-191 541.55,-185 541.55,-185 541.55,-20 541.55,-20 541.55,-14 547.55,-8 553.55,-8"/>
<text xml:space="preserve" text-anchor="middle" x="775.1" y="-175" font-family="Segoe UI" font-size="20.00">Run Inspectors</text>
</g>
<!-- generated -->
<g id="node1" class="node">
<title>generated</title>
<polygon fill="#1d4ed8" stroke="#60a5fa" points="196.6,-769.2 0,-769.2 0,-710.8 202.6,-710.8 202.6,-763.2 196.6,-769.2"/>
<polyline fill="none" stroke="#60a5fa" points="196.6,-769.2 196.6,-763.2"/>
<polyline fill="none" stroke="#60a5fa" points="202.6,-763.2 196.6,-763.2"/>
<text xml:space="preserve" text-anchor="middle" x="101.3" y="-752.6" font-family="Segoe UI" font-size="14.00" fill="#e2e8f0">Source fingerprint: e9fde73f85a5</text>
<text xml:space="preserve" text-anchor="middle" x="101.3" y="-735.8" font-family="Segoe UI" font-size="14.00" fill="#e2e8f0">Accounting screens: 16</text>
<text xml:space="preserve" text-anchor="middle" x="101.3" y="-719" font-family="Segoe UI" font-size="14.00" fill="#e2e8f0">Sections: 3</text>
</g>
<!-- workspace -->
<g id="node2" class="node">
<title>workspace</title>
<polygon fill="#0f766e" stroke="#2dd4bf" points="488.55,-760.8 485.55,-764.8 464.55,-764.8 461.55,-760.8 263.6,-760.8 263.6,-719.2 488.55,-719.2 488.55,-760.8"/>
<text xml:space="preserve" text-anchor="middle" x="376.07" y="-744.2" font-family="Segoe UI" font-size="14.00" fill="#e2e8f0">Accounting workspace</text>
<text xml:space="preserve" text-anchor="middle" x="376.07" y="-727.4" font-family="Segoe UI" font-size="14.00" fill="#e2e8f0">Primary 8 | Secondary 8 | Overflow 0</text>
</g>
<!-- generated&#45;&gt;workspace -->
<g id="edge1" class="edge">
<title>generated&#45;&gt;workspace</title>
<path fill="none" stroke="#38bdf8" stroke-width="1.2" d="M203.1,-740C219.77,-740 237.2,-740 254.3,-740"/>
<polygon fill="#38bdf8" stroke="#38bdf8" stroke-width="1.2" points="253.9,-742.63 261.4,-740 253.9,-737.38 253.9,-742.63"/>
</g>
<!-- section_1 -->
<g id="node3" class="node">
<title>section_1</title>
<polygon fill="#172554" stroke="#93c5fd" points="638.83,-1368.8 635.83,-1372.8 614.83,-1372.8 611.83,-1368.8 560.64,-1368.8 560.64,-1327.2 638.83,-1327.2 638.83,-1368.8"/>
<text xml:space="preserve" text-anchor="middle" x="599.74" y="-1352.2" font-family="Segoe UI" font-size="14.00" fill="#e2e8f0">Launchpad</text>
<text xml:space="preserve" text-anchor="middle" x="599.74" y="-1335.4" font-family="Segoe UI" font-size="14.00" fill="#e2e8f0">1 screens</text>
</g>
<!-- workspace&#45;&gt;section_1 -->
<g id="edge2" class="edge">
<title>workspace&#45;&gt;section_1</title>
<path fill="none" stroke="#94a3b8" stroke-width="1.2" d="M377.79,-761.15C381.5,-841.53 404.28,-1132.64 541.55,-1313 544.75,-1317.21 548.63,-1321.03 552.83,-1324.47"/>
<polygon fill="#94a3b8" stroke="#94a3b8" stroke-width="1.2" points="551.1,-1326.45 558.69,-1328.81 554.22,-1322.23 551.1,-1326.45"/>
</g>
<!-- section_2 -->
<g id="node5" class="node">
<title>section_2</title>
<polygon fill="#172554" stroke="#93c5fd" points="637.09,-760.8 634.09,-764.8 613.09,-764.8 610.09,-760.8 562.39,-760.8 562.39,-719.2 637.09,-719.2 637.09,-760.8"/>
<text xml:space="preserve" text-anchor="middle" x="599.74" y="-744.2" font-family="Segoe UI" font-size="14.00" fill="#e2e8f0">Fund Ops</text>
<text xml:space="preserve" text-anchor="middle" x="599.74" y="-727.4" font-family="Segoe UI" font-size="14.00" fill="#e2e8f0">13 screens</text>
</g>
<!-- workspace&#45;&gt;section_2 -->
<g id="edge4" class="edge">
<title>workspace&#45;&gt;section_2</title>
<path fill="none" stroke="#94a3b8" stroke-width="1.2" d="M488.88,-740C511.52,-740 534.11,-740 552.86,-740"/>
<polygon fill="#94a3b8" stroke="#94a3b8" stroke-width="1.2" points="552.71,-742.63 560.21,-740 552.71,-737.38 552.71,-742.63"/>
</g>
<!-- section_3 -->
<g id="node19" class="node">
<title>section_3</title>
<polygon fill="#172554" stroke="#93c5fd" points="649.92,-148.8 646.92,-152.8 625.92,-152.8 622.92,-148.8 549.55,-148.8 549.55,-107.2 649.92,-107.2 649.92,-148.8"/>
<text xml:space="preserve" text-anchor="middle" x="599.74" y="-132.2" font-family="Segoe UI" font-size="14.00" fill="#e2e8f0">Run Inspectors</text>
<text xml:space="preserve" text-anchor="middle" x="599.74" y="-115.4" font-family="Segoe UI" font-size="14.00" fill="#e2e8f0">2 screens</text>
</g>
<!-- workspace&#45;&gt;section_3 -->
<g id="edge18" class="edge">
<title>workspace&#45;&gt;section_3</title>
<path fill="none" stroke="#94a3b8" stroke-width="1.2" d="M380.51,-718.75C393.24,-643.9 442.16,-386.86 541.55,-199 549.65,-183.68 561.29,-168.47 571.95,-156.09"/>
<polygon fill="#94a3b8" stroke="#94a3b8" stroke-width="1.2" points="573.88,-157.86 576.88,-150.5 569.95,-154.39 573.88,-157.86"/>
</g>
<!-- screen_AccountingShell -->
<g id="node4" class="node">
<title>screen_AccountingShell</title>
<path fill="#1e293b" stroke="#475569" d="M1034.11,-1381.2C1034.11,-1381.2 746.24,-1381.2 746.24,-1381.2 740.24,-1381.2 734.24,-1375.2 734.24,-1369.2 734.24,-1369.2 734.24,-1334.8 734.24,-1334.8 734.24,-1328.8 740.24,-1322.8 746.24,-1322.8 746.24,-1322.8 1034.11,-1322.8 1034.11,-1322.8 1040.11,-1322.8 1046.11,-1328.8 1046.11,-1334.8 1046.11,-1334.8 1046.11,-1369.2 1046.11,-1369.2 1046.11,-1375.2 1040.11,-1381.2 1034.11,-1381.2"/>
<text xml:space="preserve" text-anchor="middle" x="890.18" y="-1364.6" font-family="Segoe UI" font-size="14.00" fill="#e2e8f0">Accounting Workspace</text>
<text xml:space="preserve" text-anchor="middle" x="890.18" y="-1347.8" font-family="Segoe UI" font-size="14.00" fill="#e2e8f0">AccountingShell → AccountingWorkspaceShellPage</text>
<text xml:space="preserve" text-anchor="middle" x="890.18" y="-1331" font-family="Segoe UI" font-size="14.00" fill="#e2e8f0">Primary | order 0</text>
</g>
<!-- section_1&#45;&gt;screen_AccountingShell -->
<g id="edge3" class="edge">
<title>section_1&#45;&gt;screen_AccountingShell</title>
<path fill="none" stroke="#94a3b8" stroke-width="1.2" d="M639.04,-1348.53C661.87,-1348.85 692.6,-1349.27 724.69,-1349.72"/>
<polygon fill="#94a3b8" stroke="#94a3b8" stroke-width="1.2" points="724.42,-1352.34 731.96,-1349.82 724.49,-1347.09 724.42,-1352.34"/>
</g>
<!-- screen_FundStructureSetup -->
<g id="node6" class="node">
<title>screen_FundStructureSetup</title>
<path fill="#1e293b" stroke="#475569" d="M1020.53,-271.2C1020.53,-271.2 759.83,-271.2 759.83,-271.2 753.83,-271.2 747.83,-265.2 747.83,-259.2 747.83,-259.2 747.83,-224.8 747.83,-224.8 747.83,-218.8 753.83,-212.8 759.83,-212.8 759.83,-212.8 1020.53,-212.8 1020.53,-212.8 1026.53,-212.8 1032.53,-218.8 1032.53,-224.8 1032.53,-224.8 1032.53,-259.2 1032.53,-259.2 1032.53,-265.2 1026.53,-271.2 1020.53,-271.2"/>
<text xml:space="preserve" text-anchor="middle" x="890.18" y="-254.6" font-family="Segoe UI" font-size="14.00" fill="#e2e8f0">Entity setup</text>
<text xml:space="preserve" text-anchor="middle" x="890.18" y="-237.8" font-family="Segoe UI" font-size="14.00" fill="#e2e8f0">FundStructureSetup → FundStructureSetupPage</text>
<text xml:space="preserve" text-anchor="middle" x="890.18" y="-221" font-family="Segoe UI" font-size="14.00" fill="#e2e8f0">Primary | order 5</text>
</g>
<!-- section_2&#45;&gt;screen_FundStructureSetup -->
<g id="edge5" class="edge">
<title>section_2&#45;&gt;screen_FundStructureSetup</title>
<path fill="none" stroke="#94a3b8" stroke-width="1.2" d="M602.9,-718.9C611.68,-637.6 647.18,-346.07 710.92,-283 719.29,-274.72 728.97,-267.98 739.4,-262.51"/>
<polygon fill="#94a3b8" stroke="#94a3b8" stroke-width="1.2" points="740.29,-265 745.88,-259.36 737.99,-260.28 740.29,-265"/>
</g>
<!-- screen_FundLedger -->
<g id="node7" class="node">
<title>screen_FundLedger</title>
<path fill="#1e293b" stroke="#475569" d="M976.96,-354.2C976.96,-354.2 803.39,-354.2 803.39,-354.2 797.39,-354.2 791.39,-348.2 791.39,-342.2 791.39,-342.2 791.39,-307.8 791.39,-307.8 791.39,-301.8 797.39,-295.8 803.39,-295.8 803.39,-295.8 976.96,-295.8 976.96,-295.8 982.96,-295.8 988.96,-301.8 988.96,-307.8 988.96,-307.8 988.96,-342.2 988.96,-342.2 988.96,-348.2 982.96,-354.2 976.96,-354.2"/>
<text xml:space="preserve" text-anchor="middle" x="890.18" y="-337.6" font-family="Segoe UI" font-size="14.00" fill="#e2e8f0">Fund operations</text>
<text xml:space="preserve" text-anchor="middle" x="890.18" y="-320.8" font-family="Segoe UI" font-size="14.00" fill="#e2e8f0">FundLedger → FundLedgerPage</text>
<text xml:space="preserve" text-anchor="middle" x="890.18" y="-304" font-family="Segoe UI" font-size="14.00" fill="#e2e8f0">Primary | order 10</text>
</g>
<!-- section_2&#45;&gt;screen_FundLedger -->
<g id="edge6" class="edge">
<title>section_2&#45;&gt;screen_FundLedger</title>
<path fill="none" stroke="#94a3b8" stroke-width="1.2" d="M600.12,-718.92C599.47,-655.39 606.68,-464.13 710.92,-366 730.35,-347.72 756.22,-337.02 782.21,-330.89"/>
<polygon fill="#94a3b8" stroke="#94a3b8" stroke-width="1.2" points="782.47,-333.52 789.25,-329.37 781.36,-328.39 782.47,-333.52"/>
</g>
<!-- screen_OperationsContinuity -->
<g id="node8" class="node">
<title>screen_OperationsContinuity</title>
<path fill="#1e293b" stroke="#475569" d="M1029.86,-437.2C1029.86,-437.2 750.5,-437.2 750.5,-437.2 744.5,-437.2 738.5,-431.2 738.5,-425.2 738.5,-425.2 738.5,-390.8 738.5,-390.8 738.5,-384.8 744.5,-378.8 750.5,-378.8 750.5,-378.8 1029.86,-378.8 1029.86,-378.8 1035.86,-378.8 1041.86,-384.8 1041.86,-390.8 1041.86,-390.8 1041.86,-425.2 1041.86,-425.2 1041.86,-431.2 1035.86,-437.2 1029.86,-437.2"/>
<text xml:space="preserve" text-anchor="middle" x="890.18" y="-420.6" font-family="Segoe UI" font-size="14.00" fill="#e2e8f0">Operations continuity</text>
<text xml:space="preserve" text-anchor="middle" x="890.18" y="-403.8" font-family="Segoe UI" font-size="14.00" fill="#e2e8f0">OperationsContinuity → OperationsContinuityPage</text>
<text xml:space="preserve" text-anchor="middle" x="890.18" y="-387" font-family="Segoe UI" font-size="14.00" fill="#e2e8f0">Primary | order 12</text>
</g>
<!-- section_2&#45;&gt;screen_OperationsContinuity -->
<g id="edge7" class="edge">
<title>section_2&#45;&gt;screen_OperationsContinuity</title>
<path fill="none" stroke="#94a3b8" stroke-width="1.2" d="M602.14,-719.02C606.92,-665.31 627.28,-521.99 710.92,-449 716.86,-443.82 723.31,-439.26 730.14,-435.25"/>
<polygon fill="#94a3b8" stroke="#94a3b8" stroke-width="1.2" points="731.39,-437.56 736.71,-431.66 728.87,-432.95 731.39,-437.56"/>
</g>
<!-- screen_PostedLedger -->
<g id="node9" class="node">
<title>screen_PostedLedger</title>
<path fill="#1e293b" stroke="#475569" d="M985.51,-520.2C985.51,-520.2 794.84,-520.2 794.84,-520.2 788.84,-520.2 782.84,-514.2 782.84,-508.2 782.84,-508.2 782.84,-473.8 782.84,-473.8 782.84,-467.8 788.84,-461.8 794.84,-461.8 794.84,-461.8 985.51,-461.8 985.51,-461.8 991.51,-461.8 997.51,-467.8 997.51,-473.8 997.51,-473.8 997.51,-508.2 997.51,-508.2 997.51,-514.2 991.51,-520.2 985.51,-520.2"/>
<text xml:space="preserve" text-anchor="middle" x="890.18" y="-503.6" font-family="Segoe UI" font-size="14.00" fill="#e2e8f0">Posted ledger</text>
<text xml:space="preserve" text-anchor="middle" x="890.18" y="-486.8" font-family="Segoe UI" font-size="14.00" fill="#e2e8f0">PostedLedger → PostedLedgerPage</text>
<text xml:space="preserve" text-anchor="middle" x="890.18" y="-470" font-family="Segoe UI" font-size="14.00" fill="#e2e8f0">Primary | order 62</text>
</g>
<!-- section_2&#45;&gt;screen_PostedLedger -->
<g id="edge8" class="edge">
<title>section_2&#45;&gt;screen_PostedLedger</title>
<path fill="none" stroke="#94a3b8" stroke-width="1.2" d="M605.67,-718.79C616.71,-676.3 647.56,-580.66 710.92,-532 729.16,-518 751.33,-508.64 773.76,-502.41"/>
<polygon fill="#94a3b8" stroke="#94a3b8" stroke-width="1.2" points="774.34,-504.97 780.94,-500.55 773.02,-499.89 774.34,-504.97"/>
</g>
<!-- screen_FundReconciliation -->
<g id="node10" class="node">
<title>screen_FundReconciliation</title>
<path fill="#1e293b" stroke="#475569" d="M997.96,-603.2C997.96,-603.2 782.39,-603.2 782.39,-603.2 776.39,-603.2 770.39,-597.2 770.39,-591.2 770.39,-591.2 770.39,-556.8 770.39,-556.8 770.39,-550.8 776.39,-544.8 782.39,-544.8 782.39,-544.8 997.96,-544.8 997.96,-544.8 1003.96,-544.8 1009.96,-550.8 1009.96,-556.8 1009.96,-556.8 1009.96,-591.2 1009.96,-591.2 1009.96,-597.2 1003.96,-603.2 997.96,-603.2"/>
<text xml:space="preserve" text-anchor="middle" x="890.18" y="-586.6" font-family="Segoe UI" font-size="14.00" fill="#e2e8f0">Fund reconciliation</text>
<text xml:space="preserve" text-anchor="middle" x="890.18" y="-569.8" font-family="Segoe UI" font-size="14.00" fill="#e2e8f0">FundReconciliation → FundLedgerPage</text>
<text xml:space="preserve" text-anchor="middle" x="890.18" y="-553" font-family="Segoe UI" font-size="14.00" fill="#e2e8f0">Primary | order 70</text>
</g>
<!-- section_2&#45;&gt;screen_FundReconciliation -->
<g id="edge9" class="edge">
<title>section_2&#45;&gt;screen_FundReconciliation</title>
<path fill="none" stroke="#94a3b8" stroke-width="1.2" d="M613.17,-719.12C631.1,-690.93 666.93,-641.2 710.92,-615 726.4,-605.78 743.77,-598.64 761.43,-593.1"/>
<polygon fill="#94a3b8" stroke="#94a3b8" stroke-width="1.2" points="761.94,-595.69 768.37,-591.03 760.44,-590.66 761.94,-595.69"/>
</g>
<!-- screen_FundBanking -->
<g id="node11" class="node">
<title>screen_FundBanking</title>
<path fill="#312e81" stroke="#475569" d="M980.86,-686.2C980.86,-686.2 799.49,-686.2 799.49,-686.2 793.49,-686.2 787.49,-680.2 787.49,-674.2 787.49,-674.2 787.49,-639.8 787.49,-639.8 787.49,-633.8 793.49,-627.8 799.49,-627.8 799.49,-627.8 980.86,-627.8 980.86,-627.8 986.86,-627.8 992.86,-633.8 992.86,-639.8 992.86,-639.8 992.86,-674.2 992.86,-674.2 992.86,-680.2 986.86,-686.2 980.86,-686.2"/>
<text xml:space="preserve" text-anchor="middle" x="890.18" y="-669.6" font-family="Segoe UI" font-size="14.00" fill="#e2e8f0">Fund banking</text>
<text xml:space="preserve" text-anchor="middle" x="890.18" y="-652.8" font-family="Segoe UI" font-size="14.00" fill="#e2e8f0">FundBanking → FundLedgerPage</text>
<text xml:space="preserve" text-anchor="middle" x="890.18" y="-636" font-family="Segoe UI" font-size="14.00" fill="#e2e8f0">Secondary | order 40</text>
</g>
<!-- section_2&#45;&gt;screen_FundBanking -->
<g id="edge10" class="edge">
<title>section_2&#45;&gt;screen_FundBanking</title>
<path fill="none" stroke="#94a3b8" stroke-width="1.2" d="M637.53,-724.51C658.74,-715.96 686.05,-705.56 710.92,-698 732.52,-691.44 755.86,-685.36 778.31,-680"/>
<polygon fill="#94a3b8" stroke="#94a3b8" stroke-width="1.2" points="778.73,-682.6 785.43,-678.32 777.53,-677.49 778.73,-682.6"/>
</g>
<!-- screen_FundCashFinancing -->
<g id="node12" class="node">
<title>screen_FundCashFinancing</title>
<path fill="#312e81" stroke="#475569" d="M999.14,-769.2C999.14,-769.2 781.22,-769.2 781.22,-769.2 775.22,-769.2 769.22,-763.2 769.22,-757.2 769.22,-757.2 769.22,-722.8 769.22,-722.8 769.22,-716.8 775.22,-710.8 781.22,-710.8 781.22,-710.8 999.14,-710.8 999.14,-710.8 1005.14,-710.8 1011.14,-716.8 1011.14,-722.8 1011.14,-722.8 1011.14,-757.2 1011.14,-757.2 1011.14,-763.2 1005.14,-769.2 999.14,-769.2"/>
<text xml:space="preserve" text-anchor="middle" x="890.18" y="-752.6" font-family="Segoe UI" font-size="14.00" fill="#e2e8f0">Fund cash and financing</text>
<text xml:space="preserve" text-anchor="middle" x="890.18" y="-735.8" font-family="Segoe UI" font-size="14.00" fill="#e2e8f0">FundCashFinancing → FundLedgerPage</text>
<text xml:space="preserve" text-anchor="middle" x="890.18" y="-719" font-family="Segoe UI" font-size="14.00" fill="#e2e8f0">Secondary | order 50</text>
</g>
<!-- section_2&#45;&gt;screen_FundCashFinancing -->
<g id="edge11" class="edge">
<title>section_2&#45;&gt;screen_FundCashFinancing</title>
<path fill="none" stroke="#94a3b8" stroke-width="1.2" d="M637.56,-740C668.68,-740 715.18,-740 759.78,-740"/>
<polygon fill="#94a3b8" stroke="#94a3b8" stroke-width="1.2" points="759.65,-742.63 767.15,-740 759.65,-737.38 759.65,-742.63"/>
</g>
<!-- screen_FundAccountingConfigure -->
<g id="node13" class="node">
<title>screen_FundAccountingConfigure</title>
<path fill="#312e81" stroke="#475569" d="M1045.01,-852.2C1045.01,-852.2 735.34,-852.2 735.34,-852.2 729.34,-852.2 723.34,-846.2 723.34,-840.2 723.34,-840.2 723.34,-805.8 723.34,-805.8 723.34,-799.8 729.34,-793.8 735.34,-793.8 735.34,-793.8 1045.01,-793.8 1045.01,-793.8 1051.01,-793.8 1057.01,-799.8 1057.01,-805.8 1057.01,-805.8 1057.01,-840.2 1057.01,-840.2 1057.01,-846.2 1051.01,-852.2 1045.01,-852.2"/>
<text xml:space="preserve" text-anchor="middle" x="890.18" y="-835.6" font-family="Segoe UI" font-size="14.00" fill="#e2e8f0">Accounting configure</text>
<text xml:space="preserve" text-anchor="middle" x="890.18" y="-818.8" font-family="Segoe UI" font-size="14.00" fill="#e2e8f0">FundAccountingConfigure → AccountingConfigurePage</text>
<text xml:space="preserve" text-anchor="middle" x="890.18" y="-802" font-family="Segoe UI" font-size="14.00" fill="#e2e8f0">Secondary | order 55</text>
</g>
<!-- section_2&#45;&gt;screen_FundAccountingConfigure -->
<g id="edge12" class="edge">
<title>section_2&#45;&gt;screen_FundAccountingConfigure</title>
<path fill="none" stroke="#94a3b8" stroke-width="1.2" d="M637.53,-755.49C658.74,-764.04 686.05,-774.44 710.92,-782 721.23,-785.13 731.94,-788.16 742.76,-791.04"/>
<polygon fill="#94a3b8" stroke="#94a3b8" stroke-width="1.2" points="741.78,-793.5 749.7,-792.87 743.11,-788.42 741.78,-793.5"/>
</g>
<!-- screen_FundAccountingClose -->
<g id="node14" class="node">
<title>screen_FundAccountingClose</title>
<path fill="#312e81" stroke="#475569" d="M1020.13,-935.2C1020.13,-935.2 760.22,-935.2 760.22,-935.2 754.22,-935.2 748.22,-929.2 748.22,-923.2 748.22,-923.2 748.22,-888.8 748.22,-888.8 748.22,-882.8 754.22,-876.8 760.22,-876.8 760.22,-876.8 1020.13,-876.8 1020.13,-876.8 1026.13,-876.8 1032.13,-882.8 1032.13,-888.8 1032.13,-888.8 1032.13,-923.2 1032.13,-923.2 1032.13,-929.2 1026.13,-935.2 1020.13,-935.2"/>
<text xml:space="preserve" text-anchor="middle" x="890.18" y="-918.6" font-family="Segoe UI" font-size="14.00" fill="#e2e8f0">Accounting close</text>
<text xml:space="preserve" text-anchor="middle" x="890.18" y="-901.8" font-family="Segoe UI" font-size="14.00" fill="#e2e8f0">FundAccountingClose → AccountingClosePage</text>
<text xml:space="preserve" text-anchor="middle" x="890.18" y="-885" font-family="Segoe UI" font-size="14.00" fill="#e2e8f0">Secondary | order 57</text>
</g>
<!-- section_2&#45;&gt;screen_FundAccountingClose -->
<g id="edge13" class="edge">
<title>section_2&#45;&gt;screen_FundAccountingClose</title>
<path fill="none" stroke="#94a3b8" stroke-width="1.2" d="M613.17,-760.88C631.1,-789.07 666.93,-838.8 710.92,-865 719.88,-870.33 729.46,-874.97 739.37,-879.01"/>
<polygon fill="#94a3b8" stroke="#94a3b8" stroke-width="1.2" points="738.13,-881.34 746.07,-881.6 740.02,-876.44 738.13,-881.34"/>
</g>
<!-- screen_FundTrialBalance -->
<g id="node15" class="node">
<title>screen_FundTrialBalance</title>
<path fill="#312e81" stroke="#475569" d="M993.29,-1018.2C993.29,-1018.2 787.07,-1018.2 787.07,-1018.2 781.07,-1018.2 775.07,-1012.2 775.07,-1006.2 775.07,-1006.2 775.07,-971.8 775.07,-971.8 775.07,-965.8 781.07,-959.8 787.07,-959.8 787.07,-959.8 993.29,-959.8 993.29,-959.8 999.29,-959.8 1005.29,-965.8 1005.29,-971.8 1005.29,-971.8 1005.29,-1006.2 1005.29,-1006.2 1005.29,-1012.2 999.29,-1018.2 993.29,-1018.2"/>
<text xml:space="preserve" text-anchor="middle" x="890.18" y="-1001.6" font-family="Segoe UI" font-size="14.00" fill="#e2e8f0">Fund trial balance</text>
<text xml:space="preserve" text-anchor="middle" x="890.18" y="-984.8" font-family="Segoe UI" font-size="14.00" fill="#e2e8f0">FundTrialBalance → FundLedgerPage</text>
<text xml:space="preserve" text-anchor="middle" x="890.18" y="-968" font-family="Segoe UI" font-size="14.00" fill="#e2e8f0">Secondary | order 60</text>
</g>
<!-- section_2&#45;&gt;screen_FundTrialBalance -->
<g id="edge14" class="edge">
<title>section_2&#45;&gt;screen_FundTrialBalance</title>
<path fill="none" stroke="#94a3b8" stroke-width="1.2" d="M605.67,-761.21C616.71,-803.7 647.56,-899.34 710.92,-948 727.05,-960.38 746.26,-969.14 766,-975.3"/>
<polygon fill="#94a3b8" stroke="#94a3b8" stroke-width="1.2" points="765.11,-977.78 773.05,-977.36 766.59,-972.74 765.11,-977.78"/>
</g>
<!-- screen_LedgerExplorer -->
<g id="node16" class="node">
<title>screen_LedgerExplorer</title>
<path fill="#312e81" stroke="#475569" d="M1023.6,-1101.2C1023.6,-1101.2 756.76,-1101.2 756.76,-1101.2 750.76,-1101.2 744.76,-1095.2 744.76,-1089.2 744.76,-1089.2 744.76,-1054.8 744.76,-1054.8 744.76,-1048.8 750.76,-1042.8 756.76,-1042.8 756.76,-1042.8 1023.6,-1042.8 1023.6,-1042.8 1029.6,-1042.8 1035.6,-1048.8 1035.6,-1054.8 1035.6,-1054.8 1035.6,-1089.2 1035.6,-1089.2 1035.6,-1095.2 1029.6,-1101.2 1023.6,-1101.2"/>
<text xml:space="preserve" text-anchor="middle" x="890.18" y="-1084.6" font-family="Segoe UI" font-size="14.00" fill="#e2e8f0">Ledger explorer</text>
<text xml:space="preserve" text-anchor="middle" x="890.18" y="-1067.8" font-family="Segoe UI" font-size="14.00" fill="#e2e8f0">LedgerExplorer → FinancialRecordExplorerPage</text>
<text xml:space="preserve" text-anchor="middle" x="890.18" y="-1051" font-family="Segoe UI" font-size="14.00" fill="#e2e8f0">Secondary | order 65</text>
</g>
<!-- section_2&#45;&gt;screen_LedgerExplorer -->
<g id="edge15" class="edge">
<title>section_2&#45;&gt;screen_LedgerExplorer</title>
<path fill="none" stroke="#94a3b8" stroke-width="1.2" d="M602.14,-760.98C606.92,-814.69 627.28,-958.01 710.92,-1031 718.6,-1037.7 727.16,-1043.37 736.25,-1048.15"/>
<polygon fill="#94a3b8" stroke="#94a3b8" stroke-width="1.2" points="734.85,-1050.39 742.74,-1051.33 737.16,-1045.67 734.85,-1050.39"/>
</g>
<!-- screen_FundAuditTrail -->
<g id="node17" class="node">
<title>screen_FundAuditTrail</title>
<path fill="#312e81" stroke="#475569" d="M986.69,-1184.2C986.69,-1184.2 793.67,-1184.2 793.67,-1184.2 787.67,-1184.2 781.67,-1178.2 781.67,-1172.2 781.67,-1172.2 781.67,-1137.8 781.67,-1137.8 781.67,-1131.8 787.67,-1125.8 793.67,-1125.8 793.67,-1125.8 986.69,-1125.8 986.69,-1125.8 992.69,-1125.8 998.69,-1131.8 998.69,-1137.8 998.69,-1137.8 998.69,-1172.2 998.69,-1172.2 998.69,-1178.2 992.69,-1184.2 986.69,-1184.2"/>
<text xml:space="preserve" text-anchor="middle" x="890.18" y="-1167.6" font-family="Segoe UI" font-size="14.00" fill="#e2e8f0">Fund audit trail</text>
<text xml:space="preserve" text-anchor="middle" x="890.18" y="-1150.8" font-family="Segoe UI" font-size="14.00" fill="#e2e8f0">FundAuditTrail → FundLedgerPage</text>
<text xml:space="preserve" text-anchor="middle" x="890.18" y="-1134" font-family="Segoe UI" font-size="14.00" fill="#e2e8f0">Secondary | order 80</text>
</g>
<!-- section_2&#45;&gt;screen_FundAuditTrail -->
<g id="edge16" class="edge">
<title>section_2&#45;&gt;screen_FundAuditTrail</title>
<path fill="none" stroke="#94a3b8" stroke-width="1.2" d="M600.12,-761.08C599.47,-824.61 606.68,-1015.87 710.92,-1114 727.87,-1129.95 749.71,-1140.13 772.27,-1146.53"/>
<polygon fill="#94a3b8" stroke="#94a3b8" stroke-width="1.2" points="771.6,-1149.07 779.52,-1148.43 772.93,-1143.99 771.6,-1149.07"/>
</g>
<!-- screen_SecurityInstrumentExplorer -->
<g id="node18" class="node">
<title>screen_SecurityInstrumentExplorer</title>
<path fill="#312e81" stroke="#475569" d="M1057.43,-1267.2C1057.43,-1267.2 722.92,-1267.2 722.92,-1267.2 716.92,-1267.2 710.92,-1261.2 710.92,-1255.2 710.92,-1255.2 710.92,-1220.8 710.92,-1220.8 710.92,-1214.8 716.92,-1208.8 722.92,-1208.8 722.92,-1208.8 1057.43,-1208.8 1057.43,-1208.8 1063.43,-1208.8 1069.43,-1214.8 1069.43,-1220.8 1069.43,-1220.8 1069.43,-1255.2 1069.43,-1255.2 1069.43,-1261.2 1063.43,-1267.2 1057.43,-1267.2"/>
<text xml:space="preserve" text-anchor="middle" x="890.18" y="-1250.6" font-family="Segoe UI" font-size="14.00" fill="#e2e8f0">Security and instrument explorer</text>
<text xml:space="preserve" text-anchor="middle" x="890.18" y="-1233.8" font-family="Segoe UI" font-size="14.00" fill="#e2e8f0">SecurityInstrumentExplorer → FinancialRecordExplorerPage</text>
<text xml:space="preserve" text-anchor="middle" x="890.18" y="-1217" font-family="Segoe UI" font-size="14.00" fill="#e2e8f0">Secondary | order 90</text>
</g>
<!-- section_2&#45;&gt;screen_SecurityInstrumentExplorer -->
<g id="edge17" class="edge">
<title>section_2&#45;&gt;screen_SecurityInstrumentExplorer</title>
<path fill="none" stroke="#94a3b8" stroke-width="1.2" d="M602.9,-761.1C611.68,-842.4 647.18,-1133.93 710.92,-1197 713.07,-1199.12 715.3,-1201.14 717.61,-1203.07"/>
<polygon fill="#94a3b8" stroke="#94a3b8" stroke-width="1.2" points="715.76,-1204.96 723.31,-1207.45 718.96,-1200.8 715.76,-1204.96"/>
</g>
<!-- screen_RunLedger -->
<g id="node20" class="node">
<title>screen_RunLedger</title>
<path fill="#1e293b" stroke="#475569" d="M971.51,-74.2C971.51,-74.2 808.84,-74.2 808.84,-74.2 802.84,-74.2 796.84,-68.2 796.84,-62.2 796.84,-62.2 796.84,-27.8 796.84,-27.8 796.84,-21.8 802.84,-15.8 808.84,-15.8 808.84,-15.8 971.51,-15.8 971.51,-15.8 977.51,-15.8 983.51,-21.8 983.51,-27.8 983.51,-27.8 983.51,-62.2 983.51,-62.2 983.51,-68.2 977.51,-74.2 971.51,-74.2"/>
<text xml:space="preserve" text-anchor="middle" x="890.18" y="-57.6" font-family="Segoe UI" font-size="14.00" fill="#e2e8f0">Run ledger</text>
<text xml:space="preserve" text-anchor="middle" x="890.18" y="-40.8" font-family="Segoe UI" font-size="14.00" fill="#e2e8f0">RunLedger → RunLedgerPage</text>
<text xml:space="preserve" text-anchor="middle" x="890.18" y="-24" font-family="Segoe UI" font-size="14.00" fill="#e2e8f0">Primary | order 20</text>
</g>
<!-- section_3&#45;&gt;screen_RunLedger -->
<g id="edge19" class="edge">
<title>section_3&#45;&gt;screen_RunLedger</title>
<path fill="none" stroke="#94a3b8" stroke-width="1.2" d="M650.42,-107.39C669.18,-100.05 690.85,-92.1 710.92,-86 735.52,-78.52 762.39,-71.67 787.63,-65.81"/>
<polygon fill="#94a3b8" stroke="#94a3b8" stroke-width="1.2" points="787.99,-68.42 794.71,-64.18 786.81,-63.3 787.99,-68.42"/>
</g>
<!-- screen_RunCashFlow -->
<g id="node21" class="node">
<title>screen_RunCashFlow</title>
<path fill="#1e293b" stroke="#475569" d="M988.66,-157.2C988.66,-157.2 791.7,-157.2 791.7,-157.2 785.7,-157.2 779.7,-151.2 779.7,-145.2 779.7,-145.2 779.7,-110.8 779.7,-110.8 779.7,-104.8 785.7,-98.8 791.7,-98.8 791.7,-98.8 988.66,-98.8 988.66,-98.8 994.66,-98.8 1000.66,-104.8 1000.66,-110.8 1000.66,-110.8 1000.66,-145.2 1000.66,-145.2 1000.66,-151.2 994.66,-157.2 988.66,-157.2"/>
<text xml:space="preserve" text-anchor="middle" x="890.18" y="-140.6" font-family="Segoe UI" font-size="14.00" fill="#e2e8f0">Run cash flow</text>
<text xml:space="preserve" text-anchor="middle" x="890.18" y="-123.8" font-family="Segoe UI" font-size="14.00" fill="#e2e8f0">RunCashFlow → RunCashFlowPage</text>
<text xml:space="preserve" text-anchor="middle" x="890.18" y="-107" font-family="Segoe UI" font-size="14.00" fill="#e2e8f0">Primary | order 30</text>
</g>
<!-- section_3&#45;&gt;screen_RunCashFlow -->
<g id="edge20" class="edge">
<title>section_3&#45;&gt;screen_RunCashFlow</title>
<path fill="none" stroke="#94a3b8" stroke-width="1.2" d="M650.32,-128C683.33,-128 728.19,-128 770.12,-128"/>
<polygon fill="#94a3b8" stroke="#94a3b8" stroke-width="1.2" points="769.98,-130.63 777.48,-128 769.98,-125.38 769.98,-130.63"/>
</g>
</g>
</svg>
