<?xml version="1.0" encoding="UTF-8" standalone="no"?>
<!DOCTYPE svg PUBLIC "-//W3C//DTD SVG 1.1//EN"
 "http://www.w3.org/Graphics/SVG/1.1/DTD/svg11.dtd">
<!-- Generated by graphviz version 14.1.3 (20260303.0454)
 -->
<!-- Title: WorkstationDelivery Pages: 1 -->
<svg width="2103pt" height="612pt"
 viewBox="0.00 0.00 2103.00 612.00" xmlns="http://www.w3.org/2000/svg" xmlns:xlink="http://www.w3.org/1999/xlink">
<g id="graph0" class="graph" transform="scale(1 1) rotate(0) translate(36 575.8)">
<title>WorkstationDelivery</title>
<polygon fill="white" stroke="none" points="-36,36 -36,-575.8 2067.23,-575.8 2067.23,36 -36,36"/>
<text xml:space="preserve" text-anchor="middle" x="1015.61" y="-525" font-family="Helvetica,sans-Serif" font-size="12.00">Meridian &#45; Workstation Delivery</text>
<text xml:space="preserve" text-anchor="middle" x="1015.61" y="-510.6" font-family="Helvetica,sans-Serif" font-size="12.00">Shared read models across WPF and web workstation surfaces | v1.8.x</text>
<g id="clust1" class="cluster">
<title>cluster_surfaces</title>
<path fill="#faf5ff" stroke="#805ad5" d="M20,-95C20,-95 406.44,-95 406.44,-95 412.44,-95 418.44,-101 418.44,-107 418.44,-107 418.44,-239 418.44,-239 418.44,-245 412.44,-251 406.44,-251 406.44,-251 20,-251 20,-251 14,-251 8,-245 8,-239 8,-239 8,-107 8,-107 8,-101 14,-95 20,-95"/>
<text xml:space="preserve" text-anchor="middle" x="213.22" y="-236.2" font-family="Helvetica,sans-Serif" font-size="12.00">Operator Surfaces</text>
</g>
<g id="clust2" class="cluster">
<title>cluster_delivery</title>
<path fill="#dbeafe" stroke="#2b6cb0" d="M500.97,-67C500.97,-67 1770.09,-67 1770.09,-67 1776.09,-67 1782.09,-73 1782.09,-79 1782.09,-79 1782.09,-273 1782.09,-273 1782.09,-279 1776.09,-285 1770.09,-285 1770.09,-285 500.97,-285 500.97,-285 494.97,-285 488.97,-279 488.97,-273 488.97,-273 488.97,-79 488.97,-79 488.97,-73 494.97,-67 500.97,-67"/>
<text xml:space="preserve" text-anchor="middle" x="1135.53" y="-270.2" font-family="Helvetica,sans-Serif" font-size="12.00">Shared Delivery Services</text>
</g>
<g id="clust3" class="cluster">
<title>cluster_state</title>
<path fill="#fff5f5" stroke="#c53030" d="M1882.63,-17C1882.63,-17 2011.23,-17 2011.23,-17 2017.23,-17 2023.23,-23 2023.23,-29 2023.23,-29 2023.23,-149 2023.23,-149 2023.23,-155 2017.23,-161 2011.23,-161 2011.23,-161 1882.63,-161 1882.63,-161 1876.63,-161 1870.63,-155 1870.63,-149 1870.63,-149 1870.63,-29 1870.63,-29 1870.63,-23 1876.63,-17 1882.63,-17"/>
<text xml:space="preserve" text-anchor="middle" x="1946.93" y="-146.2" font-family="Helvetica,sans-Serif" font-size="12.00">Shared State</text>
</g>
<g id="clust4" class="cluster">
<title>cluster_legend</title>
<path fill="#fafafa" stroke="#666666" d="M44.45,-259C44.45,-259 153.63,-259 153.63,-259 159.63,-259 165.63,-265 165.63,-271 165.63,-271 165.63,-483 165.63,-483 165.63,-489 159.63,-495 153.63,-495 153.63,-495 44.45,-495 44.45,-495 38.45,-495 32.45,-489 32.45,-483 32.45,-483 32.45,-271 32.45,-271 32.45,-265 38.45,-259 44.45,-259"/>
<text xml:space="preserve" text-anchor="middle" x="99.04" y="-480.2" font-family="Helvetica,sans-Serif" font-size="12.00">Legend</text>
</g>
<!-- WPF_SURFACES -->
<g id="node1" class="node">
<title>WPF_SURFACES</title>
<path fill="#805ad5" stroke="black" d="M170.08,-159C170.08,-159 28,-159 28,-159 22,-159 16,-153 16,-147 16,-147 16,-115 16,-115 16,-109 22,-103 28,-103 28,-103 170.08,-103 170.08,-103 176.08,-103 182.08,-109 182.08,-115 182.08,-115 182.08,-147 182.08,-147 182.08,-153 176.08,-159 170.08,-159"/>
<text xml:space="preserve" text-anchor="middle" x="99.04" y="-146" font-family="Helvetica,sans-Serif" font-size="10.00" fill="white">Meridian.Wpf</text>
<text xml:space="preserve" text-anchor="middle" x="99.04" y="-134" font-family="Helvetica,sans-Serif" font-size="10.00" fill="white">ResearchWorkspaceShellPage</text>
<text xml:space="preserve" text-anchor="middle" x="99.04" y="-122" font-family="Helvetica,sans-Serif" font-size="10.00" fill="white">TradingWorkspaceShellPage</text>
<text xml:space="preserve" text-anchor="middle" x="99.04" y="-110" font-family="Helvetica,sans-Serif" font-size="10.00" fill="white">GovernanceWorkspaceShellPage</text>
</g>
<!-- WPF_WORKSPACE -->
<g id="node4" class="node">
<title>WPF_WORKSPACE</title>
<path fill="#bfdbfe" stroke="black" d="M645.77,-149C645.77,-149 508.97,-149 508.97,-149 502.97,-149 496.97,-143 496.97,-137 496.97,-137 496.97,-117 496.97,-117 496.97,-111 502.97,-105 508.97,-105 508.97,-105 645.77,-105 645.77,-105 651.77,-105 657.77,-111 657.77,-117 657.77,-117 657.77,-137 657.77,-137 657.77,-143 651.77,-149 645.77,-149"/>
<text xml:space="preserve" text-anchor="middle" x="577.37" y="-136" font-family="Helvetica,sans-Serif" font-size="10.00">StrategyRunWorkspaceService</text>
<text xml:space="preserve" text-anchor="middle" x="577.37" y="-124" font-family="Helvetica,sans-Serif" font-size="10.00">active run context</text>
<text xml:space="preserve" text-anchor="middle" x="577.37" y="-112" font-family="Helvetica,sans-Serif" font-size="10.00">run browser + promotion handoff</text>
</g>
<!-- WPF_SURFACES&#45;&gt;WPF_WORKSPACE -->
<g id="edge1" class="edge">
<title>WPF_SURFACES&#45;&gt;WPF_WORKSPACE</title>
<path fill="none" stroke="#4a5568" d="M182.47,-130.31C266.82,-129.6 397.58,-128.5 485.03,-127.77"/>
<polygon fill="#4a5568" stroke="#4a5568" points="485.05,-131.27 495.02,-127.68 484.99,-124.27 485.05,-131.27"/>
<text xml:space="preserve" text-anchor="middle" x="337.27" y="-132.29" font-family="Helvetica,sans-Serif" font-size="9.00">desktop pages</text>
</g>
<!-- WEB_SHELL -->
<g id="node2" class="node">
<title>WEB_SHELL</title>
<path fill="#805ad5" stroke="black" d="M153.82,-221C153.82,-221 44.26,-221 44.26,-221 38.26,-221 32.26,-215 32.26,-209 32.26,-209 32.26,-189 32.26,-189 32.26,-183 38.26,-177 44.26,-177 44.26,-177 153.82,-177 153.82,-177 159.82,-177 165.82,-183 165.82,-189 165.82,-189 165.82,-209 165.82,-209 165.82,-215 159.82,-221 153.82,-221"/>
<text xml:space="preserve" text-anchor="middle" x="99.04" y="-208" font-family="Helvetica,sans-Serif" font-size="10.00" fill="white">React workstation shell</text>
<text xml:space="preserve" text-anchor="middle" x="99.04" y="-196" font-family="Helvetica,sans-Serif" font-size="10.00" fill="white">/workstation</text>
<text xml:space="preserve" text-anchor="middle" x="99.04" y="-184" font-family="Helvetica,sans-Serif" font-size="10.00" fill="white">bootstrap + drill&#45;in screens</text>
</g>
<!-- API_SURFACE -->
<g id="node3" class="node">
<title>API_SURFACE</title>
<path fill="#c4b5fd" stroke="black" d="M398.44,-221C398.44,-221 276.1,-221 276.1,-221 270.1,-221 264.1,-215 264.1,-209 264.1,-209 264.1,-177 264.1,-177 264.1,-171 270.1,-165 276.1,-165 276.1,-165 398.44,-165 398.44,-165 404.44,-165 410.44,-171 410.44,-177 410.44,-177 410.44,-209 410.44,-209 410.44,-215 404.44,-221 398.44,-221"/>
<text xml:space="preserve" text-anchor="middle" x="337.27" y="-208" font-family="Helvetica,sans-Serif" font-size="10.00">Workstation + portfolio routes</text>
<text xml:space="preserve" text-anchor="middle" x="337.27" y="-196" font-family="Helvetica,sans-Serif" font-size="10.00">/api/workstation/*</text>
<text xml:space="preserve" text-anchor="middle" x="337.27" y="-184" font-family="Helvetica,sans-Serif" font-size="10.00">/api/portfolio/*</text>
<text xml:space="preserve" text-anchor="middle" x="337.27" y="-172" font-family="Helvetica,sans-Serif" font-size="10.00">/api/strategies/*</text>
</g>
<!-- WEB_SHELL&#45;&gt;API_SURFACE -->
<g id="edge2" class="edge">
<title>WEB_SHELL&#45;&gt;API_SURFACE</title>
<path fill="none" stroke="#4a5568" d="M166.16,-197.32C193.03,-196.64 224.38,-195.84 252.8,-195.12"/>
<polygon fill="#4a5568" stroke="#4a5568" points="252.53,-198.63 262.44,-194.88 252.35,-191.63 252.53,-198.63"/>
<text xml:space="preserve" text-anchor="middle" x="223.09" y="-199.06" font-family="Helvetica,sans-Serif" font-size="9.00">XHR / fetch</text>
</g>
<!-- WORKSTATION_ENDPOINTS -->
<g id="node5" class="node">
<title>WORKSTATION_ENDPOINTS</title>
<path fill="#93c5fd" stroke="black" d="M640.62,-223C640.62,-223 514.12,-223 514.12,-223 508.12,-223 502.12,-217 502.12,-211 502.12,-211 502.12,-179 502.12,-179 502.12,-173 508.12,-167 514.12,-167 514.12,-167 640.62,-167 640.62,-167 646.62,-167 652.62,-173 652.62,-179 652.62,-179 652.62,-211 652.62,-211 652.62,-217 646.62,-223 640.62,-223"/>
<text xml:space="preserve" text-anchor="middle" x="577.37" y="-210" font-family="Helvetica,sans-Serif" font-size="10.00">WorkstationEndpoints</text>
<text xml:space="preserve" text-anchor="middle" x="577.37" y="-198" font-family="Helvetica,sans-Serif" font-size="10.00">session / research / trading</text>
<text xml:space="preserve" text-anchor="middle" x="577.37" y="-186" font-family="Helvetica,sans-Serif" font-size="10.00">ledger / fills / attribution</text>
<text xml:space="preserve" text-anchor="middle" x="577.37" y="-174" font-family="Helvetica,sans-Serif" font-size="10.00">security master / reconciliation</text>
</g>
<!-- API_SURFACE&#45;&gt;WORKSTATION_ENDPOINTS -->
<g id="edge3" class="edge">
<title>API_SURFACE&#45;&gt;WORKSTATION_ENDPOINTS</title>
<path fill="none" stroke="#4a5568" d="M410.68,-193.61C435.82,-193.82 464.27,-194.06 490.4,-194.28"/>
<polygon fill="#4a5568" stroke="#4a5568" points="490.29,-197.78 500.32,-194.36 490.35,-190.78 490.29,-197.78"/>
<text xml:space="preserve" text-anchor="middle" x="453.7" y="-196.88" font-family="Helvetica,sans-Serif" font-size="9.00">route groups</text>
</g>
<!-- RUN_READ -->
<g id="node6" class="node">
<title>RUN_READ</title>
<path fill="#bfdbfe" stroke="black" d="M919.65,-173C919.65,-173 794.82,-173 794.82,-173 788.82,-173 782.82,-167 782.82,-161 782.82,-161 782.82,-141 782.82,-141 782.82,-135 788.82,-129 794.82,-129 794.82,-129 919.65,-129 919.65,-129 925.65,-129 931.65,-135 931.65,-141 931.65,-141 931.65,-161 931.65,-161 931.65,-167 925.65,-173 919.65,-173"/>
<text xml:space="preserve" text-anchor="middle" x="857.23" y="-160" font-family="Helvetica,sans-Serif" font-size="10.00">StrategyRunReadService</text>
<text xml:space="preserve" text-anchor="middle" x="857.23" y="-148" font-family="Helvetica,sans-Serif" font-size="10.00">summary, detail, equity curve,</text>
<text xml:space="preserve" text-anchor="middle" x="857.23" y="-136" font-family="Helvetica,sans-Serif" font-size="10.00">fills, attribution</text>
</g>
<!-- WPF_WORKSPACE&#45;&gt;RUN_READ -->
<g id="edge4" class="edge">
<title>WPF_WORKSPACE&#45;&gt;RUN_READ</title>
<path fill="none" stroke="#4a5568" d="M658.1,-123.66C689.85,-123.33 726.66,-124.22 759.81,-128.2 763.64,-128.66 767.54,-129.21 771.47,-129.84"/>
<polygon fill="#4a5568" stroke="#4a5568" points="770.63,-133.25 781.08,-131.53 771.84,-126.35 770.63,-133.25"/>
<text xml:space="preserve" text-anchor="middle" x="717.79" y="-130.9" font-family="Helvetica,sans-Serif" font-size="9.00">desktop drill&#45;ins</text>
</g>
<!-- CASH_FLOW -->
<g id="node9" class="node">
<title>CASH_FLOW</title>
<path fill="#dbeafe" stroke="black" d="M916.33,-111C916.33,-111 798.14,-111 798.14,-111 792.14,-111 786.14,-105 786.14,-99 786.14,-99 786.14,-87 786.14,-87 786.14,-81 792.14,-75 798.14,-75 798.14,-75 916.33,-75 916.33,-75 922.33,-75 928.33,-81 928.33,-87 928.33,-87 928.33,-99 928.33,-99 928.33,-105 922.33,-111 916.33,-111"/>
<text xml:space="preserve" text-anchor="middle" x="857.23" y="-96" font-family="Helvetica,sans-Serif" font-size="10.00">CashFlowProjectionService</text>
<text xml:space="preserve" text-anchor="middle" x="857.23" y="-84" font-family="Helvetica,sans-Serif" font-size="10.00">cash ladder / bucketed flows</text>
</g>
<!-- WPF_WORKSPACE&#45;&gt;CASH_FLOW -->
<g id="edge5" class="edge">
<title>WPF_WORKSPACE&#45;&gt;CASH_FLOW</title>
<path fill="none" stroke="#4a5568" d="M658.01,-111.84C664.01,-110.88 669.98,-109.99 675.77,-109.2 707.97,-104.82 743.58,-101.34 774.59,-98.74"/>
<polygon fill="#4a5568" stroke="#4a5568" points="774.6,-102.25 784.28,-97.95 774.03,-95.28 774.6,-102.25"/>
<text xml:space="preserve" text-anchor="middle" x="717.79" y="-111.9" font-family="Helvetica,sans-Serif" font-size="9.00">cash flow panels</text>
</g>
<!-- WORKSTATION_ENDPOINTS&#45;&gt;RUN_READ -->
<g id="edge6" class="edge">
<title>WORKSTATION_ENDPOINTS&#45;&gt;RUN_READ</title>
<path fill="none" stroke="#4a5568" d="M652.78,-187.74C685.69,-184.07 724.8,-179.1 759.81,-173 763.6,-172.34 767.47,-171.62 771.38,-170.87"/>
<polygon fill="#4a5568" stroke="#4a5568" points="771.82,-174.35 780.94,-168.96 770.45,-167.49 771.82,-174.35"/>
<text xml:space="preserve" text-anchor="middle" x="717.79" y="-187.21" font-family="Helvetica,sans-Serif" font-size="9.00">runs / ledger / fills</text>
</g>
<!-- WORKSTATION_ENDPOINTS&#45;&gt;CASH_FLOW -->
<g id="edge7" class="edge">
<title>WORKSTATION_ENDPOINTS&#45;&gt;CASH_FLOW</title>
<path fill="none" stroke="#4a5568" d="M653.11,-167.48C660.73,-164.92 668.38,-162.45 675.77,-160.2 712.63,-149 726.57,-158.47 759.81,-139 769.85,-133.12 768.03,-126.3 777.81,-120 779.67,-118.8 781.59,-117.65 783.56,-116.54"/>
<polygon fill="#4a5568" stroke="#4a5568" points="785.03,-119.72 792.35,-112.07 781.85,-113.48 785.03,-119.72"/>
<text xml:space="preserve" text-anchor="middle" x="717.79" y="-162.9" font-family="Helvetica,sans-Serif" font-size="9.00">cash&#45;flow projections</text>
</g>
<!-- SECURITY_QUERY -->
<g id="node11" class="node">
<title>SECURITY_QUERY</title>
<path fill="#d1fae5" stroke="black" d="M1762.09,-145C1762.09,-145 1631.15,-145 1631.15,-145 1625.15,-145 1619.15,-139 1619.15,-133 1619.15,-133 1619.15,-121 1619.15,-121 1619.15,-115 1625.15,-109 1631.15,-109 1631.15,-109 1762.09,-109 1762.09,-109 1768.09,-109 1774.09,-115 1774.09,-121 1774.09,-121 1774.09,-133 1774.09,-133 1774.09,-139 1768.09,-145 1762.09,-145"/>
<text xml:space="preserve" text-anchor="middle" x="1696.62" y="-130" font-family="Helvetica,sans-Serif" font-size="10.00">ISecurityMasterQueryService</text>
<text xml:space="preserve" text-anchor="middle" x="1696.62" y="-118" font-family="Helvetica,sans-Serif" font-size="10.00">security detail / history / identity</text>
</g>
<!-- WORKSTATION_ENDPOINTS&#45;&gt;SECURITY_QUERY -->
<g id="edge8" class="edge">
<title>WORKSTATION_ENDPOINTS&#45;&gt;SECURITY_QUERY</title>
<path fill="none" stroke="#4a5568" d="M653.08,-198.38C660.74,-198.63 668.41,-198.85 675.77,-199 713.11,-199.77 722.46,-199.42 759.81,-199 938.95,-197 984,-201.23 1162.8,-190 1300.72,-181.34 1334.78,-173.61 1472.09,-158 1529.52,-151.47 1543.92,-150.09 1601.15,-142 1603.3,-141.69 1605.49,-141.38 1607.69,-141.06"/>
<polygon fill="#4a5568" stroke="#4a5568" points="1607.95,-144.56 1617.33,-139.64 1606.93,-137.64 1607.95,-144.56"/>
<text xml:space="preserve" text-anchor="middle" x="1106.99" y="-198.43" font-family="Helvetica,sans-Serif" font-size="9.00">security master detail</text>
</g>
<!-- RECONCILIATION_NOTE -->
<g id="node12" class="node">
<title>RECONCILIATION_NOTE</title>
<polygon fill="#feebc8" stroke="black" points="930.66,-255 777.81,-255 777.81,-211 936.66,-211 936.66,-249 930.66,-255"/>
<polyline fill="none" stroke="black" points="930.66,-255 930.66,-249"/>
<polyline fill="none" stroke="black" points="936.66,-249 930.66,-249"/>
<text xml:space="preserve" text-anchor="middle" x="857.23" y="-242" font-family="Helvetica,sans-Serif" font-size="10.00">Reconciliation endpoints use</text>
<text xml:space="preserve" text-anchor="middle" x="857.23" y="-230" font-family="Helvetica,sans-Serif" font-size="10.00">IReconciliationRunService</text>
<text xml:space="preserve" text-anchor="middle" x="857.23" y="-218" font-family="Helvetica,sans-Serif" font-size="10.00">(see fund&#45;ops&#45;reconciliation.dot)</text>
</g>
<!-- WORKSTATION_ENDPOINTS&#45;&gt;RECONCILIATION_NOTE -->
<g id="edge9" class="edge">
<title>WORKSTATION_ENDPOINTS&#45;&gt;RECONCILIATION_NOTE</title>
<path fill="none" stroke="#ed8936" stroke-dasharray="5,2" d="M652.89,-212.9C660.59,-214.43 668.32,-215.83 675.77,-217 704.99,-221.57 737.09,-224.95 766.01,-227.38"/>
<polygon fill="#ed8936" stroke="#ed8936" points="765.58,-230.86 775.83,-228.18 766.15,-223.88 765.58,-230.86"/>
</g>
<!-- PORTFOLIO_READ -->
<g id="node7" class="node">
<title>PORTFOLIO_READ</title>
<path fill="#dbeafe" stroke="black" d="M1149.96,-119C1149.96,-119 1064.02,-119 1064.02,-119 1058.02,-119 1052.02,-113 1052.02,-107 1052.02,-107 1052.02,-87 1052.02,-87 1052.02,-81 1058.02,-75 1064.02,-75 1064.02,-75 1149.96,-75 1149.96,-75 1155.96,-75 1161.96,-81 1161.96,-87 1161.96,-87 1161.96,-107 1161.96,-107 1161.96,-113 1155.96,-119 1149.96,-119"/>
<text xml:space="preserve" text-anchor="middle" x="1106.99" y="-106" font-family="Helvetica,sans-Serif" font-size="10.00">PortfolioReadService</text>
<text xml:space="preserve" text-anchor="middle" x="1106.99" y="-94" font-family="Helvetica,sans-Serif" font-size="10.00">positions, exposure,</text>
<text xml:space="preserve" text-anchor="middle" x="1106.99" y="-82" font-family="Helvetica,sans-Serif" font-size="10.00">security enrichment</text>
</g>
<!-- RUN_READ&#45;&gt;PORTFOLIO_READ -->
<g id="edge10" class="edge">
<title>RUN_READ&#45;&gt;PORTFOLIO_READ</title>
<path fill="none" stroke="#4a5568" d="M931.9,-134.94C966.5,-127.4 1007.39,-118.49 1040.85,-111.2"/>
<polygon fill="#4a5568" stroke="#4a5568" points="1041.39,-114.66 1050.41,-109.11 1039.9,-107.82 1041.39,-114.66"/>
<text xml:space="preserve" text-anchor="middle" x="993.92" y="-131.54" font-family="Helvetica,sans-Serif" font-size="9.00">portfolio summaries</text>
</g>
<!-- LEDGER_READ -->
<g id="node8" class="node">
<title>LEDGER_READ</title>
<path fill="#dbeafe" stroke="black" d="M1150.8,-181C1150.8,-181 1063.19,-181 1063.19,-181 1057.19,-181 1051.19,-175 1051.19,-169 1051.19,-169 1051.19,-149 1051.19,-149 1051.19,-143 1057.19,-137 1063.19,-137 1063.19,-137 1150.8,-137 1150.8,-137 1156.8,-137 1162.8,-143 1162.8,-149 1162.8,-149 1162.8,-169 1162.8,-169 1162.8,-175 1156.8,-181 1150.8,-181"/>
<text xml:space="preserve" text-anchor="middle" x="1106.99" y="-168" font-family="Helvetica,sans-Serif" font-size="10.00">LedgerReadService</text>
<text xml:space="preserve" text-anchor="middle" x="1106.99" y="-156" font-family="Helvetica,sans-Serif" font-size="10.00">trial balance,</text>
<text xml:space="preserve" text-anchor="middle" x="1106.99" y="-144" font-family="Helvetica,sans-Serif" font-size="10.00">journal, ledger rollups</text>
</g>
<!-- RUN_READ&#45;&gt;LEDGER_READ -->
<g id="edge11" class="edge">
<title>RUN_READ&#45;&gt;LEDGER_READ</title>
<path fill="none" stroke="#4a5568" d="M931.9,-153.38C965.97,-154.48 1006.13,-155.78 1039.3,-156.85"/>
<polygon fill="#4a5568" stroke="#4a5568" points="1039.09,-160.34 1049.2,-157.17 1039.32,-153.35 1039.09,-160.34"/>
<text xml:space="preserve" text-anchor="middle" x="993.92" y="-159.34" font-family="Helvetica,sans-Serif" font-size="9.00">ledger summaries</text>
</g>
<!-- RUN_STORE -->
<g id="node13" class="node">
<title>RUN_STORE</title>
<path fill="#fecaca" stroke="black" d="M2013.29,-65C2013.29,-67.21 1983.55,-69 1946.93,-69 1910.31,-69 1880.57,-67.21 1880.57,-65 1880.57,-65 1880.57,-29 1880.57,-29 1880.57,-26.79 1910.31,-25 1946.93,-25 1983.55,-25 2013.29,-26.79 2013.29,-29 2013.29,-29 2013.29,-65 2013.29,-65"/>
<path fill="none" stroke="black" d="M2013.29,-65C2013.29,-62.79 1983.55,-61 1946.93,-61 1910.31,-61 1880.57,-62.79 1880.57,-65"/>
<text xml:space="preserve" text-anchor="middle" x="1946.93" y="-50" font-family="Helvetica,sans-Serif" font-size="10.00">StrategyRunStore</text>
<text xml:space="preserve" text-anchor="middle" x="1946.93" y="-38" font-family="Helvetica,sans-Serif" font-size="10.00">backtest / paper / live runs</text>
</g>
<!-- RUN_READ&#45;&gt;RUN_STORE -->
<g id="edge15" class="edge">
<title>RUN_READ&#45;&gt;RUN_STORE</title>
<path fill="none" stroke="#4a5568" d="M918.23,-128.53C924.52,-125.8 930.76,-122.94 936.66,-120 945.05,-115.82 946.36,-113.36 954.66,-109 996.23,-87.15 1007.51,-83.26 1051.19,-66 1075.16,-56.52 1080.21,-47 1105.99,-47 1105.99,-47 1105.99,-47 1697.62,-47 1754.99,-47 1819.82,-47 1868.84,-47"/>
<polygon fill="#4a5568" stroke="#4a5568" points="1868.8,-50.5 1878.8,-47 1868.8,-43.5 1868.8,-50.5"/>
<text xml:space="preserve" text-anchor="middle" x="1373.22" y="-49.7" font-family="Helvetica,sans-Serif" font-size="9.00">read run entries</text>
</g>
<!-- SECURITY_LOOKUP -->
<g id="node10" class="node">
<title>SECURITY_LOOKUP</title>
<path fill="#dbeafe" stroke="black" d="M1460.09,-149C1460.09,-149 1286.34,-149 1286.34,-149 1280.34,-149 1274.34,-143 1274.34,-137 1274.34,-137 1274.34,-117 1274.34,-117 1274.34,-111 1280.34,-105 1286.34,-105 1286.34,-105 1460.09,-105 1460.09,-105 1466.09,-105 1472.09,-111 1472.09,-117 1472.09,-117 1472.09,-137 1472.09,-137 1472.09,-143 1466.09,-149 1460.09,-149"/>
<text xml:space="preserve" text-anchor="middle" x="1373.22" y="-136" font-family="Helvetica,sans-Serif" font-size="10.00">SecurityMasterSecurityReferenceLookup</text>
<text xml:space="preserve" text-anchor="middle" x="1373.22" y="-124" font-family="Helvetica,sans-Serif" font-size="10.00">enrich symbols with authoritative</text>
<text xml:space="preserve" text-anchor="middle" x="1373.22" y="-112" font-family="Helvetica,sans-Serif" font-size="10.00">asset&#45;class + identifier data</text>
</g>
<!-- PORTFOLIO_READ&#45;&gt;SECURITY_LOOKUP -->
<g id="edge12" class="edge">
<title>PORTFOLIO_READ&#45;&gt;SECURITY_LOOKUP</title>
<path fill="none" stroke="#4a5568" d="M1162.28,-102.24C1190.37,-105.03 1225.22,-108.62 1256.34,-112.2 1258.4,-112.44 1260.49,-112.68 1262.59,-112.93"/>
<polygon fill="#4a5568" stroke="#4a5568" points="1262.09,-116.39 1272.43,-114.1 1262.91,-109.44 1262.09,-116.39"/>
<text xml:space="preserve" text-anchor="middle" x="1218.57" y="-114.9" font-family="Helvetica,sans-Serif" font-size="9.00">enrich positions</text>
</g>
<!-- LEDGER_READ&#45;&gt;SECURITY_LOOKUP -->
<g id="edge13" class="edge">
<title>LEDGER_READ&#45;&gt;SECURITY_LOOKUP</title>
<path fill="none" stroke="#4a5568" d="M1163.06,-152.33C1191.99,-148.83 1228.5,-144.41 1262.89,-140.24"/>
<polygon fill="#4a5568" stroke="#4a5568" points="1262.96,-143.76 1272.46,-139.08 1262.12,-136.81 1262.96,-143.76"/>
<text xml:space="preserve" text-anchor="middle" x="1218.57" y="-152.24" font-family="Helvetica,sans-Serif" font-size="9.00">enrich trial balance</text>
</g>
<!-- CASH_FLOW&#45;&gt;RUN_STORE -->
<g id="edge16" class="edge">
<title>CASH_FLOW&#45;&gt;RUN_STORE</title>
<path fill="none" stroke="#4a5568" d="M882.35,-74.73C901.13,-61.33 928.35,-43.68 954.66,-33 1018.44,-7.1 1037.15,0 1105.99,0 1105.99,0 1105.99,0 1697.62,0 1755.83,0 1820.39,-12.62 1869.09,-24.78"/>
<polygon fill="#4a5568" stroke="#4a5568" points="1868.15,-28.16 1878.7,-27.24 1869.88,-21.37 1868.15,-28.16"/>
<text xml:space="preserve" text-anchor="middle" x="1373.22" y="-2.7" font-family="Helvetica,sans-Serif" font-size="9.00">iterate cash&#45;flow metrics</text>
</g>
<!-- SECURITY_LOOKUP&#45;&gt;SECURITY_QUERY -->
<g id="edge14" class="edge">
<title>SECURITY_LOOKUP&#45;&gt;SECURITY_QUERY</title>
<path fill="none" stroke="#4a5568" d="M1472.39,-127C1515.43,-127 1565.55,-127 1607.39,-127"/>
<polygon fill="#4a5568" stroke="#4a5568" points="1607.16,-130.5 1617.16,-127 1607.16,-123.5 1607.16,-130.5"/>
<text xml:space="preserve" text-anchor="middle" x="1545.62" y="-129.7" font-family="Helvetica,sans-Serif" font-size="9.00">lookup by symbol / identifier</text>
</g>
<!-- SECURITY_STATE -->
<g id="node14" class="node">
<title>SECURITY_STATE</title>
<path fill="#fecaca" stroke="black" d="M2015.23,-127C2015.23,-129.21 1984.62,-131 1946.93,-131 1909.24,-131 1878.63,-129.21 1878.63,-127 1878.63,-127 1878.63,-91 1878.63,-91 1878.63,-88.79 1909.24,-87 1946.93,-87 1984.62,-87 2015.23,-88.79 2015.23,-91 2015.23,-91 2015.23,-127 2015.23,-127"/>
<path fill="none" stroke="black" d="M2015.23,-127C2015.23,-124.79 1984.62,-123 1946.93,-123 1909.24,-123 1878.63,-124.79 1878.63,-127"/>
<text xml:space="preserve" text-anchor="middle" x="1946.93" y="-112" font-family="Helvetica,sans-Serif" font-size="10.00">Security Master projections</text>
<text xml:space="preserve" text-anchor="middle" x="1946.93" y="-100" font-family="Helvetica,sans-Serif" font-size="10.00">cache + backing store</text>
</g>
<!-- SECURITY_QUERY&#45;&gt;SECURITY_STATE -->
<g id="edge17" class="edge">
<title>SECURITY_QUERY&#45;&gt;SECURITY_STATE</title>
<path fill="none" stroke="#4a5568" d="M1774.48,-121.43C1803.91,-119.29 1837.51,-116.86 1867.11,-114.71"/>
<polygon fill="#4a5568" stroke="#4a5568" points="1867.02,-118.23 1876.74,-114.02 1866.51,-111.25 1867.02,-118.23"/>
<text xml:space="preserve" text-anchor="middle" x="1826.36" y="-122.84" font-family="Helvetica,sans-Serif" font-size="9.00">query projections</text>
</g>
<!-- LEG_UI -->
<g id="node15" class="node">
<title>LEG_UI</title>
<path fill="#805ad5" stroke="black" d="M132.56,-303C132.56,-303 65.52,-303 65.52,-303 59.52,-303 53.52,-297 53.52,-291 53.52,-291 53.52,-279 53.52,-279 53.52,-273 59.52,-267 65.52,-267 65.52,-267 132.56,-267 132.56,-267 138.56,-267 144.56,-273 144.56,-279 144.56,-279 144.56,-291 144.56,-291 144.56,-297 138.56,-303 132.56,-303"/>
<text xml:space="preserve" text-anchor="middle" x="99.04" y="-282" font-family="Helvetica,sans-Serif" font-size="10.00" fill="white">Operator surface</text>
</g>
<!-- LEG_APP -->
<g id="node16" class="node">
<title>LEG_APP</title>
<path fill="#bfdbfe" stroke="black" d="M136.73,-357C136.73,-357 61.35,-357 61.35,-357 55.35,-357 49.35,-351 49.35,-345 49.35,-345 49.35,-333 49.35,-333 49.35,-327 55.35,-321 61.35,-321 61.35,-321 136.73,-321 136.73,-321 142.73,-321 148.73,-327 148.73,-333 148.73,-333 148.73,-345 148.73,-345 148.73,-351 142.73,-357 136.73,-357"/>
<text xml:space="preserve" text-anchor="middle" x="99.04" y="-336" font-family="Helvetica,sans-Serif" font-size="10.00">Application service</text>
</g>
<!-- LEG_SUPPORT -->
<g id="node17" class="node">
<title>LEG_SUPPORT</title>
<path fill="#dbeafe" stroke="black" d="M145.63,-411C145.63,-411 52.45,-411 52.45,-411 46.45,-411 40.45,-405 40.45,-399 40.45,-399 40.45,-387 40.45,-387 40.45,-381 46.45,-375 52.45,-375 52.45,-375 145.63,-375 145.63,-375 151.63,-375 157.63,-381 157.63,-387 157.63,-387 157.63,-399 157.63,-399 157.63,-405 151.63,-411 145.63,-411"/>
<text xml:space="preserve" text-anchor="middle" x="99.04" y="-390" font-family="Helvetica,sans-Serif" font-size="10.00">Supporting read model</text>
</g>
<!-- LEG_STORE -->
<g id="node18" class="node">
<title>LEG_STORE</title>
<path fill="#fecaca" stroke="black" d="M157.07,-461.73C157.07,-463.53 131.06,-465 99.04,-465 67.02,-465 41.01,-463.53 41.01,-461.73 41.01,-461.73 41.01,-432.27 41.01,-432.27 41.01,-430.47 67.02,-429 99.04,-429 131.06,-429 157.07,-430.47 157.07,-432.27 157.07,-432.27 157.07,-461.73 157.07,-461.73"/>
<path fill="none" stroke="black" d="M157.07,-461.73C157.07,-459.92 131.06,-458.45 99.04,-458.45 67.02,-458.45 41.01,-459.92 41.01,-461.73"/>
<text xml:space="preserve" text-anchor="middle" x="99.04" y="-444" font-family="Helvetica,sans-Serif" font-size="10.00">Shared persisted state</text>
</g>
</g>
</svg>
