<?xml version="1.0" encoding="UTF-8" standalone="no"?>
<!DOCTYPE svg PUBLIC "-//W3C//DTD SVG 1.1//EN"
 "http://www.w3.org/Graphics/SVG/1.1/DTD/svg11.dtd">
<!-- Generated by graphviz version 2.43.0 (0)
 -->
<!-- Title: WorkstationDelivery Pages: 1 -->
<svg width="2416pt" height="601pt"
 viewBox="0.00 0.00 2416.00 601.00" xmlns="http://www.w3.org/2000/svg" xmlns:xlink="http://www.w3.org/1999/xlink">
<g id="graph0" class="graph" transform="scale(1 1) rotate(0) translate(36 565)">
<title>WorkstationDelivery</title>
<polygon fill="white" stroke="transparent" points="-36,36 -36,-565 2380,-565 2380,36 -36,36"/>
<text text-anchor="middle" x="1172" y="-515.4" font-family="Helvetica,sans-Serif" font-size="12.00">Meridian &#45; Workstation Delivery</text>
<text text-anchor="middle" x="1172" y="-502.4" font-family="Helvetica,sans-Serif" font-size="12.00">Shared read models across WPF and desktop&#45;local API surfaces | v1.8.x</text>
<g id="clust1" class="cluster">
<title>cluster_surfaces</title>
<path fill="#faf5ff" stroke="#805ad5" d="M20,-95C20,-95 548,-95 548,-95 554,-95 560,-101 560,-107 560,-107 560,-232 560,-232 560,-238 554,-244 548,-244 548,-244 20,-244 20,-244 14,-244 8,-238 8,-232 8,-232 8,-107 8,-107 8,-101 14,-95 20,-95"/>
<text text-anchor="middle" x="284" y="-230.4" font-family="Helvetica,sans-Serif" font-size="12.00">Operator Surfaces</text>
</g>
<g id="clust2" class="cluster">
<title>cluster_delivery</title>
<path fill="#dbeafe" stroke="#2b6cb0" d="M651,-66C651,-66 2059,-66 2059,-66 2065,-66 2071,-72 2071,-78 2071,-78 2071,-267 2071,-267 2071,-273 2065,-279 2059,-279 2059,-279 651,-279 651,-279 645,-279 639,-273 639,-267 639,-267 639,-78 639,-78 639,-72 645,-66 651,-66"/>
<text text-anchor="middle" x="1355" y="-265.4" font-family="Helvetica,sans-Serif" font-size="12.00">Shared Delivery Services</text>
</g>
<g id="clust3" class="cluster">
<title>cluster_state</title>
<path fill="#fff5f5" stroke="#c53030" d="M2182,-17C2182,-17 2324,-17 2324,-17 2330,-17 2336,-23 2336,-29 2336,-29 2336,-143 2336,-143 2336,-149 2330,-155 2324,-155 2324,-155 2182,-155 2182,-155 2176,-155 2170,-149 2170,-143 2170,-143 2170,-29 2170,-29 2170,-23 2176,-17 2182,-17"/>
<text text-anchor="middle" x="2253" y="-141.4" font-family="Helvetica,sans-Serif" font-size="12.00">Shared State</text>
</g>
<g id="clust4" class="cluster">
<title>cluster_legend</title>
<path fill="#fafafa" stroke="#666666" d="M60,-252C60,-252 180,-252 180,-252 186,-252 192,-258 192,-264 192,-264 192,-475 192,-475 192,-481 186,-487 180,-487 180,-487 60,-487 60,-487 54,-487 48,-481 48,-475 48,-475 48,-264 48,-264 48,-258 54,-252 60,-252"/>
<text text-anchor="middle" x="120" y="-473.4" font-family="Helvetica,sans-Serif" font-size="12.00">Legend</text>
</g>
<!-- WPF_SURFACES -->
<g id="node1" class="node">
<title>WPF_SURFACES</title>
<path fill="#805ad5" stroke="black" d="M196,-155C196,-155 44,-155 44,-155 38,-155 32,-149 32,-143 32,-143 32,-115 32,-115 32,-109 38,-103 44,-103 44,-103 196,-103 196,-103 202,-103 208,-109 208,-115 208,-115 208,-143 208,-143 208,-149 202,-155 196,-155"/>
<text text-anchor="middle" x="120" y="-143" font-family="Helvetica,sans-Serif" font-size="10.00" fill="white">Meridian.Wpf</text>
<text text-anchor="middle" x="120" y="-132" font-family="Helvetica,sans-Serif" font-size="10.00" fill="white">ResearchWorkspaceShellPage</text>
<text text-anchor="middle" x="120" y="-121" font-family="Helvetica,sans-Serif" font-size="10.00" fill="white">TradingWorkspaceShellPage</text>
<text text-anchor="middle" x="120" y="-110" font-family="Helvetica,sans-Serif" font-size="10.00" fill="white">GovernanceWorkspaceShellPage</text>
</g>
<!-- WPF_WORKSPACE -->
<g id="node4" class="node">
<title>WPF_WORKSPACE</title>
<path fill="#bfdbfe" stroke="black" d="M814,-145.5C814,-145.5 659,-145.5 659,-145.5 653,-145.5 647,-139.5 647,-133.5 647,-133.5 647,-116.5 647,-116.5 647,-110.5 653,-104.5 659,-104.5 659,-104.5 814,-104.5 814,-104.5 820,-104.5 826,-110.5 826,-116.5 826,-116.5 826,-133.5 826,-133.5 826,-139.5 820,-145.5 814,-145.5"/>
<text text-anchor="middle" x="736.5" y="-133.5" font-family="Helvetica,sans-Serif" font-size="10.00">StrategyRunWorkspaceService</text>
<text text-anchor="middle" x="736.5" y="-122.5" font-family="Helvetica,sans-Serif" font-size="10.00">active run context</text>
<text text-anchor="middle" x="736.5" y="-111.5" font-family="Helvetica,sans-Serif" font-size="10.00">run browser + promotion handoff</text>
</g>
<!-- WPF_SURFACES&#45;&gt;WPF_WORKSPACE -->
<g id="edge1" class="edge">
<title>WPF_SURFACES&#45;&gt;WPF_WORKSPACE</title>
<path fill="none" stroke="#4a5568" d="M208.06,-128.43C321.15,-127.7 518.07,-126.42 636.65,-125.64"/>
<polygon fill="#4a5568" stroke="#4a5568" points="636.84,-129.14 646.81,-125.58 636.79,-122.14 636.84,-129.14"/>
<text text-anchor="middle" x="447" y="-129.8" font-family="Helvetica,sans-Serif" font-size="9.00">desktop pages</text>
</g>
<!-- WEB_SHELL -->
<g id="node2" class="node">
<title>WEB_SHELL</title>
<path fill="#805ad5" stroke="black" d="M212,-214.5C212,-214.5 28,-214.5 28,-214.5 22,-214.5 16,-208.5 16,-202.5 16,-202.5 16,-185.5 16,-185.5 16,-179.5 22,-173.5 28,-173.5 28,-173.5 212,-173.5 212,-173.5 218,-173.5 224,-179.5 224,-185.5 224,-185.5 224,-202.5 224,-202.5 224,-208.5 218,-214.5 212,-214.5"/>
<text text-anchor="middle" x="120" y="-202.5" font-family="Helvetica,sans-Serif" font-size="10.00" fill="white">Desktop&#45;local API host</text>
<text text-anchor="middle" x="120" y="-191.5" font-family="Helvetica,sans-Serif" font-size="10.00" fill="white">localhost&#45;only /api/*</text>
<text text-anchor="middle" x="120" y="-180.5" font-family="Helvetica,sans-Serif" font-size="10.00" fill="white">Swagger + retained workstation routes</text>
</g>
<!-- API_SURFACE -->
<g id="node3" class="node">
<title>API_SURFACE</title>
<path fill="#c4b5fd" stroke="black" d="M540,-215C540,-215 354,-215 354,-215 348,-215 342,-209 342,-203 342,-203 342,-175 342,-175 342,-169 348,-163 354,-163 354,-163 540,-163 540,-163 546,-163 552,-169 552,-175 552,-175 552,-203 552,-203 552,-209 546,-215 540,-215"/>
<text text-anchor="middle" x="447" y="-203" font-family="Helvetica,sans-Serif" font-size="10.00">Retained workstation + portfolio routes</text>
<text text-anchor="middle" x="447" y="-192" font-family="Helvetica,sans-Serif" font-size="10.00">/api/workstation/*</text>
<text text-anchor="middle" x="447" y="-181" font-family="Helvetica,sans-Serif" font-size="10.00">/api/portfolio/*</text>
<text text-anchor="middle" x="447" y="-170" font-family="Helvetica,sans-Serif" font-size="10.00">/api/strategies/*</text>
</g>
<!-- WEB_SHELL&#45;&gt;API_SURFACE -->
<g id="edge2" class="edge">
<title>WEB_SHELL&#45;&gt;API_SURFACE</title>
<path fill="none" stroke="#4a5568" d="M224.28,-192.41C258.45,-191.89 296.67,-191.3 331.63,-190.76"/>
<polygon fill="#4a5568" stroke="#4a5568" points="331.93,-194.26 341.87,-190.6 331.82,-187.26 331.93,-194.26"/>
<text text-anchor="middle" x="283" y="-194.8" font-family="Helvetica,sans-Serif" font-size="9.00">localhost requests</text>
</g>
<!-- WORKSTATION_ENDPOINTS -->
<g id="node5" class="node">
<title>WORKSTATION_ENDPOINTS</title>
<path fill="#93c5fd" stroke="black" d="M808.5,-217C808.5,-217 664.5,-217 664.5,-217 658.5,-217 652.5,-211 652.5,-205 652.5,-205 652.5,-177 652.5,-177 652.5,-171 658.5,-165 664.5,-165 664.5,-165 808.5,-165 808.5,-165 814.5,-165 820.5,-171 820.5,-177 820.5,-177 820.5,-205 820.5,-205 820.5,-211 814.5,-217 808.5,-217"/>
<text text-anchor="middle" x="736.5" y="-205" font-family="Helvetica,sans-Serif" font-size="10.00">WorkstationEndpoints</text>
<text text-anchor="middle" x="736.5" y="-194" font-family="Helvetica,sans-Serif" font-size="10.00">runs / ledger / cash&#45;flow</text>
<text text-anchor="middle" x="736.5" y="-183" font-family="Helvetica,sans-Serif" font-size="10.00">security master / reconciliation</text>
<text text-anchor="middle" x="736.5" y="-172" font-family="Helvetica,sans-Serif" font-size="10.00">retained workstation APIs</text>
</g>
<!-- API_SURFACE&#45;&gt;WORKSTATION_ENDPOINTS -->
<g id="edge3" class="edge">
<title>API_SURFACE&#45;&gt;WORKSTATION_ENDPOINTS</title>
<path fill="none" stroke="#4a5568" d="M552.2,-189.72C581.67,-189.93 613.54,-190.15 642.32,-190.35"/>
<polygon fill="#4a5568" stroke="#4a5568" points="642.33,-193.85 652.36,-190.42 642.38,-186.85 642.33,-193.85"/>
<text text-anchor="middle" x="599.5" y="-192.8" font-family="Helvetica,sans-Serif" font-size="9.00">route groups</text>
</g>
<!-- RUN_READ -->
<g id="node6" class="node">
<title>RUN_READ</title>
<path fill="#bfdbfe" stroke="black" d="M1117.5,-169.5C1117.5,-169.5 974.5,-169.5 974.5,-169.5 968.5,-169.5 962.5,-163.5 962.5,-157.5 962.5,-157.5 962.5,-140.5 962.5,-140.5 962.5,-134.5 968.5,-128.5 974.5,-128.5 974.5,-128.5 1117.5,-128.5 1117.5,-128.5 1123.5,-128.5 1129.5,-134.5 1129.5,-140.5 1129.5,-140.5 1129.5,-157.5 1129.5,-157.5 1129.5,-163.5 1123.5,-169.5 1117.5,-169.5"/>
<text text-anchor="middle" x="1046" y="-157.5" font-family="Helvetica,sans-Serif" font-size="10.00">StrategyRunReadService</text>
<text text-anchor="middle" x="1046" y="-146.5" font-family="Helvetica,sans-Serif" font-size="10.00">summary, detail, equity curve,</text>
<text text-anchor="middle" x="1046" y="-135.5" font-family="Helvetica,sans-Serif" font-size="10.00">fills, attribution</text>
</g>
<!-- WPF_WORKSPACE&#45;&gt;RUN_READ -->
<g id="edge4" class="edge">
<title>WPF_WORKSPACE&#45;&gt;RUN_READ</title>
<path fill="none" stroke="#4a5568" d="M826.2,-121.41C861.68,-121.02 902.87,-121.89 940,-126 944.12,-126.46 948.32,-127.01 952.55,-127.63"/>
<polygon fill="#4a5568" stroke="#4a5568" points="952.02,-131.09 962.45,-129.21 953.13,-124.18 952.02,-131.09"/>
<text text-anchor="middle" x="892" y="-128.8" font-family="Helvetica,sans-Serif" font-size="9.00">desktop drill&#45;ins</text>
</g>
<!-- CASH_FLOW -->
<g id="node9" class="node">
<title>CASH_FLOW</title>
<path fill="#dbeafe" stroke="black" d="M1111.5,-110C1111.5,-110 980.5,-110 980.5,-110 974.5,-110 968.5,-104 968.5,-98 968.5,-98 968.5,-86 968.5,-86 968.5,-80 974.5,-74 980.5,-74 980.5,-74 1111.5,-74 1111.5,-74 1117.5,-74 1123.5,-80 1123.5,-86 1123.5,-86 1123.5,-98 1123.5,-98 1123.5,-104 1117.5,-110 1111.5,-110"/>
<text text-anchor="middle" x="1046" y="-95" font-family="Helvetica,sans-Serif" font-size="10.00">CashFlowProjectionService</text>
<text text-anchor="middle" x="1046" y="-84" font-family="Helvetica,sans-Serif" font-size="10.00">cash ladder / bucketed flows</text>
</g>
<!-- WPF_WORKSPACE&#45;&gt;CASH_FLOW -->
<g id="edge5" class="edge">
<title>WPF_WORKSPACE&#45;&gt;CASH_FLOW</title>
<path fill="none" stroke="#4a5568" d="M826.03,-109.39C832.1,-108.52 838.14,-107.71 844,-107 881.31,-102.47 922.69,-99.1 958.16,-96.71"/>
<polygon fill="#4a5568" stroke="#4a5568" points="958.73,-100.18 968.48,-96.03 958.27,-93.2 958.73,-100.18"/>
<text text-anchor="middle" x="892" y="-109.8" font-family="Helvetica,sans-Serif" font-size="9.00">cash flow panels</text>
</g>
<!-- WORKSTATION_ENDPOINTS&#45;&gt;RUN_READ -->
<g id="edge6" class="edge">
<title>WORKSTATION_ENDPOINTS&#45;&gt;RUN_READ</title>
<path fill="none" stroke="#4a5568" d="M820.94,-183.45C857.56,-179.75 901,-174.82 940,-169 943.96,-168.41 948.01,-167.77 952.09,-167.11"/>
<polygon fill="#4a5568" stroke="#4a5568" points="953,-170.5 962.28,-165.4 951.84,-163.6 953,-170.5"/>
<text text-anchor="middle" x="892" y="-182.8" font-family="Helvetica,sans-Serif" font-size="9.00">runs / ledger / fills</text>
</g>
<!-- WORKSTATION_ENDPOINTS&#45;&gt;CASH_FLOW -->
<g id="edge7" class="edge">
<title>WORKSTATION_ENDPOINTS&#45;&gt;CASH_FLOW</title>
<path fill="none" stroke="#4a5568" d="M819.3,-164.97C827.62,-162.53 835.96,-160.16 844,-158 886.27,-146.63 901.09,-156.06 940,-136 949.51,-131.1 948.71,-125.31 958,-120 961.64,-117.92 965.46,-115.97 969.38,-114.15"/>
<polygon fill="#4a5568" stroke="#4a5568" points="970.89,-117.31 978.67,-110.12 968.1,-110.89 970.89,-117.31"/>
<text text-anchor="middle" x="892" y="-160.8" font-family="Helvetica,sans-Serif" font-size="9.00">cash&#45;flow projections</text>
</g>
<!-- SECURITY_QUERY -->
<g id="node11" class="node">
<title>SECURITY_QUERY</title>
<path fill="#d1fae5" stroke="black" d="M2051,-141C2051,-141 1899,-141 1899,-141 1893,-141 1887,-135 1887,-129 1887,-129 1887,-117 1887,-117 1887,-111 1893,-105 1899,-105 1899,-105 2051,-105 2051,-105 2057,-105 2063,-111 2063,-117 2063,-117 2063,-129 2063,-129 2063,-135 2057,-141 2051,-141"/>
<text text-anchor="middle" x="1975" y="-126" font-family="Helvetica,sans-Serif" font-size="10.00">ISecurityMasterQueryService</text>
<text text-anchor="middle" x="1975" y="-115" font-family="Helvetica,sans-Serif" font-size="10.00">security detail / history / identity</text>
</g>
<!-- WORKSTATION_ENDPOINTS&#45;&gt;SECURITY_QUERY -->
<g id="edge8" class="edge">
<title>WORKSTATION_ENDPOINTS&#45;&gt;SECURITY_QUERY</title>
<path fill="none" stroke="#4a5568" d="M820.63,-193.57C828.53,-193.74 836.42,-193.89 844,-194 886.66,-194.6 897.34,-194.48 940,-194 1136.93,-191.78 1186.38,-195.22 1383,-184 1533.61,-175.4 1570.89,-168 1721,-153 1786.83,-146.42 1803.32,-144.93 1869,-137 1871.56,-136.69 1874.15,-136.37 1876.76,-136.05"/>
<polygon fill="#4a5568" stroke="#4a5568" points="1877.44,-139.49 1886.93,-134.78 1876.57,-132.55 1877.44,-139.49"/>
<text text-anchor="middle" x="1321.5" y="-191.8" font-family="Helvetica,sans-Serif" font-size="9.00">security master detail</text>
</g>
<!-- RECONCILIATION_NOTE -->
<g id="node12" class="node">
<title>RECONCILIATION_NOTE</title>
<polygon fill="#feebc8" stroke="black" points="1128,-249.5 958,-249.5 958,-208.5 1134,-208.5 1134,-243.5 1128,-249.5"/>
<polyline fill="none" stroke="black" points="1128,-249.5 1128,-243.5 "/>
<polyline fill="none" stroke="black" points="1134,-243.5 1128,-243.5 "/>
<text text-anchor="middle" x="1046" y="-237.5" font-family="Helvetica,sans-Serif" font-size="10.00">Reconciliation endpoints use</text>
<text text-anchor="middle" x="1046" y="-226.5" font-family="Helvetica,sans-Serif" font-size="10.00">IReconciliationRunService</text>
<text text-anchor="middle" x="1046" y="-215.5" font-family="Helvetica,sans-Serif" font-size="10.00">(see fund&#45;ops&#45;reconciliation.dot)</text>
</g>
<!-- WORKSTATION_ENDPOINTS&#45;&gt;RECONCILIATION_NOTE -->
<g id="edge9" class="edge">
<title>WORKSTATION_ENDPOINTS&#45;&gt;RECONCILIATION_NOTE</title>
<path fill="none" stroke="#ed8936" stroke-dasharray="5,2" d="M820.78,-208.33C828.61,-209.69 836.44,-210.94 844,-212 877.63,-216.72 914.62,-220.31 947.6,-222.94"/>
<polygon fill="#ed8936" stroke="#ed8936" points="947.46,-226.44 957.7,-223.72 948,-219.46 947.46,-226.44"/>
</g>
<!-- PORTFOLIO_READ -->
<g id="node7" class="node">
<title>PORTFOLIO_READ</title>
<path fill="#dbeafe" stroke="black" d="M1369,-115.5C1369,-115.5 1274,-115.5 1274,-115.5 1268,-115.5 1262,-109.5 1262,-103.5 1262,-103.5 1262,-86.5 1262,-86.5 1262,-80.5 1268,-74.5 1274,-74.5 1274,-74.5 1369,-74.5 1369,-74.5 1375,-74.5 1381,-80.5 1381,-86.5 1381,-86.5 1381,-103.5 1381,-103.5 1381,-109.5 1375,-115.5 1369,-115.5"/>
<text text-anchor="middle" x="1321.5" y="-103.5" font-family="Helvetica,sans-Serif" font-size="10.00">PortfolioReadService</text>
<text text-anchor="middle" x="1321.5" y="-92.5" font-family="Helvetica,sans-Serif" font-size="10.00">positions, exposure,</text>
<text text-anchor="middle" x="1321.5" y="-81.5" font-family="Helvetica,sans-Serif" font-size="10.00">security enrichment</text>
</g>
<!-- RUN_READ&#45;&gt;PORTFOLIO_READ -->
<g id="edge10" class="edge">
<title>RUN_READ&#45;&gt;PORTFOLIO_READ</title>
<path fill="none" stroke="#4a5568" d="M1129.8,-132.65C1168.75,-124.96 1214.65,-115.9 1251.65,-108.59"/>
<polygon fill="#4a5568" stroke="#4a5568" points="1252.71,-111.95 1261.84,-106.58 1251.35,-105.08 1252.71,-111.95"/>
<text text-anchor="middle" x="1197" y="-128.8" font-family="Helvetica,sans-Serif" font-size="9.00">portfolio summaries</text>
</g>
<!-- LEDGER_READ -->
<g id="node8" class="node">
<title>LEDGER_READ</title>
<path fill="#dbeafe" stroke="black" d="M1371,-174.5C1371,-174.5 1272,-174.5 1272,-174.5 1266,-174.5 1260,-168.5 1260,-162.5 1260,-162.5 1260,-145.5 1260,-145.5 1260,-139.5 1266,-133.5 1272,-133.5 1272,-133.5 1371,-133.5 1371,-133.5 1377,-133.5 1383,-139.5 1383,-145.5 1383,-145.5 1383,-162.5 1383,-162.5 1383,-168.5 1377,-174.5 1371,-174.5"/>
<text text-anchor="middle" x="1321.5" y="-162.5" font-family="Helvetica,sans-Serif" font-size="10.00">LedgerReadService</text>
<text text-anchor="middle" x="1321.5" y="-151.5" font-family="Helvetica,sans-Serif" font-size="10.00">trial balance,</text>
<text text-anchor="middle" x="1321.5" y="-140.5" font-family="Helvetica,sans-Serif" font-size="10.00">journal, ledger rollups</text>
</g>
<!-- RUN_READ&#45;&gt;LEDGER_READ -->
<g id="edge11" class="edge">
<title>RUN_READ&#45;&gt;LEDGER_READ</title>
<path fill="none" stroke="#4a5568" d="M1129.8,-150.51C1168.03,-151.21 1212.95,-152.03 1249.6,-152.7"/>
<polygon fill="#4a5568" stroke="#4a5568" points="1249.64,-156.2 1259.7,-152.89 1249.76,-149.21 1249.64,-156.2"/>
<text text-anchor="middle" x="1197" y="-154.8" font-family="Helvetica,sans-Serif" font-size="9.00">ledger summaries</text>
</g>
<!-- RUN_STORE -->
<g id="node13" class="node">
<title>RUN_STORE</title>
<path fill="#fecaca" stroke="black" d="M2326,-62.98C2326,-65.06 2293.28,-66.75 2253,-66.75 2212.72,-66.75 2180,-65.06 2180,-62.98 2180,-62.98 2180,-29.02 2180,-29.02 2180,-26.94 2212.72,-25.25 2253,-25.25 2293.28,-25.25 2326,-26.94 2326,-29.02 2326,-29.02 2326,-62.98 2326,-62.98"/>
<path fill="none" stroke="black" d="M2326,-62.98C2326,-60.9 2293.28,-59.21 2253,-59.21 2212.72,-59.21 2180,-60.9 2180,-62.98"/>
<text text-anchor="middle" x="2253" y="-49" font-family="Helvetica,sans-Serif" font-size="10.00">StrategyRunStore</text>
<text text-anchor="middle" x="2253" y="-38" font-family="Helvetica,sans-Serif" font-size="10.00">backtest / paper / live runs</text>
</g>
<!-- RUN_READ&#45;&gt;RUN_STORE -->
<g id="edge15" class="edge">
<title>RUN_READ&#45;&gt;RUN_STORE</title>
<path fill="none" stroke="#4a5568" d="M1113.41,-128.39C1120.49,-125.52 1127.48,-122.39 1134,-119 1142.76,-114.45 1143.31,-110.68 1152,-106 1197.2,-81.65 1211.49,-81.81 1260,-65 1286.63,-55.77 1292.32,-46 1320.5,-46 1320.5,-46 1320.5,-46 1976,-46 2041.18,-46 2115.02,-46 2169.92,-46"/>
<polygon fill="#4a5568" stroke="#4a5568" points="2169.94,-49.5 2179.94,-46 2169.94,-42.5 2169.94,-49.5"/>
<text text-anchor="middle" x="1614" y="-48.8" font-family="Helvetica,sans-Serif" font-size="9.00">read run entries</text>
</g>
<!-- SECURITY_LOOKUP -->
<g id="node10" class="node">
<title>SECURITY_LOOKUP</title>
<path fill="#dbeafe" stroke="black" d="M1709,-143.5C1709,-143.5 1519,-143.5 1519,-143.5 1513,-143.5 1507,-137.5 1507,-131.5 1507,-131.5 1507,-114.5 1507,-114.5 1507,-108.5 1513,-102.5 1519,-102.5 1519,-102.5 1709,-102.5 1709,-102.5 1715,-102.5 1721,-108.5 1721,-114.5 1721,-114.5 1721,-131.5 1721,-131.5 1721,-137.5 1715,-143.5 1709,-143.5"/>
<text text-anchor="middle" x="1614" y="-131.5" font-family="Helvetica,sans-Serif" font-size="10.00">SecurityMasterSecurityReferenceLookup</text>
<text text-anchor="middle" x="1614" y="-120.5" font-family="Helvetica,sans-Serif" font-size="10.00">enrich symbols with authoritative</text>
<text text-anchor="middle" x="1614" y="-109.5" font-family="Helvetica,sans-Serif" font-size="10.00">asset&#45;class + identifier data</text>
</g>
<!-- PORTFOLIO_READ&#45;&gt;SECURITY_LOOKUP -->
<g id="edge12" class="edge">
<title>PORTFOLIO_READ&#45;&gt;SECURITY_LOOKUP</title>
<path fill="none" stroke="#4a5568" d="M1381.1,-99.52C1413.02,-102.08 1453.2,-105.47 1489,-109 1491.55,-109.25 1494.12,-109.51 1496.72,-109.77"/>
<polygon fill="#4a5568" stroke="#4a5568" points="1496.52,-113.27 1506.82,-110.81 1497.23,-106.31 1496.52,-113.27"/>
<text text-anchor="middle" x="1445" y="-111.8" font-family="Helvetica,sans-Serif" font-size="9.00">enrich positions</text>
</g>
<!-- LEDGER_READ&#45;&gt;SECURITY_LOOKUP -->
<g id="edge13" class="edge">
<title>LEDGER_READ&#45;&gt;SECURITY_LOOKUP</title>
<path fill="none" stroke="#4a5568" d="M1383.04,-147.54C1415.86,-144.04 1457.55,-139.59 1496.39,-135.44"/>
<polygon fill="#4a5568" stroke="#4a5568" points="1497.15,-138.88 1506.73,-134.34 1496.41,-131.92 1497.15,-138.88"/>
<text text-anchor="middle" x="1445" y="-146.8" font-family="Helvetica,sans-Serif" font-size="9.00">enrich trial balance</text>
</g>
<!-- CASH_FLOW&#45;&gt;RUN_STORE -->
<g id="edge16" class="edge">
<title>CASH_FLOW&#45;&gt;RUN_STORE</title>
<path fill="none" stroke="#4a5568" d="M1072.99,-73.88C1093.55,-60.39 1123.44,-42.54 1152,-32 1223.52,-5.62 1244.27,0 1320.5,0 1320.5,0 1320.5,0 1976,0 2041.85,0 2115.36,-12.9 2169.94,-25.04"/>
<polygon fill="#4a5568" stroke="#4a5568" points="2169.38,-28.5 2179.91,-27.29 2170.93,-21.67 2169.38,-28.5"/>
<text text-anchor="middle" x="1614" y="-2.8" font-family="Helvetica,sans-Serif" font-size="9.00">iterate cash&#45;flow metrics</text>
</g>
<!-- SECURITY_LOOKUP&#45;&gt;SECURITY_QUERY -->
<g id="edge14" class="edge">
<title>SECURITY_LOOKUP&#45;&gt;SECURITY_QUERY</title>
<path fill="none" stroke="#4a5568" d="M1721.25,-123C1770.48,-123 1828.57,-123 1876.64,-123"/>
<polygon fill="#4a5568" stroke="#4a5568" points="1876.74,-126.5 1886.74,-123 1876.74,-119.5 1876.74,-126.5"/>
<text text-anchor="middle" x="1804" y="-125.8" font-family="Helvetica,sans-Serif" font-size="9.00">lookup by symbol / identifier</text>
</g>
<!-- SECURITY_STATE -->
<g id="node14" class="node">
<title>SECURITY_STATE</title>
<path fill="#fecaca" stroke="black" d="M2328,-121.98C2328,-124.06 2294.38,-125.75 2253,-125.75 2211.62,-125.75 2178,-124.06 2178,-121.98 2178,-121.98 2178,-88.02 2178,-88.02 2178,-85.94 2211.62,-84.25 2253,-84.25 2294.38,-84.25 2328,-85.94 2328,-88.02 2328,-88.02 2328,-121.98 2328,-121.98"/>
<path fill="none" stroke="black" d="M2328,-121.98C2328,-119.9 2294.38,-118.21 2253,-118.21 2211.62,-118.21 2178,-119.9 2178,-121.98"/>
<text text-anchor="middle" x="2253" y="-108" font-family="Helvetica,sans-Serif" font-size="10.00">Security Master projections</text>
<text text-anchor="middle" x="2253" y="-97" font-family="Helvetica,sans-Serif" font-size="10.00">cache + backing store</text>
</g>
<!-- SECURITY_QUERY&#45;&gt;SECURITY_STATE -->
<g id="edge17" class="edge">
<title>SECURITY_QUERY&#45;&gt;SECURITY_STATE</title>
<path fill="none" stroke="#4a5568" d="M2063.33,-117.3C2096.68,-115.13 2134.61,-112.66 2167.67,-110.5"/>
<polygon fill="#4a5568" stroke="#4a5568" points="2168.01,-113.98 2177.76,-109.84 2167.56,-107 2168.01,-113.98"/>
<text text-anchor="middle" x="2120.5" y="-118.8" font-family="Helvetica,sans-Serif" font-size="9.00">query projections</text>
</g>
<!-- LEG_UI -->
<g id="node15" class="node">
<title>LEG_UI</title>
<path fill="#805ad5" stroke="black" d="M157,-458C157,-458 83,-458 83,-458 77,-458 71,-452 71,-446 71,-446 71,-434 71,-434 71,-428 77,-422 83,-422 83,-422 157,-422 157,-422 163,-422 169,-428 169,-434 169,-434 169,-446 169,-446 169,-452 163,-458 157,-458"/>
<text text-anchor="middle" x="120" y="-437.5" font-family="Helvetica,sans-Serif" font-size="10.00" fill="white">Operator surface</text>
</g>
<!-- LEG_APP -->
<g id="node16" class="node">
<title>LEG_APP</title>
<path fill="#bfdbfe" stroke="black" d="M163,-404C163,-404 77,-404 77,-404 71,-404 65,-398 65,-392 65,-392 65,-380 65,-380 65,-374 71,-368 77,-368 77,-368 163,-368 163,-368 169,-368 175,-374 175,-380 175,-380 175,-392 175,-392 175,-398 169,-404 163,-404"/>
<text text-anchor="middle" x="120" y="-383.5" font-family="Helvetica,sans-Serif" font-size="10.00">Application service</text>
</g>
<!-- LEG_SUPPORT -->
<g id="node17" class="node">
<title>LEG_SUPPORT</title>
<path fill="#dbeafe" stroke="black" d="M172,-350C172,-350 68,-350 68,-350 62,-350 56,-344 56,-338 56,-338 56,-326 56,-326 56,-320 62,-314 68,-314 68,-314 172,-314 172,-314 178,-314 184,-320 184,-326 184,-326 184,-338 184,-338 184,-344 178,-350 172,-350"/>
<text text-anchor="middle" x="120" y="-329.5" font-family="Helvetica,sans-Serif" font-size="10.00">Supporting read model</text>
</g>
<!-- LEG_STORE -->
<g id="node18" class="node">
<title>LEG_STORE</title>
<path fill="#fecaca" stroke="black" d="M183,-292.73C183,-294.53 154.76,-296 120,-296 85.24,-296 57,-294.53 57,-292.73 57,-292.73 57,-263.27 57,-263.27 57,-261.47 85.24,-260 120,-260 154.76,-260 183,-261.47 183,-263.27 183,-263.27 183,-292.73 183,-292.73"/>
<path fill="none" stroke="black" d="M183,-292.73C183,-290.92 154.76,-289.45 120,-289.45 85.24,-289.45 57,-290.92 57,-292.73"/>
<text text-anchor="middle" x="120" y="-275.5" font-family="Helvetica,sans-Serif" font-size="10.00">Shared persisted state</text>
</g>
</g>
</svg>
