<?xml version="1.0" encoding="UTF-8" standalone="no"?>
<!DOCTYPE svg PUBLIC "-//W3C//DTD SVG 1.1//EN"
 "http://www.w3.org/Graphics/SVG/1.1/DTD/svg11.dtd">
<!-- Generated by graphviz version 14.1.3 (20260303.0454)
 -->
<!-- Title: WorkstationDelivery Pages: 1 -->
<svg width="2240pt" height="569pt"
 viewBox="0.00 0.00 2240.00 569.00" xmlns="http://www.w3.org/2000/svg" xmlns:xlink="http://www.w3.org/1999/xlink">
<g id="graph0" class="graph" transform="scale(1 1) rotate(0) translate(36 532.8)">
<title>WorkstationDelivery</title>
<polygon fill="white" stroke="none" points="-36,36 -36,-532.8 2203.56,-532.8 2203.56,36 -36,36"/>
<text xml:space="preserve" text-anchor="middle" x="1083.78" y="-482" font-family="Helvetica,sans-Serif" font-size="12.00">Meridian &#45; Workstation Delivery</text>
<text xml:space="preserve" text-anchor="middle" x="1083.78" y="-467.6" font-family="Helvetica,sans-Serif" font-size="12.00">Shared read models, governance handoffs, and security review across WPF and desktop&#45;local API surfaces | v1.8.x</text>
<g id="clust1" class="cluster">
<title>cluster_surfaces</title>
<path fill="#faf5ff" stroke="#805ad5" d="M20,-28C20,-28 494.4,-28 494.4,-28 500.4,-28 506.4,-34 506.4,-40 506.4,-40 506.4,-196 506.4,-196 506.4,-202 500.4,-208 494.4,-208 494.4,-208 20,-208 20,-208 14,-208 8,-202 8,-196 8,-196 8,-40 8,-40 8,-34 14,-28 20,-28"/>
<text xml:space="preserve" text-anchor="middle" x="257.2" y="-193.2" font-family="Helvetica,sans-Serif" font-size="12.00">Operator Surfaces</text>
</g>
<g id="clust2" class="cluster">
<title>cluster_delivery</title>
<path fill="#dbeafe" stroke="#2b6cb0" d="M588.93,-21C588.93,-21 1906.42,-21 1906.42,-21 1912.42,-21 1918.42,-27 1918.42,-33 1918.42,-33 1918.42,-227 1918.42,-227 1918.42,-233 1912.42,-239 1906.42,-239 1906.42,-239 588.93,-239 588.93,-239 582.93,-239 576.93,-233 576.93,-227 576.93,-227 576.93,-33 576.93,-33 576.93,-27 582.93,-21 588.93,-21"/>
<text xml:space="preserve" text-anchor="middle" x="1247.68" y="-224.2" font-family="Helvetica,sans-Serif" font-size="12.00">Shared Delivery Services</text>
</g>
<g id="clust3" class="cluster">
<title>cluster_state</title>
<path fill="#fff5f5" stroke="#c53030" d="M2018.96,-131C2018.96,-131 2147.56,-131 2147.56,-131 2153.56,-131 2159.56,-137 2159.56,-143 2159.56,-143 2159.56,-263 2159.56,-263 2159.56,-269 2153.56,-275 2147.56,-275 2147.56,-275 2018.96,-275 2018.96,-275 2012.96,-275 2006.96,-269 2006.96,-263 2006.96,-263 2006.96,-143 2006.96,-143 2006.96,-137 2012.96,-131 2018.96,-131"/>
<text xml:space="preserve" text-anchor="middle" x="2083.26" y="-260.2" font-family="Helvetica,sans-Serif" font-size="12.00">Shared State</text>
</g>
<g id="clust4" class="cluster">
<title>cluster_legend</title>
<path fill="#fafafa" stroke="#666666" d="M54.88,-216C54.88,-216 164.05,-216 164.05,-216 170.05,-216 176.05,-222 176.05,-228 176.05,-228 176.05,-440 176.05,-440 176.05,-446 170.05,-452 164.05,-452 164.05,-452 54.88,-452 54.88,-452 48.88,-452 42.88,-446 42.88,-440 42.88,-440 42.88,-228 42.88,-228 42.88,-222 48.88,-216 54.88,-216"/>
<text xml:space="preserve" text-anchor="middle" x="109.46" y="-437.2" font-family="Helvetica,sans-Serif" font-size="12.00">Legend</text>
</g>
<!-- WPF_SURFACES -->
<g id="node1" class="node">
<title>WPF_SURFACES</title>
<path fill="#805ad5" stroke="black" d="M180.51,-116C180.51,-116 38.42,-116 38.42,-116 32.42,-116 26.42,-110 26.42,-104 26.42,-104 26.42,-48 26.42,-48 26.42,-42 32.42,-36 38.42,-36 38.42,-36 180.51,-36 180.51,-36 186.51,-36 192.51,-42 192.51,-48 192.51,-48 192.51,-104 192.51,-104 192.51,-110 186.51,-116 180.51,-116"/>
<text xml:space="preserve" text-anchor="middle" x="109.46" y="-103" font-family="Helvetica,sans-Serif" font-size="10.00" fill="white">Meridian.Wpf</text>
<text xml:space="preserve" text-anchor="middle" x="109.46" y="-91" font-family="Helvetica,sans-Serif" font-size="10.00" fill="white">ResearchWorkspaceShellPage</text>
<text xml:space="preserve" text-anchor="middle" x="109.46" y="-79" font-family="Helvetica,sans-Serif" font-size="10.00" fill="white">TradingWorkspaceShellPage</text>
<text xml:space="preserve" text-anchor="middle" x="109.46" y="-67" font-family="Helvetica,sans-Serif" font-size="10.00" fill="white">GovernanceWorkspaceShellPage</text>
<text xml:space="preserve" text-anchor="middle" x="109.46" y="-55" font-family="Helvetica,sans-Serif" font-size="10.00" fill="white">SecurityMasterPage</text>
<text xml:space="preserve" text-anchor="middle" x="109.46" y="-43" font-family="Helvetica,sans-Serif" font-size="10.00" fill="white">(queue + action inspector)</text>
</g>
<!-- WPF_WORKSPACE -->
<g id="node4" class="node">
<title>WPF_WORKSPACE</title>
<path fill="#bfdbfe" stroke="black" d="M741.53,-98C741.53,-98 596.93,-98 596.93,-98 590.93,-98 584.93,-92 584.93,-86 584.93,-86 584.93,-66 584.93,-66 584.93,-60 590.93,-54 596.93,-54 596.93,-54 741.53,-54 741.53,-54 747.53,-54 753.53,-60 753.53,-66 753.53,-66 753.53,-86 753.53,-86 753.53,-92 747.53,-98 741.53,-98"/>
<text xml:space="preserve" text-anchor="middle" x="669.23" y="-85" font-family="Helvetica,sans-Serif" font-size="10.00">StrategyRunWorkspaceService</text>
<text xml:space="preserve" text-anchor="middle" x="669.23" y="-73" font-family="Helvetica,sans-Serif" font-size="10.00">active run context</text>
<text xml:space="preserve" text-anchor="middle" x="669.23" y="-61" font-family="Helvetica,sans-Serif" font-size="10.00">run browser + governance handoff</text>
</g>
<!-- WPF_SURFACES&#45;&gt;WPF_WORKSPACE -->
<g id="edge1" class="edge">
<title>WPF_SURFACES&#45;&gt;WPF_WORKSPACE</title>
<path fill="none" stroke="#4a5568" d="M192.76,-76C294.22,-76 466.3,-76 573.25,-76"/>
<polygon fill="#4a5568" stroke="#4a5568" points="573.16,-79.5 583.16,-76 573.16,-72.5 573.16,-79.5"/>
<text xml:space="preserve" text-anchor="middle" x="404.93" y="-78.7" font-family="Helvetica,sans-Serif" font-size="9.00">desktop pages</text>
</g>
<!-- SECURITY_QUERY -->
<g id="node11" class="node">
<title>SECURITY_QUERY</title>
<path fill="#d1fae5" stroke="black" d="M1898.42,-160C1898.42,-160 1767.48,-160 1767.48,-160 1761.48,-160 1755.48,-154 1755.48,-148 1755.48,-148 1755.48,-128 1755.48,-128 1755.48,-122 1761.48,-116 1767.48,-116 1767.48,-116 1898.42,-116 1898.42,-116 1904.42,-116 1910.42,-122 1910.42,-128 1910.42,-128 1910.42,-148 1910.42,-148 1910.42,-154 1904.42,-160 1898.42,-160"/>
<text xml:space="preserve" text-anchor="middle" x="1832.95" y="-147" font-family="Helvetica,sans-Serif" font-size="10.00">ISecurityMasterQueryService</text>
<text xml:space="preserve" text-anchor="middle" x="1832.95" y="-135" font-family="Helvetica,sans-Serif" font-size="10.00">security detail / history / identity</text>
<text xml:space="preserve" text-anchor="middle" x="1832.95" y="-123" font-family="Helvetica,sans-Serif" font-size="10.00">economic definition</text>
</g>
<!-- WPF_SURFACES&#45;&gt;SECURITY_QUERY -->
<g id="edge4" class="edge">
<title>WPF_SURFACES&#45;&gt;SECURITY_QUERY</title>
<path fill="none" stroke="#2b6cb0" stroke-dasharray="5,2" d="M192.8,-42.78C250.83,-22.33 330.91,0 403.93,0 403.93,0 403.93,0 1510.55,0 1620.13,0 1734.92,-68.57 1793.13,-109.04"/>
<polygon fill="#2b6cb0" stroke="#2b6cb0" points="1790.89,-111.74 1801.08,-114.65 1794.92,-106.02 1790.89,-111.74"/>
<text xml:space="preserve" text-anchor="middle" x="973.28" y="-2.7" font-family="Helvetica,sans-Serif" font-size="9.00">security assurance cards</text>
</g>
<!-- WEB_SHELL -->
<g id="node2" class="node">
<title>WEB_SHELL</title>
<path fill="#805ad5" stroke="black" d="M190.93,-178C190.93,-178 28,-178 28,-178 22,-178 16,-172 16,-166 16,-166 16,-146 16,-146 16,-140 22,-134 28,-134 28,-134 190.93,-134 190.93,-134 196.93,-134 202.93,-140 202.93,-146 202.93,-146 202.93,-166 202.93,-166 202.93,-172 196.93,-178 190.93,-178"/>
<text xml:space="preserve" text-anchor="middle" x="109.46" y="-165" font-family="Helvetica,sans-Serif" font-size="10.00" fill="white">Desktop&#45;local API host</text>
<text xml:space="preserve" text-anchor="middle" x="109.46" y="-153" font-family="Helvetica,sans-Serif" font-size="10.00" fill="white">localhost&#45;only /api/*</text>
<text xml:space="preserve" text-anchor="middle" x="109.46" y="-141" font-family="Helvetica,sans-Serif" font-size="10.00" fill="white">Swagger + retained workstation routes</text>
</g>
<!-- API_SURFACE -->
<g id="node3" class="node">
<title>API_SURFACE</title>
<path fill="#c4b5fd" stroke="black" d="M486.4,-178C486.4,-178 323.47,-178 323.47,-178 317.47,-178 311.47,-172 311.47,-166 311.47,-166 311.47,-122 311.47,-122 311.47,-116 317.47,-110 323.47,-110 323.47,-110 486.4,-110 486.4,-110 492.4,-110 498.4,-116 498.4,-122 498.4,-122 498.4,-166 498.4,-166 498.4,-172 492.4,-178 486.4,-178"/>
<text xml:space="preserve" text-anchor="middle" x="404.93" y="-165" font-family="Helvetica,sans-Serif" font-size="10.00">Retained workstation + portfolio routes</text>
<text xml:space="preserve" text-anchor="middle" x="404.93" y="-153" font-family="Helvetica,sans-Serif" font-size="10.00">/api/workstation/*</text>
<text xml:space="preserve" text-anchor="middle" x="404.93" y="-141" font-family="Helvetica,sans-Serif" font-size="10.00">/api/portfolio/*</text>
<text xml:space="preserve" text-anchor="middle" x="404.93" y="-129" font-family="Helvetica,sans-Serif" font-size="10.00">/api/strategies/*</text>
<text xml:space="preserve" text-anchor="middle" x="404.93" y="-117" font-family="Helvetica,sans-Serif" font-size="10.00">/api/security&#45;master/*</text>
</g>
<!-- WEB_SHELL&#45;&gt;API_SURFACE -->
<g id="edge2" class="edge">
<title>WEB_SHELL&#45;&gt;API_SURFACE</title>
<path fill="none" stroke="#4a5568" d="M203.32,-152.2C233.98,-150.95 268.28,-149.55 299.73,-148.26"/>
<polygon fill="#4a5568" stroke="#4a5568" points="299.82,-151.76 309.67,-147.85 299.53,-144.77 299.82,-151.76"/>
<text xml:space="preserve" text-anchor="middle" x="257.2" y="-154.13" font-family="Helvetica,sans-Serif" font-size="9.00">localhost requests</text>
</g>
<!-- WORKSTATION_ENDPOINTS -->
<g id="node5" class="node">
<title>WORKSTATION_ENDPOINTS</title>
<path fill="#93c5fd" stroke="black" d="M732.47,-178C732.47,-178 605.98,-178 605.98,-178 599.98,-178 593.98,-172 593.98,-166 593.98,-166 593.98,-134 593.98,-134 593.98,-128 599.98,-122 605.98,-122 605.98,-122 732.47,-122 732.47,-122 738.47,-122 744.47,-128 744.47,-134 744.47,-134 744.47,-166 744.47,-166 744.47,-172 738.47,-178 732.47,-178"/>
<text xml:space="preserve" text-anchor="middle" x="669.23" y="-165" font-family="Helvetica,sans-Serif" font-size="10.00">WorkstationEndpoints</text>
<text xml:space="preserve" text-anchor="middle" x="669.23" y="-153" font-family="Helvetica,sans-Serif" font-size="10.00">runs / ledger / cash&#45;flow</text>
<text xml:space="preserve" text-anchor="middle" x="669.23" y="-141" font-family="Helvetica,sans-Serif" font-size="10.00">security master / reconciliation</text>
<text xml:space="preserve" text-anchor="middle" x="669.23" y="-129" font-family="Helvetica,sans-Serif" font-size="10.00">break queue + retained APIs</text>
</g>
<!-- API_SURFACE&#45;&gt;WORKSTATION_ENDPOINTS -->
<g id="edge3" class="edge">
<title>API_SURFACE&#45;&gt;WORKSTATION_ENDPOINTS</title>
<path fill="none" stroke="#4a5568" d="M498.78,-146.12C525.99,-146.75 555.6,-147.42 582.36,-148.04"/>
<polygon fill="#4a5568" stroke="#4a5568" points="582.04,-151.53 592.12,-148.26 582.2,-144.53 582.04,-151.53"/>
<text xml:space="preserve" text-anchor="middle" x="541.66" y="-150.24" font-family="Helvetica,sans-Serif" font-size="9.00">route groups</text>
</g>
<!-- RUN_READ -->
<g id="node6" class="node">
<title>RUN_READ</title>
<path fill="#bfdbfe" stroke="black" d="M1035.69,-73C1035.69,-73 910.86,-73 910.86,-73 904.86,-73 898.86,-67 898.86,-61 898.86,-61 898.86,-41 898.86,-41 898.86,-35 904.86,-29 910.86,-29 910.86,-29 1035.69,-29 1035.69,-29 1041.69,-29 1047.69,-35 1047.69,-41 1047.69,-41 1047.69,-61 1047.69,-61 1047.69,-67 1041.69,-73 1035.69,-73"/>
<text xml:space="preserve" text-anchor="middle" x="973.28" y="-60" font-family="Helvetica,sans-Serif" font-size="10.00">StrategyRunReadService</text>
<text xml:space="preserve" text-anchor="middle" x="973.28" y="-48" font-family="Helvetica,sans-Serif" font-size="10.00">summary, detail, equity curve,</text>
<text xml:space="preserve" text-anchor="middle" x="973.28" y="-36" font-family="Helvetica,sans-Serif" font-size="10.00">fills, attribution</text>
</g>
<!-- WPF_WORKSPACE&#45;&gt;RUN_READ -->
<g id="edge5" class="edge">
<title>WPF_WORKSPACE&#45;&gt;RUN_READ</title>
<path fill="none" stroke="#4a5568" d="M746.69,-53.54C755.01,-51.77 763.41,-50.26 771.53,-49.2 809.26,-44.29 851.33,-43.9 887.16,-45.06"/>
<polygon fill="#4a5568" stroke="#4a5568" points="886.93,-48.55 897.05,-45.43 887.19,-41.56 886.93,-48.55"/>
<text xml:space="preserve" text-anchor="middle" x="813.54" y="-51.9" font-family="Helvetica,sans-Serif" font-size="9.00">desktop drill&#45;ins</text>
</g>
<!-- CASH_FLOW -->
<g id="node9" class="node">
<title>CASH_FLOW</title>
<path fill="#dbeafe" stroke="black" d="M1032.37,-127C1032.37,-127 914.19,-127 914.19,-127 908.19,-127 902.19,-121 902.19,-115 902.19,-115 902.19,-103 902.19,-103 902.19,-97 908.19,-91 914.19,-91 914.19,-91 1032.37,-91 1032.37,-91 1038.37,-91 1044.37,-97 1044.37,-103 1044.37,-103 1044.37,-115 1044.37,-115 1044.37,-121 1038.37,-127 1032.37,-127"/>
<text xml:space="preserve" text-anchor="middle" x="973.28" y="-112" font-family="Helvetica,sans-Serif" font-size="10.00">CashFlowProjectionService</text>
<text xml:space="preserve" text-anchor="middle" x="973.28" y="-100" font-family="Helvetica,sans-Serif" font-size="10.00">cash ladder / bucketed flows</text>
</g>
<!-- WPF_WORKSPACE&#45;&gt;CASH_FLOW -->
<g id="edge6" class="edge">
<title>WPF_WORKSPACE&#45;&gt;CASH_FLOW</title>
<path fill="none" stroke="#4a5568" d="M753.99,-76.09C785.89,-76.95 822.51,-78.94 855.56,-83.2 867.03,-84.68 879.03,-86.73 890.79,-89.05"/>
<polygon fill="#4a5568" stroke="#4a5568" points="889.98,-92.45 900.48,-91.03 891.39,-85.6 889.98,-92.45"/>
<text xml:space="preserve" text-anchor="middle" x="813.54" y="-85.9" font-family="Helvetica,sans-Serif" font-size="9.00">cash flow panels</text>
</g>
<!-- WORKSTATION_ENDPOINTS&#45;&gt;RUN_READ -->
<g id="edge7" class="edge">
<title>WORKSTATION_ENDPOINTS&#45;&gt;RUN_READ</title>
<path fill="none" stroke="#4a5568" d="M744.96,-123.54C753.88,-120.62 762.88,-117.77 771.53,-115.2 808.45,-104.22 820.35,-109.62 855.56,-94 864.35,-90.1 864.89,-86.15 873.56,-82 878.28,-79.74 883.2,-77.6 888.21,-75.58"/>
<polygon fill="#4a5568" stroke="#4a5568" points="889.11,-78.98 897.19,-72.12 886.6,-72.44 889.11,-78.98"/>
<text xml:space="preserve" text-anchor="middle" x="813.54" y="-117.9" font-family="Helvetica,sans-Serif" font-size="9.00">runs / ledger / fills</text>
</g>
<!-- WORKSTATION_ENDPOINTS&#45;&gt;CASH_FLOW -->
<g id="edge8" class="edge">
<title>WORKSTATION_ENDPOINTS&#45;&gt;CASH_FLOW</title>
<path fill="none" stroke="#4a5568" d="M744.72,-141.9C778.59,-138.03 819.15,-133.12 855.56,-128 866.96,-126.4 878.97,-124.58 890.77,-122.73"/>
<polygon fill="#4a5568" stroke="#4a5568" points="891.17,-126.21 900.5,-121.18 890.07,-119.3 891.17,-126.21"/>
<text xml:space="preserve" text-anchor="middle" x="813.54" y="-141.15" font-family="Helvetica,sans-Serif" font-size="9.00">cash&#45;flow projections</text>
</g>
<!-- WORKSTATION_ENDPOINTS&#45;&gt;SECURITY_QUERY -->
<g id="edge9" class="edge">
<title>WORKSTATION_ENDPOINTS&#45;&gt;SECURITY_QUERY</title>
<path fill="none" stroke="#4a5568" d="M744.81,-171.99C782.95,-182.1 830.33,-192.97 873.56,-198 1192.66,-235.15 1574.39,-182.38 1743.66,-154.01"/>
<polygon fill="#4a5568" stroke="#4a5568" points="1744.22,-157.46 1753.5,-152.34 1743.05,-150.56 1744.22,-157.46"/>
<text xml:space="preserve" text-anchor="middle" x="1243.32" y="-212.48" font-family="Helvetica,sans-Serif" font-size="9.00">security master detail</text>
</g>
<!-- RECONCILIATION_NOTE -->
<g id="node12" class="node">
<title>RECONCILIATION_NOTE</title>
<polygon fill="#feebc8" stroke="black" points="1066.99,-189 873.56,-189 873.56,-145 1072.99,-145 1072.99,-183 1066.99,-189"/>
<polyline fill="none" stroke="black" points="1066.99,-189 1066.99,-183"/>
<polyline fill="none" stroke="black" points="1072.99,-183 1066.99,-183"/>
<text xml:space="preserve" text-anchor="middle" x="973.28" y="-176" font-family="Helvetica,sans-Serif" font-size="10.00">Reconciliation + break&#45;queue review</text>
<text xml:space="preserve" text-anchor="middle" x="973.28" y="-164" font-family="Helvetica,sans-Serif" font-size="10.00">live under /api/workstation/reconciliation/*</text>
<text xml:space="preserve" text-anchor="middle" x="973.28" y="-152" font-family="Helvetica,sans-Serif" font-size="10.00">(see fund&#45;ops&#45;reconciliation.dot)</text>
</g>
<!-- WORKSTATION_ENDPOINTS&#45;&gt;RECONCILIATION_NOTE -->
<g id="edge10" class="edge">
<title>WORKSTATION_ENDPOINTS&#45;&gt;RECONCILIATION_NOTE</title>
<path fill="none" stroke="#ed8936" stroke-dasharray="5,2" d="M744.84,-159.64C753.82,-160.56 762.87,-161.38 771.53,-162 800.82,-164.1 832.57,-165.35 861.99,-166.1"/>
<polygon fill="#ed8936" stroke="#ed8936" points="861.55,-169.59 871.63,-166.32 861.72,-162.59 861.55,-169.59"/>
</g>
<!-- PORTFOLIO_READ -->
<g id="node7" class="node">
<title>PORTFOLIO_READ</title>
<path fill="#dbeafe" stroke="black" d="M1286.29,-73C1286.29,-73 1200.35,-73 1200.35,-73 1194.35,-73 1188.35,-67 1188.35,-61 1188.35,-61 1188.35,-41 1188.35,-41 1188.35,-35 1194.35,-29 1200.35,-29 1200.35,-29 1286.29,-29 1286.29,-29 1292.29,-29 1298.29,-35 1298.29,-41 1298.29,-41 1298.29,-61 1298.29,-61 1298.29,-67 1292.29,-73 1286.29,-73"/>
<text xml:space="preserve" text-anchor="middle" x="1243.32" y="-60" font-family="Helvetica,sans-Serif" font-size="10.00">PortfolioReadService</text>
<text xml:space="preserve" text-anchor="middle" x="1243.32" y="-48" font-family="Helvetica,sans-Serif" font-size="10.00">positions, exposure,</text>
<text xml:space="preserve" text-anchor="middle" x="1243.32" y="-36" font-family="Helvetica,sans-Serif" font-size="10.00">security enrichment</text>
</g>
<!-- RUN_READ&#45;&gt;PORTFOLIO_READ -->
<g id="edge11" class="edge">
<title>RUN_READ&#45;&gt;PORTFOLIO_READ</title>
<path fill="none" stroke="#4a5568" d="M1047.88,-51C1088.13,-51 1137.59,-51 1176.55,-51"/>
<polygon fill="#4a5568" stroke="#4a5568" points="1176.51,-54.5 1186.51,-51 1176.51,-47.5 1176.51,-54.5"/>
<text xml:space="preserve" text-anchor="middle" x="1130.25" y="-53.7" font-family="Helvetica,sans-Serif" font-size="9.00">portfolio summaries</text>
</g>
<!-- LEDGER_READ -->
<g id="node8" class="node">
<title>LEDGER_READ</title>
<path fill="#dbeafe" stroke="black" d="M1287.13,-135C1287.13,-135 1199.52,-135 1199.52,-135 1193.52,-135 1187.52,-129 1187.52,-123 1187.52,-123 1187.52,-103 1187.52,-103 1187.52,-97 1193.52,-91 1199.52,-91 1199.52,-91 1287.13,-91 1287.13,-91 1293.13,-91 1299.13,-97 1299.13,-103 1299.13,-103 1299.13,-123 1299.13,-123 1299.13,-129 1293.13,-135 1287.13,-135"/>
<text xml:space="preserve" text-anchor="middle" x="1243.32" y="-122" font-family="Helvetica,sans-Serif" font-size="10.00">LedgerReadService</text>
<text xml:space="preserve" text-anchor="middle" x="1243.32" y="-110" font-family="Helvetica,sans-Serif" font-size="10.00">trial balance,</text>
<text xml:space="preserve" text-anchor="middle" x="1243.32" y="-98" font-family="Helvetica,sans-Serif" font-size="10.00">journal, ledger rollups</text>
</g>
<!-- RUN_READ&#45;&gt;LEDGER_READ -->
<g id="edge12" class="edge">
<title>RUN_READ&#45;&gt;LEDGER_READ</title>
<path fill="none" stroke="#4a5568" d="M1047.88,-68.02C1087.94,-77.29 1137.11,-88.66 1175.98,-97.65"/>
<polygon fill="#4a5568" stroke="#4a5568" points="1175.16,-101.06 1185.7,-99.9 1176.74,-94.24 1175.16,-101.06"/>
<text xml:space="preserve" text-anchor="middle" x="1130.25" y="-97.38" font-family="Helvetica,sans-Serif" font-size="9.00">ledger summaries</text>
</g>
<!-- RUN_STORE -->
<g id="node13" class="node">
<title>RUN_STORE</title>
<path fill="#fecaca" stroke="black" d="M2149.62,-241C2149.62,-243.21 2119.88,-245 2083.26,-245 2046.64,-245 2016.9,-243.21 2016.9,-241 2016.9,-241 2016.9,-205 2016.9,-205 2016.9,-202.79 2046.64,-201 2083.26,-201 2119.88,-201 2149.62,-202.79 2149.62,-205 2149.62,-205 2149.62,-241 2149.62,-241"/>
<path fill="none" stroke="black" d="M2149.62,-241C2149.62,-238.79 2119.88,-237 2083.26,-237 2046.64,-237 2016.9,-238.79 2016.9,-241"/>
<text xml:space="preserve" text-anchor="middle" x="2083.26" y="-226" font-family="Helvetica,sans-Serif" font-size="10.00">StrategyRunStore</text>
<text xml:space="preserve" text-anchor="middle" x="2083.26" y="-214" font-family="Helvetica,sans-Serif" font-size="10.00">backtest / paper / live runs</text>
</g>
<!-- RUN_READ&#45;&gt;RUN_STORE -->
<g id="edge16" class="edge">
<title>RUN_READ&#45;&gt;RUN_STORE</title>
<path fill="none" stroke="#4a5568" d="M1047.94,-67.9C1056.84,-71.7 1065.45,-76.34 1072.99,-82 1084.53,-90.65 1081.95,-97.77 1090.99,-109 1129.73,-157.11 1134.11,-177.95 1187.52,-209 1209.25,-221.64 1217.18,-223 1242.32,-223 1242.32,-223 1242.32,-223 1833.95,-223 1891.32,-223 1956.15,-223 2005.17,-223"/>
<polygon fill="#4a5568" stroke="#4a5568" points="2005.13,-226.5 2015.13,-223 2005.13,-219.5 2005.13,-226.5"/>
<text xml:space="preserve" text-anchor="middle" x="1509.55" y="-225.7" font-family="Helvetica,sans-Serif" font-size="9.00">read run entries</text>
</g>
<!-- SECURITY_LOOKUP -->
<g id="node10" class="node">
<title>SECURITY_LOOKUP</title>
<path fill="#dbeafe" stroke="black" d="M1596.42,-135C1596.42,-135 1422.67,-135 1422.67,-135 1416.67,-135 1410.67,-129 1410.67,-123 1410.67,-123 1410.67,-103 1410.67,-103 1410.67,-97 1416.67,-91 1422.67,-91 1422.67,-91 1596.42,-91 1596.42,-91 1602.42,-91 1608.42,-97 1608.42,-103 1608.42,-103 1608.42,-123 1608.42,-123 1608.42,-129 1602.42,-135 1596.42,-135"/>
<text xml:space="preserve" text-anchor="middle" x="1509.55" y="-122" font-family="Helvetica,sans-Serif" font-size="10.00">SecurityMasterSecurityReferenceLookup</text>
<text xml:space="preserve" text-anchor="middle" x="1509.55" y="-110" font-family="Helvetica,sans-Serif" font-size="10.00">enrich symbols with authoritative</text>
<text xml:space="preserve" text-anchor="middle" x="1509.55" y="-98" font-family="Helvetica,sans-Serif" font-size="10.00">asset&#45;class + identifier data</text>
</g>
<!-- PORTFOLIO_READ&#45;&gt;SECURITY_LOOKUP -->
<g id="edge13" class="edge">
<title>PORTFOLIO_READ&#45;&gt;SECURITY_LOOKUP</title>
<path fill="none" stroke="#4a5568" d="M1298.75,-63.77C1328.53,-70.76 1366.47,-79.66 1401.88,-87.97"/>
<polygon fill="#4a5568" stroke="#4a5568" points="1400.77,-91.3 1411.3,-90.18 1402.37,-84.49 1400.77,-91.3"/>
<text xml:space="preserve" text-anchor="middle" x="1354.9" y="-88.41" font-family="Helvetica,sans-Serif" font-size="9.00">enrich positions</text>
</g>
<!-- LEDGER_READ&#45;&gt;SECURITY_LOOKUP -->
<g id="edge14" class="edge">
<title>LEDGER_READ&#45;&gt;SECURITY_LOOKUP</title>
<path fill="none" stroke="#4a5568" d="M1299.39,-113C1328.32,-113 1364.83,-113 1399.22,-113"/>
<polygon fill="#4a5568" stroke="#4a5568" points="1398.78,-116.5 1408.78,-113 1398.78,-109.5 1398.78,-116.5"/>
<text xml:space="preserve" text-anchor="middle" x="1354.9" y="-115.7" font-family="Helvetica,sans-Serif" font-size="9.00">enrich trial balance</text>
</g>
<!-- CASH_FLOW&#45;&gt;RUN_STORE -->
<g id="edge17" class="edge">
<title>CASH_FLOW&#45;&gt;RUN_STORE</title>
<path fill="none" stroke="#4a5568" d="M1044.63,-117.61C1055.32,-121.72 1065.32,-127.6 1072.99,-136 1103.74,-169.67 1059.37,-204.15 1090.99,-237 1138.73,-286.6 1173.48,-270 1242.32,-270 1242.32,-270 1242.32,-270 1833.95,-270 1892.16,-270 1956.72,-257.38 2005.42,-245.22"/>
<polygon fill="#4a5568" stroke="#4a5568" points="2006.21,-248.63 2015.03,-242.76 2004.48,-241.84 2006.21,-248.63"/>
<text xml:space="preserve" text-anchor="middle" x="1509.55" y="-272.7" font-family="Helvetica,sans-Serif" font-size="9.00">iterate cash&#45;flow metrics</text>
</g>
<!-- SECURITY_LOOKUP&#45;&gt;SECURITY_QUERY -->
<g id="edge15" class="edge">
<title>SECURITY_LOOKUP&#45;&gt;SECURITY_QUERY</title>
<path fill="none" stroke="#4a5568" d="M1608.72,-120.64C1651.76,-123.98 1701.88,-127.88 1743.72,-131.14"/>
<polygon fill="#4a5568" stroke="#4a5568" points="1743.26,-134.61 1753.5,-131.9 1743.8,-127.63 1743.26,-134.61"/>
<text xml:space="preserve" text-anchor="middle" x="1681.95" y="-133.31" font-family="Helvetica,sans-Serif" font-size="9.00">lookup by symbol / identifier</text>
</g>
<!-- SECURITY_STATE -->
<g id="node14" class="node">
<title>SECURITY_STATE</title>
<path fill="#fecaca" stroke="black" d="M2151.56,-179C2151.56,-181.21 2120.95,-183 2083.26,-183 2045.57,-183 2014.96,-181.21 2014.96,-179 2014.96,-179 2014.96,-143 2014.96,-143 2014.96,-140.79 2045.57,-139 2083.26,-139 2120.95,-139 2151.56,-140.79 2151.56,-143 2151.56,-143 2151.56,-179 2151.56,-179"/>
<path fill="none" stroke="black" d="M2151.56,-179C2151.56,-176.79 2120.95,-175 2083.26,-175 2045.57,-175 2014.96,-176.79 2014.96,-179"/>
<text xml:space="preserve" text-anchor="middle" x="2083.26" y="-164" font-family="Helvetica,sans-Serif" font-size="10.00">Security Master projections</text>
<text xml:space="preserve" text-anchor="middle" x="2083.26" y="-152" font-family="Helvetica,sans-Serif" font-size="10.00">cache + backing store</text>
</g>
<!-- SECURITY_QUERY&#45;&gt;SECURITY_STATE -->
<g id="edge18" class="edge">
<title>SECURITY_QUERY&#45;&gt;SECURITY_STATE</title>
<path fill="none" stroke="#4a5568" d="M1910.82,-145.12C1940.24,-147.85 1973.84,-150.96 2003.44,-153.7"/>
<polygon fill="#4a5568" stroke="#4a5568" points="2002.79,-157.15 2013.07,-154.59 2003.44,-150.18 2002.79,-157.15"/>
<text xml:space="preserve" text-anchor="middle" x="1962.69" y="-155.6" font-family="Helvetica,sans-Serif" font-size="9.00">query projections</text>
</g>
<!-- LEG_UI -->
<g id="node15" class="node">
<title>LEG_UI</title>
<path fill="#805ad5" stroke="black" d="M142.98,-260C142.98,-260 75.95,-260 75.95,-260 69.95,-260 63.95,-254 63.95,-248 63.95,-248 63.95,-236 63.95,-236 63.95,-230 69.95,-224 75.95,-224 75.95,-224 142.98,-224 142.98,-224 148.98,-224 154.98,-230 154.98,-236 154.98,-236 154.98,-248 154.98,-248 154.98,-254 148.98,-260 142.98,-260"/>
<text xml:space="preserve" text-anchor="middle" x="109.46" y="-239" font-family="Helvetica,sans-Serif" font-size="10.00" fill="white">Operator surface</text>
</g>
<!-- LEG_APP -->
<g id="node16" class="node">
<title>LEG_APP</title>
<path fill="#bfdbfe" stroke="black" d="M147.15,-314C147.15,-314 71.78,-314 71.78,-314 65.78,-314 59.78,-308 59.78,-302 59.78,-302 59.78,-290 59.78,-290 59.78,-284 65.78,-278 71.78,-278 71.78,-278 147.15,-278 147.15,-278 153.15,-278 159.15,-284 159.15,-290 159.15,-290 159.15,-302 159.15,-302 159.15,-308 153.15,-314 147.15,-314"/>
<text xml:space="preserve" text-anchor="middle" x="109.46" y="-293" font-family="Helvetica,sans-Serif" font-size="10.00">Application service</text>
</g>
<!-- LEG_SUPPORT -->
<g id="node17" class="node">
<title>LEG_SUPPORT</title>
<path fill="#dbeafe" stroke="black" d="M156.05,-368C156.05,-368 62.88,-368 62.88,-368 56.88,-368 50.88,-362 50.88,-356 50.88,-356 50.88,-344 50.88,-344 50.88,-338 56.88,-332 62.88,-332 62.88,-332 156.05,-332 156.05,-332 162.05,-332 168.05,-338 168.05,-344 168.05,-344 168.05,-356 168.05,-356 168.05,-362 162.05,-368 156.05,-368"/>
<text xml:space="preserve" text-anchor="middle" x="109.46" y="-347" font-family="Helvetica,sans-Serif" font-size="10.00">Supporting read model</text>
</g>
<!-- LEG_STORE -->
<g id="node18" class="node">
<title>LEG_STORE</title>
<path fill="#fecaca" stroke="black" d="M167.49,-418.73C167.49,-420.53 141.48,-422 109.46,-422 77.44,-422 51.43,-420.53 51.43,-418.73 51.43,-418.73 51.43,-389.27 51.43,-389.27 51.43,-387.47 77.44,-386 109.46,-386 141.48,-386 167.49,-387.47 167.49,-389.27 167.49,-389.27 167.49,-418.73 167.49,-418.73"/>
<path fill="none" stroke="black" d="M167.49,-418.73C167.49,-416.92 141.48,-415.45 109.46,-415.45 77.44,-415.45 51.43,-416.92 51.43,-418.73"/>
<text xml:space="preserve" text-anchor="middle" x="109.46" y="-401" font-family="Helvetica,sans-Serif" font-size="10.00">Shared persisted state</text>
</g>
</g>
</svg>
