<?xml version="1.0" encoding="UTF-8" standalone="no"?>
<!DOCTYPE svg PUBLIC "-//W3C//DTD SVG 1.1//EN"
 "http://www.w3.org/Graphics/SVG/1.1/DTD/svg11.dtd">
<!-- Generated by graphviz version 14.1.3 (20260303.0454)
 -->
<!-- Title: WorkstationDelivery Pages: 1 -->
<svg width="2191pt" height="612pt"
 viewBox="0.00 0.00 2191.00 612.00" xmlns="http://www.w3.org/2000/svg" xmlns:xlink="http://www.w3.org/1999/xlink">
<g id="graph0" class="graph" transform="scale(1 1) rotate(0) translate(36 575.8)">
<title>WorkstationDelivery</title>
<polygon fill="white" stroke="none" points="-36,36 -36,-575.8 2155.19,-575.8 2155.19,36 -36,36"/>
<text xml:space="preserve" text-anchor="middle" x="1059.59" y="-525" font-family="Helvetica,sans-Serif" font-size="12.00">Meridian &#45; Workstation Delivery</text>
<text xml:space="preserve" text-anchor="middle" x="1059.59" y="-510.6" font-family="Helvetica,sans-Serif" font-size="12.00">Shared read models across WPF and desktop&#45;local API surfaces | v1.8.x</text>
<g id="clust1" class="cluster">
<title>cluster_surfaces</title>
<path fill="#faf5ff" stroke="#805ad5" d="M20,-95C20,-95 494.4,-95 494.4,-95 500.4,-95 506.4,-101 506.4,-107 506.4,-107 506.4,-239 506.4,-239 506.4,-245 500.4,-251 494.4,-251 494.4,-251 20,-251 20,-251 14,-251 8,-245 8,-239 8,-239 8,-107 8,-107 8,-101 14,-95 20,-95"/>
<text xml:space="preserve" text-anchor="middle" x="257.2" y="-236.2" font-family="Helvetica,sans-Serif" font-size="12.00">Operator Surfaces</text>
</g>
<g id="clust2" class="cluster">
<title>cluster_delivery</title>
<path fill="#dbeafe" stroke="#2b6cb0" d="M588.93,-67C588.93,-67 1858.05,-67 1858.05,-67 1864.05,-67 1870.05,-73 1870.05,-79 1870.05,-79 1870.05,-273 1870.05,-273 1870.05,-279 1864.05,-285 1858.05,-285 1858.05,-285 588.93,-285 588.93,-285 582.93,-285 576.93,-279 576.93,-273 576.93,-273 576.93,-79 576.93,-79 576.93,-73 582.93,-67 588.93,-67"/>
<text xml:space="preserve" text-anchor="middle" x="1223.49" y="-270.2" font-family="Helvetica,sans-Serif" font-size="12.00">Shared Delivery Services</text>
</g>
<g id="clust3" class="cluster">
<title>cluster_state</title>
<path fill="#fff5f5" stroke="#c53030" d="M1970.59,-17C1970.59,-17 2099.19,-17 2099.19,-17 2105.19,-17 2111.19,-23 2111.19,-29 2111.19,-29 2111.19,-149 2111.19,-149 2111.19,-155 2105.19,-161 2099.19,-161 2099.19,-161 1970.59,-161 1970.59,-161 1964.59,-161 1958.59,-155 1958.59,-149 1958.59,-149 1958.59,-29 1958.59,-29 1958.59,-23 1964.59,-17 1970.59,-17"/>
<text xml:space="preserve" text-anchor="middle" x="2034.89" y="-146.2" font-family="Helvetica,sans-Serif" font-size="12.00">Shared State</text>
</g>
<g id="clust4" class="cluster">
<title>cluster_legend</title>
<path fill="#fafafa" stroke="#666666" d="M54.88,-259C54.88,-259 164.05,-259 164.05,-259 170.05,-259 176.05,-265 176.05,-271 176.05,-271 176.05,-483 176.05,-483 176.05,-489 170.05,-495 164.05,-495 164.05,-495 54.88,-495 54.88,-495 48.88,-495 42.88,-489 42.88,-483 42.88,-483 42.88,-271 42.88,-271 42.88,-265 48.88,-259 54.88,-259"/>
<text xml:space="preserve" text-anchor="middle" x="109.46" y="-480.2" font-family="Helvetica,sans-Serif" font-size="12.00">Legend</text>
</g>
<!-- WPF_SURFACES -->
<g id="node1" class="node">
<title>WPF_SURFACES</title>
<path fill="#805ad5" stroke="black" d="M180.51,-159C180.51,-159 38.42,-159 38.42,-159 32.42,-159 26.42,-153 26.42,-147 26.42,-147 26.42,-115 26.42,-115 26.42,-109 32.42,-103 38.42,-103 38.42,-103 180.51,-103 180.51,-103 186.51,-103 192.51,-109 192.51,-115 192.51,-115 192.51,-147 192.51,-147 192.51,-153 186.51,-159 180.51,-159"/>
<text xml:space="preserve" text-anchor="middle" x="109.46" y="-146" font-family="Helvetica,sans-Serif" font-size="10.00" fill="white">Meridian.Wpf</text>
<text xml:space="preserve" text-anchor="middle" x="109.46" y="-134" font-family="Helvetica,sans-Serif" font-size="10.00" fill="white">ResearchWorkspaceShellPage</text>
<text xml:space="preserve" text-anchor="middle" x="109.46" y="-122" font-family="Helvetica,sans-Serif" font-size="10.00" fill="white">TradingWorkspaceShellPage</text>
<text xml:space="preserve" text-anchor="middle" x="109.46" y="-110" font-family="Helvetica,sans-Serif" font-size="10.00" fill="white">GovernanceWorkspaceShellPage</text>
</g>
<!-- WPF_WORKSPACE -->
<g id="node4" class="node">
<title>WPF_WORKSPACE</title>
<path fill="#bfdbfe" stroke="black" d="M733.73,-149C733.73,-149 596.93,-149 596.93,-149 590.93,-149 584.93,-143 584.93,-137 584.93,-137 584.93,-117 584.93,-117 584.93,-111 590.93,-105 596.93,-105 596.93,-105 733.73,-105 733.73,-105 739.73,-105 745.73,-111 745.73,-117 745.73,-117 745.73,-137 745.73,-137 745.73,-143 739.73,-149 733.73,-149"/>
<text xml:space="preserve" text-anchor="middle" x="665.33" y="-136" font-family="Helvetica,sans-Serif" font-size="10.00">StrategyRunWorkspaceService</text>
<text xml:space="preserve" text-anchor="middle" x="665.33" y="-124" font-family="Helvetica,sans-Serif" font-size="10.00">active run context</text>
<text xml:space="preserve" text-anchor="middle" x="665.33" y="-112" font-family="Helvetica,sans-Serif" font-size="10.00">run browser + promotion handoff</text>
</g>
<!-- WPF_SURFACES&#45;&gt;WPF_WORKSPACE -->
<g id="edge1" class="edge">
<title>WPF_SURFACES&#45;&gt;WPF_WORKSPACE</title>
<path fill="none" stroke="#4a5568" d="M192.79,-130.41C294.69,-129.67 467.7,-128.42 573.42,-127.66"/>
<polygon fill="#4a5568" stroke="#4a5568" points="573.22,-131.16 583.19,-127.59 573.17,-124.16 573.22,-131.16"/>
<text xml:space="preserve" text-anchor="middle" x="404.93" y="-132.23" font-family="Helvetica,sans-Serif" font-size="9.00">desktop pages</text>
</g>
<!-- WEB_SHELL -->
<g id="node2" class="node">
<title>WEB_SHELL</title>
<path fill="#805ad5" stroke="black" d="M190.93,-221C190.93,-221 28,-221 28,-221 22,-221 16,-215 16,-209 16,-209 16,-189 16,-189 16,-183 22,-177 28,-177 28,-177 190.93,-177 190.93,-177 196.93,-177 202.93,-183 202.93,-189 202.93,-189 202.93,-209 202.93,-209 202.93,-215 196.93,-221 190.93,-221"/>
<text xml:space="preserve" text-anchor="middle" x="109.46" y="-208" font-family="Helvetica,sans-Serif" font-size="10.00" fill="white">Desktop&#45;local API host</text>
<text xml:space="preserve" text-anchor="middle" x="109.46" y="-196" font-family="Helvetica,sans-Serif" font-size="10.00" fill="white">localhost&#45;only /api/*</text>
<text xml:space="preserve" text-anchor="middle" x="109.46" y="-184" font-family="Helvetica,sans-Serif" font-size="10.00" fill="white">Swagger + retained workstation routes</text>
</g>
<!-- API_SURFACE -->
<g id="node3" class="node">
<title>API_SURFACE</title>
<path fill="#c4b5fd" stroke="black" d="M486.4,-221C486.4,-221 323.47,-221 323.47,-221 317.47,-221 311.47,-215 311.47,-209 311.47,-209 311.47,-177 311.47,-177 311.47,-171 317.47,-165 323.47,-165 323.47,-165 486.4,-165 486.4,-165 492.4,-165 498.4,-171 498.4,-177 498.4,-177 498.4,-209 498.4,-209 498.4,-215 492.4,-221 486.4,-221"/>
<text xml:space="preserve" text-anchor="middle" x="404.93" y="-208" font-family="Helvetica,sans-Serif" font-size="10.00">Retained workstation + portfolio routes</text>
<text xml:space="preserve" text-anchor="middle" x="404.93" y="-196" font-family="Helvetica,sans-Serif" font-size="10.00">/api/workstation/*</text>
<text xml:space="preserve" text-anchor="middle" x="404.93" y="-184" font-family="Helvetica,sans-Serif" font-size="10.00">/api/portfolio/*</text>
<text xml:space="preserve" text-anchor="middle" x="404.93" y="-172" font-family="Helvetica,sans-Serif" font-size="10.00">/api/strategies/*</text>
</g>
<!-- WEB_SHELL&#45;&gt;API_SURFACE -->
<g id="edge2" class="edge">
<title>WEB_SHELL&#45;&gt;API_SURFACE</title>
<path fill="none" stroke="#4a5568" d="M203.32,-197.1C233.98,-196.47 268.28,-195.77 299.73,-195.13"/>
<polygon fill="#4a5568" stroke="#4a5568" points="299.74,-198.63 309.66,-194.93 299.59,-191.63 299.74,-198.63"/>
<text xml:space="preserve" text-anchor="middle" x="257.2" y="-199.41" font-family="Helvetica,sans-Serif" font-size="9.00">localhost requests</text>
</g>
<!-- WORKSTATION_ENDPOINTS -->
<g id="node5" class="node">
<title>WORKSTATION_ENDPOINTS</title>
<path fill="#93c5fd" stroke="black" d="M728.58,-223C728.58,-223 602.08,-223 602.08,-223 596.08,-223 590.08,-217 590.08,-211 590.08,-211 590.08,-179 590.08,-179 590.08,-173 596.08,-167 602.08,-167 602.08,-167 728.58,-167 728.58,-167 734.58,-167 740.58,-173 740.58,-179 740.58,-179 740.58,-211 740.58,-211 740.58,-217 734.58,-223 728.58,-223"/>
<text xml:space="preserve" text-anchor="middle" x="665.33" y="-210" font-family="Helvetica,sans-Serif" font-size="10.00">WorkstationEndpoints</text>
<text xml:space="preserve" text-anchor="middle" x="665.33" y="-198" font-family="Helvetica,sans-Serif" font-size="10.00">runs / ledger / cash&#45;flow</text>
<text xml:space="preserve" text-anchor="middle" x="665.33" y="-186" font-family="Helvetica,sans-Serif" font-size="10.00">security master / reconciliation</text>
<text xml:space="preserve" text-anchor="middle" x="665.33" y="-174" font-family="Helvetica,sans-Serif" font-size="10.00">retained workstation APIs</text>
</g>
<!-- API_SURFACE&#45;&gt;WORKSTATION_ENDPOINTS -->
<g id="edge3" class="edge">
<title>API_SURFACE&#45;&gt;WORKSTATION_ENDPOINTS</title>
<path fill="none" stroke="#4a5568" d="M498.86,-193.72C524.7,-193.92 552.66,-194.14 578.1,-194.33"/>
<polygon fill="#4a5568" stroke="#4a5568" points="578.06,-197.83 588.09,-194.41 578.11,-190.83 578.06,-197.83"/>
<text xml:space="preserve" text-anchor="middle" x="541.66" y="-196.94" font-family="Helvetica,sans-Serif" font-size="9.00">route groups</text>
</g>
<!-- RUN_READ -->
<g id="node6" class="node">
<title>RUN_READ</title>
<path fill="#bfdbfe" stroke="black" d="M1007.61,-173C1007.61,-173 882.78,-173 882.78,-173 876.78,-173 870.78,-167 870.78,-161 870.78,-161 870.78,-141 870.78,-141 870.78,-135 876.78,-129 882.78,-129 882.78,-129 1007.61,-129 1007.61,-129 1013.61,-129 1019.61,-135 1019.61,-141 1019.61,-141 1019.61,-161 1019.61,-161 1019.61,-167 1013.61,-173 1007.61,-173"/>
<text xml:space="preserve" text-anchor="middle" x="945.2" y="-160" font-family="Helvetica,sans-Serif" font-size="10.00">StrategyRunReadService</text>
<text xml:space="preserve" text-anchor="middle" x="945.2" y="-148" font-family="Helvetica,sans-Serif" font-size="10.00">summary, detail, equity curve,</text>
<text xml:space="preserve" text-anchor="middle" x="945.2" y="-136" font-family="Helvetica,sans-Serif" font-size="10.00">fills, attribution</text>
</g>
<!-- WPF_WORKSPACE&#45;&gt;RUN_READ -->
<g id="edge4" class="edge">
<title>WPF_WORKSPACE&#45;&gt;RUN_READ</title>
<path fill="none" stroke="#4a5568" d="M746.06,-123.66C777.81,-123.33 814.62,-124.22 847.77,-128.2 851.6,-128.66 855.5,-129.21 859.43,-129.84"/>
<polygon fill="#4a5568" stroke="#4a5568" points="858.59,-133.25 869.04,-131.53 859.8,-126.35 858.59,-133.25"/>
<text xml:space="preserve" text-anchor="middle" x="805.75" y="-130.9" font-family="Helvetica,sans-Serif" font-size="9.00">desktop drill&#45;ins</text>
</g>
<!-- CASH_FLOW -->
<g id="node9" class="node">
<title>CASH_FLOW</title>
<path fill="#dbeafe" stroke="black" d="M1004.29,-111C1004.29,-111 886.1,-111 886.1,-111 880.1,-111 874.1,-105 874.1,-99 874.1,-99 874.1,-87 874.1,-87 874.1,-81 880.1,-75 886.1,-75 886.1,-75 1004.29,-75 1004.29,-75 1010.29,-75 1016.29,-81 1016.29,-87 1016.29,-87 1016.29,-99 1016.29,-99 1016.29,-105 1010.29,-111 1004.29,-111"/>
<text xml:space="preserve" text-anchor="middle" x="945.2" y="-96" font-family="Helvetica,sans-Serif" font-size="10.00">CashFlowProjectionService</text>
<text xml:space="preserve" text-anchor="middle" x="945.2" y="-84" font-family="Helvetica,sans-Serif" font-size="10.00">cash ladder / bucketed flows</text>
</g>
<!-- WPF_WORKSPACE&#45;&gt;CASH_FLOW -->
<g id="edge5" class="edge">
<title>WPF_WORKSPACE&#45;&gt;CASH_FLOW</title>
<path fill="none" stroke="#4a5568" d="M745.97,-111.84C751.97,-110.88 757.94,-109.99 763.73,-109.2 795.94,-104.82 831.54,-101.34 862.55,-98.74"/>
<polygon fill="#4a5568" stroke="#4a5568" points="862.56,-102.25 872.24,-97.95 861.99,-95.28 862.56,-102.25"/>
<text xml:space="preserve" text-anchor="middle" x="805.75" y="-111.9" font-family="Helvetica,sans-Serif" font-size="9.00">cash flow panels</text>
</g>
<!-- WORKSTATION_ENDPOINTS&#45;&gt;RUN_READ -->
<g id="edge6" class="edge">
<title>WORKSTATION_ENDPOINTS&#45;&gt;RUN_READ</title>
<path fill="none" stroke="#4a5568" d="M740.74,-187.74C773.65,-184.07 812.76,-179.1 847.77,-173 851.56,-172.34 855.43,-171.62 859.34,-170.87"/>
<polygon fill="#4a5568" stroke="#4a5568" points="859.78,-174.35 868.9,-168.96 858.41,-167.49 859.78,-174.35"/>
<text xml:space="preserve" text-anchor="middle" x="805.75" y="-187.21" font-family="Helvetica,sans-Serif" font-size="9.00">runs / ledger / fills</text>
</g>
<!-- WORKSTATION_ENDPOINTS&#45;&gt;CASH_FLOW -->
<g id="edge7" class="edge">
<title>WORKSTATION_ENDPOINTS&#45;&gt;CASH_FLOW</title>
<path fill="none" stroke="#4a5568" d="M741.07,-167.48C748.69,-164.92 756.35,-162.45 763.73,-160.2 800.59,-149 814.53,-158.47 847.77,-139 857.81,-133.12 855.99,-126.3 865.77,-120 867.63,-118.8 869.55,-117.65 871.52,-116.54"/>
<polygon fill="#4a5568" stroke="#4a5568" points="872.99,-119.72 880.32,-112.07 869.82,-113.48 872.99,-119.72"/>
<text xml:space="preserve" text-anchor="middle" x="805.75" y="-162.9" font-family="Helvetica,sans-Serif" font-size="9.00">cash&#45;flow projections</text>
</g>
<!-- SECURITY_QUERY -->
<g id="node11" class="node">
<title>SECURITY_QUERY</title>
<path fill="#d1fae5" stroke="black" d="M1850.05,-145C1850.05,-145 1719.11,-145 1719.11,-145 1713.11,-145 1707.11,-139 1707.11,-133 1707.11,-133 1707.11,-121 1707.11,-121 1707.11,-115 1713.11,-109 1719.11,-109 1719.11,-109 1850.05,-109 1850.05,-109 1856.05,-109 1862.05,-115 1862.05,-121 1862.05,-121 1862.05,-133 1862.05,-133 1862.05,-139 1856.05,-145 1850.05,-145"/>
<text xml:space="preserve" text-anchor="middle" x="1784.58" y="-130" font-family="Helvetica,sans-Serif" font-size="10.00">ISecurityMasterQueryService</text>
<text xml:space="preserve" text-anchor="middle" x="1784.58" y="-118" font-family="Helvetica,sans-Serif" font-size="10.00">security detail / history / identity</text>
</g>
<!-- WORKSTATION_ENDPOINTS&#45;&gt;SECURITY_QUERY -->
<g id="edge8" class="edge">
<title>WORKSTATION_ENDPOINTS&#45;&gt;SECURITY_QUERY</title>
<path fill="none" stroke="#4a5568" d="M741.04,-198.38C748.7,-198.63 756.37,-198.85 763.73,-199 801.08,-199.77 810.42,-199.42 847.77,-199 1026.91,-197 1071.96,-201.23 1250.76,-190 1388.68,-181.34 1422.74,-173.61 1560.05,-158 1617.48,-151.47 1631.88,-150.09 1689.11,-142 1691.27,-141.69 1693.45,-141.38 1695.65,-141.06"/>
<polygon fill="#4a5568" stroke="#4a5568" points="1695.91,-144.56 1705.29,-139.64 1694.89,-137.64 1695.91,-144.56"/>
<text xml:space="preserve" text-anchor="middle" x="1194.95" y="-198.43" font-family="Helvetica,sans-Serif" font-size="9.00">security master detail</text>
</g>
<!-- RECONCILIATION_NOTE -->
<g id="node12" class="node">
<title>RECONCILIATION_NOTE</title>
<polygon fill="#feebc8" stroke="black" points="1018.62,-255 865.77,-255 865.77,-211 1024.62,-211 1024.62,-249 1018.62,-255"/>
<polyline fill="none" stroke="black" points="1018.62,-255 1018.62,-249"/>
<polyline fill="none" stroke="black" points="1024.62,-249 1018.62,-249"/>
<text xml:space="preserve" text-anchor="middle" x="945.2" y="-242" font-family="Helvetica,sans-Serif" font-size="10.00">Reconciliation endpoints use</text>
<text xml:space="preserve" text-anchor="middle" x="945.2" y="-230" font-family="Helvetica,sans-Serif" font-size="10.00">IReconciliationRunService</text>
<text xml:space="preserve" text-anchor="middle" x="945.2" y="-218" font-family="Helvetica,sans-Serif" font-size="10.00">(see fund&#45;ops&#45;reconciliation.dot)</text>
</g>
<!-- WORKSTATION_ENDPOINTS&#45;&gt;RECONCILIATION_NOTE -->
<g id="edge9" class="edge">
<title>WORKSTATION_ENDPOINTS&#45;&gt;RECONCILIATION_NOTE</title>
<path fill="none" stroke="#ed8936" stroke-dasharray="5,2" d="M740.85,-212.9C748.55,-214.43 756.28,-215.83 763.73,-217 792.95,-221.57 825.05,-224.95 853.97,-227.38"/>
<polygon fill="#ed8936" stroke="#ed8936" points="853.54,-230.86 863.8,-228.18 854.11,-223.88 853.54,-230.86"/>
</g>
<!-- PORTFOLIO_READ -->
<g id="node7" class="node">
<title>PORTFOLIO_READ</title>
<path fill="#dbeafe" stroke="black" d="M1237.92,-119C1237.92,-119 1151.98,-119 1151.98,-119 1145.98,-119 1139.98,-113 1139.98,-107 1139.98,-107 1139.98,-87 1139.98,-87 1139.98,-81 1145.98,-75 1151.98,-75 1151.98,-75 1237.92,-75 1237.92,-75 1243.92,-75 1249.92,-81 1249.92,-87 1249.92,-87 1249.92,-107 1249.92,-107 1249.92,-113 1243.92,-119 1237.92,-119"/>
<text xml:space="preserve" text-anchor="middle" x="1194.95" y="-106" font-family="Helvetica,sans-Serif" font-size="10.00">PortfolioReadService</text>
<text xml:space="preserve" text-anchor="middle" x="1194.95" y="-94" font-family="Helvetica,sans-Serif" font-size="10.00">positions, exposure,</text>
<text xml:space="preserve" text-anchor="middle" x="1194.95" y="-82" font-family="Helvetica,sans-Serif" font-size="10.00">security enrichment</text>
</g>
<!-- RUN_READ&#45;&gt;PORTFOLIO_READ -->
<g id="edge10" class="edge">
<title>RUN_READ&#45;&gt;PORTFOLIO_READ</title>
<path fill="none" stroke="#4a5568" d="M1019.86,-134.94C1054.46,-127.4 1095.35,-118.49 1128.81,-111.2"/>
<polygon fill="#4a5568" stroke="#4a5568" points="1129.35,-114.66 1138.37,-109.11 1127.86,-107.82 1129.35,-114.66"/>
<text xml:space="preserve" text-anchor="middle" x="1081.88" y="-131.54" font-family="Helvetica,sans-Serif" font-size="9.00">portfolio summaries</text>
</g>
<!-- LEDGER_READ -->
<g id="node8" class="node">
<title>LEDGER_READ</title>
<path fill="#dbeafe" stroke="black" d="M1238.76,-181C1238.76,-181 1151.15,-181 1151.15,-181 1145.15,-181 1139.15,-175 1139.15,-169 1139.15,-169 1139.15,-149 1139.15,-149 1139.15,-143 1145.15,-137 1151.15,-137 1151.15,-137 1238.76,-137 1238.76,-137 1244.76,-137 1250.76,-143 1250.76,-149 1250.76,-149 1250.76,-169 1250.76,-169 1250.76,-175 1244.76,-181 1238.76,-181"/>
<text xml:space="preserve" text-anchor="middle" x="1194.95" y="-168" font-family="Helvetica,sans-Serif" font-size="10.00">LedgerReadService</text>
<text xml:space="preserve" text-anchor="middle" x="1194.95" y="-156" font-family="Helvetica,sans-Serif" font-size="10.00">trial balance,</text>
<text xml:space="preserve" text-anchor="middle" x="1194.95" y="-144" font-family="Helvetica,sans-Serif" font-size="10.00">journal, ledger rollups</text>
</g>
<!-- RUN_READ&#45;&gt;LEDGER_READ -->
<g id="edge11" class="edge">
<title>RUN_READ&#45;&gt;LEDGER_READ</title>
<path fill="none" stroke="#4a5568" d="M1019.86,-153.38C1053.93,-154.48 1094.1,-155.78 1127.26,-156.85"/>
<polygon fill="#4a5568" stroke="#4a5568" points="1127.05,-160.34 1137.16,-157.17 1127.28,-153.35 1127.05,-160.34"/>
<text xml:space="preserve" text-anchor="middle" x="1081.88" y="-159.34" font-family="Helvetica,sans-Serif" font-size="9.00">ledger summaries</text>
</g>
<!-- RUN_STORE -->
<g id="node13" class="node">
<title>RUN_STORE</title>
<path fill="#fecaca" stroke="black" d="M2101.25,-65C2101.25,-67.21 2071.51,-69 2034.89,-69 1998.27,-69 1968.53,-67.21 1968.53,-65 1968.53,-65 1968.53,-29 1968.53,-29 1968.53,-26.79 1998.27,-25 2034.89,-25 2071.51,-25 2101.25,-26.79 2101.25,-29 2101.25,-29 2101.25,-65 2101.25,-65"/>
<path fill="none" stroke="black" d="M2101.25,-65C2101.25,-62.79 2071.51,-61 2034.89,-61 1998.27,-61 1968.53,-62.79 1968.53,-65"/>
<text xml:space="preserve" text-anchor="middle" x="2034.89" y="-50" font-family="Helvetica,sans-Serif" font-size="10.00">StrategyRunStore</text>
<text xml:space="preserve" text-anchor="middle" x="2034.89" y="-38" font-family="Helvetica,sans-Serif" font-size="10.00">backtest / paper / live runs</text>
</g>
<!-- RUN_READ&#45;&gt;RUN_STORE -->
<g id="edge15" class="edge">
<title>RUN_READ&#45;&gt;RUN_STORE</title>
<path fill="none" stroke="#4a5568" d="M1006.19,-128.53C1012.48,-125.8 1018.73,-122.94 1024.62,-120 1033.01,-115.82 1034.32,-113.36 1042.62,-109 1084.2,-87.15 1095.47,-83.26 1139.15,-66 1163.12,-56.52 1168.17,-47 1193.95,-47 1193.95,-47 1193.95,-47 1785.58,-47 1842.95,-47 1907.78,-47 1956.8,-47"/>
<polygon fill="#4a5568" stroke="#4a5568" points="1956.76,-50.5 1966.76,-47 1956.76,-43.5 1956.76,-50.5"/>
<text xml:space="preserve" text-anchor="middle" x="1461.18" y="-49.7" font-family="Helvetica,sans-Serif" font-size="9.00">read run entries</text>
</g>
<!-- SECURITY_LOOKUP -->
<g id="node10" class="node">
<title>SECURITY_LOOKUP</title>
<path fill="#dbeafe" stroke="black" d="M1548.05,-149C1548.05,-149 1374.3,-149 1374.3,-149 1368.3,-149 1362.3,-143 1362.3,-137 1362.3,-137 1362.3,-117 1362.3,-117 1362.3,-111 1368.3,-105 1374.3,-105 1374.3,-105 1548.05,-105 1548.05,-105 1554.05,-105 1560.05,-111 1560.05,-117 1560.05,-117 1560.05,-137 1560.05,-137 1560.05,-143 1554.05,-149 1548.05,-149"/>
<text xml:space="preserve" text-anchor="middle" x="1461.18" y="-136" font-family="Helvetica,sans-Serif" font-size="10.00">SecurityMasterSecurityReferenceLookup</text>
<text xml:space="preserve" text-anchor="middle" x="1461.18" y="-124" font-family="Helvetica,sans-Serif" font-size="10.00">enrich symbols with authoritative</text>
<text xml:space="preserve" text-anchor="middle" x="1461.18" y="-112" font-family="Helvetica,sans-Serif" font-size="10.00">asset&#45;class + identifier data</text>
</g>
<!-- PORTFOLIO_READ&#45;&gt;SECURITY_LOOKUP -->
<g id="edge12" class="edge">
<title>PORTFOLIO_READ&#45;&gt;SECURITY_LOOKUP</title>
<path fill="none" stroke="#4a5568" d="M1250.24,-102.24C1278.34,-105.03 1313.18,-108.62 1344.3,-112.2 1346.36,-112.44 1348.45,-112.68 1350.55,-112.93"/>
<polygon fill="#4a5568" stroke="#4a5568" points="1350.05,-116.39 1360.39,-114.1 1350.87,-109.44 1350.05,-116.39"/>
<text xml:space="preserve" text-anchor="middle" x="1306.53" y="-114.9" font-family="Helvetica,sans-Serif" font-size="9.00">enrich positions</text>
</g>
<!-- LEDGER_READ&#45;&gt;SECURITY_LOOKUP -->
<g id="edge13" class="edge">
<title>LEDGER_READ&#45;&gt;SECURITY_LOOKUP</title>
<path fill="none" stroke="#4a5568" d="M1251.02,-152.33C1279.95,-148.83 1316.46,-144.41 1350.85,-140.24"/>
<polygon fill="#4a5568" stroke="#4a5568" points="1350.92,-143.76 1360.42,-139.08 1350.08,-136.81 1350.92,-143.76"/>
<text xml:space="preserve" text-anchor="middle" x="1306.53" y="-152.24" font-family="Helvetica,sans-Serif" font-size="9.00">enrich trial balance</text>
</g>
<!-- CASH_FLOW&#45;&gt;RUN_STORE -->
<g id="edge16" class="edge">
<title>CASH_FLOW&#45;&gt;RUN_STORE</title>
<path fill="none" stroke="#4a5568" d="M970.31,-74.73C989.09,-61.33 1016.31,-43.68 1042.62,-33 1106.4,-7.1 1125.11,0 1193.95,0 1193.95,0 1193.95,0 1785.58,0 1843.79,0 1908.35,-12.62 1957.05,-24.78"/>
<polygon fill="#4a5568" stroke="#4a5568" points="1956.11,-28.16 1966.67,-27.24 1957.84,-21.37 1956.11,-28.16"/>
<text xml:space="preserve" text-anchor="middle" x="1461.18" y="-2.7" font-family="Helvetica,sans-Serif" font-size="9.00">iterate cash&#45;flow metrics</text>
</g>
<!-- SECURITY_LOOKUP&#45;&gt;SECURITY_QUERY -->
<g id="edge14" class="edge">
<title>SECURITY_LOOKUP&#45;&gt;SECURITY_QUERY</title>
<path fill="none" stroke="#4a5568" d="M1560.35,-127C1603.39,-127 1653.52,-127 1695.35,-127"/>
<polygon fill="#4a5568" stroke="#4a5568" points="1695.12,-130.5 1705.12,-127 1695.12,-123.5 1695.12,-130.5"/>
<text xml:space="preserve" text-anchor="middle" x="1633.58" y="-129.7" font-family="Helvetica,sans-Serif" font-size="9.00">lookup by symbol / identifier</text>
</g>
<!-- SECURITY_STATE -->
<g id="node14" class="node">
<title>SECURITY_STATE</title>
<path fill="#fecaca" stroke="black" d="M2103.19,-127C2103.19,-129.21 2072.58,-131 2034.89,-131 1997.2,-131 1966.59,-129.21 1966.59,-127 1966.59,-127 1966.59,-91 1966.59,-91 1966.59,-88.79 1997.2,-87 2034.89,-87 2072.58,-87 2103.19,-88.79 2103.19,-91 2103.19,-91 2103.19,-127 2103.19,-127"/>
<path fill="none" stroke="black" d="M2103.19,-127C2103.19,-124.79 2072.58,-123 2034.89,-123 1997.2,-123 1966.59,-124.79 1966.59,-127"/>
<text xml:space="preserve" text-anchor="middle" x="2034.89" y="-112" font-family="Helvetica,sans-Serif" font-size="10.00">Security Master projections</text>
<text xml:space="preserve" text-anchor="middle" x="2034.89" y="-100" font-family="Helvetica,sans-Serif" font-size="10.00">cache + backing store</text>
</g>
<!-- SECURITY_QUERY&#45;&gt;SECURITY_STATE -->
<g id="edge17" class="edge">
<title>SECURITY_QUERY&#45;&gt;SECURITY_STATE</title>
<path fill="none" stroke="#4a5568" d="M1862.45,-121.43C1891.87,-119.29 1925.47,-116.86 1955.08,-114.71"/>
<polygon fill="#4a5568" stroke="#4a5568" points="1954.98,-118.23 1964.7,-114.02 1954.47,-111.25 1954.98,-118.23"/>
<text xml:space="preserve" text-anchor="middle" x="1914.32" y="-122.84" font-family="Helvetica,sans-Serif" font-size="9.00">query projections</text>
</g>
<!-- LEG_UI -->
<g id="node15" class="node">
<title>LEG_UI</title>
<path fill="#805ad5" stroke="black" d="M142.98,-303C142.98,-303 75.95,-303 75.95,-303 69.95,-303 63.95,-297 63.95,-291 63.95,-291 63.95,-279 63.95,-279 63.95,-273 69.95,-267 75.95,-267 75.95,-267 142.98,-267 142.98,-267 148.98,-267 154.98,-273 154.98,-279 154.98,-279 154.98,-291 154.98,-291 154.98,-297 148.98,-303 142.98,-303"/>
<text xml:space="preserve" text-anchor="middle" x="109.46" y="-282" font-family="Helvetica,sans-Serif" font-size="10.00" fill="white">Operator surface</text>
</g>
<!-- LEG_APP -->
<g id="node16" class="node">
<title>LEG_APP</title>
<path fill="#bfdbfe" stroke="black" d="M147.15,-357C147.15,-357 71.78,-357 71.78,-357 65.78,-357 59.78,-351 59.78,-345 59.78,-345 59.78,-333 59.78,-333 59.78,-327 65.78,-321 71.78,-321 71.78,-321 147.15,-321 147.15,-321 153.15,-321 159.15,-327 159.15,-333 159.15,-333 159.15,-345 159.15,-345 159.15,-351 153.15,-357 147.15,-357"/>
<text xml:space="preserve" text-anchor="middle" x="109.46" y="-336" font-family="Helvetica,sans-Serif" font-size="10.00">Application service</text>
</g>
<!-- LEG_SUPPORT -->
<g id="node17" class="node">
<title>LEG_SUPPORT</title>
<path fill="#dbeafe" stroke="black" d="M156.05,-411C156.05,-411 62.88,-411 62.88,-411 56.88,-411 50.88,-405 50.88,-399 50.88,-399 50.88,-387 50.88,-387 50.88,-381 56.88,-375 62.88,-375 62.88,-375 156.05,-375 156.05,-375 162.05,-375 168.05,-381 168.05,-387 168.05,-387 168.05,-399 168.05,-399 168.05,-405 162.05,-411 156.05,-411"/>
<text xml:space="preserve" text-anchor="middle" x="109.46" y="-390" font-family="Helvetica,sans-Serif" font-size="10.00">Supporting read model</text>
</g>
<!-- LEG_STORE -->
<g id="node18" class="node">
<title>LEG_STORE</title>
<path fill="#fecaca" stroke="black" d="M167.49,-461.73C167.49,-463.53 141.48,-465 109.46,-465 77.44,-465 51.43,-463.53 51.43,-461.73 51.43,-461.73 51.43,-432.27 51.43,-432.27 51.43,-430.47 77.44,-429 109.46,-429 141.48,-429 167.49,-430.47 167.49,-432.27 167.49,-432.27 167.49,-461.73 167.49,-461.73"/>
<path fill="none" stroke="black" d="M167.49,-461.73C167.49,-459.92 141.48,-458.45 109.46,-458.45 77.44,-458.45 51.43,-459.92 51.43,-461.73"/>
<text xml:space="preserve" text-anchor="middle" x="109.46" y="-444" font-family="Helvetica,sans-Serif" font-size="10.00">Shared persisted state</text>
</g>
</g>
</svg>
