<?xml version="1.0" encoding="UTF-8" standalone="no"?>
<!DOCTYPE svg PUBLIC "-//W3C//DTD SVG 1.1//EN"
 "http://www.w3.org/Graphics/SVG/1.1/DTD/svg11.dtd">
<!-- Generated by graphviz version 2.43.0 (0)
 -->
<!-- Title: ProviderArchitecture Pages: 1 -->
<svg width="2843pt" height="1236pt"
 viewBox="0.00 0.00 2842.70 1235.53" xmlns="http://www.w3.org/2000/svg" xmlns:xlink="http://www.w3.org/1999/xlink">
<g id="graph0" class="graph" transform="scale(1 1) rotate(0) translate(36 1199.53)">
<title>ProviderArchitecture</title>
<polygon fill="white" stroke="transparent" points="-36,36 -36,-1199.53 2806.7,-1199.53 2806.7,36 -36,36"/>
<text text-anchor="middle" x="1385.35" y="-1149.93" font-family="Helvetica,sans-Serif" font-size="12.00">Meridian &#45; Provider Architecture</text>
<text text-anchor="middle" x="1385.35" y="-1136.93" font-family="Helvetica,sans-Serif" font-size="12.00">Unified Data Source Abstraction | v1.7.x</text>
<g id="clust1" class="cluster">
<title>cluster_interfaces</title>
<path fill="#faf5ff" stroke="#805ad5" d="M333.7,-175C333.7,-175 869.7,-175 869.7,-175 875.7,-175 881.7,-181 881.7,-187 881.7,-187 881.7,-840.02 881.7,-840.02 881.7,-846.02 875.7,-852.02 869.7,-852.02 869.7,-852.02 333.7,-852.02 333.7,-852.02 327.7,-852.02 321.7,-846.02 321.7,-840.02 321.7,-840.02 321.7,-187 321.7,-187 321.7,-181 327.7,-175 333.7,-175"/>
<text text-anchor="middle" x="601.7" y="-838.42" font-family="Helvetica,sans-Serif" font-size="12.00">Provider Abstractions (Infrastructure/DataSources/)</text>
</g>
<g id="clust2" class="cluster">
<title>cluster_core_interfaces</title>
<polygon fill="#faf5ff" stroke="#6b21a8" stroke-dasharray="5,2" points="479.7,-183 479.7,-469.26 873.7,-469.26 873.7,-183 479.7,-183"/>
<text text-anchor="middle" x="676.7" y="-455.66" font-family="Helvetica,sans-Serif" font-size="12.00">Core Interfaces</text>
</g>
<g id="clust3" class="cluster">
<title>cluster_legacy_interfaces</title>
<polygon fill="#faf5ff" stroke="#6b21a8" stroke-dasharray="5,2" points="329.7,-695.51 329.7,-823.02 729.7,-823.02 729.7,-695.51 329.7,-695.51"/>
<text text-anchor="middle" x="529.7" y="-809.42" font-family="Helvetica,sans-Serif" font-size="12.00">Legacy Interfaces (Compatibility)</text>
</g>
<g id="clust4" class="cluster">
<title>cluster_streaming</title>
<path fill="#dbeafe" stroke="#2b6cb0" d="M901.7,-507.51C901.7,-507.51 1831.7,-507.51 1831.7,-507.51 1837.7,-507.51 1843.7,-513.51 1843.7,-519.51 1843.7,-519.51 1843.7,-655.51 1843.7,-655.51 1843.7,-661.51 1837.7,-667.51 1831.7,-667.51 1831.7,-667.51 901.7,-667.51 901.7,-667.51 895.7,-667.51 889.7,-661.51 889.7,-655.51 889.7,-655.51 889.7,-519.51 889.7,-519.51 889.7,-513.51 895.7,-507.51 901.7,-507.51"/>
<text text-anchor="middle" x="1366.7" y="-653.91" font-family="Helvetica,sans-Serif" font-size="12.00">Real&#45;Time Streaming Providers (5 Production)</text>
</g>
<g id="clust5" class="cluster">
<title>cluster_production_streaming</title>
<polygon fill="#dbeafe" stroke="#1e40af" stroke-dasharray="5,2" points="1233.7,-515.51 1233.7,-638.51 1835.7,-638.51 1835.7,-515.51 1233.7,-515.51"/>
<text text-anchor="middle" x="1534.7" y="-624.91" font-family="Helvetica,sans-Serif" font-size="12.00">Implemented</text>
</g>
<g id="clust6" class="cluster">
<title>cluster_polygon_streaming</title>
<polygon fill="#dbeafe" stroke="#1e40af" stroke-dasharray="5,2" points="897.7,-515.51 897.7,-638.51 1225.7,-638.51 1225.7,-515.51 897.7,-515.51"/>
<text text-anchor="middle" x="1061.7" y="-624.91" font-family="Helvetica,sans-Serif" font-size="12.00">Additional Providers</text>
</g>
<g id="clust7" class="cluster">
<title>cluster_historical</title>
<path fill="#d1fae5" stroke="#2c7a7b" d="M901.7,-8C901.7,-8 2632.7,-8 2632.7,-8 2638.7,-8 2644.7,-14 2644.7,-20 2644.7,-20 2644.7,-301.75 2644.7,-301.75 2644.7,-307.75 2638.7,-313.75 2632.7,-313.75 2632.7,-313.75 901.7,-313.75 901.7,-313.75 895.7,-313.75 889.7,-307.75 889.7,-301.75 889.7,-301.75 889.7,-20 889.7,-20 889.7,-14 895.7,-8 901.7,-8"/>
<text text-anchor="middle" x="1767.2" y="-300.15" font-family="Helvetica,sans-Serif" font-size="12.00">Historical Data Providers (12 Production + 1 Development)</text>
</g>
<g id="clust8" class="cluster">
<title>cluster_hist_tier1</title>
<polygon fill="#d1fae5" stroke="#047857" stroke-dasharray="5,2" points="897.7,-21.5 897.7,-133.5 1177.7,-133.5 1177.7,-21.5 897.7,-21.5"/>
<text text-anchor="middle" x="1037.7" y="-119.9" font-family="Helvetica,sans-Serif" font-size="12.00">Tier 1 &#45; Primary (Priority 5)</text>
</g>
<g id="clust9" class="cluster">
<title>cluster_hist_tier2</title>
<polygon fill="#d1fae5" stroke="#047857" stroke-dasharray="5,2" points="1185.7,-21.5 1185.7,-133.5 1544.7,-133.5 1544.7,-21.5 1185.7,-21.5"/>
<text text-anchor="middle" x="1365.2" y="-119.9" font-family="Helvetica,sans-Serif" font-size="12.00">Tier 2 &#45; Secondary (Priority 10&#45;20)</text>
</g>
<g id="clust10" class="cluster">
<title>cluster_hist_tier3</title>
<polygon fill="#d1fae5" stroke="#047857" stroke-dasharray="5,2" points="1552.7,-16 1552.7,-139 2636.7,-139 2636.7,-16 1552.7,-16"/>
<text text-anchor="middle" x="2094.7" y="-125.4" font-family="Helvetica,sans-Serif" font-size="12.00">Tier 3 &#45; Fallback (Priority 25+)</text>
</g>
<g id="clust11" class="cluster">
<title>cluster_resilience</title>
<path fill="#fee2e2" stroke="#c53030" d="M1213.7,-341.51C1213.7,-341.51 1835.7,-341.51 1835.7,-341.51 1841.7,-341.51 1847.7,-347.51 1847.7,-353.51 1847.7,-353.51 1847.7,-478.51 1847.7,-478.51 1847.7,-484.51 1841.7,-490.51 1835.7,-490.51 1835.7,-490.51 1213.7,-490.51 1213.7,-490.51 1207.7,-490.51 1201.7,-484.51 1201.7,-478.51 1201.7,-478.51 1201.7,-353.51 1201.7,-353.51 1201.7,-347.51 1207.7,-341.51 1213.7,-341.51"/>
<text text-anchor="middle" x="1524.7" y="-476.91" font-family="Helvetica,sans-Serif" font-size="12.00">Resilience &amp; Connection Management</text>
</g>
<g id="clust12" class="cluster">
<title>cluster_connection</title>
<polygon fill="#fee2e2" stroke="#991b1b" stroke-dasharray="5,2" points="1485.7,-349.51 1485.7,-461.51 1839.7,-461.51 1839.7,-349.51 1485.7,-349.51"/>
<text text-anchor="middle" x="1662.7" y="-447.91" font-family="Helvetica,sans-Serif" font-size="12.00">Connection Management</text>
</g>
<g id="clust13" class="cluster">
<title>cluster_failover</title>
<polygon fill="#fee2e2" stroke="#991b1b" stroke-dasharray="5,2" points="1209.7,-355.01 1209.7,-456.01 1477.7,-456.01 1477.7,-355.01 1209.7,-355.01"/>
<text text-anchor="middle" x="1343.7" y="-442.41" font-family="Helvetica,sans-Serif" font-size="12.00">Failover &amp; Load Balancing</text>
</g>
<g id="clust14" class="cluster">
<title>cluster_symbol_search</title>
<path fill="#fffaf0" stroke="#ed8936" d="M903.7,-871.02C903.7,-871.02 1790.7,-871.02 1790.7,-871.02 1796.7,-871.02 1802.7,-877.02 1802.7,-883.02 1802.7,-883.02 1802.7,-1109.53 1802.7,-1109.53 1802.7,-1115.53 1796.7,-1121.53 1790.7,-1121.53 1790.7,-1121.53 903.7,-1121.53 903.7,-1121.53 897.7,-1121.53 891.7,-1115.53 891.7,-1109.53 891.7,-1109.53 891.7,-883.02 891.7,-883.02 891.7,-877.02 897.7,-871.02 903.7,-871.02"/>
<text text-anchor="middle" x="1347.2" y="-1107.93" font-family="Helvetica,sans-Serif" font-size="12.00">Symbol Search Providers (5 Implemented)</text>
</g>
<g id="clust15" class="cluster">
<title>cluster_symbols</title>
<path fill="#c6f6d5" stroke="#38a169" d="M1473.7,-708.76C1473.7,-708.76 1803.7,-708.76 1803.7,-708.76 1809.7,-708.76 1815.7,-714.76 1815.7,-720.76 1815.7,-720.76 1815.7,-797.76 1815.7,-797.76 1815.7,-803.76 1809.7,-809.76 1803.7,-809.76 1803.7,-809.76 1473.7,-809.76 1473.7,-809.76 1467.7,-809.76 1461.7,-803.76 1461.7,-797.76 1461.7,-797.76 1461.7,-720.76 1461.7,-720.76 1461.7,-714.76 1467.7,-708.76 1473.7,-708.76"/>
<text text-anchor="middle" x="1638.7" y="-796.16" font-family="Helvetica,sans-Serif" font-size="12.00">Symbol Resolution &amp; Mapping</text>
</g>
<g id="clust16" class="cluster">
<title>cluster_streaming_failover</title>
<polygon fill="#fff5f5" stroke="#c53030" stroke-dasharray="5,2" points="1823.7,-703.26 1823.7,-815.26 2019.7,-815.26 2019.7,-703.26 1823.7,-703.26"/>
<text text-anchor="middle" x="1921.7" y="-801.66" font-family="Helvetica,sans-Serif" font-size="12.00">Streaming Failover Wrapper</text>
</g>
<g id="clust17" class="cluster">
<title>cluster_legend</title>
<path fill="#fafafa" stroke="#666666" d="M1822.7,-1021.27C1822.7,-1021.27 2750.7,-1021.27 2750.7,-1021.27 2756.7,-1021.27 2762.7,-1027.27 2762.7,-1033.27 2762.7,-1033.27 2762.7,-1082.27 2762.7,-1082.27 2762.7,-1088.27 2756.7,-1094.27 2750.7,-1094.27 2750.7,-1094.27 1822.7,-1094.27 1822.7,-1094.27 1816.7,-1094.27 1810.7,-1088.27 1810.7,-1082.27 1810.7,-1082.27 1810.7,-1033.27 1810.7,-1033.27 1810.7,-1027.27 1816.7,-1021.27 1822.7,-1021.27"/>
<text text-anchor="middle" x="2286.7" y="-1080.67" font-family="Helvetica,sans-Serif" font-size="12.00">Legend</text>
</g>
<!-- I_DATASOURCE -->
<g id="node1" class="node">
<title>I_DATASOURCE</title>
<ellipse fill="#ddd6fe" stroke="black" cx="761.7" cy="-395.01" rx="103.89" ry="45.01"/>
<text text-anchor="middle" x="761.7" y="-415.01" font-family="Helvetica,sans-Serif" font-size="10.00">IDataSource</text>
<text text-anchor="middle" x="761.7" y="-404.01" font-family="Helvetica,sans-Serif" font-size="10.00">[Base Interface]</text>
<text text-anchor="middle" x="761.7" y="-381.01" font-family="Helvetica,sans-Serif" font-size="10.00">Common provider contract</text>
<text text-anchor="middle" x="761.7" y="-370.01" font-family="Helvetica,sans-Serif" font-size="10.00">Capabilities discovery</text>
</g>
<!-- I_REALTIME -->
<g id="node2" class="node">
<title>I_REALTIME</title>
<ellipse fill="#ddd6fe" stroke="black" cx="578.7" cy="-236.25" rx="91.43" ry="45.01"/>
<text text-anchor="middle" x="578.7" y="-256.25" font-family="Helvetica,sans-Serif" font-size="10.00">IRealtimeDataSource</text>
<text text-anchor="middle" x="578.7" y="-245.25" font-family="Helvetica,sans-Serif" font-size="10.00">[Interface]</text>
<text text-anchor="middle" x="578.7" y="-222.25" font-family="Helvetica,sans-Serif" font-size="10.00">Trades, Quotes, Depth</text>
<text text-anchor="middle" x="578.7" y="-211.25" font-family="Helvetica,sans-Serif" font-size="10.00">Streaming subscription</text>
</g>
<!-- I_DATASOURCE&#45;&gt;I_REALTIME -->
<g id="edge1" class="edge">
<title>I_DATASOURCE&#45;&gt;I_REALTIME</title>
<path fill="none" stroke="#4a5568" stroke-dasharray="5,2" d="M715.52,-354.45C689.89,-332.5 657.91,-305.1 631.31,-282.32"/>
<polygon fill="#4a5568" stroke="#4a5568" points="633.47,-279.56 623.6,-275.71 628.92,-284.88 633.47,-279.56"/>
<text text-anchor="middle" x="704.2" y="-324.55" font-family="Helvetica,sans-Serif" font-size="9.00">extends</text>
</g>
<!-- I_HISTORICAL -->
<g id="node3" class="node">
<title>I_HISTORICAL</title>
<ellipse fill="#ddd6fe" stroke="black" cx="776.7" cy="-236.25" rx="89.19" ry="45.01"/>
<text text-anchor="middle" x="776.7" y="-256.25" font-family="Helvetica,sans-Serif" font-size="10.00">IHistoricalDataSource</text>
<text text-anchor="middle" x="776.7" y="-245.25" font-family="Helvetica,sans-Serif" font-size="10.00">[Interface]</text>
<text text-anchor="middle" x="776.7" y="-222.25" font-family="Helvetica,sans-Serif" font-size="10.00">Bars, Dividends, Splits</text>
<text text-anchor="middle" x="776.7" y="-211.25" font-family="Helvetica,sans-Serif" font-size="10.00">Date range queries</text>
</g>
<!-- I_DATASOURCE&#45;&gt;I_HISTORICAL -->
<g id="edge2" class="edge">
<title>I_DATASOURCE&#45;&gt;I_HISTORICAL</title>
<path fill="none" stroke="#4a5568" stroke-dasharray="5,2" d="M765.96,-349.51C767.69,-331.48 769.69,-310.49 771.51,-291.57"/>
<polygon fill="#4a5568" stroke="#4a5568" points="774.99,-291.88 772.46,-281.59 768.02,-291.22 774.99,-291.88"/>
<text text-anchor="middle" x="786.2" y="-324.55" font-family="Helvetica,sans-Serif" font-size="9.00">extends</text>
</g>
<!-- I_MARKET -->
<g id="node4" class="node">
<title>I_MARKET</title>
<ellipse fill="#e9d5ff" stroke="black" cx="643.7" cy="-748.76" rx="77.56" ry="45.01"/>
<text text-anchor="middle" x="643.7" y="-768.76" font-family="Helvetica,sans-Serif" font-size="10.00">IMarketDataClient</text>
<text text-anchor="middle" x="643.7" y="-757.76" font-family="Helvetica,sans-Serif" font-size="10.00">[Interface]</text>
<text text-anchor="middle" x="643.7" y="-734.76" font-family="Helvetica,sans-Serif" font-size="10.00">Connect, Subscribe</text>
<text text-anchor="middle" x="643.7" y="-723.76" font-family="Helvetica,sans-Serif" font-size="10.00">GetEventsAsync</text>
</g>
<!-- IB_CLIENT -->
<g id="node8" class="node">
<title>IB_CLIENT</title>
<path fill="#bfdbfe" stroke="black" d="M1815.7,-609.51C1815.7,-609.51 1701.7,-609.51 1701.7,-609.51 1695.7,-609.51 1689.7,-603.51 1689.7,-597.51 1689.7,-597.51 1689.7,-535.51 1689.7,-535.51 1689.7,-529.51 1695.7,-523.51 1701.7,-523.51 1701.7,-523.51 1815.7,-523.51 1815.7,-523.51 1821.7,-523.51 1827.7,-529.51 1827.7,-535.51 1827.7,-535.51 1827.7,-597.51 1827.7,-597.51 1827.7,-603.51 1821.7,-609.51 1815.7,-609.51"/>
<text text-anchor="middle" x="1758.7" y="-597.51" font-family="Helvetica,sans-Serif" font-size="10.00">IBMarketDataClient</text>
<text text-anchor="middle" x="1758.7" y="-586.51" font-family="Helvetica,sans-Serif" font-size="10.00">[Production]</text>
<text text-anchor="middle" x="1758.7" y="-563.51" font-family="Helvetica,sans-Serif" font-size="10.00">IB TWS/Gateway API</text>
<text text-anchor="middle" x="1758.7" y="-552.51" font-family="Helvetica,sans-Serif" font-size="10.00">Trades, Quotes, L2 Depth</text>
<text text-anchor="middle" x="1758.7" y="-541.51" font-family="Helvetica,sans-Serif" font-size="10.00">Market Scanner, News</text>
<text text-anchor="middle" x="1758.7" y="-530.51" font-family="Helvetica,sans-Serif" font-size="10.00">Free equity data support</text>
</g>
<!-- I_MARKET&#45;&gt;IB_CLIENT -->
<g id="edge3" class="edge">
<title>I_MARKET&#45;&gt;IB_CLIENT</title>
<path fill="none" stroke="#4a5568" stroke-dasharray="5,2" d="M690.09,-712.06C701.19,-705.3 713.41,-699.2 725.7,-695.51 759.71,-685.31 1329.22,-686.8 1364.7,-685.51 1399.85,-684.23 1649.55,-683.83 1680.7,-667.51 1701.67,-656.52 1718.79,-637.12 1731.59,-618.31"/>
<polygon fill="#4a5568" stroke="#4a5568" points="1734.64,-620.04 1737.16,-609.75 1728.78,-616.22 1734.64,-620.04"/>
</g>
<!-- ALP_CLIENT -->
<g id="node9" class="node">
<title>ALP_CLIENT</title>
<path fill="#bfdbfe" stroke="black" d="M1659.2,-604.01C1659.2,-604.01 1548.2,-604.01 1548.2,-604.01 1542.2,-604.01 1536.2,-598.01 1536.2,-592.01 1536.2,-592.01 1536.2,-541.01 1536.2,-541.01 1536.2,-535.01 1542.2,-529.01 1548.2,-529.01 1548.2,-529.01 1659.2,-529.01 1659.2,-529.01 1665.2,-529.01 1671.2,-535.01 1671.2,-541.01 1671.2,-541.01 1671.2,-592.01 1671.2,-592.01 1671.2,-598.01 1665.2,-604.01 1659.2,-604.01"/>
<text text-anchor="middle" x="1603.7" y="-592.01" font-family="Helvetica,sans-Serif" font-size="10.00">AlpacaMarketDataClient</text>
<text text-anchor="middle" x="1603.7" y="-581.01" font-family="Helvetica,sans-Serif" font-size="10.00">[Production]</text>
<text text-anchor="middle" x="1603.7" y="-558.01" font-family="Helvetica,sans-Serif" font-size="10.00">WebSocket streaming</text>
<text text-anchor="middle" x="1603.7" y="-547.01" font-family="Helvetica,sans-Serif" font-size="10.00">IEX/SIP feeds</text>
<text text-anchor="middle" x="1603.7" y="-536.01" font-family="Helvetica,sans-Serif" font-size="10.00">Trades + Quotes</text>
</g>
<!-- I_MARKET&#45;&gt;ALP_CLIENT -->
<g id="edge4" class="edge">
<title>I_MARKET&#45;&gt;ALP_CLIENT</title>
<path fill="none" stroke="#4a5568" stroke-dasharray="5,2" d="M690.12,-712.17C701.23,-705.4 713.44,-699.27 725.7,-695.51 764.28,-683.68 1048.39,-687.22 1088.7,-685.51 1166.09,-682.22 1185.32,-678.9 1262.7,-675.51 1277.42,-674.86 1514.61,-674.25 1527.7,-667.51 1550.69,-655.67 1568.68,-633.35 1581.38,-612.79"/>
<polygon fill="#4a5568" stroke="#4a5568" points="1584.43,-614.52 1586.5,-604.13 1578.4,-610.96 1584.43,-614.52"/>
</g>
<!-- NYSE_CLIENT -->
<g id="node10" class="node">
<title>NYSE_CLIENT</title>
<path fill="#bfdbfe" stroke="black" d="M1506.2,-604.01C1506.2,-604.01 1405.2,-604.01 1405.2,-604.01 1399.2,-604.01 1393.2,-598.01 1393.2,-592.01 1393.2,-592.01 1393.2,-541.01 1393.2,-541.01 1393.2,-535.01 1399.2,-529.01 1405.2,-529.01 1405.2,-529.01 1506.2,-529.01 1506.2,-529.01 1512.2,-529.01 1518.2,-535.01 1518.2,-541.01 1518.2,-541.01 1518.2,-592.01 1518.2,-592.01 1518.2,-598.01 1512.2,-604.01 1506.2,-604.01"/>
<text text-anchor="middle" x="1455.7" y="-592.01" font-family="Helvetica,sans-Serif" font-size="10.00">NYSEDataSource</text>
<text text-anchor="middle" x="1455.7" y="-581.01" font-family="Helvetica,sans-Serif" font-size="10.00">[Production]</text>
<text text-anchor="middle" x="1455.7" y="-558.01" font-family="Helvetica,sans-Serif" font-size="10.00">Exchange&#45;direct feed</text>
<text text-anchor="middle" x="1455.7" y="-547.01" font-family="Helvetica,sans-Serif" font-size="10.00">US Equities</text>
<text text-anchor="middle" x="1455.7" y="-536.01" font-family="Helvetica,sans-Serif" font-size="10.00">Real&#45;time + Historical</text>
</g>
<!-- I_MARKET&#45;&gt;NYSE_CLIENT -->
<g id="edge5" class="edge">
<title>I_MARKET&#45;&gt;NYSE_CLIENT</title>
<path fill="none" stroke="#4a5568" stroke-dasharray="5,2" d="M690.13,-712.22C701.24,-705.45 713.45,-699.3 725.7,-695.51 757.88,-685.55 995.1,-687.87 1028.7,-685.51 1070.17,-682.6 1080.23,-678.37 1121.7,-675.51 1136.29,-674.51 1371.82,-674.41 1384.7,-667.51 1406.85,-655.64 1423.67,-633.46 1435.37,-613"/>
<polygon fill="#4a5568" stroke="#4a5568" points="1438.52,-614.52 1440.22,-604.06 1432.37,-611.18 1438.52,-614.52"/>
</g>
<!-- SS_CLIENT -->
<g id="node11" class="node">
<title>SS_CLIENT</title>
<path fill="#bfdbfe" stroke="black" d="M1363.2,-604.01C1363.2,-604.01 1254.2,-604.01 1254.2,-604.01 1248.2,-604.01 1242.2,-598.01 1242.2,-592.01 1242.2,-592.01 1242.2,-541.01 1242.2,-541.01 1242.2,-535.01 1248.2,-529.01 1254.2,-529.01 1254.2,-529.01 1363.2,-529.01 1363.2,-529.01 1369.2,-529.01 1375.2,-535.01 1375.2,-541.01 1375.2,-541.01 1375.2,-592.01 1375.2,-592.01 1375.2,-598.01 1369.2,-604.01 1363.2,-604.01"/>
<text text-anchor="middle" x="1308.7" y="-592.01" font-family="Helvetica,sans-Serif" font-size="10.00">StockSharpConnector</text>
<text text-anchor="middle" x="1308.7" y="-581.01" font-family="Helvetica,sans-Serif" font-size="10.00">[Production]</text>
<text text-anchor="middle" x="1308.7" y="-558.01" font-family="Helvetica,sans-Serif" font-size="10.00">Multi&#45;exchange adapter</text>
<text text-anchor="middle" x="1308.7" y="-547.01" font-family="Helvetica,sans-Serif" font-size="10.00">Global markets</text>
<text text-anchor="middle" x="1308.7" y="-536.01" font-family="Helvetica,sans-Serif" font-size="10.00">90+ connectors</text>
</g>
<!-- I_MARKET&#45;&gt;SS_CLIENT -->
<g id="edge6" class="edge">
<title>I_MARKET&#45;&gt;SS_CLIENT</title>
<path fill="none" stroke="#4a5568" stroke-dasharray="5,2" d="M690.17,-712.33C701.27,-705.55 713.47,-699.38 725.7,-695.51 772.79,-680.62 898.41,-688.46 947.7,-685.51 1007.32,-681.94 1022.1,-679.34 1081.7,-675.51 1098.14,-674.45 1215.08,-675.09 1229.7,-667.51 1252.91,-655.49 1271.52,-633.27 1284.83,-612.82"/>
<polygon fill="#4a5568" stroke="#4a5568" points="1287.89,-614.54 1290.21,-604.2 1281.95,-610.83 1287.89,-614.54"/>
</g>
<!-- POL_CLIENT -->
<g id="node12" class="node">
<title>POL_CLIENT</title>
<path fill="#bfdbfe" stroke="black" d="M1205.2,-598.51C1205.2,-598.51 1084.2,-598.51 1084.2,-598.51 1078.2,-598.51 1072.2,-592.51 1072.2,-586.51 1072.2,-586.51 1072.2,-546.51 1072.2,-546.51 1072.2,-540.51 1078.2,-534.51 1084.2,-534.51 1084.2,-534.51 1205.2,-534.51 1205.2,-534.51 1211.2,-534.51 1217.2,-540.51 1217.2,-546.51 1217.2,-546.51 1217.2,-586.51 1217.2,-586.51 1217.2,-592.51 1211.2,-598.51 1205.2,-598.51"/>
<text text-anchor="middle" x="1144.7" y="-586.51" font-family="Helvetica,sans-Serif" font-size="10.00">PolygonMarketDataClient</text>
<text text-anchor="middle" x="1144.7" y="-575.51" font-family="Helvetica,sans-Serif" font-size="10.00">[Production]</text>
<text text-anchor="middle" x="1144.7" y="-552.51" font-family="Helvetica,sans-Serif" font-size="10.00">Polygon.io streaming</text>
<text text-anchor="middle" x="1144.7" y="-541.51" font-family="Helvetica,sans-Serif" font-size="10.00">Trades, quotes, websocket</text>
</g>
<!-- I_MARKET&#45;&gt;POL_CLIENT -->
<g id="edge7" class="edge">
<title>I_MARKET&#45;&gt;POL_CLIENT</title>
<path fill="none" stroke="#4a5568" stroke-dasharray="5,2" d="M690.72,-712.4C701.7,-705.71 713.7,-699.55 725.7,-695.51 761.31,-683.51 1029.43,-684.97 1062.7,-667.51 1088.21,-654.12 1108.75,-629.03 1122.89,-607.33"/>
<polygon fill="#4a5568" stroke="#4a5568" points="1126.02,-608.92 1128.37,-598.59 1120.09,-605.21 1126.02,-608.92"/>
</g>
<!-- SYNTH_CLIENT -->
<g id="node13" class="node">
<title>SYNTH_CLIENT</title>
<path fill="#e0e7ff" stroke="black" d="M1041.7,-609.51C1041.7,-609.51 917.7,-609.51 917.7,-609.51 911.7,-609.51 905.7,-603.51 905.7,-597.51 905.7,-597.51 905.7,-535.51 905.7,-535.51 905.7,-529.51 911.7,-523.51 917.7,-523.51 917.7,-523.51 1041.7,-523.51 1041.7,-523.51 1047.7,-523.51 1053.7,-529.51 1053.7,-535.51 1053.7,-535.51 1053.7,-597.51 1053.7,-597.51 1053.7,-603.51 1047.7,-609.51 1041.7,-609.51"/>
<text text-anchor="middle" x="979.7" y="-597.51" font-family="Helvetica,sans-Serif" font-size="10.00">SyntheticMarketDataClient</text>
<text text-anchor="middle" x="979.7" y="-586.51" font-family="Helvetica,sans-Serif" font-size="10.00">[Development]</text>
<text text-anchor="middle" x="979.7" y="-563.51" font-family="Helvetica,sans-Serif" font-size="10.00">Deterministic fake data</text>
<text text-anchor="middle" x="979.7" y="-552.51" font-family="Helvetica,sans-Serif" font-size="10.00">Offline development</text>
<text text-anchor="middle" x="979.7" y="-541.51" font-family="Helvetica,sans-Serif" font-size="10.00">Symbol search support</text>
<text text-anchor="middle" x="979.7" y="-530.51" font-family="Helvetica,sans-Serif" font-size="10.00">Reproducible test data</text>
</g>
<!-- I_MARKET&#45;&gt;SYNTH_CLIENT -->
<g id="edge8" class="edge">
<title>I_MARKET&#45;&gt;SYNTH_CLIENT</title>
<path fill="none" stroke="#4a5568" stroke-dasharray="5,2" d="M691.45,-712.94C702.29,-706.3 714.06,-700.03 725.7,-695.51 793,-669.38 822.17,-701.79 885.7,-667.51 908.09,-655.43 928.15,-636.04 943.93,-617.53"/>
<polygon fill="#4a5568" stroke="#4a5568" points="946.75,-619.61 950.43,-609.68 941.36,-615.15 946.75,-619.61"/>
</g>
<!-- I_HIST_PROVIDER -->
<g id="node5" class="node">
<title>I_HIST_PROVIDER</title>
<ellipse fill="#e9d5ff" stroke="black" cx="442.7" cy="-748.76" rx="105.22" ry="45.01"/>
<text text-anchor="middle" x="442.7" y="-768.76" font-family="Helvetica,sans-Serif" font-size="10.00">IHistoricalDataProvider</text>
<text text-anchor="middle" x="442.7" y="-757.76" font-family="Helvetica,sans-Serif" font-size="10.00">[Interface]</text>
<text text-anchor="middle" x="442.7" y="-734.76" font-family="Helvetica,sans-Serif" font-size="10.00">GetHistoricalBarsAsync</text>
<text text-anchor="middle" x="442.7" y="-723.76" font-family="Helvetica,sans-Serif" font-size="10.00">StreamHistoricalBarsAsync</text>
</g>
<!-- ALPACA_HIST -->
<g id="node14" class="node">
<title>ALPACA_HIST</title>
<path fill="#a7f3d0" stroke="black" d="M1029.7,-104.5C1029.7,-104.5 917.7,-104.5 917.7,-104.5 911.7,-104.5 905.7,-98.5 905.7,-92.5 905.7,-92.5 905.7,-41.5 905.7,-41.5 905.7,-35.5 911.7,-29.5 917.7,-29.5 917.7,-29.5 1029.7,-29.5 1029.7,-29.5 1035.7,-29.5 1041.7,-35.5 1041.7,-41.5 1041.7,-41.5 1041.7,-92.5 1041.7,-92.5 1041.7,-98.5 1035.7,-104.5 1029.7,-104.5"/>
<text text-anchor="middle" x="973.7" y="-92.5" font-family="Helvetica,sans-Serif" font-size="10.00">Alpaca Historical</text>
<text text-anchor="middle" x="973.7" y="-81.5" font-family="Helvetica,sans-Serif" font-size="10.00">[Priority 5]</text>
<text text-anchor="middle" x="973.7" y="-58.5" font-family="Helvetica,sans-Serif" font-size="10.00">OHLCV, Trades, Auctions</text>
<text text-anchor="middle" x="973.7" y="-47.5" font-family="Helvetica,sans-Serif" font-size="10.00">Adjusted prices</text>
<text text-anchor="middle" x="973.7" y="-36.5" font-family="Helvetica,sans-Serif" font-size="10.00">1min to 1day bars</text>
</g>
<!-- I_HIST_PROVIDER&#45;&gt;ALPACA_HIST -->
<g id="edge9" class="edge">
<title>I_HIST_PROVIDER&#45;&gt;ALPACA_HIST</title>
<path fill="none" stroke="#4a5568" stroke-dasharray="5,2" d="M337.22,-745.36C229.16,-740.63 71.02,-726.65 27.7,-685.51 -11.11,-648.66 3.7,-621.03 3.7,-567.51 3.7,-567.51 3.7,-567.51 3.7,-235.25 3.7,-194.61 -3.54,-173.01 27.7,-147 93.75,-92.01 680.19,-74.18 895.16,-69.47"/>
<polygon fill="#4a5568" stroke="#4a5568" points="895.5,-72.96 905.42,-69.25 895.35,-65.96 895.5,-72.96"/>
</g>
<!-- IB_HIST -->
<g id="node15" class="node">
<title>IB_HIST</title>
<path fill="#a7f3d0" stroke="black" d="M1157.2,-104.5C1157.2,-104.5 1072.2,-104.5 1072.2,-104.5 1066.2,-104.5 1060.2,-98.5 1060.2,-92.5 1060.2,-92.5 1060.2,-41.5 1060.2,-41.5 1060.2,-35.5 1066.2,-29.5 1072.2,-29.5 1072.2,-29.5 1157.2,-29.5 1157.2,-29.5 1163.2,-29.5 1169.2,-35.5 1169.2,-41.5 1169.2,-41.5 1169.2,-92.5 1169.2,-92.5 1169.2,-98.5 1163.2,-104.5 1157.2,-104.5"/>
<text text-anchor="middle" x="1114.7" y="-92.5" font-family="Helvetica,sans-Serif" font-size="10.00">Interactive Brokers</text>
<text text-anchor="middle" x="1114.7" y="-81.5" font-family="Helvetica,sans-Serif" font-size="10.00">[Priority 5]</text>
<text text-anchor="middle" x="1114.7" y="-58.5" font-family="Helvetica,sans-Serif" font-size="10.00">All timeframes</text>
<text text-anchor="middle" x="1114.7" y="-47.5" font-family="Helvetica,sans-Serif" font-size="10.00">IB pacing rules</text>
<text text-anchor="middle" x="1114.7" y="-36.5" font-family="Helvetica,sans-Serif" font-size="10.00">Full historical data</text>
</g>
<!-- I_HIST_PROVIDER&#45;&gt;IB_HIST -->
<g id="edge17" class="edge">
<title>I_HIST_PROVIDER&#45;&gt;IB_HIST</title>
<path fill="none" stroke="#4a5568" stroke-dasharray="5,2" d="M337.7,-743.49C239.91,-737.26 103.68,-722.11 65.7,-685.51 27.17,-648.37 41.7,-621.03 41.7,-567.51 41.7,-567.51 41.7,-567.51 41.7,-235.25 41.7,-194.61 33.51,-171.82 65.7,-147 87.37,-130.3 1025.75,-150.22 1050.7,-139 1063.73,-133.14 1075.24,-123.19 1084.77,-112.56"/>
<polygon fill="#4a5568" stroke="#4a5568" points="1087.58,-114.66 1091.36,-104.76 1082.23,-110.14 1087.58,-114.66"/>
</g>
<!-- YAHOO_HIST -->
<g id="node16" class="node">
<title>YAHOO_HIST</title>
<path fill="#6ee7b7" stroke="black" d="M1309.2,-104.5C1309.2,-104.5 1206.2,-104.5 1206.2,-104.5 1200.2,-104.5 1194.2,-98.5 1194.2,-92.5 1194.2,-92.5 1194.2,-41.5 1194.2,-41.5 1194.2,-35.5 1200.2,-29.5 1206.2,-29.5 1206.2,-29.5 1309.2,-29.5 1309.2,-29.5 1315.2,-29.5 1321.2,-35.5 1321.2,-41.5 1321.2,-41.5 1321.2,-92.5 1321.2,-92.5 1321.2,-98.5 1315.2,-104.5 1309.2,-104.5"/>
<text text-anchor="middle" x="1257.7" y="-92.5" font-family="Helvetica,sans-Serif" font-size="10.00">Yahoo Finance</text>
<text text-anchor="middle" x="1257.7" y="-81.5" font-family="Helvetica,sans-Serif" font-size="10.00">[Priority 10]</text>
<text text-anchor="middle" x="1257.7" y="-58.5" font-family="Helvetica,sans-Serif" font-size="10.00">50K+ global securities</text>
<text text-anchor="middle" x="1257.7" y="-47.5" font-family="Helvetica,sans-Serif" font-size="10.00">Free, no API key</text>
<text text-anchor="middle" x="1257.7" y="-36.5" font-family="Helvetica,sans-Serif" font-size="10.00">Dividends, Splits</text>
</g>
<!-- I_HIST_PROVIDER&#45;&gt;YAHOO_HIST -->
<g id="edge10" class="edge">
<title>I_HIST_PROVIDER&#45;&gt;YAHOO_HIST</title>
<path fill="none" stroke="#4a5568" stroke-dasharray="5,2" d="M338.52,-741.25C251.46,-733.6 136.43,-717.62 103.7,-685.51 65.5,-648.03 79.7,-621.03 79.7,-567.51 79.7,-567.51 79.7,-567.51 79.7,-235.25 79.7,-194.61 71.5,-171.81 103.7,-147 127.43,-128.73 1153.89,-150.09 1181.7,-139 1196.56,-133.08 1210.24,-122.75 1221.77,-111.77"/>
<polygon fill="#4a5568" stroke="#4a5568" points="1224.44,-114.06 1229.03,-104.51 1219.49,-109.11 1224.44,-114.06"/>
</g>
<!-- STOOQ_HIST -->
<g id="node17" class="node">
<title>STOOQ_HIST</title>
<path fill="#6ee7b7" stroke="black" d="M1524.7,-104.5C1524.7,-104.5 1458.7,-104.5 1458.7,-104.5 1452.7,-104.5 1446.7,-98.5 1446.7,-92.5 1446.7,-92.5 1446.7,-41.5 1446.7,-41.5 1446.7,-35.5 1452.7,-29.5 1458.7,-29.5 1458.7,-29.5 1524.7,-29.5 1524.7,-29.5 1530.7,-29.5 1536.7,-35.5 1536.7,-41.5 1536.7,-41.5 1536.7,-92.5 1536.7,-92.5 1536.7,-98.5 1530.7,-104.5 1524.7,-104.5"/>
<text text-anchor="middle" x="1491.7" y="-92.5" font-family="Helvetica,sans-Serif" font-size="10.00">Stooq</text>
<text text-anchor="middle" x="1491.7" y="-81.5" font-family="Helvetica,sans-Serif" font-size="10.00">[Priority 20]</text>
<text text-anchor="middle" x="1491.7" y="-58.5" font-family="Helvetica,sans-Serif" font-size="10.00">Global equities</text>
<text text-anchor="middle" x="1491.7" y="-47.5" font-family="Helvetica,sans-Serif" font-size="10.00">EOD data</text>
<text text-anchor="middle" x="1491.7" y="-36.5" font-family="Helvetica,sans-Serif" font-size="10.00">No rate limits</text>
</g>
<!-- I_HIST_PROVIDER&#45;&gt;STOOQ_HIST -->
<g id="edge11" class="edge">
<title>I_HIST_PROVIDER&#45;&gt;STOOQ_HIST</title>
<path fill="none" stroke="#4a5568" stroke-dasharray="5,2" d="M341.98,-735.26C277.71,-725.21 202.35,-708.89 179.7,-685.51 142.47,-647.07 155.7,-621.03 155.7,-567.51 155.7,-567.51 155.7,-567.51 155.7,-235.25 155.7,-194.61 147.49,-171.79 179.7,-147 193.55,-136.35 1422.07,-146.81 1437.7,-139 1449.4,-133.15 1459.25,-123.44 1467.21,-113.05"/>
<polygon fill="#4a5568" stroke="#4a5568" points="1470.25,-114.81 1473.18,-104.63 1464.54,-110.76 1470.25,-114.81"/>
</g>
<!-- POLYGON_HIST -->
<g id="node18" class="node">
<title>POLYGON_HIST</title>
<path fill="#6ee7b7" stroke="black" d="M1416.2,-104.5C1416.2,-104.5 1351.2,-104.5 1351.2,-104.5 1345.2,-104.5 1339.2,-98.5 1339.2,-92.5 1339.2,-92.5 1339.2,-41.5 1339.2,-41.5 1339.2,-35.5 1345.2,-29.5 1351.2,-29.5 1351.2,-29.5 1416.2,-29.5 1416.2,-29.5 1422.2,-29.5 1428.2,-35.5 1428.2,-41.5 1428.2,-41.5 1428.2,-92.5 1428.2,-92.5 1428.2,-98.5 1422.2,-104.5 1416.2,-104.5"/>
<text text-anchor="middle" x="1383.7" y="-92.5" font-family="Helvetica,sans-Serif" font-size="10.00">Polygon.io</text>
<text text-anchor="middle" x="1383.7" y="-81.5" font-family="Helvetica,sans-Serif" font-size="10.00">[Priority 15]</text>
<text text-anchor="middle" x="1383.7" y="-58.5" font-family="Helvetica,sans-Serif" font-size="10.00">Historical bars</text>
<text text-anchor="middle" x="1383.7" y="-47.5" font-family="Helvetica,sans-Serif" font-size="10.00">Minute/Day</text>
<text text-anchor="middle" x="1383.7" y="-36.5" font-family="Helvetica,sans-Serif" font-size="10.00">Trades, Quotes</text>
</g>
<!-- I_HIST_PROVIDER&#45;&gt;POLYGON_HIST -->
<g id="edge12" class="edge">
<title>I_HIST_PROVIDER&#45;&gt;POLYGON_HIST</title>
<path fill="none" stroke="#4a5568" stroke-dasharray="5,2" d="M339.75,-738.53C263.88,-729.58 169.3,-713.19 141.7,-685.51 103.92,-647.6 117.7,-621.03 117.7,-567.51 117.7,-567.51 117.7,-567.51 117.7,-235.25 117.7,-194.61 109.49,-171.79 141.7,-147 167.88,-126.85 1301.23,-153.9 1330.7,-139 1342.29,-133.14 1352,-123.42 1359.81,-113.03"/>
<polygon fill="#4a5568" stroke="#4a5568" points="1362.83,-114.82 1365.67,-104.61 1357.08,-110.82 1362.83,-114.82"/>
</g>
<!-- NASDAQ_HIST -->
<g id="node19" class="node">
<title>NASDAQ_HIST</title>
<path fill="#bbf7d0" stroke="black" d="M1890.7,-99C1890.7,-99 1798.7,-99 1798.7,-99 1792.7,-99 1786.7,-93 1786.7,-87 1786.7,-87 1786.7,-47 1786.7,-47 1786.7,-41 1792.7,-35 1798.7,-35 1798.7,-35 1890.7,-35 1890.7,-35 1896.7,-35 1902.7,-41 1902.7,-47 1902.7,-47 1902.7,-87 1902.7,-87 1902.7,-93 1896.7,-99 1890.7,-99"/>
<text text-anchor="middle" x="1844.7" y="-87" font-family="Helvetica,sans-Serif" font-size="10.00">Nasdaq Data Link</text>
<text text-anchor="middle" x="1844.7" y="-76" font-family="Helvetica,sans-Serif" font-size="10.00">[Priority 30]</text>
<text text-anchor="middle" x="1844.7" y="-53" font-family="Helvetica,sans-Serif" font-size="10.00">Quandl API</text>
<text text-anchor="middle" x="1844.7" y="-42" font-family="Helvetica,sans-Serif" font-size="10.00">Alternative datasets</text>
</g>
<!-- I_HIST_PROVIDER&#45;&gt;NASDAQ_HIST -->
<g id="edge13" class="edge">
<title>I_HIST_PROVIDER&#45;&gt;NASDAQ_HIST</title>
<path fill="none" stroke="#4a5568" stroke-dasharray="5,2" d="M351.55,-725.86C329.83,-716.66 308.65,-703.7 293.7,-685.51 259.73,-644.16 269.7,-621.03 269.7,-567.51 269.7,-567.51 269.7,-567.51 269.7,-235.25 269.7,-194.61 261.47,-171.77 293.7,-147 310.04,-134.44 1758.8,-147.21 1777.7,-139 1793.41,-132.18 1807.15,-119.68 1818.04,-107.05"/>
<polygon fill="#4a5568" stroke="#4a5568" points="1820.82,-109.18 1824.44,-99.22 1815.4,-104.75 1820.82,-109.18"/>
</g>
<!-- TIINGO_HIST -->
<g id="node20" class="node">
<title>TIINGO_HIST</title>
<path fill="#bbf7d0" stroke="black" d="M2266.2,-99C2266.2,-99 2171.2,-99 2171.2,-99 2165.2,-99 2159.2,-93 2159.2,-87 2159.2,-87 2159.2,-47 2159.2,-47 2159.2,-41 2165.2,-35 2171.2,-35 2171.2,-35 2266.2,-35 2266.2,-35 2272.2,-35 2278.2,-41 2278.2,-47 2278.2,-47 2278.2,-87 2278.2,-87 2278.2,-93 2272.2,-99 2266.2,-99"/>
<text text-anchor="middle" x="2218.7" y="-87" font-family="Helvetica,sans-Serif" font-size="10.00">Tiingo</text>
<text text-anchor="middle" x="2218.7" y="-76" font-family="Helvetica,sans-Serif" font-size="10.00">[Priority 25]</text>
<text text-anchor="middle" x="2218.7" y="-53" font-family="Helvetica,sans-Serif" font-size="10.00">Dividend&#45;adjusted</text>
<text text-anchor="middle" x="2218.7" y="-42" font-family="Helvetica,sans-Serif" font-size="10.00">Fundamentals, News</text>
</g>
<!-- I_HIST_PROVIDER&#45;&gt;TIINGO_HIST -->
<g id="edge14" class="edge">
<title>I_HIST_PROVIDER&#45;&gt;TIINGO_HIST</title>
<path fill="none" stroke="#4a5568" stroke-dasharray="5,2" d="M416.26,-704.72C413.05,-698.42 410.08,-691.9 407.7,-685.51 389.03,-635.35 383.7,-621.03 383.7,-567.51 383.7,-567.51 383.7,-567.51 383.7,-235.25 383.7,-194.61 375.46,-171.76 407.7,-147 426.89,-132.26 2127.44,-148.47 2149.7,-139 2165.68,-132.2 2179.8,-119.71 2191.03,-107.08"/>
<polygon fill="#4a5568" stroke="#4a5568" points="2193.86,-109.15 2197.64,-99.25 2188.52,-104.63 2193.86,-109.15"/>
</g>
<!-- FINNHUB_HIST -->
<g id="node21" class="node">
<title>FINNHUB_HIST</title>
<path fill="#bbf7d0" stroke="black" d="M1640.7,-99C1640.7,-99 1572.7,-99 1572.7,-99 1566.7,-99 1560.7,-93 1560.7,-87 1560.7,-87 1560.7,-47 1560.7,-47 1560.7,-41 1566.7,-35 1572.7,-35 1572.7,-35 1640.7,-35 1640.7,-35 1646.7,-35 1652.7,-41 1652.7,-47 1652.7,-47 1652.7,-87 1652.7,-87 1652.7,-93 1646.7,-99 1640.7,-99"/>
<text text-anchor="middle" x="1606.7" y="-87" font-family="Helvetica,sans-Serif" font-size="10.00">Finnhub</text>
<text text-anchor="middle" x="1606.7" y="-76" font-family="Helvetica,sans-Serif" font-size="10.00">[Priority 35]</text>
<text text-anchor="middle" x="1606.7" y="-53" font-family="Helvetica,sans-Serif" font-size="10.00">Fundamentals</text>
<text text-anchor="middle" x="1606.7" y="-42" font-family="Helvetica,sans-Serif" font-size="10.00">Earnings, News</text>
</g>
<!-- I_HIST_PROVIDER&#45;&gt;FINNHUB_HIST -->
<g id="edge15" class="edge">
<title>I_HIST_PROVIDER&#45;&gt;FINNHUB_HIST</title>
<path fill="none" stroke="#4a5568" stroke-dasharray="5,2" d="M338.33,-742.29C295.4,-734.69 248.6,-718.63 217.7,-685.51 181.19,-646.38 193.7,-621.03 193.7,-567.51 193.7,-567.51 193.7,-567.51 193.7,-235.25 193.7,-194.61 185.48,-171.78 217.7,-147 232.36,-135.73 1532.02,-146.97 1548.7,-139 1562.94,-132.2 1574.84,-120.02 1584.09,-107.64"/>
<polygon fill="#4a5568" stroke="#4a5568" points="1587.2,-109.31 1590.06,-99.11 1581.46,-105.3 1587.2,-109.31"/>
</g>
<!-- AV_HIST -->
<g id="node22" class="node">
<title>AV_HIST</title>
<path fill="#bbf7d0" stroke="black" d="M1756.7,-99C1756.7,-99 1682.7,-99 1682.7,-99 1676.7,-99 1670.7,-93 1670.7,-87 1670.7,-87 1670.7,-47 1670.7,-47 1670.7,-41 1676.7,-35 1682.7,-35 1682.7,-35 1756.7,-35 1756.7,-35 1762.7,-35 1768.7,-41 1768.7,-47 1768.7,-47 1768.7,-87 1768.7,-87 1768.7,-93 1762.7,-99 1756.7,-99"/>
<text text-anchor="middle" x="1719.7" y="-87" font-family="Helvetica,sans-Serif" font-size="10.00">Alpha Vantage</text>
<text text-anchor="middle" x="1719.7" y="-76" font-family="Helvetica,sans-Serif" font-size="10.00">[Priority 40]</text>
<text text-anchor="middle" x="1719.7" y="-53" font-family="Helvetica,sans-Serif" font-size="10.00">Intraday data</text>
<text text-anchor="middle" x="1719.7" y="-42" font-family="Helvetica,sans-Serif" font-size="10.00">5min to monthly</text>
</g>
<!-- I_HIST_PROVIDER&#45;&gt;AV_HIST -->
<g id="edge16" class="edge">
<title>I_HIST_PROVIDER&#45;&gt;AV_HIST</title>
<path fill="none" stroke="#4a5568" stroke-dasharray="5,2" d="M342.35,-734.58C310.56,-725.61 277.94,-710.61 255.7,-685.51 220.21,-645.45 231.7,-621.03 231.7,-567.51 231.7,-567.51 231.7,-567.51 231.7,-235.25 231.7,-194.61 223.48,-171.78 255.7,-147 271.18,-135.1 1644.08,-147.42 1661.7,-139 1675.94,-132.2 1687.85,-120.02 1697.09,-107.65"/>
<polygon fill="#4a5568" stroke="#4a5568" points="1700.2,-109.31 1703.07,-99.11 1694.46,-105.3 1700.2,-109.31"/>
</g>
<!-- SS_HIST -->
<g id="node23" class="node">
<title>SS_HIST</title>
<path fill="#bbf7d0" stroke="black" d="M2000.7,-99C2000.7,-99 1932.7,-99 1932.7,-99 1926.7,-99 1920.7,-93 1920.7,-87 1920.7,-87 1920.7,-47 1920.7,-47 1920.7,-41 1926.7,-35 1932.7,-35 1932.7,-35 2000.7,-35 2000.7,-35 2006.7,-35 2012.7,-41 2012.7,-47 2012.7,-47 2012.7,-87 2012.7,-87 2012.7,-93 2006.7,-99 2000.7,-99"/>
<text text-anchor="middle" x="1966.7" y="-87" font-family="Helvetica,sans-Serif" font-size="10.00">StockSharp</text>
<text text-anchor="middle" x="1966.7" y="-76" font-family="Helvetica,sans-Serif" font-size="10.00">[Priority 35]</text>
<text text-anchor="middle" x="1966.7" y="-53" font-family="Helvetica,sans-Serif" font-size="10.00">Multi&#45;exchange</text>
<text text-anchor="middle" x="1966.7" y="-42" font-family="Helvetica,sans-Serif" font-size="10.00">Global markets</text>
</g>
<!-- I_HIST_PROVIDER&#45;&gt;SS_HIST -->
<g id="edge18" class="edge">
<title>I_HIST_PROVIDER&#45;&gt;SS_HIST</title>
<path fill="none" stroke="#4a5568" stroke-dasharray="5,2" d="M367.06,-717.08C353.6,-708.62 340.95,-698.18 331.7,-685.51 300.17,-642.27 307.7,-621.03 307.7,-567.51 307.7,-567.51 307.7,-567.51 307.7,-235.25 307.7,-194.61 299.47,-171.77 331.7,-147 349.1,-133.63 1892.02,-148.71 1911.7,-139 1925.56,-132.16 1936.94,-119.97 1945.67,-107.6"/>
<polygon fill="#4a5568" stroke="#4a5568" points="1948.71,-109.35 1951.29,-99.08 1942.87,-105.5 1948.71,-109.35"/>
</g>
<!-- TWELVE_HIST -->
<g id="node24" class="node">
<title>TWELVE_HIST</title>
<path fill="#bbf7d0" stroke="black" d="M2128.7,-104.5C2128.7,-104.5 2042.7,-104.5 2042.7,-104.5 2036.7,-104.5 2030.7,-98.5 2030.7,-92.5 2030.7,-92.5 2030.7,-41.5 2030.7,-41.5 2030.7,-35.5 2036.7,-29.5 2042.7,-29.5 2042.7,-29.5 2128.7,-29.5 2128.7,-29.5 2134.7,-29.5 2140.7,-35.5 2140.7,-41.5 2140.7,-41.5 2140.7,-92.5 2140.7,-92.5 2140.7,-98.5 2134.7,-104.5 2128.7,-104.5"/>
<text text-anchor="middle" x="2085.7" y="-92.5" font-family="Helvetica,sans-Serif" font-size="10.00">Twelve Data</text>
<text text-anchor="middle" x="2085.7" y="-81.5" font-family="Helvetica,sans-Serif" font-size="10.00">[Priority 38]</text>
<text text-anchor="middle" x="2085.7" y="-58.5" font-family="Helvetica,sans-Serif" font-size="10.00">Global equities</text>
<text text-anchor="middle" x="2085.7" y="-47.5" font-family="Helvetica,sans-Serif" font-size="10.00">80+ exchanges</text>
<text text-anchor="middle" x="2085.7" y="-36.5" font-family="Helvetica,sans-Serif" font-size="10.00">Forex, ETFs, crypto</text>
</g>
<!-- I_HIST_PROVIDER&#45;&gt;TWELVE_HIST -->
<g id="edge19" class="edge">
<title>I_HIST_PROVIDER&#45;&gt;TWELVE_HIST</title>
<path fill="none" stroke="#4a5568" stroke-dasharray="5,2" d="M389.14,-709.66C381.71,-702.38 374.86,-694.26 369.7,-685.51 342.52,-639.41 345.7,-621.03 345.7,-567.51 345.7,-567.51 345.7,-567.51 345.7,-235.25 345.7,-194.61 337.47,-171.76 369.7,-147 387.9,-133.02 2000.76,-148.38 2021.7,-139 2034.74,-133.16 2046.25,-123.22 2055.78,-112.59"/>
<polygon fill="#4a5568" stroke="#4a5568" points="2058.6,-114.68 2062.37,-104.78 2053.25,-110.17 2058.6,-114.68"/>
</g>
<!-- FRED_HIST -->
<g id="node25" class="node">
<title>FRED_HIST</title>
<path fill="#bbf7d0" stroke="black" d="M2424.7,-104.5C2424.7,-104.5 2308.7,-104.5 2308.7,-104.5 2302.7,-104.5 2296.7,-98.5 2296.7,-92.5 2296.7,-92.5 2296.7,-41.5 2296.7,-41.5 2296.7,-35.5 2302.7,-29.5 2308.7,-29.5 2308.7,-29.5 2424.7,-29.5 2424.7,-29.5 2430.7,-29.5 2436.7,-35.5 2436.7,-41.5 2436.7,-41.5 2436.7,-92.5 2436.7,-92.5 2436.7,-98.5 2430.7,-104.5 2424.7,-104.5"/>
<text text-anchor="middle" x="2366.7" y="-92.5" font-family="Helvetica,sans-Serif" font-size="10.00">FRED (St Louis Fed)</text>
<text text-anchor="middle" x="2366.7" y="-81.5" font-family="Helvetica,sans-Serif" font-size="10.00">[Priority 45]</text>
<text text-anchor="middle" x="2366.7" y="-58.5" font-family="Helvetica,sans-Serif" font-size="10.00">Economic time series</text>
<text text-anchor="middle" x="2366.7" y="-47.5" font-family="Helvetica,sans-Serif" font-size="10.00">Mapped to synthetic bars</text>
<text text-anchor="middle" x="2366.7" y="-36.5" font-family="Helvetica,sans-Serif" font-size="10.00">Free, no limits</text>
</g>
<!-- I_HIST_PROVIDER&#45;&gt;FRED_HIST -->
<g id="edge20" class="edge">
<title>I_HIST_PROVIDER&#45;&gt;FRED_HIST</title>
<path fill="none" stroke="#4a5568" stroke-dasharray="5,2" d="M434.64,-703.49C428.72,-667.1 421.7,-614.14 421.7,-567.51 421.7,-567.51 421.7,-567.51 421.7,-235.25 421.7,-194.61 413.46,-171.76 445.7,-147 465.99,-131.42 2263.83,-148.21 2287.7,-139 2303.09,-133.06 2317.37,-122.61 2329.43,-111.52"/>
<polygon fill="#4a5568" stroke="#4a5568" points="2331.88,-114.02 2336.65,-104.56 2327.02,-108.98 2331.88,-114.02"/>
</g>
<!-- SYNTH_HIST -->
<g id="node26" class="node">
<title>SYNTH_HIST</title>
<path fill="#e0e7ff" stroke="black" d="M2616.2,-110C2616.2,-110 2467.2,-110 2467.2,-110 2461.2,-110 2455.2,-104 2455.2,-98 2455.2,-98 2455.2,-36 2455.2,-36 2455.2,-30 2461.2,-24 2467.2,-24 2467.2,-24 2616.2,-24 2616.2,-24 2622.2,-24 2628.2,-30 2628.2,-36 2628.2,-36 2628.2,-98 2628.2,-98 2628.2,-104 2622.2,-110 2616.2,-110"/>
<text text-anchor="middle" x="2541.7" y="-98" font-family="Helvetica,sans-Serif" font-size="10.00">SyntheticHistoricalDataProvider</text>
<text text-anchor="middle" x="2541.7" y="-87" font-family="Helvetica,sans-Serif" font-size="10.00">[Development]</text>
<text text-anchor="middle" x="2541.7" y="-64" font-family="Helvetica,sans-Serif" font-size="10.00">Deterministic OHLCV bars</text>
<text text-anchor="middle" x="2541.7" y="-53" font-family="Helvetica,sans-Serif" font-size="10.00">Quotes, trades, auctions</text>
<text text-anchor="middle" x="2541.7" y="-42" font-family="Helvetica,sans-Serif" font-size="10.00">Corporate action events</text>
<text text-anchor="middle" x="2541.7" y="-31" font-family="Helvetica,sans-Serif" font-size="10.00">No API key required</text>
</g>
<!-- I_HIST_PROVIDER&#45;&gt;SYNTH_HIST -->
<g id="edge21" class="edge">
<title>I_HIST_PROVIDER&#45;&gt;SYNTH_HIST</title>
<path fill="none" stroke="#4a5568" stroke-dasharray="5,2" d="M449.23,-703.43C454.02,-667.01 459.7,-614.03 459.7,-567.51 459.7,-567.51 459.7,-567.51 459.7,-235.25 459.7,-207.55 454.33,-192.63 475.7,-175 546.15,-116.89 794.44,-150.35 885.7,-147 907.35,-146.21 2425.14,-145.84 2445.7,-139 2460.71,-134.01 2475.3,-125.69 2488.38,-116.47"/>
<polygon fill="#4a5568" stroke="#4a5568" points="2490.78,-119.05 2496.76,-110.3 2486.63,-113.41 2490.78,-119.05"/>
</g>
<!-- CAPABILITIES -->
<g id="node6" class="node">
<title>CAPABILITIES</title>
<polygon fill="#f3e8ff" stroke="black" points="867.7,-786.26 739.7,-786.26 739.7,-711.26 873.7,-711.26 873.7,-780.26 867.7,-786.26"/>
<polyline fill="none" stroke="black" points="867.7,-786.26 867.7,-780.26 "/>
<polyline fill="none" stroke="black" points="873.7,-780.26 867.7,-780.26 "/>
<text text-anchor="middle" x="806.7" y="-774.26" font-family="Helvetica,sans-Serif" font-size="10.00">DataSourceCapabilities</text>
<text text-anchor="middle" x="806.7" y="-751.26" font-family="Helvetica,sans-Serif" font-size="10.00">• SupportsRealtime</text>
<text text-anchor="middle" x="806.7" y="-740.26" font-family="Helvetica,sans-Serif" font-size="10.00">• SupportsHistorical</text>
<text text-anchor="middle" x="806.7" y="-729.26" font-family="Helvetica,sans-Serif" font-size="10.00">• SupportsLevel2</text>
<text text-anchor="middle" x="806.7" y="-718.26" font-family="Helvetica,sans-Serif" font-size="10.00">• SupportedTimeframes</text>
</g>
<!-- REGISTRY -->
<g id="node7" class="node">
<title>REGISTRY</title>
<polygon fill="#f3e8ff" stroke="black" points="844.2,-598.51 725.2,-598.51 725.2,-534.51 850.2,-534.51 850.2,-592.51 844.2,-598.51"/>
<polyline fill="none" stroke="black" points="844.2,-598.51 844.2,-592.51 "/>
<polyline fill="none" stroke="black" points="850.2,-592.51 844.2,-592.51 "/>
<text text-anchor="middle" x="787.7" y="-586.51" font-family="Helvetica,sans-Serif" font-size="10.00">DataSourceRegistry</text>
<text text-anchor="middle" x="787.7" y="-563.51" font-family="Helvetica,sans-Serif" font-size="10.00">[DataSource] attribute</text>
<text text-anchor="middle" x="787.7" y="-552.51" font-family="Helvetica,sans-Serif" font-size="10.00">Automatic discovery</text>
<text text-anchor="middle" x="787.7" y="-541.51" font-family="Helvetica,sans-Serif" font-size="10.00">DI registration</text>
</g>
<!-- CAPABILITIES&#45;&gt;REGISTRY -->
<g id="edge50" class="edge">
<title>CAPABILITIES&#45;&gt;REGISTRY</title>
<path fill="none" stroke="#4a5568" stroke-dasharray="5,2" d="M802.81,-710.85C799.68,-681.15 795.28,-639.43 792.04,-608.65"/>
<polygon fill="#4a5568" stroke="#4a5568" points="795.52,-608.25 790.99,-598.67 788.55,-608.98 795.52,-608.25"/>
</g>
<!-- REGISTRY&#45;&gt;I_DATASOURCE -->
<g id="edge51" class="edge">
<title>REGISTRY&#45;&gt;I_DATASOURCE</title>
<path fill="none" stroke="#4a5568" stroke-dasharray="5,2" d="M782.93,-534.42C779.33,-510.93 774.29,-478.09 770.03,-450.29"/>
<polygon fill="#4a5568" stroke="#4a5568" points="773.47,-449.66 768.5,-440.31 766.55,-450.72 773.47,-449.66"/>
</g>
<!-- CONN_MGR -->
<g id="node28" class="node">
<title>CONN_MGR</title>
<path fill="#fecaca" stroke="black" d="M1819.2,-432.51C1819.2,-432.51 1672.2,-432.51 1672.2,-432.51 1666.2,-432.51 1660.2,-426.51 1660.2,-420.51 1660.2,-420.51 1660.2,-369.51 1660.2,-369.51 1660.2,-363.51 1666.2,-357.51 1672.2,-357.51 1672.2,-357.51 1819.2,-357.51 1819.2,-357.51 1825.2,-357.51 1831.2,-363.51 1831.2,-369.51 1831.2,-369.51 1831.2,-420.51 1831.2,-420.51 1831.2,-426.51 1825.2,-432.51 1819.2,-432.51"/>
<text text-anchor="middle" x="1745.7" y="-420.51" font-family="Helvetica,sans-Serif" font-size="10.00">EnhancedIBConnectionManager</text>
<text text-anchor="middle" x="1745.7" y="-397.51" font-family="Helvetica,sans-Serif" font-size="10.00">Automatic reconnection</text>
<text text-anchor="middle" x="1745.7" y="-386.51" font-family="Helvetica,sans-Serif" font-size="10.00">Heartbeat monitoring</text>
<text text-anchor="middle" x="1745.7" y="-375.51" font-family="Helvetica,sans-Serif" font-size="10.00">State machine</text>
<text text-anchor="middle" x="1745.7" y="-364.51" font-family="Helvetica,sans-Serif" font-size="10.00">Graceful degradation</text>
</g>
<!-- IB_CLIENT&#45;&gt;CONN_MGR -->
<g id="edge40" class="edge">
<title>IB_CLIENT&#45;&gt;CONN_MGR</title>
<path fill="none" stroke="#c53030" d="M1755.46,-523.17C1753.58,-498.7 1751.21,-467.86 1749.28,-442.69"/>
<polygon fill="#c53030" stroke="#c53030" points="1752.77,-442.34 1748.51,-432.64 1745.79,-442.87 1752.77,-442.34"/>
</g>
<!-- WS_RESILIENCE -->
<g id="node29" class="node">
<title>WS_RESILIENCE</title>
<path fill="#fecaca" stroke="black" d="M1630.2,-432.51C1630.2,-432.51 1505.2,-432.51 1505.2,-432.51 1499.2,-432.51 1493.2,-426.51 1493.2,-420.51 1493.2,-420.51 1493.2,-369.51 1493.2,-369.51 1493.2,-363.51 1499.2,-357.51 1505.2,-357.51 1505.2,-357.51 1630.2,-357.51 1630.2,-357.51 1636.2,-357.51 1642.2,-363.51 1642.2,-369.51 1642.2,-369.51 1642.2,-420.51 1642.2,-420.51 1642.2,-426.51 1636.2,-432.51 1630.2,-432.51"/>
<text text-anchor="middle" x="1567.7" y="-420.51" font-family="Helvetica,sans-Serif" font-size="10.00">WebSocketResiliencePolicy</text>
<text text-anchor="middle" x="1567.7" y="-397.51" font-family="Helvetica,sans-Serif" font-size="10.00">Polly retry policies</text>
<text text-anchor="middle" x="1567.7" y="-386.51" font-family="Helvetica,sans-Serif" font-size="10.00">Circuit breaker</text>
<text text-anchor="middle" x="1567.7" y="-375.51" font-family="Helvetica,sans-Serif" font-size="10.00">Exponential backoff</text>
<text text-anchor="middle" x="1567.7" y="-364.51" font-family="Helvetica,sans-Serif" font-size="10.00">Jitter randomization</text>
</g>
<!-- ALP_CLIENT&#45;&gt;WS_RESILIENCE -->
<g id="edge41" class="edge">
<title>ALP_CLIENT&#45;&gt;WS_RESILIENCE</title>
<path fill="none" stroke="#c53030" d="M1595.89,-528.73C1590.54,-503.52 1583.39,-469.87 1577.63,-442.76"/>
<polygon fill="#c53030" stroke="#c53030" points="1581,-441.77 1575.5,-432.72 1574.15,-443.23 1581,-441.77"/>
</g>
<!-- NYSE_CLIENT&#45;&gt;WS_RESILIENCE -->
<g id="edge42" class="edge">
<title>NYSE_CLIENT&#45;&gt;WS_RESILIENCE</title>
<path fill="none" stroke="#c53030" d="M1480,-528.73C1496.96,-503.08 1519.69,-468.68 1537.76,-441.33"/>
<polygon fill="#c53030" stroke="#c53030" points="1540.85,-442.99 1543.45,-432.72 1535.01,-439.13 1540.85,-442.99"/>
</g>
<!-- POL_CLIENT&#45;&gt;WS_RESILIENCE -->
<g id="edge43" class="edge">
<title>POL_CLIENT&#45;&gt;WS_RESILIENCE</title>
<path fill="none" stroke="#c53030" d="M1181.28,-534.26C1195.49,-523.89 1212.48,-513.47 1229.7,-507.51 1282.75,-489.16 1431.16,-514.92 1481.7,-490.51 1504.5,-479.5 1524.06,-459.53 1538.74,-440.77"/>
<polygon fill="#c53030" stroke="#c53030" points="1541.71,-442.65 1544.93,-432.56 1536.12,-438.44 1541.71,-442.65"/>
</g>
<!-- COMPOSITE -->
<g id="node27" class="node">
<title>COMPOSITE</title>
<path fill="#fef3c7" stroke="black" d="M1750.2,-284.75C1750.2,-284.75 1595.2,-284.75 1595.2,-284.75 1589.2,-284.75 1583.2,-278.75 1583.2,-272.75 1583.2,-272.75 1583.2,-199.75 1583.2,-199.75 1583.2,-193.75 1589.2,-187.75 1595.2,-187.75 1595.2,-187.75 1750.2,-187.75 1750.2,-187.75 1756.2,-187.75 1762.2,-193.75 1762.2,-199.75 1762.2,-199.75 1762.2,-272.75 1762.2,-272.75 1762.2,-278.75 1756.2,-284.75 1750.2,-284.75"/>
<text text-anchor="middle" x="1672.7" y="-272.75" font-family="Helvetica,sans-Serif" font-size="10.00">CompositeHistoricalDataProvider</text>
<text text-anchor="middle" x="1672.7" y="-261.75" font-family="Helvetica,sans-Serif" font-size="10.00">[Orchestrator]</text>
<text text-anchor="middle" x="1672.7" y="-238.75" font-family="Helvetica,sans-Serif" font-size="10.00">Automatic provider failover</text>
<text text-anchor="middle" x="1672.7" y="-227.75" font-family="Helvetica,sans-Serif" font-size="10.00">Rate&#45;limit rotation</text>
<text text-anchor="middle" x="1672.7" y="-216.75" font-family="Helvetica,sans-Serif" font-size="10.00">Priority&#45;based selection</text>
<text text-anchor="middle" x="1672.7" y="-205.75" font-family="Helvetica,sans-Serif" font-size="10.00">Health monitoring</text>
<text text-anchor="middle" x="1672.7" y="-194.75" font-family="Helvetica,sans-Serif" font-size="10.00">Circuit breaker per provider</text>
</g>
<!-- COMPOSITE&#45;&gt;ALPACA_HIST -->
<g id="edge27" class="edge">
<title>COMPOSITE&#45;&gt;ALPACA_HIST</title>
<path fill="none" stroke="#4a5568" d="M1583.01,-226.75C1480,-216.2 1306.22,-195.98 1158.7,-167 1110.47,-157.52 1094.91,-162.45 1051.7,-139 1038.49,-131.83 1025.74,-121.96 1014.5,-111.86"/>
<polygon fill="#4a5568" stroke="#4a5568" points="1016.69,-109.11 1006.98,-104.86 1011.92,-114.24 1016.69,-109.11"/>
<text text-anchor="middle" x="1179.7" y="-154.8" font-family="Helvetica,sans-Serif" font-size="9.00">priority 5</text>
</g>
<!-- COMPOSITE&#45;&gt;IB_HIST -->
<g id="edge28" class="edge">
<title>COMPOSITE&#45;&gt;IB_HIST</title>
<path fill="none" stroke="#4a5568" d="M1582.9,-234.76C1479.58,-230.49 1307.96,-211.75 1181.7,-139 1169.65,-132.06 1158.44,-122.26 1148.77,-112.17"/>
<polygon fill="#4a5568" stroke="#4a5568" points="1151.35,-109.8 1142.01,-104.8 1146.19,-114.53 1151.35,-109.8"/>
<text text-anchor="middle" x="1250.7" y="-154.8" font-family="Helvetica,sans-Serif" font-size="9.00">priority 5</text>
</g>
<!-- COMPOSITE&#45;&gt;YAHOO_HIST -->
<g id="edge29" class="edge">
<title>COMPOSITE&#45;&gt;YAHOO_HIST</title>
<path fill="none" stroke="#4a5568" d="M1583.09,-225.57C1510.09,-214.21 1406.99,-189.98 1330.7,-139 1319.11,-131.25 1307.73,-121.54 1297.54,-111.81"/>
<polygon fill="#4a5568" stroke="#4a5568" points="1299.93,-109.25 1290.34,-104.75 1295.03,-114.25 1299.93,-109.25"/>
<text text-anchor="middle" x="1395.7" y="-154.8" font-family="Helvetica,sans-Serif" font-size="9.00">priority 10</text>
</g>
<!-- COMPOSITE&#45;&gt;STOOQ_HIST -->
<g id="edge31" class="edge">
<title>COMPOSITE&#45;&gt;STOOQ_HIST</title>
<path fill="none" stroke="#4a5568" d="M1603.53,-187.59C1584.73,-173.08 1565.07,-156.34 1548.7,-139 1540.9,-130.73 1532.98,-121.5 1525.63,-112.51"/>
<polygon fill="#4a5568" stroke="#4a5568" points="1528.33,-110.28 1519.33,-104.69 1522.88,-114.68 1528.33,-110.28"/>
<text text-anchor="middle" x="1599.7" y="-154.8" font-family="Helvetica,sans-Serif" font-size="9.00">priority 20</text>
</g>
<!-- COMPOSITE&#45;&gt;POLYGON_HIST -->
<g id="edge30" class="edge">
<title>COMPOSITE&#45;&gt;POLYGON_HIST</title>
<path fill="none" stroke="#4a5568" d="M1583.06,-211.17C1536.53,-195.69 1480.6,-172.17 1437.7,-139 1428.23,-131.67 1419.55,-122.29 1412.05,-112.77"/>
<polygon fill="#4a5568" stroke="#4a5568" points="1414.84,-110.66 1406.04,-104.78 1409.25,-114.87 1414.84,-110.66"/>
<text text-anchor="middle" x="1501.7" y="-154.8" font-family="Helvetica,sans-Serif" font-size="9.00">priority 15</text>
</g>
<!-- COMPOSITE&#45;&gt;NASDAQ_HIST -->
<g id="edge33" class="edge">
<title>COMPOSITE&#45;&gt;NASDAQ_HIST</title>
<path fill="none" stroke="#4a5568" d="M1726.37,-187.6C1743.08,-172.36 1761.4,-155.22 1777.7,-139 1788.05,-128.71 1799.02,-117.31 1809.01,-106.71"/>
<polygon fill="#4a5568" stroke="#4a5568" points="1811.81,-108.85 1816.1,-99.16 1806.7,-104.06 1811.81,-108.85"/>
<text text-anchor="middle" x="1792.7" y="-154.8" font-family="Helvetica,sans-Serif" font-size="9.00">priority 30</text>
</g>
<!-- COMPOSITE&#45;&gt;TIINGO_HIST -->
<g id="edge32" class="edge">
<title>COMPOSITE&#45;&gt;TIINGO_HIST</title>
<path fill="none" stroke="#4a5568" d="M1762.31,-234.99C1863.38,-230.85 2029.32,-212.16 2149.7,-139 2163.68,-130.51 2176.8,-118.52 2187.77,-106.8"/>
<polygon fill="#4a5568" stroke="#4a5568" points="2190.54,-108.95 2194.65,-99.19 2185.35,-104.26 2190.54,-108.95"/>
<text text-anchor="middle" x="2150.7" y="-154.8" font-family="Helvetica,sans-Serif" font-size="9.00">priority 25</text>
</g>
<!-- COMPOSITE&#45;&gt;FINNHUB_HIST -->
<g id="edge35" class="edge">
<title>COMPOSITE&#45;&gt;FINNHUB_HIST</title>
<path fill="none" stroke="#4a5568" d="M1648.66,-187.5C1645.51,-180.68 1642.43,-173.71 1639.7,-167 1632.05,-148.17 1624.76,-126.82 1618.99,-108.78"/>
<polygon fill="#4a5568" stroke="#4a5568" points="1622.3,-107.63 1615.95,-99.14 1615.62,-109.73 1622.3,-107.63"/>
<text text-anchor="middle" x="1663.7" y="-154.8" font-family="Helvetica,sans-Serif" font-size="9.00">priority 35</text>
</g>
<!-- COMPOSITE&#45;&gt;AV_HIST -->
<g id="edge37" class="edge">
<title>COMPOSITE&#45;&gt;AV_HIST</title>
<path fill="none" stroke="#4a5568" d="M1686.17,-187.33C1693.15,-162.49 1701.58,-132.49 1708.24,-108.78"/>
<polygon fill="#4a5568" stroke="#4a5568" points="1711.64,-109.62 1710.98,-99.04 1704.9,-107.72 1711.64,-109.62"/>
<text text-anchor="middle" x="1719.7" y="-154.8" font-family="Helvetica,sans-Serif" font-size="9.00">priority 40</text>
</g>
<!-- COMPOSITE&#45;&gt;SS_HIST -->
<g id="edge34" class="edge">
<title>COMPOSITE&#45;&gt;SS_HIST</title>
<path fill="none" stroke="#4a5568" d="M1762.22,-211.64C1809.77,-196.17 1867.37,-172.52 1911.7,-139 1923.21,-130.3 1933.59,-118.61 1942.15,-107.23"/>
<polygon fill="#4a5568" stroke="#4a5568" points="1945.04,-109.21 1948.05,-99.05 1939.36,-105.11 1945.04,-109.21"/>
<text text-anchor="middle" x="1923.7" y="-154.8" font-family="Helvetica,sans-Serif" font-size="9.00">priority 35</text>
</g>
<!-- COMPOSITE&#45;&gt;TWELVE_HIST -->
<g id="edge36" class="edge">
<title>COMPOSITE&#45;&gt;TWELVE_HIST</title>
<path fill="none" stroke="#4a5568" d="M1762.5,-227.2C1837.48,-216.78 1944.24,-193.01 2021.7,-139 2032.34,-131.59 2042.44,-122.09 2051.35,-112.46"/>
<polygon fill="#4a5568" stroke="#4a5568" points="2054.18,-114.55 2058.22,-104.76 2048.95,-109.89 2054.18,-114.55"/>
<text text-anchor="middle" x="2028.7" y="-154.8" font-family="Helvetica,sans-Serif" font-size="9.00">priority 38</text>
</g>
<!-- COMPOSITE&#45;&gt;FRED_HIST -->
<g id="edge38" class="edge">
<title>COMPOSITE&#45;&gt;FRED_HIST</title>
<path fill="none" stroke="#4a5568" d="M1762.34,-226.38C1863.89,-215.58 2034.06,-195.23 2178.7,-167 2227.79,-157.42 2243.61,-162.62 2287.7,-139 2301.17,-131.78 2314.2,-121.8 2325.66,-111.59"/>
<polygon fill="#4a5568" stroke="#4a5568" points="2328.35,-113.88 2333.33,-104.53 2323.61,-108.73 2328.35,-113.88"/>
<text text-anchor="middle" x="2293.7" y="-154.8" font-family="Helvetica,sans-Serif" font-size="9.00">priority 45</text>
</g>
<!-- COMPOSITE&#45;&gt;SYNTH_HIST -->
<g id="edge39" class="edge">
<title>COMPOSITE&#45;&gt;SYNTH_HIST</title>
<path fill="none" stroke="#4a5568" stroke-dasharray="5,2" d="M1762.38,-229.17C1888.01,-219.88 2123.28,-199.72 2321.7,-167 2377.45,-157.81 2394.33,-162.52 2445.7,-139 2459.03,-132.9 2472.31,-124.75 2484.56,-116.16"/>
<polygon fill="#4a5568" stroke="#4a5568" points="2486.81,-118.85 2492.87,-110.16 2482.71,-113.18 2486.81,-118.85"/>
<text text-anchor="middle" x="2449.7" y="-159.8" font-family="Helvetica,sans-Serif" font-size="9.00">priority 99</text>
<text text-anchor="middle" x="2449.7" y="-149.8" font-family="Helvetica,sans-Serif" font-size="9.00">(dev only)</text>
</g>
<!-- CIRCUIT -->
<g id="node30" class="node">
<title>CIRCUIT</title>
<path fill="#fecaca" stroke="black" d="M1457.2,-427.01C1457.2,-427.01 1354.2,-427.01 1354.2,-427.01 1348.2,-427.01 1342.2,-421.01 1342.2,-415.01 1342.2,-415.01 1342.2,-375.01 1342.2,-375.01 1342.2,-369.01 1348.2,-363.01 1354.2,-363.01 1354.2,-363.01 1457.2,-363.01 1457.2,-363.01 1463.2,-363.01 1469.2,-369.01 1469.2,-375.01 1469.2,-375.01 1469.2,-415.01 1469.2,-415.01 1469.2,-421.01 1463.2,-427.01 1457.2,-427.01"/>
<text text-anchor="middle" x="1405.7" y="-415.01" font-family="Helvetica,sans-Serif" font-size="10.00">CircuitBreaker</text>
<text text-anchor="middle" x="1405.7" y="-392.01" font-family="Helvetica,sans-Serif" font-size="10.00">Open/Closed/HalfOpen</text>
<text text-anchor="middle" x="1405.7" y="-381.01" font-family="Helvetica,sans-Serif" font-size="10.00">Failure counting</text>
<text text-anchor="middle" x="1405.7" y="-370.01" font-family="Helvetica,sans-Serif" font-size="10.00">Auto recovery</text>
</g>
<!-- CIRCUIT&#45;&gt;COMPOSITE -->
<g id="edge44" class="edge">
<title>CIRCUIT&#45;&gt;COMPOSITE</title>
<path fill="none" stroke="#c53030" stroke-dasharray="5,2" d="M1448.99,-362.95C1459.55,-355.7 1470.92,-348.15 1481.7,-341.51 1511.27,-323.3 1544.23,-304.72 1574.34,-288.39"/>
<polygon fill="#c53030" stroke="#c53030" points="1576.03,-291.46 1583.16,-283.62 1572.7,-285.3 1576.03,-291.46"/>
</g>
<!-- RATE_LIMIT -->
<g id="node31" class="node">
<title>RATE_LIMIT</title>
<path fill="#fecaca" stroke="black" d="M1312.2,-427.01C1312.2,-427.01 1229.2,-427.01 1229.2,-427.01 1223.2,-427.01 1217.2,-421.01 1217.2,-415.01 1217.2,-415.01 1217.2,-375.01 1217.2,-375.01 1217.2,-369.01 1223.2,-363.01 1229.2,-363.01 1229.2,-363.01 1312.2,-363.01 1312.2,-363.01 1318.2,-363.01 1324.2,-369.01 1324.2,-375.01 1324.2,-375.01 1324.2,-415.01 1324.2,-415.01 1324.2,-421.01 1318.2,-427.01 1312.2,-427.01"/>
<text text-anchor="middle" x="1270.7" y="-415.01" font-family="Helvetica,sans-Serif" font-size="10.00">RateLimiter</text>
<text text-anchor="middle" x="1270.7" y="-392.01" font-family="Helvetica,sans-Serif" font-size="10.00">Per&#45;provider limits</text>
<text text-anchor="middle" x="1270.7" y="-381.01" font-family="Helvetica,sans-Serif" font-size="10.00">Token bucket</text>
<text text-anchor="middle" x="1270.7" y="-370.01" font-family="Helvetica,sans-Serif" font-size="10.00">Request queuing</text>
</g>
<!-- RATE_LIMIT&#45;&gt;COMPOSITE -->
<g id="edge45" class="edge">
<title>RATE_LIMIT&#45;&gt;COMPOSITE</title>
<path fill="none" stroke="#c53030" stroke-dasharray="5,2" d="M1303.24,-362.75C1312.54,-355 1323.06,-347.27 1333.7,-341.51 1409.17,-300.62 1502.96,-273.35 1572.75,-256.99"/>
<polygon fill="#c53030" stroke="#c53030" points="1573.91,-260.31 1582.86,-254.66 1572.33,-253.49 1573.91,-260.31"/>
</g>
<!-- I_SYMBOL_SEARCH -->
<g id="node32" class="node">
<title>I_SYMBOL_SEARCH</title>
<ellipse fill="#fbd38d" stroke="black" cx="1344.7" cy="-1047.27" rx="118.59" ry="45.01"/>
<text text-anchor="middle" x="1344.7" y="-1067.27" font-family="Helvetica,sans-Serif" font-size="10.00">ISymbolSearchProvider</text>
<text text-anchor="middle" x="1344.7" y="-1056.27" font-family="Helvetica,sans-Serif" font-size="10.00">[Interface]</text>
<text text-anchor="middle" x="1344.7" y="-1033.27" font-family="Helvetica,sans-Serif" font-size="10.00">SearchAsync(query, ct)</text>
<text text-anchor="middle" x="1344.7" y="-1022.27" font-family="Helvetica,sans-Serif" font-size="10.00">Returns: SymbolSearchResult[]</text>
</g>
<!-- ALP_SEARCH -->
<g id="node33" class="node">
<title>ALP_SEARCH</title>
<path fill="#feebc8" stroke="black" d="M1047.7,-959.52C1047.7,-959.52 911.7,-959.52 911.7,-959.52 905.7,-959.52 899.7,-953.52 899.7,-947.52 899.7,-947.52 899.7,-896.52 899.7,-896.52 899.7,-890.52 905.7,-884.52 911.7,-884.52 911.7,-884.52 1047.7,-884.52 1047.7,-884.52 1053.7,-884.52 1059.7,-890.52 1059.7,-896.52 1059.7,-896.52 1059.7,-947.52 1059.7,-947.52 1059.7,-953.52 1053.7,-959.52 1047.7,-959.52"/>
<text text-anchor="middle" x="979.7" y="-947.52" font-family="Helvetica,sans-Serif" font-size="10.00">AlpacaSymbolSearchProvider</text>
<text text-anchor="middle" x="979.7" y="-936.52" font-family="Helvetica,sans-Serif" font-size="10.00">[Production]</text>
<text text-anchor="middle" x="979.7" y="-913.52" font-family="Helvetica,sans-Serif" font-size="10.00">US equities + ETFs</text>
<text text-anchor="middle" x="979.7" y="-902.52" font-family="Helvetica,sans-Serif" font-size="10.00">Real&#45;time status</text>
<text text-anchor="middle" x="979.7" y="-891.52" font-family="Helvetica,sans-Serif" font-size="10.00">Asset class filter</text>
</g>
<!-- I_SYMBOL_SEARCH&#45;&gt;ALP_SEARCH -->
<g id="edge22" class="edge">
<title>I_SYMBOL_SEARCH&#45;&gt;ALP_SEARCH</title>
<path fill="none" stroke="#4a5568" stroke-dasharray="5,2" d="M1247.13,-1021.27C1194.03,-1006.71 1127.55,-986.92 1069.7,-965.02 1068.29,-964.49 1066.87,-963.94 1065.45,-963.38"/>
<polygon fill="#4a5568" stroke="#4a5568" points="1066.55,-960.05 1055.96,-959.55 1063.93,-966.54 1066.55,-960.05"/>
</g>
<!-- FINNHUB_SEARCH -->
<g id="node34" class="node">
<title>FINNHUB_SEARCH</title>
<path fill="#feebc8" stroke="black" d="M1231.2,-959.52C1231.2,-959.52 1090.2,-959.52 1090.2,-959.52 1084.2,-959.52 1078.2,-953.52 1078.2,-947.52 1078.2,-947.52 1078.2,-896.52 1078.2,-896.52 1078.2,-890.52 1084.2,-884.52 1090.2,-884.52 1090.2,-884.52 1231.2,-884.52 1231.2,-884.52 1237.2,-884.52 1243.2,-890.52 1243.2,-896.52 1243.2,-896.52 1243.2,-947.52 1243.2,-947.52 1243.2,-953.52 1237.2,-959.52 1231.2,-959.52"/>
<text text-anchor="middle" x="1160.7" y="-947.52" font-family="Helvetica,sans-Serif" font-size="10.00">FinnhubSymbolSearchProvider</text>
<text text-anchor="middle" x="1160.7" y="-936.52" font-family="Helvetica,sans-Serif" font-size="10.00">[Production]</text>
<text text-anchor="middle" x="1160.7" y="-913.52" font-family="Helvetica,sans-Serif" font-size="10.00">Global stocks</text>
<text text-anchor="middle" x="1160.7" y="-902.52" font-family="Helvetica,sans-Serif" font-size="10.00">Exchange filter</text>
<text text-anchor="middle" x="1160.7" y="-891.52" font-family="Helvetica,sans-Serif" font-size="10.00">Type filter</text>
</g>
<!-- I_SYMBOL_SEARCH&#45;&gt;FINNHUB_SEARCH -->
<g id="edge23" class="edge">
<title>I_SYMBOL_SEARCH&#45;&gt;FINNHUB_SEARCH</title>
<path fill="none" stroke="#4a5568" stroke-dasharray="5,2" d="M1286.99,-1007.61C1266.89,-994.15 1244.24,-978.98 1223.73,-965.24"/>
<polygon fill="#4a5568" stroke="#4a5568" points="1225.64,-962.31 1215.39,-959.65 1221.75,-968.12 1225.64,-962.31"/>
</g>
<!-- POL_SEARCH -->
<g id="node35" class="node">
<title>POL_SEARCH</title>
<path fill="#feebc8" stroke="black" d="M1415.7,-959.52C1415.7,-959.52 1273.7,-959.52 1273.7,-959.52 1267.7,-959.52 1261.7,-953.52 1261.7,-947.52 1261.7,-947.52 1261.7,-896.52 1261.7,-896.52 1261.7,-890.52 1267.7,-884.52 1273.7,-884.52 1273.7,-884.52 1415.7,-884.52 1415.7,-884.52 1421.7,-884.52 1427.7,-890.52 1427.7,-896.52 1427.7,-896.52 1427.7,-947.52 1427.7,-947.52 1427.7,-953.52 1421.7,-959.52 1415.7,-959.52"/>
<text text-anchor="middle" x="1344.7" y="-947.52" font-family="Helvetica,sans-Serif" font-size="10.00">PolygonSymbolSearchProvider</text>
<text text-anchor="middle" x="1344.7" y="-936.52" font-family="Helvetica,sans-Serif" font-size="10.00">[Production]</text>
<text text-anchor="middle" x="1344.7" y="-913.52" font-family="Helvetica,sans-Serif" font-size="10.00">US + global tickers</text>
<text text-anchor="middle" x="1344.7" y="-902.52" font-family="Helvetica,sans-Serif" font-size="10.00">Full text search</text>
<text text-anchor="middle" x="1344.7" y="-891.52" font-family="Helvetica,sans-Serif" font-size="10.00">Market type filter</text>
</g>
<!-- I_SYMBOL_SEARCH&#45;&gt;POL_SEARCH -->
<g id="edge24" class="edge">
<title>I_SYMBOL_SEARCH&#45;&gt;POL_SEARCH</title>
<path fill="none" stroke="#4a5568" stroke-dasharray="5,2" d="M1344.7,-1001.78C1344.7,-991.43 1344.7,-980.39 1344.7,-969.95"/>
<polygon fill="#4a5568" stroke="#4a5568" points="1348.2,-969.75 1344.7,-959.75 1341.2,-969.75 1348.2,-969.75"/>
</g>
<!-- SS_SEARCH -->
<g id="node36" class="node">
<title>SS_SEARCH</title>
<path fill="#feebc8" stroke="black" d="M1615.7,-959.52C1615.7,-959.52 1457.7,-959.52 1457.7,-959.52 1451.7,-959.52 1445.7,-953.52 1445.7,-947.52 1445.7,-947.52 1445.7,-896.52 1445.7,-896.52 1445.7,-890.52 1451.7,-884.52 1457.7,-884.52 1457.7,-884.52 1615.7,-884.52 1615.7,-884.52 1621.7,-884.52 1627.7,-890.52 1627.7,-896.52 1627.7,-896.52 1627.7,-947.52 1627.7,-947.52 1627.7,-953.52 1621.7,-959.52 1615.7,-959.52"/>
<text text-anchor="middle" x="1536.7" y="-947.52" font-family="Helvetica,sans-Serif" font-size="10.00">StockSharpSymbolSearchProvider</text>
<text text-anchor="middle" x="1536.7" y="-936.52" font-family="Helvetica,sans-Serif" font-size="10.00">[Production]</text>
<text text-anchor="middle" x="1536.7" y="-913.52" font-family="Helvetica,sans-Serif" font-size="10.00">90+ exchange symbols</text>
<text text-anchor="middle" x="1536.7" y="-902.52" font-family="Helvetica,sans-Serif" font-size="10.00">Multi&#45;exchange search</text>
<text text-anchor="middle" x="1536.7" y="-891.52" font-family="Helvetica,sans-Serif" font-size="10.00">Global coverage</text>
</g>
<!-- I_SYMBOL_SEARCH&#45;&gt;SS_SEARCH -->
<g id="edge25" class="edge">
<title>I_SYMBOL_SEARCH&#45;&gt;SS_SEARCH</title>
<path fill="none" stroke="#4a5568" stroke-dasharray="5,2" d="M1404.4,-1007.95C1425.59,-994.35 1449.54,-978.98 1471.18,-965.08"/>
<polygon fill="#4a5568" stroke="#4a5568" points="1473.14,-967.98 1479.67,-959.63 1469.36,-962.09 1473.14,-967.98"/>
</g>
<!-- FIGI_SEARCH -->
<g id="node37" class="node">
<title>FIGI_SEARCH</title>
<path fill="#feebc8" stroke="black" d="M1783.2,-965.02C1783.2,-965.02 1658.2,-965.02 1658.2,-965.02 1652.2,-965.02 1646.2,-959.02 1646.2,-953.02 1646.2,-953.02 1646.2,-891.02 1646.2,-891.02 1646.2,-885.02 1652.2,-879.02 1658.2,-879.02 1658.2,-879.02 1783.2,-879.02 1783.2,-879.02 1789.2,-879.02 1795.2,-885.02 1795.2,-891.02 1795.2,-891.02 1795.2,-953.02 1795.2,-953.02 1795.2,-959.02 1789.2,-965.02 1783.2,-965.02"/>
<text text-anchor="middle" x="1720.7" y="-953.02" font-family="Helvetica,sans-Serif" font-size="10.00">OpenFigiClient</text>
<text text-anchor="middle" x="1720.7" y="-942.02" font-family="Helvetica,sans-Serif" font-size="10.00">[Production]</text>
<text text-anchor="middle" x="1720.7" y="-919.02" font-family="Helvetica,sans-Serif" font-size="10.00">Global FIGI resolution</text>
<text text-anchor="middle" x="1720.7" y="-908.02" font-family="Helvetica,sans-Serif" font-size="10.00">FIGI → ticker mapping</text>
<text text-anchor="middle" x="1720.7" y="-897.02" font-family="Helvetica,sans-Serif" font-size="10.00">CUSIP/SEDOL/ISIN lookup</text>
<text text-anchor="middle" x="1720.7" y="-886.02" font-family="Helvetica,sans-Serif" font-size="10.00">Cross&#45;market identification</text>
</g>
<!-- I_SYMBOL_SEARCH&#45;&gt;FIGI_SEARCH -->
<g id="edge26" class="edge">
<title>I_SYMBOL_SEARCH&#45;&gt;FIGI_SEARCH</title>
<path fill="none" stroke="#4a5568" stroke-dasharray="5,2" d="M1445.58,-1023.29C1500,-1009.7 1568.14,-990.73 1636.3,-964.98"/>
<polygon fill="#4a5568" stroke="#4a5568" points="1637.83,-968.15 1645.92,-961.3 1635.33,-961.61 1637.83,-968.15"/>
</g>
<!-- MAPPER -->
<g id="node38" class="node">
<title>MAPPER</title>
<path fill="#9ae6b4" stroke="black" d="M1795.7,-780.76C1795.7,-780.76 1645.7,-780.76 1645.7,-780.76 1639.7,-780.76 1633.7,-774.76 1633.7,-768.76 1633.7,-768.76 1633.7,-728.76 1633.7,-728.76 1633.7,-722.76 1639.7,-716.76 1645.7,-716.76 1645.7,-716.76 1795.7,-716.76 1795.7,-716.76 1801.7,-716.76 1807.7,-722.76 1807.7,-728.76 1807.7,-728.76 1807.7,-768.76 1807.7,-768.76 1807.7,-774.76 1801.7,-780.76 1795.7,-780.76"/>
<text text-anchor="middle" x="1720.7" y="-768.76" font-family="Helvetica,sans-Serif" font-size="10.00">SymbolMapper</text>
<text text-anchor="middle" x="1720.7" y="-745.76" font-family="Helvetica,sans-Serif" font-size="10.00">Provider&#45;specific formats</text>
<text text-anchor="middle" x="1720.7" y="-734.76" font-family="Helvetica,sans-Serif" font-size="10.00">Exchange suffixes</text>
<text text-anchor="middle" x="1720.7" y="-723.76" font-family="Helvetica,sans-Serif" font-size="10.00">CUSIP/SEDOL/ISIN normalization</text>
</g>
<!-- FIGI_SEARCH&#45;&gt;MAPPER -->
<g id="edge46" class="edge">
<title>FIGI_SEARCH&#45;&gt;MAPPER</title>
<path fill="none" stroke="#38a169" d="M1720.7,-878.69C1720.7,-851.93 1720.7,-817.52 1720.7,-790.98"/>
<polygon fill="#38a169" stroke="#38a169" points="1724.2,-790.86 1720.7,-780.86 1717.2,-790.86 1724.2,-790.86"/>
</g>
<!-- MAPPER&#45;&gt;IB_CLIENT -->
<g id="edge48" class="edge">
<title>MAPPER&#45;&gt;IB_CLIENT</title>
<path fill="none" stroke="#38a169" d="M1727.32,-716.37C1732.94,-689.7 1741.13,-650.88 1747.73,-619.57"/>
<polygon fill="#38a169" stroke="#38a169" points="1751.17,-620.2 1749.81,-609.69 1744.32,-618.76 1751.17,-620.2"/>
</g>
<!-- MAPPER&#45;&gt;COMPOSITE -->
<g id="edge47" class="edge">
<title>MAPPER&#45;&gt;COMPOSITE</title>
<path fill="none" stroke="#38a169" d="M1789.86,-716.72C1809.44,-704.35 1828.47,-688.07 1839.7,-667.51 1909.17,-540.35 1914.65,-467.85 1843.7,-341.51 1827.5,-312.66 1799.72,-290.85 1771.2,-274.84"/>
<polygon fill="#38a169" stroke="#38a169" points="1772.8,-271.73 1762.34,-270.06 1769.48,-277.89 1772.8,-271.73"/>
</g>
<!-- CONTRACT -->
<g id="node39" class="node">
<title>CONTRACT</title>
<path fill="#9ae6b4" stroke="black" d="M1603.7,-780.76C1603.7,-780.76 1481.7,-780.76 1481.7,-780.76 1475.7,-780.76 1469.7,-774.76 1469.7,-768.76 1469.7,-768.76 1469.7,-728.76 1469.7,-728.76 1469.7,-722.76 1475.7,-716.76 1481.7,-716.76 1481.7,-716.76 1603.7,-716.76 1603.7,-716.76 1609.7,-716.76 1615.7,-722.76 1615.7,-728.76 1615.7,-728.76 1615.7,-768.76 1615.7,-768.76 1615.7,-774.76 1609.7,-780.76 1603.7,-780.76"/>
<text text-anchor="middle" x="1542.7" y="-768.76" font-family="Helvetica,sans-Serif" font-size="10.00">ContractFactory</text>
<text text-anchor="middle" x="1542.7" y="-745.76" font-family="Helvetica,sans-Serif" font-size="10.00">IB contract resolution</text>
<text text-anchor="middle" x="1542.7" y="-734.76" font-family="Helvetica,sans-Serif" font-size="10.00">Symbol to contract</text>
<text text-anchor="middle" x="1542.7" y="-723.76" font-family="Helvetica,sans-Serif" font-size="10.00">Multiple exchange support</text>
</g>
<!-- CONTRACT&#45;&gt;IB_CLIENT -->
<g id="edge49" class="edge">
<title>CONTRACT&#45;&gt;IB_CLIENT</title>
<path fill="none" stroke="#38a169" d="M1589.89,-716.52C1601.16,-709.39 1613.25,-702 1624.7,-695.51 1648.91,-681.79 1659.17,-685.14 1680.7,-667.51 1697.69,-653.61 1713.27,-635.37 1725.97,-618.28"/>
<polygon fill="#38a169" stroke="#38a169" points="1728.93,-620.16 1731.97,-610 1723.26,-616.05 1728.93,-620.16"/>
</g>
<!-- FAILOVER_WRAP -->
<g id="node40" class="node">
<title>FAILOVER_WRAP</title>
<path fill="#fecaca" stroke="black" d="M1999.2,-786.26C1999.2,-786.26 1844.2,-786.26 1844.2,-786.26 1838.2,-786.26 1832.2,-780.26 1832.2,-774.26 1832.2,-774.26 1832.2,-723.26 1832.2,-723.26 1832.2,-717.26 1838.2,-711.26 1844.2,-711.26 1844.2,-711.26 1999.2,-711.26 1999.2,-711.26 2005.2,-711.26 2011.2,-717.26 2011.2,-723.26 2011.2,-723.26 2011.2,-774.26 2011.2,-774.26 2011.2,-780.26 2005.2,-786.26 1999.2,-786.26"/>
<text text-anchor="middle" x="1921.7" y="-774.26" font-family="Helvetica,sans-Serif" font-size="10.00">FailoverAwareMarketDataClient</text>
<text text-anchor="middle" x="1921.7" y="-751.26" font-family="Helvetica,sans-Serif" font-size="10.00">Wraps multiple streaming clients</text>
<text text-anchor="middle" x="1921.7" y="-740.26" font-family="Helvetica,sans-Serif" font-size="10.00">Automatic failover on disconnect</text>
<text text-anchor="middle" x="1921.7" y="-729.26" font-family="Helvetica,sans-Serif" font-size="10.00">Primary/secondary priority</text>
<text text-anchor="middle" x="1921.7" y="-718.26" font-family="Helvetica,sans-Serif" font-size="10.00">Health&#45;based selection</text>
</g>
<!-- FAILOVER_WRAP&#45;&gt;IB_CLIENT -->
<g id="edge52" class="edge">
<title>FAILOVER_WRAP&#45;&gt;IB_CLIENT</title>
<path fill="none" stroke="#c53030" stroke-dasharray="5,2" d="M1888.32,-710.85C1863.96,-683.91 1830.65,-647.07 1803.9,-617.49"/>
<polygon fill="#c53030" stroke="#c53030" points="1806.2,-614.81 1796.89,-609.74 1801,-619.51 1806.2,-614.81"/>
<text text-anchor="middle" x="1881.7" y="-678.31" font-family="Helvetica,sans-Serif" font-size="9.00">primary</text>
</g>
<!-- FAILOVER_WRAP&#45;&gt;ALP_CLIENT -->
<g id="edge53" class="edge">
<title>FAILOVER_WRAP&#45;&gt;ALP_CLIENT</title>
<path fill="none" stroke="#c53030" stroke-dasharray="5,2" d="M1856.76,-711.16C1844.69,-705.33 1832.01,-699.81 1819.7,-695.51 1760.21,-674.73 1734.21,-700.81 1680.7,-667.51 1659.31,-654.2 1641.6,-632.67 1628.58,-612.99"/>
<polygon fill="#c53030" stroke="#c53030" points="1631.44,-610.96 1623.11,-604.41 1625.54,-614.72 1631.44,-610.96"/>
<text text-anchor="middle" x="1753.2" y="-678.31" font-family="Helvetica,sans-Serif" font-size="9.00">secondary</text>
</g>
<!-- FAILOVER_WRAP&#45;&gt;POL_CLIENT -->
<g id="edge54" class="edge">
<title>FAILOVER_WRAP&#45;&gt;POL_CLIENT</title>
<path fill="none" stroke="#c53030" stroke-dasharray="5,2" d="M1860.55,-711.17C1847.47,-704.87 1833.45,-699.17 1819.7,-695.51 1756.29,-678.61 1288.6,-696.46 1229.7,-667.51 1203.35,-654.55 1181.98,-629.3 1167.27,-607.41"/>
<polygon fill="#c53030" stroke="#c53030" points="1170.13,-605.4 1161.76,-598.9 1164.26,-609.2 1170.13,-605.4"/>
<text text-anchor="middle" x="1491.7" y="-678.31" font-family="Helvetica,sans-Serif" font-size="9.00">tertiary</text>
</g>
<!-- L1 -->
<g id="node41" class="node">
<title>L1</title>
<path fill="#bfdbfe" stroke="black" d="M2742.7,-1065.27C2742.7,-1065.27 2644.7,-1065.27 2644.7,-1065.27 2638.7,-1065.27 2632.7,-1059.27 2632.7,-1053.27 2632.7,-1053.27 2632.7,-1041.27 2632.7,-1041.27 2632.7,-1035.27 2638.7,-1029.27 2644.7,-1029.27 2644.7,-1029.27 2742.7,-1029.27 2742.7,-1029.27 2748.7,-1029.27 2754.7,-1035.27 2754.7,-1041.27 2754.7,-1041.27 2754.7,-1053.27 2754.7,-1053.27 2754.7,-1059.27 2748.7,-1065.27 2742.7,-1065.27"/>
<text text-anchor="middle" x="2693.7" y="-1044.77" font-family="Helvetica,sans-Serif" font-size="10.00">Production Streaming</text>
</g>
<!-- L2 -->
<g id="node42" class="node">
<title>L2</title>
<path fill="#a7f3d0" stroke="black" d="M2602.7,-1065.27C2602.7,-1065.27 2532.7,-1065.27 2532.7,-1065.27 2526.7,-1065.27 2520.7,-1059.27 2520.7,-1053.27 2520.7,-1053.27 2520.7,-1041.27 2520.7,-1041.27 2520.7,-1035.27 2526.7,-1029.27 2532.7,-1029.27 2532.7,-1029.27 2602.7,-1029.27 2602.7,-1029.27 2608.7,-1029.27 2614.7,-1035.27 2614.7,-1041.27 2614.7,-1041.27 2614.7,-1053.27 2614.7,-1053.27 2614.7,-1059.27 2608.7,-1065.27 2602.7,-1065.27"/>
<text text-anchor="middle" x="2567.7" y="-1044.77" font-family="Helvetica,sans-Serif" font-size="10.00">Tier 1 Historical</text>
</g>
<!-- L3 -->
<g id="node43" class="node">
<title>L3</title>
<path fill="#6ee7b7" stroke="black" d="M2490.7,-1065.27C2490.7,-1065.27 2420.7,-1065.27 2420.7,-1065.27 2414.7,-1065.27 2408.7,-1059.27 2408.7,-1053.27 2408.7,-1053.27 2408.7,-1041.27 2408.7,-1041.27 2408.7,-1035.27 2414.7,-1029.27 2420.7,-1029.27 2420.7,-1029.27 2490.7,-1029.27 2490.7,-1029.27 2496.7,-1029.27 2502.7,-1035.27 2502.7,-1041.27 2502.7,-1041.27 2502.7,-1053.27 2502.7,-1053.27 2502.7,-1059.27 2496.7,-1065.27 2490.7,-1065.27"/>
<text text-anchor="middle" x="2455.7" y="-1044.77" font-family="Helvetica,sans-Serif" font-size="10.00">Tier 2 Historical</text>
</g>
<!-- L4 -->
<g id="node44" class="node">
<title>L4</title>
<path fill="#bbf7d0" stroke="black" d="M2378.7,-1065.27C2378.7,-1065.27 2308.7,-1065.27 2308.7,-1065.27 2302.7,-1065.27 2296.7,-1059.27 2296.7,-1053.27 2296.7,-1053.27 2296.7,-1041.27 2296.7,-1041.27 2296.7,-1035.27 2302.7,-1029.27 2308.7,-1029.27 2308.7,-1029.27 2378.7,-1029.27 2378.7,-1029.27 2384.7,-1029.27 2390.7,-1035.27 2390.7,-1041.27 2390.7,-1041.27 2390.7,-1053.27 2390.7,-1053.27 2390.7,-1059.27 2384.7,-1065.27 2378.7,-1065.27"/>
<text text-anchor="middle" x="2343.7" y="-1044.77" font-family="Helvetica,sans-Serif" font-size="10.00">Tier 3 Historical</text>
</g>
<!-- L5 -->
<g id="node45" class="node">
<title>L5</title>
<path fill="#fef3c7" stroke="black" d="M2266.2,-1065.27C2266.2,-1065.27 2213.2,-1065.27 2213.2,-1065.27 2207.2,-1065.27 2201.2,-1059.27 2201.2,-1053.27 2201.2,-1053.27 2201.2,-1041.27 2201.2,-1041.27 2201.2,-1035.27 2207.2,-1029.27 2213.2,-1029.27 2213.2,-1029.27 2266.2,-1029.27 2266.2,-1029.27 2272.2,-1029.27 2278.2,-1035.27 2278.2,-1041.27 2278.2,-1041.27 2278.2,-1053.27 2278.2,-1053.27 2278.2,-1059.27 2272.2,-1065.27 2266.2,-1065.27"/>
<text text-anchor="middle" x="2239.7" y="-1044.77" font-family="Helvetica,sans-Serif" font-size="10.00">Orchestrator</text>
</g>
<!-- L6 -->
<g id="node46" class="node">
<title>L6</title>
<path fill="#fecaca" stroke="black" d="M2170.7,-1065.27C2170.7,-1065.27 2086.7,-1065.27 2086.7,-1065.27 2080.7,-1065.27 2074.7,-1059.27 2074.7,-1053.27 2074.7,-1053.27 2074.7,-1041.27 2074.7,-1041.27 2074.7,-1035.27 2080.7,-1029.27 2086.7,-1029.27 2086.7,-1029.27 2170.7,-1029.27 2170.7,-1029.27 2176.7,-1029.27 2182.7,-1035.27 2182.7,-1041.27 2182.7,-1041.27 2182.7,-1053.27 2182.7,-1053.27 2182.7,-1059.27 2176.7,-1065.27 2170.7,-1065.27"/>
<text text-anchor="middle" x="2128.7" y="-1044.77" font-family="Helvetica,sans-Serif" font-size="10.00">Resilience/Failover</text>
</g>
<!-- L7 -->
<g id="node47" class="node">
<title>L7</title>
<path fill="#e0e7ff" stroke="black" d="M2044.2,-1065.27C2044.2,-1065.27 1937.2,-1065.27 1937.2,-1065.27 1931.2,-1065.27 1925.2,-1059.27 1925.2,-1053.27 1925.2,-1053.27 1925.2,-1041.27 1925.2,-1041.27 1925.2,-1035.27 1931.2,-1029.27 1937.2,-1029.27 1937.2,-1029.27 2044.2,-1029.27 2044.2,-1029.27 2050.2,-1029.27 2056.2,-1035.27 2056.2,-1041.27 2056.2,-1041.27 2056.2,-1053.27 2056.2,-1053.27 2056.2,-1059.27 2050.2,-1065.27 2044.2,-1065.27"/>
<text text-anchor="middle" x="1990.7" y="-1044.77" font-family="Helvetica,sans-Serif" font-size="10.00">Development/Synthetic</text>
</g>
<!-- L8 -->
<g id="node48" class="node">
<title>L8</title>
<path fill="#feebc8" stroke="black" d="M1895.2,-1065.27C1895.2,-1065.27 1830.2,-1065.27 1830.2,-1065.27 1824.2,-1065.27 1818.2,-1059.27 1818.2,-1053.27 1818.2,-1053.27 1818.2,-1041.27 1818.2,-1041.27 1818.2,-1035.27 1824.2,-1029.27 1830.2,-1029.27 1830.2,-1029.27 1895.2,-1029.27 1895.2,-1029.27 1901.2,-1029.27 1907.2,-1035.27 1907.2,-1041.27 1907.2,-1041.27 1907.2,-1053.27 1907.2,-1053.27 1907.2,-1059.27 1901.2,-1065.27 1895.2,-1065.27"/>
<text text-anchor="middle" x="1862.7" y="-1044.77" font-family="Helvetica,sans-Serif" font-size="10.00">Symbol Search</text>
</g>
</g>
</svg>
