<?xml version="1.0" encoding="UTF-8" standalone="no"?>
<!DOCTYPE svg PUBLIC "-//W3C//DTD SVG 1.1//EN"
 "http://www.w3.org/Graphics/SVG/1.1/DTD/svg11.dtd">
<!-- Generated by graphviz version 2.43.0 (0)
 -->
<!-- Title: WorkstationDelivery Pages: 1 -->
<svg width="2470pt" height="556pt"
 viewBox="0.00 0.00 2470.00 556.00" xmlns="http://www.w3.org/2000/svg" xmlns:xlink="http://www.w3.org/1999/xlink">
<g id="graph0" class="graph" transform="scale(1 1) rotate(0) translate(36 520)">
<title>WorkstationDelivery</title>
<polygon fill="white" stroke="transparent" points="-36,36 -36,-520 2434,-520 2434,36 -36,36"/>
<text text-anchor="middle" x="1199" y="-470.4" font-family="Helvetica,sans-Serif" font-size="12.00">Meridian &#45; Workstation Delivery</text>
<text text-anchor="middle" x="1199" y="-457.4" font-family="Helvetica,sans-Serif" font-size="12.00">Shared read models, governance handoffs, and security review across WPF and desktop&#45;local API surfaces | v1.8.x</text>
<g id="clust1" class="cluster">
<title>cluster_surfaces</title>
<path fill="#faf5ff" stroke="#805ad5" d="M20,-28C20,-28 548,-28 548,-28 554,-28 560,-34 560,-40 560,-40 560,-187 560,-187 560,-193 554,-199 548,-199 548,-199 20,-199 20,-199 14,-199 8,-193 8,-187 8,-187 8,-40 8,-40 8,-34 14,-28 20,-28"/>
<text text-anchor="middle" x="284" y="-185.4" font-family="Helvetica,sans-Serif" font-size="12.00">Operator Surfaces</text>
</g>
<g id="clust2" class="cluster">
<title>cluster_delivery</title>
<path fill="#dbeafe" stroke="#2b6cb0" d="M651,-20C651,-20 2113,-20 2113,-20 2119,-20 2125,-26 2125,-32 2125,-32 2125,-221 2125,-221 2125,-227 2119,-233 2113,-233 2113,-233 651,-233 651,-233 645,-233 639,-227 639,-221 639,-221 639,-32 639,-32 639,-26 645,-20 651,-20"/>
<text text-anchor="middle" x="1382" y="-219.4" font-family="Helvetica,sans-Serif" font-size="12.00">Shared Delivery Services</text>
</g>
<g id="clust3" class="cluster">
<title>cluster_state</title>
<path fill="#fff5f5" stroke="#c53030" d="M2236,-123C2236,-123 2378,-123 2378,-123 2384,-123 2390,-129 2390,-135 2390,-135 2390,-249 2390,-249 2390,-255 2384,-261 2378,-261 2378,-261 2236,-261 2236,-261 2230,-261 2224,-255 2224,-249 2224,-249 2224,-135 2224,-135 2224,-129 2230,-123 2236,-123"/>
<text text-anchor="middle" x="2307" y="-247.4" font-family="Helvetica,sans-Serif" font-size="12.00">Shared State</text>
</g>
<g id="clust4" class="cluster">
<title>cluster_legend</title>
<path fill="#fafafa" stroke="#666666" d="M60,-207C60,-207 180,-207 180,-207 186,-207 192,-213 192,-219 192,-219 192,-430 192,-430 192,-436 186,-442 180,-442 180,-442 60,-442 60,-442 54,-442 48,-436 48,-430 48,-430 48,-219 48,-219 48,-213 54,-207 60,-207"/>
<text text-anchor="middle" x="120" y="-428.4" font-family="Helvetica,sans-Serif" font-size="12.00">Legend</text>
</g>
<!-- WPF_SURFACES -->
<g id="node1" class="node">
<title>WPF_SURFACES</title>
<path fill="#805ad5" stroke="black" d="M196,-110C196,-110 44,-110 44,-110 38,-110 32,-104 32,-98 32,-98 32,-48 32,-48 32,-42 38,-36 44,-36 44,-36 196,-36 196,-36 202,-36 208,-42 208,-48 208,-48 208,-98 208,-98 208,-104 202,-110 196,-110"/>
<text text-anchor="middle" x="120" y="-98" font-family="Helvetica,sans-Serif" font-size="10.00" fill="white">Meridian.Wpf</text>
<text text-anchor="middle" x="120" y="-87" font-family="Helvetica,sans-Serif" font-size="10.00" fill="white">ResearchWorkspaceShellPage</text>
<text text-anchor="middle" x="120" y="-76" font-family="Helvetica,sans-Serif" font-size="10.00" fill="white">TradingWorkspaceShellPage</text>
<text text-anchor="middle" x="120" y="-65" font-family="Helvetica,sans-Serif" font-size="10.00" fill="white">GovernanceWorkspaceShellPage</text>
<text text-anchor="middle" x="120" y="-54" font-family="Helvetica,sans-Serif" font-size="10.00" fill="white">SecurityMasterPage</text>
<text text-anchor="middle" x="120" y="-43" font-family="Helvetica,sans-Serif" font-size="10.00" fill="white">(queue + action inspector)</text>
</g>
<!-- WPF_WORKSPACE -->
<g id="node4" class="node">
<title>WPF_WORKSPACE</title>
<path fill="#bfdbfe" stroke="black" d="M820,-93.5C820,-93.5 659,-93.5 659,-93.5 653,-93.5 647,-87.5 647,-81.5 647,-81.5 647,-64.5 647,-64.5 647,-58.5 653,-52.5 659,-52.5 659,-52.5 820,-52.5 820,-52.5 826,-52.5 832,-58.5 832,-64.5 832,-64.5 832,-81.5 832,-81.5 832,-87.5 826,-93.5 820,-93.5"/>
<text text-anchor="middle" x="739.5" y="-81.5" font-family="Helvetica,sans-Serif" font-size="10.00">StrategyRunWorkspaceService</text>
<text text-anchor="middle" x="739.5" y="-70.5" font-family="Helvetica,sans-Serif" font-size="10.00">active run context</text>
<text text-anchor="middle" x="739.5" y="-59.5" font-family="Helvetica,sans-Serif" font-size="10.00">run browser + governance handoff</text>
</g>
<!-- WPF_SURFACES&#45;&gt;WPF_WORKSPACE -->
<g id="edge1" class="edge">
<title>WPF_SURFACES&#45;&gt;WPF_WORKSPACE</title>
<path fill="none" stroke="#4a5568" d="M208.16,-73C320.9,-73 516.95,-73 636.5,-73"/>
<polygon fill="#4a5568" stroke="#4a5568" points="636.75,-76.5 646.75,-73 636.75,-69.5 636.75,-76.5"/>
<text text-anchor="middle" x="447" y="-75.8" font-family="Helvetica,sans-Serif" font-size="9.00">desktop pages</text>
</g>
<!-- SECURITY_QUERY -->
<g id="node11" class="node">
<title>SECURITY_QUERY</title>
<path fill="#d1fae5" stroke="black" d="M2105,-139.5C2105,-139.5 1953,-139.5 1953,-139.5 1947,-139.5 1941,-133.5 1941,-127.5 1941,-127.5 1941,-110.5 1941,-110.5 1941,-104.5 1947,-98.5 1953,-98.5 1953,-98.5 2105,-98.5 2105,-98.5 2111,-98.5 2117,-104.5 2117,-110.5 2117,-110.5 2117,-127.5 2117,-127.5 2117,-133.5 2111,-139.5 2105,-139.5"/>
<text text-anchor="middle" x="2029" y="-127.5" font-family="Helvetica,sans-Serif" font-size="10.00">ISecurityMasterQueryService</text>
<text text-anchor="middle" x="2029" y="-116.5" font-family="Helvetica,sans-Serif" font-size="10.00">security detail / history / identity</text>
<text text-anchor="middle" x="2029" y="-105.5" font-family="Helvetica,sans-Serif" font-size="10.00">economic definition</text>
</g>
<!-- WPF_SURFACES&#45;&gt;SECURITY_QUERY -->
<g id="edge4" class="edge">
<title>WPF_SURFACES&#45;&gt;SECURITY_QUERY</title>
<path fill="none" stroke="#2b6cb0" stroke-dasharray="5,2" d="M208.09,-42.46C272.87,-22.46 363.88,0 446,0 446,0 446,0 1669,0 1787.05,0 1916.36,-58.7 1982.89,-93.64"/>
<polygon fill="#2b6cb0" stroke="#2b6cb0" points="1981.38,-96.8 1991.85,-98.41 1984.66,-90.62 1981.38,-96.8"/>
<text text-anchor="middle" x="1076" y="-2.8" font-family="Helvetica,sans-Serif" font-size="9.00">security assurance cards</text>
</g>
<!-- WEB_SHELL -->
<g id="node2" class="node">
<title>WEB_SHELL</title>
<path fill="#805ad5" stroke="black" d="M212,-169.5C212,-169.5 28,-169.5 28,-169.5 22,-169.5 16,-163.5 16,-157.5 16,-157.5 16,-140.5 16,-140.5 16,-134.5 22,-128.5 28,-128.5 28,-128.5 212,-128.5 212,-128.5 218,-128.5 224,-134.5 224,-140.5 224,-140.5 224,-157.5 224,-157.5 224,-163.5 218,-169.5 212,-169.5"/>
<text text-anchor="middle" x="120" y="-157.5" font-family="Helvetica,sans-Serif" font-size="10.00" fill="white">Desktop&#45;local API host</text>
<text text-anchor="middle" x="120" y="-146.5" font-family="Helvetica,sans-Serif" font-size="10.00" fill="white">localhost&#45;only /api/*</text>
<text text-anchor="middle" x="120" y="-135.5" font-family="Helvetica,sans-Serif" font-size="10.00" fill="white">Swagger + retained workstation routes</text>
</g>
<!-- API_SURFACE -->
<g id="node3" class="node">
<title>API_SURFACE</title>
<path fill="#c4b5fd" stroke="black" d="M540,-169.5C540,-169.5 354,-169.5 354,-169.5 348,-169.5 342,-163.5 342,-157.5 342,-157.5 342,-118.5 342,-118.5 342,-112.5 348,-106.5 354,-106.5 354,-106.5 540,-106.5 540,-106.5 546,-106.5 552,-112.5 552,-118.5 552,-118.5 552,-157.5 552,-157.5 552,-163.5 546,-169.5 540,-169.5"/>
<text text-anchor="middle" x="447" y="-157.5" font-family="Helvetica,sans-Serif" font-size="10.00">Retained workstation + portfolio routes</text>
<text text-anchor="middle" x="447" y="-146.5" font-family="Helvetica,sans-Serif" font-size="10.00">/api/workstation/*</text>
<text text-anchor="middle" x="447" y="-135.5" font-family="Helvetica,sans-Serif" font-size="10.00">/api/portfolio/*</text>
<text text-anchor="middle" x="447" y="-124.5" font-family="Helvetica,sans-Serif" font-size="10.00">/api/strategies/*</text>
<text text-anchor="middle" x="447" y="-113.5" font-family="Helvetica,sans-Serif" font-size="10.00">/api/security&#45;master/*</text>
</g>
<!-- WEB_SHELL&#45;&gt;API_SURFACE -->
<g id="edge2" class="edge">
<title>WEB_SHELL&#45;&gt;API_SURFACE</title>
<path fill="none" stroke="#4a5568" d="M224.28,-145.5C258.45,-144.35 296.67,-143.05 331.63,-141.87"/>
<polygon fill="#4a5568" stroke="#4a5568" points="332,-145.36 341.87,-141.52 331.76,-138.36 332,-145.36"/>
<text text-anchor="middle" x="283" y="-146.8" font-family="Helvetica,sans-Serif" font-size="9.00">localhost requests</text>
</g>
<!-- WORKSTATION_ENDPOINTS -->
<g id="node5" class="node">
<title>WORKSTATION_ENDPOINTS</title>
<path fill="#93c5fd" stroke="black" d="M811.5,-173C811.5,-173 667.5,-173 667.5,-173 661.5,-173 655.5,-167 655.5,-161 655.5,-161 655.5,-133 655.5,-133 655.5,-127 661.5,-121 667.5,-121 667.5,-121 811.5,-121 811.5,-121 817.5,-121 823.5,-127 823.5,-133 823.5,-133 823.5,-161 823.5,-161 823.5,-167 817.5,-173 811.5,-173"/>
<text text-anchor="middle" x="739.5" y="-161" font-family="Helvetica,sans-Serif" font-size="10.00">WorkstationEndpoints</text>
<text text-anchor="middle" x="739.5" y="-150" font-family="Helvetica,sans-Serif" font-size="10.00">runs / ledger / cash&#45;flow</text>
<text text-anchor="middle" x="739.5" y="-139" font-family="Helvetica,sans-Serif" font-size="10.00">security master / reconciliation</text>
<text text-anchor="middle" x="739.5" y="-128" font-family="Helvetica,sans-Serif" font-size="10.00">break queue + retained APIs</text>
</g>
<!-- API_SURFACE&#45;&gt;WORKSTATION_ENDPOINTS -->
<g id="edge3" class="edge">
<title>API_SURFACE&#45;&gt;WORKSTATION_ENDPOINTS</title>
<path fill="none" stroke="#4a5568" d="M552.06,-141.22C582.35,-142.16 615.25,-143.18 644.86,-144.1"/>
<polygon fill="#4a5568" stroke="#4a5568" points="645.08,-147.61 655.18,-144.42 645.29,-140.61 645.08,-147.61"/>
<text text-anchor="middle" x="599.5" y="-145.8" font-family="Helvetica,sans-Serif" font-size="9.00">route groups</text>
</g>
<!-- RUN_READ -->
<g id="node6" class="node">
<title>RUN_READ</title>
<path fill="#bfdbfe" stroke="black" d="M1147.5,-69.5C1147.5,-69.5 1004.5,-69.5 1004.5,-69.5 998.5,-69.5 992.5,-63.5 992.5,-57.5 992.5,-57.5 992.5,-40.5 992.5,-40.5 992.5,-34.5 998.5,-28.5 1004.5,-28.5 1004.5,-28.5 1147.5,-28.5 1147.5,-28.5 1153.5,-28.5 1159.5,-34.5 1159.5,-40.5 1159.5,-40.5 1159.5,-57.5 1159.5,-57.5 1159.5,-63.5 1153.5,-69.5 1147.5,-69.5"/>
<text text-anchor="middle" x="1076" y="-57.5" font-family="Helvetica,sans-Serif" font-size="10.00">StrategyRunReadService</text>
<text text-anchor="middle" x="1076" y="-46.5" font-family="Helvetica,sans-Serif" font-size="10.00">summary, detail, equity curve,</text>
<text text-anchor="middle" x="1076" y="-35.5" font-family="Helvetica,sans-Serif" font-size="10.00">fills, attribution</text>
</g>
<!-- WPF_WORKSPACE&#45;&gt;RUN_READ -->
<g id="edge5" class="edge">
<title>WPF_WORKSPACE&#45;&gt;RUN_READ</title>
<path fill="none" stroke="#4a5568" d="M825.69,-52.47C833.87,-51.06 842.07,-49.86 850,-49 893.32,-44.31 941.61,-43.71 982.31,-44.52"/>
<polygon fill="#4a5568" stroke="#4a5568" points="982.41,-48.02 992.48,-44.75 982.57,-41.02 982.41,-48.02"/>
<text text-anchor="middle" x="898" y="-51.8" font-family="Helvetica,sans-Serif" font-size="9.00">desktop drill&#45;ins</text>
</g>
<!-- CASH_FLOW -->
<g id="node9" class="node">
<title>CASH_FLOW</title>
<path fill="#dbeafe" stroke="black" d="M1141.5,-124C1141.5,-124 1010.5,-124 1010.5,-124 1004.5,-124 998.5,-118 998.5,-112 998.5,-112 998.5,-100 998.5,-100 998.5,-94 1004.5,-88 1010.5,-88 1010.5,-88 1141.5,-88 1141.5,-88 1147.5,-88 1153.5,-94 1153.5,-100 1153.5,-100 1153.5,-112 1153.5,-112 1153.5,-118 1147.5,-124 1141.5,-124"/>
<text text-anchor="middle" x="1076" y="-109" font-family="Helvetica,sans-Serif" font-size="10.00">CashFlowProjectionService</text>
<text text-anchor="middle" x="1076" y="-98" font-family="Helvetica,sans-Serif" font-size="10.00">cash ladder / bucketed flows</text>
</g>
<!-- WPF_WORKSPACE&#45;&gt;CASH_FLOW -->
<g id="edge6" class="edge">
<title>WPF_WORKSPACE&#45;&gt;CASH_FLOW</title>
<path fill="none" stroke="#4a5568" d="M832.02,-74.26C867.68,-75.47 908.83,-77.75 946,-82 959.66,-83.56 974.05,-85.72 988.06,-88.11"/>
<polygon fill="#4a5568" stroke="#4a5568" points="987.73,-91.6 998.19,-89.88 988.94,-84.71 987.73,-91.6"/>
<text text-anchor="middle" x="898" y="-84.8" font-family="Helvetica,sans-Serif" font-size="9.00">cash flow panels</text>
</g>
<!-- WORKSTATION_ENDPOINTS&#45;&gt;RUN_READ -->
<g id="edge7" class="edge">
<title>WORKSTATION_ENDPOINTS&#45;&gt;RUN_READ</title>
<path fill="none" stroke="#4a5568" d="M823.74,-121.28C832.58,-118.74 841.46,-116.26 850,-114 892.31,-102.79 906.13,-110.06 946,-92 954.99,-87.93 955.09,-83.25 964,-79 969.99,-76.14 976.3,-73.52 982.74,-71.13"/>
<polygon fill="#4a5568" stroke="#4a5568" points="983.99,-74.4 992.26,-67.77 981.66,-67.8 983.99,-74.4"/>
<text text-anchor="middle" x="898" y="-116.8" font-family="Helvetica,sans-Serif" font-size="9.00">runs / ledger / fills</text>
</g>
<!-- WORKSTATION_ENDPOINTS&#45;&gt;CASH_FLOW -->
<g id="edge8" class="edge">
<title>WORKSTATION_ENDPOINTS&#45;&gt;CASH_FLOW</title>
<path fill="none" stroke="#4a5568" d="M823.58,-138.86C861.03,-135 905.78,-130.11 946,-125 959.64,-123.27 974.08,-121.28 988.16,-119.27"/>
<polygon fill="#4a5568" stroke="#4a5568" points="988.93,-122.7 998.33,-117.8 987.93,-115.77 988.93,-122.7"/>
<text text-anchor="middle" x="898" y="-138.8" font-family="Helvetica,sans-Serif" font-size="9.00">cash&#45;flow projections</text>
</g>
<!-- WORKSTATION_ENDPOINTS&#45;&gt;SECURITY_QUERY -->
<g id="edge9" class="edge">
<title>WORKSTATION_ENDPOINTS&#45;&gt;SECURITY_QUERY</title>
<path fill="none" stroke="#4a5568" d="M823.72,-168.32C865.51,-177.95 917.1,-188.22 964,-193 1319.44,-229.2 1743.52,-168.79 1930.85,-136.84"/>
<polygon fill="#4a5568" stroke="#4a5568" points="1931.69,-140.25 1940.95,-135.11 1930.5,-133.35 1931.69,-140.25"/>
<text text-anchor="middle" x="1375.5" y="-204.8" font-family="Helvetica,sans-Serif" font-size="9.00">security master detail</text>
</g>
<!-- RECONCILIATION_NOTE -->
<g id="node12" class="node">
<title>RECONCILIATION_NOTE</title>
<polygon fill="#feebc8" stroke="black" points="1182,-183.5 964,-183.5 964,-142.5 1188,-142.5 1188,-177.5 1182,-183.5"/>
<polyline fill="none" stroke="black" points="1182,-183.5 1182,-177.5 "/>
<polyline fill="none" stroke="black" points="1188,-177.5 1182,-177.5 "/>
<text text-anchor="middle" x="1076" y="-171.5" font-family="Helvetica,sans-Serif" font-size="10.00">Reconciliation + break&#45;queue review</text>
<text text-anchor="middle" x="1076" y="-160.5" font-family="Helvetica,sans-Serif" font-size="10.00">live under /api/workstation/reconciliation/*</text>
<text text-anchor="middle" x="1076" y="-149.5" font-family="Helvetica,sans-Serif" font-size="10.00">(see fund&#45;ops&#45;reconciliation.dot)</text>
</g>
<!-- WORKSTATION_ENDPOINTS&#45;&gt;RECONCILIATION_NOTE -->
<g id="edge10" class="edge">
<title>WORKSTATION_ENDPOINTS&#45;&gt;RECONCILIATION_NOTE</title>
<path fill="none" stroke="#ed8936" stroke-dasharray="5,2" d="M823.55,-156.03C832.47,-156.79 841.42,-157.47 850,-158 883.58,-160.06 920.02,-161.3 953.6,-162.03"/>
<polygon fill="#ed8936" stroke="#ed8936" points="953.85,-165.54 963.92,-162.25 953.99,-158.54 953.85,-165.54"/>
</g>
<!-- PORTFOLIO_READ -->
<g id="node7" class="node">
<title>PORTFOLIO_READ</title>
<path fill="#dbeafe" stroke="black" d="M1423,-69.5C1423,-69.5 1328,-69.5 1328,-69.5 1322,-69.5 1316,-63.5 1316,-57.5 1316,-57.5 1316,-40.5 1316,-40.5 1316,-34.5 1322,-28.5 1328,-28.5 1328,-28.5 1423,-28.5 1423,-28.5 1429,-28.5 1435,-34.5 1435,-40.5 1435,-40.5 1435,-57.5 1435,-57.5 1435,-63.5 1429,-69.5 1423,-69.5"/>
<text text-anchor="middle" x="1375.5" y="-57.5" font-family="Helvetica,sans-Serif" font-size="10.00">PortfolioReadService</text>
<text text-anchor="middle" x="1375.5" y="-46.5" font-family="Helvetica,sans-Serif" font-size="10.00">positions, exposure,</text>
<text text-anchor="middle" x="1375.5" y="-35.5" font-family="Helvetica,sans-Serif" font-size="10.00">security enrichment</text>
</g>
<!-- RUN_READ&#45;&gt;PORTFOLIO_READ -->
<g id="edge11" class="edge">
<title>RUN_READ&#45;&gt;PORTFOLIO_READ</title>
<path fill="none" stroke="#4a5568" d="M1159.87,-49C1205.71,-49 1262.01,-49 1305.45,-49"/>
<polygon fill="#4a5568" stroke="#4a5568" points="1305.63,-52.5 1315.63,-49 1305.63,-45.5 1305.63,-52.5"/>
<text text-anchor="middle" x="1251" y="-51.8" font-family="Helvetica,sans-Serif" font-size="9.00">portfolio summaries</text>
</g>
<!-- LEDGER_READ -->
<g id="node8" class="node">
<title>LEDGER_READ</title>
<path fill="#dbeafe" stroke="black" d="M1425,-128.5C1425,-128.5 1326,-128.5 1326,-128.5 1320,-128.5 1314,-122.5 1314,-116.5 1314,-116.5 1314,-99.5 1314,-99.5 1314,-93.5 1320,-87.5 1326,-87.5 1326,-87.5 1425,-87.5 1425,-87.5 1431,-87.5 1437,-93.5 1437,-99.5 1437,-99.5 1437,-116.5 1437,-116.5 1437,-122.5 1431,-128.5 1425,-128.5"/>
<text text-anchor="middle" x="1375.5" y="-116.5" font-family="Helvetica,sans-Serif" font-size="10.00">LedgerReadService</text>
<text text-anchor="middle" x="1375.5" y="-105.5" font-family="Helvetica,sans-Serif" font-size="10.00">trial balance,</text>
<text text-anchor="middle" x="1375.5" y="-94.5" font-family="Helvetica,sans-Serif" font-size="10.00">journal, ledger rollups</text>
</g>
<!-- RUN_READ&#45;&gt;LEDGER_READ -->
<g id="edge12" class="edge">
<title>RUN_READ&#45;&gt;LEDGER_READ</title>
<path fill="none" stroke="#4a5568" d="M1159.87,-65.43C1205.17,-74.42 1260.68,-85.43 1303.9,-94"/>
<polygon fill="#4a5568" stroke="#4a5568" points="1303.28,-97.44 1313.77,-95.96 1304.64,-90.58 1303.28,-97.44"/>
<text text-anchor="middle" x="1251" y="-94.8" font-family="Helvetica,sans-Serif" font-size="9.00">ledger summaries</text>
</g>
<!-- RUN_STORE -->
<g id="node13" class="node">
<title>RUN_STORE</title>
<path fill="#fecaca" stroke="black" d="M2380,-227.98C2380,-230.06 2347.28,-231.75 2307,-231.75 2266.72,-231.75 2234,-230.06 2234,-227.98 2234,-227.98 2234,-194.02 2234,-194.02 2234,-191.94 2266.72,-190.25 2307,-190.25 2347.28,-190.25 2380,-191.94 2380,-194.02 2380,-194.02 2380,-227.98 2380,-227.98"/>
<path fill="none" stroke="black" d="M2380,-227.98C2380,-225.9 2347.28,-224.21 2307,-224.21 2266.72,-224.21 2234,-225.9 2234,-227.98"/>
<text text-anchor="middle" x="2307" y="-214" font-family="Helvetica,sans-Serif" font-size="10.00">StrategyRunStore</text>
<text text-anchor="middle" x="2307" y="-203" font-family="Helvetica,sans-Serif" font-size="10.00">backtest / paper / live runs</text>
</g>
<!-- RUN_READ&#45;&gt;RUN_STORE -->
<g id="edge16" class="edge">
<title>RUN_READ&#45;&gt;RUN_STORE</title>
<path fill="none" stroke="#4a5568" d="M1159.78,-64.13C1169.8,-68.01 1179.49,-72.88 1188,-79 1199.71,-87.42 1196.39,-95.25 1206,-106 1247.83,-152.8 1257.86,-168.92 1314,-197 1338.68,-209.35 1346.9,-211 1374.5,-211 1374.5,-211 1374.5,-211 2030,-211 2095.18,-211 2169.02,-211 2223.92,-211"/>
<polygon fill="#4a5568" stroke="#4a5568" points="2223.94,-214.5 2233.94,-211 2223.94,-207.5 2223.94,-214.5"/>
<text text-anchor="middle" x="1668" y="-213.8" font-family="Helvetica,sans-Serif" font-size="9.00">read run entries</text>
</g>
<!-- SECURITY_LOOKUP -->
<g id="node10" class="node">
<title>SECURITY_LOOKUP</title>
<path fill="#dbeafe" stroke="black" d="M1763,-128.5C1763,-128.5 1573,-128.5 1573,-128.5 1567,-128.5 1561,-122.5 1561,-116.5 1561,-116.5 1561,-99.5 1561,-99.5 1561,-93.5 1567,-87.5 1573,-87.5 1573,-87.5 1763,-87.5 1763,-87.5 1769,-87.5 1775,-93.5 1775,-99.5 1775,-99.5 1775,-116.5 1775,-116.5 1775,-122.5 1769,-128.5 1763,-128.5"/>
<text text-anchor="middle" x="1668" y="-116.5" font-family="Helvetica,sans-Serif" font-size="10.00">SecurityMasterSecurityReferenceLookup</text>
<text text-anchor="middle" x="1668" y="-105.5" font-family="Helvetica,sans-Serif" font-size="10.00">enrich symbols with authoritative</text>
<text text-anchor="middle" x="1668" y="-94.5" font-family="Helvetica,sans-Serif" font-size="10.00">asset&#45;class + identifier data</text>
</g>
<!-- PORTFOLIO_READ&#45;&gt;SECURITY_LOOKUP -->
<g id="edge13" class="edge">
<title>PORTFOLIO_READ&#45;&gt;SECURITY_LOOKUP</title>
<path fill="none" stroke="#4a5568" d="M1435.29,-60.94C1469.97,-67.98 1515.01,-77.13 1556.14,-85.48"/>
<polygon fill="#4a5568" stroke="#4a5568" points="1555.45,-88.92 1565.95,-87.48 1556.84,-82.06 1555.45,-88.92"/>
<text text-anchor="middle" x="1499" y="-84.8" font-family="Helvetica,sans-Serif" font-size="9.00">enrich positions</text>
</g>
<!-- LEDGER_READ&#45;&gt;SECURITY_LOOKUP -->
<g id="edge14" class="edge">
<title>LEDGER_READ&#45;&gt;SECURITY_LOOKUP</title>
<path fill="none" stroke="#4a5568" d="M1437.04,-108C1469.86,-108 1511.55,-108 1550.39,-108"/>
<polygon fill="#4a5568" stroke="#4a5568" points="1550.73,-111.5 1560.73,-108 1550.73,-104.5 1550.73,-111.5"/>
<text text-anchor="middle" x="1499" y="-110.8" font-family="Helvetica,sans-Serif" font-size="9.00">enrich trial balance</text>
</g>
<!-- CASH_FLOW&#45;&gt;RUN_STORE -->
<g id="edge17" class="edge">
<title>CASH_FLOW&#45;&gt;RUN_STORE</title>
<path fill="none" stroke="#4a5568" d="M1153.61,-113.27C1166.5,-117.63 1178.69,-124.2 1188,-134 1216.39,-163.9 1176.74,-195.96 1206,-225 1260.11,-278.7 1298.27,-257 1374.5,-257 1374.5,-257 1374.5,-257 2030,-257 2095.85,-257 2169.36,-244.1 2223.94,-231.96"/>
<polygon fill="#4a5568" stroke="#4a5568" points="2224.93,-235.33 2233.91,-229.71 2223.38,-228.5 2224.93,-235.33"/>
<text text-anchor="middle" x="1668" y="-259.8" font-family="Helvetica,sans-Serif" font-size="9.00">iterate cash&#45;flow metrics</text>
</g>
<!-- SECURITY_LOOKUP&#45;&gt;SECURITY_QUERY -->
<g id="edge15" class="edge">
<title>SECURITY_LOOKUP&#45;&gt;SECURITY_QUERY</title>
<path fill="none" stroke="#4a5568" d="M1775.25,-111.26C1824.48,-112.76 1882.57,-114.54 1930.64,-116.02"/>
<polygon fill="#4a5568" stroke="#4a5568" points="1930.64,-119.52 1940.74,-116.33 1930.85,-112.52 1930.64,-119.52"/>
<text text-anchor="middle" x="1858" y="-117.8" font-family="Helvetica,sans-Serif" font-size="9.00">lookup by symbol / identifier</text>
</g>
<!-- SECURITY_STATE -->
<g id="node14" class="node">
<title>SECURITY_STATE</title>
<path fill="#fecaca" stroke="black" d="M2382,-168.98C2382,-171.06 2348.38,-172.75 2307,-172.75 2265.62,-172.75 2232,-171.06 2232,-168.98 2232,-168.98 2232,-135.02 2232,-135.02 2232,-132.94 2265.62,-131.25 2307,-131.25 2348.38,-131.25 2382,-132.94 2382,-135.02 2382,-135.02 2382,-168.98 2382,-168.98"/>
<path fill="none" stroke="black" d="M2382,-168.98C2382,-166.9 2348.38,-165.21 2307,-165.21 2265.62,-165.21 2232,-166.9 2232,-168.98"/>
<text text-anchor="middle" x="2307" y="-155" font-family="Helvetica,sans-Serif" font-size="10.00">Security Master projections</text>
<text text-anchor="middle" x="2307" y="-144" font-family="Helvetica,sans-Serif" font-size="10.00">cache + backing store</text>
</g>
<!-- SECURITY_QUERY&#45;&gt;SECURITY_STATE -->
<g id="edge18" class="edge">
<title>SECURITY_QUERY&#45;&gt;SECURITY_STATE</title>
<path fill="none" stroke="#4a5568" d="M2117.33,-129.44C2150.68,-133.43 2188.61,-137.96 2221.67,-141.92"/>
<polygon fill="#4a5568" stroke="#4a5568" points="2221.42,-145.41 2231.76,-143.12 2222.25,-138.46 2221.42,-145.41"/>
<text text-anchor="middle" x="2174.5" y="-142.8" font-family="Helvetica,sans-Serif" font-size="9.00">query projections</text>
</g>
<!-- LEG_UI -->
<g id="node15" class="node">
<title>LEG_UI</title>
<path fill="#805ad5" stroke="black" d="M157,-413C157,-413 83,-413 83,-413 77,-413 71,-407 71,-401 71,-401 71,-389 71,-389 71,-383 77,-377 83,-377 83,-377 157,-377 157,-377 163,-377 169,-383 169,-389 169,-389 169,-401 169,-401 169,-407 163,-413 157,-413"/>
<text text-anchor="middle" x="120" y="-392.5" font-family="Helvetica,sans-Serif" font-size="10.00" fill="white">Operator surface</text>
</g>
<!-- LEG_APP -->
<g id="node16" class="node">
<title>LEG_APP</title>
<path fill="#bfdbfe" stroke="black" d="M163,-359C163,-359 77,-359 77,-359 71,-359 65,-353 65,-347 65,-347 65,-335 65,-335 65,-329 71,-323 77,-323 77,-323 163,-323 163,-323 169,-323 175,-329 175,-335 175,-335 175,-347 175,-347 175,-353 169,-359 163,-359"/>
<text text-anchor="middle" x="120" y="-338.5" font-family="Helvetica,sans-Serif" font-size="10.00">Application service</text>
</g>
<!-- LEG_SUPPORT -->
<g id="node17" class="node">
<title>LEG_SUPPORT</title>
<path fill="#dbeafe" stroke="black" d="M172,-305C172,-305 68,-305 68,-305 62,-305 56,-299 56,-293 56,-293 56,-281 56,-281 56,-275 62,-269 68,-269 68,-269 172,-269 172,-269 178,-269 184,-275 184,-281 184,-281 184,-293 184,-293 184,-299 178,-305 172,-305"/>
<text text-anchor="middle" x="120" y="-284.5" font-family="Helvetica,sans-Serif" font-size="10.00">Supporting read model</text>
</g>
<!-- LEG_STORE -->
<g id="node18" class="node">
<title>LEG_STORE</title>
<path fill="#fecaca" stroke="black" d="M183,-247.73C183,-249.53 154.76,-251 120,-251 85.24,-251 57,-249.53 57,-247.73 57,-247.73 57,-218.27 57,-218.27 57,-216.47 85.24,-215 120,-215 154.76,-215 183,-216.47 183,-218.27 183,-218.27 183,-247.73 183,-247.73"/>
<path fill="none" stroke="black" d="M183,-247.73C183,-245.92 154.76,-244.45 120,-244.45 85.24,-244.45 57,-245.92 57,-247.73"/>
<text text-anchor="middle" x="120" y="-230.5" font-family="Helvetica,sans-Serif" font-size="10.00">Shared persisted state</text>
</g>
</g>
</svg>
